<?xml version="1.0" encoding="UTF-8"?>
<svg width="224px" height="327px" viewBox="0 0 224 327" version="1.1" xmlns="http://www.w3.org/2000/svg" xmlns:xlink="http://www.w3.org/1999/xlink">
    <!-- Generator: Sketch 60 (88103) - https://sketch.com -->
    <title>figure3</title>
    <desc>Created with Sketch.</desc>
    <defs>
        <polygon id="path-1" points="0 0.457422543 223.393291 0.457422543 223.393291 326.999784 0 326.999784"></polygon>
    </defs>
    <g id="页面-1" stroke="none" stroke-width="1" fill="none" fill-rule="evenodd">
        <g id="桌面端-HD备份" transform="translate(-936.000000, -349.000000)">
            <g id="编组-3" transform="translate(132.000000, 252.000000)">
                <g id="figure3" transform="translate(804.000000, 96.000000)">
                    <g id="编组" transform="translate(0.000000, 0.543000)">
                        <mask id="mask-2" fill="white">
                            <use xlink:href="#path-1"></use>
                        </mask>
                        <g id="Clip-2"></g>
                        <path d="M36.8756233,147.2247 C37.1940448,147.0357 37.5134709,146.8447 37.8318924,146.6547 C37.4190493,145.8947 37.0062063,145.1347 36.5933632,144.3747 L35.4813991,145.0837 C35.9464753,145.7977 36.4105471,146.5117 36.8756233,147.2247 L36.8756233,147.2247 Z M86.0310673,84.3157 C86.6809686,84.8017 87.1500628,85.1537 87.619157,85.5037 C87.9144753,85.0507 88.4880359,84.5607 88.4327892,84.1547 C88.3654888,83.6627 87.7668161,83.2437 87.3981704,82.7917 C87.005417,83.2297 86.6116592,83.6677 86.0310673,84.3157 L86.0310673,84.3157 Z M93.6450583,91.7037 C93.0232825,92.6447 92.3442511,93.2187 92.3904574,93.7297 C92.4366637,94.2497 93.1950493,94.7077 93.6410404,95.1937 C94.0086816,94.6517 94.592287,94.1387 94.6746547,93.5567 C94.7359283,93.1127 94.1623677,92.5797 93.6450583,91.7037 L93.6450583,91.7037 Z M100.46852,260.6477 C102.487534,259.7077 101.652807,258.3437 101.288179,256.8377 C99.5453991,257.9297 99.5614709,259.1327 100.46852,260.6477 L100.46852,260.6477 Z M68.1090583,231.3107 C67.7705471,231.3187 67.4310314,231.3257 67.0935247,231.3317 C67.1758924,232.8587 67.2592646,234.3847 67.3426368,235.9117 C67.5977758,235.9087 67.8529148,235.9047 68.1090583,235.9017 L68.1090583,231.3107 Z M76.4533094,135.8207 C77.1705112,134.9017 77.7330224,134.3017 78.109704,133.6027 C78.1910673,133.4517 77.6054529,132.9437 77.3272108,132.5987 C76.7074439,133.1997 76.0454888,133.7667 75.5131121,134.4357 C75.4337578,134.5357 75.96513,135.1167 76.4533094,135.8207 L76.4533094,135.8207 Z M80.8850942,84.9307 C81.5229417,86.3777 82.1607892,87.8257 82.9593543,89.6357 C84.2310314,87.4007 84.2310314,87.4007 80.8850942,84.9307 L80.8850942,84.9307 Z M86.8959283,93.2237 C85.9908879,92.5797 85.4514798,92.1967 84.9120717,91.8127 C84.5042511,92.4117 83.9156233,92.9697 83.7619372,93.6277 C83.682583,93.9697 84.3706547,94.4897 84.7131839,94.9287 C85.3379731,94.4397 85.9637668,93.9517 86.8959283,93.2237 L86.8959283,93.2237 Z M85.0185471,118.3857 C85.9436771,117.3747 86.6116592,116.7057 87.1520717,115.9487 C87.1992825,115.8817 86.1325202,114.8457 86.0551749,114.9027 C85.3118565,115.4447 84.6157489,116.0817 84.0482152,116.8037 C83.9487713,116.9307 84.5052556,117.5717 85.0185471,118.3857 L85.0185471,118.3857 Z M94.1603587,97.8737 C93.443157,97.1017 92.833435,96.1077 92.5381166,96.1937 C91.8299552,96.3977 91.2694529,97.1097 90.6496861,97.6167 C91.2825112,98.1117 91.8631031,98.7277 92.578296,99.0347 C92.8183677,99.1377 93.3999641,98.4537 94.1603587,97.8737 L94.1603587,97.8737 Z M78.781704,266.6687 C79.4747982,265.4357 80.0563946,264.6677 80.3004843,263.8047 C80.3758206,263.5377 79.5320538,263.0137 79.1091659,262.6077 C78.5215426,263.3537 77.8284484,264.0477 77.4156054,264.8797 C77.3061166,265.1017 78.0544574,265.7457 78.781704,266.6687 L78.781704,266.6687 Z M72.3007713,5.6427 C72.1912825,5.5367 72.0817937,5.4317 71.9733094,5.3267 C71.0200538,6.0637 69.9271749,6.6857 69.1798386,7.5897 C68.8503677,7.9887 69.2250404,8.9627 69.2792825,9.6747 C69.7182422,9.5927 70.4173632,9.6527 70.5529686,9.4047 C71.2179372,8.1957 71.7332377,6.9057 72.3007713,5.6427 L72.3007713,5.6427 Z M83.3772197,68.5667 C84.2420807,69.1877 85.055713,70.0407 85.3068341,69.9007 C85.9316233,69.5487 86.7050762,68.7167 86.6618834,68.1327 C86.6166816,67.5157 85.6955695,66.9627 85.1561614,66.3827 C84.6529148,66.9997 84.1506726,67.6177 83.3772197,68.5667 L83.3772197,68.5667 Z M78.7284664,194.1907 C78.9755695,194.3837 79.2216682,194.5767 79.4687713,194.7697 C80.2010404,193.8687 80.9343139,192.9667 81.666583,192.0657 C81.0869955,191.7097 80.4119821,190.9567 79.9438924,191.0687 C78.1227623,191.5017 78.686278,192.9797 78.7284664,194.1907 L78.7284664,194.1907 Z M126.562009,199.5637 C126.820161,199.5697 127.078314,199.5757 127.337471,199.5817 C128.619193,198.2927 128.167175,196.7247 127.810583,195.2067 C127.755336,194.9697 127.158673,194.6187 126.997955,194.6967 C126.674511,194.8547 126.264682,195.2757 126.269704,195.5817 C126.292807,196.9107 126.45252,198.2367 126.562009,199.5637 L126.562009,199.5637 Z M80.8398924,5.3257 C79.3301525,7.3727 80.4029417,9.1477 80.608861,11.0567 C82.1537578,9.3607 82.2984036,7.2437 80.8398924,5.3257 L80.8398924,5.3257 Z M96.4294888,236.0897 C96.2115157,236.0957 95.9945471,236.1027 95.778583,236.1087 C95.3667444,237.0177 94.7961973,237.8947 94.6093632,238.8467 C94.5089148,239.3567 95.0704215,239.9947 95.3335964,240.5737 C95.8659731,240.1177 96.7900987,239.7037 96.8483587,239.1947 C96.9618655,238.1877 96.5962332,237.1277 96.4294888,236.0897 L96.4294888,236.0897 Z M79.3653094,269.8177 C79.5290404,270.0827 79.6937758,270.3477 79.8585112,270.6127 C80.3507085,270.8407 80.957417,271.3697 81.314009,271.2367 C82.1115695,270.9377 82.9181704,270.4177 83.4505471,269.7687 C83.6946368,269.4707 83.29887,268.6547 83.1923946,268.0727 C82.5033184,268.3637 81.8072108,268.6387 81.1271749,268.9487 C80.5305112,269.2187 79.9519283,269.5267 79.3653094,269.8177 L79.3653094,269.8177 Z M91.6792825,234.6937 C90.3834978,235.9337 89.9284664,237.2377 91.1880897,238.6317 C91.4241435,238.8937 92.5883408,238.8297 92.7641256,238.5587 C93.7706188,236.9987 93.1890224,235.7457 91.6792825,234.6937 L91.6792825,234.6937 Z M105.612484,30.3637 C104.385004,29.3747 103.565345,28.7157 102.744682,28.0557 C102.346906,28.5537 101.522224,29.3597 101.622673,29.4977 C102.20226,30.2917 102.95261,30.9987 103.766242,31.5597 C103.927964,31.6717 104.619049,31.0247 105.612484,30.3637 L105.612484,30.3637 Z M69.3043946,198.7817 C71.3394798,196.8387 71.3063318,193.8987 69.3043946,192.4087 L69.3043946,198.7817 Z M75.7541883,206.1477 C75.9169148,206.1367 76.0786368,206.1267 76.2403587,206.1177 C76.6572197,204.1697 77.1162691,202.2307 77.4437309,200.2687 C77.4939552,199.9697 76.9324484,199.5697 76.6552108,199.2167 C76.288574,199.5707 75.6597668,199.8877 75.6045202,200.2847 C75.4046278,201.7007 75.3544036,203.1427 75.3443587,204.5757 C75.3413453,205.0977 75.6095426,205.6227 75.7541883,206.1477 L75.7541883,206.1477 Z M90.8686637,73.9927 C91.1489148,73.7377 91.4301704,73.4827 91.7104215,73.2287 C91.0966816,71.9287 90.4829417,70.6297 89.8692018,69.3307 C89.5628341,69.3727 89.2554619,69.4157 88.9490942,69.4587 C88.8124843,70.5037 88.3484126,71.6557 88.6477489,72.5567 C88.8627085,73.2067 90.0921973,73.5257 90.8686637,73.9927 L90.8686637,73.9927 Z M81.631426,79.8867 C82.7122511,78.5787 83.5801256,77.7687 84.0823677,76.7757 C84.2330404,76.4787 83.361148,75.6687 82.9573453,75.0937 C82.172843,76.0577 81.3260628,76.9807 80.6560717,78.0177 C80.5254888,78.2207 81.0779552,78.8627 81.631426,79.8867 L81.631426,79.8867 Z M102.887318,224.5127 C101.431821,226.9967 101.72513,228.4217 103.856646,229.8097 C105.570296,228.2487 105.523085,227.9647 102.887318,224.5127 L102.887318,224.5127 Z M97.1286099,253.6767 C97.1617578,253.4067 97.2833004,253.1387 97.1979193,252.9877 C96.8463498,252.3667 96.4314978,251.7807 96.0397489,251.1817 C95.650009,251.7457 95.0905112,252.2637 94.9177399,252.8867 C94.7349238,253.5477 94.816287,254.3337 94.9810224,255.0187 C95.0935247,255.4857 95.5475516,255.8707 95.8488969,256.2917 C96.2758027,255.9057 96.8383139,255.5887 97.0864215,255.1107 C97.2923408,254.7117 97.1286099,254.1237 97.1286099,253.6767 L97.1286099,253.6767 Z M136.615892,222.6207 C136.303498,222.8317 135.991103,223.0437 135.679713,223.2557 C136.205058,224.2777 136.544574,225.4827 137.315013,226.2647 C137.968933,226.9277 139.122081,227.1017 140.054242,227.4927 L140.65191,226.5397 C139.306906,225.2337 137.960897,223.9267 136.615892,222.6207 L136.615892,222.6207 Z M130.431283,204.4697 C130.185184,204.4907 129.938081,204.5107 129.691982,204.5317 C129.525238,204.6507 129.233937,204.7497 129.211839,204.8917 C129.045094,205.9457 128.962726,207.0117 128.794978,208.0657 C128.395193,210.5597 129.205812,211.4077 132.099731,211.1947 C131.195695,209.0177 128.544861,207.3977 130.431283,204.4697 L130.431283,204.4697 Z M79.2427623,98.6917 C79.3331659,98.8907 79.422565,99.0897 79.5129686,99.2897 C80.6128789,99.2317 81.7841076,99.3797 82.782565,99.0317 C83.3189596,98.8447 83.7086996,97.8407 83.871426,97.1387 C83.9728789,96.6967 83.5610404,95.7107 83.3290045,95.6957 C82.5836771,95.6427 81.6173632,95.6997 81.1010583,96.1377 C80.320574,96.8007 79.8464574,97.8227 79.2427623,98.6917 L79.2427623,98.6917 Z M79.3552646,198.6547 C80.7273901,199.5767 81.6846637,201.5217 83.2747623,199.8807 C83.8262242,199.3127 83.6755516,196.9537 83.1753184,196.6947 C81.5319821,195.8417 80.4612018,197.2207 79.3552646,198.6547 L79.3552646,198.6547 Z M87.5880179,237.8997 C87.8150314,237.8757 88.0420448,237.8527 88.2680538,237.8297 C88.2680538,235.1507 88.3504215,232.4667 88.1816682,229.7977 C88.1555516,229.3817 86.9853274,229.0377 86.3444664,228.6597 C86.1636592,229.3017 85.7548341,229.9787 85.8442332,230.5797 C86.1395516,232.5467 86.5986009,234.4907 87.0335426,236.4337 C87.1460448,236.9377 87.3991749,237.4117 87.5880179,237.8997 L87.5880179,237.8997 Z M82.8016502,260.8037 C84.290296,259.5747 84.5042511,255.7507 83.1642691,254.8007 C82.6841256,254.4607 81.6796413,254.3327 81.2366637,254.6137 C80.8047354,254.8857 80.4622063,255.9237 80.6450224,256.4177 C81.1894529,257.8837 82.0121256,259.2477 82.8016502,260.8037 L82.8016502,260.8037 Z M73.3303677,133.0097 C73.2088251,132.9597 73.0872825,132.9097 72.9667444,132.8597 C73.0229955,132.6497 73.1766816,132.4067 73.119426,132.2347 C72.9074798,131.6057 72.6252197,130.9997 72.3700807,130.3857 C71.8859193,130.8157 71.2972915,131.1737 70.9406996,131.6907 C70.4173632,132.4527 69.9321973,133.2897 69.6720359,134.1657 C69.4892197,134.7867 69.7051839,135.5247 69.7433543,136.2097 C70.5278565,136.1617 71.6739731,136.4157 72.0215247,136.0027 C72.6945291,135.2037 72.9195336,134.0297 73.3303677,133.0097 L73.3303677,133.0097 Z M100.096861,301.6217 C99.6950673,303.9387 102.294673,307.5797 104.245381,307.6527 C104.854099,307.6737 105.48391,307.1277 106.103677,306.8417 C105.719964,306.3187 105.406565,305.7197 104.938475,305.2867 C104.091695,304.5057 103.16757,303.8047 102.247462,303.1057 C101.591534,302.6067 100.890404,302.1657 100.096861,301.6217 L100.096861,301.6217 Z M140.106475,315.1567 C138.713256,314.4717 137.537004,313.7237 136.251265,313.3257 C135.448682,313.0767 134.480359,313.3567 133.587372,313.3987 C134.044413,314.1927 134.424108,315.0467 134.990637,315.7537 C135.272897,316.1047 135.917776,316.1457 136.362762,316.3907 C138.964377,317.8227 138.960359,317.8287 140.106475,315.1567 L140.106475,315.1567 Z M93.9112466,246.4777 C93.6119103,245.9687 93.2352287,245.1317 92.6576502,244.4687 C92.4929148,244.2797 91.3688969,244.5047 91.3246996,244.6907 C90.944,246.2887 90.6074978,247.9157 90.5211121,249.5487 C90.5040359,249.8727 91.6109776,250.5197 92.2016143,250.522701 C92.6084305,250.5237 93.1709417,249.7327 93.3919283,249.1857 C93.6822242,248.4667 93.7053274,247.6417 93.9112466,246.4777 L93.9112466,246.4777 Z M92.4085381,221.2277 C90.5853991,222.2887 89.8792466,224.6837 90.7933274,227.0447 C90.97313,227.5097 91.4824036,228.1217 91.8791749,228.1527 C92.2849865,228.1827 92.9409148,227.6747 93.1398027,227.2447 C94.1161614,225.1217 94.2477489,223.0387 92.4085381,221.2277 L92.4085381,221.2277 Z M25.0267265,122.2467 C24.5013812,121.0887 24.3637668,120.0977 23.806278,119.7197 C22.9464395,119.1357 21.7993184,118.9717 20.7737399,118.6297 C20.7516413,119.4887 20.6853453,120.3487 20.7245202,121.2047 C20.7436054,121.6267 20.8490762,122.1287 21.1052197,122.4387 C21.6737578,123.1227 22.3618296,123.7077 23.0006816,124.3337 C23.6877489,123.6267 24.3748161,122.9187 25.0267265,122.2467 L25.0267265,122.2467 Z M108.492341,122.2897 C107.982063,122.0447 106.990637,121.2747 106.697327,121.4827 C105.598422,122.2597 104.655211,123.2987 103.797381,124.3557 C103.258978,125.0177 102.977722,125.8867 102.580951,126.6627 C103.386547,126.4507 104.191139,126.2297 104.999749,126.0307 C105.28,125.9617 105.575318,125.9027 105.859587,125.9167 C108.066439,126.0297 108.118673,124.3667 108.492341,122.2897 L108.492341,122.2897 Z M92.9037489,66.4717 C93.314583,68.3667 93.5998565,70.2157 94.1523229,71.9827 C94.3813453,72.7167 95.1266726,73.3357 95.7584933,73.8637 C95.8890762,73.9727 96.925704,73.4197 96.9116413,73.2167 C96.8553901,72.4287 96.7599641,71.4847 96.2918744,70.9127 C94.0056682,68.1257 94.05087,67.5887 97.213991,66.0537 C97.0281614,65.4337 96.8353004,64.7917 96.6243587,64.0877 C95.2301345,64.9817 94.0358027,65.7457 92.9037489,66.4717 L92.9037489,66.4717 Z M98.7619013,16.9927 C97.8377758,15.6417 96.9327354,14.3987 96.1170942,13.1007 C95.4792466,12.0877 94.7670673,11.1977 93.5124664,12.0127 C92.3342063,12.7787 91.6411121,13.9277 92.4045202,15.3607 C92.9730583,16.4267 93.5546547,17.7607 95.1959821,16.7137 C96.1010224,16.1357 96.8815067,15.9877 97.6539552,16.9657 C97.8016143,17.1527 98.3922511,16.9927 98.7619013,16.9927 L98.7619013,16.9927 Z M87.3610045,252.6747 C86.0853094,254.9207 86.499157,256.7397 88.3102422,258.1857 C89.6843767,259.2837 89.8521256,260.0597 88.1886996,261.1447 C86.9943677,261.9247 86.1184574,263.1897 84.9211121,264.4237 C86.6096502,264.1747 87.8622422,264.1077 89.0314619,263.7607 C89.4824753,263.6267 90.0349417,262.8617 90.0389596,262.3797 C90.0530224,260.5147 91.1227982,258.4767 89.1821345,256.8457 C88.7602511,256.4917 88.7964126,255.6287 88.5452915,255.0337 C88.256,254.3477 87.8803229,253.6987 87.3610045,252.6747 L87.3610045,252.6747 Z M37.4823318,117.6977 C36.8284126,117.9767 36.5692556,118.0077 36.4436951,118.1537 C35.6772735,119.0377 35.0273722,126.2807 35.7556233,127.1207 C36.0228161,127.4277 37.1558744,127.5207 37.2894709,127.3177 C37.7766457,126.5727 38.2346906,125.6767 38.2919462,124.8107 C38.3933991,123.3097 38.237704,121.7847 38.0900448,120.2787 C38.0106906,119.4737 37.7234081,118.6887 37.4823318,117.6977 L37.4823318,117.6977 Z M95.2251121,262.4447 C95.4330404,263.1637 95.4330404,263.6807 95.6901883,263.9687 C97.0281614,265.4657 98.0899013,267.0247 97.9683587,269.1807 C97.9512825,269.4777 98.7759641,269.8217 99.2109058,270.1437 C99.4831211,269.6717 100.018511,269.1807 99.9833543,268.7337 C99.8236413,266.7247 99.7432825,264.6517 99.1245202,262.7677 C98.8663677,261.9827 97.3686816,261.5197 96.34913,261.1377 C96.1532556,261.0637 95.5565919,262.0457 95.2251121,262.4447 L95.2251121,262.4447 Z M52.3567354,185.9387 C52.604843,185.9267 52.8529507,185.9157 53.1000538,185.9047 C53.1000538,183.2427 53.2025112,180.5737 53.0347623,177.9217 C52.9875516,177.1807 52.1427803,176.4907 51.6636413,175.7767 C51.329148,176.5097 50.8821525,177.2147 50.6892915,177.9837 C50.462278,178.8897 50.4984395,179.8577 50.3447534,180.7857 C49.9891659,182.9407 50.879139,184.5557 52.3567354,185.9387 L52.3567354,185.9387 Z M70.7608969,186.5137 C70.8834439,186.6367 71.005991,186.7597 71.1275336,186.8827 C71.267157,188.1727 71.1355695,189.5817 71.6368072,190.7137 C71.9944036,191.5227 73.1997848,191.9587 74.0264753,192.5627 C74.272574,191.7627 74.6502601,190.9767 74.7306188,190.1617 C74.8350852,189.0847 74.9415605,187.9077 74.6070673,186.9217 C74.2856323,185.9817 73.3986726,185.2327 72.7608251,184.3987 L70.7608969,186.5137 Z M80.7143318,16.4087 C80.7183498,16.0837 80.7243767,15.7597 80.7293991,15.4357 C79.965991,14.8467 79.2678744,14.1327 78.4231031,13.7037 C77.5502063,13.2597 76.545722,13.0457 75.5773991,12.8197 C75.0158924,12.6877 74.0355157,12.5087 73.9029238,12.7347 C73.5503498,13.3357 73.1867265,14.5237 73.4800359,14.8067 C74.7346368,16.0147 76.1067623,17.2847 77.6848072,17.8947 C78.3939731,18.1697 79.6857399,16.9507 80.7143318,16.4087 L80.7143318,16.4087 Z M89.6441973,184.9607 C89.7476592,184.9487 89.8501166,184.9367 89.9535785,184.9247 C89.8631749,184.3557 89.9626188,183.6067 89.6341525,183.2627 C89.2233184,182.8337 88.4478565,182.5307 87.8542063,182.5677 C87.4102242,182.5947 86.6869955,183.2067 86.6357668,183.6247 C86.4248251,185.3447 86.2460269,187.1087 86.4198027,188.8187 C86.5081973,189.6957 87.2736143,190.5777 87.9174888,191.2927 C88.2128072,191.6207 89.1027803,191.8027 89.4503318,191.5957 C89.824,191.3737 90.0540269,190.6127 90.0369507,190.0967 C89.981704,188.3817 89.7858296,186.6717 89.6441973,184.9607 L89.6441973,184.9607 Z M122.483803,221.5527 C122.331121,221.5787 122.177435,221.6067 122.024753,221.6327 C122.13826,222.5707 122.16739,223.5277 122.38235,224.4417 C122.922762,226.7437 123.782601,228.9957 124.070888,231.3227 C124.346117,233.5377 123.975462,235.8247 124.069883,238.0717 C124.098009,238.7457 124.730834,239.3927 125.087426,240.0527 C125.324484,239.9507 125.560538,239.8487 125.797596,239.7467 C125.797596,235.7377 126.167247,231.6787 125.649937,227.7357 C125.367677,225.5747 123.587731,223.6077 122.483803,221.5527 L122.483803,221.5527 Z M66.1191749,206.9517 C67.5435336,206.7297 68.5339552,207.3807 68.9156592,209.0387 C69.0090762,209.4447 69.6489327,209.7247 70.0376682,210.0637 C70.2616682,209.5797 70.6423677,209.1087 70.6815426,208.6117 C70.781991,207.3097 70.9216143,205.9617 70.6925919,204.6967 C70.4505112,203.3557 70.0125561,201.9517 69.2722511,200.8287 C68.5500269,199.7327 67.7173094,200.3787 67.4350493,201.4037 C66.9528969,203.1617 66.5862601,204.9527 66.1191749,206.9517 L66.1191749,206.9517 Z M202.016861,201.0647 C202.615534,202.0837 202.815426,202.8857 203.270457,203.0727 C203.710422,203.2537 204.539121,202.9537 204.974063,202.5957 C205.807785,201.9097 206.482798,201.0317 207.228126,200.2367 C208.765991,198.5947 208.798135,197.2997 207.128682,195.7437 C206.78113,195.4187 205.568717,195.3577 205.390924,195.6137 C204.159426,197.3867 203.095677,199.2757 202.016861,201.0647 L202.016861,201.0647 Z M84.0753363,223.7497 C84.5223318,224.6017 85.026583,225.5627 85.5308341,226.5247 C86.275157,225.6377 87.038565,224.7667 87.745722,223.8517 C87.8994081,223.6517 87.872287,223.2937 87.8873543,223.0057 C88.0571121,219.7887 88.253991,216.5737 88.3423857,213.3547 C88.3554439,212.8887 87.8311031,212.4087 87.55487,211.9347 C87.3630135,212.4487 86.9943677,212.9667 87.007426,213.4757 C87.0757309,216.1047 87.6914798,218.7837 85.1029238,220.8097 C84.4932018,221.2877 84.4781345,222.5167 84.0753363,223.7497 L84.0753363,223.7497 Z M80.3065112,133.1527 C80.5506009,136.0257 82.0643587,137.4487 83.4033363,136.1587 C85.1581704,134.4657 86.8929148,134.2487 89.1158386,134.6087 C89.7798027,134.7157 91.1649865,133.7817 91.2805022,133.1537 C91.5115336,131.8977 90.3593901,131.4777 89.2132735,131.6557 C86.2882152,132.1117 83.3742063,132.6327 80.3065112,133.1527 L80.3065112,133.1527 Z M59.7196054,18.2587 L60.1324484,17.8397 C60.3504215,17.8127 60.5844664,17.8287 60.7823498,17.7517 C63.0695605,16.8707 65.3648072,16.0077 67.6068161,15.0247 C67.7805919,14.9487 67.7916413,13.7827 67.5043587,13.5037 C65.9715157,12.0147 64.704861,13.0877 63.5195695,14.1297 C61.4372735,15.9597 60.9440717,15.9857 59.4514081,13.7727 C58.7261704,12.6967 58.0411121,12.7727 57.3841794,13.5617 C56.9853991,14.0387 56.5655247,15.0897 56.798565,15.3927 C57.6222422,16.4617 58.723157,17.3207 59.7196054,18.2587 L59.7196054,18.2587 Z M171.26357,205.6967 C172.493058,203.5237 173.377004,201.1797 174.928933,199.4207 C176.772161,197.3317 179.341632,198.1877 181.832753,199.5017 C180.830278,196.0727 176.867587,194.6967 174.372448,196.4067 C172.542278,197.6617 170.548377,203.6787 171.26357,205.6967 L171.26357,205.6967 Z M89.0364843,100.1597 C88.1756413,101.7927 87.4333274,103.2687 86.6277309,104.7077 C86.0662242,105.7117 85.6353004,106.9647 84.7684305,107.5877 C82.0322152,109.5587 80.8368789,112.5367 79.3482332,115.3067 C79.1272466,115.7177 79.8173274,116.7417 80.2914439,117.3137 C80.4190135,117.4677 81.7077668,117.0927 81.7670314,116.8147 C82.336574,114.1317 84.354583,112.7987 86.4218117,111.4287 C86.8446996,111.1487 87.3137937,110.2907 87.1741704,109.9197 C86.1907803,107.3177 88.318278,105.9577 89.5869417,104.6137 C91.4733632,102.6117 91.6883229,102.1497 89.0364843,100.1597 L89.0364843,100.1597 Z M74.6743677,221.1927 C74.3921076,221.1727 74.1098475,221.1547 73.8275874,221.1347 C73.7401973,221.7807 73.5714439,222.4257 73.5794798,223.0707 C73.631713,227.4997 73.7482332,231.9297 73.7904215,236.3607 C73.826583,240.2707 73.7884126,244.1817 73.7884126,248.0927 C73.7884126,251.6357 73.8366278,255.1797 73.7612915,258.7207 C73.7482332,259.3707 73.3715516,260.1117 72.9446457,260.6337 C71.1857937,262.7907 71.2661525,263.1007 74.527713,264.0787 C74.6713543,261.4957 74.8853094,259.0207 74.9244843,256.5417 C74.9646637,254.0747 76.705435,251.5757 74.78687,249.1097 C74.5307265,248.7807 74.6552825,248.1117 74.6944574,247.6077 C74.9606457,244.2297 75.2529507,240.8547 75.5291839,237.4777 C75.5583139,237.1157 75.5613274,236.7477 75.5372197,236.3847 C75.2539552,232.1267 74.9546188,227.8707 74.6813991,223.6117 C74.6301704,222.8087 74.6743677,221.9987 74.6743677,221.1927 L74.6743677,221.1927 Z M101.718099,63.7477 C101.882834,64.7357 102.177148,65.5227 102.093776,66.2677 C102.009399,67.0317 101.766314,68.1327 101.226906,68.4287 C99.1978475,69.5427 99.4710673,70.8207 100.556915,72.3617 C101.77435,74.0857 101.531265,75.2367 99.7925022,76.4817 C99.0260807,77.0297 98.2415785,77.5907 97.6087534,78.2777 C96.12513,79.8897 96.1020269,81.3847 97.7102063,82.8257 C98.2395695,83.2997 99.3013094,83.1857 100.11896,83.3407 C100.227444,82.5147 100.688502,81.5097 100.376108,80.8977 C99.4901525,79.1637 99.7693991,78.3637 101.511175,77.2587 C102.931516,76.3567 104.535677,74.4237 104.513578,72.9707 C104.494493,71.6197 104.40409,70.3097 104.697399,68.9277 C105.252879,66.3197 103.991247,64.0127 101.718099,63.7477 L101.718099,63.7477 Z M82.3104574,241.2277 C82.0141345,241.2747 81.7168072,241.3207 81.4194798,241.3677 C81.0307444,240.9667 80.6771659,240.5217 80.2422242,240.1787 C79.7650942,239.8017 79.0237848,239.1347 78.7324843,239.2777 C78.1639462,239.5527 77.6375964,240.2437 77.4346906,240.8707 C76.8239641,242.7657 78.0775605,244.8047 80.1467982,245.7457 C80.8770583,246.0787 81.8664753,246.5557 82.0784215,247.1857 C82.9292197,249.7137 82.8317848,249.7417 85.1923229,248.4337 C85.6383139,248.1857 86.1043946,247.9667 86.5744933,247.7637 C88.2801076,247.0257 88.6999821,245.4037 88.4518744,243.9647 C88.2921614,243.0337 87.1349955,241.8457 86.1877668,241.5637 C84.1205381,240.9487 83.647426,239.6997 83.6926278,237.8257 C83.7207534,236.6917 83.5128251,235.5517 83.4103677,234.4147 C82.3898117,236.6617 79.9248072,238.4847 82.3104574,241.2277 L82.3104574,241.2277 Z M77.1212915,125.1427 C80.2572915,125.1427 83.4083587,124.9607 86.5222601,125.2147 C88.2469596,125.3557 89.8963229,125.8417 91.2232466,124.4067 C92.6747265,122.8337 90.9249148,121.7787 90.4066009,120.5747 C89.3920717,118.2197 88.1836771,118.1797 86.1817399,119.9007 C85.3028161,120.6557 83.9367175,121.0197 82.7393722,121.1837 C81.538009,121.3497 80.2221345,120.7847 79.0448789,121.0047 C77.1192825,121.3677 75.8576502,120.5627 74.5036054,119.4277 C73.8958924,118.9177 72.8763408,118.8957 72.0426188,118.6517 C71.8316771,119.7097 71.1938296,120.9077 71.4861345,121.8037 C72.5066906,124.9357 73.2801435,125.2907 77.1212915,125.1427 L77.1212915,125.1427 Z M89.9586009,5.9387 C90.558278,6.5257 91.1187803,7.1617 91.7706906,7.6847 C92.416574,8.2037 93.3607892,8.4657 93.8087892,9.0967 C94.8112646,10.5097 95.9413094,11.2577 97.5826368,10.6427 C98.2887892,11.4347 98.8804305,12.1727 99.5484126,12.8327 C101.918996,15.1777 103.572377,17.8777 103.74113,21.2837 C103.816466,22.7867 104.602978,23.2997 105.998206,23.3217 C107.369327,23.3427 108.75652,23.3627 110.104538,23.5787 C111.778009,23.8477 113.449471,22.9457 113.833184,21.3657 C114.131516,20.1337 112.460054,17.9087 110.992502,18.1247 C106.75157,18.7517 104.970619,15.7177 103.514117,12.9347 C102.201256,10.4237 101.089291,8.7977 98.1672466,10.2417 C97.0944574,7.6447 92.8635695,5.0287 89.9586009,5.9387 L89.9586009,5.9387 Z M78.1649507,212.2597 C79.4336143,210.6717 80.8218117,210.1587 82.5947265,210.5147 C83.3621525,210.6697 84.1978834,210.6917 84.9643049,210.5557 C85.3048251,210.4957 85.5509238,209.8997 85.8412197,209.5457 C85.5137578,209.3127 85.2144215,208.9317 84.8568251,208.8687 C82.2773094,208.4107 79.6877489,208.0107 77.0991928,207.6037 C75.649722,207.3757 75.1655605,208.2357 75.4317489,209.4097 C75.5954798,210.1307 76.3398027,210.7027 76.6692735,211.4127 C76.991713,212.1057 77.2006457,212.8777 77.3061166,213.6367 C77.3914978,214.2587 77.1926099,214.9137 77.2227444,215.5497 C77.3854709,219.1077 77.6064574,222.6627 77.7480897,226.2197 C77.7932915,227.3767 77.6044484,228.5427 77.6205202,229.7037 C77.6436233,231.3697 78.7053632,232.2427 80.2181166,232.4517 C81.8795336,232.6817 81.9307623,231.2457 81.9096682,230.2467 C81.8815426,228.9257 81.7971659,227.4227 81.1573094,226.3357 C80.0162152,224.3967 79.8454529,222.9417 81.409435,221.0727 C82.5856861,219.6677 83.2436233,217.7857 83.9296861,216.0377 C84.5293632,214.5047 83.4575785,213.2777 81.952861,213.8327 C80.0845202,214.5237 79.298009,213.3627 78.1649507,212.2597 L78.1649507,212.2597 Z M156.850224,262.8357 C160.336789,262.8247 162.943426,261.0457 165.397381,258.9517 C165.988018,258.4477 166.56861,257.9017 167.239605,257.5297 C169.914547,256.0487 172.651767,254.6757 175.29557,253.1447 C175.815892,252.8437 176.027839,252.0147 176.381417,251.4287 C175.618009,251.1227 174.613525,250.3437 174.131372,250.5877 C171.362009,251.9917 168.036161,253.0787 166.177865,255.3247 C162.927354,259.2517 158.792897,260.8867 154.206422,261.7837 C151.816753,262.2507 149.23322,261.6537 146.789309,261.9547 C143.601076,262.3487 141.262637,261.0667 139.16226,258.9787 C138.599749,258.4187 138.224072,257.6277 137.590242,257.1977 C137.095031,256.8617 136.331623,256.9187 135.687749,256.8017 C135.740987,257.4677 135.548126,258.3317 135.895677,258.7637 C136.939336,260.0597 138.023175,261.4607 139.40635,262.3147 C141.345004,263.5107 143.495605,264.5237 145.691408,265.0967 C147.394009,265.5407 149.308556,265.1337 151.124664,265.2117 C152.585184,265.2747 153.825722,265.0847 154.8513,263.8567 C155.291265,263.3287 156.171193,263.1647 156.850224,262.8357 L156.850224,262.8357 Z M86.6648969,173.0557 C85.406278,170.8957 85.7086278,169.1487 87.5418117,168.8377 C89.4885022,168.5067 91.487426,168.4147 93.3838924,167.9177 C93.9293274,167.7757 94.6435157,166.4927 94.5109238,165.9047 C94.1061166,164.1057 91.2915516,162.9707 89.6532377,163.8537 C84.8347265,166.4477 82.4289865,170.9357 80.4481435,175.7287 C80.3748161,175.9077 80.5154439,176.1627 80.482296,176.3707 C80.0021525,179.3817 81.7509596,182.7287 79.0629596,185.4577 C78.8208789,185.7027 79.2467803,187.0377 79.7198924,187.3907 C80.0523767,187.6387 81.185435,187.2647 81.6173632,186.8297 C82.2622422,186.1807 82.6097937,185.2377 83.0718565,184.4127 C83.6343677,183.4047 83.8352646,182.5537 82.4500807,181.9407 C81.9619013,181.7247 81.4134529,181.0107 81.3943677,180.5057 C81.3501704,179.2877 81.533991,178.0477 81.7539731,176.8397 C82.0020807,175.4767 82.6138117,174.4137 84.2350493,174.2217 C85.8351928,174.0317 85.9376502,175.2087 86.3364305,176.2097 C87.324843,178.6897 88.0581166,178.8837 90.3523587,177.4267 C90.7672108,177.1627 91.3216861,177.1207 91.8028341,176.9537 C94.3140448,176.0837 95.1477668,173.2857 93.6370224,171.1287 C91.3096323,171.7717 89.0133812,172.4067 86.6648969,173.0557 L86.6648969,173.0557 Z M13.3405561,110.8657 C13.2853094,110.6647 13.2300628,110.4657 13.1748161,110.2657 C10.7349238,111.0917 8.19458296,111.7077 5.87824215,112.7947 C2.9250583,114.1807 2.65384753,115.8367 4.34740807,118.6697 C4.73915695,119.3257 4.78435874,120.1777 5.10679821,120.8857 C5.35591031,121.4327 5.70446637,122.0397 6.18460987,122.3247 C6.3804843,122.4397 7.09969507,121.8237 7.48240359,121.4427 C8.14435874,120.7807 8.60943498,119.8187 9.38489686,119.4067 C10.0056682,119.0767 11.1005561,119.1397 11.7153004,119.4947 C12.0286996,119.6737 11.967426,120.9777 11.679139,121.5887 C11.3627265,122.2587 10.5099193,122.6567 10.0428341,123.2847 C9.68121973,123.7687 9.55264574,124.4247 9.32060987,125.0047 C10.0428341,125.0307 10.8203049,125.2357 11.4712108,125.0347 C12.1974529,124.8087 12.8644305,124.2787 13.4570762,123.7657 C14.3731659,122.9727 15.2661525,122.1357 16.0536682,121.2187 C16.8251121,120.3217 17.2982242,119.1227 18.1741345,118.3697 C20.0253991,116.7777 20.0886816,114.2677 18.4794978,112.5537 C16.9998924,110.9797 15.3666009,110.5237 13.3405561,110.8657 L13.3405561,110.8657 Z M28.0723229,112.2757 C28.1868341,112.1087 28.3013453,111.9427 28.4158565,111.7757 C28.7061525,111.7627 29.0647534,111.6347 29.2756951,111.7567 C30.0350852,112.2007 30.7462601,112.7267 31.4755157,113.2217 C30.7794081,113.7217 30.1435695,114.3747 29.3701166,114.6757 C28.6529148,114.9547 27.7800179,114.8087 26.9904933,114.9347 C25.4305291,115.1827 25.0367713,116.1407 26.1648072,117.1597 C27.9658475,118.7837 27.7086996,120.6987 27.6634978,122.7787 C27.6213094,124.7457 28.0371659,126.7377 28.3867265,128.6937 C28.6589417,130.2157 29.1782601,131.6927 29.505722,133.2067 C29.6363049,133.8157 29.2917668,134.6537 29.5981345,135.0737 C31.3127892,137.4307 32.0259731,139.9877 31.7828879,142.8867 C31.7517489,143.2607 32.5473004,144.0087 32.992287,144.0357 C33.4684126,144.0627 34.4548161,143.3447 34.4086099,143.1187 C33.8762332,140.5307 35.8189058,137.7327 33.4503318,135.2077 C32.6457399,134.3517 32.8627085,132.4927 32.73313,131.0797 C32.6557848,130.2427 32.8576861,129.3827 32.8556771,128.5337 C32.8365919,123.6137 32.2861345,118.6287 32.9018834,113.7907 C33.5286816,108.8707 31.1570942,105.4917 28.6157489,102.0137 C27.6413991,100.6797 25.3220448,101.4927 24.7906726,103.1897 C24.2593004,104.8847 24.6862063,105.3227 26.3255247,105.1817 C27.0698475,105.1187 27.8623857,105.6157 28.6338296,105.8587 C28.190852,106.6317 27.7950852,107.4377 27.292843,108.1707 C26.7664933,108.9397 26.1366816,109.6397 25.5520717,110.3697 C26.3918206,111.0047 27.232574,111.6397 28.0723229,112.2757 L28.0723229,112.2757 Z M141.941668,323.2497 C141.942673,323.2787 141.942673,323.3057 141.943677,323.3337 C142.381632,323.3097 143.053632,323.4577 143.222386,323.2327 C144.508126,321.5227 145.711498,319.7487 146.82692,317.9267 C146.85661,317.8777 145.347874,316.5047 144.980233,316.6727 C143.05765,317.5487 141.09991,318.5187 139.487713,319.8537 C138.044269,321.0497 137.027731,321.0817 135.703821,319.9027 C134.517525,318.8437 133.325202,317.7437 131.975175,316.9257 C129.283157,315.2957 126.469596,313.8687 123.737399,312.3037 C123.320538,312.0647 123.099552,311.5087 122.730906,311.1597 C122.267839,310.7207 121.794726,310.2527 121.241256,309.9547 C119.243336,308.8817 116.952108,308.1867 115.245489,306.7787 C111.725776,303.8727 108.177937,300.9057 105.957022,296.7647 C103.568359,292.3107 101.260054,287.8077 98.6946009,283.4557 C98.0939193,282.4377 96.6354081,281.8677 95.4782422,281.2687 C95.2371659,281.1437 94.4787803,281.7247 94.1673901,282.1367 C94.0066726,282.3497 94.1704036,283.1117 94.4185112,283.2757 C97.24513,285.1367 94.8996592,289.3277 97.9763946,291.1017 C98.1772915,291.2177 97.7664574,292.2067 97.8397848,292.7647 C97.9382242,293.5127 97.9944753,294.4987 98.4776323,294.9267 C102.058619,298.1077 104.879211,302.1597 109.433543,304.2487 C110.751426,304.8537 111.417399,306.0937 110.648969,307.7407 C110.464143,308.1377 110.83078,309.0737 111.237596,309.4157 C114.193794,311.9037 118.046996,313.2927 120.22974,316.7397 C120.417578,317.0357 120.731982,317.2887 121.042368,317.4647 C124.17435,319.2447 127.301309,321.0317 130.470457,322.7437 C131.084197,323.0747 131.8687,323.2167 132.577865,323.2277 C135.698798,323.2797 138.820735,323.2497 141.941668,323.2497 L141.941668,323.2497 Z M146.669776,313.1317 C146.169543,311.8937 146.111283,311.1947 145.735605,310.9067 C142.34748,308.3067 139.123085,305.3677 135.386404,303.4037 C133.466834,302.3937 131.893812,301.2907 130.809973,299.6607 C129.546332,297.7587 128.160143,295.6237 127.889937,293.4577 C127.503211,290.3497 125.201937,287.9377 125.260197,284.7877 C125.262206,284.7337 125.154726,284.6827 125.129614,284.6187 C124.68965,283.4987 124.048789,282.4117 123.860951,281.2497 C123.407928,278.4567 121.227193,276.6477 118.560287,276.9217 C115.309776,277.2567 111.81417,278.2457 108.54357,274.9537 C108.715336,276.1827 108.676161,276.7507 108.878063,277.2147 C111.033686,282.1767 112.869883,287.3327 117.253453,290.9597 C117.92043,291.5107 118.767211,292.1317 118.990206,292.8797 C119.991677,296.2497 122.755013,298.1497 125.019121,300.4807 C125.558529,301.0367 125.98443,301.7097 126.407318,302.3657 C127.08635,303.4177 127.488143,304.8017 128.417291,305.5087 C130.47548,307.0747 132.781776,308.3177 135.0047,309.6607 C135.301022,309.8387 135.718888,309.8047 136.063426,309.9197 C137.415462,310.3717 138.747408,310.8897 140.112502,311.2997 C142.079283,311.8907 144.069166,312.4107 146.669776,313.1317 L146.669776,313.1317 Z M55.8232108,261.0157 C59.100843,261.2167 59.1219372,261.1777 59.4915874,257.5747 C59.5558744,256.9427 59.8923767,256.3427 60.063139,255.7167 C60.9772197,252.3667 61.886278,249.0137 62.7692197,245.6557 C62.8576143,245.3177 62.7903139,244.9237 62.7340628,244.5667 C62.3935426,242.4027 61.985722,240.2697 63.8771659,238.4707 C64.2689148,238.0987 64.2940269,237.2457 64.321148,236.6087 C64.638565,228.9907 64.9459372,221.3707 65.1789776,213.7497 C65.1970583,213.1487 64.7781883,212.2257 64.3050762,212.0087 C63.8661166,211.8077 62.8264753,212.1607 62.4929865,212.5997 C60.894852,214.7087 59.4283049,216.8827 56.5092735,217.3597 C56.0582601,217.4337 55.5941883,217.8667 55.2817937,218.2497 C54.7946188,218.8467 53.9538655,219.7447 54.1266368,220.1527 C54.3918206,220.7787 55.3390493,221.3377 56.0873901,221.4967 C57.6855247,221.8337 58.2359821,222.6287 58.1787265,224.2327 C58.0732556,227.2227 58.1074081,230.2197 58.1626547,233.2137 C58.1968072,235.0727 58.2480359,236.8477 56.4801435,238.1207 C56.1145112,238.3827 56.0904036,239.1397 55.9487713,239.6787 C55.5861525,241.0547 55.2868161,242.4477 54.8880359,243.8117 C54.2542063,245.9807 54.3576682,248.4467 52.3959103,250.1067 C52.2844126,250.2007 52.3557309,250.5207 52.3587444,250.7357 C52.413991,254.4817 50.9062601,257.7017 49.0479641,260.8367 C48.7456143,261.3467 48.991713,262.1787 48.9846816,262.8617 C49.8204126,262.7787 51.1413094,262.9907 51.4074978,262.5597 C52.4692377,260.8327 53.9639103,260.8357 55.8232108,261.0157 L55.8232108,261.0157 Z M86.9160179,63.4087 C92.2659013,63.3947 96.1180987,60.7357 99.0280897,56.9197 C100.880359,54.4917 101.906942,51.4267 103.199713,48.5997 C103.383534,48.1977 103.109309,47.4407 102.818009,46.9957 C101.409722,44.8437 100.00043,42.6837 98.4354439,40.6447 C97.3767175,39.2647 96.9960179,37.9327 97.3013812,36.1847 C97.4651121,35.2527 96.9206816,34.1587 96.5590673,33.1867 C96.2878565,32.4567 95.8780269,31.7447 95.390852,31.1347 C94.4245381,29.9237 93.5707265,28.4357 92.2990493,27.6917 C89.4041256,25.9997 86.1546188,25.4027 82.7785471,25.9607 C80.0473543,26.4137 78.3608251,28.4377 77.2930583,30.5847 C76.4924843,32.1967 77.410583,33.9207 79.4476771,34.7257 C80.0142063,34.9497 80.2753722,35.9387 80.6761614,36.5767 C79.9318386,36.8517 79.2045919,37.2247 78.435157,37.3537 C78.1287892,37.4047 77.761148,36.8337 77.3683946,36.6857 C76.8229596,36.4807 75.7943677,36.1817 75.7270673,36.3127 C75.3935785,36.9507 75.01087,37.8087 75.1966996,38.4237 C75.7280717,40.1747 78.1036771,41.1117 79.9860807,40.5077 C81.664574,39.9687 82.7062242,40.6277 82.3044305,42.1127 C81.7007354,44.3337 80.8730404,46.4947 80.1809507,48.6957 C80.0192287,49.2097 80.0533812,49.7837 79.9398744,50.3167 C79.7902063,51.0117 79.6877489,51.7547 79.3452197,52.3517 C79.2216682,52.5677 78.0815785,52.5267 78.0524484,52.4227 C77.8595874,51.7347 77.7701883,50.9967 77.7832466,50.2777 C77.8184036,48.2667 77.9801256,46.2557 77.9469776,44.2467 C77.9399462,43.8507 77.1956233,43.0907 76.9485202,43.1507 C76.419157,43.2757 75.8435874,43.7447 75.5673543,44.2307 C75.3031749,44.6947 75.2549596,45.3827 75.3513901,45.9307 C75.9128969,49.1357 76.1529686,52.4727 77.2759821,55.4797 C78.1860448,57.9167 78.9856143,60.8737 82.0000717,61.9317 C83.6132735,62.4967 85.2756951,62.9207 86.9160179,63.4087 L86.9160179,63.4087 Z M53.9649148,194.5687 C53.6063139,193.7657 53.2607713,192.5867 52.6098655,191.6097 C50.626009,188.6347 46.623139,187.2987 45.8064933,183.3127 C45.7361794,182.9667 44.8552466,182.6167 44.32287,182.5667 C42.9959462,182.4437 42.3872287,181.8437 42.2606637,180.5087 C42.1963767,179.8307 41.8337578,179.1307 41.4510493,178.5407 C40.0799283,176.4237 38.5189596,174.4207 37.2673722,172.2407 C36.0499372,170.1177 35.2071749,167.7837 34.0510135,165.6207 C31.7045381,161.2357 29.1360717,156.9637 26.8830135,152.5327 C24.0543857,146.9667 21.4567892,141.2847 18.7446816,135.6607 C17.9873004,134.0907 17.2801435,132.4827 16.3530045,131.0137 C15.5614709,129.7597 14.53087,129.3967 13.4349776,130.9057 C12.448574,132.2627 12.2697758,133.1757 13.2843049,134.9117 C14.6755157,137.2927 14.7518565,140.3437 16.2626009,142.8387 C16.9406278,143.9577 17.2158565,145.3227 17.6548161,146.5817 C17.8878565,147.2517 18.077704,147.9367 18.2916592,148.6137 C18.6773812,149.8297 18.9837489,151.0797 19.4739372,152.2537 C20.3829955,154.4327 21.5753184,156.5087 22.3226547,158.7357 C23.0659731,160.9517 23.3823857,163.3067 23.9519283,165.5847 C24.0674439,166.0507 24.4843049,166.4377 24.7384395,166.8737 C25.1673543,167.6087 25.7027444,168.3107 25.9709417,169.1017 C26.6328969,171.0607 26.9613632,173.1537 27.8001076,175.0257 C29.2987982,178.3737 30.8055247,181.7737 32.801435,184.8327 C35.2714619,188.6187 37.0755157,192.8837 40.4967892,196.0297 C40.7499193,196.2617 40.8202332,196.6787 41.0261525,196.9747 C42.2013991,198.6577 43.3565561,200.3547 44.5840359,201.9977 C46.6713543,204.7917 50.7535785,204.8357 52.7454709,207.9507 C53.4707085,209.0837 55.2466368,208.4167 55.3360359,207.0627 C55.4364843,205.5687 55.5891659,203.8247 54.9473004,202.5857 C53.664574,200.1107 53.2085381,197.6777 53.9649148,194.5687 L53.9649148,194.5687 Z M121.671175,273.7117 C121.155874,272.9027 120.876628,272.4967 120.630529,272.0737 C119.361865,269.8957 117.898332,267.8017 116.893848,265.5097 C115.873291,263.1807 115.314798,260.6517 114.532305,258.2167 C114.377614,257.7387 114.070242,257.3097 113.917561,256.8307 C113.443444,255.3487 112.714188,253.8697 112.628807,252.3587 C112.487175,249.8737 112.719211,247.4147 110.771516,245.3887 C110.361686,244.9617 110.370726,244.0287 110.376753,243.3297 C110.414924,239.4787 110.70522,235.6187 110.526422,231.7787 C110.396843,228.9967 111.350099,225.9317 109.013668,223.4957 C108.829848,223.3027 108.908197,222.5727 109.128179,222.3307 C111.143175,220.1297 110.272287,217.8457 109.366242,215.5837 C108.717345,213.9637 108.33765,212.4637 109.492807,210.8397 C109.84739,210.3417 109.590242,209.3907 109.560108,208.6487 C109.537004,208.0867 109.163336,207.3377 109.406422,207.0007 C110.753435,205.1267 110.124628,203.0777 110.155767,201.0787 C110.201973,198.0357 110.04226,194.9617 110.420951,191.9567 C110.890045,188.2317 109.088,184.0227 112.578583,180.8647 C112.755372,180.7037 112.780484,180.3167 112.783498,180.0347 C112.814637,175.9167 112.836735,171.7947 110.195946,168.2647 C109.257758,167.0107 108.077489,166.8327 106.714404,167.5777 C105.158457,168.4277 106.169973,169.2627 106.587839,170.2577 C107.100126,171.4757 107.933848,173.1167 107.498906,174.0567 C106.57478,176.0567 106.064502,177.8887 106.334709,180.1087 C106.553686,181.9087 105.541166,182.4747 103.837561,181.8017 C102.892341,181.4287 102.043552,180.7987 101.086278,180.4797 C99.4630314,179.9367 99.0461704,178.8607 99.1315516,177.2697 C99.2641435,174.7997 99.3153722,172.3187 99.2430493,169.8457 C99.1767534,167.5667 100.169184,166.7837 102.307731,167.5807 C102.797919,167.7647 103.743139,167.9267 103.835552,167.7537 C104.116807,167.2327 104.27652,166.4957 104.137901,165.9267 C103.593471,163.6937 101.597561,163.8247 99.901991,163.5807 C98.1682511,163.3327 98.0909058,164.7417 97.8960359,165.8517 C97.695139,166.9917 97.6208072,168.1637 97.599713,169.3247 C97.5424574,172.4097 98.0758386,175.5367 96.1653094,178.3927 C95.6781345,179.1217 95.9282511,180.3687 95.9161973,181.3777 C95.9041435,182.4657 96.0176502,183.5557 96.0136323,184.6447 C96.002583,187.9897 94.1252018,191.2897 95.7976682,194.6897 C95.9624036,195.0257 95.7826009,195.5527 95.7022422,195.9797 C95.0171839,199.6567 94.8193004,203.3107 96.0126278,206.9407 C96.2125202,207.5497 96.413417,208.3217 96.2044843,208.8607 C95.9332735,209.5607 95.2522332,210.1027 94.7469776,210.7127 C94.1543318,210.1627 93.3939372,209.7027 93.0232825,209.0297 C92.7460448,208.5257 93.1086637,207.7087 92.9389058,207.0997 C92.7159103,206.2977 92.4517309,205.1647 91.8560717,204.8677 C89.1329148,203.5037 89.2132735,201.3667 89.7175247,198.9107 C89.9013453,198.0187 89.6924126,197.0457 89.6522332,196.1117 C89.6110493,195.1367 89.9776861,193.9547 88.4398206,193.7277 C87.0998386,193.5297 85.6764843,193.0557 84.8497937,194.8867 C86.8336502,196.0497 86.9270673,197.7497 86.6458117,199.8037 C86.3615426,201.8847 86.5001614,204.0377 86.6307444,206.1487 C86.6608789,206.6297 87.6050942,207.5377 87.8150314,207.4537 C90.8355157,206.2707 90.4497937,208.5437 90.7009148,210.1727 C90.8556054,211.1727 90.8003587,212.2647 91.203157,213.1507 C91.5065112,213.8167 92.3593184,214.6157 93.0212735,214.6657 C94.7690762,214.8017 95.4842691,215.6067 95.6751211,217.2437 C95.7564843,217.9387 96.1422063,218.6117 96.4546009,219.2647 C98.1361076,222.7837 98.4525202,226.3177 96.6022601,229.8757 C95.838852,231.3427 95.3978834,232.8047 96.1562691,234.1697 C97.2913363,233.7897 98.2817578,233.4577 99.2711749,233.1267 C99.5916054,234.1937 100.203336,235.2657 100.178224,236.3237 C100.08983,239.9547 99.7141525,243.5787 99.5976323,247.2097 C99.5685022,248.1397 99.7945112,249.5447 100.413274,249.9397 C102.167103,251.0557 102.049578,252.4577 101.800466,254.1167 C101.706045,254.7457 102.009399,255.4357 102.130942,256.0977 C102.811982,255.9447 103.73209,256.0037 104.108771,255.5817 C104.531659,255.1087 104.84104,253.9147 104.545722,253.5277 C102.800933,251.2357 102.848143,248.7097 103.056072,246.0587 C103.12739,245.1667 102.587982,244.2447 102.462422,243.3177 C102.117883,240.7687 101.882834,238.2037 101.523229,235.6577 C101.371552,234.5807 101.085274,233.5097 100.737722,232.4767 C100.260592,231.0587 99.2189417,229.6857 99.1978475,228.2827 C99.1004126,221.7347 99.2761973,215.1827 99.3424933,208.6327 C99.358565,206.9967 99.2490762,205.4887 97.5083049,204.5047 C96.9287175,204.1777 96.6715695,203.0757 96.5078386,202.2787 C96.3240179,201.3817 96.5208969,200.4097 96.3541525,199.5057 C96.12513,198.2567 96.5239103,197.2347 97.7483767,197.3727 C98.56,197.4647 99.5474081,198.3807 99.9321256,199.1777 C100.303785,199.9487 100.08983,201.0487 99.9813453,201.9867 C99.746296,204.0057 100.608143,205.0177 102.711534,205.1077 C102.839103,204.4927 103.090224,203.8597 103.081184,203.2307 C103.006852,197.7767 102.858188,192.3237 102.812987,186.8697 C102.807964,186.2377 103.22583,185.1197 103.577399,185.0647 C104.381991,184.9407 105.37643,185.1597 106.075552,185.5897 C106.476341,185.8367 106.584825,186.7697 106.591857,187.3967 C106.636054,191.1797 106.693309,194.9667 106.583821,198.7467 C106.499444,201.7107 106.05948,204.6657 105.991175,207.6287 C105.885704,212.2487 105.940951,216.8727 105.987157,221.4947 C105.993184,222.1007 106.337722,222.7087 106.551677,223.3077 C106.913291,224.3187 107.54009,225.3037 107.620448,226.3327 C107.796233,228.5677 107.801256,230.8297 107.642547,233.0647 C107.601363,233.6427 106.794762,234.4347 106.172987,234.6487 C104.833004,235.1107 104.61704,235.9437 104.33478,237.2207 C103.413668,241.3757 107.72391,244.6537 106.12678,248.8437 C106.109704,248.8887 106.177004,248.9817 106.22522,249.0337 C107.966996,250.8887 108.195013,253.1217 107.971013,255.5217 C107.922798,256.0357 108.312538,256.6137 108.568682,257.1267 C109.430529,258.8557 110.578655,260.4957 111.106009,262.3157 C111.403336,263.3407 111.041722,265.3837 110.376753,265.6947 C108.755516,266.4517 108.591785,264.7067 108.128717,263.5797 C107.317094,261.6037 106.378906,259.6777 105.331229,257.3747 C104.216251,259.2997 103.230852,260.7127 104.162009,262.7117 C105.353327,265.2677 106.338726,267.9157 107.458726,270.5047 C107.733955,271.1397 108.051372,271.8927 108.580735,272.2587 C112.528359,274.9897 116.872753,274.3427 121.671175,273.7117 L121.671175,273.7117 Z M79.6897578,278.6927 C81.9136861,278.5937 83.9226547,278.4567 85.9336323,278.4267 C89.3549058,278.3737 92.7912466,278.5637 96.193435,278.3027 C98.016574,278.1617 99.3997489,278.3877 100.321865,279.9657 C101.896897,282.6627 103.412664,285.3937 104.929435,288.1237 C106.917309,291.7037 108.853955,295.3107 110.864933,298.8767 C112.048215,300.9757 113.519785,302.8137 116.43078,303.8707 C116.187695,302.8887 116.182673,302.2417 115.887354,301.7777 C113.848251,298.5697 111.848323,295.3287 109.616359,292.2547 C108.786655,291.1147 108.096574,290.1927 108.513435,288.7337 C108.642009,288.2867 108.58174,287.6657 108.360753,287.2577 C106.043408,282.9867 103.717022,278.7187 101.278135,274.5177 C100.908484,273.8817 99.9431749,273.5897 99.2540987,273.1377 C98.8432646,273.7767 98.4736143,274.4457 98.0125561,275.0437 C97.601722,275.5787 97.0422242,276.4717 96.6344036,276.4267 C95.9955516,276.3577 95.0342601,275.7177 94.911713,275.1647 C94.6405022,273.9387 94.6756592,272.6017 94.8223139,271.3357 C95.0131659,269.6877 95.1929686,268.1667 93.2754081,267.4067 C92.3904574,268.7727 91.5728072,270.0347 90.755157,271.2957 C90.562296,271.2187 90.3684305,271.1417 90.1755695,271.0657 C90.1132915,269.7097 90.0520179,268.3557 89.9726637,266.5997 C89.1740987,267.4497 88.5945112,267.8567 88.3132556,268.4127 C87.7879103,269.4477 86.8617758,271.3387 87.1108879,271.5237 C88.289148,272.3947 89.0334709,274.3957 91.1720179,273.5757 C91.5215785,273.4407 92.1986009,274.1547 92.7249507,274.4757 C92.2357668,275.0127 91.8369865,275.7307 91.230278,276.0297 C90.7390852,276.2707 89.8420807,275.7457 89.3930762,276.0097 C87.4755157,277.1397 86.3926816,276.5177 85.7086278,274.6017 C85.1149776,272.9397 84.0843767,272.7317 82.9714081,274.0457 C81.5108879,275.7717 80.0784933,275.4567 78.6179731,274.1927 C77.2106906,272.9747 75.8727175,271.6777 74.0947803,270.0377 C73.9782601,272.1607 73.8185471,273.8087 73.8165381,275.4577 C73.8135247,277.1847 72.7487713,277.2577 71.6267623,276.8067 C71.1124664,276.5997 70.5559821,275.7487 70.5439283,275.1797 C70.4816502,272.2067 70.6383498,269.2297 70.6021883,266.2547 C70.5921435,265.4387 70.4394619,264.2167 69.9070852,263.8837 C67.4953184,262.3737 68.3350673,260.6227 69.1918924,258.7597 C69.7333094,257.5817 70.4926996,256.4127 70.6614529,255.1717 C71.4991928,249.0217 68.3893094,243.3997 68.0869596,237.3837 C68.0779193,237.2207 67.9041435,237.0657 67.7936502,236.8837 C65.4592287,239.2117 65.6309955,241.9747 66.0167175,244.8437 C66.142278,245.7737 65.8780987,246.7837 65.6571121,247.7247 C65.3547623,249.0177 64.8635695,250.2677 64.5602152,251.5607 C64.0198027,253.8607 63.5728072,256.1827 63.0615247,258.4907 C62.8887534,259.2657 62.7099552,260.0517 62.4126278,260.7857 C61.9907444,261.8267 61.6452018,262.9887 60.925991,263.7977 C59.9325561,264.9147 60.0430493,265.8787 60.7481973,266.9477 C61.6823677,268.3657 63.0293812,268.8707 64.7229417,268.7207 C66.4958565,268.5627 67.6269058,269.4667 67.5766816,271.2267 C67.5264574,273.0247 66.4406099,273.6707 64.5692556,273.3877 C62.4497937,273.0677 60.8858117,274.2967 60.4297758,276.3937 C60.2459552,277.2397 60.3132556,278.1397 60.1224036,278.9837 C59.8712825,280.0907 59.712574,281.3287 59.0938117,282.2197 C58.0421166,283.7317 57.8824036,285.2287 58.0903318,286.9747 C58.1988161,287.8777 57.8341883,288.8837 57.5087354,289.7797 C57.0858475,290.9397 56.6488969,292.1557 55.9206457,293.1267 C55.1903857,294.0997 54.1467265,294.8757 53.1251659,295.5717 C52.8549596,295.7547 51.7269238,295.3077 51.7309417,295.1727 C51.7630852,294.1637 51.905722,293.1407 52.1688969,292.1627 C52.3135426,291.6237 52.9021704,291.1997 53.0307444,290.6617 C53.1864395,290.0097 53.0679103,289.2927 53.0679103,288.6037 C52.864,288.5407 52.6590852,288.4777 52.4551749,288.4147 C51.6837309,289.3437 50.7977758,290.2027 50.1659552,291.2167 C49.25087,292.6907 48.5497399,294.2947 47.6999462,295.8107 C46.365991,298.1897 46.9013812,300.1427 49.5783318,300.3067 C51.965991,300.4527 54.9272108,299.9627 56.7352825,298.5847 C58.8095426,297.0037 60.8275516,296.9207 63.0153184,296.8457 C63.6561794,296.8237 64.9238386,297.7167 64.8706009,297.9777 C64.6777399,298.9047 64.2478206,300.0957 63.5165561,300.5187 C62.5763587,301.0627 61.2594798,300.9577 60.1053274,301.1407 C59.5237309,301.2337 58.945148,301.3447 58.3645561,301.4487 C58.3384395,301.7167 58.3123229,301.9867 58.2862063,302.2547 C59.0857758,302.4637 59.969722,303.0007 60.668843,302.8217 C62.9540448,302.2357 65.1598924,301.3437 67.4209865,300.6507 C71.3716233,299.4407 74.6120897,297.2517 77.122296,293.9737 C78.0936323,292.7037 79.0569327,291.4067 80.1970224,290.2987 C80.6339731,289.8747 81.5530762,289.9447 82.2521973,289.7897 C82.2602332,290.4957 82.5635874,291.4227 82.2260807,291.8717 C80.5023857,294.1687 78.5878386,296.3237 76.8058834,298.5787 C76.5226188,298.9367 76.5708341,299.5527 76.4663677,300.0497 C76.989704,300.1047 77.6627085,300.3937 78.0122691,300.1737 C79.5662063,299.1977 81.5681435,298.7227 82.1356771,296.5417 C82.2662601,296.0417 83.0346906,295.4157 83.5620448,295.3627 C85.4253632,295.1757 85.9115336,293.9047 85.8663318,292.4717 C85.8140987,290.8157 86.6106547,290.0037 88.0209507,289.6577 C89.6693094,289.2517 89.282583,288.3947 88.6658296,287.4087 C87.9777578,286.3087 87.0335426,285.2857 86.6669058,284.0867 C86.0019372,281.9067 84.7764664,280.9277 82.4952825,281.1827 C81.1040717,281.3387 80.0463498,280.8917 79.6897578,278.6927 L79.6897578,278.6927 Z M72.5257758,126.4347 C72.578009,126.1817 72.6312466,125.9297 72.6834798,125.6777 C69.3917848,125.8727 68.1050404,124.5007 68.4756951,121.4997 C68.8473543,118.4927 69.7815247,115.3217 66.8323587,112.8677 C66.2467444,112.3797 65.9634798,111.5337 65.5415964,110.8517 C64.70687,111.3667 63.8610942,111.8647 63.0404305,112.3987 C61.9274619,113.1227 60.8406099,113.8857 59.7296502,114.6137 C59.0757309,115.0417 58.3987085,115.4377 57.729722,115.8457 C57.0024753,116.2877 56.3234439,116.9337 55.5349238,117.1207 C54.2280897,117.4307 53.9026368,117.9957 54.1738475,119.2877 C54.5535426,121.1007 52.5556233,124.7627 50.8891839,125.6037 C49.5552287,126.2767 48.8782063,127.0687 49.053991,128.8297 C49.4648251,132.9517 49.441722,137.0027 45.1485561,139.6227 C44.034583,140.3027 43.4760897,141.9007 42.6915874,143.0957 C42.0326457,144.0977 41.5173453,145.2087 40.7569507,146.1237 C39.7886278,147.2907 38.6083587,148.2797 37.5757489,149.3957 C36.3683587,150.7007 34.6034798,151.3767 33.5467623,150.0597 C31.6613453,147.7067 30.2721435,144.9387 28.8397489,142.2567 C28.221991,141.1017 28.0482152,139.7167 27.6042332,138.4607 C27.3671749,137.7897 26.6148161,137.0987 26.7263139,136.5417 C27.3290045,133.5357 25.2919103,131.2947 24.5787265,128.6857 C24.4290583,128.1377 23.5983498,127.3587 23.1302601,127.3907 C21.6576861,127.4917 20.2072108,127.9217 18.7647713,128.2907 C18.7426726,128.2967 18.8170045,129.2257 19.0530583,129.5917 C20.9676054,132.5627 24.1357489,134.8707 23.9308341,138.9587 C23.9137578,139.3037 24.4290583,139.6557 24.6450224,140.0337 C25.0387803,140.7247 25.4114439,141.4287 25.7630135,142.1417 C27.3551211,145.3797 28.8286996,148.6817 30.5584215,151.8447 C31.9355695,154.3607 33.7496682,156.6377 35.134852,159.1497 C36.769148,162.1127 37.4612377,165.6037 40.29087,167.8917 C40.6926637,168.2167 40.8142063,168.9197 41.0010404,169.4687 C42.3088789,173.3287 45.0772377,176.1287 48.1178117,178.9817 C48.5447175,176.5767 48.8109058,174.1887 48.736574,171.8117 C48.6873543,170.2747 48.7626906,169.2977 50.6471031,169.7107 C52.4220269,170.0997 53.05887,169.0317 53.2698117,167.5817 C53.3722691,166.8777 53.2607713,166.1317 53.1723767,165.4127 C52.7555157,162.0267 53.247713,159.1867 55.9517848,156.5047 C58.1536143,154.3207 59.9134709,151.3807 59.4624574,147.7997 C59.3961614,147.2737 60.0219552,146.5527 60.4920538,146.0847 C62.1474439,144.4367 63.9424574,142.9227 65.534565,141.2177 C66.0378117,140.6787 66.5179552,139.3437 66.2326816,138.9877 C65.1890224,137.6797 65.5616861,136.6797 66.2226368,135.4147 C66.6364843,134.6217 66.6867085,133.5917 66.7258834,132.6617 C66.8413991,129.9627 68.1984574,128.1987 70.7689327,127.4147 C71.3957309,127.2237 71.9421704,126.7687 72.5257758,126.4347 L72.5257758,126.4347 Z M108.757525,113.0287 C110.352646,112.2917 112.570547,112.4497 112.664969,109.8477 C112.688072,109.2027 113.322906,108.5817 113.662422,107.9437 C115.005417,105.4137 116.765274,103.0807 116.014924,99.8467 C115.725632,98.6037 116.161578,97.0957 116.583462,95.8117 C117.04452,94.4087 118.361399,94.0037 119.630063,94.5907 C120.205632,94.8577 120.931874,96.2337 120.767139,96.4337 C119.252377,98.2707 119.468341,100.3237 119.550709,102.4527 C119.578834,103.2137 118.898798,104.0017 118.548233,104.7797 C118.226798,105.4907 117.695426,106.1857 117.635157,106.9187 C117.438278,109.2877 116.237919,110.9997 114.384646,112.3157 C113.330942,113.0637 113.708628,113.5777 114.312323,114.4317 C114.865794,115.2147 115.474511,116.4687 115.198278,117.1877 C114.899946,117.9627 113.671462,118.6537 112.731265,118.8667 C109.913686,119.5027 109.742924,119.6877 111.012592,122.2187 C111.972879,124.1357 111.487713,125.2007 109.469704,125.8297 C108.816789,126.0347 108.213094,126.4367 107.630493,126.8147 C105.155444,128.4167 102.884305,130.7287 100.178224,131.4617 C97.6901166,132.1357 95.5274619,132.7177 93.9574529,134.7747 C93.4521973,135.4357 92.9851121,136.1437 92.6144574,136.8857 C91.6089686,138.8957 90.8455605,141.0527 89.6261166,142.9177 C88.9219731,143.9937 87.5870135,144.7397 86.397704,145.3797 C85.9577399,145.6177 84.8487892,145.3277 84.5464395,144.9137 C84.2410762,144.4967 84.3164126,143.4567 84.6499013,142.9937 C85.3681076,141.9957 86.4700269,141.2757 87.1962691,140.2827 C87.6292018,139.6897 87.6472825,138.7957 87.8532018,138.0377 C87.10687,138.2347 86.0310673,138.1877 85.6704574,138.6697 C83.8804664,141.0597 80.7946906,142.5237 80.3989238,145.9497 C80.3366457,146.4907 79.6023677,146.9407 79.2146368,147.4597 C78.7395157,148.0977 78.2131659,148.7207 77.8646099,149.4267 C76.9776502,151.2187 76.5889148,153.4657 75.2549596,154.7817 C72.7437489,157.2567 73.2952108,160.7807 71.5524305,163.4107 C71.039139,164.1857 70.3400179,164.8387 69.7272825,165.5487 C69.3204664,164.6447 68.6213453,163.7567 68.5701166,162.8337 C68.4686637,161.0367 69.0773812,159.1527 68.7529327,157.4237 C68.3410942,155.2327 68.803157,154.1887 71.0321076,153.6487 C73.3072646,153.0977 74.272574,151.3207 74.527713,148.9727 C74.658296,147.7777 75.2479283,146.5077 75.9812018,145.5347 C76.8430493,144.3887 78.2131659,143.6287 79.1141883,142.5047 C79.6314978,141.8607 79.9981345,140.7247 79.7861883,139.9957 C79.6325022,139.4657 78.4472108,139.0267 77.6727534,138.9297 C76.3146906,138.7597 74.9194619,138.8547 73.5403049,138.8987 C73.0491121,138.9137 72.387157,138.9377 72.1008789,139.2387 C68.9106368,142.5897 64.6064215,145.1857 63.298583,149.8907 C62.1906368,153.8767 60.3564484,157.1277 57.2294888,159.8317 C56.4279103,160.5257 56.0271211,162.0427 56,163.1947 C55.873435,168.5097 55.8925202,173.8307 55.9718744,179.1487 C56.0010045,181.0627 55.8513363,183.2277 56.6780269,184.8157 C57.6443408,186.6707 58.6829776,188.1387 57.3821704,190.1787 C57.2003587,190.4637 57.4113004,191.0107 57.470565,191.4317 C57.6895426,193.0057 58.109417,194.5787 58.111426,196.1517 C58.1154439,200.2337 57.9085202,204.3147 57.8673363,208.3967 C57.8623139,208.9477 58.2078565,209.6477 58.6277309,209.9917 C58.8226009,210.1507 59.6965022,209.7317 60.0641435,209.3717 C60.5181704,208.9307 60.8335785,208.3077 61.0887175,207.7117 C62.2016861,205.1117 63.3357489,202.5167 64.3261704,199.8707 C64.7500628,198.7387 64.6918027,197.4257 65.1187085,196.2947 C66.1824574,193.4737 67.421991,190.7187 68.5329507,187.9147 C68.7398744,187.3947 68.7710135,186.7607 68.7238027,186.1937 C68.3340628,181.5847 71.7282152,177.5537 70.7709417,172.8357 C70.6714978,172.3447 71.3495247,171.7087 71.6358027,171.1247 C72.5820269,169.1937 73.629704,167.2997 74.4192287,165.3057 C75.2047354,163.3207 75.7521794,161.2387 76.3538655,159.1837 C76.7596771,157.7957 77.6888251,157.4137 78.8660807,158.0157 C80.1347444,158.6637 79.8474619,159.7617 79.3843946,160.8687 C78.7887354,162.2897 78.2935247,163.7557 77.7601435,165.2037 C77.6365919,165.5377 77.6315695,166.0407 77.3955157,166.1907 C75.5532915,167.3627 75.8315336,169.2757 75.5221525,171.0237 C75.3222601,172.1487 74.7014888,173.1967 74.461417,174.3197 C74.0274798,176.3507 73.696,178.4067 73.4308161,180.4657 C73.3926457,180.7637 73.9641973,181.1377 74.4644305,181.7227 C75.0148879,180.3377 75.4086457,179.2747 75.8576502,178.2337 C77.087139,175.3787 78.302565,172.5167 79.6023677,169.6927 C80.0413274,168.7407 80.6872108,167.8747 81.2858834,167.0027 C83.3541166,163.9957 85.474583,161.0227 87.5126816,157.9957 C89.3147265,155.3187 90.7501345,152.3407 92.8515157,149.9317 C96.5299372,145.7127 100.549883,141.7847 104.544717,137.8517 C105.124305,137.2817 106.352789,137.3637 107.280933,137.1437 C107.39243,138.0787 107.614422,139.0197 107.566206,139.9477 C107.544108,140.3597 107.016753,140.7837 106.652126,141.1327 C103.173596,144.4767 99.6599103,147.7857 96.2004664,151.1497 C94.5842511,152.7207 92.926852,154.2867 91.5687892,156.0687 C91.0072825,156.8067 90.6838386,158.4257 91.1147623,159.0837 C92.671713,161.4667 96.8553901,161.8707 99.1375785,160.1317 C101.79243,158.1107 102.477489,158.3807 103.997274,161.4757 C104.525632,162.5507 105.520072,163.7867 106.573776,164.1317 C108.257291,164.6857 110.317489,165.0567 111.939731,164.5747 C113.48965,164.1147 115.628197,162.6177 115.839139,161.3097 C116.284126,158.5387 117.627121,155.9847 117.875229,153.3857 C118.104251,150.9757 116.491049,148.3917 115.686457,145.8757 C112.594655,146.7107 111.844305,148.1567 113.057722,151.0947 C113.196341,151.4307 113.48965,151.8457 113.39322,152.1087 C113.118996,152.8607 112.68104,153.5517 112.307372,154.2677 C111.622314,153.8517 110.875982,153.5067 110.281327,152.9897 C110.009112,152.7517 110.008108,152.1807 109.929758,151.7517 C109.688682,150.4387 108.708305,150.0317 107.892664,150.8377 C104.97765,153.7197 100.21539,153.6507 97.7765022,157.2597 C97.4480359,157.7457 96.6876413,158.1377 96.0889686,158.1977 C95.4601614,158.2607 94.6013274,158.0457 94.1935067,157.6207 C93.9001973,157.3147 93.9413812,156.2367 94.2577937,155.8977 C95.0222063,155.0817 95.9955516,154.4347 96.9558386,153.8317 C99.2330045,152.4037 101.602583,151.1167 103.833543,149.6217 C105.20165,148.7047 106.307587,147.4037 107.667659,146.4727 C109.18443,145.4357 110.975426,144.7777 112.42791,143.6697 C114.048143,142.4357 115.472502,140.9297 116.892843,139.4567 C119.937435,136.2997 122.905686,133.0817 124.004592,128.6417 C124.772018,125.5407 126.772951,122.7427 126.211444,119.2967 C126.129076,118.7907 126.887462,118.1977 127.083336,117.5887 C127.519283,116.2357 128.121973,114.8547 128.159139,113.4717 C128.249543,110.0707 127.932126,106.6577 128.032574,103.2567 C128.083803,101.5567 127.93313,100.1777 126.65643,98.9057 C126.12104,98.3717 125.890009,97.3467 125.864897,96.5357 C125.805632,94.5727 126.022601,92.6027 125.972377,90.6397 C125.954296,89.9057 125.520359,89.1757 125.248143,88.4537 C124.850368,87.4037 124.315982,86.3917 124.034726,85.3127 C123.040287,81.5027 121.66113,78.0087 117.769758,76.1477 C117.27957,75.9127 116.967175,75.2377 116.657794,74.7157 C114.977291,71.8817 112.673004,69.6797 109.691695,67.8557 C109.346152,69.1657 109.442583,70.3867 109.319031,71.5857 C109.19548,72.7947 109.113112,74.1227 108.55261,75.1517 C107.387408,77.2887 107.611408,80.0507 105.527103,81.7507 C105.489937,81.7817 105.511031,81.8927 105.518063,81.9647 C105.8847,85.3287 104.274511,88.1147 102.430278,90.5827 C100.016502,93.8147 100.462493,98.2197 97.6318565,101.1857 C97.5906726,101.2287 97.6278386,101.3387 97.5926816,101.3957 C96.9478027,102.4397 96.3662063,103.5327 95.6279103,104.5047 C94.818296,105.5717 93.7876951,106.4717 92.993148,107.5467 C92.3402332,108.4297 91.8460269,109.4407 91.3678924,110.4357 C90.9922152,111.2147 90.2679821,112.4157 90.5522511,112.7937 C91.0595157,113.4697 92.1795157,113.8367 93.1046457,114.0087 C93.8459552,114.1477 94.8132735,113.4887 95.4390673,113.7517 C96.3662063,114.1437 97.0793901,115.0377 97.8829776,115.7177 C97.0020448,116.1927 96.1653094,116.8237 95.2251121,117.0927 C94.4205202,117.3247 93.4963946,117.1407 92.6245022,117.1407 C92.5672466,117.3547 92.509991,117.5687 92.4527354,117.7817 C92.9790852,118.3417 93.66113,118.8257 93.9906009,119.4847 C94.3451839,120.1917 94.7590314,121.2787 94.4576861,121.8187 C93.789704,123.0127 93.9664933,123.7917 94.8413991,124.6887 C95.9161973,125.7877 95.774565,126.8367 94.6475336,127.8917 C93.853991,128.6337 93.2071031,129.5307 92.3332018,130.5457 C94.9177399,131.0767 96.3641973,130.2117 96.9769327,128.1967 C97.1637668,127.5817 97.1356413,126.7657 97.5344215,126.3767 C99.3796592,124.5787 101.235946,122.8757 99.1516413,120.0957 C99.0451659,119.9537 99.0542063,119.6267 99.1436054,119.4547 C99.420843,118.9257 99.6739731,118.1317 100.103892,118.0047 C100.524771,117.8807 101.283157,118.3297 101.65783,118.7417 C102.160072,119.2917 102.436305,120.0477 102.826045,120.7457 C105.904789,118.2587 105.687821,115.9847 102.428269,114.6317 C102.293668,114.5757 102.084735,114.5837 102.020448,114.4897 C101.645776,113.9347 101.304251,113.3587 100.951677,112.7887 C101.518206,112.4447 102.052592,111.9147 102.662314,111.8077 C103.261991,111.7027 103.936,112.1197 104.579874,112.1317 C105.087139,112.1417 105.91383,112.0327 106.058475,111.7247 C106.98461,109.7547 108.37783,107.7457 108.473256,105.6957 C108.754511,99.6137 108.499372,93.5067 108.46522,87.4107 C108.450152,84.9257 108.462206,82.4417 108.462206,79.9107 C110.762475,80.2767 111.525883,81.3967 111.403336,83.6497 C111.34809,84.6567 110.959354,86.0507 111.461596,86.6087 C113.095892,88.4227 113.337973,90.5167 113.132054,92.6637 C112.889973,95.1927 114.243013,98.1197 111.425435,100.1337 C111.085919,100.3767 111.224538,101.3277 111.199426,101.9527 C111.047749,105.7317 111.786045,109.7087 108.757525,113.0287 L108.757525,113.0287 Z M117.070637,298.0537 C118.348341,296.0977 117.885274,295.0847 114.76635,294.8387 C115.763803,296.2107 116.431785,297.1307 117.100771,298.0507 C117.2193,298.1247 117.433256,298.1887 117.4433,298.2757 C117.8913,301.9557 120.994152,304.1867 122.454673,307.3177 C122.663605,307.7647 123.39487,307.9587 123.861955,308.2997 C125.131623,309.2257 126.351067,310.2267 127.667946,311.0797 C128.436377,311.5787 129.352466,311.8527 130.203265,312.2267 C130.337865,311.9917 130.474475,311.7557 130.610081,311.5197 C130.237417,311.0207 129.911964,310.4777 129.486063,310.0287 C126.740807,307.1337 124.023677,304.2107 121.19304,301.4027 C119.942457,300.1617 118.447785,299.1637 117.070637,298.0537 L117.070637,298.0537 Z M142.085309,269.0187 C143.234439,270.6087 144.516161,272.1207 145.50357,273.8037 C147.464323,277.1487 150.842404,279.7007 151.2,283.9697 C151.268305,284.7807 151.944323,285.5277 152.258726,286.3347 C152.569112,287.1297 153.015103,287.9747 152.978942,288.7807 C152.908628,290.3837 151.723336,290.9177 150.66461,289.7727 C149.167928,288.1547 147.550709,288.1947 145.523659,288.3077 C141.387193,288.5397 137.222601,288.2757 133.070063,288.2687 C132.235336,288.2667 131.40061,288.5017 130.564879,288.6277 C130.731623,289.5097 130.755731,290.4497 131.091229,291.2607 C131.978188,293.4027 132.912359,295.5357 134.007247,297.5767 C134.531587,298.5547 135.3633,299.4347 136.228161,300.1547 C137.892592,301.5407 139.64843,302.8257 141.425363,304.0707 C143.076735,305.2267 144.705004,306.4897 146.521112,307.3247 C149.348735,308.6247 151.021202,312.0137 151.332592,314.9187 C151.695211,318.2957 150.047857,320.6917 148.796269,323.3787 C148.704861,323.5757 148.656646,323.8757 148.50296,323.9487 C146.299121,324.9847 144.138475,326.6617 141.853274,326.8567 C137.596269,327.2197 133.257901,326.8137 128.968753,326.5057 C127.877883,326.4277 126.684556,325.7017 125.817686,324.9527 C122.730906,322.2817 119.619013,320.1577 115.121937,320.7617 C112.05826,321.1747 108.777614,321.4007 106.101668,319.0967 C105.996197,319.0047 105.82443,318.8987 105.70791,318.9217 C102.201256,319.6107 99.5433901,317.3887 96.5821704,316.2547 C94.559139,315.4807 92.6616682,314.3727 90.6285919,313.6307 C87.9395874,312.6497 85.117991,311.0377 82.4551031,311.2137 C78.4090404,311.4827 74.878278,309.5847 70.9236233,309.5787 C68.9287175,309.5757 66.8614888,307.6517 65.9012018,305.0367 C66.6917309,305.0367 67.3165202,304.8387 67.6158565,305.0667 C70.8583318,307.5257 74.6984753,306.3167 78.2463139,306.8277 C79.8313901,307.0547 81.5892377,307.3427 83.0487534,306.8947 C85.3590673,306.1857 87.4915874,304.8957 89.6813632,303.8147 C90.0620628,303.6267 90.3634081,303.0107 90.686852,303.0217 C91.6883229,303.0547 92.6847713,303.2947 93.6822242,303.4537 C93.2864574,304.3607 93.0745112,305.4267 92.4507265,306.1317 C91.6039462,307.0887 90.4427623,307.7687 89.4161794,308.5667 C90.4889686,309.2527 91.489435,310.1157 92.6506188,310.5837 C94.3100269,311.2537 96.1522511,311.4797 97.794583,312.1787 C99.775426,313.0217 101.541309,314.4087 103.558314,315.1177 C106.858045,316.2767 110.272287,317.1287 113.672466,317.9777 C114.221919,318.1157 114.946152,317.5657 115.589022,317.3327 C115.242475,316.7277 115.017471,315.9937 114.529291,315.5377 C112.769435,313.9027 110.983462,312.2797 109.065901,310.8377 C108.555623,310.4547 107.317094,310.4207 106.793758,310.7787 C105.031892,311.9807 103.903857,311.2877 102.575928,310.0467 C101.509166,309.0487 100.0607,308.4677 98.9085561,307.5437 C98.1963767,306.9737 97.7071928,306.1197 97.1547265,305.3667 C97.0412197,305.2127 97.1607534,304.8977 97.0552825,304.7317 C94.6314619,300.9217 92.1915695,297.1227 89.6873901,293.2177 C88.5633722,294.5257 87.3439283,295.7457 86.3595336,297.1317 C84.3847175,299.9117 81.7228341,301.7557 78.6209865,302.9937 C77.7129327,303.3557 76.641148,303.4197 75.6436951,303.4297 C73.0179731,303.4547 70.3249507,303.0047 67.7886278,303.4587 C65.8650404,303.8037 64.0921256,305.1677 62.3372915,306.2207 C59.4684843,307.9427 59.5277489,307.9617 57.2515874,305.6747 C55.5098117,303.9257 53.7419193,302.8267 50.8570404,303.3767 C48.2473901,303.8757 45.1676413,304.2577 43.1837848,301.2247 C41.9301883,299.3067 41.9131121,297.4597 43.0532018,295.7317 C44.7527892,293.1547 46.658296,290.7027 48.6009686,288.2957 C51.2849507,284.9727 54.1186009,281.7697 56.8035874,278.4477 C57.312861,277.8177 57.6794978,276.8767 57.6845202,276.0777 C57.7086278,272.6507 57.6463498,269.2177 57.4344036,265.7977 C57.3912108,265.0917 56.4721076,263.8067 56.1325919,263.8627 C54.7032108,264.0947 52.8519462,264.3397 52.0604126,265.3117 C50.659157,267.0327 49.0057758,267.7457 47.0138834,267.9967 C45.2952108,268.2127 44.2013274,267.6247 44.2475336,265.5947 C44.2887175,263.8257 44.6412915,262.3287 45.5332735,260.6837 C46.8551749,258.2477 48.7415964,255.7747 47.8395695,252.6057 C47.7150135,252.1697 47.7943677,251.4467 48.0826547,251.1587 C51.0930942,248.1547 49.7069058,244.4527 49.8023318,240.9877 C49.8455247,239.4057 49.9439641,237.8237 49.9550135,236.2417 C49.9670673,234.5837 49.823426,232.9217 49.9037848,231.2707 C49.9580269,230.1507 50.0343677,228.9157 50.5335964,227.9547 C51.8474619,225.4247 52.0543857,223.0097 50.6189776,220.4837 C49.1614709,217.9167 49.4969686,216.9577 52.1397668,215.7737 C52.7384395,215.5047 53.3652377,215.2717 53.9136861,214.9207 C55.2978655,214.0357 55.2406099,212.7267 53.8182601,211.8447 C52.0925561,210.7757 50.3748879,209.6917 48.6321076,208.6517 C48.2946009,208.4507 47.7963767,208.2397 47.4689148,208.3417 C45.9752466,208.8077 45.0079283,212.7007 45.5001256,214.1507 C46.2233543,216.2807 46.6703498,218.5577 46.8320717,220.8007 C46.9395516,222.2827 45.5393004,222.4977 44.256574,222.4297 C42.9196054,222.3587 42.2636771,221.7417 42.2958206,220.3607 C42.3902422,216.2157 42.2606637,212.0557 42.5780807,207.9287 C42.8030852,205.0077 41.5364305,203.1547 39.5435336,201.3127 C38.33313,200.1937 37.5667085,198.5957 36.6245022,197.1977 C36.4246099,196.8997 36.3723767,196.5017 36.1704753,196.2047 C34.7923229,194.1807 33.2926278,192.2317 32.0199462,190.1447 C29.5800538,186.1427 27.0808969,182.1577 24.9604305,177.9877 C23.4386368,174.9937 22.5155157,171.7007 21.28,168.5577 C20.288574,166.0387 19.2067444,163.5557 18.2163229,161.0367 C17.984287,160.4477 17.94913,159.7787 17.8486816,159.1417 C17.7472287,158.4967 17.8095067,157.7947 17.569435,157.2107 C16.4695247,154.5277 15.200861,151.9107 14.1642332,149.2037 C13.3435695,147.0627 13.0331839,144.6997 12.0276951,142.6637 C10.5732018,139.7247 9.10263677,136.5057 5.24843049,135.9687 C2.83063677,135.6327 2.36254709,133.9297 2.26913004,132.0847 C2.17872646,130.2647 3.37205381,129.3717 5.1710852,129.2457 C5.42823318,129.2267 5.66930942,128.9847 5.90435874,128.8537 C5.84710314,128.6457 5.83203587,128.4027 5.76975785,128.3897 C2.82661883,127.7957 1.82615247,126.2807 2.75027803,123.2507 C3.01847534,122.3727 2.05919283,120.9617 1.3821704,119.9887 C-0.645883408,117.0737 -0.482152466,114.0777 2.13854709,111.6577 C3.36301345,110.5277 3.71458296,109.5157 3.07573094,107.8287 C2.50518386,106.3217 2.43989238,104.5447 2.53029596,102.9077 C2.57047534,102.1887 3.48455605,101.4517 4.12943498,100.8597 C4.46995516,100.5467 5.09173094,100.5517 5.57287892,100.3757 C8.89973094,99.1657 11.4049148,100.8047 11.6881794,104.3747 C11.7213274,104.7997 11.6861704,105.3187 11.9131839,105.6247 C12.7047175,106.6947 18.4061704,106.3457 19.1766099,105.2707 C20.2664753,103.7477 21.4979731,102.3187 22.5044664,100.7457 C23.0639641,99.8687 23.2899731,98.7807 23.874583,98.1607 C25.6213812,96.8537 27.489722,95.6767 29.0758027,94.1997 C30.335426,93.0267 31.3348879,92.6877 32.9410583,93.5387 C33.5879462,93.8827 34.9630852,93.6547 35.5677848,93.1567 C38.8353722,90.4677 41.8427982,90.3327 45.3183139,92.6497 C47.7330942,94.2587 50.3226547,95.6167 52.8830852,96.9957 C54.3536502,97.7887 55.168287,100.9287 53.8714978,101.9967 C53.3461525,102.4307 52.0061704,102.2927 51.2718924,101.9367 C50.6782422,101.6487 50.4371659,100.6417 50.0393901,99.9537 C49.7882691,100.1307 49.537148,100.3087 49.2860269,100.4867 C48.8721794,101.3547 48.4593363,102.2237 47.8435874,103.5167 C45.4639641,101.1727 42.2305291,99.9907 42.2486099,96.0517 C42.2516233,95.3587 41.3666726,94.6617 40.8925561,93.9657 C40.3400897,94.4497 39.5415247,94.8287 39.2823677,95.4357 C38.4315695,97.4247 36.9168072,97.8147 34.9942242,97.6297 C33.695426,97.5057 32.3725202,97.3387 31.0877848,97.4647 C29.6051659,97.6107 28.8658655,99.5047 29.858296,100.5917 C30.7301883,101.5467 31.7939372,102.3517 32.8677309,103.0867 C33.2373812,103.3397 33.8913004,103.1827 34.4146368,103.2117 C34.3423139,102.7457 34.3553722,102.2427 34.1725561,101.8237 C34.0048072,101.4397 33.4975426,101.1877 33.373991,100.8037 C33.2393901,100.3827 33.2032287,99.6097 33.4282332,99.4667 C33.8250045,99.2167 34.5442152,99.1327 34.9671031,99.3277 C36.1433543,99.8677 37.2613453,100.5497 38.3532197,101.2527 C38.7570224,101.5137 39.2100448,101.9417 39.3215426,102.3737 C40.7730224,108.0007 41.2722511,113.7097 41.0080717,119.5267 C40.8433363,123.1447 41.1406637,126.7827 41.1567354,130.4117 C41.1657758,132.5027 41.1045022,134.6027 40.9106368,136.6827 C40.8604126,137.2167 40.2496861,137.7617 39.7846099,138.1777 C39.3034619,138.6077 38.3954081,138.7667 38.1894888,139.2587 C37.7796592,140.2367 37.7244126,141.3607 37.5235157,142.4247 C38.3190673,142.1667 39.3215426,142.1297 39.872,141.6137 C41.9934709,139.6247 44.8150673,137.9917 44.3118206,134.3817 C44.2927354,134.2457 44.3288969,134.0737 44.4042332,133.9587 C47.4829776,129.2327 45.9461166,124.0587 45.8677668,119.0277 C45.8597309,118.5167 45.7070493,117.9637 45.857722,117.5077 C46.0204484,117.0157 46.4865291,116.2347 46.7738117,116.2537 C47.3081973,116.2907 47.9299731,116.7207 48.286565,117.1667 C48.6240717,117.5897 48.6381345,118.2557 48.8480717,118.7937 C49.0469596,119.3007 49.315157,119.7807 49.6205202,120.4127 C51.4547085,119.2447 51.7198924,117.5967 51.6666547,115.9527 C51.6515874,115.4747 50.8108341,114.6997 50.269417,114.6237 C48.8822242,114.4327 47.7602152,114.0387 47.6939193,112.5057 C47.6617758,111.7947 48.0485022,110.4807 48.3538655,110.4487 C49.408574,110.3357 50.5125022,110.6617 51.5943318,110.8357 C51.8022601,110.8697 51.999139,110.9727 52.3758206,111.1057 C53.2888969,108.9037 54.1406996,106.6977 55.1291121,104.5527 C55.4495426,103.8587 56.128574,103.3277 56.6438744,102.7217 C57.2124126,103.3927 58.2349776,104.0537 58.2490404,104.7377 C58.2761614,105.9557 57.7739193,107.2157 57.3429955,108.4057 C56.9030314,109.6207 56.2149596,110.7487 55.7860448,111.9677 C55.6665112,112.3087 55.9758924,112.9507 56.290296,113.2327 C56.4751211,113.4007 57.2144215,113.2817 57.4313901,113.0437 C59.4283049,110.8577 61.5176323,108.7257 63.2373094,106.3327 C63.8470314,105.4857 63.9223677,103.8107 63.5266009,102.7867 C62.7601794,100.7997 62.4698834,99.0477 63.0524843,96.8927 C63.5597489,95.0157 63.3879821,92.8737 63.1278206,90.9007 C62.9208969,89.3377 63.1850762,88.5367 64.6586547,87.7917 C65.5024215,87.3667 66.3220807,86.1747 66.4586906,85.2297 C66.7771121,83.0247 66.6043408,80.7537 66.787157,78.5227 C66.8444126,77.8267 67.2813632,77.0357 67.7986726,76.5637 C68.0055964,76.3757 68.9799462,76.8237 69.4661166,77.1727 C71.8788879,78.9077 72.0265471,80.2037 70.2938117,82.6587 C69.9382242,83.1607 69.6579731,83.8237 69.6278386,84.4267 C69.4932377,87.1207 69.4922332,89.8227 69.3827444,92.5177 C69.2953543,94.6767 69.0613094,96.8307 69.0140987,98.9907 C68.9960179,99.8377 69.0060628,101.0057 69.5173453,101.4947 C72.5107085,104.3527 71.3666009,107.8267 71.1596771,111.1437 C71.0009686,113.6997 73.5182063,116.4717 75.9801973,116.2757 C76.0304215,116.1477 76.1589955,115.9537 76.1147982,115.8997 C74.1811659,113.5397 75.2358744,111.9657 77.3191749,110.3677 C78.7555874,109.2637 78.978583,107.5477 77.8184036,106.0617 C75.4397848,103.0087 75.7652377,99.5707 76.064574,96.0797 C76.1399103,95.2067 76.1780807,94.1307 75.747157,93.4557 C74.7486996,91.8907 74.6723587,90.4617 75.7230493,88.9957 C76.989704,87.2287 76.6903677,85.6947 75.4066368,84.0367 C74.8360897,83.2997 74.5186726,82.1917 74.4975785,81.2427 C74.4403229,78.6227 74.4794978,75.9877 74.7175605,73.3797 C74.8772735,71.6327 75.3674619,69.9017 75.8496143,68.2027 C76.18913,67.0067 77.3864753,65.8657 75.8325381,64.7197 C74.5638744,63.7847 71.906009,63.9347 70.9065471,64.9507 C69.1195695,66.7667 67.2100448,68.4837 65.5867982,70.4347 C64.8685919,71.2997 64.5833184,72.6097 64.3512825,73.7657 C64.0800717,75.1127 64.0860987,76.5127 63.9635516,77.8887 C63.808861,79.6307 62.9510314,80.6267 61.1359283,80.9867 C60.3052197,81.1497 59.5538655,81.8707 58.8386726,82.4297 C57.0788161,83.8087 55.3380448,85.2127 53.6414709,86.6667 C53.1412377,87.0947 52.4913363,87.7077 52.4622063,88.2647 C52.2693453,91.9727 51.4316054,92.7877 47.521148,92.6027 C47.4729327,92.2187 47.2710314,91.7577 47.3955874,91.4117 C48.1499552,89.3137 48.9736323,87.2407 49.7882691,85.1637 C49.8656143,84.9667 50.0012197,84.7477 50.1729865,84.6377 C52.704287,83.0227 55.2004305,81.3437 57.8050583,79.8557 C59.2203767,79.0477 61.2484305,75.1267 61.1771121,73.1557 C61.1459731,72.3057 61.4603767,71.3307 61.919426,70.6027 C62.8726816,69.0867 64.0860987,67.7357 65.0845561,66.2447 C66.1141525,64.7097 67.2220987,63.5767 69.1024933,62.8047 C71.074296,61.9957 72.8050224,60.8947 75.0872108,60.8257 C76.2333274,60.7897 76.8058834,59.2647 75.8194798,58.4817 C71.1536502,54.7837 73.5403049,49.6447 72.8652915,45.1447 C72.7909596,44.6487 72.9185291,44.1257 72.9084843,43.6167 C72.8652915,41.3427 72.254565,40.7827 69.9864395,40.9007 C67.9453274,41.0067 66.7630493,40.0717 66.5460807,38.1557 C66.3542242,36.4597 66.849435,35.2757 68.799139,35.1387 C69.2019372,35.1107 69.5926816,34.9167 70.0135605,34.7927 C68.351139,31.2007 71.3364664,29.1607 72.6031211,26.6317 C73.1254529,25.5887 74.3418834,24.8847 75.2579731,24.0437 C76.1057578,23.2667 76.9746368,22.5127 77.8575785,21.7277 C75.0249327,20.0807 72.3650583,18.5347 69.3254888,16.7677 C67.583713,18.1517 65.5687175,19.7647 63.5416682,21.3627 C61.5909596,22.9007 59.4735067,22.7627 57.6784933,20.9937 C56.6880717,20.0167 55.7498834,18.9807 54.7072287,18.0617 C52.9895605,16.5467 52.5325202,14.7107 53.5801973,12.7557 C54.946296,10.2087 56.5795874,7.8057 58.0591928,5.3177 C58.719139,4.2087 59.2404664,3.0177 59.9114619,1.9157 C60.2610224,1.3417 60.8697399,0.4107 61.2383857,0.4647 C62.0630673,0.5867 63.4000359,1.1337 63.4844126,1.6697 C63.7867623,3.5877 64.8324305,3.3577 66.177435,3.1077 C67.4611659,2.8697 68.8101883,2.9547 70.078852,2.6667 C71.9461883,2.2437 73.7612915,1.5997 75.6075336,1.0807 C76.3639103,0.8697 77.1393722,0.6107 77.9118206,0.5927 C80.9081973,0.5227 83.9216502,0.7117 86.9029596,0.4757 C89.7536861,0.2487 91.5687892,2.1917 93.8148161,3.2207 C96.4535964,4.4307 98.5921435,6.7337 101.884843,6.5317 C102.618117,6.4877 103.395587,7.4637 104.182099,7.9197 C105.383462,8.6177 106.595874,9.2987 107.83139,9.9327 C108.894135,10.4767 110.369722,10.6587 111.013596,11.4947 C113.24757,14.3997 116.580448,15.6307 119.522583,17.4307 C120.369363,17.9487 121.659121,17.7467 122.745973,17.8787 C123.982493,18.0287 124.624359,18.5247 124.717776,19.9627 C124.954834,23.6027 123.461166,26.6867 121.629991,29.5657 C121.01826,30.5267 119.386978,31.1777 118.140413,31.3337 C115.899408,31.6157 113.59713,31.4557 111.322978,31.4057 C109.140233,31.3567 107.269883,31.6397 107.310063,34.1897 C106.037381,34.7757 104.484448,34.9847 103.99426,35.8157 C102.824036,37.7997 103.709991,40.3367 106.474332,40.2117 C107.775139,40.1537 109.254744,40.3177 109.384323,41.8357 C109.463677,42.7657 108.789668,43.9447 108.110637,44.7077 C107.196556,45.7367 106.997668,46.5797 107.979049,47.5317 C109.387336,48.8977 109.71078,50.3507 109.090009,52.2817 C108.432072,54.3237 110.375749,57.1247 112.567534,57.2287 C115.175175,57.3517 115.918493,59.5427 117.28861,60.9697 C118.181596,61.8997 118.79835,63.2777 119.072574,64.5537 C119.299587,65.6037 119.238314,67.1567 118.60348,67.8587 C117.256466,69.3477 117.63817,70.3517 118.72,71.6267 C121.804771,75.2677 124.91365,78.8947 127.826655,82.6677 C128.438386,83.4607 128.225435,84.8677 128.449435,85.9797 C128.870314,88.0777 129.392646,90.1557 129.759283,92.2617 C130.063641,94.0077 130.177148,95.7867 130.429274,97.5417 C130.565883,98.4997 130.560861,99.6077 131.057076,100.3627 C132.984682,103.2937 132.99774,106.0907 131.201722,109.0957 C130.268556,110.6587 130.15304,112.4397 131.461883,113.9917 C132.322726,115.0117 131.873722,115.8387 131.464897,116.9487 C130.324807,120.0467 128.180233,122.8727 128.618188,126.4587 C128.695534,127.0847 128.664395,127.8617 128.356018,128.3727 C127.020054,130.5867 125.607749,132.7607 124.135175,134.8877 C122.621417,137.0737 120.928861,139.1387 119.455283,141.3487 C118.196664,143.2357 118.913865,147.2117 120.683767,148.6957 C121.753543,147.7127 121.750529,146.6707 121.162906,145.3957 C120.854529,144.7267 120.653632,143.3317 120.893704,143.2087 C121.71939,142.7867 122.898655,142.4237 123.675121,142.7247 C124.285848,142.9607 124.625363,144.1787 124.842332,145.0227 C124.97191,145.5277 124.559067,146.1457 124.522906,146.7217 C124.482726,147.3627 124.333058,148.3017 124.68061,148.6117 C127.617722,151.2307 126.046709,154.6527 126.425399,157.7077 C126.566027,158.8437 126.237561,160.0507 126.459552,161.1597 C127.293274,165.3287 124.902601,168.5117 123.136717,171.8047 C122.27487,173.4127 122.047857,174.4907 123.32757,175.8517 C124.980951,177.6097 125.837776,179.6257 126.499731,182.0777 C127.238027,184.8147 129.106368,187.2637 128.675444,190.3607 C131.67383,193.4907 130.312753,197.9827 132.293596,201.5857 C133.819408,204.3617 133.610475,208.0277 134.781704,211.0657 C136.663103,215.9447 138.603767,220.7097 142.854744,224.4467 C146.299121,227.4717 149.832897,228.0447 153.914117,227.6547 C156.023534,227.4527 157.251013,226.0307 157.951139,224.1147 C158.171121,223.5127 158.355946,222.4477 158.674368,222.4027 C162.317632,221.8817 162.244305,217.7987 164.779623,216.1497 C165.587229,215.6237 165.782099,213.7187 165.741919,212.4607 C165.691695,210.8907 165.770045,209.6887 166.796628,208.2637 C167.637381,207.0957 167.694637,205.1247 167.555013,203.5577 C167.364161,201.4187 167.829238,199.7427 169.387193,198.2797 C170.923049,196.8377 172.298188,195.2177 173.897327,193.8537 C175.493453,192.4927 180.228592,193.0977 181.715229,194.6307 C184.190278,197.1827 186.77783,199.5447 188.372951,202.9087 C189.28904,204.8407 191.278924,206.3377 192.976502,207.8137 C194.513363,209.1487 196.582601,209.1417 198.071247,207.9917 C199.495605,206.8897 200.788377,205.3207 199.833112,203.0707 C199.082762,201.2997 199.514691,199.6247 200.310242,197.8317 C201.459372,195.2427 203.03139,193.2677 205.474296,191.7877 C206.542063,191.1397 207.120646,191.0737 207.840861,191.9887 C208.247677,192.5047 208.634404,193.0387 209.043229,193.5547 C210.30687,195.1457 211.646852,195.7267 213.5393,194.3207 C214.244448,193.7967 215.398601,193.8717 216.347839,193.6737 C216.137901,194.6607 216.166027,195.7927 215.665794,196.6027 C214.713543,198.1447 213.560395,199.5607 211.451982,199.7847 C210.921614,199.8407 210.418368,200.6627 210.006529,201.2097 C209.063318,202.4647 208.316987,203.8907 207.253238,205.0277 C204.854529,207.5887 202.22278,209.9377 199.849184,212.5207 C196.792538,215.8467 192.772592,216.1467 189.720969,212.9057 C188.563803,211.6757 187.938009,209.9617 186.831067,208.6717 C184.618188,206.0937 183.554439,202.4537 179.740413,201.3187 C177.583785,200.6777 174.542206,202.7157 174.851587,205.0217 C175.120789,207.0357 174.64165,208.3007 172.195731,208.6387 C173.341848,211.6637 171.589022,213.8497 170.270135,216.1647 C168.944215,218.4937 166.884018,220.7037 166.482224,223.1797 C166.002081,226.1387 163.97704,226.1897 162.178009,227.2407 C159.694924,228.6917 157.378583,230.4787 155.194834,232.3577 C153.985435,233.3977 152.996018,233.8887 151.315516,233.6647 C149.020269,233.3607 146.638637,233.7437 144.321291,233.5377 C143.109883,233.4287 141.731731,232.9557 140.816646,232.1897 C138.017148,229.8447 135.207605,227.4537 132.796843,224.7327 C131.352395,223.1037 130.487534,220.8877 129.655821,218.8187 C128.837166,216.7807 128.389166,214.5937 127.778439,212.4717 C127.699085,212.1967 127.707121,211.7737 127.528323,211.6677 C124.463641,209.8757 126.128072,206.9807 125.765453,204.5477 C125.597704,203.4217 125.025148,202.3517 124.60226,201.2687 C124.196448,200.2307 123.699229,199.2257 123.329578,198.1747 C122.913722,196.9897 122.636484,195.9087 120.93087,196.8387 C119.746583,197.4847 119.092664,196.7407 119.189094,195.5247 C119.320682,193.8647 119.443229,192.1797 119.833973,190.5687 C120.247821,188.8627 119.799821,187.5197 119.038422,186.0047 C118.527139,184.9897 118.255928,183.2267 118.803372,182.4207 C120.885668,179.3567 119.988664,176.3177 118.871677,173.4837 C117.964628,171.1807 118.151462,169.6407 120.040897,168.1517 C120.841471,167.5207 121.732448,166.8337 122.179444,165.9677 C122.835372,164.6977 123.422996,163.2607 123.516413,161.8607 C123.714296,158.9147 123.660054,155.9437 123.527462,152.9917 C123.470206,151.7017 123.573668,150.0767 121.119713,149.6417 C121.003193,151.1917 120.65765,152.7247 120.822386,154.2017 C121.268377,158.1787 120.039892,161.5777 117.332807,164.3557 C116.514152,165.1967 114.94113,165.3097 113.778942,165.7317 C116.491049,171.3977 115.649291,177.6017 115.094816,183.8117 C114.899946,185.9887 115.523731,188.1447 114.226942,190.3207 C113.747803,191.1237 115.109883,192.8517 115.148054,194.1707 C115.182206,195.3337 114.539336,196.5147 114.198816,197.6887 C113.872359,198.8107 113.428377,199.9167 113.262637,201.0627 C113.098906,202.1917 113.215426,203.3617 113.215426,204.5127 C113.214422,216.1347 113.205381,227.7557 113.234511,239.3767 C113.23652,240.2277 113.234511,241.3187 113.719677,241.8837 C115.581991,244.0527 115.348951,246.5817 115.468484,249.1257 C115.522726,250.2797 116.098296,251.4177 116.494063,252.5427 C116.732126,253.2217 117.444305,253.9467 117.314726,254.5057 C116.725094,257.0437 117.792861,259.0377 119.048466,261.0477 C119.302601,261.4537 119.344789,262.0197 119.386978,262.5197 C119.640108,265.5837 119.635085,265.5157 122.534027,265.7057 C123.177901,265.7477 124.264753,266.4167 124.311964,266.8817 C124.552036,269.2547 125.635874,271.8777 122.739946,273.7907 C123.419982,274.5117 124.139193,275.0447 124.546009,275.7557 C125.270242,277.0217 126.0447,278.3407 126.361112,279.7367 C126.741812,281.4147 127.257112,282.7867 128.984825,283.4297 C130.696466,284.0677 132.364915,284.8537 134.119749,285.3327 C135.987085,285.8437 137.810224,285.7687 139.564054,284.5387 C140.355587,283.9847 141.600143,284.0047 142.652843,283.9087 C143.5167,283.8287 144.438816,284.1377 145.265507,283.9577 C146.371444,283.7167 147.202152,282.9977 146.390529,281.7407 C144.71304,279.1397 142.867803,276.6447 141.269668,273.9987 C139.130117,270.4577 137.154296,266.8187 135.124233,263.2127 C134.843982,262.7147 134.796771,261.9967 134.401004,261.6657 C130.994798,258.8197 130.653274,254.8297 130.146009,250.8657 C130.050583,250.1137 129.64678,249.3307 129.185722,248.7087 C128.088825,247.2287 127.420843,245.7817 128.073758,243.8467 C128.250547,243.3217 127.459013,242.4737 127.111462,241.7737 C126.815139,242.4177 126.332987,243.0417 126.261668,243.7097 C126.126063,244.9947 126.010547,246.3497 126.285776,247.5867 C126.528861,248.6827 127.196843,249.7477 127.891946,250.6637 C128.615175,251.6167 129.700018,252.4877 128.551892,253.6387 C127.37765,254.8167 126.380197,254.0417 125.403839,253.0357 C123.632933,251.2097 123.082475,249.1357 123.407928,246.6457 C123.552574,245.5427 123.505363,244.1597 122.951892,243.2687 C120.634547,239.5367 121.513471,235.5067 121.465256,231.5427 C121.452197,230.4227 121.434117,229.0117 120.798278,228.2447 C118.624574,225.6227 119.224251,222.7457 119.701381,219.9187 C120.469812,215.3647 119.797812,211.0027 118.693883,206.5877 C118.26296,204.8657 118.647677,202.9297 118.760179,201.0967 C118.772233,200.9007 119.56678,200.5007 119.789776,200.6127 C120.670709,201.0477 121.784682,201.4727 122.212592,202.2357 C122.704789,203.1157 122.890619,204.4287 122.641507,205.4117 C121.617937,209.4417 123.782601,212.5707 125.281291,215.9227 C125.739336,216.9477 125.925166,218.0947 126.21948,219.1907 C126.36513,219.7357 126.285776,220.5527 126.630314,220.8007 C129.245991,222.6777 128.579013,225.5287 128.781919,228.0337 C128.955695,230.1877 128.562942,232.3827 128.520753,234.5627 C128.507695,235.2447 128.642296,236.0437 129.005919,236.5987 C130.633184,239.0847 131.914906,241.5977 132.386009,244.6557 C132.700413,246.6927 134.179013,248.5567 135.163408,250.4847 C135.492879,251.1297 136.076484,251.6897 136.251265,252.3627 C136.714332,254.1487 137.777076,255.0067 139.596197,255.3477 C140.407821,255.4987 141.172233,256.2807 141.804054,256.9237 C143.242475,258.3877 144.754224,259.4477 146.983175,259.2907 C149.686242,259.1017 152.424466,259.3047 155.105435,258.9857 C156.500664,258.8187 157.888861,258.0287 159.129399,257.2757 C160.794834,256.2647 162.315623,255.0187 163.895677,253.8697 C164.189991,253.6557 164.64904,253.4747 164.730404,253.1927 C165.357202,251.0067 167.4847,250.7107 168.956269,249.5557 C171.162117,247.8247 173.539731,247.8257 175.973596,247.7287 C176.83243,247.6947 177.741489,248.2737 178.584251,248.6637 C179.308484,248.9987 179.925238,249.6737 180.668556,249.8327 C182.43243,250.2127 183.329435,251.0977 183.890942,252.8817 C184.216395,253.9147 185.55939,254.7887 186.638206,255.3897 C187.973166,256.1327 189.216717,256.7807 189.398529,258.4787 C189.420628,258.6907 189.479892,258.9597 189.624538,259.0877 C193.377291,262.4307 194.695175,267.5267 198.243013,270.9757 C199.354978,272.0567 200.955121,272.6407 202.333274,273.4497 C203.587874,274.1857 204.778188,275.0887 206.119175,275.6007 C207.361722,276.0747 208.78809,276.0447 210.088897,276.3997 C210.811121,276.5967 211.442942,277.1247 212.115946,277.5037 C211.493166,278.0667 210.922619,279.0257 210.238565,279.1137 C208.531946,279.3327 206.681686,279.5067 205.420054,277.7967 C205.221166,277.5277 204.810332,277.2367 204.507982,277.2457 C199.873291,277.4017 197.683516,273.6837 194.891049,271.0807 C192.859982,269.1887 190.559713,267.3657 189.833471,264.3817 C189.720969,263.9147 188.755659,263.6537 188.184108,263.2967 C188.10174,263.8727 187.800395,264.5277 187.975175,265.0117 C188.895283,267.5567 190.034368,270.0257 190.907265,272.5837 C191.882619,275.4407 195.745865,278.1147 198.686996,278.4447 C200.779336,278.6797 202.770224,279.7877 204.816359,280.4787 C206.657578,281.0987 208.507839,281.6927 210.361112,282.2757 C212.081794,282.8167 213.794439,283.4067 215.550278,283.8027 C216.055534,283.9167 216.697399,283.4407 217.275982,283.2347 C217.037919,282.6697 216.887247,282.0467 216.545722,281.5527 C215.92696,280.6597 214.374027,279.9187 215.654744,278.6767 C216.925417,277.4447 218.236269,278.2417 219.313076,279.2777 C220.368789,280.2917 221.396377,281.3367 222.428987,282.3767 C223.57209,283.5297 223.694637,284.9907 222.820735,286.1457 C222.419946,286.6757 221.065901,286.5757 220.137758,286.6117 C217.603444,286.7077 215.066117,286.7317 212.529794,286.7717 C211.95322,286.7807 211.300305,286.9127 210.811121,286.6987 C207.406924,285.2037 204.036879,283.6287 200.651767,282.0887 C200.252987,281.9077 199.811013,281.6067 199.422278,281.6507 C196.33148,281.9987 194.211013,279.6807 191.553148,278.8577 C191.106152,278.7187 190.655139,278.3257 190.389955,277.9277 C189.247857,276.2137 187.659767,274.5787 187.191677,272.6817 C186.420233,269.5557 183.967283,266.8037 184.917525,263.2547 C185.074224,262.6737 184.998888,261.9097 184.742744,261.3637 C183.936143,259.6487 183.04617,257.9667 182.085883,256.3317 C181.090439,254.6357 180.220556,254.7207 178.514942,255.6817 C175.825937,257.1977 172.956126,258.3967 170.164664,259.7347 C169.709632,259.9527 169.239534,260.1547 168.820664,260.4297 C166.284341,262.1027 163.949919,264.2687 161.186583,265.3707 C156.728682,267.1477 152.161291,269.0247 147.088646,268.2057 C145.682368,267.9787 144.208789,268.1707 142.765345,268.1707 C142.538332,268.4537 142.312323,268.7367 142.085309,269.0187 L142.085309,269.0187 Z" id="Fill-1" fill="#231916" mask="url(#mask-2)"></path>
                    </g>
                    <path d="M146.923509,239.045 C145.685984,239.694 145.019006,240.323 144.640316,240.183 C143.987401,239.941 143.514289,239.221 142.96584,238.701 C143.444979,238.283 143.967311,237.486 144.393213,237.534 C145.066217,237.609 145.67393,238.253 146.923509,239.045" id="Fill-3" fill="#231916"></path>
                    <path d="M64.5651372,280.0196 C65.6821238,281.5086 66.5499982,282.4556 67.1115049,283.5556 C67.2631821,283.8526 66.4806888,284.6206 66.1281148,285.1716 C65.1276484,284.2276 64.066913,283.3346 63.1940161,282.2866 C63.0614242,282.1276 63.8047426,281.2476 64.5651372,280.0196" id="Fill-5" fill="#231916"></path>
                    <path d="M79.6686637,279.0978 C78.621991,279.4518 77.9720897,279.9088 77.4216323,279.8098 C76.381991,279.6218 75.3825291,279.1518 74.4192287,278.6908 C74.3217937,278.6448 74.5357489,277.4908 74.6844126,277.4718 C75.9108879,277.3198 77.1745291,277.1798 78.3879462,277.3348 C78.8027982,277.3878 79.1081614,278.2878 79.6686637,279.0978" id="Fill-7" fill="#231916"></path>
                    <path d="M101.022292,191.9591 C99.7938081,192.9391 99.0756018,193.9351 98.1826152,194.1281 C96.755243,194.4371 96.377557,193.3011 96.4890547,192.0441 C96.502113,191.8991 96.4850368,191.7531 96.4940771,191.6081 C96.5724269,190.2361 96.0571265,188.1781 98.136409,188.3451 C99.065557,188.4201 99.8410188,190.3991 101.022292,191.9591" id="Fill-9" fill="#231916"></path>
                    <path d="M100.872725,181.9737 C101.499523,183.0227 102.038931,183.5867 102.132348,184.2167 C102.183577,184.5647 101.316707,185.4267 101.152976,185.3597 C100.44381,185.0687 99.8411193,184.5207 99.1992538,184.0667 C99.6442404,183.5097 100.089227,182.9537 100.872725,181.9737" id="Fill-11" fill="#231916"></path>
                    <path d="M87.0262099,57.0821 C85.8439318,58.0491 84.7771695,59.4461 83.432165,59.8011 C82.7571516,59.9781 80.8787659,58.3411 80.7632502,57.3791 C80.4749632,54.9841 82.7852771,55.6811 84.0961291,55.5001 C84.969026,55.3801 85.9323265,55.9101 86.854443,56.1481 C86.9116987,56.4601 86.9689543,56.7701 87.0262099,57.0821" id="Fill-13" fill="#231916"></path>
                    <path d="M93.6039749,39.1876 C93.0575354,39.4876 92.1474726,40.4106 91.289643,40.3656 C89.8753291,40.2906 88.1375713,39.7256 88.1606744,37.9196 C88.1847821,35.9856 89.9396161,36.4196 91.1972305,36.3726 C92.6195803,36.3186 93.6732843,36.7406 93.6039749,39.1876" id="Fill-15" fill="#231916"></path>
                    <path d="M88.0704717,46.1065 C87.1352969,45.0475 86.5205525,44.3505 85.9048036,43.6545 C86.6270278,43.1275 87.4567318,42.0775 88.0443552,42.1985 C88.9574314,42.3865 89.7057722,43.3715 90.5244269,44.0185 C89.8564448,44.5865 89.1894673,45.1545 88.0704717,46.1065" id="Fill-17" fill="#231916"></path>
                    <path d="M83.0858188,53.2833 C82.464043,52.5643 81.7086709,51.9673 81.8061058,51.7513 C82.0913794,51.1163 82.7161686,50.6333 83.2093704,50.0903 C83.6372807,50.5643 84.3775857,51.0223 84.4037022,51.5193 C84.4298188,51.9903 83.7085991,52.5013 83.0858188,53.2833" id="Fill-19" fill="#231916"></path>
                </g>
            </g>
        </g>
    </g>
</svg>