<?xml version="1.0" encoding="UTF-8"?>
<svg width="268px" height="158px" viewBox="0 0 268 158" version="1.1" xmlns="http://www.w3.org/2000/svg" xmlns:xlink="http://www.w3.org/1999/xlink">
    <!-- Generator: Sketch 60 (88103) - https://sketch.com -->
    <title>figure1</title>
    <desc>Created with Sketch.</desc>
    <g id="页面-1" stroke="none" stroke-width="1" fill="none" fill-rule="evenodd">
        <g id="桌面端-HD" transform="translate(-371.000000, -81.000000)">
            <g id="figure1" transform="translate(505.000000, 159.500000) rotate(-3.000000) translate(-505.000000, -159.500000) translate(371.000000, 77.000000)">
                <g id="编组" transform="translate(0.916589, 0.877552)" fill="#231916">
                    <path d="M129.506656,99.2756 C129.239656,99.3666 128.973154,99.4576 128.706653,99.5491 C129.222222,101.2651 129.589347,103.0456 130.29072,104.6821 C131.156975,106.7026 132.438675,106.8186 133.428468,104.9486 C134.425733,103.0636 135.217268,101.0366 135.842925,98.9936 C136.656876,96.3361 137.266095,93.6111 137.873819,90.8951 C138.374444,88.6601 138.71716,86.3896 139.181421,84.1451 C139.541074,82.4056 140.06013,80.6961 140.351041,78.9471 C140.517916,77.9411 140.504964,76.8601 140.337591,75.8526 C140.031238,74.0076 139.732358,72.1256 139.101222,70.3786 C137.974442,67.2601 137.008559,64.1586 137.291001,60.7801 C137.319395,60.4446 136.851149,60.0911 136.694237,59.7121 C136.353015,58.8871 136.114408,58.0166 135.739313,57.2091 C135.398091,56.4746 134.932335,55.7986 134.521375,55.0966 C133.816515,55.7236 132.736559,56.2236 132.476533,56.9996 C131.700938,59.3181 131.237673,61.7421 130.669302,64.1286 C130.046634,66.7461 129.439906,69.3676 128.833677,71.9886 C128.321595,74.2026 127.513123,76.4011 127.379623,78.6386 C127.119099,83.0366 127.187841,87.4581 127.232673,91.8691 C127.243134,92.9041 127.644132,93.9531 127.966923,94.9631 C128.431184,96.4161 128.988597,97.8396 129.506656,99.2756 M201.145347,18.1896 C201.220565,17.8586 201.295285,17.5271 201.371001,17.1961 C205.062177,18.0421 208.886354,18.5286 212.40916,19.8331 C216.180535,21.2291 219.695371,23.3471 223.268987,25.2496 C224.791783,26.0606 226.348453,26.9446 227.599766,28.1096 C231.256571,31.5151 235.201794,34.5846 238.907914,37.8951 C242.295725,40.9211 244.752026,44.9971 247.616298,48.6121 C247.666112,48.6756 247.685539,48.7631 247.718914,48.8391 C250.24844,54.6346 252.926908,60.3716 255.221813,66.2591 C255.965029,68.1651 255.055436,70.8471 256.027296,72.5116 C258.65894,77.0196 254.74211,81.7461 256.953328,86.1356 C257.13963,86.5061 256.636515,87.2151 256.479104,87.7736 C256.276862,88.4906 255.979974,89.2061 255.931654,89.9356 C255.655688,94.1516 256.690313,98.3871 254.398397,102.5321 C252.672362,105.6526 252.185186,109.4376 250.759028,112.7596 C249.683556,115.2651 247.02302,117.0501 247.395126,120.2536 C247.426011,120.5161 247.12464,120.8551 246.912434,121.1021 C243.691498,124.8541 240.593102,128.7256 237.169923,132.2821 C235.61674,133.8956 233.370154,134.8186 231.513608,136.1606 C227.580339,139.0031 223.748192,141.9911 219.76511,144.7601 C218.22438,145.8316 216.460487,146.9001 214.666705,147.2131 C211.729207,147.7261 209.185733,150.0246 205.954335,149.1466 C205.702778,149.0781 205.362054,149.4266 205.044742,149.5016 C203.147349,149.9511 201.264401,150.5276 199.33961,150.7681 C197.386425,151.0131 194.817048,150.1546 193.530367,151.1281 C190.716406,153.2571 188.210791,150.4796 185.515386,151.4216 C184.023474,151.9426 182.040401,151.0291 180.276009,150.7831 C178.727309,150.5666 177.068024,150.6636 175.641367,150.1281 C170.258029,148.1051 164.642561,146.6976 159.654244,143.6066 C155.676143,141.1411 151.231291,139.5961 147.758298,136.1221 C142.947815,131.3121 138.178677,126.4766 134.555746,120.7281 C132.273793,117.1071 130.712141,113.0231 128.894449,109.1151 C128.173649,107.5646 127.450856,105.9736 127.050854,104.3221 C126.291697,101.1866 125.786589,97.9901 125.116599,94.8311 C125.01996,94.3776 124.542748,94.0186 124.326557,93.5746 C124.003766,92.9111 123.407001,92.1376 123.532033,91.5381 C124.567156,86.5786 122.055563,81.2041 125.308878,76.4836 C125.701906,75.9126 125.429427,74.8721 125.445865,74.0496 C125.489203,71.8971 124.965166,69.5386 125.666041,67.6326 C127.482238,62.6916 129.778638,57.9231 131.999321,53.1401 C133.073796,50.8256 131.990354,46.6811 129.825462,45.6126 C128.224957,44.8231 126.740018,45.9381 125.352714,49.2196 C124.583097,51.0396 124.297666,53.0961 123.365656,54.8116 C120.498395,60.0911 118.335496,65.5146 118.621425,71.6711 C118.647826,72.2356 118.595522,72.9536 118.27572,73.3586 C116.451552,75.6671 116.788789,78.3891 116.785302,81.0036 C116.782313,83.7301 116.393768,86.7181 117.350186,89.1196 C118.596518,92.2481 118.45455,95.2591 118.505858,98.3966 C118.524787,99.5656 118.889919,100.7586 119.263022,101.8856 C120.136251,104.5256 121.180341,107.1101 122.019697,109.7606 C122.654321,111.7636 122.740498,114.0066 123.669518,115.8366 C125.459813,119.3656 127.628192,122.7066 129.728824,126.0696 C130.997074,128.0991 132.143281,130.3346 133.84989,131.9346 C138.243434,136.0561 141.714932,141.1301 147.099765,144.2546 C152.182229,147.2031 156.374528,151.4961 162.559862,152.7721 C165.704085,153.4201 168.831373,154.9561 171.930266,156.0686 C176.264533,157.6246 180.389085,157.1506 184.625718,157.3926 C185.422235,157.4381 186.446897,157.4686 186.951009,157.9466 C189.028229,159.9151 191.391876,159.4816 193.476569,158.5256 C196.281563,157.2396 199.070119,157.2611 201.97474,157.5251 C202.624806,157.5841 203.334149,157.6321 203.939382,157.4406 C207.785477,156.2276 211.619617,154.9766 215.433334,153.6671 C216.517274,153.2951 217.496606,152.3176 218.56361,152.2491 C223.515065,151.9341 226.510347,148.0276 230.480975,145.9396 C232.340013,144.9621 234.177132,143.8086 235.727824,142.4061 C238.682259,139.7336 241.542048,136.9321 244.216531,133.9796 C246.303714,131.6756 248.055653,129.0651 249.947567,126.5836 C250.892029,125.3451 252.009843,124.1911 252.711216,122.8246 C254.611599,119.1226 256.417834,115.3661 258.091565,111.5561 C259.181981,109.0731 259.995434,106.4651 260.894567,103.8996 C261.623835,101.8181 262.802919,99.7391 262.897565,97.6191 C263.180007,91.3031 263.067429,84.9666 263.0216,78.6391 C263.003169,76.0666 263.075897,73.4276 262.540901,70.9411 C261.810636,67.5411 260.584229,64.2441 259.489828,60.9291 C258.351093,57.4771 257.405136,53.9191 255.849462,50.6606 C254.077599,46.9486 251.809095,43.4621 249.592397,39.9831 C248.367983,38.0606 246.937839,36.2291 245.361244,34.5881 C243.937576,33.1061 242.184143,31.9441 240.583638,30.6321 C236.306158,27.1266 232.429179,22.8771 227.655557,20.2981 C221.948931,17.2141 216.463475,13.0351 209.481126,12.9051 C209.244015,12.9006 208.949617,12.8206 208.783738,12.6661 C206.785722,10.8101 204.364789,11.1421 201.947841,11.1956 C200.736378,11.2221 199.412337,11.0861 198.317936,10.6106 C193.125384,8.3521 187.815272,9.7411 182.619731,10.1991 C178.706388,10.5441 174.867266,11.8731 171.028145,12.8906 C167.848056,13.7341 164.594242,14.4806 161.594975,15.7836 C158.222606,17.2476 155.140649,19.3696 151.857944,21.0601 C146.636001,23.7496 142.163751,27.3736 138.368964,31.8216 C137.879298,32.3956 137.683531,33.9156 138.080544,34.4251 C139.130612,35.7706 140.55677,36.8326 141.909703,37.9111 C142.043203,38.0166 143.017554,37.5091 143.073843,37.1916 C143.620296,34.1151 146.453684,33.2996 148.43327,31.7021 C150.665908,29.9001 152.938895,28.0181 155.48486,26.7676 C161.042544,24.0371 166.730242,21.5491 172.477218,19.2456 C174.712845,18.3496 177.237888,18.1126 179.658821,17.7686 C182.012007,17.4346 184.623227,17.8886 186.71838,17.0171 C189.329102,15.9316 191.618029,16.0216 194.16499,16.7091 C196.458401,17.3276 198.816569,17.7056 201.145347,18.1896 M74.9938243,145.5061 C69.4834623,145.4496 63.9198,146.0441 58.6515313,143.6106 C56.5145351,142.6231 54.1374381,142.1691 51.9705537,141.2366 C49.9316899,140.3591 48.0781321,139.0551 46.0517216,138.1426 C41.1002664,135.9136 36.5767086,133.0961 32.7674754,129.1691 C30.2797925,126.6041 27.7208765,124.1091 25.2043019,121.5721 C24.8576004,121.2226 24.5183709,120.8436 24.2658168,120.4236 C21.9385332,116.5446 19.605272,112.6686 17.3253112,108.7616 C15.6157142,105.8311 12.7524381,103.3401 13.671994,99.3616 C13.7367515,99.0821 13.5449698,98.7141 13.4034996,98.4206 C11.3835649,94.2296 9.69688209,89.9436 10.1780799,85.1576 C10.7763392,79.2106 8.69114888,73.0056 11.873231,67.3076 C11.1504381,63.2816 12.6876806,59.5966 13.6032515,55.8186 C13.7367515,55.2671 13.8438504,54.6841 14.1068653,54.1941 C15.1678914,52.2211 16.4281713,50.3446 17.3537049,48.3121 C19.5813616,43.4211 22.2095183,38.9266 26.4820164,35.4306 C28.4092981,33.8536 29.6626041,31.4516 31.2486638,29.4451 C31.653647,28.9326 32.0999754,28.4141 32.628994,28.0456 C37.2890407,24.7981 41.9680164,21.5776 46.6544642,18.3691 C47.0519754,18.0966 47.5346675,17.9331 47.9964381,17.7751 C51.5959567,16.5451 55.1860108,15.2836 58.8089418,14.1276 C60.5160481,13.5831 62.2704772,13.0286 64.038356,12.8731 C66.7516937,12.6351 69.6817198,13.3181 72.1659157,12.5121 C74.1504828,11.8676 75.5422701,10.6456 77.2827515,12.7241 C77.5562272,13.0511 78.5275892,12.8011 79.1756619,12.7981 C83.5707011,12.7771 88.1067123,12.0581 92.3199325,12.9246 C96.3822179,13.7596 100.376259,15.5141 104.315505,16.9416 C108.65824,18.5156 112.295119,22.0786 116.196009,24.8376 C117.324781,25.6361 118.318559,26.6316 119.347705,27.5656 C121.956932,29.9326 124.796796,32.1026 127.083233,34.7526 C129.423468,37.4646 131.228209,40.6441 133.236686,43.6401 C133.597834,44.1786 133.84989,44.8016 134.086005,45.4116 C134.742048,47.1056 135.310918,48.8356 136.008804,50.5116 C137.363729,53.7641 139.409069,56.6781 139.580925,60.4666 C139.701972,63.1316 140.449671,65.8841 141.471843,68.3676 C143.567494,73.4581 143.693024,78.7736 142.269854,83.7446 C140.994132,88.2051 141.954037,93.0046 139.477313,97.2491 C137.713918,100.2711 136.870078,103.8231 135.235699,106.9371 C134.4611,108.4136 132.70169,109.2936 133.642168,111.4501 C134.326106,113.0196 134.409294,114.8841 135.225238,116.3576 C136.262354,118.2296 138.080544,118.0616 139.055891,116.1961 C140.558763,113.3216 142.195632,110.4936 143.401117,107.4941 C144.523414,104.7016 145.298511,101.7431 145.970992,98.7986 C146.917946,94.6521 148.154813,90.5361 147.864899,86.1816 C147.827041,85.6151 148.592673,85.0341 148.697281,84.4111 C148.979724,82.7256 149.892306,80.4331 149.149089,79.4201 C146.813835,76.2356 147.482332,72.8471 147.813093,69.5721 C148.266395,65.0916 146.63102,61.1241 145.572983,57.0001 C145.06638,55.0266 144.467125,53.0501 143.651181,51.1886 C142.394886,48.3251 142.32166,44.8591 139.454897,42.7651 C139.121645,42.5216 139.245182,41.6666 139.128121,41.1011 C138.995119,40.4586 139.018531,39.6706 138.648418,39.2081 C135.6093,35.4141 132.544279,31.6386 129.38013,27.9496 C127.979875,26.3166 126.284225,24.9426 124.806759,23.3711 C119.245089,17.4556 112.641821,13.2681 104.844026,10.9736 C104.012141,10.7286 103.143893,10.1856 102.579009,9.5316 C101.042763,7.7511 99.1344101,7.4771 96.9545743,7.5586 C95.6868224,7.6056 94.3881862,7.2811 93.130397,7.0001 C91.5657571,6.6516 90.0499343,5.9486 88.4758299,5.8046 C85.5572608,5.5366 82.7522664,5.7001 79.7794007,4.5516 C77.1816302,3.5471 73.8371563,4.3306 70.843369,4.5796 C69.1995257,4.7166 67.6159567,5.4686 65.9751022,5.7881 C62.0712235,6.5486 58.0632347,6.9156 54.2624698,8.0166 C51.1884828,8.9071 48.6350463,10.9786 45.2527142,11.6596 C39.8399866,12.7481 35.384175,16.4601 31.5923765,20.1986 C27.5036899,24.2286 22.1796302,27.0456 19.2854698,32.2861 C19.2471134,32.3556 19.1559549,32.3936 19.1091302,32.4606 C17.3661582,34.9391 15.5997739,37.4021 13.8931657,39.9056 C12.7868093,41.5291 11.3163168,43.0811 10.7917813,44.8931 C8.92626828,51.3401 5.5484194,57.1891 4.81964888,64.1856 C4.39125336,68.3036 3.71628134,72.4766 3.4632291,76.6796 C3.02835784,83.9096 4.30906119,90.9856 5.17730933,98.1006 C5.24555373,98.6611 5.57332612,99.1856 5.75066194,99.7366 C6.15016567,100.9791 6.45153694,102.2611 6.93522537,103.4691 C8.43560597,107.2151 9.93847724,110.9626 11.5838149,114.6446 C12.0376153,115.6601 13.6724922,116.5106 13.597772,117.3291 C13.3233,120.3511 15.414966,121.7846 17.094675,123.5116 C21.4573354,127.9976 25.7756619,132.5351 30.3022086,136.8501 C32.6429418,139.0821 35.2646228,141.0821 37.9884213,142.8261 C40.6235519,144.5131 43.4713858,145.9411 46.3760071,147.1061 C49.3702925,148.3071 52.5170071,149.1661 55.6497739,149.9691 C59.2159175,150.8831 62.8069679,151.9356 66.4468354,152.2691 C71.9646694,152.7746 77.5382944,152.9281 83.0790425,152.8076 C86.3333541,152.7371 89.6549138,152.1461 92.7916657,151.2471 C96.3702627,150.2226 99.8118728,148.6766 103.247505,147.2026 C105.922985,146.0551 108.498837,144.6721 111.117529,143.3906 C112.138705,142.8911 113.134475,142.3316 114.181554,141.8956 C115.015431,141.5491 116.085423,141.5726 116.746946,141.0466 C120.096899,138.3831 123.341746,135.5866 126.636904,132.8526 C127.838903,131.8556 128.681746,130.5626 127.749737,129.1751 C126.691699,127.6001 125.387085,125.9606 123.788572,125.1086 C123.228171,124.8101 121.408985,126.6911 120.293164,127.7176 C119.590794,128.3641 119.246085,129.4061 118.535248,130.0371 C116.623408,131.7346 114.608455,133.3161 112.619404,134.9241 C111.919526,135.4896 111.242561,136.1571 110.438572,136.5041 C108.026108,137.5451 105.559845,138.4611 103.107031,139.4061 C100.605899,140.3696 98.1331601,141.4316 95.5782291,142.2226 C93.5851937,142.8391 91.1951451,142.6226 89.5004922,143.6441 C86.9933821,145.1566 84.5296097,145.6961 81.7146526,145.5321 C79.4815164,145.4021 77.2344325,145.5061 74.9938243,145.5061 M76.2451377,141.9536 C80.7432907,141.7446 85.1174082,141.6436 89.6648765,140.4741 C94.8305295,139.1461 99.4213354,136.6751 104.382255,135.0421 C106.75188,134.2626 108.852513,132.5876 110.989011,131.1871 C113.185783,129.7471 115.291895,128.1661 117.411955,126.6121 C119.096645,125.3766 120.787811,124.1416 122.370882,122.7836 C122.728044,122.4766 122.923313,121.5306 122.724059,121.0956 C121.637628,118.7241 120.351446,116.4461 119.248078,114.0826 C118.812709,113.1501 118.6015,112.0916 118.419681,111.0666 C118.277214,110.2641 118.496891,109.3796 118.279705,108.6106 C117.060272,104.2926 114.276697,100.3871 115.009951,95.5431 C115.103102,94.9271 114.413186,94.2111 114.15316,93.5156 C113.865737,92.7486 113.460255,91.9566 113.442821,91.1681 C113.280429,83.5986 113.379557,76.0531 115.34669,68.6521 C117.200746,61.6746 119.4025,54.8436 122.821196,48.4501 C123.787576,46.6416 124.294179,44.5331 125.482229,42.9091 C127.452849,40.2156 127.550483,39.6986 125.088205,37.3066 C121.10861,33.4411 116.931255,29.8171 112.731983,26.1921 C105.627591,20.0591 97.0606769,18.4881 88.6182963,16.1731 C88.0887795,16.0281 87.4626246,16.2846 86.8877776,16.2496 C85.8182832,16.1856 84.6760612,16.2586 83.6987216,15.9016 C76.0722851,13.1186 68.6695108,16.0211 61.1840463,16.7066 C60.793509,16.7431 60.4368448,17.0626 60.0468056,17.1986 C57.5566321,18.0666 55.0435444,18.8711 52.5737944,19.7931 C50.3610817,20.6196 47.9057776,21.1791 46.0671638,22.5461 C42.1114791,25.4891 38.4980127,28.8931 34.7121918,32.0696 C33.5794343,33.0201 32.1677216,33.6846 31.1878914,34.7596 C29.5978466,36.5021 28.2613522,38.4771 26.8127776,40.3501 C25.0020593,42.6911 22.7320612,44.8136 21.5026657,47.4291 C20.3300575,49.9236 20.0730201,52.8171 17.5519623,54.5941 C17.2246881,54.8251 17.3487235,55.6816 17.2341526,56.2426 C17.0702664,57.0401 16.9098672,57.8416 16.694175,58.6266 C15.7397496,62.0986 14.3315239,65.5136 13.9106004,69.0481 C13.4020052,73.3231 14.1776004,77.7626 13.5743597,82.0136 C12.7534343,87.7966 16.0306601,92.9511 15.4488392,98.6066 C15.4124754,98.9591 15.7551918,99.3656 15.9579325,99.7261 C18.4286787,104.1311 20.8516041,108.5636 23.3960743,112.9251 C26.3764119,118.0336 30.3848989,122.2381 34.7923914,126.1606 C38.9548019,129.8646 42.6758653,133.9021 48.5807496,135.0991 C51.7991955,135.7516 54.6589847,138.0351 57.8589996,138.9631 C62.5603914,140.3276 67.1397403,142.5001 72.2620556,141.9791 C73.576134,141.8456 74.9156172,141.9586 76.2451377,141.9536 M189.809304,147.3251 L189.809304,147.2901 C193.95677,147.2901 198.104237,147.3196 202.250707,147.2661 C203.133899,147.2551 204.021076,146.9751 204.891815,146.7596 C206.377251,146.3916 207.853722,145.9856 209.329196,145.5791 C210.645266,145.2176 212.067938,145.0466 213.243535,144.4151 C215.553384,143.1741 217.782535,141.7561 219.940951,140.2606 C224.878957,136.8386 230.175121,133.7796 234.525826,129.7106 C238.19608,126.2786 240.723613,121.6201 243.785147,117.5256 C248.070099,111.7966 250.226522,105.0801 252.598638,98.4646 C252.763022,98.0081 252.842225,97.4566 252.759535,96.9851 C251.727899,91.1056 254.289804,85.2446 252.778962,79.3321 C252.380953,77.7736 253.00661,75.9711 252.717692,74.3606 C252.289296,71.9721 250.828766,69.6241 250.938854,67.3136 C251.17746,62.3266 247.983921,58.5976 246.662371,54.2301 C245.308442,49.7536 242.163222,45.6661 238.428709,42.3981 C233.134039,37.7651 228.322559,32.3826 222.46699,28.6411 C215.910546,24.4521 208.825084,20.4441 200.367261,21.4561 C199.901007,21.5121 199.400382,21.2631 198.914203,21.1631 C196.429011,20.6541 193.948302,19.7626 191.457132,19.7316 C187.876543,19.6876 184.260585,19.2921 180.736285,21.0911 C178.4095,22.2786 175.542238,22.4086 172.910097,22.9796 C171.562145,23.2721 170.205725,23.5366 168.841834,23.7376 C165.628369,24.2101 163.2438,26.3201 160.490113,27.7391 C154.64899,30.7496 149.346849,34.3421 144.662393,38.9626 C143.068363,40.5351 142.924901,41.9256 144.124906,43.5356 C145.520181,45.4081 146.481082,47.3311 146.07311,49.7616 C145.99839,50.2046 146.287806,50.7131 146.422302,51.1876 C146.879091,52.7991 147.34136,54.4091 147.803628,56.0186 C148.077104,56.9696 148.190679,58.0126 148.660918,58.8526 C150.610117,62.3321 151.726934,65.8991 151.321951,70.0126 C151.112735,72.1336 151.940634,74.3391 152.11249,76.5211 C152.289826,78.7781 152.373513,81.0606 152.242005,83.3166 C152.153337,84.8226 151.551591,86.2906 151.301029,87.7961 C151.139136,88.7671 151.373259,89.8231 151.125686,90.7596 C150.091061,94.6731 148.26789,98.5136 148.021313,102.4616 C147.768261,106.5066 145.572983,109.4601 144.133375,112.8201 C143.087293,115.2626 141.187906,117.3241 139.863367,119.6661 C139.456391,120.3866 139.307947,121.7206 139.706953,122.3446 C140.852662,124.1366 142.432246,125.6416 143.673597,127.3811 C146.771494,131.7206 151.288078,134.2356 155.530688,137.1821 C158.536929,139.2701 161.313031,141.3826 164.848789,142.8046 C169.996011,144.8736 174.856307,147.4526 180.594815,147.3361 C183.665315,147.2741 186.737807,147.3251 189.809304,147.3251 M0.0275966418,78.7836 C0.0275966418,75.7936 -0.0526029851,73.5416 0.0609716418,71.2996 C0.118755224,70.1676 0.490861567,69.0436 0.788247761,67.9341 C1.06521045,66.8991 1.69784104,65.8921 1.71178881,64.8666 C1.76807799,60.6346 3.05276642,56.7761 4.77531493,52.9826 C6.85452761,48.4041 8.6333653,43.6816 10.842591,39.1691 C14.009231,32.7006 18.4281806,27.1646 23.918119,22.4671 C28.7644679,18.3201 33.8439437,14.5796 39.1789623,11.0451 C43.5117347,8.1746 48.4128784,6.8796 52.8547422,4.4156 C56.0911209,2.6201 60.4687254,2.8841 64.3447086,2.2751 C65.3145761,2.1226 66.4657646,2.4496 67.2712478,2.0381 C72.281981,-0.5209 77.3579698,0.2491 82.5036974,1.3916 C84.104203,1.7471 85.7864026,1.7176 87.4103205,1.9911 C90.9077216,2.5796 94.4250481,3.1116 97.869647,3.9381 C100.061936,4.4641 102.217363,5.3136 104.251246,6.3051 C109.834834,9.0246 115.427886,11.7471 120.84161,14.7841 C122.883462,15.9296 124.578115,17.8171 126.192071,19.5861 C128.954724,22.6146 132.715638,24.7386 134.420253,28.7781 C134.612035,29.2326 136.149776,29.3616 136.988634,29.2131 C137.612796,29.1026 138.172201,28.3501 138.664856,27.7986 C142.570727,23.4251 147.471373,20.4266 152.283849,17.1766 C158.279891,13.1266 165.201966,11.8596 171.604487,9.1196 C176.018953,7.2301 180.396059,8.0801 184.781634,7.6206 C186.139548,7.4781 187.456615,6.9736 188.812039,6.7651 C191.391378,6.3681 193.881552,5.7616 196.593893,6.7556 C198.682072,7.5211 201.10699,7.3241 203.363041,7.6801 C205.027307,7.9426 206.664675,8.3901 208.304035,8.7941 C208.696067,8.8901 209.032806,9.2276 209.425335,9.3081 C216.993988,10.8616 223.525028,14.9596 230.508871,17.9466 C230.658809,18.0106 230.793306,18.1186 230.925809,18.2181 C237.538044,23.1881 244.311177,28.0766 249.420541,34.6341 C253.054431,39.2986 256.01833,44.5386 258.880112,49.7446 C261.08336,53.7521 262.661449,58.1051 264.517498,62.3046 C264.551371,62.3801 264.604173,62.4526 264.616626,62.5321 C265.212395,66.3286 266.112026,70.1086 266.324231,73.9276 C266.633074,79.4936 266.448765,85.0871 266.470184,90.6696 C266.471679,91.1676 266.627097,91.7971 266.389985,92.1441 C264.454235,94.9751 265.421612,98.2746 264.795457,101.2911 C264.116998,104.5626 262.917988,107.7256 261.943638,110.9351 C261.703537,111.7266 261.543138,112.5581 261.188964,113.2961 C260.564304,114.5956 259.844998,115.8516 259.114733,117.0961 C258.70427,117.7936 257.834029,118.4061 257.78571,119.0996 C257.521201,122.8926 255.046968,125.4991 253.315951,128.5836 C249.716931,134.9966 244.094987,139.5176 238.837179,144.1431 C235.894699,146.7321 232.929306,149.7121 229.475242,151.6681 C225.406481,153.9731 221.013434,156.5036 216.53172,157.0541 C211.660464,157.6516 207.984731,160.9116 203.273875,161.3761 C201.236505,161.5771 199.217069,162.0116 197.208591,162.4311 C195.4975,162.7876 193.811813,163.2696 192.118654,163.7101 C191.882041,163.7716 191.615041,164.0521 191.447169,163.9916 C189.514408,163.2976 187.549766,163.2866 185.513891,163.3201 C183.971668,163.3451 182.422968,162.6721 180.869287,162.3476 C177.568649,161.6566 174.16938,161.2801 170.983811,160.2406 C167.075449,158.9656 163.243302,157.3476 159.561591,155.5076 C155.240276,153.3481 150.854701,151.1511 146.973737,148.3126 C142.190153,144.8141 137.877804,140.6616 133.407048,136.7391 C132.231949,135.7081 131.301932,133.6981 130.119362,133.5826 C129.085733,133.4821 127.800048,135.3571 126.721587,136.4546 C121.247091,142.0296 114.685666,145.9641 107.667949,149.1941 C103.942403,150.9091 100.207391,152.6296 96.3722552,154.0651 C94.1072384,154.9131 91.6623951,155.4206 89.2544138,155.7121 C83.7266172,156.3806 78.1724194,156.8276 72.6266899,157.3471 C72.2222049,157.3846 71.6782422,157.4356 71.4117403,157.2181 C68.6436078,154.9566 65.4047384,155.9716 62.3307515,155.7901 C61.2811825,155.7281 60.2520369,155.3441 59.2104381,155.1211 C57.537703,154.7636 55.8350799,154.5151 54.1957198,154.0431 C51.7030556,153.3271 49.1311881,152.7131 46.8163578,151.5911 C44.0093709,150.2301 41.5441041,148.1601 38.7376153,146.7971 C32.3106862,143.6756 27.2003261,138.9466 22.2164922,133.9796 C18.5651675,130.3406 15.9429884,125.9866 12.9546806,121.8556 C9.19874776,116.6631 7.33921231,110.6276 4.04554813,105.2961 C3.64006679,104.6396 3.60768806,103.7281 3.48913209,102.9221 C3.40594366,102.3531 3.68041567,101.6441 3.43383918,101.1996 C1.10456306,97.0026 1.3924847,92.2346 0.55213209,87.7331 C-0.0371608209,84.5801 0.150635821,81.2811 0.0275966418,78.7836" id="Fill-1"></path>
                </g>
                <path d="M75.6372249,145.568056 C77.8774335,145.568056 80.1231193,145.46461 82.355361,145.593917 C85.1691905,145.757042 87.6319759,145.220419 90.1385796,143.715986 C91.8320558,142.699933 94.2211469,142.915278 96.213384,142.302066 C98.7672915,141.515285 101.239538,140.459445 103.739668,139.500586 C106.191001,138.560626 108.656276,137.649511 111.067774,136.614062 C111.871939,136.268913 112.548135,135.604973 113.247733,135.042488 C115.235987,133.443064 117.250133,131.869998 119.161206,130.182048 C119.871759,129.553915 120.21633,128.517472 120.918418,127.87442 C122.033792,126.853394 123.85225,124.982425 124.412427,125.279334 C126.010797,126.12679 127.314391,127.757547 128.372004,129.324147 C129.30364,130.704248 128.461134,131.990352 127.259618,132.982036 C123.965779,135.701455 120.722232,138.483042 117.373621,141.132338 C116.712363,141.655533 115.642799,141.632158 114.809256,141.97681 C113.762598,142.410485 112.767226,142.967499 111.746958,143.464335 C109.128816,144.738503 106.553996,146.114128 103.879588,147.256006 C100.445332,148.721648 97.0051003,150.259403 93.4279368,151.278439 C90.2924415,152.172645 86.9722123,152.760493 83.7192044,152.831115 C78.1806757,152.950475 72.6092834,152.797793 67.0936598,152.294989 C63.4552503,151.963268 59.8656385,150.916381 56.3009234,150.007255 C53.1694115,149.208537 50.0244554,148.354616 47.0308715,147.159523 C44.1274137,146.000736 41.2807206,144.580351 38.6466456,142.902348 C35.9239381,141.167648 33.3033074,139.178314 30.9635118,136.958217 C26.4387784,132.666229 22.1221818,128.152927 17.7612689,123.69085 C16.0822328,121.97306 13.9914047,120.547205 14.2662647,117.541321 C14.340457,116.727186 12.706235,115.881221 12.2531143,114.871137 C10.6079378,111.208773 9.10566856,107.481258 7.60638693,103.755235 C7.12239432,102.553677 6.82114377,101.278514 6.42180007,100.04264 C6.24453529,99.4945784 5.9168942,98.9728755 5.84867714,98.4153646 C4.98127474,91.3383082 3.70058647,84.3000439 4.13528354,77.1086008 C4.38823441,72.928015 5.06293604,68.7772692 5.49115996,64.6812301 C6.21963855,57.7220417 9.59613433,51.9042339 11.4609001,45.4916151 C11.9852254,43.6892784 13.4551289,42.145555 14.5610421,40.530713 C16.2669666,38.0405639 18.0326434,35.5906989 19.7749172,33.1254165 C19.8217231,33.0587738 19.9128451,33.0209764 19.9511861,32.9518471 C22.8441872,27.7392942 28.1666121,24.9373169 32.2531629,20.9288085 C36.0434425,17.2102456 40.4974692,13.5180414 45.9080285,12.4353462 C49.2890057,11.7579779 51.8414194,9.69752504 54.914175,8.81177399 C58.7134174,7.71664551 62.7198007,7.35160269 66.6221156,6.59515836 C68.2623128,6.27736223 69.8452474,5.52937257 71.4884322,5.39310318 C74.4810203,5.14543107 77.8241544,4.3661094 80.4208843,5.3652525 C83.3925591,6.50762766 86.1969278,6.34549692 89.1138298,6.61157037 C90.6873037,6.75480243 92.2025193,7.4540534 93.7665325,7.80069488 C95.0238178,8.08019634 96.3224317,8.40296581 97.5891778,8.35621646 C99.7681404,8.27515109 101.675729,8.54768987 103.211359,10.3186946 C103.776017,10.9692069 104.643918,11.5093112 105.475469,11.7530046 C113.27014,14.0352682 119.870764,18.2004367 125.430205,24.0843899 C126.90708,25.6475092 128.60205,27.0141818 130.001745,28.6384732 C133.164626,32.3078001 136.228917,36.0631657 139.266319,39.8369327 C139.636285,40.2969662 139.612882,41.0807639 139.74583,41.7198375 C139.862845,42.2823218 139.739357,43.1327621 140.072476,43.3749636 C142.93809,45.4577965 143.011287,48.9053126 144.267078,51.7535418 C145.082696,53.6051146 145.681711,55.5710742 146.188111,57.5340497 C147.245724,61.6360568 148.880444,65.5823985 148.427323,70.0390044 C148.096695,73.2965391 147.428466,76.6669686 149.762785,79.834486 C150.505703,80.8420837 149.593487,83.122358 149.311158,84.7993668 C149.206591,85.418547 148.441266,85.9964486 148.479109,86.5599275 C148.768907,90.8912054 147.532535,94.9852552 146.585961,99.1096423 C145.913749,102.03844 145.138962,104.981162 144.017115,107.759267 C142.812113,110.742274 141.175899,113.555192 139.67363,116.414363 C138.698674,118.269915 136.881212,118.437019 135.844511,116.575002 C135.028894,115.10936 134.945739,113.254803 134.262075,111.693673 C133.321974,109.548673 135.080679,108.673366 135.855466,107.20474 C137.488692,104.107347 138.332194,100.57429 140.094883,97.5684056 C142.570615,93.3465411 141.611094,88.5726364 142.886305,84.1364211 C144.308905,79.1914337 144.183425,73.9042807 142.088614,68.8409279 C141.066851,66.3706721 140.319451,63.632851 140.198453,60.9820632 C140.026666,57.2137669 137.982145,54.3153069 136.627763,51.0801522 C135.930156,49.4130902 135.361515,47.6923161 134.705735,46.0078474 C134.469714,45.4006031 134.217759,44.7809255 133.856756,44.2452973 C131.849083,41.2652747 130.045065,38.1027306 127.705767,35.4051935 C125.420247,32.7693257 122.581521,30.6113954 119.973836,28.256521 C118.944605,27.327502 117.951225,26.3373109 116.822905,25.5430692 C112.923577,22.79928 109.288156,19.2552812 104.94716,17.6891778 C101.00999,16.2692905 97.0170507,14.5241471 92.9563926,13.6936001 C88.7448601,12.8317211 84.210666,13.5468867 79.8178853,13.5677747 C79.1695742,13.5707587 78.1990993,13.8194255 77.9252352,13.4946667 C76.1854511,11.4267538 74.7942213,12.642237 72.8104491,13.2832999 C70.3272483,14.0850016 67.3983959,13.405644 64.6861451,13.6423747 C62.9189746,13.7970455 61.1652483,14.3485884 59.4588258,14.8901846 C55.8373461,16.0400198 52.2487301,17.2947923 48.6506533,18.5182328 C48.1890678,18.6753902 47.706569,18.8380183 47.309217,19.1090651 C42.6246466,22.3004545 37.9475451,25.5037799 33.2893652,28.7339612 C32.7605585,29.1004961 32.3144089,29.6167283 31.9095879,30.1259978 C30.3241636,32.1217974 29.0713596,34.5109877 27.14485,36.0795777 C22.8740633,39.5569339 20.2469594,44.0274652 18.020195,48.8923819 C17.0950322,50.9140428 15.8352572,52.7805356 14.775154,54.7430138 C14.5117465,55.2304007 14.4046905,55.8102916 14.271244,56.3588505 C13.3560399,60.1167028 11.8194131,63.782051 12.5419165,67.7870781 C9.36110911,73.4541939 11.4454641,79.6261032 10.8474444,85.5413884 C10.3664394,90.3018651 12.0524466,94.5650083 14.0715722,98.7336581 C14.2129857,99.0255929 14.4046905,99.3916304 14.339959,99.6696398 C13.4207714,103.626923 16.2829006,106.104639 17.9918127,109.019511 C20.2708602,112.905675 22.6031868,116.761005 24.930036,120.619318 C25.181991,121.037078 25.5210846,121.414057 25.8676472,121.761693 C28.3832138,124.285164 30.9411048,126.766858 33.4277911,129.318179 C37.2354984,133.224237 41.7572442,136.026712 46.7067159,138.243824 C48.7323146,139.151458 50.58513,140.448504 52.623177,141.321324 C54.7891933,142.248852 57.1653381,142.70043 59.3014784,143.682664 C64.5676367,146.103187 70.1290703,145.511857 75.6372249,145.568056" id="Fill-7" fill="#FEFEFE"></path>
                <path d="M195.151521,17.190172 C192.611141,16.502569 190.328128,16.4120555 187.724151,17.4982181 C185.634909,18.3693486 183.030436,17.9157807 180.682832,18.2498307 C178.268652,18.5938822 175.750133,18.8309177 173.519786,19.7270519 C167.78766,22.0308969 162.114658,24.5192696 156.57183,27.2501785 C154.032444,28.5008658 151.764833,30.3831477 149.538461,32.1849175 C147.56399,33.7831569 144.737923,34.598779 144.192882,37.6757398 C144.136738,37.9932874 143.164905,38.5008634 143.03175,38.3948475 C141.681816,37.316686 140.259839,36.254527 139.211988,34.9088254 C138.816001,34.3992491 139.011262,32.8790215 139.50016,32.3049355 C143.285142,27.8562693 147.745339,24.2317265 152.954286,21.5418237 C156.228509,19.8505704 159.302503,17.7287527 162.666158,16.2645334 C165.657676,14.9613382 168.902585,14.2147264 172.074954,13.3711001 C175.903659,12.3534477 179.732861,11.0242486 183.636589,10.679197 C188.818209,10.2211284 194.1146,8.83192033 199.293736,11.0907586 C200.385806,11.5663298 201.706426,11.7018501 202.914262,11.6758462 C205.325461,11.6223382 207.739642,11.2902885 209.732993,13.1465665 C209.898443,13.3010896 210.19208,13.3811016 210.428082,13.3856023 C217.392887,13.5151217 222.864168,17.6952476 228.55605,20.7797096 C233.317337,23.3590958 237.184299,27.6092323 241.450726,31.1152573 C243.047096,32.4274539 244.795502,33.5896279 246.215988,35.0718499 C247.788509,36.7130956 249.214958,38.54487 250.436208,40.4676579 C252.647178,43.947179 254.909821,47.4342012 256.676609,51.1462571 C258.228263,54.4057452 259.172273,57.9642781 260.308066,61.4167951 C261.399142,64.7317916 262.62238,68.0297854 263.351255,71.4302947 C263.884372,73.9171671 263.812329,76.5565624 263.830713,79.1289476 C263.876423,85.4578954 263.988213,91.7953444 263.706998,98.1117903 C263.6121,100.232608 262.436062,102.311919 261.708678,104.393731 C260.812366,106.959615 260.001014,109.568006 258.912919,112.050878 C257.244009,115.861948 255.442441,119.619011 253.546969,123.321566 C252.846911,124.68827 251.731986,125.842443 250.79046,127.081129 C248.903435,129.563 247.155526,132.173891 245.074233,134.478236 C242.40666,137.431179 239.553763,140.233098 236.607459,142.905998 C235.060774,144.308709 233.227905,145.462381 231.374168,146.440028 C227.413798,148.52834 224.425759,152.435426 219.487595,152.750473 C218.422851,152.818983 217.446049,153.796629 216.365407,154.168685 C212.561047,155.478381 208.736814,156.729569 204.900657,157.94275 C204.297484,158.134279 203.589974,158.086272 202.941091,158.027263 C200.044472,157.763223 197.262624,157.74172 194.464878,159.027913 C192.386069,159.984056 190.028529,160.417621 187.956676,158.448826 C187.45337,157.970754 186.431852,157.94025 185.637393,157.894743 C181.411211,157.652707 177.297812,158.126778 172.974745,156.570545 C169.883858,155.457878 166.764651,153.921648 163.628551,153.273551 C157.458703,151.99736 153.277733,147.703717 148.208401,144.754775 C142.836986,141.629807 139.374954,136.554547 134.992265,132.43293 C133.290563,130.83269 132.146821,128.596856 130.882344,126.567052 C128.78714,123.203548 126.624364,119.862048 124.838198,116.332519 C123.912075,114.502245 123.825623,112.258409 123.19264,110.255609 C122.355452,107.604712 121.314557,105.019825 120.443087,102.379429 C120.071446,101.252261 119.70676,100.059082 119.68788,98.8899069 C119.637201,95.7519369 119.778306,92.740486 118.535194,89.6110173 C117.581247,87.2096577 117.968788,84.2212102 117.972266,81.4943018 C117.975744,78.8789101 117.639378,76.1570025 119.458833,73.8481568 C119.777809,73.4430961 119.829481,72.7249886 119.803645,72.160404 C119.517958,66.0024818 121.675765,60.5786696 124.535618,55.2983789 C125.465219,53.5826219 125.749913,51.5258139 126.517542,49.7055413 C127.900764,46.4235498 129.382363,45.3083828 130.978733,46.0980011 C133.138031,47.166161 134.218674,51.3112818 133.146477,53.6261284 C130.932029,58.4103449 128.641563,63.1795591 126.830058,68.1212991 C126.130994,70.0275846 126.653181,72.3864379 126.610452,74.5392603 C126.594056,75.3618834 126.865335,76.4025393 126.473322,76.9736248 C123.22891,81.6948318 125.734013,87.0701368 124.701068,92.0303796 C124.576359,92.6299694 125.172079,93.4035853 125.494036,94.0671846 C125.709668,94.5112511 126.185648,94.8703049 126.281539,95.3238728 C126.950295,98.483346 127.453602,101.680325 128.210797,104.816294 C128.609765,106.467542 129.330691,108.05928 130.050125,109.610012 C131.863121,113.518598 133.420737,117.603209 135.696794,121.224752 C139.310364,126.974113 144.067179,131.810337 148.864736,136.621057 C152.329252,140.095077 156.76262,141.640809 160.730442,144.106678 C165.70587,147.198141 171.306332,148.605852 176.676256,150.629155 C178.09873,151.164735 179.753728,151.067721 181.298426,151.284253 C183.058259,151.53029 185.036705,152.443927 186.524265,151.922849 C189.212706,150.980708 191.711847,153.758624 194.519034,151.629305 C195.80239,150.655659 198.364632,151.513787 200.313266,151.269251 C202.232587,151.028715 204.111167,150.451628 206.003161,150.002561 C206.320149,149.92755 206.659496,149.578998 206.910404,149.647508 C210.133949,150.52564 212.670354,148.226795 215.600759,147.713718 C217.389409,147.400672 219.148745,146.332012 220.68599,145.260351 C224.65878,142.490936 228.480529,139.502489 232.404132,136.659063 C234.255385,135.317362 236.496166,134.394224 238.045335,132.780482 C241.459669,129.223449 244.550059,125.35137 247.76317,121.598808 C247.974827,121.351771 248.274923,121.01272 248.244615,120.750181 C247.87347,117.546201 250.526634,115.760433 251.599824,113.255058 C253.022298,109.932561 253.507718,106.146994 255.229293,103.026026 C257.515784,98.8804054 256.483833,94.6442711 256.758589,90.4276396 C256.806783,89.6980303 257.103401,88.9824232 257.304624,88.2653158 C257.461628,87.7067321 257.963444,86.9976259 257.777623,86.6270705 C255.572615,82.236913 259.479325,77.5097051 256.854481,73.0010299 C255.885132,71.3357805 256.792375,68.6538789 256.051079,66.7475934 C253.761607,60.8592116 251.090059,55.1213524 248.567069,49.3249843 C248.534277,49.2484729 248.5149,49.1614598 248.464718,49.0979503 C245.607847,45.4824089 243.157893,41.4057984 239.779332,38.3793452 C236.082292,35.0683493 232.147262,31.9978895 228.499906,28.5923795 C227.252323,27.427205 225.699675,26.5430726 224.180317,25.7319512 C220.615935,23.8286661 217.110677,21.710849 213.34855,20.3146399 C209.834847,19.0099445 206.02055,18.5233717 202.338913,17.6772449 C202.263889,18.0082945 202.188865,18.3398442 202.114338,18.6708938 C199.79108,18.1868213 197.439502,17.8087646 195.151521,17.190172 Z" id="Fill-9" fill-opacity="0.6" fill="#FF243F"></path>
                <path d="M188.759562,88.4403137 C189.26203,89.0599246 189.897593,89.8435356 190.534152,90.627645 C191.118371,89.7413471 191.711562,88.861031 192.276839,87.9622711 C192.350116,87.8461252 192.251915,87.6337726 192.279331,87.474259 C192.715502,84.925031 193.349568,82.389262 193.509581,79.8235842 C193.575878,78.7638152 192.628766,77.6402407 192.142249,76.5460766 C191.440389,77.0066723 190.641824,77.3690675 190.057106,77.9473046 C188.797945,79.1920097 188.509325,80.4686176 189.784438,82.0667453 C190.245033,82.6444839 189.982334,83.917104 189.829799,84.8368 C189.657325,85.8771283 189.238103,86.8775781 188.759562,88.4403137 M177.833872,89.2124596 C178.081617,88.7982225 178.253094,88.3156936 178.582091,87.9946723 C179.903562,86.7056024 179.932973,85.4589033 178.691258,84.0860888 C177.38524,82.6409945 177.721216,81.5229033 179.547647,80.9177483 C181.340182,80.3245568 181.661204,79.3305872 180.747489,77.6910857 C180.513204,77.2708669 180.649787,76.3785872 180.963331,75.967341 C182.100365,74.4758881 183.299708,73.0098578 184.6471,71.7123137 C185.336,71.049335 186.389289,70.7652012 187.278079,70.3095903 C187.618541,71.1570067 187.96648,72.0009337 188.296973,72.852338 C188.629459,73.7077301 188.944498,74.5710979 189.267514,75.4304778 C189.942456,75.0032802 190.603441,74.5501617 191.299319,74.1578578 C191.711064,73.925566 192.18462,73.6194991 192.617301,73.6384413 C195.18248,73.7515964 197.746164,73.9165933 200.303368,74.1453957 C200.941422,74.202721 201.74248,74.3876571 202.132292,74.8183441 C202.728474,75.476338 203.032547,76.3990249 203.460243,77.2090553 C202.554006,77.5644717 201.580973,78.3356207 200.752997,78.202028 C197.106614,77.6163137 197.16693,77.5221009 197.140511,81.3015781 C197.135027,82.1639489 196.711319,83.0268182 196.461082,83.8837058 C196.096693,85.1338942 195.619149,86.3596571 195.36293,87.6312802 C194.963647,89.6092498 195.709374,90.8295295 197.866298,91.0578334 C199.189763,91.1974079 200.94541,91.4376754 200.447927,93.2526419 C199.950942,95.0641191 197.965994,95.1413836 196.690383,94.3961556 C194.102274,92.8847635 191.428426,92.7092985 188.561167,92.6539672 C187.527319,92.634028 186.518894,91.3005933 185.351951,90.4616511 C185.213374,90.6106967 184.898334,90.8554505 184.70293,91.1734809 C183.351052,93.3817483 183.124243,93.3453593 181.313763,91.586721 C180.355684,90.6545629 179.083064,90.046417 177.833872,89.2124596" id="Fill-13" fill="#231916" transform="translate(190.647058, 82.574530) rotate(-4.000000) translate(-190.647058, -82.574530) "></path>
                <path d="M66.0432924,89.8014272 C66.1106971,89.6261529 66.1786049,89.4513853 66.2460095,89.2766176 C67.1122102,89.5025492 68.0292159,89.6160215 68.8340481,89.980754 C70.1444155,90.5729377 71.1851641,90.5101227 71.5694715,88.9797659 C71.9497547,87.466126 71.382851,86.3349487 69.7555809,85.9534993 C68.306883,85.6135889 66.8677424,85.1546338 65.3989237,85.0102605 C64.6172304,84.933768 63.3033418,85.1966794 63.082516,85.6926143 C62.7475046,86.4423422 62.8390543,87.7847604 63.332517,88.4063254 C63.9094811,89.1342706 65.1122022,89.3586824 66.0432924,89.8014272 M67.1760937,82.4520673 L67.1760937,82.3654434 C68.2525568,82.3654434 69.4945135,82.7068735 70.3617202,82.2783128 C71.4180624,81.7560361 72.158508,80.5868659 73.0357751,79.6973238 C71.9462335,79.1730209 70.8893883,78.5585479 69.758599,78.1507567 C68.7098021,77.7723467 67.5936004,77.5185537 66.4864532,77.3919105 C65.6559669,77.2966748 64.4386583,77.1674987 64.0231636,77.62848 C63.3229596,78.406576 62.7605831,79.6689557 62.8395573,80.6724767 C62.8903623,81.317344 64.1207495,82.0285724 64.957775,82.397864 C65.5850411,82.6744528 66.4291089,82.4520673 67.1760937,82.4520673 M65.9698515,70.3930991 C67.9995377,70.4984663 68.7797219,71.0916631 68.8375692,72.751196 C68.93264,75.4947949 70.3717806,76.1143336 72.8295369,74.8104149 C73.4683724,74.4715176 74.7415164,74.3494336 75.1394053,74.7364553 C76.2551039,75.8200147 78.1288538,77.6720453 77.8159753,78.4232929 C76.3250237,82.0022306 77.1182864,85.5892734 76.9643623,89.1677045 C76.9125512,90.3860123 76.6625502,91.6848653 76.1444395,92.7734905 C75.3884002,94.3626097 74.2108301,95.0449634 72.5518698,93.6017372 C72.0463345,93.1620319 71.1917034,92.9416727 70.4970326,92.9416727 C67.40698,92.9421792 64.3174304,93.0971906 61.2268748,93.1230258 C58.1936635,93.1483544 57.3043239,91.6960099 58.1594581,88.7502884 C58.8536259,86.3597708 59.5734477,83.9287274 58.3888353,81.3786393 C58.0845081,80.7236405 58.5171054,79.6785806 58.7283739,78.8422287 C58.8234447,78.4678714 59.4406503,78.156329 59.4245537,77.8361749 C59.3143923,75.6295433 60.0367292,74.3251181 62.457262,74.1067851 C63.0105841,74.0566344 63.405958,72.8094519 63.9748737,72.2096696 C64.682623,71.4639942 65.4955035,70.8186203 65.9698515,70.3930991" id="Fill-15" fill="#231916"></path>
            </g>
        </g>
    </g>
</svg>