<?xml version="1.0" encoding="UTF-8"?>
<svg width="104px" height="259px" viewBox="0 0 104 259" version="1.1" xmlns="http://www.w3.org/2000/svg" xmlns:xlink="http://www.w3.org/1999/xlink">
    <!-- Generator: Sketch 60 (88103) - https://sketch.com -->
    <title>figure7</title>
    <desc>Created with Sketch.</desc>
    <defs>
        <polygon id="path-1" points="0.956036662 0.47302521 87.0222796 0.47302521 87.0222796 258.907545 0.956036662 258.907545"></polygon>
    </defs>
    <g id="页面-1" stroke="none" stroke-width="1" fill="none" fill-rule="evenodd">
        <g id="桌面端-HD" transform="translate(-579.000000, -675.000000)">
            <g id="figure7" transform="translate(579.000000, 674.000000)">
                <g id="编组" transform="translate(16.774194, 0.619412)">
                    <mask id="mask-2" fill="white">
                        <use xlink:href="#path-1"></use>
                    </mask>
                    <g id="Clip-2"></g>
                    <path d="M69.5112516,145.739613 C69.8456172,146.230118 70.0894022,146.588437 70.3320688,146.946756 C70.6351226,146.590622 71.1137462,146.262891 71.180843,145.868521 C71.2278108,145.592134 70.716757,145.222891 70.4550796,144.896252 C70.1777462,145.144235 69.9004129,145.392218 69.5112516,145.739613 M45.188671,42.6845714 L45.5722409,42.3852437 C45.3854882,41.9908739 45.2971441,41.4763361 44.9862624,41.2338151 C44.6384774,40.9628908 44.0894022,40.9377647 43.6275527,40.8066723 C43.7885849,41.2294454 43.8635097,41.7166723 44.1352516,42.0553277 C44.3723269,42.3524706 44.8297032,42.4813782 45.188671,42.6845714 M67.8159398,77.2416303 C67.0141333,76.8483529 66.5478108,76.423395 66.1743054,76.4911261 C65.792972,76.5599496 65.5022194,77.1116303 65.1723269,77.4513782 C65.516757,77.7703697 65.8947355,78.373395 66.196671,78.3395294 C66.652929,78.2881849 67.056628,77.7911261 67.8159398,77.2416303 M23.3084129,77.9812101 C23.8015742,78.5962521 24.1560688,79.0386891 24.5105634,79.4811261 C24.8248,79.0190252 25.3839398,78.5569244 25.3850597,78.0937311 C25.3861763,77.636 24.8236817,77.176084 24.5094452,76.7183529 C24.1538323,77.0908739 23.8004559,77.463395 23.3084129,77.9812101 M31.5400688,139.407849 C32.8518108,138.312134 33.3281978,135.501294 32.6840688,134.720202 C32.5498753,134.558521 32.2278108,134.361882 32.0992086,134.417597 C31.8699613,134.515916 31.5713806,134.790118 31.5635527,134.999866 C31.5154667,136.352303 31.5400688,137.705832 31.5400688,139.407849 M35.9091871,51.7517983 C37.5374022,51.7113782 38.4376172,51.376 38.4197247,50.1131429 C38.4074237,49.1452437 37.6827785,48.810958 36.7948645,48.8175126 C35.9181333,48.8240672 34.504628,50.0792773 34.7685419,50.7587731 C34.968714,51.2754958 35.7101333,51.5912101 35.9091871,51.7517983 M60.5370581,117.052218 C61.2583484,116.902555 61.7537462,116.850118 62.2122409,116.691714 C62.9178753,116.447008 63.5989075,116.129109 64.2911226,115.842891 C63.6995527,115.348017 63.1661333,114.742807 62.492929,114.400874 C62.0635097,114.181294 61.1677677,114.132134 60.9362839,114.393227 C60.4274667,114.966756 60.1680258,115.771882 59.9119398,116.516924 C59.8728,116.633815 60.3928,116.934235 60.5370581,117.052218 M74.3243269,157.582723 C74.3556387,157.580538 74.3880688,157.578353 74.4204989,157.576168 C74.3589935,156.666168 74.3433376,155.750706 74.2057892,154.852723 C74.1666495,154.599277 73.7853161,154.248605 73.5314667,154.221294 C73.3156387,154.199445 72.8627355,154.570874 72.8493161,154.788269 C72.740843,156.513227 72.6782194,158.243647 72.6905204,159.97079 C72.692757,160.247176 73.1400688,160.519193 73.3816172,160.793395 C73.6455312,160.494067 74.0704774,160.225328 74.140929,159.887765 C74.2952516,159.138353 74.2740043,158.352891 74.3243269,157.582723 M74.0660043,91.8442353 C72.8985204,90.8905378 71.9860043,90.0875966 71.0008,89.3807899 C70.7592516,89.2070924 70.2817462,89.3469244 69.9138323,89.3425546 C69.9339613,89.7380168 69.8478538,90.1793613 69.9988215,90.5191092 C70.2851011,91.1669244 70.6675527,91.7852437 71.0880258,92.3620504 C71.4056172,92.7979328 72.0598108,93.5407899 72.1895312,93.4719664 C72.7799828,93.1595294 73.2362409,92.6089412 74.0660043,91.8442353 M53.5612301,43.3487731 C54.2635097,44.3428908 54.6873376,45.0278487 55.2162839,45.6254118 C55.3359398,45.7619664 56.0203269,45.698605 56.0974882,45.5522185 C56.5895312,44.6203697 57.1140043,43.6666723 57.3231226,42.6594454 C57.3768,42.3983529 56.176886,41.5014622 55.8436387,41.6281849 C55.040714,41.9318824 54.408886,42.6681849 53.5612301,43.3487731 M39.7124559,246.64037 C38.9352516,246.302807 38.5360258,245.994739 38.1222624,245.975076 C36.8977462,245.917176 35.660929,245.909529 34.4431226,246.018773 C33.9857462,246.059193 33.4568,246.393479 33.1738753,246.752891 C33.0385634,246.927681 33.2845849,247.638857 33.5574452,247.812555 C34.0383054,248.120622 34.6980903,248.407933 35.2337462,248.338017 C36.2491441,248.203647 37.2410581,247.843143 38.2195527,247.513227 C38.6277247,247.376672 38.9788645,247.078437 39.7124559,246.64037 M50.2455312,108.502807 C51.2050151,109.91205 52.2461333,111.671966 53.5243269,113.247261 C54.5934022,114.563647 56.2875957,114.037092 57.7134022,114.028353 C59.6771011,114.014151 60.5918538,112.407176 59.7151226,110.688773 C58.7712946,108.839277 57.7928,107.008353 56.7930581,105.188353 C56.1254452,103.974655 55.3840258,103.929866 54.3585634,104.880286 C53.1027355,106.043731 51.7898753,107.148185 50.2455312,108.502807 M47.0830366,52.4083529 C47.1210581,52.5077647 47.1579613,52.6082689 47.1948645,52.7065882 C47.4912086,52.7065882 47.8512946,52.8136471 48.0693591,52.6858319 C48.632972,52.3602857 49.1339613,51.930958 49.660671,51.5420504 C49.1507355,51.1017983 48.6709935,50.3239832 48.1252731,50.2770084 C45.5398108,50.0541513 45.160714,47.2520504 43.1578753,46.4075966 C43.072886,46.3715462 43.080714,46.1388571 43.0371011,46.0012101 C42.0395957,42.9041513 39.6598968,41.3157479 36.3341333,41.5342353 C35.0872516,41.6172605 33.9052301,41.6358319 32.8786495,40.681042 C32.2278108,40.0758319 31.2090581,39.8912101 30.6857032,40.7312941 C30.448628,41.1114622 30.7796387,42.1623866 31.1989935,42.536 C32.528628,43.7180168 33.9633806,44.8115462 35.4752946,45.7597815 C36.1317247,46.1716303 37.1661333,46.4523866 37.8717677,46.2557479 C39.2506065,45.8712101 39.9976172,46.0896975 41.0040688,47.2072605 C42.4511226,48.8164202 43.7919398,50.1481008 43.1030796,52.5787731 C42.808972,53.6100336 43.668929,53.8896975 44.736886,53.3216303 C45.4704774,52.9305378 46.2980043,52.7065882 47.0830366,52.4083529 M78.7538323,132.010958 C79.4505204,131.387176 80.6426065,130.58205 81.4164559,129.493983 C81.7060903,129.084319 81.0340043,128.013731 80.7779183,127.25121 C80.7041118,127.027261 80.4681548,126.832807 80.4524989,126.614319 C80.2892301,124.414151 79.1105634,122.65642 77.9878108,120.84079 C77.7183054,120.406 77.8603269,119.556084 78.1041118,119.022975 C78.6185204,117.894487 79.4214452,116.888353 79.8989505,115.748941 C80.0756387,115.323983 79.8318538,114.494824 79.4740043,114.174739 C79.2279828,113.95516 78.3378323,114.137597 77.948671,114.420538 C77.2900043,114.900118 76.6961978,115.538101 76.2623054,116.221966 C75.4974022,117.431294 74.516671,118.66684 74.2874237,119.999613 C74.0291011,121.48642 74.0537032,123.157849 75.1619183,124.566 C75.4985204,124.995328 75.4683269,125.755664 75.4750366,126.365244 C75.4851011,127.326588 75.3732731,128.289025 75.3318968,129.251462 C75.2659183,130.798353 76.5798968,132.074319 78.7538323,132.010958 M39.7068645,108.165244 C39.3758538,108.35642 38.8100043,108.496252 38.7060043,108.79121 C38.5740473,109.165916 38.7015312,109.729613 38.9195957,110.09995 C39.5950366,111.257933 40.2682409,112.43995 41.1237247,113.46684 C42.2185204,114.77995 43.1824774,116.480874 45.2501763,116.388017 C46.8325419,116.317008 48.2863054,116.453563 49.6640258,117.256504 C49.9804989,117.441126 50.4389935,117.523059 50.804671,117.470622 C51.9173591,117.308941 52.7683699,117.625748 53.6451011,118.334739 C54.1024774,118.705076 54.9881548,118.741126 55.6311656,118.638437 C55.8861333,118.598017 56.3010151,117.552555 56.1377462,117.348269 C55.740757,116.850118 55.0697892,116.306084 54.4715097,116.260202 C51.9699183,116.069025 50.5564129,114.597513 49.7188215,112.541546 C48.7805849,110.237597 45.8182624,108.44163 43.3804129,108.809782 C42.6904344,108.914655 41.9423054,108.735496 41.2321978,108.619697 C40.7535742,108.541042 40.2961978,108.345496 39.7068645,108.165244 M35.0402839,127.158353 C34.5515957,127.985328 34.1803269,128.349109 34.1557247,128.733647 C34.1300043,129.11163 34.3771441,129.577008 34.6432946,129.890538 C36.4437247,132.007681 35.3891871,134.500622 35.6262624,136.817681 C35.6452731,137.002303 35.3936602,137.229529 35.2371011,137.409782 C34.0014022,138.82995 33.7263054,142.017681 34.8714237,143.520874 C35.7582194,144.684319 35.9371441,145.593227 34.7014452,146.628857 C34.3581333,146.917261 34.1523699,147.689613 34.296628,148.101462 C34.4196387,148.452134 35.1744774,148.83995 35.5826495,148.779866 C36.0400258,148.712134 36.4918108,148.211798 36.8217032,147.804319 C37.2678968,147.251546 37.6268645,146.624487 37.9724129,146.001798 C38.8737462,144.37079 40.1877247,142.80205 40.5075527,141.062891 C40.8396817,139.26037 41.6358968,138.340538 43.1735312,137.65995 C43.592886,137.474235 43.8858753,137.013227 44.2358968,136.677849 C43.7494452,136.454992 43.280886,136.174235 42.7720688,136.023479 C42.0038108,135.794067 40.9962409,135.892387 40.4628215,135.435748 C38.7775742,133.992639 37.0531871,132.563731 36.9201118,130.010706 C36.8753806,129.148773 35.8521548,128.337092 35.0402839,127.158353 M31.7737892,128.789361 C31.8218753,125.992723 31.8196387,125.996 29.5450581,124.630454 C29.2945634,124.48079 29.0697892,124.288521 28.8438968,124.103899 C26.8533591,122.487092 24.8561118,120.879025 22.8823484,119.243647 C21.6242839,118.201462 20.1682839,118.641714 18.7883269,118.738941 C18.472972,118.761882 17.9272516,119.430454 17.9585634,119.758185 C18.1811011,122.068689 16.5361118,123.560958 15.5084129,125.30558 C14.812843,126.485412 14.9324989,127.008689 16.2218753,127.459866 C17.7774022,128.004992 19.3239828,128.579613 20.8616172,129.176084 C22.7336172,129.902555 24.5944344,130.660706 26.4541333,131.417765 C27.0814882,131.673395 27.6652301,132.083059 28.3138323,132.213059 C28.9635527,132.343059 29.7731871,132.422807 30.328972,132.156252 C31.8520688,131.428689 32.0019183,130.029277 31.7737892,128.789361 M34.7282839,124.203311 C34.7651871,124.295076 34.8020903,124.385748 34.8378753,124.477513 C36.0143054,124.056924 37.1896172,123.638521 38.3638108,123.21684 C38.8692731,123.034403 39.3937462,122.889109 39.8701333,122.65205 C41.0219613,122.075244 42.2923269,121.61642 43.2562839,120.814571 C44.764843,119.560454 44.5937462,118.494235 42.6960258,117.844235 C39.3478968,116.700454 38.0204989,114.042555 36.9715527,111.138857 C36.6125849,110.143647 36.2938753,110.349025 35.4875957,110.663647 C34.4017462,111.085328 33.1817032,111.259025 32.0030366,111.357345 C30.7673376,111.460034 29.3829075,111.708017 28.7700903,110.075916 C28.6951656,109.873815 27.9794667,109.738353 27.6451011,109.838857 C27.3577032,109.92516 27.1899613,110.394908 26.9707785,110.694235 C27.3017892,110.902891 27.6428645,111.302723 27.9638108,111.288521 C29.1872086,111.234992 29.616628,112.021546 29.9017892,112.920622 C30.0113806,113.261462 29.9241548,113.970454 29.7586495,114.023983 C29.3661333,114.151798 28.7533161,114.144151 28.4457892,113.913647 C27.8721118,113.481042 27.5511656,112.692303 26.9472946,112.339445 C25.5662194,111.532134 24.0822624,110.893059 22.6307355,110.203731 C22.5233806,110.153479 22.3399828,110.22995 22.2013161,110.275832 C20.9857462,110.672387 19.9602839,112.86163 20.4444989,114.019613 C21.0383054,115.444151 22.7201978,116.118185 24.1683699,115.511882 C25.988929,114.749361 27.3800688,115.102218 28.6325419,116.603227 C28.8416602,116.853395 29.1558968,117.02163 29.4332301,117.212807 C31.0111226,118.294319 32.6561118,119.297176 34.1423054,120.490118 C34.7048,120.941294 34.9027355,121.825076 35.2672946,122.512218 C34.5873806,122.587597 33.8962839,122.621462 33.2297892,122.755832 C32.8965419,122.822471 32.6024344,123.074824 32.2915527,123.243059 C32.5621763,123.523815 32.7835957,123.943311 33.1146065,124.052555 C33.6122409,124.217513 34.1859183,124.163983 34.7282839,124.203311 M37.3137462,20.1519664 C36.6282409,20.2087731 35.7548645,20.0252437 35.2941333,20.3682689 C34.0114667,21.3252437 32.6505204,21.6781008 31.0748645,21.7370924 C30.6275527,21.753479 30.0359828,22.4591933 29.8458753,22.9682689 C29.7306925,23.2796134 30.1589935,23.9165042 30.5078968,24.2354958 C31.2951656,24.9543193 32.1495312,25.6174286 33.0408,26.2106218 C34.620929,27.2637311 35.0313376,30.0101176 33.7676817,31.433563 C32.748929,32.5806218 32.8820043,33.1465042 34.2149935,33.8576807 C34.5482409,34.0357479 34.7226925,34.5011261 34.968714,34.8354118 C34.5068645,35.0145714 34.0561978,35.2822185 33.5786925,35.3368403 C33.2912946,35.3696134 32.9759398,35.0407899 32.6549935,34.9228067 C30.420671,34.0991092 30.4296172,34.0171765 31.3779183,31.9819664 C31.6820903,31.3297815 31.7122839,30.488605 31.6284129,29.7599496 C31.5903914,29.4354958 30.9988215,29.0225546 30.5906495,28.9318824 C30.2629935,28.8586891 29.5696602,29.1328908 29.4958538,29.3830588 C28.9188215,31.3319664 27.6451011,33.1279328 28.2377892,35.3477647 C28.8696172,37.7161681 30.3345634,38.2438151 32.3004989,36.7723025 C32.6348645,36.521042 33.580929,36.4423866 33.7072946,36.6302857 C34.5549505,37.8833109 35.7101333,37.9007899 36.9894452,37.6407899 C38.3682839,37.3611261 39.5939183,37.6058319 40.7860043,38.3923866 C41.3596817,38.7703697 42.1860903,39.0576807 42.8469935,38.9768403 C44.2604989,38.8042353 45.4346925,38.9331429 46.5082409,39.9731429 C46.8481978,40.3041513 47.6220473,40.1872605 48.1834237,40.3292773 C49.2379613,40.5969244 50.2790796,40.9224706 51.3358538,41.1846555 C51.8267785,41.3070084 52.5391226,41.5823025 52.8063914,41.3703697 C53.7949505,40.5903697 54.6951656,39.6792773 55.5003269,38.7146555 C55.7072086,38.4655798 55.5081548,37.8275966 55.3907355,37.3949916 C54.8651441,35.4471765 54.2758108,33.5288571 52.4888,32.2452437 C52.328886,32.1294454 52.3590796,31.7864202 52.2450151,31.5799496 C51.9274237,31.0053277 51.5673376,30.4547395 51.2497462,29.8812101 C50.7073806,28.9002017 49.9916817,27.9596134 49.7020473,26.9075966 C49.3386065,25.593395 48.7962409,24.6812101 47.4397677,24.1273445 C45.8149075,23.4642353 44.3432516,22.4395294 42.7150366,21.7895294 C40.9794667,21.0958319 39.4574882,19.6013782 37.3137462,20.1519664 M60.204929,119.114739 C59.0922409,119.716672 58.0466495,120.224655 57.0648,120.827681 C55.8492301,121.576 54.7577892,121.660118 53.508671,120.803647 C52.3154667,119.983227 51.0081978,119.28516 49.6684989,118.722555 C49.2021763,118.527008 48.3511656,118.725832 47.9116817,119.049193 C46.9343054,119.769109 46.1179613,120.695496 45.2121548,121.511546 C43.9462624,122.650958 42.8201548,124.08205 41.3373161,124.807429 C39.668843,125.623479 39.1555527,126.577176 39.496628,128.224571 C39.5827355,128.644067 39.5402409,129.090874 39.5391226,129.524571 C39.5301763,131.284487 41.6291871,133.697681 43.4262624,133.765412 C46.8291871,133.892134 50.2365849,133.909613 53.6417462,133.931462 C57.3454882,133.954403 61.0525849,133.867008 64.7540903,133.967513 C65.9159828,133.999193 67.0432086,134.605496 67.9042839,133.268353 C68.5260473,132.304824 69.5828215,131.553227 70.0055312,130.531798 C70.9873806,128.162303 71.6717677,125.675916 72.5373161,123.258353 C73.1221763,121.621882 72.748671,120.490118 71.5029075,119.974487 C70.680972,119.633647 69.8657462,119.144235 69.2294452,118.540118 C67.7141763,117.100286 66.3353376,117.006336 64.9140043,118.461462 C62.2536172,121.182723 59.4959398,123.79037 56.1265634,125.68684 C55.7060903,125.922807 55.2509505,126.117261 54.7891011,126.261462 C52.8041548,126.880874 50.7800688,127.397597 48.8309075,128.110958 C47.8468215,128.47037 47.0036387,128.455076 46.448972,127.673983 C46.0799398,127.153983 45.7712946,126.145664 46.0419183,125.755664 C46.3673376,125.284824 47.3402409,125.028101 48.0201548,125.048857 C49.6595527,125.098017 51.1759398,125.148269 52.7135742,124.247008 C53.9872946,123.500874 55.5439398,123.179697 57.0066495,122.785328 C58.824972,122.297008 59.9622624,121.127008 60.204929,119.114739 M25.4264344,155.807513 C25.3157247,154.612387 25.5796387,153.207513 25.024972,152.26037 C23.5432516,149.725916 23.8105204,147.062555 23.7601978,144.372975 C23.7400688,143.346084 23.3721548,142.325748 23.1663914,141.302134 C22.6754667,138.862723 22.148757,136.43642 23.3822194,134.022134 C23.5913376,133.613563 23.5186495,132.899109 23.2771011,132.494908 C23.0992946,132.196672 22.2315097,131.925748 22.0335742,132.081966 C21.648886,132.384571 21.4174022,132.97558 21.308929,133.485748 C21.1747355,134.119361 21.3212301,134.810874 21.1825634,135.443395 C20.9432516,136.543479 20.5909935,137.620622 20.2611011,138.701042 C20.1224344,139.154403 20.0262624,139.676588 19.7299183,140.018521 C18.556843,141.369866 19.0634237,142.804235 19.340757,144.269193 C19.6035527,145.657681 19.7534022,147.066924 19.9334452,148.468521 C19.9491011,148.589782 19.7903054,148.723059 19.7623484,148.859613 C19.5319828,149.954235 19.1305204,151.053227 19.1417032,152.147849 C19.1540043,153.301462 19.2132731,154.318521 18.2213591,155.177176 C17.9104774,155.444824 17.7818753,156.044571 17.7762839,156.494655 C17.7483269,159.10121 17.7237247,161.711042 17.8143054,164.315412 C17.8623914,165.698437 17.9037677,166.973311 16.8414022,168.102891 C16.5059183,168.460118 16.4869075,169.187681 16.484671,169.747008 C16.456714,176.795412 16.4444129,183.843815 16.4656602,190.893311 C16.4690151,192.166 16.5741333,193.381882 15.3876387,194.321378 C15.0935312,194.554067 15.0476817,195.202975 15.0510366,195.658521 C15.0678108,197.973395 15.2512086,200.293731 15.1393806,202.599866 C15.0912946,203.583059 14.4617032,204.536756 14.1060903,205.50684 C13.9305204,205.984235 13.6095742,206.480202 13.640886,206.948857 C13.8309935,209.783731 14.2156817,212.613143 13.3534882,215.418521 C13.2494882,215.758269 13.4015742,216.174487 13.4362409,216.554655 C13.5737892,218.081882 14.1228645,219.710706 13.7560688,221.112303 C13.2170581,223.169361 14.1239828,224.423479 15.3183054,225.749697 C17.2495742,227.890874 21.5392946,228.179277 23.6371871,226.153899 C24.2019183,225.607681 24.5273376,224.561126 24.5060903,223.758185 C24.464714,222.310706 23.9346495,220.879613 23.8709075,219.42995 C23.7937462,217.649277 23.9905634,215.878437 22.9863484,214.228857 C22.6866495,213.737261 22.7235527,213.011882 22.7157247,212.392471 C22.6195527,204.671126 22.4495742,196.949782 22.5177892,189.230622 C22.5390366,186.636084 22.3522839,183.984739 23.6908645,181.448101 C24.2913806,180.310874 24.2947355,178.428605 23.7389505,177.261882 C22.9203699,175.543479 22.7559828,173.902639 22.7358538,172.10121 C22.7146065,170.280118 23.1842839,168.317008 21.5583054,166.770118 C21.3536602,166.574571 21.5102194,165.660202 21.8032086,165.377261 C23.0869935,164.134067 22.9080688,162.916 22.0022624,161.602891 C21.7819613,161.284992 21.4621333,160.904824 21.4934452,160.58037 C21.5482409,159.984992 21.8300473,159.408185 22.0168,158.824824 C22.6050151,159.057513 23.3587355,159.149277 23.728886,159.566588 C24.0364129,159.915076 23.8988645,160.643731 23.9514237,161.204151 C24.0084559,161.811546 23.8183484,162.623227 24.1493591,162.991378 C25.7272516,164.748017 25.1636387,166.691462 24.9142624,168.636 C24.8426925,169.194235 24.7845419,169.76995 24.8415742,170.324908 C24.9511656,171.404235 25.2229075,172.470454 25.2866495,173.550874 C25.3414452,174.459782 25.144628,175.381798 25.1737032,176.293983 C25.1826495,176.596588 25.544972,176.887176 25.7440258,177.184319 C26.0224774,176.968017 26.376972,176.801966 26.5670796,176.527765 C27.028929,175.859193 27.5030796,175.174235 27.8038968,174.431378 C28.0186065,173.904824 28.0890581,173.253731 28.0029505,172.690034 C27.6350366,170.280118 27.1273376,167.889866 26.7851441,165.476672 C26.5704344,163.96037 27.0233376,162.17205 26.3445419,160.944151 C25.3995957,159.234487 25.2318538,157.605664 25.4264344,155.807513 M77.8155957,84.8275126 C78.3859183,87.2658319 78.0090581,89.7347395 75.9022194,91.7590252 C75.7355957,91.918521 75.6819183,92.1872605 75.568972,92.4013782 C74.0917247,95.228605 72.6290151,98.063479 69.6756387,99.7698655 C69.4441548,99.9042353 69.1321548,100.223227 69.1612301,100.413311 C69.4117247,102.121882 67.9892731,102.81995 67.1114237,103.874151 C66.2749505,104.877008 65.6341763,106.033899 64.808886,107.045496 C64.5259613,107.391798 63.9411011,107.501042 63.492671,107.718437 C63.3797247,107.255244 63.0453591,106.702471 63.1963269,106.345244 C63.5843699,105.424319 64.0260903,104.424739 64.740671,103.758353 C66.1787785,102.420118 66.3823054,100.094319 68.512628,99.3449076 C68.616628,99.3077647 68.6468215,99.0936471 68.732929,98.9767563 C69.2708215,98.2502857 69.8232516,97.5336471 70.3555527,96.8017143 C70.5523699,96.5329748 70.7995097,96.2522185 70.8621333,95.9452437 C71.0924989,94.8265882 67.7365419,91.7448235 66.5947785,92.0266723 C63.8661763,92.7017983 62.0534452,94.3950756 60.9318108,96.8891092 C60.6936172,97.4189412 60.2731441,98.1082689 59.8045849,98.2251597 C59.4411441,98.3169244 58.7377462,97.7248235 58.4223914,97.2780168 C57.6351226,96.1593613 56.848972,96.5952437 56.016972,97.1207059 C55.1100473,97.6920504 55.1335312,98.3529748 55.6960258,99.2028908 C56.8612731,100.963899 57.9773161,102.757681 59.0531011,104.571126 C60.2395957,106.569193 61.3422194,108.613143 62.5253591,110.61121 C62.7031656,110.912723 63.1124559,111.092975 63.4345204,111.300538 C65.4183484,112.583059 67.4234237,113.833899 69.3826495,115.151378 C69.9138323,115.508605 73.4229935,116.177176 73.9743054,115.872387 C74.100671,115.801378 74.2147355,115.699782 74.3176172,115.597092 C76.068843,113.829529 77.8211871,112.061966 79.5668215,110.288941 C80.2344344,109.610538 80.6392516,108.826168 80.0443269,107.947849 C79.3677677,106.949361 79.7815312,106.333227 80.512886,105.567429 C81.0697892,104.981882 81.3325849,104.121042 81.6960258,103.367261 C82.072886,102.581798 82.3837677,101.762471 82.7762839,100.983563 C83.3275957,99.8944034 84.3318108,98.8642353 84.436929,97.7466723 C84.784714,93.998521 83.4315957,90.5988571 82.0113806,87.1380168 C81.1838538,85.1202857 81.276671,82.6961681 80.2836387,80.6107059 C81.248714,76.925916 78.8779613,73.6191092 78.9987355,70.0195294 C79.0143914,69.5847395 78.4630796,69.1357479 78.184628,68.6878487 C77.2911226,67.2502017 76.1370581,65.901042 75.5768,64.3486891 C74.8465634,62.3244034 73.2205849,61.3455798 71.6348645,60.258605 C69.5694022,58.8417143 67.4133591,57.5482689 65.356843,56.1193613 C64.7775742,55.7162521 64.3157247,55.0749916 63.956757,54.4566723 C62.8194667,52.5001176 62.0232516,52.1439832 59.6871656,52.710958 C58.5017892,52.9971765 58.1461763,53.7924706 58.8820043,54.7472605 C59.2868215,55.2716303 60.0282409,55.5687731 60.3715527,56.116084 C60.6276387,56.5224706 60.7316387,57.4346555 60.4811441,57.6520504 C59.6636817,58.353395 59.4590366,59.9723866 57.8531871,59.5496134 C57.6239398,59.4895294 57.4405419,59.0405378 57.356671,58.7390252 C57.2683269,58.4233109 57.4561978,57.9841513 57.2962839,57.746 C56.6745204,56.8174286 56.0583484,55.8364202 55.212929,55.1350756 C55.0071656,54.9646555 53.9336172,55.778521 53.2704774,56.1575966 C53.104972,56.2526387 53.0043269,56.4612941 52.8365849,56.5465042 C52.2942194,56.8207059 51.7339613,57.061042 51.1792946,57.3155798 C51.0395097,56.7562521 50.8359828,56.2045714 50.7744774,55.6375966 C50.7017892,54.9613782 50.6313376,54.2152437 49.7244129,54.4927227 C48.3399828,54.9176807 47.0237677,55.5447395 45.6684129,56.0636471 C45.264714,56.2176807 44.8364129,56.3728067 44.4114667,56.4001176 C42.2397677,56.5355798 41.1438538,57.3898655 40.4482839,59.3682689 C39.8175742,61.1576807 39.0191226,62.8924706 38.4297892,64.6938992 C38.3045419,65.0773445 38.6254882,65.788521 38.9743914,66.0889412 C39.5156387,66.5532269 40.3744774,66.6744874 40.8821763,67.158437 C41.3954667,67.6489412 41.9523699,68.423479 41.9076387,69.0330588 C41.8763269,69.4744034 40.8631656,69.8152437 40.340929,70.2620504 C39.8019183,70.7241513 39.168972,71.1807899 38.8592086,71.7783529 C38.2922409,72.8740672 38.040628,74.1270924 37.4624774,75.2151597 C36.3755097,77.2536471 36.8832086,79.2222185 38.8670366,80.3987731 C39.2192946,80.6074286 39.5961548,81.1602017 39.5558968,81.5086891 C39.5156387,81.8506218 39.0001118,82.3291092 38.6187785,82.4088571 C37.1829075,82.7125546 36.8776172,83.6017983 36.9391226,84.8690252 C37.0319398,86.7971765 37.1817892,88.7417143 37.0241118,90.6567563 C36.8988645,92.1807059 35.7123699,93.4665042 36.2804559,95.2679328 C36.5454882,96.1036471 36.5275957,96.5417143 37.4669505,96.5045714 C37.8113806,96.4903697 38.2217892,96.398605 38.4890581,96.5417143 C38.9140043,96.7700336 39.5022194,97.136 39.5458323,97.4975966 C39.5916817,97.8832269 39.1756817,98.4665882 38.7932301,98.7145714 C38.4331441,98.9472605 37.8426925,98.9428908 37.3707785,98.8904538 C36.1194237,98.7517143 35.7593376,99.3219664 35.6318538,100.459193 C35.5368,101.299277 35.1420473,102.16121 34.6813161,102.89205 C34.1881548,103.673143 34.0808,104.280538 34.7853161,104.944739 C35.2113806,105.347849 35.6061333,105.781546 36.008714,106.206504 C36.8563699,107.102303 37.7331011,107.319697 38.9028215,106.641294 C39.4597247,106.317933 40.480714,106.080874 40.924671,106.36163 C43.2272086,107.816756 45.8227355,107.286924 48.2840688,107.578605 C48.6810581,107.62558 49.3195957,107.172218 49.5589075,106.781126 C50.4110366,105.387176 51.0875957,103.890538 51.9274237,102.488941 C52.564843,101.428185 52.3031656,100.478857 51.0987785,100.092134 C50.6783054,99.9577647 50.1460043,100.009109 49.8295312,99.7676807 C49.6204129,99.6070924 49.5521978,98.8303697 49.6819183,98.7538992 C51.8636817,97.4746555 54.0700473,96.2325546 56.308843,95.0516303 C57.2157677,94.5742353 58.5610581,94.2825546 58.2088,93.0557479 C57.8856172,91.9349076 56.6588645,92.3915462 55.7497032,92.5554118 C55.7004989,92.5641513 55.6524129,92.5761681 55.6043269,92.5838151 C54.1617462,92.8088571 52.4820903,91.8453277 52.2036387,90.445916 C52.1130581,89.9925546 52.4854452,89.1939832 52.8936172,88.9569244 C53.8318538,88.4107059 54.9244129,88.1212101 55.9465204,87.7104538 C57.8856172,86.9315462 59.8303054,86.1668403 61.7503914,85.3464202 C62.8239398,84.8886891 64.6534452,85.1082689 64.5091871,85.6708739 C64.3190796,86.4071765 63.6056172,87.3707059 62.9178753,87.5651597 C60.8177462,88.1572605 58.6113806,88.391042 56.4654022,88.8498655 C55.8950796,88.9711261 54.9669075,89.3665882 54.9400688,89.6932269 C54.8617892,90.653479 55.5059183,91.2958319 56.5895312,91.3154958 C57.820757,91.3362521 59.0709935,91.2106218 60.2787355,91.3821345 C62.4291871,91.6858319 63.9343914,90.9025546 65.2707355,89.2966723 C66.8463914,87.4056639 67.000714,85.756084 65.5435957,83.7798655 C65.2461333,83.3767563 65.1510796,82.8152437 65.016886,82.3127227 C64.8715097,81.7588571 64.9419613,81.0946555 64.6523269,80.6402017 C63.6391656,79.0496134 64.1658753,76.856 62.5130581,75.5363361 C62.4504344,75.4849916 62.4157677,75.3528067 62.4280688,75.2654118 C62.7478968,72.8970084 62.2536172,70.6913782 61.0626495,68.6190252 C61.0179183,68.5403697 60.996671,68.4223866 61.0201548,68.336084 C61.1923699,67.7199496 61.2192086,66.9607059 61.6184344,66.5455798 C61.8678108,66.2877647 62.8921548,66.3412941 63.1974452,66.6296975 C63.6145634,67.0240672 63.7644129,67.7614622 63.8695312,68.3765042 C63.9802409,69.0188571 63.7934882,69.7191092 63.9511656,70.3407059 C64.0260903,70.6302017 64.6310796,70.9896134 64.9564989,70.9557479 C65.2293591,70.928437 65.6420043,70.3854958 65.6576602,70.0566723 C65.7337032,68.3262521 65.7023914,66.6908739 64.4834667,65.1319664 C63.1135742,63.3829748 62.0937032,61.351042 62.2245419,58.9946555 C62.2681548,58.2201176 62.5980473,57.3822185 63.4121548,57.9950756 C64.5550366,58.855916 65.8477677,59.9396134 66.2805419,61.1904538 C66.9224344,63.041042 66.8665204,65.1232269 67.1024774,67.106 C67.1125419,67.1977647 67.0644559,67.2938992 67.0510366,67.3889412 C66.7714667,69.3007059 66.4371011,71.2081008 66.2581763,73.128605 C66.2190366,73.5513782 66.7278538,74.0222185 66.9839398,74.4712101 C67.2389075,74.0276807 67.8014022,73.493479 67.6962839,73.1581008 C67.1315527,71.3479328 67.7712086,69.766084 68.4030366,68.1481849 C68.7776602,67.1868403 69.3211441,67.383479 69.8031226,67.973395 C70.0580903,68.2847395 70.1620903,68.7654118 70.2057032,69.1816303 C70.6194667,73.1832269 69.808714,76.9696134 68.0675527,80.591042 C66.9358538,82.9441513 67.6012301,85.0503697 69.6588645,86.1526387 C70.7145204,86.7174286 71.616972,87.5498655 72.6469075,88.1703697 C73.1803269,88.4926387 73.9116817,88.8738992 74.4216172,88.7417143 C74.8186065,88.6390252 75.1909935,87.8087731 75.2648,87.2614622 C75.4906925,85.5747395 76.352886,83.8781849 75.2894022,82.1575966 C75.1171871,81.8779328 75.2301333,81.3939832 75.2905204,81.016 C75.492929,79.7400336 75.5063484,78.5722185 74.4685849,77.5191092 C74.0872516,77.133479 74.0179183,76.353479 73.9977892,75.7471765 C73.940757,74.0102017 73.8904344,72.2644874 74.0145634,70.5340672 C74.1029075,69.3050756 73.9798968,68.3033109 73.0125849,67.3802017 C72.6737462,67.0579328 72.6021763,66.1577647 72.8124129,65.6989412 C72.9723269,65.3504538 73.8770151,65.0161681 74.2639398,65.1592773 C74.7324989,65.3329748 75.1272516,65.9687731 75.3330151,66.4876807 C75.6472516,67.2796975 75.7915097,68.1394454 75.9737892,68.978437 C76.192972,69.9911261 76.4714237,71.0038151 76.5541763,72.0296134 C76.7084989,73.9479328 76.312628,76.0202857 76.9288,77.7649076 C77.7317247,80.0338992 78.0817462,82.2253277 77.8155957,84.8275126 M77.3146065,177.853983 C76.5429935,175.482303 75.6405419,173.619697 75.3989935,171.678437 C75.1954667,170.053983 75.7780903,168.33995 75.9816172,166.661966 C76.0453591,166.139782 76.1392946,165.56079 75.9715527,165.093227 C75.8418323,164.729445 75.3263054,164.498941 74.9818753,164.209445 C74.7067785,164.552471 74.2851871,164.858353 74.1834237,165.245076 C73.856886,166.476252 73.6377032,167.735832 73.4017462,168.988857 C73.3402409,169.313311 73.2295312,169.727345 73.3715527,169.97642 C74.3802409,171.741798 73.9821333,173.647008 74.0302194,175.509613 C74.0850151,177.638773 74.9203699,178.427513 77.1781763,178.838269 C78.5335312,179.084067 79.1474667,180.215832 79.104972,181.418605 C79.0378753,183.295412 79.3319828,185.188605 78.1544344,187.01079 C77.3604559,188.243059 77.4599828,189.853311 78.440714,191.259277 C78.8555957,191.852471 79.1239828,192.668521 79.1340473,193.387345 C79.188843,196.862387 79.132929,200.339613 79.120628,203.815748 C79.1195097,204.201378 79.0043269,204.680958 79.1910796,204.956252 C81.108929,207.794403 79.8318538,210.985412 80.1885849,213.986336 C80.5900473,217.367429 80.2568,220.831546 80.2355527,224.259613 C80.2333161,224.693311 80.3104774,225.198017 80.1147785,225.541042 C79.8665204,225.978017 79.376714,226.283899 78.9920258,226.645496 C78.9137462,226.213983 78.792972,225.784655 78.7672516,225.350958 C78.6867355,224.000706 78.6431226,222.649361 78.5693161,220.939697 C76.2578323,223.350706 75.728886,224.342639 77.3962409,226.668437 C77.7194237,227.118521 77.5762839,227.865748 77.7518538,228.444739 C77.9095312,228.96037 78.0906925,229.619109 78.4876817,229.867092 C78.7996817,230.062639 79.5399828,229.852891 79.9470366,229.602723 C80.9870366,228.965832 81.7552946,228.107176 81.6736602,226.768941 C81.6535312,226.443395 81.6725419,226.021714 81.8615312,225.79121 C83.4573161,223.844487 82.8702194,221.562387 82.9238968,219.390622 C82.9764559,217.266924 82.904886,215.13995 82.9462624,213.016252 C82.9697462,211.850622 83.092757,210.729782 82.1746495,209.740034 C81.9599398,209.508437 82.2283269,208.804908 82.3423914,208.334067 C82.5358538,207.525664 82.9663914,206.732555 82.9775742,205.928521 C83.0424344,201.151294 83.0524989,196.371882 82.9820473,191.594655 C82.9675097,190.687933 82.4944774,189.791042 82.2574022,188.883227 C82.0214452,187.977597 81.6356387,187.066504 81.6255742,186.153227 C81.5707785,181.134571 81.6188645,176.115916 81.6155097,171.096168 C81.6143914,169.988437 81.4801978,168.877429 81.5204559,167.77079 C81.5830796,166.075328 81.6826065,164.453059 80.4648,162.964067 C80.0230796,162.423311 80.1863484,161.397513 80.1136602,160.590202 C80.0555097,159.919445 80.284757,159.126336 79.9951226,158.587765 C78.0985204,155.051546 79.2492301,151.312134 79.1418753,147.668857 C79.0747785,145.403143 78.8701333,143.248857 78.2483699,141.008269 C77.608714,138.707597 77.0674667,136.787092 74.6531011,135.716504 C74.2337462,135.529697 74.3187355,134.27121 74.1588215,133.509782 C74.0302194,132.889277 73.8837247,132.273143 73.7439398,131.653731 C73.1613161,131.908269 72.4389075,132.030622 72.0229075,132.444655 C71.3463484,133.120874 70.8319398,133.967513 70.3130581,134.781378 C69.6532731,135.817008 68.8872516,136.326084 67.5072946,136.137092 C66.2682409,135.966672 64.9665634,136.284571 63.6906065,136.297681 C61.0715957,136.326084 58.4514667,136.294403 55.8335742,136.286756 C55.4880258,136.286756 55.0429505,136.149109 54.8137032,136.307513 C53.5355097,137.191294 52.2919828,137.436 50.9802409,136.396 C50.8963699,136.330454 50.6469935,136.35121 50.5541763,136.426588 C49.4314237,137.331126 48.1196817,137.538689 46.7117677,137.639193 C46.4120688,137.661042 45.9379183,138.604908 45.9636387,139.103059 C46.0217892,140.227176 45.6572301,141.045412 44.8397677,141.794824 C43.6510366,142.885076 42.4611871,143.986252 41.3965849,145.189025 C40.6506925,146.032387 40.1754237,147.098605 39.468671,147.981294 C38.8100043,148.804992 38.0339183,149.543479 37.2623054,150.273227 C35.3254452,152.109613 35.0850151,154.237681 36.4828645,156.493563 C36.8161118,157.02995 36.9749075,157.758605 36.9637247,158.394403 C36.9234667,160.471126 37.0084559,162.449529 36.0433806,164.559025 C35.2773591,166.237008 36.0064774,168.567176 36.0713376,170.606756 C36.0925849,171.287345 36.2401978,171.989782 36.1149505,172.641966 C35.6027785,175.303143 35.0715957,177.934824 36.5242409,180.504235 C36.7993376,180.989277 36.9737892,181.596672 36.9760258,182.148353 C36.9883269,185.769782 36.9760258,189.392303 36.8820903,193.012639 C36.8630796,193.736924 36.6002839,194.540958 36.1977032,195.149445 C35.6150796,196.02558 35.6452731,196.694151 36.2659183,197.513479 C36.6304774,197.993059 36.9335312,198.623395 36.9760258,199.206756 C37.1202839,201.179697 37.1873806,203.160286 37.1918538,205.137597 C37.1996817,209.527008 37.1493591,213.91642 37.1359398,218.305832 C37.1348215,218.63684 37.124757,219.081462 37.3226925,219.279193 C38.6478538,220.601042 38.2542194,222.227681 38.2788215,223.795328 C38.2978323,224.952218 38.4711656,226.106924 38.468929,227.262723 C38.4666925,228.405412 37.6481118,228.845664 36.8675527,228.054739 C36.2513806,227.429866 35.6900043,226.453227 35.6698753,225.619697 C35.5681118,221.469529 35.6844129,217.314992 35.6452731,213.162639 C35.6385634,212.546504 35.3690581,211.781798 34.9429935,211.349193 C33.7945204,210.183563 33.8660903,209.039782 34.6869075,207.814067 C35.9740473,205.893563 36.2659183,204.027681 34.628757,202.114824 C34.3212301,201.755412 34.2306495,201.127261 34.2306495,200.623647 C34.2272946,195.313311 34.3066925,190.001882 34.2753806,184.691546 C34.2429505,179.240286 34.0640258,173.789025 34.0405419,168.337765 C34.0204129,163.465496 34.1546065,158.592134 34.1478968,153.719866 C34.1467785,152.889613 33.8023484,152.056084 33.5820473,151.232387 C33.3337892,150.307092 33.0430366,149.392723 32.776886,148.470706 C32.512972,147.554151 32.2322839,146.639782 32.0097462,145.713395 C31.876671,145.162807 31.7312946,144.579445 31.7838538,144.02995 C31.9180473,142.59995 31.4595527,141.420118 30.2920688,140.606252 C29.3158108,139.926756 28.9702624,139.122723 29.1838538,137.998605 C29.4377032,136.665832 29.0888,135.458689 28.0163699,134.597849 C27.5422194,134.217681 26.7191656,133.816756 26.260671,133.979529 C25.816714,134.137933 25.3973591,134.998773 25.3817032,135.562471 C25.3078968,138.312134 25.3772301,141.065076 25.3850581,143.816924 C25.3884129,144.830706 25.3112516,145.847765 25.3660473,146.858269 C25.3973591,147.411042 25.4488,148.138605 25.8021763,148.468521 C26.9361118,149.52163 26.7594237,150.779025 26.7996817,152.08995 C26.8298753,153.097176 27.2257462,154.094571 27.4773591,155.091966 C27.6506925,155.780202 27.9716387,156.45205 28.0241978,157.145748 C28.1360258,158.587765 28.1091871,160.039613 28.1505634,161.488185 C28.1617462,161.87163 28.096886,162.321714 28.2735742,162.627597 C30.3300903,166.196588 29.1950366,170.095496 29.4533591,173.834908 C29.6546495,176.760454 29.3102194,179.717681 29.3281118,182.659613 C29.3952086,193.186336 29.5171011,203.710874 29.6043269,214.237597 C29.6143914,215.443647 29.4779613,216.651882 29.512628,217.855748 C29.5294022,218.454403 29.8011441,219.043227 29.9219183,219.642975 C30.0236817,220.16079 30.1690581,220.701546 30.0896602,221.20079 C30.0684129,221.338437 29.164843,221.566756 28.9232946,221.399613 C28.4659183,221.080622 27.924671,220.523479 27.8944774,220.036252 C27.7983054,218.500286 27.9548645,216.952303 27.9593376,215.407597 C27.9772301,209.180706 27.972757,202.953815 27.9828215,196.725832 C27.9839398,195.470622 28.0342624,194.215412 28.0197247,192.960202 C28.0141333,192.386672 28.0655742,191.733395 27.8139613,191.258185 C27.0434667,189.811798 26.7281118,188.508521 28.0812301,187.177933 C28.2981763,186.964908 28.1651011,186.05163 27.8788215,185.778521 C26.8041548,184.752723 26.5749075,183.563059 26.7583054,182.197513 C26.8019183,181.867597 26.8309935,181.480874 26.6968,181.197933 C26.5324129,180.849445 26.1913376,180.581798 25.9251871,180.279193 C25.664628,180.579613 25.2307355,180.852723 25.1781763,181.184824 C25.0752946,181.840286 25.1502194,182.530706 25.2083699,183.201462 C25.3313806,184.62163 25.3269075,185.96205 24.2936172,187.172471 C23.9435957,187.582134 23.9279398,188.342471 23.9223484,188.943311 C23.8932731,191.833899 23.8843269,194.72558 23.9547785,197.615076 C23.9704344,198.288017 24.2936172,198.964235 24.5351656,199.618605 C24.7789505,200.280622 25.2944774,200.903311 25.3414452,201.567513 C25.4611011,203.294655 25.420843,205.034908 25.3761118,206.768605 C25.3626925,207.274403 25.0831226,207.769277 24.9903054,208.280538 C24.9041978,208.764487 24.9824774,209.283395 24.852757,209.753143 C24.3763699,211.49121 25.3336172,213.057765 25.4197247,214.70516 C25.5539183,217.253815 25.4085419,219.81558 25.4253161,222.37079 C25.4275527,222.776084 25.5706925,223.243647 25.808886,223.572471 C27.3912516,225.751882 27.2872516,227.39163 25.3884129,229.261882 C24.276843,230.356504 24.3428215,230.593563 25.7037677,231.247933 C26.7113376,231.731882 27.5992516,232.494403 28.6414882,232.852723 C29.912972,233.29079 31.2906925,233.430622 32.6192086,233.711378 C33.0016602,233.793311 33.3695742,233.928773 33.7497892,234.019445 C34.9183914,234.300202 36.1250151,234.478269 37.2522409,234.870454 C38.6221333,235.346756 39.9696602,235.92684 41.2422624,236.611798 C41.9143484,236.972303 42.3884989,237.246504 43.0863054,236.705748 C43.9373161,236.047008 44.5456602,236.695916 45.1349935,237.218101 C45.8115527,237.816756 45.6359828,238.378269 45.0757247,238.960538 C44.8464774,239.198689 44.5076387,239.593059 44.5758538,239.807176 C45.3441118,242.202891 43.252929,244.032723 43.2864774,246.303899 C43.3066065,247.718605 39.9752516,250.159109 38.3962409,250.132891 C36.4728,250.100118 34.5493591,250.06516 32.6270366,250.058605 C32.2389935,250.057513 31.7782624,250.067345 31.4752086,250.259613 C28.8673806,251.910286 25.9878108,250.999193 23.2245419,251.111714 C22.8107785,251.128101 22.2650581,250.829866 21.9731871,250.509782 C20.476929,248.865664 19.0980903,247.117765 17.5749935,245.498773 C15.8908645,243.710454 15.9870366,242.648605 18.2493161,241.656672 C20.5764559,240.636336 22.9483269,239.70121 25.3503914,238.858941 C26.3411871,238.510454 26.8779613,238.033059 26.8354667,237.012723 C26.7840258,235.793563 27.1597677,234.340622 25.5718108,233.77037 C23.7199398,233.103983 22.4831226,232.199445 22.7671656,229.985076 C22.9069505,228.898101 21.5460043,228.26558 20.656972,229.079445 C18.9605419,230.629613 17.0292731,230.047345 15.1684559,229.937008 C13.8544774,229.859445 12.5986495,228.312555 12.5337892,227.007092 C12.4924129,226.187765 12.4085419,225.353143 12.5136602,224.548017 C12.6724559,223.331042 12.4130151,222.293227 11.7230366,221.264151 C11.3976172,220.779109 11.284671,220.086504 11.2746065,219.483479 C11.2198108,216.347092 11.2164559,213.209613 11.2276387,210.073227 C11.2298753,209.45163 11.2153376,208.757933 11.4770151,208.221546 C13.3132301,204.449361 12.4957677,200.455412 12.5226065,196.54558 C12.5304344,195.394151 12.5024774,194.398941 13.3601978,193.464908 C13.7325849,193.057429 13.8455312,192.310202 13.8511226,191.714824 C13.8980903,186.113899 13.8656602,180.511882 13.9383484,174.909866 C13.9484129,173.987849 14.3442839,173.070202 14.5679398,172.151462 C14.6920688,171.641294 14.9380903,171.135496 14.9448,170.624235 C15.0063054,165.848101 15.0163699,161.069782 15.0745204,156.292555 C15.0823484,155.72995 15.1483269,155.07121 15.4480258,154.626588 C16.4354667,153.16163 16.5193376,151.571042 16.4835527,149.902891 C16.4175742,146.812387 16.4198108,143.721882 16.4254022,140.631378 C16.4265204,140.167092 16.4432946,139.532387 16.7318108,139.271294 C17.8500903,138.259697 17.8143054,137.018689 17.8925849,135.691378 C17.9451441,134.781378 18.5277677,133.910706 18.7827355,132.998521 C18.9672516,132.335412 19.0008,131.632975 19.1014452,130.948017 C18.5266495,130.960034 17.9015312,131.119529 17.3871226,130.952387 C16.2934452,130.596252 15.1762839,130.19205 14.2179183,129.584655 C12.960972,128.787176 12.4655742,125.974151 13.2796817,124.757176 C14.0535312,123.599193 14.9112516,122.491462 15.7633806,121.384824 C16.352714,120.617933 16.5148645,119.906756 16.004929,118.985832 C15.7544344,118.532471 15.6962839,117.745916 15.9333591,117.310034 C16.5517677,116.171714 17.3759398,115.140454 18.1285419,114.073143 C18.3242409,113.796756 18.6619613,113.576084 18.7547785,113.276756 C19.3340473,111.418521 19.8685849,109.549361 20.3986495,107.676924 C20.5037677,107.308773 20.3874667,106.814992 20.5988215,106.552807 C21.8725419,104.977513 21.5996817,103.219782 21.3905634,101.439109 C21.3290581,100.923479 21.3055742,100.30079 21.5415312,99.8725546 C23.0780473,97.0781008 22.4451011,94.0258319 22.696714,91.0871765 C22.8432086,89.3622185 22.7682839,87.6175966 22.7626925,85.8828067 C22.7604559,85.4075966 22.8096602,84.8144034 22.5546925,84.4779328 C20.6759828,81.9991933 21.7394667,79.1643193 21.4543054,76.4987731 C21.4498323,76.4517983 21.4442409,76.3829748 21.4710796,76.3567563 C23.6181763,74.3007899 22.1498753,71.231042 23.6394237,68.9981008 C23.8586065,68.6714622 24.1851441,68.4125546 24.4613591,68.1230588 C24.7185634,68.4846555 25.1703484,68.8342353 25.1960688,69.2111261 C25.2676387,70.2172605 25.0540473,71.2452437 25.1636387,72.2426387 C25.2106065,72.6697815 25.7753376,73.043395 26.1052301,73.441042 C26.3490151,73.0281008 26.7694882,72.6271765 26.8008,72.2000336 C26.8623054,71.3413782 26.6531871,70.4674286 26.6699613,69.6022185 C26.6811441,69.0483529 26.716929,68.3328067 27.0580043,67.981042 C27.9324989,67.0775966 28.0074237,66.0867563 28.0230796,64.9320504 C28.0364989,64.0133109 28.4771011,63.1000336 28.7421333,62.1867563 C28.872972,61.7355798 29.0205849,61.2854958 29.1894452,60.8452437 C29.5976172,59.7899496 29.9890151,58.725916 30.468757,57.7023025 C30.5694022,57.4881849 31.0826925,57.2696975 31.2962839,57.3450756 C31.5389505,57.4302857 31.8352946,57.8672605 31.8017462,58.1130588 C31.6921548,58.9498655 31.6530151,59.9024706 31.2045849,60.5623025 C30.572757,61.4908739 30.3401548,62.3637311 30.5805849,63.4113782 C30.8679828,64.6644034 30.4788215,65.6923866 29.8156817,66.8132269 C29.3281118,67.6391092 29.5238108,68.8353277 29.3426495,69.853479 C29.1715527,70.8191933 28.8964559,71.7663361 28.6828645,72.7265882 C28.456972,73.7425546 28.2657462,74.7672605 28.0309075,75.7821345 C27.7558108,76.9717983 27.3196817,78.1407059 27.1832516,79.343479 C26.9226925,81.6714622 24.8236817,83.468521 25.2844129,86.0171765 C25.3839398,86.5699496 25.0160258,87.3674286 24.596671,87.8120504 C23.8418323,88.6128067 23.9782624,89.1524706 24.6291011,89.9193613 C25.8424344,91.346084 25.6925849,92.8918824 24.4546495,94.3240672 C24.1426495,94.6845714 23.9279398,95.2526387 23.9312946,95.7245714 C23.9424774,97.4112941 24.1460043,99.1002017 24.1057462,100.783647 C24.0923269,101.424908 23.7624344,102.178689 23.3251871,102.667008 C22.3288,103.781294 22.1208,105.689782 23.0467355,106.867429 C23.6405419,107.62121 26.0269505,108.097513 26.9081548,107.523983 C27.1441118,107.371042 27.2592946,106.635832 27.0904344,106.375832 C26.704628,105.778269 25.9676817,105.379529 25.6433806,104.764487 C25.3817032,104.267429 25.5125419,103.570454 25.4700473,102.963059 C26.0235957,103.132387 26.6531871,103.194655 27.1128,103.499445 C27.6294452,103.840286 27.9537462,104.443311 28.4312516,104.857345 C30.0136172,106.230538 30.0248,106.217429 29.0071656,108.018857 C29.9375742,108.912471 31.0949935,108.986756 32.2278108,108.631714 C33.3304344,108.286504 33.0866495,107.292387 33.0665204,106.414067 C33.0217892,104.438941 32.0186925,103.306084 30.2026065,102.446336 C28.928886,101.843311 27.8598108,100.730118 26.8880258,99.6791933 C26.5995097,99.3667563 26.9495312,98.4917143 27.0076817,97.8744874 C27.5254452,98.0962521 28.1393806,98.2120504 28.5386065,98.5616303 C29.2710796,99.2007059 29.7854882,100.101966 30.5671656,100.653647 C31.0703914,101.008689 32.1070366,101.239193 32.5084989,100.967176 C32.9211441,100.687513 33.1638108,99.5907059 32.9323269,99.0958319 C32.3295742,97.8023866 32.2121548,96.9033109 33.6938753,96.1145714 C34.088628,95.9048235 34.2463054,95.0090252 34.260843,94.4212941 C34.3380043,91.0915462 34.3212301,87.7596134 34.3771441,84.4276807 C34.3961548,83.2675126 33.8045849,82.5432269 32.8708215,81.9533109 C32.2904344,81.5873445 31.764843,81.1372605 31.2146495,80.7254118 C31.2660903,80.5801176 31.3186495,80.4348235 31.3712086,80.2895294 C31.9191656,80.2108739 32.4660043,80.1158319 33.0161978,80.0568403 C34.6242839,79.8853277 35.0358108,79.3522185 34.7841978,77.8075126 C34.7316387,77.4896134 34.7540043,77.1378487 34.836757,76.8254118 C35.3522839,74.8786891 35.9293161,72.9472605 36.4146495,70.9939832 C36.6975742,69.853479 36.2961118,69.0953277 34.9497032,69.0538151 C34.5583054,69.0417983 34.0494882,69.0756639 33.8068215,68.8604538 C33.380757,68.4824706 32.8786495,67.9329748 32.8697032,67.4479328 C32.8641118,67.106 33.5764559,66.5324706 34.0472516,66.438521 C36.9737892,65.8518824 37.0140473,65.8857479 36.8865634,63.0246555 C36.8172301,61.4821345 37.2175742,60.2203697 38.4219613,59.1377647 C39.9484129,57.7645714 39.7135742,56.5596134 37.844929,55.5447395 C36.8999828,55.0323866 35.9762839,54.4457479 34.9698323,54.0939832 C34.3301763,53.8711261 33.4344344,53.7738992 32.8641118,54.0448235 C31.3745634,54.7527227 29.9655312,55.6430588 28.588929,56.5563361 C27.2190366,57.4663361 25.9296602,58.4932269 24.6044989,59.4665882 C24.4859613,59.5528908 24.2913806,59.5976807 24.2432946,59.7080168 C23.3564989,61.7170084 22.480886,63.7314622 21.6231656,65.7524706 C21.5538323,65.9152437 21.7115097,66.1861681 21.6242839,66.3194454 C20.3841118,68.206084 20.5171871,70.4805378 19.7724129,72.5102857 C19.3698323,73.6103697 19.2244559,74.8000336 18.9750796,75.9525546 C18.7458323,77.003479 18.5445419,78.060958 18.3063484,79.1096975 C18.2336602,79.4352437 17.9507355,79.7564202 17.9831656,80.0557479 C18.1620903,81.6649076 17.1243269,82.6688571 16.136886,83.6717143 C14.7502194,85.0776807 14.2346925,86.8474286 13.780671,88.6575966 C13.7214022,88.8891933 13.7851441,89.2322185 13.6420043,89.3480168 C13.2617892,89.6549916 12.7999398,89.8658319 12.3716387,90.1149076 C12.1524559,89.691042 11.6592946,89.1896134 11.7565849,88.8542353 C12.4789935,86.4104538 13.5872086,84.1600336 14.9459183,81.9511261 C15.9210581,80.366 16.2151656,78.2794454 16.4198108,76.3764202 C16.5853161,74.8448235 16.6255742,73.4399496 17.3815312,71.9596975 C18.2660903,70.226 18.5076387,68.1798655 19.0466495,66.2757479 C19.1629505,65.8682689 19.3754237,65.4881008 19.5219183,65.0871765 C19.7746495,64.4000336 20.0229075,63.7107059 20.2499183,63.0148235 C20.3818753,62.6095294 20.3684559,62.1244874 20.5943484,61.7880168 C21.4587785,60.5087731 22.4383914,59.3038151 23.292757,58.0191092 C24.8672946,55.648521 27.5288,54.7691092 29.8615312,53.4942353 C31.3477247,52.6814622 31.8431226,51.6742353 31.8464774,50.1251597 C31.8475957,49.3091092 32.3374022,48.5017983 32.3810151,47.6791933 C32.4134452,47.0652437 32.2859613,46.2229748 31.8777892,45.8493613 C30.8299613,44.893479 29.7351656,44.0981849 29.3001548,42.613563 C28.9300043,41.3496134 27.3811871,41.1944874 26.440714,42.1896975 C26.0403699,42.6146555 25.7261333,43.1226387 25.2955957,43.5148235 C24.2578323,44.4619664 23.3140043,44.4586891 22.3780043,43.4077647 C21.6388215,42.578605 20.9521978,42.6070084 20.240972,43.2974286 C19.0500043,44.4532269 17.9462624,45.6953277 16.7262194,46.8194454 C16.3672516,47.1493613 15.7421333,47.2039832 15.2389075,47.3842353 C15.2176602,46.8150756 15.1226065,46.2349916 15.2042409,45.6789412 C15.2556817,45.326084 15.6370151,45.0300336 15.7432516,44.6717143 C15.8114667,44.4390252 15.7387785,44.0457479 15.5710366,43.9004538 C15.4111226,43.7638992 15.0320258,43.8043193 14.7703484,43.8600336 C13.8265204,44.0632269 12.8681548,44.243479 11.9589935,44.555916 C11.3372301,44.7700336 10.7020473,45.0977647 10.2256602,45.5336471 C9.22032688,46.4567563 8.30781075,47.4770924 7.37181075,48.4690252 C6.74557419,49.1321345 6.02204731,49.3823025 5.30075699,48.7312101 C4.40166022,47.9206218 3.74075699,48.1533109 3.0832086,48.983563 C2.90316559,49.2107899 2.69963871,49.521042 2.45697204,49.5745714 C2.02643441,49.668521 1.4684129,49.7373445 1.13740215,49.5396134 C0.939466667,49.4205378 0.880197849,48.5793613 1.07813333,48.4012941 C2.73766022,46.9101176 3.76424086,44.8071765 6.24458495,44.0861681 C8.18927312,43.5213782 9.97292903,42.363395 11.7521118,41.3408739 C13.0839828,40.5761681 14.4091441,40.1020504 15.9669075,40.3522185 C17.2417462,40.5565042 18.2571441,40.0823866 19.4100903,39.4771765 C21.0125849,38.6381849 22.8991226,38.2711261 24.700671,37.8549076 C26.4999828,37.4375966 26.8276387,37.0880168 26.7303484,35.3138992 C26.6375312,33.6282689 26.4776172,31.9207899 26.6632516,30.2548235 C26.7884989,29.1307059 27.3319828,27.9891092 27.9269075,26.9928067 C28.4592086,26.103563 28.4860473,25.4502857 27.8754667,24.630958 C26.1868645,22.3717983 25.0283269,19.8482689 24.816972,17.0603697 C24.7509935,16.1831429 25.4063054,15.1442353 25.9833376,14.3544034 C26.8857892,13.1199496 28.1404989,12.1881008 28.4838108,10.5155798 C28.6012301,9.94095798 29.7675957,9.47448739 30.536972,9.14457143 C32.2334022,8.4170084 33.9734452,7.78230252 35.7146065,7.16179832 C36.416886,6.91163025 37.1896172,6.60028571 37.8952516,6.66583193 C39.2181763,6.79036975 39.9472946,6.55986555 40.6965419,5.26095798 C41.6705634,3.57751261 43.2428645,2.22070588 44.5792086,0.742638655 C44.7234667,0.583142857 45.0119828,0.487008403 45.2401118,0.472198219 C45.8842409,0.434571429 48.2259183,2.20868908 48.4484559,2.83902521 C48.5602839,3.1547395 48.6620473,3.50759664 48.8801118,3.74793277 C49.5231226,4.45801681 49.5510796,5.0665042 48.8063054,5.73835294 C48.0783054,6.39381513 48.2650581,7.12028571 48.8130151,7.8052437 C49.3743914,8.50440336 50.0364129,8.73272269 50.6179183,7.9057479 C51.2363269,7.02633613 51.9632086,7.08205042 52.8142194,7.42179832 C55.0116387,8.29793277 57.0972301,9.16532773 58.1506495,11.5981849 C58.9625204,13.476084 60.4598968,15.0655798 61.3343914,16.9270924 C61.9651011,18.2729748 62.0500903,19.8591933 62.4213591,21.328521 C62.6629075,22.2789412 62.8172301,23.3036471 63.3025634,24.1306218 C64.1714667,25.6075966 64.1177892,26.5765882 62.9860903,27.933395 C61.6955957,29.4802857 60.4844989,31.0992773 59.3472086,32.7565042 C59.124671,33.080958 59.4109505,33.7276807 59.4355527,34.2269244 C59.4691011,34.9064202 59.7140043,35.6962521 59.4523269,36.2490252 C58.2445849,38.8031429 58.1182194,41.3223025 59.3595097,43.8665882 C59.9656172,45.1065042 60.3380043,46.2273445 59.2353806,47.4661681 C58.4883699,48.3040672 58.8383914,48.9824706 59.9823914,48.9245714 C61.4909505,48.8491933 62.4940473,49.5286891 63.4747785,50.4911261 C63.9813591,50.9892773 64.6724559,51.3049916 65.2696172,51.7179328 C65.5827355,51.9353277 66.0099183,52.1265042 66.1508215,52.4312941 C67.8237677,56.0527227 71.2110366,57.6269244 74.5669935,59.2557479 C76.6078538,60.2476807 77.5315527,62.1507059 78.4955097,64.0012941 C79.2537032,65.4575126 79.8396817,67.0153277 80.7365419,68.3819664 C81.6334022,69.7496975 81.7429935,71.1512941 81.6434667,72.6686891 C81.6054452,73.2312941 81.5137462,74.0254958 81.8335742,74.3368403 C83.6217032,76.0825546 82.9552086,78.1822185 82.9675097,80.2141513 C82.9719828,80.9362521 83.3108215,81.6616303 83.5221763,82.3782689 C83.7771441,83.2303697 84.3597677,84.1065042 84.2725419,84.9181849 C84.0220473,87.2472605 84.9971871,89.1251597 86.0371871,91.0707899 C86.5102194,91.953479 86.6790796,93.0262521 86.8155097,94.0345714 C86.9497032,95.0319664 86.724929,96.0839832 86.9150366,97.0649916 C87.3433376,99.276084 86.4229935,101.099361 85.4109505,102.922639 C85.2745204,103.167345 85.0732301,103.483059 84.8361548,103.554067 C82.8075957,104.159277 82.7740473,105.685412 83.0435527,107.291294 C83.2336602,108.424151 83.0592086,109.333059 82.2037247,110.199361 C81.8123269,110.595916 81.6457032,111.321294 81.6121548,111.910118 C81.5394667,113.257092 81.5405849,114.617176 81.6445849,115.963059 C81.7396387,117.210622 81.7497032,118.324908 80.6728,119.277513 C80.3865204,119.530958 80.3798108,120.386336 80.5788645,120.815664 C81.1693161,122.076336 82.0594667,123.211378 82.5738753,124.494992 C82.9540903,125.444319 82.8791656,126.559697 83.1050581,127.581126 C83.3164129,128.538101 83.5054022,129.549697 83.9750796,130.393059 C84.7243269,131.738941 84.3754237,133.891042 82.9932301,134.593479 C82.6297892,134.778101 81.9979613,134.58037 81.5394667,134.421966 C81.0418323,134.250454 80.6213591,133.758857 80.1315527,133.704235 C79.6149075,133.646336 79.0580043,133.938017 78.5189935,134.077849 C78.6520688,134.558521 78.6218753,135.244571 78.9439398,135.486 C80.8483699,136.919277 80.4491441,138.857261 80.4211871,140.785412 C80.4066495,141.726 80.7913376,142.673143 81.004929,143.614824 C81.2274667,144.583815 81.6490581,145.548437 81.656886,146.517429 C81.6893161,150.715664 81.5853161,154.914992 81.5774882,159.114319 C81.5774882,159.667092 81.6881978,160.340034 82.016972,160.754067 C83.1005849,162.118521 83.2146495,163.64684 83.1978753,165.276756 C83.1755097,167.650622 82.8623914,169.984067 84.1517677,172.318605 C84.8182624,173.52684 84.3597677,175.338101 84.3709505,176.877345 C84.4033806,181.464487 84.4145634,186.050538 84.4469935,190.636588 C84.4503484,191.015664 84.4380473,191.46684 84.6292731,191.761798 C86.5974452,194.795496 85.1112516,198.179866 85.6882839,201.347933 C85.6961118,201.392723 85.6882839,201.452807 85.6625634,201.488857 C83.5848,204.464655 84.8462194,207.852303 84.4324559,211.032387 C84.4257462,211.080454 84.4168,211.133983 84.4335742,211.176588 C85.4937032,213.998353 84.4134452,216.837597 84.4872516,219.668101 C84.5621763,222.558689 84.4324559,225.453647 84.4302194,228.347513 C84.4291011,229.247681 84.1428215,229.752387 83.1665634,229.986168 C82.4855312,230.148941 81.864886,230.620874 81.2643699,231.020706 C79.9470366,231.899025 78.6833806,232.539193 77.0439828,231.597513 C75.792628,230.878689 74.972929,231.707849 74.4820043,232.768605 C73.2955097,235.33037 71.1294022,236.170454 68.4544774,236.130034 C66.7200258,236.102723 66.2984344,236.595412 66.3800688,238.255916 C66.4236817,239.129866 66.3219183,240.123983 65.9226925,240.87995 C64.8614452,242.888941 64.6467355,244.716588 66.0389935,246.702639 C66.9380903,247.988437 66.8184344,249.521126 65.8835527,250.793815 C65.1622624,251.773731 64.8737462,252.564655 65.6721978,253.658185 C65.9115097,253.983731 65.7314667,254.900286 65.4082839,255.262975 C64.4398538,256.352134 63.3517677,257.353899 62.2144774,258.278101 C61.764929,258.642975 61.0682409,258.872387 60.4777892,258.886588 C58.3530581,258.939025 56.2272086,258.881126 54.1024774,258.842891 C53.6663484,258.834151 53.0591226,258.886588 52.8242839,258.641882 C51.5975312,257.361546 50.2623054,256.285496 48.564757,255.639866 C48.3724129,255.566672 48.2594667,254.807429 48.3981333,254.482975 C48.9158968,253.264908 48.5915957,252.232555 47.9150366,251.202387 C46.9477247,249.728689 46.7542624,248.431966 48.1498753,246.913479 C49.1518538,245.823227 48.868929,244.180202 48.0324559,242.977429 C47.0718538,241.596588 47.1523699,240.137092 47.2776172,238.660118 C47.3838538,237.425664 48.6698753,236.89037 49.8753806,237.634319 C50.8404559,238.229697 51.6467355,237.992639 52.6833806,237.938017 C55.6949075,237.780706 58.1417032,236.478521 60.648886,235.157765 C60.8960258,235.026672 61.2404559,234.946924 61.508843,234.997176 C63.1012731,235.298689 64.4186065,234.89121 65.8231656,234.052218 C66.9448,233.382555 68.4757247,233.404403 69.7583914,232.942303 C72.2051871,232.061798 73.5001548,229.871462 75.1026495,228.073311 C75.3699183,227.773983 75.1104774,226.778773 74.7951226,226.287176 C74.2885419,225.499529 74.3534022,224.941294 74.8387355,224.180958 C75.1965849,223.620538 75.348671,222.875496 75.3945204,222.199277 C75.4627355,221.193143 75.348671,220.174992 75.3296602,219.16121 C75.3061763,217.903815 75.6237677,216.95121 77.0831226,216.508773 C77.5483269,216.367849 77.7518538,215.405412 78.0750366,214.817681 C77.6131871,214.638521 77.1602839,214.343563 76.6850151,214.304235 C75.5879828,214.212471 75.2491441,213.507849 75.1965849,212.641546 C75.1350796,211.633227 75.7355957,211.010538 76.7319828,210.818269 C77.0965419,210.748353 77.4946495,210.837933 78.128714,210.865244 C77.9576172,210.300454 77.8379613,209.876588 77.7015312,209.458185 C77.3694022,208.443311 76.7789505,207.439361 76.7398108,206.414655 C76.6022624,202.798689 76.6559398,199.177261 76.6235097,195.559109 C76.6201548,195.227008 76.636929,194.811882 76.4535312,194.579193 C74.4428645,192.03163 75.5108215,189.096252 75.2871656,186.322555 C75.2144774,185.41037 74.8722839,184.520034 74.6709935,183.614403 C74.5513376,183.074739 74.4260903,182.529613 74.3813591,181.980118 C74.3601118,181.708101 74.6542194,181.365076 74.5636387,181.15205 C74.2874237,180.497681 73.8937892,179.891378 73.544886,179.265412 C73.2664344,179.826924 72.7497892,180.386252 72.7497892,180.947765 C72.7419613,184.954824 72.8280688,188.962975 72.9097032,192.970034 C72.9376602,194.338857 72.9712086,195.654151 71.8395097,196.741126 C71.5084989,197.059025 71.4235097,197.707933 71.3899613,198.215916 C71.3083269,199.417597 71.3251011,200.626924 71.304972,201.832975 C71.2826065,203.091462 71.8070796,203.856168 73.1959828,203.914067 C73.6824344,203.934824 74.1912516,204.004739 74.6463914,204.167513 C75.7892731,204.578269 76.0945634,205.38995 75.3117677,206.306504 C74.4014882,207.370538 73.9653591,208.487008 73.9933161,209.876588 C74.0033806,210.373647 73.6019183,210.953731 73.2351226,211.36558 C72.360628,212.348773 71.3944344,213.252218 70.4651441,214.189529 C69.2920688,215.371546 68.3079828,216.616924 68.9632946,218.42163 C69.0102624,218.55163 69.0359828,218.744992 68.9722409,218.848773 C67.9702624,220.453563 67.0063054,222.085664 65.8913806,223.612891 C65.6867355,223.892555 64.856972,223.734151 64.3157247,223.776756 C64.3973591,223.246924 64.3302624,222.632975 64.5863484,222.20037 C65.4854452,220.67205 66.548929,219.235496 67.4323699,217.700622 C67.6839828,217.262555 67.6426065,216.590706 67.5564989,216.054319 C67.3484989,214.761966 67.4200688,213.616 68.3180473,212.508269 C68.7642409,211.957681 68.9722409,211.108857 69.0102624,210.381294 C69.0874237,208.890118 68.8771871,207.383647 68.9744774,205.895748 C69.0572301,204.637261 69.4553376,203.400622 69.6241978,202.143227 C69.7695742,201.054067 69.7192516,199.939782 69.8858753,198.854992 C70.0111226,198.036756 70.348843,197.250202 70.5836817,196.447261 C70.8252301,195.624655 71.2445849,194.80205 71.2602409,193.973983 C71.3228645,190.644235 71.2378753,187.313395 71.2490581,183.982555 C71.2725419,177.176672 71.340757,170.372975 71.3541763,163.568185 C71.3586495,161.254403 71.3977892,158.92642 71.1450581,156.634487 C71.0254022,155.557345 70.2683269,154.541378 69.7281978,153.533059 C69.6912946,153.463143 68.7743054,153.655412 68.7508215,153.799613 C68.6613591,154.357849 68.8660043,154.958689 68.7832516,155.519109 C68.5987355,156.768857 68.3135742,158.005496 68.0518968,159.243227 C68.0138753,159.426756 67.7980473,159.600454 67.8148215,159.763227 C68.0228215,161.683731 67.3160688,163.348605 66.5545204,165.075748 C65.7717247,166.854235 65.364671,168.791126 64.8032946,170.660286 C64.4789935,171.741798 64.1759398,172.828773 63.8672946,173.913563 C63.8281548,174.052303 63.844929,174.215076 63.776714,174.335244 C63.0587785,175.605748 62.2703914,176.841294 61.6296172,178.147849 C61.3187355,178.782555 61.2851871,179.546168 61.1118538,180.247513 C60.9060903,181.085412 60.7003269,181.924403 60.4643699,182.754655 C60.3033376,183.32163 60.0573161,183.866756 59.9108215,184.437008 C59.816886,184.802975 59.9186495,185.225748 59.7911656,185.574235 C58.3262194,189.593311 56.5872946,193.486756 54.3417892,197.162807 C53.8955957,197.892555 53.8832946,198.864824 53.5869505,199.697261 C53.396843,200.23037 53.168714,200.930622 52.7392946,201.149109 C52.3557247,201.343563 51.4823484,201.144739 51.1815312,200.812639 C50.8963699,200.496924 50.9321548,199.743143 51.0764129,199.250454 C51.3951226,198.158017 51.8692731,197.108185 52.2841548,196.043059 C52.3534882,195.863899 52.4082839,195.654151 52.5380043,195.525244 C55.5942624,192.476252 55.864886,188.068269 58.1059183,184.617261 C58.4033806,184.158437 58.3832516,183.508437 58.5398108,182.955664 C59.1559828,180.794824 59.7788645,178.636168 60.412929,176.48079 C60.6388215,175.707345 60.8826065,174.938269 61.1565849,174.180118 C61.8029505,172.388521 62.4683269,170.603479 63.1392946,168.819529 C63.2041548,168.643647 63.416628,168.512555 63.4591226,168.337765 C64.0238538,166.004319 64.5841118,163.670874 65.1130581,161.329782 C65.2181763,160.867681 65.0146495,160.260286 65.2506065,159.917261 C67.1639828,157.135916 66.2503484,154.030118 66.4415742,151.04995 C66.4885419,150.321294 66.6965419,149.53037 67.0778753,148.914235 C67.5341333,148.17684 68.2274667,147.359697 67.3283699,146.796 C66.6272086,146.354655 65.5268215,146.515244 64.6020043,146.424571 C64.5304344,146.418017 64.4532731,146.553479 64.3638108,146.58516 C63.7420473,146.809109 63.1158108,147.023227 62.4918108,147.240622 C62.4895742,146.511966 62.284929,145.713395 62.5186495,145.06558 C63.3282839,142.833731 64.2519828,140.639025 65.2237677,138.469445 C65.4205849,138.031378 66.0378753,137.479697 66.4315097,137.500454 C66.868757,137.523395 67.6269505,138.146084 67.6235957,138.500034 C67.6112946,139.395832 67.2579183,140.288353 67.0241978,141.177597 C66.8564559,141.818857 66.3051441,142.763815 66.5478108,143.029277 C67.1270796,143.660706 68.0619613,144.000454 68.8917247,144.376252 C68.9990796,144.425412 69.4419183,144.038689 69.5459183,143.783059 C70.4774452,141.494403 71.6628215,139.259277 71.0623054,136.636336 C70.9884989,136.317345 71.4715957,135.877092 71.6974882,135.492555 C72.0463914,135.829025 72.6838108,136.157849 72.6949935,136.505244 C72.7542624,138.362387 73.4777892,140.276336 71.7780043,141.991462 C71.2803699,142.493983 71.3675957,144.20037 71.8719398,144.84163 C72.5473806,145.700286 72.8761548,146.456252 72.7531441,147.44163 C72.5630366,148.971042 73.0260043,150.118101 74.3601118,151.055412 C75.8474237,152.099782 75.7065204,153.797429 75.5879828,155.319193 C75.4772731,156.726252 75.6438968,157.974908 76.3674237,159.211546 C76.6626495,159.717345 76.7230366,160.40558 76.728628,161.012975 C76.748757,163.280874 76.6961978,165.549866 76.6838968,167.818857 C76.6816602,168.103983 76.6660043,168.453563 76.816972,168.665496 C78.3702624,170.837261 77.9162409,173.291966 77.8580903,175.678941 C77.8435527,176.280874 77.5684559,176.876252 77.3146065,177.853983" id="Fill-1" fill="#231916" mask="url(#mask-2)"></path>
                </g>
                <path d="M20.0065806,108.07195 C19.6979355,108.430269 19.1376774,108.791866 19.1689892,109.096655 C19.2651613,110.045983 19.3613333,111.116571 19.8690323,111.878 C20.7267527,113.161613 21.7555699,114.249681 21.7376774,115.965899 C21.7298495,116.589681 22.3695054,117.372958 22.9353548,117.812118 C23.652172,118.369261 24.2884731,117.965059 24.3276129,117.086739 C24.3477419,116.650857 24.0312688,116.201866 23.8803011,115.755059 C23.5381075,114.736908 23.2697204,113.690353 22.8526022,112.70279 C22.2621505,111.303378 21.5833548,109.937832 20.8933763,108.582118 C20.7882581,108.375647 20.4169892,108.299176 20.0065806,108.07195 M10.3524731,127.458336 L10.0483011,127.515143 C10.0483011,128.142202 9.99350538,128.774723 10.0740215,129.389765 C10.1075699,129.650857 10.3826667,129.951277 10.632043,130.083462 C10.7338065,130.138084 11.2482151,129.797244 11.2504516,129.633378 C11.2616344,128.130185 12.4179355,127.438672 13.3259785,126.506824 C13.7621075,126.060017 13.9309677,125.189345 13.8996559,124.526235 C13.8482151,123.44363 14.0237849,122.568588 14.8490753,121.778756 C15.6564731,121.005311 15.652,120.053798 14.7036989,119.420185 C13.4132043,118.558252 12.0433118,117.781529 10.6208602,117.153378 C10.3021505,117.012454 9.49922581,117.530269 9.14137634,117.932286 C8.31496774,118.860857 7.60821505,119.895395 6.88133333,120.905899 C6.1332043,121.945899 5.32245161,122.959681 4.71187097,124.073966 C4.00511828,125.36195 3.42249462,126.725311 2.93492473,128.106151 C2.82533333,128.419681 3.3307957,128.939681 3.55221505,129.364639 C4.47815054,128.765983 5.63221505,128.337748 6.26963441,127.523882 C6.98309677,126.613882 7.16202151,125.323714 7.69208602,124.254218 C8.19866667,123.236067 9.06421505,123.168336 9.53277419,124.182118 C9.99797849,125.188252 10.0941505,126.359345 10.3524731,127.458336 M9.08658065,110.267748 C8.23892473,112.367412 9.53836559,113.643378 11.1822366,114.732538 C11.9549677,115.242706 12.7757849,115.68842 13.5954839,116.12758 C15.1443011,116.958924 16.6796989,117.827412 18.2855484,118.54405 C18.7697634,118.760353 19.4630968,118.525479 20.0613763,118.497076 C19.9629677,117.978168 19.9070538,117.447244 19.7549677,116.94363 C19.5771613,116.352622 19.3590968,115.763798 19.0784086,115.212118 C18.5729462,114.216908 18.0171613,113.245731 17.4624946,112.276739 C17.163914,111.755647 16.5701075,111.26842 16.5455054,110.746235 C16.4101935,107.830521 14.8658495,105.714471 12.7098065,103.923966 C11.9583226,103.300185 11.1307957,103.413798 10.7751828,104.321613 C10.0337634,106.221361 8.50060215,107.906992 9.08658065,110.267748 M7.11169892,128.646908 C6.30989247,129.705479 5.64563441,130.552118 5.01604301,131.42279 C4.50498925,132.127412 3.9928172,132.836403 3.55780645,133.585815 C3.05458065,134.45321 2.28184946,135.020185 1.38834409,134.582118 C0.774408602,134.281697 0.109032258,133.443798 0.059827957,132.802538 C-0.0866666667,130.901697 -0.0307526882,129.048924 1.01148387,127.21363 C2.2304086,125.068084 2.88572043,122.624303 3.95703226,120.389176 C4.37526882,119.518504 5.21509677,118.813882 5.94868817,118.118 C6.89251613,117.221109 6.98421505,116.332958 6.79410753,115.020941 C6.37139785,112.115059 6.07058065,109.226655 7.22352688,106.239933 C7.92133333,104.433042 8.75333333,102.895983 9.99015054,101.468168 C10.7215054,100.622622 11.4741075,100.43363 12.4347097,101.084723 C12.8350538,101.356739 13.2756559,101.637496 13.7397419,101.74237 C14.7327742,101.966319 15.1219355,102.579176 15.5021505,103.46405 C15.8566452,104.289933 16.5432688,105.093966 17.295871,105.613966 C18.2273978,106.255227 19.3188387,105.528756 19.063871,104.442874 C18.647871,102.672034 19.6464946,101.817748 20.9861935,101.126235 C23.3468817,99.9070756 24.2403871,97.8871597 24.2873548,95.420437 C24.3052473,94.4842185 24.1419785,93.513042 25.3553118,93.1722017 C26.620086,92.8171597 27.9418925,91.9038824 28.9941935,93.6288403 C29.6472688,94.6983361 30.4501935,94.3203529 30.9332903,93.4726218 C31.6668817,92.1813613 32.4452043,91.797916 33.6887312,92.8859832 C33.9917849,93.1503529 34.5654624,93.1001008 34.9154839,93.3349748 C35.3225376,93.6069916 35.8503656,94.0035462 35.9062796,94.4011933 C35.9644301,94.8163193 35.6311828,95.5209412 35.2677419,95.6913613 C34.8450323,95.888 34.1997849,95.6695126 33.6618925,95.575563 C33.4963871,95.5471597 33.3812043,95.2445546 33.2168172,95.2172437 C32.6643871,95.1287563 32.1007742,95.108 31.5416344,95.0621176 C31.8033118,95.6170756 31.9621075,96.2616134 32.3613333,96.6985882 C32.6487312,97.0143025 33.3633118,96.9422017 33.6887312,97.2469916 C34.0734194,97.6064034 34.5050753,98.2301849 34.427914,98.6551429 C34.3596989,99.0320336 33.6563011,99.4897647 33.1754409,99.5662353 C32.0426237,99.7475798 31.0048602,99.5050588 30.5150538,98.2673277 C30.3573763,97.8674958 30.1191828,97.482958 29.851914,97.1399328 C29.4403871,96.6133782 28.9807742,95.7186723 28.5233978,95.7077479 C27.3369032,95.6782521 26.0766022,96.3566555 26.0027957,97.5441345 C25.8193978,100.548336 23.5448172,102.020941 21.6694624,103.807076 C20.8341075,104.603462 20.6171613,105.148588 21.4905376,106.206067 C22.5830968,107.526824 23.2831398,109.157832 24.1453333,110.65884 C24.2169032,110.782286 24.1978925,110.984387 24.2951828,111.060857 C27.1043011,113.277412 27.1076559,117.800101 31.1457634,119.029092 C31.3537634,119.092454 31.5930753,119.833126 31.515914,119.894303 C31.0954409,120.227496 30.2701505,120.772622 30.1415484,120.656824 C28.2259355,118.918756 26.468,119.008336 24.5110108,120.663378 C24.0659355,121.041361 22.980086,120.710353 22.1905806,120.68195 C19.6722151,120.59237 17.5877419,121.854134 16.6774624,124.162454 C16.1406882,125.529092 15.9203871,127.030101 15.2784946,128.339933 C14.5102366,129.908672 13.5529892,131.420605 12.4749677,132.805815 C11.5244301,134.026067 10.3155699,135.059513 9.18051613,136.134471 C8.51178495,136.769176 7.71780645,137.595059 6.75944086,136.803042 C5.7664086,135.981529 6.33673118,135.05842 7.01888172,134.269681 C8.37982796,132.694387 7.68649462,130.873294 7.6328172,129.138504 C7.62610753,128.926571 7.20116129,128.726655 7.11169892,128.646908" id="Fill-3" fill="#231916"></path>
                <path d="M32.7587699,101.852924 C33.9877591,101.856202 35.8687054,103.480655 35.9279742,104.339311 C35.9861247,105.175025 35.6461677,105.668807 34.691157,105.309395 C33.9620387,105.035193 33.1635871,104.833092 32.5585978,104.388471 C32.1358882,104.078218 31.7254796,103.373597 31.7936946,102.913681 C31.8619097,102.454857 32.5339957,102.080151 32.7587699,101.852924" id="Fill-5" fill="#231916"></path>
                <path d="M56.5286968,24.3576303 C57.9567398,24.457042 58.8569548,24.7836807 58.6869763,25.8892269 C58.6142882,26.3556975 57.585471,27.1433445 57.4210839,27.0515798 C56.6740731,26.6342689 56.0802667,25.9558655 55.4316645,25.3714118 C55.8700301,24.9661176 56.3083957,24.5608235 56.5286968,24.3576303" id="Fill-7" fill="#231916"></path>
                <path d="M57.8293677,29.8934454 C57.2937118,30.2331933 56.7177978,30.8853782 56.2313462,30.827479 C55.6867441,30.7619328 55.2237763,30.0529412 54.7250237,29.6236134 C55.2282495,29.137479 55.6710882,28.3760504 56.2537118,28.2558824 C56.6842495,28.167395 57.2948301,28.9135294 57.8260129,29.2882353 C57.8271312,29.4892437 57.8282495,29.6913445 57.8293677,29.8934454" id="Fill-9" fill="#231916"></path>
            </g>
        </g>
    </g>
</svg>