<?xml version="1.0" encoding="UTF-8"?>
<svg width="240px" height="240px" viewBox="0 0 240 240" version="1.1" xmlns="http://www.w3.org/2000/svg" xmlns:xlink="http://www.w3.org/1999/xlink">
    <!-- Generator: Sketch 60 (88103) - https://sketch.com -->
    <title>figure2</title>
    <desc>Created with Sketch.</desc>
    <defs>
        <polygon id="path-1" points="0 0.347169811 239.51758 0.347169811 239.51758 239.496825 0 239.496825"></polygon>
    </defs>
    <g id="页面-1" stroke="none" stroke-width="1" fill="none" fill-rule="evenodd">
        <g id="桌面端-HD" transform="translate(-39.000000, -50.000000)">
            <g id="figure2" transform="translate(39.000000, 50.000000)">
                <g id="编组" transform="translate(0.000000, 0.155975)">
                    <mask id="mask-2" fill="white">
                        <use xlink:href="#path-1"></use>
                    </mask>
                    <g id="Clip-2"></g>
                    <path d="M168.011925,83.2388428 C167.723623,82.7774591 167.527899,82.0906667 167.122365,81.9286541 C166.765132,81.785761 166.054189,82.1072704 165.71356,82.4418616 C165.191296,82.9530566 164.601107,83.6111698 164.494943,84.2793459 C164.332931,85.3017358 164.55834,86.3850063 164.61922,87.4421132 C165.369409,86.8348176 166.225761,86.3170818 166.837585,85.5930566 C167.351799,84.9847547 167.582239,84.1354465 168.011925,83.2388428 M8.46576101,191.422491 C7.21695597,192.893182 6.52714465,193.705258 5.83783648,194.517333 C7.29444025,195.442616 8.72538365,196.415698 10.2438742,197.226264 C10.4139371,197.31683 11.5143145,196.243119 11.4448805,196.11683 C10.664,194.701484 9.73771069,193.366642 8.46576101,191.422491 M226.372679,184.29444 C226.279094,184.417208 225.621484,185.009912 225.314566,185.747522 C224.831044,186.909786 224.532176,188.158591 224.255447,189.392805 C224.102994,190.07205 223.881107,190.97922 224.193057,191.44966 C224.500981,191.914063 225.593308,192.326138 226.082365,192.125887 C228.856704,190.990792 231.609912,189.772176 234.252428,188.361862 C235.659723,187.610164 235.570667,186.075069 234.206642,185.740981 C231.898214,185.175447 229.528403,184.860478 226.372679,184.29444 M140.480352,204.947019 C139.996327,203.84966 139.891673,203.318843 139.584252,202.964629 C137.901736,201.025509 136.223245,199.073811 134.397333,197.275069 C134.110038,196.992302 132.536704,197.334943 132.467774,197.612679 C131.728654,200.600855 129.652679,202.432302 127.358843,204.186767 C127.130918,204.360855 127.661736,206.114314 127.812679,206.110296 C129.937962,206.052931 132.218214,206.231547 134.130164,205.493937 C135.632553,204.914818 136.704252,204.293434 138.233811,205.245384 C138.67205,205.518591 139.546516,205.092931 140.480352,204.947019 M167.120352,232.008654 C174.101484,233.054692 178.943748,230.951547 183.72161,228.741233 C184.468277,228.395572 184.858214,227.280101 185.413686,226.520352 C184.332931,226.249157 183.222994,225.67205 182.177459,225.77117 C180.155824,225.962868 178.177962,226.582239 176.165887,226.931421 C175.189786,227.100478 173.884629,226.680855 173.231547,227.182994 C170.620226,229.191044 167.665258,228.59683 164.784755,228.721107 C163.871547,228.760352 162.959849,228.894189 162.053686,229.028528 C158.525635,229.551799 154.981987,230.623497 151.477585,230.504252 C145.85595,230.314063 140.256956,231.245384 134.64639,230.597333 C134.204126,230.546013 133.723119,230.917333 133.247145,231.046138 C131.832805,231.429031 130.412428,232.103245 128.992553,232.109283 C117.267774,232.158088 105.542994,232.079597 93.8182138,232.042868 C92.4924277,232.03834 90.8426164,232.565635 89.8972075,231.968906 C86.096956,229.569912 82.0078994,230.23205 77.9344403,230.231044 C73.791044,230.230541 69.5565786,230.941484 65.6355723,228.795069 C65.0167044,228.456453 64.0617358,228.268277 63.4423648,228.497711 C62.4023648,228.882616 60.8738113,229.506516 60.6826164,230.301987 C60.2836226,231.95834 61.8629937,232.21595 63.1711698,232.265761 C65.2642516,232.346264 67.3829937,232.176704 69.4484025,232.441862 C75.3417358,233.198088 81.5329308,231.066767 87.1807296,234.254692 C87.505761,234.43834 88.0048805,234.333686 88.4229937,234.330164 C91.1847547,234.305509 93.947522,234.210918 96.7072704,234.271296 C97.8438742,234.296453 99.0463899,234.467522 100.091421,234.888151 C102.827522,235.990038 105.517333,236.309031 108.378214,235.354566 C109.25922,235.06073 110.324881,235.232805 111.295447,235.313811 C112.701736,235.431044 114.09595,235.784755 115.50073,235.818969 C121.006642,235.953811 126.423497,235.126642 131.885635,234.560604 C140.17595,233.701736 148.615195,234.285887 156.991044,234.236579 C157.901233,234.231547 158.840604,234.210415 159.716075,233.991547 C162.630792,233.263497 165.522365,232.441358 167.120352,232.008654 M142.530667,50.7024906 L143.400604,51.0677736 C142.52161,53.2438742 141.611925,55.4084025 140.785258,57.6041258 C140.576453,58.1590943 140.631296,58.8131824 140.564881,59.4214843 C141.16966,59.3450063 141.780478,59.2997233 142.375195,59.1764528 C142.60161,59.1296604 142.786264,58.8972075 142.997082,58.7603522 C146.283119,56.6245031 149.413686,54.1314214 153.801107,56.1138113 C155.185258,56.7397233 156.57595,55.2931824 155.858465,54.0544403 C153.516327,50.0121761 153.264755,44.4473962 147.745761,42.6325535 C147.153057,42.4378365 146.676579,41.8411069 146.189535,41.3842516 C143.970164,39.3017358 141.291421,38.9968302 138.656956,40.5465157 C137.864503,41.0129308 136.985006,41.3726792 136.290667,41.9543145 C135.194314,42.8730566 133.462491,43.8687799 133.362868,44.9565786 C133.184252,46.9072704 135.328654,46.3684025 136.606642,46.7437484 C137.137459,46.8992201 137.603874,47.4672704 137.93444,47.9593459 C138.008906,48.0705409 137.466516,48.8333082 137.088151,48.9736855 C134.774692,49.8335597 132.439597,50.6401006 130.080855,51.3661384 C129.595321,51.5155723 128.904503,51.3792201 128.462239,51.1165786 C128.257459,50.9958239 128.385761,50.2486541 128.429031,49.7912956 C128.508025,48.9651321 128.636327,48.144 128.744,47.3203522 C127.798591,47.347522 126.805384,47.194566 125.917333,47.4340629 C122.658969,48.3120503 120.229283,50.3900377 117.928403,52.8167044 C114.944252,55.9638742 114.816956,55.8411069 117.143497,59.2554465 C117.284377,59.4617358 117.39205,59.691673 117.503748,59.9160755 C119.685384,64.3045031 119.686893,64.3080252 123.84639,61.9150692 C124.353057,61.6237484 124.904,61.3495346 125.301484,60.9384654 C127.949535,58.1973333 131.182239,57.956327 134.613686,58.7870189 C136.765635,59.3077736 137.995824,58.3055094 138.232805,56.4111698 C138.591547,53.5482767 140.502994,52.1324277 142.530667,50.7024906 M199.040352,122.176201 C199.250667,122.120855 199.460981,122.066516 199.670792,122.011673 C199.517836,120.957585 199.574189,119.81444 199.174189,118.865509 C197.756327,115.506013 195.567648,112.706516 192.719849,110.390038 C190.710792,108.754818 189.783497,108.761862 188.670038,111.058214 C187.732176,112.991799 186.507522,113.205635 185.203874,111.775195 C183.494189,109.898969 181.903748,108.757333 179.458465,110.603874 C179.109283,110.867522 178.162868,110.34073 177.493182,110.180226 C177.713057,109.523119 177.771925,108.717585 178.200604,108.252679 C178.601107,107.817962 179.42727,107.807899 180.005887,107.497962 C180.810918,107.066264 181.559597,106.529912 182.332428,106.037836 C181.669786,105.394314 181.108277,104.388025 180.325887,104.168151 C176.620226,103.124629 172.859723,102.271799 169.102239,101.425006 C168.693182,101.332931 168.184503,101.733937 167.711547,101.870289 C166.840604,102.122365 165.902239,102.225509 165.100226,102.614943 C163.936453,103.178969 162.067774,103.804377 161.923371,104.647145 C161.600352,106.540478 163.590792,107.237333 165.00161,107.075824 C168.655447,106.658214 170.693182,108.933434 172.845635,111.144755 C175.386013,113.75356 178.536201,115.883371 179.650667,119.634314 C180.142239,121.290667 180.384755,123.063748 181.132428,124.591799 C182.570415,127.530164 182.785761,130.255698 180.996579,133.141233 C180.660478,133.683623 181.153057,135.500478 181.403119,135.530164 C184.058214,135.838591 186.964881,137.361107 189.328654,135.176453 C191.586767,133.088906 193.975195,133.288151 196.591547,133.81595 C197.366893,133.972428 198.331421,134.156579 198.96639,133.840604 C200.432553,133.111547 201.357836,129.136201 200.762616,127.561358 C200.096453,125.800855 199.606893,123.973937 199.040352,122.176201 M142.150792,101.561862 L142.197585,101.561862 C142.197585,102.982239 142.017459,104.431296 142.236327,105.816956 C142.650918,108.437333 144.342994,108.878088 146.670541,107.63683 C148.535195,106.643119 150.710792,105.799346 152.777208,105.729912 C155.219975,105.647899 157.182239,105.012931 158.901484,103.408906 C162.311296,100.227522 166.142742,97.8441258 170.978465,98.916327 C174.715321,99.7455094 178.30727,101.225761 181.971673,102.391044 C182.704252,102.624 183.651673,103.091925 184.176453,102.822239 C184.754063,102.524881 185.403119,101.383245 185.25117,100.815698 C184.500981,98.0177107 183.985258,94.975195 182.469283,92.6063899 C180.058717,88.8393459 176.174943,86.9007296 171.630038,86.5243774 C168.910038,86.2999748 168.436075,86.7055094 168.229786,89.4546918 C168.05117,91.8300377 166.560352,92.745761 164.766642,91.3374591 C163.351799,90.2270189 162.257459,89.9588428 160.763623,91.0411069 C160.371673,91.3248805 159.558088,91.0260126 158.938214,90.9943145 C159.015698,90.3799748 158.977962,89.7183396 159.205384,89.1653836 C159.417711,88.6481509 159.99834,88.2919245 160.264503,87.7847547 C161.113811,86.1646289 160.115069,84.5641258 158.325384,84.8670189 C155.955069,85.2685283 153.270792,85.3862642 151.358843,86.6164528 C146.434063,89.7842516 140.526642,92.6114214 142.139723,100.309031 C142.223748,100.710038 142.150792,101.143748 142.150792,101.561862 M109.014692,31.6383396 C108.088403,31.1382138 107.17922,30.2873962 106.190541,30.1827421 C103.509283,29.8989686 100.572428,29.2443774 98.152805,30.0252579 C95.5213585,30.8740629 93.2647547,33.0602264 91.029283,34.8881509 C89.912805,35.8013585 89.1082767,37.156327 88.3409811,38.4192201 C87.4323019,39.9160755 86.5367044,41.4667673 85.9676478,43.1090314 C85.4232453,44.6788428 84.9271447,46.4343145 85.0896604,48.0393459 C85.3201006,50.3190943 87.1258868,50.9681509 89.178717,49.9100377 C89.9872704,49.4939371 90.8114214,48.8413585 91.6536855,48.7995975 C98.2001006,48.4735597 104.746013,48.3819874 110.239849,52.8413585 C112.141736,54.3850063 113.024755,53.7183396 114.375195,51.9195975 C116.944755,48.4982138 119.123874,44.2476478 124.699723,45.0058868 C125.757836,45.1497862 127.691421,44.376956 127.945006,43.6066415 C128.310289,42.4992201 127.815195,40.8071447 127.122365,39.7268931 C126.196075,38.2813585 124.616704,37.2730566 123.51683,35.9150692 C121.415195,33.3193459 118.751547,32.5384654 115.530415,32.8136855 C113.832302,32.9590943 112.774189,33.3580881 112.995572,35.3208553 C113.165635,36.829283 112.345509,36.9897862 111.115321,36.6305409 C108.536201,35.8773333 108.191547,35.1180881 109.014692,31.6383396 M110.045132,31.0878994 C110.286138,31.1538113 110.526642,31.2192201 110.767648,31.2851321 C111.407145,30.5077736 112.020478,29.7062642 112.69117,28.9570818 C114.463748,26.9772075 116.177962,24.9319245 118.105509,23.1135597 C118.604126,22.6431195 119.847899,22.7251321 120.658969,22.9238742 C121.067019,23.024 121.656704,24.1756981 121.490164,24.4670189 C121.093686,25.1618616 120.337962,25.6891572 119.644629,26.1626164 C119.252176,26.4302893 118.573434,26.3236226 118.239849,26.6250063 C117.670792,27.138717 117.271799,27.8411069 116.801358,28.464 C117.412176,28.7895346 118.012931,29.1356981 118.635321,29.4365786 C119.873057,30.0348176 121.271296,30.4126792 122.339472,31.2277736 C125.643623,33.7485283 128.811421,36.4473962 132.068277,39.0320503 C132.496956,39.3721761 133.124881,39.580478 133.678843,39.6247547 C136.85117,39.8813585 142.790792,36.2924277 143.474566,33.2564528 C144.172931,30.1565786 144.967899,26.8388428 142.625761,23.896956 C142.285635,23.4702893 142.27205,22.7995975 142.031044,22.2768302 C141.367396,20.8343145 140.716327,19.3812327 139.95356,17.9915472 C139.51834,17.1975849 138.801862,16.5616101 138.336956,15.7807296 C135.773434,11.4753208 131.981736,8.944 127.018214,8.90249226 C124.897962,8.88513208 122.522113,9.8003522 120.740981,11.0018616 C119.818214,11.6242516 119.521862,13.869283 119.760352,15.2393459 C119.888654,15.9764528 121.71205,16.4876478 122.829535,16.9636226 C123.804629,17.378717 124.86073,17.6016101 125.881107,17.9100377 C124.867774,18.3603522 123.867019,18.8418616 122.834063,19.2413585 C122.550289,19.3505409 122.165384,19.2524277 121.839346,19.1860126 C119.878088,18.7865157 118.20966,19.2881509 116.768654,20.6904151 C116.402365,21.0466415 115.856956,21.2182138 114.91205,21.7414843 C115.300478,20.5485283 115.531925,19.8712956 115.741736,19.1870189 C116.951799,15.2433711 115.818214,13.7223648 111.708528,13.7621132 C111.037836,13.7681509 110.367145,13.751044 109.696453,13.7590943 C104.950289,13.816956 101.986767,16.954566 102.171925,21.6886541 C102.204629,22.5223648 102.198088,23.3731824 102.073811,24.1948176 C101.748277,26.345761 102.72639,27.4924277 104.794314,27.4572075 C107.422742,27.4124277 109.440352,28.0755723 110.045132,31.0878994 M171.955572,133.32639 C173.210918,133.32639 174.470792,133.395824 175.720604,133.312805 C179.137962,133.08639 180.407899,130.998843 179.121358,127.897962 C178.805887,127.137208 178.736956,126.277333 178.460226,125.496453 C176.953308,121.248403 175.285887,117.211673 171.995824,113.80639 C168.249912,109.928151 163.25117,108.717585 158.648906,107.721358 C154.192553,106.757333 149.334189,108.617962 145.516327,111.816453 C144.750541,112.457962 144.136704,113.361107 143.27683,113.793811 C141.640604,114.616453 142.167899,115.643371 142.508528,116.93444 C143.110792,119.214189 143.762365,121.554818 143.817711,123.884377 C143.877585,126.40161 144.257962,127.296704 146.325887,128.398591 C150.965887,130.871044 155.650164,133.409409 158.098969,138.424252 C159.255195,140.793057 160.155824,140.269786 161.743245,138.780478 C164.623245,136.079597 166.83205,131.898969 171.955572,133.32639 M93.4393459,95.0406038 C93.4393459,92.9575849 92.8939371,91.2121761 93.5359497,90.3553208 C96.0335597,87.0179623 94.034566,85.065761 92.267522,82.2843774 C88.4174591,76.224 81.335195,74.9465157 76.6881509,80.1842516 C76.1065157,80.8388428 75.8001006,82.3372075 76.1583396,83.0421132 C76.4556981,83.6267673 77.9082767,83.733434 78.8712956,83.8340629 C79.6597233,83.9160755 80.6589686,83.3409811 81.2486541,83.653434 C82.2338113,84.1756981 82.9663899,85.1744403 83.8051321,85.9719245 C82.7535597,86.2753208 81.7135597,86.6350692 80.6468931,86.8695346 C79.0780881,87.2141887 77.4941887,87.4974591 75.9077736,87.7505409 C75.1304151,87.8743145 74.2589686,88.074566 73.5807296,87.8280252 C73.3055094,87.7278994 73.2743145,86.4977107 73.4026164,85.8330566 C73.8780881,83.3686541 72.5336855,81.6141887 69.971673,81.5024906 C65.3281509,81.2997233 60.2388428,85.1920503 59.1983396,89.7253836 C59.1062642,90.1268931 59.0121761,90.5877736 58.7585912,90.8836226 C56.2579623,93.8058868 57.0866415,97.2856352 57.4141887,100.522868 C57.5762013,102.119346 58.6564528,104.080604 59.9460126,104.963119 C60.9985912,105.682616 63.1525535,105.462742 64.504,104.902239 C66.1291572,104.227522 64.9326792,102.852931 64.5356981,101.687648 C64.1598491,100.586767 64.1689057,99.3465157 64.1241258,98.1631195 C64.1221132,98.109283 65.6541887,97.7565786 65.7975849,97.9789686 C66.5085283,99.0808553 66.9950692,100.328654 67.551044,101.529157 C67.5792201,101.589535 67.4926792,101.694189 67.5052579,101.770667 C67.6416101,102.612428 67.5409811,103.965384 67.9852579,104.178717 C68.7294088,104.535447 69.9877736,104.466516 70.7419874,104.052931 C75.9495346,101.197082 81.1797233,101.424503 85.951044,104.56966 C88.3852579,106.173686 91.5389686,107.269535 92.695195,110.549031 C93.032805,111.507522 93.9827421,112.305006 94.7907925,113.019472 C95.2370818,113.414943 96.3158239,113.840101 96.5185912,113.643874 C97.8081509,112.390541 99.0554465,111.045132 100.000352,109.532176 C100.170918,109.257962 98.8843774,108.064 98.2574591,107.305761 C97.9933082,106.986264 97.5933082,106.742239 97.425761,106.384 C95.6154465,102.520855 92.3107925,99.1331824 93.4393459,95.0406038 M119.60639,71.5935597 C119.681358,71.5819874 119.75683,71.5699119 119.831799,71.5578365 C119.655195,70.4232453 119.842365,69.0224906 119.239597,68.1988428 C116.244881,64.1072704 113.527899,59.6232453 109.802113,56.2979623 C103.815698,50.954566 96.6891572,49.264 88.9603522,52.9601006 C87.5460126,53.636327 85.6773333,53.7460126 84.6423648,54.7568302 C81.6058868,57.7213585 78.6267673,60.864 77.3135597,65.0451321 C77.0066415,66.0212327 77.2984654,67.4738113 77.856956,68.3678994 C78.7741887,69.8355723 80.4481509,70.860478 81.2436226,72.3678994 C82.8924277,75.4919245 86.194566,75.1201006 88.7158239,76.3623648 C89.8997233,76.9455094 91.4494088,77.055195 92.340478,77.8999748 C93.6295346,79.1216101 94.6242516,80.735195 95.464,82.3296604 C96.4994717,84.296956 97.0931824,84.2119245 98.7701635,82.9374591 C101.172679,81.111044 103.943497,79.7570818 106.607145,78.2929308 C107.592302,77.7520503 108.719346,77.4702893 109.781484,77.0702893 C108.844629,76.2436226 107.915824,75.4073962 106.964881,74.596327 C106.781233,74.4403522 106.443119,74.4428679 106.295195,74.2702893 C105.613434,73.4743145 104.973434,72.6421132 104.318843,71.8234969 C105.474566,71.6101635 106.64639,71.1784654 107.779975,71.2634969 C108.487899,71.3168302 109.198843,72.0821132 109.801107,72.6431195 C111.087648,73.8426164 112.208654,75.2378365 113.582742,76.3170818 C114.474818,77.0184654 116.05922,77.9724277 116.685635,77.6297862 C117.844881,76.9958239 118.687648,75.5764528 119.349786,74.3201006 C119.743245,73.5739371 119.540981,72.5133082 119.60639,71.5935597 M194.23834,137.03205 C191.753308,136.11683 190.245384,138.217459 188.478843,139.694189 C187.662742,140.376453 186.910541,141.134692 186.12966,141.858717 C187.05444,142.45444 188.034063,142.98073 188.889912,143.662994 C190.097459,144.624503 191.314063,145.615195 192.302239,146.782994 C192.579975,147.110541 192.152302,148.140981 191.858465,148.758843 C191.799094,148.88161 190.784755,148.737711 190.368654,148.470541 C188.345509,147.173434 186.304755,145.884377 184.416453,144.406138 C183.342239,143.564881 182.631799,142.273308 181.608906,141.348025 C179.417208,139.365132 177.197333,137.39683 174.827019,135.640855 C174.314818,135.261987 173.104252,135.738969 172.242868,135.93922 C170.967396,136.236579 169.493686,136.332679 168.497962,137.056201 C165.872553,138.961107 163.450415,141.146767 160.982491,143.262994 C160.809409,143.411925 160.923623,143.905509 160.917585,144.239094 C160.851673,147.995572 160.833057,151.754063 160.70727,155.508528 C160.624755,157.971421 161.730164,159.259472 164.182491,159.453182 C165.239094,159.536201 166.449157,159.538717 167.300478,160.054943 C170.909031,162.242113 174.373182,164.668277 177.982239,166.853434 C178.639849,167.250918 180.050164,167.307774 180.56639,166.873057 C182.510038,165.236327 184.22073,163.323371 186.035572,161.53117 C186.501987,161.070792 186.970415,160.556579 187.539472,160.265258 C191.253182,158.364881 194.936704,156.380981 198.762616,154.734189 C200.00639,154.198843 201.719597,154.305006 203.089157,154.642616 C204.37117,154.958591 205.770918,156.129409 206.628277,154.59834 C207.320604,153.362113 207.405132,151.671547 207.381987,150.187774 C207.36639,149.165887 206.433057,148.168654 206.378214,147.135195 C206.021987,140.424252 199.677836,136.536453 194.23834,137.03205 M118.471799,107.503497 C118.512553,107.847648 118.553308,108.192805 118.59356,108.536956 C119.16966,108.791547 119.849409,108.928906 120.298717,109.32639 C121.100226,110.035824 121.761862,110.901736 122.482868,111.702742 C121.484629,112.059472 120.437082,112.812679 119.49922,112.695447 C117.092176,112.392553 115.070038,112.699975 113.261233,114.478088 C112.75205,114.978717 111.659723,114.886138 110.835069,115.066264 C111.081107,114.20639 111.284377,113.331421 111.595824,112.495698 C111.698465,112.220981 112.16639,112.096704 112.315824,111.820981 C112.76161,111.000855 113.611925,109.985006 113.402616,109.336453 C113.176704,108.637082 111.983245,107.981484 111.11834,107.825509 C110.033057,107.629786 108.713811,107.663497 107.738214,108.118843 C104.371673,109.69117 101.224503,111.590541 99.8393459,115.390289 C99.3558239,116.717082 98.7208553,117.994566 98.0748176,119.253434 C95.053434,125.146767 97.7195975,131.995069 104.190541,133.429031 C109.255698,134.551547 113.188277,139.114566 114.061233,144.248151 C114.226767,145.218214 115.281862,146.846893 115.767899,146.791044 C116.945258,146.655698 118.364126,145.943748 119.029786,145.000855 C119.462994,144.388025 118.877333,142.90878 118.486893,141.920604 C118.270038,141.371673 117.296453,141.127648 117.063497,140.576704 C116.758591,139.855698 116.503497,138.502239 116.842113,138.25117 C117.485132,137.774692 118.581987,137.731421 119.457459,137.821987 C119.902742,137.86878 120.248403,138.631547 120.688151,139.013434 C121.757836,139.941233 122.668025,140.32161 123.241107,138.465006 C123.495698,137.637333 124.067774,136.87356 124.616704,136.176201 C128.052679,131.810415 133.062994,130.132428 138.016453,128.335195 C138.732428,128.075572 139.848403,127.417962 139.850415,126.939472 C139.865509,123.914566 140.259472,120.661233 139.288906,117.922113 C138.183497,114.801107 135.795572,112.132428 133.934943,109.286642 C133.669786,108.880101 133.292931,108.392553 132.871296,108.267774 C129.927899,107.39834 126.996579,106.254189 123.984252,105.93922 C122.22073,105.755069 120.314314,106.936453 118.471799,107.503497 M23.6164528,156.718088 C23.6994717,156.73117 23.7829937,156.744252 23.8660126,156.757333 C23.8197233,157.509535 23.7658868,158.261736 23.7281509,159.014943 C23.5389686,162.778465 25.6471447,164.670792 29.4212327,164.386516 C30.6046289,164.297962 31.8936855,164.630541 33.0242516,165.059723 C34.5960755,165.656956 35.7678994,165.871296 36.8697862,164.148025 C37.8016101,162.691421 38.9950692,161.241862 40.4149434,160.314566 C41.3689057,159.692679 43.4891572,159.405887 44.0884025,159.991547 C45.3704151,161.244377 43.5520503,161.747019 42.771673,162.495698 C42.2489057,162.997836 41.971673,163.756075 41.5842516,164.400101 C42.2715472,164.520352 43.0101635,164.865509 43.6385912,164.724126 C46.8491572,164.00161 49.5847547,164.486642 51.780478,167.191547 C52.2207296,167.73444 53.3392201,168.207899 53.9580881,168.03683 C56.1487799,167.433057 58.2343145,166.456956 60.4094088,165.782742 C61.502239,165.443623 62.7389686,165.196075 63.8453836,165.357082 C65.8524277,165.649409 67.582239,164.875069 67.3774591,162.969157 C66.9497862,158.991296 69.4418616,155.116075 67.5344403,151.109535 C66.3953208,148.717585 66.0053836,145.864252 64.5095346,143.767145 C61.0997233,138.98878 57.3050063,134.781987 51.0499119,133.055698 C48.1573333,132.257208 46.176956,132.493182 43.4202264,133.063245 C38.1372075,134.156579 36.8868931,138.346767 34.8003522,142.022239 C34.4436226,142.650164 34.8667673,143.720855 34.9296604,144.58727 C35.6979623,144.479597 36.4642516,144.31356 37.2360755,144.27834 C38.3540629,144.227522 39.4760755,144.271296 40.5965786,144.274314 C40.1195975,145.299723 39.8946918,146.617459 39.1133082,147.288151 C37.5515472,148.630038 36.6167044,150.026264 36.4466415,152.157082 C36.3862642,152.914314 35.056956,153.569409 34.3067673,154.271296 C33.8413585,153.357082 33.2531824,152.480604 32.9643774,151.51356 C32.8245031,151.045635 33.3432453,150.418214 33.3975849,149.847145 C33.5530566,148.214943 31.8856352,146.548025 30.5870189,147.250918 C28.4431195,148.410667 26.1538113,149.681107 24.6438742,151.500478 C23.6491572,152.698969 23.9148176,154.942491 23.6164528,156.718088 M46.2026164,124.272302 C46.5749434,125.269535 46.6685283,126.815195 47.4574591,127.367145 C49.1062642,128.520352 51.0926792,129.222742 52.9935597,129.97444 C55.5208553,130.974189 58.7978365,130.571673 60.027522,133.927145 C60.1834969,134.352302 60.7143145,134.644126 61.0811069,134.987774 C63.4524277,137.208654 65.9621132,139.299723 67.0554465,142.558591 C67.338717,143.403874 67.9379623,144.195321 68.5568302,144.856956 C68.956327,145.283119 69.6567044,145.428528 70.222239,145.69922 C70.3958239,145.121107 70.549283,144.53595 70.747522,143.96639 C71.2109182,142.634566 71.4126792,141.097459 72.2217358,140.020226 C75.3487799,135.855698 79.5148176,133.057208 84.295195,130.962113 C86.6076478,129.948277 88.6851321,129.659472 91.0594717,130.331673 C91.9173333,130.574189 93.4670189,130.672302 93.7206038,130.24966 C94.1739371,129.492428 93.8801006,128.289912 93.9042516,127.274063 C93.9711698,124.412679 93.6808553,121.477333 94.2448805,118.717082 C94.5845031,117.055698 94.4260126,116.134943 93.3573333,114.975698 C91.8443774,113.333937 90.5261384,111.51356 89.1123019,109.77922 C88.6413585,109.202113 88.2353208,108.485635 87.6265157,108.120855 C82.6333082,105.127648 77.3975849,104.790541 72.0456352,107.028528 C68.3208553,108.586264 68.312805,108.957082 71.2189686,111.577962 C71.7055094,112.017208 72.2775849,112.928403 72.1170818,113.370164 C71.936956,113.866264 71.0056352,114.192805 70.340478,114.390038 C68.7072704,114.876075 67.053434,115.323874 65.3789686,115.62727 C64.5673962,115.774692 63.6914214,115.564377 62.8441258,115.516075 C63.178717,114.767396 63.3105409,113.732931 63.8861384,113.32639 C65.3603522,112.285384 66.4486541,110.862994 65.5646289,109.366138 C64.9759497,108.368906 63.196327,107.909031 61.8584654,107.584 C61.0891572,107.397333 60.1291572,107.929157 59.2702893,108.18727 C55.6395975,109.280101 53.4836226,112.273308 50.789283,114.621987 C47.8448805,117.188528 47.2234969,120.572176 46.2026164,124.272302 M38.8798491,167.437082 C39.4755723,168.097711 40.3666415,168.715572 40.6967044,169.553811 C41.053434,170.458465 40.8853836,171.569912 40.9462642,172.590792 C40.0370818,172.572679 39.1278994,172.554063 38.218717,172.536956 C37.0539371,172.515321 35.8001006,172.211925 34.7455094,172.542491 C33.3512956,172.979723 32.1608553,174.032805 30.7877736,174.586767 C30.0738113,174.875069 29.1565786,174.660226 28.3314214,174.672805 C28.5211069,173.848654 28.4592201,172.790038 28.9578365,172.252176 C29.7890314,171.356075 31.0252579,170.849409 32.0008553,170.066013 C32.5241258,169.645887 33.2572075,168.923874 33.178717,168.459472 C33.0790943,167.874818 32.3278994,167.141736 31.7140629,166.960101 C30.6192201,166.636579 29.3704151,166.422742 28.2680252,166.620478 C25.9123019,167.04161 23.5978365,167.715824 21.2853836,168.356327 C16.4813585,169.685635 12.0884025,175.328403 12.0582138,180.270792 C12.0305409,184.665761 11.8121761,188.944 13.6476478,193.297711 C15.3014843,197.22073 18.6740629,200.807145 22.9729308,200.895698 C25.4272704,200.945509 27.9691572,200.341233 30.0833711,202.407648 C30.5915472,202.904252 31.8333082,202.694943 32.740478,202.73117 C35.1621132,202.82878 37.9027421,202.178717 39.9419874,203.098969 C44.2715472,205.052679 48.7238742,203.889912 53.0624906,204.531421 C53.5912956,204.609912 54.5050063,204.199849 54.7077736,203.767145 C54.9024906,203.351044 54.5321761,202.522868 54.1885283,202.029786 C53.0016101,200.325132 51.251673,198.859975 50.5638742,196.991296 C48.900478,192.47356 47.6778365,187.789283 46.3812327,183.143748 C46.2001006,182.496201 46.4813585,181.637333 46.7570818,180.96161 C47.9198491,178.104252 49.0921761,175.246893 50.3988428,172.453434 C51.3195975,170.484629 50.8214843,168.928906 48.8707925,168.485635 C45.6723019,167.758591 42.3676478,167.498465 39.1062642,167.052176 C39.0755723,167.047648 39.025761,167.184503 38.8798491,167.437082 M110.222742,87.2806038 C110.120604,87.1170818 110.018465,86.9535597 109.916327,86.7900377 C110.596579,86.0036226 111.354314,85.2695346 111.932428,84.4141887 C112.414943,83.7007296 112.687648,82.8458868 113.052931,82.053434 C112.151296,81.8315472 111.255195,81.5794717 110.344503,81.4048805 C110.033057,81.3455094 109.667774,81.5704151 109.353811,81.5135597 C104.483874,80.6335597 101.159597,82.5228679 99.1354465,87.0038742 C98.6071447,88.1746918 97.0785912,89.1613585 97.0619874,90.2486541 C96.9895346,94.971673 95.7241258,100.13595 100.667019,103.550289 C101.050415,103.815447 101.348277,104.330667 101.493686,104.790541 C102.023497,106.462994 102.984503,106.57922 104.587019,106.167145 C107.581736,105.397333 110.621736,104.932931 113.66727,106.353308 C114.23683,106.618969 115.586767,106.082616 116.056201,105.498465 C116.875321,104.480101 117.245132,103.11205 117.886138,101.935698 C118.57595,100.670792 119.509786,99.9024906 120.258969,101.815447 C120.968403,103.626767 121.91834,103.265006 123.413686,102.857962 C125.029283,102.418717 126.998088,102.151547 128.512553,102.67683 C132.968403,104.220478 136.57595,106.915321 138.575447,111.469786 C138.982994,112.398088 140.322868,112.916327 141.233057,113.624252 C141.37444,112.45444 141.59683,111.286138 141.613434,110.115321 C141.619472,109.696201 141.228528,109.108528 140.848151,108.87356 C138.263497,107.276579 138.310792,104.77595 138.376704,102.205887 C138.425509,100.284881 138.231799,98.3538113 138.346013,96.4393459 C138.401358,95.5160755 138.673057,94.391044 139.269786,93.7530566 C141.726138,91.1251321 144.266516,88.5621132 146.924126,86.1379623 C150.244377,83.1085283 154.301233,82.5847547 158.643371,82.8700377 C160.079346,82.9641258 162.017459,82.6677736 162.950792,81.7565786 C165.426767,79.3389686 167.508277,76.5107925 169.666767,73.7827421 C169.951044,73.4234969 170.014943,72.5258868 169.765384,72.1666415 C168.073811,69.7294088 166.406893,67.2489057 164.440101,65.0411069 C163.560101,64.0529308 161.898717,63.8109182 160.779723,62.9772075 C156.093937,59.4878994 151.231044,57.8114214 145.491673,60.4821132 C142.170918,62.0277736 141.309535,64.2164528 143.203371,67.3585912 C143.431799,67.7374591 143.421736,68.2602264 143.521862,68.7170818 C142.998591,68.7709182 142.475321,68.8262642 141.951547,68.8780881 C141.015698,68.9711698 140.053182,68.9555723 139.149031,69.1789686 C137.991296,69.4647547 136.880855,69.9417358 135.750289,70.3362013 C135.991799,69.1507925 136.459723,68.3648805 137.083119,67.7319245 C138.483371,66.3115472 139.048906,64.651673 137.946516,62.9641258 C136.875321,61.3238742 135.255195,59.8385912 133.121862,60.6682767 C130.448151,61.7082767 127.906264,63.1195975 125.386013,64.5123019 C123.572679,65.5140629 122.660981,67.0209811 122.934189,69.2967044 C123.10727,70.7377107 122.790289,72.2878994 122.445132,73.7304151 C121.861987,76.1631195 122.184503,76.4489057 124.592553,76.5555723 C126.614189,76.6456352 128.927648,76.791044 130.550289,77.8073962 C133.699975,79.7807296 136.545258,82.2848805 139.31205,84.7940629 C140.022491,85.4385912 140.085887,86.9102893 140.208151,88.0282767 C140.250918,88.4207296 139.637585,89.1467673 139.21444,89.2443774 C138.879346,89.3213585 138.136704,88.756327 137.983748,88.3296604 C136.008403,82.8041258 131.168151,81.2624906 126.244881,80.0801006 C124.004881,79.5417358 121.566642,79.6066415 119.242616,79.7611069 C118.44161,79.8144403 117.712553,80.9671447 116.950792,81.6177107 C117.613434,82.0801006 118.23683,82.620478 118.951799,82.9782138 C119.456956,83.2307925 120.232805,83.0617358 120.626767,83.392805 C121.321107,83.9744403 121.816201,84.7940629 122.394314,85.5135597 C121.60639,85.9553208 120.845635,86.6999748 120.024,86.7739371 C118.456704,86.9158239 116.848151,86.5520503 115.268277,86.6265157 C113.579723,86.7070189 111.903748,87.0511698 110.222742,87.2806038 M99.5736855,206.829283 C101.11834,206.665761 102.651421,206.37444 104.186013,206.366893 C107.874063,206.347774 111.572679,206.313057 115.24966,206.554566 C122.026516,206.998843 126.214189,203.044629 129.550541,198.037333 C133.030289,192.814692 132.873308,186.956075 131.269283,181.11205 C130.70727,179.066264 130.208654,176.834818 129.013182,175.166893 C126.848151,172.145509 123.880604,169.886893 120.295698,168.607899 C118.158843,167.845635 115.546013,167.824 114.822491,164.926893 C114.766642,164.700478 114.30073,164.497711 113.992302,164.425258 C111.832805,163.920604 112.47683,162.767396 113.173686,161.433057 C113.604881,160.606893 114.251925,159.159849 113.915824,158.784 C111.629031,156.225006 112.377711,153.220226 112.453686,150.369912 C112.622239,144.040855 109.780478,139.745509 104.118088,137.113057 C102.995572,136.591296 102.040604,135.71834 100.971925,135.066767 C100.05117,134.504755 99.053434,133.543748 98.1331824,133.59205 C92.5397233,133.881862 86.813434,132.342742 81.3955723,135.245384 C74.4114214,138.987774 72.232805,144.85444 72.3676478,151.571925 C72.3777107,152.081107 73.1923019,152.611421 73.6924277,153.066767 C74.5241258,153.825006 76.2031195,154.689912 76.0964528,155.224252 C75.8795975,156.310541 74.7601006,157.252931 73.9173333,158.166642 C72.8894088,159.28161 70.980478,160.225006 70.8602264,161.388277 C70.6700377,163.22727 70.4853836,164.658214 69.0549434,165.99356 C68.6026164,166.415195 68.942239,167.840604 69.1706667,168.743245 C69.2411069,169.020981 70.4873962,169.356579 70.6076478,169.204126 C71.1213585,168.550541 71.4388428,167.73444 71.7824906,166.957585 C72.0939371,166.253686 72.1346918,165.227774 72.6589686,164.855447 C75.6828679,162.704503 79.1349434,162.270792 82.7243774,162.84639 C87.0896604,163.545761 90.9819874,165.079849 93.2018616,169.286138 C94.1774591,171.133686 95.1349434,170.823748 96.5130566,169.57595 C97.8801006,168.338214 99.5585912,167.444629 101.093686,166.391044 C101.484629,166.122365 101.850918,165.818465 101.945509,165.746013 C99.1409811,162.087145 96.4245031,158.543497 93.6793459,154.962616 C96.5558239,153.435572 99.0307925,152.089157 101.546516,150.823245 C101.909786,150.640604 102.781233,150.702491 102.873811,150.902239 C103.080604,151.350038 103.137962,152.067019 102.905509,152.473057 C102.498969,153.181987 101.637585,153.653937 101.313057,154.380478 C100.833057,155.456201 100.058214,156.983245 100.46878,157.757082 C101.434314,159.578969 103.01117,161.082365 104.374189,162.685887 C104.830541,163.222742 105.71205,163.598591 105.842868,164.174189 C106.339472,166.361862 107.770918,166.579723 109.468025,166.016201 C110.994566,165.509031 111.841862,165.976956 112.897459,167.136201 C114.330415,168.709031 116.074314,170.046893 117.847396,171.245384 C119.096704,172.090164 120.202616,172.90878 119.246642,174.404126 C118.31683,175.858717 116.991547,175.200604 116.016453,174.306013 C114.353057,172.778969 112.699723,173.01444 110.95683,174.051421 C109.732176,174.779975 108.568403,175.676579 107.253686,176.163119 C106.477836,176.450415 105.460478,176.084126 104.551296,176.011673 C104.885887,175.257962 105.064,174.359346 105.594314,173.786767 C106.260981,173.067774 107.18727,172.567145 108.053686,172.060478 C109.689409,171.105006 109.418214,170.229031 108.082868,169.233811 C105.595321,167.379723 99.9540629,168.74878 97.8408553,171.781233 C95.3462642,175.360101 92.8436226,179.178465 92.0873962,183.35356 C91.1616101,188.463497 90.9673962,193.951799 95.109283,198.281358 C96.3258868,199.553308 97.4846289,200.885635 98.7575849,202.097711 C100.302742,203.568906 101.159094,205.07683 99.5736855,206.829283 M142.289157,131.892428 C142.222239,131.675572 142.155321,131.458214 142.088906,131.241358 C138.556327,132.279849 135.025761,133.324881 131.49117,134.355321 C127.917836,135.396327 126.597585,138.551547 124.933182,141.368151 C124.751547,141.676075 124.701233,142.279346 124.882868,142.547522 C126.176956,144.459975 127.549535,146.317585 128.890415,148.19834 C129.364881,148.864503 129.820226,149.544755 130.284126,150.218969 C129.29444,150.318088 128.047648,150.838843 127.369912,150.426264 C126.052679,149.625258 125.167648,148.138969 123.885132,147.250918 C123.104252,146.709535 121.315069,146.250667 121.006642,146.618465 C118.573937,149.514063 114.875824,151.804377 115.975698,156.603371 C116.280604,157.93117 116.376704,158.915824 117.837836,159.454692 C118.571925,159.724881 119.655195,160.706013 119.585258,161.234314 C119.132931,164.648654 121.417208,165.756075 123.867522,166.87205 C127.423748,168.490667 130.783748,170.295447 132.069283,174.461484 C132.268025,175.104 133.477082,175.846138 134.176956,175.805887 C134.854189,175.766642 135.479094,174.780478 136.122616,174.20639 C136.949786,173.468277 137.772428,172.726138 138.597082,171.986013 C138.495447,173.190541 138.423497,174.399094 138.271044,175.597585 C138.231799,175.898969 137.887145,176.148025 137.762868,176.45444 C136.626264,179.249912 134.916075,181.656453 134.955824,185.083874 C135.003623,189.223245 136.450667,192.810667 137.906264,196.363874 C139.279346,199.71683 141.306013,203.052176 145.870541,202.881107 C146.097962,202.87205 146.346013,203.037082 146.562868,203.159346 C149.594818,204.869535 153.026767,203.248906 156.14878,204.296453 C156.452679,204.398088 156.915572,204.025761 157.305509,203.874314 C161.241107,202.343748 165.285384,202.150541 169.324126,203.22878 C170.815447,203.626767 171.634063,203.571925 172.295698,202.03683 C172.55683,201.430038 173.509786,200.810667 174.194063,200.753811 C176.390792,200.56966 177.663245,199.456201 178.566893,197.523623 C179.124377,196.330164 180.060226,195.309786 180.849157,194.229031 C183.27834,190.90073 184.309283,186.960604 182.968403,183.270541 C180.793811,177.284126 178.763623,170.981736 173.07205,167.064755 C171.507774,165.988025 169.849912,165.050164 168.251925,164.023245 C162.292679,160.193308 156.175447,160.706516 150.06878,163.511547 C149.137459,163.93922 148.447145,165.090918 147.87356,166.044377 C147.157082,167.235824 146.552805,168.530918 146.14073,169.855698 C145.904252,170.618465 146.144755,171.529157 146.170415,172.372931 C146.909031,172.245132 147.668277,172.183748 148.378214,171.962365 C148.746516,171.846642 148.988025,171.293182 149.352302,171.205132 C150.696201,170.880604 152.06727,170.66727 153.427774,170.412176 C152.779723,171.46727 152.285635,172.66727 151.45595,173.552302 C148.126642,177.102491 147.518843,179.20161 149.728654,183.115572 C149.934943,183.480352 150.374692,183.870792 150.325887,184.191296 C150.207145,184.96966 149.864503,185.714818 149.612428,186.47356 C148.926642,186.227019 147.936956,186.186264 147.608403,185.699723 C146.195572,183.601107 145.234063,181.383245 145.589786,178.648654 C145.732176,177.552805 145.102239,175.855698 144.242365,175.227774 C141.971673,173.567899 140.398843,171.790289 140.127145,168.822239 C140.038088,167.855195 138.880352,166.708528 137.917333,166.168151 C136.668528,165.466767 136.372176,164.807145 136.941736,163.580478 C137.32966,162.745258 137.583748,161.844126 138.018465,161.036579 C138.225258,160.651673 138.858214,160.094692 139.041358,160.178214 C139.49117,160.383497 139.946013,160.856956 140.125132,161.32639 C140.71683,162.879094 141.085132,164.520855 141.730164,166.047899 C142.530667,167.945761 143.56966,167.983497 144.718843,166.217962 C145.17117,165.523119 145.362365,164.65922 145.812679,163.963371 C147.576704,161.237836 149.757333,159.376201 153.348277,159.416453 C157.795572,159.466264 159.274818,157.73595 158.795321,153.422491 C158.457208,150.380981 157.862994,147.368151 157.40161,144.339723 C156.526138,138.591296 148.797836,130.561107 142.289157,131.892428 M6.36815094,198.79205 C6.0803522,199.045635 5.79205031,199.29922 5.50425157,199.552302 C6.69569811,202.034314 7.33972327,204.775447 10.2866415,206.286893 C12.5070189,207.425509 14.545761,208.914818 16.6931824,210.201862 C20.4073962,212.426264 24.0476478,214.80161 27.898717,216.760352 C31.1243774,218.401107 34.5090314,219.924126 37.9983396,220.804629 C43.0519245,222.079597 48.2619874,222.73922 53.4101635,223.633308 C54.2232453,223.774189 55.2526792,223.47834 55.8554465,223.877836 C58.3555723,225.532679 61.0886541,225.362113 63.860478,225.323874 C64.8350692,225.309786 65.8192201,225.640855 66.7912956,225.84966 C68.5689057,226.231044 70.3223648,226.819723 72.1185912,227.002365 C78.3097862,227.631799 84.5472704,226.201358 90.789283,228.062491 C94.2388428,229.091421 98.1548176,228.473057 101.841862,228.805132 C108.590541,229.412931 115.321107,227.85117 122.065258,228.72966 C122.45922,228.780981 122.883371,228.571673 123.296956,228.509786 C126.497459,228.030289 129.688403,227.259472 132.902491,227.14727 C139.013182,226.932931 145.137962,227.123119 151.255698,227.068277 C152.006893,227.062239 152.758088,226.599849 153.501233,226.326642 C154.434063,225.984 155.333686,225.409912 156.290164,225.298214 C162.107522,224.616956 167.937962,224.046893 173.760855,223.411421 C174.24639,223.358088 174.695698,223.030541 175.182742,222.931925 C179.620981,222.030289 184.067774,221.171421 188.502994,220.253182 C189.839346,219.976956 191.154566,219.582994 192.464252,219.192553 C194.982491,218.441358 197.470541,217.582491 200.007899,216.904755 C201.838843,216.415195 203.797585,216.345258 205.57922,215.736453 C208.888906,214.60639 212.122616,213.249409 215.362868,211.925132 C216.637333,211.404881 218.081862,210.971673 219.039849,210.066516 C223.11834,206.211421 227.116327,202.263245 230.970415,198.185258 C231.841862,197.262994 232.144755,195.711296 232.424944,194.388528 C232.485887,194.089157 231.008151,193.048151 230.826516,193.176956 C227.873057,195.268025 224.612679,196.227019 221.025258,196.267774 C220.659975,196.271296 220.319346,196.714063 219.931925,196.858465 C216.344,198.194314 212.838591,199.962365 209.129409,200.702491 C205.34727,201.456704 201.750792,203.71683 197.647145,202.602868 C197.445887,202.548528 197.094189,202.669786 196.952805,202.831296 C194.448654,205.69922 191.130918,204.074566 188.183497,204.378465 C186.887899,204.511799 185.911799,203.803371 186.187522,202.197836 C186.532679,200.192805 185.042868,198.794566 183.69595,198.695447 C182.230792,198.58727 180.665509,199.834063 179.144,200.490667 C179.865006,201.199094 180.597585,201.89595 181.301484,202.620478 C181.828277,203.162365 182.774692,203.799346 182.710792,204.28639 C182.625761,204.931925 181.835321,205.657459 181.168654,206.003623 C180.554818,206.322616 179.704,206.237082 178.957333,206.242113 C175.103748,206.265761 171.166138,205.769157 167.41922,206.406642 C163.787019,207.024503 160.374189,209.106516 156.597082,207.097962 C156.542239,207.068277 156.428528,207.114063 156.359094,207.154818 C154.542239,208.218969 152.737459,208.19683 150.848654,207.27205 C150.397836,207.051673 149.701484,207.197585 149.155572,207.330415 C146.535698,207.96639 143.938465,208.700478 141.308025,209.287145 C140.834063,209.392302 140.179472,209.071296 139.717585,208.776453 C137.80966,207.557333 135.954566,207.916579 133.959597,208.614943 C132.186516,209.235321 130.294189,209.869786 128.450667,209.879346 C111.855447,209.969409 95.2592201,209.932679 78.6629937,209.908528 C74.3923019,209.901987 69.7603522,210.829786 65.9450063,209.483371 C61.5756981,207.942239 57.4790943,208.174189 53.1807296,208.212931 C50.5226164,208.237082 47.8036226,208.466013 45.4373333,206.716075 C44.9618616,206.364377 44.152805,206.380981 43.4956981,206.372428 C39.6406038,206.321107 35.7512956,206.622994 31.9399748,206.204377 C28.0390943,205.775195 24.1367044,204.90878 20.3807296,203.758591 C17.1651321,202.77444 14.2539371,200.840855 10.6886541,200.949535 C10.0234969,200.970164 9.32865409,200.388025 8.66550943,200.047899 C7.88966038,199.649409 7.13343396,199.212176 6.36815094,198.79205 M91.4931824,200.623497 C90.7253836,202.305006 89.9570818,203.986013 89.1887799,205.667019 C91.0494088,205.86878 92.9070189,206.148025 94.7726792,206.224 C95.3281509,206.246138 96.211673,205.816453 96.3862642,205.373182 C96.5512956,204.955572 96.1372075,204.055447 95.7045031,203.703748 C94.3530566,202.604377 92.8723019,201.664503 91.4418616,200.663245 C90.8592201,199.375195 90.3772075,198.029786 89.6743145,196.812176 C87.8091572,193.580981 87.8041258,184.981233 89.380478,181.600604 C90.5306667,179.132679 91.2899119,176.444377 91.8972075,173.780226 C92.1221132,172.79205 91.6909182,171.404881 91.0886541,170.520352 C88.0556981,166.069535 83.1616101,165.70878 78.4325535,165.118591 C77.9741887,165.061736 76.9980881,165.626264 77.0121761,165.856704 C77.1520503,168.171673 74.5578365,169.938214 75.7543145,172.482616 C75.9912956,172.98727 75.7135597,173.946264 75.3356981,174.434314 C75.1550692,174.66727 74.0330566,174.484126 73.5958239,174.150038 C71.6078994,172.632553 69.7593459,173.098465 67.738717,174.109283 C66.8768302,174.540478 65.7024906,174.615447 64.7238742,174.475572 C63.5117987,174.301484 62.3339371,173.788277 61.1842516,173.315824 C60.695195,173.115069 60.034566,172.709535 59.9399748,172.287396 C59.6506667,171.000352 59.4131824,169.450164 57.7684025,169.911044 C56.4023648,170.293937 55.1223648,171.341484 54.069283,172.366893 C53.2662642,173.14878 53.0489057,174.514314 52.2785912,175.350038 C48.2624906,179.706264 49.5344403,184.961107 50.6343145,189.591044 C51.7120503,194.12639 54.5432453,198.157585 58.1507925,201.53922 C60.5447547,203.784252 62.8954465,205.102491 66.1955723,204.571673 C67.071044,204.431296 68.013434,204.649157 68.9190943,204.755321 C73.6894088,205.313811 78.4481509,206.05444 83.2340629,206.339723 C84.3958239,206.40966 86.4199748,205.223748 86.7062642,204.229535 C87.4695346,201.577459 89.2063899,200.879597 91.4931824,200.623497 M210.610667,160.665258 C207.610415,159.84161 204.901987,159.098969 202.194566,158.353811 C201.95356,158.287396 201.628528,158.058969 201.493182,158.144503 C198.336956,160.138465 194.031044,158.488151 191.161107,161.561358 C188.537711,164.370415 185.613434,166.897711 182.968906,169.688654 C182.40639,170.281862 182.092428,171.59356 182.330415,172.369912 C183.050415,174.725132 184.637836,176.920855 184.898465,179.287648 C185.376956,183.62878 185.412679,188.068025 185.086138,192.425258 C184.950792,194.226013 185.108277,195.117082 186.404377,196.451925 C188.54878,198.66073 191.294943,199.147774 193.89922,200.13595 C194.278088,200.279849 194.751044,200.410164 195.11834,200.313057 C199.433308,199.170415 203.725132,197.942239 208.047145,196.827774 C209.885635,196.353811 211.816201,196.226516 213.640604,195.711799 C217.639094,194.584252 220.146264,191.853182 221.563623,187.998088 C221.992302,186.830792 222.706767,185.770667 223.190792,184.619975 C223.397585,184.126893 223.528906,183.474818 223.388025,182.982742 C222.252428,179.036579 221.394063,174.956075 219.734189,171.236327 C218.62878,168.75834 216.312302,166.832805 214.613182,164.602868 C213.989786,163.784755 213.581736,162.803119 213.075069,161.89595 C214.202616,161.964881 215.692428,161.594566 216.395321,162.176704 C219.902239,165.075321 223.010667,168.311547 223.875572,173.112553 C224.240352,175.137208 224.908528,177.139723 225.690415,179.048654 C226.576956,181.215195 228.466264,181.885887 230.733937,182.121358 C232.821987,182.338717 234.97595,182.760352 236.890918,183.581484 C239.461987,184.682868 239.978214,186.280352 239.159597,189.024 C238.540226,191.098969 238.028025,193.249912 237.070038,195.168403 C236.002868,197.304755 234.525132,199.243874 233.152553,201.217208 C231.735698,203.252931 230.320352,205.300226 228.747019,207.212176 C225.150038,211.584 220.37117,214.877082 215.234063,216.372428 C210.605635,217.719346 206.355069,219.564881 202.058214,221.534189 C201.344252,221.861736 200.412428,221.677082 199.602365,221.838591 C198.410415,222.076075 197.23356,222.396579 196.057711,222.71205 C195.111799,222.965635 194.155824,223.554314 193.242616,223.484377 C190.839597,223.301736 190.312302,224.547522 190.46073,226.548528 C190.761107,230.599849 189.130415,232.317082 185.031799,232.443371 C184.06878,232.473057 183.069535,232.757836 182.168906,233.125132 C179.250164,234.316579 176.429535,235.78073 173.448906,236.770415 C172.039094,237.237836 170.471799,236.770415 168.797836,237.172931 C163.854943,238.363874 158.705258,238.710038 153.628528,239.314818 C152.390289,239.462742 151.101233,239.473308 149.868528,239.302742 C148.298214,239.084881 146.775698,238.405132 145.208403,238.304503 C141.66878,238.077585 137.860478,237.242365 134.629786,238.212931 C130.712302,239.389283 126.88639,239.533182 123.001107,239.490415 C117.66878,239.43205 112.340981,238.951547 107.011673,238.643119 C101.923874,238.34878 96.8406038,237.935698 91.7487799,237.772176 C86.5568302,237.605132 81.3578365,237.68161 76.1618616,237.640855 C75.5782138,237.636327 74.8753208,237.760604 74.431044,237.490918 C70.0582138,234.833811 65.2909182,236.155572 60.6770818,236.089157 C58.0194717,236.050918 56.3938113,235.052176 55.4227421,232.414692 C54.0471447,228.680352 50.8949434,226.571673 46.9653836,226.925384 C44.5558239,227.142742 42.4451321,226.664755 40.2111698,225.616201 C36.8491572,224.03834 33.116327,223.25444 29.742239,221.697711 C26.0546918,219.995572 22.5397233,217.890918 19.0549434,215.786767 C15.9082767,213.886893 12.5598491,212.114314 9.92588679,209.623748 C6.82098113,206.688403 4.23431447,203.150792 1.73972327,199.648906 C0.732427673,198.234566 0.49645283,196.240604 0.0320503145,194.477585 C-0.369459119,192.953057 3.07708176,189.495447 5.28387421,189.105006 C8.74198742,188.493686 8.79984906,188.417208 8.72588679,184.952553 C8.70072956,183.779723 8.80236478,182.597333 8.69016352,181.43356 C7.9912956,174.168654 11.9917987,169.645384 17.6768302,166.214943 C19.7100377,164.98878 20.6358239,163.523623 20.542239,161.125132 C20.3998491,157.479346 19.8549434,153.77117 22.1694088,150.413182 C23.6194717,148.309031 24.9845031,146.335698 27.6390943,145.596075 C29.3583396,145.116579 28.5965786,144.09922 27.9535597,143.096956 C26.0743145,140.167648 24.2252579,137.216704 22.4788428,134.207899 C22.1834969,133.698717 22.1880252,132.554063 22.5341887,132.250667 C22.9759497,131.864755 24.1266415,131.71683 24.5789686,132.031296 C25.5590943,132.713057 26.3500377,133.706767 27.1082767,134.660226 C28.2383396,136.081107 29.1943145,137.645887 30.371673,139.023497 C31.4962013,140.33922 32.8919245,140.338717 33.5465157,138.664755 C35.3120503,134.150541 38.9070189,131.782239 43.0564528,129.895447 C44.702239,129.146767 44.7550692,128.004126 43.8267673,126.397585 C43.3135597,125.509535 43.3427421,124.069535 43.6149434,123.002868 C45.2003522,116.786013 49.4016101,112.315572 53.8579623,108.022239 C55.5767044,106.36639 55.7497862,104.564629 54.5367044,102.352302 C52.8873962,99.3450063 52.8129308,96.171673 54.6287799,93.0858868 C55.6873962,91.2871447 57.0237484,89.542239 57.592805,87.5870189 C58.949283,82.9299119 62.4335597,80.8584654 66.5211069,79.2212327 C68.3907925,78.4720503 70.100478,77.2851321 72.1120503,78.9077736 C72.3938113,79.1346918 73.3663899,78.9500377 73.631044,78.6325535 C73.9107925,78.2974591 73.947522,77.4385912 73.7055094,77.0441258 C72.4894088,75.0632453 71.0795975,73.2001006 69.8826164,71.2081509 C69.3950692,70.3960755 69.2733082,69.3636226 68.9855094,68.4312956 C69.9726792,68.7336855 71.3226164,68.735195 71.8740629,69.3993459 C73.1419874,70.9258868 73.9394717,72.8338113 75.1017358,74.4624906 C75.5198491,75.0481509 76.4370818,75.2770818 77.1263899,75.6680252 C77.2546918,74.8494088 77.7175849,73.8884025 77.4423648,73.2413585 C76.8290314,71.7993459 75.5797233,70.6043774 75.0871447,69.1402264 C74.5377107,67.5080252 73.905761,65.4662642 74.424,63.9950692 C75.8614843,59.9120503 78.5070189,56.4453836 82.1236226,54.0146918 C84.1633711,52.6436226 84.302239,51.2584654 82.893434,49.7273962 C80.5995975,47.2353208 80.9955723,45.1744403 82.618717,42.3402264 C84.9271447,38.3095346 87.1495346,34.3392201 90.862239,31.4360755 C92.6977107,30.0006038 94.5940629,28.6406038 96.4954465,27.2921761 C98.507522,25.8647547 99.2350692,23.8944403 98.7530566,21.5739371 C98.2509182,19.1553208 98.9397233,17.3565786 100.873308,15.8652579 C101.859472,15.1045031 102.827522,14.2209811 103.525384,13.2026164 C105.656201,10.0901635 108.670541,9.97242767 111.997836,10.1993459 C113.212931,10.2823648 115.146013,9.82903145 115.561107,9.01393711 C116.031547,8.09066667 115.298465,6.43632704 114.831044,5.19758491 C114.554314,4.464 113.590289,3.99909434 113.27834,3.26752201 C112.937208,2.46802516 112.991547,1.4994717 112.873308,0.605383648 C113.804126,0.553559748 115.246642,0.105257862 115.570164,0.523874214 C116.576453,1.82349686 117.227019,3.42198742 117.879094,4.96211321 C118.301736,5.95934591 118.485384,7.05771069 118.776704,8.11079245 C119.755321,7.83054088 120.821484,7.71431447 121.696956,7.24286792 C125.480101,5.20613836 133.913308,7.0149434 137.704,10.3719245 C141.667774,13.8823648 143.531925,18.5832453 145.917836,23.0607296 C148.21117,27.3641258 148.199094,31.2448805 145.308528,35.2076478 C144.128151,36.8247547 145.364377,37.7047547 146.688654,38.5585912 C148.981987,40.0373333 151.371421,41.4572075 153.365384,43.2886541 C156.252428,45.9402264 157.668277,49.2504151 157.853434,53.3938113 C157.947522,55.5055094 159.50073,58.3829937 161.271799,59.4285283 C166.027522,62.2355723 168.910038,66.3694088 172.008906,70.6884025 C174.194566,73.7329308 174.093937,75.6162013 171.721107,78.0282767 C171.098717,78.6607296 170.668025,79.5628679 170.370667,80.418717 C169.913811,81.7319245 170.354063,82.6823648 171.816704,83.0712956 C174.224252,83.7112956 176.93922,83.9150692 178.935195,85.2106667 C181.808151,87.076327 185.168151,88.8408553 185.550541,93.076327 C185.754314,95.3248805 186.457711,97.5311698 186.977459,99.7470189 C187.279346,101.03356 189.582742,101.176453 191.369409,100.242616 C192.659975,99.5673962 194.069283,98.9384654 195.486138,98.7548176 C196.312302,98.6471447 197.361358,99.3228679 198.106516,99.9055094 C198.51205,100.222491 198.766138,101.186516 198.584503,101.668528 C198.411925,102.12639 197.614943,102.439849 197.031799,102.622491 C196.582491,102.763371 196.038591,102.608906 195.537459,102.575698 C194.617208,102.514314 193.583245,102.146013 192.802365,102.444377 C191.362868,102.994818 190.072805,103.935195 188.719849,104.712553 C189.816704,105.506013 190.856704,106.862491 192.020981,106.978717 C194.72639,107.247899 196.667522,108.583748 198.062742,110.59683 C199.42073,112.555572 200.577459,114.746264 201.345761,116.997836 C202.382239,120.032302 203.198843,123.189031 203.648151,126.358843 C203.91683,128.252679 203.460981,130.305006 203.050415,132.226013 C202.469283,134.943497 203.370918,136.797585 205.461987,138.57117 C208.46073,141.114566 209.896201,144.58727 209.96161,148.532428 C210.004377,151.126642 209.790038,153.72639 209.855447,156.319597 C209.888151,157.613686 210.289157,158.89922 210.610667,160.665258" id="Fill-1" fill="#231916" mask="url(#mask-2)"></path>
                </g>
                <path d="M202.108327,174.62566 C204.801157,173.896101 204.847447,175.76478 204.892226,177.495094 C204.937006,179.202767 202.659774,181.314465 200.688956,181.430189 C198.52644,181.557484 198.171723,179.978616 197.813987,178.339371 C197.568453,177.213836 197.061283,176.14717 196.779019,175.02717 C196.415245,173.583648 196.000151,172.123019 195.904553,170.650818 C195.819522,169.340126 196.291975,167.933836 197.994113,168.212075 C199.562918,168.469182 200.462038,169.565535 200.125434,171.316981 C200.078138,171.563019 199.978516,171.798491 199.928201,172.043522 C199.473358,174.269434 199.956881,174.832956 202.108327,174.62566" id="Fill-3" fill="#231916"></path>
                <path d="M191.679899,171.043723 C192.185057,171.573031 192.690214,172.10234 193.195874,172.631145 C192.74556,173.020075 192.208704,173.794918 191.863044,173.717434 C191.104805,173.548377 190.176,173.091522 189.837887,172.469132 C189.616503,172.063094 190.310843,171.159447 190.595623,170.479195 C190.956881,170.667371 191.318138,170.855547 191.679899,171.043723" id="Fill-5" fill="#231916"></path>
                <path d="M6.3683522,198.948075 C7.13363522,199.368201 7.88935849,199.805434 8.66571069,200.203925 C9.3283522,200.54405 10.023195,201.126189 10.6888553,201.10556 C14.2536352,200.996881 17.1648302,202.930465 20.3809308,203.914616 C24.1369057,205.064805 28.0392956,205.93122 31.939673,206.359899 C35.7514969,206.778516 39.640805,206.477132 43.4958994,206.52795 C44.1530063,206.537006 44.9620629,206.520403 45.4370314,206.872101 C47.8038239,208.622038 50.5223145,208.392604 53.1809308,208.368956 C57.4792956,208.329711 61.5753962,208.098264 65.9447044,209.639396 C69.7600503,210.985811 74.392,210.058013 78.663195,210.064553 C95.2589182,210.088704 111.855145,210.125434 128.450868,210.035371 C130.29439,210.025811 132.186214,209.391346 133.959799,208.770465 C135.954767,208.072604 137.809358,207.713358 139.717283,208.932478 C140.17917,209.227321 140.834264,209.548327 141.307723,209.442667 C143.938667,208.856 146.535899,208.122415 149.155774,207.48644 C149.701686,207.35361 150.398038,207.207698 150.848352,207.428075 C152.737157,208.352352 154.54244,208.374994 156.358792,207.310843 C156.428226,207.270088 156.54244,207.224302 156.597283,207.253987 C160.37439,209.262541 163.786717,207.180528 167.419421,206.562667 C171.165836,205.925182 175.103447,206.421786 178.957535,206.398138 C179.704201,206.393107 180.554516,206.478642 181.168855,206.159648 C181.835019,205.813484 182.625962,205.08795 182.710491,204.442415 C182.77439,203.955371 181.828478,203.31839 181.301686,202.776 C180.597283,202.051975 179.864704,201.355119 179.144201,200.646692 C180.665711,199.990088 182.230491,198.743296 183.695648,198.851472 C185.042566,198.950591 186.532377,200.34883 186.187723,202.353862 C185.912,203.959396 186.887597,204.667824 188.183195,204.534491 C191.131119,204.230591 194.448855,205.855245 196.952503,202.987321 C197.093887,202.825811 197.446088,202.704553 197.647346,202.758893 C201.750491,203.872855 205.347472,201.61273 209.129107,200.858516 C212.838289,200.11839 216.343698,198.35034 219.932126,197.014491 C220.319547,196.870088 220.659673,196.427321 221.025459,196.423296 C224.612881,196.383044 227.872755,195.42405 230.826214,193.332981 C231.008352,193.204176 232.485585,194.245182 232.424643,194.544553 C232.144453,195.867321 231.842063,197.419019 230.970113,198.341283 C227.116025,202.418767 223.118541,206.367447 219.04005,210.222541 C218.08156,211.127698 216.637031,211.560403 215.363069,212.081157 C212.122818,213.404931 208.889107,214.762415 205.579421,215.892478 C203.797786,216.501283 201.839044,216.57122 200.007597,217.06078 C197.470239,217.738516 194.982189,218.597384 192.46395,219.348579 C191.154767,219.739019 189.839044,220.132478 188.502692,220.409208 C184.067975,221.327447 179.621182,222.186314 175.182943,223.08795 C174.695899,223.186566 174.246088,223.514113 173.760553,223.567447 C167.93766,224.202918 162.10722,224.772981 156.290365,225.454239 C155.333384,225.565937 154.433761,226.140025 153.501434,226.482667 C152.757786,226.755874 152.007094,227.218264 151.255899,227.224302 C145.138164,227.279145 139.013384,227.088956 132.902189,227.302792 C129.688604,227.415497 126.49766,228.186314 123.297157,228.665308 C122.883069,228.727698 122.458918,228.937006 122.064956,228.885686 C115.321308,228.007195 108.590742,229.568453 101.842063,228.961157 C98.1550189,228.629082 94.239044,229.247447 90.7894843,228.218516 C84.5474717,226.357384 78.3099874,227.787824 72.1187925,227.15839 C70.322566,226.975748 68.5691069,226.387069 66.7909937,226.005686 C65.8189182,225.796881 64.8347673,225.465811 63.8601761,225.479396 C61.0883522,225.518138 58.3552704,225.688201 55.8551447,224.033358 C55.2523774,223.633862 54.2229434,223.930214 53.4103648,223.789333 C48.2616855,222.895245 43.0521258,222.235623 37.9980377,220.960654 C34.5087296,220.080151 31.1240755,218.557132 27.8989182,216.916377 C24.0478491,214.957635 20.4070943,212.582289 16.6933836,210.357887 C14.5454591,209.070843 12.5072201,207.581535 10.2863396,206.442918 C7.33942138,204.931472 6.69539623,202.19034 5.50394969,199.708327 C5.79225157,199.455245 6.08055346,199.20166 6.3683522,198.948075" id="Fill-7" fill="#EDC583"></path>
                <path d="M167.120151,232.164478 C165.522164,232.597182 162.630591,233.419321 159.715874,234.147371 C158.840906,234.366239 157.901535,234.387371 156.990843,234.392906 C148.615497,234.441711 140.175748,233.85756 131.885937,234.716428 C126.423296,235.282465 121.006943,236.109635 115.500528,235.974792 C114.095748,235.940579 112.702038,235.587371 111.295748,235.469635 C110.324679,235.388629 109.259019,235.216553 108.378013,235.51039 C105.517635,236.464855 102.827824,236.145862 100.09122,235.044478 C99.0461887,234.623849 97.843673,234.452277 96.7070692,234.427119 C93.9473208,234.366742 91.1845535,234.461333 88.4227925,234.485987 C88.0051824,234.489509 87.5060629,234.594164 87.1810314,234.410516 C81.5327296,231.222591 75.3420377,233.353912 69.4487044,232.597686 C67.3827925,232.332528 65.2640503,232.502088 63.1714717,232.422088 C61.8632956,232.371774 60.2839245,232.114164 60.6824151,230.457811 C60.8736101,229.66234 62.4026667,229.03844 63.4426667,228.653535 C64.0620377,228.424101 65.0170063,228.612277 65.6358742,228.950893 C69.5563774,231.097308 73.7913459,230.386365 77.934239,230.387371 C82.0076981,230.388377 86.0967547,229.725736 89.8975094,232.12473 C90.8429182,232.721459 92.4922264,232.194667 93.8180126,232.198692 C105.543296,232.235925 117.268075,232.313912 128.992855,232.265107 C130.41273,232.259069 131.832604,231.585358 133.247447,231.201962 C133.722918,231.073157 134.203925,230.70234 134.646189,230.753157 C140.256755,231.401208 145.855748,230.469887 151.477384,230.660579 C154.981786,230.779321 158.525937,229.707623 162.053987,229.184352 C162.959648,229.050516 163.871849,228.916176 164.784553,228.876931 C167.665057,228.753157 170.620025,229.346868 173.231346,227.338818 C173.884428,226.836679 175.189585,227.256302 176.166189,227.087245 C178.178264,226.738063 180.155623,226.118692 182.177761,225.927497 C183.223296,225.827874 184.33273,226.405484 185.413484,226.676679 C184.858516,227.436428 184.468075,228.551396 183.721409,228.897057 C178.943547,231.107371 174.101283,233.210516 167.120151,232.164478" id="Fill-43" fill="#EDC583"></path>
                <path d="M8.46596226,191.578314 C9.73740881,193.522465 10.6636981,194.857811 11.4445786,196.272654 C11.5145157,196.398943 10.4141384,197.473157 10.2440755,197.382088 C8.72558491,196.572025 7.29464151,195.59844 5.83803774,194.673157 C6.52734591,193.861082 7.21715723,193.049509 8.46596226,191.578314" id="Fill-51" fill="#FEFEFE"></path>
                <path d="M168.011925,83.3948176 C167.582239,84.2914214 167.351799,85.1407296 166.837585,85.7490314 C166.225761,86.4730566 165.369409,86.9907925 164.61922,87.5980881 C164.55834,86.5409811 164.332931,85.4577107 164.494943,84.4353208 C164.601107,83.7671447 165.191296,83.1090314 165.71356,82.5978365 C166.054189,82.2632453 166.765132,81.9417358 167.122365,82.0846289 C167.527899,82.2466415 167.723623,82.933434 168.011925,83.3948176" id="Fill-53" fill="#FEFEFE"></path>
                <path d="M168.241409,121.074667 C168.072352,121.701082 168.093987,122.245987 167.835874,122.475925 C165.814239,124.277182 163.792604,126.090516 161.628579,127.710138 C161.247195,127.996428 160.202667,127.397686 159.464553,127.207497 C159.838893,126.582088 160.100025,125.837937 160.608201,125.352403 C162.337509,123.701585 164.136755,122.122214 165.949585,120.561962 C166.352604,120.215799 166.986566,119.795673 167.39361,119.895799 C167.780528,119.991396 168.009962,120.724478 168.241409,121.074667" id="Fill-55" fill="#231916"></path>
                <path d="M131.143346,36.339522 C129.774289,35.1007799 127.497057,34.885434 128.452528,32.548327 C128.672403,32.0109686 130.157182,31.386566 130.550138,31.6285786 C132.266365,32.6866918 132.215044,34.2801509 131.143346,36.339522" id="Fill-57" fill="#231916"></path>
            </g>
        </g>
    </g>
</svg>