<?xml version="1.0" encoding="UTF-8"?>
<svg width="223px" height="327px" viewBox="0 0 223 327" version="1.1" xmlns="http://www.w3.org/2000/svg" xmlns:xlink="http://www.w3.org/1999/xlink">
    <!-- Generator: Sketch 60 (88103) - https://sketch.com -->
    <title>figure3</title>
    <desc>Created with Sketch.</desc>
    <defs>
        <polygon id="path-1" points="0 0.457422543 222.396 0.457422543 222.396 326.999784 0 326.999784"></polygon>
    </defs>
    <g id="页面-1" stroke="none" stroke-width="1" fill="none" fill-rule="evenodd">
        <g id="桌面端-HD" transform="translate(-29.000000, -340.000000)">
            <g id="figure3" transform="translate(29.000000, 339.000000)">
                <g id="编组" transform="translate(0.000000, 0.543000)">
                    <mask id="mask-2" fill="white">
                        <use xlink:href="#path-1"></use>
                    </mask>
                    <g id="Clip-2"></g>
                    <path d="M36.711,147.2247 C37.028,147.0357 37.346,146.8447 37.663,146.6547 C37.252,145.8947 36.841,145.1347 36.43,144.3747 L35.323,145.0837 C35.786,145.7977 36.248,146.5117 36.711,147.2247 L36.711,147.2247 Z M85.647,84.3157 C86.294,84.8017 86.761,85.1537 87.228,85.5037 C87.522,85.0507 88.093,84.5607 88.038,84.1547 C87.971,83.6627 87.375,83.2437 87.008,82.7917 C86.617,83.2297 86.225,83.6677 85.647,84.3157 L85.647,84.3157 Z M93.227,91.7037 C92.608,92.6447 91.932,93.2187 91.978,93.7297 C92.024,94.2497 92.779,94.7077 93.223,95.1937 C93.589,94.6517 94.17,94.1387 94.252,93.5567 C94.313,93.1127 93.742,92.5797 93.227,91.7037 L93.227,91.7037 Z M100.02,260.6477 C102.03,259.7077 101.199,258.3437 100.836,256.8377 C99.101,257.9297 99.117,259.1327 100.02,260.6477 L100.02,260.6477 Z M67.805,231.3107 C67.468,231.3187 67.13,231.3257 66.794,231.3317 C66.876,232.8587 66.959,234.3847 67.042,235.9117 C67.296,235.9087 67.55,235.9047 67.805,235.9017 L67.805,231.3107 Z M76.112,135.8207 C76.826,134.9017 77.386,134.3017 77.761,133.6027 C77.842,133.4517 77.259,132.9437 76.982,132.5987 C76.365,133.1997 75.706,133.7667 75.176,134.4357 C75.097,134.5357 75.626,135.1167 76.112,135.8207 L76.112,135.8207 Z M80.524,84.9307 C81.159,86.3777 81.794,87.8257 82.589,89.6357 C83.855,87.4007 83.855,87.4007 80.524,84.9307 L80.524,84.9307 Z M86.508,93.2237 C85.607,92.5797 85.07,92.1967 84.533,91.8127 C84.127,92.4117 83.541,92.9697 83.388,93.6277 C83.309,93.9697 83.994,94.4897 84.335,94.9287 C84.957,94.4397 85.58,93.9517 86.508,93.2237 L86.508,93.2237 Z M84.639,118.3857 C85.56,117.3747 86.225,116.7057 86.763,115.9487 C86.81,115.8817 85.748,114.8457 85.671,114.9027 C84.931,115.4447 84.238,116.0817 83.673,116.8037 C83.574,116.9307 84.128,117.5717 84.639,118.3857 L84.639,118.3857 Z M93.74,97.8737 C93.026,97.1017 92.419,96.1077 92.125,96.1937 C91.42,96.3977 90.862,97.1097 90.245,97.6167 C90.875,98.1117 91.453,98.7277 92.165,99.0347 C92.404,99.1377 92.983,98.4537 93.74,97.8737 L93.74,97.8737 Z M78.43,266.6687 C79.12,265.4357 79.699,264.6677 79.942,263.8047 C80.017,263.5377 79.177,263.0137 78.756,262.6077 C78.171,263.3537 77.481,264.0477 77.07,264.8797 C76.961,265.1017 77.706,265.7457 78.43,266.6687 L78.43,266.6687 Z M71.978,5.6427 C71.869,5.5367 71.76,5.4317 71.652,5.3267 C70.703,6.0637 69.615,6.6857 68.871,7.5897 C68.543,7.9887 68.916,8.9627 68.97,9.6747 C69.407,9.5927 70.103,9.6527 70.238,9.4047 C70.9,8.1957 71.413,6.9057 71.978,5.6427 L71.978,5.6427 Z M83.005,68.5667 C83.866,69.1877 84.676,70.0407 84.926,69.9007 C85.548,69.5487 86.318,68.7167 86.275,68.1327 C86.23,67.5157 85.313,66.9627 84.776,66.3827 C84.275,66.9997 83.775,67.6177 83.005,68.5667 L83.005,68.5667 Z M78.377,194.1907 C78.623,194.3837 78.868,194.5767 79.114,194.7697 C79.843,193.8687 80.573,192.9667 81.302,192.0657 C80.725,191.7097 80.053,190.9567 79.587,191.0687 C77.774,191.5017 78.335,192.9797 78.377,194.1907 L78.377,194.1907 Z M125.997,199.5637 C126.254,199.5697 126.511,199.5757 126.769,199.5817 C128.045,198.2927 127.595,196.7247 127.24,195.2067 C127.185,194.9697 126.591,194.6187 126.431,194.6967 C126.109,194.8547 125.701,195.2757 125.706,195.5817 C125.729,196.9107 125.888,198.2367 125.997,199.5637 L125.997,199.5637 Z M80.479,5.3257 C78.976,7.3727 80.044,9.1477 80.249,11.0567 C81.787,9.3607 81.931,7.2437 80.479,5.3257 L80.479,5.3257 Z M95.999,236.0897 C95.782,236.0957 95.566,236.1027 95.351,236.1087 C94.941,237.0177 94.373,237.8947 94.187,238.8467 C94.087,239.3567 94.646,239.9947 94.908,240.5737 C95.438,240.1177 96.358,239.7037 96.416,239.1947 C96.529,238.1877 96.165,237.1277 95.999,236.0897 L95.999,236.0897 Z M79.011,269.8177 C79.174,270.0827 79.338,270.3477 79.502,270.6127 C79.992,270.8407 80.596,271.3697 80.951,271.2367 C81.745,270.9377 82.548,270.4177 83.078,269.7687 C83.321,269.4707 82.927,268.6547 82.821,268.0727 C82.135,268.3637 81.442,268.6387 80.765,268.9487 C80.171,269.2187 79.595,269.5267 79.011,269.8177 L79.011,269.8177 Z M91.27,234.6937 C89.98,235.9337 89.527,237.2377 90.781,238.6317 C91.016,238.8937 92.175,238.8297 92.35,238.5587 C93.352,236.9987 92.773,235.7457 91.27,234.6937 L91.27,234.6937 Z M105.141,30.3637 C103.919,29.3747 103.103,28.7157 102.286,28.0557 C101.89,28.5537 101.069,29.3597 101.169,29.4977 C101.746,30.2917 102.493,30.9987 103.303,31.5597 C103.464,31.6717 104.152,31.0247 105.141,30.3637 L105.141,30.3637 Z M68.995,198.7817 C71.021,196.8387 70.988,193.8987 68.995,192.4087 L68.995,198.7817 Z M75.416,206.1477 C75.578,206.1367 75.739,206.1267 75.9,206.1177 C76.315,204.1697 76.772,202.2307 77.098,200.2687 C77.148,199.9697 76.589,199.5697 76.313,199.2167 C75.948,199.5707 75.322,199.8877 75.267,200.2847 C75.068,201.7007 75.018,203.1427 75.008,204.5757 C75.005,205.0977 75.272,205.6227 75.416,206.1477 L75.416,206.1477 Z M90.463,73.9927 C90.742,73.7377 91.022,73.4827 91.301,73.2287 C90.69,71.9287 90.079,70.6297 89.468,69.3307 C89.163,69.3727 88.857,69.4157 88.552,69.4587 C88.416,70.5037 87.954,71.6557 88.252,72.5567 C88.466,73.2067 89.69,73.5257 90.463,73.9927 L90.463,73.9927 Z M81.267,79.8867 C82.343,78.5787 83.207,77.7687 83.707,76.7757 C83.857,76.4787 82.989,75.6687 82.587,75.0937 C81.806,76.0577 80.963,76.9807 80.296,78.0177 C80.166,78.2207 80.716,78.8627 81.267,79.8867 L81.267,79.8867 Z M102.428,224.5127 C100.979,226.9967 101.271,228.4217 103.393,229.8097 C105.099,228.2487 105.052,227.9647 102.428,224.5127 L102.428,224.5127 Z M96.695,253.6767 C96.728,253.4067 96.849,253.1387 96.764,252.9877 C96.414,252.3667 96.001,251.7807 95.611,251.1817 C95.223,251.7457 94.666,252.2637 94.494,252.8867 C94.312,253.5477 94.393,254.3337 94.557,255.0187 C94.669,255.4857 95.121,255.8707 95.421,256.2917 C95.846,255.9057 96.406,255.5887 96.653,255.1107 C96.858,254.7117 96.695,254.1237 96.695,253.6767 L96.695,253.6767 Z M136.006,222.6207 C135.695,222.8317 135.384,223.0437 135.074,223.2557 C135.597,224.2777 135.935,225.4827 136.702,226.2647 C137.353,226.9277 138.501,227.1017 139.429,227.4927 L140.024,226.5397 C138.685,225.2337 137.345,223.9267 136.006,222.6207 L136.006,222.6207 Z M129.849,204.4697 C129.604,204.4907 129.358,204.5107 129.113,204.5317 C128.947,204.6507 128.657,204.7497 128.635,204.8917 C128.469,205.9457 128.387,207.0117 128.22,208.0657 C127.822,210.5597 128.629,211.4077 131.51,211.1947 C130.61,209.0177 127.971,207.3977 129.849,204.4697 L129.849,204.4697 Z M78.889,98.6917 C78.979,98.8907 79.068,99.0897 79.158,99.2897 C80.253,99.2317 81.419,99.3797 82.413,99.0317 C82.947,98.8447 83.335,97.8407 83.497,97.1387 C83.598,96.6967 83.188,95.7107 82.957,95.6957 C82.215,95.6427 81.253,95.6997 80.739,96.1377 C79.962,96.8007 79.49,97.8227 78.889,98.6917 L78.889,98.6917 Z M79.001,198.6547 C80.367,199.5767 81.32,201.5217 82.903,199.8807 C83.452,199.3127 83.302,196.9537 82.804,196.6947 C81.168,195.8417 80.102,197.2207 79.001,198.6547 L79.001,198.6547 Z M87.197,237.8997 C87.423,237.8757 87.649,237.8527 87.874,237.8297 C87.874,235.1507 87.956,232.4667 87.788,229.7977 C87.762,229.3817 86.597,229.0377 85.959,228.6597 C85.779,229.3017 85.372,229.9787 85.461,230.5797 C85.755,232.5467 86.212,234.4907 86.645,236.4337 C86.757,236.9377 87.009,237.4117 87.197,237.8997 L87.197,237.8997 Z M82.432,260.8037 C83.914,259.5747 84.127,255.7507 82.793,254.8007 C82.315,254.4607 81.315,254.3327 80.874,254.6137 C80.444,254.8857 80.103,255.9237 80.285,256.4177 C80.827,257.8837 81.646,259.2477 82.432,260.8037 L82.432,260.8037 Z M73.003,133.0097 C72.882,132.9597 72.761,132.9097 72.641,132.8597 C72.697,132.6497 72.85,132.4067 72.793,132.2347 C72.582,131.6057 72.301,130.9997 72.047,130.3857 C71.565,130.8157 70.979,131.1737 70.624,131.6907 C70.103,132.4527 69.62,133.2897 69.361,134.1657 C69.179,134.7867 69.394,135.5247 69.432,136.2097 C70.213,136.1617 71.354,136.4157 71.7,136.0027 C72.37,135.2037 72.594,134.0297 73.003,133.0097 L73.003,133.0097 Z M99.65,301.6217 C99.25,303.9387 101.838,307.5797 103.78,307.6527 C104.386,307.6737 105.013,307.1277 105.63,306.8417 C105.248,306.3187 104.936,305.7197 104.47,305.2867 C103.627,304.5057 102.707,303.8047 101.791,303.1057 C101.138,302.6067 100.44,302.1657 99.65,301.6217 L99.65,301.6217 Z M139.481,315.1567 C138.094,314.4717 136.923,313.7237 135.643,313.3257 C134.844,313.0767 133.88,313.3567 132.991,313.3987 C133.446,314.1927 133.824,315.0467 134.388,315.7537 C134.669,316.1047 135.311,316.1457 135.754,316.3907 C138.344,317.8227 138.34,317.8287 139.481,315.1567 L139.481,315.1567 Z M93.492,246.4777 C93.194,245.9687 92.819,245.1317 92.244,244.4687 C92.08,244.2797 90.961,244.5047 90.917,244.6907 C90.538,246.2887 90.203,247.9157 90.117,249.5487 C90.1,249.8727 91.202,250.5197 91.79,250.522701 C92.195,250.5237 92.755,249.7327 92.975,249.1857 C93.264,248.4667 93.287,247.6417 93.492,246.4777 L93.492,246.4777 Z M91.996,221.2277 C90.181,222.2887 89.478,224.6837 90.388,227.0447 C90.567,227.5097 91.074,228.1217 91.469,228.1527 C91.873,228.1827 92.526,227.6747 92.724,227.2447 C93.696,225.1217 93.827,223.0387 91.996,221.2277 L91.996,221.2277 Z M24.915,122.2467 C24.392,121.0887 24.255,120.0977 23.7,119.7197 C22.844,119.1357 21.702,118.9717 20.681,118.6297 C20.659,119.4887 20.593,120.3487 20.632,121.2047 C20.651,121.6267 20.756,122.1287 21.011,122.4387 C21.577,123.1227 22.262,123.7077 22.898,124.3337 C23.582,123.6267 24.266,122.9187 24.915,122.2467 L24.915,122.2467 Z M108.008,122.2897 C107.5,122.0447 106.513,121.2747 106.221,121.4827 C105.127,122.2597 104.188,123.2987 103.334,124.3557 C102.798,125.0177 102.518,125.8867 102.123,126.6627 C102.925,126.4507 103.726,126.2297 104.531,126.0307 C104.81,125.9617 105.104,125.9027 105.387,125.9167 C107.584,126.0297 107.636,124.3667 108.008,122.2897 L108.008,122.2897 Z M92.489,66.4717 C92.898,68.3667 93.182,70.2157 93.732,71.9827 C93.96,72.7167 94.702,73.3357 95.331,73.8637 C95.461,73.9727 96.493,73.4197 96.479,73.2167 C96.423,72.4287 96.328,71.4847 95.862,70.9127 C93.586,68.1257 93.631,67.5887 96.78,66.0537 C96.595,65.4337 96.403,64.7917 96.193,64.0877 C94.805,64.9817 93.616,65.7457 92.489,66.4717 L92.489,66.4717 Z M98.321,16.9927 C97.401,15.6417 96.5,14.3987 95.688,13.1007 C95.053,12.0877 94.344,11.1977 93.095,12.0127 C91.922,12.7787 91.232,13.9277 91.992,15.3607 C92.558,16.4267 93.137,17.7607 94.771,16.7137 C95.672,16.1357 96.449,15.9877 97.218,16.9657 C97.365,17.1527 97.953,16.9927 98.321,16.9927 L98.321,16.9927 Z M86.971,252.6747 C85.701,254.9207 86.113,256.7397 87.916,258.1857 C89.284,259.2837 89.451,260.0597 87.795,261.1447 C86.606,261.9247 85.734,263.1897 84.542,264.4237 C86.223,264.1747 87.47,264.1077 88.634,263.7607 C89.083,263.6267 89.633,262.8617 89.637,262.3797 C89.651,260.5147 90.716,258.4767 88.784,256.8457 C88.364,256.4917 88.4,255.6287 88.15,255.0337 C87.862,254.3477 87.488,253.6987 86.971,252.6747 L86.971,252.6747 Z M37.315,117.6977 C36.664,117.9767 36.406,118.0077 36.281,118.1537 C35.518,119.0377 34.871,126.2807 35.596,127.1207 C35.862,127.4277 36.99,127.5207 37.123,127.3177 C37.608,126.5727 38.064,125.6767 38.121,124.8107 C38.222,123.3097 38.067,121.7847 37.92,120.2787 C37.841,119.4737 37.555,118.6887 37.315,117.6977 L37.315,117.6977 Z M94.8,262.4447 C95.007,263.1637 95.007,263.6807 95.263,263.9687 C96.595,265.4657 97.652,267.0247 97.531,269.1807 C97.514,269.4777 98.335,269.8217 98.768,270.1437 C99.039,269.6717 99.572,269.1807 99.537,268.7337 C99.378,266.7247 99.298,264.6517 98.682,262.7677 C98.425,261.9827 96.934,261.5197 95.919,261.1377 C95.724,261.0637 95.13,262.0457 94.8,262.4447 L94.8,262.4447 Z M52.123,185.9387 C52.37,185.9267 52.617,185.9157 52.863,185.9047 C52.863,183.2427 52.965,180.5737 52.798,177.9217 C52.751,177.1807 51.91,176.4907 51.433,175.7767 C51.1,176.5097 50.655,177.2147 50.463,177.9837 C50.237,178.8897 50.273,179.8577 50.12,180.7857 C49.766,182.9407 50.652,184.5557 52.123,185.9387 L52.123,185.9387 Z M70.445,186.5137 C70.567,186.6367 70.689,186.7597 70.81,186.8827 C70.949,188.1727 70.818,189.5817 71.317,190.7137 C71.673,191.5227 72.873,191.9587 73.696,192.5627 C73.941,191.7627 74.317,190.9767 74.397,190.1617 C74.501,189.0847 74.607,187.9077 74.274,186.9217 C73.954,185.9817 73.071,185.2327 72.436,184.3987 L70.445,186.5137 Z M80.354,16.4087 C80.358,16.0837 80.364,15.7597 80.369,15.4357 C79.609,14.8467 78.914,14.1327 78.073,13.7037 C77.204,13.2597 76.204,13.0457 75.24,12.8197 C74.681,12.6877 73.705,12.5087 73.573,12.7347 C73.222,13.3357 72.86,14.5237 73.152,14.8067 C74.401,16.0147 75.767,17.2847 77.338,17.8947 C78.044,18.1697 79.33,16.9507 80.354,16.4087 L80.354,16.4087 Z M89.244,184.9607 C89.347,184.9487 89.449,184.9367 89.552,184.9247 C89.462,184.3557 89.561,183.6067 89.234,183.2627 C88.825,182.8337 88.053,182.5307 87.462,182.5677 C87.02,182.5947 86.3,183.2067 86.249,183.6247 C86.039,185.3447 85.861,187.1087 86.034,188.8187 C86.122,189.6957 86.884,190.5777 87.525,191.2927 C87.819,191.6207 88.705,191.8027 89.051,191.5957 C89.423,191.3737 89.652,190.6127 89.635,190.0967 C89.58,188.3817 89.385,186.6717 89.244,184.9607 L89.244,184.9607 Z M121.937,221.5527 C121.785,221.5787 121.632,221.6067 121.48,221.6327 C121.593,222.5707 121.622,223.5277 121.836,224.4417 C122.374,226.7437 123.23,228.9957 123.517,231.3227 C123.791,233.5377 123.422,235.8247 123.516,238.0717 C123.544,238.7457 124.174,239.3927 124.529,240.0527 C124.765,239.9507 125,239.8487 125.236,239.7467 C125.236,235.7377 125.604,231.6787 125.089,227.7357 C124.808,225.5747 123.036,223.6077 121.937,221.5527 L121.937,221.5527 Z M65.824,206.9517 C67.242,206.7297 68.228,207.3807 68.608,209.0387 C68.701,209.4447 69.338,209.7247 69.725,210.0637 C69.948,209.5797 70.327,209.1087 70.366,208.6117 C70.466,207.3097 70.605,205.9617 70.377,204.6967 C70.136,203.3557 69.7,201.9517 68.963,200.8287 C68.244,199.7327 67.415,200.3787 67.134,201.4037 C66.654,203.1617 66.289,204.9527 65.824,206.9517 L65.824,206.9517 Z M201.115,201.0647 C201.711,202.0837 201.91,202.8857 202.363,203.0727 C202.801,203.2537 203.626,202.9537 204.059,202.5957 C204.889,201.9097 205.561,201.0317 206.303,200.2367 C207.834,198.5947 207.866,197.2997 206.204,195.7437 C205.858,195.4187 204.651,195.3577 204.474,195.6137 C203.248,197.3867 202.189,199.2757 201.115,201.0647 L201.115,201.0647 Z M83.7,223.7497 C84.145,224.6017 84.647,225.5627 85.149,226.5247 C85.89,225.6377 86.65,224.7667 87.354,223.8517 C87.507,223.6517 87.48,223.2937 87.495,223.0057 C87.664,219.7887 87.86,216.5737 87.948,213.3547 C87.961,212.8887 87.439,212.4087 87.164,211.9347 C86.973,212.4487 86.606,212.9667 86.619,213.4757 C86.687,216.1047 87.3,218.7837 84.723,220.8097 C84.116,221.2877 84.101,222.5167 83.7,223.7497 L83.7,223.7497 Z M79.948,133.1527 C80.191,136.0257 81.698,137.4487 83.031,136.1587 C84.778,134.4657 86.505,134.2487 88.718,134.6087 C89.379,134.7157 90.758,133.7817 90.873,133.1537 C91.103,131.8977 89.956,131.4777 88.815,131.6557 C85.903,132.1117 83.002,132.6327 79.948,133.1527 L79.948,133.1527 Z M59.453,18.2587 L59.864,17.8397 C60.081,17.8127 60.314,17.8287 60.511,17.7517 C62.788,16.8707 65.073,16.0077 67.305,15.0247 C67.478,14.9487 67.489,13.7827 67.203,13.5037 C65.677,12.0147 64.416,13.0877 63.236,14.1297 C61.163,15.9597 60.672,15.9857 59.186,13.7727 C58.464,12.6967 57.782,12.7727 57.128,13.5617 C56.731,14.0387 56.313,15.0897 56.545,15.3927 C57.365,16.4617 58.461,17.3207 59.453,18.2587 L59.453,18.2587 Z M170.499,205.6967 C171.723,203.5237 172.603,201.1797 174.148,199.4207 C175.983,197.3317 178.541,198.1877 181.021,199.5017 C180.023,196.0727 176.078,194.6967 173.594,196.4067 C171.772,197.6617 169.787,203.6787 170.499,205.6967 L170.499,205.6967 Z M88.639,100.1597 C87.782,101.7927 87.043,103.2687 86.241,104.7077 C85.682,105.7117 85.253,106.9647 84.39,107.5877 C81.666,109.5587 80.476,112.5367 78.994,115.3067 C78.774,115.7177 79.461,116.7417 79.933,117.3137 C80.06,117.4677 81.343,117.0927 81.402,116.8147 C81.969,114.1317 83.978,112.7987 86.036,111.4287 C86.457,111.1487 86.924,110.2907 86.785,109.9197 C85.806,107.3177 87.924,105.9577 89.187,104.6137 C91.065,102.6117 91.279,102.1497 88.639,100.1597 L88.639,100.1597 Z M74.341,221.1927 C74.06,221.1727 73.779,221.1547 73.498,221.1347 C73.411,221.7807 73.243,222.4257 73.251,223.0707 C73.303,227.4997 73.419,231.9297 73.461,236.3607 C73.497,240.2707 73.459,244.1817 73.459,248.0927 C73.459,251.6357 73.507,255.1797 73.432,258.7207 C73.419,259.3707 73.044,260.1117 72.619,260.6337 C70.868,262.7907 70.948,263.1007 74.195,264.0787 C74.338,261.4957 74.551,259.0207 74.59,256.5417 C74.63,254.0747 76.363,251.5757 74.453,249.1097 C74.198,248.7807 74.322,248.1117 74.361,247.6077 C74.626,244.2297 74.917,240.8547 75.192,237.4777 C75.221,237.1157 75.224,236.7477 75.2,236.3847 C74.918,232.1267 74.62,227.8707 74.348,223.6117 C74.297,222.8087 74.341,221.9987 74.341,221.1927 L74.341,221.1927 Z M101.264,63.7477 C101.428,64.7357 101.721,65.5227 101.638,66.2677 C101.554,67.0317 101.312,68.1327 100.775,68.4287 C98.755,69.5427 99.027,70.8207 100.108,72.3617 C101.32,74.0857 101.078,75.2367 99.347,76.4817 C98.584,77.0297 97.803,77.5907 97.173,78.2777 C95.696,79.8897 95.673,81.3847 97.274,82.8257 C97.801,83.2997 98.858,83.1857 99.672,83.3407 C99.78,82.5147 100.239,81.5097 99.928,80.8977 C99.046,79.1637 99.324,78.3637 101.058,77.2587 C102.472,76.3567 104.069,74.4237 104.047,72.9707 C104.028,71.6197 103.938,70.3097 104.23,68.9277 C104.783,66.3197 103.527,64.0127 101.264,63.7477 L101.264,63.7477 Z M81.943,241.2277 C81.648,241.2747 81.352,241.3207 81.056,241.3677 C80.669,240.9667 80.317,240.5217 79.884,240.1787 C79.409,239.8017 78.671,239.1347 78.381,239.2777 C77.815,239.5527 77.291,240.2437 77.089,240.8707 C76.481,242.7657 77.729,244.8047 79.789,245.7457 C80.516,246.0787 81.501,246.5557 81.712,247.1857 C82.559,249.7137 82.462,249.7417 84.812,248.4337 C85.256,248.1857 85.72,247.9667 86.188,247.7637 C87.886,247.0257 88.304,245.4037 88.057,243.9647 C87.898,243.0337 86.746,241.8457 85.803,241.5637 C83.745,240.9487 83.274,239.6997 83.319,237.8257 C83.347,236.6917 83.14,235.5517 83.038,234.4147 C82.022,236.6617 79.568,238.4847 81.943,241.2277 L81.943,241.2277 Z M76.777,125.1427 C79.899,125.1427 83.036,124.9607 86.136,125.2147 C87.853,125.3557 89.495,125.8417 90.816,124.4067 C92.261,122.8337 90.519,121.7787 90.003,120.5747 C88.993,118.2197 87.79,118.1797 85.797,119.9007 C84.922,120.6557 83.562,121.0197 82.37,121.1837 C81.174,121.3497 79.864,120.7847 78.692,121.0047 C76.775,121.3677 75.519,120.5627 74.171,119.4277 C73.566,118.9177 72.551,118.8957 71.721,118.6517 C71.511,119.7097 70.876,120.9077 71.167,121.8037 C72.183,124.9357 72.953,125.2907 76.777,125.1427 L76.777,125.1427 Z M89.557,5.9387 C90.154,6.5257 90.712,7.1617 91.361,7.6847 C92.004,8.2037 92.944,8.4657 93.39,9.0967 C94.388,10.5097 95.513,11.2577 97.147,10.6427 C97.85,11.4347 98.439,12.1727 99.104,12.8327 C101.464,15.1777 103.11,17.8777 103.278,21.2837 C103.353,22.7867 104.136,23.2997 105.525,23.3217 C106.89,23.3427 108.271,23.3627 109.613,23.5787 C111.279,23.8477 112.943,22.9457 113.325,21.3657 C113.622,20.1337 111.958,17.9087 110.497,18.1247 C106.275,18.7517 104.502,15.7177 103.052,12.9347 C101.745,10.4237 100.638,8.7977 97.729,10.2417 C96.661,7.6447 92.449,5.0287 89.557,5.9387 L89.557,5.9387 Z M77.816,212.2597 C79.079,210.6717 80.461,210.1587 82.226,210.5147 C82.99,210.6697 83.822,210.6917 84.585,210.5557 C84.924,210.4957 85.169,209.8997 85.458,209.5457 C85.132,209.3127 84.834,208.9317 84.478,208.8687 C81.91,208.4107 79.332,208.0107 76.755,207.6037 C75.312,207.3757 74.83,208.2357 75.095,209.4097 C75.258,210.1307 75.999,210.7027 76.327,211.4127 C76.648,212.1057 76.856,212.8777 76.961,213.6367 C77.046,214.2587 76.848,214.9137 76.878,215.5497 C77.04,219.1077 77.26,222.6627 77.401,226.2197 C77.446,227.3767 77.258,228.5427 77.274,229.7037 C77.297,231.3697 78.354,232.2427 79.86,232.4517 C81.514,232.6817 81.565,231.2457 81.544,230.2467 C81.516,228.9257 81.432,227.4227 80.795,226.3357 C79.659,224.3967 79.489,222.9417 81.046,221.0727 C82.217,219.6677 82.872,217.7857 83.555,216.0377 C84.152,214.5047 83.085,213.2777 81.587,213.8327 C79.727,214.5237 78.944,213.3627 77.816,212.2597 L77.816,212.2597 Z M156.15,262.8357 C159.621,262.8247 162.216,261.0457 164.659,258.9517 C165.247,258.4477 165.825,257.9017 166.493,257.5297 C169.156,256.0487 171.881,254.6757 174.513,253.1447 C175.031,252.8437 175.242,252.0147 175.594,251.4287 C174.834,251.1227 173.834,250.3437 173.354,250.5877 C170.597,251.9917 167.286,253.0787 165.436,255.3247 C162.2,259.2517 158.084,260.8867 153.518,261.7837 C151.139,262.2507 148.567,261.6537 146.134,261.9547 C142.96,262.3487 140.632,261.0667 138.541,258.9787 C137.981,258.4187 137.607,257.6277 136.976,257.1977 C136.483,256.8617 135.723,256.9187 135.082,256.8017 C135.135,257.4677 134.943,258.3317 135.289,258.7637 C136.328,260.0597 137.407,261.4607 138.784,262.3147 C140.714,263.5107 142.855,264.5237 145.041,265.0967 C146.736,265.5407 148.642,265.1337 150.45,265.2117 C151.904,265.2747 153.139,265.0847 154.16,263.8567 C154.598,263.3287 155.474,263.1647 156.15,262.8357 L156.15,262.8357 Z M86.278,173.0557 C85.025,170.8957 85.326,169.1487 87.151,168.8377 C89.089,168.5067 91.079,168.4147 92.967,167.9177 C93.51,167.7757 94.221,166.4927 94.089,165.9047 C93.686,164.1057 90.884,162.9707 89.253,163.8537 C84.456,166.4477 82.061,170.9357 80.089,175.7287 C80.016,175.9077 80.156,176.1627 80.123,176.3707 C79.645,179.3817 81.386,182.7287 78.71,185.4577 C78.469,185.7027 78.893,187.0377 79.364,187.3907 C79.695,187.6387 80.823,187.2647 81.253,186.8297 C81.895,186.1807 82.241,185.2377 82.701,184.4127 C83.261,183.4047 83.461,182.5537 82.082,181.9407 C81.596,181.7247 81.05,181.0107 81.031,180.5057 C80.987,179.2877 81.17,178.0477 81.389,176.8397 C81.636,175.4767 82.245,174.4137 83.859,174.2217 C85.452,174.0317 85.554,175.2087 85.951,176.2097 C86.935,178.6897 87.665,178.8837 89.949,177.4267 C90.362,177.1627 90.914,177.1207 91.393,176.9537 C93.893,176.0837 94.723,173.2857 93.219,171.1287 C90.902,171.7717 88.616,172.4067 86.278,173.0557 L86.278,173.0557 Z M13.281,110.8657 C13.226,110.6647 13.171,110.4657 13.116,110.2657 C10.687,111.0917 8.158,111.7077 5.852,112.7947 C2.912,114.1807 2.642,115.8367 4.328,118.6697 C4.718,119.3257 4.763,120.1777 5.084,120.8857 C5.332,121.4327 5.679,122.0397 6.157,122.3247 C6.352,122.4397 7.068,121.8237 7.449,121.4427 C8.108,120.7807 8.571,119.8187 9.343,119.4067 C9.961,119.0767 11.051,119.1397 11.663,119.4947 C11.975,119.6737 11.914,120.9777 11.627,121.5887 C11.312,122.2587 10.463,122.6567 9.998,123.2847 C9.638,123.7687 9.51,124.4247 9.279,125.0047 C9.998,125.0307 10.772,125.2357 11.42,125.0347 C12.143,124.8087 12.807,124.2787 13.397,123.7657 C14.309,122.9727 15.198,122.1357 15.982,121.2187 C16.75,120.3217 17.221,119.1227 18.093,118.3697 C19.936,116.7777 19.999,114.2677 18.397,112.5537 C16.924,110.9797 15.298,110.5237 13.281,110.8657 L13.281,110.8657 Z M27.947,112.2757 C28.061,112.1087 28.175,111.9427 28.289,111.7757 C28.578,111.7627 28.935,111.6347 29.145,111.7567 C29.901,112.2007 30.609,112.7267 31.335,113.2217 C30.642,113.7217 30.009,114.3747 29.239,114.6757 C28.525,114.9547 27.656,114.8087 26.87,114.9347 C25.317,115.1827 24.925,116.1407 26.048,117.1597 C27.841,118.7837 27.585,120.6987 27.54,122.7787 C27.498,124.7457 27.912,126.7377 28.26,128.6937 C28.531,130.2157 29.048,131.6927 29.374,133.2067 C29.504,133.8157 29.161,134.6537 29.466,135.0737 C31.173,137.4307 31.883,139.9877 31.641,142.8867 C31.61,143.2607 32.402,144.0087 32.845,144.0357 C33.319,144.0627 34.301,143.3447 34.255,143.1187 C33.725,140.5307 35.659,137.7327 33.301,135.2077 C32.5,134.3517 32.716,132.4927 32.587,131.0797 C32.51,130.2427 32.711,129.3827 32.709,128.5337 C32.69,123.6137 32.142,118.6287 32.755,113.7907 C33.379,108.8707 31.018,105.4917 28.488,102.0137 C27.518,100.6797 25.209,101.4927 24.68,103.1897 C24.151,104.8847 24.576,105.3227 26.208,105.1817 C26.949,105.1187 27.738,105.6157 28.506,105.8587 C28.065,106.6317 27.671,107.4377 27.171,108.1707 C26.647,108.9397 26.02,109.6397 25.438,110.3697 C26.274,111.0047 27.111,111.6397 27.947,112.2757 L27.947,112.2757 Z M141.308,323.2497 C141.309,323.2787 141.309,323.3057 141.31,323.3337 C141.746,323.3097 142.415,323.4577 142.583,323.2327 C143.863,321.5227 145.061,319.7487 146.171443,317.9267 C146.201,317.8777 144.699,316.5047 144.333,316.6727 C142.419,317.5487 140.47,318.5187 138.865,319.8537 C137.428,321.0497 136.416,321.0817 135.098,319.9027 C133.917,318.8437 132.73,317.7437 131.386,316.9257 C128.706,315.2957 125.905,313.8687 123.185,312.3037 C122.77,312.0647 122.55,311.5087 122.183,311.1597 C121.722,310.7207 121.251,310.2527 120.7,309.9547 C118.711,308.8817 116.43,308.1867 114.731,306.7787 C111.227,303.8727 107.695,300.9057 105.484,296.7647 C103.106,292.3107 100.808,287.8077 98.254,283.4557 C97.656,282.4377 96.204,281.8677 95.052,281.2687 C94.812,281.1437 94.057,281.7247 93.747,282.1367 C93.587,282.3497 93.75,283.1117 93.997,283.2757 C96.811,285.1367 94.476,289.3277 97.539,291.1017 C97.739,291.2177 97.33,292.2067 97.403,292.7647 C97.501,293.5127 97.557,294.4987 98.038,294.9267 C101.603,298.1077 104.411,302.1597 108.945,304.2487 C110.257,304.8537 110.92,306.0937 110.155,307.7407 C109.971,308.1377 110.336,309.0737 110.741,309.4157 C113.684,311.9037 117.52,313.2927 119.693,316.7397 C119.88,317.0357 120.193,317.2887 120.502,317.4647 C123.62,319.2447 126.733,321.0317 129.888,322.7437 C130.499,323.0747 131.28,323.2167 131.986,323.2277 C135.093,323.2797 138.201,323.2497 141.308,323.2497 L141.308,323.2497 Z M146.015,313.1317 C145.517,311.8937 145.459,311.1947 145.085,310.9067 C141.712,308.3067 138.502,305.3677 134.782,303.4037 C132.871,302.3937 131.305,301.2907 130.226,299.6607 C128.968,297.7587 127.588,295.6237 127.319,293.4577 C126.934,290.3497 124.643,287.9377 124.701,284.7877 C124.703,284.7337 124.596,284.6827 124.571,284.6187 C124.133,283.4987 123.495,282.4117 123.308,281.2497 C122.857,278.4567 120.686,276.6477 118.031,276.9217 C114.795,277.2567 111.315,278.2457 108.059,274.9537 C108.23,276.1827 108.191,276.7507 108.392,277.2147 C110.538,282.1767 112.366,287.3327 116.73,290.9597 C117.394,291.5107 118.237,292.1317 118.459,292.8797 C119.456,296.2497 122.207,298.1497 124.461,300.4807 C124.998,301.0367 125.422,301.7097 125.843,302.3657 C126.519,303.4177 126.919,304.8017 127.844,305.5087 C129.893,307.0747 132.189,308.3177 134.402,309.6607 C134.697,309.8387 135.113,309.8047 135.456,309.9197 C136.802,310.3717 138.128,310.8897 139.487,311.2997 C141.445,311.8907 143.426,312.4107 146.015,313.1317 L146.015,313.1317 Z M55.574,261.0157 C58.837,261.2167 58.858,261.1777 59.226,257.5747 C59.29,256.9427 59.625,256.3427 59.795,255.7167 C60.705,252.3667 61.61,249.0137 62.489,245.6557 C62.577,245.3177 62.51,244.9237 62.454,244.5667 C62.115,242.4027 61.709,240.2697 63.592,238.4707 C63.982,238.0987 64.007,237.2457 64.034,236.6087 C64.35,228.9907 64.656,221.3707 64.888,213.7497 C64.906,213.1487 64.489,212.2257 64.018,212.0087 C63.581,211.8077 62.546,212.1607 62.214,212.5997 C60.623,214.7087 59.163,216.8827 56.257,217.3597 C55.808,217.4337 55.346,217.8667 55.035,218.2497 C54.55,218.8467 53.713,219.7447 53.885,220.1527 C54.149,220.7787 55.092,221.3377 55.837,221.4967 C57.428,221.8337 57.976,222.6287 57.919,224.2327 C57.814,227.2227 57.848,230.2197 57.903,233.2137 C57.937,235.0727 57.988,236.8477 56.228,238.1207 C55.864,238.3827 55.84,239.1397 55.699,239.6787 C55.338,241.0547 55.04,242.4477 54.643,243.8117 C54.012,245.9807 54.115,248.4467 52.162,250.1067 C52.051,250.2007 52.122,250.5207 52.125,250.7357 C52.18,254.4817 50.679,257.7017 48.829,260.8367 C48.528,261.3467 48.773,262.1787 48.766,262.8617 C49.598,262.7787 50.913,262.9907 51.178,262.5597 C52.235,260.8327 53.723,260.8357 55.574,261.0157 L55.574,261.0157 Z M86.528,63.4087 C91.854,63.3947 95.689,60.7357 98.586,56.9197 C100.43,54.4917 101.452,51.4267 102.739,48.5997 C102.922,48.1977 102.649,47.4407 102.359,46.9957 C100.957,44.8437 99.554,42.6837 97.996,40.6447 C96.942,39.2647 96.563,37.9327 96.867,36.1847 C97.03,35.2527 96.488,34.1587 96.128,33.1867 C95.858,32.4567 95.45,31.7447 94.965,31.1347 C94.003,29.9237 93.153,28.4357 91.887,27.6917 C89.005,25.9997 85.77,25.4027 82.409,25.9607 C79.69,26.4137 78.011,28.4377 76.948,30.5847 C76.151,32.1967 77.065,33.9207 79.093,34.7257 C79.657,34.9497 79.917,35.9387 80.316,36.5767 C79.575,36.8517 78.851,37.2247 78.085,37.3537 C77.78,37.4047 77.414,36.8337 77.023,36.6857 C76.48,36.4807 75.456,36.1817 75.389,36.3127 C75.057,36.9507 74.676,37.8087 74.861,38.4237 C75.39,40.1747 77.755,41.1117 79.629,40.5077 C81.3,39.9687 82.337,40.6277 81.937,42.1127 C81.336,44.3337 80.512,46.4947 79.823,48.6957 C79.662,49.2097 79.696,49.7837 79.583,50.3167 C79.434,51.0117 79.332,51.7547 78.991,52.3517 C78.868,52.5677 77.733,52.5267 77.704,52.4227 C77.512,51.7347 77.423,50.9967 77.436,50.2777 C77.471,48.2667 77.632,46.2557 77.599,44.2467 C77.592,43.8507 76.851,43.0907 76.605,43.1507 C76.078,43.2757 75.505,43.7447 75.23,44.2307 C74.967,44.6947 74.919,45.3827 75.015,45.9307 C75.574,49.1357 75.813,52.4727 76.931,55.4797 C77.837,57.9167 78.633,60.8737 81.634,61.9317 C83.24,62.4967 84.895,62.9207 86.528,63.4087 L86.528,63.4087 Z M53.724,194.5687 C53.367,193.7657 53.023,192.5867 52.375,191.6097 C50.4,188.6347 46.415,187.2987 45.602,183.3127 C45.532,182.9667 44.655,182.6167 44.125,182.5667 C42.804,182.4437 42.198,181.8437 42.072,180.5087 C42.008,179.8307 41.647,179.1307 41.266,178.5407 C39.901,176.4237 38.347,174.4207 37.101,172.2407 C35.889,170.1177 35.05,167.7837 33.899,165.6207 C31.563,161.2357 29.006,156.9637 26.763,152.5327 C23.947,146.9667 21.361,141.2847 18.661,135.6607 C17.907,134.0907 17.203,132.4827 16.28,131.0137 C15.492,129.7597 14.466,129.3967 13.375,130.9057 C12.393,132.2627 12.215,133.1757 13.225,134.9117 C14.61,137.2927 14.686,140.3437 16.19,142.8387 C16.865,143.9577 17.139,145.3227 17.576,146.5817 C17.808,147.2517 17.997,147.9367 18.21,148.6137 C18.594,149.8297 18.899,151.0797 19.387,152.2537 C20.292,154.4327 21.479,156.5087 22.223,158.7357 C22.963,160.9517 23.278,163.3067 23.845,165.5847 C23.96,166.0507 24.375,166.4377 24.628,166.8737 C25.055,167.6087 25.588,168.3107 25.855,169.1017 C26.514,171.0607 26.841,173.1537 27.676,175.0257 C29.168,178.3737 30.668,181.7737 32.655,184.8327 C35.114,188.6187 36.91,192.8837 40.316,196.0297 C40.568,196.2617 40.638,196.6787 40.843,196.9747 C42.013,198.6577 43.163,200.3547 44.385,201.9977 C46.463,204.7917 50.527,204.8357 52.51,207.9507 C53.232,209.0837 55,208.4167 55.089,207.0627 C55.189,205.5687 55.341,203.8247 54.702,202.5857 C53.425,200.1107 52.971,197.6777 53.724,194.5687 L53.724,194.5687 Z M121.128,273.7117 C120.615,272.9027 120.337,272.4967 120.092,272.0737 C118.829,269.8957 117.372,267.8017 116.372,265.5097 C115.356,263.1807 114.8,260.6517 114.021,258.2167 C113.867,257.7387 113.561,257.3097 113.409,256.8307 C112.937,255.3487 112.211,253.8697 112.126,252.3587 C111.985,249.8737 112.216,247.4147 110.277,245.3887 C109.869,244.9617 109.878,244.0287 109.884,243.3297 C109.922,239.4787 110.211,235.6187 110.033,231.7787 C109.904,228.9967 110.853,225.9317 108.527,223.4957 C108.344,223.3027 108.422,222.5727 108.641,222.3307 C110.647,220.1297 109.78,217.8457 108.878,215.5837 C108.232,213.9637 107.854,212.4637 109.004,210.8397 C109.357,210.3417 109.101,209.3907 109.071,208.6487 C109.048,208.0867 108.676,207.3377 108.918,207.0007 C110.259,205.1267 109.633,203.0777 109.664,201.0787 C109.71,198.0357 109.551,194.9617 109.928,191.9567 C110.395,188.2317 108.601,184.0227 112.076,180.8647 C112.252,180.7037 112.277,180.3167 112.28,180.0347 C112.311,175.9167 112.333,171.7947 109.704,168.2647 C108.77,167.0107 107.595,166.8327 106.238,167.5777 C104.689,168.4277 105.696,169.2627 106.112,170.2577 C106.622,171.4757 107.452,173.1167 107.019,174.0567 C106.099,176.0567 105.591,177.8887 105.86,180.1087 C106.078,181.9087 105.07,182.4747 103.374,181.8017 C102.433,181.4287 101.588,180.7987 100.635,180.4797 C99.019,179.9367 98.604,178.8607 98.689,177.2697 C98.821,174.7997 98.872,172.3187 98.8,169.8457 C98.734,167.5667 99.722,166.7837 101.851,167.5807 C102.339,167.7647 103.28,167.9267 103.372,167.7537 C103.652,167.2327 103.811,166.4957 103.673,165.9267 C103.131,163.6937 101.144,163.8247 99.456,163.5807 C97.73,163.3327 97.653,164.7417 97.459,165.8517 C97.259,166.9917 97.185,168.1637 97.164,169.3247 C97.107,172.4097 97.638,175.5367 95.736,178.3927 C95.251,179.1217 95.5,180.3687 95.488,181.3777 C95.476,182.4657 95.589,183.5557 95.585,184.6447 C95.574,187.9897 93.705,191.2897 95.37,194.6897 C95.534,195.0257 95.355,195.5527 95.275,195.9797 C94.593,199.6567 94.396,203.3107 95.584,206.9407 C95.783,207.5497 95.983,208.3217 95.775,208.8607 C95.505,209.5607 94.827,210.1027 94.324,210.7127 C93.734,210.1627 92.977,209.7027 92.608,209.0297 C92.332,208.5257 92.693,207.7087 92.524,207.0997 C92.302,206.2977 92.039,205.1647 91.446,204.8677 C88.735,203.5037 88.815,201.3667 89.317,198.9107 C89.5,198.0187 89.292,197.0457 89.252,196.1117 C89.211,195.1367 89.576,193.9547 88.045,193.7277 C86.711,193.5297 85.294,193.0557 84.471,194.8867 C86.446,196.0497 86.539,197.7497 86.259,199.8037 C85.976,201.8847 86.114,204.0377 86.244,206.1487 C86.274,206.6297 87.214,207.5377 87.423,207.4537 C90.43,206.2707 90.046,208.5437 90.296,210.1727 C90.45,211.1727 90.395,212.2647 90.796,213.1507 C91.098,213.8167 91.947,214.6157 92.606,214.6657 C94.346,214.8017 95.058,215.6067 95.248,217.2437 C95.329,217.9387 95.713,218.6117 96.024,219.2647 C97.698,222.7837 98.013,226.3177 96.171,229.8757 C95.411,231.3427 94.972,232.8047 95.727,234.1697 C96.857,233.7897 97.843,233.4577 98.828,233.1267 C99.147,234.1937 99.756,235.2657 99.731,236.3237 C99.643,239.9547 99.269,243.5787 99.153,247.2097 C99.124,248.1397 99.349,249.5447 99.965,249.9397 C101.711,251.0557 101.594,252.4577 101.346,254.1167 C101.252,254.7457 101.554,255.4357 101.675,256.0977 C102.353,255.9447 103.269,256.0037 103.644,255.5817 C104.065,255.1087 104.373,253.9147 104.079,253.5277 C102.342,251.2357 102.389,248.7097 102.596,246.0587 C102.667,245.1667 102.13,244.2447 102.005,243.3177 C101.662,240.7687 101.428,238.2037 101.07,235.6577 C100.919,234.5807 100.634,233.5097 100.288,232.4767 C99.813,231.0587 98.776,229.6857 98.755,228.2827 C98.658,221.7347 98.833,215.1827 98.899,208.6327 C98.915,206.9967 98.806,205.4887 97.073,204.5047 C96.496,204.1777 96.24,203.0757 96.077,202.2787 C95.894,201.3817 96.09,200.4097 95.924,199.5057 C95.696,198.2567 96.093,197.2347 97.312,197.3727 C98.12,197.4647 99.103,198.3807 99.486,199.1777 C99.856,199.9487 99.643,201.0487 99.535,201.9867 C99.301,204.0057 100.159,205.0177 102.253,205.1077 C102.38,204.4927 102.63,203.8597 102.621,203.2307 C102.547,197.7767 102.399,192.3237 102.354,186.8697 C102.349,186.2377 102.765,185.1197 103.115,185.0647 C103.916,184.9407 104.906,185.1597 105.602,185.5897 C106.001,185.8367 106.109,186.7697 106.116,187.3967 C106.16,191.1797 106.217,194.9667 106.108,198.7467 C106.024,201.7107 105.586,204.6657 105.518,207.6287 C105.413,212.2487 105.468,216.8727 105.514,221.4947 C105.52,222.1007 105.863,222.7087 106.076,223.3077 C106.436,224.3187 107.06,225.3037 107.14,226.3327 C107.315,228.5677 107.32,230.8297 107.162,233.0647 C107.121,233.6427 106.318,234.4347 105.699,234.6487 C104.365,235.1107 104.15,235.9437 103.869,237.2207 C102.952,241.3757 107.243,244.6537 105.653,248.8437 C105.636,248.8887 105.703,248.9817 105.751,249.0337 C107.485,250.8887 107.712,253.1217 107.489,255.5217 C107.441,256.0357 107.829,256.6137 108.084,257.1267 C108.942,258.8557 110.085,260.4957 110.61,262.3157 C110.906,263.3407 110.546,265.3837 109.884,265.6947 C108.27,266.4517 108.107,264.7067 107.646,263.5797 C106.838,261.6037 105.904,259.6777 104.861,257.3747 C103.751,259.2997 102.77,260.7127 103.697,262.7117 C104.883,265.2677 105.864,267.9157 106.979,270.5047 C107.253,271.1397 107.569,271.8927 108.096,272.2587 C112.026,274.9897 116.351,274.3427 121.128,273.7117 L121.128,273.7117 Z M79.334,278.6927 C81.548,278.5937 83.548,278.4567 85.55,278.4267 C88.956,278.3737 92.377,278.5637 95.764,278.3027 C97.579,278.1617 98.956,278.3877 99.874,279.9657 C101.442,282.6627 102.951,285.3937 104.461,288.1237 C106.44,291.7037 108.368,295.3107 110.37,298.8767 C111.548,300.9757 113.013,302.8137 115.911,303.8707 C115.669,302.8887 115.664,302.2417 115.37,301.7777 C113.34,298.5697 111.349,295.3287 109.127,292.2547 C108.301,291.1147 107.614,290.1927 108.029,288.7337 C108.157,288.2867 108.097,287.6657 107.877,287.2577 C105.57,282.9867 103.254,278.7187 100.826,274.5177 C100.458,273.8817 99.497,273.5897 98.811,273.1377 C98.402,273.7767 98.034,274.4457 97.575,275.0437 C97.166,275.5787 96.609,276.4717 96.203,276.4267 C95.567,276.3577 94.61,275.7177 94.488,275.1647 C94.218,273.9387 94.253,272.6017 94.399,271.3357 C94.589,269.6877 94.768,268.1667 92.859,267.4067 C91.978,268.7727 91.164,270.0347 90.35,271.2957 C90.158,271.2187 89.965,271.1417 89.773,271.0657 C89.711,269.7097 89.65,268.3557 89.571,266.5997 C88.776,267.4497 88.199,267.8567 87.919,268.4127 C87.396,269.4477 86.474,271.3387 86.722,271.5237 C87.895,272.3947 88.636,274.3957 90.765,273.5757 C91.113,273.4407 91.787,274.1547 92.311,274.4757 C91.824,275.0127 91.427,275.7307 90.823,276.0297 C90.334,276.2707 89.441,275.7457 88.994,276.0097 C87.085,277.1397 86.007,276.5177 85.326,274.6017 C84.735,272.9397 83.709,272.7317 82.601,274.0457 C81.147,275.7717 79.721,275.4567 78.267,274.1927 C76.866,272.9747 75.534,271.6777 73.764,270.0377 C73.648,272.1607 73.489,273.8087 73.487,275.4577 C73.484,277.1847 72.424,277.2577 71.307,276.8067 C70.795,276.5997 70.241,275.7487 70.229,275.1797 C70.167,272.2067 70.323,269.2297 70.287,266.2547 C70.277,265.4387 70.125,264.2167 69.595,263.8837 C67.194,262.3737 68.03,260.6227 68.883,258.7597 C69.422,257.5817 70.178,256.4127 70.346,255.1717 C71.18,249.0217 68.084,243.3997 67.783,237.3837 C67.774,237.2207 67.601,237.0657 67.491,236.8837 C65.167,239.2117 65.338,241.9747 65.722,244.8437 C65.847,245.7737 65.584,246.7837 65.364,247.7247 C65.063,249.0177 64.574,250.2677 64.272,251.5607 C63.734,253.8607 63.289,256.1827 62.78,258.4907 C62.608,259.2657 62.43,260.0517 62.134,260.7857 C61.714,261.8267 61.37,262.9887 60.654,263.7977 C59.665,264.9147 59.775,265.8787 60.477,266.9477 C61.407,268.3657 62.748,268.8707 64.434,268.7207 C66.199,268.5627 67.325,269.4667 67.275,271.2267 C67.225,273.0247 66.144,273.6707 64.281,273.3877 C62.171,273.0677 60.614,274.2967 60.16,276.3937 C59.977,277.2397 60.044,278.1397 59.854,278.9837 C59.604,280.0907 59.446,281.3287 58.83,282.2197 C57.783,283.7317 57.624,285.2287 57.831,286.9747 C57.939,287.8777 57.576,288.8837 57.252,289.7797 C56.831,290.9397 56.396,292.1557 55.671,293.1267 C54.944,294.0997 53.905,294.8757 52.888,295.5717 C52.619,295.7547 51.496,295.3077 51.5,295.1727 C51.532,294.1637 51.674,293.1407 51.936,292.1627 C52.08,291.6237 52.666,291.1997 52.794,290.6617 C52.949,290.0097 52.831,289.2927 52.831,288.6037 C52.628,288.5407 52.424,288.4777 52.221,288.4147 C51.453,289.3437 50.571,290.2027 49.942,291.2167 C49.031,292.6907 48.333,294.2947 47.487,295.8107 C46.159,298.1897 46.692,300.1427 49.357,300.3067 C51.734,300.4527 54.682,299.9627 56.482,298.5847 C58.547,297.0037 60.556,296.9207 62.734,296.8457 C63.372,296.8237 64.634,297.7167 64.581,297.9777 C64.389,298.9047 63.961,300.0957 63.233,300.5187 C62.297,301.0627 60.986,300.9577 59.837,301.1407 C59.258,301.2337 58.682,301.3447 58.104,301.4487 C58.078,301.7167 58.052,301.9867 58.026,302.2547 C58.822,302.4637 59.702,303.0007 60.398,302.8217 C62.673,302.2357 64.869,301.3437 67.12,300.6507 C71.053,299.4407 74.279,297.2517 76.778,293.9737 C77.745,292.7037 78.704,291.4067 79.839,290.2987 C80.274,289.8747 81.189,289.9447 81.885,289.7897 C81.893,290.4957 82.195,291.4227 81.859,291.8717 C80.143,294.1687 78.237,296.3237 76.463,298.5787 C76.181,298.9367 76.229,299.5527 76.125,300.0497 C76.646,300.1047 77.316,300.3937 77.664,300.1737 C79.211,299.1977 81.204,298.7227 81.769,296.5417 C81.899,296.0417 82.664,295.4157 83.189,295.3627 C85.044,295.1757 85.528,293.9047 85.483,292.4717 C85.431,290.8157 86.224,290.0037 87.628,289.6577 C89.269,289.2517 88.884,288.3947 88.27,287.4087 C87.585,286.3087 86.645,285.2857 86.28,284.0867 C85.618,281.9067 84.398,280.9277 82.127,281.1827 C80.742,281.3387 79.689,280.8917 79.334,278.6927 L79.334,278.6927 Z M72.202,126.4347 C72.254,126.1817 72.307,125.9297 72.359,125.6777 C69.082,125.8727 67.801,124.5007 68.17,121.4997 C68.54,118.4927 69.47,115.3217 66.534,112.8677 C65.951,112.3797 65.669,111.5337 65.249,110.8517 C64.418,111.3667 63.576,111.8647 62.759,112.3987 C61.651,113.1227 60.569,113.8857 59.463,114.6137 C58.812,115.0417 58.138,115.4377 57.472,115.8457 C56.748,116.2877 56.072,116.9337 55.287,117.1207 C53.986,117.4307 53.662,117.9957 53.932,119.2877 C54.31,121.1007 52.321,124.7627 50.662,125.6037 C49.334,126.2767 48.66,127.0687 48.835,128.8297 C49.244,132.9517 49.221,137.0027 44.947,139.6227 C43.838,140.3027 43.282,141.9007 42.501,143.0957 C41.845,144.0977 41.332,145.2087 40.575,146.1237 C39.611,147.2907 38.436,148.2797 37.408,149.3957 C36.206,150.7007 34.449,151.3767 33.397,150.0597 C31.52,147.7067 30.137,144.9387 28.711,142.2567 C28.096,141.1017 27.923,139.7167 27.481,138.4607 C27.245,137.7897 26.496,137.0987 26.607,136.5417 C27.207,133.5357 25.179,131.2947 24.469,128.6857 C24.32,128.1377 23.493,127.3587 23.027,127.3907 C21.561,127.4917 20.117,127.9217 18.681,128.2907 C18.659,128.2967 18.733,129.2257 18.968,129.5917 C20.874,132.5627 24.028,134.8707 23.824,138.9587 C23.807,139.3037 24.32,139.6557 24.535,140.0337 C24.927,140.7247 25.298,141.4287 25.648,142.1417 C27.233,145.3797 28.7,148.6817 30.422,151.8447 C31.793,154.3607 33.599,156.6377 34.978,159.1497 C36.605,162.1127 37.294,165.6037 40.111,167.8917 C40.511,168.2167 40.632,168.9197 40.818,169.4687 C42.12,173.3287 44.876,176.1287 47.903,178.9817 C48.328,176.5767 48.593,174.1887 48.519,171.8117 C48.47,170.2747 48.545,169.2977 50.421,169.7107 C52.188,170.0997 52.822,169.0317 53.032,167.5817 C53.134,166.8777 53.023,166.1317 52.935,165.4127 C52.52,162.0267 53.01,159.1867 55.702,156.5047 C57.894,154.3207 59.646,151.3807 59.197,147.7997 C59.131,147.2737 59.754,146.5527 60.222,146.0847 C61.87,144.4367 63.657,142.9227 65.242,141.2177 C65.743,140.6787 66.221,139.3437 65.937,138.9877 C64.898,137.6797 65.269,136.6797 65.927,135.4147 C66.339,134.6217 66.389,133.5917 66.428,132.6617 C66.543,129.9627 67.894,128.1987 70.453,127.4147 C71.077,127.2237 71.621,126.7687 72.202,126.4347 L72.202,126.4347 Z M108.272,113.0287 C109.86,112.2917 112.068,112.4497 112.162,109.8477 C112.185,109.2027 112.817,108.5817 113.155,107.9437 C114.492,105.4137 116.244,103.0807 115.497,99.8467 C115.209,98.6037 115.643,97.0957 116.063,95.8117 C116.522,94.4087 117.833,94.0037 119.096,94.5907 C119.669,94.8577 120.392,96.2337 120.228,96.4337 C118.72,98.2707 118.935,100.3237 119.017,102.4527 C119.045,103.2137 118.368,104.0017 118.019,104.7797 C117.699,105.4907 117.17,106.1857 117.11,106.9187 C116.914,109.2877 115.719,110.9997 113.874,112.3157 C112.825,113.0637 113.201,113.5777 113.802,114.4317 C114.353,115.2147 114.959,116.4687 114.684,117.1877 C114.387,117.9627 113.164,118.6537 112.228,118.8667 C109.423,119.5027 109.253,119.6877 110.517,122.2187 C111.473,124.1357 110.99,125.2007 108.981,125.8297 C108.331,126.0347 107.73,126.4367 107.15,126.8147 C104.686,128.4167 102.425,130.7287 99.731,131.4617 C97.254,132.1357 95.101,132.7177 93.538,134.7747 C93.035,135.4357 92.57,136.1437 92.201,136.8857 C91.2,138.8957 90.44,141.0527 89.226,142.9177 C88.525,143.9937 87.196,144.7397 86.012,145.3797 C85.574,145.6177 84.47,145.3277 84.169,144.9137 C83.865,144.4967 83.94,143.4567 84.272,142.9937 C84.987,141.9957 86.084,141.2757 86.807,140.2827 C87.238,139.6897 87.256,138.7957 87.461,138.0377 C86.718,138.2347 85.647,138.1877 85.288,138.6697 C83.506,141.0597 80.434,142.5237 80.04,145.9497 C79.978,146.4907 79.247,146.9407 78.861,147.4597 C78.388,148.0977 77.864,148.7207 77.517,149.4267 C76.634,151.2187 76.247,153.4657 74.919,154.7817 C72.419,157.2567 72.968,160.7807 71.233,163.4107 C70.722,164.1857 70.026,164.8387 69.416,165.5487 C69.011,164.6447 68.315,163.7567 68.264,162.8337 C68.163,161.0367 68.769,159.1527 68.446,157.4237 C68.036,155.2327 68.496,154.1887 70.715,153.6487 C72.98,153.0977 73.941,151.3207 74.195,148.9727 C74.325,147.7777 74.912,146.5077 75.642,145.5347 C76.5,144.3887 77.864,143.6287 78.761,142.5047 C79.276,141.8607 79.641,140.7247 79.43,139.9957 C79.277,139.4657 78.097,139.0267 77.326,138.9297 C75.974,138.7597 74.585,138.8547 73.212,138.8987 C72.723,138.9137 72.064,138.9377 71.779,139.2387 C68.603,142.5897 64.318,145.1857 63.016,149.8907 C61.913,153.8767 60.087,157.1277 56.974,159.8317 C56.176,160.5257 55.777,162.0427 55.75,163.1947 C55.624,168.5097 55.643,173.8307 55.722,179.1487 C55.751,181.0627 55.602,183.2277 56.425,184.8157 C57.387,186.6707 58.421,188.1387 57.126,190.1787 C56.945,190.4637 57.155,191.0107 57.214,191.4317 C57.432,193.0057 57.85,194.5787 57.852,196.1517 C57.856,200.2337 57.65,204.3147 57.609,208.3967 C57.604,208.9477 57.948,209.6477 58.366,209.9917 C58.56,210.1507 59.43,209.7317 59.796,209.3717 C60.248,208.9307 60.562,208.3077 60.816,207.7117 C61.924,205.1117 63.053,202.5167 64.039,199.8707 C64.461,198.7387 64.403,197.4257 64.828,196.2947 C65.887,193.4737 67.121,190.7187 68.227,187.9147 C68.433,187.3947 68.464,186.7607 68.417,186.1937 C68.029,181.5847 71.408,177.5537 70.455,172.8357 C70.356,172.3447 71.031,171.7087 71.316,171.1247 C72.258,169.1937 73.301,167.2997 74.087,165.3057 C74.869,163.3207 75.414,161.2387 76.013,159.1837 C76.417,157.7957 77.342,157.4137 78.514,158.0157 C79.777,158.6637 79.491,159.7617 79.03,160.8687 C78.437,162.2897 77.944,163.7557 77.413,165.2037 C77.29,165.5377 77.285,166.0407 77.05,166.1907 C75.216,167.3627 75.493,169.2757 75.185,171.0237 C74.986,172.1487 74.368,173.1967 74.129,174.3197 C73.697,176.3507 73.367,178.4067 73.103,180.4657 C73.065,180.7637 73.634,181.1377 74.132,181.7227 C74.68,180.3377 75.072,179.2747 75.519,178.2337 C76.743,175.3787 77.953,172.5167 79.247,169.6927 C79.684,168.7407 80.327,167.8747 80.923,167.0027 C82.982,163.9957 85.093,161.0227 87.122,157.9957 C88.916,155.3187 90.345,152.3407 92.437,149.9317 C96.099,145.7127 100.101,141.7847 104.078,137.8517 C104.655,137.2817 105.878,137.3637 106.802,137.1437 C106.913,138.0787 107.134,139.0197 107.086,139.9477 C107.064,140.3597 106.539,140.7837 106.176,141.1327 C102.713,144.4767 99.215,147.7857 95.771,151.1497 C94.162,152.7207 92.512,154.2867 91.16,156.0687 C90.601,156.8067 90.279,158.4257 90.708,159.0837 C92.258,161.4667 96.423,161.8707 98.695,160.1317 C101.338,158.1107 102.02,158.3807 103.533,161.4757 C104.059,162.5507 105.049,163.7867 106.098,164.1317 C107.774,164.6857 109.825,165.0567 111.44,164.5747 C112.983,164.1147 115.112,162.6177 115.322,161.3097 C115.765,158.5387 117.102,155.9847 117.349,153.3857 C117.577,150.9757 115.971,148.3917 115.17,145.8757 C112.092,146.7107 111.345,148.1567 112.553,151.0947 C112.691,151.4307 112.983,151.8457 112.887,152.1087 C112.614,152.8607 112.178,153.5517 111.806,154.2677 C111.124,153.8517 110.381,153.5067 109.789,152.9897 C109.518,152.7517 109.517,152.1807 109.439,151.7517 C109.199,150.4387 108.223,150.0317 107.411,150.8377 C104.509,153.7197 99.768,153.6507 97.34,157.2597 C97.013,157.7457 96.256,158.1377 95.66,158.1977 C95.034,158.2607 94.179,158.0457 93.773,157.6207 C93.481,157.3147 93.522,156.2367 93.837,155.8977 C94.598,155.0817 95.567,154.4347 96.523,153.8317 C98.79,152.4037 101.149,151.1167 103.37,149.6217 C104.732,148.7047 105.833,147.4037 107.187,146.4727 C108.697,145.4357 110.48,144.7777 111.926,143.6697 C113.539,142.4357 114.957,140.9297 116.371,139.4567 C119.402,136.2997 122.357,133.0817 123.451,128.6417 C124.215,125.5407 126.207,122.7427 125.648,119.2967 C125.566,118.7907 126.321,118.1977 126.516,117.5887 C126.95,116.2357 127.55,114.8547 127.587,113.4717 C127.677,110.0707 127.361,106.6577 127.461,103.2567 C127.512,101.5567 127.362,100.1777 126.091,98.9057 C125.558,98.3717 125.328,97.3467 125.303,96.5357 C125.244,94.5727 125.46,92.6027 125.41,90.6397 C125.392,89.9057 124.96,89.1757 124.689,88.4537 C124.293,87.4037 123.761,86.3917 123.481,85.3127 C122.491,81.5027 121.118,78.0087 117.244,76.1477 C116.756,75.9127 116.445,75.2377 116.137,74.7157 C114.464,71.8817 112.17,69.6797 109.202,67.8557 C108.858,69.1657 108.954,70.3867 108.831,71.5857 C108.708,72.7947 108.626,74.1227 108.068,75.1517 C106.908,77.2887 107.131,80.0507 105.056,81.7507 C105.019,81.7817 105.04,81.8927 105.047,81.9647 C105.412,85.3287 103.809,88.1147 101.973,90.5827 C99.57,93.8147 100.014,98.2197 97.196,101.1857 C97.155,101.2287 97.192,101.3387 97.157,101.3957 C96.515,102.4397 95.936,103.5327 95.201,104.5047 C94.395,105.5717 93.369,106.4717 92.578,107.5467 C91.928,108.4297 91.436,109.4407 90.96,110.4357 C90.586,111.2147 89.865,112.4157 90.148,112.7937 C90.653,113.4697 91.768,113.8367 92.689,114.0087 C93.427,114.1477 94.39,113.4887 95.013,113.7517 C95.936,114.1437 96.646,115.0377 97.446,115.7177 C96.569,116.1927 95.736,116.8237 94.8,117.0927 C93.999,117.3247 93.079,117.1407 92.211,117.1407 C92.154,117.3547 92.097,117.5687 92.04,117.7817 C92.564,118.3417 93.243,118.8257 93.571,119.4847 C93.924,120.1917 94.336,121.2787 94.036,121.8187 C93.371,123.0127 93.547,123.7917 94.418,124.6887 C95.488,125.7877 95.347,126.8367 94.225,127.8917 C93.435,128.6337 92.791,129.5307 91.921,130.5457 C94.494,131.0767 95.934,130.2117 96.544,128.1967 C96.73,127.5817 96.702,126.7657 97.099,126.3767 C98.936,124.5787 100.784,122.8757 98.709,120.0957 C98.603,119.9537 98.612,119.6267 98.701,119.4547 C98.977,118.9257 99.229,118.1317 99.657,118.0047 C100.076,117.8807 100.831,118.3297 101.204,118.7417 C101.704,119.2917 101.979,120.0477 102.367,120.7457 C105.432,118.2587 105.216,115.9847 101.971,114.6317 C101.837,114.5757 101.629,114.5837 101.565,114.4897 C101.192,113.9347 100.852,113.3587 100.501,112.7887 C101.065,112.4447 101.597,111.9147 102.204,111.8077 C102.801,111.7027 103.472,112.1197 104.113,112.1317 C104.618,112.1417 105.441,112.0327 105.585,111.7247 C106.507,109.7547 107.894,107.7457 107.989,105.6957 C108.269,99.6137 108.015,93.5067 107.981,87.4107 C107.966,84.9257 107.978,82.4417 107.978,79.9107 C110.268,80.2767 111.028,81.3967 110.906,83.6497 C110.851,84.6567 110.464,86.0507 110.964,86.6087 C112.591,88.4227 112.832,90.5167 112.627,92.6637 C112.386,95.1927 113.733,98.1197 110.928,100.1337 C110.59,100.3767 110.728,101.3277 110.703,101.9527 C110.552,105.7317 111.287,109.7087 108.272,113.0287 L108.272,113.0287 Z M116.548,298.0537 C117.82,296.0977 117.359,295.0847 114.254,294.8387 C115.247,296.2107 115.912,297.1307 116.578,298.0507 C116.696,298.1247 116.909,298.1887 116.919,298.2757 C117.365,301.9557 120.454,304.1867 121.908,307.3177 C122.116,307.7647 122.844,307.9587 123.309,308.2997 C124.573,309.2257 125.787,310.2267 127.098,311.0797 C127.863,311.5787 128.775,311.8527 129.622,312.2267 C129.756,311.9917 129.892,311.7557 130.027,311.5197 C129.656,311.0207 129.332,310.4777 128.908,310.0287 C126.175,307.1337 123.47,304.2107 120.652,301.4027 C119.407,300.1617 117.919,299.1637 116.548,298.0537 L116.548,298.0537 Z M141.451,269.0187 C142.595,270.6087 143.871,272.1207 144.854,273.8037 C146.806,277.1487 150.169,279.7007 150.525,283.9697 C150.593,284.7807 151.266,285.5277 151.579,286.3347 C151.888,287.1297 152.332,287.9747 152.296,288.7807 C152.226,290.3837 151.046,290.9177 149.992,289.7727 C148.502,288.1547 146.892,288.1947 144.874,288.3077 C140.756,288.5397 136.61,288.2757 132.476,288.2687 C131.645,288.2667 130.814,288.5017 129.982,288.6277 C130.148,289.5097 130.172,290.4497 130.506,291.2607 C131.389,293.4027 132.319,295.5357 133.409,297.5767 C133.931,298.5547 134.759,299.4347 135.62,300.1547 C137.277,301.5407 139.025,302.8257 140.794,304.0707 C142.438,305.2267 144.059,306.4897 145.867,307.3247 C148.682,308.6247 150.347,312.0137 150.657,314.9187 C151.018,318.2957 149.378,320.6917 148.132,323.3787 C148.041,323.5757 147.993,323.8757 147.84,323.9487 C145.646,324.9847 143.495,326.6617 141.22,326.8567 C136.982,327.2197 132.663,326.8137 128.393,326.5057 C127.307,326.4277 126.119,325.7017 125.256,324.9527 C122.183,322.2817 119.085,320.1577 114.608,320.7617 C111.558,321.1747 108.292,321.4007 105.628,319.0967 C105.523,319.0047 105.352,318.8987 105.236,318.9217 C101.745,319.6107 99.099,317.3887 96.151,316.2547 C94.137,315.4807 92.248,314.3727 90.224,313.6307 C87.547,312.6497 84.738,311.0377 82.087,311.2137 C78.059,311.4827 74.544,309.5847 70.607,309.5787 C68.621,309.5757 66.563,307.6517 65.607,305.0367 C66.394,305.0367 67.016,304.8387 67.314,305.0667 C70.542,307.5257 74.365,306.3167 77.897,306.8277 C79.475,307.0547 81.225,307.3427 82.678,306.8947 C84.978,306.1857 87.101,304.8957 89.281,303.8147 C89.66,303.6267 89.96,303.0107 90.282,303.0217 C91.279,303.0547 92.271,303.2947 93.264,303.4537 C92.87,304.3607 92.659,305.4267 92.038,306.1317 C91.195,307.0887 90.039,307.7687 89.017,308.5667 C90.085,309.2527 91.081,310.1157 92.237,310.5837 C93.889,311.2537 95.723,311.4797 97.358,312.1787 C99.33,313.0217 101.088,314.4087 103.096,315.1177 C106.381,316.2767 109.78,317.1287 113.165,317.9777 C113.712,318.1157 114.433,317.5657 115.073,317.3327 C114.728,316.7277 114.504,315.9937 114.018,315.5377 C112.266,313.9027 110.488,312.2797 108.579,310.8377 C108.071,310.4547 106.838,310.4207 106.317,310.7787 C104.563,311.9807 103.44,311.2877 102.118,310.0467 C101.056,309.0487 99.614,308.4677 98.467,307.5437 C97.758,306.9737 97.271,306.1197 96.721,305.3667 C96.608,305.2127 96.727,304.8977 96.622,304.7317 C94.209,300.9217 91.78,297.1227 89.287,293.2177 C88.168,294.5257 86.954,295.7457 85.974,297.1317 C84.008,299.9117 81.358,301.7557 78.27,302.9937 C77.366,303.3557 76.299,303.4197 75.306,303.4297 C72.692,303.4547 70.011,303.0047 67.486,303.4587 C65.571,303.8037 63.806,305.1677 62.059,306.2207 C59.203,307.9427 59.262,307.9617 56.996,305.6747 C55.262,303.9257 53.502,302.8267 50.63,303.3767 C48.032,303.8757 44.966,304.2577 42.991,301.2247 C41.743,299.3067 41.726,297.4597 42.861,295.7317 C44.553,293.1547 46.45,290.7027 48.384,288.2957 C51.056,284.9727 53.877,281.7697 56.55,278.4477 C57.057,277.8177 57.422,276.8767 57.427,276.0777 C57.451,272.6507 57.389,269.2177 57.178,265.7977 C57.135,265.0917 56.22,263.8067 55.882,263.8627 C54.459,264.0947 52.616,264.3397 51.828,265.3117 C50.433,267.0327 48.787,267.7457 46.804,267.9967 C45.093,268.2127 44.004,267.6247 44.05,265.5947 C44.091,263.8257 44.442,262.3287 45.33,260.6837 C46.646,258.2477 48.524,255.7747 47.626,252.6057 C47.502,252.1697 47.581,251.4467 47.868,251.1587 C50.865,248.1547 49.485,244.4527 49.58,240.9877 C49.623,239.4057 49.721,237.8237 49.732,236.2417 C49.744,234.5837 49.601,232.9217 49.681,231.2707 C49.735,230.1507 49.811,228.9157 50.308,227.9547 C51.616,225.4247 51.822,223.0097 50.393,220.4837 C48.942,217.9167 49.276,216.9577 51.907,215.7737 C52.503,215.5047 53.127,215.2717 53.673,214.9207 C55.051,214.0357 54.994,212.7267 53.578,211.8447 C51.86,210.7757 50.15,209.6917 48.415,208.6517 C48.079,208.4507 47.583,208.2397 47.257,208.3417 C45.77,208.8077 44.807,212.7007 45.297,214.1507 C46.017,216.2807 46.462,218.5577 46.623,220.8007 C46.73,222.2827 45.336,222.4977 44.059,222.4297 C42.728,222.3587 42.075,221.7417 42.107,220.3607 C42.201,216.2157 42.072,212.0557 42.388,207.9287 C42.612,205.0077 41.351,203.1547 39.367,201.3127 C38.162,200.1937 37.399,198.5957 36.461,197.1977 C36.262,196.8997 36.21,196.5017 36.009,196.2047 C34.637,194.1807 33.144,192.2317 31.877,190.1447 C29.448,186.1427 26.96,182.1577 24.849,177.9877 C23.334,174.9937 22.415,171.7007 21.185,168.5577 C20.198,166.0387 19.121,163.5557 18.135,161.0367 C17.904,160.4477 17.869,159.7787 17.769,159.1417 C17.668,158.4967 17.73,157.7947 17.491,157.2107 C16.396,154.5277 15.133,151.9107 14.101,149.2037 C13.284,147.0627 12.975,144.6997 11.974,142.6637 C10.526,139.7247 9.062,136.5057 5.225,135.9687 C2.818,135.6327 2.352,133.9297 2.259,132.0847 C2.169,130.2647 3.357,129.3717 5.148,129.2457 C5.404,129.2267 5.644,128.9847 5.878,128.8537 C5.821,128.6457 5.806,128.4027 5.744,128.3897 C2.814,127.7957 1.818,126.2807 2.738,123.2507 C3.005,122.3727 2.05,120.9617 1.376,119.9887 C-0.643,117.0737 -0.48,114.0777 2.129,111.6577 C3.348,110.5277 3.698,109.5157 3.062,107.8287 C2.494,106.3217 2.429,104.5447 2.519,102.9077 C2.559,102.1887 3.469,101.4517 4.111,100.8597 C4.45,100.5467 5.069,100.5517 5.548,100.3757 C8.86,99.1657 11.354,100.8047 11.636,104.3747 C11.669,104.7997 11.634,105.3187 11.86,105.6247 C12.648,106.6947 18.324,106.3457 19.091,105.2707 C20.176,103.7477 21.402,102.3187 22.404,100.7457 C22.961,99.8687 23.186,98.7807 23.768,98.1607 C25.507,96.8537 27.367,95.6767 28.946,94.1997 C30.2,93.0267 31.195,92.6877 32.794,93.5387 C33.438,93.8827 34.807,93.6547 35.409,93.1567 C38.662,90.4677 41.656,90.3327 45.116,92.6497 C47.52,94.2587 50.098,95.6167 52.647,96.9957 C54.111,97.7887 54.922,100.9287 53.631,101.9967 C53.108,102.4307 51.774,102.2927 51.043,101.9367 C50.452,101.6487 50.212,100.6417 49.816,99.9537 C49.566,100.1307 49.316,100.3087 49.066,100.4867 C48.654,101.3547 48.243,102.2237 47.63,103.5167 C45.261,101.1727 42.042,99.9907 42.06,96.0517 C42.063,95.3587 41.182,94.6617 40.71,93.9657 C40.16,94.4497 39.365,94.8287 39.107,95.4357 C38.26,97.4247 36.752,97.8147 34.838,97.6297 C33.545,97.5057 32.228,97.3387 30.949,97.4647 C29.473,97.6107 28.737,99.5047 29.725,100.5917 C30.593,101.5467 31.652,102.3517 32.721,103.0867 C33.089,103.3397 33.74,103.1827 34.261,103.2117 C34.189,102.7457 34.202,102.2427 34.02,101.8237 C33.853,101.4397 33.348,101.1877 33.225,100.8037 C33.091,100.3827 33.055,99.6097 33.279,99.4667 C33.674,99.2167 34.39,99.1327 34.811,99.3277 C35.982,99.8677 37.095,100.5497 38.182,101.2527 C38.584,101.5137 39.035,101.9417 39.146,102.3737 C40.591,108.0007 41.088,113.7097 40.825,119.5267 C40.661,123.1447 40.957,126.7827 40.973,130.4117 C40.982,132.5027 40.921,134.6027 40.728,136.6827 C40.678,137.2167 40.07,137.7617 39.607,138.1777 C39.128,138.6077 38.224,138.7667 38.019,139.2587 C37.611,140.2367 37.556,141.3607 37.356,142.4247 C38.148,142.1667 39.146,142.1297 39.694,141.6137 C41.806,139.6247 44.615,137.9917 44.114,134.3817 C44.095,134.2457 44.131,134.0737 44.206,133.9587 C47.271,129.2327 45.741,124.0587 45.663,119.0277 C45.655,118.5167 45.503,117.9637 45.653,117.5077 C45.815,117.0157 46.279,116.2347 46.565,116.2537 C47.097,116.2907 47.716,116.7207 48.071,117.1667 C48.407,117.5897 48.421,118.2557 48.63,118.7937 C48.828,119.3007 49.095,119.7807 49.399,120.4127 C51.225,119.2447 51.489,117.5967 51.436,115.9527 C51.421,115.4747 50.584,114.6997 50.045,114.6237 C48.664,114.4327 47.547,114.0387 47.481,112.5057 C47.449,111.7947 47.834,110.4807 48.138,110.4487 C49.188,110.3357 50.287,110.6617 51.364,110.8357 C51.571,110.8697 51.767,110.9727 52.142,111.1057 C53.051,108.9037 53.899,106.6977 54.883,104.5527 C55.202,103.8587 55.878,103.3277 56.391,102.7217 C56.957,103.3927 57.975,104.0537 57.989,104.7377 C58.016,105.9557 57.516,107.2157 57.087,108.4057 C56.649,109.6207 55.964,110.7487 55.537,111.9677 C55.418,112.3087 55.726,112.9507 56.039,113.2327 C56.223,113.4007 56.959,113.2817 57.175,113.0437 C59.163,110.8577 61.243,108.7257 62.955,106.3327 C63.562,105.4857 63.637,103.8107 63.243,102.7867 C62.48,100.7997 62.191,99.0477 62.771,96.8927 C63.276,95.0157 63.105,92.8737 62.846,90.9007 C62.64,89.3377 62.903,88.5367 64.37,87.7917 C65.21,87.3667 66.026,86.1747 66.162,85.2297 C66.479,83.0247 66.307,80.7537 66.489,78.5227 C66.546,77.8267 66.981,77.0357 67.496,76.5637 C67.702,76.3757 68.672,76.8237 69.156,77.1727 C71.558,78.9077 71.705,80.2037 69.98,82.6587 C69.626,83.1607 69.347,83.8237 69.317,84.4267 C69.183,87.1207 69.182,89.8227 69.073,92.5177 C68.986,94.6767 68.753,96.8307 68.706,98.9907 C68.688,99.8377 68.698,101.0057 69.207,101.4947 C72.187,104.3527 71.048,107.8267 70.842,111.1437 C70.684,113.6997 73.19,116.4717 75.641,116.2757 C75.691,116.1477 75.819,115.9537 75.775,115.8997 C73.85,113.5397 74.9,111.9657 76.974,110.3677 C78.404,109.2637 78.626,107.5477 77.471,106.0617 C75.103,103.0087 75.427,99.5707 75.725,96.0797 C75.8,95.2067 75.838,94.1307 75.409,93.4557 C74.415,91.8907 74.339,90.4617 75.385,88.9957 C76.646,87.2287 76.348,85.6947 75.07,84.0367 C74.502,83.2997 74.186,82.1917 74.165,81.2427 C74.108,78.6227 74.147,75.9877 74.384,73.3797 C74.543,71.6327 75.031,69.9017 75.511,68.2027 C75.849,67.0067 77.041,65.8657 75.494,64.7197 C74.231,63.7847 71.585,63.9347 70.59,64.9507 C68.811,66.7667 66.91,68.4837 65.294,70.4347 C64.579,71.2997 64.295,72.6097 64.064,73.7657 C63.794,75.1127 63.8,76.5127 63.678,77.8887 C63.524,79.6307 62.67,80.6267 60.863,80.9867 C60.036,81.1497 59.288,81.8707 58.576,82.4297 C56.824,83.8087 55.091,85.2127 53.402,86.6667 C52.904,87.0947 52.257,87.7077 52.228,88.2647 C52.036,91.9727 51.202,92.7877 47.309,92.6027 C47.261,92.2187 47.06,91.7577 47.184,91.4117 C47.935,89.3137 48.755,87.2407 49.566,85.1637 C49.643,84.9667 49.778,84.7477 49.949,84.6377 C52.469,83.0227 54.954,81.3437 57.547,79.8557 C58.956,79.0477 60.975,75.1267 60.904,73.1557 C60.873,72.3057 61.186,71.3307 61.643,70.6027 C62.592,69.0867 63.8,67.7357 64.794,66.2447 C65.819,64.7097 66.922,63.5767 68.794,62.8047 C70.757,61.9957 72.48,60.8947 74.752,60.8257 C75.893,60.7897 76.463,59.2647 75.481,58.4817 C70.836,54.7837 73.212,49.6447 72.54,45.1447 C72.466,44.6487 72.593,44.1257 72.583,43.6167 C72.54,41.3427 71.932,40.7827 69.674,40.9007 C67.642,41.0067 66.465,40.0717 66.249,38.1557 C66.058,36.4597 66.551,35.2757 68.492,35.1387 C68.893,35.1107 69.282,34.9167 69.701,34.7927 C68.046,31.2007 71.018,29.1607 72.279,26.6317 C72.799,25.5887 74.01,24.8847 74.922,24.0437 C75.766,23.2667 76.631,22.5127 77.51,21.7277 C74.69,20.0807 72.042,18.5347 69.016,16.7677 C67.282,18.1517 65.276,19.7647 63.258,21.3627 C61.316,22.9007 59.208,22.7627 57.421,20.9937 C56.435,20.0167 55.501,18.9807 54.463,18.0617 C52.753,16.5467 52.298,14.7107 53.341,12.7557 C54.701,10.2087 56.327,7.8057 57.8,5.3177 C58.457,4.2087 58.976,3.0177 59.644,1.9157 C59.992,1.3417 60.598,0.4107 60.965,0.4647 C61.786,0.5867 63.117,1.1337 63.201,1.6697 C63.502,3.5877 64.543,3.3577 65.882,3.1077 C67.16,2.8697 68.503,2.9547 69.766,2.6667 C71.625,2.2437 73.432,1.5997 75.27,1.0807 C76.023,0.8697 76.795,0.6107 77.564,0.5927 C80.547,0.5227 83.547,0.7117 86.515,0.4757 C89.353,0.2487 91.16,2.1917 93.396,3.2207 C96.023,4.4307 98.152,6.7337 101.43,6.5317 C102.16,6.4877 102.934,7.4637 103.717,7.9197 C104.913,8.6177 106.12,9.2987 107.35,9.9327 C108.408,10.4767 109.877,10.6587 110.518,11.4947 C112.742,14.3997 116.06,15.6307 118.989,17.4307 C119.832,17.9487 121.116,17.7467 122.198,17.8787 C123.429,18.0287 124.068,18.5247 124.161,19.9627 C124.397,23.6027 122.91,26.6867 121.087,29.5657 C120.478,30.5267 118.854,31.1777 117.613,31.3337 C115.382,31.6157 113.09,31.4557 110.826,31.4057 C108.653,31.3567 106.791,31.6397 106.831,34.1897 C105.564,34.7757 104.018,34.9847 103.53,35.8157 C102.365,37.7997 103.247,40.3367 105.999,40.2117 C107.294,40.1537 108.767,40.3177 108.896,41.8357 C108.975,42.7657 108.304,43.9447 107.628,44.7077 C106.718,45.7367 106.52,46.5797 107.497,47.5317 C108.899,48.8977 109.221,50.3507 108.603,52.2817 C107.948,54.3237 109.883,57.1247 112.065,57.2287 C114.661,57.3517 115.401,59.5427 116.765,60.9697 C117.654,61.8997 118.268,63.2777 118.541,64.5537 C118.767,65.6037 118.706,67.1567 118.074,67.8587 C116.733,69.3477 117.113,70.3517 118.19,71.6267 C121.261,75.2677 124.356,78.8947 127.256,82.6677 C127.865,83.4607 127.653,84.8677 127.876,85.9797 C128.295,88.0777 128.815,90.1557 129.18,92.2617 C129.483,94.0077 129.596,95.7867 129.847,97.5417 C129.983,98.4997 129.978,99.6077 130.472,100.3627 C132.391,103.2937 132.404,106.0907 130.616,109.0957 C129.687,110.6587 129.572,112.4397 130.875,113.9917 C131.732,115.0117 131.285,115.8387 130.878,116.9487 C129.743,120.0467 127.608,122.8727 128.044,126.4587 C128.121,127.0847 128.09,127.8617 127.783,128.3727 C126.453,130.5867 125.047,132.7607 123.581,134.8877 C122.074,137.0737 120.389,139.1387 118.922,141.3487 C117.669,143.2357 118.383,147.2117 120.145,148.6957 C121.21,147.7127 121.207,146.6707 120.622,145.3957 C120.315,144.7267 120.115,143.3317 120.354,143.2087 C121.176,142.7867 122.35,142.4237 123.123,142.7247 C123.731,142.9607 124.069,144.1787 124.285,145.0227 C124.414,145.5277 124.003,146.1457 123.967,146.7217 C123.927,147.3627 123.778,148.3017 124.124,148.6117 C127.048,151.2307 125.484,154.6527 125.861,157.7077 C126.001,158.8437 125.674,160.0507 125.895,161.1597 C126.725,165.3287 124.345,168.5117 122.587,171.8047 C121.729,173.4127 121.503,174.4907 122.777,175.8517 C124.423,177.6097 125.276,179.6257 125.935,182.0777 C126.67,184.8147 128.53,187.2637 128.101,190.3607 C131.086,193.4907 129.731,197.9827 131.703,201.5857 C133.222,204.3617 133.014,208.0277 134.18,211.0657 C136.053,215.9447 137.985,220.7097 142.217,224.4467 C145.646,227.4717 149.164,228.0447 153.227,227.6547 C155.327,227.4527 156.549,226.0307 157.246,224.1147 C157.465,223.5127 157.649,222.4477 157.966,222.4027 C161.593,221.8817 161.52,217.7987 164.044,216.1497 C164.848,215.6237 165.042,213.7187 165.002,212.4607 C164.952,210.8907 165.03,209.6887 166.052,208.2637 C166.889,207.0957 166.946,205.1247 166.807,203.5577 C166.617,201.4187 167.08,199.7427 168.631,198.2797 C170.16,196.8377 171.529,195.2177 173.121,193.8537 C174.71,192.4927 179.424,193.0977 180.904,194.6307 C183.368,197.1827 185.944,199.5447 187.532,202.9087 C188.444,204.8407 190.425,206.3377 192.115,207.8137 C193.645,209.1487 195.705,209.1417 197.187,207.9917 C198.605,206.8897 199.892,205.3207 198.941,203.0707 C198.194,201.2997 198.624,199.6247 199.416,197.8317 C200.56,195.2427 202.125,193.2677 204.557,191.7877 C205.62,191.1397 206.196,191.0737 206.913,191.9887 C207.318,192.5047 207.703,193.0387 208.11,193.5547 C209.368,195.1457 210.702,195.7267 212.586,194.3207 C213.288,193.7967 214.437,193.8717 215.382,193.6737 C215.173,194.6607 215.201,195.7927 214.703,196.6027 C213.755,198.1447 212.607,199.5607 210.508,199.7847 C209.98,199.8407 209.479,200.6627 209.069,201.2097 C208.13,202.4647 207.387,203.8907 206.328,205.0277 C203.94,207.5887 201.32,209.9377 198.957,212.5207 C195.914,215.8467 191.912,216.1467 188.874,212.9057 C187.722,211.6757 187.099,209.9617 185.997,208.6717 C183.794,206.0937 182.735,202.4537 178.938,201.3187 C176.791,200.6777 173.763,202.7157 174.071,205.0217 C174.339,207.0357 173.862,208.3007 171.427,208.6387 C172.568,211.6637 170.823,213.8497 169.51,216.1647 C168.19,218.4937 166.139,220.7037 165.739,223.1797 C165.261,226.1387 163.245,226.1897 161.454,227.2407 C158.982,228.6917 156.676,230.4787 154.502,232.3577 C153.298,233.3977 152.313,233.8887 150.64,233.6647 C148.355,233.3607 145.984,233.7437 143.677,233.5377 C142.471,233.4287 141.099,232.9557 140.188,232.1897 C137.401,229.8447 134.604,227.4537 132.204,224.7327 C130.766,223.1037 129.905,220.8877 129.077,218.8187 C128.262,216.7807 127.816,214.5937 127.208,212.4717 C127.129,212.1967 127.137,211.7737 126.959,211.6677 C123.908,209.8757 125.565,206.9807 125.204,204.5477 C125.037,203.4217 124.467,202.3517 124.046,201.2687 C123.642,200.2307 123.147,199.2257 122.779,198.1747 C122.365,196.9897 122.089,195.9087 120.391,196.8387 C119.212,197.4847 118.561,196.7407 118.657,195.5247 C118.788,193.8647 118.91,192.1797 119.299,190.5687 C119.711,188.8627 119.265,187.5197 118.507,186.0047 C117.998,184.9897 117.728,183.2267 118.273,182.4207 C120.346,179.3567 119.453,176.3177 118.341,173.4837 C117.438,171.1807 117.624,169.6407 119.505,168.1517 C120.302,167.5207 121.189,166.8337 121.634,165.9677 C122.287,164.6977 122.872,163.2607 122.965,161.8607 C123.162,158.9147 123.108,155.9437 122.976,152.9917 C122.919,151.7017 123.022,150.0767 120.579,149.6417 C120.463,151.1917 120.119,152.7247 120.283,154.2017 C120.727,158.1787 119.504,161.5777 116.809,164.3557 C115.994,165.1967 114.428,165.3097 113.271,165.7317 C115.971,171.3977 115.133,177.6017 114.581,183.8117 C114.387,185.9887 115.008,188.1447 113.717,190.3207 C113.24,191.1237 114.596,192.8517 114.634,194.1707 C114.668,195.3337 114.028,196.5147 113.689,197.6887 C113.364,198.8107 112.922,199.9167 112.757,201.0627 C112.594,202.1917 112.71,203.3617 112.71,204.5127 C112.709,216.1347 112.7,227.7557 112.729,239.3767 C112.731,240.2277 112.729,241.3187 113.212,241.8837 C115.066,244.0527 114.834,246.5817 114.953,249.1257 C115.007,250.2797 115.58,251.4177 115.974,252.5427 C116.211,253.2217 116.92,253.9467 116.791,254.5057 C116.204,257.0437 117.267,259.0377 118.517,261.0477 C118.77,261.4537 118.812,262.0197 118.854,262.5197 C119.106,265.5837 119.101,265.5157 121.987,265.7057 C122.628,265.7477 123.71,266.4167 123.757,266.8817 C123.996,269.2547 125.075,271.8777 122.192,273.7907 C122.869,274.5117 123.585,275.0447 123.99,275.7557 C124.711,277.0217 125.482,278.3407 125.797,279.7367 C126.176,281.4147 126.689,282.7867 128.409,283.4297 C130.113,284.0677 131.774,284.8537 133.521,285.3327 C135.38,285.8437 137.195,285.7687 138.941,284.5387 C139.729,283.9847 140.968,284.0047 142.016,283.9087 C142.876,283.8287 143.794,284.1377 144.617,283.9577 C145.718,283.7167 146.545,282.9977 145.737,281.7407 C144.067,279.1397 142.23,276.6447 140.639,273.9987 C138.509,270.4577 136.542,266.8187 134.521,263.2127 C134.242,262.7147 134.195,261.9967 133.801,261.6657 C130.41,258.8197 130.07,254.8297 129.565,250.8657 C129.47,250.1137 129.068,249.3307 128.609,248.7087 C127.517,247.2287 126.852,245.7817 127.502,243.8467 C127.678,243.3217 126.89,242.4737 126.544,241.7737 C126.249,242.4177 125.769,243.0417 125.698,243.7097 C125.563,244.9947 125.448,246.3497 125.722,247.5867 C125.964,248.6827 126.629,249.7477 127.321,250.6637 C128.041,251.6167 129.121,252.4877 127.978,253.6387 C126.809,254.8167 125.816,254.0417 124.844,253.0357 C123.081,251.2097 122.533,249.1357 122.857,246.6457 C123.001,245.5427 122.954,244.1597 122.403,243.2687 C120.096,239.5367 120.971,235.5067 120.923,231.5427 C120.91,230.4227 120.892,229.0117 120.259,228.2447 C118.095,225.6227 118.692,222.7457 119.167,219.9187 C119.932,215.3647 119.263,211.0027 118.164,206.5877 C117.735,204.8657 118.118,202.9297 118.23,201.0967 C118.242,200.9007 119.033,200.5007 119.255,200.6127 C120.132,201.0477 121.241,201.4727 121.667,202.2357 C122.157,203.1157 122.342,204.4287 122.094,205.4117 C121.075,209.4417 123.23,212.5707 124.722,215.9227 C125.178,216.9477 125.363,218.0947 125.656,219.1907 C125.801,219.7357 125.722,220.5527 126.065,220.8007 C128.669,222.6777 128.005,225.5287 128.207,228.0337 C128.38,230.1877 127.989,232.3827 127.947,234.5627 C127.934,235.2447 128.068,236.0437 128.43,236.5987 C130.05,239.0847 131.326,241.5977 131.795,244.6557 C132.108,246.6927 133.58,248.5567 134.56,250.4847 C134.888,251.1297 135.469,251.6897 135.643,252.3627 C136.104,254.1487 137.162,255.0067 138.973,255.3477 C139.781,255.4987 140.542,256.2807 141.171,256.9237 C142.603,258.3877 144.108,259.4477 146.327,259.2907 C149.018,259.1017 151.744,259.3047 154.413,258.9857 C155.802,258.8187 157.184,258.0287 158.419,257.2757 C160.077,256.2647 161.591,255.0187 163.164,253.8697 C163.457,253.6557 163.914,253.4747 163.995,253.1927 C164.619,251.0067 166.737,250.7107 168.202,249.5557 C170.398,247.8247 172.765,247.8257 175.188,247.7287 C176.043,247.6947 176.948,248.2737 177.787,248.6637 C178.508,248.9987 179.122,249.6737 179.862,249.8327 C181.618,250.2127 182.511,251.0977 183.07,252.8817 C183.394,253.9147 184.731,254.7887 185.805,255.3897 C187.134,256.1327 188.372,256.7807 188.553,258.4787 C188.575,258.6907 188.634,258.9597 188.778,259.0877 C192.514,262.4307 193.826,267.5267 197.358,270.9757 C198.465,272.0567 200.058,272.6407 201.43,273.4497 C202.679,274.1857 203.864,275.0887 205.199,275.6007 C206.436,276.0747 207.856,276.0447 209.151,276.3997 C209.87,276.5967 210.499,277.1247 211.169,277.5037 C210.549,278.0667 209.981,279.0257 209.3,279.1137 C207.601,279.3327 205.759,279.5067 204.503,277.7967 C204.305,277.5277 203.896,277.2367 203.595,277.2457 C198.981,277.4017 196.801,273.6837 194.021,271.0807 C191.999,269.1887 189.709,267.3657 188.986,264.3817 C188.874,263.9147 187.913,263.6537 187.344,263.2967 C187.262,263.8727 186.962,264.5277 187.136,265.0117 C188.052,267.5567 189.186,270.0257 190.055,272.5837 C191.026,275.4407 194.872,278.1147 197.8,278.4447 C199.883,278.6797 201.865,279.7877 203.902,280.4787 C205.735,281.0987 207.577,281.6927 209.422,282.2757 C211.135,282.8167 212.84,283.4067 214.588,283.8027 C215.091,283.9167 215.73,283.4407 216.306,283.2347 C216.069,282.6697 215.919,282.0467 215.579,281.5527 C214.963,280.6597 213.417,279.9187 214.692,278.6767 C215.957,277.4447 217.262,278.2417 218.334,279.2777 C219.385,280.2917 220.408,281.3367 221.436,282.3767 C222.574,283.5297 222.696,284.9907 221.826,286.1457 C221.427,286.6757 220.079,286.5757 219.155,286.6117 C216.632,286.7077 214.106,286.7317 211.581,286.7717 C211.007,286.7807 210.357,286.9127 209.87,286.6987 C206.481,285.2037 203.126,283.6287 199.756,282.0887 C199.359,281.9077 198.919,281.6067 198.532,281.6507 C195.455,281.9987 193.344,279.6807 190.698,278.8577 C190.253,278.7187 189.804,278.3257 189.54,277.9277 C188.403,276.2137 186.822,274.5787 186.356,272.6817 C185.588,269.5557 183.146,266.8037 184.092,263.2547 C184.248,262.6737 184.173,261.9097 183.918,261.3637 C183.115,259.6487 182.229,257.9667 181.273,256.3317 C180.282,254.6357 179.416,254.7207 177.718,255.6817 C175.041,257.1977 172.184,258.3967 169.405,259.7347 C168.952,259.9527 168.484,260.1547 168.067,260.4297 C165.542,262.1027 163.218,264.2687 160.467,265.3707 C156.029,267.1477 151.482,269.0247 146.432,268.2057 C145.032,267.9787 143.565,268.1707 142.128,268.1707 C141.902,268.4537 141.677,268.7367 141.451,269.0187 L141.451,269.0187 Z" id="Fill-1" fill="#231916" mask="url(#mask-2)"></path>
                </g>
                <path d="M146.2676,239.045 C145.0356,239.694 144.3716,240.323 143.9946,240.183 C143.3446,239.941 142.8736,239.221 142.3276,238.701 C142.8046,238.283 143.3246,237.486 143.7486,237.534 C144.4186,237.609 145.0236,238.253 146.2676,239.045" id="Fill-3" fill="#231916"></path>
                <path d="M64.2769,280.0196 C65.3889,281.5086 66.2529,282.4556 66.8119,283.5556 C66.9629,283.8526 66.1839,284.6206 65.8329,285.1716 C64.8369,284.2276 63.7809,283.3346 62.9119,282.2866 C62.7799,282.1276 63.5199,281.2476 64.2769,280.0196" id="Fill-5" fill="#231916"></path>
                <path d="M79.313,279.0978 C78.271,279.4518 77.624,279.9088 77.076,279.8098 C76.041,279.6218 75.046,279.1518 74.087,278.6908 C73.99,278.6448 74.203,277.4908 74.351,277.4718 C75.572,277.3198 76.83,277.1798 78.038,277.3348 C78.451,277.3878 78.755,278.2878 79.313,279.0978" id="Fill-7" fill="#231916"></path>
                <path d="M100.5713,191.9591 C99.3483,192.9391 98.6333,193.9351 97.7443,194.1281 C96.3233,194.4371 95.9473,193.3011 96.0583,192.0441 C96.0713,191.8991 96.0543,191.7531 96.0633,191.6081 C96.1413,190.2361 95.6283,188.1781 97.6983,188.3451 C98.6233,188.4201 99.3953,190.3991 100.5713,191.9591" id="Fill-9" fill="#231916"></path>
                <path d="M100.4224,181.9737 C101.0464,183.0227 101.5834,183.5867 101.6764,184.2167 C101.7274,184.5647 100.8644,185.4267 100.7014,185.3597 C99.9954,185.0687 99.3954,184.5207 98.7564,184.0667 C99.1994,183.5097 99.6424,182.9537 100.4224,181.9737" id="Fill-11" fill="#231916"></path>
                <path d="M86.6377,57.0821 C85.4607,58.0491 84.3987,59.4461 83.0597,59.8011 C82.3877,59.9781 80.5177,58.3411 80.4027,57.3791 C80.1157,54.9841 82.4157,55.6811 83.7207,55.5001 C84.5897,55.3801 85.5487,55.9101 86.4667,56.1481 C86.5237,56.4601 86.5807,56.7701 86.6377,57.0821" id="Fill-13" fill="#231916"></path>
                <path d="M93.1861,39.1876 C92.6421,39.4876 91.7361,40.4106 90.8821,40.3656 C89.4741,40.2906 87.7441,39.7256 87.7671,37.9196 C87.7911,35.9856 89.5381,36.4196 90.7901,36.3726 C92.2061,36.3186 93.2551,36.7406 93.1861,39.1876" id="Fill-15" fill="#231916"></path>
                <path d="M87.6773,46.1065 C86.7463,45.0475 86.1343,44.3505 85.5213,43.6545 C86.2403,43.1275 87.0663,42.0775 87.6513,42.1985 C88.5603,42.3865 89.3053,43.3715 90.1203,44.0185 C89.4553,44.5865 88.7913,45.1545 87.6773,46.1065" id="Fill-17" fill="#231916"></path>
                <path d="M82.7149,53.2833 C82.0959,52.5643 81.3439,51.9673 81.4409,51.7513 C81.7249,51.1163 82.3469,50.6333 82.8379,50.0903 C83.2639,50.5643 84.0009,51.0223 84.0269,51.5193 C84.0529,51.9903 83.3349,52.5013 82.7149,53.2833" id="Fill-19" fill="#231916"></path>
            </g>
        </g>
    </g>
</svg>