<?xml version="1.0" encoding="UTF-8"?>
<svg width="96px" height="239px" viewBox="0 0 96 239" version="1.1" xmlns="http://www.w3.org/2000/svg" xmlns:xlink="http://www.w3.org/1999/xlink">
    <!-- Generator: Sketch 60 (88103) - https://sketch.com -->
    <title>figure7</title>
    <desc>Created with Sketch.</desc>
    <defs>
        <polygon id="path-1" points="0.88249538 0.436638655 80.3282581 0.436638655 80.3282581 238.99158 0.88249538 238.99158"></polygon>
    </defs>
    <g id="页面-1" stroke="none" stroke-width="1" fill="none" fill-rule="evenodd">
        <g id="桌面端-HD" transform="translate(-583.000000, -685.000000)">
            <g id="figure7" transform="translate(583.000000, 684.000000)">
                <g id="编组" transform="translate(15.483871, 0.571765)">
                    <mask id="mask-2" fill="white">
                        <use xlink:href="#path-1"></use>
                    </mask>
                    <g id="Clip-2"></g>
                    <path d="M64.1642323,134.528874 C64.4728774,134.981647 64.6979097,135.312403 64.9219097,135.64316 C65.2016516,135.31442 65.6434581,135.011899 65.7053935,134.647866 C65.7487484,134.392739 65.2770065,134.051899 65.0354581,133.750387 C64.7794581,133.979294 64.5234581,134.208202 64.1642323,134.528874 M41.7126194,39.4011429 L42.0666839,39.1248403 C41.8942968,38.7608067 41.8127484,38.2858487 41.5257806,38.0619832 C41.2047484,37.8118992 40.6979097,37.7887059 40.2715871,37.6676975 C40.4202323,38.0579496 40.4893935,38.5076975 40.7402323,38.8203025 C40.959071,39.0945882 41.3812645,39.2135798 41.7126194,39.4011429 M62.599329,71.2999664 C61.8592,70.9369412 61.4287484,70.5446723 61.0839742,70.6071933 C60.7319742,70.6707227 60.4635871,71.1799664 60.159071,71.4935798 C60.4770065,71.7880336 60.8259097,72.3446723 61.1046194,72.3134118 C61.5257806,72.2660168 61.8984258,71.8071933 62.599329,71.2999664 M21.5154581,71.9826555 C21.9706839,72.5503866 22.2979097,72.9587899 22.6251355,73.3671933 C22.9152,72.9406387 23.431329,72.514084 23.4323628,72.086521 C23.4333935,71.664 22.9141677,71.2394622 22.6241032,70.8169412 C22.2958452,71.1608067 21.9696516,71.5046723 21.5154581,71.9826555 M29.1139097,128.684168 C30.3247484,127.672739 30.7644903,125.078118 30.1699097,124.357109 C30.0460387,124.207866 29.7487484,124.026353 29.6300387,124.077782 C29.4184258,124.168538 29.1428129,124.421647 29.1355871,124.615261 C29.0912,125.863664 29.1139097,127.113076 29.1139097,128.684168 M33.1469419,47.7708908 C34.6499097,47.7335798 35.4808774,47.424 35.4643613,46.2582857 C35.4530065,45.3648403 34.7841032,45.0562689 33.9644903,45.0623193 C33.1552,45.0683697 31.8504258,46.2270252 32.0940387,46.8542521 C32.2788129,47.3312269 32.9632,47.6226555 33.1469419,47.7708908 M55.8803613,108.048202 C56.5461677,107.91005 57.0034581,107.861647 57.4266839,107.715429 C58.0780387,107.489546 58.7066839,107.196101 59.3456516,106.931899 C58.7995871,106.475092 58.3072,105.916437 57.6857806,105.600807 C57.2893935,105.398118 56.4625548,105.352739 56.2488774,105.593748 C55.7792,106.12316 55.5397161,106.866353 55.303329,107.554084 C55.2672,107.661983 55.7472,107.939294 55.8803613,108.048202 M68.607071,145.460975 C68.6359742,145.458958 68.6659097,145.456941 68.6958452,145.454924 C68.639071,144.614924 68.6246194,143.769882 68.4976516,142.940975 C68.4615226,142.707025 68.1095226,142.383328 67.8752,142.358118 C67.6759742,142.33795 67.2579097,142.680807 67.2455226,142.881479 C67.1453935,144.473748 67.0875871,146.071059 67.0989419,147.665345 C67.1010065,147.920471 67.5139097,148.171563 67.7368774,148.424672 C67.9804903,148.14837 68.3727484,147.900303 68.4377806,147.588706 C68.5802323,146.896941 68.5606194,146.171899 68.607071,145.460975 M68.3686194,84.7792941 C67.2909419,83.898958 66.4486194,83.1577815 65.5392,82.5053445 C65.3162323,82.3450084 64.8754581,82.474084 64.5358452,82.4700504 C64.5544258,82.8350924 64.4749419,83.2424874 64.6142968,83.5561008 C64.8785548,84.154084 65.2315871,84.7248403 65.6197161,85.2572773 C65.9128774,85.6596303 66.5167484,86.3453445 66.6364903,86.2818151 C67.1815226,85.9934118 67.6026839,85.4851765 68.3686194,84.7792941 M49.4411355,40.0142521 C50.0893935,40.9318992 50.4806194,41.5641681 50.9688774,42.1157647 C51.079329,42.2418151 51.711071,42.1833277 51.7822968,42.0482017 C52.2364903,41.1880336 52.7206194,40.3076975 52.9136516,39.3779496 C52.9632,39.1369412 51.8555871,38.309042 51.5479742,38.4260168 C50.8068129,38.7063529 50.2235871,39.3860168 49.4411355,40.0142521 M36.6576516,227.668034 C35.9402323,227.356437 35.5717161,227.072067 35.1897806,227.053916 C34.0594581,227.000471 32.9177806,226.993412 31.7936516,227.094252 C31.3714581,227.131563 30.8832,227.440134 30.6220387,227.771899 C30.4971355,227.933244 30.7242323,228.589714 30.9761032,228.75005 C31.4199742,229.03442 32.0290065,229.29963 32.5234581,229.235092 C33.4607484,229.111059 34.3763613,228.778286 35.2795871,228.473748 C35.6563613,228.347697 35.9804903,228.072403 36.6576516,227.668034 M46.3804903,100.156437 C47.2661677,101.457277 48.2272,103.081815 49.407071,104.535933 C50.3939097,105.751059 51.9577806,105.265008 53.2739097,105.256941 C55.0865548,105.243832 55.9309419,103.760471 55.1216516,102.174252 C54.2504258,100.467025 53.3472,98.7769412 52.4243613,97.0969412 C51.8081032,95.976605 51.1237161,95.9352605 50.1771355,96.8125714 C49.0179097,97.886521 47.8060387,98.9060168 46.3804903,100.156437 M43.4612645,48.3769412 C43.4963613,48.4687059 43.5304258,48.561479 43.5644903,48.6522353 C43.8380387,48.6522353 44.1704258,48.7510588 44.3717161,48.6330756 C44.8919742,48.3325714 45.3544258,47.9362689 45.8406194,47.5772773 C45.3699097,47.1708908 44.927071,46.4529076 44.423329,46.4095462 C42.0367484,46.2038319 41.6868129,43.6172773 39.8380387,42.8377815 C39.7595871,42.8045042 39.7668129,42.5897143 39.7265548,42.4626555 C38.8057806,39.6038319 36.6091355,38.1376134 33.5392,38.3392941 C32.3882323,38.4159328 31.2971355,38.4330756 30.3495226,37.5517311 C29.7487484,36.9930756 28.8083613,36.8226555 28.3252645,37.5981176 C28.1064258,37.949042 28.4119742,38.9191261 28.799071,39.264 C30.0264258,40.3550924 31.3508129,41.3645042 32.7464258,42.2397983 C33.3523613,42.6199664 34.3072,42.8791261 34.9585548,42.6976134 C36.231329,42.3426555 36.9208774,42.5443361 37.8499097,43.5759328 C39.1856516,45.0613109 40.423329,46.2905546 39.7874581,48.5342521 C39.5159742,49.4861849 40.3097806,49.7443361 41.2955871,49.2199664 C41.9727484,48.858958 42.7366194,48.6522353 43.4612645,48.3769412 M72.6958452,121.856269 C73.3389419,121.280471 74.439329,120.537277 75.1536516,119.532908 C75.4210065,119.154756 74.8006194,118.166521 74.5642323,117.462655 C74.4961032,117.255933 74.2782968,117.076437 74.2638452,116.874756 C74.1131355,114.843832 73.0251355,113.221311 71.9887484,111.545345 C71.7399742,111.144 71.871071,110.359462 72.0961032,109.867361 C72.5709419,108.825681 73.3121032,107.896941 73.7528774,106.845176 C73.9159742,106.452908 73.6909419,105.687529 73.3606194,105.392067 C73.1335226,105.189378 72.3118452,105.357782 71.9526194,105.618958 C71.3446194,106.061647 70.7964903,106.650555 70.3959742,107.281815 C69.6899097,108.398118 68.7846194,109.538622 68.5730065,110.768874 C68.3345548,112.141311 68.3572645,113.684168 69.3802323,114.984 C69.6909419,115.380303 69.663071,116.082151 69.6692645,116.64484 C69.6785548,117.532235 69.575329,118.420639 69.5371355,119.309042 C69.4762323,120.736941 70.6891355,121.914756 72.6958452,121.856269 M36.6524903,99.8448403 C36.3469419,100.021311 35.8246194,100.150387 35.7286194,100.422655 C35.6068129,100.768538 35.7244903,101.288874 35.9257806,101.630723 C36.5492645,102.69963 37.1706839,103.790723 37.9603613,104.738622 C38.9709419,105.950723 39.8607484,107.520807 41.7693935,107.435092 C43.2300387,107.369546 44.5719742,107.495597 45.8437161,108.236773 C46.1358452,108.407193 46.559071,108.482824 46.8966194,108.43442 C47.9237161,108.285176 48.7092645,108.577613 49.5185548,109.232067 C49.9407484,109.573916 50.7582968,109.607193 51.3518452,109.512403 C51.5872,109.475092 51.9701677,108.51005 51.8194581,108.321479 C51.4530065,107.861647 50.8336516,107.359462 50.2813935,107.317109 C47.9722323,107.140639 46.6674581,105.782319 45.8942968,103.884504 C45.0282323,101.757782 42.2937806,100.099966 40.0434581,100.439798 C39.4065548,100.536605 38.7159742,100.371227 38.0604903,100.264336 C37.6186839,100.191731 37.1964903,100.011227 36.6524903,99.8448403 M32.3448774,117.376941 C31.8937806,118.140303 31.551071,118.476101 31.5283613,118.831059 C31.5046194,119.179966 31.7327484,119.609546 31.9784258,119.898958 C33.6403613,121.853244 32.6669419,124.15442 32.8857806,126.293244 C32.903329,126.463664 32.671071,126.673412 32.5265548,126.839798 C31.3859097,128.150723 31.1319742,131.093244 32.1890065,132.480807 C33.0075871,133.554756 33.1727484,134.393748 32.0321032,135.349714 C31.7152,135.615933 31.5252645,136.328874 31.6584258,136.709042 C31.7719742,137.032739 32.4687484,137.390723 32.8455226,137.335261 C33.2677161,137.272739 33.6847484,136.810891 33.9892645,136.434756 C34.4011355,135.924504 34.7324903,135.345681 35.0514581,134.770891 C35.8834581,133.265345 37.0963613,131.817277 37.3915871,130.211899 C37.6981677,128.548034 38.4331355,127.698958 39.8524903,127.070723 C40.2395871,126.899294 40.5100387,126.473748 40.8331355,126.164168 C40.3841032,125.958454 39.9515871,125.699294 39.4819097,125.560134 C38.7727484,125.34837 37.8426839,125.439126 37.3502968,125.017613 C35.7946839,123.685513 34.2029419,122.366521 34.0801032,120.009882 C34.0388129,119.214252 33.0942968,118.465008 32.3448774,117.376941 M29.3296516,118.882487 C29.3740387,116.300975 29.3719742,116.304 27.2723613,115.043496 C27.0411355,114.905345 26.8336516,114.727866 26.6251355,114.557445 C24.7877161,113.065008 22.9441032,111.580639 21.1221677,110.071059 C19.9608774,109.109042 18.6168774,109.515429 17.343071,109.605176 C17.0519742,109.626353 16.5482323,110.243496 16.5771355,110.546017 C16.7825548,112.67879 15.2641032,114.056269 14.3154581,115.666689 C13.6733935,116.755765 13.7838452,117.23879 14.9740387,117.655261 C16.4099097,118.158454 17.8375226,118.688874 19.2568774,119.239462 C20.9848774,119.91005 22.7025548,120.609882 24.4192,121.308706 C24.9982968,121.544672 25.5371355,121.922824 26.1358452,122.042824 C26.7355871,122.162824 27.4829419,122.236437 27.9959742,121.990387 C29.4019097,121.31879 29.5402323,120.027025 29.3296516,118.882487 M32.0568774,114.64921 C32.0909419,114.733916 32.1250065,114.817613 32.1580387,114.902319 C33.2439742,114.514084 34.3288774,114.127866 35.4127484,113.738622 C35.879329,113.570218 36.3634581,113.436101 36.8032,113.217277 C37.8664258,112.68484 39.039071,112.261311 39.9288774,111.521143 C41.3213935,110.363496 41.1634581,109.379294 39.4117161,108.779294 C36.3211355,107.723496 35.0958452,105.27005 34.1275871,102.589714 C33.7962323,101.671059 33.5020387,101.860639 32.7577806,102.151059 C31.7554581,102.540303 30.6292645,102.700639 29.5412645,102.791395 C28.4006194,102.886185 27.1226839,103.115092 26.5570065,101.608538 C26.4878452,101.421983 25.8272,101.296941 25.5185548,101.389714 C25.2532645,101.469378 25.0984258,101.902992 24.8961032,102.179294 C25.2016516,102.371899 25.5164903,102.740975 25.8127484,102.727866 C26.9420387,102.678454 27.3384258,103.404504 27.6016516,104.23442 C27.7028129,104.549042 27.6222968,105.203496 27.4695226,105.252908 C27.1072,105.370891 26.5415226,105.363832 26.2576516,105.151059 C25.7281032,104.751731 25.4318452,104.023664 24.8744258,103.69795 C23.5995871,102.952739 22.2297806,102.362824 20.8899097,101.726521 C20.7908129,101.680134 20.6215226,101.750723 20.4935226,101.793076 C19.3714581,102.159126 18.4248774,104.179966 18.8718452,105.248874 C19.4199742,106.563832 20.9724903,107.186017 22.3092645,106.626353 C23.9897806,105.922487 25.2739097,106.248202 26.4300387,107.633748 C26.623071,107.864672 26.9131355,108.019966 27.1691355,108.196437 C28.6256516,109.194756 30.1441032,110.120471 31.5159742,111.221647 C32.0352,111.638118 32.2179097,112.453916 32.5544258,113.088202 C31.9268129,113.157782 31.2888774,113.189042 30.6736516,113.313076 C30.3660387,113.374588 30.0945548,113.607529 29.8075871,113.762824 C30.0573935,114.021983 30.2617806,114.40921 30.567329,114.51005 C31.0266839,114.662319 31.5562323,114.612908 32.0568774,114.64921 M34.4434581,18.6018151 C33.8106839,18.6542521 33.0044903,18.4848403 32.5792,18.801479 C31.3952,19.6848403 30.1389419,20.0105546 28.6844903,20.0650084 C28.2715871,20.0801345 27.7255226,20.731563 27.5500387,21.201479 C27.4437161,21.4888739 27.839071,22.0767731 28.1611355,22.3712269 C28.8878452,23.0347563 29.6764903,23.6468571 30.4992,24.1944202 C31.9577806,25.166521 32.3366194,27.7016471 31.1701677,29.0155966 C30.2297806,30.0744202 30.3526194,30.5967731 31.583071,31.2532437 C31.8906839,31.4176134 32.0517161,31.8471933 32.2788129,32.1557647 C31.8524903,32.3211429 31.4364903,32.5682017 30.9957161,32.6186218 C30.7304258,32.6488739 30.439329,32.3453445 30.143071,32.236437 C28.0806194,31.4761008 28.0888774,31.4004706 28.9642323,29.5218151 C29.2450065,28.9197983 29.2728774,28.1433277 29.1954581,27.4707227 C29.1603613,27.1712269 28.6142968,26.7900504 28.2375226,26.7063529 C27.935071,26.6387899 27.295071,26.8918992 27.2269419,27.1228235 C26.6942968,28.9218151 25.5185548,30.5796303 26.0656516,32.6287059 C26.6488774,34.8149244 28.0011355,35.3019832 29.8158452,33.9436639 C30.1244903,33.7117311 30.9977806,33.6391261 31.1144258,33.8125714 C31.8968774,34.9692101 32.9632,34.9853445 34.1441032,34.7453445 C35.4168774,34.4871933 36.5482323,34.7130756 37.6486194,35.4391261 C38.1781677,35.7880336 38.9410065,36.0532437 39.551071,35.9786218 C40.8558452,35.8192941 41.9397161,35.9382857 42.9306839,36.8982857 C43.2444903,37.2038319 43.9588129,37.0959328 44.4770065,37.2270252 C45.4504258,37.474084 46.4114581,37.7745882 47.3869419,38.016605 C47.8401032,38.1295462 48.4976516,38.3836639 48.7443613,38.1880336 C49.6568774,37.4680336 50.4878452,36.6270252 51.231071,35.736605 C51.4220387,35.5066891 51.2382968,34.9177815 51.1299097,34.5184538 C50.6447484,32.7204706 50.1007484,30.9497143 48.4512,29.7648403 C48.3035871,29.6579496 48.3314581,29.3413109 48.2261677,29.1507227 C47.9330065,28.6203025 47.6006194,28.1120672 47.3074581,27.5826555 C46.8068129,26.6771092 46.1461677,25.8088739 45.8788129,24.8377815 C45.543329,23.6246723 45.0426839,22.7826555 43.7905548,22.271395 C42.2906839,21.6592941 40.9322323,20.7134118 39.4292645,20.1134118 C37.8272,19.4730756 36.4222968,18.0935798 34.4434581,18.6018151 M55.5737806,109.952067 C54.5466839,110.507697 53.5815226,110.976605 52.6752,111.533244 C51.5531355,112.224 50.5456516,112.301647 49.3926194,111.511059 C48.2912,110.753748 47.0844903,110.109378 45.8478452,109.59005 C45.4173935,109.409546 44.6318452,109.593076 44.2261677,109.891563 C43.3239742,110.556101 42.5704258,111.411227 41.7342968,112.164504 C40.5657806,113.216269 39.5262968,114.537277 38.1575226,115.206857 C36.6173935,115.960134 36.1435871,116.840471 36.4584258,118.361143 C36.5379097,118.74837 36.4986839,119.160807 36.4976516,119.561143 C36.4893935,121.185681 38.4269419,123.413244 40.0857806,123.475765 C43.2269419,123.592739 46.3722323,123.608874 49.5154581,123.629042 C52.9342968,123.650218 56.3562323,123.569546 59.7730065,123.662319 C60.8455226,123.691563 61.8860387,124.251227 62.6808774,123.016941 C63.2548129,122.127529 64.2302968,121.433748 64.6204903,120.490891 C65.5268129,118.303664 66.1585548,116.008538 66.9575226,113.776941 C67.4973935,112.266353 67.1526194,111.221647 66.0026839,110.745681 C65.2439742,110.431059 64.4914581,109.979294 63.9041032,109.421647 C62.5053935,108.092571 61.2326194,108.005849 59.9206194,109.349042 C57.4648774,111.860975 54.919329,114.268034 51.8091355,116.018622 C51.4210065,116.236437 51.0008774,116.415933 50.5745548,116.549042 C48.7422968,117.120807 46.8739097,117.597782 45.0746839,118.256269 C44.1662968,118.588034 43.3879742,118.573916 42.8759742,117.852908 C42.535329,117.372908 42.2504258,116.442151 42.5002323,116.082151 C42.8006194,115.647529 43.6986839,115.410555 44.3262968,115.429714 C45.8395871,115.475092 47.239329,115.521479 48.6586839,114.689546 C49.8344258,114.000807 51.271329,113.704336 52.6215226,113.340303 C54.2999742,112.889546 55.3497806,111.809546 55.5737806,109.952067 M23.4705548,143.822319 C23.3683613,142.719126 23.6119742,141.422319 23.0999742,140.548034 C21.7322323,138.208538 21.9789419,135.75005 21.9324903,133.267361 C21.9139097,132.319462 21.5742968,131.377613 21.3843613,130.432739 C20.9312,128.180975 20.4450065,125.941311 21.5835871,123.712739 C21.7766194,123.335597 21.7095226,122.676101 21.4865548,122.302992 C21.3224258,122.027697 20.5213935,121.777613 20.3386839,121.921815 C19.9835871,122.201143 19.7699097,122.746689 19.6697806,123.217613 C19.5459097,123.802487 19.6811355,124.440807 19.5531355,125.024672 C19.3322323,126.040134 19.007071,127.03442 18.7025548,128.031731 C18.5745548,128.450218 18.4857806,128.932235 18.2122323,129.247866 C17.1293935,130.495261 17.5970065,131.819294 17.8530065,133.171563 C18.0955871,134.453244 18.2339097,135.754084 18.4001032,137.047866 C18.4145548,137.159798 18.2679742,137.282824 18.2421677,137.408874 C18.0295226,138.419294 17.6589419,139.433748 17.6692645,140.444168 C17.6806194,141.509042 17.735329,142.447866 16.8197161,143.240471 C16.5327484,143.487529 16.4140387,144.041143 16.4088774,144.456605 C16.383071,146.862655 16.3603613,149.271731 16.4439742,151.675765 C16.4883613,152.952403 16.5265548,154.12921 15.5459097,155.171899 C15.2362323,155.501647 15.2186839,156.173244 15.2166194,156.689546 C15.1908129,163.195765 15.1794581,169.701983 15.199071,176.20921 C15.2021677,177.384 15.2992,178.506353 14.2039742,179.37358 C13.9324903,179.58837 13.8901677,180.187361 13.8932645,180.607866 C13.9087484,182.744672 14.0780387,184.886521 13.9748129,187.015261 C13.9304258,187.922824 13.3492645,188.80316 13.0210065,189.698622 C12.8589419,190.139294 12.5626839,190.597109 12.5915871,191.029714 C12.767071,193.646521 13.1221677,196.258286 12.3262968,198.847866 C12.2302968,199.161479 12.3706839,199.545681 12.4026839,199.896605 C12.5296516,201.306353 13.0364903,202.809882 12.6979097,204.103664 C12.2003613,206.002487 13.0375226,207.160134 14.1399742,208.384336 C15.9226839,210.360807 19.8824258,210.627025 21.8189419,208.757445 C22.3402323,208.253244 22.6406194,207.287193 22.6210065,206.546017 C22.5828129,205.209882 22.0935226,203.888874 22.0346839,202.550723 C21.9634581,200.907025 22.1451355,199.272403 21.2181677,197.749714 C20.9415226,197.295933 20.9755871,196.626353 20.9683613,196.054588 C20.8795871,188.927193 20.7226839,181.799798 20.7856516,174.67442 C20.8052645,172.279462 20.6328774,169.832067 21.8684903,167.490555 C22.4228129,166.440807 22.4259097,164.703328 21.9128774,163.626353 C21.1572645,162.040134 21.0055226,160.525513 20.9869419,158.862655 C20.967329,157.181647 21.4008774,155.369546 19.8999742,153.941647 C19.711071,153.761143 19.8555871,152.917109 20.1260387,152.655933 C21.311071,151.50837 21.1459097,150.384 20.3097806,149.171899 C20.1064258,148.878454 19.8112,148.527529 19.8401032,148.228034 C19.8906839,147.678454 20.1508129,147.146017 20.3232,146.607529 C20.8661677,146.822319 21.5619097,146.907025 21.9035871,147.292235 C22.1874581,147.613916 22.0604903,148.286521 22.1090065,148.803832 C22.1616516,149.364504 21.9861677,150.113748 22.2917161,150.45358 C23.7482323,152.075092 23.2279742,153.869042 22.9977806,155.664 C22.9317161,156.179294 22.8780387,156.710723 22.9306839,157.222992 C23.0318452,158.219294 23.2826839,159.203496 23.3415226,160.200807 C23.3921032,161.039798 23.2104258,161.890891 23.2372645,162.732908 C23.2455226,163.012235 23.5799742,163.280471 23.7637161,163.554756 C24.0207484,163.355092 24.3479742,163.201815 24.5234581,162.948706 C24.9497806,162.331563 25.3874581,161.699294 25.6651355,161.01358 C25.863329,160.527529 25.9283613,159.926521 25.8488774,159.406185 C25.5092645,157.181647 25.0406194,154.975261 24.7247484,152.747697 C24.5265548,151.348034 24.9446194,149.697277 24.3180387,148.563832 C23.4457806,146.985681 23.2909419,145.482151 23.4705548,143.822319 M71.8297806,78.3023193 C72.3562323,80.5530756 72.0083613,82.8320672 70.0635871,84.7006387 C69.9097806,84.8478655 69.8602323,85.0959328 69.7559742,85.2935798 C68.3923613,87.9033277 67.0421677,90.5201345 64.3159742,92.0952605 C64.1022968,92.2192941 63.8142968,92.5137479 63.8411355,92.6892101 C64.0723613,94.2663529 62.759329,94.9107227 61.9490065,95.8838319 C61.1768774,96.8095462 60.5853935,97.8774454 59.8235871,98.8112269 C59.5624258,99.1308908 59.0225548,99.2317311 58.6086194,99.4324034 C58.5043613,99.0048403 58.1957161,98.4945882 58.335071,98.1648403 C58.6932645,97.3147563 59.1010065,96.3920672 59.7606194,95.7769412 C61.0881032,94.5416471 61.2759742,92.3947563 63.2424258,91.7029916 C63.3384258,91.6687059 63.3662968,91.4710588 63.4457806,91.3631597 C63.9422968,90.6925714 64.4522323,90.0310588 64.9435871,89.3554286 C65.1252645,89.1073613 65.3533935,88.8482017 65.4112,88.5648403 C65.6238452,87.5322353 62.5260387,84.6875294 61.4721032,84.9476975 C58.9533935,85.5708908 57.2801032,87.133916 56.2447484,89.4361008 C56.0248774,89.9251765 55.6367484,90.561479 55.2042323,90.6693782 C54.8687484,90.754084 54.2194581,90.2075294 53.9283613,89.7950924 C53.2016516,88.7624874 52.4759742,89.1648403 51.7079742,89.6498824 C50.8708129,90.1772773 50.8924903,90.7873613 51.4117161,91.5718992 C52.487329,93.1974454 53.5175226,94.8532437 54.5105548,96.5271933 C55.6057806,98.371563 56.6235871,100.258286 57.7157161,102.102655 C57.8798452,102.380975 58.2576516,102.547361 58.5549419,102.738958 C60.3861677,103.922824 62.2370065,105.077445 64.0455226,106.29358 C64.5358452,106.623328 67.775071,107.240471 68.2839742,106.959126 C68.4006194,106.89358 68.5059097,106.799798 68.6008774,106.705008 C70.2173935,105.073412 71.8349419,103.441815 73.4462968,101.805176 C74.0625548,101.178958 74.4362323,100.454924 73.887071,99.6441681 C73.2625548,98.7224874 73.6444903,98.1537479 74.3195871,97.4468571 C74.8336516,96.9063529 75.0762323,96.1117311 75.4117161,95.4159328 C75.7595871,94.6908908 76.0465548,93.9345882 76.4088774,93.2155966 C76.9177806,92.2102185 77.8447484,91.2592941 77.9417806,90.2276975 C78.2628129,86.7678655 77.0137806,83.6297143 75.7028129,80.4350924 C74.9389419,78.5725714 75.0246194,76.3349244 74.1079742,74.4098824 C74.9988129,71.0085378 72.8104258,67.9561008 72.9219097,64.6334118 C72.9363613,64.2320672 72.4274581,63.8176134 72.1704258,63.4041681 C71.3456516,62.0771092 70.2803613,60.8317311 69.7632,59.3987899 C69.0891355,57.5302185 67.5882323,56.6266891 66.1244903,55.6233277 C64.2179097,54.3154286 62.2277161,53.121479 60.3293935,51.8024874 C59.7946839,51.4303866 59.3683613,50.8384538 59.0370065,50.2676975 C57.9872,48.4616471 57.2522323,48.1329076 55.0958452,48.6562689 C54.0016516,48.9204706 53.6733935,49.6545882 54.3526194,50.5359328 C54.7262968,51.0199664 55.4106839,51.2942521 55.7275871,51.7994622 C55.9639742,52.1745882 56.0599742,53.016605 55.8287484,53.2172773 C55.0741677,53.8646723 54.8852645,55.3591261 53.4029419,54.9688739 C53.191329,54.9134118 53.0220387,54.498958 52.9446194,54.2206387 C52.863071,53.9292101 53.0364903,53.5238319 52.8888774,53.304 C52.3149419,52.4468571 51.7461677,51.5413109 50.9657806,50.893916 C50.7758452,50.736605 49.7848774,51.4878655 49.1727484,51.8377815 C49.0199742,51.9255126 48.927071,52.1181176 48.7722323,52.1967731 C48.2715871,52.4498824 47.7544258,52.6717311 47.2424258,52.9066891 C47.1133935,52.3903866 46.9255226,51.8811429 46.8687484,51.3577815 C46.8016516,50.7335798 46.7366194,50.0448403 45.8994581,50.3009748 C44.6215226,50.6932437 43.4065548,51.2720672 42.1554581,51.7510588 C41.7828129,51.8932437 41.3874581,52.036437 40.9952,52.0616471 C38.9905548,52.1866891 37.9789419,52.9752605 37.3368774,54.801479 C36.7546839,56.4532437 36.0176516,58.0545882 35.4736516,59.7174454 C35.3580387,60.071395 35.6542968,60.7278655 35.9763613,61.0051765 C36.4759742,61.4337479 37.2687484,61.5456807 37.7373935,61.9924034 C38.2112,62.4451765 38.7252645,63.1601345 38.6839742,63.7228235 C38.655071,64.1302185 37.7198452,64.4448403 37.2377806,64.8572773 C36.7402323,65.2838319 36.1559742,65.7053445 35.8700387,66.2569412 C35.3466839,67.2683697 35.1144258,68.4250084 34.5807484,69.4293782 C33.5773935,71.3110588 34.0460387,73.1282017 35.8772645,74.2142521 C36.2024258,74.4068571 36.5502968,74.9171092 36.5131355,75.2387899 C36.4759742,75.5544202 36.0001032,75.9961008 35.6481032,76.0697143 C34.3226839,76.3500504 34.0408774,77.1708908 34.0976516,78.3406387 C34.183329,80.1204706 34.3216516,81.9154286 34.1761032,83.6831597 C34.0604903,85.0898824 32.9652645,86.2767731 33.4896516,87.9396303 C33.7342968,88.7110588 33.7177806,89.1154286 34.5848774,89.0811429 C34.9028129,89.0680336 35.2816516,88.9833277 35.5283613,89.1154286 C35.9206194,89.3261849 36.4635871,89.664 36.5038452,89.9977815 C36.5461677,90.3537479 36.1621677,90.8922353 35.8091355,91.1211429 C35.4767484,91.3359328 34.9317161,91.3318992 34.4961032,91.2834958 C33.3410065,91.1554286 33.0086194,91.6818151 32.8909419,92.731563 C32.8032,93.5070252 32.4388129,94.3026555 32.0135226,94.9772773 C31.5582968,95.6982857 31.4592,96.258958 32.1095226,96.8720672 C32.5028129,97.2441681 32.8672,97.6445042 33.2388129,98.0367731 C34.0212645,98.8636639 34.8305548,99.0643361 35.9102968,98.4381176 C36.4243613,98.1396303 37.3668129,97.9208067 37.7766194,98.1799664 C39.9020387,99.5231597 42.2979097,99.034084 44.5699097,99.3033277 C44.9363613,99.3466891 45.5257806,98.9282017 45.7466839,98.5671933 C46.5332645,97.2804706 47.1577806,95.898958 47.9330065,94.6051765 C48.5213935,93.6260168 48.2798452,92.7497143 47.1681032,92.3927395 C46.7799742,92.2687059 46.2886194,92.3161008 45.9964903,92.0932437 C45.8034581,91.9450084 45.7404903,91.2280336 45.8602323,91.1574454 C47.8741677,89.976605 49.9108129,88.8300504 51.9773935,87.7399664 C52.8145548,87.2992941 54.0563613,87.0300504 53.7312,85.8976134 C53.4328774,84.8629916 52.3004903,85.2845042 51.4612645,85.4357647 C51.4158452,85.4438319 51.3714581,85.4549244 51.327071,85.4619832 C49.9954581,85.6697143 48.4450065,84.7803025 48.1879742,83.4885378 C48.1043613,83.0700504 48.4481032,82.3329076 48.8248774,82.114084 C49.6909419,81.6098824 50.6994581,81.3426555 51.6429419,80.9634958 C53.4328774,80.2445042 55.2279742,79.5386218 57.0003613,78.7813109 C57.991329,78.3587899 59.6801032,78.561479 59.5469419,79.0808067 C59.3714581,79.7604706 58.7128774,80.6498824 58.0780387,80.8293782 C56.1394581,81.3759328 54.1028129,81.5917311 52.1219097,82.0152605 C51.5954581,82.1271933 50.7386839,82.4922353 50.7139097,82.7937479 C50.6416516,83.6801345 51.2362323,84.2730756 52.2364903,84.2912269 C53.3730065,84.3103866 54.527071,84.1944202 55.6419097,84.3527395 C57.6269419,84.6330756 59.0163613,83.9100504 60.2499097,82.4276975 C61.7043613,80.6821513 61.8468129,79.1594622 60.5017806,77.3352605 C60.2272,76.9631597 60.1394581,76.4448403 60.0155871,75.9809748 C59.8813935,75.4697143 59.9464258,74.856605 59.679071,74.4371092 C58.7438452,72.9688739 59.2300387,70.944 57.7043613,69.7258487 C57.6465548,69.6784538 57.6145548,69.556437 57.6259097,69.4757647 C57.9211355,67.2895462 57.4648774,65.2535798 56.3655226,63.3406387 C56.3242323,63.2680336 56.3046194,63.1591261 56.3262968,63.0794622 C56.4852645,62.5107227 56.5100387,61.8098824 56.8785548,61.4266891 C57.1087484,61.1887059 58.0542968,61.2381176 58.3361032,61.5043361 C58.7211355,61.8683697 58.8594581,62.549042 58.9564903,63.1167731 C59.0586839,63.7097143 58.8862968,64.3561008 59.0318452,64.9298824 C59.1010065,65.1971092 59.6594581,65.5288739 59.9598452,65.4976134 C60.2117161,65.4724034 60.5926194,64.9712269 60.607071,64.6676975 C60.6772645,63.0703866 60.6483613,61.5608067 59.5232,60.1218151 C58.2586839,58.5073613 57.3172645,56.6317311 57.4380387,54.456605 C57.4782968,53.7416471 57.7828129,52.9682017 58.5342968,53.533916 C59.5892645,54.3285378 60.7825548,55.3288739 61.1820387,56.4834958 C61.7745548,58.1917311 61.7229419,60.1137479 61.9407484,61.944 C61.9500387,62.0287059 61.9056516,62.1174454 61.8932645,62.2051765 C61.6352,63.9698824 61.3265548,65.7305546 61.1613935,67.5033277 C61.1252645,67.8935798 61.5949419,68.3282017 61.831329,68.7426555 C62.0666839,68.3332437 62.5859097,67.8401345 62.4888774,67.5305546 C61.9675871,65.8596303 62.5580387,64.3994622 63.1412645,62.9060168 C63.487071,62.0186218 63.9887484,62.2001345 64.4336516,62.7446723 C64.6690065,63.0320672 64.7650065,63.4757647 64.8052645,63.8599664 C65.1872,67.5537479 64.4388129,71.0488739 62.8315871,74.3917311 C61.7869419,76.5638319 62.4011355,78.5080336 64.3004903,79.5255126 C65.2749419,80.0468571 66.1079742,80.8152605 67.0586839,81.3880336 C67.551071,81.6855126 68.2261677,82.0374454 68.6968774,81.9154286 C69.063329,81.8206387 69.407071,81.0542521 69.4752,80.549042 C69.6837161,78.9920672 70.4795871,77.4260168 69.4979097,75.8377815 C69.3389419,75.5796303 69.4432,75.1329076 69.4989419,74.784 C69.6857806,73.6061849 69.6981677,72.5282017 68.7402323,71.5561008 C68.3882323,71.2001345 68.3242323,70.4801345 68.3056516,69.9204706 C68.2530065,68.3171092 68.2065548,66.7056807 68.3211355,65.1083697 C68.4026839,63.973916 68.2891355,63.0492101 67.3962323,62.1971092 C67.0834581,61.8996303 67.0173935,61.0687059 67.2114581,60.6451765 C67.359071,60.3234958 68.1941677,60.0149244 68.551329,60.1470252 C68.9838452,60.3073613 69.3482323,60.8942521 69.5381677,61.3732437 C69.8282323,62.1043361 69.9613935,62.8979496 70.1296516,63.6724034 C70.3319742,64.6071933 70.5890065,65.5419832 70.6653935,66.4888739 C70.8078452,68.2596303 70.4424258,70.1725714 71.0112,71.7829916 C71.7523613,73.8774454 72.0754581,75.9003025 71.8297806,78.3023193 M71.367329,164.172908 C70.655071,161.983664 69.8220387,160.264336 69.599071,158.472403 C69.4112,156.972908 69.9490065,155.390723 70.1368774,153.841815 C70.1957161,153.359798 70.2824258,152.825345 70.1275871,152.393748 C70.0078452,152.05795 69.5319742,151.845176 69.2140387,151.57795 C68.9601032,151.894588 68.5709419,152.176941 68.4770065,152.533916 C68.1755871,153.670387 67.9732645,154.833076 67.7554581,155.989714 C67.6986839,156.28921 67.5964903,156.671395 67.7275871,156.901311 C68.6586839,158.530891 68.2912,160.289546 68.3355871,162.008874 C68.3861677,163.974252 69.1572645,164.702319 71.2413935,165.081479 C72.4924903,165.30837 73.0592,166.353076 73.0199742,167.463328 C72.9580387,169.195765 73.2295226,170.943328 72.1425548,172.625345 C71.4096516,173.762824 71.5015226,175.24921 72.4068129,176.547025 C72.7897806,177.094588 73.0375226,177.847866 73.0468129,178.511395 C73.0973935,181.719126 73.0457806,184.928874 73.0344258,188.137613 C73.0333935,188.49358 72.927071,188.936269 73.0994581,189.190387 C74.8697806,191.810218 73.6909419,194.755765 74.0202323,197.525849 C74.3908129,200.646857 74.0832,203.844504 74.0635871,207.008874 C74.0615226,207.40921 74.1327484,207.875092 73.9521032,208.191731 C73.7229419,208.595092 73.2708129,208.877445 72.9157161,209.211227 C72.8434581,208.812908 72.7319742,208.416605 72.7082323,208.016269 C72.6339097,206.769882 72.5936516,205.522487 72.5255226,203.944336 C70.3918452,206.169882 69.9035871,207.085513 71.4426839,209.232403 C71.7410065,209.647866 71.6088774,210.337613 71.7709419,210.872067 C71.9164903,211.348034 72.0837161,211.956101 72.4501677,212.185008 C72.7381677,212.365513 73.4215226,212.171899 73.7972645,211.940975 C74.7572645,211.353076 75.4664258,210.560471 75.391071,209.325176 C75.3724903,209.024672 75.3900387,208.635429 75.5644903,208.422655 C77.0375226,206.625681 76.4955871,204.519126 76.5451355,202.51442 C76.5936516,200.554084 76.5275871,198.590723 76.5657806,196.630387 C76.5874581,195.55442 76.7010065,194.519798 75.8535226,193.606185 C75.655329,193.392403 75.903071,192.742992 76.0083613,192.30837 C76.1869419,191.562151 76.5843613,190.83005 76.5946839,190.087866 C76.6545548,185.678118 76.6638452,181.266353 76.5988129,176.856605 C76.5853935,176.01963 76.1487484,175.191731 75.9299097,174.353748 C75.7121032,173.517782 75.3559742,172.676773 75.3466839,171.833748 C75.2961032,167.201143 75.3404903,162.568538 75.3373935,157.934924 C75.3363613,156.912403 75.2124903,155.886857 75.2496516,154.865345 C75.3074581,153.300303 75.399329,151.802824 74.2752,150.42837 C73.8674581,149.92921 74.0181677,148.982319 73.951071,148.237109 C73.8973935,147.61795 74.1090065,146.885849 73.8416516,146.388706 C72.0909419,143.124504 73.1531355,139.672739 73.0540387,136.309714 C72.9921032,134.218286 72.8032,132.229714 72.2292645,130.161479 C71.6388129,128.037782 71.1392,126.265008 68.9105548,125.276773 C68.5234581,125.104336 68.6019097,123.942655 68.4542968,123.239798 C68.3355871,122.667025 68.2003613,122.098286 68.071329,121.526521 C67.5335226,121.761479 66.8666839,121.87442 66.4826839,122.256605 C65.8581677,122.880807 65.383329,123.662319 64.9043613,124.41358 C64.295329,125.369546 63.5882323,125.839462 62.3144258,125.665008 C61.1706839,125.507697 59.9691355,125.801143 58.791329,125.813244 C56.3737806,125.839462 53.9552,125.810218 51.5386839,125.80316 C51.2197161,125.80316 50.8088774,125.676101 50.5972645,125.822319 C49.4173935,126.638118 48.2695226,126.864 47.0586839,125.904 C46.9812645,125.843496 46.751071,125.862655 46.6653935,125.932235 C45.6290065,126.767193 44.4181677,126.95879 43.1185548,127.051563 C42.8419097,127.071731 42.4042323,127.942992 42.4279742,128.402824 C42.4816516,129.440471 42.1451355,130.195765 41.3905548,130.887529 C40.2932645,131.893916 39.1949419,132.910387 38.2122323,134.020639 C37.5237161,134.799126 37.0850065,135.783328 36.4326194,136.598118 C35.8246194,137.358454 35.1082323,138.040134 34.3959742,138.713748 C32.6081032,140.408874 32.3861677,142.373244 33.6764903,144.455597 C33.9841032,144.950723 34.1306839,145.623328 34.1203613,146.210218 C34.0832,148.127193 34.1616516,149.953412 33.2708129,151.900639 C32.5637161,153.449546 33.2367484,155.600471 33.2966194,157.48316 C33.3162323,158.111395 33.4524903,158.759798 33.3368774,159.361815 C32.8641032,161.818286 32.3737806,164.247529 33.7146839,166.619294 C33.9686194,167.067025 34.1296516,167.627697 34.1317161,168.136941 C34.143071,171.479798 34.1317161,174.823664 34.0450065,178.165513 C34.0274581,178.834084 33.7848774,179.576269 33.4132645,180.13795 C32.8754581,180.946689 32.903329,181.563832 33.4762323,182.320134 C33.8127484,182.762824 34.0924903,183.344672 34.1317161,183.88316 C34.2648774,185.704336 34.3268129,187.532571 34.3309419,189.357782 C34.3381677,193.409546 34.2917161,197.461311 34.279329,201.513076 C34.2782968,201.818622 34.2690065,202.229042 34.4517161,202.411563 C35.6749419,203.631731 35.3115871,205.133244 35.3342968,206.580303 C35.3518452,207.648202 35.5118452,208.714084 35.5097806,209.780975 C35.5077161,210.835765 34.7521032,211.242151 34.0315871,210.512067 C33.4628129,209.935261 32.9446194,209.033748 32.9260387,208.264336 C32.8321032,204.433412 32.9394581,200.598454 32.903329,196.765513 C32.8971355,196.196773 32.6483613,195.490891 32.255071,195.091563 C31.1949419,194.015597 31.2610065,192.959798 32.0186839,191.82837 C33.2068129,190.055597 33.4762323,188.333244 31.9650065,186.567529 C31.6811355,186.235765 31.5975226,185.655933 31.5975226,185.191059 C31.5944258,180.28921 31.6677161,175.386353 31.6388129,170.484504 C31.6088774,165.452571 31.4437161,160.420639 31.4220387,155.388706 C31.4034581,150.891227 31.527329,146.392739 31.5211355,141.895261 C31.5201032,141.128874 31.2021677,140.359462 30.9988129,139.599126 C30.7696516,138.745008 30.5012645,137.900975 30.2555871,137.049882 C30.0119742,136.203832 29.7528774,135.359798 29.5474581,134.504672 C29.4246194,133.996437 29.2904258,133.45795 29.3389419,132.950723 C29.4628129,131.630723 29.0395871,130.541647 27.9619097,129.790387 C27.0607484,129.16316 26.7417806,128.420975 26.9389419,127.383328 C27.1732645,126.153076 26.8512,125.03879 25.8612645,124.244168 C25.4235871,123.893244 24.6638452,123.52316 24.2406194,123.673412 C23.8308129,123.81963 23.4437161,124.614252 23.4292645,125.134588 C23.3611355,127.672739 23.4251355,130.213916 23.4323613,132.754084 C23.4354581,133.689882 23.3642323,134.628706 23.4148129,135.561479 C23.4437161,136.071731 23.4912,136.743328 23.8173935,137.047866 C24.8641032,138.019966 24.7010065,139.180639 24.7381677,140.390723 C24.7660387,141.320471 25.1314581,142.241143 25.3637161,143.161815 C25.5237161,143.797109 25.8199742,144.417277 25.8684903,145.057613 C25.9717161,146.388706 25.9469419,147.728874 25.9851355,149.066017 C25.9954581,149.419966 25.9355871,149.835429 26.0986839,150.117782 C27.9970065,153.412235 26.9492645,157.011227 27.1877161,160.462992 C27.3735226,163.163496 27.0555871,165.893244 27.0721032,168.608874 C27.1340387,178.325849 27.2465548,188.040807 27.327071,197.757782 C27.3363613,198.871059 27.2104258,199.986353 27.2424258,201.097613 C27.2579097,201.650218 27.5087484,202.193748 27.6202323,202.747361 C27.7141677,203.225345 27.8483613,203.724504 27.775071,204.185345 C27.7554581,204.312403 26.9213935,204.52316 26.6984258,204.368874 C26.2762323,204.07442 25.7766194,203.560134 25.7487484,203.110387 C25.6599742,201.692571 25.8044903,200.263664 25.8086194,198.837782 C25.8251355,193.089882 25.8210065,187.341983 25.8302968,181.593076 C25.831329,180.43442 25.8777806,179.275765 25.8643613,178.117109 C25.8592,177.587697 25.9066839,176.984672 25.6744258,176.546017 C24.9632,175.210891 24.6721032,174.007866 25.9211355,172.77963 C26.1213935,172.582992 25.9985548,171.739966 25.7342968,171.487866 C24.7422968,170.540975 24.5306839,169.442824 24.6999742,168.182319 C24.7402323,167.877782 24.767071,167.520807 24.6432,167.25963 C24.4914581,166.93795 24.1766194,166.690891 23.9309419,166.411563 C23.6904258,166.688874 23.2899097,166.940975 23.2413935,167.247529 C23.1464258,167.852571 23.2155871,168.489882 23.2692645,169.109042 C23.3828129,170.419966 23.3786839,171.657277 22.4248774,172.774588 C22.1017806,173.152739 22.087329,173.854588 22.0821677,174.40921 C22.055329,177.077445 22.047071,179.746689 22.1121032,182.413916 C22.1265548,183.035092 22.4248774,183.659294 22.6478452,184.263328 C22.8728774,184.87442 23.3487484,185.44921 23.3921032,186.062319 C23.5025548,187.656605 23.4653935,189.262992 23.4241032,190.863328 C23.4117161,191.330218 23.1536516,191.787025 23.0679742,192.258958 C22.9884903,192.705681 23.0607484,193.184672 22.9410065,193.618286 C22.5012645,195.222655 23.3848774,196.668706 23.4643613,198.189378 C23.5882323,200.541983 23.4540387,202.906689 23.4695226,205.265345 C23.4715871,205.639462 23.6037161,206.071059 23.8235871,206.374588 C25.2842323,208.386353 25.1882323,209.899966 23.4354581,211.626353 C22.4093935,212.636773 22.4702968,212.855597 23.7265548,213.45963 C24.6566194,213.906353 25.4762323,214.610218 26.4382968,214.940975 C27.6119742,215.345345 28.8837161,215.47442 30.1100387,215.73358 C30.463071,215.80921 30.8026839,215.934252 31.1536516,216.01795 C32.2323613,216.277109 33.3461677,216.441479 34.3866839,216.803496 C35.6512,217.24316 36.895071,217.778622 38.0697806,218.410891 C38.6901677,218.743664 39.1278452,218.996773 39.7719742,218.497613 C40.5575226,217.889546 41.119071,218.488538 41.663071,218.970555 C42.2875871,219.52316 42.1255226,220.041479 41.6083613,220.578958 C41.3967484,220.79879 41.0839742,221.162824 41.1469419,221.360471 C41.8561032,223.571899 39.9257806,225.260975 39.9567484,227.357445 C39.975329,228.663328 36.9002323,230.916101 35.4426839,230.891899 C33.6672,230.861647 31.8917161,230.829378 30.1172645,230.823328 C29.759071,230.822319 29.3337806,230.831395 29.0540387,231.008874 C26.6468129,232.532571 23.9887484,231.691563 21.4380387,231.795429 C21.0561032,231.810555 20.5523613,231.535261 20.2829419,231.239798 C18.9017806,229.722151 17.6290065,228.108706 16.223071,226.614252 C14.6684903,224.963496 14.7572645,223.983328 16.8455226,223.067697 C18.9936516,222.125849 21.183071,221.262655 23.4003613,220.485176 C24.3149419,220.163496 24.8104258,219.722824 24.7712,218.780975 C24.7237161,217.655597 25.0705548,216.31442 23.6047484,215.788034 C21.895329,215.172908 20.7536516,214.33795 21.0158452,212.293916 C21.1448774,211.290555 19.8886194,210.706689 19.0679742,211.45795 C17.5020387,212.888874 15.719329,212.351395 14.0016516,212.249546 C12.7887484,212.17795 11.6295226,210.75005 11.5696516,209.545008 C11.5314581,208.788706 11.4540387,208.018286 11.551071,207.275092 C11.6976516,206.151731 11.4581677,205.193748 10.8212645,204.243832 C10.5208774,203.796101 10.4166194,203.156773 10.407329,202.600134 C10.3567484,199.705008 10.3536516,196.808874 10.3639742,193.913748 C10.3660387,193.339966 10.3526194,192.69963 10.5941677,192.204504 C12.2891355,188.722487 11.5345548,185.035765 11.559329,181.426689 C11.5665548,180.363832 11.5407484,179.445176 12.3324903,178.582992 C12.6762323,178.206857 12.7804903,177.517109 12.7856516,176.967529 C12.8290065,171.797445 12.799071,166.626353 12.8661677,161.455261 C12.8754581,160.604168 13.2408774,159.757109 13.447329,158.909042 C13.5619097,158.438118 13.7890065,157.971227 13.7952,157.499294 C13.8519742,153.090555 13.8612645,148.679798 13.9149419,144.27005 C13.9221677,143.750723 13.983071,143.142655 14.2597161,142.732235 C15.1712,141.379966 15.2486194,139.911731 15.2155871,138.371899 C15.1546839,135.519126 15.1567484,132.666353 15.1619097,129.81358 C15.1629419,129.385008 15.1784258,128.799126 15.4447484,128.558118 C16.4770065,127.624336 16.4439742,126.47879 16.5162323,125.25358 C16.5647484,124.41358 17.1025548,123.609882 17.3379097,122.767866 C17.5082323,122.155765 17.5392,121.507361 17.6321032,120.875092 C17.1015226,120.886185 16.5244903,121.033412 16.0496516,120.879126 C15.0401032,120.550387 14.0088774,120.177277 13.1242323,119.616605 C11.9639742,118.880471 11.5066839,116.283832 12.2581677,115.160471 C12.9724903,114.091563 13.7642323,113.069042 14.5508129,112.047529 C15.0948129,111.33963 15.2444903,110.68316 14.7737806,109.833076 C14.5425548,109.414588 14.4888774,108.688538 14.7077161,108.286185 C15.2785548,107.235429 16.039329,106.283496 16.7340387,105.298286 C16.9146839,105.04316 17.2264258,104.839462 17.3121032,104.56316 C17.8468129,102.847866 18.3402323,101.122487 18.8295226,99.394084 C18.9265548,99.0542521 18.8192,98.5984538 19.0142968,98.356437 C20.1900387,96.9023193 19.9381677,95.2797983 19.7451355,93.6361008 C19.6883613,93.1601345 19.6666839,92.5853445 19.8844903,92.1900504 C21.3028129,89.6105546 20.7185548,86.7930756 20.9508129,84.0804706 C21.0860387,82.4882017 21.0168774,80.8777815 21.0117161,79.276437 C21.0096516,78.8377815 21.055071,78.2902185 20.8197161,77.9796303 C19.0855226,75.691563 20.0672,73.0747563 19.8039742,70.6142521 C19.7998452,70.5708908 19.7946839,70.5073613 19.8194581,70.4831597 C21.8013935,68.5853445 20.4460387,65.7517311 21.8210065,63.6905546 C22.023329,63.389042 22.3247484,63.1500504 22.5797161,62.8828235 C22.8171355,63.216605 23.2341677,63.5392941 23.2579097,63.8871933 C23.3239742,64.8159328 23.1268129,65.7648403 23.2279742,66.6855126 C23.271329,67.0797983 23.7926194,67.4246723 24.0971355,67.7917311 C24.3221677,67.4105546 24.7102968,67.0404706 24.7392,66.6461849 C24.7959742,65.8535798 24.6029419,65.0468571 24.6184258,64.2482017 C24.6287484,63.7369412 24.6617806,63.076437 24.9766194,62.7517311 C25.7838452,61.9177815 25.8530065,61.0031597 25.8674581,59.9372773 C25.8798452,59.0892101 26.2865548,58.2461849 26.5312,57.4031597 C26.6519742,56.9866891 26.7882323,56.5712269 26.9441032,56.1648403 C27.3208774,55.1907227 27.6821677,54.2085378 28.1250065,53.2636639 C28.2179097,53.0660168 28.6917161,52.8643361 28.8888774,52.933916 C29.1128774,53.0125714 29.3864258,53.4159328 29.3554581,53.6428235 C29.2542968,54.4152605 29.2181677,55.2945882 28.8042323,55.9036639 C28.2210065,56.7608067 28.0062968,57.566521 28.2282323,58.5335798 C28.4935226,59.6902185 28.1342968,60.6391261 27.5221677,61.6737479 C27.0721032,62.4361008 27.2527484,63.5403025 27.0855226,64.4801345 C26.9275871,65.371563 26.6736516,66.2458487 26.4764903,67.1322353 C26.2679742,68.0700504 26.0914581,69.0159328 25.8746839,69.9527395 C25.6207484,71.0508908 25.2181677,72.1298824 25.0922323,73.2401345 C24.8517161,75.389042 22.9141677,77.0478655 23.3394581,79.4004706 C23.431329,79.9107227 23.0917161,80.6468571 22.7046194,81.0572773 C22.0078452,81.796437 22.1337806,82.2945882 22.7345548,83.0024874 C23.8545548,84.3194622 23.7162323,85.7463529 22.5735226,87.0683697 C22.2855226,87.4011429 22.087329,87.9255126 22.0904258,88.3611429 C22.1007484,89.9181176 22.2886194,91.4771092 22.2514581,93.0310588 C22.239071,93.6229916 21.9345548,94.3187899 21.5309419,94.7695462 C20.6112,95.7981176 20.4192,97.5597983 21.2739097,98.6468571 C21.8220387,99.3426555 24.0248774,99.7823193 24.8382968,99.2529076 C25.0561032,99.1117311 25.1624258,98.4330756 25.0065548,98.1930756 C24.6504258,97.641479 23.9701677,97.2734118 23.6708129,96.7056807 C23.4292645,96.2468571 23.5500387,95.6034958 23.5108129,95.0428235 C24.0217806,95.1991261 24.6029419,95.256605 25.0272,95.5379496 C25.5041032,95.8525714 25.8034581,96.4092101 26.2442323,96.791395 C27.7048774,98.058958 27.7152,98.0468571 26.7758452,99.7097143 C27.6346839,100.534588 28.703071,100.60316 29.7487484,100.275429 C30.7665548,99.9567731 30.5415226,99.0391261 30.5229419,98.2283697 C30.4816516,96.4051765 29.5557161,95.3594622 27.879329,94.5658487 C26.7035871,94.0092101 25.7167484,92.9816471 24.8197161,92.011563 C24.5533935,91.7231597 24.8764903,90.9154286 24.9301677,90.3456807 C25.4081032,90.5503866 25.9748129,90.6572773 26.343329,90.9799664 C27.0194581,91.5698824 27.4942968,92.4018151 28.2158452,92.9110588 C28.6803613,93.2387899 29.6372645,93.451563 30.0078452,93.2004706 C30.3887484,92.9423193 30.6127484,91.9298824 30.399071,91.4730756 C29.8426839,90.2791261 29.7342968,89.4492101 31.1020387,88.7211429 C31.4664258,88.5275294 31.6119742,87.7006387 31.6253935,87.1581176 C31.6966194,84.0845042 31.6811355,81.0088739 31.7327484,77.9332437 C31.7502968,76.8623193 31.2042323,76.1937479 30.3422968,75.6492101 C29.8065548,75.311395 29.3213935,74.8959328 28.8135226,74.5157647 C28.8610065,74.3816471 28.9095226,74.2475294 28.9580387,74.1134118 C29.4638452,74.0408067 29.9686194,73.9530756 30.4764903,73.8986218 C31.9608774,73.7403025 32.3407484,73.2482017 32.1084903,71.8223193 C32.0599742,71.5288739 32.0806194,71.2041681 32.1570065,70.9157647 C32.6328774,69.1187899 33.1655226,67.3359328 33.6135226,65.5329076 C33.8746839,64.4801345 33.5041032,63.7803025 32.2612645,63.7419832 C31.8999742,63.7308908 31.4302968,63.7621513 31.2062968,63.5634958 C30.8130065,63.2145882 30.3495226,62.7073613 30.3412645,62.2596303 C30.3361032,61.944 30.9936516,61.4145882 31.4282323,61.3278655 C34.1296516,60.7863529 34.1668129,60.8176134 34.0491355,58.176605 C33.9851355,56.7527395 34.3546839,55.5880336 35.4664258,54.5887059 C36.8754581,53.3211429 36.6586839,52.2088739 34.9337806,51.2720672 C34.0615226,50.7991261 33.2088774,50.2576134 32.2798452,49.9329076 C31.6893935,49.7271933 30.8625548,49.6374454 30.3361032,49.8875294 C28.9611355,50.5409748 27.6604903,51.3628235 26.3897806,52.2058487 C25.1252645,53.0458487 23.935071,53.9937479 22.7118452,54.8922353 C22.6024258,54.9718992 22.4228129,55.0132437 22.3784258,55.1150924 C21.5598452,56.9695462 20.7515871,58.829042 19.9598452,60.6945882 C19.8958452,60.8448403 20.0413935,61.0949244 19.9608774,61.2179496 C18.8161032,62.9594622 18.9389419,65.058958 18.2514581,66.9325714 C17.8798452,67.9480336 17.7456516,69.0461849 17.5154581,70.1100504 C17.3038452,71.0801345 17.1180387,72.0562689 16.8981677,73.0243361 C16.831071,73.3248403 16.5699097,73.6213109 16.5998452,73.8976134 C16.7650065,75.3829916 15.807071,76.3097143 14.8955871,77.2354286 C13.6155871,78.5332437 13.1397161,80.1668571 12.7206194,81.8377815 C12.6659097,82.051563 12.7247484,82.3682017 12.5926194,82.4750924 C12.2416516,82.7584538 11.815329,82.9530756 11.4199742,83.1829916 C11.2176516,82.7917311 10.7624258,82.3288739 10.8522323,82.0192941 C11.519071,79.7634958 12.5420387,77.6861849 13.7962323,75.6471933 C14.6963613,74.184 14.9678452,72.2579496 15.1567484,70.5013109 C15.3095226,69.0875294 15.3466839,67.7907227 16.0444903,66.4243361 C16.8610065,64.824 17.0839742,62.9352605 17.5815226,61.1776134 C17.6888774,60.801479 17.8850065,60.4505546 18.0202323,60.0804706 C18.2535226,59.4461849 18.4826839,58.8098824 18.6922323,58.1675294 C18.8140387,57.7934118 18.8016516,57.3456807 19.0101677,57.0350924 C19.8081032,55.8542521 20.7123613,54.7419832 21.5010065,53.5561008 C22.9544258,51.3678655 25.4112,50.5561008 27.5644903,49.3792941 C28.9363613,48.629042 29.3936516,47.6992941 29.3967484,46.2693782 C29.3977806,45.5161008 29.8499097,44.7708908 29.8901677,44.011563 C29.9201032,43.4448403 29.8024258,42.6673613 29.4256516,42.3224874 C28.4584258,41.4401345 27.4478452,40.7060168 27.0462968,39.3355966 C26.7046194,38.1688739 25.2749419,38.0256807 24.4068129,38.9443361 C24.0372645,39.336605 23.7472,39.8055126 23.3497806,40.1675294 C22.3918452,41.0418151 21.5206194,41.0387899 20.6566194,40.0687059 C19.9742968,39.3033277 19.3404903,39.3295462 18.6839742,39.9668571 C17.5846194,41.0337479 16.5657806,42.1803025 15.4395871,43.2179496 C15.1082323,43.5224874 14.5312,43.5729076 14.0666839,43.7392941 C14.047071,43.213916 13.959329,42.6784538 14.0346839,42.1651765 C14.0821677,41.8394622 14.4341677,41.5661849 14.5322323,41.2354286 C14.5952,41.0206387 14.5281032,40.6576134 14.3732645,40.5234958 C14.2256516,40.3974454 13.8757161,40.4347563 13.6341677,40.4861849 C12.7629419,40.6737479 11.8782968,40.8401345 11.039071,41.1285378 C10.4651355,41.3261849 9.8788129,41.6287059 9.43907097,42.0310588 C8.51107097,42.8831597 7.66874839,43.8250084 6.80474839,44.7406387 C6.22668387,45.3527395 5.5588129,45.5836639 4.89300645,44.9826555 C4.06307097,44.2344202 3.45300645,44.4492101 2.84603871,45.2155966 C2.67984516,45.4253445 2.49197419,45.7117311 2.26797419,45.7611429 C1.87055484,45.8478655 1.35545806,45.911395 1.04990968,45.7288739 C0.8672,45.618958 0.812490323,44.8424874 0.9952,44.6781176 C2.52707097,43.3016471 3.47468387,41.3604706 5.76423226,40.6949244 C7.55932903,40.1735798 9.20578065,39.1046723 10.8481032,38.1608067 C12.0775226,37.4549244 13.3007484,37.0172773 14.7386839,37.2482017 C15.9154581,37.4367731 16.8527484,36.9991261 17.9170065,36.4404706 C19.3962323,35.6660168 21.1376516,35.3271933 22.8006194,34.9429916 C24.4615226,34.5577815 24.7639742,34.2350924 24.6741677,32.5974454 C24.5884903,31.041479 24.4408774,29.4653445 24.6122323,27.9275294 C24.7278452,26.8898824 25.2295226,25.8361008 25.7786839,24.916437 C26.2700387,24.0955966 26.2948129,23.4925714 25.7312,22.7362689 C24.1724903,20.6508908 23.103071,18.321479 22.9079742,15.7480336 C22.847071,14.9382857 23.4519742,13.9792941 23.9846194,13.2502185 C24.8176516,12.1107227 25.9758452,11.2505546 26.2927484,9.70668908 C26.4011355,9.17626891 27.4777806,8.74568067 28.1879742,8.44114286 C29.7539097,7.76954622 31.3601032,7.18366387 32.967329,6.61089076 C33.6155871,6.37996639 34.3288774,6.09257143 34.9802323,6.15307563 C36.2013935,6.26803361 36.8744258,6.0552605 37.5660387,4.85626891 C38.4651355,3.30231933 39.9164903,2.04988235 41.1500387,0.685512605 C41.2832,0.538285714 41.5495226,0.449546218 41.7601032,0.435875279 C42.3546839,0.401142857 44.5162323,2.03878992 44.7216516,2.62063866 C44.8248774,2.91206723 44.9188129,3.23778151 45.1201032,3.45963025 C45.7136516,4.11509244 45.7394581,4.67677311 45.0519742,5.29694118 C44.3799742,5.90198319 44.5523613,6.57257143 45.0581677,7.20484034 C45.5763613,7.85021849 46.1874581,8.06097479 46.7242323,7.29761345 C47.295071,6.48584874 47.9660387,6.53727731 48.7515871,6.85089076 C50.7799742,7.65963025 52.7051355,8.46030252 53.6775226,10.7060168 C54.4269419,12.4394622 55.8091355,13.9066891 56.6163613,15.6250084 C57.1985548,16.8673613 57.2770065,18.331563 57.6197161,19.6878655 C57.8426839,20.5651765 57.9851355,21.5110588 58.4331355,22.2744202 C59.2352,23.6377815 59.1856516,24.5322353 58.1410065,25.7846723 C56.9497806,27.2125714 55.8318452,28.7070252 54.7820387,30.2367731 C54.5766194,30.5362689 54.8408774,31.1332437 54.8635871,31.594084 C54.8945548,32.2213109 55.1206194,32.9503866 54.879071,33.4606387 C53.7642323,35.8182857 53.6475871,38.1436639 54.7933935,40.4922353 C55.3528774,41.6367731 55.6966194,42.671395 54.6788129,43.8149244 C53.9892645,44.5883697 54.3123613,45.2145882 55.3683613,45.1611429 C56.7608774,45.091563 57.6868129,45.7187899 58.5921032,46.6071933 C59.0597161,47.0670252 59.6976516,47.3584538 60.2488774,47.7396303 C60.5379097,47.9403025 60.9322323,48.1167731 61.0622968,48.3981176 C62.6065548,51.7409748 65.7332645,53.194084 68.831071,54.6976134 C70.7149419,55.6132437 71.5675871,57.3698824 72.4573935,59.0781176 C73.1572645,60.4223193 73.6981677,61.8603025 74.5260387,63.1218151 C75.3539097,64.3843361 75.455071,65.6781176 75.3632,67.0787899 C75.3281032,67.5981176 75.2434581,68.3312269 75.5386839,68.6186218 C77.1892645,70.2300504 76.5740387,72.1682017 76.5853935,74.0438319 C76.5895226,74.7103866 76.9022968,75.3799664 77.0973935,76.041479 C77.3327484,76.8280336 77.8705548,77.6367731 77.7900387,78.3860168 C77.5588129,80.5359328 78.4589419,82.2693782 79.4189419,84.0653445 C79.8555871,84.8801345 80.0114581,85.8703866 80.1373935,86.8011429 C80.2612645,87.7218151 80.0537806,88.6929076 80.2292645,89.5984538 C80.6246194,91.6394622 79.775071,93.3224874 78.8408774,95.0055126 C78.7149419,95.231395 78.5291355,95.5228235 78.3102968,95.5883697 C76.4377806,96.1470252 76.4068129,97.5557647 76.6555871,99.0381176 C76.831071,100.083832 76.6700387,100.922824 75.8803613,101.722487 C75.519071,102.088538 75.3652645,102.758118 75.3342968,103.301647 C75.2672,104.545008 75.2682323,105.800471 75.3642323,107.042824 C75.4519742,108.19442 75.4612645,109.222992 74.4672,110.102319 C74.2029419,110.336269 74.1967484,111.125849 74.3804903,111.522151 C74.9255226,112.685849 75.7472,113.73358 76.2220387,114.918454 C76.5730065,115.794756 76.5038452,116.824336 76.7123613,117.767193 C76.9074581,118.650555 77.0819097,119.584336 77.5154581,120.362824 C78.207071,121.605176 77.8850065,123.591731 76.6091355,124.240134 C76.2736516,124.410555 75.6904258,124.228034 75.2672,124.081815 C74.8078452,123.923496 74.4197161,123.469714 73.9675871,123.419294 C73.4906839,123.365849 72.9766194,123.635092 72.479071,123.764168 C72.6019097,124.207866 72.5740387,124.841143 72.871329,125.064 C74.6292645,126.387025 74.2607484,128.175933 74.2349419,129.955765 C74.2215226,130.824 74.5766194,131.698286 74.7737806,132.567529 C74.9792,133.461983 75.3683613,134.352403 75.3755871,135.246857 C75.4055226,139.122151 75.3095226,142.998454 75.3022968,146.874756 C75.3022968,147.385008 75.4044903,148.006185 75.7079742,148.38837 C76.7082323,149.647866 76.8135226,151.058622 76.7980387,152.56316 C76.7773935,154.75442 76.4883613,156.90837 77.6785548,159.063328 C78.2937806,160.178622 77.8705548,161.850555 77.8808774,163.271395 C77.9108129,167.505681 77.9211355,171.738958 77.951071,175.972235 C77.9541677,176.322151 77.9428129,176.738622 78.119329,177.010891 C79.9361032,179.811227 78.5642323,182.935261 79.0968774,185.85963 C79.1041032,185.900975 79.0968774,185.956437 79.0731355,185.989714 C77.1552,188.736605 78.3195871,191.863664 77.9376516,194.799126 C77.9314581,194.843496 77.9232,194.892908 77.9386839,194.932235 C78.9172645,197.536941 77.9201032,200.157782 77.9882323,202.770555 C78.0573935,205.43879 77.9376516,208.111059 77.9355871,210.782319 C77.9345548,211.613244 77.6702968,212.079126 76.7691355,212.294924 C76.1404903,212.445176 75.5675871,212.880807 75.0132645,213.249882 C73.7972645,214.060639 72.6308129,214.651563 71.1175226,213.782319 C69.9624258,213.11879 69.2057806,213.884168 68.7526194,214.863328 C67.6573935,217.228034 65.6579097,218.003496 63.1887484,217.966185 C61.5877161,217.940975 61.1985548,218.395765 61.2739097,219.928538 C61.3141677,220.735261 61.2202323,221.652908 60.8517161,222.350723 C59.8721032,224.205176 59.6739097,225.892235 60.959071,227.725513 C61.7890065,228.912403 61.6785548,230.327193 60.8155871,231.501983 C60.1497806,232.406521 59.8834581,233.136605 60.6204903,234.146017 C60.8413935,234.446521 60.6752,235.292571 60.3768774,235.627361 C59.4829419,236.632739 58.4785548,237.557445 57.4287484,238.410555 C57.0137806,238.747361 56.3706839,238.959126 55.8256516,238.972235 C53.8643613,239.020639 51.9020387,238.967193 49.9407484,238.931899 C49.5381677,238.923832 48.9776516,238.972235 48.7608774,238.746353 C47.6284903,237.564504 46.3959742,236.571227 44.8290065,235.975261 C44.6514581,235.907697 44.5472,235.206857 44.6752,234.907361 C45.1531355,233.782992 44.8537806,232.83005 44.2292645,231.879126 C43.3363613,230.51879 43.1577806,229.321815 44.4460387,227.920134 C45.3709419,226.913748 45.1097806,225.397109 44.3376516,224.286857 C43.4509419,223.012235 43.5252645,221.665008 43.6408774,220.301647 C43.7389419,219.162151 44.9260387,218.668034 46.0388129,219.354756 C46.9296516,219.904336 47.6739097,219.685513 48.6308129,219.635092 C51.4106839,219.489882 53.6692645,218.287866 55.9835871,217.068706 C56.2117161,216.947697 56.5296516,216.874084 56.7773935,216.920471 C58.247329,217.19879 59.463329,216.822655 60.7598452,216.048202 C61.7952,215.43005 63.2083613,215.450218 64.3923613,215.023664 C66.6509419,214.210891 67.8462968,212.189042 69.3255226,210.52921 C69.5722323,210.252908 69.3327484,209.334252 69.0416516,208.880471 C68.5740387,208.153412 68.6339097,207.638118 69.0819097,206.936269 C69.4122323,206.418958 69.5526194,205.731227 69.5949419,205.107025 C69.6579097,204.178286 69.5526194,203.238454 69.535071,202.302655 C69.5133935,201.141983 69.8065548,200.262655 71.1536516,199.854252 C71.583071,199.724168 71.7709419,198.835765 72.0692645,198.293244 C71.6429419,198.127866 71.2248774,197.855597 70.7861677,197.819294 C69.7735226,197.734588 69.4607484,197.084168 69.4122323,196.284504 C69.3554581,195.353748 69.9097806,194.778958 70.8295226,194.601479 C71.1660387,194.536941 71.5335226,194.61963 72.1188129,194.64484 C71.9608774,194.123496 71.8504258,193.732235 71.7244903,193.346017 C71.4179097,192.40921 70.8728774,191.482487 70.8367484,190.536605 C70.7097806,187.19879 70.759329,183.855933 70.7293935,180.516101 C70.7262968,180.209546 70.7417806,179.826353 70.5724903,179.611563 C68.7164903,177.259966 69.7022968,174.550387 69.4958452,171.99005 C69.4287484,171.148034 69.1128774,170.326185 68.927071,169.490218 C68.8166194,168.992067 68.7010065,168.488874 68.6597161,167.981647 C68.6401032,167.730555 68.9115871,167.413916 68.8279742,167.217277 C68.5730065,166.613244 68.2096516,166.05358 67.8875871,165.475765 C67.6305548,165.994084 67.1536516,166.510387 67.1536516,167.028706 C67.1464258,170.727529 67.2259097,174.427361 67.3012645,178.126185 C67.327071,179.389714 67.3580387,180.603832 66.3133935,181.607193 C66.0078452,181.900639 65.9293935,182.49963 65.8984258,182.968538 C65.823071,184.077782 65.8385548,185.194084 65.8199742,186.307361 C65.799329,187.469042 66.2834581,188.174924 67.5655226,188.22837 C68.0145548,188.247529 68.4842323,188.312067 68.9043613,188.462319 C69.959329,188.841479 70.2411355,189.590723 69.5185548,190.436773 C68.6782968,191.418958 68.2757161,192.449546 68.3015226,193.732235 C68.3108129,194.191059 67.9402323,194.726521 67.6016516,195.106689 C66.7944258,196.014252 65.9025548,196.848202 65.0447484,197.713412 C63.9619097,198.804504 63.0535226,199.954084 63.6584258,201.619966 C63.7017806,201.739966 63.7255226,201.918454 63.6666839,202.014252 C62.7417806,203.495597 61.8519742,205.002151 60.8228129,206.411899 C60.6339097,206.67005 59.8679742,206.523832 59.3683613,206.56316 C59.4437161,206.074084 59.3817806,205.507361 59.6181677,205.108034 C60.4481032,203.697277 61.4297806,202.371227 62.2452645,200.95442 C62.4775226,200.55005 62.439329,199.929882 62.3598452,199.434756 C62.1678452,198.241815 62.2339097,197.184 63.0628129,196.161479 C63.4746839,195.653244 63.6666839,194.869714 63.7017806,194.198118 C63.7730065,192.821647 63.5789419,191.431059 63.6687484,190.057613 C63.7451355,188.895933 64.1126194,187.75442 64.2684903,186.593748 C64.4026839,185.58837 64.3562323,184.559798 64.5100387,183.558454 C64.6256516,182.80316 64.9373935,182.077109 65.1541677,181.335933 C65.3771355,180.576605 65.7642323,179.817277 65.7786839,179.052908 C65.8364903,175.979294 65.7580387,172.904672 65.7683613,169.83005 C65.7900387,163.547697 65.8530065,157.267361 65.8653935,150.986017 C65.8695226,148.850218 65.9056516,146.701311 65.6723613,144.585681 C65.5619097,143.591395 64.863071,142.65358 64.3644903,141.722824 C64.3304258,141.658286 63.4839742,141.835765 63.4622968,141.968874 C63.3797161,142.484168 63.5686194,143.03879 63.4922323,143.556101 C63.3219097,144.709714 63.0586839,145.851227 62.8171355,146.993748 C62.7820387,147.16316 62.5828129,147.323496 62.5982968,147.473748 C62.7902968,149.246521 62.1379097,150.783328 61.4349419,152.377613 C60.7123613,154.019294 60.3366194,155.807193 59.8184258,157.532571 C59.519071,158.530891 59.239329,159.534252 58.9544258,160.535597 C58.9182968,160.663664 58.9337806,160.813916 58.8708129,160.92484 C58.2081032,162.097613 57.4803613,163.238118 56.8888774,164.444168 C56.6019097,165.03005 56.5709419,165.734924 56.4109419,166.382319 C56.2210065,167.155765 56.031071,167.930218 55.8132645,168.696605 C55.6646194,169.219966 55.4375226,169.72316 55.3022968,170.249546 C55.2155871,170.587361 55.3095226,170.977613 55.1918452,171.299294 C53.8395871,175.00921 52.2344258,178.60316 50.1616516,181.996437 C49.7497806,182.67005 49.7384258,183.567529 49.4648774,184.335933 C49.2893935,184.828034 49.0788129,185.47442 48.6824258,185.676101 C48.3283613,185.855597 47.5221677,185.672067 47.2444903,185.365513 C46.9812645,185.074084 47.0142968,184.378286 47.1474581,183.923496 C47.4416516,182.915092 47.879329,181.946017 48.2622968,180.962824 C48.3262968,180.797445 48.3768774,180.603832 48.4966194,180.48484 C51.3177806,177.670387 51.5675871,173.601479 53.6362323,170.415933 C53.9108129,169.992403 53.8922323,169.392403 54.0367484,168.882151 C54.6055226,166.887529 55.1804903,164.894924 55.7657806,162.905345 C55.9742968,162.191395 56.199329,161.481479 56.4522323,160.781647 C57.0488774,159.127866 57.663071,157.480134 58.2824258,155.833412 C58.3422968,155.671059 58.5384258,155.55005 58.5776516,155.388706 C59.0989419,153.234756 59.6161032,151.080807 60.1043613,148.919798 C60.2013935,148.493244 60.0135226,147.932571 60.231329,147.615933 C61.9975226,145.048538 61.1541677,142.181647 61.3306839,139.430723 C61.3740387,138.758118 61.5660387,138.028034 61.9180387,137.459294 C62.3392,136.778622 62.9792,136.024336 62.1492645,135.504 C61.5020387,135.096605 60.4862968,135.24484 59.6326194,135.161143 C59.5665548,135.155092 59.495329,135.280134 59.4127484,135.309378 C58.8388129,135.516101 58.2607484,135.713748 57.6847484,135.91442 C57.6826839,135.241815 57.4937806,134.504672 57.7095226,133.906689 C58.4568774,131.846521 59.3095226,129.820639 60.2065548,127.81795 C60.3882323,127.41358 60.9580387,126.904336 61.3213935,126.923496 C61.7250065,126.944672 62.4248774,127.519462 62.4217806,127.846185 C62.4104258,128.673076 62.0842323,129.496941 61.8684903,130.317782 C61.7136516,130.909714 61.2047484,131.781983 61.4287484,132.027025 C61.9634581,132.609882 62.8264258,132.923496 63.5923613,133.270387 C63.6914581,133.315765 64.1002323,132.95879 64.1962323,132.722824 C65.0561032,130.610218 66.1502968,128.547025 65.5959742,126.125849 C65.5278452,125.831395 65.9737806,125.425008 66.1822968,125.07005 C66.5043613,125.380639 67.0927484,125.684168 67.103071,126.00484 C67.1577806,127.719126 67.8256516,129.485849 66.2566194,131.069042 C65.7972645,131.532908 65.8777806,133.108034 66.343329,133.699966 C66.9668129,134.492571 67.2702968,135.190387 67.1567484,136.099966 C66.9812645,137.511731 67.4086194,138.570555 68.6401032,139.435765 C70.0130065,140.399798 69.8829419,141.966857 69.7735226,143.371563 C69.671329,144.670387 69.8251355,145.822992 70.4930065,146.964504 C70.7655226,147.431395 70.8212645,148.066689 70.8264258,148.627361 C70.8450065,150.720807 70.7964903,152.815261 70.7851355,154.909714 C70.783071,155.172908 70.7686194,155.495597 70.9079742,155.691227 C72.3417806,157.695933 71.9226839,159.961815 71.8690065,162.165176 C71.8555871,162.720807 71.6016516,163.270387 71.367329,164.172908" id="Fill-1" fill="#231916" mask="url(#mask-2)"></path>
                </g>
                <path d="M18.4676129,99.7587227 C18.1827097,100.089479 17.6655484,100.423261 17.6944516,100.704605 C17.7832258,101.580908 17.872,102.569143 18.3406452,103.272 C19.1323871,104.456874 20.0820645,105.461244 20.0655484,107.045445 C20.0583226,107.621244 20.6487742,108.344269 21.1710968,108.749647 C21.8327742,109.263933 22.420129,108.890824 22.4562581,108.080067 C22.4748387,107.677714 22.1827097,107.263261 22.0433548,106.850824 C21.7274839,105.910992 21.4797419,104.944941 21.0947097,104.033345 C20.5496774,102.74158 19.9230968,101.481076 19.2861935,100.229647 C19.1891613,100.039059 18.8464516,99.9684706 18.4676129,99.7587227 M9.55612903,117.653849 L9.27535484,117.706286 C9.27535484,118.285109 9.22477419,118.868975 9.29909677,119.436706 C9.33006452,119.677714 9.584,119.955025 9.81419355,120.077042 C9.90812903,120.127462 10.3829677,119.81284 10.3850323,119.66158 C10.3953548,118.274017 11.4627097,117.635697 12.3009032,116.775529 C12.7034839,116.363092 12.8593548,115.559395 12.8304516,114.947294 C12.7829677,113.947966 12.9450323,113.140235 13.7068387,112.41116 C14.452129,111.69721 14.448,110.818891 13.5726452,110.234017 C12.3814194,109.438387 11.1169032,108.721412 9.80387097,108.14158 C9.50967742,108.011496 8.76851613,108.489479 8.43819355,108.860571 C7.67535484,109.717714 7.02296774,110.672672 6.352,111.605445 C5.66141935,112.565445 4.91303226,113.501244 4.34941935,114.529815 C3.69703226,115.718723 3.15922581,116.97721 2.70916129,118.251832 C2.608,118.541244 3.07458065,119.021244 3.27896774,119.413513 C4.13367742,118.860908 5.19896774,118.465613 5.78735484,117.714353 C6.44593548,116.874353 6.61109677,115.683429 7.1003871,114.696202 C7.568,113.75637 8.36696774,113.693849 8.79948387,114.629647 C9.22890323,115.558387 9.31767742,116.639395 9.55612903,117.653849 M8.3876129,101.785613 C7.60516129,103.723765 8.80464516,104.90158 10.3220645,105.906958 C11.0353548,106.377882 11.7930323,106.789311 12.5496774,107.194689 C13.9793548,107.962084 15.3966452,108.763765 16.8789677,109.425277 C17.3259355,109.624941 17.9659355,109.408134 18.5181935,109.381916 C18.4273548,108.902924 18.3757419,108.41284 18.2353548,107.947966 C18.0712258,107.40242 17.8699355,106.858891 17.6108387,106.349647 C17.1442581,105.430992 16.6312258,104.534521 16.1192258,103.640067 C15.8436129,103.159059 15.2954839,102.709311 15.2727742,102.227294 C15.147871,99.5358655 13.7223226,97.5825882 11.732129,95.9298151 C11.0384516,95.3540168 10.2745806,95.4588908 9.94632258,96.2968739 C9.26193548,98.0504874 7.84670968,99.6064538 8.3876129,101.785613 M6.56464516,118.750992 C5.82451613,119.728134 5.21135484,120.509647 4.63019355,121.313345 C4.15845161,121.963765 3.68567742,122.618218 3.28412903,123.309983 C2.8196129,124.110655 2.10632258,124.634017 1.28154839,124.229647 C0.71483871,123.952336 0.100645161,123.178891 0.0552258065,122.586958 C-0.08,120.832336 -0.0283870968,119.122084 0.933677419,117.427966 C2.05883871,115.447462 2.66374194,113.191664 3.65264516,111.128471 C4.03870968,110.324773 4.81393548,109.674353 5.49109677,109.032 C6.36232258,108.204101 6.44696774,107.384269 6.27148387,106.173176 C5.88129032,103.490824 5.6036129,100.824605 6.66787097,98.0676303 C7.312,96.3997311 8.08,94.9809076 9.22167742,93.6629244 C9.89677419,92.8824202 10.5914839,92.7079664 11.4781935,93.3089748 C11.8477419,93.5600672 12.2544516,93.8192269 12.6828387,93.9160336 C13.5994839,94.1227563 13.9587097,94.6884706 14.3096774,95.5052773 C14.6369032,96.2676303 15.2707097,97.0098151 15.9654194,97.4898151 C16.8252903,98.0817479 17.8327742,97.4111597 17.5974194,96.4088067 C17.2134194,94.7741849 18.1352258,93.9856134 19.371871,93.3472941 C21.5509677,92.221916 22.3757419,90.3573782 22.4190968,88.0804034 C22.4356129,87.2162017 22.2849032,86.3197311 23.4049032,86.0051092 C24.5723871,85.6773782 25.7925161,84.8343529 26.763871,86.4266218 C27.3667097,87.4138487 28.107871,87.0649412 28.5538065,86.2824202 C29.2309677,85.0904874 29.9494194,84.7365378 31.0972903,85.7409076 C31.3770323,85.9849412 31.9065806,85.9385546 32.2296774,86.1553613 C32.6054194,86.4064538 33.0926452,86.7725042 33.1442581,87.139563 C33.1979355,87.5227563 32.8903226,88.1731765 32.5548387,88.3304874 C32.1646452,88.512 31.5690323,88.3103193 31.0725161,88.2235966 C30.9197419,88.1973782 30.8134194,87.9180504 30.6616774,87.8928403 C30.1517419,87.8111597 29.6314839,87.792 29.1153548,87.7496471 C29.3569032,88.261916 29.5034839,88.8568739 29.872,89.2602353 C30.1372903,89.5516639 30.7969032,89.4851092 31.0972903,89.7664538 C31.4523871,90.0982185 31.8508387,90.6740168 31.7796129,91.0662857 C31.7166452,91.4141849 31.0673548,91.8367059 30.6234839,91.9072941 C29.5778065,92.0746891 28.619871,91.8508235 28.1677419,90.7083025 C28.0221935,90.3392269 27.8023226,89.9842689 27.5556129,89.6676303 C27.1757419,89.1815798 26.7514839,88.3556975 26.3292903,88.3456134 C25.2340645,88.3183866 24.0707097,88.944605 24.0025806,90.0407395 C23.8332903,92.8138487 21.7336774,94.1731765 20.0025806,95.821916 C19.2314839,96.557042 19.0312258,97.0602353 19.8374194,98.0363697 C20.8459355,99.2555294 21.492129,100.761076 22.288,102.146622 C22.3540645,102.260571 22.3365161,102.447126 22.4263226,102.517714 C25.0193548,104.563765 25.0224516,108.738555 28.7499355,109.873008 C28.9419355,109.931496 29.1628387,110.615193 29.0916129,110.671664 C28.7034839,110.979227 27.9416774,111.48242 27.8229677,111.375529 C26.0547097,109.77116 24.432,109.853849 22.6255484,111.38158 C22.2147097,111.730487 21.2123871,111.424941 20.4836129,111.398723 C18.1589677,111.316034 16.2348387,112.480739 15.3945806,114.611496 C14.8990968,115.873008 14.6957419,117.258555 14.1032258,118.46763 C13.3940645,119.915697 12.5104516,121.311328 11.5153548,122.589983 C10.6379355,123.71637 9.52206452,124.670319 8.47432258,125.662588 C7.85703226,126.248471 7.12412903,127.010824 6.23948387,126.279731 C5.32283871,125.521412 5.84929032,124.669311 6.47896774,123.941244 C7.73522581,122.487126 7.09522581,120.806118 7.04567742,119.204773 C7.03948387,119.009143 6.64722581,118.824605 6.56464516,118.750992" id="Fill-3" fill="#231916"></path>
                <path d="M30.2388645,94.018084 C31.3733161,94.0211092 33.1095742,95.520605 33.1642839,96.3132101 C33.2179613,97.0846387 32.9041548,97.540437 32.0226065,97.2086723 C31.3495742,96.955563 30.6125419,96.7690084 30.0540903,96.3585882 C29.6638968,96.0722017 29.2850581,95.4217815 29.3480258,94.9972437 C29.4109935,94.5737143 30.0313806,94.2278319 30.2388645,94.018084" id="Fill-5" fill="#231916"></path>
                <path d="M52.1803355,22.4839664 C53.498529,22.5757311 54.3294968,22.8772437 54.1725935,23.8977479 C54.1054968,24.3283361 53.1558194,25.055395 53.0040774,24.9706891 C52.314529,24.585479 51.7664,23.9592605 51.1676903,23.4197647 C51.5723355,23.0456471 51.9769806,22.6715294 52.1803355,22.4839664" id="Fill-7" fill="#231916"></path>
                <path d="M53.3809548,27.5939496 C52.8865032,27.907563 52.3548903,28.5095798 51.9058581,28.4561345 C51.4031484,28.3956303 50.9757935,27.7411765 50.5154065,27.3448739 C50.9799226,26.8961345 51.3886968,26.1932773 51.9265032,26.0823529 C52.3239226,26.0006723 52.8875355,26.6894118 53.3778581,27.0352941 C53.3788903,27.2208403 53.3799226,27.407395 53.3809548,27.5939496" id="Fill-9" fill="#231916"></path>
            </g>
        </g>
    </g>
</svg>