<?xml version="1.0" encoding="UTF-8"?>
<svg width="42px" height="48px" viewBox="0 0 42 48" version="1.1" xmlns="http://www.w3.org/2000/svg" xmlns:xlink="http://www.w3.org/1999/xlink">
    <!-- Generator: Sketch 60 (88103) - https://sketch.com -->
    <title>ico-home</title>
    <desc>Created with Sketch.</desc>
    <g id="页面-1" stroke="none" stroke-width="1" fill="none" fill-rule="evenodd">
        <g id="桌面端-HD备份" transform="translate(-1314.000000, -24.000000)" fill-rule="nonzero">
            <g id="ico-home" transform="translate(1314.000000, 24.000000)">
                <path d="M28.8374211,32.91 L15.7393158,32.91 C9.13721053,32.91 3.73173684,27.408 3.73173684,20.688 C3.73173684,13.968 9.13721053,8.466 15.7393158,8.466 L28.8374211,8.466 C35.4395263,8.466 40.845,13.968 40.845,20.688 C40.845,27.414 35.4395263,32.91 28.8374211,32.91 Z" id="路径" fill="#EEDAB9"></path>
                <path d="M41.7115263,19.908 C41.7115263,12.444 35.8993158,6.336 28.637,6.024 C28.6546842,5.922 28.6605789,5.82 28.6605789,5.718 L28.6605789,4.362 C28.6605789,3.228 27.7527895,2.304 26.6386842,2.304 L23.0134211,2.304 C23.0252105,2.208 23.037,2.112 23.037,2.016 C23.037,0.906 22.1468947,0 21.0563684,0 L20.6614211,0 C19.5708947,0 18.6807895,0.906 18.6807895,2.016 C18.6807895,2.112 18.6925789,2.208 18.7043684,2.304 L15.085,2.304 C13.9708947,2.304 13.0631053,3.228 13.0631053,4.362 L13.0631053,5.718 C13.0631053,5.82 13.0748947,5.922 13.0866842,6.024 C5.83026316,6.336 0.0121578947,12.444 0.0121578947,19.908 C0.0121578947,27.372 5.83026316,33.48 13.0866842,33.792 C13.069,33.894 13.0631053,33.996 13.0631053,34.098 L13.0631053,35.454 C13.0631053,36.504 13.8353158,37.368 14.8315263,37.494 L14.8315263,47.118 C14.8315263,47.604 15.2205789,48 15.6980526,48 C16.1755263,48 16.5645789,47.604 16.5645789,47.118 L16.5645789,37.512 L16.8946842,37.512 L16.8946842,47.118 C16.8946842,47.604 17.2837368,48 17.7612105,48 C18.2386842,48 18.6277368,47.604 18.6277368,47.118 L18.6277368,37.512 L18.9578421,37.512 L18.9578421,47.118 C18.9578421,47.604 19.3468947,48 19.8243684,48 C20.3018421,48 20.6908947,47.604 20.6908947,47.118 L20.6908947,37.512 L21.021,37.512 L21.021,47.118 C21.021,47.604 21.4100526,48 21.8875263,48 C22.365,48 22.7540526,47.604 22.7540526,47.118 L22.7540526,37.512 L23.0841579,37.512 L23.0841579,47.118 C23.0841579,47.604 23.4732105,48 23.9506842,48 C24.4281579,48 24.8172105,47.604 24.8172105,47.118 L24.8172105,37.512 L25.1473158,37.512 L25.1473158,47.118 C25.1473158,47.604 25.5363684,48 26.0138421,48 C26.4913158,48 26.8803684,47.604 26.8803684,47.118 L26.8803684,37.494 C27.8765789,37.368 28.6487895,36.498 28.6487895,35.454 L28.6487895,34.098 C28.6487895,33.996 28.637,33.894 28.6252105,33.792 C35.8934211,33.48 41.7115263,27.372 41.7115263,19.908 Z M20.6673158,1.764 L21.0622632,1.764 C21.1919474,1.764 21.3039474,1.878 21.3039474,2.01 C21.3039474,2.142 21.1919474,2.256 21.0622632,2.256 L20.6673158,2.256 C20.5376316,2.256 20.4256316,2.142 20.4256316,2.01 C20.4197368,1.878 20.5317368,1.764 20.6673158,1.764 L20.6673158,1.764 Z M26.2142632,32.04 L21.7283684,32.04 L21.7283684,7.776 L26.2142632,7.776 C26.7271053,8.28 27.2104737,8.85 27.6584737,9.48 C29.6214211,12.264 30.7001734,15.966 30.7001734,19.902 C30.7060526,24.792 29.0319474,29.292 26.2142632,32.04 Z M15.5388947,32.04 C12.7212105,29.298 11.053,24.792 11.053,19.908 C11.053,15.972 12.1317368,12.27 14.0946842,9.48 C14.5426842,8.85 15.0260526,8.274 15.5388947,7.776 L19.9953158,7.776 L19.9953158,32.04 L15.5388947,32.04 Z M14.7961579,4.362 C14.7961579,4.2 14.9258421,4.068 15.085,4.068 L26.6386842,4.068 C26.7978421,4.068 26.9275263,4.2 26.9275263,4.362 L26.9275263,5.718 C26.9275263,5.88 26.7978421,6.012 26.6386842,6.012 L15.085,6.012 C14.9258421,6.012 14.7961579,5.88 14.7961579,5.718 L14.7961579,4.362 Z M1.74521053,19.908 C1.74521053,13.386 6.83236842,8.046 13.181,7.788 C13.0100526,8.004 12.845,8.226 12.6799474,8.454 C10.5106842,11.538 9.31405263,15.606 9.31405263,19.908 C9.31405263,24.57 10.7346842,28.944 13.1751053,32.028 C6.83236842,31.77 1.74521053,26.43 1.74521053,19.908 L1.74521053,19.908 Z M26.9275263,35.454 C26.9275263,35.616 26.7978421,35.748 26.6386842,35.748 L15.085,35.748 C14.9258421,35.748 14.7961579,35.616 14.7961579,35.454 L14.7961579,34.098 C14.7961579,33.936 14.9258421,33.804 15.085,33.804 L26.6386842,33.804 C26.7978421,33.804 26.9275263,33.936 26.9275263,34.098 L26.9275263,35.454 L26.9275263,35.454 Z M28.5721579,32.028 C31.0184737,28.944 32.4332105,24.57 32.4332105,19.908 C32.4332105,15.606 31.2365789,11.538 29.0673158,8.454 C28.9081579,8.226 28.7372105,8.004 28.5721579,7.788 C34.909,8.064 39.9784737,13.392 39.9784737,19.908 C39.9784737,26.418 34.909,31.752 28.5721579,32.028 Z" id="形状" fill="#5A3800"></path>
            </g>
        </g>
    </g>
</svg>
