<?xml version="1.0" encoding="UTF-8"?>
<svg width="48px" height="48px" viewBox="0 0 48 48" version="1.1" xmlns="http://www.w3.org/2000/svg" xmlns:xlink="http://www.w3.org/1999/xlink">
    <!-- Generator: Sketch 60 (88103) - https://sketch.com -->
    <title>ico-nav</title>
    <desc>Created with Sketch.</desc>
    <g id="页面-1" stroke="none" stroke-width="1" fill="none" fill-rule="evenodd">
        <g id="桌面端-HD备份" transform="translate(-1348.000000, -24.000000)" fill-rule="nonzero">
            <g id="ico-nav" transform="translate(1348.000000, 24.000000)">
                <path d="M41.5072653,46.356 C43.1059592,42.876 44.0287347,39.156 44.2814694,35.4 C44.3284898,34.728 44.352,34.05 44.352,33.372 L44.352,33.084 C44.3284898,29.508 43.6995918,25.932 42.4829388,22.578 C41.2310204,19.104 39.3502041,15.876 36.9697959,13.08 C36.3056327,12.3 35.594449,11.544 34.8538776,10.83 C34.6364082,10.62 34.4130612,10.416 34.1897143,10.212 L34.0310204,10.068 C34.0251429,10.062 34.0133878,10.056 34.0075102,10.044 C33.984,10.02 33.9604898,10.002 33.9369796,9.978 C25.579102,2.682 13.7769796,0.498 3.4677551,4.47 C3.02693878,4.638 2.592,4.818 2.16293878,5.01 C1.89844898,5.124 1.63395918,5.25 1.37534694,5.376 L1.37534694,5.382 L1.91020408,6.558 L6.87085714,17.418 L7.90530612,19.68 C7.93469388,19.662 7.96995918,19.644 7.99934694,19.626 C8.0522449,19.596 8.10514286,19.566 8.16391837,19.536 C8.24032653,19.494 8.31673469,19.452 8.38726531,19.416 C8.44604082,19.386 8.49893878,19.356 8.55771429,19.326 C9.22187755,18.984 9.91542857,18.714 10.6207347,18.474 C10.656,18.462 10.6912653,18.45 10.7265306,18.444 C10.7794286,18.426 10.8382041,18.408 10.891102,18.39 C11.1497143,18.312 11.4142041,18.24 11.6845714,18.174 C11.7492245,18.156 11.808,18.144 11.8726531,18.132 L12.2076735,18.06 C12.2605714,18.048 12.3134694,18.036 12.3604898,18.03 C13.0834286,17.886 13.8004898,17.856 14.5293061,17.79 L14.5469388,17.79 C15.6989388,17.79 16.8509388,17.856 17.9794286,18.102 C18.0205714,18.108 18.0675918,18.12 18.1087347,18.132 C18.9962449,18.324 19.8602449,18.618 20.6948571,18.984 C21.6881633,19.416 22.6168163,19.98 23.4925714,20.622 C23.5102041,20.634 23.5278367,20.646 23.5395918,20.658 C23.5807347,20.688 23.616,20.718 23.6571429,20.748 L23.6630204,20.754 C23.668898,20.76 23.6806531,20.766 23.6865306,20.772 C23.6924082,20.778 23.7041633,20.784 23.7100408,20.79 C23.7276735,20.802 23.7453061,20.814 23.7629388,20.832 C23.7688163,20.838 23.7805714,20.844 23.786449,20.85 L23.8040816,20.868 C23.8334694,20.892 23.8687347,20.916 23.8981224,20.946 C25.291102,22.11 26.4019592,23.466 27.3776327,25.008 C28.5766531,26.91 29.2290612,29.37 29.3466122,31.626 C29.3524898,31.692 29.3524898,31.764 29.3583673,31.83 C29.3936327,32.574 29.3642449,33.324 29.2878367,34.062 C29.1937959,34.974 29.0115918,35.886 28.747102,36.762 C28.4649796,37.716 28.0829388,38.634 27.6127347,39.51 C27.5774694,39.57 27.5480816,39.636 27.5128163,39.696 L29.8462041,40.806 L40.3611429,45.81 C40.3493878,45.804 41.5072653,46.356 41.5072653,46.356 L41.5072653,46.356 Z" id="路径" fill="#EEDAB9"></path>
                <path d="M43.7524898,47.676 C44.5812245,45.936 45.268898,44.106 45.7861224,42.234 C46.3033469,40.368 46.6618776,38.436 46.8558367,36.498 C47.0497959,34.56 47.0733061,32.592 46.9263673,30.648 C46.7794286,28.698 46.4679184,26.748 45.9918367,24.864 C45.5098776,22.962 44.8633469,21.096 44.064,19.326 C43.2646531,17.55 42.3066122,15.834 41.2075102,14.22 C39.0210612,11.016 36.2292245,8.166 33.0906122,5.934 C31.509551,4.812 29.8285714,3.828 28.0888163,3.018 C26.3549388,2.202 24.5270204,1.542 22.6638367,1.05 C20.8182857,0.564 18.9139592,0.24 16.9978776,0.096 C15.0876735,-0.054 13.1598367,-0.024 11.2672653,0.168 C9.36881633,0.36 7.48212245,0.732 5.64832653,1.26 C3.81453061,1.788 2.02187755,2.49 0.317387755,3.336 C0.0411428571,3.474 -0.0764081633,3.816 0.0528979592,4.098 L0.858122449,5.862 L1.38710204,7.02 C1.39297959,7.026 1.39297959,7.032 1.39885714,7.044 L6.3477551,17.88 C6.35363265,17.886 6.35363265,17.898 6.3595102,17.904 L7.39395918,20.166 L8.22857143,21.99 C8.25795918,22.05 8.29322449,22.104 8.3402449,22.152 C8.34612245,22.158 8.352,22.158 8.35787755,22.164 L8.96326531,23.49 L13.0540408,32.46 L10.6442449,31.314 C10.3797551,31.188 10.0682449,31.302 9.94481633,31.572 C9.90955102,31.65 9.89191837,31.734 9.89779592,31.818 C9.90367347,31.956 9.95657143,32.088 10.0506122,32.184 C10.0917551,32.226 10.1446531,32.262 10.197551,32.292 L11.2084898,32.772 L10.0976327,32.676 L10.0506122,32.676 L9.97420408,32.676 C9.96244898,32.676 9.95069388,32.682 9.93893878,32.682 C9.82138776,32.706 9.71559184,32.778 9.64506122,32.868 C9.63918367,32.874 9.63918367,32.88 9.63330612,32.88 C9.62742857,32.886 9.62155102,32.898 9.61567347,32.91 C9.60979592,32.916 9.60979592,32.928 9.60391837,32.934 C9.59804082,32.94 9.59216327,32.946 9.59216327,32.958 C9.58628571,32.97 9.58040816,32.976 9.58040816,32.988 C9.58040816,32.994 9.57453061,33 9.57453061,33.006 C9.56865306,33.024 9.56277551,33.036 9.55689796,33.054 C9.54514286,33.09 9.53926531,33.126 9.53926531,33.162 L9.53926531,33.222 C9.53926531,33.234 9.53926531,33.252 9.54514286,33.264 L9.54514286,33.282 C9.54514286,33.288 9.55102041,33.3 9.55102041,33.306 C9.55102041,33.318 9.55689796,33.33 9.55689796,33.336 L9.55689796,33.342 L9.57453061,33.396 C9.59216327,33.444 9.61567347,33.486 9.64506122,33.528 C9.66269388,33.546 9.67444898,33.57 9.69208163,33.588 C9.71559184,33.612 9.73322449,33.63 9.76261224,33.648 C9.78612245,33.666 9.80963265,33.678 9.83314286,33.69 C9.83902041,33.69 9.83902041,33.696 9.84489796,33.696 C9.89779592,33.72 9.96244898,33.738 10.027102,33.744 L10.08,33.75 L11.1379592,33.846 L10.2563265,34.086 C10.250449,34.086 10.2445714,34.092 10.2386939,34.092 L10.0506122,34.14 C10.027102,34.146 10.0094694,34.152 9.99183673,34.158 C9.98595918,34.158 9.98008163,34.164 9.98008163,34.164 C9.96244898,34.17 9.95069388,34.176 9.93306122,34.188 C9.92718367,34.188 9.92718367,34.194 9.92130612,34.194 C9.88604082,34.218 9.85077551,34.242 9.82138776,34.272 L9.8155102,34.278 L9.8037551,34.29 C9.79787755,34.296 9.792,34.302 9.78612245,34.314 C9.7802449,34.32 9.77436735,34.326 9.7684898,34.338 C9.76261224,34.344 9.76261224,34.35 9.75673469,34.356 C9.75085714,34.368 9.74497959,34.374 9.73910204,34.386 C9.73910204,34.392 9.73322449,34.392 9.73322449,34.398 L9.71559184,34.434 C9.71559184,34.44 9.70971429,34.44 9.70971429,34.446 L9.69208163,34.482 C9.69208163,34.488 9.69208163,34.488 9.68620408,34.494 C9.68032653,34.506 9.68032653,34.518 9.67444898,34.53 L9.67444898,34.542 C9.67444898,34.554 9.66857143,34.566 9.66857143,34.578 L9.66857143,34.59 C9.66857143,34.602 9.66857143,34.614 9.66269388,34.626 L9.66269388,34.692 C9.66269388,34.71 9.66269388,34.722 9.66857143,34.74 L9.66857143,34.746 C9.66857143,34.764 9.67444898,34.782 9.68032653,34.8 C9.69208163,34.842 9.70971429,34.89 9.73322449,34.932 C9.73322449,34.932 9.73322449,34.938 9.73910204,34.938 C9.75085714,34.956 9.76261224,34.974 9.77436735,34.986 C9.77436735,34.986 9.77436735,34.992 9.7802449,34.992 C9.792,35.01 9.80963265,35.028 9.82138776,35.04 C9.85077551,35.07 9.88604082,35.1 9.92130612,35.118 C9.92130612,35.118 9.92718367,35.118 9.92718367,35.124 C9.94481633,35.136 9.96244898,35.142 9.97420408,35.148 C9.98008163,35.148 9.98008163,35.154 9.98595918,35.154 C10.0035918,35.16 10.0153469,35.166 10.0329796,35.172 C10.0388571,35.172 10.0447347,35.178 10.0564898,35.178 C10.0682449,35.184 10.0858776,35.184 10.0976327,35.184 C10.1093878,35.184 10.1152653,35.19 10.1270204,35.19 L10.2622041,35.19 C10.2739592,35.19 10.2915918,35.184 10.3033469,35.184 C10.3092245,35.184 10.315102,35.184 10.3268571,35.178 L10.5325714,35.124 C10.538449,35.124 10.5443265,35.118 10.5560816,35.118 L11.4142041,34.884 L10.4796735,35.556 L10.4679184,35.568 C10.4620408,35.574 10.4502857,35.58 10.4444082,35.586 C10.4385306,35.592 10.4326531,35.598 10.420898,35.604 L10.4091429,35.616 C10.4091429,35.616 10.4091429,35.622 10.4032653,35.622 L10.3797551,35.646 C10.3738776,35.652 10.368,35.658 10.368,35.664 C10.3621224,35.67 10.3562449,35.682 10.3503673,35.688 C10.3444898,35.694 10.3444898,35.7 10.3386122,35.706 C10.3327347,35.712 10.3268571,35.724 10.3268571,35.73 C10.3209796,35.736 10.3209796,35.742 10.315102,35.754 C10.3092245,35.76 10.3092245,35.766 10.3033469,35.778 C10.2974694,35.784 10.2974694,35.796 10.2915918,35.802 C10.2915918,35.808 10.2857143,35.814 10.2857143,35.82 C10.2798367,35.832 10.2798367,35.838 10.2739592,35.85 C10.2739592,35.856 10.2680816,35.862 10.2680816,35.874 C10.2680816,35.886 10.2622041,35.892 10.2622041,35.904 C10.2622041,35.91 10.2622041,35.922 10.2563265,35.928 C10.2563265,35.934 10.2563265,35.946 10.250449,35.952 L10.250449,36.06 C10.250449,36.072 10.250449,36.078 10.2563265,36.09 L10.2563265,36.114 C10.2563265,36.126 10.2622041,36.132 10.2622041,36.144 C10.2622041,36.15 10.2622041,36.156 10.2680816,36.162 L10.2680816,36.168 C10.2680816,36.174 10.2739592,36.18 10.2739592,36.186 C10.2798367,36.198 10.2798367,36.204 10.2857143,36.216 C10.2857143,36.222 10.2915918,36.228 10.2915918,36.228 L10.3092245,36.264 L10.315102,36.27 C10.3209796,36.282 10.3327347,36.294 10.3386122,36.306 C10.3562449,36.33 10.3738776,36.354 10.3973878,36.378 L10.4032653,36.384 C10.420898,36.402 10.4385306,36.42 10.4620408,36.432 C10.4679184,36.438 10.4737959,36.438 10.4796735,36.444 C10.5031837,36.456 10.5208163,36.468 10.5443265,36.48 C10.5443265,36.48 10.5502041,36.48 10.5502041,36.486 C10.5560816,36.486 10.5619592,36.492 10.5619592,36.492 C10.5854694,36.504 10.6089796,36.51 10.6266122,36.516 L10.6324898,36.516 C10.6383673,36.516 10.6442449,36.516 10.6501224,36.522 C10.6736327,36.528 10.6971429,36.534 10.7206531,36.534 L10.8323265,36.534 C10.8499592,36.534 10.8734694,36.528 10.891102,36.522 C10.8969796,36.522 10.9028571,36.522 10.9087347,36.516 L10.9204898,36.516 C10.944,36.51 10.9616327,36.504 10.9851429,36.492 C10.9910204,36.492 10.996898,36.486 10.996898,36.486 C11.0027755,36.486 11.0027755,36.48 11.0086531,36.48 C11.0262857,36.468 11.0497959,36.456 11.0674286,36.444 C11.0674286,36.444 11.0733061,36.444 11.0733061,36.438 L12.0078367,35.772 L11.3377959,36.75 L11.3377959,36.756 C11.3260408,36.774 11.3142857,36.798 11.3025306,36.816 C11.3025306,36.822 11.2966531,36.828 11.2966531,36.828 C11.2966531,36.834 11.2907755,36.834 11.2907755,36.84 C11.2790204,36.864 11.2731429,36.882 11.2672653,36.906 C11.2672653,36.912 11.2672653,36.912 11.2613878,36.918 C11.2555102,36.924 11.2613878,36.924 11.2555102,36.93 C11.2496327,36.948 11.2496327,36.966 11.2437551,36.984 L11.2437551,37.11 C11.2437551,37.134 11.2496327,37.152 11.2555102,37.176 C11.2555102,37.182 11.2555102,37.188 11.2613878,37.2 L11.2613878,37.206 C11.2672653,37.23 11.2731429,37.248 11.284898,37.272 C11.284898,37.278 11.2907755,37.284 11.2907755,37.29 C11.2907755,37.29 11.2907755,37.296 11.2966531,37.296 C11.3084082,37.32 11.3201633,37.338 11.3319184,37.362 C11.3377959,37.368 11.3377959,37.374 11.3436735,37.38 C11.3554286,37.398 11.3730612,37.416 11.3906939,37.44 L11.3965714,37.446 C11.4200816,37.47 11.4435918,37.488 11.467102,37.506 C11.4788571,37.512 11.4906122,37.524 11.5023673,37.53 C11.5082449,37.53 11.5082449,37.536 11.5141224,37.536 C11.5258776,37.542 11.5376327,37.548 11.5435102,37.554 C11.5493878,37.554 11.5552653,37.56 11.5611429,37.56 L11.5670204,37.56 C11.572898,37.56 11.5787755,37.566 11.5846531,37.566 C11.5905306,37.572 11.6022857,37.572 11.6081633,37.578 C11.6140408,37.578 11.6199184,37.584 11.6257959,37.584 C11.637551,37.584 11.6493061,37.59 11.6551837,37.59 L11.6728163,37.59 C11.6845714,37.59 11.6963265,37.596 11.7080816,37.596 L11.8256327,37.596 C11.8373878,37.596 11.8491429,37.59 11.8667755,37.59 L11.8785306,37.59 C11.8902857,37.59 11.9020408,37.584 11.9196735,37.578 C11.925551,37.578 11.925551,37.578 11.9314286,37.572 C11.9431837,37.566 11.9549388,37.566 11.9725714,37.56 L11.978449,37.56 C11.9902041,37.554 12.0078367,37.548 12.0195918,37.542 L12.0254694,37.542 C12.0372245,37.536 12.0548571,37.524 12.0666122,37.518 C12.096,37.5 12.1253878,37.476 12.148898,37.452 L12.1841633,37.416 L12.1900408,37.41 C12.1959184,37.404 12.2017959,37.392 12.2076735,37.386 L12.8777143,36.408 L12.5720816,37.578 C12.5720816,37.584 12.5662041,37.59 12.5662041,37.596 C12.5603265,37.62 12.554449,37.638 12.554449,37.662 L12.554449,37.668 C12.5485714,37.71 12.5485714,37.758 12.554449,37.8 L12.554449,37.812 C12.554449,37.83 12.5603265,37.854 12.5662041,37.872 L12.5662041,37.878 C12.5779592,37.92 12.5955918,37.962 12.6132245,37.998 C12.6132245,38.004 12.619102,38.004 12.619102,38.01 C12.6308571,38.028 12.6367347,38.04 12.6484898,38.052 C12.6484898,38.058 12.6543673,38.058 12.6543673,38.064 C12.6661224,38.082 12.6837551,38.1 12.6955102,38.112 C12.9012245,38.322 13.2362449,38.322 13.4419592,38.112 C13.4478367,38.106 13.4537143,38.1 13.4537143,38.094 L13.483102,38.064 C13.483102,38.058 13.4889796,38.058 13.4889796,38.052 C13.4948571,38.046 13.4948571,38.04 13.5007347,38.034 C13.5066122,38.022 13.5124898,38.016 13.5183673,38.004 C13.5242449,37.998 13.5301224,37.986 13.5301224,37.98 C13.536,37.962 13.5477551,37.944 13.5536327,37.926 C13.5595102,37.914 13.5595102,37.908 13.5653878,37.896 C13.5712653,37.884 13.5712653,37.872 13.5771429,37.86 C13.5771429,37.854 13.5830204,37.848 13.5830204,37.842 L13.8886531,36.672 L13.994449,37.926 C13.994449,37.938 14.0003265,37.95 14.0003265,37.962 C14.0003265,37.98 14.0062041,37.998 14.0120816,38.016 C14.0120816,38.028 14.0179592,38.034 14.0238367,38.046 C14.0297143,38.07 14.0355918,38.088 14.0473469,38.106 C14.0473469,38.112 14.0532245,38.112 14.0532245,38.118 C14.0767347,38.172 14.112,38.22 14.1531429,38.262 L14.164898,38.274 C14.1825306,38.286 14.1942857,38.304 14.2119184,38.316 C14.2177959,38.322 14.229551,38.328 14.2354286,38.334 C14.2530612,38.346 14.2765714,38.358 14.3000816,38.37 C14.3118367,38.376 14.3177143,38.376 14.3294694,38.382 C14.3529796,38.394 14.3764898,38.4 14.4,38.406 C14.4058776,38.406 14.4176327,38.412 14.4235102,38.412 C14.4470204,38.418 14.4764082,38.418 14.4999184,38.424 L14.5116735,38.424 C14.6233469,38.424 14.7291429,38.394 14.8114286,38.334 C14.8114286,38.334 14.8173061,38.334 14.8173061,38.328 C14.8290612,38.322 14.8408163,38.31 14.8525714,38.304 L14.858449,38.298 C14.8702041,38.292 14.8819592,38.28 14.8878367,38.268 C14.8878367,38.268 14.8937143,38.262 14.8937143,38.256 C14.9054694,38.244 14.9113469,38.238 14.9172245,38.226 C14.923102,38.22 14.923102,38.22 14.923102,38.214 C14.9289796,38.202 14.9407347,38.196 14.9466122,38.184 C14.9466122,38.178 14.9524898,38.178 14.9524898,38.172 C14.9583673,38.16 14.9642449,38.154 14.9701224,38.142 C14.976,38.136 14.976,38.13 14.976,38.124 C14.9818776,38.112 14.9877551,38.106 14.9877551,38.094 C14.9936327,38.088 14.9936327,38.082 14.9936327,38.07 C14.9995102,38.064 14.9995102,38.052 15.0053878,38.04 C15.0053878,38.034 15.0112653,38.022 15.0112653,38.01 C15.0112653,38.004 15.0171429,37.992 15.0171429,37.986 C15.0171429,37.974 15.0230204,37.962 15.0230204,37.95 C15.0230204,37.944 15.0230204,37.938 15.028898,37.932 L15.028898,37.896 L15.028898,37.878 L15.028898,37.818 L14.923102,36.558 L15.3639184,37.53 L15.4579592,37.74 C15.4697143,37.764 15.4873469,37.794 15.499102,37.818 C15.5167347,37.848 15.5402449,37.872 15.5637551,37.896 C15.7165714,38.052 15.9516735,38.1 16.1573878,38.004 C16.4218776,37.878 16.533551,37.56 16.4101224,37.29 L15.2287347,34.68 L15.4755918,34.8 L25.3087347,39.48 C25.3557551,39.528 25.4086531,39.57 25.4674286,39.6 C25.4733061,39.6 25.4791837,39.606 25.4791837,39.606 L27.2600816,40.452 L27.2777143,40.452 C27.2835918,40.458 27.2953469,40.458 27.3012245,40.464 C27.307102,40.464 27.307102,40.47 27.3129796,40.47 C27.3658776,40.488 27.412898,40.5 27.4657959,40.5 L41.1017143,46.992 L41.1075918,46.998 L41.1134694,47.004 C41.1369796,47.022 41.1546122,47.046 41.184,47.064 C41.1898776,47.064 41.1898776,47.07 41.1957551,47.07 C41.2192653,47.088 41.2427755,47.1 41.2721633,47.118 L43.0001633,47.94 C43.2822857,48.078 43.6173061,47.958 43.7524898,47.676 L43.7524898,47.676 Z M16.1456327,29.706 C16.1456327,29.712 16.1397551,29.712 16.1397551,29.718 L16.1338776,29.724 L16.128,29.73 L15.4226939,30.762 L18.0499592,20.742 C18.6318367,20.886 19.2078367,21.078 19.7603265,21.306 C20.3069388,21.54 20.8417959,21.81 21.3413878,22.122 L16.1456327,29.706 L16.1456327,29.706 Z M20.4891429,28.38 C20.4832653,28.386 20.4773878,28.386 20.4773878,28.392 L17.3505306,30.63 C17.3446531,30.63 17.3446531,30.636 17.3387755,30.636 L16.2866939,31.38 L19.2195918,27.108 C19.2195918,27.102 19.2254694,27.102 19.2254694,27.096 L22.2230204,22.728 C22.3111837,22.794 22.3993469,22.86 22.4875102,22.932 C22.4933878,22.932 22.4933878,22.938 22.4992653,22.938 C22.5756735,22.998 22.6520816,23.058 22.7226122,23.124 L22.7284898,23.13 L22.8342857,23.22 C23.3456327,23.658 23.8452245,24.168 24.2801633,24.696 C24.309551,24.732 24.3389388,24.768 24.3742041,24.81 C24.4329796,24.882 24.4917551,24.96 24.5505306,25.032 L24.5681633,25.05 C24.6386939,25.14 24.7033469,25.23 24.768,25.326 L20.4891429,28.38 L20.4891429,28.38 Z M15.316898,20.406 C15.8870204,20.406 16.4571429,20.454 17.0213878,20.538 L15.7400816,25.428 C15.7400816,25.434 15.7342041,25.44 15.7342041,25.44 L14.4117551,30.486 L13.9650612,25.284 L13.9650612,25.266 L13.5595102,20.532 C14.1355102,20.448 14.7291429,20.406 15.316898,20.406 L15.316898,20.406 Z M21.8292245,30.912 C21.8233469,30.912 21.8174694,30.918 21.8115918,30.918 L16.8920816,32.262 L25.3498776,26.214 C25.3792653,26.268 25.4145306,26.322 25.4439184,26.37 C25.4674286,26.418 25.4968163,26.46 25.5203265,26.508 L25.5203265,26.514 C25.7554286,26.94 25.9670204,27.384 26.1433469,27.828 C26.3725714,28.398 26.5606531,28.986 26.7017143,29.58 L21.8292245,30.912 L21.8292245,30.912 Z M10.9675102,21.24 C11.467102,21.036 11.9843265,20.874 12.5133061,20.742 L13.3537959,30.576 L11.1967347,25.848 C11.1967347,25.848 11.1967347,25.842 11.1908571,25.842 L9.43346939,21.996 C9.92718367,21.708 10.4385306,21.456 10.9675102,21.24 L10.9675102,21.24 Z M22.2759184,33.756 L22.2582857,33.756 L17.162449,33.3 L22.0995918,31.95 C22.1054694,31.95 22.1113469,31.944 22.1172245,31.944 L26.8956735,30.636 C26.9779592,31.212 27.019102,31.788 27.019102,32.37 C27.019102,32.97 26.9779592,33.576 26.8897959,34.176 L22.2759184,33.756 L22.2759184,33.756 Z M27.9183673,34.86 C28.3474286,32.526 28.171102,30.078 27.3658776,27.852 C26.0845714,24.3 23.2222041,21.378 19.7368163,20.064 C18.549551,19.614 17.2917551,19.356 16.0280816,19.29 C14.7585306,19.218 13.4772245,19.338 12.2370612,19.638 C11.6199184,19.788 11.0086531,19.986 10.420898,20.226 C10.1270204,20.346 9.83314286,20.478 9.55102041,20.622 C9.40995918,20.694 9.26889796,20.766 9.12783673,20.844 C9.03379592,20.898 9.02204082,20.934 8.95738776,20.85 C8.89861224,20.766 8.86334694,20.64 8.81632653,20.544 C8.75755102,20.418 8.70465306,20.292 8.64587755,20.172 C12.0901224,18.354 16.2925714,18.114 19.9131429,19.524 C23.5337143,20.934 26.5077551,23.976 27.8889796,27.672 C29.2702041,31.368 29.035102,35.658 27.2542041,39.174 C27.0132245,39.06 26.7663673,38.94 26.5253878,38.826 C27.1954286,37.59 27.6656327,36.246 27.9183673,34.86 L27.9183673,34.86 Z M21.717551,36.582 C21.7116735,36.582 21.7116735,36.576 21.7057959,36.576 L17.0742857,34.374 L26.6958367,35.232 C26.5665306,35.766 26.4078367,36.288 26.2138776,36.798 C26.0022857,37.338 25.7554286,37.866 25.4733061,38.37 L21.717551,36.582 L21.717551,36.582 Z M29.8873469,33.726 C29.9931429,32.13 29.8579592,30.51 29.4759184,28.962 C29.1232653,27.54 28.5590204,26.172 27.8243265,24.912 C27.0837551,23.646 26.1668571,22.482 25.1030204,21.48 C24.3506939,20.766 23.5278367,20.136 22.6462041,19.602 C22.3817143,19.44 22.1113469,19.29 21.835102,19.152 C21.2884898,18.87 20.7183673,18.618 20.1423673,18.408 C18.9844898,17.988 17.7737143,17.712 16.5453061,17.58 C15.316898,17.454 14.0767347,17.472 12.8600816,17.64 C11.6434286,17.808 10.4385306,18.132 9.29828571,18.6 C8.9162449,18.756 8.54008163,18.936 8.17567347,19.128 C6.15379592,14.718 4.13779592,10.314 2.12767347,5.91 C9.37469388,2.616 17.9324082,2.466 25.2793469,5.508 C32.6262857,8.55 38.6801633,14.724 41.642449,22.236 C44.6047347,29.748 44.4460408,38.478 41.2133878,45.87 C36.8992653,43.818 32.5792653,41.76 28.2651429,39.708 C29.205551,37.854 29.7521633,35.802 29.8873469,33.726 Z M42.2654694,46.32 C42.4241633,45.954 42.5769796,45.582 42.7239184,45.21 C42.7297959,45.198 42.7356735,45.18 42.741551,45.168 L42.9355102,44.664 C42.9472653,44.634 42.9590204,44.604 42.964898,44.58 C43.0236735,44.424 43.0765714,44.274 43.1353469,44.118 C43.147102,44.082 43.1588571,44.04 43.1764898,44.004 C43.2293878,43.86 43.2764082,43.71 43.3234286,43.566 C43.3410612,43.524 43.3528163,43.476 43.3645714,43.434 C43.4115918,43.296 43.4586122,43.152 43.4997551,43.014 C43.5173878,42.966 43.5291429,42.918 43.5467755,42.864 L43.6702041,42.45 C43.6878367,42.396 43.6995918,42.342 43.7172245,42.294 C43.7583673,42.162 43.7936327,42.024 43.828898,41.892 C43.8465306,41.838 43.8582857,41.778 43.8759184,41.724 L43.9817143,41.328 C43.9934694,41.268 44.011102,41.214 44.0228571,41.154 C44.0522449,41.022 44.0875102,40.896 44.116898,40.764 C44.1286531,40.704 44.1462857,40.644 44.1580408,40.584 C44.1874286,40.452 44.2168163,40.326 44.2462041,40.194 C44.2579592,40.134 44.2697143,40.068 44.2873469,40.008 C44.3167347,39.882 44.3402449,39.75 44.3637551,39.624 C44.3755102,39.564 44.3872653,39.498 44.3990204,39.432 C44.4225306,39.306 44.4460408,39.174 44.469551,39.048 C44.4813061,38.982 44.4930612,38.922 44.5048163,38.856 C44.5283265,38.73 44.5459592,38.604 44.5694694,38.472 C44.5812245,38.406 44.587102,38.34 44.5988571,38.274 L44.6517551,37.896 C44.6635102,37.83 44.6693878,37.764 44.6752653,37.698 C44.692898,37.572 44.7105306,37.446 44.7222857,37.314 C44.7281633,37.248 44.7399184,37.182 44.7457959,37.116 C44.757551,36.99 44.7751837,36.864 44.7869388,36.732 L44.8045714,36.534 C44.8163265,36.408 44.8280816,36.282 44.8398367,36.15 L44.8574694,35.952 C44.8692245,35.826 44.875102,35.7 44.8809796,35.568 C44.8868571,35.502 44.8868571,35.436 44.8927347,35.37 C44.8986122,35.244 44.9044898,35.112 44.9103673,34.986 C44.9162449,34.92 44.9162449,34.854 44.9162449,34.788 C44.9221224,34.662 44.9221224,34.53 44.928,34.404 C44.928,34.338 44.9338776,34.272 44.9338776,34.206 C44.9338776,34.074 44.9397551,33.948 44.9397551,33.816 L44.9397551,33.618 L44.9397551,33.222 L44.9397551,33.03 C44.9397551,32.898 44.9338776,32.766 44.928,32.628 C44.928,32.568 44.9221224,32.502 44.9221224,32.442 C44.9162449,32.304 44.9103673,32.172 44.9044898,32.034 C44.9044898,31.974 44.8986122,31.914 44.8986122,31.854 C44.8927347,31.716 44.8809796,31.572 44.875102,31.434 C44.8692245,31.38 44.8692245,31.32 44.8633469,31.266 C44.8515918,31.122 44.8398367,30.972 44.8280816,30.828 C44.8222041,30.78 44.8222041,30.726 44.8163265,30.678 C44.8045714,30.522 44.7869388,30.366 44.7693061,30.21 C44.7634286,30.168 44.7634286,30.132 44.757551,30.09 C44.7399184,29.916 44.7164082,29.742 44.6987755,29.562 C44.6987755,29.544 44.692898,29.52 44.692898,29.502 C44.6458776,29.106 44.587102,28.716 44.522449,28.32 C43.4644898,21.852 40.4963265,15.972 35.9412245,11.316 C35.8706939,11.244 35.8001633,11.172 35.7296327,11.106 L35.712,11.088 C35.659102,11.034 35.6120816,10.986 35.5591837,10.938 C35.5533061,10.932 35.541551,10.926 35.5356735,10.914 L35.4945306,10.872 C35.4710204,10.854 35.4533878,10.83 35.4357551,10.812 C35.3769796,10.758 35.3240816,10.698 35.2653061,10.644 C35.2182857,10.596 35.1653878,10.548 35.1183673,10.506 C35.0948571,10.482 35.0713469,10.458 35.0419592,10.434 C34.965551,10.362 34.8891429,10.29 34.8186122,10.224 C34.7833469,10.194 34.7480816,10.158 34.7128163,10.128 C34.6716735,10.092 34.6364082,10.056 34.5952653,10.02 C34.5952653,10.02 34.5893878,10.02 34.5893878,10.014 C34.5247347,9.96 34.4659592,9.9 34.4013061,9.846 C34.3777959,9.822 34.3484082,9.798 34.3307755,9.78 C34.3190204,9.768 34.3013878,9.756 34.2896327,9.744 C34.219102,9.684 34.154449,9.624 34.0839184,9.564 C34.0251429,9.516 33.9722449,9.468 33.9134694,9.42 C33.8899592,9.396 33.8605714,9.378 33.8370612,9.354 L33.5549388,9.12 C33.5137959,9.084 33.4726531,9.054 33.4373878,9.018 C33.4197551,9.006 33.408,8.994 33.3903673,8.982 C33.2493061,8.868 33.1141224,8.754 32.9730612,8.646 C32.9730612,8.646 32.9671837,8.646 32.9671837,8.64 C29.7051429,6.066 25.9846531,4.2 21.9879184,3.144 C21.9291429,3.126 21.8644898,3.114 21.8057143,3.096 C21.7057959,3.072 21.6058776,3.048 21.5118367,3.018 C21.5059592,3.018 21.4942041,3.012 21.4883265,3.012 L21.4765714,3.012 C21.3590204,2.982 21.2414694,2.952 21.1180408,2.928 C21.0710204,2.916 21.0181224,2.904 20.971102,2.892 C20.6948571,2.826 20.4186122,2.766 20.1364898,2.712 C20.0542041,2.694 19.9719184,2.676 19.8896327,2.664 C19.872,2.658 19.8543673,2.658 19.8308571,2.652 C19.7662041,2.64 19.7074286,2.628 19.6427755,2.616 L19.6133878,2.61 C19.6075102,2.61 19.6016327,2.61 19.5957551,2.604 L19.5781224,2.604 C19.3959184,2.568 19.2078367,2.538 19.0021224,2.508 C18.9374694,2.496 18.8669388,2.49 18.8022857,2.478 C18.7435102,2.466 18.6847347,2.46 18.6259592,2.454 C18.5613061,2.442 18.4966531,2.436 18.432,2.424 C18.3673469,2.418 18.3085714,2.406 18.2439184,2.4 L18.1381224,2.388 C17.9794286,2.37 17.8207347,2.346 17.6620408,2.328 L17.5033469,2.31 L17.28,2.286 C17.2388571,2.28 17.1977143,2.28 17.1565714,2.274 C12.3369796,1.8 7.53502041,2.478 3.05632653,4.26 C3.05044898,4.26 3.05044898,4.266 3.04457143,4.266 C3.03869388,4.266 3.03281633,4.272 3.02106122,4.272 C2.99755102,4.284 2.96816327,4.29 2.94465306,4.302 C2.81534694,4.356 2.68016327,4.41 2.55085714,4.464 C2.52734694,4.476 2.50383673,4.482 2.48032653,4.494 C2.40979592,4.524 2.33338776,4.554 2.26285714,4.584 L2.20995918,4.608 C2.20995918,4.608 2.20408163,4.608 2.20408163,4.614 C2.18057143,4.62 2.16293878,4.632 2.13942857,4.638 C1.9924898,4.704 1.83379592,4.77 1.66922449,4.848 C1.66334694,4.848 1.65746939,4.854 1.65159184,4.854 L1.32244898,4.134 C2.81534694,3.426 4.37289796,2.832 5.96571429,2.37 C7.73485714,1.86 9.55689796,1.506 11.3906939,1.32 C13.2186122,1.128 15.0817959,1.11 16.9214694,1.248 C18.7670204,1.392 20.6066939,1.698 22.3934694,2.172 C24.192,2.646 25.9552653,3.282 27.6303673,4.068 C29.3113469,4.854 30.933551,5.802 32.4558367,6.882 C35.4827755,9.036 38.1805714,11.79 40.2906122,14.88 C41.354449,16.434 42.2772245,18.09 43.0471837,19.806 C43.8171429,21.516 44.4401633,23.31 44.9044898,25.146 C45.3629388,26.964 45.6685714,28.848 45.8096327,30.732 C45.9506939,32.61 45.9271837,34.512 45.739102,36.378 C45.556898,38.25 45.2101224,40.11 44.7105306,41.91 C44.2579592,43.536 43.6760816,45.126 42.9825306,46.65 L42.2654694,46.32 L42.2654694,46.32 Z" id="形状" fill="#5A3800"></path>
            </g>
        </g>
    </g>
</svg>