<?xml version="1.0" encoding="UTF-8"?>
<svg width="48px" height="48px" viewBox="0 0 48 48" version="1.1" xmlns="http://www.w3.org/2000/svg" xmlns:xlink="http://www.w3.org/1999/xlink">
    <!-- Generator: Sketch 60 (88103) - https://sketch.com -->
    <title>ico-fullscreen</title>
    <desc>Created with Sketch.</desc>
    <g id="页面-1" stroke="none" stroke-width="1" fill="none" fill-rule="evenodd">
        <g id="桌面端-HD备份" transform="translate(-1173.000000, -119.000000)" fill-rule="nonzero">
            <g id="ico-fullscreen" transform="translate(1173.000000, 119.000000)">
                <path d="M9.726,9.726 C1.842,17.61 1.842,30.39 9.726,38.274 C17.61,46.158 30.39,46.158 38.274,38.274 C46.158,30.39 46.158,17.61 38.274,9.726 C30.39,1.842 17.61,1.842 9.726,9.726 Z M33,22.974 C33.564,23.538 33.564,24.468 33,25.032 L25.026,33 C24.462,33.564 23.532,33.564 22.968,33 L15,25.026 C14.436,24.462 14.436,23.532 15,22.968 L22.974,15 C23.538,14.436 24.468,14.436 25.032,15 L33,22.974 Z" id="形状" fill="#EEDAB9"></path>
                <path d="M24,47.994 C17.592,47.994 11.568,45.498 7.032,40.968 C2.502,36.432 0.006,30.408 0.006,24 C0.006,17.592 2.502,11.568 7.032,7.032 C11.568,2.502 17.592,0.006 24,0.006 C30.408,0.006 36.432,2.502 40.968,7.032 C45.498,11.562 47.994,17.586 47.994,24 C47.994,30.408 45.498,36.432 40.968,40.962 C36.432,45.498 30.408,47.994 24,47.994 Z M24,2.052 C18.378,2.052 12.756,4.194 8.478,8.472 C-0.084,17.034 -0.084,30.96 8.478,39.522 C17.04,48.084 30.966,48.084 39.528,39.522 C48.09,30.96 48.09,17.034 39.528,8.472 C35.244,4.194 29.622,2.052 24,2.052 Z M24,34.446 C23.34,34.446 22.716,34.188 22.248,33.726 L14.28,25.746 C13.812,25.278 13.56,24.66 13.56,24 C13.56,23.34 13.818,22.716 14.28,22.254 L22.254,14.28 C22.722,13.812 23.34,13.56 24.006,13.56 C24.672,13.56 25.29,13.818 25.758,14.28 L33.72,22.248 C34.188,22.716 34.44,23.334 34.44,23.994 C34.44,24.654 34.182,25.278 33.72,25.74 L25.752,33.72 C25.284,34.188 24.66,34.446 24,34.446 Z M24,15.594 C23.886,15.594 23.778,15.636 23.694,15.72 L15.72,23.694 C15.612,23.802 15.594,23.934 15.594,24 C15.594,24.066 15.612,24.198 15.72,24.306 L23.694,32.28 C23.862,32.448 24.144,32.448 24.312,32.28 L32.28,24.306 C32.388,24.198 32.406,24.066 32.406,24 C32.406,23.934 32.388,23.802 32.28,23.694 L24.306,15.72 C24.222,15.636 24.114,15.594 24,15.594 Z" id="形状" fill="#5A3800"></path>
                <path d="M24,45.072 C18.6,45.072 13.2,43.014 9.09,38.904 C0.87,30.684 0.87,17.31 9.09,9.09 C13.074,5.112 18.366,2.916 24,2.916 C29.634,2.916 34.926,5.106 38.91,9.09 C47.13,17.31 47.13,30.684 38.91,38.904 C34.8,43.02 29.4,45.072 24,45.072 Z M10.53,10.53 C3.102,17.958 3.102,30.036 10.53,37.464 C14.244,41.178 19.122,43.032 24,43.032 C28.878,43.032 33.756,41.178 37.47,37.464 C41.07,33.864 43.05,29.082 43.05,23.994 C43.05,18.906 41.07,14.124 37.47,10.524 C30.042,3.108 17.958,3.108 10.53,10.53 Z M24,34.446 C23.34,34.446 22.716,34.188 22.248,33.726 L14.28,25.746 C13.812,25.278 13.56,24.66 13.56,24 C13.56,23.34 13.818,22.716 14.28,22.254 L22.254,14.28 C23.22,13.314 24.786,13.314 25.752,14.28 L33.72,22.248 C34.188,22.716 34.44,23.334 34.44,23.994 C34.44,24.654 34.182,25.278 33.72,25.74 L25.752,33.72 C25.284,34.188 24.66,34.446 24,34.446 Z M24,15.594 C23.934,15.594 23.802,15.612 23.694,15.72 L15.72,23.694 C15.552,23.862 15.552,24.144 15.72,24.312 L23.694,32.28 C23.862,32.448 24.144,32.448 24.312,32.28 L32.28,24.306 C32.388,24.198 32.406,24.066 32.406,24 C32.406,23.934 32.388,23.802 32.28,23.694 L24.306,15.72 C24.198,15.612 24.066,15.594 24,15.594 L24,15.594 Z" id="形状" fill="#5A3800"></path>
            </g>
        </g>
    </g>
</svg>