<?xml version="1.0" encoding="UTF-8"?>
<svg width="48px" height="48px" viewBox="0 0 48 48" version="1.1" xmlns="http://www.w3.org/2000/svg" xmlns:xlink="http://www.w3.org/1999/xlink">
    <!-- Generator: Sketch 60 (88103) - https://sketch.com -->
    <title>ico-exitFullscreen</title>
    <desc>Created with Sketch.</desc>
    <g id="页面-1" stroke="none" stroke-width="1" fill="none" fill-rule="evenodd">
        <g id="桌面端-HD备份" transform="translate(-1098.000000, -38.000000)" fill-rule="nonzero">
            <g id="ico-exitFullscreen" transform="translate(1098.000000, 38.000000)">
                <path d="M23.90625,3.82425 C12.81225,3.82425 3.82425,12.81225 3.82425,23.90625 C3.82425,35.00025 12.81225,43.98825 23.90625,43.98825 C35.00025,43.98825 43.98825,34.99425 43.98825,23.90625 C43.98825,12.81825 35.00025,3.82425 23.90625,3.82425 Z M23.87025,38.02425 C23.87025,30.18225 17.52825,23.82225 9.69225,23.79225 C17.51025,23.76225 23.84025,17.43225 23.87025,9.61425 C23.90025,17.45025 30.26025,23.79225 38.10225,23.79225 C30.24225,23.79225 23.87025,30.16425 23.87025,38.02425 Z" id="形状" fill="#EEDAB9"></path>
                <path d="M23.90625,47.77425 C10.74225,47.77425 0.03825,37.07025 0.03825,23.90625 C0.03825,10.74225 10.74225,0.03825 23.90625,0.03825 C37.07025,0.03825 47.77425,10.74225 47.77425,23.90625 C47.77425,37.07025 37.07025,47.77425 23.90625,47.77425 Z M23.90625,2.06025 C11.85825,2.06025 2.06025,11.85825 2.06025,23.90625 C2.06025,35.95425 11.85825,45.75225 23.90625,45.75225 C35.95425,45.75225 45.75225,35.95425 45.75225,23.90625 C45.75225,11.85825 35.95425,2.06025 23.90625,2.06025 Z" id="形状" fill="#5A3800"></path>
                <path d="M23.90625,44.88225 C12.33825,44.88225 2.93025,35.47425 2.93025,23.90625 C2.93025,12.33825 12.33825,2.93025 23.90625,2.93025 C35.47425,2.93025 44.88225,12.33825 44.88225,23.90625 C44.88225,35.47425 35.47425,44.88225 23.90625,44.88225 Z M23.90625,4.95225 C13.45425,4.95225 4.95225,13.45425 4.95225,23.90625 C4.95225,34.35825 13.45425,42.86025 23.90625,42.86025 C34.35825,42.86025 42.86025,34.35825 42.86025,23.90625 C42.86025,13.45425 34.35825,4.95225 23.90625,4.95225 Z" id="形状" fill="#5A3800"></path>
                <path d="M38.13825,22.84425 L38.08425,22.84425 C30.81825,22.84425 24.89025,16.93425 24.86025,9.67425 L24.86025,9.62625 L24.86025,9.57225 C24.86025,9.55425 24.85425,9.53625 24.85425,9.52425 C24.85425,9.50625 24.84825,9.48825 24.84825,9.47625 C24.84225,9.45825 24.84225,9.44625 24.83625,9.42825 C24.83025,9.41025 24.83025,9.39825 24.82425,9.38025 C24.81825,9.36225 24.81225,9.35025 24.80625,9.33225 C24.80025,9.32025 24.79425,9.30225 24.78825,9.29025 C24.78225,9.27225 24.77625,9.26025 24.76425,9.24225 C24.75825,9.23025 24.75225,9.21225 24.74625,9.20025 C24.74025,9.18225 24.72825,9.17025 24.71625,9.15225 C24.71025,9.14025 24.70425,9.12825 24.69225,9.11625 C24.68025,9.10425 24.67425,9.08625 24.66225,9.07425 C24.65625,9.06225 24.64425,9.05025 24.63825,9.03825 L24.60225,9.00225 C24.59025,8.99025 24.58425,8.97825 24.57225,8.96625 L24.53625,8.93025 C24.52425,8.91825 24.51225,8.90625 24.50025,8.90025 C24.48825,8.88825 24.47625,8.88225 24.45825,8.87025 C24.44625,8.85825 24.43425,8.85225 24.42225,8.84025 C24.41025,8.82825 24.39225,8.82225 24.38025,8.81625 C24.36825,8.81025 24.35025,8.79825 24.33825,8.79225 C24.32625,8.78625 24.30825,8.78025 24.29625,8.76825 C24.28425,8.76225 24.26625,8.75625 24.25425,8.74425 C24.24225,8.73825 24.22425,8.73225 24.20625,8.72625 C24.18825,8.72025 24.17625,8.71425 24.15825,8.70825 C24.14025,8.70225 24.12825,8.70225 24.11025,8.69625 C24.09225,8.69025 24.08025,8.68425 24.06225,8.68425 C24.04425,8.67825 24.02625,8.67825 24.00825,8.67825 C23.99025,8.67825 23.97825,8.67225 23.96025,8.67225 L23.85825,8.67225 L23.85225,8.67225 L23.74425,8.67225 C23.72625,8.67225 23.71425,8.67825 23.69625,8.67825 C23.67825,8.67825 23.66025,8.68425 23.64225,8.68425 C23.62425,8.69025 23.61225,8.69025 23.59425,8.69625 C23.57625,8.70225 23.56425,8.70225 23.54625,8.70825 C23.52825,8.71425 23.51625,8.72025 23.49825,8.72625 C23.48625,8.73225 23.46825,8.73825 23.45625,8.74425 C23.43825,8.75025 23.42625,8.75625 23.40825,8.76825 C23.39625,8.77425 23.37825,8.78025 23.36625,8.78625 C23.34825,8.79225 23.33625,8.80425 23.32425,8.81025 C23.31225,8.81625 23.30025,8.82825 23.28825,8.83425 C23.27625,8.84625 23.25825,8.85225 23.24625,8.86425 C23.23425,8.87625 23.22225,8.88225 23.21025,8.89425 L23.17425,8.93025 C23.16225,8.94225 23.15025,8.94825 23.13825,8.96025 L23.10225,8.99625 C23.09025,9.00825 23.07825,9.02025 23.07225,9.03225 C23.06025,9.04425 23.05425,9.05625 23.04225,9.06825 C23.03025,9.08025 23.02425,9.09225 23.01225,9.10425 C23.00625,9.11625 22.99425,9.13425 22.98825,9.14625 C22.98225,9.15825 22.97025,9.17625 22.96425,9.18825 C22.95825,9.20025 22.95225,9.21825 22.94625,9.23025 C22.94025,9.24225 22.93425,9.26025 22.92225,9.27825 C22.91625,9.29625 22.91025,9.30825 22.90425,9.32625 C22.89825,9.34425 22.89225,9.35625 22.88625,9.37425 C22.88025,9.39225 22.88025,9.40425 22.87425,9.42225 C22.86825,9.44025 22.86825,9.45225 22.86225,9.47025 C22.85625,9.48825 22.85625,9.50625 22.85625,9.51825 C22.85625,9.53625 22.85025,9.55425 22.85025,9.56625 L22.85025,9.66825 C22.82625,16.90425 16.91625,22.81425 9.68025,22.83825 L9.57825,22.83825 C9.56025,22.83825 9.54825,22.84425 9.53025,22.84425 C9.51225,22.84425 9.49425,22.85025 9.47625,22.85025 C9.45825,22.85625 9.44625,22.85625 9.42825,22.86225 C9.41025,22.86825 9.39825,22.86825 9.38025,22.87425 C9.36225,22.88025 9.35025,22.88625 9.33225,22.89225 C9.32025,22.89825 9.30225,22.90425 9.29025,22.91025 C9.27225,22.91625 9.26025,22.92225 9.24225,22.93425 C9.23025,22.94025 9.21225,22.94625 9.20025,22.95225 C9.18225,22.95825 9.17025,22.97025 9.15825,22.97625 C9.14625,22.98225 9.13425,22.99425 9.12225,23.00025 C9.11025,23.01225 9.09225,23.01825 9.08025,23.03025 C9.06825,23.04225 9.05625,23.04825 9.04425,23.06025 L9.00825,23.09625 C8.99625,23.10825 8.98425,23.11425 8.97225,23.12625 L8.93625,23.16225 C8.92425,23.17425 8.91225,23.18625 8.90625,23.19825 C8.89425,23.21025 8.88825,23.22225 8.87625,23.23425 C8.86425,23.24625 8.85825,23.25825 8.84625,23.27025 C8.84025,23.28225 8.82825,23.30025 8.82225,23.31225 C8.81625,23.32425 8.80425,23.34225 8.79825,23.35425 C8.79225,23.36625 8.78625,23.38425 8.78025,23.39625 C8.77425,23.40825 8.76825,23.42625 8.75625,23.44425 C8.75025,23.46225 8.74425,23.47425 8.73825,23.49225 C8.73225,23.51025 8.72625,23.52225 8.72025,23.54025 C8.71425,23.55825 8.71425,23.57025 8.70825,23.58825 C8.70225,23.60625 8.70225,23.61825 8.69625,23.63625 C8.69025,23.65425 8.69025,23.67225 8.69025,23.68425 C8.69025,23.70225 8.68425,23.72025 8.68425,23.73225 L8.68425,23.94825 C8.68425,23.96625 8.69025,23.98425 8.69025,23.99625 C8.69025,24.01425 8.69625,24.03225 8.69625,24.04425 C8.70225,24.06225 8.70225,24.07425 8.70825,24.09225 C8.71425,24.11025 8.71425,24.12225 8.72025,24.14025 C8.72625,24.15825 8.73225,24.17025 8.73825,24.18825 C8.74425,24.20025 8.75025,24.21825 8.75625,24.23025 C8.76225,24.24825 8.76825,24.26025 8.78025,24.27825 C8.78625,24.29025 8.79225,24.30825 8.79825,24.32025 C8.80425,24.33825 8.81625,24.35025 8.82825,24.36825 C8.83425,24.38025 8.84025,24.39225 8.85225,24.40425 C8.86425,24.41625 8.87025,24.43425 8.88225,24.44625 C8.88825,24.45825 8.90025,24.47025 8.90625,24.48225 L8.94225,24.51825 C8.95425,24.53025 8.96025,24.54225 8.97225,24.55425 L9.00825,24.59025 C9.02025,24.60225 9.03225,24.61425 9.04425,24.62025 C9.05625,24.63225 9.06825,24.63825 9.08625,24.65025 C9.09825,24.66225 9.11025,24.66825 9.12225,24.68025 C9.13425,24.69225 9.15225,24.69825 9.16425,24.70425 C9.17625,24.71025 9.19425,24.72225 9.20625,24.72825 C9.21825,24.73425 9.23625,24.74025 9.24825,24.75225 C9.26025,24.75825 9.27825,24.76425 9.29025,24.77625 C9.30225,24.78225 9.32025,24.78825 9.33825,24.79425 C9.35625,24.80025 9.36825,24.80625 9.38625,24.81225 C9.40425,24.81825 9.41625,24.81825 9.43425,24.82425 C9.45225,24.83025 9.46425,24.83625 9.48225,24.83625 C9.50025,24.84225 9.51825,24.84225 9.53625,24.84225 C9.55425,24.84225 9.56625,24.84825 9.58425,24.84825 L9.68625,24.84825 C16.95225,24.87225 22.85625,30.80625 22.85625,38.07225 L22.85625,38.12625 C22.85625,38.68425 23.30625,39.13425 23.86425,39.13425 C24.42225,39.13425 24.87225,38.68425 24.87225,38.12625 L24.87225,38.07225 C24.87225,30.78225 30.80625,24.84825 38.09625,24.84825 L38.15025,24.84825 C38.70825,24.84825 39.15825,24.39825 39.15825,23.84025 C39.15825,23.28225 38.69625,22.84425 38.13825,22.84425 L38.13825,22.84425 Z M23.85225,32.63025 C22.30425,28.61025 19.10025,25.40625 15.08625,23.85825 C17.05425,23.10225 18.86625,21.93225 20.40225,20.39625 C21.93825,18.86025 23.10825,17.05425 23.86425,15.08025 C25.41225,19.09425 28.62225,22.29825 32.63625,23.84625 C28.60425,25.40025 25.40025,28.60425 23.85225,32.63025 L23.85225,32.63025 Z" id="形状" fill="#5A3800"></path>
            </g>
        </g>
    </g>
</svg>