<?xml version="1.0" encoding="UTF-8"?>
<svg width="36px" height="48px" viewBox="0 0 36 48" version="1.1" xmlns="http://www.w3.org/2000/svg" xmlns:xlink="http://www.w3.org/1999/xlink">
    <!-- Generator: Sketch 60 (88103) - https://sketch.com -->
    <title>ico-context</title>
    <desc>Created with Sketch.</desc>
    <g id="页面-1" stroke="none" stroke-width="1" fill="none" fill-rule="evenodd">
        <g id="桌面端-HD备份" transform="translate(-1380.000000, -25.000000)">
            <g id="ico-context" transform="translate(1380.000000, 25.000000)">
                <rect id="矩形" fill="#EEDAB9" x="0" y="0.738461538" width="35.4461538" height="47.2615385"></rect>
                <polygon id="路径" fill="#FFF2DD" fill-rule="nonzero" points="6.26057846 6.2208 8.51022769 6.2208 8.51022769 33.7860923 6.26057846 33.7860923"></polygon>
                <path d="M34.9199754,0 L0.526178462,0 C0.242609231,0 0.0157538462,0.212676923 0.0157538462,0.478523077 L0.0157538462,46.7771077 C0.0157538462,47.0429538 0.242609231,47.2556308 0.526178462,47.2556308 L34.9199754,47.2556308 C35.2035446,47.2556308 35.4304,47.0429538 35.4304,46.7771077 L35.4304,0.478523077 C35.4304,0.218584615 35.2035446,0 34.9199754,0 Z M31.8952369,10.1612308 L34.4095508,10.1612308 L34.4095508,21.7166769 L31.8952369,21.7166769 L31.8952369,10.1612308 Z M31.8952369,22.6737231 L34.4095508,22.6737231 L34.4095508,34.2291692 L31.8952369,34.2291692 L31.8952369,22.6737231 Z M34.4095508,9.20418462 L31.8952369,9.20418462 L31.8952369,0.957046154 L34.4095508,0.957046154 L34.4095508,9.20418462 L34.4095508,9.20418462 Z M1.03660308,0.957046154 L30.8743877,0.957046154 L30.8743877,46.3044923 L1.03660308,46.3044923 L1.03660308,0.957046154 Z M31.8952369,46.3044923 L31.8952369,35.1862154 L34.4095508,35.1862154 L34.4095508,46.2985846 L31.8952369,46.2985846 L31.8952369,46.3044923 Z" id="形状" fill="#5A3800" fill-rule="nonzero"></path>
                <path d="M10.0541046,3.29058462 L3.68955077,3.29058462 C3.40598154,3.29058462 3.17912615,3.50326154 3.17912615,3.76910769 L3.17912615,35.1271385 C3.17912615,35.3929846 3.40598154,35.6056615 3.68955077,35.6056615 L10.0478031,35.6056615 C10.3313723,35.6056615 10.5582277,35.3929846 10.5582277,35.1271385 L10.5582277,3.76910769 C10.5645292,3.50326154 10.3313723,3.29058462 10.0541046,3.29058462 Z M9.54368,34.6486154 L4.20627692,34.6486154 L4.20627692,4.24763077 L9.54368,4.24763077 L9.54368,34.6486154 Z" id="形状" fill="#5A3800" fill-rule="nonzero"></path>
                <path d="M5.23342769,34.1819077 L8.50392615,34.1819077 C8.78749538,34.1819077 9.01435077,33.9692308 9.01435077,33.7033846 L9.01435077,5.19286154 C9.01435077,4.92701538 8.78749538,4.71433846 8.50392615,4.71433846 L5.23342769,4.71433846 C4.94985846,4.71433846 4.72300308,4.92701538 4.72300308,5.19286154 L4.72300308,33.7033846 C4.72300308,33.9692308 4.94985846,34.1819077 5.23342769,34.1819077 L5.23342769,34.1819077 Z M5.74385231,5.67138462 L7.99350154,5.67138462 L7.99350154,33.2248615 L5.74385231,33.2248615 L5.74385231,5.67138462 Z" id="形状" fill="#EEDAB9" fill-rule="nonzero"></path>
            </g>
        </g>
    </g>
</svg>
