<?xml version="1.0" encoding="UTF-8"?>
<svg width="200px" height="200px" viewBox="0 0 200 200" version="1.1" xmlns="http://www.w3.org/2000/svg" xmlns:xlink="http://www.w3.org/1999/xlink">
    <title>favicon</title>
    <defs>
        <rect id="path-1" x="0" y="0" width="200" height="200" rx="80"></rect>
    </defs>
    <g id="页面-1" stroke="none" stroke-width="1" fill="none" fill-rule="evenodd">
        <g id="home" transform="translate(-1411, -371)">
            <g id="favicon" transform="translate(1411, 371)">
                <mask id="mask-2" fill="white">
                    <use xlink:href="#path-1"></use>
                </mask>
                <use id="矩形" fill="#99BCAC" xlink:href="#path-1"></use>
                <path d="M74.6101695,29 C83.4689266,32.919843 87.8983051,35.1446188 87.8983051,35.6743274 C88.6365348,35.6743274 89.1111111,37.5283072 89.3220339,41.2362668 C86.6854991,43.2491592 84.6817326,44.2556054 83.3107345,44.2556054 C81.6233522,43.30213 80.252354,42.8253924 79.1977401,42.8253924 L78.7231638,44.732343 L79.1977401,48.3873318 C77.5103578,49.3408072 75.6647834,50.0294283 73.6610169,50.4531951 C73.6610169,52.1482623 75.8757062,52.995796 80.3050847,52.995796 L86.7909605,52.995796 C90.0602637,53.6314462 91.905838,53.9492713 92.3276836,53.9492713 L98.4971751,52.995796 C100.079096,53.9492713 101.080979,54.426009 101.502825,54.426009 L110.677966,52.5190583 C114.052731,46.3744395 116.425612,43.30213 117.79661,43.30213 C122.753296,43.30213 125.969868,44.6264013 127.446328,47.2749439 C127.446328,47.9105942 129.13371,49.8175448 132.508475,52.995796 L132.508475,54.426009 C132.508475,57.3923767 129.608286,59.0874439 123.80791,59.5112108 C118.851224,63.2191704 116.320151,65.2850336 116.214689,65.7088004 C116.214689,66.8741592 115.212806,68.2514013 113.20904,69.8405269 C109.096045,74.6079036 107.039548,78.3158632 107.039548,80.9644058 C107.039548,81.8119395 106.037665,83.3480942 104.033898,85.57287 L104.508475,88.1154709 C104.508475,89.0689462 104.033898,90.6051009 103.084746,92.723935 C104.033898,94.4190022 104.508475,96.643778 104.508475,99.3982623 L104.508475,99.875 C104.508475,100.616592 104.350282,101.305213 104.033898,101.940863 C104.033898,107.661715 105.721281,110.522141 109.096045,110.522141 L111.627119,110.522141 L113.683616,110.045404 C115.47646,110.681054 116.847458,110.998879 117.79661,110.998879 L120.327684,109.568666 L122.384181,109.568666 C124.177024,109.568666 126.549906,109.409753 129.502825,109.091928 L130.451977,109.568666 C132.455744,109.568666 134.301318,107.661715 135.988701,103.847814 C134.723164,101.305213 133.563089,99.8220291 132.508475,99.3982623 C132.824859,96.0081278 132.983051,93.4125561 132.983051,91.6115471 L132.983051,90.1813341 C134.143126,88.1684417 135.988701,87.1619955 138.519774,87.1619955 L138.519774,86.0496076 C138.519774,85.202074 136.832392,83.6659193 133.457627,81.4411435 C133.141243,80.8054933 132.983051,80.3287556 132.983051,80.0109305 C134.037665,75.5613789 135.19774,73.3366031 136.463277,73.3366031 C137.623352,72.7009529 138.677966,72.3831278 139.627119,72.3831278 C142.052731,72.3831278 144.900188,74.3960202 148.169492,78.4218049 C149.856874,79.7990471 150.700565,81.3352018 150.700565,83.0302691 C150.700565,84.9372197 149.382298,86.632287 146.745763,88.1154709 L145.638418,90.1813341 C145.954802,92.5120516 146.112994,94.3660314 146.112994,95.7432735 L145.163842,96.2200112 L145.638418,98.2858744 L145.163842,100.351738 C146.218456,102.470572 147.062147,105.013173 147.694915,107.97954 C146.323917,110.628083 145.638418,112.32315 145.638418,113.064742 C146.376648,115.501401 146.745763,116.878643 146.745763,117.196469 L146.745763,118.626682 C146.745763,121.487108 145.216573,123.552971 142.158192,124.824271 L138.519774,125.301009 L136.463277,125.301009 C133.088512,123.711883 131.40113,121.857904 131.40113,119.73907 L131.40113,117.196469 C128.553672,116.137052 121.962335,115.289518 111.627119,114.653868 C110.361582,114.971693 109.201507,115.130605 108.146893,115.130605 C107.830508,115.130605 106.828625,114.971693 105.141243,114.653868 C103.981168,115.289518 102.926554,115.607343 101.977401,115.607343 L100.079096,115.607343 C95.9661017,114.653868 93.9096045,113.806334 93.9096045,113.064742 L95.0169492,109.568666 C95.0169492,109.250841 94.6478343,107.555774 93.9096045,104.483464 C93.9096045,104.059697 94.0677966,103.529989 94.3841808,102.894339 C94.0677966,98.7626121 93.3822976,96.2200112 92.3276836,95.2665359 C93.6986817,93.3595852 94.5951036,91.5056054 95.0169492,89.7045964 C94.3841808,88.5392377 93.8568738,87.003083 93.4350282,85.0961323 C93.4350282,81.7059978 96.6516008,75.4024664 103.084746,66.1855381 C105.721281,63.4310538 107.039548,61.577074 107.039548,60.6235987 C103.664783,59.2463565 101.819209,58.0280269 101.502825,56.9686099 C99.4990584,57.7102018 98.4971751,58.2399103 98.4971751,58.5577354 L93.4350282,58.0809978 L89.7966102,58.0809978 C89.480226,58.0809978 89.3220339,57.9220852 89.3220339,57.6042601 L88.3728814,58.0809978 L83.3107345,58.0809978 C79.8305085,59.0344731 77.6158192,59.5112108 76.6666667,59.5112108 C76.3502825,59.5112108 74.9792844,59.3522982 72.5536723,59.0344731 C70.9717514,59.0344731 68.2824859,61.7889574 64.4858757,67.297926 C64.4858757,68.5692265 62.7984934,70.5821188 59.4237288,73.3366031 L58.4745763,73.3366031 L55.9435028,72.8598655 L55.9435028,73.3366031 C58.2636535,76.0910874 60.4256121,77.4683296 62.4293785,77.4683296 L64.4858757,79.3752803 C65.1186441,79.0574552 65.645951,78.8985426 66.0677966,78.8985426 C80.1996234,79.3223094 87.2655367,80.169843 87.2655367,81.4411435 L87.2655367,82.5535314 C87.0546139,83.5070067 85.8945386,83.9837444 83.7853107,83.9837444 C81.4651601,83.9837444 79.0922787,83.5070067 76.6666667,82.5535314 L73.6610169,83.0302691 C73.2391714,83.0302691 71.393597,82.7124439 68.1242938,82.0767937 C64.0112994,82.1827354 61.9548023,82.6594731 61.9548023,83.5070067 C62.2711864,85.4139574 62.4293785,86.7911996 62.4293785,87.6387332 C62.4293785,88.4862668 61.5856874,89.8105381 59.8983051,91.6115471 C61.6911488,91.6115471 62.9039548,93.3595852 63.5367232,96.8556614 C63.5367232,101.517096 62.4821092,105.383969 60.3728814,108.456278 C60.9001883,110.151345 62.4293785,110.998879 64.960452,110.998879 L65.4350282,110.045404 C70.7080979,110.681054 77.826742,110.998879 86.7909605,110.998879 C89.2165725,111.528587 90.4293785,112.217209 90.4293785,113.064742 C90.4293785,114.441984 87.212806,115.289518 80.779661,115.607343 C80.779661,115.925168 80.4105461,116.084081 79.6723164,116.084081 C79.2504708,116.084081 76.0338983,115.236547 70.0225989,113.54148 L67.4915254,114.17713 L64.4858757,112.588004 C62.7984934,115.236547 61.9548023,117.620235 61.9548023,119.73907 C62.5875706,121.01037 62.9039548,122.387612 62.9039548,123.870796 L62.9039548,124.824271 L61.9548023,126.413397 L62.9039548,132.928812 L62.4293785,136.5838 C62.7457627,138.384809 62.9039548,139.709081 62.9039548,140.556614 C61.6384181,142.675448 61.0056497,144.211603 61.0056497,145.165078 C61.0056497,150.25028 62.007533,153.32259 64.0112994,154.382007 L80.3050847,157.401345 C83.4689266,157.08352 86.4745763,156.924608 89.3220339,156.924608 L89.3220339,157.401345 L90.4293785,156.924608 L92.3276836,156.924608 C93.2768362,156.924608 94.3314501,157.242433 95.4915254,157.878083 C96.5461394,157.242433 97.5480226,156.924608 98.4971751,156.924608 L101.502825,156.924608 C102.241055,156.924608 102.926554,157.08352 103.559322,157.401345 C105.141243,156.765695 106.670433,156.44787 108.146893,156.44787 C109.834275,156.44787 110.677966,156.765695 110.677966,157.401345 C112.365348,156.765695 113.736347,156.44787 114.79096,156.44787 C116.478343,156.765695 117.480226,156.924608 117.79661,156.924608 C118.112994,156.924608 118.587571,156.765695 119.220339,156.44787 L122.858757,156.924608 C133.721281,155.22954 142.685499,154.064182 149.751412,153.428531 C155.65725,147.919563 158.873823,143.840807 159.40113,141.192265 L158.293785,134.994675 C158.715631,134.359025 158.926554,133.670404 158.926554,132.928812 L158.293785,131.975336 C158.293785,131.233744 159.506591,129.856502 161.932203,127.84361 L161.932203,127.366872 L161.457627,125.301009 C161.879473,123.923767 162.354049,123.235146 162.881356,123.235146 L163.355932,123.235146 C164.832392,123.235146 166.045198,128.002522 166.99435,137.537276 C166.99435,138.384809 166.625235,140.079877 165.887006,142.622478 C166.625235,143.787836 166.99435,144.794283 166.99435,145.641816 C165.939736,148.3963 165.412429,149.932455 165.412429,150.25028 C168.154426,153.110706 169.525424,156.024103 169.525424,158.990471 C169.525424,160.15583 169.683616,161.691984 170,163.598935 C170,165.399944 166.94162,167.095011 160.824859,168.684137 C159.664783,167.942545 158.346516,167.571749 156.870056,167.571749 C155.077213,167.571749 148.485876,167.783632 137.096045,168.207399 C135.93597,168.843049 134.881356,169.160874 133.932203,169.160874 L132.983051,169.160874 C132.666667,169.160874 131.295669,168.843049 128.870056,168.207399 C127.499058,168.207399 125.495292,168.525224 122.858757,169.160874 L120.327684,167.571749 L119.853107,167.571749 C118.482109,168.631166 115.265537,169.4787 110.20339,170.11435 C107.777778,169.4787 105.721281,169.160874 104.033898,169.160874 C102.346516,169.160874 99.1299435,169.690583 94.3841808,170.75 C90.7984934,168.631166 88.4256121,167.571749 87.2655367,167.571749 C86.9491525,168.631166 85.9472693,169.160874 84.259887,169.160874 L81.2542373,168.684137 L77.6158192,169.160874 C61.0583804,168.419283 52.779661,166.194507 52.779661,162.486547 C52.1468927,161.533072 50.6177024,155.759249 48.1920904,145.165078 L49.299435,137.060538 L48.8248588,134.0412 L49.7740113,131.975336 C49.7740113,131.657511 49.6158192,130.651065 49.299435,128.955998 L49.7740113,125.777747 C49.4576271,123.129204 49.299435,120.427691 49.299435,117.673206 C50.2485876,114.81278 50.7231638,110.575112 50.7231638,104.960202 L50.7231638,103.847814 C50.7231638,101.72898 50.5649718,99.5571749 50.2485876,97.3323991 L51.3559322,89.7045964 C50.9340866,89.0689462 50.7231638,88.2214126 50.7231638,87.1619955 C51.4613936,87.1619955 51.8305085,86.632287 51.8305085,85.57287 C51.0922787,84.5134529 50.7231638,83.3480942 50.7231638,82.0767937 L49.7740113,82.0767937 C44.079096,86.8441704 38.8587571,89.7045964 34.1129944,90.6580717 C34.1129944,91.1877803 33.5856874,91.7174888 32.5310734,92.2471973 L31.5819209,92.2471973 C30.8436911,92.2471973 30.3163842,90.7110426 30,87.6387332 C32.0037665,87.5327915 34.5348399,86.1555493 37.5932203,83.5070067 C40.0188324,82.0238229 42.7080979,78.7926009 45.6610169,73.8133408 C46.2937853,73.8133408 48.6666667,70.7410314 52.779661,64.5964126 C53.306968,63.8548206 55.3634652,62.1597534 58.9491525,59.5112108 L59.4237288,58.5577354 C59.1073446,57.9220852 58.9491525,57.2334641 58.9491525,56.4918722 C60.0037665,54.2670964 62.007533,51.565583 64.960452,48.3873318 C64.960452,47.5397982 66.3314501,43.7788677 69.0734463,37.1045404 C70.1280603,31.7015135 71.9736347,29 74.6101695,29 Z M113.125,78 L118.867188,79.2992424 L125.429688,78 L126.25,79.8560606 L126.25,80.4128788 C126.25,81.6502525 121.601562,82.8876263 112.304688,84.125 C109.934896,83.3825758 108.75,82.5782828 108.75,81.7121212 L108.75,80.4128788 C108.75,79.2992424 110.208333,78.4949495 113.125,78 Z" id="形状" fill="#FFFFFF" fill-rule="nonzero" mask="url(#mask-2)"></path>
            </g>
        </g>
    </g>
</svg>