<?xml version="1.0" encoding="UTF-8"?>
<svg width="102px" height="202px" viewBox="0 0 102 202" version="1.1" xmlns="http://www.w3.org/2000/svg" xmlns:xlink="http://www.w3.org/1999/xlink">
    <!-- Generator: Sketch 60 (88103) - https://sketch.com -->
    <title>figure60</title>
    <desc>Created with Sketch.</desc>
    <defs>
        <polygon id="path-1" points="0.565740845 0.535247423 50.4540845 0.535247423 50.4540845 139.834526 0.565740845 139.834526"></polygon>
        <polygon id="path-3" points="0 0.704527778 11.3994 0.704527778 11.3994 51.3268106 0 51.3268106"></polygon>
    </defs>
    <g id="页面-1" stroke="none" stroke-width="1" fill="none" fill-rule="evenodd">
        <g id="29-44" transform="translate(-1230.000000, -769.000000)">
            <g id="figure60" transform="translate(1230.000000, 769.000000)">
                <g id="编组" transform="translate(50.639286, 37.000000)">
                    <mask id="mask-2" fill="white">
                        <use xlink:href="#path-1"></use>
                    </mask>
                    <g id="Clip-2"></g>
                    <path d="M21.7249944,76.6057629 C23.6687408,71.2886495 25.2748817,66.8945258 27.0045718,62.1633918 C26.0987831,62.1633918 25.3244451,62.0161753 25.2483042,62.1850412 C23.5997831,65.8517423 21.9598817,69.5256598 20.5167972,73.2760722 C20.2934028,73.8577216 21.0426,74.8175155 21.7249944,76.6057629 M13.485262,62.7724639 C13.0901915,62.5184433 12.6951211,62.2651443 12.3000507,62.0118454 C10.8433183,63.6968969 9.38658592,65.3826701 8.33713521,66.5957629 C10.9496282,73.4305052 7.29127606,79.6756598 8.41183944,86.5017423 C10.2040225,78.1190619 11.8446423,70.4457629 13.485262,62.7724639 M47.940431,36.0642165 C50.8273183,24.9248351 49.2973183,19.8985464 41.5718958,13.8467938 C43.7842901,21.5648351 45.8623606,28.8145258 47.940431,36.0642165 M27.8924028,60.2308144 C26.2079662,59.1375155 24.5235296,58.0449381 22.1559803,56.5085464 L35.4296282,56.5085464 L35.4425577,55.6411237 L30.0588254,55.6411237 C29.9338394,55.1222577 29.7851493,54.872567 29.8411775,54.6849381 C31.231107,50.0476186 33.6130225,46.5721546 39.1124028,46.8218454 C38.8653042,47.312567 38.6239521,48.2240103 38.373262,48.2268969 C35.0137268,48.2651443 33.0340648,50.0035979 32.1785577,53.3267938 C35.1983324,53.738134 38.0787549,57.2395773 42.1350507,53.1766907 C41.2321352,51.3675155 40.1230648,49.1441134 39.0132761,46.9207113 C42.3412056,44.4916392 39.8062901,41.391433 39.5225577,38.8663814 C38.6024028,30.6561753 36.9675296,22.5275155 35.5761634,14.1780309 C33.987262,14.5172062 31.9946704,14.9429794 30.0035155,15.3651443 C31.3826704,18.2488557 32.7603887,21.1354536 34.138107,24.0227732 C33.8277972,24.1974124 33.516769,24.3727732 33.2057408,24.548134 C32.2805577,22.8912268 31.3647127,21.2285464 30.4280366,19.5788557 C28.4289803,16.0579278 27.183431,15.7396804 23.8368254,17.7740103 C23.1860366,18.1687526 22.4052338,18.3484433 21.6876423,18.6313299 C21.6905155,18.6342165 21.7932338,18.7345258 21.7932338,18.7345258 C23.8195859,16.8834948 25.6038676,13.8893711 27.9175437,13.3950412 C34.7838676,11.9279278 37.147107,7.80803093 36.9344873,1.35864948 C36.9287408,1.17102062 37.1672197,0.976175258 37.1858958,0.947309278 C37.6176,5.2555567 38.0636704,9.71535052 38.5104592,14.1751443 C38.9005014,14.1462784 39.291262,14.118134 39.6820225,14.089268 C39.1648394,9.75143299 38.649093,5.41359794 38.0679803,0.535247423 C41.1430648,2.93906186 42.2586,7.82318557 41.2975014,12.5355567 C46.6948817,14.7863814 50.6771915,20.4888557 50.4444592,26.3039072 C50.2799662,30.4072062 49.206093,34.4866907 49.185262,38.5798866 C49.1615577,43.5520515 49.9172197,48.5227732 50.1477972,53.5028763 C50.3158817,57.1371031 50.1808394,60.7857629 50.1808394,65.1986495 C46.2286986,60.515866 47.2702479,56.0127732 47.1459803,51.4808144 C46.9879521,45.7408144 45.5915577,40.0260722 44.6010085,34.3228763 C44.0816704,31.3316392 43.341093,28.3750412 42.6033887,25.4271031 C41.8678394,22.4849381 41.0108958,19.5738041 39.5182479,16.7521546 C40.3838113,21.6831856 41.2098676,26.6207113 42.1221211,31.5430825 C43.4280085,38.5842165 45.0212197,45.5834948 45.9837549,52.6700928 C46.2308535,54.4864845 44.5722761,56.5641134 43.6413465,58.889268 C45.9830366,60.9264845 46.4168958,63.7264845 45.6439944,67.3852474 C44.8904873,70.9523608 45.3739099,74.808134 45.4967408,78.5304021 C45.7546141,86.3487526 43.1306282,93.5551443 41.3528113,101.000402 C39.699262,107.926072 38.1750085,115.035041 39.4615014,122.406691 C40.1137268,126.140505 39.6202479,130.067722 39.7516986,133.90401 C39.8192197,135.879887 40.1201915,137.847825 40.0454873,139.834526 C36.1795437,131.980093 36.1666141,123.785763 37.5357127,115.457928 C38.4501211,109.89401 39.4543183,104.339474 40.1345577,98.7452474 C40.3443042,97.0205052 39.6188113,95.180299 39.4363606,94.0848351 C40.4549239,92.9857629 41.6997549,92.2771031 41.8268958,91.4031856 C42.7017972,85.4113299 43.4682338,79.3956598 43.9839803,73.3626701 C44.1463183,71.4654536 43.4344732,69.4924639 43.287938,68.5817423 C37.7835296,66.9796804 33.0843465,65.611433 28.1567408,64.1760722 C25.5708254,70.0878247 27.2890225,78.0577216 20.745938,84.3649381 C19.8502056,80.9977216 19.1369239,78.3153505 18.4056845,75.565866 C14.7875577,76.1893711 13.5685859,74.865866 14.5806845,70.5027732 C15.1000225,68.2663814 15.5899099,66.0227732 15.5130507,63.6752474 C8.23298028,86.3119485 6.84448732,110.150918 1.43920563,133.162155 C1.14829014,133.125351 0.856656338,133.08999 0.565740845,133.053907 C0.996008451,129.960196 1.26465634,126.83401 1.88743099,123.77999 C3.39085352,116.415557 5.06164225,109.085041 6.6534169,101.737928 C6.72883944,101.390814 6.69220563,101.019165 6.70298028,100.659062 C6.94361408,92.5080309 7.31282535,84.3577216 7.36526197,76.2045258 C7.38824789,72.6294742 9.21562817,68.1754536 4.48699437,66.912567 C5.90421972,65.8697835 7.29702254,64.6833918 8.83636056,63.7401959 C14.7983324,60.0857629 16.0137127,53.8543196 16.9769662,47.4641134 C17.3073887,47.5940103 17.637093,47.7239072 17.9667972,47.8538041 C17.3670085,50.7916392 16.7665014,53.7301959 16.1638394,56.6839072 C19.9328113,56.9617423 22.4598254,54.1054536 23.2154873,48.7356598 C23.7319521,45.0595773 25.9773887,41.3033918 22.7564873,37.8250412 C19.7984873,36.3463814 15.6136141,39.4761753 13.0341634,35.7604021 C16.0345437,34.3979278 18.5744873,32.810299 21.3356704,32.1312268 C23.4446282,31.6123608 26.3415718,31.4615361 27.9850648,32.5382371 C30.7879099,34.3741134 31.0752338,32.1030825 32.4586986,30.553701 C31.8610648,35.8008144 30.1170085,40.0289588 26.8594732,43.7317423 C25.7733887,44.9657629 25.3481493,46.7915361 24.6420507,48.3560722 C23.3577127,51.2022577 22.3204732,54.1949381 20.7286986,56.8527732 C19.737431,58.5075155 18.0379099,60.2842165 15.2803183,57.5275155 C17.4065155,61.6106082 20.442093,65.1199897 17.7584873,69.7089588 C22.4626986,67.6746289 18.9013183,62.8576186 21.0670225,59.8389588 C21.8629099,61.0145258 22.6250366,62.1417423 23.3871634,63.2682371 L24.0336423,62.9745258 C23.8289239,61.8704021 23.6249239,60.767 23.3081493,59.058134 C24.9681634,59.4572062 26.4593746,59.815866 27.9627972,60.163701 C31.7245859,61.2786495 35.4102338,62.8200928 39.2409803,63.4075155 C42.729093,63.9422577 43.1457127,62.949268 41.9813324,59.2739072 C40.0548254,59.5979278 38.1376563,60.0900928 36.198938,60.2005052 C33.4384732,60.3578247 30.6622056,60.233701 27.8924028,60.2308144" id="Fill-1" fill="#231916" mask="url(#mask-2)"></path>
                </g>
                <path d="M47.1601692,30.3205502 C43.177491,27.4708307 34.6065896,29.231037 31.372233,33.9041123 C36.5631314,32.7260444 42.039583,31.4833751 47.1601692,30.3205502 L47.1601692,30.3205502 Z M54.2954124,50.2119692 C52.2986923,46.5289645 49.3025359,49.9448534 46.9456456,48.8821969 L46.9456456,53.1422589 C44.7078554,48.3835323 42.2462144,43.1508203 39.7845735,37.9181083 C39.3748979,38.0821523 38.9652223,38.2461962 38.5555467,38.4102402 C39.298846,41.5829665 40.0421453,44.7564187 40.7854447,47.9291451 C40.4848246,48.0104412 40.183487,48.0910115 39.8828669,48.1723076 C39.0226199,45.1658028 38.1616554,42.1600238 37.3006909,39.1527932 C37.0086805,39.2181204 36.71667,39.2834476 36.425377,39.348049 C36.7123652,41.723783 36.9993534,44.0987912 37.287059,46.4745252 C37.1234757,46.5188025 36.96061,46.5630799 36.7970267,46.6066314 C36.4590981,45.6528536 36.1147124,44.7005276 35.7853934,43.7431206 C35.4209185,42.6819159 35.0700754,41.616356 34.7134927,40.5529737 L34.7522361,40.5957993 C35.9626086,39.2290083 37.1736987,37.8622172 38.9142819,35.8965931 C41.6636285,40.003499 44.1589905,43.7315069 46.9162293,47.8500265 C46.741884,47.9066435 47.3395368,47.6344466 47.9637361,47.5204869 C52.9602,46.6117124 52.7887245,46.6639742 51.6156604,41.9466215 C51.165089,40.1341535 51.7082141,38.0676351 51.80866,35.8828018 C43.3037658,33.1107492 31.8945514,36.4649401 28.4370616,43.1392066 C25.9955098,47.8514782 24.8518619,53.3331596 23.6357496,58.5920025 C22.3335408,64.221759 21.6490741,69.9959613 20.633136,75.696126 C20.4903594,76.4967476 19.9938698,77.2334937 19.6609636,78 C19.3201651,77.912897 18.9800842,77.825794 18.6392857,77.7394169 C19.3373844,73.2093357 19.6968371,68.5921514 20.8067638,64.1680455 C22.9520003,55.6123545 25.1431549,47.0290809 28.0603896,38.7252627 C29.7019619,34.0529132 31.5243367,28.5842973 38.1408488,28.4100913 C38.3431754,28.4042844 38.5268479,27.6820555 38.7306094,27.2704939 C34.6137643,25.9617715 33.2563103,23.7457263 33.8948589,18.2850948 C32.7669954,20.6818787 32.4096952,22.5603998 31.2861365,23.5076448 C30.2257153,24.4011763 28.3581398,24.3147991 26.8464297,24.6595818 C26.7567459,24.3431076 26.6670621,24.0266334 26.5773783,23.7101592 C27.1420275,23.4488503 27.6894574,23.1323761 28.2763482,22.9400236 C29.1294205,22.6598424 30.5033763,22.7287989 30.7817548,22.1880345 C31.4411101,20.9090723 32.3372307,18.591407 31.8027152,18.0549977 C29.8569355,16.1009874 29.1193759,14.1593166 29.8110174,11.499772 C29.9128982,11.1070827 29.191123,10.4951842 29.3267249,9.63213877 C30.5335101,10.7361691 31.7410128,11.8401995 32.9492329,12.9398747 C34.1811296,12.2735369 35.4108739,11.6115542 36.9376509,10.7898827 C33.9931524,10.0066816 31.3141179,9.29316297 28.4126676,8.52084981 C30.0944182,2.49985576 35.7990254,2.08902 40.1942491,0 C39.3131954,0.598833043 38.4565358,1.23758829 37.5475008,1.78778883 C35.5550854,2.99489107 33.5145996,4.1206972 31.5480132,5.36699578 C31.1612967,5.61161001 30.8836356,6.2322188 30.8219332,6.71491453 C30.7932344,6.93702715 31.4920505,7.5235206 31.7080091,7.45456407 C32.1528408,7.31229585 32.571126,6.8978308 32.8652889,6.49497948 C34.9531278,3.63654975 36.7468038,3.40427512 39.7874434,5.95203752 C39.9632236,4.97648405 40.1074352,4.17804 40.2889552,3.17272634 C43.4472599,4.45023683 48.0971856,3.23152086 48.364802,9.07976065 C48.6934035,8.12380536 49.5701523,6.84629487 49.2429858,6.27577029 C48.4229171,4.84582957 47.1264481,3.65759964 45.8809195,2.52961595 C45.2545678,1.96199481 44.3240087,1.73770461 43.7564896,0.902967643 C47.5798894,0.995877497 50.0042219,3.17490392 50.5667187,6.64378042 C50.7747851,7.93000121 49.0363543,9.53922892 48.2815755,10.8370634 C48.8168084,12.5384751 50.075969,14.5636196 49.9238652,16.4711751 C49.6024385,20.4728315 48.5384299,24.4120641 47.724101,28.6670451 C49.2810117,30.0251259 50.4806223,32.6360379 54.0155989,30.3895067 C54.8851731,29.8371286 58.6640897,32.4930439 59.9763431,34.4492318 C62.4910768,38.1990154 64.1957865,42.5040806 66.3209338,46.7459961 C68.7847272,46.2545901 68.9203291,38.4719381 65.8703624,31.8840488 C66.9228915,31.1248011 68.0077068,30.3430518 69.0918045,29.5620283 L69.4785211,29.9605245 C68.77827,30.7139653 68.0787363,31.4674062 67.3275448,32.2752864 C69.0494738,35.4168008 70.7785775,38.5721066 72.5076811,41.7266865 L72.002582,42.2362389 C71.2851116,41.8217739 70.5683586,41.406583 69.7719665,40.9463889 C69.8745648,44.8914284 71.6976571,47.4304805 74.6392857,47.6155743 C68.6979133,48.6201621 70.5927526,53.5988237 69.1793359,57.6454834 C70.3430729,56.9268837 70.9873614,56.5291134 71.6294974,56.1284397 C71.627345,56.1255363 71.5240292,56.024642 71.5211593,56.0210127 C70.7240497,57.2607785 70.1185047,58.7008813 69.0961094,59.7061949 C67.056341,61.7131929 64.7876996,63.4821095 62.3074044,64.9955239 C65.3021259,61.4047032 69.8006653,58.8540374 68.3233937,51.9525773 C66.7700703,54.1831396 65.1844607,55.6755041 64.5903952,57.4981342 C63.7229735,60.1598563 62.7873921,62.1087857 59.4669391,61.5331801 C59.5709723,58.6188593 60.0545473,55.4882327 56.9070047,53.2939633 L56.9070047,61.1107306 C56.8101462,61.1056496 56.7132877,61.0998427 56.6164292,61.0947617 C55.8064051,57.4291776 54.9956635,53.7628677 54.1913792,50.1030905 C56.2985898,51.5685983 58.4007781,53.029025 60.5065537,54.4909035 C64.365827,46.7191394 64.6757742,42.9635489 61.6107406,38.3209596 C61.7398853,39.6173424 61.8338739,40.5595064 61.9278626,41.5016704 C61.7212311,41.5357857 61.5138821,41.5699011 61.3065332,41.6040164 C60.9011624,40.0833434 60.4957916,38.5626704 60.0904209,37.0427233 C59.8744623,37.0993402 59.6577862,37.156683 59.4418276,37.2140258 C59.6075633,38.1032022 59.7732989,38.9931043 60.1155323,40.8287998 C58.0492176,37.0485301 56.463608,34.1472748 54.8779984,31.2467453 C54.6835639,31.381029 54.4898469,31.514587 54.2954124,31.6488707 C55.310633,34.3338203 56.3258536,37.0194958 57.3410743,39.7044454 C57.0504988,39.81405 56.7592058,39.9236546 56.4686303,40.0332592 C55.7045243,38.0589248 54.9404183,36.0845904 54.1770298,34.110256 C53.9617887,34.177035 53.747265,34.2445398 53.5320239,34.3113187 C54.340613,37.3141943 55.1499197,40.3163439 55.9585088,43.3199453 C55.7009369,43.3976121 55.4440825,43.4760048 55.1872281,43.5536716 C54.4374715,41.7716897 53.687715,39.9889818 52.9386759,38.2069999 L52.1860494,38.4842777 L54.2954124,50.2119692 Z" id="Fill-3" fill="#231916"></path>
                <path d="M38.3837711,72.9099173 C38.3837711,74.0488988 38.4587245,74.7638904 38.3623559,75.4552872 C38.2681289,76.1288093 37.9654603,76.7708717 37.8105568,77.4401038 C37.1452569,80.3136549 38.11965,81.2560138 41.5168196,80.9585773 C40.5138729,80.2614605 39.5637504,79.6008083 38.6143418,78.9401561 C38.6914367,78.7935828 38.7685315,78.6470096 38.8449125,78.5004363 C39.8043149,78.8800968 40.7630035,79.2597573 42.6725283,80.0155034 C41.1698929,78.1436555 40.2704531,77.0218338 39.3695857,75.900727 C39.51164,75.7741735 39.6522667,75.648335 39.7936073,75.5224964 C40.657355,76.1953035 41.5211027,76.8681106 42.3841365,77.5409176 C42.5961473,77.3314251 42.8081581,77.1226476 43.0194551,76.913155 C41.596056,75.6840845 40.1726569,74.455014 38.3837711,72.9099173 M41.7709471,62.9779695 C43.8053941,60.6528169 45.8077183,58.2969197 47.9306817,56.0561362 C48.1205634,55.8552235 49.2669922,56.2277341 49.6703124,56.6331343 C50.6525577,57.6198227 51.248615,59.1470447 52.3786254,59.798402 C54.6879013,61.1275713 57.2463077,62.0234557 60.4714417,63.4355641 C60.7369906,65.1830035 61.1881382,68.1502184 61.6392857,71.1174334 L60.0402817,71.3440857 C59.6219708,68.7651112 59.2043738,66.1861366 58.8417425,63.952503 C57.2498769,63.8245195 55.7351062,63.7029709 53.6685363,63.5370929 C49.3048258,72.762629 46.6514785,83.0363428 46.2053278,93.9249493 C44.6534373,82.4100102 49.0828212,72.1241415 52.1173596,61.4521775 C48.9000779,64.3200086 46.680746,67.8792366 45.5992767,71.9275189 C44.1344749,77.4122191 42.7160726,82.9827184 42.1193015,88.6054121 C41.501829,94.4182935 42.9709139,99.9480382 47.7736367,104.649108 C50.2463821,101.53389 52.5413812,98.6417486 55.1311966,95.3785271 C55.9563969,96.6333373 56.5703002,97.5656863 56.6995055,97.763024 C55.0662371,98.5588096 53.58002,98.8569611 52.7683827,99.7614254 C50.8238796,101.92928 49.1970358,104.383131 47.2325451,107 C46.132516,105.672261 45.5614432,104.982294 44.9896565,104.288037 C44.766938,104.331651 44.484257,104.308057 44.3322088,104.438185 C41.2541261,107.077219 40.679484,107.134418 38.9576994,103.585915 C36.2236881,97.9503518 34.8331256,92.081701 36.1287472,85.6660817 C37.0289008,81.2066794 36.8647173,76.5284896 37.8091291,72.083387 C38.4994134,68.8358953 38.9391395,65.223758 41.8844478,62.8578509 C40.6609242,66.1997215 41.6995629,68.270337 45.4293826,69.1004422 C44.6405882,67.9578857 43.9924205,67.0183868 43.3442528,66.0796029 C43.4820241,65.9902289 43.6190816,65.900855 43.7568529,65.812196 C44.4828293,66.3655995 45.2080918,66.919003 45.9340682,67.4716914 C46.0347198,67.3630127 46.1353714,67.253619 46.2367368,67.1449403 C45.5071912,65.8872701 44.7769318,64.630315 44.0466724,63.3726448 C44.2222773,63.105953 44.3971684,62.8385461 44.5727733,62.5711393 C45.6306858,63.0759233 46.6893121,63.5799924 47.8721467,64.1441207 C47.7864858,64.2728192 48.1890922,63.9296232 48.1291295,63.7151258 C47.1654441,60.2517066 45.3094573,60.0457891 41.7709471,62.9779695" id="Fill-5" fill="#231916"></path>
                <path d="M72.3173794,185.726062 C71.3335518,188.033942 70.3526199,190.335975 69.1016602,193.271615 C70.8152143,193.353465 72.0900639,193.358581 73.3504347,193.489395 C74.8301578,193.642864 76.698634,193.406814 77.6918728,194.220199 C80.1908963,196.26572 81.9833593,195.349292 84.1225872,193.442623 C83.4833526,192.352264 82.8564249,191.281635 82.37718,190.463135 C80.6744849,191.006853 79.359819,191.426335 78.045153,191.846547 C77.9626244,191.588573 77.8800959,191.330599 77.7968433,191.071895 C78.8277267,190.519407 79.8586102,189.965457 80.6773806,189.526244 C77.9937536,188.306532 75.4751838,187.161361 72.3173794,185.726062 M65.7201599,193.289885 L58.7226044,193.289885 C58.6950949,193.79414 58.6675853,194.297664 58.6393519,194.801919 C61.2361066,195.005814 64.4264881,196.231372 66.2703505,195.139551 C68.2828898,193.947609 69.0495369,190.610757 70.2107286,188.481925 C65.196031,186.756496 58.9361652,188.674857 56.2445749,182.051578 C56.143224,181.802374 53.8107055,181.991653 53.7310727,182.297129 C53.1729188,184.453732 52.9325724,186.694378 52.5872554,188.927715 C51.7851354,188.75963 51.7851354,188.75963 51.567231,180.0996 L58.3845267,180.0996 C57.6714508,183.97067 58.3729438,184.823519 62.1424732,185.234231 C64.0218085,185.438856 65.8736341,185.91534 67.7536933,186.089272 C68.691913,186.176237 70.1028623,186.219355 70.551702,185.664674 C72.7857654,182.901504 74.8656306,184.29734 76.8340098,185.747986 C79.1867985,187.482184 81.3824933,188.476078 83.7374538,185.853953 C83.9676651,185.598171 84.3325284,185.281733 84.6235502,185.292695 C89.291483,185.476858 90.5453384,183.250828 89.0938487,179.002663 C89.0105962,178.757113 89.3240601,178.373441 89.4746385,178 C91.6305169,181.56194 90.7125674,185.139226 87.3889819,186.411556 C82.2077792,188.39569 81.9905987,189.560592 86.0779356,193.444085 C83.4587388,196.878865 77.1445779,198.985773 72.9225891,197.898337 C70.0985187,197.171186 66.4962182,195.559763 64.7370562,198.347781 C63.4332493,200.415226 62.2054556,200.388917 60.5425769,200.657122 C57.8430234,201.091951 55.1536049,201.598398 52.4446402,201.958685 C51.6548271,202.06319 50.7144356,201.975493 50.0143905,201.626169 C48.026465,200.633006 46.1550931,199.406716 44.1859899,198.372629 C42.4731597,197.473739 42.0568971,195.344176 43.5786085,195.206785 C47.7339953,194.831882 48.004023,191.737657 49.1051281,188.085829 C49.685724,189.791526 49.9919485,190.691876 50.3481245,191.736196 C53.2141831,191.289674 56.0751741,190.844615 58.9368891,190.399555 C59.0092826,190.699915 59.0824001,191.000276 59.1547936,191.300636 C56.1113709,192.064327 53.0679482,192.828748 50.0245256,193.593169 C50.0462436,193.782447 50.0672377,193.972456 50.0889558,194.161735 C55.2513361,193.226305 60.4144404,192.290145 65.5760969,191.354716 C65.6246005,192.000016 65.6723802,192.644585 65.7201599,193.289885" id="Fill-7" fill="#231916"></path>
                <path d="M37.6392857,62.0339514 C37.2748976,66.082841 37.1474691,70.1714609 36.4845547,74.1697844 C35.6741669,79.0595138 33.180721,83.9969197 33.6446179,88.6894418 C34.3061005,95.3771526 32.149123,101.190795 30.8998945,107.351897 C30.4438723,109.599193 30.5168932,111.973627 30.5025754,114.290993 C30.4574743,121.634617 30.2563091,128.989076 30.5670055,136.318975 C30.7731819,141.185588 31.7603946,146.017528 32.3739126,150.867527 C32.4512287,151.480097 32.3846509,152.112172 31.9121633,152.770252 C29.6656996,146.53908 29.0493181,140.091918 29.069363,133.538568 C29.0894079,127.000388 29.0736583,120.462208 29.0736583,114.384901 C27.2173548,116.434268 25.0009584,118.534923 23.2391524,120.970758 C22.347869,122.203123 22.5146714,124.165805 21.7837474,125.577318 C20.6984578,127.672916 19.2423369,129.572752 17.7840684,131.800544 C16.5570324,142.735074 16.1869171,154.267727 18.3417469,165.853113 C17.7382514,164.88008 17.13404,163.905601 16.5305444,162.931845 C16.3501401,162.978077 16.1697357,163.024308 15.9893314,163.07054 C16.1103168,164.670592 16.2313023,166.269921 16.3522878,167.869973 C16.12893,167.913315 15.9055722,167.956658 15.6822144,168 C15.2526803,166.300983 14.8224302,164.601967 14.43227,163.057538 C13.9118177,164.239337 13.2990157,165.632068 12.6869294,167.024799 C12.383392,166.937392 12.0805704,166.849263 11.7777488,166.761856 C12.0376169,164.633029 12.298201,162.504201 12.5609328,160.355148 L16.592111,160.355148 C15.9886155,155.822269 15.1782277,151.203429 14.8331686,146.549193 C14.6420258,143.980441 15.0565263,141.320671 15.5068213,138.756977 C16.6035653,132.507023 14.4265429,127.771881 8.63928571,124.099346 C13.1658601,123.832792 15.0099935,126.125597 16.037296,129.377711 C18.7412137,128.433573 20.7249457,125.41045 21.2232053,122.239963 C22.3399942,115.141946 23.5298039,108.052597 24.8627916,100.992865 C25.1971124,99.2201664 26.1843251,97.5731605 27.0491206,95.9832219 C25.4913433,103.753767 23.9328501,111.524312 22.3750728,119.294857 C22.8511399,119.512291 23.326491,119.730447 23.8025581,119.94788 C25.3073595,117.206482 27.2116277,114.608836 28.2374985,111.695514 C30.7316602,104.615556 32.7196876,97.4192955 32.5442945,89.7224323 C32.3681855,82.0125665 32.7025062,74.2911428 32.8514114,66.575498 C32.8557068,66.3522854 33.2938316,66.1370188 34.2416704,65.2578933 C33.9059178,70.9126136 33.6159823,75.8023429 33.3260467,80.6927947 C33.6782647,80.7397488 34.0304827,80.7867029 34.3827008,80.833657 C35.1451239,74.5562529 35.9075471,68.2781265 36.6699703,62 C36.9928368,62.0115579 37.3164192,62.0223935 37.6392857,62.0339514" id="Fill-9" fill="#231916"></path>
                <path d="M93.2321951,19.8558339 C91.9360276,21.3202421 90.6941729,22.7242776 89.3730509,24.2173997 C90.2141652,25.127409 91.9235503,26.1677352 92.2597025,27.5460018 C92.6824615,29.2761975 91.979331,31.2824883 91.776759,33.0465517 C89.8471869,33.3373718 87.8860547,33.6326095 85.4471167,34 C86.2794236,33.3947996 86.7102561,33.0818919 87.1587037,32.7564678 C86.2456616,32.42 85.3935379,31.9289189 84.4907712,31.8030195 C80.004828,31.1779403 80.1567571,31.1956104 79.768494,27.4031686 C79.6062896,25.8180148 78.6220537,24.3167939 77.6392857,21.8378283 C78.8671952,22.9451536 79.3721574,23.4008945 79.8778535,23.8566354 C80.0598748,23.7756476 80.241896,23.6939234 80.4239173,23.6129355 C79.7795033,22.2155264 79.1350894,20.8181172 78.5090244,19.4604658 C83.2320355,18.4517985 88.1289944,17.4055822 93.7386252,16.2062253 C91.5940038,15.1850417 89.7693875,14.3162625 88.3528511,13.6418543 C90.861515,12.5845943 90.7587611,12.7016586 93.3723808,14.9936157 C94.4923986,15.9757779 96.096094,16.4808478 97.5566677,16.9756102 C99.4759644,17.625722 98.9629287,17.5086577 98.8843953,19.6452654 C98.8073299,21.7310716 100.002211,23.863998 100.639286,25.9770455 C95.9669176,27.1336998 92.4211729,24.2284435 93.2321951,19.8558339" id="Fill-11" fill="#231916"></path>
                <path d="M50.6392857,179.579302 C46.6464747,181.363012 42.7999783,183.415671 38.3567478,180.644838 C37.3798826,180.035123 35.7560773,180.499005 34.4299219,180.483616 C33.8346222,180.47702 33.0098095,180.773084 32.6791671,180.47702 C30.0849517,178.155412 26.9829385,178.594378 23.905311,178.236024 C22.00609,178.015442 20.4468352,177.525911 18.4099063,178.193519 C14.7570616,179.393163 9.47323935,176.585689 7.82217937,173.056376 C7.57975614,172.53973 7.57473554,171.368667 7.82863442,171.235292 C9.56647905,170.32365 11.3667226,169.162114 13.2221927,169.003822 C14.2657601,168.915882 15.8049325,170.363223 16.5099681,171.510836 C18.7986442,175.234349 23.6428054,177.446765 27.7704553,176.104219 C28.9287793,175.727544 29.8869966,174.710375 31.7603974,173.41986 C30.9348674,175.235082 30.500227,176.190693 29.756461,177.827837 C31.9196221,177.715714 33.9321653,178.173 35.3357814,177.429177 C39.035246,175.469588 42.6945457,176.970425 46.3588661,176.88102 C49.4271696,176.805538 49.8245142,176.437657 50.6392857,172.442997 L50.6392857,179.579302 Z" id="Fill-13" fill="#231916"></path>
                <path d="M67.7466895,124 C67.7722147,142.648633 65.2774998,161.482649 71.6392857,179.662416 C71.2406418,179.774944 70.8427487,179.887472 70.4441048,180 C69.3202443,177.328902 67.4246213,174.714069 67.2099091,171.97733 C66.372832,161.308808 65.872838,150.606384 65.6498677,139.908288 C65.5402594,134.64039 66.3097697,129.355179 66.6813869,124.077904 C67.0364878,124.051936 67.3915886,124.025968 67.7466895,124" id="Fill-15" fill="#231916"></path>
                <path d="M23.6488929,21.2420535 C24.2097859,22.9810319 24.7268811,24.584709 25.2856547,26.3179905 C25.3075536,26.327248 25.5046432,26.4632615 25.7165674,26.4931702 C27.022021,26.6761831 28.3310065,26.8349841 29.6392857,27.0023305 C29.068503,29.6606461 28.8763583,32.4898686 27.796251,34.9181718 C27.0721764,36.5453486 25.0885652,37.6042597 23.5782515,39 C23.7075253,38.3712048 23.8495146,37.6790315 24.0169348,36.8608144 C23.0456152,37.2595973 22.0969009,37.6484107 20.1556745,38.4445523 C21.7330975,35.8538875 22.7609302,34.1668932 24.3348212,31.5812132 C22.5059147,33.0025895 21.4032021,33.8585486 20.3011959,34.7152198 C20.0807946,34.5599793 19.859687,34.4047388 19.6392857,34.2494983 C20.7257508,32.6800026 21.8122159,31.111219 22.2925776,30.4176215 C22.6994722,27.7237004 22.989102,25.8045575 23.3303001,23.5464491 C21.189865,21.8964848 21.7295655,20.339095 26.8100967,17 C25.703852,18.4847543 24.5976073,19.9687965 23.6488929,21.2420535" id="Fill-17" fill="#231916"></path>
                <g id="编组" transform="translate(0.639286, 77.000000)">
                    <mask id="mask-4" fill="white">
                        <use xlink:href="#path-3"></use>
                    </mask>
                    <g id="Clip-20"></g>
                    <path d="M4.6974,0.704527778 C3.67215,5.85036111 2.0799,10.6986389 1.87665,15.6003611 C1.56765,23.0573056 2.2434,30.5503611 2.4594,38.02825 C2.62965,43.91725 4.25115,48.9453611 11.3994,51.0311389 C7.24965,52.4069722 2.01015,48.7438611 1.7754,44.9493056 C1.20465,35.7026944 1.11015,26.4141944 0.1209,17.2116389 C-0.5031,11.4049722 1.3614,6.55669444 3.9714,1.69541667 C4.16115,1.34080556 4.4514,1.03530556 4.6974,0.704527778" id="Fill-19" fill="#231916" mask="url(#mask-4)"></path>
                </g>
                <path d="M57.8654078,177 C56.4922838,166.951487 61.7012816,119.029708 64.6392857,114 C62.3946115,134.874742 60.0988023,156.227015 57.8654078,177" id="Fill-21" fill="#231916"></path>
                <path d="M45.6392857,157 C52.4799264,140.125408 53.7407327,123.521046 54.5441511,107 C58.2929388,110.381149 51.6966868,151.768529 45.6392857,157" id="Fill-23" fill="#231916"></path>
                <path d="M15.6392857,67.5287026 C15.1435479,68.2469538 14.8084524,69.3065378 14.1266313,69.6260833 C10.3584425,71.3886674 8.5768394,73.909446 8.35368471,78.3794523 C7.96988771,86.0623437 6.53355651,93.6864096 5.78340783,101.359134 C5.49556008,104.304036 5.88953352,107.315027 5.94332325,110.296241 C5.95349968,110.862708 5.82556735,111.43208 5.76160118,112 C5.38725373,111.966593 5.01363317,111.934638 4.63928571,111.901231 C4.98165008,105.320046 5.23969541,98.7323241 5.69472746,92.1591272 C6.01310452,87.5656602 6.83085381,83.0005164 7.00167255,78.4070494 C7.15286531,74.3175928 8.07528651,71.0132014 12.1720287,69.2143053 C13.1664119,68.7778352 13.9020228,67.7545632 14.7575703,67 C15.0512331,67.1764763 15.344896,67.3529526 15.6392857,67.5287026" id="Fill-25" fill="#231916"></path>
                <path d="M25.3543695,147 C24.7829409,139.035491 24.2107143,131.070981 23.6392857,123.107191 C24.1117518,123.071221 24.5842179,123.035251 25.057482,123 C25.585016,130.982495 26.1125499,138.964989 26.6392857,146.947484 C26.2115124,146.964749 25.7829409,146.982734 25.3543695,147" id="Fill-27" fill="#231916"></path>
                <path d="M34.67809,40 C34.7784876,43.6605437 34.7962886,47.3262307 34.9999319,50.9808964 C35.2477217,55.426892 37.1723648,59.0580456 40.6392857,62 C37.2250557,61.2277737 36.8298737,60.8515797 34.9686022,56.3835415 C32.719981,50.9853049 33.8072655,45.5216752 34.7250846,40.0558413 C34.7158281,40.0440852 34.67809,40 34.67809,40" id="Fill-29" fill="#231916"></path>
                <path d="M18.6392857,68 C13.6436061,75.3885411 16.7569328,84.1147683 14.6392857,92 C15.7034266,83.9638204 12.9058194,75.3641019 18.6392857,68" id="Fill-31" fill="#231916"></path>
                <path d="M79.6392857,103 C81.676792,107.41368 83.7089765,111.817589 85.6392857,115.999558 C83.0201778,116.058881 79.9464322,110.142568 79.6392857,103" id="Fill-33" fill="#231916"></path>
                <path d="M73.6392857,18.7332243 C75.6771612,17.289125 78.2983444,16.2121935 79.6218901,14.3187878 C81.7996706,11.2010218 83.9781914,14.8010902 85.6392857,13.2432603 L73.8428512,19 C73.7754895,18.9108407 73.7073876,18.8216815 73.6392857,18.7332243" id="Fill-35" fill="#231916"></path>
                <path d="M97.6006566,67.1975509 C98.0394302,67.1082275 98.4782037,67.0181895 98.9162336,66.9288661 C98.0089391,63.9761912 97.1016446,61.0228018 96.1936065,58.0708416 C95.8648982,58.1665963 95.5354462,58.262351 95.2059941,58.3581057 C96.0047108,61.3043492 96.8026837,64.2505928 97.6006566,67.1975509 M98.232788,73 C96.0813102,65.8212557 93.9298324,58.6417969 91.6392857,51 C99.6376071,56.9925293 101.221654,61.96963 98.232788,73" id="Fill-37" fill="#231916"></path>
                <path d="M97.2209654,67 C96.3606728,64.0939555 95.5003801,61.1886157 94.6392857,58.2832759 C94.9944671,58.1888506 95.3496485,58.0944253 95.7040281,58 C96.6829818,60.9109771 97.6611338,63.8233636 98.6392857,66.7350454 C98.1670468,66.8231287 97.6940061,66.9119167 97.2209654,67" id="Fill-57" fill="#FEFEFE"></path>
            </g>
        </g>
    </g>
</svg>