<?xml version="1.0" encoding="UTF-8"?>
<svg width="132px" height="201px" viewBox="0 0 132 201" version="1.1" xmlns="http://www.w3.org/2000/svg" xmlns:xlink="http://www.w3.org/1999/xlink">
    <!-- Generator: Sketch 60 (88103) - https://sketch.com -->
    <title>figure39</title>
    <desc>Created with Sketch.</desc>
    <defs>
        <polygon id="path-1" points="0.9835 0.332 123.136 0.332 123.136 200.9102 0.9835 200.9102"></polygon>
    </defs>
    <g id="页面-1" stroke="none" stroke-width="1" fill="none" fill-rule="evenodd">
        <g id="29-44" transform="translate(-758.000000, -262.000000)">
            <g id="figure39" transform="translate(758.000000, 261.000000)">
                <g id="编组" transform="translate(8.000000, 0.668000)">
                    <mask id="mask-2" fill="white">
                        <use xlink:href="#path-1"></use>
                    </mask>
                    <g id="Clip-2"></g>
                    <path d="M99.5655,187.8882 C99.4285,188.0412 99.2915,188.1942 99.1535,188.3462 C99.7445,188.8522 100.3345,189.3582 100.9245,189.8642 C101.0475,189.7212 101.1695,189.5782 101.2935,189.4372 C100.7175,188.9202 100.1415,188.4052 99.5655,187.8882 L99.5655,187.8882 Z M41.6375,39.6372 C41.1365,39.2622 40.8035,39.0122 40.4705,38.7632 C40.2975,38.9932 39.9325,39.3432 39.9875,39.4332 C40.1995,39.7762 40.5235,40.0702 40.8635,40.2932 C40.9265,40.3342 41.2595,39.9632 41.6375,39.6372 L41.6375,39.6372 Z M42.0235,35.2452 C41.8375,35.4312 41.6515,35.6172 41.4645,35.8032 C41.9585,36.2682 42.4505,36.7352 42.9625,37.1772 C42.9695,37.1832 43.3835,36.7662 43.3665,36.7462 C42.9385,36.2302 42.4785,35.7402 42.0235,35.2452 L42.0235,35.2452 Z M101.9695,194.4632 C101.8925,193.7572 101.9885,193.2262 101.7655,192.9392 C101.4675,192.5522 100.9425,192.3142 100.4725,192.1062 C100.3685,192.0592 99.8955,192.4842 99.9235,192.5542 C100.1045,192.9922 100.3195,193.4492 100.6435,193.7832 C100.9035,194.0492 101.3345,194.1502 101.9695,194.4632 L101.9695,194.4632 Z M92.6605,173.0172 C92.7235,172.8342 92.7875,172.6522 92.8505,172.4682 C92.2525,172.0852 91.6835,171.6312 91.0395,171.3522 C90.7685,171.2352 90.3385,171.4862 89.9815,171.5702 C90.1325,171.9562 90.1985,172.5942 90.4515,172.6802 C91.1455,172.9162 91.9185,172.9212 92.6605,173.0172 L92.6605,173.0172 Z M54.6345,24.1942 C54.0885,23.6362 53.7775,23.3192 53.4665,23.0012 C53.0295,23.4642 52.4005,23.8682 52.2305,24.4152 C52.1385,24.7112 52.8305,25.2502 53.1695,25.6802 C53.5965,25.2462 54.0255,24.8132 54.6345,24.1942 L54.6345,24.1942 Z M71.3565,5.3332 C71.3505,5.1372 71.3445,4.9412 71.3385,4.7452 C70.9565,4.5302 70.4865,4.0572 70.2085,4.1512 C69.5945,4.3582 69.0775,4.8512 68.5195,5.2272 C68.8585,5.5462 69.2375,6.1622 69.5265,6.1222 C70.1615,6.0352 70.7505,5.6172 71.3565,5.3332 L71.3565,5.3332 Z M16.1675,46.3442 C16.5345,45.9002 17.0035,45.5552 16.9485,45.3572 C16.7305,44.5702 16.4235,43.7792 15.9815,43.0992 C15.8375,42.8792 15.1745,42.9982 14.7505,42.9622 C14.7435,43.3272 14.6535,43.7172 14.7515,44.0522 C14.8875,44.5282 15.1365,44.9782 15.3885,45.4092 C15.5515,45.6902 15.8055,45.9182 16.1675,46.3442 L16.1675,46.3442 Z M53.6405,47.8962 C53.1625,47.2092 52.8175,46.7142 52.4715,46.2202 C52.0365,46.7622 51.2545,47.3072 51.2605,47.8442 C51.2665,48.3722 52.0705,48.8922 52.5235,49.4152 C52.8535,48.9672 53.1825,48.5192 53.6405,47.8962 L53.6405,47.8962 Z M61.8355,81.5662 C61.9415,81.5072 62.0475,81.4482 62.1555,81.3892 C61.8745,81.0472 61.5925,80.7062 61.3115,80.3652 C61.1215,80.7632 60.8195,81.1482 60.7655,81.5642 C60.6665,82.3302 60.6915,83.1162 60.7065,83.8922 C60.7135,84.2842 60.7765,84.6852 60.8975,85.0552 C60.9235,85.1372 61.4495,85.1892 61.4945,85.1112 C61.7085,84.7362 61.9535,84.3172 61.9705,83.9042 C62.0035,83.1272 61.8885,82.3452 61.8355,81.5662 L61.8355,81.5662 Z M47.2675,39.3532 C47.0525,39.3962 46.8375,39.4382 46.6225,39.4812 C46.5135,40.0242 46.3575,40.5632 46.3085,41.1122 C46.2315,41.9812 46.2765,42.9952 47.4225,42.9122 C47.9325,42.8752 48.8665,41.8802 48.7725,41.6032 C48.4935,40.7782 47.7995,40.0932 47.2675,39.3532 L47.2675,39.3532 Z M38.1645,42.4332 C38.4215,42.5222 38.6375,42.6462 38.8615,42.6632 C39.3295,42.7002 39.8005,42.6792 40.2705,42.6822 C40.1625,42.2102 40.1045,41.7202 39.9275,41.2762 C39.8135,40.9872 39.5475,40.7432 39.3115,40.5212 C38.6845,39.9322 38.1585,39.8132 37.6615,40.7422 C37.4325,41.1682 36.9025,41.4262 36.5335,41.7852 C36.3075,42.0052 36.1285,42.2742 35.9285,42.5202 C36.2485,42.6592 36.5825,42.9372 36.8845,42.9072 C37.3265,42.8632 37.7465,42.5982 38.1645,42.4332 L38.1645,42.4332 Z M61.9515,70.0502 L61.8855,70.0502 C61.8855,68.5122 61.9735,66.9652 61.8305,65.4402 C61.7895,65.0012 61.0805,64.6252 60.6765,64.2212 C60.5405,64.6622 60.3825,65.0992 60.2785,65.5472 C60.2405,65.7132 60.3705,65.9112 60.3545,66.0882 C60.1975,67.8262 59.9805,69.5602 59.8825,71.3012 C59.8505,71.8702 60.1245,72.4542 60.2435,73.0342 C60.3915,73.7582 60.4865,74.4962 60.6775,75.2082 C60.7835,75.5992 61.0385,75.9492 61.2265,76.3172 C61.4675,75.9942 61.9055,75.6812 61.9195,75.3502 C61.9885,73.5862 61.9515,71.8182 61.9515,70.0502 L61.9515,70.0502 Z M47.9035,50.8582 C46.8165,49.7662 46.1965,48.9362 46.4745,47.6572 C46.6535,46.8402 46.7315,45.9852 46.7095,45.1502 C46.7015,44.8392 46.2815,44.5392 46.0485,44.2342 C45.8435,44.5402 45.4765,44.8382 45.4605,45.1552 C45.3795,46.6472 45.3085,48.1512 45.4235,49.6352 C45.4655,50.1722 45.9285,50.9352 46.3905,51.1222 C47.2035,51.4522 47.2835,51.8632 47.2115,52.6122 C47.1755,52.9832 47.5255,53.7232 47.6915,53.7202091 C48.2975,53.7102 49.1755,53.6552 49.4565,53.2622 C50.5145,51.7782 50.0205,48.9672 48.4325,47.1882 C48.2555,48.4092 48.1005,49.4862 47.9035,50.8582 L47.9035,50.8582 Z M52.9495,28.2492 C52.9305,28.0722 52.9115,27.8942 52.8925,27.7152 C52.3085,27.6002 51.6225,27.2302 51.1565,27.4142 C49.3135,28.1472 47.5435,29.0612 45.7375,29.8902 C44.5335,30.4422 43.3125,30.9582 42.1045,31.5032 C41.7355,31.6692 41.3835,31.8772 41.0245,32.0672 C41.4535,32.2612 41.8655,32.5312 42.3155,32.6312 C43.0085,32.7852 43.8735,32.6052 44.4045,32.9572 C45.3315,33.5742 45.8315,33.2642 46.6005,32.6992 C48.2585,31.4782 50.0475,30.4362 51.7625,29.2912 C52.1975,29.0012 52.5555,28.5992 52.9495,28.2492 L52.9495,28.2492 Z M65.0085,6.2922 C64.9295,6.7752 64.8785,7.2582 64.7645,7.7252 C64.6485,8.2012 64.6125,8.8242 64.2945,9.1022 C62.5475,10.6362 60.7875,12.1712 58.9025,13.5262 C57.9515,14.2092 56.6465,15.0392 55.6405,14.8872 C52.6845,14.4372 50.0435,15.7432 47.2295,15.9472 C46.9165,15.9702 46.6385,16.4942 46.3435,16.7862 C46.7135,16.9732 47.0905,17.3322 47.4515,17.3162 C48.9385,17.2482 50.4195,16.9682 51.9035,16.9702 C52.6425,16.9712 53.7535,17.2012 54.0395,17.7012 C54.5945,18.6792 53.6905,19.2752 52.8245,19.6652 C52.7415,19.7032 52.6175,19.7622 52.6045,19.8282 C52.5215,20.2742 52.4625,20.7232 52.3965,21.1712 C52.8115,21.0952 53.3665,21.1632 53.6175,20.9192 C54.9775,19.5952 56.3055,18.2312 57.5565,16.8032 C58.2745,15.9832 58.9175,15.6472 59.9655,16.2322 C60.3065,16.4212 60.9985,16.3102 61.3335,16.0662 C61.5595,15.9012 61.4095,15.2592 61.4875,14.8412 C61.5805,14.3502 61.6165,13.7792 61.8945,13.4062 C62.3635,12.7792 62.9725,12.2412 63.5895,11.7492 C63.8215,11.5652 64.3395,11.4542 64.5575,11.5882 C65.3995,12.1042 65.8715,11.6822 66.3045,11.0502 C66.9195,10.1542 67.6245,9.4932 68.8525,9.6992 C69.1755,9.7522 69.5965,9.5672 69.8855,9.3672 C70.1205,9.2042 70.4115,8.7772 70.3405,8.6062 C70.2265,8.3282 69.7885,7.9432 69.5705,7.9902 C67.8475,8.3622 66.5785,7.7562 65.5895,6.3712 C65.5365,6.2972 65.3295,6.3312 65.0085,6.2922 L65.0085,6.2922 Z M85.2345,156.4522 C85.0865,155.8102 85.1015,155.3272 84.8815,155.0072 C83.2835,152.6732 82.8105,149.7162 80.7675,147.6222 C80.4745,147.3222 80.4215,146.7802 80.2825,146.3412 C80.0865,145.7262 79.9815,145.0732 79.7185,144.4892 C78.3685,141.4932 76.9885,138.5112 75.5915,135.5362 C75.4375,135.2082 75.1125,134.9602 74.8665,134.6752 C74.7625,135.1242 74.4575,135.6482 74.5895,136.0092 C75.3535,138.0882 76.1965,140.1392 77.0635,142.1782 C77.7535,143.7972 78.6695,145.3372 78.3595,147.2182 C77.9845,149.5012 78.7165,151.4902 79.8685,153.4482 C80.7875,155.0082 81.8465,156.5932 81.3295,158.6462 C81.2105,159.1162 81.5615,159.9482 81.9655,160.2372 C82.3445,160.5072 83.4565,160.4862 83.5945,160.2352 C84.2805,158.9882 84.7515,157.6212 85.2345,156.4522 L85.2345,156.4522 Z M50.6975,35.1842 L50.2135,35.3392 C51.3425,36.5212 50.7485,37.2672 49.8185,37.9922 C49.0265,38.6102 49.0705,39.3372 49.7525,40.0342 C51.1595,41.4732 52.5215,42.9602 54.0045,44.3152 C54.8045,45.0462 55.1965,45.8132 55.1495,46.8772 C55.0545,49.0192 55.1715,51.1872 54.8755,53.2982 C54.6605,54.8242 54.1825,56.4552 53.3335,57.7072 C52.5695,58.8332 52.1165,59.8332 52.2235,61.1562 C52.2795,61.8512 52.1445,62.5642 52.2195,63.2562 C52.2815,63.8302 52.5245,64.3852 52.6865,64.9492 C52.9335,64.4672 53.2235,64.0022 53.4195,63.5002 C53.8075,62.5022 54.4255,61.7312 55.5605,61.8382 C56.6185,61.9392 57.0295,62.9492 56.7855,63.7192 C56.3455,65.1012 57.3255,66.7582 55.9185,67.9422 C55.7745,68.0622 55.9795,68.5962 56.0225,68.9382 C56.2725,68.8842 56.6715,68.9092 56.7495,68.7632 C57.2455,67.8322 57.8955,66.9052 58.0765,65.9012 C58.6735,62.5682 56.8645,59.9262 55.2615,57.2732 C54.8955,56.6662 54.5705,56.1172 55.3685,55.8212 C55.7635,55.6742 56.6305,55.9022 56.8115,56.2242 C57.7105,57.8292 58.4775,59.5112 59.2385,61.1912 C59.6865,62.1812 61.1605,62.7832 61.8775,62.1932 C62.9725,61.2892 63.0425,59.3952 62.1535,58.3052 C60.1995,55.9102 58.7275,53.3052 58.9415,50.0482 C59.0115,48.9762 59.0625,47.8962 59.0085,46.8252 C58.9805,46.2542 58.7645,45.6732 58.5375,45.1382 C58.0345,43.9572 57.1885,42.8452 57.0085,41.6262 C56.8165,40.3262 56.6505,38.8142 57.8595,37.6812 C58.0815,37.4742 58.1465,36.9572 58.0875,36.6172 C57.7045,34.3592 57.3105,32.0992 56.8025,29.8672 C56.7175,29.4942 56.0905,29.1702 55.6465,29.0012 C55.5175,28.9522 55.1145,29.4952 54.9075,29.8132 C54.6275,30.2412 54.3175,30.6882 54.1925,31.1712 C53.8775,32.3892 53.3325,32.6202 52.3235,31.8242 C52.1205,31.6632 51.5425,31.6122 51.4675,31.7262 C51.2925,31.9962 51.1755,32.4532 51.2905,32.7302 C51.4595,33.1382 51.7935,33.5342 52.1555,33.7962 C53.3495,34.6612 53.4065,35.9242 53.4085,37.1972 C53.4085,37.4432 53.1065,37.6902 52.9435,37.9362 C52.7485,37.7692 52.5185,37.6282 52.3655,37.4292 C51.7955,36.6912 51.2515,35.9342 50.6975,35.1842 L50.6975,35.1842 Z M109.3115,168.5522 C109.4475,168.5352 109.5845,168.5192 109.7205,168.5032 C109.3225,167.0622 108.7225,165.6402 108.5855,164.1742 C108.4535,162.7752 107.8065,161.8652 106.8995,160.9392 C106.2535,160.2802 105.7925,159.4442 105.2245,158.7042 C104.9475,158.3432 104.6745,157.9242 104.2995,157.6972 C101.4155,155.9432 98.3335,154.6692 94.9585,154.2852 C94.3135,154.2122 93.6105,154.6332 92.9365,154.8362 C92.3805,155.0032 91.7975,155.3952 91.2825,155.3182 C90.0735,155.1392 89.2025,155.5142 88.4245,156.3952 C88.1285,156.7302 87.6405,156.8882 87.2945,157.1892 C86.8255,157.5982 86.3835,158.0472 85.9745,158.5182 C85.5245,159.0352 84.9935,159.5402 84.7315,160.1512 C84.1405,161.5272 83.6835,162.9612 83.2055,164.3822 C83.1645,164.5032 83.3645,164.7042 83.4505,164.8692 C84.4485,166.7742 86.2855,167.7752 87.9665,168.8872 C88.5185,169.2522 89.4535,169.0242 90.2095,169.0972 C90.7365,169.1482 91.4105,169.0682 91.7575,169.3592 C94.4985,171.6522 97.1835,174.0112 99.8625,176.3772 C100.1965,176.6722 100.4325,177.1052 100.6375,177.5132 C100.9175,178.0692 103.8875,180.2042 104.4705,180.1502 C104.7195,180.1272 105.0315,179.9872 105.1815,179.7952 C107.7745,176.5112 110.2505,173.1742 109.3115,168.5522 L109.3115,168.5522 Z M29.9155,44.8192 C29.9045,44.3042 29.8835,43.7892 29.8845,43.2742 C29.8855,42.4352 30.2525,41.9322 31.1535,41.9722 C32.3345,42.0252 32.9705,41.3502 33.3105,40.3292 C33.7935,38.8832 34.2505,37.4672 36.0815,37.1622 C36.3395,37.1192 36.6215,36.5512 36.6965,36.1862 C36.9235,35.0872 37.3735,34.8382 38.3425,35.5012 C38.6585,35.7172 39.1455,35.6822 39.5535,35.7622 C39.4985,35.3382 39.5755,34.8272 39.3635,34.5082 C38.5925,33.3462 37.7735,32.2072 36.8635,31.1552 C36.6315,30.8872 35.8955,30.7632 35.5625,30.9252 C33.6555,31.8482 32.0165,33.3832 29.7195,33.3912 C29.6755,33.3912 29.6195,33.4092 29.5895,33.4402 C28.4155,34.6702 27.2485,35.9082 26.0675,37.1322 C25.7015,37.5122 25.3585,37.9812 24.9045,38.1972 C23.8985,38.6752 23.3095,39.2652 23.1375,40.4792 C23.0195,41.3102 22.3865,42.1472 21.7945,42.8142 C20.7195,44.0282 19.2735,44.9312 18.9005,46.6842 C18.8415,46.9582 18.5385,47.3022 18.2725,47.3922 C15.5435,48.3162 14.2425,50.9662 12.0615,52.4902 C9.7945,54.0752 7.8055,55.9062 5.8315,57.8022 C4.4855,59.0952 3.0005,60.2422 1.5765,61.4542 C1.3785,61.2972 1.1805,61.1402 0.9835,60.9832 C1.4575,60.1602 1.8085,59.2282 2.4295,58.5382 C3.7755,57.0452 5.2475,55.6642 6.6905,54.2612 C8.2925,52.7052 9.3475,50.9372 9.7735,48.6632 C10.0045,47.4282 10.8025,46.3112 10.5025,44.9262 C10.4595,44.7192 10.8955,44.3282 11.1865,44.1472 C11.6985,43.8262 12.6915,43.7742 12.0295,42.8432 C11.5225,42.1302 10.7185,41.7102 9.8235,42.2632 C9.4365,42.5012 9.1505,42.9062 8.8315,43.2472 C7.8455,44.3012 6.1095,44.4392 4.6075,43.4122 C5.3225,42.7782 5.9185,42.0322 6.6905,41.6142 C7.9005,40.9592 9.2085,40.4592 10.5215,40.0432 C10.9185,39.9172 11.5055,40.2192 11.9485,40.4412 C14.1595,41.5442 14.5325,41.5132 16.2035,39.7622 C17.3235,38.5882 18.4025,37.5372 20.1905,38.7082 C20.4625,38.8862 21.2445,38.5302 21.6445,38.2282 C23.1645,37.0842 24.6615,35.9062 26.0895,34.6522 C26.7935,34.0342 27.1955,32.9882 27.9695,32.5512 C29.4765,31.7012 31.1415,31.1242 32.7555,30.4732 C33.7305,30.0792 34.7455,29.7842 35.7195,29.3902 C36.1365,29.2212 36.5175,28.9382 36.8805,28.6612 C37.6845,28.0482 38.2225,28.1442 38.5435,29.1622 C39.0445,30.7582 39.3495,30.8292 40.7335,29.8502 C41.0595,29.6182 41.5265,29.3622 41.8745,29.4232 C44.0385,29.8042 45.4515,28.3932 47.0455,27.3862 C47.7145,26.9632 48.4235,26.6032 49.1065,26.2002 C50.3925,25.4372 50.5845,24.6482 49.6855,23.4782 C48.9235,22.4862 49.0805,21.5002 49.4495,20.4292 C49.6125,19.9532 49.5575,19.4032 49.6015,18.8862 C49.0715,18.9332 48.5405,18.9682 48.0115,19.0292 C47.5115,19.0852 47.0145,19.1752 46.5145,19.2382 C46.1955,19.2772 45.8015,19.1832 45.5645,19.3382 C44.2575,20.1892 43.0335,21.1692 41.6985,21.9712 C40.0215,22.9782 38.2945,23.9132 36.5315,24.7622 C35.5865,25.2182 34.4985,25.3692 33.5205,25.7712 C32.9805,25.9922 32.5505,26.4702 32.0445,26.7892 C31.5455,27.1052 31.0025,27.6072 30.4985,27.5852 C29.9235,27.5622 29.3695,27.0482 28.8065,26.7472 C29.1805,26.3482 29.5305,25.9212 29.9385,25.5612 C30.1375,25.3862 30.4855,25.3862 30.6985,25.2202 C32.3315,23.9432 33.9485,22.6462 35.5685,21.3532 C35.7135,21.2372 35.8335,20.9972 35.9775,20.9862 C37.9635,20.8232 38.7255,19.0462 39.9635,17.9242 C40.3125,17.6082 40.3155,16.9092 40.4775,16.3842 C39.9435,16.3612 39.4095,16.3482 38.8775,16.3082 C38.4535,16.2772 38.0315,16.2112 37.6095,16.1602 C37.8475,15.7172 38.0045,14.9862 38.3405,14.8912 C39.0265,14.7002 39.8205,14.7732 40.5485,14.8782 C41.8455,15.0652 42.6535,14.5542 43.3145,13.4522 C43.6865,12.8342 44.3745,12.4032 44.9335,11.9032 C45.1045,11.7492 45.3435,11.6722 45.5185,11.5212 C47.7265,9.6132 49.9555,7.7252 52.1245,5.7722 C53.4455,4.5812 54.8915,3.8172 56.6675,3.4572 C57.8085,3.2262 58.8195,2.4092 59.9305,1.9572 C60.6835,1.6512 61.5055,1.5122 62.3035,1.3262 C62.5255,1.2732 62.8445,1.4132 62.9915,1.3012 C64.0525,0.4822 65.0945,0.0342 66.2735,1.1152 C66.3605,1.1942 66.7455,0.9262 67.0005,0.8492 C67.6395,0.6552 68.2945,0.3002 68.9265,0.3342 C69.9975,0.3912 70.9515,1.4832 72.1675,0.7032 C72.2555,0.6472 72.6595,1.0552 72.8995,1.2662 C73.4125,1.7152 73.9145,2.1772 74.6555,2.8462 C74.6265,2.2072 74.5505,1.8952 74.6165,1.6152 C74.6825,1.3282 74.8295,0.9872 75.0515,0.8402 C75.1925,0.7472 75.5665,0.9232 75.7895,1.0562 C77.2075,1.9042 78.6125,2.7732 80.0205,3.6362 C80.2995,3.8072 80.6325,3.9342 80.8365,4.1712 C81.2095,4.6082 81.5035,5.1112 81.8325,5.5862 C81.2945,5.6522 80.7585,5.7182 80.2215,5.7822 C79.1445,5.9092 78.1285,5.2702 77.2175,5.2442 C75.7805,5.2042 74.3185,6.0012 72.8705,6.4532 C72.7985,6.4762 72.7355,6.5902 72.7095,6.6742 C72.3115,7.9612 71.8905,9.2422 71.5355,10.5402 C70.8895,12.8942 70.0005,15.0082 67.4885,16.0232 C66.2855,16.5082 65.2175,17.7062 64.0375,17.7832 C62.1235,17.9072 60.7525,19.0372 59.1155,19.6342 C56.7505,20.4942 55.3745,23.0782 56.0695,25.4612 C56.2035,25.9172 56.8315,26.3152 57.3215,26.5632 C58.1405,26.9792 58.8325,27.3272 58.3725,28.4582 C58.2585,28.7352 58.4785,29.1522 58.5585,29.5012 C58.7035,30.1242 58.9845,30.7462 58.9785,31.3672 C58.9675,32.4922 59.3125,33.3842 60.2135,34.0492 C60.9895,34.6192 61.0235,35.1812 60.5845,36.0852 C59.8495,37.5982 58.7935,38.9782 58.9455,40.8992 C59.0395,42.0752 59.2635,42.9842 60.1565,43.7072 C60.9125,44.3212 61.1235,45.0302 61.0375,46.0402 C60.8835,47.8532 60.6865,49.7522 61.0675,51.4922 C61.3915,52.9752 61.5925,54.5792 63.1415,55.8092 C64.1915,56.6422 64.3735,58.6142 64.8365,60.1092 C64.9345,60.4222 64.6225,60.9092 64.4085,61.2632 C63.3715,62.9822 63.6195,64.6172 64.3065,66.4432 C65.0175,68.3312 65.3715,70.3852 64.1095,72.3112 C63.8735,72.6702 63.7315,73.1622 63.7315,73.5942 C63.7155,82.0212 63.7135,90.4482 63.7575,98.8742 C63.7615,99.6722 64.1115,100.4652 64.2645,101.2662 C64.3305,101.6072 64.4415,102.0342 64.3005,102.3022 C63.3825,104.0532 63.3125,105.6572 64.5335,107.3732 C64.9315,107.9332 64.8315,109.0162 64.6495,109.7862 C64.1945,111.7172 64.3915,112.7372 66.1955,113.4892 C68.0615,114.2682 68.6095,116.0362 69.3825,117.4592 C70.5295,119.5712 70.5755,122.0572 70.5635,124.5082 C70.5585,125.6602 71.2635,126.8542 71.8135,127.9452 C71.9565,128.2262 72.7275,128.2772 73.2115,128.2792 C74.0445,128.2842 74.5445,128.5602 74.6685,129.4362 C74.7185,129.7982 74.8895,130.1462 75.0285,130.4922 C76.1545,133.3032 77.2315,136.1372 78.4415,138.9122 C78.9695,140.1262 79.8165,141.1992 80.4395,142.3762 C81.1055,143.6352 81.6925,144.9372 82.2865,146.2332 C82.7115,147.1602 83.0685,148.1202 83.5005,149.0452 C84.3285,150.8202 85.2155,152.5662 86.0215,154.3492 C86.3685,155.1172 86.7845,155.2152 87.4285,154.7512 C87.7325,154.5332 88.0325,154.3022 88.3615,154.1292 C89.1285,153.7272 89.1795,153.3062 88.6765,152.5712 C88.3115,152.0362 88.1205,151.3052 88.0795,150.6482 C88.0025,149.4142 88.3795,148.1232 87.2405,147.1182 C87.0205,146.9242 87.0895,146.4122 87.0045,146.0532 C86.8105,145.2282 86.4345,144.4072 86.4345,143.5842 C86.4355,141.5342 84.5265,139.9282 85.1685,137.7462 C85.2625,137.4232 85.2165,136.9172 85.0185,136.6712 C84.2325,135.6952 84.2415,134.5602 84.0345,133.4072 C83.6965,131.5222 82.9815,129.7032 82.4225,127.8592 C82.3815,127.7252 82.2855,127.6042 82.2665,127.4692 C81.9155,124.9212 81.5225,122.3782 81.2745,119.8202 C81.2345,119.4052 81.8365,118.9272 82.1415,118.4792 C82.5095,118.8862 82.9105,119.2702 83.2295,119.7122 C83.3415,119.8682 83.2545,120.1682 83.2605,120.4022 C83.2975,121.9162 83.0205,123.4262 83.9015,124.8872 C84.2895,125.5292 84.0265,126.5382 84.1545,127.3672 C84.2515,127.9902 84.4835,128.5942 84.6915,129.1952 C84.7815,129.4542 85.1245,129.7242 85.0755,129.9182 C84.6145,131.7452 86.0615,133.1402 86.1495,134.8392 C86.1695,135.2322 86.4045,135.6202 86.5775,135.9942 C86.6725,136.2022 86.9235,136.3602 86.9685,136.5692 C87.3715,138.4732 87.7375,140.3862 88.1275,142.2932 C88.2935,143.1002 88.5015,143.8982 88.6695,144.7042 C88.8295,145.4592 88.9705,146.2192 89.1015,146.9802 C89.1475,147.2502 89.0265,147.6332 89.1705,147.7902 C90.2895,149.0022 90.1545,150.4212 90.0025,151.8892 C89.8845,153.0312 90.7775,153.3312 91.6415,153.3812 C92.6555,153.4402 92.8365,152.6192 92.8445,151.8332 C92.8785,148.7442 92.8745,145.6562 92.9005,142.5682 C92.9045,142.1072 92.8295,141.4832 93.0855,141.2162 C94.2515,139.9962 93.9685,138.5202 93.9705,137.0962 C93.9745,134.6152 93.9215,132.1342 93.9215,129.6532 C93.9215,129.2482 94.0405,128.8332 94.1605,128.4412 C94.3815,127.7132 94.6075,126.9812 94.9085,126.2842 C95.0745,125.8992 95.3965,125.5802 95.6485,125.2332 C96.0265,125.5142 96.6435,125.7372 96.7285,126.0892 C96.8675,126.6622 96.7155,127.3332 96.5835,127.9402 C96.4035,128.7602 95.9495,129.5542 95.9225,130.3692 C95.8505,132.6592 96.3755,135.0612 95.8445,137.2182 C95.2245,139.7422 95.4705,142.3992 94.7155,144.7322 C93.9245,147.1812 94.3615,149.5482 94.0145,151.9222 C93.9615,152.2882 94.2785,152.9112 94.5945,153.0672 C94.8825,153.2082 95.5735,153.0042 95.7905,152.7242 C96.4505,151.8672 97.0755,150.9482 97.5155,149.9632 C98.1745,148.4912 98.6915,146.9512 99.2215,145.4242 C99.7585,143.8742 100.2135,142.2962 100.7505,140.7462 C101.2425,139.3232 101.7935,137.9182 102.3205,136.5072 C102.3855,136.3332 102.5385,136.1592 102.5265,135.9942 C102.3335,133.1522 104.0185,130.8022 104.6195,128.1562 C105.2515,125.3672 106.5345,122.7192 107.6265,120.0482 C107.7545,119.7332 108.4695,119.6582 108.9135,119.4712 C109.0685,119.9792 109.5045,120.6302 109.3315,120.9722 C108.3485,122.9062 107.5805,124.8362 107.4405,127.0662 C107.3765,128.0882 106.4515,129.0292 106.0785,130.0652 C105.4875,131.7052 105.0445,133.3992 104.5175,135.0632 C104.1285,136.2912 103.7315,137.5192 103.2945,138.7312 C102.4515,141.0602 101.5865,143.3822 100.7135,145.7002 C99.9605,147.7002 99.1755,149.6902 98.4155,151.6892 C97.9525,152.9042 98.8435,153.4152 99.6745,153.8302 C99.8835,153.9352 100.5315,153.5872 100.6975,153.2902 C102.9225,149.3292 105.1055,145.3462 107.2835,141.3592 C108.9335,138.3392 110.4985,135.2702 112.2175,132.2902 C113.6515,129.8062 115.3155,127.4552 116.7565,124.9762 C117.3485,123.9562 117.6125,122.7472 118.0515,121.6362 C118.2515,121.1292 118.3955,120.4572 118.7855,120.2122 C119.1655,119.9732 119.9225,120.0212 120.3315,120.2582 C120.5785,120.4032 120.6825,121.2542 120.4995,121.6022 C119.0745,124.3002 117.5905,126.9682 116.0655,129.6102 C115.4455,130.6842 114.7705,131.7552 113.9535,132.6802 C112.3255,134.5222 111.4965,136.7702 110.4425,138.9202 C109.8145,140.2022 108.8345,141.3092 108.1625,142.5752 C107.6515,143.5362 107.5105,144.7022 106.9685,145.6412 C105.8225,147.6242 104.4825,149.4942 103.3055,151.4612 C102.9115,152.1212 102.6565,152.9192 102.5595,153.6832 C102.5015,154.1432 102.7765,154.9882 103.0695,155.0712 C103.5355,155.2042 104.2595,154.9922 104.6635,154.6642 C105.5675,153.9332 106.3015,152.9962 107.1745,152.2222 C109.5745,150.0922 112.0005,147.9922 114.4305,145.9002 C116.2385,144.3432 118.0595,142.8012 119.9055,141.2912 C120.1285,141.1082 120.6715,140.9962 120.8425,141.1332 C121.2535,141.4592 121.5325,141.9532 121.8635,142.3802 C121.5835,142.5792 121.3085,142.7862 121.0215,142.9762 C120.3375,143.4272 119.6445,143.8632 118.9645,144.3192 C118.2895,144.7712 117.6275,145.2432 116.9555,145.7002 C116.8405,145.7782 116.6315,145.7922 116.5905,145.8892 C115.6945,148.0292 113.3525,148.4652 111.8605,149.9092 C109.8965,151.8122 107.8155,153.5932 105.8165,155.4612 C105.1005,156.1312 105.1715,156.7012 106.1345,157.1872 C106.6685,157.4562 107.2165,157.9182 107.4865,158.4362 C107.9775,159.3762 108.4325,159.6302 109.4665,159.1192 C111.9145,157.9092 114.5195,156.9842 116.3045,154.7382 C116.4955,154.4982 116.8585,154.2422 117.1305,154.2532 C117.6815,154.2742 118.2245,154.4732 118.7715,154.5992 C118.5085,155.0472 118.3505,155.6442 117.9635,155.9122 C117.1265,156.4962 116.1595,156.8902 115.2685,157.4042 C114.7185,157.7222 114.2375,158.1612 113.6825,158.4682 C112.6725,159.0272 111.6575,159.5862 110.5965,160.0342 C109.5525,160.4762 109.2085,161.0012 109.8445,162.0732 C110.1595,162.5992 110.2785,163.2722 110.3695,163.8962 C110.5025,164.8092 110.9055,165.2022 111.7855,164.7732 C112.6555,164.3482 113.4805,163.8322 114.3405,163.3872 C114.6635,163.2202 115.0675,162.9732 115.3705,163.0422 C117.1945,163.4632 118.4985,162.3902 119.9035,161.5792 C120.2245,161.3942 120.5665,161.1172 120.9045,161.1112 C121.5425,161.0982 122.1835,161.2502 122.8245,161.3332 C122.3775,161.8892 122.0355,162.7472 121.4655,162.9422 C119.7485,163.5312 117.8965,163.7302 116.1855,164.3312 C114.7035,164.8532 113.2785,165.6172 111.9495,166.4652 C111.0175,167.0592 110.6995,169.6832 111.2705,170.3112 C111.7845,170.8752 112.2305,171.0332 112.9455,170.4972 C113.4515,170.1192 114.1835,169.8982 114.8255,169.8742 C116.4855,169.8122 118.1625,170.1842 119.6925,169.0682 C120.1495,168.7352 120.9595,168.8422 121.6085,168.8252 C122.3325,168.8052 123.2305,168.8912 123.0335,169.8522 C122.9415,170.2992 122.1055,170.8552 121.5675,170.9022 C119.6605,171.0672 117.7345,171.0002 115.8195,171.0972 C115.2495,171.1252 114.6925,171.4042 114.1265,171.5572 C113.5645,171.7102 113.0035,171.8712 112.4345,171.9872 C112.1675,172.0402 111.8055,171.8892 111.6135,172.0182 C111.1105,172.3562 110.6765,172.7972 110.2155,173.1982 C110.7155,173.6082 111.1745,174.2982 111.7215,174.3752 C113.3325,174.6042 114.9805,174.5452 116.6065,174.6862 C117.5155,174.7652 118.4075,175.0332 119.3115,175.1852 C120.1795,175.3312 121.0715,175.3702 121.9185,175.5902 C122.3475,175.7012 122.7975,176.0392 123.0505,176.4062 C123.1855,176.6022 123.0195,177.2832 122.8185,177.3772 C122.4045,177.5712 121.6525,177.7442 121.4285,177.5272 C119.9015,176.0392 118.0525,176.7442 116.3425,176.6992 C115.3785,176.6722 114.6445,176.3342 113.7835,175.9922 C112.6605,175.5452 111.1705,175.6772 109.9375,175.9712 C109.0855,176.1742 109.1825,177.9802 110.0195,178.6162 C110.5375,179.0082 111.1495,179.2762 111.7105,179.6142 C113.5225,180.7042 115.3145,181.8322 117.1545,182.8722 C117.6055,183.1272 118.2375,183.0382 118.7425,183.2262 C119.1845,183.3902 119.6535,183.6512 119.9365,184.0062 C120.0745,184.1792 119.8415,184.9532 119.7265,184.9652 C119.2685,185.0122 118.7305,184.9822 118.3315,184.7722 C115.2215,183.1402 112.1475,181.4402 109.0305,179.8222 C108.6585,179.6292 108.0945,179.8052 107.6205,179.8102 C107.6625,180.3192 107.6285,180.8492 107.7605,181.3322 C108.2275,183.0232 109.7835,184.1512 111.0685,184.3972 C112.7735,184.7242 113.9195,185.5802 115.2475,186.4312 C116.9075,187.4952 118.7195,188.3222 120.4585,189.2662 C120.6085,189.3482 120.7075,189.5362 120.8165,189.6852 C121.4935,190.6062 122.1945,191.5102 122.8255,192.4622 C123.0335,192.7762 123.1085,193.2072 123.136637,193.5932 C123.1455,193.7242 122.7075,194.0262 122.6765,194.0012 C122.4145,193.7852 122.2185,193.4892 121.9625,193.2632 C120.6135,192.0702 119.3305,190.7822 117.8735,189.7362 C116.4095,188.6842 114.7995,187.8192 113.1925,186.9922 C112.5405,186.6582 111.7155,186.6702 110.9855,186.4692 C110.4235,186.3142 109.8145,186.1712 109.3575,185.8422 C108.7975,185.4392 108.3955,184.8252 107.8885,184.3402 C106.8635,183.3572 105.7915,182.6922 104.3145,182.2072 C101.1155,181.1582 98.0485,179.5642 96.5065,176.1372 C96.1425,175.3282 95.3465,174.6882 94.6655,174.0612 C94.4115,173.8272 93.7035,173.6622 93.5765,173.8032 C93.3075,174.1022 93.0785,174.6932 93.1975,175.0382 C93.7695,176.6982 94.3365,178.3852 95.1805,179.9112 C95.4905,180.4712 96.5475,180.6282 97.2765,180.9422 C98.0525,181.2782 99.0295,181.3872 99.5975,181.9302 C103.2835,185.4542 106.8815,189.0692 110.5045,192.6582 C110.7365,192.8872 111.0285,193.1182 111.1225,193.4062 C111.2235,193.7182 111.1285,194.0962 111.1185,194.4462 C110.7835,194.4042 110.3525,194.4812 110.1275,194.3012 C107.9855,192.5902 105.8565,190.8612 103.7795,189.0722 C103.3425,188.6972 103.1645,188.0342 102.8095,187.5462 C102.5185,187.1452 102.1415,186.8072 101.8055,186.4392 C101.4815,186.0852 101.1605,185.7292 100.8385,185.3712 C100.6035,185.1092 100.3955,184.8092 100.1195,184.6022 C100.0505,184.5512 99.5995,184.8002 99.6005,184.9072 C99.6055,185.2962 99.5995,185.8062 99.8305,186.0502 C100.6205,186.8882 101.5885,187.5632 102.3315,188.4352 C102.8245,189.0152 103.1215,189.8002 103.3685,190.5392 C103.5725,191.1492 103.4065,191.9272 103.7155,192.4442 C104.0075,192.9312 104.6755,193.2392 105.2345,193.5092 C105.8385,193.8022 106.6395,193.8052 107.1195,194.2122 C107.9195,194.8932 108.4545,195.8972 109.7045,195.9182 C109.8145,195.9192 110.0585,196.4102 109.9895,196.5412 C109.8915,196.7282 109.4925,196.9442 109.3405,196.8772 C108.9335,196.6972 108.6225,196.2462 108.2115,196.1412 C107.7925,196.0342 107.3005,196.2092 106.8405,196.2602 C106.9795,196.5982 107.0395,197.0072 107.2705,197.2582 C107.9355,197.9802 108.7275,198.5892 109.3425,199.3462 C109.5475,199.5982 109.3725,200.1602 109.3705,200.5812 C108.9995,200.4912 108.4875,200.5242 108.2835,200.2882 C107.5225,199.4142 106.3035,198.9082 106.3245,197.3852 C106.3365,196.4882 103.6195,194.8882 102.2435,194.9022 C102.4445,195.4572 102.5075,196.0152 102.8055,196.3812 C103.6355,197.3992 104.6175,198.2952 105.4265,199.3272 C105.7455,199.7352 105.7645,200.3762 105.9205,200.9102 C105.4045,200.7172 104.7595,200.6592 104.3955,200.3082 C102.9815,198.9462 101.6165,197.5282 100.3145,196.0592 C99.5485,195.1952 98.9125,194.2122 98.2595,193.2542 C97.5605,192.2282 96.9115,191.1682 96.2425,190.1212 C96.1165,189.9262 95.8775,189.7142 95.8955,189.5302 C96.0735,187.7032 94.6575,186.8522 93.6905,185.6782 C92.5305,184.2702 91.5635,182.7022 90.5105,181.2052 C90.3535,180.9822 90.2285,180.6592 90.0105,180.5652 C87.9775,179.6822 87.7305,177.7212 87.0405,175.9582 C86.3465,174.1872 85.9725,172.3502 84.6275,170.7232 C83.1625,168.9502 82.4255,166.5422 81.5125,164.3532 C80.7275,162.4722 80.1395,160.5082 79.4665,158.5802 C79.4365,158.4932 79.3975,158.3952 79.4085,158.3082 C79.7325,155.7712 77.9435,154.0022 77.1075,151.8852 C76.7255,150.9212 76.4655,149.8662 76.3895,148.8342 C76.2775,147.2982 76.3845,145.7472 76.3775,144.2022 C76.3755,143.9312 76.3565,143.5592 76.1885,143.4052 C73.8965,141.3092 73.7625,138.1892 72.8595,135.5652 C71.7425,132.3192 70.0665,129.4472 68.5975,126.4272 C68.4495,126.1202 68.5125,125.7012 68.5135,125.3342 C68.5145,125.0562 68.6515,124.7612 68.5955,124.5022 C67.7185,120.4472 67.1805,116.2532 63.3135,113.5962 C62.5325,113.0592 62.1195,111.9812 61.5505,111.1422 C60.6185,109.7682 61.2375,108.2272 61.0745,106.7712 C60.9625,105.7802 60.6315,104.8142 60.3985,103.8362 C60.2585,103.2542 60.0015,102.6732 60.0015,102.0912 C59.9985,99.6592 60.2445,97.2122 60.0435,94.8012 C59.9465,93.6492 59.3095,92.2842 58.4645,91.5082 C56.8715,90.0452 56.8725,88.0222 56.1065,86.2862 C55.5335,84.9872 55.2785,83.5462 54.8605,82.1752 C54.7945,81.9612 54.6455,81.6412 54.4855,81.6092 C52.4525,81.1942 52.8795,79.2842 52.2585,78.0142 C51.5815,76.6292 50.9185,75.2752 51.2005,73.6242 C51.2875,73.1182 50.9985,72.4192 50.6525,71.9972 C49.9995,71.2012 50.0865,70.6422 50.7705,69.9372 C51.0865,69.6112 51.4045,68.9682 51.2935,68.5972 C50.8395,67.0812 50.2775,65.5902 49.6475,64.1372 C48.9375,62.4992 48.1375,60.9002 47.3215,59.3132 C47.0505,58.7862 46.6735,58.2732 46.2295,57.8852 C44.5795,56.4462 43.4825,54.6612 42.4195,52.7572 C41.6085,51.3042 40.1335,50.2212 38.9575,48.9722 C38.6515,48.6462 38.1325,48.3392 38.0875,47.9782 C37.7985,45.6372 35.7725,44.6942 34.3605,43.2812 C34.1255,43.0452 33.3315,43.2092 32.8735,43.3892 C31.8505,43.7882 30.8775,44.3142 29.8845,44.7882 L29.9155,44.8192 Z" id="Fill-1" fill="#231916" mask="url(#mask-2)"></path>
                </g>
                <path d="M59.1397,94.8677 L59.1327,94.8677 C59.1327,95.1937 59.0297,95.5687 59.1567,95.8347 C59.3537,96.2457 59.7077,96.5827 59.9947,96.9507 C60.1207,96.5677 60.3057,96.1927 60.3597,95.7997 C60.4337,95.2507 60.4807,94.6787 60.4017,94.1367 C60.3587,93.8447 60.0257,93.5957 59.8237,93.3277 C59.5957,93.5607 59.2967,93.7617 59.1607,94.0397 C59.0517,94.2657 59.1397,94.5887 59.1397,94.8677 L59.1397,94.8677 Z M54.4437,88.1407 C54.4437,86.4517 54.5177,85.1267 54.3957,83.8197 C54.3617,83.4517 53.7527,83.1377 53.4087,82.7977 C53.1787,83.2377 52.7187,83.7017 52.7627,84.1127 C52.8737,85.1497 53.1607,86.1797 53.4877,87.1767 C53.5987,87.5137 54.0357,87.7457 54.4437,88.1407 L54.4437,88.1407 Z M37.8847,45.4567 C38.2467,45.8817 38.6277,46.2917 38.9667,46.7327 C39.5777,47.5267 40.2167,48.3077 40.7087,49.1727 C40.8017,49.3347 40.3317,50.0647 40.0067,50.1677 C39.3647,50.3697 38.6377,50.3857 37.9527,50.3527 C35.9387,50.2587 35.4087,50.9297 35.9817,53.1677 C37.3967,52.6687 38.8197,52.2057 40.2107,51.6617 C41.1637,51.2897 42.0487,50.7327 43.0107,50.3897 C44.0327,50.0247 44.6857,50.4567 44.6527,51.5857 C44.6207,52.6677 45.0457,53.1477 46.0807,53.6337 C47.0407,54.0837 47.8207,55.1327 48.4197,56.0817 C49.0867,57.1377 48.4127,57.9757 47.5637,58.7287 C45.9277,60.1777 46.1417,62.5437 47.9727,63.3547 C48.4257,63.5557 49.0867,63.5817 49.5507,63.4107 C50.8727,62.9257 51.6137,63.1657 52.2997,64.4927 C52.6187,65.1087 52.9627,65.7127 53.2797,66.3297 C53.3817,66.5307 53.5617,66.8167 53.4927,66.9637 C52.7927,68.4327 52.1987,69.9887 51.2617,71.2967 C50.7187,72.0547 50.3817,72.4237 51.2397,73.0527 C52.2747,73.8117 52.7957,74.8427 52.4547,76.1097 C51.7117,78.8747 53.6507,80.2857 55.2667,81.8627 C56.5497,83.1157 56.7237,86.1817 55.6877,87.6097 C55.4387,87.9537 55.4817,88.7087 55.6857,89.1337 C55.9967,89.7847 56.2807,90.8047 57.3687,90.3867 C58.3047,90.0267 58.8727,90.1667 59.2227,91.1507 C59.3207,91.4257 59.6217,91.6807 59.8937,91.8307 C61.7547,92.8517 62.2987,94.4817 62.2017,96.4877 C62.1137,98.3077 62.0857,100.1337 62.1237,101.9547 C62.1357,102.5317 62.3197,103.1887 62.6437,103.6567 C63.3417,104.6637 63.0967,105.4217 62.2187,106.0627 C61.1027,106.8767 60.8147,107.7287 61.8097,108.8607 C62.0607,109.1467 62.0597,109.6427 62.2077,110.0297 C62.6067,111.0657 62.8967,112.1727 63.4677,113.1037 C64.1077,114.1467 65.3247,114.8537 65.0267,116.3777 C64.9877,116.5747 65.5497,116.8887 65.8327,117.1507 C65.8587,117.7487 65.8097,118.3627 65.9397,118.9367 C66.0157,119.2727 66.3757,119.5457 66.6087,119.8467 C66.8267,119.4967 67.3117,118.9847 67.2147,118.8267 C66.8447,118.2187 66.2877,117.7217 65.8007,117.1837 C66.0437,116.6677 66.2857,116.1507 66.5297,115.6337 C66.9807,116.0447 67.6157,116.3727 67.8477,116.8837 C68.4037,118.1047 69.4227,118.7217 70.3877,119.5367 C71.4417,120.4287 72.0557,121.8737 72.7527,123.1377 C73.1187,123.8007 73.2437,124.5937 73.4907,125.3237 C73.5647,125.5447 73.7847,125.7677 73.7547,125.9617 C73.2857,128.9767 75.8007,130.6807 76.8087,133.0407 C78.0677,135.9897 79.9307,138.5447 81.6647,141.1927 C81.8007,141.3997 81.8097,141.8967 81.6667,142.0267 C81.4847,142.1927 80.9887,142.2597 80.8007,142.1257 C80.3577,141.8097 79.9797,141.3787 79.6407,140.9427 C78.7617,139.8137 77.8787,138.6827 77.0767,137.5007 C76.6877,136.9267 76.4757,136.2327 75.8977,135.5447 C75.8417,136.3297 75.7867,137.1147 75.7087,138.2247 C73.7657,136.7287 73.4377,134.7687 72.7127,133.0097 C71.9737,131.2107 72.0257,129.0607 70.2927,127.6747 C69.8707,127.3367 69.7347,126.6297 69.4917,126.0807 C68.9267,124.8067 68.5677,123.3757 66.8317,123.1297 C66.5787,123.0937 66.2917,122.7677 66.1577,122.5067 C65.2457,120.7357 64.1447,119.0197 63.5447,117.1457 C62.8247,114.8917 61.4717,113.0097 60.5477,110.9287 C59.8967,109.4617 58.6617,107.8847 59.2227,105.9517 C59.3267,105.5937 58.9727,105.0927 58.8037,104.6677 C58.2927,103.3837 57.7927,102.0947 57.2417,100.8277 C56.8897,100.0197 56.3937,99.2717 56.0687,98.4547 C55.5917,97.2547 55.3407,95.9487 54.7557,94.8097 C53.9357,93.2127 52.8397,91.7557 51.9797,90.1757 C51.6407,89.5527 51.4817,88.7587 51.4797,88.0417 C51.4757,86.8557 51.5447,85.7297 50.6497,84.7507 C50.3917,84.4677 50.4157,83.8697 50.4167,83.4167 C50.4207,81.4987 50.6067,79.5687 50.4427,77.6677 C50.3427,76.5067 49.7477,75.3837 49.3437,74.2547 C48.4587,71.7837 47.5877,69.3067 46.6417,66.8587 C46.2767,65.9157 45.6507,65.0737 45.2667,64.1357 C44.3857,61.9827 43.9567,59.8217 45.5317,57.7507 C46.1307,56.9607 45.8787,55.7687 44.9227,55.3987 C43.8007,54.9657 43.0117,54.3877 42.6407,53.1607 C42.3287,52.1317 41.5967,52.3397 40.8757,52.8877 C39.4837,53.9457 38.0917,55.0127 36.6347,55.9757 C36.2177,56.2527 35.5777,56.2587 35.0387,56.2647 C34.1997,56.2777 33.3477,56.0827 32.5237,56.1777 C32.0817,56.2277 31.4947,56.6077 31.3077,56.9997 C30.5227,58.6397 28.1747,60.2357 26.3957,60.1897 C24.5357,60.1417 23.6797,60.6867 22.8777,62.2797 C24.7747,62.2377 26.8137,62.3797 28.7837,62.0757 C29.9237,61.8997 31.3567,61.7117 31.6077,59.8137 C31.6937,59.1627 33.3007,58.4487 34.3087,58.2497 C35.7067,57.9727 37.2027,58.0727 38.6427,58.1897 C39.0997,58.2267 39.5637,58.7907 39.9217,59.2017 C40.1497,59.4637 40.1077,59.9537 40.3257,60.2307 C41.9437,62.2937 42.0017,64.6067 41.5367,67.0367 C41.4687,67.3987 41.6127,67.8007 41.6687,68.2797 C43.3457,67.1317 44.0697,67.2427 45.1007,68.8737 C46.0427,70.3627 46.9477,71.8627 46.6717,73.8087 C46.4617,75.2967 46.6527,76.7857 47.5567,78.1097 C47.8017,78.4707 47.8907,78.9907 47.8957,79.4387 C47.8977,79.6807 47.6097,79.9847 47.3717,80.1387 C47.2917,80.1897 46.8607,79.9097 46.7717,79.7027 C46.0437,78.0137 45.3717,76.3007 44.6487,74.6097 C44.5207,74.3107 44.2277,74.0827 44.0097,73.8207 C43.7967,74.0897 43.3517,74.4257 43.4077,74.6167 C43.9907,76.6327 42.8267,78.9417 44.4787,80.8027 C44.7107,81.0637 44.4227,81.7867 44.3747,82.2957 C43.9547,82.1047 43.4787,81.9837 43.1337,81.7017 C42.8687,81.4847 42.6957,81.0837 42.6057,80.7327 C41.9977,78.3637 41.4197,75.9877 40.8457,73.6107 C40.7807,73.3417 40.7397,73.0427 40.7857,72.7737 C41.1637,70.5767 40.2997,69.1237 38.1747,68.4887 C37.6847,68.3427 37.1127,68.4427 36.5787,68.4717 C35.1677,68.5497 33.7537,68.7307 32.3477,68.6807 C32.0137,68.6697 31.7057,67.9117 31.3867,67.4977 C31.7647,67.2987 32.1307,67.0727 32.5227,66.9067 C33.0287,66.6927 33.6897,66.6627 34.0437,66.3107 C34.8837,65.4787 35.7367,64.8797 36.9887,64.9787 C37.2227,64.9977 37.6367,64.6867 37.6937,64.4607 C37.7507,64.2277 37.5387,63.7497 37.3277,63.6617 C36.5957,63.3587 35.8247,63.1147 35.0447,62.9737 C34.5547,62.8867 34.0027,63.1347 33.5157,63.0387 C32.1597,62.7747 31.1547,63.1967 30.3507,64.3027 C29.6057,65.3287 28.7887,64.9577 27.9147,64.3897 C26.0157,63.1597 25.8317,63.2207 24.1027,64.5597 C23.4307,65.0797 23.3117,65.4617 23.9307,66.1337 C24.2167,66.4447 24.3857,67.0877 24.2647,67.4727 C24.1827,67.7357 23.5137,67.8327 23.0937,67.9667 C22.4397,68.1757 21.7727,68.3457 21.1157,68.5467 C20.8047,68.6407 20.4827,68.9047 20.2027,68.8597 C18.2127,68.5407 16.8097,69.8897 15.1587,70.5357 C14.6787,70.7227 14.0757,70.7537 13.5757,70.6427 C13.3827,70.5997 13.1187,69.7417 13.2327,69.6397 C13.9167,69.0247 14.6467,68.4067 15.4677,68.0087 C16.5317,67.4927 17.6957,67.1867 18.8137,66.7807 C19.7457,66.4427 19.8067,65.6507 19.5137,64.9427 C19.4167,64.7117 18.6187,64.7337 18.1377,64.7147 C17.8697,64.7027 17.5817,64.9327 17.3267,64.8947 C16.7267,64.8047 16.1407,64.6167 15.5497,64.4697 C15.8067,63.9167 15.9737,63.2937 16.3417,62.8287 C16.8607,62.1747 17.4957,61.5987 18.1427,61.0627 C18.5597,60.7177 19.1177,60.2217 19.5547,60.2717 C22.2087,60.5857 23.8917,58.6257 26.0187,57.7937 C25.6307,55.6297 25.6607,55.6767 27.8227,55.3087 C28.8667,55.1317 29.8557,54.6357 30.8687,54.2827 C30.8567,54.1287 30.8447,53.9727 30.8317,53.8177 C30.4847,53.6457 30.0687,53.5427 29.8067,53.2827 C29.4817,52.9617 29.1307,52.5237 29.0957,52.1107 C29.0777,51.9077 29.7277,51.4887 30.1107,51.4377 C32.2817,51.1527 34.1727,50.4837 35.1357,48.2907 C35.1897,48.1667 35.3097,47.9667 35.3847,47.9717 C37.1847,48.1107 37.2517,46.4957 37.9177,45.4897 L37.8847,45.4567 Z" id="Fill-3" fill="#231916"></path>
                <path d="M44.8565,103.1783 C44.9885,102.9543 45.1205,102.7303 45.2525,102.5063 C44.8585,102.3643 44.4605,102.1083 44.0755,102.1243 C43.8565,102.1333 43.4905,102.5963 43.4955,102.8483 C43.5015,103.1293 43.8025,103.5243 44.0725,103.6353 C44.2425,103.7053 44.5885,103.3453 44.8565,103.1783 M46.3765,107.3153 C46.0045,107.8883 45.6285,108.2203 45.6165,108.5653 C45.6055,108.8443 46.0325,109.1403 46.2655,109.4293 C46.5785,109.0833 46.9875,108.7783 47.1585,108.3723 C47.2265,108.2103 46.7705,107.8273 46.3765,107.3153 M53.6815,124.2373 C55.1905,124.3533 56.5485,122.9023 56.1675,121.8803 C55.7635,120.8023 55.2865,119.7473 54.7575,118.7243 C54.5775,118.3743 54.1465,118.1543 53.6975,117.7583 C53.0105,120.0273 52.9845,121.8653 55.1895,123.1033 C54.6245,123.5293 54.2725,123.7923 53.6815,124.2373 M41.9855,93.5123 C42.0705,93.7973 42.1245,94.0013 42.1935,94.2013 C42.6905,95.6393 43.4305,97.0423 43.6345,98.5203 C43.9355,100.6973 44.1535,101.1153 46.4345,101.3673 C47.3605,98.3683 45.4885,94.9833 41.9855,93.5123 M54.2045,131.1633 C54.4955,129.4613 55.2345,128.2363 56.6165,127.4153 C56.7265,127.3513 56.5845,126.8623 56.5585,126.5703 C56.2745,126.6563 55.9105,126.6583 55.7225,126.8433 C55.2255,127.3323 54.8045,127.9003 54.2005,128.6193 C53.9225,127.9943 53.8635,127.6423 53.6585,127.4313 C52.3465,126.0883 53.2645,123.4423 51.2165,122.9233 C51.3045,120.6703 51.4075,118.6033 51.4445,116.5343 C51.4505,116.2023 51.2285,115.8113 51.0025,115.5393 C50.4275,114.8573 50.2105,114.1923 50.7515,113.3813 C51.1615,112.7673 51.0025,112.3433 50.2505,112.1483 C49.8955,112.0553 49.5345,111.9133 49.2315,111.7113 C48.2545,111.0563 47.7945,111.4953 47.4925,112.4423 C47.1145,113.6243 47.8615,114.3643 48.6165,114.9503 C50.0895,116.0953 50.5035,117.6023 50.2685,119.3063 C50.1975,119.8263 49.6985,120.5903 49.2605,120.6993 C48.0905,120.9903 48.2295,121.7323 48.5465,122.4013 C49.5235,124.4583 50.3135,126.7203 51.7695,128.3833 C52.5105,129.2303 53.6125,129.8873 54.2045,131.1633 M53.1865,117.5353 C54.3375,116.6373 54.7015,115.9723 54.5115,114.7143 C54.3645,113.7403 55.1515,112.5933 55.6455,111.5833 C55.7325,111.4073 56.4225,111.5263 56.8345,111.5073 C56.6625,111.8303 56.5655,112.3343 56.3035,112.4453 C55.2625,112.8833 55.4865,113.4023 55.7715,114.3163 C56.4145,116.3813 56.7705,118.5353 57.2435,120.6553 C57.3305,121.0473 57.3905,121.4493 57.5065,121.8333 C57.7385,122.6033 58.3385,123.4403 58.1875,124.1153 C57.6705,126.4183 58.8435,128.1373 59.7935,129.9813 C60.0565,130.4933 60.1305,131.1053 60.2775,131.6753 C60.5835,132.8643 60.9005,134.0493 61.1695,135.2463 C61.2975,135.8143 61.3285,136.4033 61.2415,137.1523 C60.1495,135.6563 59.3505,135.8273 58.6815,137.7313 C58.0745,136.3433 57.8865,135.4583 58.6035,134.5243 C58.8645,134.1843 59.0475,133.7793 59.2085,133.3793 C59.2265,133.3313 58.7495,133.0013 58.7205,133.0293 C58.4105,133.3313 58.1445,133.6803 57.8595,134.0113 C57.8015,134.0783 57.7165,134.1233 57.3935,134.3713 C57.2525,133.8553 57.2025,133.4133 57.0085,133.0493 C56.8275,132.7063 56.4955,132.4443 56.2285,132.1463 C55.9985,132.5413 55.4985,133.0113 55.5835,133.3203 C55.9165,134.5333 56.4705,135.6863 56.8595,136.8883 C56.9765,137.2523 56.8245,137.7043 56.7945,138.1163 C56.3715,137.9603 55.6105,137.8553 55.5785,137.6403 C55.4155,136.5483 54.7525,135.9513 53.9175,135.3773 C53.6335,135.1823 53.4755,134.6783 53.4215,134.2923 C52.9115,130.6373 52.0575,129.7153 48.4005,128.8573 C48.1105,128.7883 47.6395,128.2793 47.6745,128.2193 C48.3125,127.1203 47.2525,126.5253 46.9995,125.6983 C46.2605,123.2803 45.1805,120.8663 45.6955,118.2833 C46.0695,116.4093 45.0195,115.0693 44.3895,113.5863 C42.9015,110.0863 41.2335,106.6693 41.8015,102.6743 C41.9525,101.6193 41.7855,100.5243 41.8275,99.4493 C41.8765,98.2133 41.4715,97.2353 40.6795,96.2543 C40.1795,95.6353 39.9755,94.6463 39.9415,93.8103 C39.8525,91.6623 40.0265,89.5023 39.8965,87.3603 C39.8455,86.5133 39.2935,85.6883 38.9255,84.8723 C38.2675,83.4123 37.6125,81.9493 36.8785,80.5283 C36.6685,80.1173 36.2075,79.5733 35.8355,79.5533 C33.9335,79.4523 32.6505,78.4413 31.4625,76.8643 C30.0205,78.0683 28.6265,77.6013 27.1975,76.6163 C26.2685,75.9763 26.5095,75.6013 27.2335,75.0583 C27.5915,74.7893 28.0585,74.3743 28.0795,74.0023 C28.1325,73.0563 28.6195,72.7793 29.4265,72.7703 C30.2685,72.7613 31.1115,72.7503 31.9535,72.7783 C33.6495,72.8323 33.7965,72.6853 33.5865,71.0303 C36.0445,69.8243 38.5665,71.7463 37.9845,74.0073 C37.5385,75.7393 38.6195,77.0413 39.3515,78.4383 C39.5825,78.8773 39.9155,79.3833 39.8705,79.8263 C39.7105,81.4303 40.3515,82.7133 41.1215,84.0403 C41.5405,84.7623 41.6005,85.6963 41.7935,86.5393 C41.9065,87.0333 41.9495,87.5423 42.0435,88.0403 C42.2105,88.9153 42.4675,89.7813 42.5485,90.6623 C42.6355,91.5983 44.6655,94.0113 45.5935,94.0643 C45.8725,94.0793 46.1625,93.8873 46.6785,93.7103 C46.1135,93.0903 45.6385,92.6613 45.2885,92.1493 C45.1115,91.8883 45.0405,91.4283 45.1495,91.1483 C45.2195,90.9653 45.7125,90.8403 46.0005,90.8683 C47.1325,90.9793 47.9165,91.5733 47.7225,92.7863 C47.4905,94.2473 48.0065,95.4623 48.3975,96.8183 C48.8255,98.3053 48.4165,100.0333 48.3635,101.6573 C48.3355,102.5413 48.2495,103.4273 48.2805,104.3103 C48.2895,104.5513 48.6285,104.7813 48.8165,105.0163 C49.0385,104.7633 49.4345,104.5203 49.4495,104.2563 C49.5055,103.2323 49.3255,102.1843 49.4675,101.1783 C49.5395,100.6743 50.0435,99.9443 50.4785,99.8393 C51.3845,99.6213 51.4755,100.4493 51.4695,101.1283 C51.4525,103.1883 51.3965,105.2463 51.3815,107.3053 C51.3775,107.8583 51.2555,108.6053 51.5525,108.9293 C52.8395,110.3403 52.4845,111.9733 52.4365,113.5923 C52.4135,114.3853 52.4305,115.1913 52.5505,115.9723 C52.6275,116.4663 52.9285,116.9263 53.1865,117.5353" id="Fill-5" fill="#231916"></path>
                <path d="M81.9571,182.3033 C81.1501,178.6303 79.2441,175.5013 77.0631,172.4953 C76.7811,172.1063 76.7611,171.5273 76.6181,171.0343 C77.1461,171.1843 77.7551,171.2173 78.1811,171.5133 C78.6181,171.8163 78.9041,172.3583 79.2101,172.8253 C80.2501,174.4123 81.3521,175.9673 82.2641,177.6253 C82.7631,178.5333 82.8431,179.6643 83.2701,180.6233 C83.6231,181.4133 84.2341,182.0833 84.6821,182.8353 C84.9331,183.2573 85.0821,183.7393 85.2791,184.1923 C85.5991,184.9273 85.8221,185.7283 86.2651,186.3803 C86.8611,187.2603 87.5681,188.0873 88.3381,188.8243 C88.9951,189.4533 89.8031,189.9273 90.5521,190.4603 C91.7271,191.2963 92.9131,192.1163 94.0841,192.9593 C94.3001,193.1163 94.6611,193.4053 94.6221,193.5283 C94.2351,194.7603 95.3131,195.3113 95.7091,196.1823 C96.2971,197.4743 97.1141,198.2993 98.3661,198.8943 C98.7171,199.0603 98.9791,199.8383 98.9301,200.2983 C98.8791,200.7653 98.4791,201.3723 98.0691,201.5593 C97.8041,201.6803 97.1671,201.2383 96.8291,200.9103 C95.2861,199.4123 93.9951,197.5433 92.2281,196.4103 C89.4531,194.6323 87.4131,192.1453 85.0521,189.9733 C84.3831,189.3573 83.9191,188.5173 83.3641,187.7783 C82.9161,187.1823 82.5611,186.4813 82.0111,186.0023 C79.9271,184.1883 78.6421,181.8123 77.2521,179.5023 C77.1071,179.2623 76.9911,178.9783 76.7861,178.8053 C74.2371,176.6633 73.4921,173.4363 71.9271,170.7073 C70.5881,168.3713 69.4251,165.9343 68.2001,163.5323 C67.4811,162.1233 66.7911,160.7003 66.1031,159.2763 C66.0031,159.0713 65.9001,158.8053 65.9471,158.6013 C66.4361,156.4683 65.0521,154.9663 64.1021,153.3773 C63.1091,151.7153 62.7071,149.9783 63.0921,148.1573 C63.4971,146.2383 62.4001,145.2413 61.2591,144.0423 C60.1021,142.8263 59.1961,141.3633 58.2621,139.9533 C58.1001,139.7093 58.3421,139.1973 58.3971,138.8083 C58.7251,138.9023 59.1751,138.8913 59.3581,139.1083 C60.0451,139.9143 60.6951,140.7633 61.2641,141.6573 C61.8951,142.6523 62.4381,143.6253 63.7321,143.9703 C65.0691,144.3253 65.2281,145.6133 65.5161,146.7313 C65.9271,148.3253 66.4701,149.9063 66.6841,151.5283 C66.9411,153.4863 68.4541,155.0973 68.0491,157.2583 C67.9251,157.9213 68.4691,158.8053 68.9021,159.4563 C69.7191,160.6833 70.7051,161.7963 71.5551,163.0033 C71.7241,163.2433 71.7531,163.8323 71.5821,164.0203 C70.8351,164.8423 71.2181,165.5753 71.6141,166.3363 C72.6001,168.2343 73.9361,170.0333 74.4841,172.0493 C75.0981,174.3123 76.6881,175.6403 78.0121,177.2903 C78.6961,178.1443 79.0041,179.2893 79.6011,180.2273 C80.1441,181.0823 80.8471,181.8363 81.4801,182.6353 C81.6391,182.5243 81.7981,182.4133 81.9571,182.3033" id="Fill-7" fill="#231916"></path>
                <path d="M60.4639,156.8003 C60.2979,156.2653 60.2229,155.6773 59.9479,155.2053 C59.0639,153.6823 57.9119,152.2923 58.1329,150.3343 C58.1769,149.9433 57.7349,149.5173 57.6079,149.0803 C57.3759,148.2873 57.2119,147.4743 57.0179,146.6563 C58.0009,146.6563 58.6519,146.6493 59.3009,146.6593 C59.5929,146.6643 60.1039,146.6403 60.1339,146.7413 C60.2279,147.0623 60.2849,147.5713 60.1019,147.7653 C58.7899,149.1503 59.4089,150.3523 60.0859,151.8253 C61.2719,154.4083 62.0829,157.1603 63.1239,159.8133 C63.5279,160.8463 64.1769,161.7803 64.6229,162.8003 C64.8239,163.2623 64.8029,163.8213 64.8829,164.3363 C64.3939,164.2353 63.7169,164.3023 63.4499,164.0033 C62.3569,162.7763 61.3799,161.4433 60.3769,160.1353 C59.9249,159.5453 59.5309,158.9103 59.0809,158.3193 C57.9369,156.8133 56.6609,155.3933 55.6639,153.7973 C55.0439,152.8063 55.0029,151.4573 54.4029,150.4473 C53.3299,148.6383 53.2759,146.7803 53.6109,144.8213 C53.6339,144.6903 53.6099,144.5323 53.5579,144.4093 C52.9519,142.9863 52.2729,141.5893 51.7429,140.1383 C51.2279,138.7243 50.8749,137.2503 50.4249,135.8113 C50.2889,135.3773 50.0679,134.9713 49.8869,134.5523 C49.7059,134.1333 49.3229,133.6763 49.3929,133.3053 C49.4989,132.7403 49.9199,132.2363 50.2069,131.7053 C50.6109,132.1793 51.0829,132.6133 51.4009,133.1383 C51.7459,133.7053 51.9529,134.3573 52.2089,134.9763 C52.3289,135.2683 52.5589,135.5993 52.5059,135.8653 C52.1689,137.5563 53.1169,138.8283 53.8259,140.1823 C53.9779,140.4713 54.2559,140.7303 54.3039,141.0293 C54.6499,143.2113 54.8759,145.4133 55.2969,147.5793 C55.5119,148.6823 56.0459,149.7243 56.4439,150.7893 C56.9159,152.0553 57.2939,153.3703 57.9079,154.5643 C58.3919,155.5033 59.1709,156.2903 59.8179,157.1443 C60.0329,157.0293 60.2489,156.9143 60.4639,156.8003" id="Fill-9" fill="#231916"></path>
                <path d="M31.8428,128.4917 C32.3998,130.2327 32.9468,131.9767 33.5188,133.7147 C33.6338,134.0637 33.9248,134.3707 33.9848,134.7217 C34.3118,136.6787 34.7928,138.6377 34.8418,140.6037 C34.9098,143.3797 36.1638,145.6677 37.2858,148.0517 C37.9098,149.3787 38.4318,150.7557 38.9488,152.1297 C39.0238,152.3267 38.8768,152.7877 38.7208,152.8507 C38.4728,152.9517 38.0458,152.9237 37.8468,152.7627 C37.4948,152.4767 37.0398,152.0687 37.0088,151.6807 C36.7808,148.9197 34.8198,147.0087 33.6928,144.6937 C33.6528,144.6097 33.5808,144.5337 33.5648,144.4457 C33.0868,141.8357 32.6108,139.2247 32.1478,136.6117 C32.0828,136.2487 32.1798,135.8407 32.0548,135.5077 C31.5398,134.1297 30.9518,132.7787 30.4278,131.4047 C30.2638,130.9747 30.2338,130.4957 30.1088,130.0487 C29.8558,129.1457 29.5798,128.2517 29.3158,127.3517 C29.2258,127.0447 29.0008,126.6937 29.0778,126.4327 C29.5018,124.9887 28.6178,123.9137 28.1118,122.7357 C27.7828,121.9717 27.4858,121.1777 27.0268,120.4967 C26.7098,120.0277 26.1588,119.7017 25.6768,119.3637 C24.8018,118.7507 23.8708,118.2127 23.0278,117.5617 C22.8088,117.3937 22.7068,116.8917 22.7798,116.6007 C22.8208,116.4327 23.3338,116.2627 23.6088,116.2977 C24.1068,116.3617 24.5958,116.5507 25.0678,116.7407 C25.4098,116.8797 25.7118,117.2517 26.0438,117.2657 C29.2058,117.4147 29.5538,119.8327 30.1608,122.1497 C30.5178,123.5107 31.1888,124.7867 31.6618,126.1197 C31.9208,126.8477 32.0638,127.6187 32.2588,128.3697 C32.1198,128.4097 31.9818,128.4507 31.8428,128.4917" id="Fill-11" fill="#231916"></path>
                <path d="M51.6543,190.7867 C51.4243,191.1837 51.3243,191.5677 51.1503,191.6047 C50.8923,191.6597 50.4523,191.5617 50.3153,191.3687 C48.8363,189.2907 46.9003,187.6207 45.3413,185.5747 C43.0833,182.6137 42.4663,179.0247 40.5663,175.9907 C39.0923,173.6347 37.7463,171.1827 36.5543,168.6737 C35.6063,166.6777 34.9603,164.5367 34.2383,162.4407 C34.1683,162.2367 34.5093,161.8907 34.6613,161.6097 C35.0343,161.8727 35.5843,162.0537 35.7523,162.4127 C36.7833,164.6237 37.6663,166.9037 38.7183,169.1037 C39.8793,171.5267 41.1993,173.8727 42.3933,176.2797 C43.4043,178.3177 44.2423,180.4467 45.3263,182.4427 C46.7223,185.0157 48.3373,187.4567 50.5453,189.4447 C50.9713,189.8287 51.2883,190.3367 51.6543,190.7867" id="Fill-13" fill="#231916"></path>
                <path d="M24.5606,78.6011 C24.1486,79.1591 24.0106,79.4831 23.7646,79.6551 C21.9586,80.9201 20.1056,82.1201 18.3166,83.4081 C16.5286,84.6971 14.7586,86.0191 13.0496,87.4111 C10.8846,89.1751 8.7966,91.0351 6.6526,92.8251 C6.4336,93.0071 6.0416,93.0981 5.7536,93.0611 C5.0106,92.9631 3.7406,90.4621 4.1136,89.7971 C4.2666,89.5241 4.6746,89.2291 4.9696,89.2251 C6.8736,89.2011 8.3446,88.3501 9.6416,87.0371 C9.9856,86.6881 10.5196,86.5351 10.9446,86.2561 C12.2986,85.3701 13.6356,84.4561 14.9926,83.5741 C15.7616,83.0731 16.5666,82.6251 17.3406,82.1301 C19.0996,81.0051 20.8396,79.8481 22.6126,78.7451 C22.9776,78.5181 23.4466,78.4211 23.8806,78.3541 C24.0826,78.3241 24.3176,78.5061 24.5606,78.6011" id="Fill-15" fill="#231916"></path>
                <path d="M29.0596,83.9019 C28.5846,84.3359 28.2216,84.8439 27.7276,85.0839 C26.5656,85.6469 25.6946,86.2749 25.1016,87.5879 C24.7346,88.3969 23.3176,88.7339 22.3676,89.2749 C21.9636,89.5049 21.5196,89.6729 21.1436,89.9409 C20.0206,90.7399 18.9146,91.5649 17.8166,92.3979 C17.4826,92.6499 16.9646,92.9239 16.9166,93.2459 C16.6726,94.9079 15.2726,95.2149 14.1096,95.8019 C13.7876,95.9649 13.3336,96.2069 13.0786,96.0959 C12.3366,95.7759 11.6636,95.2959 10.9646,94.8789 C11.4626,94.4739 11.9086,93.9649 12.4686,93.6859 C14.5466,92.6519 16.4176,91.3879 18.0066,89.6569 C18.5686,89.0459 19.6186,88.9109 20.2936,88.3699 C21.0916,87.7319 21.7246,86.8879 22.4336,86.1369 C22.6966,85.8589 22.9916,85.3389 23.2356,85.3599 C24.8476,85.4979 25.6236,84.3549 26.6216,83.4409 C27.0316,83.0659 27.8076,83.0439 28.4286,82.9839 C28.5736,82.9699 28.7656,83.4589 29.0596,83.9019" id="Fill-17" fill="#231916"></path>
                <path d="M43.3858,167.524 C43.5668,168.076 43.6368,168.702 43.9478,169.166 C45.3918,171.31 46.9228,173.395 48.3638,175.542 C48.5708,175.85 48.4488,176.378 48.4808,176.806 C48.0258,176.737 47.4668,176.808 47.1398,176.566 C46.6718,176.219 46.3498,175.66 46.0048,175.163 C44.6888,173.266 43.3058,171.408 42.1078,169.439 C41.2648,168.053 40.7938,166.441 39.9528,165.054 C38.7288,163.035 38.4678,160.73 37.7088,158.579 C37.5268,158.061 36.8838,157.724 36.5478,157.239 C36.3228,156.914 36.2628,156.473 36.1288,156.085 C36.5598,156.043 37.2088,155.799 37.3848,155.992 C38.3588,157.052 39.8978,157.72 39.9238,159.498 C39.9298,159.932 40.2578,160.353 40.3618,160.798 C40.5548,161.629 40.7228,162.469 40.8438,163.315 C40.9478,164.038 40.8948,164.793 41.0738,165.491 C41.1368,165.733 41.7038,166.02 42.0148,165.994 C43.5708,165.86 43.7058,165.955 43.3858,167.524" id="Fill-19" fill="#231916"></path>
                <path d="M37.5235,140.1529 C38.1485,141.5969 38.7745,143.0419 39.3985,144.4859 C40.2405,146.4359 41.0295,148.4109 41.9345,150.3299 C43.0225,152.6319 44.2345,154.8769 45.3325,157.1749 C45.5535,157.6409 45.5045,158.2369 45.5815,158.7719 C45.1295,158.5539 44.6475,158.3819 44.2385,158.1019 C43.9855,157.9279 43.7845,157.6159 43.6625,157.3219 C41.7625,152.7619 39.1565,148.5389 37.2295,144.0139 C36.5985,142.5329 35.4485,140.9539 35.8715,139.0619 C35.9405,138.7539 35.6185,138.3759 35.5665,138.0159 C35.5125,137.6459 35.5685,137.2599 35.5765,136.8809 C36.0105,136.9049 36.7025,136.7679 36.8355,136.9799 C37.3925,137.8709 37.7825,138.8669 38.2345,139.8239 C37.9975,139.9329 37.7605,140.0439 37.5235,140.1529" id="Fill-21" fill="#231916"></path>
                <path d="M14.3506,117.0093 C13.3186,117.4533 12.2626,117.8513 11.2606,118.3563 C10.2266,118.8753 9.2136,119.4513 8.2506,120.0923 C7.2536,120.7543 6.2206,121.4213 5.3966,122.2733 C4.3106,123.3933 3.0546,123.3533 1.7596,123.1043 C0.7686,122.9123 0.5326,122.0213 1.3296,121.3543 C1.9616,120.8253 2.8206,120.5683 3.5816,120.1973 C4.1536,119.9193 4.7476,119.6853 5.3026,119.3783 C7.0856,118.3923 8.7926,117.2403 10.6496,116.4283 C11.9606,115.8553 13.4596,115.6793 14.8936,115.4323 C15.3846,115.3483 15.9926,115.4833 16.4246,115.7313 C16.6146,115.8393 16.6696,116.6843 16.4876,116.8363 C16.1146,117.1483 15.5436,117.2373 15.0436,117.3753 C14.8766,117.4223 14.6746,117.3443 14.4896,117.3233 C14.4426,117.2183 14.3966,117.1133 14.3506,117.0093" id="Fill-23" fill="#231916"></path>
                <path d="M50.4971,153.4087 C50.9141,154.0287 51.4031,154.4177 51.3881,154.7837 C51.2291,158.3547 53.8661,160.7917 54.9931,163.8327 C55.5271,165.2717 56.2631,166.5987 57.6431,167.4647 C57.9131,167.6337 58.0231,168.0867 58.1661,168.4267 C58.7681,169.8597 59.3851,171.2897 59.9281,172.7467 C60.0881,173.1747 60.1231,173.7117 60.0131,174.1477 C59.9671,174.3277 59.2621,174.5617 59.0761,174.4387 C58.7031,174.1927 58.2121,173.6987 58.2371,173.3407 C58.4341,170.5547 56.3421,168.6907 55.4981,166.3347 C55.3601,165.9477 54.8231,165.7147 54.4951,165.3857 C53.4891,164.3797 52.4881,163.5057 52.2661,161.8457 C52.0671,160.3657 51.0571,159.0097 50.5181,157.5567 C50.1501,156.5667 49.9351,155.5117 49.7521,154.4677 C49.7131,154.2437 50.1051,153.9437 50.4971,153.4087" id="Fill-25" fill="#231916"></path>
                <path d="M2.5108,131.2027 C1.8118,130.7487 1.1248,130.5417 1.0148,130.1647 C0.9028,129.7827 1.2618,129.1457 1.5928,128.7827 C1.9498,128.3887 2.5088,128.1717 2.9898,127.8957 C3.2288,127.7597 3.5478,127.7227 3.7328,127.5397 C4.8278,126.4537 5.7688,125.1597 7.0048,124.2787 C8.5218,123.1977 10.2678,122.4357 11.9418,121.5897 C12.1368,121.4907 12.7278,121.6947 12.7448,121.8147 C12.7898,122.1317 12.7248,122.5857 12.5148,122.7907 C12.1948,123.0997 11.7298,123.2787 11.3018,123.4527 C8.2898,124.6817 6.1268,126.8037 4.5038,129.5967 C4.1198,130.2567 3.2448,130.6307 2.5108,131.2027" id="Fill-27" fill="#231916"></path>
                <path d="M1.791,137.9009 C1.193,137.6399 0.597,137.3799 0,137.1199 C0.285,136.5359 0.528,135.9259 0.865,135.3739 C1.271,134.7089 1.749,134.0879 2.21,133.4579 C2.393,133.2069 2.576,132.9339 2.821,132.7549 C3.517,132.2499 4.212,131.7279 4.969,131.3309 C5.395,131.1069 5.944,131.1169 6.437,131.0209 C6.284,131.4749 6.219,131.9879 5.962,132.3719 C5.122,133.6229 4.015,134.7029 3.995,136.3829 C3.981,137.5209 3.627,137.6869 1.791,137.9009" id="Fill-29" fill="#231916"></path>
                <path d="M46.5205,165.1519 C46.9455,165.8499 47.3805,166.5409 47.7905,167.2469 C48.2315,168.0079 48.6185,168.8019 49.0805,169.5509 C49.6845,170.5309 50.4125,171.4409 50.9415,172.4579 C51.1955,172.9429 51.1155,173.6029 51.1865,174.1839 C50.7345,173.9739 50.1285,173.8839 49.8575,173.5349 C48.7515,172.1129 47.6055,170.6889 46.7555,169.1139 C46.1665,168.0229 46.0525,166.6789 45.6935,165.4589 C45.5415,164.9419 45.2655,164.4609 45.1235,163.9419 C45.0165,163.5559 45.0345,163.1369 44.9975,162.7329 C45.4985,162.8399 46.2245,162.7829 46.4505,163.0909 C46.8005,163.5709 46.8115,164.2989 46.9665,164.9219 C46.8185,164.9989 46.6685,165.0759 46.5205,165.1519" id="Fill-31" fill="#231916"></path>
                <path d="M95.4268,189.0914 C95.0428,189.4384 94.7728,189.8834 94.4628,189.9114 C94.0728,189.9464 93.4848,189.7604 93.2728,189.4634 C92.1288,187.8604 91.0938,186.1814 89.9798,184.5574 C89.6678,184.1034 89.1188,183.7984 88.8648,183.3254 C88.6778,182.9814 88.7938,182.4724 88.7758,182.0364 C89.2158,182.1784 89.9668,182.2214 90.0498,182.4794 C90.8148,184.8554 92.9978,186.0114 94.4528,187.7814 C94.7658,188.1624 95.0428,188.5724 95.4268,189.0914" id="Fill-33" fill="#231916"></path>
                <path d="M123.168,197.1421 C124.678,198.3601 126.209,199.5791 127.705,200.8391 C127.806,200.9241 127.719,201.4301 127.566,201.5581 C127.411,201.6901 126.992,201.7071 126.816,201.5871 C125.364,200.5961 123.934,199.5741 122.523,198.5241 C122.347,198.3921 122.215,198.0091 122.275,197.8071 C122.333,197.6111 122.667,197.4961 123.168,197.1421" id="Fill-35" fill="#231916"></path>
                <path d="M97.1465,193.3794 C98.3505,194.5664 99.5955,195.7164 100.7205,196.9734 C100.9325,197.2104 100.6685,197.8724 100.6255,198.3384 C100.2355,198.2064 99.7325,198.1864 99.4775,197.9234 C98.6725,197.0944 97.9115,196.2104 97.2365,195.2744 C96.9185,194.8334 96.8375,194.2224 96.6495,193.6894 C96.8155,193.5854 96.9805,193.4834 97.1465,193.3794" id="Fill-37" fill="#231916"></path>
                <path d="M119.0342,190.2779 C119.4112,190.5769 119.7702,190.9009 120.1682,191.1709 C120.9762,191.7189 121.8342,192.2009 122.6132,192.7879 C122.9402,193.0339 123.2402,193.4509 123.3232,193.8399 C123.3762,194.0839 122.9922,194.6719 122.8272,194.6629 C122.4712,194.6439 122.0662,194.4059 121.7932,194.1409 C121.0012,193.3769 120.2522,192.5649 119.5112,191.7499 C119.1962,191.4039 118.9412,191.0029 118.6602,190.6269 C118.7852,190.5099 118.9092,190.3939 119.0342,190.2779" id="Fill-39" fill="#231916"></path>
                <path d="M65.3448,52.7056 C64.8928,53.2206 64.5918,53.5616 64.2918,53.9046 C64.0248,53.4886 63.5798,53.0876 63.5458,52.6536 C63.5208,52.3156 64.0058,51.9376 64.2638,51.5776 C64.5748,51.9036 64.8878,52.2286 65.3448,52.7056" id="Fill-41" fill="#231916"></path>
            </g>
        </g>
    </g>
</svg>