<?xml version="1.0" encoding="UTF-8"?>
<svg width="156px" height="159px" viewBox="0 0 156 159" version="1.1" xmlns="http://www.w3.org/2000/svg" xmlns:xlink="http://www.w3.org/1999/xlink">
    <!-- Generator: Sketch 60 (88103) - https://sketch.com -->
    <title>figure34</title>
    <desc>Created with Sketch.</desc>
    <defs>
        <polygon id="path-1" points="0 0.840274834 155.3326 0.840274834 155.3326 10.8601642 0 10.8601642"></polygon>
        <polygon id="path-3" points="0.6136 0.101 36.5666 0.101 36.5666 20.4094 0.6136 20.4094"></polygon>
        <polygon id="path-5" points="0.2869 0.914716607 25.3649 0.914716607 25.3649 21 0.2869 21"></polygon>
    </defs>
    <g id="页面-1" stroke="none" stroke-width="1" fill="none" fill-rule="evenodd">
        <g id="29-44" transform="translate(-1152.000000, -29.000000)">
            <g id="figure34" transform="translate(1152.000000, 28.000000)">
                <path d="M78.8365,57.521 C77.5515,58.985 77.5145,62.769 78.8365,64.713 L78.8365,57.521 Z M79.7085,56.834 C79.9055,55.853 80.1295,55.221 80.1465,54.583 C80.2205,51.695 80.2635,51.655 83.0315,53.071 C82.9465,51.216 82.8675,49.497 82.7895,47.777 L82.0955,47.443 C80.4735,49.244 78.8525,51.044 76.9975,53.104 C77.6445,53.994 78.5605,55.255 79.7085,56.834 L79.7085,56.834 Z M88.4495,50.819 C88.6595,50.904 88.8695,50.989 89.0795,51.075 C91.2115,47.892 93.3425,44.709 95.5325,41.439 C92.8365,41.602 91.5765,42.592 90.8325,44.646 C90.6165,45.245 89.8245,46.015 89.2695,46.038 C87.8785,46.096 84.1615,49.473 84.1985,50.966 C84.2015,51.076 84.4375,51.18 84.9655,51.622 C86.2695,50.041 87.5655,48.467 88.8635,46.894 C89.0555,47.011 89.2455,47.129 89.4375,47.247 C89.1075,48.438 88.7785,49.628 88.4495,50.819 L88.4495,50.819 Z M77.4505,47.385 C77.3815,48.16 77.3115,48.934 77.2405,49.708 C77.4625,49.746 77.6855,49.785 77.9065,49.823 C80.4885,46.965 83.0715,44.107 85.6535,41.249 C85.7885,41.37 85.9245,41.49 86.0595,41.61 C85.7435,43.181 85.4285,44.751 85.1115,46.321 C90.2795,40.145 90.2795,40.145 89.9665,38.899 C89.3475,39.454 88.7345,40.001 87.5935,41.024 C88.1335,38.578 87.7225,36.149 90.0805,36.072 C91.5235,36.024 93.0155,37.488 94.9525,38.522 C94.5765,37.195 94.1905,35.837 93.9005,34.815 C88.0065,33.799 84.1265,37.308 80.3715,39.588 C79.3645,37.59 78.4905,35.854 77.6175,34.118 C77.2645,34.118 76.9105,34.118 76.5575,34.118 C75.9345,35.721 75.2215,37.296 74.7155,38.935 C74.2875,40.32 74.2995,41.762 72.3735,42.279 C71.9585,42.39 71.9595,44.583 72.0455,45.797 C72.0845,46.34 72.8055,46.836 73.2165,47.354 C73.4735,45.949 73.1405,44.859 73.3435,43.881 C73.4615,43.309 74.6135,42.402 74.9965,42.534 C76.4185,43.022 78.1245,43.404 78.3995,45.358 C77.7855,45.076 77.1945,44.677 76.5505,44.55 C76.0675,44.456 75.5165,44.71 74.9955,44.809 C75.4015,45.965 75.8085,47.122 76.2135,48.278 C76.6265,47.98 77.0385,47.683 77.4505,47.385 L77.4505,47.385 Z M65.2735,32.846 C66.0065,33.653 66.7405,34.46 67.4745,35.267 C67.6095,35.251 67.7455,35.235 67.8815,35.22 C67.4495,33.718 67.0185,32.215 66.4925,30.39 C67.6535,31.134 68.3245,31.563 68.9955,31.994 C69.1675,31.71 69.5565,31.283 69.4785,31.167 C68.8985,30.299 68.3635,28.987 67.5565,28.769 C65.6485,28.253 64.7645,27.186 64.1605,24.931 C65.4405,25.654 66.2675,26.121 67.0945,26.588 C67.3015,26.468 67.5095,26.348 67.7165,26.229 C66.9465,24.637 66.1775,23.046 65.4075,21.456 C64.7635,21.855 64.1195,22.255 63.3325,22.743 C63.5915,21.239 63.8385,19.803 64.1485,17.995 C62.7465,17.883 61.5355,17.788 60.1615,17.679 C59.9595,16.354 59.7395,14.908 59.4475,12.991 C58.2835,12.536 56.9035,11.72 56.6615,9.191 C56.4875,7.388 54.6945,5.739 53.6235,4.019 C53.7565,3.92 53.9985,3.727 54.0115,3.742 C56.7075,6.704 59.5055,9.585 62.0235,12.694 C63.5655,14.599 64.8355,16.774 65.9415,18.972 C67.3045,21.678 68.3695,24.533 69.5585,27.325 C69.6565,27.558 69.6665,27.985 69.8015,28.023 C72.2515,28.717 71.3665,30.684 71.4745,32.278 C71.4945,32.581 71.6385,32.876 71.7605,33.3 C73.2035,31.641 74.5115,30.138 75.8185,28.634 C75.4665,30.171 75.1145,31.709 74.7025,33.514 C77.7935,32.295 78.1865,31.387 77.3345,28.025 C76.7935,28.258 76.2745,28.482 75.7555,28.706 C75.7835,27.907 75.4865,26.708 75.8955,26.378 C77.7425,24.881 78.3745,23.366 76.8725,21.28 C76.6825,21.016 76.8825,20.471 76.8715,20.687 C78.8355,21.145 80.7505,21.59 82.6655,22.036 C81.7315,23.09 80.7865,24.135 79.8675,25.203 C79.4865,25.646 78.8775,26.124 78.8575,26.607 C78.7545,29.086 78.8095,31.573 78.8095,34.457 C80.4995,34.021 81.6845,33.715 83.4465,33.261 C82.4605,34.75 81.7785,35.78 80.7165,37.384 C86.2315,35.024 90.3705,32.202 93.0055,27.534 C94.3605,27.172 95.7165,26.811 97.5775,26.314 C96.3865,28.462 95.4705,30.116 94.4405,31.971 C96.8615,32.598 97.6485,31.439 98.3015,29.871 C99.6425,26.653 103.3385,24.806 107.4705,25.572 C105.4495,26.724 103.7515,28.494 102.1255,28.429 C99.7715,28.335 99.1485,30.141 99.0405,31.067 C98.7615,33.47 97.6065,34.165 95.3715,33.99 L94.7065,34.954 C95.5695,35.296 96.4345,35.639 97.2655,35.968 C96.7935,37.086 96.4525,37.894 96.1115,38.701 C96.3515,38.875 96.5905,39.048 96.8295,39.221 C97.9505,37.683 99.3365,36.268 100.1305,34.576 C101.2565,32.173 102.4435,31.693 104.6415,33.283 C100.0035,35.07 99.1675,39.779 96.4725,43.06 C96.7845,43.352 97.0975,43.644 97.4095,43.935 C98.0495,43.263 98.9585,42.698 99.2745,41.898 C100.0035,40.057 100.9005,39.308 103.0985,39.538 C104.6175,39.697 106.2655,38.633 108.2365,38.386 C107.6115,39.092 106.9865,39.797 106.3805,40.483 C107.3915,41.021 110.5685,40.297 111.0435,39.284 C111.6845,37.914 112.2035,36.485 112.8665,35.127 C113.1015,34.647 113.5585,34.009 113.9935,33.939 C116.6285,33.515 117.7615,31.483 119.1805,29.604 C120.1735,28.289 121.6355,27.327 122.8875,26.208 C123.0845,26.409 123.2805,26.61 123.4785,26.811 C121.7055,29.499 119.9345,32.187 118.0485,35.047 C117.7625,34.871 117.3105,34.591 116.8665,34.318 C116.7785,34.389 116.6575,34.469 116.6645,34.484 C118.2575,37.618 113.3845,38.51 114.2715,41.392 L114.3495,41.31 C112.9265,41.404 111.4605,41.312 110.0905,41.631 C107.1505,42.314 104.2615,43.209 101.3515,44.017 C101.3525,44.27 101.3535,44.523 101.3535,44.776 C102.4135,44.985 103.4735,45.194 104.7375,45.443 C104.9455,46.2 105.2065,47.148 105.4675,48.096 C105.2545,48.225 105.0415,48.353 104.8285,48.482 C104.2375,47.816 103.6465,47.15 102.9645,46.382 C102.2815,46.545 101.5375,46.724 100.6105,46.946 C99.8665,44.8 98.4065,44.503 96.4905,45.574 C95.4045,46.18 93.6245,46.459 93.2835,47.328 C91.5685,51.693 87.0945,54.85 87.6025,60.162 C87.6315,60.472 87.7955,60.77 87.8975,61.074 C88.1575,61.162 88.4175,61.25 88.6785,61.338 C89.3685,59.709 90.0445,58.073 90.7535,56.452 C91.4955,54.752 92.2685,53.067 93.0745,51.269 C94.4005,53.296 94.1575,56.176 92.7195,57.786 C91.9405,58.658 91.1175,59.529 90.5325,60.528 C89.1365,62.913 88.7745,63.005 86.6355,61.173 C86.3395,60.92 85.9135,60.818 85.3775,60.566 C84.7625,63.812 84.1865,66.851 83.5065,70.437 C82.4985,69.516 81.9145,68.982 81.3485,68.465 C83.5595,65.476 83.5405,64.847 81.2595,63.493 C81.5395,62.893 81.8245,62.282 82.2085,61.459 C82.7325,61.948 83.1285,62.317 83.5445,62.707 C84.5445,59.639 85.5395,56.585 86.5355,53.531 C86.2425,53.401 85.9505,53.272 85.6575,53.142 C85.0095,53.99 84.3605,54.837 83.6445,55.774 C83.0925,55.428 82.5645,55.097 82.0355,54.766 C81.8695,54.874 81.7035,54.982 81.5365,55.09 C82.0815,56.335 82.6265,57.58 83.2975,59.114 C83.3845,58.865 83.3465,59.156 83.2695,59.167 C78.6275,59.825 79.8125,63.434 79.6205,66.342 C79.5985,66.687 79.5655,67.031 79.5675,67.001 C78.6205,67.52 77.9165,67.905 76.7635,68.536 L76.7635,57.103 C76.4365,57.082 76.1085,57.062 75.7815,57.042 C75.5115,58.627 75.2405,60.213 74.8465,62.521 C73.9365,61.516 72.7575,60.807 72.7375,60.067 C72.7005,58.656 73.2395,57.199 73.7125,55.821 C73.9295,55.188 74.5565,54.694 74.9965,54.138 C74.5925,53.885 74.0075,53.321 73.8145,53.433 C72.9895,53.909 71.6095,54.628 71.6455,55.181 C71.8155,57.84 70.7295,60.521 72.3855,63.228 C73.3395,64.788 71.6695,66.118 69.7065,67.002 C69.5155,65.511 69.3515,64.234 69.1285,62.504 C68.4725,64.563 67.9675,66.148 67.4615,67.733 C67.1995,67.712 66.9385,67.69 66.6765,67.668 C67.0095,65.001 67.3565,62.335 67.6665,59.665 C67.7325,59.103 67.9105,58.247 67.6265,58 C64.9975,55.723 67.1555,53.501 67.2315,51.27 C67.5985,51.268 67.9665,51.266 68.3335,51.263 C68.2255,53.098 68.1175,54.933 68.0105,56.768 C68.2535,56.805 68.4975,56.842 68.7415,56.878 C70.0825,54.32 70.7845,51.612 70.5335,48.622 C70.2935,45.754 70.1575,42.877 69.9505,39.617 C71.2155,40.116 71.6665,40.293 72.9105,40.785 C71.8835,38.016 71.0805,35.851 70.2765,33.687 C70.0675,33.689 69.8575,33.691 69.6485,33.694 L69.6485,39.825 C67.2365,37.438 63.8425,36.571 65.3455,32.782 L65.2735,32.846 Z" id="Fill-1" fill="#231916"></path>
                <path d="M131.8785,52.0132 C131.5555,51.7342 131.2325,51.4562 130.9095,51.1772 C129.6325,52.1952 128.3555,53.2132 127.0765,54.2312 C127.4915,54.6482 127.9065,55.0652 128.3215,55.4822 C129.4825,54.3012 131.5875,54.0852 131.8785,52.0132 L131.8785,52.0132 Z M130.4065,45.7512 C126.9555,45.1942 123.0315,47.5262 122.3385,50.3912 C122.2715,50.6712 122.4065,51.2572 122.5235,51.2772 C122.9725,51.3572 123.5975,51.4472 123.8955,51.2072 C126.0605,49.4682 128.1615,47.6492 130.4065,45.7512 L130.4065,45.7512 Z M120.5905,57.9142 C120.7595,58.0812 120.9275,58.2482 121.0955,58.4152 C121.6495,58.0942 122.2045,57.7722 123.3325,57.1192 C122.8075,59.1422 122.4325,60.5852 121.8735,62.7362 C123.4055,60.8532 125.1785,59.6542 125.3995,58.2172 C126.0075,54.2482 128.4245,51.7972 131.1975,49.3702 C132.0895,48.5912 132.5595,47.3282 133.2215,46.2862 C132.9895,46.1342 132.7595,45.9822 132.5275,45.8292 C129.0275,50.3232 123.3795,52.7312 120.5905,57.9142 L120.5905,57.9142 Z M111.4295,61.0672 C111.3035,59.9752 111.1775,58.8832 111.0515,57.7912 C110.7495,57.6952 110.4485,57.5982 110.1485,57.5022 C108.8685,61.2052 107.5905,64.9092 106.3125,68.6112 C106.0305,68.5742 105.7485,68.5372 105.4675,68.5002 C104.8445,66.7822 104.2225,65.0642 103.6005,63.3462 C103.3575,63.3042 103.1135,63.2632 102.8705,63.2212 C102.5855,64.7272 102.3565,66.2472 101.9875,67.7332 C101.8475,68.3022 101.3905,68.7922 101.0775,69.3182 C100.7695,68.8152 100.1495,68.2692 100.2115,67.8192 C100.3935,66.5112 100.8505,65.2412 101.2375,63.8122 C100.8135,62.4752 100.3115,60.8942 99.8135,59.3252 C98.1115,60.0982 98.4115,60.0952 98.8815,61.8412 C99.4165,63.8282 99.3285,65.9922 99.3975,68.0832 C99.4055,68.3652 98.7435,68.6682 98.0665,69.2342 L98.0665,55.2692 C97.9615,55.1862 97.8565,55.1042 97.7515,55.0222 C97.3845,56.3212 96.9785,57.6092 96.6615,58.9202 C96.2875,60.4672 95.8655,62.0192 95.6955,63.5952 C95.5315,65.1192 95.6605,66.6762 95.0395,68.2992 C94.9105,67.8142 94.6395,67.3172 94.6755,66.8452 C94.9755,62.9792 95.5015,59.1222 95.6015,55.2542 C95.6535,53.2192 94.9905,51.1662 94.5745,48.6582 C95.5095,49.9182 96.3865,51.1022 97.7175,52.8972 C98.2825,51.0802 98.7695,49.5172 99.3215,47.7382 C100.8545,49.0622 101.6795,50.1952 100.6725,52.0942 C100.2785,52.8372 100.4705,53.8892 100.3955,54.8012 C100.6305,54.8512 100.8655,54.9032 101.1015,54.9532 C101.5875,54.4882 102.0735,54.0232 102.9005,53.2312 L102.9005,59.6322 C103.1555,59.6852 103.4095,59.7392 103.6645,59.7922 C104.0605,58.4872 104.7395,57.1912 104.7845,55.8732 C104.8585,53.7912 105.3075,52.7452 107.4325,53.9592 C108.1105,53.1402 108.6705,52.4652 109.2315,51.7892 L109.9165,52.1772 C109.3655,53.2552 109.0595,54.9732 108.2195,55.2932 C105.4005,56.3662 105.8495,59.0682 104.9225,61.0322 C104.6205,61.6712 105.1545,62.7032 105.3065,63.5562 C105.5815,63.5352 105.8575,63.5142 106.1335,63.4942 C106.3745,62.7042 106.7745,61.9262 106.8315,61.1232 C107.1565,56.5922 111.0935,54.5412 113.4315,51.4002 C114.2565,50.2922 115.3585,49.3772 116.1045,48.2252 C116.5095,47.5972 116.4315,46.6572 116.0975,45.6412 C116.2435,45.4352 116.3655,45.0732 116.5395,45.0472 C121.1475,44.3412 121.4005,40.3522 122.8765,37.0802 C124.9995,32.3762 127.0375,27.4912 131.7445,24.4202 C126.5955,29.7502 125.4305,36.9212 122.4015,43.2162 L122.8005,43.9062 C123.6935,43.5922 124.6265,43.3562 125.4715,42.9422 C126.2375,42.5662 127.0015,42.0892 127.6035,41.4922 C128.5175,40.5822 129.2895,39.5312 130.1225,38.5392 L130.0555,38.6132 C131.3605,38.4372 132.6925,38.5362 133.2095,36.7322 C133.3745,36.1532 134.7545,35.9202 135.5775,35.5302 C133.9175,37.7952 133.5035,41.1102 130.1725,42.0142 C132.3245,42.2232 134.4765,42.4322 136.7705,42.6552 C137.6585,41.1262 138.6045,39.4982 139.6635,37.6742 C138.3565,36.9662 137.5775,36.1252 139.6445,35.2112 C140.1175,35.0022 140.3285,34.1972 140.6595,33.6662 C140.0065,33.5112 139.3535,33.3542 138.6985,33.1982 C139.5825,32.1912 140.4655,31.1832 141.3485,30.1752 C141.5685,30.3292 141.7885,30.4842 142.0085,30.6382 C141.7655,31.3162 141.5225,31.9952 141.2085,32.8662 C144.0245,30.9242 146.6265,29.1302 149.2285,27.3362 C148.5005,30.5572 146.2635,32.1642 143.9435,33.7742 C142.8815,34.5122 141.9515,35.5962 141.2895,36.7182 C140.3825,38.2532 139.7215,39.9482 139.1005,41.6292 C138.9095,42.1422 139.1975,42.8322 139.2775,43.5402 C137.8415,44.4702 135.3015,44.1052 134.2535,46.0762 C134.3845,46.3562 134.5155,46.6362 134.6455,46.9152 C136.5055,46.4442 138.3645,45.9722 140.3375,45.4732 C140.3375,46.1042 140.3945,46.3882 140.3285,46.4192 C136.5105,48.2692 135.0535,52.3612 132.1195,55.0392 C130.8345,56.2122 129.4085,57.2302 128.1065,58.3852 C125.8515,60.3852 125.3945,63.2182 124.6585,65.9352 C124.4095,66.8582 123.8495,67.6982 123.4305,68.5762 C123.1665,68.4892 122.9025,68.4012 122.6395,68.3142 C122.9185,66.9012 123.1975,65.4882 123.4775,64.0752 L122.9965,63.6822 C122.3115,64.4632 121.5665,65.2012 120.9625,66.0422 C120.6255,66.5122 120.6635,67.2832 120.2845,67.6822 C119.6835,68.3172 118.8735,68.7542 118.1515,69.2742 C118.1435,68.4542 118.2075,67.6252 118.1045,66.8182 C117.9995,66.0032 117.7285,65.2082 117.5295,64.4052 C116.8815,64.8902 115.8855,65.2512 115.6575,65.8872 C115.1665,67.2572 115.1445,68.7882 114.7805,70.2162 C114.6025,70.9162 114.0915,71.5312 113.7305,72.1852 C113.4155,72.0782 113.1015,71.9722 112.7865,71.8652 C113.1065,70.1172 113.2385,68.3072 113.7915,66.6362 C114.5425,64.3672 115.6145,62.2042 116.5505,59.9952 C116.5515,60.9872 116.5515,61.9802 116.5515,63.0112 L119.2025,63.0112 C118.9815,61.9512 118.6835,61.0902 118.6575,60.2202 C118.6385,59.5572 118.9655,58.8852 119.1395,58.2162 C118.8735,58.1532 118.6085,58.0902 118.3445,58.0282 C118.0975,58.3562 117.8735,58.7072 117.5965,59.0082 C117.2505,59.3832 116.8585,59.7182 116.4875,60.0702 C117.0475,58.4192 117.6085,56.7682 118.1675,55.1172 L118.0825,55.0972 C118.6175,53.2452 118.8765,51.2422 119.7795,49.5912 C120.4435,48.3792 121.9635,47.6422 123.0725,46.6602 C123.2235,46.5272 123.2015,46.1992 123.2935,45.8262 C122.9425,45.7042 122.5085,45.4182 122.3625,45.5252 C120.3985,46.9662 118.3355,48.3232 116.6145,50.0222 C116.0175,50.6132 116.2925,52.0872 116.1475,53.3382 C115.6215,53.0652 115.0745,52.7832 114.5665,52.5192 C113.6645,53.8872 112.7965,55.2062 111.7565,56.7842 C112.9765,56.5522 114.1355,56.3312 115.4745,56.0762 C114.6415,58.2962 114.6565,60.9802 111.3435,60.9912 L111.4295,61.0672 Z" id="Fill-3" fill="#231916"></path>
                <g id="编组" transform="translate(0.000000, 96.899000)">
                    <mask id="mask-2" fill="white">
                        <use xlink:href="#path-1"></use>
                    </mask>
                    <g id="Clip-6"></g>
                    <path d="M-0.0004,5.7328 C2.2846,5.0538 4.5406,4.2468 6.8606,3.7238 C11.0256,2.7848 15.2286,2.0118 19.4186,1.1828 C20.1716,1.0338 20.9606,0.7658 21.6936,0.8598 C25.6006,1.3638 29.4806,2.0908 33.3966,2.4908 C36.2416,2.7808 39.1276,2.6548 41.9936,2.7618 C50.1396,3.0638 58.2856,3.3378 66.4256,3.7568 C67.8426,3.8298 69.2086,4.6248 70.6286,4.9618 C77.3766,6.5628 83.9316,9.1868 91.0286,8.9638 C92.1256,8.9298 93.2066,8.5418 94.3036,8.3808 C95.3206,8.2318 96.4286,7.8698 97.3616,8.1148 C102.9296,9.5708 108.3986,9.1528 114.0316,8.2438 C117.3486,7.7088 120.8956,8.6868 124.3446,8.8548 C127.2926,8.9978 130.2556,9.0838 133.2036,8.9668 C138.8946,8.7418 144.5766,8.3388 150.2656,8.0498 C151.8146,7.9708 153.3716,8.0378 155.3326,8.0378 C153.9006,10.5838 152.0316,10.1138 150.2066,9.7208 C149.4766,9.5638 148.7486,9.1058 148.0456,9.1558 C145.3996,9.3438 142.7696,9.7558 140.1236,9.9528 C135.1096,10.3248 130.0926,10.8178 125.0736,10.8588 C120.8766,10.8938 116.6776,10.2448 112.4736,10.1228 C110.8086,10.0748 109.1216,10.8888 107.4526,10.8578 C104.8846,10.8098 102.3286,10.2508 99.7576,10.1378 C97.6076,10.0438 95.4366,10.4428 93.2886,10.3318 C89.2206,10.1218 85.0816,10.0968 81.1146,9.2908 C72.1666,7.4738 63.7006,3.9638 54.0896,4.7838 C45.9656,5.4778 37.6616,4.1288 29.4426,3.6118 C27.2206,3.4728 24.9696,2.6518 22.8106,2.8828 C18.2306,3.3708 13.6926,4.2898 9.1576,5.1378 C6.2216,5.6888 3.3196,6.4268 0.4016,7.0818 C0.2686,6.6318 0.1346,6.1828 -0.0004,5.7328" id="Fill-5" fill="#231916" mask="url(#mask-2)"></path>
                </g>
                <path d="M21.1969,49.0478 C21.1889,46.2168 19.2789,46.3918 17.5879,46.4798 C17.2349,46.4988 16.5369,47.5718 16.6559,47.7748 C17.6799,49.5238 19.2349,49.8198 21.1969,49.0478 M26.2569,54.4258 C25.7269,54.2628 24.7569,54.1408 24.7359,53.9288 C24.4619,51.0778 21.8989,51.1708 20.1419,50.3988 C18.5809,49.7118 18.0239,50.7758 18.4429,52.1718 C18.8139,53.4058 19.5099,54.5378 19.9749,55.7488 C20.5019,57.1218 20.0249,57.8328 18.4979,58.0488 C17.0389,58.2558 15.6199,58.7408 14.1819,59.1028 C14.1699,59.3778 14.1579,59.6518 14.1449,59.9268 C15.0549,60.4048 15.9669,60.8818 17.4649,61.6668 C14.1039,61.9448 11.3179,62.1748 8.1969,62.4328 C8.3789,58.2338 4.8929,60.3538 2.7849,59.8248 C2.7419,59.5658 2.6999,59.3058 2.6569,59.0458 C4.2459,58.4558 5.8169,57.8138 7.4259,57.2858 C10.1599,56.3908 12.9179,57.2538 15.6659,57.2448 C16.4399,57.2418 17.2149,56.8878 17.9889,56.6948 C17.5559,55.9288 17.2889,54.7268 16.6559,54.4848 C15.1349,53.9038 13.4409,53.5178 11.8159,53.5158 C8.3319,53.5098 4.8469,53.7968 1.3629,53.9638 C1.2959,53.6688 1.2289,53.3728 1.1619,53.0778 C2.7789,52.6518 4.3739,52.0538 6.0179,51.8468 C7.7309,51.6308 9.4929,51.8438 11.2289,51.7618 C11.8749,51.7318 12.5089,51.4088 13.1439,51.2018 C13.9569,50.9348 14.7639,50.6498 15.7569,50.3108 C15.3669,46.6248 15.0539,46.2338 10.6529,46.4598 C7.5509,46.6188 4.4689,47.1618 0.7579,47.6078 C4.5309,44.1978 8.8409,45.7438 12.9969,44.3878 C11.3099,43.1138 9.6239,41.8398 7.3279,40.1048 C10.4719,40.2518 12.3659,41.3638 13.5769,43.3768 C14.7039,45.2488 15.7299,45.9668 17.9919,44.9428 C18.8409,44.5578 20.5109,45.5138 21.5709,46.2158 C22.4669,46.8098 22.9029,48.0658 23.7599,48.7568 C24.4459,49.3098 25.4729,49.4218 26.3239,49.7888 C27.2809,50.2008 28.2099,50.6788 29.2749,51.1878 C29.5459,50.7848 29.8849,50.2798 30.3679,49.5628 C32.5979,55.6228 33.2059,61.5308 33.1619,67.5148 C32.7139,67.6438 32.2659,67.7718 31.8179,67.9008 C32.4099,62.2328 31.6489,57.1998 26.2439,54.3498 C26.2459,54.3498 26.2569,54.4258 26.2569,54.4258" id="Fill-7" fill="#231916"></path>
                <path d="M42.7701,55.7178 C43.7741,55.5348 44.7781,55.3528 45.2881,55.2598 C46.2831,56.9618 47.5471,58.4278 48.0031,60.1138 C48.4021,61.5838 47.9141,63.3018 47.7421,64.9028 C47.7251,65.0568 47.1401,65.3018 46.8871,65.2368 C46.6221,65.1688 46.2891,64.7998 46.2491,64.5248 C46.1571,63.8728 46.2191,63.1978 46.2191,62.2978 C43.1731,62.9038 45.3051,65.7068 43.5051,67.3018 L43.5051,60.1978 C41.7661,60.9208 40.5621,61.4208 39.0341,62.0548 C41.6171,63.6388 41.6391,65.1198 39.5791,66.9648 C39.0411,67.4458 39.1531,69.0068 39.4511,69.9128 C39.5901,70.3378 40.8691,70.4948 41.6511,70.5748 C42.7101,70.6838 43.7901,70.6018 44.8891,71.1858 C42.7811,71.4738 40.6761,71.8188 38.5571,71.9730322 C38.3091,71.9908 37.7301,70.9578 37.7371,70.4168 C37.7761,67.2268 37.9511,64.0378 38.0491,60.8468 C38.0551,60.6298 37.8051,60.4038 37.6741,60.1808 C37.3611,60.2108 37.0471,60.2408 36.7331,60.2708 C36.5081,63.1698 36.1971,66.0648 36.0841,68.9678 C35.9891,71.4318 35.0401,72.1878 32.7821,71.2478 C31.9211,70.8888 31.1221,70.3868 30.2941,69.9498 C30.4221,69.6728 30.5511,69.3948 30.6791,69.1168 C31.2791,69.3548 31.8621,69.6538 32.4811,69.8208 C34.4381,70.3498 35.3351,69.3708 35.0681,67.4238 C34.7771,65.3128 34.8041,63.1588 34.6861,61.0248 C34.6281,59.9938 34.7251,58.9178 34.4581,57.9428 C33.5151,54.4958 32.5851,51.0928 32.5911,47.4388 C32.5921,46.3758 31.1241,45.3108 30.4771,44.4428 C31.5031,44.0478 32.4151,43.4028 33.2861,43.4518 C34.0311,43.4938 35.1411,44.1978 35.3551,44.8498 C35.6861,45.8588 35.3241,47.0768 35.3861,48.1988 C35.4271,48.9428 35.6971,49.6738 35.8651,50.4098 C36.1481,50.4008 36.4311,50.3908 36.7141,50.3808 C36.9111,49.2098 37.1071,48.0388 37.3041,46.8678 C37.5691,46.8638 37.8341,46.8598 38.0991,46.8558 C38.0991,48.2848 38.4721,49.8488 38.0161,51.1138 C37.2421,53.2648 38.1811,54.5138 39.6661,55.9078 C40.4001,55.3428 41.1251,54.7818 42.0211,54.0918 C42.3391,54.7478 42.5871,55.2588 42.8371,55.7708 C41.6011,56.7908 40.3641,57.8088 38.9741,58.9518 C42.4971,59.7548 43.3581,58.9288 42.7701,55.7178" id="Fill-9" fill="#231916"></path>
                <path d="M137.5191,61.4106 C136.3431,62.8006 135.1201,64.1526 134.0101,65.5936 C133.3321,66.4746 132.8311,67.4936 132.2491,68.4496 L130.9871,67.3626 C131.0291,62.5266 136.4851,61.0316 137.8011,56.7996 C137.2901,57.1296 136.7671,57.4416 136.2721,57.7926 C134.6691,58.9266 133.9431,61.1566 131.3851,61.2276 C130.7701,61.2446 130.2091,63.2286 129.3431,64.8266 C129.2281,64.8586 128.4801,65.0716 128.4741,65.0736 C128.3811,66.9456 128.5081,68.3746 128.1941,69.6986 C127.8041,71.3326 128.6911,71.7136 129.8171,71.4856 C131.4441,71.1566 132.9991,70.4716 134.5851,69.9376 L135.0011,70.6276 C133.8691,71.2656 132.7991,72.1026 131.5861,72.4926 C129.9881,73.0066 128.2621,73.4746 126.6171,73.4006 C124.7851,73.3186 122.9781,72.6156 121.1731,72.1386 C121.0591,72.1076 121.0491,71.6866 120.9401,71.2356 C122.2201,71.3346 123.4031,71.5716 124.5531,71.4666 C125.4701,71.3836 126.7981,71.1356 127.1471,70.5136 C127.7971,69.3546 128.7571,67.8996 127.1551,66.5116 C126.7811,66.1866 126.5921,65.1806 126.8091,64.7186 C127.9261,62.3346 129.2051,60.0256 130.5331,57.4866 C131.2391,58.2266 131.8021,58.8176 132.4061,59.4506 C134.7371,57.5586 137.0181,55.7076 139.2991,53.8576 C139.2221,53.6986 139.1441,53.5396 139.0671,53.3806 C138.3061,53.4386 137.5451,53.4966 136.7841,53.5556 C136.6191,53.3106 136.4531,53.0656 136.2881,52.8206 C142.3261,48.2126 148.3641,43.6046 154.4461,38.9626 C155.2581,40.5666 155.2581,40.5666 152.4421,43.3936 C153.2541,43.6426 153.9821,43.8666 154.7081,44.0896 C154.7641,44.3416 154.8191,44.5926 154.8741,44.8446 C153.3501,45.3396 151.7471,45.6726 150.3201,46.3686 C148.2071,47.3986 146.1491,48.5866 144.2371,49.9466 C143.8371,50.2306 144.1791,51.5556 144.1791,53.1436 C143.3321,53.8816 141.9651,55.0726 139.8951,56.8776 C140.9951,57.1406 141.7791,57.3276 142.5631,57.5156 L142.0651,58.3986 C140.9851,58.8776 139.8471,59.2626 138.8471,59.8726 C138.2661,60.2266 137.9061,60.9446 137.4461,61.4986 L137.5191,61.4106 Z" id="Fill-11" fill="#231916"></path>
                <g id="编组" transform="translate(80.000000, 0.899000)">
                    <mask id="mask-4" fill="white">
                        <use xlink:href="#path-3"></use>
                    </mask>
                    <g id="Clip-14"></g>
                    <path d="M18.2516,8.1454 C17.4396,8.7904 16.9206,9.2024 16.5296,9.5124 C16.8866,10.1894 17.3006,10.9774 17.9956,12.2974 C15.0416,11.6004 12.0066,15.3484 10.8186,10.8094 C7.4516,13.9774 4.2726,16.9664 0.6136,20.4094 C1.5706,16.3884 11.0366,7.4774 16.9476,4.4294 C17.0986,4.5024 17.3086,4.5374 17.3866,4.6584 C17.9066,5.4674 17.4876,7.3004 19.2966,6.5854 C19.5636,6.4794 19.3176,4.8704 19.1646,3.9814 C19.0526,3.3344 18.7026,2.7284 18.4596,2.1084 C20.1106,1.4064 21.5996,0.7734 23.1816,0.1004 C25.1216,1.4904 26.7866,3.1834 29.9766,1.8514 C31.5206,1.2074 34.0956,2.9144 36.1406,3.7184 C36.4466,3.8384 36.4016,4.8514 36.5666,5.6874 C34.1486,4.6264 31.3386,4.6984 28.1426,5.4384 C26.6086,5.7934 24.9446,5.5924 23.4226,5.9724 C22.6166,6.1734 21.6776,6.9424 21.3416,7.6974 C20.4956,9.6004 19.5206,9.5334 18.2516,8.1454" id="Fill-13" fill="#231916" mask="url(#mask-4)"></path>
                </g>
                <path d="M41.3805,37.3315 C38.2685,32.7195 36.8045,26.8405 29.9965,25.6415 C30.2205,25.3385 30.4425,25.0355 30.6655,24.7325 C32.1085,25.1605 33.5505,25.5875 35.2985,26.1055 C35.0315,21.3645 29.1595,22.2875 28.5585,18.2195 C29.6725,18.9185 30.7855,19.6185 31.9005,20.3175 C32.0225,20.1175 32.1445,19.9185 32.2675,19.7185 C31.1485,18.6415 30.7345,16.6895 28.2755,17.3555 C26.9855,17.7045 26.8015,17.1635 27.5825,15.0775 C25.0585,16.5475 24.2085,15.5905 23.3925,13.1385 C22.6165,10.8095 20.7965,8.8275 19.3485,6.5565 C20.8885,6.3815 22.4435,6.2185 23.7235,8.0065 C24.5025,9.0955 25.7105,9.8785 26.7385,10.7855 C26.8595,10.8935 27.1225,10.8655 27.2115,10.9825 C29.6755,14.2325 32.1245,17.4935 34.6605,20.8645 C35.4605,18.6535 36.2835,16.3745 37.1085,14.0955 C37.5095,14.1755 37.9095,14.2565 38.3115,14.3365 C36.7675,19.4485 35.9695,24.5295 38.6735,29.5605 C43.0815,30.5835 39.5565,34.9925 41.3805,37.3315" id="Fill-15" fill="#231916"></path>
                <g id="编组" transform="translate(67.000000, 138.899000)">
                    <mask id="mask-6" fill="white">
                        <use xlink:href="#path-5"></use>
                    </mask>
                    <g id="Clip-18"></g>
                    <path d="M11.9439,3.5951 C12.1099,0.5611 12.3459,0.1351 15.9809,2.1531 C19.3039,3.9981 22.0389,6.9021 25.3649,9.6101 C23.1319,10.6661 22.0059,10.1121 20.8059,9.0291 C15.3949,4.1441 15.4879,4.6691 11.7379,9.8761 C9.5699,12.8871 8.1649,16.4431 6.0679,19.5161 C5.4229,20.4601 3.6359,20.9681 2.3549,21.0002807 C1.6169,21.0181 0.8439,19.6871 0.2869,18.7781 C4.3279,19.4511 7.1599,17.4061 7.8749,13.2971 C7.9899,12.6361 8.2709,11.9991 8.5069,11.3631 C8.9329,10.2141 10.1819,9.4831 9.2179,7.6951 C8.8489,7.0101 11.0039,4.9641 12.0059,3.5401 C11.9369,4.3871 11.8689,5.2341 11.7839,6.2981 C13.1759,5.6051 14.1699,5.1711 15.0909,4.6201 C15.4449,4.4091 15.6379,3.9291 15.9039,3.5731 C15.4819,3.4401 15.0509,3.1771 14.6379,3.2011 C13.7349,3.2551 12.8409,3.4551 11.9439,3.5951" id="Fill-17" fill="#231916" mask="url(#mask-6)"></path>
                </g>
                <path d="M137.4459,61.4985 C138.6279,61.3205 139.8819,61.3335 140.9679,60.9135 C142.0979,60.4775 143.2459,59.7755 144.0149,58.8745 C144.3259,58.5115 143.6529,57.3095 143.3639,56.2575 C145.6729,54.1145 151.2389,53.8725 149.1539,47.7365 C150.7149,47.3925 152.5739,46.9825 154.4329,46.5735 C154.4969,47.2305 154.8609,48.1115 154.5689,48.5045 C153.5819,49.8305 152.3619,50.9825 150.7839,52.6835 C152.4849,52.2035 153.5389,51.9065 154.5919,51.6095 C154.7719,51.9085 154.9519,52.2075 155.1309,52.5065 C151.9049,54.6125 147.0749,54.8395 146.0469,59.8115 L154.9949,59.8115 C154.0599,61.9245 151.7289,62.8175 149.4929,61.7465 C146.5429,60.3315 144.5719,61.0985 142.9639,63.7205 C142.7379,64.0885 142.1619,64.2415 141.3219,64.7525 C141.5649,63.6335 141.7089,62.9695 141.8509,62.3125 C140.5109,61.4365 138.3149,64.8265 137.5179,61.4125 C137.5189,61.4105 137.4459,61.4985 137.4459,61.4985" id="Fill-19" fill="#231916"></path>
                <path d="M85.7242,25.0664 L86.0812,25.7384 C87.7272,25.3364 89.3732,24.9334 91.0192,24.5304 C90.2422,22.2224 94.1722,23.3174 93.5562,20.8274 C90.4422,21.5794 87.8062,22.8324 85.7242,25.0664 M93.0612,27.6044 C91.8432,27.0174 90.6262,26.4304 89.2332,25.7574 C87.8132,26.5434 86.1742,27.4494 84.3382,28.4654 C84.1702,27.6704 84.0382,27.0484 83.8842,26.3214 C83.3282,26.5394 82.8212,26.7384 82.3152,26.9374 C82.2012,26.8194 82.0872,26.7024 81.9742,26.5844 C82.7262,25.7194 83.4722,24.8494 84.2322,23.9914 C85.3532,22.7254 85.3572,22.7294 84.1132,21.5864 C85.3032,18.6724 88.0832,18.1224 90.7542,17.3854 C89.4662,18.2704 88.1782,19.1554 86.8902,20.0414 L86.8022,20.7724 C87.5822,20.8314 88.4882,21.1734 89.1202,20.8954 C90.8862,20.1144 92.4432,18.5344 94.5372,20.2414 C94.7802,20.4394 95.8792,20.1464 95.9252,19.9364 C96.5622,17.0544 99.3362,17.1184 101.2232,15.9834 C102.1842,15.4034 103.1242,14.7634 104.1502,14.3304 C104.5312,14.1684 105.1272,14.5174 105.6262,14.6334 C105.3532,15.0744 105.1832,15.7074 104.7872,15.9184 C103.7342,16.4814 102.3922,16.6344 101.5152,17.3684 C100.0912,18.5594 98.9472,20.0834 97.3402,21.8444 C94.7362,20.7014 94.1212,24.2544 91.9882,25.5104 C92.3782,26.2724 92.7192,26.9384 93.0612,27.6044" id="Fill-21" fill="#231916"></path>
                <path d="M31.9781,121.9477 C26.5311,119.5457 23.9201,116.1927 26.3031,112.4317 C27.9681,109.8027 32.5821,107.8077 35.4721,108.6917 C35.8681,108.8127 36.3631,109.0357 36.5441,109.3607 C38.3271,112.5487 40.8231,115.3947 40.2341,119.5627 C39.7831,122.7577 40.3161,122.9047 43.5451,122.8727 C45.0921,122.8577 46.6451,123.5177 48.1521,124.4877 C47.3791,124.6757 46.5031,124.6977 45.8641,125.0977 C45.2581,125.4777 44.9021,126.2557 44.4361,126.8577 L43.8381,126.5087 C44.1511,125.7347 44.4641,124.9607 44.7831,124.1747 C41.5731,123.7227 40.9681,124.6367 41.0031,129.7717 C38.8151,129.3207 38.4691,128.1037 39.6451,125.1897 C38.4661,124.6637 37.2741,124.1327 36.0831,123.6017 L35.8511,122.8547 C38.7891,121.8887 39.7581,119.8557 39.0301,117.3057 C38.1611,114.2647 36.8731,110.9457 33.8311,109.9217 C32.2911,109.4037 29.6591,110.9997 28.0091,112.2727 C26.3761,113.5337 26.3181,115.6637 27.7891,117.3997 C29.1211,118.9707 30.5771,120.4357 31.9781,121.9477" id="Fill-23" fill="#231916"></path>
                <path d="M44.606,41.2847 C44.054,40.9777 43.376,40.2907 42.972,40.4267 C40.808,41.1497 41.191,39.7967 41.146,38.5797 C44.47,38.7297 45.361,37.8907 46.462,34.0867 C44.774,31.5517 43.264,29.2847 41.754,27.0187 C41.97,26.7997 42.187,26.5807 42.403,26.3617 C43.781,27.5887 45.16,28.8147 46.711,30.1957 C47.064,29.6327 47.339,29.1917 48.001,28.1347 C49.176,32.3067 54.365,33.7087 53.592,39.4757 C51.99,37.6387 50.858,36.3407 49.582,34.8777 C48.868,35.2327 47.909,35.7107 46.66,36.3317 C47.98,38.0017 49.197,39.6957 50.579,41.2417 C52.017,42.8497 53.446,44.3987 52.889,47.0777 C50.792,44.1177 48.693,41.1587 46.411,37.9377 C45.506,39.5117 45.017,40.3647 44.527,41.2167 L44.606,41.2847 Z" id="Fill-25" fill="#231916"></path>
                <path d="M63.4957,43.4795 C62.8257,41.9355 61.8497,40.4465 61.5637,38.8335 C61.2257,36.9355 61.4847,34.9305 61.0247,32.9605 C58.9847,35.1025 58.5467,37.7215 59.1007,40.1245 C59.6527,42.5145 61.1727,44.6805 62.2767,46.9625 C60.4777,47.0865 55.6517,40.6465 55.5047,37.2735 C56.0997,38.0525 56.6937,38.8305 57.2887,39.6095 C57.5187,39.5475 57.7487,39.4865 57.9787,39.4245 C57.2787,35.5425 56.5797,31.6615 55.8347,27.5335 C57.9437,27.0275 56.3907,25.2125 56.0707,23.6675 C57.8477,24.1865 57.7367,24.1965 58.0317,27.3495 C58.1817,28.9365 58.8127,30.4775 59.2487,32.1205 L63.3127,32.1205 C63.0787,32.9815 62.9077,33.5725 62.7597,34.1685 C62.5737,34.9105 62.0927,36.2135 62.2787,36.3195 C65.4367,38.1075 62.7737,40.6795 63.2427,42.7865 C63.2987,43.0385 63.3797,43.2845 63.4487,43.5335 L63.4957,43.4795 Z" id="Fill-27" fill="#231916"></path>
                <path d="M123.2496,12.0322 C123.7926,11.5442 124.4236,10.9772 124.6566,10.7672 L131.0636,10.7672 L131.5066,11.1582 C130.8526,11.5472 130.0906,12.3772 129.5606,12.2492 C126.6386,11.5452 125.0516,14.0872 123.0096,15.1172 C120.9556,16.1552 120.9396,15.8372 120.6736,14.0792 C120.6216,13.7412 119.8466,13.5132 119.4046,13.2352 C119.3596,13.6832 119.2166,14.1492 119.2946,14.5752 C119.4136,15.2302 119.6846,15.8572 119.8906,16.4952 C119.1356,16.2832 118.3806,16.0732 117.6266,15.8572 C117.4666,15.8112 117.3126,15.7402 117.1656,15.6852 C114.9426,17.4142 112.7286,19.1382 110.6166,20.7822 C109.4786,20.0432 108.2456,19.2412 106.4376,18.0672 C107.5226,17.6042 108.3996,17.2422 109.2676,16.8572 C110.8246,16.1652 112.4106,15.5272 113.9216,14.7442 C116.3306,13.4952 118.6496,12.0652 121.1046,10.9192 C121.5186,10.7262 122.4196,11.5782 123.2496,12.0322" id="Fill-29" fill="#231916"></path>
                <path d="M95.606,77.0791 C98.18,77.0791 100.759,77.1811 103.326,77.0471 C105.441,76.9381 107.537,76.4261 109.651,76.3381 C110.71,76.2931 111.787,76.9811 112.866,77.0171 C116.08,77.1231 119.303,77.1791 122.511,77.0171 C123.498,76.9681 124.401,75.9591 125.419,75.7301 C127.941,75.1641 130.5,74.7461 133.06,74.3931 C133.484,74.3351 133.994,74.9041 134.464,75.1831 C134.075,75.5591 133.748,76.1391 133.286,76.2791 C130.479,77.1301 127.681,78.2901 124.806,78.5581 C121.335,78.8821 117.792,78.3471 114.278,78.3211 C110.819,78.2951 107.359,78.4331 103.9,78.5281 C103.581,78.5371 103.238,78.9051 102.955,78.8521 C100.492,78.3881 98.04,77.8661 95.585,77.3611 C95.591,77.2661 95.599,77.1731 95.606,77.0791" id="Fill-31" fill="#231916"></path>
                <path d="M87.0504,131.7016 C85.4074,132.8386 84.2444,133.6816 83.0414,134.4646 C81.5504,135.4356 79.8724,136.1806 78.5534,137.3396 C76.7994,138.8816 75.3794,136.8856 73.7474,137.1336 C73.3354,137.1956 72.7064,135.8326 72.1774,135.1246 C72.3544,134.9746 72.5314,134.8256 72.7084,134.6756 C73.7894,135.1036 74.8634,135.5486 75.9534,135.9526 C76.3424,136.0976 76.8804,136.3546 77.1564,136.2036 C79.4044,134.9866 81.8844,133.9976 83.7544,132.3326 C86.5674,129.8296 87.1054,129.5426 89.9344,131.1606 C91.3194,131.3376 92.8664,131.2066 94.0224,131.8176 C94.6214,132.1346 94.8624,133.8596 94.6074,134.7646 C94.4744,135.2376 92.7424,135.7536 92.0504,135.4716 C90.7514,134.9426 89.6704,133.8636 88.5244,132.9816 C87.9394,132.5326 87.4074,132.0146 87.0504,131.7016" id="Fill-33" fill="#231916"></path>
                <path d="M53.2848,22.3154 C51.1328,18.1654 45.9338,18.5154 44.4288,14.8414 C45.7908,14.2594 46.7698,13.8414 47.7488,13.4234 C46.7238,12.7624 45.6998,12.1004 44.6758,11.4394 C44.6088,11.5524 44.5438,11.6664 44.4768,11.7794 C43.0478,10.0574 41.6168,8.3354 40.1258,6.5394 C43.6118,5.1774 53.5098,16.7624 53.2848,22.3154" id="Fill-35" fill="#231916"></path>
                <path d="M59.1793,50.7114 C58.8523,52.4164 58.5253,54.1204 58.1383,56.1334 C58.0543,55.9364 58.0753,56.1554 58.1943,56.2394 C61.5063,58.5844 61.4833,58.5694 59.6493,62.2654 C59.3353,62.8964 59.3633,63.6904 59.1793,64.3954 C58.8753,65.5584 58.5293,66.7114 58.1343,68.1014 C56.8493,67.2594 56.0373,66.7274 55.0523,66.0824 C56.8523,64.6044 56.8773,63.1314 56.2703,60.8974 C55.4543,57.8954 56.5503,54.6364 57.0183,51.5134 C57.0913,51.0304 57.8743,50.6544 58.3283,50.2294 C58.6133,50.3904 58.8963,50.5504 59.1793,50.7114" id="Fill-37" fill="#231916"></path>
                <path d="M122.0719,97.647 C119.1809,97.992 116.2729,98.738 113.4049,98.606 C104.3169,98.19 95.2449,97.445 86.1669,96.827 C86.1869,96.445 86.2079,96.063 86.2279,95.681 C98.1569,96.146 110.0859,96.61 122.0149,97.075 C122.0339,97.266 122.0519,97.457 122.0719,97.647" id="Fill-39" fill="#231916"></path>
                <path d="M39.5934,49.6235 C38.9594,46.1645 38.3254,42.7055 37.7074,39.3295 C36.2034,38.5035 34.6254,37.6385 32.5784,36.5155 C33.7094,36.0845 34.2844,35.8665 35.1894,35.5225 C34.4304,34.9775 33.9044,34.2755 33.3834,34.2795 C30.2934,34.2995 29.8444,31.5105 28.4444,29.7655 C28.2464,29.5195 28.4344,28.5495 28.6504,28.4685 C29.2164,28.2575 30.1624,28.0675 30.4884,28.3725 C32.1354,29.9095 33.7454,31.5165 35.1434,33.2775 C36.1924,34.5985 36.5684,36.6425 37.8274,37.5665 C40.4314,39.4755 39.8514,42.0995 40.0534,44.5455 C40.1904,46.2125 39.9104,47.9145 39.8174,49.6005 C39.7424,49.6075 39.6674,49.6155 39.5934,49.6235" id="Fill-41" fill="#231916"></path>
                <path d="M42.8922,139.4487 C44.0502,139.0257 44.8842,138.7007 45.7412,138.4527 C45.7992,138.4357 46.2032,139.1987 46.1432,139.2497 C45.4582,139.8437 44.7202,140.3767 43.9872,140.9127 C41.6192,142.6457 39.2462,144.3727 36.7562,146.1877 C35.6792,144.6277 36.3732,143.7217 37.6662,143.0477 C40.9702,141.3267 40.9772,141.3407 39.9562,137.9037 L25.4992,137.9037 C27.5062,136.7647 28.7652,136.0067 30.9822,136.7117 C32.9222,137.3287 35.5992,137.1697 37.4102,136.2677 C39.7192,135.1167 40.5432,136.1877 41.6172,137.6087 C42.0782,138.2197 42.4912,138.8657 42.8922,139.4487" id="Fill-43" fill="#231916"></path>
                <path d="M89.9449,120.0381 C89.8739,119.3101 89.5189,118.4511 89.7839,117.8781 C90.7569,115.7691 91.9359,113.7541 93.2209,111.3611 C93.6319,111.5711 94.5949,111.9131 95.3729,112.5011 C96.6749,113.4851 97.7569,114.4551 99.7129,114.0641 C101.1129,113.7851 101.8079,115.0451 100.8049,116.2771 C99.8069,117.5031 98.9009,119.6021 96.7159,118.0281 C96.0669,117.5591 94.5689,116.8681 96.2219,115.7301 C96.3539,115.6401 96.5069,115.5791 96.6479,115.5051 C95.6249,114.7651 94.6009,114.0251 93.0799,112.9261 C94.3619,116.6911 91.7959,118.4821 90.8469,120.8341 C90.6189,120.7411 90.3899,120.6471 90.1619,120.5541 L89.9449,120.0381 Z" id="Fill-45" fill="#231916"></path>
                <path d="M33.3697,89.7783 C29.0657,89.7783 24.7497,89.5693 20.4647,89.8453 C17.1057,90.0613 13.8027,91.0613 10.4427,91.3733 C7.6077,91.6373 4.7217,91.4973 1.8697,91.3353 C1.3247,91.3043 0.7567,90.3873 0.3627,89.7753 C0.2357,89.5773 0.6877,88.7033 0.7767,88.7183 C1.3897,88.8233 1.9737,89.0933 2.5737,89.2883 C3.7847,89.6803 5.0317,90.4563 6.2057,90.3603 C8.8387,90.1443 11.4287,89.4403 14.0527,89.0393 C15.2327,88.8583 16.4517,88.8823 17.6527,88.8863 C21.3917,88.9013 25.1317,88.9773 28.8697,88.9623 C29.5137,88.9603 30.1527,88.4893 30.7987,88.4803 C31.6987,88.4673 32.6017,88.6843 33.5057,88.8033 C33.4597,89.1283 33.4147,89.4533 33.3697,89.7783" id="Fill-47" fill="#231916"></path>
                <path d="M55.1383,133.0088 C56.7993,129.2568 56.6703,128.8298 53.0923,126.2518 C53.1703,126.0168 53.2473,125.7818 53.3263,125.5468 C54.7993,126.0348 56.2733,126.5228 57.9053,127.0628 C57.7413,126.4048 57.5693,125.7138 57.3983,125.0228 C61.7733,122.6368 61.7733,122.6368 63.0943,124.2998 C62.6533,125.5028 62.2443,126.6188 61.7563,127.9488 C61.4153,127.7058 60.9223,127.3548 59.9833,126.6848 C59.6543,127.8518 59.1423,128.9358 59.0773,130.0468 C58.9553,132.1568 57.5123,133.3418 55.1383,133.0088" id="Fill-49" fill="#231916"></path>
                <path d="M130.1226,38.5395 C129.1306,39.2245 128.1396,39.9095 127.1466,40.5935 C126.9466,40.4475 126.7476,40.3015 126.5476,40.1555 C127.2476,38.6965 127.9466,37.2365 128.6936,35.6785 L126.7866,35.6785 C126.6956,35.4905 126.6046,35.3015 126.5136,35.1125 C131.5116,31.6275 136.5086,28.1415 141.5066,24.6565 C141.7716,24.9645 142.0386,25.2735 142.3056,25.5815 C141.5186,26.2835 140.7346,26.9885 139.9436,27.6855 C138.3006,29.1365 136.7216,30.6715 134.9796,31.9955 C134.0786,32.6815 132.8536,32.9285 131.8436,33.4935 C131.2096,33.8475 130.3446,34.3415 130.2096,34.9185 C129.9356,36.0975 130.0826,37.3745 130.0566,38.6125 C130.0556,38.6135 130.1226,38.5395 130.1226,38.5395" id="Fill-51" fill="#231916"></path>
                <path d="M39.8502,83.5361 C30.0732,80.5671 20.6172,82.3581 11.2792,81.9491 C9.4082,81.8671 7.5092,82.8341 5.5942,83.1311 C4.8382,83.2491 4.0032,82.8581 2.8172,82.6211 C3.4782,81.9171 3.5882,81.6941 3.7052,81.6891 C13.6172,81.3491 23.5272,80.9471 33.4422,80.7691 C35.3312,80.7361 37.2462,81.5661 39.1262,82.0831 C39.3692,82.1501 39.4672,82.7361 39.8502,83.5361" id="Fill-53" fill="#231916"></path>
                <path d="M63.4488,43.5332 C66.1408,47.9232 66.1408,47.9232 65.1858,52.5322 C65.1688,52.6172 65.1808,52.7312 65.1298,52.7832 C62.8248,55.1112 63.3778,57.9212 63.7368,60.7202 C63.7818,61.0732 63.4208,61.4782 63.1838,61.9972 C65.4318,62.2822 65.8088,63.3582 64.7718,65.0642 C63.5768,64.6602 62.4908,64.2942 61.0988,63.8252 C61.3688,62.3192 61.9068,60.5832 61.9268,58.8412 C61.9478,57.0222 61.4498,55.1992 61.2198,53.3732 C61.1308,52.6582 61.1528,51.9302 61.1238,51.2082 C61.7028,51.4912 62.2818,51.7732 62.9848,52.1162 C64.2608,51.2562 64.8008,47.8662 63.8928,45.6232 C63.6268,44.9672 63.6098,44.2102 63.4878,43.4892 C63.4958,43.4792 63.4488,43.5332 63.4488,43.5332" id="Fill-55" fill="#231916"></path>
                <path d="M144.6783,16.7134 C145.0363,18.3824 145.3103,19.6534 145.6013,21.0094 C142.7563,21.1634 140.6863,21.7044 139.6383,24.0874 C139.5403,24.3074 139.3353,24.5394 139.1203,24.6404 C137.3413,25.4744 135.5483,26.2784 133.8633,27.0454 C134.0593,24.5314 135.6323,22.9664 144.6783,16.7134" id="Fill-57" fill="#231916"></path>
                <path d="M56.9781,155.5893 C57.0031,155.7603 57.0911,155.9513 57.0431,156.0993 C56.0851,159.1033 50.9841,160.4263 48.6401,158.4503 C47.4921,157.4823 46.0151,156.8193 44.5871,156.2843 C42.3431,155.4433 41.6911,154.5413 42.4541,152.7783 C45.7841,153.9673 48.6071,157.9543 52.9741,154.1773 C53.0451,155.3303 53.0891,156.0273 53.1651,157.2433 C54.5571,156.6673 55.7981,156.1543 57.0391,155.6413 L56.9781,155.5893 Z" id="Fill-59" fill="#231916"></path>
                <path d="M92.2174,83.7759 C97.0764,84.1449 101.6684,84.4569 106.2534,84.8519 C110.1714,85.1899 114.0814,85.6269 117.9964,86.0089 C118.8614,86.0929 119.7294,86.1299 121.2624,86.2329 C117.5194,87.9969 93.9504,85.9139 92.2174,83.7759" id="Fill-61" fill="#231916"></path>
                <path d="M116.8219,23.9917 C117.8079,23.4207 118.7559,22.4697 119.7909,22.3617 C121.6299,22.1687 122.8689,21.7707 122.4869,19.4327 C124.0519,19.4327 125.4319,19.3127 126.7759,19.4837 C127.4409,19.5677 128.0899,20.1307 128.6299,20.6077 C128.7599,20.7237 128.4489,21.6887 128.3189,21.6937 C127.7229,21.7177 127.1209,21.5257 126.5159,21.4367 C126.1169,21.3767 125.7109,21.3597 124.9699,21.2927 C125.3659,22.1097 125.6349,22.6627 126.1609,23.7497 C123.1029,24.2757 120.2419,24.7687 117.3799,25.2617 C117.1939,24.8387 117.0079,24.4147 116.8219,23.9917" id="Fill-63" fill="#231916"></path>
                <path d="M97.8756,89.2251 C107.4726,89.7861 117.0686,90.3471 126.6656,90.9071 C126.6576,91.4191 126.6496,91.9311 126.6436,92.4431 C124.2156,92.3181 121.7846,92.2331 119.3606,92.0491 C118.3556,91.9731 117.3756,91.5871 116.3706,91.5101 C110.1746,91.0361 103.9756,90.6091 97.7756,90.1661 C97.8096,89.8531 97.8426,89.5391 97.8756,89.2251" id="Fill-65" fill="#231916"></path>
                <path d="M49.399,66.6489 C49.88,65.0069 50.174,63.2759 50.897,61.7479 C51.627,60.2069 51.016,59.5639 49.81,58.8779 C47.615,57.6289 47.377,55.9919 48.92,53.9199 C50.223,52.1709 51.449,50.3649 52.71,48.5839 C53.022,48.7679 53.335,48.9519 53.646,49.1349 C52.788,50.6859 52.15,52.4299 51.011,53.7369 C49.7,55.2409 49.056,55.9609 51.165,57.5199 C54.385,59.9019 54.216,60.8539 51.587,64.1859 C50.986,64.9469 50.683,65.9429 50.244,66.8309 C49.962,66.7709 49.68,66.7099 49.399,66.6489" id="Fill-67" fill="#231916"></path>
                <path d="M17.3228,75.2378 C16.8568,74.3898 16.3898,73.5418 15.7258,72.3358 C17.9048,71.7768 20.0578,70.6968 22.0818,70.9018 C23.3078,71.0258 25.0038,73.0018 25.2798,74.3868 C25.6148,76.0698 23.9668,75.7158 22.6718,75.3888 C20.9718,74.9598 19.1928,74.8458 17.4478,74.5968 C17.4068,74.8108 17.3648,75.0238 17.3228,75.2378" id="Fill-69" fill="#231916"></path>
                <path d="M26.2564,54.4263 C26.2564,54.4263 26.2454,54.3503 26.2434,54.3493 C27.3484,57.3533 28.4774,60.3503 29.5414,63.3693 C29.7724,64.0223 29.7734,64.7553 29.8784,65.4513 C29.6334,65.5233 29.3874,65.5953 29.1414,65.6673 C28.4574,64.0183 27.7734,62.3683 27.3084,61.2473 C25.3074,60.8243 23.8024,60.4143 22.2704,60.2273 C21.6724,60.1553 21.0264,60.6583 20.3794,60.7663 C19.8204,60.8593 19.1974,60.8653 18.6714,60.6983 C18.4764,60.6363 18.2814,59.7353 18.4194,59.6203 C18.8354,59.2783 19.4174,58.9443 19.9304,58.9503 C21.6374,58.9733 23.3424,59.1463 25.4044,59.2853 C25.6694,57.7733 25.9624,56.0993 26.2564,54.4263" id="Fill-71" fill="#231916"></path>
                <path d="M114.2711,41.3921 C117.0361,39.5831 118.6471,39.5461 119.9831,41.2601 C113.7591,42.7261 110.7861,48.2971 106.3681,52.0451 C106.1671,48.5311 107.2341,46.9861 109.0671,47.0791 C110.3201,45.8091 111.2451,44.9251 112.1061,43.9821 C112.8931,43.1211 113.6101,42.1961 114.3541,41.3051 C114.3491,41.3101 114.2711,41.3921 114.2711,41.3921" id="Fill-73" fill="#231916"></path>
                <path d="M142.1607,76.4673 C146.3147,75.3333 150.4687,74.1983 154.6227,73.0643 C154.7327,73.4683 154.8437,73.8723 154.9537,74.2763 C151.6697,75.0983 148.3867,75.9203 145.1027,76.7413 C145.1037,76.9913 145.1037,77.2413 145.1047,77.4913 C145.9317,77.6303 146.8017,78.0023 147.5767,77.8623 C149.5807,77.4983 151.5307,76.8463 153.5307,76.4503 C154.0277,76.3523 154.6327,76.7883 155.1867,76.9783 C154.8897,77.3493 154.6257,78.0103 154.2937,78.0463 C151.3607,78.3573 148.4177,78.7143 145.4767,78.7133021 C144.2567,78.7133021 143.0357,77.8763 141.8157,77.4193 C141.9307,77.1023 142.0457,76.7843 142.1607,76.4673" id="Fill-75" fill="#231916"></path>
                <path d="M98.1939,146.4819 C97.3379,148.1849 98.0649,150.7469 95.1029,150.1599 C94.6249,146.1299 99.0729,145.0329 99.6349,141.4429 C101.6929,143.4509 102.2369,147.0599 101.0259,148.4999 C100.8259,148.7389 99.8479,148.6059 99.4519,148.3279 C98.9759,147.9949 98.7389,147.3229 98.1939,146.4819" id="Fill-77" fill="#231916"></path>
                <path d="M89.9449,120.0381 L90.1619,120.5541 C90.0119,122.3801 89.8629,124.2061 89.7139,126.0331 C89.4389,126.0301 89.1639,126.0261 88.8879,126.0231 C89.3709,127.2061 89.8529,128.3911 90.3359,129.5741 C90.1239,129.7001 89.9119,129.8271 89.6999,129.9531 C88.2199,128.3911 86.7399,126.8301 85.1429,125.1441 C86.0399,123.6461 86.8159,122.0961 87.8539,120.7471 C88.2269,120.2621 89.2289,120.2601 89.9449,120.0381" id="Fill-79" fill="#231916"></path>
                <path d="M86.6588,70.1865 C87.1498,70.8875 87.5698,71.4865 88.3138,72.5475 C83.6308,72.6895 79.4718,71.6945 75.2638,72.2005 C78.1338,71.0805 80.8768,69.8835 83.9658,71.3865 C85.1788,71.9765 86.2138,70.9915 86.0838,69.3345 C85.9758,67.9575 86.0618,66.5645 86.0618,64.8555 C89.2168,66.6825 89.2618,67.7305 86.6588,70.1865" id="Fill-81" fill="#231916"></path>
                <path d="M44.2867,116.8086 C46.3717,115.9376 47.6167,117.1996 48.4107,118.5486 C49.3967,120.2256 50.2097,121.6626 52.5277,121.2956 C53.0477,121.2126 53.6827,121.8636 54.2047,122.7876 C53.6207,122.8566 52.9867,123.1096 52.4637,122.9646 C49.6707,122.1916 46.8877,121.3746 44.1447,120.4406 C43.5347,120.2316 43.1037,119.4936 42.5917,118.9986 C43.2427,119.0296 43.9007,119.0166 44.5457,119.1016 C45.2487,119.1956 45.9397,119.3806 46.6367,119.5266 C46.7407,119.3136 46.8457,119.1006 46.9497,118.8886 C46.0987,118.2236 45.2457,117.5576 44.2867,116.8086" id="Fill-83" fill="#231916"></path>
                <path d="M144.524,86.6533 C138.276,88.4673 132.207,85.8403 125.425,86.0313 C126.144,85.2453 126.464,84.6273 126.723,84.6523 C130.44,85.0033 134.142,85.5293 137.863,85.8183 C139.444,85.9403 141.059,85.5733 142.663,85.4993 C143.323,85.4673 143.993,85.6203 144.658,85.6903 C144.613,86.0113 144.568,86.3323 144.524,86.6533" id="Fill-85" fill="#231916"></path>
                <path d="M44.5269,41.2168 C42.3619,44.6458 44.5509,48.0128 44.7739,51.3888 C44.8859,53.0958 44.3659,53.5288 42.4899,53.6868 C42.3269,49.9278 42.0729,46.3028 42.1309,42.6818 C42.1379,42.2008 43.7369,41.7458 44.6019,41.2818 C44.6059,41.2848 44.5269,41.2168 44.5269,41.2168" id="Fill-87" fill="#231916"></path>
                <path d="M3.2086,68.8042 C6.7976,68.5692 10.3946,68.4072 13.9746,68.0692 C15.7536,67.9012 17.4916,69.6162 19.2916,68.1612 C19.3016,68.1532 19.9816,68.7262 19.9656,69.0042 C19.9466,69.3092 19.5096,69.7972 19.2056,69.8372 C18.1796,69.9732 17.1316,69.9772 16.0926,69.9772 C12.0986,69.9762 8.1046,69.9592 4.1096,69.9332 C3.7986,69.9312 3.4866,69.8202 3.1756,69.7592 C3.1866,69.4402 3.1976,69.1222 3.2086,68.8042" id="Fill-89" fill="#231916"></path>
                <path d="M95.3463,79.2256 C91.0253,81.5356 82.7353,81.6406 80.4533,78.8626 C81.6333,79.0306 82.3403,79.1076 83.0393,79.2336 C85.3803,79.6576 87.5333,80.6296 89.8973,78.4656 C90.9153,77.5346 93.4963,78.3096 95.3673,78.3096 L95.3463,79.2256 Z" id="Fill-91" fill="#231916"></path>
                <path d="M68.1041,126.1499 C71.6581,124.9139 75.0571,123.4819 76.8801,119.8579 C77.1011,119.4179 77.5481,118.9899 77.9951,118.7979 C78.3731,118.6349 79.2611,118.7299 79.2971,118.8709 C79.4271,119.3799 79.4101,120.3999 79.2431,120.4429 C76.3231,121.2059 75.9251,123.8539 74.8501,126.0289 C74.5051,126.7259 73.7741,127.2319 72.8371,128.2329 L72.8371,125.9739 C71.2881,126.3539 69.7951,126.7199 68.3031,127.0859 C68.2371,126.7739 68.1701,126.4619 68.1041,126.1499" id="Fill-93" fill="#231916"></path>
                <path d="M41.3551,82.2163 C42.8601,82.8353 43.8511,83.2433 44.8421,83.6513 C44.8471,83.8073 44.8511,83.9633 44.8551,84.1193 C43.9221,84.1193 42.8521,84.4033 42.0971,84.0363 C41.3941,83.6953 40.7881,82.7163 40.6031,81.9113 C40.4941,81.4333 41.2691,80.2463 41.6681,80.2363 C45.0691,80.1473 48.4751,80.2283 51.8761,80.3453 C52.2471,80.3583 52.5981,80.9183 53.2251,81.4513 C49.2601,82.5243 45.4091,79.2883 41.3551,82.2163" id="Fill-95" fill="#231916"></path>
                <path d="M118.0914,80.289 C124.4024,79.214 130.5234,80.033 136.4454,82.711 C130.3264,81.903 124.2094,81.096 118.0914,80.289" id="Fill-97" fill="#231916"></path>
                <path d="M51.9488,137.5107 C52.8628,137.1147 53.8008,136.7617 54.6878,136.3117 C56.1068,135.5937 57.4768,134.7787 58.8988,134.0657 C60.0168,133.5057 61.1818,133.0397 62.3258,132.5317 C62.6858,133.5207 63.0528,134.5067 63.4038,135.4987 C63.5698,135.9687 63.7058,136.4487 63.8908,137.0407 C62.9278,137.5617 62.0648,138.0267 61.2028,138.4917 C61.8488,137.0017 62.9548,135.7707 60.9468,134.6107 C58.0798,135.9337 55.2028,137.2617 52.3248,138.5907 C52.1988,138.2307 52.0738,137.8707 51.9488,137.5107" id="Fill-99" fill="#231916"></path>
                <path d="M58.6275,93.7305 C54.9365,95.5535 45.6565,94.3725 44.4515,91.9515 C49.1565,92.5425 53.7745,93.1215 58.6275,93.7305" id="Fill-101" fill="#231916"></path>
                <path d="M142.4781,94.6528 C145.9501,93.8988 149.4101,93.0738 152.9051,92.4518 C153.6051,92.3278 154.4421,92.9778 155.2151,93.2708 C154.5431,93.6118 153.9021,94.1518 153.1941,94.2618 C150.4101,94.6948 147.6081,95.0228 144.8061,95.3228 C144.0261,95.4058 143.2221,95.2608 142.4291,95.2198 C142.4451,95.0308 142.4611,94.8418 142.4781,94.6528" id="Fill-103" fill="#231916"></path>
                <path d="M26.0064,76.4243 L38.2104,76.4243 C34.1334,78.1643 30.0494,78.6743 25.9474,77.4363 C25.9674,77.0983 25.9864,76.7613 26.0064,76.4243" id="Fill-105" fill="#231916"></path>
                <path d="M108.2555,29.229 C108.9055,26.574 113.8665,24.648 115.7665,26.361 C116.1495,26.706 116.3865,27.391 116.3775,27.914 C116.3735,28.147 115.6175,28.493 115.1645,28.573 C113.6045,28.847 111.7105,27.806 110.5585,29.864 C110.4705,30.02 109.0145,29.411 108.1935,29.157 L108.2555,29.229 Z" id="Fill-107" fill="#231916"></path>
                <path d="M27.4469,95.0786 C30.6939,95.0786 33.9409,95.0576 37.1869,95.1166 C37.4719,95.1216 37.9399,95.6366 37.9749,95.9526 C38.0099,96.2656 37.5929,96.9266 37.3879,96.9206 C34.0339,96.8236 30.5689,97.6106 27.3699,96.1476 C27.3949,95.7906 27.4209,95.4346 27.4469,95.0786" id="Fill-109" fill="#231916"></path>
                <path d="M56.5465,71.8965 C62.2655,69.1885 67.7385,73.4435 73.9125,72.2895 C72.1015,73.9585 58.9165,73.2875 56.5465,71.8965" id="Fill-111" fill="#231916"></path>
                <path d="M41.274,76.1299 C37.128,74.2789 32.686,73.9369 28.253,73.4909 C27.667,73.4329 27.145,72.7339 26.594,72.3329 C26.69,72.1129 26.786,71.8929 26.88,71.6739 C29.25,72.1629 31.608,72.7199 33.993,73.1149 C35.508,73.3649 37.065,73.4849 38.601,73.4619 C40.562,73.4309 41.633,74.0499 41.211,76.1979 L41.274,76.1299 Z" id="Fill-113" fill="#231916"></path>
                <path d="M20.9107,65.0596 C15.6817,65.3616 10.4547,65.6636 5.2267,65.9656 C10.2887,63.0746 15.6217,64.0826 20.9087,64.4266 C20.9087,64.6376 20.9097,64.8486 20.9107,65.0596" id="Fill-115" fill="#231916"></path>
                <path d="M6.6656,94.3662 C10.2026,94.6262 13.2416,94.8262 16.2746,95.1022 C16.6076,95.1332 17.0906,95.5512 17.1566,95.8632 C17.2166,96.1462 16.8856,96.6812 16.5846,96.8442 C14.6476,97.8942 8.6436,96.5792 6.6656,94.3662" id="Fill-117" fill="#231916"></path>
                <path d="M110.3639,82.6894 L124.6949,82.6894 C124.7629,82.8934 124.8309,83.0964 124.8979,83.3004 C123.8809,83.6374 122.8479,84.2964 121.8459,84.2524 C118.7759,84.1164 115.7179,83.6964 112.6529,83.4204 C111.8979,83.3524 111.1309,83.4104 110.3689,83.4104 C110.3669,83.1694 110.3659,82.9294 110.3639,82.6894" id="Fill-119" fill="#231916"></path>
                <path d="M43.6754,132.1455 C44.9884,132.3335 46.4154,132.9275 47.5844,132.6005 C48.8614,132.2425 49.8994,131.0325 51.3914,130.6455 C50.0884,132.7445 47.9254,133.8335 45.8534,134.8605 C44.8934,135.3365 43.5014,134.9415 41.8224,134.9415 C42.6744,133.2825 43.1664,132.3225 43.6594,131.3625 C43.6644,131.6245 43.6704,131.8845 43.6754,132.1455" id="Fill-121" fill="#231916"></path>
                <path d="M74.6637,133.6216 C76.2677,132.8096 77.8277,132.0186 79.3877,131.2296 C79.3187,130.9686 79.2517,130.7076 79.1847,130.4466 C77.6567,130.1226 76.1307,129.7976 74.6027,129.4736 C74.6907,129.2206 74.7787,128.9666 74.8657,128.7126 C77.5057,128.9606 80.1447,129.2086 83.5117,129.5246 C80.8407,131.2986 78.7757,132.7306 76.6377,134.0406 C76.2057,134.3056 75.4897,134.1496 74.9137,134.1006 C74.7897,134.0896 74.6997,133.6966 74.6637,133.6216" id="Fill-123" fill="#231916"></path>
                <path d="M28.7476,85.6728 C32.5006,86.1468 36.2586,86.5858 39.9976,87.1448 C40.3936,87.2038 40.6846,87.9728 41.0226,88.4128 C40.6396,88.6488 40.2106,89.1418 39.8786,89.0828 C36.3096,88.4558 32.7536,87.7468 29.1986,87.0388 C28.9926,86.9978 28.8246,86.7698 28.6396,86.6298 L28.7476,85.6728 Z" id="Fill-125" fill="#231916"></path>
                <path d="M57.0387,155.6411 C56.7697,155.1541 56.6217,154.4471 56.2097,154.2211 C54.9037,153.5021 53.4997,152.9621 52.1337,152.3541 C52.2437,152.0561 52.3547,151.7581 52.4667,151.4601 C54.4437,152.0161 56.4217,152.5721 58.3987,153.1281 C58.4487,152.9441 58.4987,152.7601 58.5487,152.5761 C58.1037,152.1891 57.6597,151.8021 57.0647,151.2841 C57.6147,150.8081 58.0967,150.3911 58.6127,149.9441 C60.0807,152.5591 59.5587,154.3981 56.9767,155.5881 C56.9777,155.5891 57.0387,155.6411 57.0387,155.6411" id="Fill-127" fill="#231916"></path>
                <path d="M65.4547,144.2705 C64.7367,143.2945 64.2987,142.6995 63.8607,142.1045 C65.3087,141.2205 65.5347,139.8085 65.6987,138.2855 C65.7137,138.1485 67.3047,138.1815 68.1627,138.1365 C67.9387,139.3945 67.8697,140.7075 67.4387,141.8905 C67.1607,142.6555 66.3547,143.2285 65.4547,144.2705" id="Fill-129" fill="#231916"></path>
                <path d="M19.2808,84.7456 C17.5768,87.4886 9.5008,87.9726 7.9018,85.7896 C11.5828,85.4516 15.3798,85.1036 19.2808,84.7456" id="Fill-131" fill="#231916"></path>
                <path d="M136.566,66.9443 C139.294,66.5033 142.022,66.0633 144.75,65.6223 C144.883,65.7433 145.016,65.8653 145.15,65.9863 C144.286,66.5883 143.465,67.2703 142.546,67.7703 C141.464,68.3573 140.297,68.7853 139.029,69.3433 C138.379,68.9153 137.544,68.3653 136.709,67.8163 C136.661,67.5253 136.613,67.2353 136.566,66.9443" id="Fill-133" fill="#231916"></path>
                <path d="M151.8062,70.7329 C148.1892,73.6109 142.7132,74.4689 140.5522,72.1759 C144.4612,71.6889 148.1602,71.2279 151.8602,70.7669 L151.8062,70.7329 Z" id="Fill-135" fill="#231916"></path>
                <path d="M19.4273,76.2461 C17.6433,78.8581 11.7503,79.4311 9.4333,77.4401 C13.0593,77.0071 16.2433,76.6261 19.4273,76.2461" id="Fill-137" fill="#231916"></path>
                <path d="M53.3434,90.3506 C57.3964,90.7106 61.5994,89.5256 65.4264,92.2166 C61.3764,91.8246 57.3264,91.4326 53.2764,91.0396 C53.2984,90.8106 53.3214,90.5806 53.3434,90.3506" id="Fill-139" fill="#231916"></path>
                <path d="M55.7232,80.6118 C58.9302,81.1418 61.6982,81.5998 64.4642,82.0568 C61.5322,82.9458 58.4362,84.9538 55.7232,80.6118" id="Fill-141" fill="#231916"></path>
                <path d="M53.8551,145.1636 C53.5731,146.2466 53.2931,147.3146 53.0011,148.4346 C52.0211,147.1256 50.8801,145.7466 49.9481,144.2396 C49.7491,143.9176 50.1611,142.9776 50.5581,142.6156 C50.7961,142.3976 51.7111,142.5736 52.0421,142.8776 C52.7281,143.5106 53.2281,144.3456 53.8551,145.1636" id="Fill-143" fill="#231916"></path>
                <path d="M111.3434,60.9907 C110.9784,63.3347 110.6504,65.6847 110.2094,68.0147 C110.1414,68.3777 109.5454,68.9037 109.2194,68.8867 C108.8364,68.8657 108.2894,68.4007 108.1504,68.0087 C107.7454,66.8727 110.2454,61.7387 111.428409,61.0657 C111.4294,61.0667 111.3434,60.9907 111.3434,60.9907" id="Fill-145" fill="#231916"></path>
                <path d="M62.4615,150.3677 C64.0415,147.6457 65.3435,145.1937 68.6825,144.6157 C67.1475,146.6887 65.9945,148.4317 64.6215,149.9767 C64.2385,150.4077 63.1995,150.2537 62.4615,150.3677" id="Fill-147" fill="#231916"></path>
                <path d="M36.6344,114.6055 C36.7614,116.5715 36.8884,118.5375 37.0554,121.1135 C34.0154,118.9585 34.0074,118.8835 35.7024,114.7255 L36.6344,114.6055 Z" id="Fill-149" fill="#231916"></path>
                <path d="M41.2105,76.1982 C44.3805,75.9192 47.5475,75.5942 50.7235,75.3992 C51.4055,75.3572 52.1305,75.7592 52.8005,76.0412 C52.8825,76.0752 52.7325,76.9152 52.7055,76.9142009 C51.9815,76.8922 51.2595,76.7592 50.5355,76.7432 C48.1455,76.6932 45.7525,76.7182 43.3645,76.6312 C42.6635,76.6052 41.9725,76.3032 41.2755,76.1292 C41.2735,76.1302 41.2105,76.1982 41.2105,76.1982" id="Fill-151" fill="#231916"></path>
                <path d="M65.3453,32.7822 C64.6103,31.9122 63.8143,31.0862 63.1533,30.1632 C62.1923,28.8222 61.3283,27.4122 60.2253,25.7282 C60.5743,25.6702 61.5503,25.3552 61.6363,25.5162 C62.9173,27.9222 64.0823,30.3912 65.2733,32.8452116 C65.2733,32.8462 65.3453,32.7822 65.3453,32.7822" id="Fill-153" fill="#231916"></path>
                <path d="M21.2125,33.561 C20.4525,32.709 19.6925,31.858 18.7565,30.809 C18.4735,30.874 17.7855,31.261 17.3795,31.065 C16.8935,30.831 16.5275,30.133 16.3585,29.562 C16.2985,29.357 16.9235,28.716 17.2975,28.656 C18.6805,28.433 20.9815,30.593 21.0575,32.063 C21.0845,32.582 21.1305,33.099 21.1675,33.616 L21.2125,33.561 Z" id="Fill-155" fill="#231916"></path>
                <path d="M154.3902,85.6997 C153.4712,85.8247 152.5532,85.9547 151.6342,86.0747 C150.1212,86.2717 148.6112,86.5127 147.0912,86.6297 C146.5362,86.6717 145.9572,86.4107 145.3902,86.2877 C145.8412,85.8697 146.2772,85.1137 146.7482,85.0907 C149.2322,84.9697 151.7242,85.0337 154.2132,85.0337 C154.2722,85.2557 154.3312,85.4777 154.3902,85.6997" id="Fill-157" fill="#231916"></path>
                <path d="M39.1666,149.3262 C38.8356,147.8732 39.1546,146.7942 40.8076,146.4952 C43.4156,146.0232 42.5076,148.6402 43.9106,149.5672 C42.0416,149.4522 40.5696,149.3632 39.0986,149.2732 L39.1666,149.3262 Z" id="Fill-159" fill="#231916"></path>
                <path d="M35.7174,91.6196 L42.5514,91.6196 C39.9884,93.1966 37.9474,93.9956 35.7174,91.6196" id="Fill-161" fill="#231916"></path>
                <path d="M66.3414,79.5342 L57.0304,79.5342 C57.0284,79.3482 57.0264,79.1622 57.0244,78.9762 L66.3344,78.9762 C66.3364,79.1622 66.3394,79.3482 66.3414,79.5342" id="Fill-163" fill="#231916"></path>
                <polygon id="Fill-165" fill="#231916" points="145.5113 82.0669 154.4063 82.0669 154.4613 82.5119 145.6813 82.5119"></polygon>
                <path d="M61.9352,142.6138 C60.8652,144.6138 60.1432,145.9618 59.4822,147.1968 C58.6922,145.7678 58.6922,145.7678 60.6002,141.0568 C61.2702,141.8388 61.7932,142.4478 61.9352,142.6138" id="Fill-167" fill="#231916"></path>
                <path d="M32.1803,42.8437 C30.5683,40.7857 28.9553,38.7277 27.3433,36.6707 C27.6713,36.4097 27.9993,36.1497 28.3273,35.8897 C29.8853,37.9687 31.4423,40.0487 32.9993,42.1267 C32.7263,42.3657 32.4533,42.6047 32.1803,42.8437" id="Fill-169" fill="#231916"></path>
                <path d="M70.0719,78.8677 L78.9649,78.8677 C78.9679,79.0647 78.9729,79.2617 78.9769,79.4587 L70.0809,79.4587 C70.0779,79.2617 70.0749,79.0647 70.0719,78.8677" id="Fill-171" fill="#231916"></path>
                <path d="M21.1676,33.6162 C21.8136,33.2112 22.4576,32.8052 23.3536,32.2422 L23.3536,34.9432 C23.6566,35.0332 23.8886,35.1482 24.1256,35.1612 C24.8376,35.2032 25.5516,35.2062 26.2646,35.2242 C26.2196,35.6162 26.2006,36.3432 26.1266,36.3482 C25.4096,36.4032 24.4956,36.6012 23.9996,36.2492 C22.9606,35.5102 22.1416,34.4632 21.2216,33.5522 C21.2126,33.5612 21.1676,33.6162 21.1676,33.6162" id="Fill-173" fill="#231916"></path>
                <path d="M93.3277,60.4302 C93.0867,62.8192 92.8467,65.2082 92.6047,67.5972 L91.1487,67.4062 C91.5887,65.0642 92.0267,62.7232 92.4657,60.3822 C92.7527,60.3982 93.0397,60.4142 93.3277,60.4302" id="Fill-175" fill="#231916"></path>
                <path d="M39.0982,149.2734 C39.7552,150.0454 40.4132,150.8184 41.1402,151.6714 C40.7632,151.7954 40.1892,151.9824 39.4992,152.2084 C39.7082,152.7274 39.9062,153.2194 40.1032,153.7104 L39.7722,154.0514 C39.2152,153.6674 38.6602,153.2834 38.1042,152.8994 C39.6562,152.0654 36.7532,149.9024 39.1682,149.3264 C39.1662,149.3264 39.0982,149.2734 39.0982,149.2734" id="Fill-177" fill="#231916"></path>
                <path d="M48.3365,53.1128 C46.3035,52.2828 46.5555,51.2428 47.7725,50.2538 C48.6815,49.5148 49.7775,49.0048 50.3325,48.6698 C49.9035,49.6248 49.1455,51.3118 48.3365,53.1128" id="Fill-179" fill="#231916"></path>
                <path d="M61.8873,156.063 C63.1743,155.569 64.1363,155.117 65.1483,154.852 C65.5713,154.74 66.0983,155.025 66.5773,155.13 C66.4323,155.655 66.4373,156.501 66.1173,156.649 C64.6263,157.34 63.0663,157.735 61.8873,156.063" id="Fill-181" fill="#231916"></path>
                <path d="M35.8834,152.9263 C35.4264,151.9523 34.4244,150.8263 34.6444,150.0413 C34.9524,148.9403 36.1684,148.0923 36.9954,147.1363 C37.2694,147.3883 37.5414,147.6393 37.8154,147.8913 C37.2284,148.5713 36.4074,149.1663 36.1214,149.9553 C35.8524,150.6963 36.1474,151.6423 36.1944,152.4973 C36.0904,152.6403 35.9874,152.7833 35.8834,152.9263" id="Fill-183" fill="#231916"></path>
                <path d="M115.4088,47.1152 C114.1058,48.5102 112.8028,49.9052 111.4988,51.2992 L110.6348,50.4442 C111.9878,49.0992 113.3418,47.7552 114.6948,46.4112 C114.9328,46.6462 115.1718,46.8812 115.4088,47.1152" id="Fill-185" fill="#231916"></path>
                <path d="M108.1939,29.1567 C107.3879,31.1297 105.8009,31.2397 103.9959,31.0517 C104.5859,28.3627 105.1939,28.1197 108.2539,29.2267 C108.2559,29.2287 108.1939,29.1567 108.1939,29.1567" id="Fill-187" fill="#231916"></path>
                <path d="M32.9791,127.2392 C30.7041,127.8642 28.6051,128.4402 26.4881,129.0212 C27.3741,127.1242 30.3021,126.2592 32.9791,127.2392" id="Fill-189" fill="#231916"></path>
                <path d="M151.8599,70.7666 C152.5669,69.5106 153.2739,68.2536 154.2949,66.4416 C154.6719,67.3896 155.3469,68.2376 155.2239,68.9456 C154.9029,70.7956 153.4279,71.0216 151.8139,70.7386 C151.8059,70.7326 151.8599,70.7666 151.8599,70.7666" id="Fill-191" fill="#231916"></path>
                <path d="M101.0602,74.6509 L107.5682,74.6509 C107.5772,74.8129 107.5842,74.9749 107.5922,75.1359 L101.1132,75.1359 C101.0952,74.9749 101.0782,74.8129 101.0602,74.6509" id="Fill-193" fill="#231916"></path>
                <path d="M8.0035,74.0674 C9.4695,73.1234 10.9365,72.1794 12.4015,71.2354 C12.6025,71.5294 12.8035,71.8234 13.0035,72.1184 C11.5915,73.1244 10.1785,74.1314 8.7665,75.1374 C8.5125,74.7814 8.2585,74.4244 8.0035,74.0674" id="Fill-195" fill="#231916"></path>
                <path d="M82.0689,84.021 C84.7889,83.711 87.5079,83.402 90.2289,83.093 L90.3139,83.787 C87.5889,84.148 84.8619,84.509 82.1359,84.869 L82.0689,84.021 Z" id="Fill-197" fill="#231916"></path>
                <path d="M48.5289,88.2353 C44.7879,90.2133 44.5119,90.2093 42.5399,88.2353 L48.5289,88.2353 Z" id="Fill-199" fill="#231916"></path>
                <path d="M107.1881,34.4009 C108.3911,34.0729 109.6001,33.7449 111.7321,33.1649 C110.6091,34.6299 109.9071,35.5459 109.1111,36.5839 C108.2591,35.6169 107.6631,34.9399 107.1881,34.4009" id="Fill-201" fill="#231916"></path>
                <path d="M92.231,152.3042 C93.9,150.7062 95.226,151.7872 96.527,152.2992 C96.645,152.3452 96.693,153.0592 96.534,153.2112 C96.276,153.4562 95.761,153.6752 95.456,153.5812 C94.438,153.2662 93.465,152.8072 92.231,152.3042" id="Fill-203" fill="#231916"></path>
                <path d="M83.4957,32.2138 C85.5517,30.4918 87.5967,28.7558 89.7057,27.0998 C89.7857,27.0368 90.4787,27.7558 90.8877,28.1108 C88.6887,29.8388 86.4917,31.5668 84.2937,33.2948 C84.0277,32.9348 83.7617,32.5738 83.4957,32.2138" id="Fill-205" fill="#231916"></path>
            </g>
        </g>
    </g>
</svg>