<?xml version="1.0" encoding="UTF-8"?>
<svg width="180px" height="204px" viewBox="0 0 180 204" version="1.1" xmlns="http://www.w3.org/2000/svg" xmlns:xlink="http://www.w3.org/1999/xlink">
    <!-- Generator: Sketch 60 (88103) - https://sketch.com -->
    <title>figure25</title>
    <desc>Created with Sketch.</desc>
    <defs>
        <polygon id="path-1" points="0 0.8498528 83.3545649 0.8498528 83.3545649 104.999786 0 104.999786"></polygon>
        <polygon id="path-3" points="0.388483731 0.276138112 106.149 0.276138112 106.149 102.713096 0.388483731 102.713096"></polygon>
    </defs>
    <g id="页面-1" stroke="none" stroke-width="1" fill="none" fill-rule="evenodd">
        <g id="桌面端-HD备份-2" transform="translate(-642.000000, -755.000000)">
            <g id="figure25" transform="translate(642.000000, 754.000000)">
                <g id="编组" transform="translate(0.000000, 99.724000)">
                    <mask id="mask-2" fill="white">
                        <use xlink:href="#path-1"></use>
                    </mask>
                    <g id="Clip-2"></g>
                    <path d="M35.5671,34.7435 C35.5881,34.5155 35.6091,34.2895 35.6301,34.0615 C34.9871,33.6735 34.3801,33.1455 33.6831,32.9645 C33.4071,32.8925 32.9301,33.5925 32.5461,33.9405 C33.1321,34.4855 33.6651,35.1255 34.3401,35.5155 C34.5361,35.6285 35.1461,35.0205 35.5671,34.7435 M23.3601,46.1815 C23.2751,46.2275 22.9601,46.3045 22.9391,46.4295 C22.8921,46.7095 22.8981,47.0785 23.0491,47.2975 C23.7481,48.3065 24.4861,49.2885 25.2501,50.2485 C25.4301,50.4745 25.7551,50.6625 26.0371,50.7005 C26.1851,50.7205 26.4691,50.4085 26.5421,50.1955 C26.8401,49.3145 24.4311,46.1825 23.3601,46.1815 M44.2751,31.6435 C42.7391,31.6805 39.1851,34.8935 39.4281,35.8575 C39.6501,36.7385 40.3891,37.5925 41.1221,38.1845 C41.3641,38.3805 42.3771,37.8275 42.8931,37.4305 C43.7471,36.7725 44.5861,36.0415 45.2351,35.1915 C45.6711,34.6215 46.1521,33.6225 45.9281,33.1195 C45.6091,32.4015 44.6631,31.9625 44.2751,31.6435 M49.9301,28.8725 C50.4691,28.4675 50.8841,28.2245 51.2131,27.8945 C52.1291,26.9755 52.9901,25.9995 53.9111,25.0845 C54.9871,24.0145 56.1151,22.9975 57.1991,21.9345 C58.0121,21.1385 58.1831,20.1905 57.3941,19.3345 C56.5511,18.4215 55.7421,18.9235 55.0221,19.6405 C52.9491,21.7065 50.8391,23.7375 48.8211,25.8555 C48.4571,26.2375 48.1761,27.0915 48.3591,27.5065 C48.6001,28.0565 49.3371,28.3885 49.9301,28.8725 M61.9561,13.4085 C61.9391,15.6395 62.7071,16.1335 64.1981,15.3395 C64.9611,14.9335 65.7721,14.5195 66.3641,13.9165 C67.6631,12.5925 68.1991,10.6825 70.0861,9.7235 C71.1141,9.2015 71.6731,7.7865 72.4981,6.8185 C73.2151,5.9765 73.1591,5.3315 72.0921,4.9705 C70.8031,4.5335 69.7621,4.8495 68.7201,5.8545 C66.7611,7.7455 65.7211,10.4995 63.0181,11.7255 C62.3961,12.0085 62.1391,13.0975 61.9561,13.4085 M29.2241,53.7705 C29.3711,53.7165 29.5161,53.6615 29.6631,53.6065 C29.6891,53.0635 29.8451,52.4865 29.7101,51.9885 C29.5461,51.3825 29.1361,50.8415 28.8341,50.2725 C28.1971,50.6915 27.0911,51.0325 27.0051,51.5445 C26.6221,53.8215 26.3881,56.1215 27.3851,58.3935 C27.9021,59.5715 28.2531,60.9505 28.2011,62.2185 C28.1241,64.1355 27.7601,65.9735 29.2851,67.5775 C29.6721,67.9855 29.6191,68.8015 29.8041,69.4185 C29.9881,70.0305 30.0871,70.7265 30.4541,71.2125 C31.1561,72.1415 31.0021,72.9445 30.3281,73.7095 C29.8311,74.2725 29.1501,74.6795 28.6851,75.2625 C28.4181,75.5985 28.4171,76.1485 28.2961,76.6015 C28.7251,76.5265 29.2771,76.5945 29.5621,76.3495 C30.4651,75.5775 31.3741,74.7645 32.0711,73.8145 C32.4461,73.3045 32.6071,72.4425 32.4931,71.8065 C32.2321,70.3565 31.7541,68.9465 31.3411,67.5265 C31.1651,66.9205 31.0621,66.2255 30.6921,65.7565 C30.0421,64.9335 29.9951,64.2895 30.6411,63.4415 C31.4811,62.3415 31.3641,58.8595 30.7621,57.6795 C30.1291,56.4375 29.7271,55.0785 29.2241,53.7705 M11.0721,37.5655 C13.2951,37.6945 15.2381,36.4265 16.9221,35.0745 C19.6711,32.8715 22.1311,30.3095 24.7061,27.8915 C25.2791,27.3535 25.4771,26.6595 24.6351,26.3235 C23.3521,25.8095 21.9961,25.4565 20.6431,25.1555 C20.3101,25.0815 19.8281,25.4085 19.4991,25.6615 C19.0721,25.9885 18.7301,26.4275 18.3501,26.8165 C16.5661,28.6445 15.0191,30.8475 12.9211,32.1805 C11.2841,33.2215 9.8991,34.1655 9.0281,35.9095 C8.4691,37.0265 8.6251,37.4775 9.9091,37.5625 C10.2341,37.5845 10.5621,37.5655 11.0721,37.5655 M69.1221,55.0035 C68.5521,56.6025 67.8461,59.0735 66.7951,61.3865 C66.0041,63.1265 64.8031,64.6885 63.7221,66.2885 C61.8891,69.0025 60.2931,71.9545 58.0681,74.3065 C55.6241,76.8895 53.4051,79.7205 49.9741,81.4235 C46.6901,83.0535 44.3531,86.4635 40.2991,86.8245 C40.1991,86.8335 40.0981,86.9075 40.0101,86.9685 C37.7301,88.5415 35.4421,90.0795 32.4441,89.6135 C32.2461,89.5835 31.9681,89.6385 31.8211,89.7635 C29.8851,91.4035 27.5891,90.7525 25.3991,90.8305 C24.6071,90.8585 23.6471,90.8435 23.0651,91.2645 C20.6261,93.0275 18.2991,94.9465 15.9351,96.8125 C13.9321,98.3935 11.8231,99.6505 9.1081,99.2655 C8.1631,99.1315 7.1121,99.0305 7.0331,100.3875 C6.9601,101.6555 7.8021,102.0565 8.9491,102.0475 C10.9621,102.0295 12.9821,102.1455 14.9871,102.0145 C19.3361,101.7265 23.6881,102.8485 28.0751,100.9255 C30.2901,99.9545 33.1441,100.2885 35.7381,99.5895 C37.6111,99.0855 39.5531,98.7815 41.3031,97.8605 C42.7861,97.0805 44.2171,96.2025 45.6551,95.3405 C47.3491,94.3245 48.9441,93.0975 50.7311,92.2935 C52.9281,91.3065 55.0721,90.3695 56.7121,88.4985 C57.3301,87.7925 58.2151,87.2765 59.0571,86.8195 C61.9941,85.2265 64.1701,82.8525 66.0051,80.1415 C67.4451,78.0165 68.7771,75.8185 70.1751,73.6665 C71.0581,72.3065 72.1021,71.0375 72.8521,69.6115 C74.3171,66.8275 75.6361,63.9675 76.9921,61.1275 C77.2471,60.5945 77.5941,59.9895 77.5471,59.4485 C77.3981,57.7225 77.4751,56.1235 78.7831,54.7885 C78.9681,54.5995 78.8701,54.1555 78.9631,53.8485 C79.2521,52.8975 79.6191,51.9685 79.8571,51.0065 C80.0121,50.3795 80.2841,49.4455 79.9881,49.1245 C79.5881,48.6895 78.5871,48.4035 78.0301,48.5965 C76.5511,49.1075 75.1831,49.9315 73.7511,50.5865 C73.0221,50.9195 72.2621,51.3465 71.4941,51.4005 C69.1151,51.5685 69.0081,51.6215 69.1221,55.0035 M31.6171,103.4035 C29.5871,103.5235 27.4521,103.0805 25.7551,104.7645 C25.5081,105.0095 24.9291,104.9775 24.5041,104.9785 C19.2811,104.9975 14.0581,105.0145 8.8361,104.9795 C8.2871,104.9755 7.7281,104.6605 7.1951,104.4395 C5.3801,103.6855 3.5461,102.9665 1.7781,102.1105 C1.1301,101.7975 0.3341,101.2285 0.1621,100.6195 C-0.1079,99.6645 0.0121,98.5655 0.1431,97.5505 C0.1891,97.1985 0.7051,96.8045 1.0961,96.6145 C4.5891,94.9255 8.0401,93.3415 11.0861,90.7005 C13.8021,88.3445 15.8351,85.6885 17.5181,82.6555 C18.0301,81.7335 17.9491,80.4485 18.5401,79.6115 C20.6641,76.6045 19.7161,73.2565 19.8601,70.0265 C19.8961,69.2125 19.9381,68.3975 19.9461,67.5825 C19.9501,67.1565 20.0501,66.5845 19.8241,66.3265 C17.7961,64.0105 17.7741,60.9905 16.8811,58.2785 C16.6861,57.6875 16.2711,57.1415 15.8641,56.6525 C14.2801,54.7435 12.6711,52.8525 11.0351,50.9875 C10.7711,50.6865 10.2621,50.6095 9.9641,50.3265 C9.0061,49.4155 8.0921,48.4575 7.1651,47.5145 C6.5171,46.8565 5.9841,45.8365 5.2091,45.5965 C1.4721,44.4375 0.2971,41.6565 0.0171,38.1475 C-0.0759,36.9835 0.3761,36.3655 1.4301,35.8985 C2.3471,35.4925 3.1461,34.8175 3.9841,34.2425 C5.2621,33.3645 6.5921,32.5475 7.7771,31.5555 C8.5741,30.8885 9.3261,30.0525 9.7911,29.1355 C10.3211,28.0915 10.8471,27.4315 12.1231,27.5985 C13.1861,27.7395 13.9071,27.2575 14.1221,26.1445 C14.1631,25.9335 14.2291,25.7205 14.3231,25.5265 C15.0771,23.9725 19.7541,21.4765 21.4801,21.7675 C23.3761,22.0875 25.2901,22.3745 27.1291,22.9055 C28.2231,23.2225 29.2241,23.9255 30.2041,24.5555 C31.2011,25.1965 32.1521,25.9235 33.0601,26.6885 C33.5351,27.0885 33.9661,27.6005 34.2551,28.1485 C34.8841,29.3485 35.4011,30.6085 35.9811,31.8355 C36.5541,33.0455 37.3801,33.1135 38.3101,32.2585 C39.3911,31.2645 40.4011,30.1925 41.4971,29.2175 C42.1381,28.6455 42.9161,28.2295 43.5801,27.6815 C44.0991,27.2525 44.5781,26.7585 45.0031,26.2335 C45.4741,25.6515 45.7871,24.9285 46.3021,24.3965 C48.9921,21.6255 51.5471,18.6805 54.5101,16.2315 C56.2431,14.8005 57.6861,13.2855 59.1371,11.5855 C62.1641,8.0405 65.6411,4.8745 69.0191,1.6415 C69.5571,1.1265 70.5601,0.7945 71.3081,0.8575 C73.6631,1.0545 76.1591,3.5605 76.0231,5.6185 C75.9611,6.5555 75.5111,7.6215 74.8971,8.3355 C73.5171,9.9365 71.8741,11.3075 70.4421,12.8685 C69.8151,13.5525 69.5051,14.5155 68.9431,15.2715 C67.6581,16.9995 66.4661,18.8475 64.0071,19.1445 C63.4261,19.2145 62.7571,19.5605 62.3591,19.9915 C59.6411,22.9305 57.0241,25.9625 54.2901,28.8855 C53.1691,30.0835 52.1991,31.5185 50.3021,31.8135 C49.9171,31.8745 49.6931,33.0175 49.4071,33.6675 C49.0331,34.5145 48.8341,35.5005 48.2671,36.1855 C47.2331,37.4385 45.9881,38.5175 44.8261,39.6645 C43.9571,40.5195 43.8721,41.4735 44.8671,42.1685 C46.7201,43.4625 48.6641,44.6315 50.5981,45.8045 C51.4731,46.3345 52.4231,46.7395 53.3301,47.2195 C55.2111,48.2135 57.0531,48.8835 59.3401,48.6835 C62.5761,48.4015 65.8631,48.7895 69.1201,48.6735 C70.3551,48.6285 71.6361,48.1215 72.7781,47.5765 C75.1621,46.4375 77.7111,45.5405 79.4431,43.3075 C79.6961,42.9815 80.8271,42.9405 81.2621,43.2195 C83.3801,44.5745 83.8801,47.4015 82.8081,49.7165 C82.2601,50.8955 82.0051,52.2675 81.8871,53.5775 C81.7141,55.4905 81.7991,57.2745 80.7751,59.1815 C79.2211,62.0745 78.4211,65.3715 77.2791,68.4895 C77.0951,68.9915 76.8381,69.4765 76.5461,69.9265 C75.7211,71.1915 74.6151,72.3355 74.0631,73.7065 C72.5181,77.5445 70.3801,80.9025 67.2131,83.5995 C66.7881,83.9635 66.5881,84.5925 66.2751,85.0915 C66.0221,85.4945 65.8341,86.1315 65.4801,86.2475 C62.8751,87.1015 61.6281,89.5375 59.6431,91.0985 C58.9421,91.6485 58.1031,92.0235 57.3281,92.4795 C56.9151,92.7235 56.4921,92.9515 56.0921,93.2155 C55.2471,93.7745 54.4591,94.4385 53.5661,94.9065 C49.3101,97.1395 45.0361,99.3385 40.7431,101.4995 C40.0411,101.8525 39.2171,101.9735 38.4411,102.1675 C38.0241,102.2705 37.4361,102.1475 37.1881,102.3925 C35.8461,103.7165 34.2131,103.4745 32.5951,103.4055 C32.2701,103.3905 31.9431,103.4035 31.6171,103.4035" id="Fill-1" fill="#231916" mask="url(#mask-2)"></path>
                </g>
                <g id="编组" transform="translate(73.000000, 0.724000)">
                    <mask id="mask-4" fill="white">
                        <use xlink:href="#path-3"></use>
                    </mask>
                    <g id="Clip-4"></g>
                    <path d="M14.8103,89.2308 C14.3633,88.6738 14.0663,87.9758 13.5823,87.8048 C13.1793,87.6628 12.4383,88.0098 12.0573,88.3658 C11.3513,89.0248 10.8513,89.8978 10.1743,90.5928 C8.1683,92.6528 6.1153,94.6648 4.0883,96.7028 C3.2803,97.5158 3.2873,98.5098 4.1563,99.0808 C4.6223,99.3848 5.8083,99.2578 6.2283,98.8608 C8.7473,96.4788 11.1653,93.9868 13.5503,91.4678 C14.0773,90.9128 14.3333,90.0998 14.8103,89.2308 M37.4513,67.9768 C38.2183,67.2918 38.8863,66.7108 39.5363,66.1098 C40.1063,65.5818 40.6363,65.0068 41.2213,64.4958 C41.4973,64.2538 41.9553,64.1858 42.1663,63.9128 C43.1453,62.6528 44.1503,61.3978 44.9643,60.0338 C45.2673,59.5278 45.2343,58.6778 45.0453,58.0828 C44.9453,57.7618 44.0123,57.3418 43.7613,57.4888 C42.0993,58.4648 40.0703,59.2708 39.0423,60.7458 C38.0653,62.1498 37.1853,63.5748 35.9633,64.8118 C35.5653,65.2148 35.3513,66.1718 35.5483,66.6838 C35.7383,67.1738 36.5723,67.4158 37.4513,67.9768 M87.7223,19.4888 C87.3553,18.9638 87.0633,18.1218 86.5003,17.8618 C85.9363,17.6008 84.9683,17.7008 84.4183,18.0368 C83.5613,18.5608 82.8763,19.3878 82.1753,20.1398 C81.1453,21.2458 80.2653,22.3928 78.5083,22.5728 C77.1683,22.7108 76.3663,24.5158 76.9593,25.4048 C77.9653,26.9118 79.1903,27.1058 80.6623,26.0218 C81.1403,25.6688 81.7033,25.4248 82.1583,25.0478 C83.8613,23.6388 85.5493,22.2108 87.2053,20.7478 C87.4533,20.5278 87.4923,20.0738 87.7223,19.4888 M92.3823,15.1328 C92.9743,14.7388 93.4603,14.5088 93.8263,14.1548 C94.9903,13.0198 96.1053,11.8348 97.2483,10.6768 C98.6183,9.2868 100.0163,7.9228 101.3663,6.5128 C102.4123,5.4198 101.7493,4.5568 100.9093,3.7358 C100.2973,3.1388 99.6583,2.5168 98.8433,3.3398 C98.0083,4.1828 97.0113,5.0058 96.5423,6.0438 C95.4023,8.5708 93.4983,10.3468 91.4693,12.0868 C91.0663,12.4328 90.7013,13.2828 90.8553,13.7018 C91.0593,14.2558 91.7923,14.6158 92.3823,15.1328 M63.8313,36.1188 C64.6233,37.2528 65.1463,38.3838 66.0203,39.0628 C66.3703,39.3348 67.6803,38.8138 68.2313,38.3038 C70.2933,36.3938 72.2223,34.3388 74.2023,32.3388 C74.9003,31.6328 74.9393,30.9748 74.1733,30.2528 C72.7963,28.9558 71.7783,28.9588 70.4363,30.4448 C69.0193,32.0148 67.6493,33.5728 65.5193,34.2858 C64.8913,34.4958 64.4873,35.3758 63.8313,36.1188 M51.5823,53.9108 C52.4333,53.1528 53.1343,52.5768 53.7753,51.9388 C54.1443,51.5728 54.3543,51.0368 54.7413,50.6978 C56.9343,48.7698 59.2633,46.9598 60.6913,44.3438 C60.9593,43.8518 60.8743,42.5908 60.6453,42.5048 C59.7333,42.1628 58.6743,41.9628 57.7203,42.0878 C57.2683,42.1468 56.8943,43.0358 56.5443,43.5858 C56.1813,44.1598 56.0283,44.9388 55.5443,45.3478 C53.9043,46.7358 52.0273,47.8678 50.5133,49.3718 C49.8283,50.0518 49.5693,51.3758 49.5522765,52.4138 C49.5463,52.8398 50.6913,53.2838 51.5823,53.9108 M31.7423,72.8058 C31.3133,71.9478 30.8543,70.3588 30.4613,70.3746801 C29.4663,70.4168 28.4983,71.1698 27.5293,71.6598 C27.3983,71.7258 27.3133,71.9018 27.2313,72.0418 C26.4713,73.3258 25.8833,74.7558 24.9233,75.8658 C23.4723,77.5428 21.8093,79.0458 20.1463,80.5218 C19.2593,81.3078 18.4143,81.9258 19.4563,83.1628 C20.5313,84.4408 21.8093,84.7558 22.8043,83.6598 C24.8313,81.4268 26.6903,79.0428 28.6353,76.7368 C28.9413,76.3758 29.2943,75.9058 29.7043,75.8068 C31.2943,75.4218 31.5493,74.3208 31.7423,72.8058 M88.3233,16.3288 C88.0773,15.0168 87.7063,13.7788 87.6373,12.5238 C87.5063,10.1498 88.2163,9.0578 90.4383,8.3348 C91.8163,7.8848 92.6863,7.1108 93.1463,5.7738 C94.0583,3.1188 96.7503,2.6478 98.7293,1.3198 C99.5113,0.7948 100.6813,0.0808 101.3573,0.3258 C102.8473,0.8668 104.2513,1.8278 105.4723,2.8728 C106.5363,3.7828 106.2863,5.8628 105.1403,7.0198 C101.8493,10.3458 98.7533,13.9248 95.1303,16.8438 C92.2183,19.1898 90.3223,22.4048 87.4143,24.6648 C86.4783,25.3908 85.4903,26.0478 84.5393,26.7528 C83.5393,27.4928 82.5683,28.2678 81.5623,28.9968 C80.7543,29.5818 79.9023,30.1048 79.0893,30.6858 C78.6703,30.9858 78.1383,31.2718 77.9293,31.6978 C76.3323,34.9548 73.7983,37.2758 70.7733,39.1548 C70.2963,39.4518 69.7773,39.9008 69.5883,40.3968 C69.0913,41.7058 68.3313,42.3218 66.8743,42.1248 C65.3953,41.9228 64.7383,42.6598 64.9633,44.1518 C65.1663,45.4948 64.7263,46.6748 63.4623,47.0988 C60.8293,47.9808 59.2273,50.0838 57.3603,51.8758 C55.9873,53.1918 54.7363,54.6358 53.3653,55.9548 C52.7523,56.5428 51.9753,56.9588 51.2773,57.4598 C50.8453,57.7698 50.3573,58.0338 50.0063,58.4198 C47.3113,61.3878 44.6563,64.3928 41.9613,67.3608 C41.0123,68.4068 40.1323,69.6168 38.9653,70.3418 C37.0043,71.5618 35.5963,73.1408 34.2143,74.9788 C32.5013,77.2548 30.2053,79.0898 28.1783,81.1338 C27.8403,81.4738 27.6033,81.9108 27.3103,82.2948 C26.2123,83.7388 25.2523,85.3298 23.9483,86.5518 C23.3383,87.1238 22.0383,87.2018 21.0893,87.1088 C19.5773,86.9598 18.9593,87.4148 18.6453,88.9308 C18.4063,90.0808 17.8113,91.3138 17.0073,92.1608 C13.9013,95.4358 10.6293,98.5538 7.4583,101.7688 C6.4683,102.7728 5.2503,102.9458 4.1613,102.4318 C3.0363,101.9018 2.1073,100.9378 1.1253,100.1238 C-0.2627,98.9708 0.6513,97.8738 1.1163,96.6348 C1.8263,94.7408 2.7753,93.2238 4.8303,92.6528 C4.8803,92.6378 4.9393,92.6128 4.9703,92.5728 C6.6513,90.4048 8.5553,88.3658 9.9183,86.0128 C10.6593,84.7368 11.3123,84.2218 12.6513,84.3638 C13.1373,84.4158 13.6263,84.5188 14.1103,84.4948 C15.3843,84.4288 15.7983,83.7968 15.1383,82.7248 C14.5743,81.8108 14.9753,81.4038 15.6153,80.8348 C17.3483,79.2968 19.2723,77.9378 20.1903,75.6328 C20.4123,75.0778 21.2893,74.8148 21.7753,74.3268 C22.6643,73.4308 23.4873,72.4688 24.3343,71.5328 C24.3673,71.4968 24.3513,71.3988 24.3843,71.3818 C26.3793,70.3928 26.8993,67.5218 29.6003,67.3588 C30.1513,67.3268 30.7533,66.7188 31.1713,66.2368 C31.8683,65.4308 32.3343,64.4158 33.0743,63.6588 C35.8483,60.8178 38.6733,58.0238 41.5293,55.2618 C42.2523,54.5618 43.1843,54.0818 43.9713,53.4398 C44.4953,53.0128 45.0503,52.5478 45.3813,51.9788 C46.0893,50.7588 46.5633,49.3968 47.3243,48.2158 C47.7993,47.4778 48.5243,46.6918 49.3123,46.4018 C51.7443,45.5058 53.1783,43.8138 54.2413,41.5288 C54.6443,40.6618 55.6533,39.9858 56.5243,39.4468 C58.2733,38.3638 60.3123,37.8488 61.3673,35.6828 C62.1243,34.1268 63.5323,33.0108 65.2053,32.0918 C66.8243,31.2028 68.1603,29.5958 69.2753,28.0548 C70.1143,26.8978 70.6573,25.6628 72.2063,25.2258 C72.7173,25.0818 73.0573,24.3568 73.4903,23.9118 C74.4013,22.9738 75.2903,22.0128 76.2463,21.1218 C77.1013,20.3228 78.3133,19.7698 78.8763,18.8188 C80.4143,16.2208 82.6103,15.1838 85.4903,15.4828 C86.4033,15.5778 87.2823,16.0068 88.3233,16.3288" id="Fill-3" fill="#231916" mask="url(#mask-4)"></path>
                </g>
            </g>
        </g>
    </g>
</svg>