<?xml version="1.0" encoding="UTF-8"?>
<svg width="108px" height="133px" viewBox="0 0 108 133" version="1.1" xmlns="http://www.w3.org/2000/svg" xmlns:xlink="http://www.w3.org/1999/xlink">
    <!-- Generator: Sketch 60 (88103) - https://sketch.com -->
    <title>figure37</title>
    <desc>Created with Sketch.</desc>
    <defs>
        <polygon id="path-1" points="0 0.610659008 13.4703858 0.610659008 13.4703858 3.52806004 0 3.52806004"></polygon>
    </defs>
    <g id="页面-1" stroke="none" stroke-width="1" fill="none" fill-rule="evenodd">
        <g id="29-44" transform="translate(-441.000000, -261.000000)">
            <g id="figure37" transform="translate(441.000000, 261.000000)">
                <path d="M42.3914,86.161 C42.3904,86.141 42.3894,86.122 42.3894,86.102 C41.9334,86.123 41.4724,86.109 41.0264,86.185 C40.8784,86.21 40.7704,86.468 40.6444,86.62 C40.8024,86.724 40.9544,86.904 41.1204,86.919 C41.7804,86.977 42.4454,87.026 43.1044,86.994 C43.4114,86.978 43.7084,86.768 44.0104,86.647 C43.7174,86.485 43.4394,86.281 43.1274,86.176 C42.9064,86.101 42.6384,86.161 42.3914,86.161 M49.4534,97.473 C49.4544,97.554 49.4544,97.635 49.4554,97.716 C49.6394,97.771 49.8194,97.85 50.0064,97.878 C52.9084,98.317 55.8854,97.377 58.7624,98.357 C58.9064,98.406 59.1024,98.283 59.2774,98.259 C59.9014,98.173 60.5244,98.048 61.1514,98.026 C62.2114,97.99 63.2444,98.041 63.5024,96.606 C63.5524,96.332 64.1084,96.029 64.4724,95.96 C65.0214,95.856 65.6094,95.989 66.1734,95.942 C66.5304,95.913 66.8724,95.739 67.2224,95.63 C67.2084,95.504 67.1954,95.378 67.1814,95.252 C66.7914,95.174 66.4024,95.029 66.0134,95.0299949 C64.3054,95.034 62.5964,95.082 60.8884,95.111 C59.8664,95.128 58.8224,94.974 57.9494,95.767 C57.7564,95.942 57.3334,95.92 57.0244,95.897 C56.0594,95.824 55.1114,95.694 54.3214,96.493 C54.1664,96.649 53.7854,96.571 53.5124,96.623 C52.9514,96.732 52.3904,96.848 51.8324,96.975 C51.3554,97.084 50.8844,97.223 50.4074,97.327 C50.0934,97.395 49.7724,97.426 49.4534,97.473 M58.9974,86.773 C58.7504,86.665 58.5004,86.464 58.2474,86.46 C55.4464,86.412 52.7844,85.185 49.9254,85.519 C49.3254,85.59 48.6784,85.187 48.0414,85.058 C47.6554,84.98 47.2384,84.953 46.8554,85.02 C46.7274,85.042 46.5264,85.546 46.5924,85.62 C46.8294,85.889 47.1454,86.124 47.4764,86.261 C47.7614,86.379 48.1084,86.362 48.4284,86.377 C50.0724,86.452 50.0724,86.449 51.4454,88.007 C50.9234,88.13 50.5264,88.302 50.1274,88.305 C47.3814,88.32 44.6264,88.427 41.8934,88.235 C40.6314,88.146 39.4204,87.426 38.1694,87.048 C37.7544,86.922 37.2864,86.928 36.8454,86.949 C36.2014,86.978 35.5594,87.075 34.9164,87.143 C34.8704,86.993 34.8244,86.841 34.7784,86.69 C35.1014,86.558 35.4264,86.432 35.7454,86.292 C36.0804,86.146 36.6204,86.06 36.7044,85.82 C37.0404,84.86 37.7044,84.761 38.5694,84.812 C39.9444,84.893 39.8464,84.785 39.4784,83.533 C39.1694,82.486 39.3584,81.292 39.3644,80.163 C39.3654,80.155 40.0884,80.063 40.1264,80.155 C40.4244,80.868 40.8734,81.635 40.8194,82.351 C40.7414,83.368 41.0784,84.065 41.6994,84.741 C43.6324,83.451 45.7934,84.16 47.8354,83.966 C48.9664,83.859 50.1424,83.801 51.2504,83.992 C52.7804,84.255 54.4454,84.407 55.7864,84.917 C57.4104,85.536 58.9664,85.545 60.5504,85.636 C62.5644,85.751 64.5934,85.59 66.6164,85.559 C66.9334,85.554 67.2994,85.517 67.5614,85.653 C69.8034,86.814 72.1714,86.195 74.4974,86.222 C75.1584,86.229 75.8064,86.573 76.4744,86.661 C77.2534,86.764 78.0954,86.935 78.8234,86.744 C79.5504,86.552 79.2964,85.849 78.8784,85.462 C78.1074,84.749 78.3874,84.335 79.1704,83.967 C79.3294,83.891 79.5504,83.807 79.6064,83.671 C80.2064,82.212 81.3614,82.263 82.6214,82.493 C82.8784,82.539 83.2414,82.467 83.4384,82.306 C84.4394,81.489 85.6304,81.953 86.7224,81.782 C86.9824,81.741 87.4164,81.912 87.5314,82.119 C87.6264,82.29 87.3704,82.657 87.2714,82.938 C87.1644,83.238 86.9154,83.576 86.9814,83.833 C87.2424,84.867 86.3474,85.91 85.2824,85.753 C84.6484,85.66 84.0084,85.57 83.3704,85.558 C83.0934,85.553 82.8134,85.749 82.5354,85.854 C82.6644,86.119 82.7254,86.474 82.9344,86.635 C83.7324,87.245 84.5534,87.907 85.6034,87.032 C85.7074,86.944 85.9884,87.039 86.1774,87.085 C86.8474,87.248 87.5074,87.544 88.1824,87.577 C89.6404,87.649 91.1054,87.613 92.5664,87.572 C93.0174,87.559 93.4614,87.382 93.9124,87.289 C94.4854,87.172 95.0624,87.066 95.6364,86.951 C95.9764,86.883 96.3154,86.813 96.6524,86.734 C97.4954,86.536 98.3324,86.292 99.1864,86.159 C99.4214,86.122 99.7064,86.411 99.9694,86.551 C99.8084,86.807 99.6514,87.066 99.4824,87.317 C99.4454,87.371 99.3704,87.417 99.3054,87.434 C97.9634,87.778 96.6334,88.316 95.2734,88.407 C93.6204,88.517 91.9414,88.24 90.2724,88.159 C89.9724,88.144 89.6094,88.185 89.3704,88.345 C88.0304,89.244 87.2524,89.286 86.0544,88.452 C85.5364,88.806 85.0274,89.154 84.5194,89.501 C84.5434,89.617 84.5684,89.734 84.5924,89.85 C84.9214,89.791 85.2484,89.711 85.5804,89.681 C85.9424,89.647 86.3844,89.525 86.6564,89.679 C87.4794,90.145 88.1584,90.094 88.9094,89.515 C89.2634,89.241 89.7904,89.11 90.2454,89.094 C90.4124,89.088 90.7864,89.633 90.7454,89.871 C90.5164,91.197 90.8304,91.581 92.1024,91.428 C92.3794,91.394 92.6774,91.533 92.9664,91.593 C92.8504,91.898 92.7574,92.216 92.6094,92.504 C92.5154,92.685 92.2014,92.837 92.2164,92.976 C92.3864,94.453 91.4244,94.152 90.5624,94.094 C90.0324,94.059 89.4864,94.083 88.9614,94.171 C88.7354,94.209 88.5474,94.476 88.3414,94.639 C88.5334,94.816 88.7554,95.171 88.9104,95.144 C91.2344,94.733 93.6874,95.757 95.9414,94.494 C96.2844,94.302 96.7754,94.337 97.1984,94.329 C98.6974,94.303 100.1964,94.307 101.6954,94.294 C101.8714,94.292 102.1314,94.334 102.2124,94.238 C103.2504,93.012 104.7454,93.7 105.9844,93.319 C106.7364,93.088 107.1464,93.555 107.2354,94.252 C107.3324,95.009 106.7994,95.124 106.2044,95.125 C104.8124,95.128 103.4194,95.119 102.0284,95.151 C101.6834,95.16 101.3414,95.307 100.9974,95.391 C100.9994,95.504 101.0014,95.617 101.0024,95.729 C101.2744,95.795 101.5674,95.816 101.8114,95.938 C102.0584,96.061 102.2564,96.283 102.4764,96.461 C102.2124,96.582 101.9464,96.81 101.6844,96.806 C99.2244,96.765 96.7654,96.684 94.3064,96.614 C93.2474,96.584 92.2504,96.508 91.2064,96.069 C90.3244,95.698 89.1684,96.017 88.1454,95.918 C87.5764,95.863 87.0344,95.556 86.4684,95.404 C85.8984,95.25 85.3124,95.158 84.7394,95.015 C84.6214,94.987 84.5314,94.851 84.4174,94.756 C84.9834,93.423 86.4734,94.838 87.2024,93.8 C84.7834,92.654 82.3334,92.815 79.9004,92.83 C79.8544,92.925 79.8084,93.019 79.7614,93.113 C80.1504,93.434 80.5764,93.722 80.9124,94.09 C81.0944,94.289 81.1254,94.626 81.2244,94.901 C80.9104,94.936 80.4454,95.122 80.3054,94.982 C79.4184,94.098 78.3334,94.301 77.2784,94.309 C75.8044,94.321 75.8044,94.327 75.7034,92.864 C74.4124,92.616 73.2744,93.055 72.1804,93.681 C71.9344,93.821 71.7214,94.086 71.4654,94.129 C71.1524,94.182 70.7774,94.129 70.4944,93.99 C70.3454,93.917 70.2074,93.474 70.2904,93.353 C70.4694,93.094 70.7694,92.819 71.0634,92.758 C71.6164,92.642 72.2014,92.696 72.7674,92.634 C73.0784,92.599 73.4874,92.57 73.6674,92.372 C74.6044,91.344 75.7624,91.358 77.0174,91.42 C78.6894,91.504 80.3704,91.428 82.0454,91.429 C82.2934,91.429 82.5724,91.405 82.7844,91.504 C83.9294,92.04 85.1034,92.303 86.3734,92.089 C86.5834,92.054 86.8394,92.225 87.0584,92.332 C87.2164,92.409 87.3924,92.657 87.4864,92.623 C88.7104,92.183 89.7694,92.686 90.8534,93.133 C90.9634,93.179 91.1844,92.958 91.3864,92.844 C89.7424,91.608 87.9984,91.083 86.0084,91.336 C85.5214,91.398 84.9954,91.151 84.4864,91.052 C84.0074,90.959 83.5324,90.851 83.0494,90.789 C82.4514,90.712 81.8294,90.745 81.2544,90.591 C80.9834,90.517 80.7074,90.148 80.6104,89.855 C80.5524,89.68 80.7954,89.237 80.9764,89.19 C81.2674,89.113 81.6984,89.161 81.9254,89.34 C82.3734,89.691 82.7224,90.27 83.3624,89.766 C83.5644,89.607 83.7494,89.212 83.6974,88.981 C83.5134,88.171 82.8084,88.297 82.2134,88.312 C80.8974,88.347 79.5804,88.417 78.2644,88.453 C77.9504,88.461 77.4994,88.515 77.3414,88.34 C76.5034,87.417 75.4424,87.742 74.4404,87.705 C72.0864,87.618 69.7334,87.503 67.3784,87.458 C66.9294,87.45 66.4744,87.707 66.0254,87.85 C65.9634,87.87 65.9264,87.973 65.8664,87.988 C64.3364,88.381 62.8254,88.905 61.2704,89.11 C60.1264,89.261 58.9284,88.979 57.7524,88.921 C57.4464,88.906 57.1134,88.958 56.8304,89.073 C56.6804,89.134 56.5124,89.409 56.5334,89.563 C56.5524,89.715 56.7804,89.896 56.9544,89.957 C57.1814,90.036 57.4514,90.051 57.6934,90.024 C58.6664,89.914 59.5234,90.023 60.4344,90.559 C60.9524,90.864 61.9444,90.726 62.5514,90.433 C63.5094,89.972 64.1404,90.534 64.8324,90.859 C65.2864,91.072 65.0214,91.946 64.4714,92.122 C64.3104,92.174 64.1204,92.127 63.9464,92.14 C63.5474,92.171 63.1484,92.202 62.7544,92.266 C62.7324,92.269 62.7314,92.708 62.7664,92.715 C63.1654,92.794 63.6054,92.948 63.9744,92.852 C64.8734,92.619 65.5614,92.811 66.1814,93.503 C66.7284,94.115 67.4114,94.46 68.2874,94.275 C68.5154,94.227 68.8624,94.233 69.0054,94.37 C70.2124,95.522 71.6734,95.065 73.0724,95.105 C73.6764,95.122 74.2764,95.381 74.8734,95.546 C75.0414,95.593 75.1904,95.762 75.3524,95.769 C77.1754,95.849 79.0004,95.911 80.8254,95.968 C80.9984,95.973 81.1874,95.844 81.3454,95.88 C81.5624,95.928 81.7574,96.074 81.9614,96.178 C81.8314,96.365 81.7224,96.57 81.5674,96.733 C81.2194,97.101 80.8844,97.5 80.4774,97.792 C79.9564,98.166 79.3954,98.509 78.8044,98.751 C78.1824,99.005 77.5084,99.137 76.8514,99.297 C76.4774,99.389 76.0914,99.482 75.7104,99.486 C73.5704,99.512 71.4294,99.515 69.2874,99.517 C68.6304,99.517 67.9894,99.422 68.1624,98.529 C68.2564,98.04 68.4884,97.677 69.1424,98.053 C70.1314,98.62 70.3744,98.457 70.5674,96.92 C70.9184,98.858 72.1364,98.701 73.2924,98.582 C73.6184,98.549 73.9594,98.337 74.2204,98.118 C74.3724,97.99 74.5064,97.583 74.4254,97.485 C74.2744,97.301 73.9494,97.135 73.7174,97.161 C72.7724,97.265 71.9664,97.347 71.3334,96.308 C70.8984,95.594 69.3154,96.076 68.9394,96.864 C68.8304,97.092 68.4364,97.289 68.1574,97.311 C67.4484,97.367 66.7314,97.315 66.0174,97.307 C65.4114,97.3 64.8704,97.367 64.7304,98.128 C64.7004,98.292 64.4944,98.494 64.3254,98.552 C61.8744,99.39 59.3524,99.724 56.7724,99.482 C56.3084,99.439 55.7944,99.273 55.4284,98.998 C54.9734,98.655 54.6434,98.54 54.2474,99.004 C54.2024,99.059 54.1514,99.11 54.1014,99.161 C53.2694,99.999 52.4314,99.173 51.6044,99.202 C50.7814,99.231 49.9314,100.012 49.2884,98.801 C49.1664,98.571 48.6384,98.454 48.3024,98.462 C47.7384,98.476 47.1624,98.757 46.6184,98.695 C45.9964,98.624 45.3154,98.421 44.8224,98.057 C44.2444,97.628 43.7544,97.425 42.9974,97.46 C41.1844,97.545 39.3634,97.446 37.5444,97.425 C34.1954,97.387 30.8444,97.359 27.4954,97.307 C27.0394,97.301 26.5604,97.245 26.1394,97.087 C25.8994,96.996 25.7554,96.65 25.5684,96.419 C25.8364,96.224 26.0884,95.994 26.3814,95.848 C26.5104,95.783 26.7794,95.824 26.8894,95.922 C28.1784,97.078 29.7494,96.515 31.1994,96.629 C32.3704,96.722 33.5564,96.709 34.7304,96.645 C35.2254,96.618 35.6984,96.304 36.1964,96.183 C36.6734,96.068 37.3924,95.797 37.6214,96.009 C38.3804,96.71 39.2534,96.662 40.1284,96.689 C41.3374,96.726 42.5564,96.78 43.7574,96.675 C44.6174,96.599 45.4474,96.228 46.3054,96.075 C47.1364,95.926 47.9864,95.826 48.8284,95.813 C49.7544,95.799 50.6814,95.938 51.6094,95.944 C51.8144,95.945 52.0214,95.669 52.2284,95.521 C52.0284,95.353 51.8484,95.089 51.6234,95.042 C51.3264,94.98 50.9854,95.145 50.6764,95.105 C50.3924,95.069 50.1274,94.89 49.8544,94.773 C50.0444,94.563 50.2014,94.302 50.4304,94.153 C51.8654,93.224 53.5264,93.532 55.0874,93.417 C56.4574,93.317 57.8514,93.566 59.2374,93.598 C59.6234,93.607 60.0154,93.395 60.4054,93.285 C60.3194,92.997 60.3034,92.524 60.1344,92.462 C59.7624,92.324 59.3114,92.357 58.8974,92.387 C58.2124,92.434 57.4704,92.746 56.8604,92.572 C55.3264,92.132 53.8564,91.47 52.3494,90.926 C51.9904,90.796 51.5374,90.869 51.2204,90.687 C50.8754,90.491 50.6384,90.106 50.3544,89.803 C50.7074,89.536 51.0454,89.071 51.4174,89.041 C52.3694,88.966 53.3354,89.114 54.2964,89.109 C54.6154,89.108 54.9324,88.913 55.2494,88.807 C55.0474,88.551 54.8444,88.294 54.6444,88.036 C54.5804,87.954 54.5254,87.866 54.4224,87.716 C55.1844,87.2 55.7864,87.755 56.3724,87.994 C57.7164,88.541 58.4364,88.255 58.9974,86.773" id="Fill-1" fill="#231916"></path>
                <path d="M46.6814,58.8065 C46.5864,59.2775 46.5724,59.7895 46.3674,60.2105 C46.2454,60.4595 45.8254,60.5625 45.5384,60.7315 C45.4114,60.4555 45.2404,60.1905 45.1734,59.9005 C45.1304,59.7105 45.2714,59.4865 45.2724,59.2765 C45.2724,59.0165 45.2124,58.7555 45.1784,58.4955 C44.9124,58.5405 44.6484,58.5915 44.3814,58.6295 C43.6574,58.7345 42.9284,58.9225 42.2094,58.8925 C41.9404,58.8815 41.6924,58.3605 41.4334,58.0725 C41.7154,57.8485 41.9914,57.4425 42.2804,57.4315 C43.9914,57.3695 45.7044,57.3845 47.4164,57.4125 C47.6744,57.4165 48.0064,57.5615 48.1724,57.7555 C49.2024,58.9555 50.5684,59.3725 52.0494,59.7125 C52.6654,59.8535 53.1494,60.5595 53.7004,61.0015 C53.9684,61.2175 54.2834,61.6205 54.5244,61.5855 C55.6264,61.4215 56.2364,62.0795 56.8824,62.7675 C57.2714,63.1825 57.6934,63.5825 58.1584,63.9075 C58.7164,64.2975 59.3024,64.5115 59.8074,63.7455 C60.2084,63.1375 60.6764,63.3135 60.9864,63.8315 C61.8744,65.3185 62.7594,66.8095 63.5684,68.3405 C63.9584,69.0805 64.1154,69.9445 64.5004,70.6875 C64.6734,71.0205 65.1424,71.3935 65.4914,71.4085 C67.2724,71.4845 69.0574,71.4505 70.8414,71.4525 C71.5024,71.4525 71.7524,71.0905 71.8584,70.4595 C71.9464,69.9325 72.2514,69.4455 72.3864,68.9215 C72.4614,68.6275 72.5154,68.1905 72.3594,67.9955 C71.4874,66.9145 71.5554,65.8235 72.2534,64.7405 C73.2704,63.1625 73.9524,61.5835 72.7314,59.7985 C72.6564,59.6885 72.6144,59.5205 72.6304,59.3885 C72.7904,58.0765 72.4524,57.2405 70.8974,57.3135 C70.6724,57.3235 70.3934,56.8095 70.1914,56.5045 C69.9574,56.1525 69.6994,55.7805 69.6084,55.3805 C69.5464,55.1075 69.7324,54.7645 69.8494,54.4705 C69.9394,54.2445 70.0954,54.0445 70.2224,53.8325 C69.9744,53.6925 69.6534,53.3755 69.4904,53.4435 C68.7594,53.7445 68.5144,53.2835 68.2644,52.7885 C68.0554,52.3745 67.8134,51.9635 67.6984,51.5215 C67.6364,51.2875 67.8134,50.9925 67.8824,50.7235 C68.1024,50.8545 68.3484,50.9555 68.5354,51.1225 C68.7904,51.3485 68.9624,51.7275 69.2474,51.8365 C69.3924,51.8905 69.8654,51.5215 69.9074,51.2915 C69.9634,50.9865 69.7514,50.6275 69.6444,50.2945 C69.5504,50.0035 69.3664,49.7175 69.3684,49.4295 C69.3684,49.2505 69.6404,49.0725 69.7894,48.8935 C69.9544,49.0505 70.2184,49.1815 70.2684,49.3685 C70.5944,50.6045 70.7244,51.9145 71.2074,53.0805 C71.7864,54.4765 72.6654,55.7485 73.3934,57.0855 C73.6384,57.5355 73.8704,58.0045 74.0164,58.4925 C74.3054,59.4615 74.6094,60.4365 74.7554,61.4315 C74.8684,62.1975 74.6914,63.0015 74.7524,63.7795 C74.7964,64.3465 75.0154,64.8995 75.1644,65.4565 C75.2544,65.7915 75.3504,66.1245 75.4594,66.4525 C75.5774,66.8065 75.7174,67.1525 75.8424,67.5045 C75.9404,67.7805 76.0764,68.0575 76.0914309,68.3395 C76.0954,68.4275 75.7104,68.6555 75.5884,68.6075 C75.2854,68.4865 74.9014,68.3005 74.7854,68.0355 C74.5734,67.5575 74.6184,66.9615 74.3934,66.4935 C74.2134,66.1195 73.7894,65.8635 73.4744,65.5555 C73.3354,65.9875 73.0844,66.4185 73.0804,66.8515 C73.0744,67.6605 73.2584,68.4695 73.2714,69.2795 C73.2834,69.9505 73.4524,70.4125 74.0904,70.7555 C74.3844,70.9135 74.5034,71.3965 74.7024,71.7325 C74.3154,71.8975 73.8844,72.2595 73.5484,72.1865 C72.8044,72.0255 72.3044,72.2075 71.6914,72.6365 C71.2584,72.9385 70.5454,72.9175 69.9604,72.9075 C68.9954,72.8895 68.1134,72.8715 67.1894,73.4055 C66.5854,73.7545 65.6784,73.5935 64.9054,73.6205 C64.7684,73.6255 64.5764,73.4635 64.4914,73.3275 C63.8654,72.3165 63.2114,71.3165 62.6754,70.2585 C62.5024,69.9155 62.6874,69.4065 62.6474,68.9785 C62.6034,68.4985 62.6514,67.8765 62.3754,67.5775 C61.6614,66.8035 60.7924,66.1735 59.8134,65.3385 C59.7024,66.3405 58.9554,66.9425 59.7574,68.1185 C60.2684,68.8655 59.7744,70.3305 59.6514,71.4655 C59.5764,72.1525 59.1934,72.8315 59.2294,73.4985 C59.2834,74.4985 59.0054,75.2565 58.2084,75.8095 C57.4774,76.3165 56.7104,76.7725 55.9554,77.2445 C55.8684,77.2995 55.7164,77.3785 55.6604,77.3435 C54.3524,76.4945 53.0464,77.5515 51.7104,77.3375 C50.3484,77.1195 48.9374,77.2195 47.5474,77.1595 C47.3054,77.1485 47.0474,76.9435 46.8294,76.9885 C46.3974,77.0775 45.9874,77.2775 45.5684,77.4315 C45.8804,77.7235 46.1474,78.1375 46.5174,78.2815 C47.0684,78.4955 47.7024,78.4825 48.2844,78.6325 C49.5344,78.9535 50.9834,79.0215 51.9744,79.7235 C54.1904,81.2935 56.4884,79.8495 58.6894,80.2935 C59.0384,80.3645 59.3734,80.5045 59.7154,80.6135 C59.4424,80.8745 59.2054,81.2905 58.8884,81.3675 C58.0154,81.5775 57.1094,81.6525 56.2144,81.7645 C55.9704,81.7955 55.6174,81.6615 55.4884,81.7855 C54.5784,82.6565 53.8874,82.1085 52.9854,81.6675 C51.7394,81.0575 50.3264,80.7935 48.9934,80.3545 C47.6174,79.9015 46.2514,79.4145 44.8814,78.9445 C44.7474,78.8985 44.5824,78.7975 44.4774,78.8385 C42.5034,79.5985 40.5334,78.4485 38.5494,78.8345 C38.1084,78.9205 37.5954,78.6555 37.1174,78.5435 C36.4524,78.3875 35.7884,78.2235 35.1244,78.0645 C35.0914,78.0565 35.0434,78.0825 35.0194,78.0675 C33.9944,77.4405 32.9144,77.0295 31.6854,77.0115 C31.2094,77.0045 30.7404,76.7975 30.2624,76.7035 C30.0244,76.6575 29.7234,76.7415 29.5424,76.6245 C28.7874,76.1395 28.3444,75.9955 27.6994,76.9835 C27.3984,77.4435 26.0674,77.3075 25.2024,77.3055 C23.6364,77.3005 22.0704,77.1965 20.5034,77.1265 C19.6924,77.0905 19.0824,77.2685 18.7374,78.1525 C18.4174,78.9685 16.7914,79.1495 15.7724,78.5735 C14.3514,77.7695 12.8114,77.7555 11.2484,77.8605 C10.9684,77.8795 10.5774,77.9945 10.4224,77.8575 C9.0794,76.6685 7.4694,77.5785 6.0194,77.2645 C5.6564,77.1865 5.1084,77.3415 4.8304,77.5945 C4.0494,78.3045 3.1524,78.0595 2.2844,78.0445 C2.0954,78.0405 1.9104,77.7885 1.7244,77.6515 C1.9094,77.4765 2.0734,77.1845 2.2834,77.1465 C3.6974,76.8915 5.1204,76.6945 6.5394,76.4715 C6.7484,76.4375 7.0014,76.4295 7.1494,76.3075 C8.2714,75.3825 9.5614,75.9545 10.7654,75.9335 C11.1444,75.9275 11.5324,76.4535 11.9844,76.7865 C12.4474,75.7465 13.1094,75.8165 13.9024,76.4235 C14.1024,76.5775 14.4454,76.5375 14.7184,76.6045 C15.2744,76.7415 15.8194,76.9365 16.3824,77.0195 C16.8654,77.0905 17.3794,77.1115 17.8534,77.0175 C18.3534,76.9185 18.8484,76.7055 19.2954,76.4535 C19.8294,76.1535 20.3114,75.7575 20.8684,75.3675 C22.0764,77.2265 24.0104,76.3125 25.6814,76.4915 C25.8724,76.5125 26.1004,76.1985 26.3104,76.0395 C26.1354,75.8355 25.9984,75.5315 25.7784,75.4495 C25.2184,75.2395 24.4084,75.3175 24.0774,74.9445 C22.9644,73.6815 21.2464,73.7495 19.9824,72.8555 C18.3754,71.7215 16.5404,70.8955 15.2654,69.3295 C15.0354,69.0475 14.8464,68.6515 14.8234,68.2965 C14.7544,67.2305 14.7064,66.1525 14.7894,65.0905 C14.8434,64.4115 15.1304,63.7495 15.3334,63.0865 C15.6004,62.2155 15.8714,61.3445 16.1694,60.4835 C16.4564,59.6515 16.7714,58.8285 17.0954,58.0095 C17.1694,57.8215 17.3124,57.5395 17.4544,57.5185 C18.4984,57.3695 18.6894,56.4915 19.1024,55.7585 C19.6244,54.8305 20.2234,53.9405 20.8524,53.0805 C21.0664,52.7865 21.4694,52.6315 21.7854,52.4115 C22.4954,51.9195 23.2064,51.4275 23.9144,50.9325 C24.8704,50.2645 25.7914,49.5395 26.7864,48.9375 C28.4224,47.9495 30.1154,47.0555 31.7674,46.0955 C33.0184,45.3675 34.2194,44.5495 35.4934,43.8675 C36.2594,43.4565 37.1104,43.1865 37.9464,42.9315 C40.0734,42.2835 41.6754,40.8795 43.1054,39.2885 C44.1124,38.1685 45.0144,36.9335 45.8214,35.6595 C46.5374,34.5265 45.5424,33.6325 45.0624,32.7455 C44.2464,31.2445 43.2464,29.8455 42.4124,28.3525 C41.9734,27.5685 41.7064,26.6835 41.4004,25.8305 C41.3434,25.6745 41.4724,25.4525 41.5154,25.2605 C41.7314,25.3195 41.9764,25.3335 42.1504,25.4525 C42.2754,25.5385 42.3444,25.7575 42.3694,25.9275 C42.6264,27.6395 43.8004,28.8865 44.6114,30.3135 C44.6974,30.4655 45.3424,30.5145 45.3714,30.4505 C45.8014,29.4935 46.7514,29.4035 47.5444,29.0295 C47.8804,28.8705 48.1094,28.4835 48.3864,28.2005 C48.0524,28.0835 47.7054,27.8435 47.3854,27.8735 C46.7024,27.9385 46.0354,28.1565 45.3574,28.2825 C45.1404,28.3225 44.8184,28.3585 44.7034,28.2415 C44.5674,28.1005 44.4984,27.7425 44.5844,27.5695 C44.7544,27.2295 45.0184,26.9175 45.3024,26.6575 C45.8654,26.1425 46.3894,25.6795 45.6004,24.9155 C45.4734,24.7925 45.5414,24.2055 45.6124,24.1865 C45.9994,24.0855 46.4324,24.0235 46.8164,24.1035 C46.9494,24.1305 47.1164,24.6455 47.0484,24.8715 C46.6704,26.1265 46.6614,26.0645 47.9624,26.4195 C48.7614,26.6375 49.4594,27.1095 50.3054,26.4365 C50.5134,26.2695 51.1234,26.6075 51.5494,26.7125 C51.2874,27.0465 51.0554,27.4085 50.7554,27.7025 C50.5724,27.8835 50.2854,27.9595 49.8704,28.1725 C50.2144,28.3805 50.3894,28.5325 50.5924,28.5975 C50.8604,28.6825 51.2314,28.6025 51.4154,28.7605 C52.4504,29.6445 53.5264,30.3185 54.9824,30.0025 C55.0314,29.9915 55.3574,30.5755 55.2764,30.7615 C54.9024,31.6235 53.9844,31.9655 53.1364,31.4935 C52.2944,31.0235 51.7304,31.1195 51.1174,31.8705 C50.5384,32.5795 49.2964,32.6255 48.4524,32.2135 C47.6514,31.8235 46.7994,31.5365 45.6784,31.0865 C45.8794,31.7605 45.9024,32.1375 46.0864,32.4015 C47.1154,33.8785 48.0594,35.4775 50.2784,35.2535 C51.4934,35.1315 52.7944,35.5075 53.8284,34.4915 C53.9464,34.3755 54.2744,34.4735 54.5034,34.4735 C54.5024,34.7025 54.5714,34.9615 54.4884,35.1565 C54.0794,36.1125 52.7664,36.8455 51.7084,36.7705 C51.3194,36.7435 50.9124,36.7025 50.5364,36.7785 C49.6454,36.9595 49.0484,36.5685 48.4654,35.9575 C48.2934,35.7775 47.6684,35.7065 47.5574,35.8405 C46.7214,36.8475 45.9504,37.9085 45.1874,38.9735 C44.9744,39.2695 44.8594,39.6355 44.6994,39.9695 C44.7624,40.0635 44.8264,40.1585 44.8904,40.2515 C45.3174,40.1115 45.7364,39.9005 46.1724,39.8495 C46.5624,39.8045 47.1494,39.7895 47.3374,40.0185 C47.7594,40.5325 47.3394,40.8785 46.8514,41.1695 C45.9584,41.7015 45.1704,42.0255 44.5964,40.7545 C44.5484,40.6475 43.8874,40.6495 43.6734,40.8135 C42.3594,41.8225 41.1044,42.9065 39.7994,43.9285 C39.5704,44.1075 39.2024,44.1945 38.9014,44.1855 C37.3754,44.1435 36.2884,45.0015 35.0504,45.7365 C33.3434,46.7485 31.9304,48.3525 29.8054,48.6175 C29.5694,48.6475 29.3364,48.7785 29.1214,48.8985 C27.6114,49.7435 26.1054,50.5975 24.5964,51.4465 C24.5354,51.4815 24.4464,51.4845 24.4034,51.5315 C23.3624,52.6675 22.2874,53.7745 21.2994,54.9545 C20.1664,56.3065 19.1604,57.7665 18.0024,59.0955 C17.4254,59.7575 17.2024,60.4055 17.0944,61.2735 C16.9734,62.2425 16.4054,63.1495 16.0934,64.1035 C15.9664,64.4925 15.9854,64.9335 15.9724,65.3525 C15.9664,65.5575 16.1094,65.7805 16.0674,65.9685 C15.9634,66.4245 15.5314,67.0235 15.6904,67.2835 C16.4934,68.5905 17.1174,70.0795 18.6924,70.7495 C19.7794,71.2105 20.5874,72.2885 21.9224,72.2065 C21.9534,72.2055 21.9994,72.2295 22.0154,72.2565 C22.9464,73.7495 24.7774,73.5355 26.0464,74.3855 C26.3694,74.6015 26.6694,74.8715 27.0214,75.0175 C27.4084,75.1795 27.8994,75.4025 28.2434,75.2895 C29.2684,74.9545 30.1034,75.1925 30.9694,75.7435 C31.3354,75.9775 31.8504,75.9775 32.2974,76.0835 C32.3184,75.9845 32.3374,75.8865 32.3584,75.7865 C31.9524,75.2825 31.4764,74.8155 31.1704,74.2555 C31.0264,73.9915 31.2074,73.5495 31.2414,73.1885 C31.5624,73.3005 31.9354,73.3435 32.1934,73.5385 C32.6164,73.8585 32.9414,74.3065 33.3534,74.6435 C33.6854,74.9155 34.1104,75.0725 34.4464,75.3405 C34.7444,75.5785 34.9884,75.8925 35.2404,76.1865 C35.4994,76.4885 35.7054,77.0365 35.9964,77.0815 C38.2934,77.4385 40.6024,77.7235 42.9134,77.9725 C43.3364,78.0175 43.7874,77.7975 44.2264,77.6995 C44.2324,77.5485 44.2374,77.3965 44.2434,77.2455 C43.5254,77.0225 42.8074,76.7965 42.0884,76.5775 C41.4524,76.3825 40.7574,76.2965 40.1914,75.9795 C39.3044,75.4825 38.4694,75.0395 37.3894,75.1755 C37.0314,75.2205 36.5454,74.9715 36.2544,74.7065 C35.4104,73.9395 34.6214,73.1115 33.8394,72.2805 C33.1134,71.5085 33.1364,70.6495 33.8564,69.9085 C34.6384,69.1015 35.5344,69.0085 36.3464,69.6225 C37.2084,70.2755 38.0864,70.9085 38.9534,71.5545 C39.0374,71.6175 39.1734,71.7285 39.1594,71.7855 C38.7374,73.4265 40.6064,73.6285 41.0384,74.7465 C41.1264,74.9725 41.6234,75.1415 41.9404,75.1575 C42.9374,75.2075 43.9454,75.0985 44.9334,75.2005 C45.4284,75.2505 45.8904,75.6225 46.3654,75.8545 C46.6444,75.9925 47.0024,76.3225 47.1744,76.2415 C47.4164,76.1285 47.5444,75.7265 47.6764,75.4285 C47.8164,75.1105 47.9054,74.7695 48.0154,74.4395 C48.3194,74.6635 48.6814,74.8385 48.9134,75.1205 C49.7624,76.1515 52.0904,77.1055 53.4994,76.0585 C54.0294,75.6655 54.6174,75.3295 55.2204,75.0625 C57.6194,73.9965 59.3254,71.0855 59.0744,68.6025 C59.0324,68.1875 58.7344,67.7105 58.4094,67.4315 C57.9194,67.0135 57.6034,66.6215 57.8814,65.9755 C58.1764,65.2895 57.7954,64.9305 57.2874,64.5665 C56.2114,63.7935 55.2164,62.8925 54.0874,62.2115 C53.0284,61.5725 51.8374,61.1515 50.7084,60.6275 C50.3224,60.4485 49.9424,60.2555 49.5664,60.0565 C48.8514,59.6775 48.4864,60.1865 48.1774,60.6565 C47.8014,61.2285 48.2284,61.4605 48.6984,61.6745 C49.4724,62.0275 50.3184,62.3105 50.9624,62.8345 C51.5024,63.2725 51.8824,63.9735 52.1844,64.6265 C52.5914,65.5085 52.8624,65.5895 53.5404,64.8905 C53.7854,64.6405 54.1374,64.4965 54.4414,64.3035 C54.5794,64.6765 54.7814,65.0395 54.8424,65.4245 C54.9204,65.9125 55.0244,66.4705 54.8634,66.9025 C54.6864,67.3765 54.2194,67.7435 53.8784,68.1575 C53.6184,67.8615 53.3394,67.5805 53.1044,67.2665 C52.7244,66.7595 52.3794,66.2235 52.0034,65.7125 C51.9234,65.6025 51.7264,65.5705 51.6654,65.4585 C50.8624,63.9515 49.6944,63.2095 47.9094,63.1955 C46.9834,63.1875 46.7424,62.2705 47.1564,61.3635 C47.3904,60.8515 47.5694,60.3055 47.7044,59.7585 C47.8554,59.1535 47.5464,58.8845 46.6814,58.8065" id="Fill-3" fill="#231916"></path>
                <path d="M98.615,73.2157 C98.158,72.9337 97.905,72.6577 97.738,72.7027 C97.49,72.7687 97.303,73.0617 97.089,73.2587 C97.254,73.3997 97.426,73.6647 97.58,73.6547 C97.845,73.6367 98.1,73.4487 98.615,73.2157 M63,25.1387 C63.941,23.2767 63.682,21.7367 62.415,20.2787 C62.091,19.9047 61.834,19.4717 61.508,19.1007 C61.344,18.9157 61.097,18.6887 60.884,18.6827 C59.273,18.6397 57.818,16.5947 58.467,15.1447 C58.591,14.8677 59.133,14.6527 59.496,14.6307 C61.082,14.5317 62.167,12.9077 61.664,11.4087 C61.545,11.0537 61.748,10.5897 61.802,10.1757 C62.181,10.3507 62.728,10.4237 62.905,10.7187 C63.367,11.4877 63.757,11.3217 64.227,10.8057 C64.444,10.5687 64.66,10.3277 64.846,10.0677 C65.429,9.2577 66.071,9.1527 66.805,9.8647 C66.856,9.9147 66.918,9.9547 66.977,9.9927 C68.245,10.7877 68.236,10.7817 67.546,12.0837 C67.206,12.7247 67.184,13.2907 67.946,13.7047 C68.973,14.2637 69.16,15.0407 68.579,16.0767 C68.317,16.5427 68.069,17.0167 67.789,17.4707 C67.428,18.0567 67.46,18.5487 67.87,19.1407 C68.068,19.4287 68.083,20.0707 67.891,20.3627 C66.83,21.9827 65.657,23.5277 64.58,25.1377 C64.343,25.4917 64.326,26.0007 64.231,26.4427 C63.796,28.4787 63.398,30.5227 62.926,32.5497 C62.704,33.5047 63.055,34.2187 63.629,34.8997 C65.055,36.5947 66.803,37.8497 68.854,38.6787 C69.148,38.7977 69.463,38.8907 69.776,38.9347 C71.556,39.1897 73.22,39.6097 74.766,40.6907 C75.75,41.3777 77.12,41.4907 78.286,41.9417 C79.137,42.2717 80.053,42.5937 80.74,43.1617 C82.288,44.4397 83.607,45.9227 83.898,48.0587 C83.959,48.4957 84.299,48.8877 84.457,49.3207 C84.695,49.9737 84.841,50.6627 85.108,51.3017 C85.461,52.1437 85.906,52.9467 86.285,53.7787 C86.429,54.0937 86.51,54.4397 86.604,54.7757 C86.799,55.4617 86.995,56.1477 87.168,56.8387 C87.261,57.2107 87.29,57.5997 87.383,57.9717 C87.553,58.6517 87.689,59.3487 87.954,59.9917 C88.199,60.5897 88.64,60.6297 89.341,60.5227 C90.694,60.3147 92.095,60.4027 93.477,60.3857 C94.939,60.3677 96.403,60.4037 97.864,60.3477 C98.449,60.3247 99.046,60.1707 99.605,59.9827 C100.46,59.6957 100.661,59.7107 101.503,60.6717 C100.696,60.7157 100.119,60.7187 99.552,60.7927 C99.254,60.8317 98.971,60.9947 98.682,61.1017 C98.936,61.3377 99.22,61.7987 99.439,61.7687 C100.358,61.6477 101.553,62.2347 101.998,60.7067 C102.199,60.0177 103.78,60.2597 104.276,60.9407 C104.551,61.3187 104.982,61.5777 105.31,61.9227 C105.529,62.1517 105.877,62.4817 105.829,62.6857 C105.764,62.9527 105.38,63.1587 105.105,63.3517 C105.008,63.4197 104.817,63.4077 104.687,63.3697 C101.994,62.5657 99.315,63.6327 96.622,63.4347 C95.724,63.3687 94.918,63.4577 94.608,62.3287 C94.541,62.0817 94.005,61.8247 93.674,61.8117 C91.896,61.7407 90.113,61.6977 88.337,61.7657 C88.015,61.7777 87.482,62.3247 87.444,62.6687 C87.213,64.7947 87.759,66.7757 88.667,68.7047 C89.111,69.6497 89.335,70.7117 89.561,71.7417 C89.775,72.7157 90.396,73.0437 91.35,72.7067 C92.098,72.4427 92.9,72.2257 93.685,72.1957 C95.501,72.1257 97.323,72.2307 99.138,72.1627 C99.97,72.1327 100.794,71.8637 101.621,71.7007 C102.073,71.6117 102.53,71.5407 102.974,71.4197 C103.473,71.2847 103.95,71.0607 104.454,70.9527 C105.167,70.8007 105.894,70.6597 106.617,70.6497 C106.816,70.6467 107.229,71.1827 107.178,71.3697 C107.096,71.6627 106.735,72.0037 106.433,72.0767 C106.042,72.1717 105.586,71.9657 105.168,72.0027 C104.954,72.0217 104.761,72.2887 104.559,72.4437 C104.752,72.6227 104.924,72.9147 105.141,72.9547 C105.434,73.0087 105.763,72.8267 106.078,72.8237 C106.374,72.8217 106.778,72.8257 106.933,73.0037 C107.056,73.1447 106.928,73.5727 106.821,73.8367 C106.357,74.9707 105.603,75.2627 104.314,75.1417 C102.341,74.9547 100.329,75.1627 98.334,75.2147 C97.604,75.2337 96.987,75.1757 96.84,74.2377 C96.806,74.0227 96.347,73.7257 96.078,73.7187 C94.044,73.6677 92.009,73.6567 89.974,73.6827 C89.278,73.6917 88.851,74.0207 88.969,74.8487 C89.129,75.9837 88.688,76.7827 87.642,77.3807 C86.787,77.8697 86.078,78.6147 85.222,79.3117 C85.803,79.9007 86.45,79.8827 87.128,79.3867 C88.19,78.6117 90.832,78.5687 91.928,79.2837 C92.743,79.8167 93.57,79.7217 94.465,79.3577 C95.227,79.0477 96.07,78.8777 96.892,78.8007 C97.14,78.7777 97.436,79.2727 97.711,79.5297 C97.4,79.7227 97.111,79.9907 96.773,80.0907 C96.182,80.2667 95.564,80.4167 94.953,80.4367 C93.956,80.4677 92.956,80.3657 91.957,80.3607 C91.428,80.3587 90.882,80.3767 90.378,80.5137 C90.14,80.5787 89.831,80.9487 89.837,81.1727 C89.843,81.3707 90.216,81.6147 90.474,81.7317 C90.684,81.8257 90.968,81.7427 91.215,81.7717 C92.3,81.8987 93.381,82.0897 94.469,82.1537 C95.222,82.1987 95.987,82.0817 96.746,82.0217 C96.882,82.0097 97.044,81.8457 97.138,81.8847 C99.311,82.7907 101.101,81.1637 103.117,81.0437 C103.199,80.5677 103.327,80.1377 103.331,79.7077 C103.334,79.3857 103.155,78.7797 103.095,78.7837 C102.631,78.8207 102.176,78.9747 101.717,79.0927 C101.87,79.3627 102.012,79.6387 102.179,79.9007 C102.249,80.0097 102.369,80.0867 102.684,80.3827 C102.018,80.3827 101.599,80.3687 101.182,80.3867 C100.579,80.4127 99.975,80.4997 99.375,80.4797 C99.156,80.4717 98.945,80.2307 98.731,80.0957 C98.893,79.9357 99.042,79.6557 99.219,79.6367 C100.016,79.5477 100.473,79.1307 100.853,78.4367 C101.005,78.1587 101.591,78.1357 101.954,77.9487 C102.147,77.8497 102.288,77.6487 102.453,77.4927 C102.262,77.3717 102.074,77.1537 101.882,77.1497 C101.459,77.1427 101.035,77.2817 100.61,77.2897 C100.194,77.2977 99.715,77.3267 99.379,77.1397 C99.118,76.9947 99.036,76.5297 98.874,76.2077 C99.179,76.1017 99.487,75.8997 99.791,75.9037 C101.182,75.9247 102.572,76.0327 103.964,76.0477 C104.598,76.0547 105.238,75.9407 105.869,75.8397 C106.484,75.7417 107.098,75.7257 107.222,76.4737 C107.361,77.3047 106.726,77.3617 106.109,77.3517 C105.969,77.3497 105.829,77.3807 105.953,77.3667 C105.478,77.9837 105.084,78.4067 104.811,78.8987 C104.719,79.0667 104.854,79.5207 105.026,79.6367 C105.222,79.7697 105.656,79.5627 105.844,79.6987 C106.24,79.9887 106.719,80.3617 106.827,80.7857 C106.91,81.1137 106.578,81.7317 106.253,81.9347 C105.73,82.2607 105.068,82.4777 104.452,82.5097 C103.457,82.5627 102.453,82.3967 101.626,83.1717 C101.495,83.2947 101.219,83.2987 101.011,83.2987 C98.161,83.2987 95.309,83.3307 92.461,83.2487 C91.811,83.2297 91.175,82.8087 90.531,82.5737 C90.238,82.4667 89.939,82.2627 89.652,82.2777 C88.91,82.3167 88.356,82.1717 87.951,81.4547 C87.812,81.2087 87.28,81.0557 86.939,81.0737 C85.107,81.1737 83.411,80.8527 81.886,79.7697 C81.681,79.6247 81.344,79.6247 81.07,79.6287 C80.145,79.6417 79.219,79.7407 78.297,79.7037 C77.454,79.6697 76.701,79.9277 76.437,80.6657 C76.257,81.1727 76.513,81.8617 76.653,82.4497 C76.832,83.2007 77.09,83.9337 77.313,84.6737 C77.19,84.7397 77.066,84.8067 76.942,84.8727 C76.731,84.7327 76.413,84.6387 76.328,84.4437 C75.95,83.5727 75.552,82.6947 75.327,81.7787 C75.093,80.8247 74.597,80.3467 73.629,80.3517 C72.951,80.3567 72.272,80.3737 71.594,80.3837 C71.202,80.3897 70.713,80.5437 70.433,80.3677 C69.197,79.5897 68.034,79.9727 66.841,80.4147 C66.651,80.4847 66.389,80.4967 66.206,80.4237 C65.245,80.0457 64.33,79.7937 63.379,80.5227 C63.219,80.6457 62.729,80.3377 62.107,80.1357 C62.962,79.5767 63.542,79.1917 64.132,78.8197 C64.214,78.7677 64.378,78.7317 64.437,78.7767 C65.818,79.8077 67.183,78.4827 68.617,78.7667 C70.025,79.0467 71.532,78.8347 72.995,78.8357 C73.137,78.8357 73.293,78.7767 73.421,78.8147 C75.57,79.4497 77.719,78.4717 79.869,78.8177 C80.177,78.8667 80.627,78.9137 80.803,78.7447 C81.672,77.9167 82.757,78.3297 83.715,78.1037 C85.562,77.6667 87.604,77.2367 88.086,74.9637 C88.436,73.3077 88.398,71.6007 87.695,69.9867 C86.664,67.6167 86.096,65.1437 86.497,62.5717 C86.859,60.2407 86.068,58.2177 85.191,56.1757 C85.094,55.9517 84.98,55.6777 85.026,55.4597 C85.361,53.8807 84.461,52.6837 83.857,51.3797 C83.595,50.8127 83.595,50.1287 83.355,49.5477 C82.584,47.6767 81.733,45.8567 80.086,44.5397 C79.389,43.9837 78.82,43.3317 77.789,43.3507 C77.348,43.3597 76.909,42.9347 76.454,42.7407 C75.26,42.2347 74.061,41.7367 72.855,41.2577 C72.597,41.1557 72.298,41.1667 72.023,41.0977 C71.355,40.9287 70.693,40.7367 70.025,40.5667 C69.446,40.4187 68.78,40.4207 68.295,40.1237 C66.372,38.9497 64.236,38.0587 62.834,36.1477 C62.636,35.8777 62.181,35.7717 61.827,35.6427 C60.827,35.2777 60.353,34.4217 60.884,33.5397 C61.436,32.6197 61.541,31.6987 61.489,30.6767 C61.468,30.2367 61.711,29.7867 61.792,29.3347 C61.831,29.1117 61.773,28.8717 61.759,28.6397 C61.495,28.6597 61.114,28.5757 60.987,28.7177 C60.232,29.5597 59.036,30.1377 59.209,31.5777 C59.24,31.8317 59.13,32.1707 58.964,32.3697 C58.457,32.9787 57.926,33.5787 57.328,34.0937 C57.139,34.2577 56.712,34.1437 56.393,34.1567 C56.437,33.8467 56.371,33.3637 56.544,33.2537 C57.725,32.4957 58.209,31.3817 58.445,30.0657 C58.516,29.6697 58.807,29.2967 59.05,28.9487 C60.038,27.5287 61.068,26.1367 62.022,24.6937 C62.168,24.4747 61.985,24.0427 61.962,23.7087 C61.94,23.3987 61.929,23.0867 61.914,22.7757 C62.201,22.9367 62.569,23.0377 62.752,23.2777 C62.913,23.4917 62.873,23.8617 62.912,24.1637 C62.941,24.3917 62.954,24.6217 63,25.1387" id="Fill-5" fill="#231916"></path>
                <path d="M43.1267,22.4125 C43.4437,22.0365 43.6537,21.7245 43.9247,21.4775 C44.5197,20.9355 44.4167,20.5915 43.6757,20.3605 C43.2737,20.2355 42.8797,20.0895 42.3667,19.9135 C42.2087,21.5715 40.6067,21.3205 39.7157,22.0245 C39.5647,22.1435 39.1887,21.9755 38.9187,21.9405 C38.9577,21.6835 38.9187,21.3705 39.0517,21.1785 C39.4487,20.6025 39.1887,20.2145 38.9397,19.6435 C38.4007,18.4075 38.0837,17.0715 37.7257,15.7625 C37.6597,15.5225 37.7377,15.1005 37.9087,14.9645 C38.7607,14.2875 38.5367,13.3905 38.5717,12.5075 C38.5957,11.9375 38.8497,11.3765 39.0077,10.8135 C39.1777,10.2115 39.3557,9.6125 39.5707,8.8705 C40.2387,9.1535 40.8957,9.4315 41.4767,9.6765 C42.4157,8.3025 42.1567,6.8555 42.0677,5.4125 C42.0477,5.0935 42.3667,4.7535 42.5297,4.4235 C42.6637,4.7685 42.9317,5.1225 42.9087,5.4565 C42.8237,6.6825 42.9837,6.9245 44.2067,7.2235 C44.5257,7.3015 44.8747,7.4735 45.0927,7.7105 C45.7557,8.4295 45.9837,8.3935 46.5297,7.5075 C47.3537,6.1705 48.1907,4.8415 49.0787,3.5465 C49.7157,2.6185 49.9527,2.6585 50.7587,3.4825 C50.9847,3.7135 51.3467,3.8875 51.6617,3.9155 C51.7767,3.9265 51.9537,3.4505 52.0757,3.1835 C52.2687,2.7645 52.4377,2.3335 52.6167,1.9085 C52.8827,1.2735 53.2437,1.0685 53.8217,1.6005 C54.3177,2.0575 54.6287,1.8755 54.8277,1.2825 C54.9287,0.9825 55.0467,0.6485 55.2627,0.4385 C55.4957,0.2125 55.8797,-0.0415 56.1477,0.0065 C56.3627,0.0445 56.6077,0.4915 56.6627,0.7895 C56.9307,2.2455 57.7547,3.1435 59.1787,3.4315 C60.0437,3.6055 60.7977,4.6275 60.7807,5.5245 C60.7667,6.2725 60.8547,7.0225 60.8217,7.7675 C60.8107,8.0435 60.5867,8.3105 60.4597,8.5815 C60.2027,8.4285 59.8027,8.3295 59.7167,8.1095 C59.4827,7.5075 59.3887,6.8525 59.2257,6.2225 C59.1247,5.8345 58.9977,5.4545 58.8827,5.0715 C58.4767,5.2025 58.0207,5.2575 57.6777,5.4845 C57.3347,5.7115 56.9697,6.0665 56.8487,6.4405 C56.4407,7.6945 55.3297,8.1135 54.3357,8.5845 C53.0667,9.1865 51.7747,9.6455 51.4647,11.2625 C51.4047,11.5715 51.0967,11.8325 50.8677,12.1665 C50.1137,11.6005 50.2727,10.9865 50.5377,10.4005 C50.8017,9.8215 51.0657,9.2165 51.4617,8.7285 C52.0937,7.9485 51.8327,7.4575 51.2167,6.8205 C50.8137,6.4035 50.6977,5.7195 50.4047,5.1805 C50.2257,4.8505 49.9547,4.5675 49.7247,4.2645 C49.4387,4.4995 49.0587,4.6805 48.8797,4.9805 C48.0177,6.4335 47.0727,7.8615 46.4177,9.4085 C45.7407,11.0055 44.4317,11.9725 43.3357,13.1645 C43.1537,13.3635 42.9667,13.6665 42.9767,13.9135 C43.0147,14.8865 43.0767,15.8315 42.2647,16.5915 C42.2077,16.6445 42.5047,17.2145 42.7437,17.4195 C43.7067,18.2455 44.7177,19.0145 45.6907,19.8275 C45.7847,19.9055 45.7537,20.1425 45.7677,20.3065 C45.8087,20.7935 45.9287,21.2935 45.8557,21.7635 C45.7857,22.2085 45.5787,22.6785 45.2927,23.0205 C45.1627,23.1765 44.6757,23.1195 44.3857,23.0365 C44.0197,22.9315 43.6897,22.7005 43.1267,22.4125" id="Fill-7" fill="#231916"></path>
                <path d="M31.0603,132.08 C31.6603,131.801 32.2363,131.41 32.8673,131.272 C33.5513,131.122 34.2883,131.176 35.0003,131.196 C36.1573,131.228 37.2393,131.37 38.3673,130.645 C38.9803,130.252 40.0813,130.602 40.9613,130.65 C41.3113,130.669 41.6593,130.851 42.0003,130.833 C43.3753,130.758 44.7503,130.656 46.1213,130.519 C46.9293,130.438 47.6233,130.513 48.3283,131.039 C48.5963,131.24 49.2553,130.919 49.7373,130.833 C50.2163,130.747 50.7093,130.536 51.1703,130.594 C52.5373,130.768 53.8873,131.233 55.2473,131.25 C59.5633,131.305 63.8813,131.206 68.1983,131.17 C69.4783,131.159 70.7593,131.159 72.0393,131.145 C72.6743,131.139 73.3883,131.154 73.4035115,131.967 C73.4183,132.815 72.6323,132.804 72.0473,132.806 C69.1223,132.816 66.1953,132.778 63.2693,132.775 C58.5233,132.77 53.7763,132.823 49.0313,132.754 C47.7003,132.735 46.3783,132.319 45.0433,132.189 C43.7363,132.061 42.4163,132.043 41.1023,132.02 C40.0583,132.001 39.0883,131.954 38.0623,132.622 C37.4163,133.042 36.1943,132.773 35.3013,132.54 C34.7453,132.395 34.3793,132.329 33.8363,132.576 C32.9883,132.962 32.0683,132.996 31.2143,132.549 C31.1633,132.392 31.1123,132.236 31.0603,132.08" id="Fill-9" fill="#231916"></path>
                <path d="M88.5877,102.12 C88.7337,102.339 88.7677,102.442 88.8127,102.447 C90.7137,102.654 92.6167,102.853 94.5207,103.048 C94.6247,103.059 94.7477,102.993 94.8377,103.026 C95.1397,103.14 95.4307,103.283 95.7257,103.415 C95.4567,103.579 95.1927,103.872 94.9177,103.884 C93.7427,103.937 92.5657,103.907 91.3887,103.908 C91.1037,103.909 90.8157,103.888 90.5327,103.916 C88.7367,104.096 87.0097,104.096 85.9577,102.069 C85.1307,103.347 84.0057,103.294 82.8557,103.242 C82.0007,103.203 81.1387,103.315 80.2877,103.252 C79.6317,103.204 78.9877,102.984 78.3367,102.85 C77.8567,102.752 77.3737,102.648 76.8877,102.584 C75.9787,102.464 75.0657,102.371 74.1537,102.265 C74.0837,102.257 74.0147,102.206 73.9477,102.213 C71.4637,102.473 69.0447,101.588 66.5437,101.84 C64.7047,102.025 62.8397,101.968 60.9857,101.954 C60.6917,101.952 60.3997,101.611 60.1067,101.426 C60.4157,101.261 60.7217,100.962 61.0357,100.953 C62.1757,100.92 63.3167,100.984 64.4587,101.012 C64.6017,101.015 64.7627,101.059 64.8847,101.01 C66.4417,100.381 68.0007,100.918 69.5617,100.962 C71.1637,101.007 72.7707,100.936 74.3737,100.951 C74.7147,100.954 75.0557,101.105 75.3937,101.196 C76.1227,101.393 76.8417,101.72 77.5797,101.77 C79.2137,101.881 80.8567,101.864 82.4947,101.875 C82.8797,101.877 83.3077,101.873 83.6447,101.718 C85.1017,101.046 86.6167,101.137 88.1537,101.213 C88.5227,101.231 88.9047,100.949 89.2807,100.805 C88.9217,100.611 88.5717,100.272 88.2027,100.251 C87.0297,100.183 85.8507,100.201 84.6757,100.255 C84.3107,100.272 83.9587,100.522 83.5927,100.639 C83.1277,100.787 82.6257,101.067 82.1947,100.987 C81.8827,100.929 81.6607,100.38 81.3987,100.05 C81.6757,99.834 81.9507,99.434 82.2317,99.432 C85.5827,99.398 88.9357,99.417 92.2867,99.444 C92.5547,99.446 92.8167,99.62 93.0867,99.693 C93.7387,99.87 94.4027,100.007 95.0447,100.214 C95.4317,100.34 95.7837,100.568 96.1517,100.75 C95.8317,100.972 95.5197,101.367 95.1897,101.383 C94.0187,101.44 92.8417,101.348 91.6667,101.355 C91.2787,101.357 90.8867,101.471 90.5057,101.569 C89.8897,101.729 89.2807,101.919 88.5877,102.12" id="Fill-11" fill="#231916"></path>
                <path d="M31.1365,108.143 C31.0805,107.978 31.0255,107.814 30.9705,107.65 C30.3075,107.879 29.6455,108.108 28.9835,108.337 C29.0295,108.48 29.0755,108.623 29.1215,108.766 C29.9285,109.03 30.5945,108.804 31.1365,108.143 M14.2175,109.85 C14.6655,109.789 15.1165,109.745 15.5615,109.664 C16.4465,109.503 17.3255,109.318 18.2095,109.152 C18.4855,109.1 18.7665,109.054 19.0455,109.046 C21.2175,108.985 23.3895,108.939 25.5615,108.872 C25.8275,108.864 26.0925,108.761 26.3225,108.71 C26.3525,108.547 26.3965,108.464 26.3715,108.413 C25.7625,107.157 25.9185,106.899 27.3705,106.939 C28.6165,106.974 29.8625,107.096 31.1095,107.132 C31.4715,107.143 32.0075,107.116 32.1725,106.892 C32.7355,106.126 33.4855,106.144 34.2805,106.144 C37.9525,106.144 41.6255,106.131 45.2995,106.128 C45.6175,106.128 46.0025,106.067 46.2405,106.218 C46.5925,106.441 46.8395,106.829 47.1315,107.146 C46.7905,107.326 46.4525,107.654 46.1095,107.661 C44.3635,107.694 42.6155,107.623 40.8675,107.635 C40.3505,107.639 39.8335,107.792 39.3185,107.88 C39.1475,107.909 38.9755,107.986 38.8085,107.975 C37.3165,107.875 35.8275,107.729 34.3345,107.663 C33.4835,107.624 32.6425,107.652 32.8815,108.98 C32.9245,109.217 32.2965,109.74 31.9015,109.849 C31.4145,109.982 30.7975,109.947 30.3235,109.763 C28.1995,108.94 26.0375,109.534 23.8965,109.513 C23.6715,109.51 23.4445,109.836 23.2175,110.009 C23.4925,110.191 23.7645,110.523 24.0425,110.528 C25.3935,110.553 26.7445,110.493 28.0955,110.456 C28.2735,110.451 28.4695,110.351 28.6215,110.4 C28.9245,110.5 29.2035,110.673 29.4915,110.816 C29.2145,111.026 28.9545,111.388 28.6575,111.423 C26.0385,111.729 23.4135,111.98 20.7905,112.241 C20.5445,112.266 20.2815,112.299 20.0505,112.235 C19.8785,112.189 19.7485,111.993 19.5995,111.863 C19.7635,111.711 19.9045,111.515 20.0955,111.416 C20.4795,111.219 20.8915,111.074 21.2915,110.908 C20.7895,110.785 20.2885,110.566 19.7845,110.558 C18.2875,110.534 16.7905,110.619 15.2935,110.604 C14.9245,110.6 14.5585,110.377 14.1915,110.255 C14.1995,110.12 14.2085,109.984 14.2175,109.85" id="Fill-13" fill="#231916"></path>
                <path d="M78.782,121.4203 C79.116,121.5193 79.449,121.6993 79.783,121.7023 C81.28,121.7153 82.778,121.6543 84.275,121.6673 C85.163,121.6743 86.059,121.7073 86.933,121.8473 C87.583,121.9513 87.602,122.4993 87.224,122.8883 C86.995,123.1243 86.533,123.2133 86.17,123.2273 C85.28,123.2593 84.387,123.2143 83.496,123.1933 C82.34,123.1673 81.252,123.1683 80.088,122.6603 C79.021,122.1953 77.636,122.4743 76.393,122.3963 C75.62,122.3483 74.849,122.2483 74.077,122.1703 C73.831,122.1443 73.583,122.0783 73.34,122.0933 C70.968,122.2413 68.595,122.4003 66.224,122.5653 C65.944,122.5843 65.663,122.6353 65.39,122.7073 C64.317,122.9913 63.257,123.3363 62.168,123.5353 C61.979,123.5703 61.45,122.9713 61.488,122.7293 C61.547,122.3473 61.905,121.7873 62.225,121.7183 C62.941,121.5653 63.713,121.6823 64.462,121.6623 C66.145,121.6183 67.786,121.8013 69.483,121.0973 C70.682,120.6003 72.223,120.9143 73.612,120.8923 C74.467,120.8783 75.323,120.9123 76.178,120.9293 C77.011,120.9463 77.72,120.8483 77.999,119.8383 C78.064,119.6003 78.67,119.3863 79.034,119.3753 C80.779,119.3223 82.535,119.2323 84.27,119.3683 C86.089,119.5103 87.961,119.6743 89.674,120.2413 C91.116,120.7183 92.511,120.8233 93.968,120.8363 C94.319,120.8383 94.71,120.8253 95.01,120.9703 C95.253,121.0883 95.529,121.4333 95.5280027,121.6763 C95.526,121.9023 95.183,122.3143 94.981,122.3193 C94.192,122.3413 93.248,122.4873 92.64,122.1223 C91.524,121.4503 90.437,121.6043 89.374,121.8713 C88.704,122.0403 88.383,122.1013 88.008,121.4333 C87.815,121.0913 87.25,120.7753 86.845,120.7663 C84.529,120.7143 82.211,120.7463 79.894,120.7823 C79.52,120.7883 79.149,120.9613 78.777,121.0563 C78.779,121.1773 78.78,121.2993 78.782,121.4203" id="Fill-15" fill="#231916"></path>
                <path d="M4.6131,101.3232 C4.9061,101.2092 5.2031,100.9892 5.4911,100.9992 C6.6321,101.0402 7.8401,100.6712 8.8421,101.6532 C9.1191,101.9242 9.7241,101.9352 10.1721,101.9132 C10.3351,101.9052 10.6501,101.4072 10.5961,101.2142 C10.4031,100.5092 10.6931,100.2392 11.3201,100.2762 C12.6191,100.3542 13.7901,100.1682 15.0161,99.5742 C15.8261,99.1832 16.9751,99.5152 17.9701,99.4782 C19.3031,99.4272 20.6631,99.6792 21.9201,98.8762 C22.3091,98.6272 22.9611,98.7712 23.4921,98.7642 C24.7411,98.7482 25.9961,98.6742 27.2391,98.7622 C28.8211,98.8752 30.3901,99.2552 31.9691,99.2892 C35.5681,99.3662 39.1701,99.2962 42.7691,99.3122 C43.0411,99.3142 43.3111,99.5282 43.5831,99.6432 C43.4731,99.8882 43.4311,100.2462 43.2431,100.3572 C42.7451,100.6522 42.1901,101.0192 41.6461,101.0402 C39.0811,101.1392 36.5121,101.1352 33.9451,101.1562 C33.6671,101.1582 33.2751,101.1852 33.1271,101.0242 C31.9961,99.7982 30.5181,100.2872 29.1911,100.2402 C26.7671,100.1532 24.3371,100.1942 21.9121,100.2652 C21.2351,100.2852 20.5661,100.5972 19.8951,100.7812 C19.5571,100.8732 19.2141,101.0862 18.8881,101.0582 C18.0821,100.9902 17.4601,101.2342 16.7171,101.5872 C15.8941,101.9782 14.7711,101.6982 13.7901,101.8062 C13.0851,101.8842 12.4041,102.1632 11.7001,102.2732 C10.9071,102.3962 10.0881,102.5552 9.3001,102.4792 C7.7321,102.3262 6.1781,102.0232 4.6191,101.7822 C4.6171,101.6292 4.6151,101.4762 4.6131,101.3232" id="Fill-17" fill="#231916"></path>
                <path d="M28.6267,85.4701 C28.6027,85.3521 28.6097,85.1871 28.5577,85.1651 C27.6427,84.7801 26.7187,84.1101 25.7987,84.1121 C24.3277,84.1151 23.2727,83.2941 22.0417,82.8221 C21.6897,82.6861 21.3217,82.5181 20.9577,82.5081 C19.1407,82.4561 17.3137,82.3401 15.5047,82.4631 C13.7187,82.5831 11.8787,82.7501 10.1977,83.3051 C9.1627,83.6471 8.2637,84.0981 7.1587,83.8051 C6.9717,83.7551 6.7207,83.8171 6.5367,83.9061 C5.5737,84.3661 4.6377,84.8851 3.6597,85.3101 C3.3537,85.4431 2.9007,85.4531 2.6047,85.3211 C2.4257,85.2411 2.2627,84.6741 2.3707,84.5081 C2.5527,84.2291 2.9717,83.9131 3.2637,83.9361 C4.2167,84.0141 4.9897,83.8181 5.7097,83.1451 C5.9567,82.9141 6.5127,82.9151 6.9087,82.9621 C8.0467,83.0961 9.3857,82.3351 9.9847,81.3911 C10.2537,80.9671 10.9097,80.5851 11.4157,80.5501 C13.4387,80.4081 15.4757,80.3231 17.5007,80.3961 C18.4577,80.4301 19.3967,80.8831 20.3497,81.1211 C21.1947,81.3331 22.0547,81.4931 22.8977,81.7151 C23.1197,81.7731 23.3117,81.9641 23.5077,82.1081 C23.7347,82.2761 23.9287,82.5591 24.1777,82.6171 C25.9977,83.0441 27.6157,84.2551 29.6157,84.0001 C30.3987,83.9001 31.0637,84.1191 31.6017,84.7931 C31.7687,85.0021 32.3017,84.9781 32.6607,84.9551 C33.0027,84.9341 33.3647,84.6431 33.6657,84.7091 C34.0487,84.7941 34.3787,85.1191 34.7307,85.3401 C34.4337,85.6381 34.1527,86.1711 33.8347,86.1951 C32.4877,86.2981 31.1277,86.2121 29.7757,86.2771 C29.2537,86.3031 28.7407,86.5431 28.2257,86.6931 C27.8267,86.8101 27.4387,87.0031 27.0317,87.0471 C26.3287,87.1251 25.6137,87.1551 24.9067,87.1191 C24.6527,87.1071 24.4117,86.8491 24.1647,86.7031 C24.4197,86.5281 24.7357,86.1571 24.9197,86.2141 C25.6307,86.4331 26.1107,86.1051 26.7027,85.8161 C27.2577,85.5441 27.9617,85.5761 28.6267,85.4701" id="Fill-19" fill="#231916"></path>
                <path d="M102.3465,69.8139 C99.2435,70.8719 95.9785,70.7789 92.7185,70.7489 C92.1685,70.7439 91.6015,70.5599 91.7895,69.9209 C91.8795,69.6179 92.5005,69.2859 92.8825,69.2839 C95.1275,69.2739 97.3715,69.3709 99.6175,69.3919 C99.8745,69.3939 100.1355,69.1479 100.3945,69.0179 C100.1465,68.8149 99.9035,68.4459 99.6505,68.4389 C98.3395,68.4029 97.0275,68.4559 95.7155,68.4839 C94.9335,68.5019 94.1495,68.5649 93.3685,68.5329 C93.1585,68.5249 92.9575,68.2439 92.7535,68.0879 C92.9585,67.9419 93.1575,67.6869 93.3705,67.6719 C94.0445,67.6259 94.7245,67.6739 95.4025,67.6809 C95.6855,67.6839 96.0555,67.7859 96.2355,67.6469 C96.8805,67.1479 97.4505,67.0459 98.1195,67.6059 C98.2395,67.7059 98.7225,67.5799 98.8315,67.4179 C98.9305,67.2739 98.8245,66.7989 98.6695,66.7109 C98.1665,66.4219 97.6105,66.0899 97.0555,66.0519 C95.8565,65.9709 94.6435,66.0429 93.4385,66.0969 C93.1845,66.1079 92.8435,66.2409 92.7045,66.4349 C92.0685,67.3159 91.1975,67.0909 90.3625,66.9809 C90.1595,66.9539 89.8445,66.7179 89.8335,66.5609 C89.8175,66.3299 89.9665,65.9659 90.1555,65.8669 C90.5525,65.6559 91.0195,65.4759 91.4615,65.4669 C93.4925,65.4279 95.5245,65.4739 97.5555,65.4399 C98.1025,65.4309 98.7075,65.3619 99.1805,65.1159 C100.0905,64.6419 100.7685,64.8339 101.5105,65.4609 C101.9105,65.7999 102.4825,66.0479 102.9985,66.0959 C103.2875,66.1229 103.6475,65.6819 103.9295,65.4049 C104.3035,65.0379 104.6295,64.3069 104.9835,64.3029 C105.5935,64.2959 106.2135,64.7179 106.8155,64.9909 C106.9025,65.0299 106.9865,65.3199 106.9435,65.3629 C106.2335,66.0669 106.4645,67.0629 106.1295,67.8619 C105.9105,68.3829 105.2845,68.8589 104.7365,68.3559 C103.8595,67.5509 103.2785,68.4179 102.6305,68.6379 C102.4145,68.7109 102.4245,69.4519 102.3465,69.8139" id="Fill-21" fill="#231916"></path>
                <path d="M70.7049,111.85 C69.6659,112.134 68.6379,112.47 67.5839,112.678 C67.1069,112.772 66.5759,112.639 66.0779,112.557 C65.4789,112.459 64.8939,112.22 64.2979,112.193 C62.6269,112.12 60.8999,112.368 59.2969,112.02 C58.0939,111.759 56.9479,111.309 55.6849,111.418 C55.5849,111.427 55.4449,111.403 55.3809,111.338 C54.2049,110.155 52.7249,110.587 51.3349,110.577 C49.6579,110.565 47.9809,110.605 46.3059,110.578 C45.9399,110.572 45.4649,110.485 45.2359,110.246 C44.6059,109.589 43.9879,109.691 43.3049,110.066 C43.1799,110.134 42.9869,110.3 42.9449,110.267 C41.6709,109.279 40.0589,111.505 38.8359,109.846 C38.7639,109.747 38.1879,109.837 38.0419,110.007 C37.3739,110.78 36.4889,110.692 35.6589,110.613 C35.3529,110.584 35.0909,110.111 34.8079,109.84 C35.0699,109.597 35.3179,109.161 35.5959,109.142 C36.9619,109.044 38.3359,109.056 39.7069,109.033 C40.2059,109.024 40.7039,109.021 41.2029,109.024 C44.3709,109.04 47.5879,108.73 50.6879,109.193 C52.6999,109.493 54.8389,109.282 56.8149,110.301 C57.7919,110.805 59.1959,110.437 60.3949,110.565 C61.1079,110.641 61.7919,110.972 62.5039,111.078 C63.0469,111.158 63.6249,111.12 64.1709,111.034 C64.7129,110.947 65.2299,110.617 65.7669,110.598 C67.5489,110.535 69.3339,110.562 71.1189,110.558 C71.3679,110.558 71.6869,110.483 71.8519,110.606 C72.3269,110.96 72.7399,111.398 73.1769,111.803 C72.6959,111.923 72.2219,112.079 71.7339,112.149 C71.4239,112.195 71.0959,112.113 70.7749,112.089 L70.7049,111.85 Z" id="Fill-23" fill="#231916"></path>
                <path d="M81.5623,109.0951 C80.9643,109.0951 80.6353,109.1421 80.3253,109.0881 C77.6023,108.6111 74.8633,108.7991 72.1273,108.8701 C71.4953,108.8871 71.0873,108.6751 70.5793,108.2131 C69.9263,107.6201 68.9563,107.1941 68.0743,107.0801 C66.6723,106.9001 65.2303,107.0331 63.8053,107.0441 C63.4883,107.0461 63.1363,107.0111 62.8593,107.1291 C60.0873,108.3081 57.1553,107.5071 54.3163,107.8351 C54.1163,107.8581 53.8813,107.5821 53.6633,107.4461 C53.8603,107.2781 54.0853,106.9401 54.2513,106.9671 C56.4643,107.3241 58.4863,106.1861 60.6253,106.1591 C65.6863,106.0951 70.7493,106.1231 75.8093,106.1681 C76.3093,106.1721 76.8013,106.5631 77.3043,106.7571 C77.6813,106.9021 78.0703,107.1331 78.4513,107.1281 C79.9103,107.1101 81.3693,106.9601 82.8273,106.9741 C83.2613,106.9781 83.9353,107.2541 84.0763,107.5851 C84.3653,108.2641 83.8063,108.7431 83.1863,108.9091 C82.5783,109.0721 81.9233,109.0581 81.5623,109.0951" id="Fill-25" fill="#231916"></path>
                <path d="M39.0652,59.5155 C38.6002,60.0035 38.1712,60.5335 37.6632,60.9715 C36.8582,61.6635 36.8122,62.5885 37.0732,63.4245 C37.3552,64.3245 38.3002,64.2865 39.0732,64.2035 C39.7222,64.1345 40.5232,63.8665 40.7242,64.6385 C40.8632,65.1695 40.5722,65.9415 40.2292,66.4365 C39.7292,67.1565 39.0502,67.7765 38.3592,68.3275 C38.1222,68.5165 37.6172,68.3705 37.2342,68.3785 C37.3362,68.0785 37.3992,67.7555 37.5532,67.4845 C37.6702,67.2785 37.9492,67.1665 38.0762,66.9625 C38.3822,66.4685 38.2512,66.0715 37.6342,66.1405 C36.6642,66.2485 35.7082,66.4865 34.7422,66.6445 C34.2922,66.7185 33.8232,66.6925 33.3802,66.7915 C33.1522,66.8435 32.9622,67.0685 32.7552,67.2155 C32.9702,67.3545 33.1692,67.5605 33.4042,67.6175 C33.8292,67.7185 34.2752,67.7295 34.7122,67.7785 C34.7042,67.8765 34.6942,67.9735 34.6852,68.0715 C34.1082,68.4505 33.5662,68.9195 32.9372,69.1645 C32.6862,69.2625 32.0432,68.9525 31.9212,68.6765 C31.4152,67.5205 30.8632,67.3105 29.8512,68.0515 C28.6542,68.9275 26.4852,68.7295 25.8492,67.8065 C27.4712,67.2385 29.1452,66.6905 30.7832,66.0515 C31.1612,65.9035 31.4492,65.4685 31.7232,65.1215 C32.0932,64.6545 32.4052,64.1395 32.7552,63.6555 C32.8582,63.5135 33.1132,63.4135 33.1222,63.2835 C33.2162,61.8215 34.6542,61.7345 35.4692,61.0565 C36.3502,60.3245 37.4762,59.8845 38.5032,59.3305 C38.6072,59.2745 38.7612,59.3115 38.8922,59.3055 C38.9502,59.3745 39.0072,59.4455 39.0652,59.5155" id="Fill-27" fill="#231916"></path>
                <path d="M63.3894,119.9662 C62.1074,120.2282 60.8274,120.5042 59.5404,120.7372 C59.3694,120.7692 59.1074,120.6422 58.9774,120.5032 C58.2324,119.7092 57.4594,120.0382 56.6304,120.3432 C55.9204,120.6042 55.1674,120.8592 54.4234,120.8952 C52.6094,120.9832 50.7854,121.0002 48.9714,120.9212 C48.3184,120.8922 47.6394,120.5862 47.0474,120.2652 C46.2494,119.8342 45.5074,119.6572 44.8264,120.3612 C44.3234,120.8802 43.9444,120.9272 43.3884,120.4162 C43.1304,120.1792 42.6474,120.1702 42.2584,120.1012 C42.0934,120.0722 41.9064,120.1952 41.7354,120.1792 C41.3244,120.1402 40.9124,120.0742 40.5124,119.9762 C40.4684,119.9662 40.4684,119.5362 40.4914,119.5322 C40.8934,119.4572 41.3024,119.3832 41.7094,119.3782 C42.6234,119.3692 43.5384,119.4282 44.4514,119.3992 C44.8474,119.3872 45.2424,119.2402 45.6244,119.1152 C45.6604,119.1042 45.6614,118.7162 45.5774,118.6602 C45.2034,118.4152 44.6794,117.9532 44.4124,118.0632 C42.7644,118.7392 41.1544,117.6442 39.5284,118.0522 C39.2704,118.1172 38.9414,117.8602 38.6364,117.7842 C38.0774,117.6432 37.5104,117.5272 36.9484,117.4002 C36.5444,117.3082 36.1424,117.2142 35.5794,117.0832 C35.8454,116.7532 35.9234,116.5622 36.0144,116.5562 C37.4734,116.4652 38.9644,116.0302 40.3304,116.9902 C40.6014,117.1812 40.9844,117.3032 41.3144,117.3022 C42.6284,117.2992 43.9544,117.1052 45.2524,117.2322 C46.3424,117.3392 47.4014,117.7862 48.4684,118.0982 C48.7384,118.1772 48.9844,118.3342 49.2524,118.4172 C49.9284,118.6272 50.6104,118.8152 51.4474,119.0582 C51.7204,118.1112 52.4874,117.9002 53.5134,118.3712 C53.6204,118.4212 53.8154,118.3842 53.9234,118.3162 C54.8084,117.7602 55.3434,118.0502 55.7894,118.9342 C55.9104,119.1742 56.4324,119.3232 56.7704,119.3222 C58.7254,119.3202 60.6804,119.2492 62.6354,119.2352 C62.9014,119.2332 63.1674,119.4222 63.4334,119.5232 C63.4184,119.6712 63.4044,119.8182 63.3894,119.9662" id="Fill-29" fill="#231916"></path>
                <path d="M34.7215,94.0404 C33.8705,94.3694 33.0305,94.9434 32.1655,94.9804 C29.7295,95.0874 27.2815,95.0084 24.8415,94.9034 C24.5455,94.8904 24.2755,94.2724 23.9925,93.9354 C24.3885,93.7894 24.7755,93.5634 25.1815,93.5154 C26.0945,93.4054 26.9735,93.3674 27.7985,94.0454 C28.1185,94.3084 28.8145,94.1284 29.3385,94.1264 C30.1225,94.1234 30.9095,94.1294 31.6895,94.0604 C31.8885,94.0424 32.0635,93.7554 32.2485,93.5924 C32.0285,93.4644 31.8195,93.2754 31.5815,93.2264 C31.3955,93.1864 31.1755,93.3374 30.9655,93.3714 C30.5805,93.4334 30.0385,93.6584 29.8275,93.4884 C28.3575,92.2974 26.3795,93.2074 24.8825,92.2284 C24.7965,92.1714 24.6835,92.1454 24.5785,92.1284 C21.4865,91.6284 18.3975,91.1974 15.2395,91.4324 C13.3355,91.5744 11.5395,91.9314 9.8285,92.8044 C9.5505,92.9464 9.0025,92.5594 8.5785,92.4164 C8.7975,92.1114 8.9825,91.7714 9.2475,91.5154 C9.3735,91.3934 9.6655,91.3684 9.8625,91.4054 C10.7505,91.5734 11.4265,91.2654 12.2195,90.8264 C12.8675,90.4684 13.8675,90.7594 14.7115,90.7384 C15.0885,90.7284 15.5305,90.7734 15.8305,90.6004 C17.6445,89.5544 19.4305,89.6634 21.2645,90.5344 C21.6215,90.7044 22.0925,90.7184 22.5005,90.6834 C23.5825,90.5894 24.5695,90.6854 25.6085,91.1574 C26.4485,91.5394 27.5015,91.4254 28.4475,91.6024 C29.2345,91.7484 30.0845,91.8514 30.7615,92.2314 C32.4825,93.1964 34.3105,92.7164 36.0935,92.8514 C36.5925,92.8894 37.5115,93.1204 37.5055292,93.2154 C37.4485,94.0834 36.7785,94.3324 36.0055,94.3634 C35.6145,94.3794 35.2215,94.3664 34.8295,94.3664 C34.7935,94.2574 34.7575,94.1484 34.7215,94.0404" id="Fill-31" fill="#231916"></path>
                <path d="M88.5779,114.7777 C88.0439,114.8337 87.5079,114.9567 86.9769,114.9317 C85.2709,114.8547 83.5689,114.6967 81.8629,114.6337 C81.5489,114.6217 81.2239,114.9107 80.9049,115.0607 C81.2289,115.2637 81.5539,115.6387 81.8769,115.6377 C82.9619,115.6317 83.9209,115.8337 84.9399,116.3007 C85.7459,116.6697 86.8309,116.3857 87.7789,116.4997 C88.4929,116.5867 89.1829,116.8507 89.8889,117.0227 C90.2899,117.1207 90.6979,117.2617 91.1039,117.2627 C93.1369,117.2687 95.1699,117.2117 97.2019,117.2357 C97.5159,117.2387 97.8249,117.5477 98.1359,117.7147 C97.8279,117.8787 97.5289,118.0647 97.2089,118.2027 C95.7929,118.8147 94.4249,118.7567 92.9529,118.2067 C92.1749,117.9157 91.1819,118.2557 90.3059,118.1517 C89.4499,118.0507 88.6219,117.7357 87.7759,117.5377 C87.4359,117.4587 87.0819,117.4157 86.7319,117.4027 C85.2719,117.3527 83.8109,117.3377 82.3519,117.2667 C82.0529,117.2527 81.7659,117.0457 81.4659,116.9527 C80.9409,116.7907 80.4159,116.6327 79.8829,116.5067 C79.6089,116.4417 79.2639,116.5407 79.0459,116.4077 C77.1899,115.2747 75.1519,115.9007 73.1969,115.7457 C72.4999,115.6907 71.8139,115.5127 71.1189,115.4267 C70.8279,115.3907 70.4899,115.3667 70.2329,115.4757 C68.7819,116.0947 66.6099,115.7357 65.4839,114.6427 C65.4449,114.6047 65.4639,114.5087 65.4379,114.3087 C65.6829,114.2597 65.9359,114.1687 66.1899,114.1657 C67.6499,114.1497 69.1109,114.1527 70.5709,114.1547 C70.8189,114.1547 71.1169,114.0987 71.3069,114.2117 C73.3009,115.3997 75.4809,114.8437 77.5739,114.8217 C78.8859,114.8087 80.1829,114.2137 81.5049,114.1227 C83.5599,113.9807 85.6319,114.0317 87.6959,114.0347 C88.0019,114.0347 88.3069,114.2167 88.6139,114.3157 C88.6009,114.4697 88.5899,114.6237 88.5779,114.7777" id="Fill-33" fill="#231916"></path>
                <path d="M62.8592,117.1098 C62.4842,117.2198 62.1082,117.4218 61.7322,117.4238 C60.0922,117.4318 58.4522,117.3888 56.8122,117.3438 C56.5352,117.3358 56.1852,117.3098 55.9982,117.1448 C55.4112,116.6288 54.9252,116.5568 54.3472,117.1698 C54.2282,117.2958 53.7852,117.1578 53.5072,117.0828 C52.9132,116.9228 52.3382,116.6138 51.7372,116.5598 C50.0622,116.4088 48.3232,116.8448 46.7512,115.8208 C46.4162,115.6018 45.8452,115.6848 45.3902,115.7208 C44.6212,115.7808 43.9002,115.8238 43.3602,115.1018 C43.2382,114.9378 42.9262,114.8358 42.7052,114.8388 C41.3902,114.8618 40.0722,115.0078 38.7642,114.9398 C37.9962,114.8998 37.2452,114.5408 36.4872,114.3228 C36.2552,114.2558 36.0242,114.1208 35.7942,114.1218 C32.3092,114.1368 28.8242,114.1648 25.3392,114.2008 C24.5922,114.2088 23.8442,114.2968 23.0972,114.2838 C22.7132,114.2778 22.3322,114.1308 21.9502,114.0478 C21.9582,113.8998 21.9652,113.7518 21.9742,113.6038 C22.6712,113.5718 23.3742,113.5758 24.0662,113.4988 C24.6442,113.4338 25.2162,113.2868 25.7842,113.1488 C26.0572,113.0828 26.3222,112.8488 26.5782,112.8678 C28.2802,112.9958 30.0482,112.2518 31.6952,113.2968 C32.0132,113.4988 32.5232,113.4288 32.9452,113.4308 C34.7622,113.4368 36.5792,113.4218 38.3962,113.4168 C38.4662,113.4168 38.5542,113.4048 38.6062,113.4408 C40.3482,114.6338 42.3692,113.7808 44.2142,114.2048 C45.2392,114.4408 46.2652,114.6688 47.2912,114.9028 C50.1502,115.5568 53.0382,115.8908 55.9752,115.7068 C56.1802,115.6938 56.4412,115.7138 56.5922,115.8288 C57.9622,116.8718 59.5232,116.4348 61.0292,116.4538 C61.6262,116.4618 62.2222,116.5298 62.8192,116.5698 C62.8332,116.7498 62.8462,116.9298 62.8592,117.1098" id="Fill-35" fill="#231916"></path>
                <path d="M27.1267,66.7953 C26.8177,66.5993 26.5177,66.4583 26.2787,66.2473 C25.6107,65.6583 24.9457,65.0633 24.3297,64.4223 C24.1197,64.2053 24.0587,63.8443 23.9287,63.5493 C24.2827,63.5093 24.6397,63.4343 24.9907,63.4473 C25.1327,63.4533 25.2737,63.6473 25.4027,63.7683 C26.3557,64.6673 27.3027,64.5933 28.2327,63.6773 C28.7517,63.1673 29.4077,62.7923 30.0257,62.3923 C30.7417,61.9303 31.5347,61.5723 32.2047,61.0533 C33.6057,59.9663 34.8587,58.6673 36.3397,57.7153 C37.5337,56.9483 37.5607,55.5333 38.4847,54.6773 C38.5607,54.6073 38.5617,54.3873 38.5167,54.2683 C38.1577,53.3233 37.7367,52.3993 37.4237,51.4413 C37.2087,50.7843 37.1037,50.0863 37.0187,49.3973 C36.9947,49.2073 37.1817,48.8603 37.3387,48.8133 C37.5127,48.7623 37.8727,48.9163 37.9597,49.0823 C38.2017,49.5413 38.3187,50.0643 38.5367,50.5373 C38.6497,50.7853 38.8697,50.9833 39.0417,51.2033 C39.1767,50.9453 39.4297,50.6843 39.4257,50.4283 C39.4077,49.3953 39.2427,48.3613 39.2787,47.3333 C39.2927,46.9603 39.6557,46.3613 39.9647,46.2833 C40.6367,46.1143 40.9267,46.6573 40.8477,47.2743 C40.7127,48.3173 40.4307,49.3473 40.3487,50.3933 C40.2077,52.1983 40.1667,54.0113 40.1017,55.8213 C40.0897,56.1393 40.2157,56.4663 40.1797,56.7783 C40.1347,57.1693 39.9877,57.5483 39.8847,57.9323 C39.6587,57.6813 39.3867,57.4593 39.2177,57.1753 C38.8567,56.5723 37.9827,56.3823 37.7647,57.0013 C37.1477,58.7453 35.6097,59.4553 34.3437,60.4873 C32.9837,61.5943 31.6537,62.7383 30.2767,63.8223 C29.9887,64.0483 29.5607,64.1363 29.1817,64.1973 C27.8647,64.4083 27.3297,65.0083 27.3057,66.3593 C27.3037,66.4563 27.2307,66.5503 27.1267,66.7953" id="Fill-37" fill="#231916"></path>
                <path d="M33.3035,102.2523 C33.8095,102.2523 34.2845,102.2453 34.7595,102.2533 C36.5765,102.2873 38.3985,102.4023 40.2125,102.3353 C41.4705,102.2903 42.7255,102.0293 43.9705,101.8013 C44.7915,101.6503 45.4045,101.6763 45.7765,102.6073 C46.1585,103.5693 47.1115,103.7213 48.0105,103.7683 C49.0775,103.8233 50.2425,104.0603 51.2015,103.7353 C53.7825,102.8613 56.2725,104.0823 58.8375,103.7873 C61.4075,103.4923 64.0375,103.7103 66.6415,103.7033 C66.7125,103.7033 66.7935,103.6803 66.8545,103.7063 C67.1845,103.8493 67.5095,104.0043 67.8365,104.1563 C67.4995,104.3263 67.1625,104.6423 66.8245,104.6443 C62.9005,104.6673 58.9765,104.6313 55.0535,104.6333 C52.4865,104.6353 49.9195,104.6823 47.3535,104.6823 C46.9355,104.6823 46.4365,104.6643 46.1155,104.4473 C44.9585,103.6693 43.7135,103.8223 42.4345,103.8473 C40.8015,103.8783 39.1655,103.7323 37.5305,103.6873 C36.7105,103.6653 35.8845,103.6393 35.0715,103.7153 C33.7995,103.8353 33.6335,103.7443 33.3035,102.2523" id="Fill-39" fill="#231916"></path>
                <path d="M35.8777,119.2328 C35.5077,119.3358 35.1387,119.5288 34.7697,119.527804 C31.8147,119.5158 28.8557,119.5338 25.9037,119.3958 C24.8047,119.3448 23.7207,118.9128 22.6327,118.6408 C20.8737,118.2008 19.1157,117.7548 17.3617,117.2978 C17.0247,117.2108 16.7027,117.0688 16.3797,116.9378 C16.2827,116.8998 16.2147,116.7768 16.1197,116.7548 C14.6047,116.4098 13.0857,116.0798 11.5687,115.7358 C10.8687,115.5768 10.1787,115.3578 9.4717,115.2398 C9.1227,115.1808 8.6417,115.1548 8.4027,115.3448 C7.8557,115.7798 7.4007,115.9228 6.7657,115.5268 C6.5337,115.3828 6.1367,115.4618 5.8247,115.5078 C5.5887,115.5428 5.3717,115.7578 5.1417,115.7668 C4.5247,115.7908 3.7887,115.7628 3.77669076,114.9748 C3.7737,114.7208 4.5017,114.2538 4.9147,114.2308 C6.6207,114.1318 8.3407,114.0738 10.0427,114.1858 C11.0727,114.2538 12.0697,114.8048 13.1017,114.8828 C14.9577,115.0238 16.6707,115.5178 18.3117,116.3668 C18.5997,116.5158 19.0017,116.4408 19.3517,116.4728 C19.7007,116.5048 20.1737,116.4108 20.3797,116.6018 C21.2137,117.3768 22.2047,117.2768 23.1957,117.2718 C24.3607,117.2658 25.5177,117.1698 26.5967,117.8598 C26.9617,118.0928 27.5697,117.9188 28.0567,117.9938 C29.0187,118.1428 29.9657,118.4068 30.9317,118.4938 C32.0857,118.5968 33.2527,118.5478 34.4137,118.5978 C34.8977,118.6188 35.3777,118.7268 35.8587,118.7948 C35.8647,118.9408 35.8707,119.0868 35.8777,119.2328" id="Fill-41" fill="#231916"></path>
                <path d="M38.2127,126.8554 C36.8777,126.8744 35.5887,126.7444 34.2867,127.4904 C33.5607,127.9074 32.4027,127.6384 31.4467,127.5714 C30.5937,127.5114 29.7527,127.2894 28.9007,127.1724 C28.6787,127.1424 28.4387,127.2474 28.2047,127.2794 C27.9737,127.3124 27.7297,127.3864 27.5097,127.3454 C26.7357,127.2024 25.9737,127.0094 25.2027,126.8534 C24.9607,126.8034 24.6547,126.8944 24.4667,126.7774 C22.2207,125.3924 19.7467,126.3314 17.3967,126.0514 C16.1417,125.9024 14.8877,125.7254 13.6497,125.4774 C13.3837,125.4244 12.9697,124.9594 13.0127,124.7754 C13.0837,124.4734 13.4307,124.1214 13.7377,124.0174 C14.1477,123.8784 14.7647,123.7674 15.0607,123.9744 C16.6047,125.0574 18.3167,124.4074 19.9407,124.5874 C20.4527,124.6454 20.9627,124.7414 21.4667,124.8514 C21.8097,124.9254 22.1347,125.1114 22.4787,125.1484 C23.9137,125.3084 25.3337,125.3274 26.7477,125.8794 C27.7527,126.2724 28.9937,126.1194 30.1297,126.1154 C32.6567,126.1064 35.1857,126.0404 37.7127,125.9934 C37.8537,125.9914 38.0447,125.9994 38.1237,125.9174 C39.2747,124.7264 40.7667,125.5114 42.0737,125.2394 C42.2527,125.2024 42.4837,125.4164 42.6917,125.5134 C42.5677,125.7094 42.4817,126.0324 42.3157,126.0804 C40.9827,126.4664 39.6357,126.8004 38.2917,127.1504 C38.2657,127.0524 38.2387,126.9544 38.2127,126.8554" id="Fill-43" fill="#231916"></path>
                <path d="M82.0144,53.2323 C82.2194,53.8873 82.5014,54.5303 82.6114,55.2013 C82.7754,56.2003 82.8684,57.2183 82.8884,58.2303 C82.8994,58.7453 82.9774,59.0253 83.3684,59.4593 C83.9314,60.0853 84.1754,61.0393 84.4214,61.8923 C84.5634,62.3833 84.3744,62.9603 84.4484,63.4823 C84.6144,64.6603 84.8844,65.8253 85.0394,67.0043 C85.0904,67.3993 84.9174,67.8213 84.8474,68.2323 C84.5724,67.9193 84.1654,67.6503 84.0444,67.2873 C83.6054,65.9653 82.7144,64.8083 82.8794,63.2473 C82.9534,62.5363 82.4914,61.6733 82.0564,61.0233 C81.1774,59.7063 81.5744,58.2743 81.4384,56.8853 C81.3754,56.2423 81.1134,55.6203 80.9404,54.9873 C80.8394,54.6183 80.5914,54.2173 80.6614,53.8843 C81.0374,52.1013 80.1394,51.0633 78.7324,50.2353 C78.4884,50.0913 78.3804,49.7163 78.2094,49.4483 C78.4994,49.3623 78.8044,49.1713 79.0774,49.2093 C80.3134,49.3753 82.3054,51.9363 82.0144,53.2323" id="Fill-45" fill="#231916"></path>
                <path d="M13.7508,72.3046 C13.7468,72.1966 13.7438,72.0896 13.7398,71.9816 C13.4628,71.8466 13.1568,71.5646 12.9158,71.6116 C12.6118,71.6706 12.3608,71.9986 12.0868,72.2106 C12.2948,72.4126 12.5228,72.7986 12.7078,72.7796 C13.0678,72.7416 13.4048,72.4756 13.7508,72.3046 M11.8088,71.5726 C11.3508,71.1986 10.9638,70.7996 10.9008,70.8446 C10.4938,71.1416 10.1068,71.5026 9.8378,71.9216 C9.7798,72.0126 10.2298,72.4286 10.4458,72.6946 C10.8438,72.3666 11.2418,72.0386 11.8088,71.5726 M15.5198,73.7426 C14.4188,73.7796 13.2338,73.3386 12.2748,74.3136 C12.1438,74.4476 11.6728,74.3336 11.3998,74.2266 C10.3268,73.8066 9.2648,73.3596 8.2148,72.8866 C7.9428,72.7636 7.6568,72.5526 7.5048,72.3046 C6.9268,71.3576 6.2058,71.1306 5.1528,71.5686 C4.0598,72.0226 2.9608,72.4796 1.8298,72.8246 C1.5648,72.9056 1.1638,72.5376 0.8258,72.3776 C1.0288,72.0496 1.1778,71.4946 1.4438,71.4306 C2.9078,71.0776 4.3958,70.7966 5.8888,70.5996 C6.3158,70.5436 6.8418,70.7716 7.2358,71.0126 C7.9888,71.4716 8.4888,71.3866 8.9558,70.5986 C9.0588,70.4256 9.1858,70.2226 9.3538,70.1396 C10.0648,69.7906 12.6688,70.2966 13.2588,70.8286 C13.4828,71.0316 13.7928,71.2596 14.0668,71.2626 C14.7378,71.2716 15.0978,71.4796 15.2748,72.1796 C15.3388,72.4306 15.8648,72.6476 16.2148,72.7226 C16.6958,72.8256 17.2168,72.7346 17.7048,72.8166 C17.9768,72.8616 18.2168,73.0896 18.4708,73.2346 C18.2008,73.4046 17.9418,73.6916 17.6578,73.7196 C16.9508,73.7906 16.2328,73.7426 15.5198,73.7426" id="Fill-47" fill="#231916"></path>
                <path d="M41.6453,89.0395 C43.3893,89.0395 45.1323,89.0175 46.8753,89.0575 C47.2493,89.0655 47.6193,89.3005 47.9903,89.4315 C47.7183,89.6565 47.4803,89.9575 47.1683,90.0925 C46.0733,90.5695 44.9683,91.0405 43.8333,91.4055 C43.3853,91.5495 42.8473,91.3925 42.3513,91.3985 C40.2873,91.4235 38.2223,91.4695 36.1583,91.4865 C35.0593,91.4965 33.9593,91.4895 32.8643,91.4295 C32.5973,91.4145 32.1783,91.2035 32.1263,91.0055 C32.0663,90.7725 32.2603,90.3615 32.4753,90.2035 C32.6703,90.0585 33.1443,90.0185 33.3153,90.1565 C34.6443,91.2245 36.2663,90.4645 37.6913,90.8935 C37.8213,90.9325 38.0503,90.6415 38.2343,90.5035 C38.0533,90.3275 37.8993,90.1035 37.6863,89.9845 C37.3053,89.7695 36.8893,89.6185 36.4883,89.4395 C36.9623,89.3075 37.4373,89.0645 37.9123,89.0635 C39.1563,89.0615 40.3993,89.1655 41.6433,89.2275 C41.6443,89.1645 41.6453,89.1025 41.6453,89.0395" id="Fill-49" fill="#231916"></path>
                <path d="M102.4441,107.1303 C101.3421,106.9433 100.2431,106.7333 99.1351,106.5833 C98.8471,106.5443 98.5341,106.7373 98.2301,106.7403 C97.3711,106.7493 96.5051,106.7673 95.6521,106.6803 C94.9241,106.6063 94.2151,106.2763 93.4931,106.2593 C90.8921,106.2003 88.2901,106.2513 85.6891,106.1953 C85.2571,106.1863 84.8051,105.8903 84.4231,105.6353 C84.3371,105.5783 84.4491,104.9433 84.5591,104.9143 C85.0781,104.7773 85.8271,104.5053 86.1321,104.7443 C87.0931,105.4983 88.1261,105.3483 89.1841,105.3483 C94.3181,105.3503 99.4521,105.3493 104.5841,105.4153 C105.0261,105.4213 105.7911,105.8683 105.8361,106.1903 C105.9451,106.9723 105.1761,106.9533 104.6141,106.9743 C103.9021,107.0013 103.1881,106.9813 102.4751,106.9813 C102.4651,107.0303 102.4551,107.0803 102.4441,107.1303" id="Fill-51" fill="#231916"></path>
                <path d="M89.573,110.5155 C91.927,110.5155 94.28,110.5145 96.634,110.5175 C96.81,110.5175 97.037,110.4845 97.155,110.5765 C99.06,112.0585 101.253,111.2415 103.325,111.3815 C103.875,111.4185 104.416,111.5995 104.961,111.7145 C104.678,112.6165 103.907,112.2765 103.348,112.2755 C100.605,112.2705 97.862,112.2125 95.12,112.1355 C94.753,112.1245 94.385,111.9155 94.029,111.7675 C92.752,111.2385 91.506,111.2555 90.216,111.7895 C89.806,111.9585 89.19,111.9645 88.802,111.7735 C87.95,111.3545 87.245,111.3145 86.4,111.8285 C85.994,112.0755 85.348,112.0345 84.83,111.9725 C84.001,111.8715 83.178,111.6755 82.37,111.4585 C82.048,111.3715 81.769,111.1225 81.47,110.9475 C81.783,110.7795 82.093,110.4705 82.408,110.4645 C84.795,110.4235 87.183,110.4425 89.572,110.4425 C89.572,110.4665 89.572,110.4915 89.573,110.5155" id="Fill-53" fill="#231916"></path>
                <path d="M59.2205,55.3524 C58.8875,56.4514 59.4165,57.3214 60.2785,58.1514 C61.4825,59.3124 62.7155,60.3924 64.4895,60.3864 C65.6045,60.3814 66.7775,60.5384 67.7635,59.7204 C67.9095,59.5984 68.3175,59.7904 68.6035,59.8374 C68.5335,60.1224 68.5545,60.4994 68.3755,60.6744 C67.6105,61.4254 66.8235,62.1354 65.5745,61.8634 C65.1145,61.7634 64.4895,61.7804 64.1195,62.0204 C63.2055,62.6194 62.4795,62.4654 61.5985,61.9384 C61.0855,61.6324 60.8365,61.3834 60.7005,60.7874 C60.5725,60.2184 60.2295,59.5644 59.7745,59.2274 C57.6485,57.6574 57.1485,56.0374 58.2415,53.6984 C58.3325,53.5054 58.5725,53.3824 58.7415,53.2274 C58.9015,53.4314 59.1625,53.6184 59.1995,53.8414 C59.2715,54.2934 59.2205,54.7644 59.2205,55.3524" id="Fill-55" fill="#231916"></path>
                <path d="M79.4666,129.2201 C76.3666,129.2201 73.2676,129.1931 70.1686,129.2381 C69.3586,129.2501 68.5536,129.5581 67.7416,129.5841 C67.4026,129.5951 66.7986,129.2711 66.7526,129.0191 C66.6396,128.4031 67.0956,128.2051 67.7106,128.2451 C69.0606,128.3331 70.4146,128.4051 71.7666,128.3941 C72.2266,128.3901 72.7476,128.2121 73.1266,127.9491 C73.7956,127.4831 74.3136,127.4781 74.9426,128.0221 C75.1566,128.2081 75.6406,128.1731 75.9776,128.1091 C76.4766,128.0141 76.9486,127.6851 77.4426,127.6651 C78.9726,127.6021 80.5066,127.6261 82.0386,127.6441 C82.4976,127.6491 83.0176,127.6261 83.4026,127.8241 C84.3546,128.3121 85.2766,128.6111 86.3586,128.2801 C86.5446,128.2231 86.8636,128.6051 87.1216,128.7841 C86.8506,128.9451 86.5816,129.2391 86.3076,129.2431 C84.0276,129.2801 81.7466,129.2641 79.4656,129.2641 C79.4656,129.2491 79.4656,129.2351 79.4666,129.2201" id="Fill-57" fill="#231916"></path>
                <path d="M29.1961,52.1757 C29.3681,51.9207 29.5931,51.7397 29.5731,51.5927 C29.4131,50.4277 30.1291,50.1477 31.0581,49.9347 C31.6711,49.7947 32.2181,49.3897 32.8281,49.2237 C33.0981,49.1507 33.4501,49.3747 33.7641,49.4637 C33.5811,49.6847 33.4221,49.9327 33.2101,50.1227 C32.7341,50.5487 32.1261,50.8667 31.7621,51.3677 C30.5351,53.0587 28.6091,53.8557 27.0851,55.1587 C26.0391,56.0527 24.9301,56.8727 23.8791,57.7597 C23.0231,58.4807 22.3451,58.5317 21.5011,57.7827 C23.2661,57.0617 23.7471,54.7187 25.9251,54.4927 C26.2101,54.4627 26.4421,53.7467 26.6631,53.3297 C26.9031,52.8767 27.0121,52.3227 27.3381,51.9517 C28.0501,51.1407 28.4031,51.1977 29.1961,52.1757" id="Fill-59" fill="#231916"></path>
                <path d="M52.8953,125.6532 C51.8823,125.3312 50.8873,124.9152 49.8503,124.7152 C48.9923,124.5492 48.0843,124.6352 47.1983,124.6132 C46.7043,124.6022 46.1433,124.7482 45.7303,124.5612 C44.9433,124.2062 44.2553,123.7162 43.4213,124.4632 C43.3213,124.5522 42.8943,124.3672 42.6773,124.2222 C41.8373,123.6572 41.0463,123.8822 40.1483,124.1412 C39.1623,124.4252 38.0943,124.4442 37.0573,124.5112 C36.9173,124.5202 36.5833,124.0212 36.6303,123.9492 C36.7983,123.6952 37.0863,123.3532 37.3393,123.3442 C39.9033,123.2552 42.4693,123.1782 45.0343,123.2062 C45.8073,123.2142 46.5703,123.5952 47.3503,123.7362 C47.6993,123.7992 48.0853,123.7272 48.4403,123.6492 C48.8193,123.5672 49.3763,123.1862 49.5183,123.3122 C50.5773,124.2632 51.8193,123.8602 52.9953,123.8972 C53.4913,123.9122 53.9923,123.8412 54.4893,123.7862 C55.1093,123.7192 55.5933,123.8712 55.6063,124.5842 C55.6193,125.3392 55.0733,125.3952 54.4873,125.3722 C53.9873,125.3532 53.4873,125.3682 52.9873,125.3682 C52.9573,125.4632 52.9253,125.5582 52.8953,125.6532" id="Fill-61" fill="#231916"></path>
                <path d="M11.074,95.6991 C10.699,95.7811 10.326,95.8701 9.949,95.9421 C9.342,96.0561 8.731,96.1491 8.126,96.2711 C7.615,96.3741 7.112,96.5201 6.601,96.6231 C6.157,96.7131 5.66,96.6731 5.265,96.8591 C4.476,97.2321 4.128,96.7671 3.826,96.2171 C3.462,95.5551 4.004,95.4211 4.444,95.1401 C5.478,94.4831 6.559,94.1981 7.781,94.3371 C8.114,94.3751 8.607,94.3241 8.794,94.1101 C10.124,92.5871 11.563,93.7641 12.956,93.8741 C13.511,93.9181 14.081,93.9051 14.615,94.0341 C14.931,94.1111 15.192,94.4161 15.478,94.6191 C15.201,94.7881 14.932,95.0861 14.647,95.1011 C13.725,95.1521 12.795,95.1311 11.873,95.0661 C11.597,95.0471 11.337,94.7971 11.072,94.6471 C10.793,94.4891 10.526,94.3061 10.233,94.1801 C10.195,94.1641 10.039,94.4231 9.937,94.5551 C10.207,94.7451 10.477,94.9341 10.746,95.1261 C10.831,95.1861 10.912,95.2501 10.995,95.3131 C11.021,95.4421 11.048,95.5701 11.074,95.6991" id="Fill-63" fill="#231916"></path>
                <path d="M104.8543,124.623 C104.7853,124.845 104.7743,125.013 104.7193,125.03 C103.5343,125.381 102.3523,125.962 101.1523,126.006 C97.5573,126.137 93.9553,126.055 90.3553,126.056 C90.1413,126.057 89.9043,126.11 89.7203,126.035 C89.4853,125.939 89.2933,125.738 89.0833,125.582 C89.3193,125.418 89.5343,125.162 89.7923,125.105 C94.5113,124.061 99.3203,124.918 104.0693,124.451 C104.3143,124.427 104.5743,124.558 104.8543,124.623" id="Fill-65" fill="#231916"></path>
                <path d="M27.823,59.4052 C28.061,59.7262 28.417,60.0232 28.49,60.3772 C28.529,60.5692 28.122,60.9652 27.843,61.0672 C27.666,61.1312 27.191,60.8752 27.129,60.6762 C26.783,59.5802 26.247,59.8652 25.654,60.4112 C25.235,60.7972 24.896,61.3172 24.414,61.5722 C24.082,61.7472 23.362,61.7442 23.172,61.5192 C22.754,61.0252 23.084,60.5702 23.621,60.2342 C24.899,59.4322 26.137,58.5682 27.42,57.7722 C27.758,57.5632 28.222,57.3572 28.581,57.4212 C29.733,57.6272 30.488,57.1062 31.167,56.2902 C31.506,55.8812 31.879,55.4902 32.288,55.1552 C32.441,55.0292 32.894,54.9922 32.947,55.0772 C33.073,55.2822 33.168,55.6722 33.055,55.8312 C32.221,57.0062 31.379,58.1812 30.443,59.2742 C29.978,59.8172 29.344,59.8182 28.73,59.2972 C28.51,59.1092 28.111,59.1312 27.793,59.0562 C27.803,59.1732 27.813,59.2892 27.823,59.4052" id="Fill-67" fill="#231916"></path>
                <path d="M23.7293,81.0624 C24.5973,80.2614 25.4053,79.4324 26.7353,79.5834 C27.7543,79.6994 28.7993,79.6664 29.8273,79.6074 C30.7723,79.5534 31.6573,79.4794 32.3923,80.2824 C32.5643,80.4704 33.0453,80.3944 33.3863,80.4034 C34.0553,80.4234 34.7503,80.3124 35.3833,80.4674 C35.6873,80.5424 35.8743,81.0994 36.1133,81.4384 C35.7193,81.4904 35.3213,81.6044 34.9333,81.5744 C34.6753,81.5534 34.4423,81.2384 34.1823,81.2134 C33.8603,81.1834 33.5213,81.3174 33.1903,81.3794 C33.2983,81.6494 33.4213,81.9134 33.5103,82.1894 C33.6073,82.4904 33.6713,82.8024 33.7503,83.1094 C33.3573,83.0914 32.8593,83.2204 32.5933,83.0274 C31.9603,82.5664 31.4813,81.8954 30.8523,81.4274 C30.5173,81.1784 30.0013,81.0854 29.5653,81.0784 C27.6203,81.0414 25.6743,81.0624 23.7293,81.0624" id="Fill-69" fill="#231916"></path>
                <path d="M51.5701,20.7416 C51.2691,20.9696 50.9491,21.2386 50.6011,21.4666 C50.3831,21.6096 50.1241,21.6916 49.8831,21.8016 C49.7791,21.5536 49.5611,21.2886 49.5931,21.0606 C49.6611,20.5866 49.8561,20.1306 50.0081,19.6696 C50.1451,19.2556 50.2771,18.8376 50.4431,18.4346 C50.5521,18.1716 50.7181,17.9306 50.8581,17.6806 C51.0061,17.9216 51.2631,18.1566 51.2811,18.4066 C51.3751,19.7746 52.0031,20.1956 53.1921,19.4876 C53.8861,19.0746 54.4121,18.3846 55.0551,17.8726 C55.3121,17.6686 55.6821,17.6086 56.0011,17.4826 C56.0751,17.8876 56.3431,18.4086 56.1841,18.6706 C55.8411,19.2336 55.2771,19.6616 54.8061,20.1476 C54.0141,20.9646 54.0531,21.2526 55.0211,21.8386 C55.2011,21.9486 55.4901,22.0666 55.5111,22.2126 C55.5611,22.5556 55.4811,22.9196 55.4541,23.2746 C55.2071,23.1146 54.9521,22.9646 54.7191,22.7846 C54.6481,22.7296 54.6511,22.5856 54.6021,22.4916 C54.2911,21.8926 53.8401,21.9196 53.3591,22.2496 C52.9011,22.5646 52.8861,22.8976 53.3281,23.2826 C53.4831,23.4166 53.5281,23.6906 53.5851,23.9106 C53.5911,23.9376 53.3101,24.1076 53.2541,24.0716 C53.0601,23.9456 52.8401,23.7876 52.7501,23.5876 C52.3611,22.7176 52.0151,21.8276 51.5701,20.7416" id="Fill-71" fill="#231916"></path>
                <path d="M20.3347,104.5917 C19.0877,104.5917 17.8407,104.5917 16.5947,104.5917 C15.6347,104.5917 14.7327,104.6157 13.8467,105.2087 C13.3597,105.5347 12.5407,105.3857 11.8707,105.4097 C11.0507,105.4387 10.2257,105.4707 9.4087,105.4107 C8.9667,105.3787 8.4957,105.2287 8.1207,104.9967 C7.9177,104.8717 7.7947,104.4557 7.8187,104.1877 C7.8317,104.0557 8.2607,103.8697 8.5027,103.8657 C12.1727,103.8037 15.8437,103.7737 19.5137,103.7177 C19.8217,103.7137 20.1247,103.5497 20.4377,103.5097 C20.7617,103.4687 21.1057,103.4427 21.4157,103.5137 C21.4937,103.5307 21.5907,104.0397 21.4877,104.1607 C21.2787,104.4067 20.9457,104.5517 20.6507,104.7157 C20.5687,104.7607 20.4407,104.7227 20.3347,104.7227 L20.3347,104.5917 Z" id="Fill-73" fill="#231916"></path>
                <path d="M9.7508,119.5077 C10.3968,119.3847 10.7918,119.2457 11.1868,119.2457 C14.4588,119.2467 17.7318,119.2607 21.0048,119.3117 C21.3308,119.3177 21.6528,119.5947 21.9768,119.7467 C21.7938,120.0687 21.6638,120.4427 21.4118,120.6947 C21.2348,120.8707 20.8868,120.9637 20.6248,120.9457 C19.1438,120.8507 17.6668,120.6557 16.1848,120.6047 C15.1988,120.5697 14.2068,120.7127 13.2188,120.7897 C12.9418,120.8107 12.6138,120.9987 12.4028,120.9037 C11.6058,120.5417 10.8478,120.0957 9.7508,119.5077" id="Fill-75" fill="#231916"></path>
                <g id="编组" transform="translate(0.000000, 58.875000)">
                    <mask id="mask-2" fill="white">
                        <use xlink:href="#path-1"></use>
                    </mask>
                    <g id="Clip-78"></g>
                    <path d="M2.5896,1.3549 C4.1626,1.5369 5.4246,1.5519 6.5436,0.7029 C6.7116,0.5769 7.0226,0.6159 7.2666,0.6179 C8.9336,0.6309 10.5996,0.6539 12.2666,0.6739 C12.3726,0.6749 12.5066,0.6299 12.5806,0.6789 C12.8856,0.8789 13.2426,1.0589 13.4356,1.3449 C13.5346,1.4939 13.4066,1.9949 13.2486,2.0749 C12.9716,2.2139 12.4856,2.3019 12.2746,2.1499 C10.5106,0.8879 8.5346,1.8609 6.6816,1.5989 C6.1096,1.5189 5.4566,2.0279 4.8386,2.2589 C3.6986,2.6849 2.5746,3.1619 1.4086,3.4949 C0.9916,3.6139 0.4726,3.3799 -0.0004,3.3069 C0.2446,2.9499 0.4156,2.4799 0.7506,2.2619 C1.3856,1.8489 2.1146,1.5809 2.5896,1.3549" id="Fill-77" fill="#231916" mask="url(#mask-2)"></path>
                </g>
                <path d="M76.4217,56.2226 C75.9777,58.7856 77.4597,60.5946 78.7707,62.4876 C79.1477,63.0316 79.3987,63.6666 79.6557,64.2816 C79.7187,64.4306 79.6417,64.7436 79.5187,64.8366 C79.3897,64.9336 79.1257,64.8766 78.9267,64.8486 C78.8317,64.8366 78.7177,64.7576 78.6657,64.6746 C77.8367,63.3516 76.8247,62.1016 76.2457,60.6756 C75.5547,58.9736 75.2247,57.1216 74.7607,55.3296 C74.6547,54.9206 74.5757,54.4806 74.6107,54.0666 C74.6367,53.7636 74.8697,53.4786 75.0107,53.1856 C75.3087,53.3456 75.7967,53.4456 75.8697,53.6776 C76.1307,54.5016 76.2487,55.3706 76.4217,56.2226" id="Fill-79" fill="#231916"></path>
                <path d="M56.9861,51.6977 C56.3681,52.9417 54.8561,53.4877 53.7801,52.9477 C53.2191,52.6667 53.0821,52.2247 53.4841,51.7307 C53.9391,51.1717 53.9171,50.7047 53.3401,50.2787 C52.3361,49.5357 52.5531,48.4947 52.5631,47.2447 C53.0701,47.5027 53.4711,47.6217 53.7601,47.8707 C54.4051,48.4287 54.9981,49.0477 55.6031,49.6507 C55.7241,49.7727 55.9191,49.9737 55.8851,50.0727 C55.5561,51.0427 56.1851,51.4027 56.9861,51.6977" id="Fill-81" fill="#231916"></path>
                <path d="M63.823,89.6801 C64.005,89.4691 64.072,89.3131 64.183,89.2711 C66.104,88.5471 68.108,88.1881 70.142,88.3071 C70.893,88.3521 71.621,88.9031 72.342,89.2571 C72.447,89.3081 72.548,89.6181 72.493,89.6931 C72.384,89.8431 72.165,90.0001 71.99,90.0011 C71.21,90.0011 70.428,89.9061 69.65,89.9281 C69.176,89.9411 68.633,89.9861 68.247,90.2221 C67.092,90.9261 66.016,91.0221 64.9,90.1711 C64.633,89.9671 64.276,89.8811 63.823,89.6801" id="Fill-83" fill="#231916"></path>
                <path d="M5.6707,85.9999 C6.3237,85.3039 6.9987,84.7399 8.0997,84.7759 C9.3097,84.8149 10.4967,84.9579 11.6847,84.1629 C12.3267,83.7319 13.4767,84.0199 14.3937,84.0629 C14.5927,84.0719 14.9297,84.4229 14.9297,84.6159 C14.9297,84.8769 14.7237,85.2709 14.5007,85.3699 C14.1307,85.5329 13.6777,85.5449 13.2587,85.5539 C11.5897,85.5889 9.9367,85.4719 8.3157,86.1799 C7.5717,86.5049 6.6067,86.3179 5.7407,86.3639 C5.7177,86.2429 5.6937,86.1219 5.6707,85.9999" id="Fill-85" fill="#231916"></path>
                <path d="M49.0105,49.4779 C49.5175,49.6439 49.8065,49.8479 50.0355,49.7949 C51.1805,49.5289 51.2935,50.1419 51.2265,51.0349 C51.1755,51.7059 51.2745,52.3889 51.2035,53.0559 C51.1495,53.5659 51.0275,54.1149 50.7695,54.5469 C50.3155,55.3079 49.7935,55.2779 49.3105,54.5309 C48.9865,54.0279 48.6345,53.5189 48.4505,52.9609 C48.3645,52.6989 48.5485,52.2179 48.7725,52.0069 C49.5245,51.2959 49.7815,50.5559 49.0105,49.4779" id="Fill-87" fill="#231916"></path>
                <path d="M89.7762,115.0395 C90.1512,114.9535 90.5242,114.7955 90.9002,114.7915 C94.1842,114.7605 97.4692,114.7415 100.7542,114.7665 C101.1492,114.7695 101.5422,115.0545 101.9352,115.2085 C101.5622,115.3895 101.1912,115.7215 100.8162,115.7255 C97.4962,115.7605 94.1752,115.7455 90.8552,115.7175 C90.4882,115.7145 90.1232,115.5355 89.7562,115.4375 C89.7632,115.3055 89.7692,115.1725 89.7762,115.0395" id="Fill-89" fill="#231916"></path>
                <path d="M103.5545,104.4491 C102.7345,104.4491 102.0165,104.5101 101.3205,104.4161 C101.0685,104.3831 100.8665,103.9771 100.6415,103.7411 C100.8685,103.5491 101.0935,103.1951 101.3245,103.1901 C102.8805,103.1581 104.4395,103.1881 105.9965,103.2331 C106.2245,103.2401 106.5065,103.3761 106.6565,103.5471 C106.8415,103.7591 107.0065,104.0731 106.9935,104.3341 C106.9875,104.4601 106.5505,104.6701 106.3155,104.6611 C105.3575,104.6251 104.4035,104.5201 103.5545,104.4491" id="Fill-91" fill="#231916"></path>
                <path d="M105.2576,92.8256 C104.3736,92.6216 102.9946,91.5046 102.8446,90.7616 C102.7286,90.1856 102.9446,89.9816 103.5466,90.0826 C103.9396,90.1496 104.3576,90.0536 104.7626,90.0666 C105.1036,90.0766 105.5616,90.0156 105.7606,90.2036 C106.2126,90.6336 106.5386,91.1966 106.9156,91.7046 L105.2576,92.8256 Z" id="Fill-93" fill="#231916"></path>
                <path d="M54.8543,39.0302 C54.8193,39.1082 54.7743,39.3822 54.6703,39.4072 C53.7063,39.6412 52.7023,40.0722 51.7673,39.9612 C51.0043,39.8702 50.3013,39.1442 49.6163,38.6402 C49.4093,38.4882 49.3463,38.1402 49.2173,37.8822 C49.5313,37.8182 49.8793,37.6372 50.1523,37.7172 C50.6203,37.8542 51.0433,38.1482 51.4813,38.3852 C52.2043,38.7792 52.8403,39.0182 53.5863,38.2802 C54.0843,37.7872 54.8683,38.2542 54.8543,39.0302" id="Fill-95" fill="#231916"></path>
                <path d="M69.1033,74.6029 C69.4903,74.5369 69.8753,74.4199 70.2633,74.4119 C71.8673,74.3769 73.4713,74.3449 75.0743,74.3859 C75.4023,74.3949 75.7213,74.7249 76.0433,74.9079 C75.7343,75.0719 75.4263,75.3719 75.1133,75.3789 C73.5473,75.4189 71.9803,75.4009 70.4143,75.3599 C69.9633,75.3489 69.5173,75.1949 69.0693,75.1059 C69.0813,74.9379 69.0913,74.7709 69.1033,74.6029" id="Fill-97" fill="#231916"></path>
                <path d="M101.4578,99.3075 C102.3838,99.3075 103.3128,99.2685 104.2358,99.3305 C104.5198,99.3495 104.7848,99.6425 105.0588,99.8095 C104.7838,99.9795 104.5128,100.2895 104.2338,100.2955 C102.3108,100.3355 100.3848,100.3325 98.4618,100.2835 C98.2088,100.2765 97.9658,99.9225 97.7178,99.7295 C97.9668,99.5765 98.2098,99.3035 98.4658,99.2895 C99.4608,99.2375 100.4598,99.2685 101.4578,99.2685 L101.4578,99.3075 Z" id="Fill-99" fill="#231916"></path>
                <path d="M102.4793,92.1815 C101.5843,93.0175 96.5463,92.9965 95.7403,92.1815 L102.4793,92.1815 Z" id="Fill-101" fill="#231916"></path>
                <path d="M12.5847,62.8002 C12.6277,63.5242 11.4167,64.2872 10.8367,64.0652 C10.2247,63.8292 9.5907,63.6502 8.9807,63.4072 C8.7757,63.3252 8.6177,63.1252 8.4387,62.9792 C8.6297,62.8092 8.8137,62.5012 9.0147,62.4912 C10.0407,62.4402 11.0727,62.4462 12.1017,62.4822 C12.2897,62.4882 12.4707,62.7212 12.5847,62.8002" id="Fill-103" fill="#231916"></path>
                <path d="M78.5623,70.517 C79.0893,70.577 79.6653,70.53 80.1253,70.736 C80.3943,70.856 80.4803,71.383 80.6483,71.726 C80.3073,71.756 79.8223,71.943 79.6513,71.787 C79.0113,71.2 78.3443,71.43 77.6393,71.48 C77.3063,71.504 76.9543,71.241 76.6113,71.108 C76.9043,70.934 77.1783,70.69 77.4963,70.607 C77.8293,70.52 78.2023,70.587 78.5573,70.587 C78.5593,70.564 78.5613,70.54 78.5623,70.517" id="Fill-105" fill="#231916"></path>
                <path d="M5.5555,65.808 C5.7535,65.692 5.9465,65.49 6.1515,65.476 C7.2095,65.403 8.2725,65.339 9.3305,65.366 C9.5705,65.371 9.8005,65.748 10.0345,65.954 C9.7765,66.068 9.5215,66.267 9.2565,66.283 C8.3465,66.335 7.4315,66.347 6.5195,66.323 C6.1925,66.315 5.8675,66.165 5.5415,66.08 C5.5465,65.989 5.5515,65.899 5.5555,65.808" id="Fill-107" fill="#231916"></path>
                <path d="M9.739,79.0429 C11.121,78.5179 12.361,78.7879 13.587,78.9239 C13.619,78.9279 13.705,79.5209 13.586,79.6179 C13.081,80.0309 10.433,79.6919 9.739,79.0429" id="Fill-109" fill="#231916"></path>
                <path d="M53.1053,26.497 C53.5783,26.497 54.1883,26.312 54.4943,26.539 C54.9943,26.909 55.2973,27.547 55.6843,28.072 C55.4413,28.216 55.0663,28.539 54.9753,28.474 C54.3013,27.983 53.6843,27.415 53.0493,26.871 C53.0683,26.747 53.0863,26.622 53.1053,26.497" id="Fill-111" fill="#231916"></path>
                <path d="M41.7478,68.015 C41.8998,67.408 42.0048,66.783 42.2258,66.201 C42.3368,65.905 42.6178,65.61 42.8988,65.467 C43.0368,65.396 43.4948,65.627 43.5548,65.806 C43.6518,66.102 43.6728,66.568 43.5008,66.781 C43.0588,67.329 42.4928,67.777 41.9768,68.265 C41.8998,68.182 41.8238,68.098 41.7478,68.015" id="Fill-113" fill="#231916"></path>
                <path d="M65.0974,57.7509 C65.4394,58.2349 65.8954,58.6179 65.8264,58.8419 C65.7134,59.2169 65.1524,59.8089 64.9784,59.7469 C64.4844,59.5709 64.0894,59.1129 63.6564,58.7659 C64.0694,58.4739 64.4834,58.1829 65.0974,57.7509" id="Fill-115" fill="#231916"></path>
                <path d="M47.2156,18.8949 C47.4806,19.5229 47.7816,20.1389 47.9896,20.7859 C48.0706,21.0359 47.9386,21.3539 47.9026,21.6419 C47.6846,21.4849 47.3456,21.3729 47.2696,21.1639 C46.9866,20.3919 46.7426,19.5979 46.5926,18.7919 C46.5466,18.5449 46.8456,18.2339 46.9866,17.9529 C47.1926,18.1939 47.3976,18.4349 47.6026,18.6759 C47.4736,18.7489 47.3446,18.8219 47.2156,18.8949" id="Fill-117" fill="#231916"></path>
                <path d="M86.0242,75.3183 C85.7772,75.3043 85.7302,75.3163 85.7092,75.2973 C85.5592,75.1703 85.2782,74.9333 85.2892,74.9183 C85.7402,74.3123 86.2042,73.7133 86.7102,73.1523 C86.7792,73.0753 87.2222,73.1693 87.2382,73.2403 C87.3002,73.5223 87.3802,73.9183 87.2362,74.1033 C86.8582,74.5893 86.3672,74.9863 86.0242,75.3183" id="Fill-119" fill="#231916"></path>
                <path d="M13.3455,92.7055 C14.5625,92.7055 15.7805,92.6845 16.9955,92.7265 C17.2025,92.7335 17.4005,93.0145 17.6025,93.1695 C17.3905,93.3065 17.1685,93.5765 16.9695,93.5595 C15.7545,93.4595 14.5435,93.2955 13.3325,93.1525 C13.3365,93.0035 13.3405,92.8545 13.3455,92.7055" id="Fill-121" fill="#231916"></path>
                <path d="M7.6971,63.1264 C6.9591,63.5094 6.2401,63.9414 5.4691,64.2394 C5.2811,64.3124 4.9221,63.9424 4.6411,63.7754 C4.9041,63.6054 5.1471,63.3724 5.4341,63.2784 C6.1191,63.0554 6.8241,62.8984 7.5201,62.7154 C7.5791,62.8524 7.6371,62.9894 7.6971,63.1264" id="Fill-123" fill="#231916"></path>
                <path d="M54.2234,45.7646 C53.9444,45.9526 53.5554,46.3616 53.4074,46.2866 C52.9534,46.0616 52.5944,45.6496 52.1984,45.3106 C52.4704,45.1076 52.7734,44.7076 53.0094,44.7436 C53.4404,44.8086 53.8314,45.1316 54.2404,45.3476 C54.2354,45.4866 54.2294,45.6256 54.2234,45.7646" id="Fill-125" fill="#231916"></path>
                <path d="M50.073,48.9652 C49.619,48.3822 49.308,47.9842 48.998,47.5872 C49.287,47.4082 49.707,47.0122 49.841,47.0922 C50.248,47.3382 50.566,47.7512 50.856,48.1452 C50.885,48.1842 50.484,48.5402 50.073,48.9652" id="Fill-127" fill="#231916"></path>
                <path d="M58.7771,114.9296 L61.1441,114.9296 C60.7931,115.8346 59.6931,115.9296 58.7771,114.9296" id="Fill-129" fill="#231916"></path>
                <path d="M61.2,39.9638 C60.83,39.6888 60.559,39.4868 60.289,39.2858 C60.577,39.1048 60.869,38.7708 61.151,38.7788 C61.581,38.7908 62.004,39.0398 62.429,39.1888 C62.056,39.4228 61.683,39.6588 61.2,39.9638" id="Fill-131" fill="#231916"></path>
                <path d="M8.2801,81.3461 C7.9111,82.0201 7.4551,82.4491 6.6791,82.1311 C6.5491,82.0771 6.4281,81.5751 6.5171,81.4771 C7.0161,80.9321 7.5991,80.7321 8.2801,81.3461" id="Fill-133" fill="#231916"></path>
                <path d="M45.032,67.9755 C44.705,67.4785 44.366,67.1415 44.428,67.0275 C44.624,66.6785 44.963,66.4025 45.282,66.1435 C45.304,66.1245 45.803,66.5285 45.769,66.6315 C45.639,67.0225 45.381,67.3715 45.032,67.9755" id="Fill-135" fill="#231916"></path>
                <path d="M53.3103,43.7714 C52.9383,43.2714 52.6593,42.9564 52.4743,42.5934 C52.4413,42.5294 52.9223,42.0944 52.9593,42.1204 C53.3033,42.3644 53.6263,42.6524 53.8853,42.9824 C53.9263,43.0344 53.6143,43.3624 53.3103,43.7714" id="Fill-137" fill="#231916"></path>
                <path d="M26.0681,69.1239 C26.3911,69.6329 26.7291,69.9309 26.6851,70.1539 C26.6341,70.4119 26.2761,70.6909 25.9941,70.7839 C25.8661,70.8249 25.4141,70.4099 25.4341,70.2439 C25.4741,69.9309 25.7511,69.6489 26.0681,69.1239" id="Fill-139" fill="#231916"></path>
                <path d="M20.1726,69.6811 C19.6766,69.1981 19.1806,68.7151 18.6846,68.2311 C18.7856,68.1261 18.8876,68.0201 18.9886,67.9141 C19.8606,67.9841 20.0286,68.8231 20.4526,69.3831 C20.3596,69.4821 20.2656,69.5811 20.1726,69.6811" id="Fill-141" fill="#231916"></path>
                <path d="M23.2762,79.2982 C22.7222,79.5352 22.4252,79.7712 22.1562,79.7442 C21.9342,79.7212 21.7442,79.3862 21.5402,79.1902 C21.8022,79.0192 22.0552,78.7402 22.3322,78.7132 C22.5482,78.6922 22.7962,78.9842 23.2762,79.2982" id="Fill-143" fill="#231916"></path>
                <path d="M97.9519,122.1308 C97.4569,122.3658 97.1699,122.6238 96.9569,122.5728 C96.6859,122.5078 96.4759,122.1918 96.2399,121.9848 C96.5359,121.8458 96.8229,121.6308 97.1299,121.5988 C97.3149,121.5798 97.5309,121.8448 97.9519,122.1308" id="Fill-145" fill="#231916"></path>
                <path d="M52.1209,55.9984 C52.5439,55.5294 52.9679,55.0594 53.3909,54.5894 C53.5239,54.7114 53.6569,54.8334 53.7909,54.9564 C53.3579,55.4134 52.9269,55.8704 52.4949,56.3274 C52.3699,56.2184 52.2449,56.1084 52.1209,55.9984" id="Fill-147" fill="#231916"></path>
                <path d="M56.0515,58.3617 C55.7785,57.8727 55.5395,57.6237 55.5275,57.3637 C55.5185,57.1857 55.8225,56.9917 55.9855,56.8047 C56.1705,57.0347 56.4435,57.2417 56.5095,57.5017 C56.5525,57.6737 56.3005,57.9207 56.0515,58.3617" id="Fill-149" fill="#231916"></path>
            </g>
        </g>
    </g>
</svg>