<?xml version="1.0" encoding="UTF-8"?>
<svg width="162px" height="160px" viewBox="0 0 162 160" version="1.1" xmlns="http://www.w3.org/2000/svg" xmlns:xlink="http://www.w3.org/1999/xlink">
    <!-- Generator: Sketch 60 (88103) - https://sketch.com -->
    <title>figure33</title>
    <desc>Created with Sketch.</desc>
    <defs>
        <polygon id="path-1" points="0 0.324559269 30.5265306 0.324559269 30.5265306 3.14718466 0 3.14718466"></polygon>
        <polygon id="path-3" points="0.0644353741 0.525768707 20.7414422 0.525768707 20.7414422 1.08843537 0.0644353741 1.08843537"></polygon>
    </defs>
    <g id="页面-1" stroke="none" stroke-width="1" fill="none" fill-rule="evenodd">
        <g id="29-44" transform="translate(-903.000000, -43.000000)">
            <g id="figure33" transform="translate(903.000000, 43.000000)">
                <path d="M66.7313741,16.7149932 C66.5289252,16.6943129 66.3270204,16.6741769 66.1251156,16.6540408 C66.0315102,18.7264218 65.938449,20.7988027 65.8453878,22.8717279 C66.140898,22.8924082 66.4358639,22.9125442 66.7313741,22.9332245 L66.7313741,16.7149932 Z M95.4579048,86.5408435 C95.1651156,86.5343129 94.8723265,86.5277823 94.5795374,86.5217959 C94.5795374,87.8992109 94.5588571,89.2777143 94.6296054,90.6518639 C94.6339592,90.7367619 95.3599456,90.7841088 95.7506939,90.8488707 C95.8394014,89.5824762 95.9493333,88.3160816 95.9901497,87.0480544 C95.9950476,86.8847891 95.6440272,86.7100952 95.4579048,86.5408435 L95.4579048,86.5408435 Z M142.106068,64.4575782 C140.484299,65.6521361 139.367565,66.4749932 138.012463,67.4730884 C139.63532,67.7103673 140.793415,67.879619 142.106068,68.0711837 L142.106068,64.4575782 Z M126.420626,7.23254422 C126.383075,7.50138776 126.345524,7.77077551 126.308517,8.04016327 C127.808925,8.34002721 129.306068,8.66492517 130.819537,8.88097959 C130.912599,8.89404082 131.128653,8.04560544 131.287565,7.5982585 C129.954231,7.32397279 128.625796,7.01812245 127.283755,6.80370068 C127.025252,6.76179592 126.709605,7.08016327 126.420626,7.23254422 L126.420626,7.23254422 Z M67.4377687,39.5264218 L67.9270204,39.5264218 L67.9270204,30.861932 L67.4377687,30.861932 L67.4377687,39.5264218 Z M90.1294694,88.659483 C90.6802177,89.6151293 91.0791293,90.3068299 91.4780408,90.9985306 C92.0679728,90.3117279 93.0998095,89.6417959 93.125932,88.9348571 C93.1531429,88.1909116 92.2176327,87.4115918 91.7033469,86.6480544 C91.2266122,87.2575782 90.7498776,87.8665578 90.1294694,88.659483 L90.1294694,88.659483 Z M121.388789,81.3577143 C121.677224,83.1601633 121.843755,84.2012517 122.009741,85.2417959 C123.332735,84.8956735 124.655184,84.549551 125.977633,84.2034286 C125.968925,83.9607075 125.959129,83.7179864 125.949878,83.4752653 C124.732463,82.9103673 123.515048,82.3449252 121.388789,81.3577143 L121.388789,81.3577143 Z M39.5787211,99.7446531 C42.6715102,102.300844 44.6192653,102.237714 46.8440272,99.7446531 L39.5787211,99.7446531 Z M98.2268844,90.2464218 C99.870966,89.7016599 101.388245,89.4186667 102.610558,88.6600272 C102.978449,88.4314558 102.790694,86.2251973 102.395592,86.0651973 C101.41981,85.6700952 100.176816,85.9356735 99.668517,85.9356735 C99.1607619,87.4551293 98.8543673,88.3705034 98.2268844,90.2464218 L98.2268844,90.2464218 Z M115.870422,10.7966259 C116.089741,10.5087347 116.309605,10.2202993 116.528925,9.93240816 C115.294095,9.0197551 114.05981,8.10764626 112.611102,7.03717007 C111.720762,12.154449 112.373823,15.6254694 116.611102,15.3484626 C115.461714,13.7005714 114.512599,12.3400272 113.435592,10.7966259 L115.870422,10.7966259 Z M127.854639,35.3974422 C127.91015,34.9359456 127.96566,34.4749932 128.020626,34.0140408 C126.529469,33.6809796 124.153415,32.6061497 123.701714,33.144381 C121.866612,35.3332245 120.902803,35.1759456 119.847565,31.5226122 C119.289197,33.1525442 118.730286,34.2382585 118.902803,34.3710476 C120.065252,35.2641088 121.320762,36.1473741 122.689469,36.5941769 C123.098177,36.7275102 123.96566,35.4567619 124.417905,35.0246531 C125.508517,35.1427483 126.681306,35.2700952 127.854639,35.3974422 L127.854639,35.3974422 Z M107.039946,86.8543129 C106.992599,87.0654694 106.94634,87.2760816 106.898993,87.4872381 C108.08702,87.6940408 109.335456,88.2398912 110.451102,88.0412517 C113.168381,87.5563537 115.844299,86.7955374 118.490286,85.9917279 C119.216816,85.7707755 119.937361,85.1035646 120.346068,84.4461497 C120.543619,84.1277823 119.998313,82.8706395 119.813823,82.8760816 C119.029605,82.8989388 118.254095,83.2352653 117.20702,83.5340408 C116.931646,83.3457415 116.313959,82.9223401 115.498177,82.3628844 C115.114503,83.6222041 114.803755,84.6415238 114.493551,85.6608435 C114.309061,85.8143129 114.124571,85.9677823 113.940626,86.1212517 C113.007293,83.064381 110.815728,83.3593469 108.781442,83.7092789 C107.806748,83.876898 106.906068,84.6290068 106.039129,85.2156735 C105.394776,85.6515918 104.766204,86.1832925 104.33083,86.8113197 C104.204027,86.9930884 104.768381,87.6543129 105.015456,88.0951293 C105.690286,87.6815238 106.365116,87.2679184 107.039946,86.8543129 L107.039946,86.8543129 Z M90.6633469,99.5128163 L90.8674286,98.6861497 C89.7512381,98.3683265 88.5833469,97.6690068 87.5297415,97.8110476 C85.2598095,98.116898 83.0029388,98.722068 80.8255238,99.4562177 C78.9354558,100.093497 74.9425306,99.729415 74.7629388,98.5032925 C74.3139592,95.4311837 71.4807619,96.2502313 70.3145034,96.4499592 C67.1847075,96.987102 64.2127347,98.439619 60.8462041,99.6483265 C60.936,99.9356735 61.1738231,100.695401 61.3604898,101.290776 C62.7694694,100.783565 63.8138231,100.289415 64.9131429,100.043429 C66.0195374,99.7963537 67.1814422,99.7963537 68.3188571,99.6875102 C68.291102,99.5949932 68.2638912,99.5030204 68.2372245,99.4105034 C69.3300136,99.6096871 70.4238912,99.8088707 71.6472925,100.032 C71.6902857,100.625741 71.7577687,101.565061 71.7887891,101.993905 C74.9974966,101.514993 78.0358639,101.018122 81.0872925,100.618122 C84.2725986,100.201252 87.4704218,99.8774422 90.6633469,99.5128163 L90.6633469,99.5128163 Z M107.415456,92.5174422 C107.403483,92.0929524 107.39151,91.6684626 107.378993,91.2439728 C106.642122,90.9402993 105.808925,90.2437007 105.183619,90.3966259 C101.066068,91.4039728 97.0306939,92.7650612 92.8940952,93.6711837 C89.583619,94.3966259 85.9890612,93.6434286 82.8728707,95.5726803 C82.5849796,95.7511837 81.9629388,95.3054694 81.5716463,95.4154014 C79.6380408,95.959619 77.7294694,96.5936327 75.8121905,97.1955374 C80.6002177,97.3359456 85.1803537,97.0197551 89.7381769,96.5109116 C93.3740952,96.1049252 97.0181769,95.627102 100.592599,94.8690068 C102.927837,94.3737687 105.145524,93.3207075 107.415456,92.5174422 L107.415456,92.5174422 Z M105.472599,17.7076463 C105.660898,22.4788027 105.833415,26.7726803 105.997769,31.0665578 C106.022259,31.694585 105.774095,32.4940408 106.073415,32.9147211 C106.531102,33.5579864 107.297361,34.0739048 108.040218,34.3960816 C108.730286,34.6943129 109.560218,34.6676463 110.580082,34.8216599 C110.931646,33.257034 111.394231,31.1928163 111.97981,28.5854694 C110.398313,29.7332245 109.277224,30.5479184 108.155048,31.3631565 C107.800762,31.1634286 107.445932,30.9637007 107.09219,30.7639728 C111.170014,28.5718639 110.477224,24.9979864 110.563755,21.6777143 C110.666612,17.712 108.638313,16.4167619 105.472599,17.7076463 L105.472599,17.7076463 Z M89.3517823,39.1122721 C88.2878367,40.5430204 86.9920544,41.4856054 86.9403537,42.4924082 C86.703619,47.0839728 86.7041633,51.6983946 86.9147755,56.2910476 C86.9496054,57.0578503 88.4418503,57.7582585 89.2603537,58.4896871 C89.7218503,57.8132245 90.5321905,57.1639728 90.5887891,56.4554014 C90.9572245,51.8186667 90.9882449,47.1503673 91.4943673,42.5321361 C91.7447075,40.2507755 89.9662041,39.5155374 88.9953197,38.2012517 C88.7558639,37.876898 87.3528707,38.4118639 86.4842993,38.5517279 L86.6100136,39.3876463 C87.3561361,39.3125442 88.1022585,39.2379864 89.3517823,39.1122721 L89.3517823,39.1122721 Z M110.509878,89.9318639 C110.62634,90.2099592 110.742803,90.4880544 110.858721,90.7656054 C115.894367,92.014585 141.08566,84.7188027 143.17219,81.2760816 C142.738993,81.139483 142.280762,80.8178503 141.969469,80.924517 C138.853279,81.9873741 135.782803,83.1868299 132.650286,84.1941769 C131.701714,84.4989388 130.526748,84.5560816 129.603755,84.2616599 C129.230966,84.141932 129.256,82.7775782 129.189061,82.4374422 C130.479401,82.0804354 131.382259,81.9503673 132.134367,81.5416599 C132.335184,81.4322721 132.073415,80.4722721 132.02498,79.9030204 C131.083483,80.1789388 129.79151,80.166966 129.278313,80.7933605 C128.375456,81.8948571 127.947701,83.3865578 127.321306,84.714449 C127.554776,85.0284626 127.788245,85.3424762 128.021714,85.6559456 C123.493279,86.5386667 118.950694,87.3588027 114.444027,88.3422041 C113.08185,88.6393469 111.818721,89.3892789 110.509878,89.9318639 L110.509878,89.9318639 Z M83.7213061,38.7672381 C81.9629388,38.8690068 80.7101497,38.8532245 79.4949116,39.0616599 C79.0823946,39.1318639 78.6878367,39.7234286 78.4440272,40.1647891 C78.3422585,40.3498231 78.6802177,41.0355374 78.7749116,41.0268299 C79.2472925,40.9827483 79.7077007,40.7900952 80.1675646,40.6377143 C80.7700136,40.4385306 81.3599456,40.1435646 81.9743673,40.0798912 C82.1349116,40.0630204 82.5925986,41.0279184 82.5327347,41.0763537 C81.9580408,41.5460136 81.2842993,42.2779864 80.6720544,42.2485986 C78.7890612,42.1588027 78.2448435,43.0480544 78.358585,44.7002993 C78.6611701,49.0807075 78.8277007,53.4758095 79.3174966,57.8349932 C79.5830748,60.2001633 81.7539592,59.3522721 83.023619,59.1215238 C83.7000816,58.9985306 84.3019864,57.5808435 84.6214422,56.6404354 C84.9218503,55.754449 84.8233469,54.7291429 84.8696054,53.7637007 C84.9147755,52.8314558 85.0328707,51.8839728 84.9164082,50.9685986 C84.7645714,49.7707755 84.2747755,48.6088707 84.1773605,47.4115918 C83.9520544,44.6485986 83.8747755,41.8736327 83.7213061,38.7672381 L83.7213061,38.7672381 Z M104.20566,31.239619 C103.828517,27.8943129 103.26634,24.0254694 102.99532,20.1359456 C102.795048,17.2564898 102.869061,14.3454694 103.021442,11.4583946 C103.116136,9.65213605 102.119129,9.52859864 100.828245,9.58791837 C99.533551,9.6472381 97.9906939,9.21621769 98.0902857,11.4910476 C98.3879728,18.2981224 98.5751837,25.109551 98.8347755,31.9182585 C98.8516463,32.3405714 99.1977687,32.7432925 99.2598095,33.1737687 C99.3517823,33.8208435 99.3125986,34.4847891 99.3599456,35.139483 C99.3942313,35.614585 99.4769524,36.0858776 99.5379048,36.5582585 C100.069061,36.3264218 100.790694,36.2388027 101.097088,35.8355374 C102.163211,34.4341769 103.086204,32.9228844 104.20566,31.239619 L104.20566,31.239619 Z M72.3738231,19.4393469 C68.2524626,18.664381 68.0995374,18.6692789 68.2388571,22.802068 C68.3917823,27.3479184 68.8369524,31.8850612 69.213551,36.4211156 C69.3256599,37.7740408 70.1365442,38.7106395 71.3017143,37.4736327 C73.2266122,35.429551 77.5890612,34.4309116 74.776,30.002068 C74.2399456,29.1579864 74.6671565,27.6962177 74.6644354,26.5190748 C74.6562721,23.4404354 74.7444354,20.3574422 74.590966,17.2864218 C74.5523265,16.5098231 73.736,15.1182585 73.3087891,15.1307755 C71.6353197,15.1786667 69.6124626,13.9911837 68.3411701,16.0880544 C68.3096054,16.1397551 68.5392653,16.3503673 68.6394014,16.4766259 C69.7653878,16.3166259 70.8853878,16.1577143 72.0026667,15.9993469 C72.1381769,17.2548571 72.2448435,18.2442449 72.3738231,19.4393469 L72.3738231,19.4393469 Z M97.1792653,57.0339048 C97.1792653,51.9111837 97.248381,47.0322721 97.1362721,42.1571701 C97.103619,40.7160816 96.5577687,39.286966 96.1583129,37.4458776 C96.3977687,37.0268299 97.281034,36.124517 97.3599456,35.1563537 C97.4366803,34.2202993 96.4119184,33.2347211 96.3422585,32.2382585 C95.9362721,26.4401633 95.6815782,20.6311837 95.3387211,14.8281905 C95.2940952,14.0673741 95.0350476,13.3190748 94.9713741,13.0202993 C93.2053878,13.6630204 91.8219864,14.1664218 89.7528707,14.9190748 C91.4279728,15.6543129 92.8674286,16.2861497 94.3079728,16.9185306 C94.2486531,17.1492789 94.1893333,17.3800272 94.1305578,17.6107755 C93.238585,17.7647891 92.3466122,17.9188027 91.2489252,18.1092789 C91.6603537,19.8877823 92.2807619,21.4872381 92.3477007,23.1090068 C92.451102,25.6222041 92.303619,28.1653333 92.026068,30.6692789 C91.7447075,33.202068 92.1398095,34.954449 95.2157279,34.7726803 C95.281034,34.7688707 95.3632109,35.0464218 95.5270204,35.3685986 C94.3471565,35.6902313 93.1994014,36.0026122 92.051102,36.3155374 C91.7229388,36.7432925 91.3942313,37.1710476 91.066068,37.5988027 C92.153415,38.234449 93.2402177,38.8706395 93.8361361,39.219483 C92.5512381,45.3805714 93.1727347,51.2760816 94.7308299,57.4464218 C95.583619,57.3027483 96.413551,57.1628844 97.1792653,57.0339048 L97.1792653,57.0339048 Z M152.008109,17.3713197 L151.735456,16.4232925 C149.542803,15.9362177 147.332735,14.9854694 145.160762,15.064381 C141.23532,15.206966 137.537905,14.9272381 133.808925,13.4943129 C132.251918,12.8956735 130.997497,12.701932 131.193959,10.9321361 C129.681578,10.5593469 128.410286,10.1881905 127.114503,9.95580952 C126.607293,9.86492517 126.045116,10.0842449 125.508517,10.1626122 C125.913959,10.6235646 126.236136,11.2515918 126.744435,11.5073741 C127.518857,11.8964898 128.503347,11.8801633 129.259265,12.2921361 C134.307429,15.042068 139.318585,17.8600272 144.443483,20.7128163 C143.979265,24.3171701 143.868789,24.3764898 140.513687,22.6714558 C139.949333,22.3841088 139.370286,22.0200272 138.764571,21.9378503 C136.422259,21.619483 135.253279,20.7514558 137.351782,18.0641088 L136.520762,17.934585 C135.753959,18.486966 134.987701,19.0388027 134.47668,19.4066939 C129.753415,17.147102 125.297905,14.5756735 120.522939,12.9364898 C118.446748,12.2235646 117.628245,11.6962177 117.802939,9.52859864 C117.513959,12.5500952 117.359946,15.4491429 117.570558,18.322068 C117.70117,20.1141769 118.534367,21.8453333 118.774912,23.6417959 C119.029605,25.5454694 118.859265,27.5041088 119.082939,29.4148571 C119.149333,29.9808435 119.885116,30.8711837 120.37219,30.912 C121.91668,31.0415238 123.613007,31.1857415 125.01981,30.6823401 C127.017633,29.9672381 128.811374,28.6812517 130.692735,27.639619 C130.839129,27.8567619 130.985524,28.0739048 131.132463,28.2910476 C129.651102,29.2864218 128.170286,30.2817959 126.075048,31.6891429 C130.603483,32.0651973 134.256272,32.3683265 137.432327,32.6317279 C138.897361,32.154449 140.123483,31.6211156 141.405116,31.3653333 C144.028245,30.8428844 146.693279,30.5310476 149.317497,30.0124082 C150.86634,29.7065578 152.370014,29.1721361 153.676136,28.802068 C150.638313,27.434449 147.591782,26.0624762 144.967565,24.8804354 C145.559673,20.419483 147.899265,18.0641088 152.008109,17.3713197 L152.008109,17.3713197 Z M97.8606259,74.4564898 C98.2698776,72.5767619 98.3150476,71.3473741 96.1501497,71.5786667 C91.7887891,72.0434286 87.4274286,72.5049252 83.0671565,72.9740408 C81.3332789,73.1607075 79.601034,73.3637007 77.5945034,73.5906395 C78.3090612,74.6311837 78.8298776,75.3892789 79.3904218,76.2050612 C78.2872925,76.9326803 77.3425306,77.5329524 76.4228027,78.1702313 C75.5438912,78.7781224 74.6987211,79.4339048 73.8252517,80.0488707 C73.4742313,80.297034 72.7531429,80.5147211 72.7662041,80.709551 C72.9479728,83.4866939 70.5414422,83.3778503 69.2766803,84.2126803 C68.1545034,82.9364898 67.1618503,81.8066939 65.7202177,80.1658776 C65.7256599,80.1239728 65.8383129,79.2918639 66.0113741,78.0178503 C67.7474286,79.7310476 69.1455238,81.2298231 71.4932789,79.9993469 C71.1732789,78.6415238 70.8728707,77.3653333 70.5125986,75.8360816 C69.3468844,76.124517 68.3177687,76.3792109 66.7411701,76.769415 C67.4818503,75.4986667 67.9438912,74.7057415 68.6453878,73.5030204 C64.5708299,71.624381 60.6203537,69.8034286 56.6399456,67.9677823 L56.6399456,85.1340408 C45.9656599,87.6227483 35.4230748,88.8662857 25.238585,92.4967619 C28.9104218,94.3139048 32.5648435,95.779483 36.358585,96.6110476 C38.1447075,97.0028844 40.1980408,96.1762177 42.1300136,95.9013878 L42.0679728,95.1476463 C46.1871565,97.1149932 50.2856599,97.6831565 55.133551,95.1373061 C58.0897415,96.1778503 61.8187211,97.0273741 65.7033469,94.3209796 C67.1819864,94.9909116 69.0062041,95.9781224 69.6581769,92.6741769 C69.8426667,91.7408435 71.183619,91.0360816 71.9939592,90.2268299 C72.1947755,90.3748571 72.3961361,90.5234286 72.5969524,90.672 C72.5262041,91.686966 72.456,92.7013878 72.3602177,94.0760816 C74.9991293,93.8502313 77.4557279,93.6401633 80.3727347,93.3903673 C80.048381,91.9857415 79.7849796,90.8472381 79.5645714,89.8921361 C77.8644354,90.8602993 76.6296054,91.5628844 75.4165442,92.2540408 C72.7618503,88.7541769 73.3376327,85.3598912 74.0788571,81.9449252 C74.6198095,83.9128163 74.1648435,86.6083265 75.2815782,87.7092789 C76.2791293,88.6926803 79.0116463,87.9160816 81.1841633,87.9160816 C81.2004898,88.0608435 81.3229388,88.5707755 81.306068,89.0763537 C81.1689252,93.2205714 81.1553197,93.1928163 84.9866122,92.3416599 C85.7626667,92.1691429 86.6818503,92.4940408 87.3936871,92.2202993 C88.2840272,91.8785306 89.563483,91.2613878 89.7006259,90.5696871 C89.8764082,89.6842449 89.0802177,88.6066939 88.7030748,87.6118639 C88.468517,87.7038367 88.2350476,87.7963537 88.0004898,87.8883265 C87.8040272,88.7759456 87.6064762,89.6635646 87.3577687,90.7873741 C86.5789932,89.5862857 85.9994014,88.6937687 85.420898,87.8007075 C84.758585,88.499483 84.7792653,88.924517 84.6769524,89.3174422 C84.5213061,89.9128163 84.2802177,90.4858776 84.0761361,91.0681905 C83.7191293,90.5435646 83.0992653,90.0374422 83.0600816,89.4899592 C82.9773605,88.3400272 83.1411701,87.159619 83.3125986,86.0080544 C83.4666122,84.9707755 83.7653878,83.9552653 83.9999456,82.929415 C83.7800816,82.8456054 83.5607619,82.7607075 83.3414422,82.676898 C82.7819864,83.3250612 82.3368163,84.1626122 81.6396735,84.5778503 C80.4832109,85.2673741 79.1645714,85.6858776 77.9145034,86.2181224 C77.4976327,85.236898 77.0421224,84.2692789 76.6769524,83.2690068 C76.3754558,82.4407075 76.1795374,81.5737687 75.9945034,80.9250612 C77.403483,80.0815238 78.6486531,79.3359456 80.6802177,78.1207075 C79.7877007,80.4575782 79.1515102,82.1234286 78.5153197,83.7898231 C80.5202177,82.4510476 83.2554558,81.762068 82.2900136,78.4630204 C81.7697415,76.6850612 82.1920544,74.9582585 83.9732789,74.027102 C84.5245714,73.7386667 85.4916463,73.846966 86.0973605,74.1343129 C88.0244354,75.0475102 87.9852517,76.8831565 87.7267483,78.6023401 C87.6075646,79.3947211 86.9496054,80.1060136 86.5626667,80.806966 C87.1694694,82.129415 87.4442993,83.9416599 88.4788571,84.6600272 C89.6140952,85.4480544 91.4497415,85.227102 93.9221224,85.5808435 C92.8494694,83.064381 92.0946395,81.2951293 91.340898,79.5258776 C91.0040272,79.6341769 90.666068,79.7424762 90.3291973,79.8513197 C90.3939592,80.8292789 90.4598095,81.8072381 90.5822585,83.6499592 C89.4192653,82.1201633 88.7504218,81.239619 88.0091973,80.264381 C89.0530068,79.1530884 89.9569524,78.1914558 90.9800816,77.1035646 C91.6674286,77.6940408 92.2464762,78.1903673 92.9838912,78.8238367 C94.0298776,77.0279184 98.0064762,77.2788027 95.496,73.3827483 C96.5006259,73.8388027 97.0138231,74.0722721 97.8606259,74.4564898 L97.8606259,74.4564898 Z M127.532463,60.1947211 C130.547429,60.7928163 131.383891,63.244517 131.889469,65.7147211 C132.193143,67.2031565 132.59151,68.0864218 134.109333,67.3451973 C136.537088,66.1593469 138.956136,64.9076463 141.202122,63.4181224 C142.341714,62.6622041 143.094912,61.3250612 144.025524,60.2475102 C145.657088,61.9677823 145.510694,68.2491429 143.611374,72.7726803 C141.608653,71.5253333 139.63151,70.3536327 137.717497,69.0861497 C135.535728,67.6412517 133.633143,68.0847891 132.147429,70.3873741 C133.343075,71.7217959 134.512599,73.0268299 135.684844,74.3340408 C133.716408,73.6113197 130.759673,74.0456054 131.234776,70.4466939 C131.284299,70.0711837 130.74498,69.5258776 130.359129,69.202068 C129.36702,68.3683265 128.307429,67.6151293 126.895728,66.5413878 C125.931918,66.7748571 124.343347,67.1607075 122.857633,67.5215238 C123.244027,68.7198912 123.564571,69.7136327 123.885116,70.7073741 L120.673143,70.7073741 C120.730286,69.5802993 120.772735,68.7313197 120.863075,66.9430204 C119.530286,68.187102 118.795048,68.8739048 118.513687,69.1367619 C116.500082,68.8635646 114.766748,68.6290068 112.251374,68.2877823 C113.116136,69.762068 113.536272,70.4771701 113.95532,71.1917279 C114.100626,70.8934966 114.246476,70.5947211 114.391238,70.297034 C115.703891,70.6600272 117.053551,70.9359456 118.301986,71.4540408 C118.582259,71.5705034 118.51151,72.5348571 118.602395,73.1090068 L115.806204,73.1090068 C115.584707,73.4839728 115.178177,74.1724082 115.099265,74.3057415 C113.547156,73.2358095 112.238857,72.3329524 110.930014,71.4306395 L111.005116,71.4866939 C111.116136,70.3166259 110.796136,68.6709116 111.438857,68.0885986 C112.391238,67.2265578 113.998857,66.9337687 115.376816,66.7242449 C119.496,66.0989388 123.647837,65.6896871 127.763755,65.046966 C128.471782,64.9364898 129.066068,64.0962177 129.712599,63.5928163 C129.565116,63.4001633 129.418177,63.2075102 129.270694,63.0148571 C128.401034,63.3626122 127.558041,63.9035646 126.657361,64.0265578 C121.752327,64.6948571 116.824435,65.1998912 111.928653,65.926966 C111.223891,66.032 110.674776,67.0611156 110.012463,67.6129524 C109.236952,68.259483 108.491918,69.0328163 107.590694,69.4088707 C106.891374,69.7005714 105.97219,69.467102 105.491646,69.467102 C105.59015,71.1166259 105.664163,72.3476463 105.737633,73.5781224 C105.395864,73.6766259 105.053551,73.7751293 104.711238,73.8730884 C103.774639,72.9783946 102.919673,71.9639728 101.861714,71.2499592 C101.448653,70.9713197 100.578993,71.3696871 99.9172245,71.459483 C100.094095,72.6622041 100.227429,73.8736327 100.461442,75.0649252 C100.627973,75.9111837 100.931102,76.7307755 101.283211,77.9405714 C101.635864,78.0602993 102.519673,78.3590748 103.745252,78.7748571 C102.871238,80.1027483 102.185524,81.1454694 101.574367,82.0739048 C100.285116,80.524517 99.2200816,79.2456054 97.9607619,77.7332245 C96.4570884,80.2349932 95.2053878,82.3166259 93.6728707,84.8668299 C98.0592653,84.3634286 101.528653,84.1979864 104.883755,83.4888707 C106.760218,83.0921361 108.44566,81.7947211 110.370558,80.8260136 C110.408109,80.9163537 110.698721,81.6162177 111.053551,82.4706395 C114.614912,81.6211156 118.061986,80.7514558 121.533551,79.9917279 C123.256,79.6140408 124.987156,79.5177143 125.361034,81.8115918 C126.689469,80.1223401 128.409197,78.7280544 129.006204,76.9555374 C129.62117,75.1275102 129.142803,72.9321361 129.142803,70.8973061 C129.507429,70.9098231 129.872054,70.9228844 130.236136,70.9359456 C130.325932,71.8725442 130.455456,72.8075102 130.495184,73.7462857 C130.540354,74.8085986 130.506068,75.8741769 130.506068,76.1430204 C131.65981,76.9773061 132.475048,77.3016599 132.879401,77.9024762 C135.317497,81.5302313 136.462531,81.7087347 140.153959,78.5685986 C138.618721,77.1133605 137.101442,75.6766259 135.584163,74.2393469 C137.883483,75.6298231 140.182803,77.0202993 142.657361,78.5163537 C143.51015,77.1754014 144.579537,76.1022041 145.663619,79.1324082 C145.952054,77.384381 145.83015,75.9601633 146.460898,75.0703673 C146.877224,74.4837007 148.377633,74.667102 149.585796,74.4749932 C150.19532,73.9628844 151.134639,73.1726803 152.075048,72.3835646 C152.35151,72.1511837 152.735184,71.6662857 152.893551,71.7305034 C155.804571,72.9147211 156.257361,71.7354014 155.458993,69.1873741 C155.434503,69.1106395 156.292735,68.5511837 156.468517,68.6583946 C156.862531,68.9005714 157.395864,69.4823401 157.329469,69.8181224 C156.900082,71.989551 156.453823,74.174585 155.763755,76.2725442 C154.930014,78.8053333 153.964571,81.312 152.819537,83.716898 C152.359129,84.6850612 151.330014,85.4290068 150.446204,86.1321361 C149.873687,86.587102 149.095456,86.7835646 148.409197,87.0959456 C148.420626,87.3473741 148.432054,87.5988027 148.443483,87.8496871 C149.124299,88.0091429 149.798041,88.2529524 150.487565,88.314449 C153.786068,88.6088707 157.093823,88.806966 160.384707,89.1650612 C160.91151,89.2227483 161.369197,89.9166259 161.858993,90.3166259 C161.282667,90.5865578 160.68566,91.1237007 160.132735,91.0807075 C157.469878,90.8760816 154.814095,90.554449 152.165932,90.1930884 C150.877224,90.0167619 149.622259,89.5378503 148.333007,89.4360816 C147.525388,89.3713197 146.51532,89.5247891 145.890014,89.9824762 C144.592054,90.9332245 143.490558,92.1522721 141.79151,93.7446531 L152.473959,93.7446531 C152.248653,95.8273741 151.609741,96.2137687 149.768653,96.0075102 C146.002667,95.5846531 142.176816,95.649415 138.375456,95.6417959 C137.831238,95.6407075 137.286476,96.352 136.741714,96.7334966 L136.792327,96.6730884 C132.894095,97.0300952 128.995864,97.3865578 125.097633,97.7435646 C125.082395,98.049415 125.066612,98.3558095 125.051918,98.6616599 C126.502803,98.7939048 127.954231,98.9266939 129.405116,99.0589388 C122.877224,100.822204 116.327565,98.0679184 109.143891,98.7465578 C107.365388,96.919619 104.592599,97.5775782 101.788245,98.2284626 C100.757497,98.4679184 99.6402177,98.3607075 98.6323265,98.654585 C97.9743673,98.8466939 97.4432109,99.4747211 96.8549116,99.9073741 C97.4905578,100.35581 98.0799456,100.900571 98.7721905,101.228735 C99.6331429,101.636898 100.578993,101.866558 101.488381,102.172952 C101.413823,102.423837 101.338177,102.675265 101.262531,102.92615 C98.7917823,102.92615 96.3188571,102.983293 93.8497415,102.911456 C90.8380408,102.824381 87.736,102.095129 84.8413061,102.604517 C80.3613061,103.393088 76.0037551,104.929959 71.6413061,106.299211 C70.5833469,106.631728 69.7942313,107.812136 68.7368163,108.153905 C63.4263401,109.869823 58.4195374,108.012952 53.2962721,106.843973 C50.6464762,106.239347 48.2018503,104.80751 45.2657959,105.011048 C44.2921905,105.077986 43.1972245,103.393088 41.9096054,102.298667 C38.6878367,102.833633 36.1136871,100.40751 33.1923265,98.9653333 C29.8257959,97.3038367 26.4407619,95.6733605 23.1324626,93.9013878 C22.0543673,93.3239728 21.1928707,92.3432925 20.2323265,91.5465578 C21.3169524,90.7552653 22.2992653,89.5683265 23.5074286,89.2575782 C25.743619,88.6823401 28.1218503,88.6905034 30.4206259,88.3291429 C34.5626667,87.6788027 38.6965442,86.9756735 42.8200816,86.2186667 C46.8940952,85.4709116 50.9501497,84.6290068 55.4502857,83.741932 C55.1183129,81.1008435 54.6655238,78.5473741 54.5038912,75.9759456 C54.2551837,72.0096871 54.0821224,68.0276463 54.1866122,64.0608435 C54.2051156,63.3457415 55.6391293,62.2208435 56.5555918,62.0597551 C59.4600816,61.5503673 62.4440272,61.5062857 65.361034,61.0491429 C66.030966,60.9441088 67.0845714,59.8834286 67.058449,59.304381 C66.9000816,55.8404354 66.4423946,52.3911837 66.1588571,48.9305034 C66.0407619,47.4905034 66.1381769,46.0347211 66.0821224,44.5881905 C65.7615782,36.389551 65.4589932,28.1892789 65.0758639,19.9933605 C64.9245714,16.7503673 64.5795374,13.5171701 64.3237551,10.2932245 C66.3362721,9.28206803 66.3362721,9.28206803 67.3893333,13.6151293 C68.9904218,13.766966 70.4886531,14.0412517 71.9738231,13.9841088 C72.5452517,13.9617959 73.4045714,13.2880544 73.5847075,12.7334966 C74.1768163,10.9125442 74.5169524,9.0105034 75.103619,6.49893878 C75.8214422,7.61567347 76.2442993,8.38791837 76.7776327,9.07417687 C77.5052517,10.0113197 77.2870204,11.8834286 79.403483,11.6080544 C79.6745034,11.5726803 80.443483,13.5046531 80.540898,14.5653333 C80.6247075,15.4823401 80.0815782,16.4575782 79.7811701,17.5291429 C79.8051156,17.5204354 79.6048435,17.6733605 79.4872925,17.6254694 C78.5925986,17.2586667 77.7131429,16.8521361 76.8293333,16.4581224 C77.3207619,17.3838367 77.8214422,18.3046531 78.2998095,19.2374422 C78.4543673,19.5378503 78.5506939,19.8681905 78.6894694,20.1941769 C78.2900136,20.9484626 77.5433469,21.6831565 77.5172245,22.4423401 C77.4056599,25.7272381 77.3920544,29.0251973 77.5798095,32.3046531 C77.6603537,33.7109116 78.3199456,35.084517 78.7177687,36.4798912 C79.5330068,35.9743129 80.4723265,35.392 81.411102,34.8102313 C81.5068844,34.9598912 81.6026667,35.1100952 81.698449,35.2597551 C81.3496054,36.0303673 81.0007619,36.8009796 80.5702857,37.7500952 C82.5773605,37.9797551 83.7300136,37.3479184 83.6173605,35.4856054 C83.2837551,29.959619 83.7838912,24.1283265 78.6116463,20.1734966 C79.8437551,20.6638367 81.0753197,21.1547211 82.4527347,21.7032925 L82.4527347,8.07608163 C84.4527347,9.72070748 86.0053878,10.9985306 87.933551,12.5838367 C86.9457959,13.0197551 86.1272925,13.3811156 85.0421224,13.8600272 C85.0421224,18.1114558 85.2489252,22.5174422 84.9561361,26.8896871 C84.8053878,29.1411156 86.8206259,31.3805714 84.738449,33.7887347 C84.283483,34.3149932 85.563483,36.7846531 87.743619,36.7705034 C89.7496054,36.7574422 90.1811701,35.7092789 90.0277007,33.9705034 C89.6026667,29.1650612 89.3447075,24.3422041 88.7716463,19.5558095 C88.6274286,18.3498231 87.5498776,17.2554014 86.7444354,15.834449 C87.4481088,16.0706395 87.9803537,16.2491429 88.8799456,16.5517279 C88.8799456,13.8687347 88.8804898,11.3049252 88.8799456,8.74111565 C88.8799456,8.10655782 88.7520544,7.4382585 88.9125986,6.84778231 C89.0600816,6.30410884 89.4394014,5.75009524 89.8742313,5.39363265 C90.0543673,5.24614966 90.9077007,5.5057415 90.9980408,5.74955102 C91.1874286,6.26438095 91.2032109,6.92397279 91.058449,7.4627483 C90.8750476,8.1490068 90.4625306,8.77485714 90.1496054,9.42519728 C91.9395374,9.93186395 93.3425306,10.3291429 95.411102,10.9141769 C95.1645714,9.43989116 95.0851156,7.94002721 94.6426667,6.55662585 C93.9765442,4.47444898 94.1354558,2.90002721 96.528381,1.83118367 C96.9604898,2.68778231 97.3033469,3.36805442 97.7267483,4.20887075 L101.26634,4.20887075 C101.365388,4.51145578 101.463891,4.81458503 101.563483,5.11771429 C100.26498,5.70165986 98.9664762,6.28560544 97.525932,6.93376871 C99.0905578,8.43961905 100.296544,7.20097959 101.595592,6.63662585 C102.355864,6.30682993 103.484571,5.78438095 103.95151,6.09458503 C104.483755,6.44887075 104.430966,7.64288435 104.69219,8.45268027 C105.180354,9.96451701 105.71151,11.4622041 106.34117,13.3060136 C106.270966,13.3462857 105.701714,13.6717279 104.514231,14.3503673 C106.565932,15.2641088 108.235048,16.0080544 110.328109,16.9408435 C110.328109,14.2932245 110.495728,12.2290068 110.274776,10.2072381 C110.104435,8.65512925 109.567837,7.25376871 111.304435,6.16478912 C111.597224,5.98138776 111.295728,4.78519728 111.202667,4.06519728 C111.039946,2.81295238 110.826068,1.56778231 110.634503,0.318802721 C110.993143,0.212680272 111.351782,0.106013605 111.710422,0.00043537415 C112.069061,0.85322449 112.756408,1.7212517 112.718857,2.55608163 C112.633415,4.46356463 113.679401,5.07254422 115.190694,4.96206803 C116.76566,4.84669388 117.657633,4.98927891 118.042395,6.85757823 C118.380898,8.50220408 119.48566,8.91091156 120.556136,7.1149932 C121.050286,6.28778231 121.669605,5.53512925 122.446204,4.44887075 C121.279401,4.3090068 120.494639,4.21485714 119.709878,4.12070748 C119.673415,3.80288435 119.636952,3.48506122 119.599946,3.16778231 C124.488653,2.30846259 129.376816,1.44914286 134.26498,0.589823129 C134.360762,0.94737415 134.456,1.30492517 134.551782,1.66247619 C132.083755,3.552 128.883211,3.55907483 125.990694,4.73458503 C130.722667,5.06111565 135.454639,5.38764626 140.187156,5.71417687 C140.207293,6.03907483 140.226884,6.36397279 140.24702,6.68887075 C139.398041,7.00397279 138.337905,7.11009524 137.759946,7.69295238 C137.181986,8.27689796 137.085116,9.33757823 136.598585,10.6850612 C139.763755,9.5949932 142.119129,8.58710204 141.957497,5.19281633 C144.45981,5.93186395 144.672054,6.35580952 143.217905,7.88234014 C142.009197,9.15036735 140.611102,10.2377143 139.296816,11.4050612 C139.399129,11.7038367 139.501986,12.0031565 139.604299,12.301932 C141.901442,12.4129524 144.202939,12.4641088 146.493551,12.6551293 C148.085388,12.7873741 149.656544,13.1509116 151.245116,13.3392109 C153.841578,13.6466939 156.448381,13.8698231 159.042667,14.1985306 C159.408925,14.2453333 159.724571,14.6888707 160.140898,15.0083265 C156.554503,17.6559456 153.105252,20.2023401 149.300082,23.0115918 C153.251102,26.104381 157.362122,26.6148571 161.472054,27.126966 C161.467701,27.3729524 161.462803,27.6189388 161.458993,27.8649252 C159.917769,28.0232925 158.376544,28.1816599 156.448925,28.3797551 C157.093823,29.2842449 157.523211,29.8872381 158.155592,30.7748571 C154.300354,33.7854694 148.87668,31.6200272 145.345252,34.2415238 C141.887837,34.6589388 138.682395,35.0458776 135.476952,35.4328163 C135.411646,35.224381 135.346884,35.0159456 135.282122,34.8080544 C134.885388,35.4632925 134.489741,36.1179864 134.02117,36.8924082 C133.185252,36.4651973 132.488653,36.1081905 131.636952,35.6728163 C131.219537,36.3198912 130.807565,36.9582585 130.559401,37.3435646 L114.815184,37.3435646 C115.119401,36.3383946 115.159129,35.1558095 115.574367,35.004517 C118.233959,34.0374422 117.295728,31.7680544 117.230966,30.1326803 C117.088925,26.5626122 116.617633,22.9865578 115.980354,19.4681905 C115.778449,18.3530884 114.623075,17.4115918 113.903619,16.3906395 L112.842939,16.6997551 C112.842939,20.7971701 112.781442,24.8967619 112.917497,28.9892789 C112.935456,29.5324082 113.958585,30.0423401 114.531646,30.5816599 C112.872327,32.676898 111.881306,34.9566259 113.829605,37.624381 C114.097361,37.9911837 113.946612,38.6801633 113.950422,39.2205714 C113.980354,43.5503673 113.942259,47.8817959 114.079401,52.2077823 C114.103891,52.9914558 115.000762,54.4559456 115.210286,54.4064218 C116.313415,54.1446531 117.581986,53.7212517 118.284571,52.912 C118.811374,52.3051973 118.718313,51.0186667 118.642667,50.0554014 C118.381442,46.756898 117.964027,43.4709116 117.718041,40.1724082 C117.679401,39.6532245 118.219265,39.0915918 118.491918,38.5500952 C118.88049,38.5930884 119.269061,38.6360816 119.657633,38.6790748 C119.923211,42.2442449 120.479946,45.8186667 120.371646,49.3718639 C120.269333,52.7378503 120.658449,55.3201633 124.199129,56.8249252 C125.574912,57.4099592 126.486476,59.0872381 127.608109,60.2660136 C126.433687,59.7174422 125.041578,59.4083265 124.126748,58.5751293 C121.509061,56.192 121.585252,56.1081905 119.537905,58.6230204 C119.264707,58.4249252 119.003483,58.1941769 118.70634,58.0260136 C117.754503,57.4872381 116.789061,56.9707755 115.829605,56.4461497 C115.571646,57.3936327 115.435592,58.3988027 115.022531,59.2733605 C114.576272,60.2186667 113.870422,61.0415238 113.277224,61.9177143 C112.898993,61.0447891 112.183347,60.1626122 112.207293,59.3005714 C112.272054,56.9321361 111.694639,55.7174422 109.118313,56.7607075 C111.837224,55.2390748 112.735728,52.9473741 112.164844,49.9481905 C111.839401,48.234449 111.474231,46.4956735 111.453007,44.764517 C111.423075,42.3851973 111.702803,40.0026122 111.849741,37.6216599 C111.563483,37.4600272 111.277224,37.2983946 110.990422,37.1362177 C109.531374,37.8268299 108.071238,38.516898 106.713959,39.1590748 C107.01219,40.5027483 107.408381,41.5329524 107.439401,42.5734966 C107.530286,45.6423401 107.594503,48.722068 107.435592,51.7854694 C107.333279,53.7522721 107.62117,55.4262857 109.152599,56.7536327 C107.63532,57.8072381 106.837497,59.0164898 107.863347,60.9310476 C108.131102,61.4306395 107.799129,62.2513197 107.742531,62.9250612 C106.993687,62.4951293 105.799673,62.2159456 105.591782,61.6026122 C105.184163,60.3988027 105.325116,59.0083265 105.236408,57.6543129 C104.186612,57.5073741 103.220082,57.3724082 101.887837,57.1862857 C103.107973,56.3035646 104.477769,55.829551 104.598585,55.1383946 C105.194503,51.7141769 105.887837,48.2110476 105.709878,44.7786667 C105.561306,41.9073741 104.257361,39.0959456 103.477497,36.3024762 C102.207293,36.9081905 101.07532,37.3838367 100.016272,37.9851973 C99.6140952,38.2143129 99.113415,38.7313197 99.1068844,39.1237007 C99.053551,42.3841088 98.8968163,45.6641088 99.1754558,48.9032925 C99.568381,53.4725442 100.423891,58.002068 100.815728,62.5713197 C100.914231,63.716898 99.9972245,64.949551 99.5471565,66.1424762 C99.2402177,66.0788027 98.9332789,66.0151293 98.6263401,65.952 C98.1468844,64.5468299 97.7223946,63.1198912 97.1672925,61.7457415 C96.8222585,60.8913197 96.278585,60.1174422 95.8241633,59.3076463 C95.3229388,60.187102 94.7645714,61.0404354 94.3482449,61.9579864 C94.1773605,62.3356735 94.4140952,62.8826122 94.288381,63.2989388 C94.0331429,64.1413878 93.7125986,64.9811156 93.2630748,65.7283265 C93.2053878,65.8241088 92.2192653,65.3615238 91.663619,65.1574422 C92.0287891,64.4276463 92.4048435,63.7027483 92.7520544,62.9642449 C92.8206259,62.8173061 92.7798095,62.6181224 92.7863401,62.4428844 C89.8949116,59.0105034 89.8949116,59.0105034 86.9447075,60.8602993 C88.4630748,64.9740408 88.1272925,66.1729524 85.1776327,66.499483 C85.1074286,65.2515918 85.2162721,63.9650612 84.9120544,62.7857415 C84.6666122,61.8333605 83.9232109,61.0099592 83.4007619,60.1288707 C82.2404898,61.4246531 78.9746395,59.6989388 79.230966,63.0839728 C79.3202177,64.2681905 79.1357279,65.4741769 79.070966,66.7754014 C76.6780408,66.4521361 76.6399456,65.0480544 76.5789932,63.5280544 C76.4679728,60.777034 75.3599456,60.217034 72.9104218,61.5400272 C72.1681088,61.9411156 71.3980408,62.2915918 70.1104218,62.9266939 C70.2345034,61.4072381 70.3074286,60.5130884 70.401034,59.3675102 C71.176,59.6690068 71.5678367,59.8622041 71.9814422,59.977034 C75.6946395,61.0039728 76.5664762,60.4015238 76.6943673,56.6458776 C76.923483,49.9139048 74.725932,43.3179864 75.5346395,36.5479184 C75.5449796,36.4635646 75.2750476,36.3454694 75.133551,36.2453333 C69.8987211,39.8262857 69.058449,41.2200272 70.9213061,42.8728163 C71.3626667,42.116898 71.8219864,41.3305034 72.2807619,40.5446531 C72.8783129,41.1198912 73.4758639,41.6951293 74.073415,42.2703673 C73.3762721,42.9816599 72.7498776,44.1903673 71.9672925,44.3013878 C70.283483,44.5408435 69.7164082,45.3098231 69.9057959,46.8118639 C70.0842993,48.2268299 70.4794014,49.6167619 70.6290612,51.0328163 C70.8255238,52.8902313 70.8755918,54.7628844 70.9882449,56.6290068 C70.6551837,56.6475102 70.3215782,56.6665578 69.9879728,56.6850612 C69.8094694,54.2687347 69.5928707,51.854585 69.4638912,49.4360816 C69.3447075,47.1797551 69.390966,44.9125442 69.1896054,42.6654694 C69.1498776,42.2284626 68.3063401,41.8638367 67.833415,41.4654694 C67.6951837,41.9977143 67.3882449,42.5500952 67.4513741,43.0567619 C67.648381,44.6224762 68.283483,46.1832925 68.2165442,47.7234286 C67.9613061,53.5759456 69.0051156,59.2766259 69.8595374,65.0105034 C69.9879728,65.8741769 69.6679728,66.8047891 69.5547755,67.704381 C69.1955918,67.6896871 68.8364082,67.6749932 68.4777687,67.6597551 C68.3841633,66.777034 68.3574966,65.8801633 68.1746395,65.0159456 C68.0374966,64.3672381 67.878585,63.5041088 67.4187211,63.1841088 C66.1196735,62.2817959 60.7901497,63.3326803 59.1340952,64.8983946 C61.7490612,66.2431565 64.6987211,67.0518639 66.6377687,68.9130884 C70.0717823,72.2088707 73.8372245,70.8711837 77.4056599,70.3737687 C84.1604898,69.4328163 90.8380408,67.9367619 97.5542313,66.7046531 C97.8143673,66.6567619 98.1387211,66.9566259 98.4336871,67.0943129 C98.4516463,67.3016599 98.4696054,67.5084626 98.4886531,67.7158095 C92.5740952,68.7231565 86.6600816,69.7310476 80.746068,70.7383946 C81.1983129,71.4300952 81.5580408,71.5688707 81.8943673,71.5275102 C84.5131429,71.2031565 87.1275646,70.8423401 89.7430748,70.4962177 C92.3787211,70.1473741 95.0127347,69.7860136 97.6505578,69.4605714 C100.281306,69.1367619 102.920218,68.8788027 105.547701,68.5337687 C106.63668,68.3911837 107.705524,68.0978503 108.783619,67.8730884 L108.52566,66.6687347 C106.247565,66.9593469 103.970558,67.2505034 101.692463,67.5416599 C101.626612,67.2009796 101.560218,66.8602993 101.493823,66.519619 C102.310694,66.2589388 103.112327,65.8534966 103.947701,65.7626122 C106.916952,65.4404354 109.915048,65.3500952 112.869605,64.9386667 C117.079129,64.3525442 121.247837,63.4801633 125.456816,62.8940408 C127.229878,62.6475102 127.857361,61.8785306 127.532463,60.1947211 L127.532463,60.1947211 Z" id="Fill-1" fill="#231916"></path>
                <path d="M34.8797823,123.063837 C38.6631837,121.603156 42.4971973,122.822748 46.2392381,123.372952 C48.5608707,123.714721 50.7459048,124.958259 53.006585,125.757714 C53.4201905,125.904109 54.0220952,126.060299 54.3333878,125.873088 C56.6452245,124.484245 58.9320272,125.814313 61.1676735,126.010776 C63.5943401,126.224109 66.0395102,126.976762 68.3192381,127.888327 C70.2653605,128.666558 71.9567891,129.357714 73.7075374,127.657034 C73.9284898,127.442612 74.3295782,127.305469 74.6441361,127.310912 C80.1396463,127.402884 85.646585,127.340844 91.1252245,127.707646 C94.1744762,127.912272 97.1758367,128.840707 100.197878,129.442612 C100.192435,129.710912 100.186449,129.979755 100.180463,130.248054 C98.6996463,130.342204 97.2188299,130.436354 95.7374694,130.531048 C95.6879456,130.823837 95.6384218,131.116626 95.588898,131.409959 C97.3984218,131.779483 99.234068,132.055401 101.007673,132.553361 C102.038966,132.842884 102.970667,133.488871 103.737469,134.552816 C95.0952925,135.294041 86.801415,134.563701 78.8509388,131.517714 C78.9031837,131.156898 78.9543401,130.796082 79.006585,130.435265 C80.5973333,130.766694 82.1897143,131.092136 83.7788299,131.431728 C85.4294422,131.784381 87.0642721,132.237714 88.7295782,132.486422 C90.4694422,132.747102 92.2381497,132.816218 93.9943401,132.969143 C94.0748844,132.667102 94.1559728,132.365605 94.236517,132.064109 C93.5703946,131.918803 92.7720272,131.465469 92.2620952,131.684789 C90.6631837,132.37268 89.7630476,131.963973 89.0599184,130.424381 C88.7959728,129.848054 88.1031837,129.12751 87.5513469,129.077986 C84.0901224,128.767782 80.5744762,127.417034 77.1796463,129.501932 C76.3774694,129.994449 75.3935238,130.325878 74.4580136,130.444517 C68.7437279,131.167238 63.301551,129.645061 57.8582857,128.25785 C52.4220952,126.872816 47.0403265,125.25268 41.5660408,124.047782 C39.4452245,123.581388 37.1355646,123.971592 34.9118912,123.971592 L34.8797823,123.063837 Z" id="Fill-3" fill="#231916"></path>
                <path d="M102.59766,108.797497 C105.172354,109.353143 107.747592,109.908245 110.368,110.473687 C112.025143,107.952871 111.975075,107.996952 113.91249,110.187973 C114.260245,110.580898 115.214259,110.437769 115.888,110.541714 C115.937524,110.017633 115.987048,109.494095 116.07249,108.580354 L129.450449,108.580354 C128.928,107.836408 128.726095,107.328109 128.555755,107.338993 C124.003918,107.620898 119.62351,105.451102 114.955755,106.624435 C112.520925,107.236136 109.877116,107.004844 107.329088,107.171918 C102.900789,107.461986 98.4752109,107.805388 94.0436463,108.046476 C92.0877279,108.153143 90.1198367,108.064435 88.157932,108.064435 C88.1051429,107.736816 88.052898,107.408653 88.0006531,107.08049 C89.4384762,106.673959 90.8768435,106.266884 92.3141224,105.860354 C92.2820136,105.670422 92.2488163,105.481034 92.2167075,105.291646 C89.9870476,105.553959 87.7568435,105.815728 85.5277279,106.078041 C85.5658231,106.181442 85.6044626,106.284299 85.643102,106.387701 C83.8945306,106.073143 82.145415,105.758041 79.5995646,105.299265 C80.7816054,104.770286 81.4286803,104.239673 82.0860952,104.226612 C85.3824218,104.159673 88.6874558,104.119401 91.9783401,104.288653 C93.905415,104.387701 95.8188844,105.199673 97.7258231,105.153959 C101.128272,105.073415 104.520925,104.586884 107.985959,104.263075 C108.05181,103.513143 108.102422,102.936272 108.166639,102.209741 C108.730993,102.270694 109.203374,102.215184 109.579973,102.378993 C112.568816,103.680218 115.554939,104.672871 118.947592,104.286476 C120.348952,104.12702 121.849361,104.90634 123.313306,105.214912 C125.03902,105.578993 126.812626,105.770014 128.492082,106.277769 C129.59902,106.613007 130.533986,107.482122 131.621878,107.924027 C133.643646,108.744163 135.721469,109.426612 137.775891,110.166748 C137.769905,110.402939 137.763918,110.638585 137.757932,110.874231 C135.833578,110.726204 133.911401,110.540082 131.984871,110.438313 C128.245551,110.240762 123.698068,108.681034 120.949224,110.249469 C116.744599,112.648925 112.840925,111.598041 108.815891,111.791238 C107.023782,111.877224 105.171265,111.150694 103.38732,110.648381 C102.919293,110.51668 102.603102,109.845116 102.217796,109.421714 C102.344054,109.213823 102.471401,109.005388 102.59766,108.797497" id="Fill-5" fill="#231916"></path>
                <path d="M45.9118367,133.668082 C49.0780952,137.032435 66.0043537,140.155701 68.8370068,138.389714 C61.6413605,135.873252 54.3695238,133.163048 45.9118367,133.668082 M77.0802721,142.053932 C75.5058503,141.706721 73.9308844,141.358966 71.7991837,140.889306 C72.9164626,140.377197 73.3812245,140.164408 73.8454422,139.951075 L73.7866667,139.309442 C73.022585,139.347537 72.2187755,139.241959 71.502585,139.446585 C66.7330612,140.811483 62.0429932,139.848218 57.2484354,139.460735 C52.2046259,139.052027 48.1692517,136.305905 43.5570068,134.975837 C35.7447619,132.72332 27.8497959,132.16332 19.8242177,132.567129 C16.4228571,132.738014 13.0345578,133.147265 9.63428571,133.354068 C9.1292517,133.384544 8.59319728,132.89366 8.07129252,132.644408 C8.54911565,132.254748 9.07809524,131.481959 9.49659864,131.538014 C12.3510204,131.91951 14.9491156,130.496925 18.0729252,131.183728 C21.7295238,131.987537 25.8497959,130.377197 29.7213605,130.606857 C33.4731973,130.829442 37.1657143,132.054476 40.8827211,132.846313 C41.5412245,132.986721 42.2029932,133.330667 42.8451701,133.292027 C46.9736054,133.043864 51.1107483,132.365769 55.2195918,132.517061 C58.9034014,132.652027 62.6078912,133.46781 66.1964626,134.394612 C67.7278912,134.790259 68.9687075,136.262912 70.3842177,137.181551 C70.9006803,137.516789 71.5961905,137.951619 72.1137415,137.84985 C75.1053061,137.262095 76.0946939,139.438422 77.3616327,141.268626 C77.2680272,141.530395 77.1738776,141.792163 77.0802721,142.053932" id="Fill-7" fill="#231916"></path>
                <path d="M62.563102,122.018177 C53.7935782,121.998585 42.5701769,119.149605 40.963102,116.142803 C42.6213333,116.575456 43.9753469,116.839946 45.2673197,117.284027 C47.8866395,118.185252 50.3639184,119.531646 53.350585,118.454095 C53.9416054,118.241306 55.0207891,119.381442 55.633034,119.75151 C58.2708571,119.602395 60.8107211,119.458177 63.3511293,119.314503 C63.3832381,119.183347 63.4153469,119.051646 63.448,118.92049 C61.5176599,118.33981 59.5873197,117.759673 57.6569796,117.178993 C57.695619,116.938993 57.7342585,116.699537 57.772898,116.459537 C64.5103129,117.627973 71.2477279,118.796952 77.9856871,119.965932 C78.012898,120.192327 78.0401088,120.419265 78.0673197,120.646204 C72.8771156,121.116952 67.6869116,121.587156 62.4967075,122.058449 L62.563102,122.018177 Z" id="Fill-9" fill="#231916"></path>
                <path d="M144.470531,146.24381 C143.808218,146.606803 143.162231,147.246259 142.480871,147.287075 C137.872435,147.562449 133.365769,149.454694 128.615293,147.887891 C126.991891,147.352381 125.074612,147.775238 123.313524,147.573333 C118.345361,147.004082 113.388626,146.336871 108.427537,145.71102 C108.157605,145.676735 107.885497,145.65932 107.613932,145.647347 C99.4446803,145.29034 91.2748844,144.934966 83.1050884,144.576871 C82.3861769,144.544762 81.6661769,144.508844 80.9510748,144.432109 C80.8405986,144.42068 80.7546122,144.18068 80.5924354,143.957551 C80.7660408,143.798639 80.9412789,143.49932 81.1159728,143.498776 C87.9611429,143.482993 94.809034,143.38449 101.650395,143.546122 C105.31298,143.633197 109.09366,143.685442 112.594068,144.611156 C120.704544,146.755918 128.905905,146.660136 137.143728,146.495238 C138.265361,146.472925 139.371211,146.004354 140.498286,145.847619 C141.758694,145.672925 143.035429,145.618503 144.305088,145.511293 C144.360054,145.755646 144.41502,145.999456 144.470531,146.24381" id="Fill-11" fill="#231916"></path>
                <path d="M2.39678912,77.5738231 C4.02617687,77.1025306 5.63651701,76.3302857 7.28985034,76.2219864 C10.8386939,75.9896054 14.4152925,75.9662041 17.9706667,76.1006259 C23.2158367,76.2987211 28.4501224,76.8151837 33.6952925,76.9637551 C35.2452245,77.0072925 36.8256327,76.2949116 38.3761088,75.8720544 C38.8882177,75.7327347 39.3720272,75.176 39.8335238,75.2168163 C43.1570612,75.5096054 46.4718912,75.9063401 49.7894422,76.2698776 C49.7910748,76.5098776 49.7927075,76.7498776 49.7943401,76.9898776 L38.8620952,76.9898776 C38.8419592,77.3501497 38.8212789,77.7104218 38.8011429,78.0706939 C42.5932517,78.5343673 46.386449,78.9974966 50.1796463,79.4606259 C50.1605986,79.5645714 50.141551,79.668517 50.1225034,79.7724626 C47.2180136,79.7724626 44.2950204,79.9792653 41.413932,79.7202177 C37.7578776,79.390966 34.1404626,78.6426667 30.496381,78.1528707 C27.4961088,77.7496054 24.4718912,77.1112381 21.4748844,77.1928707 C15.5766531,77.353415 9.68985034,77.9428027 3.79814966,78.3487891 C3.38889796,78.3770884 2.97638095,78.3525986 2.56604082,78.3525986 C2.50944218,78.0930068 2.45338776,77.833415 2.39678912,77.5738231" id="Fill-13" fill="#231916"></path>
                <path d="M2.70394558,152.698449 C3.73251701,152.500354 4.76870748,152.096544 5.78693878,152.137361 C13.1512925,152.432327 20.5112925,152.851918 27.875102,153.156136 C30.6789116,153.272054 33.4990476,153.054912 36.2979592,153.225796 C41.1654422,153.522395 46.022585,154.002395 51.1561905,154.428517 C49.1512925,155.926204 47.3102041,156.52049 45.1044898,155.322667 C44.5167347,155.003211 43.7161905,155.026068 43.0087075,154.985252 C38.5178231,154.725116 34.0269388,154.346884 29.5327891,154.298993 C26.6005442,154.267973 23.6563265,154.985252 20.7284354,154.915592 C14.9858503,154.779537 9.25088435,154.332735 3.51428571,153.992054 C3.29006803,153.978993 3.07836735,153.736816 2.86122449,153.601306 C2.80843537,153.300354 2.75673469,152.999401 2.70394558,152.698449" id="Fill-15" fill="#231916"></path>
                <path d="M79.7851429,120.086041 C80.4142585,119.850939 81.1010612,119.321959 81.6621497,119.432435 C83.9620136,119.88468 86.2052789,120.621551 88.5040544,121.081415 C90.5982041,121.499918 92.738068,121.692027 94.8567075,121.991891 C95.3878639,122.066993 96.2052789,121.992435 96.3952109,122.296653 C97.4977959,124.05883 99.0025578,123.764408 100.289088,122.922503 C102.94868,121.183184 105.423782,123.181007 107.99902,123.071619 C110.465415,122.966041 112.956299,123.392707 115.433034,123.625088 C115.81181,123.661007 116.170449,123.910803 117.062966,124.277061 C116.08283,124.636789 115.650177,124.888218 115.193578,124.948082 C112.467592,125.304544 109.741605,125.793252 107.003646,125.886857 C104.880653,125.959782 102.693986,125.729578 100.616163,125.268626 C95.025415,124.028354 89.4890884,122.539918 83.9026939,121.274068 C82.6738503,120.995429 81.3274558,121.233252 80.0349388,121.233252 C79.9516735,120.851211 79.8684082,120.468626 79.7851429,120.086041" id="Fill-17" fill="#231916"></path>
                <path d="M143.387429,130.397769 C140.923211,130.397769 138.448653,130.266612 135.999129,130.457088 C134.904163,130.542531 133.851646,131.255456 132.794231,131.716952 C132.249469,131.954231 131.749878,132.47668 131.207293,132.510422 C125.921306,132.839673 120.632599,133.137361 115.340626,133.340898 C113.604027,133.407837 111.854367,133.070422 110.114503,133.108517 C108.64566,133.14117 107.183347,133.449741 105.383619,133.678313 C105.249197,133.236408 104.980898,132.355864 104.691374,131.406748 C111.793415,131.406748 118.639673,131.451918 125.484844,131.359401 C126.529197,131.345252 127.545252,130.606204 128.611374,130.362395 C129.948517,130.056 131.31668,129.811102 132.683211,129.72185 C136.237497,129.490014 139.798313,129.357769 143.355864,129.185796 C143.366748,129.589605 143.376544,129.993415 143.387429,130.397769" id="Fill-19" fill="#231916"></path>
                <g id="编组" transform="translate(0.000000, 144.303129)">
                    <mask id="mask-2" fill="white">
                        <use xlink:href="#path-1"></use>
                    </mask>
                    <g id="Clip-22"></g>
                    <path d="M30.5265306,2.60767347 C29.6204082,2.79706122 28.705034,3.18454422 27.8097959,3.14427211 C21.8843537,2.87651701 15.9670748,2.39814966 10.04,2.24685714 C7.75918367,2.18862585 5.46585034,2.84767347 3.16870748,3.09801361 C2.15102041,3.20903401 1.11102041,3.11706122 -0.000272108844,2.77801361 C1.58394558,0.885768707 3.74231293,0.261006803 5.97632653,0.329578231 C13.3352381,0.554340136 20.6892517,0.946176871 28.0443537,1.29556463 C28.8519728,1.33420408 29.652517,1.51488435 30.4563265,1.62971429 L30.5265306,2.60767347 Z" id="Fill-21" fill="#231916" mask="url(#mask-2)"></path>
                </g>
                <path d="M28.7971701,108.327184 C24.1076463,108.198748 19.341932,107.515211 14.7541769,108.138884 C11.7451973,108.548136 8.99417687,110.850177 6.12342857,112.296163 C5.56397279,112.578612 5.00342857,112.970449 4.41023129,113.043918 C3.87907483,113.109769 3.30220408,112.805551 2.74601361,112.664599 C3.08397279,112.11766 3.29839456,111.26868 3.78002721,111.072218 C7.81812245,109.424327 11.7914558,107.282286 16.0085986,106.504599 C20.2284626,105.726367 24.9528163,104.808816 28.7465578,108.37834 L28.7971701,108.327184 Z" id="Fill-23" fill="#231916"></path>
                <path d="M47.3446531,83.0234558 C42.6834286,82.5358367 38.0309116,81.8016871 33.3577143,81.634068 C29.0943129,81.4811429 24.8085986,81.9388299 20.5326803,82.1325714 C16.7302313,82.3050884 12.9288707,82.5091701 9.12478912,82.6103946 C8.832,82.6180136 8.52179592,81.9170612 8.2197551,81.5459048 C8.72097959,81.2727075 9.21839456,80.7709388 9.72342857,80.7633197 C13.3337687,80.708898 16.9457415,80.7649524 20.5566259,80.766585 C25.3424762,80.7682177 30.1348571,80.5908027 34.9114558,80.7927075 C39.0752653,80.969034 43.2211156,81.5644082 47.3751293,81.9742041 L47.3446531,83.0234558 Z" id="Fill-25" fill="#231916"></path>
                <path d="M89.3318095,116.324082 C90.2564354,116.324082 91.1952109,116.422585 92.1024218,116.295238 C92.9410612,116.177687 94.1845986,116.066667 94.4915374,115.523537 C95.9837823,112.887347 98.4490884,113.728707 100.559565,113.741769 C101.353578,113.746667 102.140517,114.903673 102.741333,116.097687 L96.0186122,116.097687 C95.9745306,116.324626 95.9309932,116.55102 95.8869116,116.777959 C99.0297687,117.807619 102.172626,118.837279 105.315483,119.867483 L105.159293,120.561905 C99.8776599,119.392381 94.595483,118.222857 89.3138503,117.053333 C89.3198367,116.810612 89.3252789,116.567347 89.3318095,116.324082" id="Fill-27" fill="#231916"></path>
                <path d="M143.495293,105.632925 C140.135837,106.736054 136.232163,105.357007 135.771755,103.512653 C133.800054,103.237279 131.87951,102.969524 129.95951,102.701769 C130.02917,102.262041 130.098286,101.822313 130.167401,101.382041 C133.154612,101.884354 136.141823,102.386122 139.936109,103.023401 C142.676789,101.597007 146.79434,101.70966 148.433524,103.752653 C146.256109,106.177687 143.127401,101.472381 140.922231,104.956463 C141.821823,105.192653 142.658286,105.413061 143.495293,105.632925" id="Fill-29" fill="#231916"></path>
                <path d="M14.6400544,115.14634 C16.9186939,111.820626 35.1962449,111.938177 40.0185578,116.266884 C37.3633197,115.712327 34.7282177,114.998857 32.0463129,114.646748 C29.2245442,114.27668 26.351619,114.053007 23.5113469,114.134639 C20.6884898,114.215728 17.8786939,114.756136 14.6400544,115.14634" id="Fill-31" fill="#231916"></path>
                <path d="M107.492408,139.866558 C116.331048,140.223565 125.169687,140.580027 134.008871,140.937034 C133.996354,141.323973 133.984925,141.710912 133.972408,142.09785 C125.145741,141.731048 116.320163,141.363701 107.494041,140.996898 L107.492408,139.866558 Z" id="Fill-33" fill="#231916"></path>
                <path d="M23.0961633,157.128435 C29.4863673,156.018776 35.8270476,157.300408 42.1737143,158.339864 L23.0782041,158.339864 C23.0841905,157.936054 23.0901769,157.532245 23.0961633,157.128435" id="Fill-35" fill="#231916"></path>
                <path d="M154.82449,136.418667 C147.36,138.754449 136.561088,138.749551 135.197279,136.418667 L154.82449,136.418667 Z" id="Fill-37" fill="#231916"></path>
                <path d="M25.2251973,72.5275646 C23.0521361,72.5275646 20.8736327,72.6293333 18.707102,72.5057959 C14.5933605,72.2717823 10.4828844,71.9490612 6.38329252,71.543619 C5.93866667,71.4995374 5.57131973,70.6728707 5.16805442,70.2091973 C5.752,70.0813061 6.35227211,69.7966803 6.91608163,69.8570884 C8.1367619,69.9882449 9.32914286,70.4165442 10.5492789,70.5096054 C15.4374422,70.8829388 20.3315918,71.1740952 25.2230204,71.4957279 C25.2235646,71.8396735 25.2246531,72.183619 25.2251973,72.5275646" id="Fill-39" fill="#231916"></path>
                <path d="M31.8228027,100.513361 C30.4214422,100.817034 29.026068,101.244789 27.6127347,101.31717 C27.3373605,101.330776 26.9917823,99.9609796 26.445932,98.6864218 L17.7787211,98.6864218 C17.8048435,98.4398912 17.830966,98.1939048 17.8570884,97.9479184 C22.7251156,96.1160816 27.253551,97.5098231 31.7368163,99.3351293 L31.8228027,100.513361 Z" id="Fill-41" fill="#231916"></path>
                <path d="M136.09785,140.982095 C140.086422,142.881959 143.796354,140.776381 147.61132,140.303456 C151.208054,139.858286 154.780299,139.222639 158.362884,138.670259 L158.54302,139.689578 C156.896218,140.071619 155.265197,140.559238 153.597714,140.810122 C150.960435,141.207401 148.298667,141.452299 145.64615,141.750531 C142.973497,142.050939 140.304109,142.391619 137.623837,142.592435 C136.971864,142.641959 136.284517,142.21366 135.612952,142.00468 C135.774585,141.663456 135.936218,141.322776 136.09785,140.982095" id="Fill-43" fill="#231916"></path>
                <path d="M35.6583401,105.215456 C34.9731701,105.273143 34.1388844,105.613279 33.6273197,105.343347 C30.048,103.452735 26.2058231,104.696272 22.520381,104.241306 C21.488,104.113959 20.5018776,103.607837 19.4950748,103.275864 C19.6001088,102.880218 19.7051429,102.485116 19.8101769,102.089469 C25.1282721,102.746884 30.4469116,103.403755 35.765551,104.06117 C35.7301769,104.445932 35.6937143,104.830694 35.6583401,105.215456" id="Fill-45" fill="#231916"></path>
                <path d="M38.210449,105.041143 C42.5086803,106.924136 46.8069116,108.807673 51.1051429,110.691211 L50.6909932,111.760054 C50.1228299,111.577741 49.5573878,111.386721 48.9859592,111.214748 C46.2382041,110.389714 43.4267755,109.725769 40.7671837,108.677061 C39.5862313,108.211211 38.7111293,106.971483 37.6967075,106.08332 C37.8681361,105.735565 38.0395646,105.388354 38.210449,105.041143" id="Fill-47" fill="#231916"></path>
                <path d="M131.659102,126.66449 C136.892844,126.120272 142.124408,125.553197 147.365224,125.092245 C147.669986,125.065578 148.050395,125.904762 148.686041,126.708571 C142.713252,127.041633 137.238966,127.346939 131.76468,127.652245 C131.72985,127.322993 131.693932,126.993741 131.659102,126.66449" id="Fill-49" fill="#231916"></path>
                <g id="编组" transform="translate(53.333333, 158.452789)">
                    <mask id="mask-4" fill="white">
                        <use xlink:href="#path-3"></use>
                    </mask>
                    <g id="Clip-52"></g>
                    <path d="M20.7343673,1.0884898 L0.0758639456,1.0884898 C0.0720544218,0.900734694 0.0677006803,0.71352381 0.0644353741,0.525768707 L20.7414422,0.525768707 C20.7387211,0.71352381 20.7365442,0.900734694 20.7343673,1.0884898" id="Fill-51" fill="#231916" mask="url(#mask-4)"></path>
                </g>
                <path d="M107.612517,129.091918 C112.976327,127.43151 118.364082,127.28185 123.751837,128.134639 L123.764898,129.091918 L107.612517,129.091918 Z" id="Fill-53" fill="#231916"></path>
                <path d="M18.5282721,88.0665034 L6.48582313,88.0665034 C8.02160544,85.8858231 11.6575238,85.8542585 18.5282721,88.0665034" id="Fill-55" fill="#231916"></path>
                <path d="M146.685116,153.374748 L161.909605,153.374748 C160.75532,155.273524 153.031782,155.360599 146.685116,153.374748" id="Fill-57" fill="#231916"></path>
                <path d="M161.592109,147.425034 C160.890612,147.753197 160.197823,148.341497 159.486531,148.365442 C156.23483,148.47483 152.976054,148.480272 149.72381,148.38449 C149.115374,148.366531 148.525986,147.712925 147.927891,147.352653 C148.573333,147.151837 149.267211,146.686531 149.857143,146.793741 C153.097959,147.383129 156.301224,148.383946 159.50068,146.543401 C159.941497,146.29034 160.682721,146.558639 161.28517,146.585306 C161.387483,146.865034 161.489796,147.144762 161.592109,147.425034" id="Fill-59" fill="#231916"></path>
                <path d="M130.678531,112.937578 C131.682068,112.88098 132.711184,112.654585 133.684789,112.799347 C137.089959,113.306014 140.483156,113.90683 143.861116,114.57132 C144.272544,114.652408 144.564789,115.340299 144.912,115.74683 C144.472816,115.919891 143.992816,116.30683 143.598803,116.233361 C139.620027,115.488327 135.654313,114.673633 131.688054,113.858939 C131.318531,113.783293 130.975673,113.574857 130.620844,113.427918 C130.639891,113.264653 130.658939,113.100844 130.678531,112.937578" id="Fill-61" fill="#231916"></path>
                <path d="M79.2058776,112.742803 C83.969415,113.24566 88.857034,111.893823 93.497034,114.323755 C88.7073741,114.086476 83.9177143,113.849741 79.1285986,113.612463 C79.1541769,113.322395 79.1797551,113.032871 79.2058776,112.742803" id="Fill-63" fill="#231916"></path>
                <path d="M68.2816327,116.460952 L81.804898,116.460952 C77.3287075,118.189932 72.8035374,117.149932 68.2941497,117.133605 C68.2903401,116.909388 68.2859864,116.68517 68.2816327,116.460952" id="Fill-65" fill="#231916"></path>
                <path d="M73.5984218,114.443483 C72.2803265,114.443483 70.9377415,114.288925 69.6522993,114.492463 C68.6210068,114.655728 67.6827755,115.341986 66.6569252,115.632599 C65.7829116,115.879673 64.8381497,115.986884 63.9347483,115.944435 C63.7121633,115.933551 63.5276735,115.098721 63.3257687,114.642122 C64.091483,114.41083 64.8512109,114.004299 65.6234558,113.980354 C68.2770612,113.897633 70.933932,113.948789 73.5902585,113.948789 C73.5929796,114.113687 73.5957007,114.278585 73.5984218,114.443483" id="Fill-67" fill="#231916"></path>
                <path d="M123.961415,125.29649 L131.022639,125.29649 C129.540735,126.96615 128.396245,128.255946 127.251755,129.545741 C128.601415,125.650776 123.915156,127.590912 123.961415,125.29649" id="Fill-69" fill="#231916"></path>
                <path d="M44.1633197,114.271293 C47.9276735,113.288435 51.4482177,113.728707 54.7331156,115.513197 C54.676517,115.827211 54.6199184,116.14068 54.5633197,116.454694 C51.0966531,115.726531 47.6299864,114.998912 44.1633197,114.271293" id="Fill-71" fill="#231916"></path>
                <path d="M62.4961633,110.820789 L75.1399728,110.820789 C72.5734422,112.563918 63.4703129,112.055075 62.4961633,110.820789" id="Fill-73" fill="#231916"></path>
                <path d="M136.741497,96.733551 L148.266395,96.733551 L148.342585,97.4372245 C147.042449,97.7017143 145.745034,98.1626667 144.440544,98.1838912 C142.490612,98.2149116 140.524898,98.0146395 138.58966,97.7441633 C137.954014,97.6554558 137.390204,97.0437551 136.793197,96.6725986 C136.792653,96.6731429 136.741497,96.733551 136.741497,96.733551" id="Fill-75" fill="#231916"></path>
                <path d="M78.988517,110.061333 C76.5308299,109.428952 74.5330068,108.915211 72.373551,108.359565 C73.8108299,106.164735 75.9545034,106.996299 77.6388571,107.294531 C78.2886531,107.409905 78.6298776,109.268952 78.988517,110.061333" id="Fill-77" fill="#231916"></path>
                <path d="M28.1753469,83.4443537 C31.2284082,82.5262585 34.3407891,84.2051701 37.3987483,83.5091156 L37.4401088,84.3717007 L28.3271837,84.3717007 C28.2765714,84.062585 28.2259592,83.7534694 28.1753469,83.4443537" id="Fill-79" fill="#231916"></path>
                <path d="M121.458177,115.34351 C124.498177,113.385415 126.170558,113.589497 129.207293,116.381878 C126.838313,116.064599 124.469333,115.746776 121.458177,115.34351" id="Fill-81" fill="#231916"></path>
                <path d="M62.4966531,122.058286 C64.741551,122.894748 66.9859048,123.731211 69.5426395,124.684136 C67.1551565,125.024816 64.9336599,125.565769 62.9195102,124.034884 C62.518966,123.729578 62.6561088,122.716789 62.5543401,122.024 C62.5630476,122.018014 62.4966531,122.058286 62.4966531,122.058286" id="Fill-83" fill="#231916"></path>
                <path d="M123.745088,119.609306 C121.616109,119.126585 119.487673,118.643864 116.935837,118.065361 C119.988898,116.652027 121.659102,116.956789 123.745088,119.609306" id="Fill-85" fill="#231916"></path>
                <path d="M119.172898,101.698231 C116.755483,101.538776 114.338068,101.37932 111.920653,101.219864 C114.387592,100.779048 116.865415,100.212517 119.23385,100.981497 C119.213714,101.220408 119.193034,101.45932 119.172898,101.698231" id="Fill-87" fill="#231916"></path>
                <path d="M83.9007891,109.962449 L91.6694966,109.962449 C91.6678639,110.154014 91.6667755,110.345578 91.6656871,110.536599 L83.9056871,110.536599 C83.9040544,110.345578 83.9024218,110.154014 83.9007891,109.962449" id="Fill-89" fill="#231916"></path>
                <path d="M131.883918,116.00332 C133.774531,116.47951 135.664599,116.956245 137.555211,117.43298 C137.461605,117.826993 137.367456,118.221551 137.27385,118.615565 C135.393578,118.149714 133.512762,117.683864 131.63249,117.218014 C131.716299,116.813116 131.800109,116.408218 131.883918,116.00332" id="Fill-91" fill="#231916"></path>
                <path d="M94.806966,111.707537 C98.3514558,110.169034 100.953361,110.532571 101.759347,112.187537 C99.3958095,112.024816 97.1013878,111.865905 94.806966,111.707537" id="Fill-93" fill="#231916"></path>
                <path d="M37.1001905,111.461714 C41.8659048,110.399946 42.4672653,110.582803 43.0501224,112.680218 C41.0408707,112.268789 39.0708027,111.865524 37.1001905,111.461714" id="Fill-95" fill="#231916"></path>
                <path d="M28.7466667,108.378177 C31.2310204,107.668517 33.2027211,108.545796 34.9942857,109.976 C34.8745578,110.312871 34.7542857,110.649741 34.6340136,110.986612 C32.6960544,110.094095 30.7570068,109.201034 28.807619,108.317769 C28.7972789,108.32702 28.7466667,108.378177 28.7466667,108.378177" id="Fill-97" fill="#231916"></path>
                <path d="M157.443537,79.7124354 C159.206259,78.8210068 160.379592,78.2278095 162.061769,77.3771973 C161.436463,78.7366531 160.967891,79.7537959 160.391565,81.0049524 C159.364626,80.5548844 158.546122,80.1962449 157.443537,79.7124354" id="Fill-99" fill="#231916"></path>
                <path d="M65.1396463,91.0920816 C62.7004626,89.6509932 60.7592381,88.6822857 59.071619,87.3848707 C58.6400544,87.0534422 59.0063129,85.6825578 59.421551,84.6071837 C60.7929796,87.0463673 64.9725714,86.6158912 65.1396463,91.0920816" id="Fill-101" fill="#231916"></path>
                <path d="M63.988517,79.242068 C63.386068,77.5511837 62.783619,75.8602993 62.1811701,74.169415 L61.2532789,74.3359456 C60.8614422,75.1158095 60.4696054,75.8967619 60.0777687,76.6771701 C59.816,76.5971701 59.5547755,76.5177143 59.2924626,76.4377143 C59.6402177,75.2964898 59.8791293,74.101932 60.3950476,73.0423401 C60.5702857,72.6831565 61.7648435,72.3566259 61.9455238,72.5438367 C62.8342313,73.4657415 63.7828027,74.4687347 64.2383129,75.6290068 C64.6894694,76.7778503 64.5773605,78.1476463 64.7123265,79.4211156 C64.4712381,79.3612517 64.2296054,79.301932 63.988517,79.242068" id="Fill-103" fill="#231916"></path>
                <path d="M43.5277279,88.9811156 C46.4790204,90.6437007 49.4297687,92.3057415 52.3810612,93.9683265 C52.1742585,94.3302313 51.968,94.6921361 51.7617415,95.0540408 L42.8920816,89.9797551 C43.1037823,89.6466939 43.315483,89.3141769 43.5277279,88.9811156" id="Fill-105" fill="#231916"></path>
                <path d="M56.2471837,88.709551 C58.6526259,90.2061497 61.058068,91.7027483 63.7334422,93.3680544 C61.4694966,93.9226122 60.3995646,93.3054694 56.2471837,88.709551" id="Fill-107" fill="#231916"></path>
                <path d="M94.1107483,73.5572789 C93.0141497,74.2990476 91.917551,75.0413605 90.3142857,76.1259864 C90.2130612,75.0783673 89.8946939,73.6214966 90.0927891,73.547483 C91.3009524,73.097415 92.6261224,72.9608163 93.9126531,72.7191837 C93.9790476,72.9989116 94.044898,73.2780952 94.1107483,73.5572789" id="Fill-109" fill="#231916"></path>
                <path d="M60.9097143,83.0678095 C60.2528435,82.0044082 59.596517,80.9410068 58.5293061,79.2136599 C59.9703946,79.2136599 61.0522993,79.0297143 61.1388299,79.2452245 C61.5676735,80.3108027 61.7336599,81.4819592 61.991619,82.6161088 C61.6308027,82.7668571 61.2705306,82.9176054 60.9097143,83.0678095" id="Fill-111" fill="#231916"></path>
                <path d="M39.941932,94.9792109 C37.9158095,94.2477823 36.5476463,93.8749932 35.309551,93.2453333 C34.8464218,93.0091429 34.6864218,92.1764898 34.3881905,91.6154014 C35.0124082,91.6279184 35.8047891,91.4009796 36.2281905,91.6992109 C37.3530884,92.4926803 38.3190748,93.5125442 39.941932,94.9792109" id="Fill-113" fill="#231916"></path>
                <path d="M126.91102,20.9486259 C124.798912,19.1902585 122.687347,17.4324354 120.575782,15.674068 C120.813061,15.3921633 121.049252,15.1102585 121.286531,14.8283537 C123.430204,16.5682177 125.573878,18.3069932 127.717007,20.0468571 C127.448163,20.3472653 127.17932,20.6482177 126.91102,20.9486259" id="Fill-115" fill="#231916"></path>
                <path d="M137.301605,28.2051701 C135.730993,28.8897959 134.160925,29.5738776 132.591401,30.2585034 C132.479837,30.0282993 132.368816,29.797551 132.257252,29.5668027 C133.770721,28.7542857 135.283646,27.9417687 136.796571,27.1287075 C136.965279,27.4878912 137.132898,27.8465306 137.301605,28.2051701" id="Fill-117" fill="#231916"></path>
                <path d="M121.228082,78.5070476 C120.545088,76.3916735 117.749442,75.7652789 119.22917,73.3609252 C119.548626,72.8428299 120.231075,72.0961633 120.616925,72.1658231 C121.377741,72.3040544 122.15815,72.8319456 122.725224,73.4017415 C123.291211,73.970449 123.605769,74.7884082 124.235429,75.8382041 C123.513252,76.4792925 122.56468,77.3206531 121.228082,78.5070476" id="Fill-119" fill="#231916"></path>
                <path d="M110.929905,71.4303673 C111.326639,72.6031565 111.723374,73.7759456 112.16419,75.0793469 C115.167184,76.0251973 115.446912,76.4899592 114.587592,79.2752653 C112.981605,78.0807075 111.335891,76.8567619 109.125823,75.2126803 C109.523102,74.4339048 110.271946,72.9666939 111.012626,71.4929524 C111.005007,71.4864218 110.929905,71.4303673 110.929905,71.4303673" id="Fill-121" fill="#231916"></path>
            </g>
        </g>
    </g>
</svg>