<?xml version="1.0" encoding="UTF-8"?>
<svg width="126px" height="159px" viewBox="0 0 126 159" version="1.1" xmlns="http://www.w3.org/2000/svg" xmlns:xlink="http://www.w3.org/1999/xlink">
    <!-- Generator: Sketch 60 (88103) - https://sketch.com -->
    <title>figure42</title>
    <desc>Created with Sketch.</desc>
    <defs>
        <polygon id="path-1" points="0.000103251828 0.385094935 113.549652 0.385094935 113.549652 159 0.000103251828 159"></polygon>
    </defs>
    <g id="页面-1" stroke="none" stroke-width="1" fill="none" fill-rule="evenodd">
        <g id="29-44" transform="translate(-1254.000000, -253.000000)">
            <g id="figure42" transform="translate(1254.000000, 252.000000)">
                <g id="编组" transform="translate(0.000000, 0.615000)">
                    <mask id="mask-2" fill="white">
                        <use xlink:href="#path-1"></use>
                    </mask>
                    <g id="Clip-2"></g>
                    <path d="M80.9054,155.1793 C81.3664,154.8723 81.7154,154.7563 81.8544,154.5173 C82.0244,154.2273 82.0454,153.8363 82.0704,153.4843 C82.0754,153.4093 81.7154,153.2283 81.7004,153.2463 C81.4784,153.5113 81.2424,153.7803 81.0994,154.0903 C80.9864,154.3343 80.9954,154.6353 80.9054,155.1793 M63.7584,73.9523 C63.5174,74.0503 63.2764,74.1473 63.0364,74.2443 C63.2234,74.7173 63.3874,75.2033 63.6304,75.6453 C63.6604,75.7003 64.1104,75.5233 64.3654,75.4533 C64.1634,74.9533 63.9614,74.4523 63.7584,73.9523 M66.7314,63.7673 C66.1164,63.3373 65.7634,63.0123 65.3474,62.8563 C65.2484,62.8193 64.7084,63.4433 64.7714,63.5883 C64.9254,63.9403 65.2714,64.2983 65.6254,64.4373 C65.8084,64.5093 66.1734,64.1223 66.7314,63.7673 M22.1624,147.1083 C22.5524,146.7623 22.8344,146.5123 23.1164,146.2633 C22.8314,146.0303 22.5334,145.5953 22.2644,145.6123 C21.9094,145.6353 21.5774,146.0133 21.2344,146.2383 C21.5094,146.4953 21.7834,146.7523 22.1624,147.1083 M107.5714,11.1723 C108.7854,10.7783 108.9224,9.9513 108.7534,9.0423 C108.7114,8.8143 108.3034,8.6533 108.0644,8.4623 C107.9004,8.6783 107.6194,8.8813 107.5934,9.1123 C107.5274,9.7293 107.5714,10.3573 107.5714,11.1723 M75.0424,4.2893 C75.1344,3.2003 74.3774,2.2803 73.5274,2.4183 C73.1904,2.4733 72.9054,2.8523 72.5964,3.0833 C72.8064,3.3633 72.9614,3.7843 73.2384,3.8933 C73.8004,4.1143 74.4284,4.1653 75.0424,4.2893 M65.0334,5.8763 C64.2814,5.4153 63.7174,4.9283 63.5954,5.0203 C63.0134,5.4673 62.5514,6.0693 62.0464,6.6163 C62.2804,6.7943 62.5994,7.1733 62.7344,7.1163 C63.4134,6.8283 64.0454,6.4273 65.0334,5.8763 M109.2684,16.3313 C109.7234,15.0443 108.2964,13.1663 106.5514,12.4493 C107.5904,13.9333 108.4294,15.1323 109.2684,16.3313 M52.1014,155.5423 C52.1204,155.3883 52.1394,155.2353 52.1584,155.0823 C51.0484,154.6263 49.9454,154.1463 48.8164,153.7423 C48.6714,153.6903 48.3864,154.0273 48.1674,154.1843 C48.3134,154.3683 48.4234,154.6173 48.6134,154.7223 C49.1574,155.0273 49.7094,155.3733 50.3034,155.5133 C50.8734,155.6473 51.5004,155.5423 52.1014,155.5423 M69.8204,94.5693 C69.0054,95.1133 68.3314,95.4763 67.7754,95.9733 C67.5354,96.1873 67.4314,96.6873 67.4704,97.0353 C67.4974,97.2713 67.9994,97.6923 68.0834,97.6473 C68.6914,97.3213 69.4434,97.0133 69.7614,96.4713 C70.0424,95.9923 69.8204,95.2183 69.8204,94.5693 M76.2424,34.4193 C76.3374,34.4823 76.4304,34.5453 76.5244,34.6083 C77.3304,34.1253 78.2174,33.7323 78.9034,33.1153 C79.1874,32.8603 79.0434,32.1263 79.0934,31.6103 C78.5724,31.6803 77.8024,31.5623 77.5784,31.8583 C77.0034,32.6133 76.6724,33.5533 76.2424,34.4193 M47.1524,105.3533 C47.2654,105.4613 47.3794,105.5693 47.4914,105.6773 C48.4964,104.6763 49.5124,103.6863 50.4874,102.6573 C50.5844,102.5543 50.4874,102.1703 50.3664,101.9973 C50.2834,101.8803 49.9864,101.8413 49.8084,101.8783 C48.8074,102.0923 47.1714,104.2563 47.1524,105.3533 M64.8274,87.0743 C64.8174,86.8653 64.8524,86.5993 64.7864,86.3623 C64.5624,85.5613 63.9654,85.4963 63.2764,85.6493 C62.5344,85.8143 62.4614,86.2273 62.7464,86.8723 C62.9124,87.2473 62.8544,87.7283 63.0414,88.0863 C63.2064,88.4043 63.5754,88.8253 63.8464,88.8213283 C64.1484,88.8153 64.5264,88.4283 64.7144,88.1143 C64.8694,87.8523 64.7964,87.4553 64.8274,87.0743 M74.4214,35.4143 C74.0304,35.1213 73.7594,34.7623 73.5504,34.7953 C73.1434,34.8593 72.6684,35.0543 72.4084,35.3553 C71.7414,36.1283 71.1674,36.9823 70.5814,37.8223 C70.4594,37.9963 70.4494,38.2483 70.3864,38.4643 C70.6144,38.4863 70.8864,38.5993 71.0594,38.5133 C71.6194,38.2323 72.2174,37.9573 72.6604,37.5323 C73.2794,36.9383 73.7714,36.2113 74.4214,35.4143 M46.9254,125.0983 C47.6584,123.1883 47.1764,121.0873 45.8374,120.1193 C45.0164,121.7243 45.5054,124.1113 46.9254,125.0983 M63.5954,153.2003 C61.4174,153.2743 59.8034,155.0333 57.6394,154.7203 C57.5024,154.7003 57.1774,155.0313 57.1854,155.1863 C57.1944,155.3633 57.4484,155.6103 57.6484,155.6823 C59.3514,156.3003 62.5694,154.9813 63.5954,153.2003 M62.3844,57.8863 C62.3424,57.7523 62.2994,57.6193 62.2574,57.4863 C61.9964,57.8273 61.6624,58.1423 61.5214,58.5283 C61.4794,58.6413 61.9504,59.0593 62.2454,59.1583 C63.2484,59.4933 64.2644,59.8393 65.3024,59.9923 C65.7224,60.0543 66.3554,59.7363 66.6164,59.3863 C66.7594,59.1923 66.3894,58.2433 66.1574,58.2043 C64.9164,57.9993 63.6444,57.9733 62.3844,57.8863 M67.0624,90.3593 C66.3804,89.7213 65.7954,89.0053 65.0474,89.8593 C64.1934,90.8343 63.3894,90.9093 62.4814,89.9773 C62.4224,89.9153 62.2204,89.9913 62.0274,90.0073 C63.0404,91.4483 64.0984,92.3273 65.8114,91.1943 C66.0024,91.0683 66.5774,91.3093 66.8254,91.5403 C67.1184,91.8143 67.1934,92.3113 67.4674,92.6193 C67.7394,92.9253 68.1404,93.1163 68.4854,93.3573 C68.6624,92.9623 68.8604,92.5753 69.0044,92.1683 C69.0544,92.0263 68.9184,91.8233 68.9584,91.6723 C69.0284,91.4063 69.1684,91.1593 69.2784,90.9043 C69.5184,91.0313 69.7974,91.1173 69.9874,91.2963 C70.2334,91.5273 70.4104,91.8323 70.6164,92.1063 C70.7924,92.0493 70.9674,91.9923 71.1414,91.9353 C71.0374,91.3623 71.1304,90.5853 70.7894,90.2553 C69.8904,89.3833 69.8924,88.4253 70.0374,87.3373 C70.1014,86.8513 70.1484,86.2423 69.9154,85.8703 C69.6324,85.4183 69.0444,85.1573 68.5894,84.8133 C68.3944,85.2253 68.2054,85.6393 68.0044,86.0483 C67.9354,86.1873 67.8364,86.3113 67.7604,86.4263 C67.6164,86.3913 67.5334,86.3783 67.4554,86.3503 C66.9934,86.1853 66.5324,86.0153 66.0714,85.8473 C66.2504,86.3133 66.4224,86.7833 66.6124,87.2443 C66.6764,87.3983 66.8454,87.5233 66.8694,87.6763 C66.9934,88.5043 67.9224,89.2693 67.0624,90.3593 M64.4974,34.8213 C65.9914,35.5793 66.8264,37.3983 66.6814,39.0733 C66.6424,39.5343 67.1344,40.0413 67.3824,40.5273 C67.6804,40.0963 68.2544,39.6463 68.2244,39.2403 C68.1494,38.2173 67.7714,37.2193 67.5764,36.1993 C67.4264,35.4193 67.2894,34.6173 67.3204,33.8333 C67.3314,33.5663 67.8564,33.1433 68.1744,33.1173 C68.4514,33.0943 68.8394,33.4783 69.0424,33.7763 C69.1844,33.9853 69.1044,34.3503 69.1134,34.6453 C69.1444,35.6463 69.7264,35.8533 70.4564,35.3973 C70.9564,35.0843 71.3144,34.5203 71.6824,34.0283 C72.0944,33.4793 72.4254,32.8683 72.8344,32.3173 C73.0574,32.0143 73.4294,31.8153 73.6254,31.5013 C73.8014,31.2193 73.8264,30.8443 73.9184,30.5093 C73.6054,30.5013 73.2494,30.3913 72.9894,30.5043 C72.3374,30.7863 71.7594,31.2553 71.0944,31.4873 C70.4204,31.7223 69.5964,32.0253 68.9814,31.8363 C67.7434,31.4543 66.6144,30.7323 65.4164,30.2063 C64.9824,30.0153 64.4784,29.9843 64.0074,29.8803 C64.0184,30.4413 63.7994,31.2123 64.0844,31.5253 C65.0454,32.5813 64.8784,33.6773 64.4974,34.8213 M76.8884,156.5063 C78.4354,156.6913 78.5494,155.7313 79.0494,155.0733 C79.9134,153.9343 79.5994,153.2443 78.7634,152.2403 C77.9954,151.3153 77.6404,150.0393 77.1354,148.9053 C76.9924,148.5823 76.9584,148.2113 76.8744,147.8623 C76.5214,148.0153 76.1664,148.1623 75.8164,148.3223 C75.6294,148.4073 75.4244,148.6273 75.2704,148.5923 C73.1764,148.1163 70.6384,149.6193 68.9764,147.1403 C68.6274,146.6183 67.9764,146.4513 67.5094,147.1633 C66.9174,148.0653 67.4194,149.4483 68.4224,149.8723 C68.9064,150.0773 69.5124,150.3123 69.7544,150.7183 C70.6414,152.2103 71.3094,153.7983 73.0224,154.6703 C73.5984,154.9633 73.9294,155.2713 74.5474,154.8873 C75.4334,154.3353 75.9134,154.6773 76.2074,155.6383 C76.3364,156.0613 76.7894,156.3863 76.8884,156.5063 M71.0884,155.9393 C71.1734,155.8433 71.2584,155.7473 71.3434,155.6513 C70.3914,154.6613 69.3844,153.7173 68.5084,152.6643 C67.9964,152.0493 67.4734,151.2973 67.3454,150.5413 C67.1544,149.4083 66.6844,149.4463 65.8744,149.8073 C65.3424,150.0453 64.7864,150.3893 64.2364,150.3963 C61.6754,150.4283 59.1124,150.3423 56.5504,150.3313 C54.3464,150.3233 53.7854,149.8873 53.3264,147.6843 C53.1854,147.0103 52.8834,146.5263 52.1144,146.8563 C51.4294,147.1503 50.7844,147.5373 50.1324,147.9013 C49.4994,148.2523 48.3484,150.6693 48.5054,151.3243 C48.5414,151.4743 48.6504,151.6713 48.7774,151.7263 C49.6734,152.1153 50.5884,152.4603 51.4864,152.8443 C52.3414,153.2093 53.1914,153.5863 54.0264,153.9923 C54.4754,154.2113 54.8794,154.5243 55.3294,154.7393 C55.3924,154.7693 55.6064,154.4863 55.7514,154.3483 C55.3924,154.0483 54.9264,153.8103 54.7054,153.4293 C54.4524,152.9943 54.4194,152.4323 54.2914,151.9263 C54.7204,151.9713 55.1694,151.9573 55.5784,152.0763 C56.3574,152.3033 57.0964,152.7183 57.8864,152.8533 C59.5934,153.1453 60.9864,152.2153 62.3814,151.4443 C63.8994,150.6043 64.6154,150.8803 64.7654,152.5543 C64.8594,153.5873 65.2744,153.8913 66.2684,153.5793 C66.5344,153.4963 67.0944,153.6453 67.1924,153.8463 C68.0024,155.5223 69.5254,155.7513 71.0884,155.9393 M72.4214,9.8463 C72.2864,9.7923 72.1504,9.7373 72.0154,9.6823 C71.7964,9.9713 71.4484,10.2343 71.3804,10.5553 C71.1374,11.7013 70.4824,12.0173 69.3614,11.9363 C67.6764,11.8153 65.9794,11.8243 64.2884,11.8333 C63.9094,11.8363 63.2124,12.0583 63.2054,12.2043 C63.1314,13.8323 62.5154,15.3043 62.0874,16.8373 C61.8714,17.6113 62.0974,18.5123 62.1414,19.3543 C62.2004,20.4983 61.8214,21.7293 62.8644,22.6843 C63.0154,22.8233 63.0354,23.3123 62.9114,23.5103 C62.1994,24.6403 62.8654,25.3153 63.6304,25.9973 C63.9754,26.3053 64.4684,26.6063 64.5764,26.9973 C65.0434,28.6973 66.8254,28.8653 67.8414,29.9133 C68.0844,30.1653 68.6284,30.1573 69.0414,30.2073 C72.5564,30.6373 76.7314,26.8683 77.1654,23.4113 C77.2104,23.0553 77.5864,22.7513 77.7584,22.3993 C77.9264,22.0543 78.1184,21.6823 78.1374,21.3133 C78.1674,20.7813 78.0884,20.2333 77.9844,19.7053 C77.8764,19.1463 77.7764,18.5543 77.5094,18.0663 C77.0514,17.2253 76.5024,16.4283 75.9264,15.6603 C75.0784,14.5273 74.2824,13.3203 73.2594,12.3653 C72.4724,11.6323 71.6244,11.1323 72.4214,9.8463 M20.4874,144.2593 C22.4154,143.8623 24.0994,143.5433 25.7654,143.1463 C26.0954,143.0673 26.3434,142.6733 26.6454,142.4463 C27.5494,141.7683 28.4624,141.1033 29.3654,140.4263 C29.6334,140.2263 30.0074,140.0583 30.1224,139.7863 C31.0694,137.5483 33.0344,136.1883 34.6354,134.5253 C35.3484,133.7843 36.2574,133.2213 37.1124,132.6303 C38.2844,131.8223 39.5764,131.1663 40.6594,130.2573 C41.8524,129.2553 42.8764,128.0483 43.9574,126.9153 C44.8094,126.0213 44.9274,123.5503 44.3474,122.4983 C43.9894,121.8493 43.7954,121.0623 43.7174,120.3173 C43.5814,119.0273 43.8984,117.5993 43.4424,116.4643 C43.0934,115.5983 42.6764,114.9073 42.8264,113.9193 C42.8874,113.5153 42.5974,112.8383 42.2664,112.6633 C41.9924,112.5183 41.3504,112.8323 41.0004,113.1063 C39.1894,114.5243 38.0404,116.5343 36.2174,118.0423 C32.7684,120.8963 29.8184,124.3493 26.6074,127.4983 C25.4404,128.6423 24.0304,129.5443 22.8884,130.7103 C21.1854,132.4503 19.6774,134.3833 17.9734,136.1233 C17.1344,136.9793 15.9764,137.5143 15.0784,138.3243 C13.4484,139.7903 11.8914,141.3393 10.3474,142.8963 C10.1844,143.0603 10.3114,143.5113 10.3034,143.8293 C10.6034,143.8193 10.9194,143.8643 11.1994,143.7843 C11.5144,143.6963 11.8144,143.3403 12.0944,143.3683 C14.6454,143.6263 17.3264,142.5463 19.7604,144.0943 C20.0244,144.2623 20.4074,144.2423 20.4874,144.2593 M81.6474,52.5593 C81.7144,52.6413 81.7804,52.7233 81.8464,52.8063 C82.1784,52.5323 82.5344,52.2823 82.8384,51.9793 C83.7024,51.1173 84.5144,50.2013 85.4164,49.3813 C85.6684,49.1523 86.1554,49.1813 86.5344,49.0913 C86.5844,49.3643 86.7684,49.7163 86.6624,49.8943 C86.0674,50.8873 85.5744,52.0483 84.7184,52.7543 C83.5134,53.7503 82.0414,54.4353 80.6414,55.1773 C80.0134,55.5103 79.2874,55.6583 78.5584,55.9053 C79.6484,57.4443 80.8024,57.7213 82.0794,56.9403 C82.3514,56.7743 82.7454,56.8063 83.0834,56.7473 C83.0784,57.1373 83.1944,57.5853 83.0434,57.9053 C82.7234,58.5743 82.2634,59.1763 81.8354,59.8463 C81.0174,59.5003 80.1814,59.1503 79.3494,58.7913 C78.6924,58.5083 78.0504,58.1913 77.3844,57.9293 C77.0424,57.7943 76.3834,57.6053 76.3434,57.6823 C75.8884,58.5793 75.3364,59.4923 75.1794,60.4603 C74.9314,62.0043 74.7264,62.2263 73.2564,61.6383 C73.0604,61.5603 72.8464,61.4163 72.6614,61.4433 C71.5414,61.6053 70.9764,61.2353 71.0564,60.0163 C71.0714,59.8043 70.6884,59.5343 70.4394,59.3663 C70.3914,59.3343 70.0064,59.6223 69.9474,59.8153 C69.1754,62.3623 67.9304,64.7903 68.1494,67.5823 C68.2754,69.1813 68.0354,70.8303 68.3254,72.3883 C68.6444,74.1023 69.4184,75.7263 69.9314,77.4083 C70.7794,80.1853 71.5994,82.9583 74.8684,83.8853 C75.0184,83.9273 75.1334,84.0903 75.2684,84.1913 C76.3264,84.9743 76.6774,84.8433 77.0944,83.5463 C77.1824,83.2753 77.3424,83.0183 77.5094,82.7823 C79.0194,80.6413 80.5544,78.5173 82.0354,76.3553 C82.2054,76.1063 82.0834,75.6563 82.0964,75.2993 C81.7564,75.3153 81.3554,75.2203 81.0864,75.3663 C80.0094,75.9493 79.0054,76.6683 77.9104,77.2103 C77.3764,77.4753 76.6944,77.5913 76.0974,77.5443 C75.1974,77.4743 74.1904,76.2963 74.3814,75.6333 C74.6874,74.5673 75.5784,74.9633 76.2974,74.9623 C76.4234,74.9623 76.5514,74.9773 76.6764,75.0003 C78.2144,75.2763 79.4864,74.8713 80.5624,73.6863 C81.3844,72.7793 82.4204,72.0613 83.2104,71.1313 C84.3494,69.7893 85.4514,68.3933 86.3834,66.9053 C87.2264,65.5543 87.8824,64.0743 88.5114,62.6033 C89.4734,60.3603 90.5844,58.1413 90.2594,55.5643 C90.1964,55.0673 90.3064,54.5513 90.3014,54.0433 C90.2834,52.2683 90.4614,50.4563 90.1614,48.7293 C89.8404,46.8743 89.0814,45.0923 88.4704,43.2923 C88.3244,42.8593 88.0134,42.4823 87.7784,42.0793 C87.4184,42.4903 86.9154,42.8443 86.7204,43.3223 C85.8474,45.4743 85.4564,47.8183 83.6674,49.5683 C82.8244,50.3923 82.3104,51.5523 81.6474,52.5593 M66.3004,94.9633 C65.8424,93.7383 65.0524,93.1993 63.6704,93.3533 C62.2664,93.5103 61.2304,92.5313 61.1704,91.0953 C61.1194,89.8743 61.2954,88.6453 61.2624,87.4223 C61.2184,85.7893 60.7364,85.4713 59.1504,85.4673 C58.3574,85.4643 57.5654,85.1233 56.7714,84.9393 C56.5384,84.8853 56.1904,84.7303 56.0884,84.8263 C55.9114,84.9933 55.8024,85.3223 55.8074,85.5803 C55.8444,87.8583 55.9124,90.1353 55.9754,92.4123 C55.9834,92.7073 55.9194,93.0633 56.0564,93.2863 C57.4594,95.5633 56.7034,98.0623 56.8584,100.4673 C56.8914,100.9833 57.1374,101.4873 57.3004,101.9913 C57.4754,102.5423 57.8054,103.0823 57.8294,103.6373 C57.9224,105.7953 57.9264,107.9563 57.9484,110.1163 C57.9514,110.4513 57.9354,110.8073 57.8224,111.1153 C57.7514,111.3083 57.4754,111.5563 57.3044,111.5473 C57.1284,111.5373 56.9654,111.2473 56.8014,111.0753 C56.7764,111.0483 56.7754,110.9953 56.7704,110.9533 C56.5354,109.0573 56.3804,107.1463 56.0314,105.2723 C55.8804,104.4603 55.3294,103.7223 54.8604,102.7413 C54.8304,102.7793 54.9764,102.5283 55.1814,102.3423 C55.7244,101.8503 55.8304,101.3023 55.2694,100.8203 C54.5924,100.2363 54.7794,99.6383 54.8984,98.8853 C55.1854,97.0663 55.5934,95.1993 54.3584,93.4933 C54.1404,93.1933 54.1464,92.6933 54.1394,92.2833 C54.1124,90.5543 54.1384,88.8253 54.0954,87.0963 C54.0894,86.8093 53.8914,86.4783 53.6864,86.2573 C53.3734,85.9183 52.6874,85.6753 52.6684,85.3593 C52.6084,84.4153 52.4574,83.1763 52.9624,82.5653 C53.8584,81.4793 53.4224,80.7243 52.8054,80.0083 C51.1814,78.1203 49.4704,76.3043 47.7614,74.4913 C46.9084,73.5853 46.3264,72.6133 46.4784,71.3153 C46.5084,71.0663 46.5544,70.7483 46.4344,70.5643 C44.8204,68.0763 45.7004,65.3023 45.5564,62.6633 C45.3924,59.6643 45.4824,56.6503 45.4954,53.6423 C45.4974,53.1983 45.6684,52.7493 45.7944,52.3113 C45.8504,52.1133 46.0884,51.9303 46.0744,51.7543 C45.8914,49.4203 47.4364,47.6193 47.9734,45.5113 C48.2934,44.2583 48.6184,43.0073 48.9514,41.7583 C49.0134,41.5243 49.0914,41.1343 49.2254,41.1043 C51.0044,40.7073 50.9824,38.9043 51.8654,37.8183 C52.4154,37.1413 53.0314,36.5033 53.6924,35.9343 C54.6164,35.1403 55.6004,34.4143 56.5774,33.6823 C58.0784,32.5563 59.5444,31.3733 61.1184,30.3603 C62.4804,29.4833 62.8964,28.4573 62.1994,26.9753 C61.5954,25.6933 61.4184,24.2913 61.0714,22.9653 C60.5694,21.0483 60.6974,19.0833 60.1254,17.2213 C59.9404,16.6203 59.6114,16.0113 59.6304,15.4133 C59.6514,14.6993 59.8754,13.9453 60.1884,13.2953 C60.9124,11.7923 61.7434,10.3423 62.5344,8.8643 C60.2064,8.4713 59.6464,7.4423 60.7274,5.1813 C61.2984,3.9873 62.0824,2.8613 62.9474,1.8563 C63.3044,1.4403 64.1154,1.3003 64.7364,1.2503 C66.0884,1.1403 67.5384,1.6763 68.6894,0.4563 C68.8354,0.3023 69.2954,0.4453 69.6084,0.4503 C69.5424,0.9193 69.4744,1.3873 69.3854,2.0083 C70.3844,1.7763 71.4894,1.5773 72.5564,1.2543 C73.4324,0.9893 74.0294,1.2313 74.5224,1.9463 C75.0724,2.7423 75.6764,3.3443 76.8174,3.1333 C77.6274,2.9833 78.0704,3.5113 78.0534,4.3523 C78.0474,4.6903 78.0224,5.0293 78.0074,5.3673 C77.9214,7.2163 77.7024,9.0433 79.4084,10.4713 C80.2134,11.1433 80.2904,12.1813 79.8904,13.2813 C79.6274,14.0063 79.8564,14.8953 79.6764,15.6663 C79.1774,17.8003 79.3424,19.8993 79.7214,22.0223 C79.9024,23.0323 79.6184,23.9193 78.7074,24.5833 C78.0494,25.0623 78.1504,25.5903 78.9284,25.8963 C79.9874,26.3133 79.9184,26.9083 79.2334,27.6203 C78.5564,28.3243 78.7024,28.8613 79.5174,29.3433 C79.8724,29.5533 80.2394,29.8453 80.4364,30.1923 C81.0664,31.3023 81.7354,31.1583 82.5684,30.4293 C84.5304,28.7123 86.5074,27.0113 88.5174,25.3513 C88.8294,25.0953 89.3514,25.0093 89.7734,25.0163 C89.9204,25.0193 90.2424,25.6343 90.1564,25.8163 C89.9904,26.1713 89.6154,26.4463 89.2844,26.7003 C88.9564,26.9533 88.5404,27.0963 88.2254,27.3623 C86.5514,28.7743 84.9484,30.2753 83.2224,31.6193 C81.2874,33.1273 79.1804,34.4193 77.2724,35.9583 C75.8304,37.1233 74.5814,38.5293 73.2464,39.8263 C72.4084,40.6403 71.6074,41.3973 70.5144,40.0763 C70.3184,39.8403 69.6464,39.9973 69.1944,39.9723 C69.1594,40.1393 69.1254,40.3073 69.0904,40.4743 C69.4294,40.6263 69.7584,40.8693 70.1104,40.9133 C71.1404,41.0393 70.9914,41.6103 70.6904,42.2673 C70.6384,42.3803 70.5484,42.4753 70.4694,42.5753 C69.2074,44.1953 67.8804,45.7703 66.7044,47.4513 C66.0894,48.3333 65.8424,49.4743 65.2224,50.3513 C64.9194,50.7803 64.0554,51.1673 63.6014,51.0363 C63.1444,50.9043 62.8504,50.1213 62.5434,49.5903 C62.2724,49.1243 62.0824,48.6113 61.7364,47.8583 C63.0094,46.4943 64.4634,44.9353 65.9184,43.3773 C65.8274,43.2783 65.7364,43.1793 65.6464,43.0793 C65.3744,43.2773 65.1274,43.5483 64.8224,43.6543 C64.3394,43.8233 63.7934,44.0093 63.3234,43.9223 C63.1374,43.8883 62.9514,43.1253 62.9964,42.7203 C63.1284,41.5063 63.1614,40.3803 62.2344,39.3893 C62.0064,39.1443 62.0604,38.5923 62.0634,38.1803 C62.0744,36.5293 62.1584,34.8773 62.1334,33.2263 C62.1134,31.9913 61.5624,31.7663 60.5114,32.3353 C58.3824,33.4893 56.6664,34.9793 55.5694,37.2193 C55.2184,37.9343 54.2424,38.3323 53.5804,38.9093 C52.9274,39.4783 52.0974,39.9783 51.7244,40.7043 C50.9654,42.1853 50.5714,43.8543 49.8214,45.3433 C48.7334,47.5023 48.7844,49.9373 48.0304,52.1283 C46.5394,56.4553 47.6634,60.8483 47.2924,65.1893 C47.2634,65.5233 47.5314,65.8883 47.6854,66.2293 C47.8054,66.4973 48.1234,66.7823 48.0774,67.0023 C47.7984,68.3363 48.3584,69.4623 48.8724,70.6023 C49.2204,71.3753 49.5914,72.1403 49.9884,72.8893 C50.1644,73.2213 50.5214,73.4713 50.6454,73.8123 C51.6994,76.7223 53.6734,78.8313 56.4184,80.4193 C56.2184,80.7383 55.9184,81.0033 55.9114,81.2763 C55.8994,81.6983 55.9714,82.4073 56.2114,82.5073 C58.5384,83.4763 60.7934,84.7293 63.4474,84.6033 C64.1344,84.5713 64.7794,84.5303 64.8494,83.6863 C64.9124,82.9363 65.0024,82.1513 63.9484,81.8643 C63.5674,81.7603 63.2304,81.3583 62.9564,81.0253 C62.5304,80.5083 62.1754,79.9333 61.7924,79.3833 C61.6254,79.1433 61.3654,78.9213 61.3124,78.6583 C60.8874,76.5383 60.1484,74.4653 60.4314,72.2363 C60.5324,71.4463 60.4354,70.6303 60.4274,69.8253 C60.4154,68.3733 60.0144,66.8713 61.1644,65.5913 C61.3984,65.3303 61.3314,64.7973 61.4004,64.4013 C59.9874,63.9813 59.5814,64.4443 58.6014,66.3243 C58.0884,67.3113 57.9614,68.6213 56.6544,68.9703 C56.0714,69.1253 55.0874,69.2683 54.8694,68.9783 C54.4454,68.4143 54.1014,67.4213 54.3184,66.8193 C54.8744,65.2803 55.7184,63.8373 56.5364,62.4073 C56.6994,62.1223 57.2584,62.0633 57.6344,61.9003 C57.6394,62.2883 57.7914,62.7623 57.6244,63.0493 C57.0884,63.9663 56.4214,64.8043 55.8384,65.6963 C55.7184,65.8803 55.6504,66.2003 55.7284,66.3843 C55.8044,66.5633 56.1174,66.7673 56.2964,66.7423 C56.4834,66.7163 56.6344,66.4323 56.8014,66.2603 C57.4744,65.5663 58.1204,64.8423 58.8304,64.1873 C59.4424,63.6233 60.0764,63.0453 60.7974,62.6463 C61.4864,62.2653 62.3014,62.1143 63.0554,61.8463 C63.4534,61.7063 63.8394,61.5353 64.2304,61.3783 C63.9454,61.0053 63.7064,60.5783 63.3574,60.2803 C63.1694,60.1193 62.7854,60.1163 62.5024,60.1503 C59.9164,60.4603 58.0554,59.1653 56.4624,57.3723 C56.1984,57.0753 56.0694,56.4113 56.2094,56.0443 C56.9014,54.2263 56.5584,52.6143 55.4764,51.0853 C55.3544,50.9133 55.1544,50.7543 55.1234,50.5673 C54.7894,48.6113 54.4324,46.6563 54.2084,44.6873 C54.1614,44.2683 54.6244,43.7913 54.8514,43.3403 C55.1764,43.7673 55.7054,44.1603 55.7824,44.6293 C55.9314,45.5333 55.8264,46.4783 55.8264,47.4073 C56.0324,47.4323 56.2374,47.4583 56.4434,47.4843 C56.5674,47.0723 56.7804,46.6633 56.8004,46.2463 C56.8464,45.2323 56.7554,44.2123 56.8174,43.2003 C56.8494,42.6743 57.0854,42.1593 57.2424,41.6433 C57.4084,41.0943 57.5394,40.5263 57.7794,40.0103 C58.1054,39.3063 58.4994,38.6303 58.9304,37.9873 C58.9744,37.9223 59.4974,38.1333 59.7574,38.2833 C59.8404,38.3313 59.8474,38.6173 59.8004,38.7663 C59.3084,40.2903 58.6794,41.7813 58.3304,43.3353 C58.0044,44.7903 57.9484,46.3093 57.8334,47.8043 C57.8214,47.9553 58.2194,48.1373 58.4274,48.3043 C58.5964,48.0883 58.8394,47.8943 58.9164,47.6493 C59.0414,47.2543 59.0564,46.8243 59.4124,46.3883 C59.7474,47.2663 60.0824,48.1443 60.4724,49.1653 C60.0244,49.5293 59.4054,49.9143 58.9574,50.4453 C58.7264,50.7183 58.8014,51.2483 58.7394,51.6623 C59.1204,51.6313 59.5234,51.6683 59.8764,51.5503 C60.1814,51.4483 60.4044,51.1003 60.7104,50.9913 C60.9934,50.8893 61.6114,50.9233 61.6164,50.9593 C61.7864,52.2103 62.9414,51.9713 63.6394,52.4223 C64.0674,52.6983 64.4734,53.5923 64.3334,54.0273 C64.1284,54.6583 63.7074,55.5943 62.5494,54.9413 C62.2054,54.7483 61.4434,54.9123 61.0994,55.1913 C60.5154,55.6653 60.5734,56.2793 61.4374,56.4453 C61.9214,56.5373 62.4484,56.4853 62.9434,56.4123 C64.1364,56.2373 65.1164,56.4693 66.1104,57.2763 C66.7264,57.7773 67.7524,57.7713 68.5384,57.9783 C68.2194,56.7803 67.8974,55.7033 67.6834,54.6063 C67.6544,54.4553 68.2964,53.9663 68.3994,54.0273 C69.6344,54.7393 70.8674,55.4723 72.0054,56.3263 C72.3174,56.5613 72.2784,57.2333 72.4684,57.6743 C72.6414,58.0753 72.9074,58.4363 73.1324,58.8153 C73.5294,58.4523 74.1684,58.1513 74.2774,57.7163 C74.5984,56.4443 76.1194,54.8623 77.3774,54.8843 C78.5644,54.9053 79.0794,54.1413 79.5924,53.2883 C79.9534,52.6853 80.3224,52.0833 80.7394,51.5183 C81.7864,50.1003 83.0124,48.7873 83.8584,47.2613 C84.2274,46.5943 83.8434,45.5083 83.7974,44.5303 C84.9194,44.8163 85.1614,43.9913 85.4654,43.0063 C86.2924,40.3293 87.2424,37.6913 88.1394,35.0363 C88.2074,34.8363 88.3144,34.6123 88.2794,34.4223 C88.1964,33.9783 88.0384,33.5493 87.9114,33.1133 C87.6814,33.4543 87.4384,33.7873 87.2264,34.1393 C86.5354,35.2873 85.9454,36.5093 85.1534,37.5813 C83.2224,40.1963 81.1054,42.6783 79.2524,45.3453 C78.2814,46.7413 76.8604,47.6303 75.8594,48.8923 C74.8614,50.1513 74.0974,51.4873 72.3424,51.7673 C72.1884,51.7923 72.1154,52.2013 71.9644,52.4013 C71.6024,52.8763 71.2564,53.2643 70.6734,52.5773 C70.2904,52.1253 69.7634,51.7943 69.3014,51.4083 C69.7764,50.9923 70.2854,50.6083 70.7184,50.1523 C71.1204,49.7303 71.4764,49.2553 71.7924,48.7643 C72.5214,47.6283 72.8924,46.0363 74.9804,46.7413 C74.9954,46.6083 75.0094,46.4763 75.0244,46.3443 C74.5104,45.7873 73.9574,45.2623 73.5004,44.6633 C73.2564,44.3433 73.1784,43.8953 73.0264,43.5043 C73.4004,43.5633 73.8314,43.5233 74.1364,43.7003 C74.8864,44.1323 75.4114,44.0843 75.7414,43.2243 C75.8014,43.0673 75.8414,42.8093 75.9464,42.7763 C77.9474,42.1413 78.0474,39.8203 79.5714,38.7213 C80.3874,38.1333 80.9034,37.1423 81.6144,36.3903 C82.3184,35.6453 83.1384,35.3593 84.2404,36.4553 C84.1724,35.5003 84.1484,34.8893 84.0804,34.2833 C83.9914,33.4933 84.2904,33.0503 85.0554,32.7413 C85.6054,32.5183 86.1094,32.0713 86.5114,31.6163 C87.9834,29.9503 89.3604,28.1993 90.8624,26.5603 C91.6604,25.6903 91.6774,25.5143 90.7264,24.7663 C90.4824,24.5743 90.3574,23.7723 90.5364,23.5713 C91.8864,22.0563 93.3134,20.6073 94.7614,19.1833 C94.9074,19.0413 95.3544,19.2393 95.6554,19.2113 C95.9514,19.1833 96.3364,19.1583 96.5074,18.9713 C96.6934,18.7663 96.8224,18.3283 96.7324,18.0793 C96.1754,16.5223 96.4194,16.0093 98.2044,15.3523 C98.2224,15.7653 98.2404,16.1563 98.2494,16.3513 C99.6924,15.0443 101.1904,13.7363 102.6164,12.3523 C102.8724,12.1043 103.0304,11.4543 102.8894,11.1473 C102.2294,9.7133 101.4234,8.3463 100.7374,6.9233 C100.6064,6.6513 100.6644,6.1143 100.8564,5.9123 C101.0504,5.7103 101.6754,5.6053 101.8434,5.7563 C102.3834,6.2363 102.8104,6.8453 103.2574,7.4223 C103.7084,8.0063 104.1294,8.6133 104.5634,9.2093 C104.7304,9.1053 104.8984,9.0013 105.0654,8.8973 C104.7344,8.2253 104.4074,7.5523 104.0714,6.8833 C103.8834,6.5073 103.5264,6.1393 103.5214,5.7643 C103.5134,5.2003 103.7474,4.6333 103.8784,4.0683 C104.4434,4.3383 105.0514,4.5493 105.5534,4.9083 C105.7674,5.0613 105.7474,5.5283 105.8554,5.8443 C106.0074,6.2873 106.1774,6.7233 106.3414,7.1613 C106.7494,6.8923 107.1644,6.6333 107.5614,6.3483 C107.6954,6.2533 107.7664,6.0723 107.8984,5.9713 C108.2864,5.6763 108.6904,5.4013 109.0894,5.1183 C109.2414,5.5533 109.3854,5.9913 109.5504,6.4213 C109.6344,6.6393 109.7544,6.8453 109.8444,7.0303 C110.0114,7.0173 110.1304,7.0443 110.1724,6.9993 C111.2924,5.8213 111.1404,5.9473 112.2404,7.2453 C113.3264,8.5283 112.6584,10.2073 113.5394,11.4883 C113.6294,11.6183 113.1074,12.3893 112.7344,12.5513 C112.4354,12.6793 111.8664,12.4203 111.5404,12.1713 C111.2764,11.9713 111.1964,11.5293 110.9784,11.0773 C110.2324,11.6293 110.0464,12.2363 110.4654,13.0303 C110.8394,13.7393 111.2514,14.4313 111.5624,15.1663 C111.7264,15.5543 111.9024,16.1473 111.7234,16.4083 C111.5514,16.6593 110.9314,16.6213 110.5044,16.6733 C110.3064,16.6973 110.0984,16.6333 109.8424,16.6033 C109.7174,16.9073 109.6184,17.1773 109.4984,17.4373 C109.1384,18.2143 108.4814,18.3283 107.9754,17.7783 C107.4674,17.2243 107.2244,16.4323 106.8374,15.7613 C106.4524,15.0963 106.0944,14.3963 105.5914,13.8323 C105.4154,13.6353 104.7174,13.6363 104.4624,13.8233 C103.1934,14.7563 101.9164,15.7013 100.7954,16.7993 C99.9344,17.6403 99.0454,18.6163 98.6224,19.7073 C97.8074,21.8063 95.9674,22.9463 94.6674,24.5763 C94.2274,25.1283 94.0144,25.8623 93.7134,26.5193 C93.2444,27.5403 92.8584,28.6063 92.3104,29.5813 C91.4074,31.1893 90.2284,32.6643 89.4964,34.3393 C88.9034,35.6933 88.8154,37.2623 88.4664,38.7273 C88.3324,39.2873 88.0904,39.8203 87.8754,40.4293 C90.8024,41.4783 90.7614,44.2003 91.1714,46.6023 C91.4694,48.3603 91.2474,50.1363 91.8604,51.9373 C92.3724,53.4413 92.3314,55.2233 91.5774,56.8943 C90.9684,58.2433 90.8164,59.7923 90.3274,61.2053 C89.9304,62.3463 89.2944,63.4023 88.8354,64.5243 C88.3484,65.7123 88.0034,66.9593 87.4904,68.1343 C86.9504,69.3703 86.2884,70.5543 85.6694,71.7563 C85.5944,71.9003 85.4694,72.0923 85.3384,72.1203 C83.8514,72.4373 83.9664,73.5143 84.1784,74.5933 C84.4034,75.7363 83.9964,76.5723 83.0844,77.2213 C82.2264,77.8303 82.1114,78.4883 82.7964,79.3593 C83.0784,79.7193 83.1974,80.2933 83.2024,80.7723 C83.2454,84.7093 83.3034,88.6483 83.2204,92.5833 C83.1954,93.7943 82.7394,94.9943 82.4904,96.2023 C82.4234,96.5293 82.3544,96.8643 82.3544,97.1963 C82.3524,100.7113 82.3644,104.2273 82.3694,107.7423 C82.3694,107.9523 82.4184,108.2263 82.3084,108.3633 C80.5984,110.5033 81.6964,112.9963 81.4144,115.3123 C81.1564,117.4273 81.6524,119.4583 82.0814,121.5013 C82.1334,121.7493 82.0344,122.1383 81.8574,122.3063 C80.9204,123.1923 81.2994,124.1143 81.6124,125.1133 C81.7814,125.6523 81.7484,126.2913 81.6694,126.8663 C81.3854,128.9063 80.6694,130.9393 82.0944,132.8963 C82.3384,133.2303 82.2534,134.0753 81.9894,134.4553 C81.3194,135.4223 80.9894,137.4383 81.6564,138.4123 C82.7764,140.0493 82.4194,141.8413 82.2154,143.5723 C82.0864,144.6663 80.3254,145.7503 79.1964,145.8353 C78.8004,145.8653 78.2184,146.0983 78.0964,146.3933 C77.9664,146.7113 78.1474,147.3393 78.4164,147.6053 C79.1344,148.3153 79.6714,149.0113 79.7404,150.0993 C79.7624,150.4483 80.4884,150.9453 80.9584,151.0343 C82.4924,151.3303 83.0994,151.8663 83.2834,153.4043 C83.6584,156.5363 81.3914,159.0633 78.2944,158.9963 C76.9194,158.9663 75.4854,159.2433 74.5024,157.8293 C74.3664,157.6333 73.6924,157.6643 73.3404,157.7913 C71.6964,158.3833 70.1314,158.4653 68.6354,157.3953 C68.4404,157.2553 68.1484,157.1263 67.9294,157.1633 C66.5204,157.4043 65.5004,156.8153 64.5504,155.8363 C64.3224,155.6023 63.5124,155.5893 63.2294,155.8083 C60.5094,157.9093 57.6204,157.5803 54.6134,156.6403 C54.0574,156.4663 53.3554,156.6793 52.7414,156.8073 C52.2154,156.9173 51.6664,157.4003 51.2164,157.3043 C49.5954,156.9553 47.8554,156.6983 46.4714,155.8803 C45.5684,155.3463 45.0554,153.9523 44.6704,152.8393 C44.5154,152.3963 45.0924,151.6093 45.4834,151.0883 C46.2964,150.0033 47.3404,149.0713 48.0244,147.9193 C48.4314,147.2353 47.7344,146.8283 46.9854,146.7563 C45.4254,146.6063 45.5564,146.4773 45.4404,144.9833 C45.2674,142.7373 46.1574,140.9083 47.1484,139.0553 C47.2264,138.9103 47.3274,138.7103 47.2844,138.5783 C46.8694,137.2863 47.5614,136.1983 48.1504,135.2553 C49.1624,133.6323 48.8944,131.9433 48.9304,130.2303 C48.9444,129.5553 49.2624,128.8913 49.3984,128.2143 C49.5204,127.6053 49.6444,126.9873 49.6614,126.3703 C49.7284,123.9213 49.1734,121.2753 49.9214,119.0653 C51.3404,114.8713 50.3464,110.6743 50.7734,106.5103 C50.8224,106.0363 50.5074,105.5263 50.3604,105.0323 C49.9674,105.2893 49.4324,105.4583 49.2044,105.8203 C48.2144,107.3873 47.2604,108.9613 45.7744,110.1433 C45.5414,110.3293 45.4964,110.8303 45.4754,111.1923 C45.4274,112.0783 45.4434,112.9693 45.4364,113.8573 C45.4344,114.0263 45.4034,114.2123 45.4614,114.3613 C45.9314,115.5903 46.3644,116.8393 46.9224,118.0283 C47.4354,119.1243 48.3364,120.0723 48.0394,121.4303 C48.0224,121.5063 48.0364,121.6243 48.0854,121.6743 C49.8204,123.4723 48.5274,125.2113 47.9844,126.9633 C47.9474,127.0833 47.9004,127.2093 47.8254,127.3073 C45.3754,130.5413 43.1294,134.0103 39.3314,135.8633 C37.3084,136.8483 35.7994,138.2113 34.8084,140.2243 C34.5584,140.7313 33.9854,141.0693 33.6174,141.5293 C32.8034,142.5443 32.0354,143.5943 31.2294,144.6143 C30.9474,144.9723 30.6704,145.4473 30.2854,145.5963 C28.5334,146.2703 27.0544,147.4493 25.1084,147.8653 C23.8444,148.1363 22.6464,148.6663 21.2834,148.6003 C20.3824,148.5563 19.4974,148.6313 18.8594,147.8243 C18.8094,147.7623 18.7204,147.7053 18.6434,147.6963 C15.6354,147.3513 12.6664,146.0183 9.6384,146.8213 C8.5664,147.1053 7.5604,148.3763 6.9374,149.4393 C6.1054,150.8583 5.8814,152.6433 4.9964,154.0143 C4.4854,154.8063 3.2074,155.1263 2.2404,155.5863 C1.9184,155.7393 1.4774,155.7333 1.1114,155.6743 C0.7304,155.6113 0.1624,155.4843 0.0564,155.2283 C-0.0856,154.8813 0.0694,154.3623 0.2084,153.9553 C0.7064,152.4983 1.2584,151.0593 1.7734,149.6083 C1.8564,149.3743 1.7734,149.0283 1.9174,148.8753 C3.6744,147.0083 4.5994,144.4503 7.1184,143.1763 C8.4584,142.4973 9.4994,141.1933 10.6104,140.1063 C12.8494,137.9143 15.0384,135.6713 17.2664,133.4683 C17.5524,133.1853 17.9514,133.0163 18.2964,132.7933 C18.5684,132.6173 18.9014,132.4893 19.1004,132.2503 C20.0654,131.0953 20.9254,129.8453 21.9504,128.7493 C23.7144,126.8653 25.5174,125.0083 27.4154,123.2593 C28.5484,122.2153 30.0044,121.5173 31.1154,120.4553 C33.8704,117.8243 36.5644,115.1223 39.1734,112.3453 C40.2464,111.2023 41.2744,110.0623 42.4624,109.0123 C43.7054,107.9123 44.4694,106.2633 45.4144,104.8353 C46.2914,103.5063 47.0774,102.1123 48.0234,100.8353 C48.2424,100.5403 48.9444,100.5783 49.4304,100.5143 C49.8054,100.4653 50.4144,100.6433 50.5284,100.4673 C50.8434,99.9823 51.2254,99.2883 51.0934,98.8133 C50.6674,97.2793 50.6804,95.9613 51.4194,94.4403 C51.9244,93.4013 51.6254,91.9703 51.6704,90.7133 C51.6904,90.1213 51.6414,89.5253 51.6844,88.9353 C51.7544,87.9983 52.2594,87.4043 53.2894,87.1213 C53.3554,87.4553 53.4574,87.7243 53.4554,87.9923 C53.4334,90.4903 53.7914,93.0823 53.2284,95.4543 C52.8104,97.2203 52.9394,98.9053 52.7744,100.6183 C52.6664,101.7503 52.6144,102.8923 52.6364,104.0283 C52.6414,104.2793 53.0734,104.5163 53.2954,104.7713 C53.5874,105.1073 54.0384,105.4213 54.1094,105.8023 C54.2184,106.3923 54.2194,107.0433 53.3514,107.3163 C53.0274,107.4183 52.6854,108.0273 52.6624,108.4233 C52.5744,109.8973 52.6174,111.3783 52.6074,112.8563 C52.6064,113.0243 52.6374,113.2283 52.5584,113.3553 C51.2814,115.3973 51.8564,117.6993 51.6264,119.8863 C51.5994,120.1373 51.6804,120.4653 51.5514,120.6313 C50.1964,122.3763 50.9084,124.3873 50.8224,126.2793 C50.7344,128.2223 50.8234,130.1743 50.8324,132.1213 C50.8334,132.3323 50.8654,132.5653 50.7914,132.7513 C50.2794,134.0373 49.7054,135.3003 49.2254,136.5983 C48.8244,137.6833 48.3094,138.7923 48.2364,139.9153 C48.1544,141.1893 47.8344,142.2723 47.2144,143.3703 C46.4404,144.7403 47.0724,145.7873 48.6874,145.8673 C49.7804,145.9223 50.8864,145.8203 51.9804,145.7123 C53.4894,145.5633 54.5694,146.0923 55.0884,147.5103 C55.3734,148.2913 55.8494,148.5803 56.5974,148.5803 C59.4764,148.5813 62.3544,148.5823 65.2334,148.5663 C66.0314,148.5623 66.1784,148.1593 65.8204,147.4883 C65.2654,146.4493 65.8134,145.9263 66.7604,145.8003 C67.9484,145.6423 69.1944,145.2953 70.2174,146.4023 C70.4574,146.6623 70.9824,146.7323 71.3844,146.7543 C72.1854,146.7983 72.9924,146.7413 73.7974,146.7403 C75.7534,146.7343 75.7574,146.7383 76.1844,144.8943 C76.3654,144.1153 76.8304,144.0243 77.5224,144.2393 C79.5304,144.8603 80.6214,144.0043 80.5764,141.9253 C80.5034,138.6273 80.4764,135.3273 80.3894,132.0303 C80.3764,131.5013 80.1554,130.9773 80.0214,130.4533 C79.9604,130.2113 79.7374,129.8793 79.8254,129.7503 C80.6274,128.5713 79.8784,127.5413 79.6744,126.4183 C79.5274,125.6153 79.9244,124.7153 80.0634,123.8563 C80.1344,123.4203 80.2644,122.9683 80.2114,122.5433 C80.0884,121.5713 79.7264,120.6123 79.7134,119.6443 C79.6574,115.8753 79.6764,112.1043 79.7274,108.3353 C79.7364,107.6893 80.0394,107.0483 80.1934,106.4023 C80.3294,105.8353 80.5544,105.2653 80.5554,104.6963 C80.5614,101.8583 80.5044,99.0203 80.4764,96.1823 C80.4724,95.8453 80.4084,95.4523 80.5494,95.1773 C82.2194,91.9183 81.0154,88.4383 81.3494,85.0793 C81.4634,83.9463 81.4554,82.7953 81.4134,81.6553 C81.4024,81.3573 81.0574,81.0723 80.8664,80.7813 C80.6444,81.0013 80.3914,81.1983 80.2084,81.4473 C79.9084,81.8523 79.5774,82.2603 79.3974,82.7213 C78.9514,83.8643 78.0994,84.6893 78.6854,86.3553 C79.2314,87.9063 79.1584,89.9333 78.4534,91.7883 C77.9684,93.0643 78.0844,94.5913 78.0434,96.0093 C77.9894,97.8713 78.1294,99.7413 78.0244,101.5993 C77.9554,102.8303 77.5654,104.0393 77.3894,105.2693 C77.2414,106.3103 77.1974,107.3663 77.1004,108.4153 C76.9664,109.8793 76.7934,111.3403 76.6944,112.8063 C76.5044,115.6233 76.2594,118.4403 76.2094,121.2613 C76.1274,125.7503 76.1864,130.2423 76.1764,134.7323 C76.1764,135.1523 76.2364,135.6583 76.0324,135.9703 C75.7884,136.3433 75.2904,136.5493 74.9024,136.8273 C74.7064,136.4623 74.3414,136.0973 74.3404,135.7313 C74.3174,130.5643 74.3384,125.3973 74.3744,120.2303 C74.3774,119.8263 74.4814,119.3723 74.6874,119.0313 C75.0964,118.3553 75.2964,117.7493 74.7424,117.0523 C74.6134,116.8883 74.5654,116.5293 74.6544,116.3433 C75.7154,114.1223 75.0174,111.7543 75.2774,109.4713 C75.3604,108.7393 75.5904,108.0223 75.7664,107.3023 C75.8854,106.8203 76.1374,106.3453 76.1434,105.8643 C76.1844,102.8143 76.1424,99.7633 76.2034,96.7153 C76.2164,96.0833 76.5364,95.4553 76.7254,94.8293 C76.8694,94.3573 77.1514,93.8923 77.1604,93.4203 C77.1924,91.5153 77.1584,89.6083 77.1164,87.7023 C77.0914,86.5133 76.8384,86.4513 75.7344,86.8893 C75.0654,87.1553 74.2714,87.1793 73.5334,87.1793 C72.1464,87.1793 71.7684,87.5233 71.8204,88.8713 C71.8724,90.2203 72.0244,91.5833 71.8874,92.9143 C71.7704,94.0563 71.3604,95.1823 70.9754,96.2793 C70.7344,96.9653 70.3324,97.6033 69.9364,98.2213 C69.7734,98.4743 69.4264,98.7903 69.1804,98.7763 C68.3924,98.7323 67.5394,98.7033 66.8424,98.3833 C65.3264,97.6843 65.2084,96.6083 66.3004,94.9633" id="Fill-1" fill="#231916" mask="url(#mask-2)"></path>
                </g>
                <path d="M100.7706,136.6688 C101.0536,136.0378 101.1846,135.2458 101.6496,134.8058 C102.8726,133.6498 103.3336,132.1338 103.9256,130.6688 C104.0956,130.2518 104.1496,129.7868 104.2516,129.3418 C104.4266,128.5808 104.6186,127.8218 104.7606,127.0548 C104.8376,126.6408 104.8886,126.1988 104.8186,125.7938 C104.7976,125.6738 104.1746,125.4878 104.0816,125.5838 C103.7456,125.9218 103.3766,126.3398 103.2886,126.7818 C103.1886,127.2818 103.6116,127.9718 103.3986,128.3508 C102.0506,130.7538 100.6216,133.1138 99.1266,135.4288 C98.9266,135.7378 98.2096,135.7128 97.7326,135.8428 C97.6196,135.3048 97.2966,134.6958 97.4486,134.2478 C97.6296,133.7118 98.1316,133.1448 98.6436,132.8858 C100.6036,131.8958 101.1336,130.0878 101.5826,128.1868 C101.7516,127.4688 101.9686,126.7578 102.2166,126.0628 C102.6066,124.9668 103.1206,123.9088 103.4346,122.7928 C103.7136,121.8028 104.7376,120.8428 105.7326,121.0188 C106.1106,121.0858 106.7016,121.4828 106.7226,121.7648 C106.8266,123.1608 107.1496,124.5318 106.2726,125.9388 C105.7866,126.7188 106.0116,127.9568 105.9866,128.9898 C105.9836,129.0798 106.5116,129.2738 106.7866,129.2628 C107.5806,129.2288 108.3786,129.1638 109.1596,129.0178 C109.9656,128.8668 110.7986,128.7088 111.5336,128.3658 C112.3406,127.9888 112.9256,127.9398 113.7496,128.4518 C114.4376,128.8778 115.4026,128.9938 116.2466,128.9988 C117.2776,129.0048 117.9716,129.4718 118.8446,129.9368 C121.5686,131.3838 122.1196,134.2348 123.3586,136.5518 C123.9636,137.6838 123.5496,139.497804 123.2466,140.9298 C123.0656,141.7808 122.9986,142.0498 123.9036,142.1878 C124.3856,142.2608 124.8326,142.5698 125.2956,142.7728 C125.0436,143.2708 124.9186,143.9448 124.5176,144.2328 C123.4046,145.0308 123.1566,145.7488 124.2226,146.7778 C124.7796,147.3158 124.5976,147.8038 123.8806,148.1578 C122.6696,148.7568 121.4886,149.4168 120.2966,150.0548 C119.0406,150.7278 117.7486,151.1458 116.2786,150.9368 C115.8346,150.8738 115.1756,150.9868 114.9096,151.2838 C114.1196,152.1638 113.1866,151.9608 112.4936,151.4988 C111.9156,151.1128 111.3556,150.2658 111.3186,149.5938 C111.2416,148.1938 111.4246,146.7998 110.4076,145.6248 C110.2916,145.4898 110.2566,145.2098 110.2976,145.0228 C110.5596,143.8328 110.9026,142.6578 111.1056,141.4588 C111.1616,141.1298 110.7776,140.7488 110.6876,140.3698 C110.5726,139.8788 110.4866,139.3598 110.5336,138.8678 C110.5446,138.7398 111.2726,138.4918 111.3736,138.5938 C111.7216,138.9458 112.1526,139.4198 112.1686,139.8628 C112.2356,141.5938 112.0816,143.3338 112.1686,145.0628 C112.2036,145.7138 112.5866,146.4028 112.9696,146.9678 C113.3896,147.5868 113.9686,147.5598 114.6206,147.1018 C115.1076,146.7598 115.7236,146.5218 116.3136,146.4238 C117.2766,146.2638 118.2116,146.2478 118.8476,145.2718 C119.0496,144.9618 119.7256,144.9478 120.1956,144.8468 C120.2406,144.8368 120.4796,145.2648 120.4246,145.3388 C120.1426,145.7218 119.8546,146.1638 119.4576,146.3868 C118.4686,146.9428 117.3986,147.3548 116.4086,147.9088 C116.1466,148.0558 116.0576,148.5128 115.8886,148.8268 C116.2146,148.9568 116.5306,149.1468 116.8686,149.2048 C118.4896,149.4838 119.8726,148.7388 121.2606,148.0908 C122.1216,147.6898 122.2076,145.6698 121.3276,144.9758 C120.7616,144.5308 120.6006,144.0658 121.0026,143.6008 C122.0626,142.3758 121.8096,140.9368 121.9386,139.5098 C122.1246,137.4478 121.2056,136.1068 120.0726,134.4468 C118.6606,132.3798 116.6156,131.9238 114.7626,130.8968 C114.4556,130.7258 114.0216,130.7428 113.6456,130.7408 C111.6976,130.7338 109.7496,130.7588 107.8006,130.7518 C106.5286,130.7478 105.7156,131.2488 105.1426,132.4728 C104.2536,134.3668 102.6346,135.6378 100.7706,136.6688" id="Fill-3" fill="#231916"></path>
                <path d="M91.3898,144.726 C91.4718,142.12 92.2048,139.864 93.9258,138.011 C95.8398,135.949 96.0628,134.73 94.8908,132.225 C94.6998,131.816 94.6558,131.338 94.5548,130.89 C94.3208,129.841 93.9658,128.8 93.8888,127.739 C93.7588,125.942 93.7918,124.132 93.7988,122.328 C93.7998,122.121 94.0698,121.913 94.2198,121.708 C94.6238,121.157 94.9988,121.1 95.5708,121.59 C97.4548,123.205 98.0988,125.296 98.1118,127.679 C98.1138,127.994 98.1588,128.428 98.3608,128.601 C99.2808,129.386 99.0228,130.366 98.8828,131.315 C98.8488,131.548 98.5768,131.889 98.3778,131.915 C98.1598,131.945 97.8948,131.676 97.6608,131.521 C97.5988,131.479 97.5538,131.383 97.5378,131.304 C97.1948,129.535 96.8728,127.762 96.5058,125.999 C96.4238,125.605 96.1868,125.244 96.0208,124.867 C95.8018,125.216 95.3748,125.583 95.4038,125.912 C95.5048,127.118 94.9828,128.495 96.2258,129.452 C96.3638,129.559 96.4238,129.834 96.4288,130.034 C96.4828,132.102 96.6228,134.177 96.5008,136.236 C96.4568,136.976 95.8568,137.751 95.3478,138.379 C94.5908,139.314 93.4428,139.998 93.7388,141.473 C93.7608,141.584 93.7168,141.752 93.6398,141.832 C92.1308,143.388 93.0538,145.37 92.7348,147.131 C92.5848,147.96 93.3988,148.131 93.7838,147.636 C95.2178,145.788 97.1608,146.573 98.9318,146.468 C99.4378,146.438 100.0448,146.653 100.4338,146.44 C101.1568,146.046 102.0748,145.538 102.3258,144.861 C102.6698,143.93 102.7678,143.099 103.8658,142.628 C104.1458,142.508 104.1618,141.122 103.8848,140.502 C103.4098,139.437 103.8148,138.927 104.6928,138.689 C105.0098,138.602 105.7848,139.007 105.8158,139.255 C105.9918,140.641 105.9898,141.942 105.5368,143.413 C104.9168,145.433 103.2008,146.049 102.0538,147.349 C101.4468,148.037 100.7948,148.684 100.0748,149.444 C101.1368,149.328 102.0048,149.085 102.8398,149.17 C105.0448,149.395 106.5038,147.813 108.2898,147.045 C108.5278,146.943 108.4938,146.284 108.6578,145.914 C108.7918,145.608 109.0328,145.349 109.2258,145.07 C109.4048,145.396 109.7208,145.717 109.7348,146.05 C109.7638,146.763 109.6558,147.484 109.5638,148.197 C109.5338,148.434 109.4208,148.831 109.2838,148.861 C107.4818,149.245 106.5668,151.527 104.2378,150.975 C102.9238,150.664 101.4148,150.682 100.1058,151.657 C99.6808,151.972 98.8028,151.696 98.1338,151.662 C97.5008,151.629 96.8438,151.645 96.2458,151.472 C95.9318,151.381 95.5408,150.956 95.4938,150.637 C95.2458,148.963 95.1118,148.843 93.6468,149.532 C92.4848,150.078 91.8588,149.094 91.0568,148.652 C90.4108,148.296 90.2078,147.75 90.6378,147.051 C90.7328,146.898 90.7528,146.596 90.6638,146.451 C90.0448,145.44 90.6028,144.976 91.3898,144.726" id="Fill-5" fill="#231916"></path>
                <path d="M69.1261,112.852 C69.1261,115.392 69.1261,117.932 69.1251,120.472 C69.1251,120.767 69.2251,121.135 69.0881,121.347 C67.4771,123.848 68.4281,126.619 68.2741,129.255 C68.0921,132.421 68.1891,135.603 68.1811,138.779 C68.1801,139.197 68.4191,139.659 68.3051,140.024 C68.1211,140.608 67.7751,141.159 67.4061,141.656 C67.3141,141.782 66.7841,141.754 66.6211,141.61 C66.4681,141.474 66.4001,140.984 66.5221,140.833 C67.5761,139.529 67.1941,138.009 67.2161,136.559 C67.2501,134.231 67.3901,131.889 67.1941,129.577 C67.0601,127.992 67.1701,126.371 66.9841,124.879 C66.7381,122.898 67.8261,121.201 67.4601,119.295 C66.9071,116.414 68.2011,113.638 68.0951,110.78 C68.0561,109.755 67.6201,108.746 67.5741,107.72 C67.5231,106.582 67.6751,105.429 67.8291,104.294 C67.8581,104.079 68.3131,103.921 68.5701,103.737 C68.7721,104.111 69.1421,104.482 69.1471,104.858 C69.1781,107.353 69.1311,109.849 69.1091,112.344 C69.1071,112.513 69.1091,112.683 69.1091,112.852 L69.1261,112.852 Z" id="Fill-7" fill="#231916"></path>
                <path d="M55.1271,119.3344 C55.1271,121.4454 55.1571,123.5574 55.0971,125.6674 C55.0871,126.0024 54.6661,126.3264 54.4351,126.6554 C54.3051,126.3074 54.1231,125.9684 54.0581,125.6074 C54.0001,125.2894 54.2171,124.8384 54.0641,124.6314 C52.8431,122.9814 53.4551,121.1014 53.3881,119.3324 C53.2961,116.9284 53.3941,114.5164 53.4701,112.1084 C53.4821,111.7054 53.8011,111.3114 53.9791,110.9124 C54.3111,111.1944 54.7381,111.4194 54.9471,111.7744 C55.1461,112.1094 55.1691,112.5794 55.1741,112.9914 C55.1931,115.1054 55.1831,117.2194 55.1831,119.3344 C55.1641,119.3344 55.1461,119.3344 55.1271,119.3344" id="Fill-9" fill="#231916"></path>
                <path d="M55.9718,137.1693 C55.9718,139.4493 55.9988,141.7303 55.9468,144.0083 C55.9368,144.4293 55.5998,144.8423 55.4138,145.2583 C55.2268,144.8543 54.8828,144.4513 54.8768,144.0443 C54.8488,141.9353 54.9088,139.8243 54.9348,137.7133 C54.9378,137.5023 54.9928,137.2583 54.9078,137.0863 C53.7688,134.7653 54.5158,132.2613 54.2148,129.8603 C54.1628,129.4433 54.5418,128.9723 54.7228,128.5263 C55.1618,128.9613 55.9508,129.3753 55.9808,129.8363 C56.1058,131.8103 56.0128,133.7973 55.9868,135.7793 C55.9808,136.2423 55.9258,136.7053 55.8928,137.1683 L55.9718,137.1693 Z" id="Fill-11" fill="#231916"></path>
                <path d="M99.921,142.6889 C99.82,143.4379 99.696,144.3519 98.49,144.3949 C97.336,144.4369 96.279,143.6939 96.315,142.9049 C96.352,142.0859 97.64,141.1299 98.67,141.1639 C99.55,141.1919 99.983,141.6389 99.921,142.6889" id="Fill-13" fill="#231916"></path>
                <path d="M98.7443,14.3544 C99.2103,13.6994 99.6753,13.0444 100.1403,12.3894 C100.7233,14.0094 100.4893,14.3714 99.1173,14.6574 C98.9933,14.5564 98.8683,14.4554 98.7443,14.3544" id="Fill-15" fill="#231916"></path>
                <path d="M77.0773,59.2812 C77.8453,60.2522 78.3913,60.8762 78.8153,61.5742 C78.8623,61.6522 77.9483,62.4442 77.9173,62.4162 C77.2953,61.8612 76.6993,61.2612 76.2083,60.5902 C76.1323,60.4872 76.5973,59.9882 77.0773,59.2812" id="Fill-17" fill="#231916"></path>
                <path d="M70.3097,26.996 C69.4137,27.35 68.8767,27.62 68.3077,27.764 C67.9947,27.844 67.6097,27.759 67.2977,27.641 C67.2317,27.616 67.2537,26.942 67.3837,26.882 C67.9677,26.607 68.5957,26.387 69.2297,26.275 C69.4407,26.238 69.7187,26.585 70.3097,26.996" id="Fill-19" fill="#231916"></path>
                <path d="M74.3644,17.975 C73.6634,18.35 73.3314,18.66 72.9984,18.6620079 C72.7354,18.664 72.4704,18.286 72.2074,18.077 C72.4894,17.868 72.7514,17.537 73.0584,17.485 C73.3394,17.438 73.6694,17.696 74.3644,17.975" id="Fill-21" fill="#231916"></path>
                <path d="M66.8136,20.892 C66.1476,21.094 65.8046,21.302 65.5006,21.258 C65.2526,21.222 65.0496,20.881 64.8286,20.675 C65.1586,20.495 65.4776,20.211 65.8236,20.173 C66.0386,20.149 66.2936,20.496 66.8136,20.892" id="Fill-23" fill="#231916"></path>
            </g>
        </g>
    </g>
</svg>