<?xml version="1.0" encoding="UTF-8"?>
<svg width="183px" height="243px" viewBox="0 0 183 243" version="1.1" xmlns="http://www.w3.org/2000/svg" xmlns:xlink="http://www.w3.org/1999/xlink">
    <!-- Generator: Sketch 60 (88103) - https://sketch.com -->
    <title>figure19</title>
    <desc>Created with Sketch.</desc>
    <defs>
        <polygon id="path-1" points="0.80080724 0.988 158.170935 0.988 158.170935 216.458166 0.80080724 216.458166"></polygon>
        <polygon id="path-3" points="0.000617605982 0.269501973 182.43 0.269501973 182.43 61 0.000617605982 61"></polygon>
    </defs>
    <g id="页面-1" stroke="none" stroke-width="1" fill="none" fill-rule="evenodd">
        <g id="桌面端-HD备份-2" transform="translate(-319.000000, -391.000000)">
            <g id="figure19" transform="translate(319.000000, 390.000000)">
                <g id="编组" transform="translate(12.000000, 0.012000)">
                    <mask id="mask-2" fill="white">
                        <use xlink:href="#path-1"></use>
                    </mask>
                    <g id="Clip-2"></g>
                    <path d="M92.2885,54.3176 C92.0415,54.4766 91.7945,54.6356 91.5475,54.7956 C91.9345,55.3606 92.3225,55.9246 92.7095,56.4896 C92.9235,56.3416 93.3355,56.0886 93.3215,56.0606 C93.0055,55.4646 92.6425,54.8936 92.2885,54.3176 M112.1565,201.6016 C111.6345,201.1466 111.3205,200.8736 111.0075,200.5996 C110.7215,200.9666 110.2855,201.3066 110.2105,201.7126 C110.1715,201.9276 110.7405,202.4456 111.0695,202.4786 C111.3435,202.5046 111.6665,202.0216 112.1565,201.6016 M145.4955,93.9076 C144.7255,93.4056 144.3305,92.9466 143.9485,92.9576 C143.5655,92.9666 143.1945,93.4446 142.8185,93.7176 C143.1975,93.9996 143.5445,94.4226 143.9665,94.5186 C144.2865,94.5906 144.7015,94.2466 145.4955,93.9076 M37.8555,208.6706 C38.2175,207.7656 38.5395,207.3366 38.5025,206.9406 C38.4705,206.5936 38.0345,206.2846 37.7775,205.9596 C37.5015,206.3116 37.0305,206.6476 37.0025,207.0186 C36.9735,207.3936 37.3805,207.8036 37.8555,208.6706 M123.5185,103.2846 C123.9665,102.7486 124.2585,102.3976 124.5515,102.0466 C124.1245,101.7706 123.7095,101.3076 123.2665,101.2776 C122.9345,101.2556 122.5665,101.7916 122.2145,102.0796 C122.5925,102.4286 122.9715,102.7786 123.5185,103.2846 M61.5955,68.9056 C60.7165,68.3766 60.3175,67.9516 59.9165,67.9476 C59.5245,67.9446 59.1305,68.3726 58.7365,68.6116 C59.0875,68.9216 59.4005,69.4056 59.8005,69.4916 C60.1795,69.5736 60.6475,69.2396 61.5955,68.9056 M97.6275,65.5846 C97.4345,65.3206 97.2405,65.0586 97.0485,64.7956 C96.3755,65.2146 95.7025,65.6346 95.0295,66.0546 C95.3045,66.2996 95.7045,66.8076 95.8325,66.7466 C96.4705,66.4416 97.0365,65.9866 97.6275,65.5846 M142.5815,193.3966 C141.8645,192.7036 141.3935,192.2116 140.8625,191.7986 C140.8115,191.7596 140.1175,192.3766 140.1505,192.4316 C140.4945,193.0006 140.8945,193.5476 141.3635,194.0176 C141.4345,194.0886 141.9305,193.7366 142.5815,193.3966 M83.2245,106.4786 C83.2325,106.1146 83.2425,105.7506 83.2515,105.3866 L80.8615,105.3866 C80.8695,105.7006 80.8405,106.2826 80.8905,106.2896 C81.6615,106.3966 82.4435,106.4286 83.2245,106.4786 M142.6135,184.8866 C141.9675,184.4806 141.4915,184.0066 141.3095,184.1016 C140.8215,184.3546 140.4595,184.8496 140.0465,185.2496 C140.3565,185.5646 140.7945,186.1996 140.9545,186.1356 C141.4725,185.9306 141.8875,185.4676 142.6135,184.8866 M92.9075,97.2236 C93.0515,97.1926 93.1945,97.1626 93.3395,97.1316 C93.4125,96.2786 93.5445,95.4246 93.5275,94.5736 C93.5205,94.2696 93.1525,93.9726 92.9495,93.6716 C92.7045,93.9936 92.2245,94.3446 92.2605,94.6316 C92.3695,95.5086 92.6775,96.3616 92.9075,97.2236 M138.8435,195.4426 C138.3285,195.4936 137.5515,195.5046 136.8085,195.6716 C136.4115,195.7606 136.0065,196.0626 135.7475,196.3836 C135.6465,196.5076 135.9005,197.1756 136.0615,197.2046 C136.5205,197.2846 137.1555,197.3366 137.4655,197.0856 C138.0565,196.6046 138.4715,195.9066 138.8435,195.4426 M108.2385,82.2906 C108.5325,84.4056 109.8835,85.6786 111.7495,85.4756 C110.5235,84.3636 109.5225,83.4556 108.2385,82.2906 M90.9915,52.6156 C90.5565,51.4816 90.3455,50.7826 90.0205,50.1406 C89.8105,49.7246 89.4365,49.3926 89.1365,49.0236 C88.8855,49.2286 88.4195,49.4406 88.4245,49.6386 C88.4375,50.1506 88.5165,50.7886 88.8325,51.1326 C89.3095,51.6526 90.0135,51.9676 90.9915,52.6156 M139.7135,94.9386 C140.2935,94.4906 140.7375,94.1466 141.1825,93.8026 C140.7265,93.4816 140.2505,92.8766 139.8205,92.9086 C139.1945,92.9546 138.6035,93.4596 137.9975,93.7686 C138.5105,94.1176 139.0225,94.4676 139.7135,94.9386 M139.5855,186.7116 C138.6575,186.1056 138.1485,185.5376 137.6095,185.5056 C137.2655,185.4846 136.5755,186.2706 136.5905,186.6746 C136.6035,187.0726 137.2825,187.7106 137.7225,187.7576 C138.1655,187.8056 138.6735,187.2576 139.5855,186.7116 M82.2005,36.1556 C81.6555,35.5536 81.2775,35.1356 80.8995,34.7186 C80.5905,35.1706 80.0205,35.6306 80.0355,36.0716 C80.0545,36.6396 80.5405,37.1916 80.8255,37.7506 C81.2285,37.2826 81.6325,36.8146 82.2005,36.1556 M26.7915,101.8806 C27.2375,102.6486 27.5785,103.2356 27.9205,103.8236 C28.2665,103.3776 28.9275,102.9006 28.8865,102.4916 C28.8165,101.7896 28.3095,101.1306 27.9865,100.4546 C27.6315,100.8796 27.2745,101.3036 26.7915,101.8806 M75.3575,42.2066 C75.1405,42.2086 74.9235,42.2106 74.7065,42.2136 C73.7675,43.1356 74.1115,44.2686 74.3615,45.3556 C74.4005,45.5246 74.8335,45.7416 75.0285,45.6966 C75.2495,45.6476 75.5705,45.3226 75.5675,45.1236 C75.5495,44.1506 75.4365,43.1786 75.3575,42.2066 M93.8075,91.7636 C94.6035,92.3166 95.1405,92.8256 95.7775,93.0566 C96.0005,93.1366 96.4715,92.5306 96.8285,92.2386 L94.9765,90.3836 C94.6825,90.7326 94.3875,91.0806 93.8075,91.7636 M104.0845,86.4926 C103.8665,86.6536 103.6485,86.8136 103.4315,86.9746 C103.7765,87.7746 104.0175,88.6496 104.5135,89.3416 C104.7475,89.6696 105.4695,89.6476 105.9695,89.7846 C106.0125,89.3106 106.2685,88.6746 106.0575,88.3966 C105.5105,87.6776 104.7555,87.1166 104.0845,86.4926 M110.7595,196.8876 C110.1155,196.1166 109.6265,195.5316 109.1375,194.9456 C108.6875,195.3676 107.7895,196.0346 107.8635,196.1696 C108.2685,196.9106 108.9125,197.5216 109.4755,198.1766 C109.8175,197.8326 110.1615,197.4876 110.7595,196.8876 M76.1715,13.7456 C75.5375,13.0486 75.1535,12.6276 74.7705,12.2056 C74.2325,12.7846 73.6245,13.3196 73.2245,13.9816 C73.1525,14.0996 74.0365,15.1276 74.3265,15.0616 C74.9165,14.9286 75.4015,14.3346 76.1715,13.7456 M30.9445,84.0786 C29.8045,85.2906 29.8225,87.8676 30.8755,88.9016 C31.6365,87.8786 31.6985,85.6526 30.9445,84.0786 M149.3165,177.7596 C149.2025,177.4396 149.1435,177.1426 149.0895,177.1436 C148.2845,177.1526 147.4115,177.0216 146.6965,177.2966 C146.1145,177.5196 145.7095,178.2286 145.2675,178.7566 C145.2265,178.8066 145.4745,179.2556 145.6175,179.2736 C146.1045,179.3336 146.6845,179.4406 147.0855,179.2416 C147.8845,178.8446 148.5895,178.2566 149.3165,177.7596 M97.7705,79.2236 L97.5305,79.5736 C98.2615,80.7626 98.9265,82.0006 99.7635,83.1096 C100.0015,83.4256 100.7375,83.3666 101.2455,83.4806 C101.3245,83.0756 101.6065,82.4486 101.4485,82.3026 C100.2715,81.2226 99.0085,80.2376 97.7705,79.2236 M149.1345,88.9296 C147.6725,89.1516 146.2995,89.3226 144.9525,89.6106 C144.7645,89.6506 144.6995,90.2686 144.5775,90.6186 C145.6175,90.6756 146.6875,90.9056 147.6895,90.7346 C148.5035,90.5966 149.4635,90.1376 149.1345,88.9296 M55.1795,201.7976 C56.0245,200.7416 56.7855,200.0466 57.1515,199.1836 C57.2675,198.9136 56.3205,198.1926 55.8595,197.6776 C55.3255,198.5436 54.7215,199.3776 54.3085,200.2976 C54.2045,200.5286 54.7195,201.0366 55.1795,201.7976 M34.1495,103.1716 C33.9195,102.3976 33.7615,101.0096 33.4475,100.9736 C32.4645,100.8606 31.4215,101.2556 30.4005,101.4536 C30.5905,101.8996 30.6875,102.6436 30.9865,102.7356 C31.8525,103.0046 32.7995,103.0106 34.1495,103.1716 M114.3505,200.0466 C114.3885,198.2906 114.4385,196.9296 114.4255,195.5696 C114.4235,195.3436 114.1495,194.9446 113.9805,194.9326 C113.6235,194.9086 112.9755,195.0196 112.9325,195.1946 C112.7185,196.0546 112.3915,197.0376 112.6275,197.8176 C112.8765,198.6356 113.7205,199.2736 114.3505,200.0466 M96.5675,94.9496 C95.4435,95.7216 95.0085,99.2366 95.9345,99.8486 C96.2445,100.0526 96.9105,100.0886 97.1815,99.8886 C97.5335,99.6266 97.9185,98.9876 97.8285,98.6266 C97.5185,97.3806 97.0095,96.1856 96.5675,94.9496 M92.7205,86.5976 C92.4775,86.1126 92.1455,85.1976 91.5885,84.4516 C91.3515,84.1326 90.6425,84.1666 90.1475,84.0406 C90.1075,84.5636 89.9235,85.1276 90.0585,85.6006 C90.3145,86.5046 90.7265,87.3696 91.1315,88.2246 C91.2855,88.5506 91.5935,88.8036 91.8305,89.0906 C92.0815,88.8236 92.4305,88.5956 92.5585,88.2786 C92.7025,87.9226 92.6485,87.4866 92.7205,86.5976 M146.5755,182.6956 C146.5715,182.8856 146.5685,183.0756 146.5645,183.2656 C147.3995,183.2656 148.4425,183.5786 149.0215,183.1926 C149.9085,182.6036 150.5155,181.5596 151.1405,180.6406 C151.2425,180.4886 150.9055,179.8946 150.6335,179.6856 C150.4765,179.5656 149.9655,179.7156 149.7445,179.9006 C148.6635,180.8036 147.6275,181.7586 146.5755,182.6956 M127.6005,98.3146 C127.7115,98.4796 127.8215,98.6446 127.9325,98.8086 C128.9465,98.5406 130.1605,98.5216 130.9145,97.9226 C131.5155,97.4456 131.5555,96.2616 131.8455,95.3916 C131.3515,95.2306 130.5685,94.7906 130.4105,94.9536 C129.3965,96.0006 128.5205,97.1796 127.6005,98.3146 M119.8865,87.7836 L119.3415,88.6906 C120.5535,89.6056 121.7345,90.5676 122.9975,91.4066 C123.3825,91.6626 123.9935,91.5786 124.5005,91.6496 C124.4665,91.0636 124.6425,90.1176 124.3605,89.9536 C122.9345,89.1186 121.3895,88.4866 119.8865,87.7836 M70.0985,199.1236 C70.7185,198.8606 71.1995,198.7216 71.5865,198.4466 C71.6825,198.3796 71.5585,197.6856 71.3815,197.6016 C70.1545,197.0136 68.9105,196.4426 67.6205,196.0256 C67.2615,195.9096 66.7265,196.3326 66.2735,196.5076 C66.4585,196.9516 66.5225,197.6236 66.8505,197.7966 C67.8885,198.3416 69.0235,198.7016 70.0985,199.1236 M82.9895,207.5586 C84.2515,206.9426 85.4885,206.4586 86.5735,205.7446 C86.9795,205.4776 87.0315,204.6726 87.2455,204.1126 C86.6835,204.0786 86.0475,203.8596 85.5725,204.0476 C84.5225,204.4646 83.5285,205.0456 82.5645,205.6446 C82.1995,205.8716 81.9805,206.3336 81.6945,206.6886 C82.0935,206.9556 82.4905,207.2236 82.9895,207.5586 M99.0565,194.5716 C97.8095,195.2486 95.9935,194.3936 95.9435,196.2126 C95.9235,196.9496 96.9235,197.7156 97.4595,198.4696 C98.3505,197.5746 99.2625,196.6986 100.0765,195.7386 C100.1275,195.6796 99.4035,194.9636 99.0565,194.5716 M120.8265,194.5516 C120.4215,194.2926 120.0135,193.8656 119.8385,193.9456 C118.6635,194.4866 117.4985,195.0766 116.4295,195.7976 C116.2175,195.9406 116.2475,196.8716 116.4925,197.1686 C116.8975,197.6596 117.5435,198.0006 118.1535,198.2326 C118.2715,198.2766 118.6955,197.5396 118.9675,197.1536 C119.3215,196.6486 119.6585,196.1306 120.0135,195.6266 C120.2345,195.3126 120.4765,195.0116 120.8265,194.5516 M145.8695,191.1646 C145.1885,190.5136 144.2455,190.0446 144.1075,189.4016 C143.5795,186.9496 141.9835,187.8236 140.5185,187.8846 C141.1245,190.5756 143.9965,192.3686 145.8695,191.1646 M39.1315,101.3226 C39.0175,101.2076 38.9055,101.0926 38.7925,100.9786 C38.6985,100.0016 38.6745,99.0086 38.4745,98.0546 C38.3995,97.7006 37.9125,97.4326 37.6135,97.1266 C37.3755,97.4716 36.8645,97.9016 36.9415,98.1486 C37.5045,99.9476 36.9205,101.2756 35.5345,102.4246 C35.3465,102.5816 35.3955,103.2096 35.5435,103.5206 C35.6455,103.7376 36.2665,103.9746 36.3805,103.8776 C37.3335,103.0686 38.2235,102.1846 39.1315,101.3226 M149.8835,190.381611 C150.1125,190.1426 151.0865,189.2686 151.0185,189.1786 C150.3115,188.2416 149.5395,187.2486 148.5475,186.6996 C148.2655,186.5436 146.8915,187.6536 146.5945,188.4086 C146.2355,189.3226 147.8545,190.3856 149.8835,190.381611 M91.2265,104.0546 C91.2255,104.0406 91.2245,104.0256 91.2235,104.0106 C89.9555,104.0106 88.6835,103.9566 87.4225,104.0466 C87.0885,104.0706 86.7875,104.5386 86.4715,104.8026 C86.7705,105.0286 87.0635,105.4426 87.3695,105.4516 C89.7285,105.5256 92.0925,105.5616 94.4505,105.4966 C94.7845,105.4876 95.1015,104.8666 95.4255,104.5296 C95.0595,104.3256 94.7005,103.9636 94.3275,103.9476 C93.2975,103.9056 92.2605,104.0096 91.2265,104.0546 M115.2525,88.1906 C114.8135,88.4806 114.3125,88.6646 114.316476,88.8366 C114.3275,89.2986 114.4095,89.9416 114.7205,90.1846 C116.2655,91.3956 117.8715,92.5336 119.5035,93.6256 C120.0825,94.0126 120.7815,94.2466 121.4585,94.4356 C121.5995,94.4756 122.1005,93.8466 122.0655,93.8006 C121.6405,93.2296 121.1505,92.7056 120.6655,92.1796 C120.5945,92.1026 120.4515,92.0946 120.3565,92.0316 C119.4815,91.4556 118.5805,90.9126 117.7455,90.2836 C116.8905,89.6386 116.1005,88.9076 115.2525,88.1906 M44.1705,207.5756 C44.2535,207.7456 44.3355,207.9166 44.4175,208.0866 C44.7745,207.9376 45.1585,207.8326 45.4845,207.6336 C47.3495,206.5016 45.6745,205.5076 45.3285,204.4786 C44.8525,203.0676 43.8815,203.1646 43.1165,204.0676 C42.1975,205.1516 41.4915,206.4256 40.7825,207.6686 C40.6455,207.9076 40.8085,208.5426 41.0365,208.7016 C41.2555,208.8536 41.7655,208.6846 42.1015,208.5476 C42.8075,208.2616 43.4825,207.9036 44.1705,207.5756 M89.4695,90.5306 C88.9925,91.0336 88.7145,91.1896 88.7085,91.3536 C88.6225,94.0406 88.4325,96.7366 88.5745,99.4146 C88.6365,100.5826 90.4225,101.0356 90.7345,100.1166 C91.1375,98.9376 91.5025,97.2686 90.9605,96.3626 C90.2215,95.1266 89.8715,94.0476 89.9485,92.6736 C89.9815,92.0936 89.6975,91.4946 89.4695,90.5306 M54.7455,80.1086 C54.4915,80.1146 54.2375,80.1206 53.9845,80.1276 C53.8635,80.8496 53.6435,81.5706 53.6385,82.2946 C53.6095,85.8156 53.6095,89.3386 53.6815,92.8586 C53.6895,93.2906 54.1865,93.7116 54.4575,94.1376 C54.7225,93.6416 55.2095,93.1476 55.2165,92.6476 C55.2665,89.1246 55.2395,85.5996 55.1805,82.0756 C55.1695,81.4176 54.8965,80.7636 54.7455,80.1086 M21.9795,197.4696 C21.9925,197.5316 22.0065,197.5936 22.0185,197.6546 C23.4065,197.3786 24.8205,197.1866 26.1655,196.7716 C26.5485,196.6536 26.9195,195.8886 26.9285245,195.4146 C26.9335,195.1496 26.1705,194.6216 25.7735,194.6396 C23.6815,194.7346 21.5925,194.9366 19.5115,195.1816 C19.1725,195.2216 18.8195,195.6156 18.5865,195.9296 C18.3675,196.2226 18.1075,196.7096 18.2165,196.9596 C18.3295,197.2226 18.8505,197.4216 19.2075,197.4476 C20.1275,197.5136 21.0555,197.4696 21.9795,197.4696 M130.0215,197.2846 C130.9025,196.6986 131.7315,196.1476 132.5615,195.5956 C131.8865,195.0096 131.2565,194.3586 130.5215,193.8566 C129.6465,193.2586 128.7185,192.7066 127.7435,192.2996 C127.2605,192.0996 126.3215,192.0456 126.1145,192.3196 C125.6525,192.9356 125.1265,194.3376 125.3145,194.4746 C126.7295,195.5056 128.3105,196.3076 130.0215,197.2846 M73.1965,16.6376 C72.0585,16.4456 71.3825,17.3306 71.8855,18.2706 C72.1465,18.7586 72.6095,19.1646 73.0495,19.5266 C73.9205,20.2456 73.8765,20.9116 73.1525,21.7246 C72.7825,22.1416 72.5985,22.7226 72.3295,23.2296 C72.9105,23.0266 73.5405,22.9046 74.0585,22.5946 C74.4175,22.3796 74.8915,21.8756 74.8535,21.5536 C74.6725,19.9846 75.5905,19.4696 76.8185,18.9536 C77.2765,18.7616 77.6915,17.9066 77.6775,17.3656 C77.6695,17.0526 76.7845,16.5566 76.2615,16.5076 C75.2525,16.4136 74.2195,16.5796 73.1965,16.6376 M70.6925,202.2456 C70.8725,202.0666 71.0515,201.8876 71.2305,201.7086 C70.7475,201.4946 70.2695,201.2676 69.7815,201.0686 C67.8315,200.2766 65.9085,199.4006 63.9085,198.7646 C63.3515,198.5876 62.3685,198.9456 61.9435,199.3986 C61.5935,199.7716 61.4995,200.8936 61.8015,201.2346 C62.1245,201.6006 63.0405,201.4576 63.6995,201.5056 C63.9765,201.5256 64.2995,201.3616 64.5295,201.4556 C65.8715,202.0046 67.2035,202.5816 68.5175,203.1956 C69.6755,203.7366 70.7495,203.2916 70.6925,202.2456 M75.3595,48.8926 C75.5195,50.8426 75.6735,52.4246 75.7725,54.0096 C75.8295,54.9216 76.0075,55.9006 75.7585,56.7396 C75.4525,57.7656 75.7905,58.1606 76.6575,58.3516 C77.1585,58.4616 77.6975,58.5396 78.1995,58.4756 C78.7275,58.4066 79.3555,58.2706 79.6945,57.9246 C79.8575,57.7576 79.5435,56.9856 79.2965,56.5796 C78.3885,55.0896 77.5535,53.6306 77.7625,51.7546 C77.9075,50.4516 77.0485,49.6836 75.3595,48.8926 M134.7865,193.9276 C137.0955,193.9086 138.0615,193.1426 137.9125,191.6916 C137.7355,189.9716 136.3795,190.3236 135.2495,190.3196 C134.3885,190.3176 133.5255,190.2676 132.6645,190.2766 C131.5695,190.2896 130.4715,190.3016 129.3825,190.4056 C129.1415,190.4286 128.9355,190.8386 128.7145,191.0696 C128.9485,191.2806 129.2315,191.7096 129.4105,191.6696 C131.1785,191.2736 132.1655,192.4896 133.3515,193.3976 C133.8575,193.7846 134.5995,193.8636 134.7865,193.9276 M72.2285,28.7396 C72.1455,28.6936 72.0615,28.6486 71.9785,28.6026 C71.9615,28.1986 72.0445,27.7516 71.8965,27.4016 C71.7385,27.0266 71.3635,26.7436 71.0825,26.4196 C70.7845,26.7786 70.3095,27.1036 70.2315,27.5056 C70.1265,28.0456 70.4555,28.6656 70.3645,29.2126 C70.2415,29.9566 70.0785,30.8166 69.6175,31.3596 C67.9835,33.2836 67.3165,35.5606 67.0615,37.9636 C66.9995,38.5546 67.6035,39.2156 67.9005,39.8446 C68.4295,39.2896 69.1015,38.8066 69.4355,38.1526 C69.6575,37.7176 69.3425,37.0336 69.3725,36.4666 C69.3975,35.9916 69.4185,35.3156 69.7155,35.0926 C70.6625,34.3836 70.7355,33.5376 70.6015,32.4826 C70.5445,32.0426 70.8575,31.5346 71.0635,31.0846 C71.4285,30.2916 71.8385,29.5206 72.2285,28.7396 M100.6445,89.0566 C100.8805,88.8896 101.1155,88.7226 101.3515,88.5566 C100.8885,87.6636 100.5465,86.6736 99.9335,85.9006 C99.0475,84.7796 97.6845,83.9666 97.0235,82.7526 C95.7105,80.3396 94.7555,77.7326 93.5955,75.2316 C93.4535,74.9246 92.9585,74.7816 92.6275,74.5626 C92.5725,75.0056 92.3835,75.4856 92.4915,75.8846 C92.6785,76.5676 93.1045,77.1796 93.3305,77.8556 C93.5975,78.6526 93.6105,79.5626 93.9925,80.2876 C94.9345,82.0726 95.8915,83.8796 97.0955,85.4876 C98.0905,86.8176 99.4485,87.8776 100.6445,89.0566 M40.0725,101.7106 C40.6875,102.6166 41.3225,103.7636 42.7065,103.4616 C43.9845,103.1816 43.9535,102.0446 44.0715,100.8526 C44.3025,98.5066 43.0175,95.8576 45.2835,93.8216 C45.4935,93.6336 45.2155,92.9026 45.1635,92.4236 C44.7625,92.4766 44.1845,92.3796 43.9885,92.6076 C42.8405,93.9476 41.7205,95.3226 40.7115,96.7696 C40.0235,97.7566 39.8745,98.6406 41.6345,98.5596 C41.9865,98.5436 42.6025,99.1016 42.6825,99.4806 C42.7965,100.0296 42.7315,100.9266 42.3805,101.1886 C41.8655,101.5716 41.0295,101.5246 40.0725,101.7106 M30.3975,202.3866 C30.3205,202.2396 30.2425,202.0916 30.1655,201.9446 C29.0055,202.5036 27.7725,202.9536 26.7165,203.6656 C26.1505,204.0466 25.4365,205.2866 25.5715,205.4376 C26.1785,206.1126 27.0015,206.7506 27.8635,207.0056 C29.7685,207.5686 31.2035,206.5386 32.3335,205.1316 C32.7975,204.5536 33.0145,203.7776 33.3435,203.0926 C32.5905,202.8296 31.8435,202.5466 31.0805,202.3166 C30.8785,202.2546 30.6265,202.3596 30.3975,202.3866 M106.5975,197.5706 C106.5975,197.3396 106.6695,197.0776 106.5845,196.8836 C106.3035,196.2456 105.9655,195.6316 105.6485,195.0076 C105.0785,195.3076 104.4335,195.5186 103.9525,195.9246 C103.1195,196.6306 102.3925,197.4606 101.6135,198.2306 C100.8475,198.9896 100.8155,199.5316 101.9345,200.0236 C102.7605,200.3866 103.5015,200.9526 104.2505,201.4706 C105.4095,202.2726 106.5065,203.1746 107.7135,203.8936 C108.0605,204.1006 108.6955,203.8246 109.1995,203.7706 C109.0725,203.3276 109.0335,202.8306 108.8025,202.4496 C107.8665,200.9066 106.4715,199.5856 106.5975,197.5706 M101.0965,206.9126 C101.1335,207.0946 101.1705,207.2766 101.2075,207.4596 C102.5555,206.9506 103.9345,206.5076 105.2355,205.8966 C105.7035,205.6766 105.9805,205.0506 106.3455,204.6096 C105.8825,204.2406 105.4695,203.7606 104.9455,203.5246 C103.6495,202.9386 102.3165,202.4246 100.9725,201.9576 C100.1835,201.6836 98.9415,201.1246 98.6035,201.4416 C97.6315,202.3516 97.0045,203.6346 96.2795,204.7966 C96.2255,204.8846 96.4315,205.2616 96.5945,205.3416 C98.0265,206.0396 99.0045,207.9376 101.0965,206.9126 M94.7495,59.1616 C94.5675,59.2546 94.3875,59.3486 94.2065,59.4426 C94.4765,61.9176 94.1495,62.4156 91.4375,63.6626 C90.3635,64.1556 88.7085,63.4916 88.8095,62.3776 C89.0035,60.2136 87.2825,58.9636 86.7765,57.1746 C86.6385,56.6846 86.4715,56.2006 86.2925,55.7236 C86.1405,55.3176 85.9765,54.9116 85.7505,54.5466 C85.7235,54.5026 85.0735,54.7016 85.0675,54.8096 C85.0355,55.3366 85.0375,55.8966 85.1885,56.3956 C85.4295,57.1856 85.8355,57.9236 86.1015,58.7066 C86.3885,59.5446 86.4995,60.4516 86.8525,61.2556 C87.7705,63.3446 88.7775,65.3946 89.7535,67.4586 C90.0155,68.0126 90.2915,68.5586 90.5615,69.1096 C90.8425,68.5426 91.3465,67.9806 91.3555,67.4096 C91.3795,66.1466 91.8825,65.5956 93.0965,65.2466 C94.1705,64.9366 95.1495,64.2436 96.1045,63.6196 C96.3505,63.4596 96.5425,62.8396 96.4285,62.5706 C95.9345,61.4066 95.3195,60.2936 94.7495,59.1616 M57.8785,202.0636 C56.2885,202.5876 54.6695,203.0366 53.1215,203.6616 C52.2355,204.0206 52.2835,205.1156 53.1265,205.5516 C54.9585,206.4996 56.7735,207.4886 58.6625,208.3086 C59.1595,208.5246 60.1195,208.4036 60.4795,208.0466 C61.2025,207.3326 62.1495,206.3306 62.1195,205.4786 C62.0595,203.7956 59.7845,202.3206 57.8785,202.0636 M95.8825,200.4526 C95.9175,199.3376 93.2415,196.1896 92.2625,196.193596 C91.2805,196.1986 88.5615,199.0676 88.4925,200.1716 C88.4065,201.5496 90.5325,204.2476 91.7155,204.2586 C93.4075,204.2756 95.8305,202.0626 95.8825,200.4526 M71.9345,87.4376 L71.8815,87.4376 C71.8815,86.4546 71.8805,85.4716 71.8815,84.4886 C71.8815,81.3096 71.9225,78.1306 71.8445,74.9536 C71.8295,74.3846 71.3195,73.8286 71.0385,73.2666 C70.7845,73.8416 70.5225,74.4146 70.2805,74.9956 C70.2395,75.0926 70.2785,75.2246 70.2795,75.3396 C70.3095,80.5336 70.3555,85.7266 70.3625,90.9206 C70.3665,93.9796 70.2805,97.0396 70.3095,100.0976 C70.3135,100.5036 70.7565,100.9056 70.9955,101.3096 C71.3025,100.9636 71.6635,100.6516 71.8925,100.2606 C72.0205,100.0436 71.9345,99.6956 71.9345,99.4076 C71.9355,95.4176 71.9345,91.4276 71.9345,87.4376 M15.3185,204.0036 C15.4055,204.0276 15.4925,204.0516 15.5805,204.0746 C15.5465,204.5916 15.4625,205.1116 15.4885,205.6266 C15.5865,207.5046 17.6075,209.3056 18.8235,208.3636 C20.2775,207.2366 21.1525,205.3626 22.2725,203.8096 C22.2975,203.7756 22.2585,203.6986 22.2495,203.6416 C21.9385,201.7366 19.3455,199.3196 17.4175,199.2436 C17.0845,199.2316 16.5285,199.6006 16.4285,199.9096 C15.9865,201.2506 15.6765,202.6346 15.3185,204.0036 M120.5025,202.2246 C119.8255,202.1856 118.7815,201.9846 117.7835,202.1216 C117.2325,202.1976 116.5625,202.7416 116.3095,203.2546 C116.0755,203.7246 116.1205,204.6136 116.4345,204.9816 C116.6675,205.2526 117.6045,205.1396 118.1015,204.9176 C119.1545,204.4436 120.1045,203.7456 121.1425,203.2296 C121.4915,203.0566 122.0375,203.0126 122.3915,203.1586 C123.5295,203.6276 124.3555,203.4046 125.1255,202.4286 C125.6545,201.7566 126.3635,201.2186 127.0285,200.6646 C128.2165,199.6716 128.1995,198.7166 126.9205,197.9556 C125.9425,197.3746 124.9825,196.7276 123.9335,196.3206 C123.5115,196.1586 122.5215,196.4146 122.3895,196.7306 C121.6985,198.3816 121.2015,200.1146 120.5025,202.2246 M108.5005,191.6596 L108.5005,191.7206 C109.0755,191.7206 109.6525,191.6926 110.2255,191.7256 C111.6845,191.8096 113.0965,191.3156 113.4795,189.9806 C113.8305,188.7616 113.5365,187.2946 113.2435,186.0016 C113.1795,185.7186 111.5875,185.3436 111.2525,185.6396 C109.8645,186.8616 108.3045,186.7566 106.6895,186.6986 C104.4305,186.6176 104.3175,186.7286 104.2125,188.9126 C104.0975,191.2846 104.2945,191.5196 106.6015,191.6536 C107.2315,191.6906 107.8665,191.6596 108.5005,191.6596 M79.6485,72.7346 C78.5445,74.4416 78.5415,77.4756 79.1065,78.5236 C79.6185,79.4716 80.0095,80.5846 80.0835,81.6506 C80.2935,84.6556 79.4065,87.7766 81.3015,90.5846 C81.6065,91.0366 81.4705,91.8186 81.4615,92.4476 C81.4275,94.9926 81.3205,97.5376 81.3505,100.0816 C81.3545,100.5156 81.8965,100.9436 82.1905,101.3746 C82.5805,101.0076 83.1005,100.7046 83.3185,100.2546 C83.4885,99.9046 83.3035,99.3696 83.2415,98.9216 C83.1105,97.9606 82.8505,97.0036 82.8355,96.0416 C82.7945,93.4376 82.8965,90.8316 82.8455,88.2286 C82.8325,87.5886 82.4405,86.9576 82.2325,86.3196 C82.0075,85.6296 81.6765,84.9496 81.5955,84.2426 C81.2585,81.2966 82.5705,78.1146 80.2695,75.4406 C80.0605,75.1966 80.2385,74.6476 80.1595,74.2546 C80.0785,73.8536 79.9015,73.4716 79.6485,72.7346 M47.4035,197.5526 C47.4015,197.5386 47.3995,197.5246 47.3985,197.5096 C46.3005,197.5096 45.1915,197.4276 44.1075,197.5506 C43.6845,197.5996 43.0985,198.0466 42.9855,198.4296 C42.8855,198.7736 43.2635,199.3326 43.5545,199.6986 C44.0515,200.3266 44.7065,200.8316 45.1845,201.4716 C45.9585,202.5046 46.5655,203.6666 47.3815,204.6606 C48.4185,205.9246 49.2105,205.7866 49.9775,204.2876 C50.7415,202.7986 51.4865,201.2966 52.1455,199.7606 C52.3715,199.2336 52.5605,198.4296 52.3135,198.0346 C52.0625,197.6326 51.2615,197.4306 50.6885,197.4046 C49.5985,197.3546 48.4995,197.4926 47.4035,197.5526 M132.7065,175.5866 C132.6685,178.0756 134.1665,179.0116 136.0795,179.8356 C138.2205,180.7576 141.9575,179.5686 142.5815,177.3386 C142.8765,176.2846 142.4425,175.0266 142.3395,173.8606 C141.4645,174.0916 140.5935,174.4866 139.7115,174.5156 C138.3445,174.5616 136.9645,174.4036 135.6005,174.2396 C134.9175,174.1576 134.1045,173.5436 133.6315,173.7656 C133.1445,173.9936 133.0005,174.9496 132.7065,175.5866 M51.3955,97.3766 C51.2825,95.2666 51.0635,93.0406 51.0825,90.8176 C51.0955,89.4246 51.4595,88.0326 51.6805,86.6426 C51.7635,86.1166 51.9605,85.5926 51.9355,85.0766 C51.9295,84.9506 51.0705,84.6526 50.9175,84.7886 C50.5365,85.1256 50.0805,85.6826 50.1085,86.1226 C50.2135,87.7346 49.3605,88.6536 48.2165,89.5876 C47.5515,90.1296 46.8715,91.0136 46.7705,91.8146 C46.5365,93.6926 46.7305,95.6186 46.5855,97.5126 C46.5075,98.5326 46.0785,99.5246 45.8205,100.5316 C45.6755,101.1016 45.2755,101.8596 45.4995,102.2036 C45.7505,102.5896 46.5665,102.6296 47.1485,102.7736 C47.7685,102.9266 48.4035,103.0186 49.0285,103.1506 C49.4415,103.2376 49.8535,103.4216 50.2585,103.4026 C50.3715,103.3976 50.6305,102.7216 50.5185,102.5316 C50.2975,102.1546 49.8775,101.8846 49.5155,101.6016 C49.1155,101.2896 48.3365,101.0226 48.3275,100.7196 C48.2515,97.9696 48.2565,95.2136 48.3885,92.4666 C48.4045,92.1166 49.2815,91.8076 49.7615,91.4796 C49.9345,91.9696 50.2365,92.4536 50.2595,92.9496 C50.3355,94.6656 50.3005,96.3866 50.3435,98.1046 C50.3495,98.3616 50.4855,98.6616 50.6565,98.8606 C51.1465,99.4276 51.6225,100.0446 52.2265,100.4626 C52.6015,100.7206 53.2015,100.6526 53.6995,100.7316 C53.6245,99.6606 53.6735,98.5526 53.3805,97.5456 C53.3125,97.3136 52.0715,97.4226 51.3955,97.3766 M8.3595,101.7286 C8.2455,101.8936 8.1315,102.0586 8.0175,102.2246 C9.2745,103.3136 10.3945,104.6586 11.8245,105.4296 C13.7265,106.4546 15.4625,108.2176 17.9785,107.6186 C18.1185,107.5856 18.3515,107.6806 18.4555,107.7946 C19.6265,109.0946 21.1955,108.8106 22.6705,108.8506 C24.1735,108.8916 25.6785,108.8846 27.1825,108.8616 C29.5515,108.8266 31.9205,108.7886 34.2855,108.6766 C34.6345,108.6596 34.9635,108.2286 35.3025,107.9886 C34.9705,107.7406 34.6695,107.4126 34.2975,107.2706 C33.9985,107.1566 33.6115,107.2966 33.2675,107.2726 C31.8095,107.1716 30.3465,107.0966 28.8955,106.9226 C27.9605,106.8116 27.0455,106.3926 26.1175,106.3766 C23.9005,106.3376 21.6145,107.0156 19.6045,105.4366 C19.3355,105.2246 18.8155,105.2406 18.4285,105.2856 C15.8625,105.5866 13.7285,104.6356 11.6675,103.2156 C10.6875,102.5416 9.4705,102.2136 8.3595,101.7286 M29.9305,187.5476 C27.4155,187.1146 27.4955,189.3566 26.8435,190.5586 C26.6355,190.9426 27.3435,191.9866 27.8315,192.5596 C30.7455,195.9766 35.7565,194.4466 37.9665,191.2056 C38.9205,189.8066 37.7115,189.1046 36.9785,188.2936 C36.2295,187.4646 35.4685,187.6406 34.7715,188.4326 C33.9005,189.4226 33.0325,189.2586 32.0395,188.5356 C31.4235,188.0866 30.6395,187.8686 29.9305,187.5476 M32.2675,198.6546 C32.2675,198.6976 32.2675,198.7416 32.2675,198.7846 C29.6105,198.7846 26.9485,198.7046 24.3005,198.8496 C23.7445,198.8796 23.2345,199.7406 22.7045,200.2186 C23.3785,200.7316 24.0145,201.3166 24.7495,201.7156 C24.9925,201.8476 25.5535,201.5846 25.8695,201.3616 C27.7375,200.0486 29.8545,200.1096 31.9985,200.0576 C33.3755,200.0236 34.2725,200.4076 34.9865,201.6206 C35.5025,202.4986 36.2755,203.2546 37.0415,203.9466 C38.4075,205.1836 40.0505,204.8306 40.8855,203.1996 C41.1225,202.7366 41.3515,202.2696 41.5675,201.7966 C42.4765,199.8036 41.7555,198.6726 39.5425,198.6586 C37.1175,198.6426 34.6915,198.6546 32.2675,198.6546 M85.2675,78.0526 C83.4475,76.9616 83.4265,75.6186 85.2515,74.5656 C86.0125,74.1266 86.6515,73.6726 85.9505,72.8986 C85.6835,72.6026 84.7025,72.6886 84.1965,72.9226 C82.9235,73.5116 82.7645,74.6576 82.7915,75.9936 C82.8405,78.4016 82.6675,80.8036 83.9995,82.9976 C84.1955,83.3206 83.9465,83.8986 83.9515,84.3576 C83.9715,86.1436 83.5525,88.0986 84.1395,89.6796 C85.2185,92.5886 84.8685,95.4786 84.9425,98.4006 C84.9585,99.0116 85.2655,99.6766 85.6285,100.1786 C85.7335,100.3246 86.7935,100.1156 86.9085,99.8496 C87.1765,99.2336 87.3005,98.4536 87.1835,97.7936 C86.9195,96.2926 86.2805,94.8396 86.1505,93.3366 C85.9675,91.2106 86.1035,89.0556 86.1035,86.5276 C87.0675,87.3866 87.5765,87.8406 88.0865,88.2946 C88.2445,88.2136 88.4035,88.1326 88.5625,88.0516 C88.4495,86.7386 88.3375,85.4266 88.2245,84.1136 C88.0405,84.1056 87.8555,84.0966 87.6715,84.0886 C87.2725,84.6026 86.8755,85.1176 86.4725,85.6386 C84.6695,83.9686 84.5195,81.4426 86.0975,80.6396 C87.7645,79.7906 87.9915,78.3096 86.5955,76.8196 C86.1485,77.2346 85.7025,77.6486 85.2675,78.0526 M71.5775,39.6196 C71.3125,39.6186 71.0475,39.6166 70.7815,39.6146 C70.6445,40.1306 70.4775,40.6406 70.3785,41.1626 C69.9965,43.1706 69.6965,45.1956 69.2535,47.1896 C68.5745,50.2416 67.7285,53.2576 67.0985,56.3186 C66.7755,57.8826 67.4385,58.5636 68.8815,58.5196 C70.3495,58.4746 70.7155,57.5526 70.6015,56.2746 C70.5005,55.1216 70.3405,53.9676 70.3425,52.8146 C70.3435,52.3936 70.7385,51.9726 70.9535,51.5516 C71.2635,51.9506 71.6675,52.3096 71.8585,52.7586 C72.1005,53.3246 72.0115,54.0746 72.3435,54.5496 C72.9575,55.4276 73.1515,56.1456 72.3935,57.0306 C72.2035,57.2546 72.2035,57.8116 72.3505,58.0946 C72.4525,58.2926 72.9675,58.3926 73.2715,58.3496 C74.2775,58.2096 74.7485,57.6996 74.6235,56.5626 C74.4285,54.7866 74.4395,52.9886 74.3025,51.2046 C74.2515,50.5486 74.1695,49.8246 73.8545,49.2716 C72.5895,47.0466 71.3745,44.8626 71.8745,42.1216 C72.0175,41.3326 71.6895,40.4566 71.5775,39.6196 M76.1715,80.8656 C73.9825,79.4416 73.7575,75.9026 75.4575,74.7506 C75.8845,74.4616 76.1345,73.9106 76.4665,73.4796 C75.8175,73.1746 75.1795,72.6716 74.5175,72.6416 C74.1315,72.6236 73.3315,73.3916 73.3615,73.7496 C73.6115,76.6416 72.5855,79.6636 74.2265,82.4326 C74.4895,82.8766 74.4045,83.5556 74.3975,84.1246 C74.3325,89.3846 74.2285,94.6446 74.2095,99.9036 C74.2075,100.3176 74.7535,100.7326 75.0455,101.1476 C75.2615,100.7946 75.6665,100.4416 75.6645,100.0906 C75.6405,95.1786 75.5295,90.2666 75.5245,85.3546 C75.5235,84.6066 75.9485,83.8576 76.1765,83.1096 C76.6575,83.8706 77.1685,84.6156 77.6025,85.4026 C77.7255,85.6256 77.6305,85.9706 77.6285,86.2596 C77.5985,90.1356 77.5465,94.0116 77.5535,97.8876 C77.5545,98.6006 77.7855,99.3146 77.9105,100.0276 C78.1845,100.0256 78.4595,100.0236 78.7325,100.0216 C78.8405,99.3156 79.0505,98.6086 79.0375,97.9046 C78.9695,94.1516 78.6325,90.3906 78.8045,86.6506 C78.9475,83.5296 77.9965,80.7446 77.0335,77.6366 C76.7265,78.7846 76.4755,79.7266 76.1715,80.8656 M68.4615,95.4846 C65.8205,95.4236 65.9015,93.9526 65.9315,92.4376 C65.9985,88.9096 66.0095,85.3816 66.0405,81.8546 C66.0605,79.4256 66.1795,76.9906 66.0245,74.5726 C65.9835,73.9336 65.0935,73.3476 64.5925,72.7376 C64.1795,73.4146 63.6385,74.0516 63.4045,74.7856 C63.2805,75.1746 63.5555,75.8746 63.8845,76.1886 C64.9325,77.1896 65.0355,78.0486 63.9625,79.1196 C63.6155,79.4646 63.4835,80.1586 63.4775,80.6956 C63.4005,87.5146 63.3455,94.3346 63.3535,101.1536 C63.3545,101.7196 63.7565,102.6276 64.1715,102.7616 C64.6545,102.9186 65.4365,102.5096 65.9415,102.1426 C66.4245,101.7926 66.6125,100.9866 67.1105,100.7206 C68.5215,99.9676 68.0995,99.0396 67.6005,97.7946 C67.2035,98.2856 66.9345,98.6176 66.6565,98.9626 C65.6425,97.1996 67.0785,96.5326 68.4615,95.4846 M61.8495,72.1816 C61.5855,72.1566 61.3215,72.1326 61.0585,72.1076 C60.9445,72.8176 60.7265,73.5286 60.7355,74.2366 C60.7765,77.2436 60.9835,80.2526 60.8975,83.2536 C60.8775,83.9456 59.9385,84.6126 59.4235,85.2906 C59.1485,84.6116 58.8685,83.9356 58.6065,83.2516 C58.5695,83.1546 58.6335,83.0236 58.6345,82.9086 C58.6595,79.7836 58.7145,76.6596 58.6695,73.5356 C58.6625,73.0996 58.1655,72.6696 57.8955,72.2366 C57.6995,72.6116 57.3315,72.9886 57.3355,73.3616 C57.3655,76.9446 57.3895,80.5306 57.5695,84.1086 C57.6375,85.4386 58.0505,86.7066 56.7465,87.7126 C56.4895,87.9106 56.4035,88.4496 56.3965,88.8346 C56.3435,91.7246 56.4035,94.6186 56.2625,97.5036 C56.2115,98.5216 55.6605,99.5076 55.4065,100.5256 C55.2535,101.1386 55.0045,101.8926 55.2325,102.3786 C55.3875,102.7056 56.4865,102.9566 56.8285,102.7316 C57.2645,102.4456 57.5195,101.6596 57.5755,101.0636 C57.7685,98.9686 56.7245,96.6546 58.7675,94.9046 C58.9085,94.7826 58.9485,94.4716 58.9365,94.2536 C58.8195,92.0666 58.6735,89.8806 58.5595,87.6936 C58.5425,87.3626 58.6455,87.0256 58.6945,86.6926 C58.8835,86.6766 59.0715,86.6626 59.2605,86.6476 C59.4095,87.3796 59.6785,88.1106 59.6855,88.8436 C59.7255,92.4846 59.6765,96.1276 59.7165,99.7686 C59.7215,100.2026 60.0815,100.6316 60.2765,101.0636 C60.5665,100.6446 61.0945,100.2286 61.1015,99.8036 C61.1215,98.6566 60.8655,97.5066 60.8315,96.3556 C60.8165,95.8346 61.0385,95.2946 61.2085,94.7816 C61.5025,93.8966 62.1055,93.0286 62.1165,92.1476 C62.1875,86.0256 62.1475,79.9026 62.1195,73.7806 C62.1175,73.2476 61.9425,72.7146 61.8495,72.1816 M75.7485,29.9866 C75.5905,31.0146 75.3635,31.6666 75.4155,32.2946 C75.6045,34.6126 75.1845,36.9246 76.3395,39.2386 C77.2955,41.1536 77.4365,43.4766 77.9335,45.6196 C78.2765,47.1046 78.6025,48.5926 78.9545,50.0756 C79.0185,50.3496 79.1695,50.6026 79.2735,50.8666 C79.9765,52.6456 80.7595,54.3996 81.3575,56.2126 C81.9385,57.9716 82.3195,59.7966 82.8195,61.5846 C82.8925,61.8446 83.1035,62.0936 83.3095,62.2866 C84.3745,63.2886 83.8495,64.3026 82.9235,64.6796 C80.8225,65.5336 78.6395,66.3656 76.4135,66.6886 C72.4935,67.2576 68.6415,66.3526 64.8095,65.5096 C62.5155,65.0056 61.3145,62.1396 62.5775,60.1466 C63.7615,58.2776 65.0545,56.4216 64.7395,53.9876 C64.6885,53.5956 65.0585,53.1496 65.2295,52.7276 C65.4665,52.1466 65.7895,51.5826 65.9185,50.9786 C66.3285,49.0626 66.6355,47.1256 67.0555,45.2126 C67.1465,44.7946 67.5505,44.4486 67.7965,44.0606 C68.5265,42.9116 68.4965,41.8286 67.4895,40.6886 C67.1365,41.0096 66.7245,41.2156 66.5845,41.5396 C65.7025,43.5776 64.4035,45.4986 64.7335,47.9006 C64.7945,48.3386 64.7355,48.8326 64.5925,49.2516 C63.8225,51.4896 63.0365,53.7226 62.2025,55.9376 C61.5305,57.7196 60.8475,59.5036 60.0435,61.2286 C59.5465,62.2926 59.6035,64.8356 60.4405,65.2256 C61.7875,65.8546 62.7555,67.4266 64.6115,66.9086 C64.9275,66.8206 65.3845,67.3416 65.8055,67.5086 C66.4345,67.7596 67.0855,68.1166 67.7335,68.1316 C71.3205,68.212364 74.9105,68.2146 78.4995,68.2116 C78.9425,68.2116 79.5605,68.1706 79.8015,67.8916 C80.8715,66.6506 82.2095,66.8156 83.6225,66.8316 C84.4635,66.8396 85.7875,66.6016 86.0345,66.0726 C86.3595,65.3746 85.8755,64.2756 85.6775,63.3616 C85.5235,62.6616 85.2835,61.9806 85.0635,61.2956 C84.8955,60.7686 84.7045,60.2496 84.5165,59.7296 C84.2875,59.0996 84.0415,58.4766 83.8235,57.8436 C83.6025,57.2066 83.3615,56.5706 83.2145,55.9146 C83.0205,55.0536 82.8935,54.1766 82.7705,53.3016 C82.6965,52.7686 82.8945,51.9576 82.6085,51.7336 C80.7805,50.3006 81.1545,47.9796 80.3785,46.1516 C79.5855,44.2846 78.4325,42.2806 78.8455,39.9896 C78.9095,39.6356 78.3975,39.2036 78.2355,38.7756 C78.0375,38.2496 77.8875,37.6966 77.7855,37.1426 C77.3965,35.0216 77.0465,32.8946 76.6475,30.7756 C76.6165,30.6086 76.3355,30.4886 75.7485,29.9866 M138.3855,182.9366 C138.3505,182.7186 138.3135,182.5006 138.2785,182.2826 C137.4755,182.1646 136.6725,181.9496 135.8685,181.9476 C133.3385,181.9396 132.6095,181.5046 131.5655,179.0976 C130.9795,177.7486 130.0855,176.9436 128.5145,177.0086 C126.7955,177.0806 125.2525,177.8886 123.3875,177.6556 C121.2515,177.3896 119.0045,177.8966 116.8245,178.1966 C116.2105,178.2806 115.1195,178.9426 115.1625,179.1336 C115.6675,181.3716 113.0925,183.9726 115.9275,185.9396 C116.1845,186.1166 116.2165,186.6806 116.2695,187.0756 C116.5505,189.1216 116.7065,191.1406 114.2015,192.3516 C115.7405,193.3786 116.9555,192.7926 118.0725,192.3606 C122.0705,190.8146 125.6715,188.4026 129.8305,187.1486 C131.9525,186.5076 133.8705,185.1906 135.8815,184.1816 C136.7145,183.7636 137.5515,183.3516 138.3855,182.9366 M59.7415,112.5186 L59.7415,112.4146 C61.0725,112.4146 62.4125,112.5096 63.7335,112.3946 C66.3455,112.1666 69.1645,113.3896 71.5385,111.2836 C71.7995,111.0516 72.4345,111.2346 72.8955,111.2346 C78.1675,111.2296 83.4375,111.2366 88.7085,111.2116 C89.3315,111.2086 90.1405,111.2476 90.5425,110.8986 C91.8985,109.7206 93.4435,109.9586 94.9955,109.9926 C96.5585,110.0266 98.1365,110.1656 99.6825,110.0056 C101.8575,109.7816 104.2485,110.7106 106.1745,108.9066 C106.3295,108.7606 106.8415,108.7426 106.9855,108.8786 C108.1285,109.9586 109.1995,109.7766 110.3445,108.8786 C110.5665,108.7036 111.0165,108.8106 111.3615,108.8006 C120.4995,108.5586 129.6845,109.4886 138.7525,107.7136 C139.3405,107.5986 139.7845,106.7506 140.2965,106.2436 C139.7415,105.8766 139.1905,105.1976 138.6335,105.1926 C135.3385,105.1636 132.0385,105.2396 128.7455,105.3946 C127.6405,105.4466 126.5585,105.8896 125.4505,106.0516 C124.8225,106.1436 123.9635,106.2816 123.5575,105.9596 C122.0175,104.7376 120.5505,105.2466 118.9725,105.7496 C117.7845,106.1286 116.5325,106.4976 115.3035,106.5166 C111.5415,106.5766 107.7775,106.4476 104.0155,106.4386 C103.4615,106.4366 102.9095,106.6966 102.3535,106.8216 C101.1345,107.0946 99.9245,107.4896 98.6885,107.6006 C94.4865,107.9796 90.1275,106.6896 86.0845,108.8096 C85.8985,108.9066 85.6285,108.8496 85.3965,108.8486 C81.9285,108.8346 78.4595,108.7966 74.9905,108.8066 C70.4755,108.8176 65.8935,108.4046 61.4625,109.0296 C57.0875,109.6466 52.7865,110.2976 48.3655,109.9526 C47.8625,109.9126 47.2165,110.1916 46.8245,110.5356 C45.8735,111.3716 45.0105,111.5086 44.1005,110.5576 C43.4005,109.8276 42.7895,110.0056 41.9545,110.4616 C41.0935,110.9316 40.0405,111.2656 39.0665,111.2766 C34.6665,111.3286 30.2665,111.2216 25.8645,111.2216 C23.7905,111.2216 22.2545,112.8506 22.5655,114.5976 C22.7845,115.8226 23.5775,116.1076 24.7035,115.6546 C25.8375,115.2006 27.0675,114.8586 28.2805,114.7546 C30.7615,114.5416 33.3685,115.4576 35.6845,113.8016 C35.9745,113.5936 36.4685,113.6256 36.8675,113.6226 C38.6025,113.6096 40.3375,113.6526 42.0715,113.6236 C44.1485,113.5876 46.2345,113.5926 48.3005,113.4006 C49.9255,113.2486 51.5155,112.6686 53.1405,112.5566 C55.3305,112.4046 57.5395,112.5186 59.7415,112.5186 M138.9895,141.1506 C138.8465,138.1546 139.5775,135.3186 137.9885,132.7456 C137.8265,132.4826 137.8895,132.0656 137.8895,131.7206 C137.8945,127.3776 137.9345,123.0346 137.8945,118.6926 C137.8875,117.8506 137.5855,117.0116 137.4125,116.1726 C137.1965,115.1216 136.8065,114.0736 136.7975,113.0216 C136.7875,111.7366 136.2965,111.2006 135.0685,111.2126 C134.5475,111.2166 134.0255,111.2106 133.5055,111.1856 C132.1525,111.1226 131.6425,111.7816 131.7025,113.0986 C131.7795,114.7746 131.7505,116.4546 131.7835,118.1326 C131.8175,119.8036 131.5395,121.5726 131.9965,123.1216 C132.6625,125.3756 132.4415,127.6906 132.8895,129.9676 C133.5575,133.3636 132.9395,136.9986 133.0255,140.5276 C133.0785,142.7056 132.3845,145.0626 134.2115,146.9566 C134.4305,147.1826 134.3445,147.7356 134.3425,148.1366 C134.3255,152.9426 134.2905,157.7486 134.2815,162.5546 C134.2805,163.1856 134.1695,163.9926 134.4985,164.4166 C135.9405,166.2766 135.6385,168.3196 135.3735,170.3836 C135.2135,171.6336 135.8355,172.2126 137.0035,172.3586 C140.0975,172.7466 141.5135,172.4026 141.4285,171.0576 C141.2615,168.4436 142.4945,165.6026 140.3465,163.2336 C140.0915,162.9516 140.1195,162.3546 140.1245,161.9036 C140.1515,159.3566 140.3915,156.7976 140.2125,154.2666 C140.0235,151.5876 141.1795,148.6786 139.0625,146.2566 C138.9125,146.0846 138.9935,145.6956 138.9915,145.4086 C138.9865,143.9026 138.9895,142.3976 138.9895,141.1506 M105.4405,173.2936 C105.4155,173.2936 105.3905,173.2936 105.3645,173.2936 C105.3645,176.2466 105.3175,179.2006 105.4005,182.1506 C105.4195,182.8126 105.7185,183.6736 106.1965,184.0696 C107.0395,184.7666 110.6085,184.2526 111.4745,183.5126 C112.8285,182.3566 112.9765,180.8896 112.0885,179.3376 C111.7165,178.6886 111.5525,177.8586 111.5005,177.0966 C111.2345,173.1636 112.2905,169.1226 110.5105,165.3086 C110.3715,165.0136 110.4095,164.6246 110.4065,164.2796 C110.3635,159.3596 110.3045,154.4416 110.3035,149.5226 C110.3035,147.5656 110.6645,145.5846 109.2875,143.8586 C109.0425,143.5516 109.0845,142.9716 109.0865,142.5186 C109.1005,138.8696 109.1565,135.2216 109.1585,131.5726 C109.1595,130.2456 109.4915,128.6546 108.8935,127.6446 C107.6765,125.5866 108.0845,123.5026 108.0425,121.4056 C107.9935,119.0326 108.0255,116.6566 108.0505,114.2816 C108.0595,113.3006 107.7745,112.3406 106.7085,112.4486 C105.1235,112.6096 103.3125,111.7076 101.9855,113.2396 C101.8035,113.4516 101.8775,113.9086 101.8795,114.2526 C101.8935,116.5086 102.2205,118.8146 101.8625,121.0086 C101.5015,123.2266 103.9565,125.1716 102.2445,127.3766 C102.2215,127.4056 102.2495,127.4936 102.2765,127.5416 C103.7465,130.1416 102.8355,132.9706 103.0525,135.6896 C103.2215,137.8056 103.2765,139.9306 103.4885,142.0416 C103.5965,143.1056 104.1165,144.1406 104.1445,145.1966 C104.2655,149.6506 104.2805,154.1076 104.3125,158.5636 C104.3255,160.2516 103.7695,162.0346 105.3025,163.4276 C105.4655,163.5766 105.4345,163.9776 105.4345,164.2626 C105.4435,167.2726 105.4405,170.2826 105.4405,173.2936 M33.3745,120.1446 C33.6385,118.5836 33.6235,117.3276 32.0115,117.2226 C30.0555,117.0966 28.0785,117.1516 26.1185,117.2716 C25.1605,117.3296 24.4705,118.0886 25.2285,118.9396 C26.9735,120.8966 26.3015,122.9976 25.9565,125.1356 C25.8615,125.7216 25.8155,126.4126 26.0365,126.9336 C26.4795,127.9836 26.3195,128.7426 25.5945,129.6246 C25.2115,130.0896 24.9425,131.1406 25.2065,131.5636 C26.4345,133.5316 26.2645,135.6256 26.2665,137.7816 C26.2685,140.1936 25.5025,142.7486 27.1895,144.9716 C27.3145,145.1366 27.2695,145.6606 27.1225,145.7666 C25.6845,146.7986 26.3055,147.6886 27.1395,148.7446 C27.4805,149.1786 27.4895,149.9516 27.4885,150.5706 C27.4745,158.5606 27.4105,166.5506 27.4255,174.5406 C27.4265,175.3566 27.8125,176.1856 28.0925,176.9836 C28.8675,179.1956 29.4115,181.3926 27.8165,183.4886 C27.0935,184.4416 27.0775,185.2066 28.3425,185.5826 C29.6985,185.9846 31.0675,186.3936 32.4615,186.6006 C34.3575,186.8816 35.7465,185.7266 35.8405,183.7706 C35.9435,181.6056 36.3825,179.3606 34.8355,177.4186 C34.5815,177.0986 34.5475,176.5396 34.5475,176.0906 C34.5435,170.3036 34.5325,164.5166 34.6005,158.7306 C34.6175,157.3186 34.7425,155.9766 33.5905,154.8746 C33.3565,154.6506 33.2125,153.9706 33.3715,153.7546 C34.9945,151.5456 32.2245,148.8716 34.1385,146.7046 C34.2385,146.5896 34.0825,146.1096 33.9115,145.9196 C33.0835,144.9936 33.3665,144.1616 33.9585,143.2506 C34.2275,142.8366 34.3955,142.2786 34.3995,141.7846 C34.4245,138.6576 34.1365,135.5056 34.4465,132.4116 C34.7545,129.3466 32.5265,126.4936 33.9295,123.4016 C34.0595,123.1116 33.7385,122.6326 33.6735,122.2346 C33.5425,121.4396 33.4435,120.6396 33.3745,120.1446 M82.2315,179.4826 L82.2315,179.4186 C80.5535,179.4186 78.8615,179.3046 77.2015,179.4786 C76.5895,179.5416 75.4915,180.4256 75.5595,180.6916 C76.1845,183.0956 74.9585,184.2216 72.9845,185.0366 C72.5385,185.2206 72.2785,185.8206 71.8455,186.0816 C71.3315,186.3896 70.7295,186.7006 70.1535,186.7246 C68.5385,186.7946 66.8545,186.9846 65.3115,186.6306 C63.2525,186.1576 61.0535,185.5956 60.0525,183.3136 C59.3865,181.7946 58.2865,181.4156 56.8595,182.2596 C53.0195,184.5316 48.6665,185.3926 44.4785,186.6656 C42.0865,187.3936 40.9025,188.3746 40.7675,190.8346 C40.6555,192.8756 39.2865,194.3726 37.2155,194.8296 C36.8435,194.9116 36.5375,195.2966 36.2015,195.5416 C36.6055,195.7776 37.0465,196.2596 37.4085,196.2076 C39.1805,195.9486 41.1595,196.7186 42.7005,195.1826 C42.9025,194.9806 43.3585,194.9706 43.6965,194.9746 C47.6275,195.0186 51.5645,195.2576 55.4845,195.0896 C59.3255,194.9256 63.2365,195.7786 67.0165,194.4206 C67.4155,194.2776 67.9665,194.3166 68.3695,194.4716 C70.0425,195.1186 71.6765,195.5316 73.3745,194.5286 C73.6115,194.3886 74.0315,194.5846 74.3655,194.5726 C75.2235,194.5436 76.1865,194.7206 76.9145,194.3896 C78.5395,193.6496 80.1105,193.5636 81.5315,194.5506 C82.8095,195.4386 83.8355,195.1656 85.0645,194.5556 C85.8455,194.1696 86.7885,193.9736 87.6645,193.9496 C90.1515,193.8826 92.8355,194.5316 95.0715,193.7876 C97.0405,193.1306 99.0035,193.0486 100.9175,192.8206 C102.6335,192.6166 102.4185,192.2126 102.1255,190.9536 C101.6155,188.7616 101.1525,186.4896 103.2585,184.6886 C103.5495,184.4406 103.6075,183.7586 103.5555,183.3026 C103.4265,182.1716 103.0895,181.0616 102.9865,179.9306 C102.8725,178.6826 102.2495,178.2006 101.0595,178.2366 C99.7875,178.2746 98.5085,178.2046 97.2405,178.2976 C94.0165,178.5366 90.6375,177.4356 87.5975,179.4096 C87.3065,179.5986 86.8055,179.4786 86.4005,179.4796 C85.0115,179.4856 83.6215,179.4826 82.2315,179.4826 M115.5575,175.6596 C116.4755,175.3636 117.2745,174.9046 118.0885,174.8806 C121.6715,174.7696 125.2585,174.7826 128.8435,174.7526 C131.4585,174.7306 131.9315,174.2646 131.927525,171.6726 C131.9165,165.9406 131.8905,160.2086 131.8925,154.4756 C131.8935,152.4576 132.1315,150.4356 130.7955,148.6346 C130.4715,148.1976 130.5735,147.4046 130.5735,146.7756 C130.5735,144.3436 130.6615,141.9106 130.6055,139.4816 C130.5905,138.7836 130.2005,138.0956 129.9855,137.4016 C129.7895,136.7676 129.4895,136.1436 129.4225,135.4966 C128.9115,130.5606 130.6465,125.4546 128.2955,120.6516 C128.2255,120.5096 128.2635,120.3096 128.2665,120.1366 C128.3095,117.7676 128.4145,115.3976 128.3595,113.0306 C128.3475,112.4666 127.8335,111.4566 127.4985,111.4346 C125.5595,111.3086 123.4165,110.9266 121.7065,111.5816 C120.0145,112.2306 118.4515,112.5586 116.7105,112.4936 C115.4375,112.4466 114.1625,112.4186 112.8905,112.4536 C111.7855,112.4836 111.2745,113.0196 111.2985,114.2286 C111.3975,119.3766 111.2505,124.5336 111.5345,129.6696 C111.6695,132.0926 110.4065,134.7706 112.4745,136.9906 C112.6555,137.1856 112.4345,137.7526 112.4055,138.1476 C112.3025,139.5646 112.0935,140.9846 112.1265,142.3996 C112.1635,144.0066 112.5175,145.6076 112.5565,147.2156 C112.6295,150.3416 112.5745,153.4696 112.5805,156.5976 C112.5845,158.5356 112.1495,160.5436 113.6115,162.2386 C113.8305,162.4926 113.7745,163.0166 113.7775,163.4166 C113.7925,165.4426 113.9435,167.4846 113.7405,169.4906 C113.5045,171.8246 114.2425,173.7586 115.5575,175.6596 M99.5415,122.5936 L99.5175,122.5936 C99.5175,120.1026 99.5735,117.6096 99.4875,115.1216 C99.4585,114.2706 99.2195,112.8036 98.8235,112.7126 C97.8715,112.4926 96.7645,112.8886 95.7305,113.0966 C94.8535,113.2726 94.0035,113.6566 93.1235,113.7236 C91.9175,113.8136 90.6685,113.5166 89.4825,113.6916 C86.0325,114.1986 82.3145,112.4806 79.0965,114.9216 C78.9795,115.0106 78.7575,114.9756 78.5855,114.9706 C76.7365,114.9176 74.8875,114.8766 73.0395,114.7966 C71.0135,114.7096 70.5665,115.1096 70.5655,117.1266 C70.5645,120.8346 70.5565,124.5426 70.5735,128.2496 C70.5815,129.7476 70.5405,131.2586 70.7165,132.7406 C71.0095,135.1966 71.8885,137.6646 71.7115,140.0686 C71.5625,142.0866 71.7295,144.0236 71.7815,146.0046 C71.8995,150.5176 71.8995,155.0356 71.8665,159.5506 C71.8575,160.7096 71.5335,161.8496 72.6505,162.7296 C72.8355,162.8756 72.9215,163.5216 72.7885,163.6396 C71.3935,164.8766 72.0935,165.9126 72.9085,167.0936 C73.2185,167.5406 73.0935,168.3106 73.1065,168.9356 C73.1465,170.6856 72.5535,172.5246 74.0085,174.0616 C74.2175,174.2816 74.0785,174.9346 73.9565,175.3436 C73.5075,176.8396 73.7455,177.1796 75.3445,177.1806 C76.5595,177.1816 77.7785,177.2496 78.9895,177.1756 C81.8215,177.0026 84.7925,177.8536 87.4205,176.0256 C87.7415,175.8026 88.3205,175.9316 88.7795,175.9306 C92.8925,175.9216 97.0035,175.9076 101.1155,175.9236 C102.2855,175.9286 103.0985,175.4926 103.0755,174.2586 C103.0455,172.5616 103.4985,170.7616 102.1825,169.2646 C101.9435,168.9946 101.8555,168.5126 101.8535,168.1286 C101.8395,165.0646 101.8745,162.0006 101.8705,158.9366 C101.8675,156.6526 102.3995,154.2986 100.9435,152.1946 C100.7425,151.9046 100.8045,151.4086 100.8055,151.0076 C100.8155,148.2876 101.0065,145.5556 100.8245,142.8496 C100.5685,139.0376 101.6495,135.0696 99.6175,131.4366 C99.4655,131.1646 99.5455,130.7546 99.5445,130.4076 C99.5395,127.8026 99.5415,125.1976 99.5415,122.5936 M39.0095,168.9206 C38.2715,169.6086 37.3235,170.0766 37.2955,170.5936 C37.1855,172.6386 37.2745,174.7066 37.4675,176.7506 C37.5935,178.0916 38.0785,179.3966 38.2925,180.7346 C38.4275,181.5846 38.2165,182.4996 38.4125,183.3246 C38.7125,184.5806 39.4865,185.7716 40.9335,185.3766 C43.6255,184.6416 46.2445,183.6346 48.8815,182.7036 C50.6065,182.0936 52.2825,181.3316 54.0285,180.7966 C56.0315,180.1836 58.1745,179.9566 60.0955,179.1676 C61.6855,178.5146 61.9275,178.7946 62.3025,180.3826 C62.6345,181.7896 63.6195,183.9816 64.5695,184.1226 C67.1385,184.5036 70.1555,185.3196 72.1315,182.3486 C72.7135,181.4726 73.6995,180.7966 72.7215,179.6786 C71.7895,178.6126 70.7495,177.4896 69.1745,178.4436 C68.0405,179.1306 67.0435,179.1706 65.9435,178.4836 C65.3305,178.1006 64.6715,177.7906 64.0325,177.4476 C64.8045,177.2806 65.5705,177.0016 66.3475,176.9676 C68.3315,176.8826 70.7065,175.6886 70.6595,174.4526 C70.5175,170.6476 71.5715,166.7086 69.5075,163.0856 C69.2995,162.7196 69.2905,162.1716 69.3535,161.7326 C69.8955,157.9826 68.7515,154.2376 69.3305,150.4896 C69.3545,150.3306 69.3185,150.0996 69.2165,149.9936 C67.7625,148.4916 68.2945,146.6156 68.2835,144.8706 C68.2335,136.1856 68.1755,127.4986 68.2415,118.8136 C68.2675,115.4846 68.3545,114.5106 64.5815,114.8486 C61.9445,115.0846 61.0485,115.7506 61.0445,118.3906 C61.0395,121.2826 60.9395,124.1746 60.9375,127.0666 C60.9365,128.7566 60.5295,130.5156 61.9145,131.9976 C62.2715,132.3796 62.2385,133.2066 62.2395,133.8286 C62.2435,137.1856 62.1705,140.5426 62.2045,143.8976 C62.2115,144.5386 62.5835,145.1766 62.7885,145.8156 C63.0455,146.6106 63.4565,147.3926 63.5275,148.2036 C63.6435,149.5246 63.5265,150.8636 63.5275,152.1956 C63.5365,159.3776 63.5625,166.5586 63.5475,173.7396 C63.5455,174.6776 63.6875,175.9526 62.2295,175.9166 C60.8395,175.8806 60.9105,174.7236 60.9605,173.7086 C60.9665,173.5926 60.9915,173.4776 60.9875,173.3616 C60.8515,168.1776 60.7575,162.9906 60.5445,157.8086 C60.4875,156.4286 59.8605,155.0656 59.8435,153.6906 C59.7535,146.4046 59.8135,139.1176 59.7305,131.8326 C59.7075,129.7826 59.3995,127.7346 59.1775,125.6906 C59.0675,124.6846 58.7815,123.6956 58.7085,122.6896 C58.6335,121.6556 58.7845,120.6066 58.7235,119.5706 C58.5585,116.7986 57.5625,115.9316 54.7465,115.9686 C50.5785,116.0236 46.4025,115.9426 42.2455,116.1746 C40.6015,116.2666 38.9195,116.8706 37.4015,117.5636 C36.2935,118.0696 35.7825,119.1926 35.7885,120.5916 C35.8265,129.3876 35.7465,138.1836 35.7805,146.9796 C35.7885,149.1966 36.0615,151.4146 36.2355,153.6306 C36.2525,153.8416 36.4895,154.0326 36.5225,154.2486 C36.6715,155.2266 36.8485,156.2086 36.8865,157.1946 C36.9125,157.8696 36.6255,158.5576 36.6575,159.2316 C36.7515,161.2416 37.1345,163.2586 37.0215,165.2516 C36.9235,166.9896 37.0265,168.3566 39.0095,168.9206 M130.5255,202.5016 C130.5255,203.2426 130.5665,203.5786 130.5165,203.8996 C130.4265,204.4806 130.2805,205.0526 130.1585,205.6286 C129.4755,205.4676 128.7715,205.3596 128.1115,205.1306 C127.5665,204.9416 127.0705,204.6086 126.4085,204.2636 L126.4085,207.0596 C125.6165,206.7316 124.8395,206.1796 124.0285,206.1256 C122.7215,206.0376 121.3815,206.2056 120.0755,206.4016 C119.0805,206.5516 118.1285,206.9676 117.1375,207.1666 C115.9765,207.4006 114.7975,207.6456 113.6245,207.6516 C113.0115,207.6556 112.2485,207.3046 111.8095,206.8606 C110.4685,205.5056 110.1335,205.5426 108.6685,206.7456 C107.7945,207.4636 106.6455,207.8886 105.5645,208.2996 C104.0825,208.8626 102.4725,209.1376 101.0685,209.8396 C100.4215,210.1636 100.1725,211.2366 99.6685,211.9156 C99.4305,212.2376 99.0185,212.4326 98.6855,212.6846 C98.4875,212.3006 98.1785,211.9316 98.1215,211.5276 C98.0605,211.0886 98.2875,210.6176 98.2915,210.1596 C98.2945,209.7676 98.2995,209.1906 98.0635,209.0116 C96.6395,207.9316 95.2145,206.8136 93.6465,205.9766 C92.8045,205.5256 92.2635,206.2886 92.2835,207.2016 C92.3155,208.6286 91.9535,209.5126 90.2255,209.4686 C89.6685,209.4546 88.9855,210.1996 88.5485,210.7476 C87.9375,211.5116 87.4375,212.0706 86.4305,211.3396 C85.4745,210.6456 84.8475,211.3196 84.2055,211.9606 C82.7325,213.4276 82.3195,213.3416 81.2975,211.4886 C80.7175,210.4386 79.9935,208.8206 78.7105,209.6096 C77.3705,210.4326 78.9115,211.6276 79.3845,212.5406 C79.7665,213.2776 80.6365,213.7486 81.0975,214.4626 C81.3795,214.9006 81.5525,215.8946 81.3275,216.0706 C80.8955,216.4116 80.1065,216.5336 79.5365,216.4126 C78.5585,216.2046 77.6165,215.7796 76.6935,215.3696 C76.0765,215.0946 75.3955,214.7986 74.9615,214.3166 C74.2045,213.4786 74.0915,212.7136 75.5305,212.3126 C76.0025,212.1796 76.6635,211.4526 76.6335,211.0416 C76.5585,210.0256 75.7915,210.1466 74.9355,210.2946 C74.3665,210.3916 73.7035,209.9436 73.0835,209.7396 C73.4805,209.2046 73.8665,208.6606 74.2795,208.1386 C74.6665,207.6506 75.0625,207.1676 75.4895,206.7136 C75.8005,206.3826 76.2565,205.7816 76.4945,205.8486 C79.4575,206.6786 81.2765,204.2596 83.6365,203.4156 C84.0115,203.2816 84.3225,202.9746 84.6945,202.8236 C85.6355,202.4446 86.5425,201.8156 86.0645,200.7966 C85.6805,199.9766 84.7395,198.9786 83.9415,198.8766 C81.8935,198.6146 79.7815,198.7096 77.7085,198.8516 C76.3565,198.9446 73.6085,201.9926 73.7145,203.3016 C73.7695,203.9846 74.4715,204.6156 75.0925,205.6096 C73.5315,205.7016 72.1925,205.8026 70.8515,205.8516 C70.1015,205.8786 69.2905,205.6316 68.6155,205.8486 C67.9745,206.0536 67.4755,206.7016 66.9135,207.1556 C67.5695,207.6866 68.1875,208.2766 68.8935,208.7316 C69.4595,209.0956 70.3225,209.1406 70.7035,209.6106 C71.1155,210.1206 71.1235,210.9586 71.3075,211.6526 C70.6755,211.5926 70.0445,211.4966 69.4105,211.4806 C68.7945,211.4646 68.0935,211.3516 67.5735,211.5916 C66.0935,212.2776 64.9135,211.9046 64.0795,210.6666 C63.2295,209.4046 62.3265,209.2426 60.9775,209.8286 C60.1035,210.2076 59.0795,210.2696 58.1125,210.3986 C56.6175,210.5986 55.1185,210.6926 54.6545,212.5976 C54.6235,212.7266 52.9125,212.8096 52.7045,212.4706 C51.5415,210.5786 49.3085,210.9286 47.7615,209.9066 C47.6025,209.8026 46.8975,210.1186 46.8345,210.3476 C46.4325,211.7976 45.4195,211.9666 44.1415,211.9106 C43.4785,211.8816 42.8045,212.1496 42.0145,212.3066 C41.8195,211.6676 41.6445,211.0916 41.3685,210.1796 C40.0605,211.6546 38.6765,211.6046 37.1775,210.7676 C36.9755,210.6546 36.3315,211.1656 36.0055,211.4976 C35.6785,211.8306 35.4905,212.3016 35.2415,212.7126 C35.0625,212.6956 34.8835,212.6786 34.7035,212.6626 C34.5885,212.0586 34.3645,211.4516 34.3845,210.8526 C34.4135,209.9306 34.6705,209.0176 34.7155,208.0956 C34.7525,207.3296 34.8805,206.1236 33.7055,206.4016 C33.0845,206.5486 32.6095,207.6806 32.2675,208.4556 C32.1435,208.7376 32.7095,209.2616 32.7575,209.6976 C32.8065,210.1506 32.6085,210.6296 32.5195,211.0966 C32.0825,210.9536 31.6165,210.8626 31.2205,210.6466 C30.9915,210.5226 30.9245,210.0756 30.6985,209.9836 C30.3245,209.8316 29.8825,209.8496 29.4695,209.7956 C29.4595,210.1666 29.3965,210.5456 29.4505,210.9066 C29.5335,211.4776 29.6945,212.0366 29.8225,212.6006 C29.2985,212.5096 28.7185,212.2306 28.2625,212.3656 C27.2455,212.6676 26.3115,213.2406 25.3035,213.5806 C24.6005,213.8166 23.8315,213.8486 23.0915,213.9726 C23.0715,213.2346 23.0445,212.4956 23.0385,211.7566 C23.0365,211.5886 23.1235,211.4206 23.1425,211.2496 C23.3925,209.0346 23.3485,209.1056 25.2165,210.2246 C25.6725,210.4976 26.5045,210.1416 27.1625,210.0746 C26.9265,209.4556 26.8445,208.6756 26.4125,208.2576 C25.9035,207.7656 25.1175,207.4516 24.4025,207.3166 C23.8795,207.2176 23.1425,207.3666 22.7355,207.6956 C21.8065,208.4466 21.1675,209.7576 20.1445,210.1526 C17.9825,210.9866 15.6545,211.4006 13.3815,211.9266 C13.1185,211.9866 12.6965,211.7306 12.4685,211.5016 C11.7825,210.8156 11.2095,210.6996 10.3925,211.4006 C9.4795,212.1836 8.7475,211.9446 8.2955,210.7336 C8.1275,210.2856 7.6045,209.9216 7.1625,209.6536 C7.0335,209.5756 6.6235,209.9606 6.3425,210.1336 C6.6715,210.6206 7.0105,211.1006 7.3265,211.5966 C7.6755,212.1426 8.2155,212.6796 8.2795,213.2646 C8.3425,213.8416 7.9145,214.4726 7.7025,215.0796 C7.1965,214.7706 6.6715,214.4896 6.1915,214.1446 C5.1335,213.3836 4.0665,212.6296 3.0635,211.7996 C2.3265,211.1886 1.6205,210.5116 1.0415,209.7566 C0.8755,209.5406 1.2005,208.9476 1.3005,208.5266 C1.6555,208.6466 2.0485,208.7066 2.3575,208.8996 C2.7435,209.1396 3.0505,209.7166 3.4115,209.7346 C3.8445,209.7556 4.6315,209.4056 4.6905,209.1036 C5.1035,206.9986 6.7865,206.2526 8.7885,207.3916 C10.6905,208.4736 13.1735,207.0426 13.1695,204.8646 C13.1655,202.9546 13.1165,201.0436 13.1795,199.1356 C13.1965,198.6046 13.4125,197.9736 13.7565,197.5816 C14.7095,196.4956 15.6235,195.2346 16.8385,194.5556 C18.4425,193.6616 20.2815,193.0826 22.0905,192.6896 C23.8955,192.2966 24.7095,191.6006 24.9755,189.8386 C25.1005,189.0036 25.5565,188.1536 26.0605,187.4556 C26.7105,186.5566 27.2795,185.8446 26.4285,184.7006 C26.0795,184.2326 26.0815,183.3836 26.1605,182.7376 C26.4405,180.4616 26.5415,178.2926 25.2195,176.1926 C24.8595,175.6216 25.1475,174.4126 25.5075,173.6766 C25.9925,172.6826 26.1305,171.9016 25.4975,170.9396 C25.1715,170.4416 24.9755,169.7606 24.9735,169.1626 C24.9565,161.6416 24.9855,154.1206 25.0005,146.5986 C25.0015,146.3686 25.0495,146.0936 24.9465,145.9136 C22.7295,142.0096 24.2025,137.7646 23.8945,133.6966 C23.5825,129.5566 23.8495,125.3706 23.9395,121.2056 C23.9695,119.8426 23.5425,118.9656 22.3325,118.2346 C21.2685,117.5926 20.2305,116.7066 19.5685,115.6786 C19.1365,115.0066 19.0855,113.7566 19.4115,113.0016 C20.0475,111.5266 19.5285,110.2746 17.8555,109.9666 C15.7385,109.5776 13.5025,109.4396 11.5595,108.6206 C9.9355,107.9376 8.5935,106.5026 7.2565,105.2606 C6.3415,104.4106 5.7295,103.2406 4.8435,102.3536 C2.6725,100.1836 1.3615,97.8486 0.8725,94.6036 C0.4915,92.0746 1.7875,89.7996 1.0765,87.3786 C0.9945,87.0986 1.9005,86.2416 2.4465,86.1296 C3.3645,85.9426 4.5195,85.8676 4.7185,87.2966 C5.2935,91.4426 7.7075,94.1636 11.3665,95.9326 C11.4705,95.9826 11.6005,96.0276 11.6585,96.1156 C13.3075,98.5996 15.8515,98.1006 18.2485,98.1106 C19.5215,98.1156 20.8255,97.9776 22.0635,98.1976 C24.7535,98.6756 26.8515,97.4626 28.9375,96.1086 C29.7425,95.5876 31.0475,95.1136 31.1635,94.4506 C31.2915,93.7186 30.3705,92.7556 29.8105,91.9606 C28.1845,89.6506 29.0835,87.0166 28.7515,84.5426 C28.4485,82.2806 29.4255,80.7536 31.0285,79.4666 C31.4295,79.1456 32.1845,78.8186 32.5325,78.9906 C32.9845,79.2136 33.2255,79.9156 33.4995,80.4416 C33.9775,81.3646 34.3645,82.3376 34.8755,83.2406 C35.5165,84.3726 36.1245,85.5566 36.9615,86.5336 C38.1565,87.9296 41.6615,88.0906 42.9305,86.7566 C45.1845,84.3846 47.1445,81.7226 49.4785,79.4396 C53.2445,75.7556 54.7115,70.7866 57.2105,66.3966 C57.4045,66.0566 57.6655,65.5936 57.5765,65.2776 C56.8985,62.8636 58.6265,60.9926 59.0135,58.8166 C59.4115,56.5786 60.3785,54.4436 61.0805,52.2586 C61.7215,50.2656 62.2395,48.2256 63.0035,46.2806 C63.6435,44.6476 65.0165,43.2986 64.7565,41.3216 C64.7125,40.9856 64.9765,40.4936 65.2545,40.2546 C66.1115,39.5136 66.0575,38.6836 66.0315,37.6276 C66.0065,36.5586 66.7005,35.4806 67.0395,34.3936 C67.3925,33.2606 67.7115,32.1166 68.0185,30.9696 C68.1835,30.3586 68.2855,29.7316 68.4285,29.1136 C68.9935,26.6486 69.6735,24.2016 70.0635,21.7106 C70.1745,21.0036 69.5545,20.0946 69.0855,19.4026 C67.8625,17.5996 68.0545,16.3796 70.1255,15.5576 C71.7685,14.9056 72.0615,14.0336 71.5175,12.4716 C71.2985,11.8396 71.4325,11.0256 71.5815,10.3346 C71.9575,8.6026 72.0865,7.0236 71.0915,5.3346 C70.5485,4.4136 70.6015,2.9956 70.7915,1.8706 C70.8565,1.4826 72.1795,1.0236 72.8805,1.0896 C74.0515,1.2006 73.5645,2.0596 73.3675,2.8116 C73.2235,3.3566 73.3275,4.0086 73.4705,4.5766 C73.6575,5.3306 73.9575,6.0636 74.2735,6.7766 C74.4355,7.1436 74.7385,7.4496 74.9765,7.7826 C75.2205,7.3846 75.6585,6.9926 75.6705,6.5886 C75.7025,5.3826 75.3985,4.1486 75.5625,2.9726 C75.6615,2.2746 76.2785,1.4966 76.8865,1.0776 C77.2365,0.8366 78.4825,1.1296 78.5405,1.3706 C78.7035,2.0526 78.4985,2.8376 78.3705,3.5696 C78.2445,4.2906 78.0075,4.9906 77.8695,5.7106 C77.5925,7.1646 76.9955,8.6746 77.1905,10.0686 C77.3795,11.4156 78.5655,12.5046 79.1125,13.9136 C79.9145,15.9766 80.3235,17.9136 80.2855,20.0636 C80.2755,20.5756 80.7475,21.0916 80.9785,21.6136 C81.2105,22.1366 81.7015,22.7416 81.5895,23.1886 C80.7935,26.3506 83.0585,28.5146 84.0175,31.1016 C85.1835,34.2426 86.1725,37.4516 87.4345,40.5516 C88.2755,42.6196 89.4095,44.5756 90.5025,46.5316 C92.0955,49.3836 94.3525,52.0236 95.2235,55.0686 C95.9075,57.4646 97.5045,59.0896 98.3875,61.2026 C98.8925,62.4106 99.2405,63.6846 99.6865,64.9176 C99.8035,65.2366 99.9585,65.6016 100.2095,65.8026 C104.1025,68.9196 106.8865,73.1426 110.6605,76.3506 C112.5225,77.9336 114.7995,79.0216 116.8195,80.4306 C118.8445,81.8436 120.9935,83.1726 122.6965,84.9206 C124.2025,86.4676 126.1835,85.9006 127.7835,86.7346 C127.8465,86.7686 128.5385,86.0276 128.4625,85.8206 C128.1235,84.8936 127.7895,83.8576 127.1285,83.1766 C125.7335,81.7406 125.5005,81.0946 126.5145,79.9916 C127.7705,78.6246 129.6175,78.3306 130.6265,79.6286 C131.6345,80.9236 132.4075,82.4666 132.9615,84.0166 C133.1685,84.5946 132.4565,85.4956 132.1785,86.2546 C132.0105,86.7136 131.6205,87.3076 131.7755,87.6176 C131.9845,88.0336 132.6555,88.5266 133.0715,88.4806 C135.1925,88.2416 137.4665,89.2836 139.4565,87.6816 C139.8715,87.3466 140.6845,87.4016 141.3035,87.4396 C145.9915,87.7286 149.5595,86.1016 151.5405,81.6246 C151.7215,81.2166 152.0615,80.8616 152.3825,80.5346 C153.9595,78.9256 153.8985,78.3516 152.1945,76.7676 C151.6535,76.2646 151.0065,75.5046 151.0185,74.8736 C151.0335,74.1546 151.8235,72.8126 152.1165,72.8546 C153.1705,73.0046 154.5745,73.3516 155.0825,74.1256 C156.1935,75.8186 157.2585,77.6486 156.9265,79.9356 C156.8095,80.7336 157.2465,81.7266 157.7005,82.4636 C158.2725,83.3926 158.4115,84.1086 157.6135,84.9386 C157.3085,85.2566 157.0415,85.6966 156.9495,86.1226 C155.4315,93.1756 151.4025,98.4186 145.3475,102.1676 C144.1385,102.9166 143.4195,103.6206 143.8435,105.2106 C144.3035,106.9346 143.9345,108.5636 142.3395,109.6706 C140.4505,110.9806 139.7955,112.7156 140.0575,115.0166 C140.2785,116.9626 140.1125,118.9506 140.1465,120.9206 C140.1545,121.3766 140.1255,121.9496 140.3735,122.2646 C141.6785,123.9306 141.4545,125.8526 141.4445,127.7516 C141.4195,132.6176 141.3985,137.4826 141.3835,142.3486 C141.3815,142.7516 141.2825,143.2556 141.4785,143.5426 C143.7645,146.8826 142.1335,150.6516 142.7035,154.1706 C142.8635,155.1586 143.2345,156.1106 143.4815,157.0866 C143.6625,157.7996 143.9185,158.5216 143.9325,159.2436 C143.9745,161.5016 143.9415,163.7616 143.8925,166.0196 C143.8545,167.6456 143.7995,169.2036 144.8295,170.6716 C145.2245,171.2326 145.0635,172.2336 145.0375,173.0296 C144.9965,174.2756 145.5295,174.8756 146.7755,174.8476 C147.4125,174.8336 148.0505,174.8246 148.6865,174.8246 C151.8605,174.8256 153.5585,176.5006 153.5975,179.7526 C153.6195,181.5456 153.4765,183.3426 153.5375,185.1336 C153.5665,186.0036 153.8205,186.8876 154.1055,187.7186 C154.3525,188.4366 153.5995,190.9696 152.7595,191.3306 C149.7715,192.6106 146.7395,193.7876 143.7455,195.0526 C143.3965,195.1996 143.0685,195.6086 142.9155,195.9726 C142.0235,198.0896 140.9295,198.7086 138.7365,198.8336 C137.5855,198.8996 136.4755,199.5656 135.3315,199.9136 C133.9885,200.3216 133.5655,201.2276 133.6205,202.5666 C133.6295,202.7746 132.8375,203.1996 132.4205,203.1946 C131.8995,203.1876 131.3855,202.8376 130.5255,202.5016" id="Fill-1" fill="#231916" mask="url(#mask-2)"></path>
                </g>
                <g id="编组" transform="translate(0.000000, 183.012000)">
                    <mask id="mask-4" fill="white">
                        <use xlink:href="#path-3"></use>
                    </mask>
                    <g id="Clip-4"></g>
                    <path d="M135.5648,34.5876 C134.7468,34.1956 134.3538,33.8406 134.0308,33.8946 C133.6238,33.9636 133.2718,34.3676 132.8968,34.6266 C133.1768,34.9246 133.4788,35.4846 133.7348,35.4646 C134.2108,35.4266 134.6598,35.0506 135.5648,34.5876 M56.2108,40.0116 C56.6578,39.4396 57.1308,39.0936 57.0958,38.8126 C57.0448,38.4206 56.6148,38.0766 56.3468,37.7126 C55.9868,37.9916 55.3698,38.2426 55.3348,38.5586 C55.2948,38.9186 55.7748,39.3366 56.2108,40.0116 M115.6158,53.3376 C115.9478,53.2576 116.2788,53.1766 116.6108,53.0956 C116.3968,52.4146 116.2388,51.7066 115.9208,51.0766 C115.8618,50.9576 115.1758,51.1526 114.7788,51.2036 C115.0578,51.9156 115.3358,52.6266 115.6158,53.3376 M25.2378,38.5266 C24.4798,38.0666 24.0688,37.6936 23.6008,37.5996 C23.4318,37.5656 22.8738,38.2746 22.9428,38.5116 C23.0598,38.9106 23.4978,39.4006 23.8768,39.4776 C24.1678,39.5356 24.5748,39.0166 25.2378,38.5266 M133.2428,44.1266 C132.5618,43.6346 132.0728,43.0696 131.8488,43.1606 C131.3438,43.3656 130.9708,43.8946 130.5438,44.2906 C130.8498,44.6196 131.2298,45.2646 131.4478,45.2136 C131.9808,45.0896 132.4398,44.6446 133.2428,44.1266 M179.0468,25.5026 C178.4838,25.0236 178.0728,24.6736 177.6618,24.3236 C177.4058,24.7606 176.8898,25.2406 176.9548,25.6236 C177.0478,26.1786 177.5608,26.6626 177.8948,27.1776 C178.2218,26.7016 178.5488,26.2266 179.0468,25.5026 M130.1408,48.6766 C129.6658,47.9346 129.3288,47.4086 128.9918,46.8826 C128.6808,47.5396 128.2168,48.1756 128.1198,48.8626 C128.0638,49.2506 128.6138,49.7236 128.8898,50.1576 C129.2748,49.7026 129.6588,49.2476 130.1408,48.6766 M175.0318,54.5376 C174.6958,54.5436 174.3608,54.5496 174.0248,54.5556 C173.9798,55.6016 173.9048,56.6486 173.9188,57.6946 C173.9218,57.8666 174.3078,58.1436 174.5418,58.1706 C174.7588,58.1966 175.2138,57.9526 175.211807,57.8336 C175.1958,56.7336 175.1018,55.6366 175.0318,54.5376 M123.1618,40.7906 C122.6388,41.5996 122.1018,42.1776 122.2008,42.3216 C122.6598,42.9926 123.2938,43.5446 123.8658,44.1386 C124.1558,43.7886 124.7618,43.3026 124.6798,43.1106 C124.3758,42.4006 123.8448,41.7876 123.1618,40.7906 M100.6918,41.7706 C100.6598,41.5396 100.6268,41.3086 100.5948,41.0776 C99.9688,40.9256 99.3128,40.5826 98.7268,40.6766 C98.1818,40.7646 97.7128,41.3196 97.2118,41.6696 C97.7618,42.0946 98.3108,42.8566 98.8618,42.8576 C99.4708,42.8576 100.0818,42.1626 100.6918,41.7706 M179.2048,49.6566 C178.5488,49.0636 177.9098,48.2396 177.6938,48.3376 C177.1018,48.6106 176.2338,49.3546 176.3088,49.7556 C176.4188,50.3476 177.2518,50.8056 177.7758,51.3206 C178.1768,50.8526 178.5788,50.3846 179.2048,49.6566 M132.2458,38.9776 C132.8458,39.6846 133.1728,40.0686 133.5008,40.4536 C134.1658,39.8336 134.9308,39.2796 135.4248,38.5446 C135.5438,38.3686 134.7578,37.5856 134.3878,37.0826 C133.7358,37.6586 133.0848,38.2356 132.2458,38.9776 M66.2528,37.7306 C65.6218,38.3366 65.2738,38.6706 64.9258,39.0036 C65.6618,39.6266 66.3558,40.3196 67.1738,40.8026 C67.3058,40.8806 67.9918,40.0186 68.4208,39.5906 C67.7588,39.0236 67.0978,38.4546 66.2528,37.7306 M10.9538,54.2656 C11.5958,53.2006 12.2408,52.1786 12.8058,51.1146 C12.8578,51.0176 12.3278,50.4076 12.1868,50.4486 C11.5838,50.6226 10.7358,50.8096 10.5148,51.2566 C10.1448,52.0096 10.1688,52.9626 10.0768,53.8366 C10.0688,53.9096 10.4448,54.0226 10.9538,54.2656 M109.5288,44.0586 C109.1488,44.7716 108.6618,45.3946 108.7698,45.5266 C109.5378,46.4596 110.4148,47.3046 111.3208,48.1046 C111.3638,48.1426 112.0188,47.4856 112.3888,47.1526 C111.5208,46.2126 110.6528,45.2746 109.5288,44.0586 M172.1038,49.8496 C171.4348,49.1146 171.0268,48.6656 170.6188,48.2176 C170.0038,48.9796 169.2918,49.6916 168.8588,50.5456 C168.7748,50.7116 169.7768,51.4286 170.2768,51.8906 C170.8258,51.2786 171.3738,50.6656 172.1038,49.8496 M139.6988,51.2486 C138.9728,52.2466 138.1608,52.9506 138.2908,53.2676 C138.5858,53.9866 139.2598,54.6856 139.9598,55.0346 C140.2278,55.1686 141.4938,54.1336 141.4288,53.9666 C141.1168,53.1496 140.5078,52.4446 139.6988,51.2486 M74.9698,45.0826 C74.1738,44.3226 73.4438,43.4776 73.3378,43.5486 C72.5478,44.0866 71.8828,44.8056 71.1778,45.4676 C71.7438,45.9406 72.3738,46.8496 72.8578,46.7776 C73.5278,46.6786 74.0878,45.8406 74.9698,45.0826 M144.5238,48.3486 C143.5758,47.4466 142.8658,46.7716 142.1558,46.0966 C141.8208,46.6056 141.0948,47.2686 141.2238,47.5926 C141.5918,48.5196 142.3078,49.3066 142.8868,50.1496 C143.3198,49.6726 143.7528,49.1966 144.5238,48.3486 M16.4558,39.5776 C16.4568,39.6096 16.4568,39.6426 16.4578,39.6746 C17.3168,39.6356 18.1868,39.6596 19.0298,39.5206 C19.3058,39.4756 19.6178,39.0356 19.7048,38.7186 C19.7448,38.5706 19.2898,38.0966 19.0558,38.0946 C17.3938,38.0836 15.7298,38.1296 14.0708,38.2306 C13.8348,38.2456 13.6218,38.6546 13.3978,38.8806 C13.6698,39.1136 13.9208,39.5066 14.2198,39.5456 C14.9538,39.6436 15.7098,39.5776 16.4558,39.5776 M166.6478,22.5666 C166.4388,22.7736 165.6668,23.4546 165.7078,23.5066 C166.3878,24.3876 167.1708,25.1906 167.9318,26.0096 C168.3388,25.4746 169.0458,24.9646 169.0948,24.3986 C169.2068,23.0836 168.2048,22.6736 166.6478,22.5666 M90.4088,40.0196 C89.6258,40.9086 88.6928,41.5056 88.6268,42.1866 C88.5738,42.7456 89.5518,43.4026 90.0728,44.0166 C90.7348,43.2016 91.4458,42.4156 91.9928,41.5296 C92.0548,41.4286 91.1988,40.7616 90.4088,40.0196 M114.5238,43.4466 C115.4448,42.2216 116.2148,41.2386 116.9108,40.2056 C116.9808,40.1006 116.6508,39.5676 116.4048,39.4516 C116.1558,39.3356 115.7258,39.3976 115.4698,39.5456 C114.8318,39.9136 114.2088,40.3306 113.6538,40.8136 C113.3088,41.1136 112.7918,41.7346 112.8918,41.9236 C113.1478,42.4066 113.7078,42.7286 114.5238,43.4466 M174.3358,36.0076 C173.9548,36.3876 173.2248,36.8376 172.9358,37.4836 C172.6798,38.0576 172.7418,38.9216 172.9908,39.5216 C173.1538,39.9146 173.9028,40.0636 174.3888,40.3206 C174.7638,39.2416 175.1858,38.1746 175.4808,37.0736 C175.5498,36.8106 175.2098,36.4266 175.0268,36.1166 C174.9898,36.0556 174.8118,36.0776 174.3358,36.0076 M119.8198,37.5156 C119.9838,37.3856 120.1488,37.2566 120.3138,37.1276 C120.2108,36.3436 120.0608,35.5636 120.0188,34.7766 C119.9768,33.9746 120.1038,33.1616 120.0288,32.3656 C119.9988,32.0476 119.6258,31.7626 119.4088,31.4626 C119.0958,31.7336 118.5318,31.9896 118.5138,32.2796 C118.4328,33.5936 118.3938,34.9336 118.5818,36.2296 C118.6508,36.7076 119.3868,37.0896 119.8198,37.5156 M167.4048,29.7936 C166.0128,28.7896 165.1108,28.0776 164.1228,27.5156 C164.0208,27.4576 163.1548,28.2586 163.0868,28.7256 C162.9338,29.7806 164.3858,31.2546 165.3968,31.0906 C165.9348,31.0046 166.4018,30.4656 167.4048,29.7936 M137.6978,40.6596 C137.0928,40.9836 136.7338,41.0886 136.7348,41.1906 C136.7418,42.1236 136.5908,43.1496 136.9348,43.9586 C137.1808,44.5386 138.0708,44.9436 138.7578,45.1846 C138.9978,45.2686 139.8628,44.4386 139.8148,44.3436 C139.1828,43.0966 138.4398,41.9066 137.6978,40.6596 M109.4768,51.6256 C109.1628,50.3606 109.1788,49.1336 107.7308,49.2076 C107.2658,49.2316 106.5168,50.2126 106.4838,50.7886 C106.4168,51.9706 106.6078,53.4016 108.1228,53.5566 C108.5038,53.5946 109.0218,52.3046 109.4768,51.6256 M148.5298,28.8886 L149.0338,28.9016 C148.6208,28.9416 148.1888,28.9196 147.7968,29.0336 C146.8988,29.2966 145.9908,29.5626 145.1428,29.9516 C144.5768,30.2126 143.9898,30.6066 143.6518,31.1046 C143.5028,31.3226 143.9098,32.2956 144.1348,32.3216 C144.8068,32.4006 145.7528,32.4236 146.1588,32.0266 C147.0858,31.1206 147.7548,29.9516 148.5298,28.8886 M20.7518,50.3386 C20.2848,49.5516 19.9768,48.5476 19.2998,48.0926 C18.9508,47.8586 17.7848,48.4306 17.2688,48.9296 C16.0108,50.1486 17.5478,50.7006 18.1138,51.3766 C18.4998,51.8366 19.1998,52.0346 19.7578,52.3496 C20.0458,51.7676 20.3348,51.1856 20.7518,50.3386 M21.1438,44.1666 C21.4938,44.5136 22.4438,45.6956 22.6188,45.5896 C23.5788,45.0126 24.7138,44.2596 25.0838,43.2956 C25.4848,42.2486 24.2588,42.0056 23.3598,41.9546 C22.1688,41.8866 21.3098,42.2896 21.1438,44.1666 M43.7668,52.7196 C42.7048,51.8376 41.9598,50.7546 41.3148,50.8116 C40.6278,50.8726 39.4838,52.0656 39.5428,52.6666 C39.6168,53.4276 40.6108,54.4766 41.3838,54.6596 C41.9018,54.7816 42.7248,53.6146 43.7668,52.7196 M30.3538,40.9856 C31.2578,40.9236 32.0528,41.0166 32.7218,40.7686 C33.1368,40.6146 33.4348,39.9716 33.6228,39.4856 C33.6768,39.3416 33.1688,38.7546 32.9288,38.7606 C31.3658,38.7986 29.7998,38.9116 28.2448,39.0806 C27.9318,39.1146 27.3828,39.5696 27.4188,39.7086 C27.5148,40.0896 27.8068,40.6136 28.1278,40.7056 C28.8878,40.9206 29.7088,40.9176 30.3538,40.9856 M177.5298,45.7076 C179.1938,43.6766 179.0058,38.5006 177.2788,37.5086 C177.3458,40.2236 176.7098,42.7406 177.5298,45.7076 M157.7068,35.2176 C156.8638,34.2526 156.2558,33.3716 155.4418,32.7676 C155.2608,32.6336 153.9628,33.4086 153.8768,33.8916 C153.7558,34.5526 154.1918,35.4046 154.5968,36.0426 C154.9088,36.5336 155.7848,37.2366 155.9858,37.1196 C156.5948,36.7626 156.9988,36.0536 157.7068,35.2176 M174.7318,45.0116 C174.2278,44.3306 173.6858,43.4846 173.0188,42.7546 C172.7708,42.4836 172.1918,42.3226 171.8358,42.4086 C171.5818,42.4696 171.2148,43.1086 171.2988,43.3506 C171.7618,44.6756 172.3238,45.9696 172.9418,47.2296 C172.9868,47.3216 173.9338,47.2026 174.1278,46.9376 C174.4448,46.5056 174.4858,45.8726 174.7318,45.0116 M74.8138,40.9306 C74.8678,41.0366 74.9198,41.1416 74.9738,41.2476 C75.4878,40.9036 76.0008,40.5606 76.5138,40.2176 C76.2618,39.9536 76.0548,39.5526 75.7498,39.4516 C74.6268,39.0786 73.4828,38.6476 72.3208,38.5536 C71.6288,38.4976 70.8518,38.9636 70.1968,39.3396 C69.9918,39.4576 69.9288,40.3326 70.0168,40.3716 C70.6068,40.6316 71.2468,40.8536 71.8848,40.9086 C72.8548,40.9926 73.8368,40.9306 74.8138,40.9306 M143.2808,42.7006 C143.8628,43.3366 144.4458,43.9726 145.0278,44.6086 C145.8768,43.7456 147.1488,43.0106 147.4608,41.9836 C147.8038,40.8486 146.4048,40.7186 145.4908,40.6856 C144.3638,40.6456 143.5658,41.0896 143.2808,42.7006 M162.1248,40.1296 C161.7348,39.4346 161.4618,38.5716 160.8858,38.0386 C160.4168,37.6046 159.2048,37.1976 158.9848,37.4236 C158.4508,37.9736 157.9248,39.0026 158.1018,39.6426 C158.2838,40.2956 159.2748,40.7656 159.9748,41.2186 C160.3728,41.4766 160.9968,41.7726 161.3348,41.6256 C161.6768,41.4766 161.7938,40.8056 162.1248,40.1296 M142.7428,37.8606 C142.6968,37.2796 142.7468,36.9616 142.6368,36.7126 C142.4028,36.1806 142.0858,35.6846 141.8028,35.1726 C141.3708,35.5636 140.8698,35.9016 140.5238,36.3576 C140.1838,36.8056 140.0468,37.4016 139.7408,37.8816 C139.1398,38.8216 139.1508,39.6586 140.1828,40.2086 C141.2538,40.7776 141.9518,40.0916 142.4068,39.2326 C142.6638,38.7496 142.6798,38.1386 142.7428,37.8606 M29.1088,47.4356 C28.9998,47.3706 28.8908,47.3056 28.7828,47.2396 C28.7628,46.9526 28.8148,46.6356 28.7098,46.3846 C28.4888,45.8606 28.1848,45.3716 27.9158,44.8686 C27.4538,45.2366 26.9108,45.5426 26.5498,45.9926 C26.1648,46.4756 25.8228,47.0676 25.6978,47.6626 C25.5748,48.2466 25.5208,49.1316 25.8528,49.4486 C26.2288,49.8076 27.3288,49.9826 27.6508,49.7026 C28.3018,49.1376 28.6408,48.2126 29.1088,47.4356 M176.6548,19.9196 C176.2078,19.4026 175.9258,18.8086 175.5008,18.6736 C175.1708,18.5696 174.4888,18.9316 174.2628,19.2806 C173.6168,20.2776 173.0328,21.3406 172.6158,22.4496 C172.4678,22.8416 172.7278,23.6646 173.0658,23.8856 C173.4148,24.1126 174.3778,24.0386 174.5638,23.7586 C175.3418,22.5906 175.9298,21.2946 176.6548,19.9196 M102.9538,43.2096 L102.2708,43.3926 C102.0818,43.9646 101.7338,44.5366 101.7338,45.1086 C101.7348,46.5356 103.3328,48.3286 104.3358,47.9696 C104.9248,47.7586 105.7828,46.5666 105.6658,46.3926 C104.8908,45.2436 103.8848,44.2526 102.9538,43.2096 M146.6758,37.0546 C146.9568,37.4926 147.4548,38.2676 147.9528,39.0436 C148.4348,38.4536 148.9228,37.8686 149.3938,37.2696 C149.4978,37.1376 149.5918,36.9566 149.5948,36.7966 C149.6118,35.8766 149.6648,34.9456 149.5388,34.0426 C149.5128,33.8656 148.4938,33.5696 148.3728,33.7096 C147.7648,34.4116 147.2938,35.2336 146.7988,36.0286 C146.7158,36.1616 146.7528,36.3666 146.6758,37.0546 M80.0088,48.8266 C78.9938,47.8486 78.3748,47.2526 77.7548,46.6556 C76.9658,47.4876 75.8128,48.2006 75.4868,49.1866 C75.1388,50.2356 76.2038,51.3806 77.2758,51.1596 C78.1648,50.9756 78.8608,49.8586 80.0088,48.8266 M165.0578,34.0866 C163.9838,33.0276 163.2148,32.2696 162.4458,31.5116 C161.7808,32.2126 160.4258,33.2546 160.5738,33.5506 C161.0858,34.5816 162.1188,35.3536 162.9538,36.2246 C163.5638,35.6046 164.1738,34.9836 165.0578,34.0866 M166.9248,35.8826 C166.2328,37.0056 165.5648,37.6796 165.4028,38.4596 C165.2048,39.4076 167.0698,41.1316 167.9308,40.7816 C168.7128,40.4626 169.2668,39.5826 169.9208,38.9496 C169.0418,38.0496 168.1618,37.1496 166.9248,35.8826 M134.7218,45.2146 C133.9608,46.4046 132.8988,47.4196 133.0998,47.8786 C133.5508,48.9066 134.5318,49.8286 135.5228,50.4076 C135.7838,50.5606 137.5548,48.9346 137.4608,48.7626 C136.8438,47.6256 135.9058,46.6626 134.7218,45.2146 M147.3538,47.2946 C148.4058,48.2586 149.2788,49.0596 150.1528,49.8596 C150.6968,48.9876 151.8138,47.9826 151.6498,47.2736 C151.4078,46.2326 150.2518,45.4026 149.4848,44.4836 C148.8558,45.3136 148.2268,46.1426 147.3538,47.2946 M171.4998,34.7246 C171.5148,33.0986 170.9018,31.8806 169.6178,31.3716 C169.1648,31.1916 168.4868,31.2806 168.0398,31.5046 C167.8008,31.6226 167.6388,32.3746 167.7798,32.6916 C168.3118,33.8926 168.9268,35.0676 169.6298,36.1766 C169.8558,36.5346 170.4478,36.6616 170.8728,36.8936 C171.0818,36.4586 171.3318,36.0366 171.4838,35.5826 C171.5708,35.3246 171.4998,35.0126 171.4998,34.7246 M164.8448,20.5256 C164.9338,20.6286 165.0228,20.7306 165.1128,20.8336 C167.3588,19.5796 169.6128,18.3376 171.8478,17.0656 C173.0338,16.3896 174.2438,15.7316 175.3278,14.9126 C175.7098,14.6246 175.7468,13.8806 175.9418,13.3456 C175.3168,13.3796 174.5348,13.1836 174.0918,13.4856 C171.6728,15.1376 169.3258,16.8956 166.9808,18.6546 C166.2258,19.2206 165.5538,19.8986 164.8448,20.5256 M154.7908,41.4276 C154.8018,40.2566 153.2988,38.2736 152.7048,38.7026 C151.8718,39.3026 151.1428,40.3546 150.8718,41.3496 C150.5438,42.5556 151.8068,44.1036 152.7138,44.0716 C153.6698,44.0376 154.7788,42.6276 154.7908,41.4276 M149.9278,53.6506 C149.3548,52.9986 148.8198,52.4256 148.3258,51.8186 C147.5318,50.8446 146.6888,50.2716 145.6058,51.4176 C144.5568,52.5276 144.9718,53.5176 145.9198,54.4266 C146.2118,54.7056 146.5108,55.0076 146.8648,55.1846 C147.4428,55.4746 148.3598,56.0356 148.6158,55.8316 C149.1908,55.3736 149.4478,54.5166 149.9278,53.6506 M47.1648,46.0106 C47.0548,45.9216 46.9458,45.8336 46.8358,45.7446 C46.7578,45.1766 46.8028,44.5526 46.5738,44.0546 C46.1548,43.1426 45.2298,42.8256 44.6768,43.6876 C43.9168,44.8746 43.4348,46.2686 43.0198,47.6296 C42.9028,48.0146 43.3138,48.8156 43.7008,49.0266 C44.0848,49.2366 44.9648,49.1436 45.2378,48.8366 C45.9898,47.9916 46.5368,46.9646 47.1648,46.0106 M165.8218,47.9226 L166.5918,47.8396 C167.0258,47.1316 167.9948,46.0876 167.7978,45.7736 C167.0168,44.5266 165.8728,43.5076 164.8628,42.4046 C164.2228,43.1166 162.9078,44.1976 163.0598,44.4776 C163.7538,45.7496 164.8628,46.7956 165.8218,47.9226 M157.4668,52.7616 C156.5958,51.8236 155.8658,51.0516 155.1518,50.2646 C154.5988,49.6556 154.0718,48.9126 153.2068,49.8266 C152.4578,50.6176 151.5318,51.4086 152.6218,52.5966 C153.1258,53.1466 153.5828,53.7736 154.1828,54.1906 C154.6338,54.5046 155.4468,54.8356 155.7988,54.6336 C156.4258,54.2766 156.8278,53.5216 157.4668,52.7616 M159.5028,47.0396 C159.4618,44.8216 158.2978,43.3306 157.1438,43.34055 C156.2578,43.3476 155.0858,44.8546 155.0718,46.0016 C155.0598,47.0766 156.8898,49.1276 157.7028,48.7416 C158.5498,48.3386 159.1428,47.4006 159.5028,47.0396 M89.1688,46.5446 C88.0368,45.7346 87.0688,44.5056 86.2108,44.5776 C85.3298,44.6516 83.7318,46.4546 83.8748,46.7106 C84.5558,47.9416 85.7208,48.9066 86.7138,49.9656 C87.4388,48.9546 88.1648,47.9436 89.1688,46.5446 M38.7948,48.5586 C37.9268,47.4316 37.2188,46.2686 36.2628,45.3676 C35.7528,44.8876 34.8158,44.8616 34.0708,44.6306 C33.9678,45.5886 33.5438,46.6676 33.8448,47.4736 C34.2058,48.4346 35.1168,49.2446 35.9338,49.9526 C36.3248,50.2916 37.1538,50.4916 37.5938,50.3046 C38.0468,50.1126 38.2688,49.3736 38.7948,48.5586 M94.9398,49.2786 C95.6488,48.8156 95.9648,48.6696 96.2038,48.4416 C97.5098,47.1936 97.0968,43.5276 95.5288,42.6366 C95.2868,42.4996 94.7008,42.5106 94.5898,42.6706 C93.8858,43.6976 92.6858,44.8396 92.7788,45.8386 C92.8888,47.0206 94.1408,48.0956 94.9398,49.2786 M14.7738,46.5556 C14.9918,46.6176 15.2098,46.6796 15.4258,46.7416 C15.7308,45.6676 16.3868,44.5466 16.2528,43.5306 C16.0778,42.1986 14.7968,41.9706 13.5118,42.0446 C12.5468,42.1006 11.4108,42.2106 10.6438,41.7766 C9.9408,41.3786 9.6288,40.2866 9.1498,39.5056 C7.6928,42.0856 7.9538,42.8316 10.5828,43.5836 C10.8028,43.6466 11.0068,43.7666 11.2258,43.8406 C13.3558,44.5646 13.8548,44.9446 14.7738,46.5556 M102.9368,51.0636 C102.5518,50.8266 102.2378,50.6386 101.9298,50.4416 C101.5128,50.1736 100.9548,49.9916 100.7118,49.6096 C99.6548,47.9416 99.6948,47.9256 98.4558,49.4566 C98.0948,49.9016 97.5978,50.2586 97.3278,50.7476 C97.1118,51.1356 96.9158,51.8386 97.1118,52.0966 C97.7958,52.9946 98.5758,53.8876 99.5128,54.4716 C99.7108,54.5936 100.7278,53.3876 101.3758,52.8036 C101.6738,52.5356 102.0218,52.3166 102.2948,52.0266 C102.5188,51.7896 102.6668,51.4786 102.9368,51.0636 M66.6268,43.5576 C66.1428,43.1756 64.9268,41.9506 64.7278,42.0986 C63.3978,43.0836 62.0998,44.2346 61.1758,45.5936 C60.6738,46.3306 62.3158,47.9656 63.3818,48.0036 C64.5398,48.0446 66.5558,45.6086 66.6268,43.5576 M118.5938,44.3396 C118.5998,44.3396 118.6068,44.3396 118.6128,44.3406 C118.6128,45.3166 118.5438,46.2996 118.6378,47.2676 C118.6968,47.8756 119.0018,48.4606 119.1968,49.0556 C119.7108,48.6646 120.6158,48.3246 120.6748,47.8746 C120.9838,45.5276 121.1588,43.1526 121.176807,40.7866 C121.1798,40.3346 120.2758,39.8746 119.7898,39.4186 C119.3908,40.0246 118.7748,40.5876 118.6458,41.2466 C118.4508,42.2426 118.5938,43.3056 118.5938,44.3396 M72.6988,50.3346 C70.8518,49.3356 69.5658,48.2676 68.1578,48.0716 C67.6378,47.9996 66.1118,50.1796 66.3308,50.9806 C66.6428,52.1236 68.3498,53.8606 69.0828,53.6926 C70.2958,53.4146 71.2108,51.8216 72.6988,50.3346 M153.3658,26.8556 L153.1518,26.4686 C152.9798,26.4566 152.8068,26.4376 152.6348,26.4326 C151.6848,26.4066 150.5848,26.3816 150.4748,27.5926 C150.3518,28.9426 151.6408,28.9286 152.4588,28.9176 C155.1678,28.8796 157.0568,27.1666 158.9418,25.4816 C159.4628,25.0146 160.1198,24.6996 160.6548,24.2446 C161.0158,23.9376 161.2728,23.5066 161.5768,23.1306 C161.0698,23.0176 160.4238,22.6496 160.0788,22.8356 C158.7848,23.5346 157.6068,24.4466 156.3478,25.2186 C155.3828,25.8106 154.3618,26.3136 153.3658,26.8556 M176.5388,32.0516 C176.6698,29.2076 174.6648,27.8276 173.0368,26.2086 C172.3108,25.4856 171.5238,25.3836 170.9848,26.1846 C170.5768,26.7906 170.1588,27.9946 170.4528,28.3556 C171.2968,29.3916 172.5118,30.1206 173.5578,30.9976 C174.0308,31.3936 174.4408,31.8636 174.8908,32.2876 C175.1838,32.5636 175.4988,32.8166 175.8028,33.0796 C176.0478,32.7366 176.2938,32.3946 176.5388,32.0516 M160.1428,50.6346 C160.4488,51.8796 162.2308,54.5786 163.2308,54.7806 C163.7068,54.8766 164.4768,54.5536 164.8028,54.1616 C166.1558,52.5356 165.9028,51.4296 163.7428,49.3306 C163.2608,48.8626 162.2248,48.1896 162.0268,48.3466 C161.2688,48.9466 160.7508,49.8466 160.1428,50.6346 M62.4328,51.5996 C62.0478,51.0836 61.4698,50.1856 60.7708,49.3956 C59.4408,47.8956 59.4018,47.9456 58.5408,49.6486 C58.2668,50.1906 57.6988,50.5746 57.3398,51.0856 C57.0588,51.4866 56.6198,52.2766 56.7218,52.3696 C57.7548,53.2996 58.7898,54.3356 60.0248,54.8976 C60.8348,55.2646 62.3678,53.3146 62.4328,51.5996 M51.1778,44.4706 C51.4518,45.9136 53.3028,48.7176 54.4598,49.1136 C55.8838,49.6026 56.6338,48.5446 57.2358,47.5966 C57.8758,46.5896 57.3188,45.7946 56.2828,45.4636 C55.2488,45.1336 55.0438,44.4486 55.0308,43.4836 C55.0158,42.3476 54.3468,41.5736 53.2648,42.1936 C52.4138,42.6806 51.8628,43.6916 51.1778,44.4706 M47.7288,40.5546 C47.7528,40.6526 47.7778,40.7506 47.8018,40.8486 C48.9588,40.8486 50.1278,40.9526 51.2638,40.8006 C51.7728,40.7326 52.4518,40.2316 52.6088,39.7746 C52.7368,39.4036 52.3188,38.5846 51.9238,38.3726 C51.5778,38.1866 50.7938,38.4156 50.4358,38.7276 C49.5688,39.4836 48.8038,39.4226 47.7438,39.1026 C46.1968,38.6346 44.5328,38.2656 42.9368,38.3266 C41.3338,38.3886 39.9398,38.4626 38.4948,37.4886 C37.8438,37.0486 36.6488,37.4166 35.6998,37.4176 C35.7188,38.0516 35.7278,38.6866 35.7588,39.3196 C35.7788,39.7226 35.8608,40.1236 35.8598,40.5246 C35.8568,42.0966 37.1508,42.6756 38.0438,42.1236 C39.6568,41.1276 41.0398,40.4406 42.7778,41.6066 C42.8098,41.6276 42.8868,41.5806 42.9428,41.5686 C44.5388,41.2306 46.1338,40.8926 47.7288,40.5546 M112.4488,37.1486 C111.1038,37.1486 109.7538,37.0726 108.4188,37.1726 C107.4028,37.2486 106.3388,37.4016 105.4268,37.8106 C104.9868,38.0076 104.4758,39.1376 104.6488,39.3806 C105.0038,39.8796 105.8148,40.3566 106.4108,40.3246 C108.0038,40.2406 109.6368,40.0526 111.1538,39.5836 C112.5218,39.1606 113.7568,38.3106 114.6348,37.4566 C114.9788,36.5916 115.3588,35.7386 115.6478,34.8566 C115.7618,34.5066 115.7548,34.0696 115.6608,33.7116 C115.5438,33.2716 115.2838,32.8676 115.0738,32.4546 C113.5208,29.3896 113.6068,29.0076 116.9528,27.9676 C118.2398,27.5666 119.7068,27.5896 121.0728,27.6886 C121.5138,27.7196 122.1688,28.5666 122.2468,29.1106 C122.4268,30.3576 122.2288,31.6546 122.3528,32.9146 C122.4188,33.5786 122.7018,34.6146 123.1298,34.7596 C123.8338,34.9976 124.7738,34.7576 125.5378,34.4956 C125.9618,34.3496 126.2588,33.7726 126.5658,33.3536 C127.1328,32.5796 127.7548,32.4506 128.4298,33.1706 C129.6128,34.4336 131.1208,34.0786 132.3188,33.5866 C135.8158,32.1476 139.2168,30.4746 142.6408,28.8586 C145.6018,27.4616 148.8138,26.5476 151.3848,24.3796 C151.5888,24.2086 151.9268,24.1056 152.1968,24.1156 C155.9518,24.2626 158.7178,22.0726 161.5168,20.0816 C165.0188,17.5896 168.4038,14.9336 171.8478,12.3606 C172.1188,12.1586 172.4518,12.0246 172.7738,11.9086 C175.2568,11.0186 176.0538,8.3776 174.5988,6.1466 C174.1868,5.5146 173.9518,4.6776 173.9148,3.9206 C173.8838,3.3016 174.0918,2.4096 174.5238,2.1086 C174.8938,1.8516 175.7288,2.2596 176.1698,2.3386 C176.3358,1.8206 176.3838,0.7536 176.7808,0.6026 C177.6048,0.2896 178.9358,0.0786 179.4698,0.5266 C180.2928,1.2176 181.0708,2.4916 181.0858,3.5286 C181.1798,10.0716 181.0358,16.6176 181.0408,23.1626 C181.0418,23.9086 181.3328,24.7556 181.7508,25.3816 C182.7508,26.8796 182.5348,28.2806 181.8298,29.7876 C180.5798,32.4586 180.7348,35.2036 181.5278,37.9676 C181.6598,38.4266 181.8808,39.0136 181.7118,39.3806 C180.6178,41.7556 180.8558,43.9086 181.9268,46.3186 C182.5298,47.6726 182.5558,49.8586 181.8468,51.1016 C180.3708,53.6906 180.2158,56.4596 179.7978,59.2086 C179.5938,60.5516 179.6248,61.4846 177.8038,60.7316 C176.0968,60.0256 174.2668,59.5666 172.4498,59.2106 C171.9738,59.1166 171.3448,59.8076 170.7848,60.1336 C170.3078,60.4116 169.8268,60.6826 169.3478,60.9566 C169.1808,60.3936 168.8928,59.8346 168.8738,59.2656 C168.8398,58.2896 169.0898,57.2956 168.9868,56.3336 C168.9388,55.8886 168.3858,55.2396 167.9758,55.1676 C167.6048,55.1016 166.9248,55.5976 166.7168,56.0136 C166.1568,57.1386 165.7748,58.3526 165.1898,59.8746 C164.5668,59.4436 163.9478,59.1206 163.4598,58.6586 C162.4948,57.7436 161.6608,56.6846 160.6628,55.8086 C159.4988,54.7856 158.8988,55.0306 158.2668,56.4546 C157.9698,57.1246 157.5558,57.8006 157.0288,58.2996 C155.9808,59.2936 154.8588,59.0416 154.5528,57.6646 C154.1258,55.7376 152.4388,55.9626 151.2638,55.7826 C150.2678,55.6296 148.9478,56.0966 148.8708,57.7106 C148.8598,57.9216 147.9358,58.3576 147.6078,58.2336 C146.6488,57.8716 145.7028,57.3746 144.8938,56.7476 C144.0978,56.1296 143.5218,56.0936 142.7818,56.7786 C141.4008,58.0546 139.7928,57.9356 138.2528,57.1986 C136.7488,56.4796 135.1258,55.9536 135.1248,53.6086 C135.1238,52.7556 133.6628,51.8056 132.7138,51.1086 C132.4218,50.8946 131.2298,51.2496 131.1328,51.5586 C130.9238,52.2226 130.9988,53.0876 131.2528,53.7576 C131.5488,54.5346 132.1638,55.1886 132.6398,55.8966 C131.8518,55.8936 131.0648,55.8866 130.2768,55.8906 C130.1048,55.8916 129.9328,55.9286 129.7598,55.9456 C129.0518,56.0156 128.3438,56.0846 127.6348,56.1526 C127.7948,55.4826 128.1828,54.7636 128.0568,54.1526 C127.8988,53.3946 127.4138,52.6256 126.8598,52.0716 C126.6738,51.8856 125.7708,52.2336 125.3298,52.5336 C124.8308,52.8746 124.4818,53.4356 124.0228,53.9516 C124.3358,54.3436 124.6168,54.6316 124.8238,54.9636 C125.3618,55.8266 124.9958,56.4416 124.0918,56.3006 C122.6108,56.0696 120.9568,57.0836 119.6108,55.6846 C119.4558,55.5226 118.7938,55.6316 118.5248,55.8296 C117.1668,56.8276 115.7688,56.5716 114.3968,55.9986 C113.4478,55.6016 112.7058,55.6156 111.6498,55.9526 C109.7138,56.5686 107.5888,57.0066 105.8458,55.1286 C104.6848,53.8776 103.3338,54.6106 102.4408,55.4196 C100.8708,56.8436 99.4018,56.5196 97.8478,55.6536 C96.5128,54.9106 95.2498,54.9126 93.9068,55.6446 C93.4748,55.8796 92.8898,55.8336 92.3758,55.9156 C92.4588,55.3546 92.3728,54.6816 92.6558,54.2516 C93.7038,52.6566 93.6868,51.7736 92.0978,50.8506 C91.5538,50.5346 90.3928,50.5456 89.9828,50.9206 C89.4928,51.3696 89.3458,52.3696 89.3568,53.1266 C89.3638,53.6216 90.0088,54.0766 90.1908,54.6106 C90.3358,55.0366 90.3518,55.6286 90.1518,55.9996 C90.0488,56.1876 89.1888,56.2376 88.9398,56.0296 C87.7758,55.0556 86.8298,55.2016 85.7338,56.1796 C85.4368,56.4446 84.6278,56.1356 84.0548,56.0906 C84.1248,55.4516 83.9788,54.6536 84.3088,54.2066 C84.9618,53.3176 85.3778,52.6226 84.5358,51.6166 C83.1138,49.9186 81.8528,49.9466 80.7398,51.8706 C80.1928,52.8166 79.7708,53.8436 79.3768,54.8666 C78.9148,56.0646 78.0508,56.6496 76.8298,56.5256 C75.5188,56.3936 75.5118,55.3606 75.4328,54.3146 C75.3918,53.7746 75.0228,52.9666 74.6148,52.8266 C74.2048,52.6866 73.5158,53.1556 73.0298,53.4786 C71.6918,54.3686 70.4338,55.3816 69.0738,56.2316 C67.9608,56.9266 67.2708,56.0596 66.5778,55.3296 C64.7458,53.4016 64.6438,53.4096 62.7938,55.3426 C60.6178,57.6196 60.1638,57.7426 57.6338,55.9416 C56.5408,55.1636 55.7968,55.0036 54.7838,55.9886 C54.4588,56.3056 53.6818,56.1596 53.1128,56.2256 C53.0568,55.6476 52.7558,54.9236 52.9958,54.5206 C53.6408,53.4286 53.2628,52.7576 52.5438,51.9116 C51.8468,51.0926 51.4018,50.0596 50.8418,49.1226 C50.1338,47.9366 49.3948,48.0276 48.5308,49.0006 C46.9298,50.7986 46.9808,52.6526 48.7348,54.2676 C49.1608,54.6596 49.7258,54.9846 49.9668,55.4706 C50.2108,55.9616 50.1318,56.6126 50.1958,57.1936 C49.5598,57.2576 48.8748,57.4966 48.3048,57.3326 C47.8128,57.1916 47.4458,56.5986 47.0338,56.1946 C45.4558,54.6486 44.3958,54.5556 42.8998,56.1676 C41.9178,57.2256 41.2488,57.6686 39.8918,56.6216 C39.3798,56.2276 38.1378,56.7756 37.2298,56.9006 C36.4608,57.0056 35.4178,57.4836 34.9808,57.1536 C34.0738,56.4696 34.7408,55.6256 35.3998,54.9786 C36.2708,54.1246 36.0568,53.3446 35.2298,52.6076 C34.8838,52.2986 34.5348,51.9936 34.2108,51.6626 C33.2968,50.7326 32.4148,49.6606 31.0068,50.9086 C29.4078,52.3286 29.2948,53.7846 30.6448,55.2786 C31.1108,55.7946 31.7288,56.2296 32.0218,56.8256 C32.2558,57.3026 32.3128,58.3406 32.0768,58.4746 C31.5858,58.7536 30.7538,58.8026 30.2388,58.5646 C29.6558,58.2956 29.2518,57.6206 28.7938,57.0996 C27.9768,56.1706 27.1348,56.1146 26.2758,57.0126 C25.5548,57.7656 24.8268,58.5156 24.1688,59.3226 C23.5708,60.0556 23.0518,60.0126 22.4658,59.3506 C22.1218,58.9606 21.7428,58.5996 21.3938,58.2116 C20.3918,57.0946 19.4228,56.0136 18.1898,58.0186 C18.0368,58.2676 17.4028,58.2196 16.9918,58.3096 C16.9678,57.7346 16.7198,57.0256 16.9668,56.6096 C17.5458,55.6306 17.5958,54.9726 16.5658,54.2866 C15.5318,53.5986 14.6598,53.7896 13.9738,54.6546 C13.6868,55.0156 13.6858,55.6636 13.6978,56.1776 C13.7048,56.4906 14.1158,56.7976 14.1148,57.1076 C14.1138,58.0486 14.0008,58.9896 13.9308,59.9316 C13.0068,59.8506 11.9498,60.0326 11.1818,59.6446 C6.5028,57.2736 7.2568,58.2076 7.1368,53.1456 C7.1038,51.7606 7.4598,50.3436 7.2698,48.9916 C7.0808,47.6306 6.5898,46.2506 5.9328,45.0396 C5.5318,44.2986 4.4048,43.8386 3.7808,44.8226 C3.5028,45.2606 3.9298,46.2216 4.1838,46.8896 C4.3098,47.2226 4.8798,47.3736 5.0468,47.7076 C5.2488,48.1106 5.4698,48.7976 5.2758,49.0556 C4.1748,50.5166 4.6508,51.9896 4.9348,53.5386 C5.1028,54.4586 4.9858,55.4656 4.8028,56.3956 C4.7298,56.7676 4.1338,57.0376 3.7768,57.3536 C3.5628,56.9366 3.2108,56.5326 3.1688,56.0986 C3.1018,55.4186 3.4128,54.6756 3.2568,54.0326 C2.9988,52.9566 2.5358,51.9226 2.0868,50.9016 C1.8398,50.3386 1.0448,49.5646 1.1878,49.3546 C2.3308,47.6776 1.1208,46.1306 1.1198,44.5416 C1.1198,43.7706 1.4918,43.0056 1.6098,42.2256 C1.8208,40.8396 2.1688,39.4326 2.0928,38.0546 C1.9778,35.9496 1.4788,33.8686 1.2838,31.7636 C1.1388,30.2156 1.2658,28.6436 1.1718,27.0876 C1.1388,26.5456 0.7948,26.0266 0.6178,25.4886 C0.3828,24.7746 0.1408,24.0596 0.000617605982,23.3256 C-0.0132,23.2546 0.7828,22.8306 0.9908,22.9476 C1.7558,23.3786 2.8818,23.8466 3.0608,24.5176 C3.7288,27.0166 4.2388,29.5846 4.4918,32.1576 C4.7338,34.6226 4.5558,37.1276 4.6218,39.6126 C4.6398,40.3156 4.8658,41.0116 4.9968,41.7116 C5.3558,41.5916 5.8688,41.5816 6.0448,41.3336 C6.5748,40.5856 6.9738,39.7456 7.4188,38.9376 C7.4368,38.9026 7.3998,38.8216 7.3688,38.7756 C5.0888,35.3426 6.2198,31.4546 5.9978,27.7686 C5.9048,26.2236 5.5688,25.1286 4.3128,24.2286 C3.8768,23.9156 3.3568,23.0906 3.4948,22.7536 C3.7008,22.2506 4.4118,21.7476 4.9838,21.6346 C7.7658,21.0846 8.3888,21.5916 8.4128,24.4686 C8.4358,27.4146 8.3638,30.3616 8.2608,33.3056 C8.1798,35.6596 8.8288,36.3936 11.1678,36.2206 C14.9208,35.9436 18.5758,36.2626 22.3198,36.9026 C26.2708,37.5776 30.5058,37.8776 34.1228,35.1536 C35.2438,34.3096 36.2848,34.8896 37.3648,35.3966 C38.0458,35.7166 38.8418,35.8076 39.5958,35.9536 C40.0968,36.0506 40.7468,35.8836 41.1028,36.1456 C42.6458,37.2776 44.3868,37.0766 46.1138,37.0936 C51.0838,37.1416 56.0538,37.2036 61.0248,37.2506 C61.4838,37.2546 62.0448,37.3406 62.3878,37.1216 C65.2158,35.3126 68.4528,36.7826 71.3918,35.9496 C71.5978,35.8916 71.8998,35.9086 72.0688,36.0226 C74.8708,37.9126 77.9488,37.1916 80.9748,37.0066 C81.4488,36.9776 81.9298,37.0646 82.9128,37.1316 C81.9118,37.7926 81.2648,38.0756 80.8278,38.5516 C80.4898,38.9206 80.4158,39.5296 80.2228,40.0316 C80.7338,40.0726 81.3668,40.3216 81.7288,40.1096 C82.4268,39.6996 83.2088,39.1386 83.5318,38.4436 C84.2278,36.9486 85.4728,36.1546 86.8768,36.1106 C90.8018,35.9876 94.7488,36.3246 98.6638,36.0876 C100.1718,35.9966 101.6358,34.8846 103.0668,34.1346 C103.2638,34.0316 103.1498,33.3366 103.1798,32.9146 C102.7578,32.9006 102.2688,32.7406 101.9248,32.8986 C100.3078,33.6406 99.0568,33.4046 98.4448,31.9416 C98.2348,31.4396 98.5958,30.6966 98.6968,30.0646 C99.1828,30.1706 99.8018,30.1246 100.1298,30.4116 C101.2548,31.3956 101.6668,30.7986 102.1268,29.7576 C103.1818,27.3706 104.2098,27.2866 105.8258,29.2826 C106.6058,30.2456 106.2878,30.9036 105.5838,31.6926 C104.2108,33.2326 104.3998,33.9966 106.4008,34.6466 C107.9048,35.1346 109.4808,35.3936 111.0178,35.7826 C111.5358,35.9136 112.0318,36.1316 112.5368,36.3096 C112.5068,36.5886 112.4778,36.8686 112.4488,37.1486" id="Fill-3" fill="#231916" mask="url(#mask-4)"></path>
                </g>
                <path d="M71.6361,213.2641 C72.3991,212.3931 72.9371,211.7791 73.4751,211.1641 C74.1581,211.8351 74.8421,212.5051 75.5261,213.1751 L73.4571,215.1851 C72.9251,214.6231 72.3931,214.0621 71.6361,213.2641" id="Fill-5" fill="#231916"></path>
                <path d="M86.9193,216.5971 C86.0223,217.2801 85.4353,218.0321 85.0613,217.9381 C84.5093,217.8001 84.1083,217.0591 83.6453,216.5751 C84.1033,216.1611 84.5313,215.4691 85.0283,215.4161 C85.4893,215.3671 86.0233,216.0011 86.9193,216.5971" id="Fill-7" fill="#231916"></path>
                <path d="M107.599,212.3144 C107.054,211.3074 106.519,210.6824 106.423,209.9954 C106.373,209.6374 107.098,209.1714 107.473,208.7544 C107.901,209.4544 108.422,210.1194 108.701,210.8744 C108.784,211.0994 108.185,211.5754 107.599,212.3144" id="Fill-9" fill="#231916"></path>
                <path d="M13.5277,212.8955 C12.8977,213.4695 12.6007,213.7395 12.3047,214.0095 C11.7267,213.3665 11.1137,212.7485 10.6127,212.0505 C10.5497,211.9635 11.2747,211.1625 11.3027,211.1815 C11.9937,211.6495 12.6387,212.1845 13.5277,212.8955" id="Fill-11" fill="#231916"></path>
                <path d="M97.1869,215.9013 C96.6079,216.3213 96.1889,216.8193 95.9709,216.7433 C95.5139,216.5843 95.1639,216.1223 94.7699,215.7843 C95.0719,215.4513 95.4349,214.8063 95.6629,214.8513 C96.1249,214.9423 96.5149,215.4053 97.1869,215.9013" id="Fill-13" fill="#231916"></path>
            </g>
        </g>
    </g>
</svg>