<?xml version="1.0" encoding="UTF-8"?>
<svg width="147px" height="166px" viewBox="0 0 147 166" version="1.1" xmlns="http://www.w3.org/2000/svg" xmlns:xlink="http://www.w3.org/1999/xlink">
    <!-- Generator: Sketch 60 (88103) - https://sketch.com -->
    <title>figure30</title>
    <desc>Created with Sketch.</desc>
    <defs>
        <polygon id="path-1" points="0.0871331237 0.221 143.719 0.221 143.719 166 0.0871331237 166"></polygon>
    </defs>
    <g id="页面-1" stroke="none" stroke-width="1" fill="none" fill-rule="evenodd">
        <g id="29-44" transform="translate(-268.000000, -26.000000)">
            <g id="figure30" transform="translate(268.000000, 25.000000)">
                <g id="编组" transform="translate(3.000000, 0.779000)">
                    <mask id="mask-2" fill="white">
                        <use xlink:href="#path-1"></use>
                    </mask>
                    <g id="Clip-2"></g>
                    <path d="M50.042,68.755 C50.384,68.249 50.673,68.008 50.682,67.758 C50.691,67.494 50.434,67.221 50.293,66.951 C50.045,67.186 49.687,67.381 49.585,67.667 C49.514,67.869 49.79,68.194 50.042,68.755 L50.042,68.755 Z M10.181,103.212 C10.465,102.684 10.754,102.392 10.707,102.173 C10.642,101.869 10.323,101.619 10.113,101.347 C9.904,101.595 9.535,101.839 9.528,102.093 C9.521,102.376 9.843,102.667 10.181,103.212 L10.181,103.212 Z M85.185,58.368 C85.194,58.252 85.205,58.136 85.215,58.02 C84.958,57.87 84.686,57.577 84.449,57.604 C84.129,57.64 83.837,57.922 83.533,58.098 C83.761,58.293 83.973,58.62 84.22,58.649 C84.526,58.685 84.861,58.473 85.185,58.368 L85.185,58.368 Z M74.798,60.258 C74.176,59.866 73.887,59.538 73.612,59.55 C73.327,59.564 73.057,59.907 72.78,60.105 C73.013,60.31 73.227,60.648 73.483,60.685 C73.775,60.726 74.106,60.5 74.798,60.258 L74.798,60.258 Z M36.605,96.232 C36.033,95.911 35.726,95.596 35.457,95.627 C35.177,95.659 34.935,96.024 34.677,96.243 C34.965,96.437 35.235,96.737 35.546,96.788 C35.775,96.825 36.059,96.536 36.605,96.232 L36.605,96.232 Z M45.89,105.745 C46.128,105.189 46.377,104.887 46.327,104.649 C46.273,104.399 45.935,104.209 45.721,103.992 C45.543,104.237 45.229,104.483 45.228,104.729 C45.228,104.98 45.536,105.232 45.89,105.745 L45.89,105.745 Z M53.043,118.484 C52.867,118.602 52.691,118.718 52.516,118.835 C52.815,119.294 53.115,119.753 53.415,120.211 C53.595,120.087 53.938,119.866 53.93,119.852 C53.655,119.384 53.347,118.936 53.043,118.484 L53.043,118.484 Z M53.611,66.455 C52.985,66.061 52.699,65.736 52.43,65.75 C52.138,65.765 51.862,66.096 51.58,66.289 C51.813,66.487 52.028,66.813 52.285,66.851 C52.578,66.894 52.908,66.682 53.611,66.455 L53.611,66.455 Z M67.279,90.105 C66.973,90.522 66.774,90.79 66.576,91.059 C66.885,91.226 67.191,91.514 67.503,91.519 C67.723,91.523 67.95,91.146 68.175,90.939 C67.924,90.705 67.673,90.471 67.279,90.105 L67.279,90.105 Z M66.979,68.415 C67.08,68.607 67.181,68.798 67.281,68.989 C67.767,68.749 68.251,68.508 68.736,68.267 C68.579,68.053 68.327,67.634 68.279,67.656 C67.826,67.867 67.408,68.151 66.979,68.415 L66.979,68.415 Z M73.584,94.189 C73.387,94.304 73.189,94.419 72.991,94.533 C72.817,94.755 72.459,95.12 72.501,95.175 C72.712,95.448 73.005,95.753 73.316,95.819 C73.507,95.859 73.985,95.484 73.981,95.303 C73.974,94.929 73.73,94.56 73.584,94.189 L73.584,94.189 Z M37.572,112.924 C37.229,112.542 37.029,112.318 36.829,112.094 C36.548,112.359 36.186,112.585 36.024,112.909 C35.955,113.048 36.306,113.396 36.466,113.648 C36.78,113.442 37.096,113.236 37.572,112.924 L37.572,112.924 Z M58.601,77.921 C58.622,77.807 58.643,77.693 58.664,77.578 C58.391,77.389 58.109,77.041 57.845,77.052 C57.509,77.067 57.186,77.373 56.856,77.553 C57.073,77.767 57.271,78.126 57.512,78.158 C57.858,78.204 58.236,78.012 58.601,77.921 L58.601,77.921 Z M124.776,144.99 C125.02,145.039 125.264,145.087 125.508,145.135 C125.57,144.564 125.667,143.992 125.663,143.422 C125.662,143.334 125.201,143.249 124.954,143.162 C124.895,143.771 124.835,144.381 124.776,144.99 L124.776,144.99 Z M108.73,96.525 C108.426,97.055 108.082,97.386 108.138,97.622 C108.211,97.933 108.599,98.169 108.852,98.437 C109.095,98.187 109.548,97.919 109.529,97.69 C109.503,97.365 109.128,97.068 108.73,96.525 L108.73,96.525 Z M45.222,100.938 C45.359,100.708 45.497,100.479 45.635,100.25 C45.173,99.959 44.726,99.636 44.232,99.414 C44.166,99.384 43.873,99.854 43.685,100.091 C44.197,100.374 44.71,100.655 45.222,100.938 L45.222,100.938 Z M79.235,90.074 C80.017,90.144 80.623,90.198 81.229,90.252 C81.135,89.932 81.141,89.477 80.927,89.317 C80.359,88.894 79.756,88.835 79.235,90.074 L79.235,90.074 Z M131.488,136.058 C130.805,135.654 130.435,135.348 130.013,135.231 C129.861,135.189 129.584,135.601 129.363,135.805 C129.686,136.128 129.965,136.53 130.351,136.73 C130.5,136.808 130.887,136.427 131.488,136.058 L131.488,136.058 Z M107.398,87.035 C106.855,86.701 106.522,86.343 106.316,86.405 C105.964,86.512 105.689,86.881 105.382,87.139 C105.657,87.416 105.938,87.917 106.206,87.911 C106.531,87.904 106.847,87.467 107.398,87.035 L107.398,87.035 Z M35.812,102.141 C35.239,101.779 34.9,101.448 34.511,101.372 C34.348,101.34 33.847,101.927 33.904,102.088 C34.034,102.453 34.369,102.879 34.712,102.984 C34.919,103.048 35.296,102.556 35.812,102.141 L35.812,102.141 Z M77.563,96.981 C77.547,96.845 77.531,96.709 77.515,96.573 C77.214,96.43 76.828,96.096 76.63,96.184 C76.172,96.387 75.805,96.796 75.401,97.121 C75.684,97.317 76.009,97.714 76.239,97.665 C76.707,97.564 77.125,97.223 77.563,96.981 L77.563,96.981 Z M53.692,101.444 C53.222,101.882 52.922,102.16 52.623,102.438 C52.997,102.671 53.357,103.049 53.75,103.088 C54.042,103.116 54.377,102.703 54.691,102.486 C54.41,102.193 54.129,101.899 53.692,101.444 L53.692,101.444 Z M107.283,111.431 C106.925,112.011 106.553,112.408 106.627,112.528 C106.869,112.919 107.275,113.208 107.618,113.536 C107.836,113.277 108.28,112.95 108.227,112.773 C108.105,112.372 107.74,112.045 107.283,111.431 L107.283,111.431 Z M95.624,83.559 C94.823,83.047 94.1,82.932 93.417,83.584 C93.326,83.671 93.409,84.156 93.501,84.187 C94.268,84.441 95.065,84.67 95.624,83.559 L95.624,83.559 Z M55.388,98.488 C54.789,98.076 54.44,97.707 54.027,97.605 C53.811,97.551 53.479,97.966 53.198,98.17 C53.559,98.545 53.882,98.972 54.305,99.253 C54.404,99.319 54.833,98.89 55.388,98.488 L55.388,98.488 Z M33.213,133.879 C32.56,133.687 31.905,133.496 31.251,133.304 C31.245,133.612 31.11,134.018 31.257,134.211 C31.78,134.9 32.43,134.97 33.213,133.879 L33.213,133.879 Z M13.383,106.877 C13.792,106.268 14.239,105.89 14.228,105.527 C14.219,105.254 13.584,104.753 13.297,104.798 C12.95,104.853 12.494,105.345 12.434,105.707 C12.39,105.968 12.911,106.326 13.383,106.877 L13.383,106.877 Z M39.549,109.068 C38.269,108.785 36.612,109.616 36.448,110.34 C36.416,110.481 36.827,110.872 36.852,110.856 C37.668,110.347 38.462,109.802 39.549,109.068 L39.549,109.068 Z M75.078,79.576 C75.506,79.182 75.801,78.909 76.096,78.637 C75.685,78.41 75.284,78.034 74.858,78.001 C74.504,77.974 74.119,78.351 73.748,78.549 C74.138,78.85 74.527,79.151 75.078,79.576 L75.078,79.576 Z M73.126,80.61 C73.053,80.741 72.98,80.873 72.908,81.005 C73.852,81.526 74.779,82.08 75.753,82.537 C75.909,82.61 76.269,82.249 76.682,82.001 C75.314,81.466 74.22,81.038 73.126,80.61 L73.126,80.61 Z M119.983,117.449 C119.656,117.018 119.402,116.681 119.147,116.345 C118.906,116.775 118.489,117.2 118.477,117.636 C118.466,118.005 118.924,118.388 119.174,118.765 C119.418,118.368 119.662,117.972 119.983,117.449 L119.983,117.449 Z M56.913,130.96 C56.243,130.409 55.787,130.011 55.288,129.678 C55.257,129.658 54.675,130.325 54.709,130.366 C55.081,130.803 55.5,131.216 55.973,131.541 C56.066,131.605 56.44,131.261 56.913,130.96 L56.913,130.96 Z M62.937,79.453 C63.056,79.607 63.175,79.761 63.295,79.916 C63.9,79.667 64.525,79.454 65.103,79.151 C65.313,79.041 65.413,78.717 65.563,78.49 C65.294,78.335 64.901,77.979 64.777,78.057 C64.126,78.462 63.543,78.977 62.937,79.453 L62.937,79.453 Z M58.729,112.576 C58.236,111.92 57.858,111.415 57.48,110.911 C57.229,111.244 56.698,111.726 56.782,111.883 C57.046,112.383 57.524,112.777 57.967,113.16 C58.008,113.195 58.376,112.85 58.729,112.576 L58.729,112.576 Z M75.838,130.649 C76.286,131.203 76.575,131.562 76.865,131.921 C77.222,131.602 77.899,131.24 77.863,130.976 C77.804,130.542 77.324,130.112 76.92,129.821 C76.83,129.756 76.322,130.27 75.838,130.649 L75.838,130.649 Z M65.271,88.337 C64.593,87.702 64.205,86.854 63.222,87.299 C63.035,87.384 62.919,88.162 63.086,88.393 C63.648,89.176 64.363,88.979 65.271,88.337 L65.271,88.337 Z M59.035,61.388 C58.987,61.29 58.939,61.191 58.893,61.092 C58.369,61.19 57.793,61.185 57.343,61.421 C57.05,61.575 56.883,62.064 56.778,62.437 C56.739,62.576 57.063,62.985 57.173,62.968 C57.511,62.914 57.887,62.78 58.131,62.552 C58.486,62.222 58.738,61.782 59.035,61.388 L59.035,61.388 Z M46.391,94.554 C46.391,93.678 46.426,93.008 46.368,92.348 C46.353,92.161 46.093,91.927 45.893,91.848 C45.761,91.795 45.478,91.93 45.36,92.066 C44.831,92.679 45.26,94.061 46.391,94.554 L46.391,94.554 Z M87.43,42.793 C86.695,42.327 86.288,41.864 85.94,41.905 C85.584,41.947 85.287,42.483 84.964,42.803 C85.301,43.127 85.606,43.655 85.984,43.713 C86.308,43.764 86.715,43.276 87.43,42.793 L87.43,42.793 Z M77.555,140.376 C77.884,139.786 78.217,139.401 78.142,139.288 C77.763,138.721 77.278,138.225 76.83,137.705 C76.615,138.011 76.15,138.442 76.229,138.604 C76.505,139.163 76.97,139.629 77.555,140.376 L77.555,140.376 Z M54.003,89.936 C53.588,90.493 53.23,90.914 53.259,90.943 C53.839,91.519 54.457,92.057 55.1,92.563 C55.126,92.584 55.639,92.094 55.613,92.058 C55.162,91.404 54.663,90.783 54.003,89.936 L54.003,89.936 Z M70.758,117.609 C72.005,116.509 72.205,115.813 71.288,115.064 C71.044,114.865 70.621,114.885 70.28,114.804 C70.246,115.153 70.126,115.522 70.197,115.847 C70.334,116.47 70.58,117.069 70.758,117.609 L70.758,117.609 Z M59.575,98.249 C58.958,98.577 58.513,98.815 58.066,99.052 C58.604,99.369 59.111,99.82 59.69,99.948 C59.978,100.011 60.396,99.482 60.756,99.221 C60.386,98.916 60.016,98.611 59.575,98.249 L59.575,98.249 Z M112.691,110.772 C112.473,110.36 112.442,110.194 112.351,110.149 C111.531,109.738 110.71,109.324 109.862,108.977 C109.732,108.923 109.411,109.163 109.288,109.342 C109.226,109.432 109.356,109.77 109.491,109.859 C110.085,110.257 110.681,110.688 111.339,110.939 C111.682,111.068 112.156,110.85 112.691,110.772 L112.691,110.772 Z M39.609,100.328 C39.028,99.935 38.641,99.599 38.585,99.647 C37.938,100.206 37.341,100.822 36.729,101.423 C36.95,101.632 37.313,102.055 37.37,102.017 C38.059,101.558 38.703,101.032 39.609,100.328 L39.609,100.328 Z M61.344,70.453 C62.281,71.311 63.836,71.2 64.31,70.267 C64.438,70.014 64.422,69.598 64.298,69.341 C64.232,69.206 63.737,69.136 63.53,69.235 C62.787,69.591 62.084,70.032 61.344,70.453 L61.344,70.453 Z M54.274,117.882 C54.542,117.711 54.799,117.637 54.86,117.485 C54.943,117.277 54.951,116.977 54.861,116.774 C54.577,116.125 54.272,115.476 53.892,114.88 C53.734,114.635 53.381,114.476 53.084,114.38 C52.965,114.341 52.602,114.655 52.612,114.678 C53.138,115.734 53.69,116.775 54.274,117.882 L54.274,117.882 Z M79.326,77.869 C78.611,78.477 78.125,78.861 77.679,79.287 C77.518,79.441 77.306,79.773 77.367,79.884 C77.518,80.155 77.787,80.402 78.067,80.538 C78.175,80.589 78.452,80.323 78.633,80.178 C79.05,79.846 79.454,79.499 79.864,79.159 C80.049,79.005 80.413,78.812 80.389,78.713 C80.326,78.464 80.13,78.198 79.912,78.054 C79.679,77.9 79.358,77.878 79.326,77.869 L79.326,77.869 Z M69.95,79.538 C70.609,79.22 71.162,78.954 71.716,78.687 C71.106,78.467 70.501,78.092 69.887,78.075 C69.369,78.061 68.84,78.464 68.316,78.683 C68.828,78.951 69.341,79.219 69.95,79.538 L69.95,79.538 Z M58.566,103.31 C59.156,102.888 59.553,102.603 59.95,102.319 C59.454,101.945 58.993,101.352 58.452,101.268 C58.044,101.204 57.534,101.79 57.069,102.087 C57.53,102.463 57.991,102.839 58.566,103.31 L58.566,103.31 Z M9.187,162.158 C8.604,161.798 8.291,161.443 7.976,161.44 C6.671,161.431 7.036,162.727 6.599,163.403 C6.547,163.483 6.93,163.844 7.11,164.076 C7.733,163.501 8.355,162.925 9.187,162.158 L9.187,162.158 Z M33.037,136.691 L33.017,136.158 C32.471,135.985 31.936,135.719 31.379,135.661 C30.713,135.591 29.968,135.764 30.068,136.631 C30.108,136.973 30.752,137.545 31.041,137.5 C31.731,137.392 32.374,136.98 33.037,136.691 L33.037,136.691 Z M87.251,145.979 C86.735,146.7 86.185,147.358 86.239,147.413 C86.807,147.98 87.471,148.452 88.108,148.95 C88.323,148.652 88.786,148.225 88.71,148.077 C88.375,147.425 87.885,146.855 87.251,145.979 L87.251,145.979 Z M56.394,95.578 C56.96,94.86 57.306,94.422 57.65,93.985 C57.184,93.713 56.708,93.217 56.251,93.233 C55.812,93.248 55.392,93.795 54.963,94.108 C55.352,94.507 55.74,94.907 56.394,95.578 L56.394,95.578 Z M65.951,8.63 C67.021,8.546 68.018,8.506 69.001,8.369 C69.313,8.325 69.589,8.025 69.882,7.842 C69.746,7.649 69.654,7.378 69.469,7.274 C68.301,6.614 66.515,7.329 65.951,8.63 L65.951,8.63 Z M77.145,90.717 C75.597,91.122 74.166,91.496 72.536,91.922 C74.566,93.289 76.489,92.682 77.145,90.717 L77.145,90.717 Z M56.981,79.72 C56.388,79.365 56.014,78.972 55.808,79.047 C54.755,79.426 53.737,79.909 52.736,80.414 C52.648,80.459 52.679,81.017 52.825,81.162 C52.961,81.295 53.514,81.282 53.564,81.178 C54.066,80.148 54.978,80.251 55.877,80.221 C56.146,80.212 56.41,79.989 56.981,79.72 L56.981,79.72 Z M81.732,144.27 C81.092,143.652 80.465,142.997 79.774,142.415 C79.61,142.276 79.049,142.291 78.998,142.395 C78.872,142.653 78.802,143.105 78.948,143.298 C79.432,143.937 80,144.518 80.584,145.07 C80.718,145.197 81.095,145.213 81.266,145.115 C81.442,145.013 81.503,144.711 81.732,144.27 L81.732,144.27 Z M3.41,163.042 C3.557,163.038 3.703,163.035 3.85,163.032 C4.411,162.466 4.977,161.905 5.532,161.334 C5.718,161.143 5.878,160.929 6.049,160.726 C5.777,160.565 5.464,160.225 5.24,160.277 C4.647,160.413 3.833,160.568 3.591,160.993 C3.282,161.534 3.448,162.346 3.41,163.042 L3.41,163.042 Z M96.26,86.248 C95.716,85.877 95.321,85.474 95.197,85.545 C94.107,86.164 93.056,86.855 92.024,87.571 C91.928,87.638 91.972,88.083 92.096,88.233 C92.187,88.342 92.545,88.326 92.732,88.245 C93.467,87.927 94.194,87.584 94.898,87.204 C95.298,86.989 95.648,86.683 96.26,86.248 L96.26,86.248 Z M53.461,105.931 C53.267,105.198 50.902,103.501 50.306,103.768 C50.072,103.872 49.837,104.55 49.958,104.767 C50.465,105.671 52.257,106.206 53.461,105.931 L53.461,105.931 Z M86.251,144.794 C86.277,144.617 86.305,144.439 86.331,144.261 C85.629,143.764 84.945,143.236 84.203,142.808 C84.101,142.75 83.468,143.367 83.482,143.388 C83.992,144.112 84.518,144.835 85.143,145.456 C85.219,145.531 85.868,145.029 86.251,144.794 L86.251,144.794 Z M86.133,125.939 C86.345,126.321 86.436,126.69 86.666,126.834 C86.831,126.937 87.319,126.826 87.43,126.658 C87.913,125.921 88.345,125.143 88.715,124.344 C88.805,124.151 88.669,123.71 88.491,123.577 C88.323,123.452 87.824,123.473 87.714,123.616 C87.154,124.34 86.674,125.126 86.133,125.939 L86.133,125.939 Z M116.061,119.27 C115.784,119.859 115.507,120.26 115.575,120.333 C116.285,121.083 117.041,121.791 117.832,122.453 C117.867,122.483 118.362,121.962 118.644,121.698 C117.859,120.961 117.075,120.224 116.061,119.27 L116.061,119.27 Z M28.432,135.907 C28.732,135.521 29.083,135.13 29.358,134.69 C29.488,134.484 29.471,134.185 29.521,133.928 C29.288,133.922 28.932,133.815 28.843,133.924 C28.087,134.855 27.067,134.515 26.119,134.597 C25.783,134.626 25.474,134.95 25.151,135.139 C25.479,135.353 25.784,135.694 26.139,135.756 C26.871,135.883 27.63,135.864 28.432,135.907 L28.432,135.907 Z M63.342,75.314 C65.029,74.776 66.734,75.174 68.109,74.103 C68.387,73.887 68.723,73.743 68.98,73.51 C69.03,73.465 68.853,73.005 68.765,73 C68.374,72.977 67.965,73.001 67.586,73.098 C66.804,73.299 66.049,73.635 65.258,73.772 C64.384,73.923 63.695,74.191 63.342,75.314 L63.342,75.314 Z M101.387,145.199 C101.007,145.596 100.537,145.9 100.581,146.073 C100.849,147.122 101.159,148.177 101.623,149.15 C101.767,149.449 102.438,149.496 102.867,149.658 C102.839,149.223 102.867,148.774 102.769,148.356 C102.59,147.599 102.365,146.849 102.096,146.121 C101.989,145.832 101.71,145.607 101.387,145.199 L101.387,145.199 Z M90.997,86.588 C90.966,85.635 90.196,85.185 89.634,85.686 C88.787,86.44 88.047,87.329 87.364,88.236 C87.237,88.404 87.594,88.935 87.728,89.298 C87.982,89.151 88.267,89.038 88.486,88.85 C89.08,88.341 89.645,87.798 90.224,87.272 C90.514,87.009 90.811,86.753 90.997,86.588 L90.997,86.588 Z M141.13,120.407 C141.379,120.357 141.627,120.306 141.876,120.255 C141.876,119.272 141.966,118.277 141.833,117.313 C141.776,116.901 141.255,116.553 140.944,116.176 C140.625,116.562 139.981,117.018 140.047,117.32 C140.275,118.378 140.749,119.382 141.13,120.407 L141.13,120.407 Z M107.207,108.044 C105.734,108.044 105.207,108.889 105.346,110.67 C105.368,110.959 105.562,111.38 105.783,111.467 C106.015,111.558 106.54,111.41 106.65,111.209 C107.092,110.407 107.472,109.56 107.751,108.69 C107.807,108.516 107.317,108.168 107.207,108.044 L107.207,108.044 Z M78.791,134.33 C78.811,134.331 78.831,134.331 78.852,134.331 C78.804,134.969 78.698,135.61 78.732,136.244 C78.75,136.57 79.074,137.17 79.165,137.152 C79.633,137.061 80.137,136.887 80.488,136.582 C80.635,136.455 80.465,135.92 80.383,135.584 C80.224,134.933 79.991,134.298 79.855,133.644 C79.779,133.275 79.913,132.855 79.803,132.505 C79.721,132.243 79.4,132.055 79.187,131.836 C79.055,132.07 78.832,132.296 78.809,132.541 C78.753,133.132 78.791,133.733 78.791,134.33 L78.791,134.33 Z M71.752,84.4 C71.752,84.388 71.753,84.376 71.753,84.364 C72.389,84.364 73.027,84.401 73.658,84.343 C73.851,84.325 74.085,84.08 74.172,83.882 C74.221,83.774 74.042,83.443 73.9,83.391 C72.842,83.007 71.899,81.496 70.61,83.024 C70.47,83.19 70.115,83.157 69.908,83.291 C69.688,83.435 69.525,83.667 69.337,83.86 C69.59,84.04 69.825,84.334 70.1,84.376 C70.639,84.457 71.2,84.4 71.752,84.4 L71.752,84.4 Z M58.979,95.661 C57.966,95.661 57.237,95.473 56.717,95.72 C56.295,95.922 56.124,96.647 55.841,97.14 C56.265,97.321 56.923,97.771 57.073,97.639 C57.979,96.847 58.969,96.635 60.124,96.746 C60.351,96.768 60.617,96.374 60.865,96.172 C60.581,95.987 60.314,95.694 60.007,95.641 C59.555,95.563 59.073,95.657 58.979,95.661 L58.979,95.661 Z M84.806,30.325 C85.525,30.404 86.08,30.311 86.438,30.534 C87.373,31.114 87.983,30.783 88.446,29.984 C89.063,28.915 88.806,27.497 87.962,27.055 C87.884,27.147 87.752,27.231 87.73,27.338 C87.46,28.613 86.955,29.585 85.387,29.476 C85.224,29.464 85.024,29.993 84.806,30.325 L84.806,30.325 Z M82.702,15.889 C82.42,15.384 82.096,14.678 81.646,14.063 C81.482,13.839 81.023,13.829 80.699,13.722 C80.655,14.105 80.431,14.637 80.602,14.845 C81.178,15.55 81.227,16.132 80.705,16.897 C80.518,17.173 80.701,17.701 80.716,18.114 C81.239,17.967 81.895,17.96 82.248,17.63 C82.553,17.345 82.516,16.693 82.702,15.889 L82.702,15.889 Z M127.214,111.272 C127.046,111.382 126.878,111.493 126.71,111.603 C127.215,112.857 127.743,114.101 128.213,115.368 C128.385,115.834 128.368,116.367 128.528,116.839 C128.646,117.186 128.91,117.484 129.109,117.803 C129.313,117.474 129.608,117.166 129.689,116.809 C129.757,116.512 129.591,116.153 129.495,115.832 C129.236,114.962 128.911,114.108 128.704,113.227 C128.484,112.295 128.2,111.488 127.214,111.272 L127.214,111.272 Z M74.172,133.571 C73.921,133.562 73.67,133.552 73.419,133.543 C73.045,134.968 72.625,136.385 72.348,137.83 C72.306,138.049 72.892,138.53 73.259,138.631 C73.456,138.684 73.933,138.239 74.056,137.928 C74.27,137.393 74.397,136.787 74.397,136.21 C74.396,135.331 74.254,134.451 74.172,133.571 L74.172,133.571 Z M93.268,157.207 C93.277,157.345 93.287,157.484 93.297,157.622 C94.403,158.461 98.089,158.28 98.866,157.228 C99.09,156.925 98.783,156.231 98.72,155.715 C98.261,155.83 97.535,155.805 97.392,156.082 C96.901,157.034 96.187,157.137 95.263,157.074 C94.604,157.029 93.933,157.157 93.268,157.207 L93.268,157.207 Z M79.388,154.668 C80.38,154.083 81.262,153.562 82.144,153.043 C81.495,152.668 80.849,152.291 80.198,151.921 C80.052,151.838 79.869,151.696 79.739,151.727 C79.236,151.851 78.581,151.895 78.299,152.234 C78.016,152.575 77.912,153.315 78.091,153.721 C78.27,154.126 78.896,154.333 79.388,154.668 L79.388,154.668 Z M77.179,9.911 C77.01,10.496 76.888,10.914 76.769,11.334 C76.583,11.987 76.344,12.633 76.244,13.3 C76.205,13.565 76.479,13.877 76.61,14.168 C76.893,14.024 77.172,13.873 77.458,13.738 C77.95,13.506 78.445,13.278 78.943,13.061 C79.197,12.95 79.608,12.928 79.684,12.753 C79.771,12.547 79.659,12.129 79.482,11.958 C78.757,11.253 77.974,10.607 77.179,9.911 L77.179,9.911 Z M129.816,139.927 C129.664,139.635 129.465,139.256 129.267,138.876 C129.043,139.222 128.756,139.544 128.607,139.921 C128.115,141.171 127.642,142.431 127.231,143.71 C127.119,144.058 127.128,144.571 127.315,144.852 C127.473,145.089 128.11,145.296 128.284,145.169 C128.565,144.965 128.686,144.49 128.793,144.106 C129.037,143.235 129.234,142.351 129.448,141.471 C129.559,141.02 129.664,140.567 129.816,139.927 L129.816,139.927 Z M16.154,136.022 C15.879,134.936 13.49,133.634 12.863,134.136 C12.63,134.323 12.45,134.825 12.526,135.106 C12.753,135.939 13.096,136.746 13.453,137.536 C13.527,137.701 13.97,137.895 14.05,137.833 C14.775,137.26 15.459,136.633 16.154,136.022 L16.154,136.022 Z M80.008,63.344 C79.194,63.082 78.742,62.785 78.337,62.839 C77.692,62.926 76.962,63.117 76.506,63.528 C76.294,63.719 76.605,64.54 76.745,65.058 C76.853,65.453 77.029,65.838 77.232,66.195 C77.463,66.598 77.709,67.021 78.053,67.313 C78.158,67.403 78.855,67.08 78.85,66.966 C78.83,66.548 78.722,66.072 78.478,65.741 C77.824,64.852 77.977,64.274 78.993,63.883 C79.216,63.797 79.418,63.66 80.008,63.344 L80.008,63.344 Z M73.42,145.365 C73.637,145.213 73.854,145.059 74.069,144.906 C72.719,143.843 72.595,142.441 72.594,140.929 C72.593,140.105 71.927,139.887 71.225,140.39 C70.742,140.735 70.28,141.123 69.874,141.551 C69.638,141.802 69.527,142.172 69.36,142.489 C69.69,142.631 70.029,142.755 70.348,142.918 C71.137,143.322 71.961,143.681 72.682,144.187 C73.031,144.431 73.181,144.964 73.42,145.365 L73.42,145.365 Z M111.118,97.608 C112.452,97.123 113.172,95.447 112.564,93.412 C112.263,92.403 111.393,92.007 110.469,91.963 C110.695,93.936 110.905,95.759 111.118,97.608 L111.118,97.608 Z M139.214,122.38 C139.277,121.221 138.75,120.403 137.676,120.151 C137.204,120.04 136.55,120.34 136.115,120.648 C135.985,120.739 136.269,121.51 136.455,121.929 C136.69,122.459 136.991,122.965 137.319,123.444 C137.534,123.758 137.815,124.171 138.126,124.231 C138.369,124.277 138.812,123.906 138.968,123.615 C139.158,123.261 139.142,122.797 139.214,122.38 L139.214,122.38 Z M56.258,115.885 C57.829,115.104 57.829,115.104 58.28,116.828 C59.276,116.334 60.271,115.88 61.218,115.339 C61.438,115.213 61.521,114.803 61.598,114.505 C61.611,114.453 61.28,114.22 61.114,114.226 C59.218,114.29 57.286,114.805 55.277,113.442 C55.689,114.469 55.972,115.174 56.258,115.885 L56.258,115.885 Z M73.392,76.654 C73.418,76.782 73.445,76.911 73.472,77.039 C74.021,76.993 74.669,77.117 75.095,76.864 C75.772,76.462 76.315,75.984 77.165,76.446 C77.304,76.521 77.664,76.188 77.922,76.044 C77.73,75.831 77.578,75.533 77.34,75.425 C76.973,75.259 76.292,75.34 76.188,75.114 C75.482,73.569 74.312,73.744 73.087,74.192 C72.75,74.315 72.518,74.726 72.237,75.005 C72.554,75.035 72.869,75.066 73.186,75.097 C73.46,75.125 73.734,75.154 74.009,75.182 C73.953,75.484 73.938,75.801 73.828,76.081 C73.744,76.297 73.541,76.465 73.392,76.654 L73.392,76.654 Z M129.574,130.295 C129.595,130.294 129.616,130.292 129.638,130.29 C129.573,129.362 129.616,128.407 129.388,127.521 C129.307,127.203 128.572,127.053 128.136,126.827 C128.016,127.261 127.828,127.69 127.794,128.13 C127.755,128.635 127.832,129.153 127.9,129.66 C127.948,130.011 127.959,130.463 128.177,130.678 C128.792,131.285 128.733,131.8 128.295,132.479 C128.105,132.772 128.169,133.264 128.219,133.654 C128.23,133.746 128.763,133.912 128.854,133.828 C129.145,133.554 129.5,133.199 129.542,132.84 C129.642,132.003 129.574,131.145 129.574,130.295 L129.574,130.295 Z M71.846,118.495 C73.384,119.005 73.73,119.698 72.996,120.793 C72.937,120.881 73.369,121.476 73.447,121.451 C73.95,121.287 74.619,121.138 74.854,120.753 C75.33,119.972 75.928,118.978 75.785,118.198 C75.67,117.566 74.543,116.71 73.867,116.711997 C73.255,116.713 72.646,117.741 71.846,118.495 L71.846,118.495 Z M41.481,107.534 C42.162,106.427 42.79,105.532 43.268,104.564 C43.454,104.186 43.302,103.641 43.304,103.173 C42.982,103.279 42.539,103.285 42.357,103.506 C40.958,105.206 38.912,105.245 37.018,105.697 C36.549,105.809 36.119,106.086 35.672,106.286 C36.139,106.455 36.604,106.761 37.074,106.769 C38.671,106.796 40.393,105.986 41.481,107.534 L41.481,107.534 Z M21.391,133.076 C21.518,132.996 21.645,132.917 21.771,132.837 C21.398,132.489 21.072,132.06 20.642,131.815 C20.06,131.484 19.775,131.861 19.49,132.399 C19.298,132.763 18.801,132.975 18.425,133.233 C17.908,133.588 16.784,133.724 17.295,134.565 C17.806,135.407 18.72,136.271 19.621,136.511 C20.213,136.67 21.102,135.749 21.838,135.28 C21.921,135.226 21.917,134.96 21.88,134.81 C21.732,134.228 21.556,133.653 21.391,133.076 L21.391,133.076 Z M43.502,125.846 C44.148,125.609 44.533,125.374 44.932,125.35 C45.284,125.329 45.86,125.438 45.977,125.67 C46.591,126.898 47.501,126.448 48.064,125.894 C48.755,125.215 49.452,124.291 49.608,123.38 C49.866,121.887 49.73,120.318 49.656,118.786 C49.644,118.531 49.107,118.302 48.813,118.061 C48.553,118.385 48.063,118.716 48.07,119.034 C48.115,120.682 48.287,122.327 48.418,124.02 C47.031,124.391 45.826,125.617 44.646,123.772 C44.251,123.154 43.533,123.387 43.41,124.23 C43.346,124.672 43.455,125.138 43.502,125.846 L43.502,125.846 Z M110.165,105.005 C110.73,105.133 111.276,105.137 111.688,105.375 C112.723,105.973 113.433,105.521 113.988,104.731 C114.623,103.829 114.611,102.818 113.821,102.034 C113.097,101.315 112.491,100.663 112.541,99.526 C112.556,99.211 111.962,98.763 111.555,98.586 C111.382,98.509 110.966,98.96 110.674,99.189 C110.306,99.479 109.936,99.772 109.597,100.094 C109.438,100.245 109.35,100.469 109.23,100.661 C109.448,100.7 109.667,100.773 109.886,100.772 C110.255,100.77 110.88,100.59 110.944,100.716 C111.151,101.123 111.307,101.673 111.2,102.098 C110.968,103.033 110.563,103.925 110.165,105.005 L110.165,105.005 Z M90.601,153.223 C90.598,153.198 90.595,153.173 90.592,153.149 C90.132,153.219 89.627,153.192 89.221,153.379 C87.932,153.97 86.669,154.624 85.425,155.304 C85.267,155.39 85.16,155.819 85.227,156.026 C85.482,156.821 85.733,157.641 86.155,158.351 C86.421,158.801 87.158,159.452 87.384,159.349 C87.922,159.105 88.432,158.525 88.642,157.964 C88.727,157.738 87.99,157.214 87.642,156.813 C87.372,156.504 87.126,156.173 86.869,155.852 C87.229,155.649 87.567,155.387 87.951,155.257 C88.458,155.088 89.179,155.197 89.492,154.878 C90.39,153.962 91.117,154.062 92.038,154.812 C92.909,155.521 93.897,155.324 94.456,154.428 C94.598,154.202 94.707,153.827 94.613,153.616 C94.525,153.419 94.153,153.25 93.9,153.24 C92.802,153.2 91.7,153.223 90.601,153.223 L90.601,153.223 Z M119.439,112.209 C118.844,111.87 118.649,111.787 118.488,111.663 C117.905,111.213 117.335,111.326 117.166,111.974 C117.047,112.436 117.249,113.408 117.469,113.459 C118.486,113.696 119.574,113.808 120.606,113.692 C120.872,113.661 121.105,112.653 121.204,112.068 C121.267,111.701 121.047,111.287 120.968,110.892 C120.882,110.461 120.651,109.978 120.766,109.603 C121.083,108.562 121.589,107.58 121.941,106.548 C122.336,105.394 121.211,105.037 120.667,104.401 C120.498,104.204 120.08,104.219 119.776,104.136 C119.738,104.703 119.686,105.269 119.664,105.836 C119.587,107.86 119.521,109.885 119.439,112.209 L119.439,112.209 Z M62.445,8.507 C62.78,8.332 63.258,8.082 63.735,7.833 C63.347,7.424 63.028,6.82 62.554,6.648 C61.655,6.321 60.66,6.266 59.717,6.048 C59.352,5.964 58.7,5.664 58.718,5.594 C59.131,3.903 57.562,3.459 56.781,2.579 C56.498,2.259 55.75,2.351 55.215,2.256 C55.152,2.804 55.011,3.359 55.052,3.899 C55.09,4.386 55.38,4.848 55.464,5.338 C55.6,6.122 56.851,7.475 57.621,7.332 C58.774,7.119 59.665,7.444 60.595,8.055 C61.024,8.337 61.646,8.325 62.445,8.507 L62.445,8.507 Z M135.334,114.88 C134.765,115.094 134.1,115.146 133.801,115.503 C133.374,116.013 133.076,116.735 133.022,117.391 C133.005,117.606 133.899,117.966 134.417,118.135 C135.181,118.386 136.048,118.392 136.748,118.746 C137.593,119.172 138.154,118.854 138.458,118.23 C138.989,117.136 139.355,115.961 139.737,114.801 C139.795,114.625 139.616,114.298 139.454,114.133 C138.493,113.163 137.538,112.183 136.506,111.292 C136.213,111.04 135.577,110.882 135.268,111.032 C134.932,111.194 134.626,111.767 134.631,112.156 C134.634,112.388 135.23,112.706 135.61,112.823 C136.982,113.249 137.904,114.772 137.327,115.891 C137.141,116.253 136.661,116.463 136.315,116.743 C136.075,116.403 135.813,116.077 135.605,115.719 C135.484,115.513 135.451,115.257 135.334,114.88 L135.334,114.88 Z M141.196,131.73 C141.345,131.74 141.493,131.749 141.642,131.758 C141.765,131.428 142.028,131.081 141.989,130.772 C141.752,128.865 143.041,126.814 141.453,125.031 C141.327,124.889 141.382,124.599 141.275,124.425 C141.073,124.098 140.815,123.805 140.581,123.498 C140.392,123.866 140.172,124.223 140.021,124.607 C139.845,125.052 139.869,125.675 139.563,125.954 C138.021,127.361 138.113,129.451 137.3,131.156 C136.92,131.951 136.83,132.904 136.721,133.799 C136.631,134.539 136.477,135.838 136.747,135.952 C137.753,136.378 138.106,135.362 138.335,134.631 C138.683,133.526 138.566,132.172 139.171,131.275 C140.151,129.82 140.165,128.366 140.029,126.791 C140.018,126.664 140.187,126.523 140.37,126.23 C141.996,127.922 140.553,130.029 141.196,131.73 L141.196,131.73 Z M125.935,112.048 C125.438,110.954 125.016,109.905 124.473,108.922 C124.355,108.71 123.786,108.645 123.459,108.703 C123.328,108.727 123.154,109.308 123.232,109.565 C123.574,110.688 124.126,111.759 124.365,112.9 C124.625,114.141 124.647,115.437 124.705,116.713 C124.712,116.859 124.302,117.106 124.05,117.17 C122.941,117.45 122.848,118.105 123.29,119.009 C123.552,119.543 123.837,120.07 124.042,120.627 C124.637,122.244 125.189,123.877 125.785,125.494 C125.843,125.651 126.129,125.87 126.235,125.835 C126.439,125.769 126.751,125.518 126.732,125.383 C126.679,124.994 126.588,124.508 126.323,124.269 C125.705,123.709 125.641,123.216 126.242,122.657 C127.002,121.951 126.843,121.272 126.303,120.505 C125.837,119.845 125.445,119.125 125.095,118.396 C124.871,117.932 124.718,117.436 125.518,117.223 C126.901,116.855 127.206,116.22 126.488,114.919 C125.967,113.974 125.21,113.163 125.935,112.048 L125.935,112.048 Z M85.986,53.875 C86.524,53.973 86.931,53.985 87.265,54.149 C87.357,54.194 87.309,54.888 87.193,54.931 C86.901,55.04 86.518,54.877 86.202,54.954 C85.807,55.05 85.185,55.212 85.122,55.461 C85.02,55.871 85.189,56.442 85.444,56.806 C85.561,56.971 86.262,56.943 86.511,56.755 C87.206,56.23 87.873,55.629 88.406,54.943 C88.604,54.691 88.565,53.957 88.341,53.725 C87.402,52.755 87.648,51.924 88.559,51.231 C89.772,50.305 90.056,48.674 89.868,47.694 C89.607,46.338 89.827,45.443 90.528,44.45 C90.646,44.284 90.779,43.968 90.705,43.857 C90.322,43.29 89.874,42.766 89.448,42.227 C89.193,42.627 88.893,43.005 88.691,43.43 C88.296,44.27 88.123,45.276 87.553,45.957 C86.78,46.88 86.612,47.5 87.497,48.447 C87.782,48.753 87.501,49.587 87.48,50.18 C87.026,50.126 86.572,50.083 86.123,50.011 C85.964,49.985 85.816,49.887 85.53,49.765 C85.15,50.408 84.784,51.029 84.33,51.797 C85.869,51.912 85.98,52.895 85.986,53.875 L85.986,53.875 Z M74.736,145.587 C74.923,146.373 75.14,147.056 75.237,147.756 C75.398,148.919 76.306,149.819 77.49,150.007 C78.061,150.098 78.663,150.26 79.147,150.558 C79.904,151.024 80.532,151.035 81.281,150.544 C81.603,150.332 82.196,150.217 82.509,150.374 C83.261,150.752 83.985,151.245 84.601,151.821 C85.39,152.561 86.159,152.384 86.951,151.97 C87.17,151.855 87.419,151.508 87.394,151.3 C87.37,151.108 87.01,150.833 86.776,150.809 C84.852,150.617 83.954,149.33 83.202,147.742 C82.956,147.222 82.312,146.795 81.751,146.549 C81.263,146.336 80.637,146.415 80.071,146.413 C79.811,146.411 79.549,146.524 79.288,146.585 C79.358,146.859 79.346,147.224 79.521,147.383 C79.751,147.593 80.162,147.59 80.434,147.773 C80.75,147.985 80.999,148.298 81.277,148.568 C80.893,148.744 80.415,149.16 80.139,149.053 C79.156,148.675 78.15,148.239 77.328,147.599 C76.522,146.972 76.78,146.028 77.524,145.339 C77.811,145.073 77.981,144.232 77.784,143.972 C76.851,142.741 75.772,141.619 74.696,140.403 C73.955,141.155 74.316,142.1 74.572,142.854 C74.853,143.68 75.503,144.38 76.064,145.247 C75.461,145.401 75.1,145.494 74.736,145.587 L74.736,145.587 Z M131.732,143.112 C131.821,143.147 131.91,143.181 132,143.215 C132,143.983 131.919,144.763 132.036,145.512 C132.089,145.846 132.504,146.296 132.822,146.361 C133.083,146.414 133.479,146.009 133.752,145.744 C134.106,145.399 134.354,144.936 134.729,144.621 C135.305,144.135 136.054,143.823 136.54,143.271 C137.138,142.593 137.41,141.607 138.053,140.997 C139.787,139.347 141.494,137.717 142.468,135.458 C142.704,134.911 143.331,134.288 142.452,134.039 C141.76,133.842 140.898,132.506 140.115,134.035 C139.095,136.024 138.051,138.004 136.939,139.942 C136.567,140.592 136.026,141.198 135.429,141.644 C135.128,141.869 134.527,141.692 134.063,141.697 C134.064,141.271 133.924,140.771 134.097,140.432 C134.619,139.409 135.282,138.458 135.85,137.456 C136.028,137.141 136.234,136.72 136.164,136.408 C135.789,134.765 135.317,133.144 134.909,131.507 C134.818,131.143 134.809,130.748 134.823,130.369 C134.864,129.303 135.016,128.234 134.967,127.173 C134.937,126.526 134.615,125.894 134.426,125.255 C133.444,125.69 133.98,126.553 133.834,127.237 C133.481,128.883 133.023,130.507 132.601,132.138 C132.582,132.211 132.488,132.264 132.431,132.327 C131.472,133.376 131.38,134.178 132.313,135.309 C133.423,136.656 133.041,138.142 132.796,139.574 C132.59,140.779 132.098,141.934 131.732,143.112 L131.732,143.112 Z M98.64,108.36 C98.082,107.952 97.588,107.68 97.211,107.294 C96.592,106.658 96.199,106.655 95.766,107.491 C95.643,107.727 94.923,107.956 94.818,107.85 C94.025,107.051 93.295,107.361 92.485,107.783 C92.228,107.918 91.848,107.819 91.523,107.827 C91.534,107.52 91.437,107.148 91.575,106.918 C92.041,106.145 91.91,105.523 91.224,105.012 C90.442,104.43 89.713,104.837 89.356,105.468 C88.689,106.649 87.954,107.664 86.606,108.092 C86.534,108.115 86.457,108.197 86.428,108.271 C85.915,109.516 85.209,110.725 84.959,112.022 C84.707,113.334 84.875,114.735 84.938,116.094 C84.95,116.368 85.317,116.626 85.521,116.892 C85.688,116.632 85.972,116.383 85.996,116.111 C86.045,115.57 85.765,114.94 85.952,114.484 C86.438,113.301 87.026,112.219 86.872,110.827 C86.825,110.399 87.643,109.781 88.184,109.439 C88.348,109.336 89.246,109.898 89.229,110.104 C89.185,110.605 88.906,111.193 88.53,111.534 C87.722,112.266 87.358,113.047 87.591,114.141 C87.694,114.63 87.53,115.172 87.612,115.668 C87.685,116.104 87.932,116.51 88.102,116.929 C88.327,116.506 88.683,116.102 88.75,115.655 C88.874,114.822 88.701,113.929 88.913,113.13 C89.016,112.747 89.714,112.522 90.143,112.226 C90.276,112.705 90.475,113.18 90.518,113.668 C90.54,113.925 90.24,114.194 90.171,114.479 C89.623,116.715 89.068,118.955 90.24,121.177 C90.857,122.346 92.129,123.46 90.583,124.835 C90.557,124.859 90.564,124.917 90.55,124.957 C90.131,126.095 89.739,127.245 89.285,128.369 C88.523,130.253 87.874,131.968 89.093,134.089 C90.146,135.924 90.139,138.173 89.076,140.174 C88.33,141.579 88.594,144.318 89.792,145.342 C90.817,146.218 91.923,147.006 93.036,147.769 C93.233,147.904 93.69,147.813 93.949,147.677 C95.486,146.872 96.66,147.023 97.883,148.199 C98.144,148.45 98.497,148.605 98.965,148.906 C98.992,148.464 99.075,148.244 99.001,148.152 C98.163,147.127 98.241,146.184 99.054,145.152 C99.262,144.888 99.212,144.045 98.981,143.876 C97.556,142.834 97.279,141.149 96.567,139.731 C96.128,138.854 95.991,137.811 95.805,136.826 C95.563,135.549 95.4,134.256 95.221,132.968 C95.202,132.834 95.295,132.684 95.434,132.211 C96.249,133.206 97.362,133.956 97.447,134.807 C97.58,136.137 97.926,137.344 98.259,138.612 C98.857,140.885 99.953,142.687 102.008,143.874 C102.218,143.995 102.404,144.184 102.556,144.378 C103.48,145.566 104.768,146.511 105.067,148.119 C105.074,148.155 105.122,148.183 105.15,148.215 C106.473,149.664 106.458,150.054 104.99,151.424 C104.773,151.627 104.486,151.75 104.256,151.937 C103.597,152.474 103.439,153.065 103.948,153.837 C104.172,154.174 104.3,154.665 104.266,155.068 C104.094,157.125 103.834,159.174 103.667,161.232 C103.647,161.473 103.962,161.853 104.214,161.969 C104.399,162.053 104.839,161.887 104.98,161.697 C105.247,161.336 105.616,160.816 105.529,160.465 C105.068,158.618 106.208,157.557 107.355,156.521 C108.217,155.746 108.288,154.916 108,153.858 C107.839,153.266 108.052,152.582 108.025,151.942 C107.949,150.098 107.889,148.252 107.717,146.416 C107.64,145.592 107.254,144.801 107.129,143.977 C107.085,143.683 107.396,143.335 107.546,143.011 C107.817,143.274 108.136,143.505 108.346,143.809 C108.56,144.12 108.699,144.494 108.813,144.858 C109.242,146.217 109.666,147.579 110.056,148.949 C110.271,149.711 110.301,150.546 110.623,151.252 C110.938,151.937 110.934,152.417 110.452,152.991 C109.987,153.546 109.513,154.143 109.262,154.804 C109.13,155.149 109.471,155.673 109.599,156.117 C109.996,155.974 110.66,155.925 110.747,155.675 C111.336,153.977 111.833,152.246 112.292,150.506 C112.421,150.019 112.052,149.251 112.943,149.339 C113.121,149.356 113.247,150.214 113.341,150.695 C113.447,151.238 113.49,151.794 113.562,152.343 C114.778,151.238 115.568,150.188 115.387,148.659 C115.327,148.155 115.541,147.377 115.907,147.118 C116.587,146.638 117.471,146.45 118.415,146.084 C118.452,146.283 118.574,146.665 118.584,147.048 C118.611,148.237 118.4,149.467 118.646,150.604 C118.985,152.185 118.122,152.662 116.959,153.115 C116.464,153.308 115.748,153.553 115.617,153.939 C115.308,154.852 114.752,155.161 113.894,155.401 C112.725,155.729 112.573,156.669 113.441,157.485 C113.908,157.924 114.317,158.447 114.842,158.797 C115.36,159.142 116.167,159.671 116.532,159.488 C117.108,159.2 117.471,158.414 117.832,157.786 C118.218,157.113 118.471,156.365 118.835,155.677 C119.089,155.197 119.38,154.715 119.749,154.322 C120.105,153.943 120.541,153.519 121.013,153.404 C121.566,153.269 122.228,153.579 122.785,153.449 C123.289,153.331 124.087,152.908 124.111,152.574 C124.212,151.183 124.157,149.764 123.992,148.376 C123.814,146.88 123.435,145.408 123.183,143.919 C123.146,143.702 123.261,143.363 123.426,143.225 C124.282,142.513 124.246,141.583 124.119,140.635 C123.918,139.121 124.027,137.736 125.419,136.747 C125.64,136.589 125.784,136.269 125.872,135.995 C126.163,135.087 126.483,134.178 126.648,133.245 C126.734,132.759 126.518,132.221 126.438,131.707 C126.051,131.88 125.598,131.976 125.289,132.24 C124.58,132.845 124.142,132.969 123.92,131.848 C123.849,131.492 123.482,131.198 123.272,130.863 C123.091,130.575 122.901,130.283 122.779,129.968 C122.109,128.243 121.468,126.507 120.79,124.786 C120.722,124.611 120.484,124.4 120.313,124.389 C119.887,124.363 119.453,124.443 119.021,124.482 C119.152,124.841 119.209,125.255 119.426,125.551 C120.101,126.468 120.874,127.315 121.521,128.249 C121.685,128.484 121.521,128.946 121.507,129.305 C121.172,129.226 120.787,129.226 120.511,129.053 C119.688,128.539 118.889,127.981 118.117,127.391 C117.647,127.031 117.131,126.651 116.837,126.16 C115.397,123.754 114.026,121.305 112.628,118.874 C111.863,117.545 110.953,116.516 109.285,116.168 C108.165,115.935 107.101,115.251 106.113,114.611 C104.205,113.375 102.392,111.992 100.492,110.742 C99.711,110.229 98.807,109.903 97.905,109.466 C98.158,109.085 98.364,108.775 98.64,108.36 L98.64,108.36 Z M74.378,112.839 C74.693,112.33 75.041,111.838 75.313,111.307 C75.501,110.939 75.597,110.521 75.713,110.12 C75.914,109.425 76.293,108.714 76.255,108.028 C76.119,105.582 76.948,103.603 78.689,101.909 C79.688,100.937 80.738,99.932 81.418,98.744 C81.876,97.943 82.246,97.501 83.125,97.636 C85.919,98.066 88.222,99.41 90.159,101.44 C91.721,103.075 93.516,104.123 95.916,103.943 C96.539,103.897 97.331,104.253 97.821,104.68 C98.847,105.575 99.715,106.649 100.666,107.63 C100.908,107.88 101.22,108.06 101.293,108.116 C102.2,107.365 102.974,106.817 103.632,106.154 C104.371,105.41 105.592,105.056 105.521,103.62 C105.432,101.831 105.482,100.033 105.521,98.239 C105.565,96.146 104.306,94.366 102.195,94.354 C99.68,94.34 97.136,94.677 94.652,95.131 C93.272,95.383 92.002,96.209 90.66,96.718 C90.238,96.878 89.711,96.982 89.286,96.88 C87.938,96.557 86.62,96.329 85.202,96.353 C83.428,96.382 81.648,96.025 79.869,95.847 C78.759,95.735 78.113,96.231 78.155,97.37 C78.243,99.755 76.269,100.836 75.195,102.469 C75.042,102.993 74.861,103.53 74.731,104.079 C74.647,104.433 74.498,104.862 74.621,105.157 C74.989,106.039 74.947,106.539 73.821,106.571 C73.579,106.579 73.164,106.933 73.156,107.14 C73.146,107.396 73.428,107.742 73.677,107.908 C74.033,108.145 74.475,108.254 74.989,108.462 C74.737,108.783 74.646,109.017 74.482,109.088 C73.368,109.572 73.268,110.207 73.964,111.192 C74.277,111.637 74.273,112.307 74.414,112.875 C74.126,112.938 73.756,112.913 73.571,113.086 C73.3,113.34 73.102,113.72 73.002,114.083 C72.97,114.198 73.349,114.427 73.54,114.605 C73.8,114.311 74.121,114.049 74.3,113.712 C74.426,113.474 74.359,113.134 74.378,112.839 L74.378,112.839 Z M84.923,105.152 C85.142,105.47 85.507,106.088 85.557,106.064 C86.595,105.554 87.624,105.011 88.565,104.348 C88.666,104.277 88.215,103.423 88.02,102.933 C87.609,103.186 86.886,103.398 86.846,103.7 C86.682,104.946 85.977,105.269 84.888,105.188 C85.16,104.568 85.392,103.925 85.715,103.332 C86.866,101.218 86.502,100.281 84.248,99.533 C83.409,99.254 82.923,99.475 82.475,100.257 C82.018,101.053 81.331,101.714 80.777,102.459 C80.431,102.924 80.197,103.479 79.823,103.918 C78.624,105.321 78.117,106.875 77.864,108.755 C77.598,110.745 76.431,112.603 75.797,114.564 C75.676,114.941 76.201,115.527 76.428,116.016 C76.746,115.762 77.107,115.545 77.369,115.241 C77.553,115.029 77.525,114.599 77.728,114.445 C78.175,114.108 78.699,113.697 79.208,113.675 C79.587,113.658 80.257,114.159 80.315,114.51 C80.387,114.941 79.964,115.458 79.743,115.933 C79.454,116.554 79.14,117.164 78.865,117.791 C78.696,118.176 78.541,118.576 78.455,118.985 C78.327,119.597 78.266,120.222 78.175,120.842 C78.655,120.589 79.116,120.183 79.62,120.119 C80.537,120.003 81.545,119.882 82.396,120.146 C83.415,120.46 82.98,121.339 82.714,122.089 C82.294,123.271 81.707,124.467 81.634,125.685 C81.463,128.5 81.394,131.354 82.458,134.057 C82.582,134.371 83.019,134.723 83.349,134.766 C85.313,135.025 86.048,135.918 85.815,137.878 C85.761,138.341 85.707,138.817 85.753,139.277 C85.771,139.461 86.05,139.734 86.233,139.754 C86.417,139.773 86.802,139.529 86.803,139.399 C86.809,137.92 86.818,136.435 86.675,134.966 C86.644,134.65 86.037,134.212 85.64,134.139 C83.064,133.673 82.755,130.505 83.851,128.562 C85.133,129.592 85.382,130.918 85.087,132.454 C85.039,132.702 85.313,133.012 85.439,133.294 C85.627,133.056 85.957,132.833 85.979,132.582 C86.073,131.476 86.176,130.355 86.078,129.256 C86.023,128.637 85.734,127.895 85.295,127.481 C83.898,126.168 83.81,124.986 85.192,123.708 C86.51,122.49 86.429,121.181 85.181,119.871 C84.293,118.941 83.346,117.99 83.305,116.503 C83.284,115.735 82.95,114.976 82.765,114.211 C82.665,113.802 82.506,113.392 82.501,112.98 C82.479,111.101 82.516,109.22 82.502,107.34 C82.489,105.537 83.093,104.976 84.923,105.152 L84.923,105.152 Z M17.575,156.065 C17.801,155.485 18.079,154.918 18.227,154.317 C18.297,154.032 18.118,153.684 18.053,153.365 C17.714,153.442 17.255,153.406 17.058,153.616 C16.448,154.266 16.779,155.542 17.609,156.036 C17.414,157.671 16.742,158.4 15.107,158.746 C15.034,159.2 14.96,159.66 14.828,160.478 C14.404,159.94 14.243,159.655 14.008,159.459 C13.741,159.235 13.357,158.899 13.119,158.964 C12.856,159.034 12.668,159.487 12.508,159.804 C11.87,161.063 11.244,162.329 10.643,163.605 C10.499,163.91 10.291,164.435 10.416,164.563 C10.67,164.822 11.126,164.968 11.507,164.988 C11.75,165.001 12.066,164.753 12.252,164.537 C13.315,163.306 14.646,163.077 16.198,163.223 C16.675,163.269 17.527,162.822 17.653,162.424 C17.981,161.392 18.566,161.248 19.494,161.328 C21.234,161.479 21.862,160.592 21.032,159.093 C20.045,157.31 20.139,155.623 21.129,153.897 C21.31,153.584 21.304,153.165 21.389,152.797 C21.553,152.087 21.74,151.382 21.881,150.669 C22.105,149.531 22.646,148.625 23.617,147.956 C23.814,147.82 23.838,147.425 23.931,147.147 C24.168,146.437 24.283,145.657 24.654,145.027 C25.494,143.602 26.588,142.316 27.323,140.845 C27.751,139.991 28.138,138.299 27.758,138.007 C26.532,137.068 24.953,136.579 23.481,135.988 C23.302,135.916 22.838,136.217 22.69,136.459 C22.1,137.428 21.218,137.701 20.171,137.673 C19.106,137.647 18.042,137.625 16.979,137.591 C15.913,137.558 14.693,139.053 15.24,139.833 C15.778,140.598 16.559,141.194 17.233,141.864 C17.345,141.811 17.456,141.757 17.567,141.705 C17.584,141.402 17.634,141.097 17.61,140.798 C17.526,139.73 18.053,139.157 19.001,139.509 C20.017,139.887 20.76,139.457 21.665,139.158 C23.03,138.708 24.146,137.423 25.768,137.821 C26.174,137.921 26.549,138.144 26.938,138.31 C26.662,138.616 26.433,138.988 26.102,139.211 C25.484,139.627 24.809,139.956 24.335,140.22 C24.506,141.078 24.95,141.909 24.702,142.331 C24.021,143.487 23.182,144.631 22.151,145.469 C21.35,146.122 21.101,146.553 21.568,147.465 C21.68,147.683 21.374,148.407 21.239,148.413 C20.379,148.451 20.469,149.015 20.43,149.58 C20.393,150.127 20.35,150.691 20.183,151.207 C19.786,152.435 19.194,153.613 18.916,154.863 C18.726,155.714 18.364,156.046 17.575,156.065 L17.575,156.065 Z M85.963,85.146 C86.031,85.537 86.1,85.927 86.168,86.318 C86.565,86.238 86.992,86.221 87.352,86.058 C87.688,85.905 88.001,85.635 88.229,85.342 C88.381,85.147 88.494,84.736 88.39,84.575 C88.275,84.399 87.842,84.271 87.63,84.348 C87.041,84.564 86.494,84.897 85.931,85.184 C86.208,84.062 86.486,82.94 86.765,81.818 C87.339,81.738 87.913,81.659 88.487,81.58 C88.886,81.524 89.295,81.382 89.683,81.426 C91.313,81.611 92.932,81.958 94.563,82.019 C95.216,82.044 95.696,81.863 95.944,82.651 C96.012,82.863 96.362,83.122 96.587,83.127 C97.807,83.15 97.837,84.009 97.554,84.733 C97.014,86.11 97.291,87.172 98.431,88.016 C98.709,88.222 99.152,88.205 99.521,88.291 C99.487,87.915 99.494,87.529 99.409,87.166 C99.325,86.804 98.937,86.302 99.055,86.147 C99.332,85.785 99.86,85.342 100.237,85.383 C101.209,85.491 102.148,85.866 103.111,86.088 C103.502,86.177 103.921,86.148 104.327,86.172 C104.348,86.009 104.368,85.846 104.39,85.683 C103.136,85.214 102.323,83.834 100.684,84.118 C100.422,84.163 100.092,83.813 99.794,83.646 C100.063,83.415 100.298,83.098 100.609,82.977 C100.904,82.863 101.279,82.933 101.616,82.96 C103.966,83.146 105.593,84.751 107.43,85.939 C107.643,86.077 107.841,86.256 108.001,86.453 C108.638,87.237 108.259,88.302 107.346,88.7 C106.772,88.95 106.308,89.45 105.795,89.838 L106.062,90.225 C106.585,89.986 107.225,89.863 107.607,89.483 C108.258,88.835 108.791,88.977 109.408,89.423 C109.616,89.573 109.83,89.718 110.055,89.841 C111.218,90.478 111.74,90.176 111.732091,88.876 C111.73,88.192 111.706,87.508 111.723,86.824 C111.755,85.497 110.976,84.407 109.673,83.964 C109.48,83.899 109.238,83.787 109.153,83.625 C108.561,82.505 107.959,82.162 106.958,83.296 C106.722,83.563 105.932,83.381 105.407,83.319 C105.299,83.307 105.103,82.791 105.175,82.709 C105.497,82.346 105.869,82 106.288,81.761 C106.575,81.598 106.969,81.624 107.449,81.542 C106.099,80.578 104.653,80.525 103.579,81.477 C102.006,82.871 100.358,83.034 98.66,81.892 C97.502,81.112 96.409,80.206 95.397,79.24 C93.784,77.702 92.851,75.733 92.147,73.64 C91.899,72.901 91.605,72.295 90.53,72.391 C89.73,72.463 88.846,72.177 88.083,71.853 C87.688,71.685 87.428,71.112 87.218,70.669 C87.177,70.583 87.643,70.087 87.892,70.072 C88.337,70.047 88.86,70.14 89.233,70.373 C89.821,70.739 90.312,71.262 90.94,71.802 C91.131,71.399 91.23,71.218 91.304,71.027 C91.716,69.974 91.432,69.017 90.608,68.368 C89.781,67.717 89.53,68.917 88.978,69.066 C88.556,69.179 88.001,68.8 87.506,68.64 C87.653,68.293 87.706,67.813 87.968,67.624 C88.556,67.202 89.128,66.691 88.484,66.107 C87.502,65.216 86.318,64.55 85.23,63.776 C84.815,63.481 84.426,63.152 84.025,62.838 C84.414,62.661 84.824,62.518 85.184,62.295 C85.458,62.124 85.907,61.762 85.862,61.64 C85.74,61.31 85.438,60.905 85.128,60.82 C84.702,60.705 84.197,60.926 83.739,60.877 C83.147,60.813 82.459,60.779 82.007,60.458 C80.693,59.525 80.488,59.529 79.597,61.146 C79.897,61.342 80.223,61.524 80.515,61.748 C81.279,62.332 81.47,63.956 80.872,64.467 C80.557,64.737 80.295,65.069 80.008,65.374 C80.475,65.51 80.946,65.776 81.406,65.758 C82.819,65.7 84.133,65.854 85.111,67.001 C85.361,67.294 85.514,67.684 85.641,68.055 C85.665,68.125 85.271,68.452 85.215,68.418 C84.887,68.223 84.607,67.946 84.299,67.713 C83.963,67.461 83.553,66.967 83.282,67.031 C82.505,67.216 81.781,67.63 81.036,67.953 C81.439,68.291 81.842,68.253 82.14,68.411 C82.496,68.6 82.763,68.958 83.067,69.242 C82.755,69.535 82.486,69.962 82.116,70.084 C81.698,70.222 81.188,70.113 80.722,70.063 C79.973,69.984 79.679,70.294 79.81,71.026 C78.872,70.907 78.403,70.464 78.774,69.62 C78.276,69.183 77.913,68.774 77.468,68.5 C76.99,68.206 76.417,68.072 75.923,67.8 C75.73,67.695 75.591,67.422 75.51,67.196 C74.932,65.58 74.208,65.337 72.676,66.181 C72.18,66.454 71.583,66.54 71.051,66.755 C70.726,66.886 70.356,67.042 70.157,67.302 C70.053,67.439 70.191,67.964 70.365,68.065 C70.654,68.233 71.071,68.278 71.413,68.229 C71.733,68.182 72.014,67.914 72.332,67.797 C73.569,67.346 74.266,67.685 74.892,68.862 C75.045,69.149 75.5,69.355 75.854,69.437 C76.385,69.561 77.15,69.463 76.882,70.289 C76.779,70.603 76.026,70.91 75.599,70.876 C74.457,70.785 72.252,71.901 71.589,73.325 C72.581,73.052 73.484,73.023 74.086,72.582 C74.824,72.04 75.206,72.175 75.653,72.792 C76.197,73.541 76.915,74.148 77.815,73.642 C79.605,72.635 80.022,72.808 79.775,70.99 C82.525,70.96 82.753,71.169 83.553,73.806 C83.67,74.191 84.279,74.456 84.702,74.707 C84.921,74.838 85.23,74.817 85.891,74.933 C85.277,75.401 84.893,75.919 84.621,75.865 C83.375,75.62 82.161,75.214 80.855,74.843 C80.212,75.606 80.184,75.886 80.833,76.151 C83.757,77.343 83.953,77.758 82.972,80.67 C82.628,81.69 82.071,81.756 81.018,81.422 C80.128,81.138 79.107,81.264 78.145,81.209 C78.057,81.312 77.969,81.414 77.881,81.517 C80.546,82.703 79.222,84.265 78.445,85.834 C79.312,85.269 79.92,84.59 80.641,84.065 C81.397,83.512 82.562,83.471 82.743,82.228 C82.77,82.044 83.1,81.753 83.271,81.766 C84.252,81.84 84.947,81.402 85.568,80.707 C85.902,80.333 86.32,80.036 86.701,79.704 C86.285,79.524 85.859,79.363 85.458,79.154 C85.214,79.027 84.94,78.865 84.815,78.642 C84.761,78.547 85.019,78.223 85.191,78.066 C85.377,77.898 85.617,77.769 85.855,77.684 C86.341,77.51 86.841,77.379 87.335,77.23 C87.275,77.697 87.211,78.164 87.16,78.632 C87.151,78.709 87.201,78.791 87.295,79.12 C88.223,78.971 89.182,78.818 90.14,78.664 C89.618,79.378 88.958,79.986 88.18,80.288 C87.379,80.598 86.774,80.894 86.793,81.847 C85.851,81.604 85.391,81.812 84.896,82.844 C84.433,83.816 83.78,85.051 82.335,85.204 C82.099,85.229 81.81,85.483 81.699,85.707 C81.634,85.84 81.82,86.241 81.983,86.309 C82.259,86.424 82.84,86.476 82.885,86.373 C83.523,84.934 84.877,85.387 85.963,85.146 L85.963,85.146 Z M38.16,116.981 C37.877,117.428 37.441,117.845 37.344,118.33 C37.15,119.293 36.908,119.803 35.856,119.14 C35.521,118.929 35.056,118.925 34.477,118.784 C35.586,117.831 34.91,117.229 34.051,116.653 C34.369,116.4 34.59,116.216 34.818,116.044 C35.407,115.6 35.412,115.165 34.837,114.694 C34.15,114.132 33.553,113.564 34.672,112.797 C34.771,112.729 34.633,112.025 34.415,111.839 C33.577,111.122 32.654,110.505 31.781,109.827 C31.6,109.686 31.497,109.443 31.318,109.191 C31.739,108.897 32.092,108.649 32.606,108.289 C32.228,108.172 32.04,108.058 31.858,108.068 C30.13,108.159 30.021,108.05 30.147,106.38 C30.23,105.295 30.174,104.273 30.969,103.269 C31.528,102.562 31.537,101.366 30.657,100.359 C30.401,100.728 30.208,100.943 30.086,101.193 C29.241,102.934 28.4,104.677 27.59,106.434 C27.477,106.68 27.506,107.009 27.529,107.296 C27.542,107.451 27.767,107.609 27.749,107.746 C27.401,110.357 29.869,110.072 31.1,111.066 C31.352,111.27 31.545,111.804 31.464,112.106 C31.327,112.613 30.949,113.056 30.514,113.796 C30,113.12 29.596,112.588 29.162,112.018 C28.116,112.105 25.553,110.709 25.124,109.652 C24.949,109.22 24.896,108.593 25.081,108.19 C25.594,107.073 26.291,106.042 26.86,104.947 C27.331,104.041 27.723,103.094 28.23,101.993 C26.869,101.931 26.365,102.603 25.956,103.334 C25.583,104.001 25.252,104.703 24.999,105.424 C24.63,106.477 23.971,107.146 22.898,107.493 C22.548,107.606 22.291,108.011 21.991,108.283 C22.292,108.521 22.563,108.909 22.896,108.972 C24.193,109.218 22.775,110.489 23.621,110.805 C24.478,111.125 24.797,111.484 24.248,112.402 C23.914,112.961 23.876,113.696 23.705,114.352 C23.555,114.366 23.403,114.38 23.253,114.395 C22.944,113.679 22.652,112.956 22.319,112.252 C22.142,111.876 21.965,111.448 21.663,111.192 C20.392,110.112 20.374,110.133 20.567,108.676 C20.083,109.109 19.577,109.416 19.271,109.86 C18.243,111.358 16.731,110.979 15.318,110.95 C14.643,110.937 14.135,110.605 14.272,109.818 C14.388,109.155 14.618,108.598 15.509,108.663 C16.134,108.708 16.775,108.608 17.403,108.527 C18.478,108.39 18.535,108.26 18.082,107.028 C17.212,107.424 16.332,108.19 15.35,107.309 C14.473,108.513 13.066,108.01 11.945,108.411 C11.765,108.476 11.678,109.151 11.756,109.497 C11.843,109.879 12.169,110.207 12.462,110.67 C11.514,111.068 10.474,111.16 10.354,112.444 C10.28,113.231 10.361,113.561 11.191,113.586 C13.299,113.65 15.303,113.423 17.132,112.193 C17.562,111.903 18.318,112.087 18.924,112.105 C18.968,112.106 19.105,112.67 19.019,112.735 C18.532,113.102 18.016,113.451 17.462,113.702 C16.809,113.998 16.063,114.11 15.448,114.463 C15.219,114.595 15.251,115.18 15.163,115.559 C15.556,115.53 15.983,115.588 16.331,115.447 C16.668,115.31 16.916,114.96 17.217,114.722 C18.137,113.993 19.071,114.11 20.405,114.792 C19.363,115.359 18.577,115.784 17.793,116.213 C16.997,116.65 16.202,117.09 15.248,117.617 C16.27,118.339 17.002,118.451 17.715,117.645 C17.854,117.487 18.027,117.263 18.199,117.249 C18.548,117.218 18.907,117.311 19.263,117.353 C19.185,117.684 19.214,118.114 19.013,118.328 C17.949,119.459 15.38,120.12 13.69,119.705 C14.114,118.159 13.145,118.298 12.086,118.377 C11.285,118.436 10.467,118.315 9.662,118.218 C9.454,118.193 9.271,117.959 9.076,117.821 C9.251,117.613 9.41,117.245 9.604,117.226 C10.278,117.16 10.964,117.236 11.645,117.218 C12.392,117.198 13.402,117.365 13.36,116.234 C13.324,115.264 12.428,115.298 11.676,115.33 C11.12,115.353 10.563,115.35 10.008,115.373 C9.05,115.412 8.377,115.164 8.146,114.062 C8.067,113.681 7.455,113.12 7.128,113.148 C6.557,113.195 6.018,113.634 5.361,113.961 C4.549,113.363 4.813,111.675 6.021,111.045 C7.756,110.141 7.879,109.569 6.961,107.764 C6.608,107.072 6.319,106.243 6.353,105.492 C6.382,104.815 6.758,104.042 7.218,103.519 C7.991,102.64 8.753,101.856 8.88,100.583 C8.932,100.058 9.438,99.562 9.785,99.088 C10.936,97.516 12.15,95.991 13.259,94.391 C14.854,92.092 16.699,90.094 19.108,88.602 C20.656,87.643 22.064,86.46 23.542,85.385 C24.056,85.011 24.585,84.658 25.113,84.303 C25.289,84.185 25.547,84.138 25.657,83.981 C27.396,81.508 30.226,81.038 32.774,80.007 C35.485,78.911 38.287,77.897 40.742,76.358 C42.895,75.008 44.759,73.104 46.482,71.202 C47.416,70.172 47.623,68.516 48.456,67.357 C49.688,65.641 51.168,64.098 52.591,62.526 C52.807,62.289 53.288,62.293 53.732,62.159 C53.841,62.473 53.853,62.784 54.007,62.892 C54.293,63.091 54.661,63.171 54.996,63.3 C55.027,62.976 55.21,62.484 55.065,62.353 C53.96,61.35 54.81,61.03 55.592,60.646 C56.699,60.102 57.793,59.532 58.905,58.999 C59.242,58.837 59.783,58.549 59.952,58.68 C60.998,59.489 61.973,59.459 63.028,58.734 C63.188,58.624 63.561,58.7 63.771,58.812 C65.553,59.755 67.025,58.776 68.574,58.115 C69.607,57.674 70.782,57.511 71.739,56.957 C73.337,56.031 74.906,55.005 76.308,53.81 C77.556,52.744 78.019,51.249 78.21,49.536 C78.353,48.258 78.309,46.532 80.128,45.959 C80.376,45.88 80.637,45.357 80.633,45.042 C80.607,42.867 80.497,40.694 80.461,38.519 C80.456,38.213 80.622,37.77 80.855,37.619 C81.648,37.109 81.638,36.584 81.265,35.778 C80.478,34.081 80.353,32.308 80.534,30.409 C80.634,29.36 79.869,28.226 79.483,27.134 C79.442,27.019 79.331,26.929 79.252,26.829 C78.075,25.336 78.125,25.147 80.257,24.395 C79.664,24.03 79.289,23.604 78.904,23.596 C77.411,23.563 76.189,22.679 76.414,21.227 C76.939,17.834 74.212,16.601 72.417,14.741 C72.189,14.505 71.657,14.347 71.352,14.438 C70.034,14.829 69.133,14.198 68.297,13.348 C68.112,13.16 68.002,12.898 67.858,12.669 C68.149,12.563 68.435,12.417 68.735,12.363 C69.029,12.31 69.34,12.352 69.777,12.352 C69.072,11.43 67.018,10.998 66.145,11.507 C65.065,12.137 64.133,11.958 63.017,11.452 C61.721,10.864 60.359,10.098 58.78,10.756 C58.569,10.844 58.121,10.387 57.795,10.165 C57.347,9.858 56.943,9.338 56.462,9.255 C54.955,8.995 53.428,7.59 53.24,6.095 C53.214,5.883 53.261,5.595 53.141,5.473 C51.787,4.106 52.875,2.89 53.388,1.675 C54.009,0.205 55.47,-0.216 56.736,0.714 C58.171,1.768 59.482,2.998 60.961,3.982 C62.276,4.857 63.559,5.861 65.361,5.726 C67.362,5.577 69.385,5.568 71.388,5.675 C72.319,5.725 73.229,6.193 74.098,6.608 C71.555,8.008 71.287,8.383 71.965,9.669 C72.692,9.119 73.455,8.606 74.142,8.006 C75.138,7.138 76.274,6.995 77.194,7.832 C78.523,9.04 80.032,10.16 80.992,11.627 C81.693,12.699 82.488,13.431 83.492,14.099 C84.223,14.584 84.44,15.291 84.362,16.214 C84.218,17.911 84.256,19.622 84.193,21.326 C84.156,22.355 83.654,22.994 82.588,23.172 C82.271,23.225 81.849,23.382 81.719,23.623 C81.548,23.941 81.618,24.388 81.585,24.779 C81.931,24.795 82.35,24.942 82.607,24.798 C83.198,24.47 83.685,23.956 84.266,23.603 C84.591,23.405 85.049,23.249 85.39,23.326 C85.568,23.367 85.628,23.952 85.728,24.296 C85.75,24.371 85.686,24.472 85.707,24.547 C85.809,24.894 85.899,25.248 86.062,25.565 C86.091,25.622 86.58,25.568 86.612,25.478 C86.749,25.099 86.958,24.627 86.838,24.298 C86.462,23.264 85.954,22.277 85.485,21.277 C85.396,21.086 85.172,20.926 85.154,20.738 C85.118,20.349 85.18,19.95 85.2,19.556 C85.619,19.63 86.181,19.556 86.434,19.801 C87.744,21.068 88.634,22.568 88.693,24.473 C88.708,24.92 88.917,25.365 89.062,25.804 C89.256,26.398 89.466,26.988 89.686,27.574 C89.833,27.966 89.908,28.464 90.192,28.711 C91.285,29.654 91.482,30.838 91.431,32.187 C91.39,33.251 91.618,34.329 91.543,35.388 C91.492,36.098 91.121,36.786 90.593,37.454 C91.13,35.135 89.7,33.409 89.335,31.42 C89.178,31.427 89.02,31.434 88.861,31.442 C88.787,31.949 88.649,32.456 88.647,32.963 C88.637,35.229 88.646,37.495 88.694,39.761 C88.704,40.204 88.824,40.712 89.074,41.059 C89.244,41.294 89.79,41.461 90.057,41.361 C90.293,41.273 90.425,40.788 90.515,40.454 C90.633,40.013 90.529,39.442 90.776,39.127 C90.994,38.849 91.563,38.846 91.977,38.722 C92.021,39.128 92.199,39.577 92.082,39.928 C91.848,40.636 91.376,41.265 91.147,41.974 C90.932,42.644 90.998,43.286 91.771,43.723 C92.475,44.122 92.363,44.7 91.969,45.367 C91.664,45.882 91.416,46.548 91.455,47.125 C91.561,48.666 91.09,49.968 90.281,51.236 C90.063,51.578 89.979,52.254 90.173,52.56 C90.624,53.271 90.497,53.804 90.098,54.445 C89.31,55.707 88.381,56.936 88.786,58.59 C88.83,58.772 88.729,59.01 88.645,59.2 C88.16,60.286 87.661,61.365 87.123,62.543 C88.645,63.324 89.721,64.26 89.807,65.984 C89.822,66.307 90.384,66.713 90.778,66.887 C91.972,67.412 92.358,68.237 92.276,69.535 C92.234,70.208 92.719,70.917 92.98,71.604 C93.552,73.101 93.898,74.752 94.768,76.052 C95.888,77.726 97.302,79.274 98.855,80.553 C99.439,81.035 100.848,80.852 101.74,80.553 C103.245,80.048 104.506,78.808 106.286,79.143 C106.431,79.171 106.613,79.058 106.763,78.981 C109.091,77.781 110.168,78.091 111.502,80.396 C111.8,80.911 112.017,81.476 112.257,82.025 C113.387,84.609 113.693,87.312 113.476,90.107 C113.377,91.367 113.197,92.659 114.217,93.741 C114.46,94 114.457,94.546 114.464,94.961 C114.483,96.159 114.521,97.364 114.42,98.555 C114.301,99.965 114.495,101.152 115.726,102.086 C116.03,102.317 116.164,103.127 116.012,103.533 C115.686,104.397 115.139,105.182 114.65,105.98 C113.993,107.051 114.468,108.68 115.666,109.076 C116.006,109.189 116.704,109.007 116.859,108.741 C117.324,107.94 117.797,107.054 117.907,106.157 C118.072,104.819 117.962,103.442 117.907,102.084 C117.873,101.214 119.015,99.032 119.824,98.875 C120.184,98.805 120.869,99.148 121.021,99.48 C122.702,103.144 125.579,105.805 128.376,108.56 C129.454,109.622 130.259,110.924 130.309,112.571 C130.319,112.927 130.788,113.269 131.046,113.617 C131.313,113.401 131.59,113.199 131.844,112.969 C132.35,112.511 132.842,112.037 133.421,111.495 C132.793,110.649 133.403,110.088 134.073,109.396 C135.006,108.432 135.753,107.29 136.619,106.257 C136.844,105.989 137.337,105.605 137.494,105.686 C138.028,105.962 138.66,106.329 138.901,106.831 C139.392,107.85 139.616,108.992 140.022,110.055 C140.157,110.408 140.453,110.82 140.78,110.958 C142.331,111.611 143.723,113.643 143.719009,115.347 C143.708,120.48 143.71,125.614 143.703,130.747 C143.699,133.735 143.699,136.722 143.677,139.711 C143.667,140.965 141.977,142.81 140.726,142.793 C139.308,142.772 138.831,143.689 138.132,144.679 C137.04,146.226 135.68,147.592 134.341,148.944 C134.155,149.132 133.396,148.895 132.988,148.686 C132.41,148.391 131.593,147.51 131.434,147.629 C130.675,148.192 129.861,148.915 129.531,149.761 C129.173,150.682 128.773,150.961 127.868,150.862 C126.949,150.762 126.743,151.35 126.702,152.152 C126.536,155.395 125.638,156.368 122.897,157.023 C122.284,157.171 121.702,157.447 121.097,157.633 C119.874,158.007 119.415,158.724 119.66,160.053 C119.751,160.549 119.378,161.376 118.952,161.672 C117.983,162.349 116.877,162.856 115.771,163.29 C115.455,163.414 114.885,163.14 114.544,162.894 C114.03,162.522 113.664,161.947 113.151,161.574 C111.565,160.421 109.712,160.452 108.233,161.801 C107.202,162.743 106.279,163.838 105.47,164.978 C104.65,166.134 103.688,166.401 102.805,165.302 C102.343,164.727 102.063,163.857 102.039,163.11 C101.989,161.543 101.866,161.35 100.268,161.415 C99.2,161.458 98.13,161.431 97.061,161.435 C96.975,161.435 96.855,161.464 96.809,161.421 C95.489,160.123 94.262,161.553 92.987,161.559 C92.763,161.56 92.432,161.721 92.334,161.907 C91.922,162.686 91.341,162.64 90.601,162.479 C89.515,162.245 89.11,163.055 88.759,163.88 C88.151,165.305 88.038,165.292 86.732,164.545 C85.457,163.816 84.803,162.688 84.236,161.408 C83.598,159.964 82.859,158.56 82.111,157.167 C81.664,156.333 81.121,155.979 80.184,156.752 C79.405,157.391 78.437,157.74 78.08,158.857 C77.862,159.54 77.292,159.369 76.856,158.938 C76.157,158.246 75.469,157.542 74.775,156.842 C74.246,156.309 74.328,155.839 74.815,155.286 C75.975,153.97 75.591,152.494 74.291,151.399 C73.521,150.752 73.022,149.62 72.732,148.611 C72.436,147.577 70.351,144.745 69.308,144.651 C68.884,144.613 68.324,144.911 67.997,145.23 C67.311,145.898 66.677,145.804 66.084,145.239 C65.485,144.668 65.258,144.002 65.761,143.172 C66.494,141.963 67.356,140.946 68.717,140.407 C70.364,139.755 70.554,138.265 71.012,136.764 C71.529,135.069 72.502,133.466 73.506,131.978 C74.619,130.326 75.693,128.771 75.395,126.622 C75.324,126.119 75.668,125.497 75.964,125.017 C76.646,123.91 76.602,122.401 75.667,121.645 C75.541,121.982 75.506,122.354 75.303,122.557 C74.956,122.904 74.539,123.244 74.088,123.409 C73.287,123.702 72.39,123.754 71.624,124.106 C70.788,124.491 70.412,124.339 70.05,123.51 C69.843,123.039 69.34,122.684 68.935,122.316 C68.688,122.093 68.35,121.973 68.091,121.76 C67.363,121.162 66.655,120.54 65.721,119.739 C66.246,118.932 66.913,117.906 67.607,116.838 L68.592,116.838 C68.343,115.674 68.052,114.59 67.908,113.486 C67.863,113.139 68.143,112.674 68.404,112.379 C69.281,111.387 69.259,111.234 68,110.81 C67.847,110.758 67.708,110.666 67.752,110.688 C67.923,109.602 68.013,108.624 68.255,107.685 C68.354,107.303 68.783,107.006 69.062,106.671 C69.378,106.973 69.741,107.242 69.99,107.592 C70.114,107.767 69.968,108.116 70.059,108.339 C70.156,108.578 70.389,108.762 70.563,108.971 C70.759,108.782 71.064,108.626 71.13,108.4 C71.296,107.831 71.39,107.234 71.444,106.643 C71.524,105.776 70.928,105.652 70.271,105.724 C69.896,105.765 69.534,106.005 69.166,106.006 C68.938,106.007 68.642,105.768 68.511,105.554 C68.445,105.447 68.654,104.995 68.788,104.971 C70.412,104.684 70.096,103.739 69.631,102.689 C69.523,102.445 69.571,102.133 69.542,101.795 L72.053,101.795 C72.066,101.644 72.079,101.494 72.093,101.344 C71.627,101.269 71.146,101.244 70.703,101.101 C70.373,100.994 70.094,100.733 69.792,100.54 C70.04,100.233 70.231,99.784 70.553,99.654 C70.951,99.493 71.456,99.602 71.915,99.581 C72.326,99.562 72.848,99.67 73.123,99.461 C73.598,99.103 74.323,98.231 74.237,98.119 C73.771,97.515 73.145,96.97 72.466,96.608 C71.355,96.015 70.146,95.613 69.022,95.042 C68.858,94.959 68.92,94.386 68.921,94.04 C68.922,93.677 68.975,93.315 68.992,93.108 C68.059,93.555 67.354,94.013 66.581,94.233 C65.583,94.518 65.296,93.929 65.404,93.001 C65.455,92.564 65.516,92.025 65.316,91.679 C64.608,90.453 61.25,89.28 59.57,89.707 C60.484,90.372 61.001,91.102 60.671,92.245 C60.622,92.416 61.654,93.109 62.246,93.209 C63.273,93.38 64.247,93.329 63.572,94.844 C63.508,94.989 63.947,95.504 64.244,95.627 C64.583,95.766 65.023,95.659 65.615,95.659 C65.177,96.729 64.509,96.669 63.828,96.626 C62.358,96.533 62.354,96.557 62.676,97.965 C62.727,98.185 62.704,98.546 62.564,98.664 C61.779,99.332 62.078,100.292 61.824,101.033 C61.169,102.944 62.801,102.987 63.564,103.727 C63.783,103.94 64.174,103.974 64.476,104.087 C64.063,105.88 63.332,106.175 62.05,105.144 C61.885,105.011 61.676,104.79 61.519,104.813 C59.915,105.051 58.581,104.425 57.229,103.682 C56.979,103.546 56.362,104.078 55.916,104.302 C56.312,104.519 56.688,104.8 57.109,104.935 C57.545,105.075 58.089,104.953 58.476,105.155 C59.711,105.802 59.734,106.901 58.62,107.781 C58.185,108.124 57.757,108.494 57.407,108.919 C57.236,109.126 57.253,109.487 57.29,109.911 C58.168,109.152 58.777,108.653 59.211,110.189 C59.324,110.593 60.33,110.835 60.965,110.978 C61.534,111.106 62.166,110.932 62.752,111.018 C63.051,111.062 63.308,111.384 63.584,111.581 C63.306,111.721 63.041,111.924 62.746,111.985 C62.465,112.042 62.131,111.87 61.86,111.945 C61.487,112.048 61.152,112.288 60.801,112.468 C61.099,112.84 61.326,113.354 61.713,113.545 C62.091,113.732 62.632,113.576 63.1,113.596 C64.239,113.643 64.624,114.135 64.136,115.156 C63.814,115.826 63.246,116.394 62.727,116.949 C61.709,118.033 61.734,118.226 62.995,118.953 C63.21,119.078 63.279,119.456 63.416,119.717 C63.118,119.729 62.723,119.869 62.54,119.73 C61.932,119.269 61.44,118.649 60.822,118.204 C60.437,117.926 59.902,117.854 59.435,117.689 C59.6,118.124 59.746,118.567 59.938,118.989 C60.004,119.132 60.235,119.199 60.3,119.342 C60.433,119.635 60.675,120.081 60.562,120.235 C60.38,120.48 59.957,120.592 59.616,120.661 C59.122,120.76 58.609,120.771 58.105,120.819 C58.525,121.248 58.878,121.876 59.386,122.053 C59.924,122.239 60.77,122.213 61.201,121.897 C62.181,121.181 62.809,121.641 63.403,122.297 C63.541,122.449 63.451,123.076 63.267,123.209 C61.712,124.335 61.7,124.313 63.246,125.339 C63.341,125.402 63.381,125.547 63.494,125.728 C62.76,126.504 62.036,126.243 61.444,125.637 C60.899,125.08 60.496,124.385 59.774,123.887 C60.019,124.899 60.263,125.911 60.506,126.923 L60.063,127.235 C59.433,126.627 58.809,126.011 58.169,125.412 C57.827,125.092 57.287,124.473 57.134,124.554 C56.644,124.812 56.136,125.27 55.93,125.771 C55.699,126.336 55.729,127.036 55.77,127.669 C55.786,127.929 56.127,128.168 56.32,128.417 C56.516,128.179 56.817,127.968 56.884,127.698 C57.034,127.087 57.069,126.446 57.151,125.818 C57.338,125.779 57.525,125.74 57.712,125.701 C58.468,127.04 59.225,128.38 59.98,129.719 C59.782,129.891 59.585,130.062 59.387,130.234 C59.27,129.921 59.236,129.455 59.014,129.331 C58.703,129.16 58.252,129.246 57.86,129.222 C57.867,129.599 57.732,130.069 57.907,130.335 C58.346,131.003 58.952,131.557 59.437,132.198 C59.666,132.503 59.772,132.9 59.935,133.255 C59.562,133.345 59.192,133.46 58.814,133.517 C58.541,133.559 58.256,133.526 57.826,133.526 C58.045,134.526 59.105,135.85 56.954,135.832 C57.096,136.385 57.209,136.829 57.32,137.265 C55.514,138.201 55.398,138.418 56.075,139.744 C56.319,139.592 56.541,139.374 56.799,139.317 C57.14,139.243 57.801,139.23 57.817,139.304 C57.924,139.781 58.049,140.657 57.881,140.728 C56.718,141.222 56.813,142.134 56.846,143.102 C56.858,143.483 56.678,143.871 56.434,144.263 C55.728,143.181 54.441,142.452 54.874,140.865 C54.959,140.551 54.594,140.115 54.312,139.432 C53.36,141.006 54.82,143.189 52.359,143.671 C54.337,143.909 55.156,144.983 54.876,146.911 C54.834,147.197 54.611,147.58 54.367,147.692 C52.988,148.329 52.825,148.963 53.732,150.289 C54.349,151.188 54.224,152.044 53.663,152.835 C53.532,152.834 53.402,152.834 53.271,152.834 C53.23,152.443 53.249,152.034 53.134,151.666 C53.006,151.254 52.757,150.879 52.561,150.487 C52.249,150.768 51.931,151.043 51.629,151.335 C51.483,151.476 51.371,151.652 51.212,151.852 C50.798,151.638 50.434,151.451 49.95,151.202 C49.575,152.849 48.138,152.227 47.142,152.581 C46.991,152.633 46.733,152.358 46.517,152.252 C46.027,152.01 45.554,151.659 45.037,151.574 C44.189,151.433 44.066,150.938 44.502,150.438 C45.014,149.849 45.696,149.366 46.389,148.99 C47.274,148.507 47.792,147.989 47.932,146.866 C48.057,145.865 48.771,144.943 49.185,143.969 C49.41,143.436 49.481,142.832 49.739,142.319 C50.646,140.516 50.504,138.572 50.716,136.652 C50.87,135.253 51.712,133.936 52.194,132.564 C52.568,131.499 52.783,130.454 51.904,129.435 C51.599,129.08 51.639,128.423 51.535,127.901 C51.429,127.371 51.432,126.795 51.213,126.318 C51.036,125.932 50.604,125.663 50.283,125.342 C50.016,125.691 49.747,126.039 49.482,126.389 C49.457,126.422 49.463,126.484 49.434,126.506 C47.694,127.801 46.929,130.279 44.396,130.633 C44.072,130.678 43.736,130.985 43.504,131.255 C42.681,132.208 41.991,133.299 41.065,134.132 C40.566,134.581 39.687,134.604 38.982,134.83 C38.377,135.024 37.649,135.085 37.198,135.466 C36.127,136.377 35.262,137.535 34.166,138.408 C33.527,138.917 32.616,139.297 31.81,139.335 C30.423,139.399 28.576,140.672 28.506,142.069 C28.445,143.242 27.93,143.955 26.952,144.514 C25.297,145.461 24.925,147.078 24.932,148.816 C24.936,149.839 25.006,150.762 23.654,151.095 C23.338,151.173 23.011,152.071 23.049,152.564 C23.149,153.853 23.167,155.009 22.035,155.942 C21.793,156.141 21.79,156.806 21.892,157.201 C22.016,157.681 22.35,158.113 22.624,158.547 C23.851,160.492 22.916,162.017 20.612,162.844 C20.105,163.026 19.716,163.515 19.249,163.828 C18.617,164.251 18.011,164.807 17.308,165.006 C16.044,165.366 14.716,165.503 13.415,165.733 C13.163,165.778 12.912,165.872 12.661,165.873 C10.158,165.874 7.656,165.86 5.153,165.851 C5.025,165.85 4.862,165.896 4.774,165.836 C3.983,165.287 3.257,164.355 2.414,164.239 C0.943,164.037 0.981,163.234 0.979,162.184 C0.979,161.849 0.678,161.5 0.473,161.184 C-0.193,160.16 0.018,159.078 0.991,158.405 C1.898,157.777 2.787,157.123 3.664,156.454 C4.331,155.945 4.905,156.084 5.514,156.568 C7.067,157.807 8.951,157.649 10.331,156.19 C10.39,156.129 10.479,156.073 10.498,156 C10.903,154.46 11.443,152.938 11.655,151.372 C11.836,150.032 11.575,148.639 11.633,147.275 C11.66,146.624 11.978,145.985 12.154,145.338 C12.308,144.776 12.509,144.217 12.579,143.643 C12.725,142.465 12.869,141.279 12.867,140.095 C12.867,139.587 12.635,138.85 12.264,138.631 C11.894,138.414 11.023,138.52 10.714,138.828 C9.898,139.638 9.19,139.519 8.3,139.043 C6.619,138.141 4.979,137.017 2.882,137.716 C2.638,137.797 2.291,137.57 1.652,137.389 C2.635,136.758 3.277,136.181 4.031,135.904 C4.972,135.558 5.354,135.084 5.104,134.494 C5.799,133.774 6.248,133.077 6.888,132.714 C7.498,132.37 8.421,132.079 8.995,132.304 C9.604,132.544 9.965,133.418 10.608,134.237 C11.064,134.139 11.738,133.623 11.653,132.751 C11.604,132.226 11.063,131.575 10.565,131.304 C9.665,130.814 9.418,130.361 10.1,129.53 C10.274,129.317 10.349,129.022 10.478,128.747 C10.241,128.666 10.191,128.63 10.164,128.642 C9.507,128.938 8.783,129.565 8.217,129.446 C7.657,129.329 7.3,128.408 6.767,127.938 C6.549,127.745 5.847,127.69 5.807,127.777 C5.63,128.156 5.487,128.64 5.576,129.031 C5.697,129.568 6.678,130.164 5.661,130.571 C4.668,130.969 4.556,130.031 4.372,129.302 C4.272,128.903 3.948,128.567 3.772,128.18 C3.093,126.678 2.411,125.176 1.787,123.651 C1.692,123.419 1.895,123.066 1.959,122.769 C2.338,122.894 2.899,122.906 3.061,123.167 C3.597,124.029 3.993,124.978 4.433,125.9 C5.018,127.127 5.418,127.214 6.39,126.251 C7.164,125.483 7.956,124.72 8.635,123.871 C9.243,123.11 9.778,123.158 10.481,123.686 C11.745,124.637 11.736,124.609 12.45,123.211 C12.569,122.979 13.054,122.698 13.218,122.773 C13.564,122.93 13.872,123.274 14.061,123.616 C14.116,123.718 13.758,124.11 13.528,124.293 C13.228,124.531 12.62,124.653 12.579,124.899 C12.469,125.554 12.444,126.307 12.686,126.899 C12.794,127.163 13.623,127.132 14.478,127.308 C14.302,127.976 14.148,128.753 13.885,129.49 C13.717,129.961 13.333,130.351 13.14,130.816 C12.813,131.602 12.996,132.164 13.964,132.231 C14.007,132.234 14.058,132.234 14.089,132.255 C15.593,133.304 16.852,133.148 17.96,131.605 C18.175,131.306 18.801,131.301 19.317,131.135 C18.98,130.015 18.592,128.901 18.337,127.758 C18.266,127.436 18.494,126.796 18.743,126.696 C19.777,126.283 19.812,125.615 19.711,124.637 C19.631,123.857 19.978,123.03 20.147,122.228 C20.252,121.737 20.378,121.252 20.503,120.766 C20.686,120.052 20.774,119.632 21.862,119.944 C23.304,120.358 24.215,121.895 25.968,121.657 C26.406,121.597 27.172,122.375 27.432,122.932 C27.881,123.898 27.098,124.244 26.299,124.271 C24.589,124.327 23.885,125.87 22.674,126.656 C22.528,126.75 22.599,127.175 22.535,127.756 C23.353,127.027 23.909,126.445 24.557,125.994 C24.84,125.797 25.448,125.696 25.658,125.864 C25.893,126.052 26.001,126.648 25.891,126.974 C25.418,128.38 22.809,130.083 21.146,129.949 C21.319,130.478 21.346,131.048 21.641,131.283 C21.845,131.447 22.454,131.226 22.818,131.047 C24.444,130.245 26.052,129.407 27.655,128.561 C28.594,128.066 29.511,127.529 30.438,127.011 C30.558,127.201 30.677,127.391 30.797,127.58 C30.262,127.925 29.713,128.253 29.194,128.623 C28.882,128.846 28.423,129.111 28.384,129.405 C28.34,129.732 28.617,130.287 28.904,130.422 C29.183,130.552 29.785,130.397 30.012,130.151 C30.571,129.545 31.094,129.567 31.844,129.752 C33.021,130.042 34.166,130.168 35.033,131.248 C35.326,131.612 36.286,131.442 36.646,131.482 C36.85,130.485 36.778,129.507 37.149,129.293 C37.979,128.812 39.021,128.568 39.993,128.506 C40.656,128.463 40.782,129.088 40.324,129.602 C40.073,129.883 39.733,130.093 39.414,130.304 C38.658,130.804 38.167,132.176 38.576,132.918 C38.704,133.15 39.108,133.23 39.387,133.38 C39.48,133.137 39.712,132.847 39.646,132.661 C39.287,131.63 39.923,131.39 40.678,131.406 C41.596,131.426 42.2,131.244 42.527,130.249 C42.645,129.89 43.373,129.738 43.813,129.478 C44.551,129.043 45.33,128.656 45.986,128.121 C46.194,127.95 46.067,127.37 46.094,126.977 C45.736,126.982 45.281,126.847 45.041,127.017 C44.097,127.682 43.519,127.692 43.244,126.397 C43.219,126.28 42.289,126.183 41.902,126.354 C41.253,126.642 40.748,127.271 40.093,127.527 C39.675,127.691 38.98,127.592 38.629,127.324 C38.416,127.161 38.574,126.443 38.649,125.989 C38.724,125.539 39.016,125.106 39.016,124.666 C39.016,123.553 39.577,123.248 40.571,123.354 C42.466,123.555 42.846,123.092 43.078,121.287 C43.166,120.608 44.031,120.028 44.541,119.402 C44.809,119.685 45.261,119.943 45.304,120.255 C45.389,120.877 45.201,121.531 45.225,122.168 C45.233,122.396 45.502,122.763 45.694,122.794 C45.901,122.826 46.337,122.562 46.362,122.382 C46.5,121.437 46.751,120.429 46.552,119.535 C46.354,118.649 46.369,118.063 47.125,117.546 C47.817,117.072 47.895,116.634 47.15,116.051 C46.843,115.81 46.705,115.236 46.658,114.797 C46.465,113.005 46.373,111.201 46.14,109.415 C46.108,109.174 45.393,108.761 45.156,108.852 C43.979,109.301 42.839,109.861 41.729,110.462 C41.533,110.568 41.378,111.217 41.487,111.323 C41.758,111.584 42.216,111.84 42.554,111.792 C42.978,111.731 43.333,111.285 43.764,111.154 C44.076,111.059 44.462,111.206 44.814,111.246 C44.73,111.537 44.731,111.915 44.544,112.104 C43.732,112.923 42.882,113.707 42.013,114.465 C41.053,115.303 40.06,115.414 39.002,114.565 C38.761,114.371 38.338,114.403 37.998,114.332 C37.975,114.684 37.915,115.039 37.938,115.389 C37.972,115.933 38.062,116.473 38.128,117.015 L38.16,116.981 Z" id="Fill-1" fill="#231916" mask="url(#mask-2)"></path>
                </g>
                <path d="M45.1895,153.7288 C44.6515,153.3878 44.3355,153.0858 44.2385,153.1448 C43.8095,153.4048 43.4425,153.7678 43.0535,154.0928 C43.2755,154.2278 43.5385,154.5128 43.7095,154.4658 C44.1315,154.3498 44.5115,154.0818 45.1895,153.7288 M50.3375,158.2098 C49.9785,157.9048 49.6655,157.5548 49.6005,157.5968 C48.8475,158.0768 48.1185,158.5998 47.4365,159.1758 C47.3925,159.2128 47.7955,159.7788 47.9905,160.0988 C48.7255,159.5078 49.4605,158.9158 50.3375,158.2098 M44.5675,156.1078 C43.3255,156.4988 42.9005,157.4418 43.2615,159.1638 C43.3215,159.4478 43.5885,159.7118 43.8205,159.9178 C43.8815,159.9728 44.2935,159.8088 44.3235,159.6908 C44.3965,159.3968 44.4735,158.9308 44.3155,158.7818 C43.5315,158.0398 43.7625,157.3768 44.3175,156.6648 C44.4405,156.5068 44.4685,156.2748 44.5385,156.0738 C45.1245,155.5858 45.7095,155.0988 46.2945,154.6118 C46.1665,154.4818 46.0375,154.3508 45.9075,154.2208 C44.6405,154.0948 44.7855,155.2688 44.5675,156.1078 M48.4635,154.3998 C47.6145,155.2918 46.7475,156.1848 45.9045,157.1008 C45.6265,157.4018 45.2565,157.7458 45.2185,158.1008 C45.1795,158.4608 45.4985,158.8608 45.6605,159.2428 C45.9465,158.9508 46.4895,158.6438 46.4735,158.3688 C46.4055,157.1668 46.9745,156.9638 48.0235,156.9448 C48.4875,156.9358 48.9945,156.4068 49.3835,156.0158 C49.9015,155.4988 50.3125,155.2508 50.7985,156.0208 C50.9525,156.2638 51.1595,156.5718 51.4015,156.6408 C52.6025,156.9858 53.0615,157.6418 52.4645,158.5648 C53.6385,158.3228 54.8325,158.0498 56.0355,157.8328 C57.4555,157.5778 59.0935,155.6698 58.9185,154.2448 C58.6665,152.1788 59.8265,150.5338 60.3915,148.7108 C60.4655,148.4718 60.7315,148.2378 60.7035,148.0288 C60.3785,145.5958 62.0095,143.7998 62.7505,141.7228 C63.2175,140.4128 63.2705,138.8328 64.8155,138.0578 C65.0465,137.9428 64.8705,137.1518 65.0385,136.7368 C65.2195,136.2868 65.5385,135.6228 65.8795,135.5668 C66.4805,135.4698 67.1435,135.7658 67.7805,135.8968 C67.5875,136.4588 67.4205,137.0328 67.1905,137.5798 C67.1165,137.7548 66.8985,137.9288 66.7105,137.9878 C64.7495,138.5938 64.5505,140.2738 64.1655,141.9228 C63.9395,142.8838 63.3345,143.7498 62.9905,144.6928 C62.7525,145.3398 62.6765,146.0458 62.5185,146.7238 C62.3405,147.4858 62.1175,148.2388 61.9745,149.0058 C61.6175,150.9318 60.2355,152.6278 60.7135,154.7428 C60.9515,155.7918 60.6485,156.6558 59.7955,157.3608 C59.2065,157.8488 58.6765,158.4178 58.1585,158.9858 C57.3745,159.8478 56.3935,159.7548 55.4175,159.5618 C54.5305,159.3868 53.9405,159.5808 53.6185,160.4998 C53.0495,162.1218 51.3295,162.2768 50.1455,163.1158 C50.0455,163.1868 49.7455,163.1458 49.6695,163.0508 C48.5115,161.6028 46.5825,162.6258 45.2735,161.6698 C45.1605,161.5878 44.9035,161.5728 44.7905,161.6458 C44.2115,162.0158 43.5885,162.5848 43.0005,161.8418 C42.3305,160.9968 41.4965,160.0718 41.3385,159.0838 C41.1585,157.9538 41.2465,157.0728 39.8225,156.7418 C38.9605,156.5408 39.0355,154.9418 39.8525,154.3918 C40.9075,153.6818 41.9685,152.9808 43.0095,152.2508 C44.0075,151.5518 46.1815,152.1468 46.8435,153.1598 C47.1875,153.6858 47.8905,153.9778 48.4635,154.3998" id="Fill-3" fill="#231916"></path>
                <path d="M5.5762,109.8978 C5.6292,110.0128 5.6942,110.1238 5.7322,110.2428 C5.8842,110.7128 6.0252,111.1858 6.1722,111.6568 C5.5692,111.6358 4.7932,111.8418 4.4032,111.5428 C3.7022,111.0048 3.2332,110.1648 2.4212,109.1398 C2.3142,109.9458 2.0412,110.5638 2.2132,111.0088 C2.5762,111.9488 2.9852,113.0158 3.7112,113.6418 C5.5082,115.1918 6.2632,117.3578 7.3052,119.3218 C7.7672,120.1938 7.5012,121.4758 7.4682,122.5688 C7.4612,122.7618 6.9702,123.0808 6.7002,123.083809 C6.4712,123.0858 6.1812,122.7538 6.0162,122.5048 C5.6592,121.9678 5.3642,121.3898 5.0462,120.8268 C4.8142,120.4178 4.3902,120.0068 4.3912,119.5978 C4.3922,117.6118 2.8082,116.4668 2.0562,114.8918 C1.6852,114.1118 1.5862,113.2048 1.3392,112.3618 C1.1892,111.8538 0.9692,111.3668 0.8232,110.8578 C0.5142,109.7758 0.1332,108.6978 0.0022,107.5928 C-0.0368,107.2638 0.6432,106.5438 1.0222,106.5238 C3.1552,106.4118 5.2842,106.3298 6.8222,108.3688 C7.3672,109.0918 8.3552,109.4798 9.1822,110.0488 C8.4692,111.0418 7.9032,110.7878 7.2492,110.2708 C6.8192,109.9328 6.2782,109.7348 5.7872,109.4748 L5.5762,109.8978 Z" id="Fill-5" fill="#231916"></path>
                <path d="M35.5664,123.4378 C34.2964,123.9858 33.0054,124.6048 31.5674,123.6658 C32.0064,122.5798 32.8534,122.2678 33.8724,122.1298 C34.2264,122.0818 34.5454,121.7778 34.8794,121.5898 C34.5664,121.4028 34.2254,121.2488 33.9474,121.0188 C33.6534,120.7748 33.3504,120.4968 33.1764,120.1678 C32.9454,119.7288 32.8004,119.2348 32.6784,118.7498 C32.2604,117.0728 30.6094,116.8028 29.5054,115.9048 C29.2124,115.6658 28.9794,115.3108 28.8274,114.9608 C28.7814,114.8548 29.1244,114.4138 29.2454,114.4318 C29.6284,114.4858 30.0294,114.6268 30.3534,114.8398 C31.4574,115.5638 32.6434,116.2158 33.5834,117.1188 C34.5694,118.0668 35.6894,118.9578 36.0534,120.4538 C36.2744,121.3588 36.8394,122.1808 37.2444,123.0428 C37.5214,123.6348 37.7884,124.2318 38.0594,124.8268 C37.7594,124.9408 37.4664,125.1318 37.1614,125.1538 C36.2244,125.2238 35.9144,124.6148 35.8144,123.8068 C35.8004,123.6968 35.6794,123.5998 35.5664,123.4378" id="Fill-7" fill="#231916"></path>
                <path d="M41.1279,117.7938 C42.2179,117.5138 43.3009,117.1998 44.4019,116.9778 C44.6829,116.9208 45.1609,117.0618 45.3119,117.2768 C46.0789,118.3798 46.9119,117.9028 47.7679,117.4698 C47.8399,117.5478 47.9129,117.6268 47.9859,117.7058 C47.2109,118.3738 46.4499,119.0608 45.6549,119.7048 C45.2119,120.0638 44.7129,120.3528 44.2389,120.6738 C44.5389,121.0718 44.8399,121.4688 45.2779,122.0488 C44.8189,122.3568 44.3539,122.8178 43.7989,122.9868 C43.4759,123.0858 42.7489,122.8108 42.6509,122.5408 C42.0809,120.9728 41.6439,119.3568 41.1609,117.7588 C41.1599,117.7598 41.1279,117.7938 41.1279,117.7938" id="Fill-9" fill="#231916"></path>
                <path d="M68.916,122.4085 C70.524,123.1725 70.542,123.8385 69.797,125.5095 C69.139,126.9845 68.976,128.6895 68.684,130.3085 C68.633,130.5935 69.107,130.9365 69.199,131.2895 C69.327,131.7845 69.416,132.3255 69.353,132.8245 C69.28,133.3965 69.05,133.9555 68.833,134.4985 C68.738,134.7365 68.509,134.9215 68.34,135.1295 C68.177,134.9145 67.929,134.7205 67.867,134.4785 C67.764,134.0705 67.752,133.6325 67.748,133.2055 C67.732,131.5925 67.735,129.9775 67.7339972,128.3645 C67.7339972,128.1935 67.733,128.0185 67.769,127.8525 C68.143,126.0565 68.524,124.2625 68.916,122.4085" id="Fill-11" fill="#231916"></path>
                <path d="M65.2295,107.1341 C65.9625,107.8971 66.6975,108.5471 67.2555,109.3241 C67.3915,109.5131 67.0585,110.2991 66.7475,110.4841 C66.3875,110.6991 65.7755,110.6731 65.3395,110.5361 C64.6675,110.3261 64.0685,109.8951 63.4105,109.6291 C62.6645,109.3271 62.5955,108.8211 63.1115,108.3701 C63.6355,107.9131 64.3255,107.6471 65.2295,107.1341" id="Fill-13" fill="#231916"></path>
                <path d="M39.6787,125.2513 C39.7907,125.4783 40.0367,125.7363 39.9917,125.9273 C39.7427,127.0013 39.4927,128.0863 39.0947,129.1103 C38.9297,129.5353 38.4457,129.9303 38.0107,130.1253 C37.6747,130.2753 37.1897,130.0913 36.7707,130.0563 C36.9247,129.5803 37.0037,129.0563 37.2627,128.6453 C37.4147,128.4023 37.8547,128.3423 38.1607,128.1943 C38.7517,127.9083 38.8577,127.5613 38.6747,126.8623 C38.5497,126.3863 39.0087,125.7563 39.2057,125.1953 C39.3647,125.2133 39.5217,125.2323 39.6787,125.2513" id="Fill-15" fill="#231916"></path>
                <path d="M31.6152,125.5057 C31.9022,125.4017 32.1832,125.2327 32.4762,125.2087 C33.3602,125.1357 34.2492,125.0897 35.1352,125.1007 C35.4342,125.1047 35.8962,125.2277 35.9992,125.4367 C36.2402,125.9317 36.3092,126.5097 36.4492,127.0547 C35.9512,126.9017 35.4562,126.7377 34.9552,126.5977 C34.3692,126.4347 33.7832,126.2637 33.1882,126.1477 C32.6732,126.0477 32.1422,126.0197 31.6192,125.9607 C31.6182,125.8087 31.6162,125.6567 31.6152,125.5057" id="Fill-17" fill="#231916"></path>
                <path d="M15.1143,120.472 C14.8833,121.319 14.7873,122.108 14.4303,122.752 C14.2973,122.993 13.5203,123.023 13.1113,122.901 C12.9253,122.846 12.7443,122.119 12.8653,121.82 C13.0973,121.244 13.5103,120.723 13.9243,120.246 C14.0773,120.07 14.4593,119.995 14.7123,120.035 C14.8883,120.063 15.0223,120.364 15.1143,120.472" id="Fill-19" fill="#231916"></path>
                <path d="M70.3809,103.8069 C70.1349,102.6269 69.8919,101.8299 69.8549,101.0239 C69.8449,100.8249 70.5679,100.3509 70.8499,100.4219 C71.9599,100.7009 72.1929,101.7739 71.4169,102.6369 C71.1479,102.9359 70.8819,103.2409 70.3809,103.8069" id="Fill-21" fill="#231916"></path>
                <path d="M11.9912,120.5374 C11.8012,121.4744 11.6102,122.4104 11.4202,123.3474 C11.2182,123.3504 11.0162,123.3524 10.8152,123.3544 C10.5922,122.6344 10.2022,121.9104 10.2192,121.1954 C10.2262,120.8634 11.0232,120.5494 11.4622,120.2264 C11.6382,120.3294 11.8152,120.4334 11.9912,120.5374" id="Fill-23" fill="#231916"></path>
                <path d="M22.1475,121.369 C22.0015,121.595 21.8855,121.765 21.7775,121.939 C21.4845,122.412 21.2025,122.893 20.8985,123.36 C20.7475,123.591 20.5945,123.881 20.3705,123.984 C20.2255,124.051 19.8095,123.871 19.7595,123.72 C19.6645,123.435 19.6335,123.027 19.7735,122.784 C20.1255,122.173 20.5635,121.606 21.0165,121.062 C21.1475,120.905 21.4705,120.781 21.6555,120.83 C21.8435,120.881 21.9705,121.162 22.1475,121.369" id="Fill-25" fill="#231916"></path>
                <path d="M40.3008,121.9647 C39.6138,122.4347 39.1798,122.8817 38.6648,123.0177 C38.4258,123.0807 38.0278,122.5367 37.7018,122.2687 C38.2668,121.9047 38.8158,121.5097 39.4118,121.2117 C39.5088,121.1637 39.8208,121.5477 40.3008,121.9647" id="Fill-27" fill="#231916"></path>
                <path d="M8.5908,133.0706 C7.8458,133.0706 7.0848,133.1576 6.3618,133.0306 C6.0448,132.9746 5.7548,132.5116 5.5538,132.1746 C5.4828,132.0536 5.7288,131.5636 5.7958,131.5706 C6.1478,131.6076 6.5028,131.7166 6.8288,131.8616 C7.4288,132.1306 8.0098,132.4426 8.5998,132.7366 L8.5908,133.0706 Z" id="Fill-29" fill="#231916"></path>
                <path d="M7.9082,123.6854 C8.4382,123.2584 8.7792,122.7734 9.1192,122.774398 C9.4092,122.7754 9.9962,123.4464 9.9292,123.6254 C9.7612,124.0744 9.2962,124.4134 8.9512,124.7954 C8.6682,124.4944 8.3852,124.1934 7.9082,123.6854" id="Fill-31" fill="#231916"></path>
                <path d="M74.2236,99.9891 C73.8436,99.5431 73.5706,99.2221 73.2956,98.9001 C73.5886,98.7091 73.9126,98.3281 74.1686,98.3701 C74.5486,98.4321 74.8796,98.7921 75.2316,99.0261 C74.9486,99.2971 74.6646,99.5681 74.2236,99.9891" id="Fill-33" fill="#231916"></path>
                <path d="M46.6162,115.3978 C47.0452,115.1778 47.4742,114.9568 47.9032,114.7368 C48.0092,114.9748 48.2252,115.4088 48.2032,115.4218 C47.7882,115.6588 47.3442,115.8448 46.9052,116.0418 C46.8082,115.8268 46.7132,115.6118 46.6162,115.3978" id="Fill-35" fill="#231916"></path>
                <path d="M101.6592,120.2732 C101.3642,120.9702 101.1362,121.5642 100.8652,122.1382 C100.2682,123.4052 100.5402,124.0222 101.8062,124.4852 C102.2392,124.6442 102.7972,124.9692 102.9082,125.3352 C102.9942,125.6192 102.4552,126.0772 102.2262,126.4762 C102.0942,126.7062 101.9282,126.9812 101.9462,127.2242 C102.0472,128.5322 102.4482,129.8692 102.2842,131.1372 C101.9052,134.0642 103.1612,136.2012 105.1552,138.0572 C106.0792,138.9162 106.0432,139.6532 105.0782,140.3522 C104.6992,140.6252 104.1192,140.9522 103.7692,140.8362 C103.4672,140.7352 103.3582,140.0452 103.1652,139.6142 C102.6542,138.4742 102.1522,137.3302 101.6292,136.1952 C101.5082,135.9342 101.1232,135.5982 101.1902,135.475202 C102.1032,133.7962 100.0072,132.6052 100.5002,131.0182 C99.1382,129.3222 100.0162,127.6002 100.3152,125.8222 C100.4992,124.7302 100.0622,123.5472 100.0252,122.4002 C99.9992,121.6082 100.1282,120.7972 100.2982,120.0192 C100.3482,119.7842 100.8652,119.4202 100.9992,119.4822 C101.2742,119.6102 101.4372,119.9842 101.6592,120.2732" id="Fill-37" fill="#231916"></path>
                <path d="M107.6338,142.8626 C107.4408,142.2206 107.2898,141.5626 107.0438,140.9426 C106.5458,139.6916 106.4058,138.4736 107.1248,137.2566 C107.2528,137.0406 107.4398,136.7586 107.3918,136.5576 C107.1228,135.4346 106.7858,134.3296 106.4838,133.2146 C106.2668,132.4156 105.9728,131.6226 105.8838,130.8086 C105.7788,129.8376 105.9108,128.8416 105.8408,127.8636 C105.6798,125.6146 106.7708,123.7116 107.5188,121.7236 C107.6438,121.3926 108.3238,121.2696 108.7488,121.0506 C108.8178,121.5356 109.0558,122.0736 108.9248,122.4976 C108.2858,124.5736 107.2818,126.5636 107.7218,128.8506 C107.7818,129.1626 107.7668,129.6126 107.5838,129.8266 C106.7178,130.8376 107.1698,131.4196 108.1448,131.9006 C108.9448,132.2956 109.2308,132.7226 108.3158,133.3656 C108.0768,133.5326 107.8398,134.0246 107.9168,134.2666 C108.8988,137.3416 108.3878,140.4976 108.4558,143.6186 C108.4608,143.8276 108.1428,144.0436 107.9748,144.2556 C107.7878,144.0186 107.5518,143.8036 107.4328,143.5376 C107.3568,143.3676 107.4548,143.1206 107.4758,142.9086 C107.5288,142.8926 107.5808,142.8786 107.6338,142.8626" id="Fill-39" fill="#231916"></path>
                <path d="M97.8936,121.0174 C97.8936,119.8654 97.6656,118.6544 97.9446,117.5744 C98.4216,115.7164 99.1876,113.9274 99.9256,112.1484 C99.9906,111.9944 100.8996,111.9504 101.1686,112.1654 C102.0886,112.9004 101.8196,114.0004 100.9256,114.7694 C100.3576,115.2594 100.0466,116.0994 99.7456,116.8334 C99.4636,117.5174 99.3306,118.2634 99.1646,118.9904 C99.0466,119.5124 98.9056,120.0484 98.9146,120.5764 C98.9376,121.9794 99.0846,123.3814 99.0726,124.7834 C99.0696,125.1314 98.6466,125.4754 98.4156,125.8214 C98.2106,125.4574 97.8516,125.1024 97.8286,124.7264 C97.7526,123.4944 97.7996,122.2544 97.7996,121.0174 C97.8316,121.0174 97.8626,121.0174 97.8936,121.0174" id="Fill-41" fill="#231916"></path>
                <path d="M124.2852,139.2943 C124.6512,140.2763 125.2362,141.2383 125.3372,142.2473 C125.5342,144.2353 125.6732,146.2753 125.4292,148.2433 C125.2712,149.5113 124.4342,150.7123 123.7962,151.8863 C123.6732,152.1123 123.0562,152.0703 122.6682,152.1513 C122.7332,151.7443 122.7582,151.3243 122.8742,150.9323 C123.0722,150.2673 123.5162,149.6223 123.5292,148.9623 C123.5782,146.2343 123.4912,143.5053 123.4852,140.7753 C123.4842,140.3183 123.6362,139.8593 123.7172,139.4013 C123.9062,139.3653 124.0962,139.3303 124.2852,139.2943" id="Fill-43" fill="#231916"></path>
                <path d="M120.0567,135.5833 C121.6567,136.2303 121.8777,136.5543 121.8197,138.4443 C121.7657,140.2113 122.1627,142.0583 120.9847,143.6303 C120.7067,144.0013 120.3367,144.3513 119.9307,144.5503 C119.7797,144.6243 119.1997,144.2673 119.1727,144.0613 C119.1197,143.6513 119.2917,143.2043 119.4147,142.7853 C119.6107,142.1203 119.9947,141.4743 120.0277,140.8073 C120.1157,139.0353 120.0567,137.2573 120.0567,135.5833" id="Fill-45" fill="#231916"></path>
                <path d="M116.7158,139.7571 C116.4478,140.3321 116.1808,140.9061 115.9138,141.4821 C115.7318,140.8881 115.5808,140.2821 115.3578,139.7041 C115.0878,139.0071 114.7318,138.3431 114.4578,137.6471 C114.1948,136.9731 113.9028,136.2911 113.7838,135.5861 C113.6648,134.8831 113.7148,134.1451 113.7528,133.4251 C113.7688,133.1191 113.9038,132.5981 114.0578,132.5691 C114.3778,132.5111 114.9088,132.6071 115.0608,132.8341 C115.3698,133.3021 115.6398,133.8941 115.6518,134.4411 C115.6768,135.6521 115.3148,136.8591 116.3818,137.9151 C116.6758,138.2061 116.4268,139.0481 116.4268,139.6371 C116.5228,139.6771 116.6188,139.7171 116.7158,139.7571" id="Fill-47" fill="#231916"></path>
                <path d="M112.7002,139.8177 C113.7702,140.5167 114.1762,141.4767 114.0122,142.6197 C113.9762,142.8597 113.6142,143.0897 113.3522,143.2317 C113.2882,143.2667 112.8942,142.9497 112.8772,142.7717 C112.7792,141.7917 112.7522,140.8027 112.7002,139.8177" id="Fill-49" fill="#231916"></path>
                <path d="M96.2832,78.4383 C95.5982,78.7193 95.1592,79.0383 95.0092,78.9353 C94.5372,78.6113 94.1732,78.1293 93.7672,77.7083 C93.9802,77.5213 94.3002,77.1333 94.3892,77.1803 C94.9462,77.4743 95.4502,77.8653 96.2832,78.4383" id="Fill-51" fill="#231916"></path>
                <path d="M93.5576,75.66 C93.0506,75.566 92.5426,75.472 92.0366,75.378 C92.1006,75.16 92.1806,74.749 92.2266,74.753 C92.7266,74.794 93.2226,74.901 93.7186,74.99 C93.6646,75.213 93.6116,75.436 93.5576,75.66" id="Fill-53" fill="#231916"></path>
            </g>
        </g>
    </g>
</svg>