<?xml version="1.0" encoding="UTF-8"?>
<svg width="122px" height="213px" viewBox="0 0 122 213" version="1.1" xmlns="http://www.w3.org/2000/svg" xmlns:xlink="http://www.w3.org/1999/xlink">
    <!-- Generator: Sketch 60 (88103) - https://sketch.com -->
    <title>figure59</title>
    <desc>Created with Sketch.</desc>
    <defs>
        <polygon id="path-1" points="0.871879028 0.448 70.0009735 0.448 70.0009735 212.999874 0.871879028 212.999874"></polygon>
        <polygon id="path-3" points="0 0.672657411 37.3233715 0.672657411 37.3233715 55.5365727 0 55.5365727"></polygon>
    </defs>
    <g id="页面-1" stroke="none" stroke-width="1" fill="none" fill-rule="evenodd">
        <g id="29-44" transform="translate(-1131.000000, -732.000000)">
            <g id="figure59" transform="translate(1131.000000, 731.000000)">
                <g id="编组" transform="translate(36.000000, 0.552000)">
                    <mask id="mask-2" fill="white">
                        <use xlink:href="#path-1"></use>
                    </mask>
                    <g id="Clip-2"></g>
                    <path d="M47.6427,80.7935 C47.5277,80.5735 47.4127,80.3535 47.2967,80.1335 C46.8557,80.3505 46.3707,80.5135 46.0027,80.8195 C45.9027,80.9025 46.1587,81.4135 46.2497,81.7285 C46.7137,81.4165 47.1787,81.1055 47.6427,80.7935 L47.6427,80.7935 Z M49.7717,56.2785 C49.5957,56.3475 49.4187,56.4165 49.2437,56.4855 C49.3387,56.9425 49.3037,57.5205 49.5757,57.8175 C49.7847,58.0465 50.3787,57.9225 51.2017,57.9875 C50.5297,57.1845 50.1507,56.7315 49.7717,56.2785 L49.7717,56.2785 Z M51.9367,53.0265 L51.4097,53.2105 C51.4847,53.6855 51.4177,54.2775 51.6817,54.5985 C51.8707,54.8285 52.5017,54.6945 53.3457,54.7495 C52.6837,53.9395 52.3097,53.4835 51.9367,53.0265 L51.9367,53.0265 Z M55.0527,46.3105 C54.9387,46.5325 54.8257,46.7545 54.7107,46.9765 C55.2227,47.3035 55.7347,47.6295 56.2467,47.9565 C56.3367,47.6355 56.5857,47.0975 56.4937,47.0305 C56.0657,46.7185 55.5417,46.5375 55.0527,46.3105 L55.0527,46.3105 Z M48.4407,62.3545 C48.5817,62.2895 48.7247,62.2255 48.8667,62.1615 C48.8327,61.7325 48.9587,61.1305 48.7277,60.9185 C48.4237,60.6415 47.8387,60.6725 47.3747,60.5715 L47.1407,60.9945 C47.5747,61.4475 48.0077,61.9005 48.4407,62.3545 L48.4407,62.3545 Z M36.7097,75.0975 L36.2527,75.0785 L36.2527,77.5085 C36.4057,77.5095 36.5577,77.5115 36.7097,77.5125 L36.7097,75.0975 Z M45.4357,72.8965 C45.3087,72.8975 45.1817,72.8995 45.0547,72.9015 L45.0547,76.2445 C45.1817,76.2425 45.3087,76.2405 45.4357,76.2395 L45.4357,72.8965 Z M31.8577,79.5795 L32.3407,79.6725 C32.4477,79.1545 32.6407,78.6345 32.6287,78.1185 C32.6217,77.7545 32.3357,77.3975 32.1737,77.0375 L31.8577,77.1735 L31.8577,79.5795 Z M43.2057,82.6975 C42.1847,81.3115 41.7837,81.1335 40.7347,81.5995 C41.5737,83.1395 42.1017,83.3745 43.2057,82.6975 L43.2057,82.6975 Z M26.5237,197.0055 C27.1987,198.5375 27.8717,198.8995 29.0727,198.3435 C28.3897,197.5445 27.9147,196.4985 26.5237,197.0055 L26.5237,197.0055 Z M49.4077,26.9915 L49.4077,31.8345 C50.2627,30.3725 50.2337,27.9165 49.4077,26.9915 L49.4077,26.9915 Z M47.4137,54.7815 C47.0397,53.2835 46.7577,52.1495 46.4767,51.0155 C46.3547,51.0185 46.2337,51.0225 46.1127,51.0255 C45.7817,52.1225 45.8677,53.2795 46.1607,54.3875 C46.2207,54.6175 46.9917,54.6595 47.4137,54.7815 L47.4137,54.7815 Z M29.1467,52.9805 C28.2797,54.1055 28.2497,57.1445 29.1467,57.9545 L29.1467,52.9805 Z M39.6217,63.4085 C40.8327,63.9725 41.3377,62.9035 41.9597,62.3285 C42.2787,62.0345 42.2677,61.3845 42.4067,60.8965 C42.2857,60.8555 42.1637,60.8135 42.0417,60.7725 C41.2537,61.6305 40.4657,62.4885 39.6217,63.4085 L39.6217,63.4085 Z M35.8317,72.8275 C35.6947,72.7715 35.5577,72.7145 35.4197,72.6585 C34.6767,73.3425 33.9147,74.0075 33.2187,74.7355 C33.1377,74.8205 33.4187,75.2525 33.5327,75.5235 C34.2347,75.0935 35.0127,74.7445 35.6047,74.1945 C35.8717,73.9445 35.7677,73.2955 35.8317,72.8275 L35.8317,72.8275 Z M32.0197,64.3845 C32.1517,64.3715 32.2837,64.3585 32.4147,64.3455 L32.4147,60.4585 C31.6487,61.1645 31.2147,61.5645 30.8727,61.8795 C31.3097,62.8325 31.6647,63.6085 32.0197,64.3845 L32.0197,64.3845 Z M33.1697,96.6775 C33.1647,96.7985 33.1607,96.9195 33.1557,97.0405 C34.3807,97.6485 37.0497,97.5345 37.8727,96.6775 L33.1697,96.6775 Z M27.7387,85.5025 C28.2457,85.2425 29.1377,85.0195 29.1587,84.7335 C29.2887,82.9305 29.2237,81.1125 29.2237,78.9345 C27.9357,80.0325 28.5937,81.1425 28.4097,82.0675 C28.2077,83.0815 28.0127,84.0965 27.7387,85.5025 L27.7387,85.5025 Z M47.1207,78.4705 C47.2247,78.4765 47.3307,78.4805 47.4357,78.4865 C47.5577,78.2805 47.7867,78.0755 47.7877,77.8695 C47.7997,76.0195 47.8847,74.1575 47.6967,72.3245 C47.6267,71.6525 46.8827,71.0505 46.4467,70.4175 C46.2377,70.5225 46.0277,70.6275 45.8187,70.7325 C45.9637,71.2235 46.0827,71.7235 46.2597,72.2025 C46.5067,72.8745 46.9607,73.5145 47.0297,74.1975 C47.1317,75.2195 46.9557,76.2665 46.9427,77.3035 C46.9377,77.6915 47.0567,78.0815 47.1207,78.4705 L47.1207,78.4705 Z M35.7337,108.5535 C35.4457,108.6695 35.2337,108.6895 35.1317,108.8055 C34.3087,109.7535 33.4887,110.0215 32.5537,108.9305 C32.4487,108.8065 32.0917,108.8985 31.8517,108.8905 C31.8457,109.2285 31.6997,109.6765 31.8617,109.8845 C32.4197,110.6025 32.8907,111.5745 34.0607,111.3635 C35.0397,111.1865 35.8327,109.8805 35.7337,108.5535 L35.7337,108.5535 Z M45.0237,127.5235 C45.1747,127.5205 45.3257,127.5165 45.4767,127.5125 L45.4767,116.4965 C45.3257,116.4975 45.1747,116.4995 45.0237,116.5005 L45.0237,127.5235 Z M40.8797,6.5495 C41.3337,5.8595 41.5967,5.0455 42.1417,4.7465 C42.7187,4.4295 43.5657,4.6025 44.3687,4.5565 C43.4307,2.5835 42.4727,2.3545 41.1777,3.6255 C40.9207,3.8775 40.6617,4.1275 40.4047,4.3805 C39.2817,5.4865 39.3577,5.7955 40.8797,6.5495 L40.8797,6.5495 Z M47.1197,48.9675 C47.2667,49.0205 47.4137,49.0735 47.5597,49.1265 C47.7737,48.5555 47.8427,47.8475 48.2287,47.4405 C49.2717,46.3445 48.8037,45.0555 48.8397,43.8425 C48.8467,43.6205 48.3187,43.2155 48.0217,43.1995 C47.7317,43.1835 47.1677,43.5485 47.1597,43.7645 C47.0877,45.4965 47.1197,47.2325 47.1197,48.9675 L47.1197,48.9675 Z M30.7757,60.0415 C31.7747,59.5705 32.5737,59.1945 33.1377,58.9275 C32.9337,57.8845 32.7877,56.8725 32.5127,55.8965 C32.4287,55.5965 32.0107,55.2225 31.7167,55.1945 C31.4217,55.1665 30.8297,55.5145 30.8177,55.7235 C30.7367,57.1345 30.7757,58.5535 30.7757,60.0415 L30.7757,60.0415 Z M36.4547,99.7945 C36.2217,100.2815 36.0097,100.5125 36.0287,100.7235 C36.1177,101.7465 35.9287,102.5785 35.2327,103.4495 C34.8317,103.9495 35.0617,104.9555 35.0087,105.7325 C35.1287,105.8695 35.2497,106.0065 35.3717,106.1435 C36.1217,104.4375 36.9767,105.5235 37.8407,105.7635 C37.3857,103.8065 36.9567,101.9605 36.4547,99.7945 L36.4547,99.7945 Z M27.5617,77.4105 C28.6877,76.9735 29.2357,76.2985 29.2347,75.1415 C29.2317,72.5145 29.3337,69.8875 29.3657,67.2595 C29.3697,66.9225 29.2017,66.5835 29.1127,66.2455 C28.9827,66.2495 28.8527,66.2525 28.7227,66.2565 C28.6407,66.5705 28.4967,66.8825 28.4887,67.1985 C28.4467,68.7845 28.4627,70.3725 28.4057,71.9575 C28.3887,72.4335 28.3537,73.0565 28.0617,73.3505 C26.8107,74.6085 27.6087,76.0295 27.5617,77.4105 L27.5617,77.4105 Z M44.3027,61.8295 C42.2777,62.6745 42.5627,64.4155 42.7087,65.9305 C42.7727,66.5935 43.5667,67.1865 44.0167,67.7935 C44.6367,66.7555 45.1657,66.0585 45.4947,65.2765 C46.0917,63.8515 45.3867,62.7825 44.3027,61.8295 L44.3027,61.8295 Z M40.6237,97.8765 C42.2297,100.1615 42.7527,99.5825 44.2137,98.2725 C45.1437,97.4385 45.9717,96.4915 46.8377,95.5865 C47.0917,95.3215 47.3187,95.0295 47.5577,94.7505 C47.4787,94.6165 47.3987,94.4815 47.3197,94.3475 C46.8317,94.5205 46.3307,94.6645 45.8607,94.8745 C45.4717,95.0475 45.0817,95.5295 44.7547,95.4795 C42.6897,95.1565 41.8947,96.8205 40.6237,97.8765 L40.6237,97.8765 Z M39.0527,64.0425 C37.6717,64.8715 36.4567,65.5985 35.2467,66.3345 C35.1767,66.3755 35.1037,66.4795 35.1037,66.5545 C35.0937,67.6385 35.0967,68.7225 35.0967,70.0115 C35.5517,69.7435 35.8067,69.6545 35.9777,69.4815 C36.6787,68.7705 37.3987,68.7075 38.0757,69.4545 C38.5987,70.0325 38.9717,69.8305 39.4157,69.3805 C39.8737,68.9185 40.1697,68.5775 39.5467,67.9355 C39.2037,67.5805 39.1287,66.8975 39.0717,66.3485 C38.9957,65.6175 39.0527,64.8725 39.0527,64.0425 L39.0527,64.0425 Z M42.2427,69.4395 C42.0857,69.4665 41.9297,69.4945 41.7737,69.5225 C41.2297,70.2775 41.1957,71.2855 41.7787,71.8975 C42.8027,72.9745 42.7577,74.1945 42.6847,75.4425 C42.6597,75.8805 42.2357,76.2945 41.9937,76.7205 C41.7327,76.2655 41.3977,75.8345 41.2337,75.3465 C41.0797,74.8915 41.1067,74.3755 41.0547,73.8865 C40.9057,73.9135 40.7557,73.9415 40.6077,73.9685 C39.9477,76.0265 40.9257,77.7235 41.9457,79.4045 C43.6257,78.7055 43.6547,78.7335 43.7047,80.6965 C43.7127,81.0505 43.8477,81.4015 43.9707,81.9645 C44.6087,80.9145 44.9197,77.6655 44.3317,77.2135 C42.9557,76.1525 43.6207,74.7385 43.3767,73.4755 C43.1147,72.1075 42.6297,70.7825 42.2427,69.4395 L42.2427,69.4395 Z M53.7677,201.6665 C54.7317,202.6265 55.3757,203.5875 53.8637,204.6575 C53.6377,204.8165 53.6517,205.5085 53.7707,205.8865 C53.8347,206.0905 54.4427,206.3345 54.6507,206.2345 C54.9807,206.0775 55.1697,205.6385 55.4417,205.3375 C55.8137,204.9255 56.1727,204.4895 56.6007,204.1425 C56.9297,203.8765 57.4117,203.7945 57.7287,203.5195 C58.5127,202.8375 59.1917,202.0275 60.0097,201.3965 C60.5157,201.0055 61.2007,200.8485 62.1567,200.4345 C61.5087,200.2295 61.2727,200.0885 61.0377,200.089495 C59.4527,200.0965 57.8647,200.2015 56.2837,200.1395 C55.0757,200.0925 54.3307,200.6085 53.7677,201.6665 L53.7677,201.6665 Z M48.6807,82.8115 C46.1287,83.7745 43.6057,84.7205 41.0877,85.6815 C40.2457,86.0025 40.2317,86.7305 40.7377,87.1935 C41.5457,87.9355 41.6737,88.7695 41.6577,89.7625 C41.6507,90.1165 41.9777,90.4695 42.1267,90.8335 C42.3407,91.3565 42.5407,91.8865 42.7297,92.4185 C42.8977,92.8955 43.0157,93.7795 43.2027,93.7915 C44.0057,93.8445 44.8377,93.6935 45.6357,93.5105 C45.9937,93.4295 46.2697,93.0445 46.6237,92.8895 C47.5847,92.4695 48.5837,92.1315 49.5307,91.6825 C49.7487,91.5795 49.9507,91.1545 49.9367,90.8895 C49.7867,88.0885 50.4427,85.1485 48.6807,82.8115 L48.6807,82.8115 Z M45.3477,109.6815 C45.4197,110.5145 45.5537,111.1135 45.4987,111.6935 C45.4467,112.2485 44.8917,113.0345 45.0927,113.2795 C45.5887,113.8825 46.4137,114.6455 47.0677,114.6105 C49.0527,114.5055 50.8147,113.2215 52.9347,113.3705 C53.5757,113.4155 54.2727,112.7775 54.9277,112.4215 C55.1117,112.3225 55.3787,112.1035 55.3677,111.9605 C55.2617,110.7555 55.6757,109.5545 54.8077,108.3485 C54.0197,107.2535 53.6987,105.8195 53.1877,104.5285 C53.0157,104.0955 52.9607,103.3125 52.7377,103.2675 C52.2957,103.1795 51.6767,103.3745 51.3067,103.6705 C50.5497,104.2755 49.9237,104.3505 49.1177,103.7625 C48.8407,103.5615 48.2967,103.6455 47.8967,103.7195 C47.6117,103.7715 47.3677,104.1535 47.0967,104.1635 C45.9067,104.2065 45.9007,104.9455 45.9087,105.8505 C45.9207,107.2485 46.5017,108.7775 45.3477,109.6815 L45.3477,109.6815 Z M7.3657,53.1035 C7.1957,53.1355 7.0267,53.1675 6.8567,53.1985 L6.8567,71.8985 C7.0407,71.9015 7.2267,71.9045 7.4117,71.9075 C7.4117,71.0125 7.3237,70.1055 7.4487,69.2285 C7.5097,68.8015 7.9677,68.4305 8.2457,68.0345 C8.4857,68.4145 8.9197,68.7895 8.9307,69.1755 C8.9817,70.9895 8.9337,72.8075 8.8727,74.6225 C8.8627,74.9535 8.6197,75.2735 8.4987,75.6055 C8.2557,76.2805 7.9647,76.9465 7.8027,77.6415 C7.6317,78.3725 7.7997,79.2575 7.4487,79.8565 C6.4577,81.5435 5.4317,83.1515 5.6627,85.2505 C5.7707,86.2365 5.6577,87.2465 5.6687,88.2455 C5.6727,88.6015 5.6187,89.1155 5.8197,89.2855 C6.9437,90.2335 6.7607,91.4675 6.6637,92.6775 C6.5827,93.6995 7.0277,94.0555 8.0137,94.0355 C9.9657,93.9955 11.9197,94.0415 13.8717,94.0065 C14.2507,94.0005 14.6297,93.7995 15.0017,93.6705 C15.6917,93.4325 16.3877,93.2065 17.0597,92.9235 C17.5057,92.7365 18.1917,92.5395 18.2887,92.2075 C18.5797,91.2015 19.7567,90.1565 18.3977,89.0545 C18.2547,88.9395 18.3357,88.5325 18.3317,88.2615 C18.3117,86.7625 18.3767,85.2575 18.2607,83.7675 C18.1187,81.9465 18.9537,79.9435 17.3417,78.3565 C17.2157,78.2325 17.2537,77.9215 17.2507,77.6965 C17.2337,76.4525 17.5467,75.1395 16.3367,74.1795 C16.1537,74.0335 16.1667,73.5835 16.1637,73.2725 C16.1467,71.4125 16.1557,69.5505 16.1417,67.6895 C16.1387,67.2845 16.2417,66.7305 16.0247,66.5025 C14.9967,65.4165 15.1777,64.0835 15.0767,62.7905 C15.0497,62.4485 14.8687,62.1145 14.7367,61.7855 C14.1257,60.2605 13.5067,58.7395 12.8967,57.2145 C12.8657,57.1365 12.8917,57.0345 12.8897,56.9435 C12.8637,55.4015 11.7047,53.8175 9.9067,53.1545 C9.9807,54.3505 9.6577,55.7335 10.2047,56.4675 C11.1377,57.7185 11.0377,58.9695 11.1257,60.2985 C11.1507,60.6685 11.4427,61.0145 11.5837,61.3815 C11.8017,61.9475 12.0297,62.5125 12.1897,63.0955 C12.2957,63.4805 12.2917,63.8945 12.3257,64.1835 C13.0177,64.0315 13.5017,63.9245 13.9877,63.8175 C14.0797,64.2835 14.1447,64.7575 14.2747,65.2135 C14.4257,65.7495 14.6727,66.2585 14.8047,66.7975 C14.9077,67.2165 15.0877,67.8125 14.8927,68.0655 C14.5437,68.5195 13.7007,69.1675 13.4837,69.0365 C12.8347,68.6475 12.1447,67.9995 11.9187,67.3065 C11.4757,65.9455 10.2207,64.8385 10.5687,63.2155 C10.5937,63.0955 10.3467,62.9365 10.2847,62.7725 C10.0387,62.1275 9.7977,61.4795 9.5887,60.8215 C9.4687,60.4435 9.4367,60.0385 9.3227,59.6575 C9.0647,58.7905 8.7677,57.9355 8.5097,57.0675 C8.1187,55.7495 7.7467,54.4255 7.3657,53.1035 L7.3657,53.1035 Z M20.9897,90.4575 C21.1757,90.4605 21.3627,90.4625 21.5477,90.4655 C21.5887,89.8745 21.6677,89.2835 21.6637,88.6925 C21.6537,87.5585 21.5357,86.4215 21.5947,85.2935 C21.6117,84.9735 22.0867,84.6765 22.3517,84.3685 C22.6087,84.6855 23.0067,84.9705 23.0877,85.3275 C23.2047,85.8415 23.1147,86.4105 23.0717,86.9525 C23.0027,87.8095 23.1687,88.3595 24.1597,88.6725 C24.6517,88.8295 24.9887,89.6605 25.2677,90.2475 C25.4887,90.7105 25.4807,91.2765 25.6337,91.7785 C25.8327,92.4345 26.2347,93.0615 26.2887,93.7215 C26.3617,94.6035 26.6217,95.0955 27.5637,95.0905 C29.1987,95.0815 30.8537,95.2435 32.4577,95.0235 C33.2257,94.9185 34.3747,94.2055 34.5107,93.5835 C34.8177,92.1855 35.7717,91.4345 36.6527,90.5795 C36.9957,90.2465 37.5877,90.1695 38.0667,89.9765 C38.0557,90.6015 38.3047,91.5295 37.9907,91.7985 C36.7177,92.8855 37.1107,93.6035 38.1467,94.5395 C39.0477,95.3525 40.2437,95.4395 40.8247,94.8355 C41.2577,94.3855 40.8707,93.0715 40.7257,92.1615 C40.6327,91.5745 40.3117,91.0255 40.1037,90.4555 C39.8977,89.8895 39.7517,89.2965 39.4977,88.7535 C39.0147,87.7175 37.9937,86.6725 38.0657,85.6955 C38.1807,84.1375 38.7697,82.4805 39.6097,81.1505 C40.2727,80.1015 40.1457,79.3355 39.9227,78.1965 C38.6687,80.1635 38.6687,80.1635 37.7057,78.5625 C36.7967,79.6405 35.8127,80.7405 34.9097,81.9045 C34.4897,82.4465 34.3247,83.1985 33.8717,83.7015 C32.9267,84.7565 31.9627,85.8395 30.8287,86.6655 C29.7897,87.4195 28.4077,87.7015 27.3717,88.4585 C26.0357,89.4375 25.7237,87.2745 24.6227,87.7365 C24.5387,87.7715 24.2097,87.3355 24.0727,87.0775 C24.0157,86.9695 24.1117,86.6925 24.2257,86.5945 C25.2707,85.7005 25.0827,84.9225 24.0607,84.1695 C23.9347,84.0775 23.8297,83.8435 23.8447,83.6885 C24.0527,81.5695 22.9377,79.2655 24.7367,77.3555 C24.9187,77.1615 25.0107,76.7125 24.9207,76.4605 C24.6217,75.6125 23.9937,74.8235 23.9057,73.9705 C23.7387,72.3455 23.1697,70.8185 22.8777,69.2995 C22.3147,66.3665 22.6737,63.2475 22.7637,60.2095 C22.7747,59.8465 23.4867,59.2425 23.8897,59.2285 C24.2907,59.2135 25.0647,59.8045 25.0617,60.1245 C25.0527,61.0145 24.6997,61.8965 24.5367,62.7925 C24.4407,63.3175 24.2097,64.1395 24.4537,64.3485 C25.3287,65.1035 25.2557,66.0135 25.2347,66.9655 C25.2177,67.6915 25.1237,68.4325 25.2377,69.1385 C25.2907,69.4665 25.7367,69.9335 26.0387,69.9625 C26.3387,69.9915 26.9947,69.4825 26.9607,69.3195 C26.5587,67.3655 28.0497,65.1655 26.2027,63.3865 C25.9967,63.1895 26.0387,62.7045 26.0247,62.3505 C25.9927,61.5815 26.1497,60.7715 25.9597,60.0485 C25.3197,57.6105 27.1577,55.6215 27.0817,53.3025 C27.0787,53.1865 27.1747,53.0105 27.2757,52.9575 C28.2237,52.4565 28.1707,51.5815 28.1537,50.7085 C28.1387,49.9255 28.4447,49.4845 29.2907,49.2925 C29.7127,49.1965 30.2657,48.6615 30.3307,48.2555 C30.4187,47.7145 30.0897,47.1055 29.9397,46.5255 C29.3647,46.7565 28.6297,46.8375 28.2437,47.2465 C26.7747,48.8025 25.0017,49.8645 23.0947,50.7465 C22.0267,51.2395 20.9577,51.7365 19.8697,52.1815 C19.1607,52.4715 18.4297,52.7745 17.6807,52.8845 C16.6587,53.0345 15.6107,53.0065 14.9517,53.0375 C15.1277,54.6205 15.2567,55.9175 15.4237,57.2085 C15.5027,57.8205 15.5777,58.4525 15.7887,59.0245 C16.3567,60.5655 17.0027,62.0775 17.6007,63.6075 C17.6637,63.7655 17.6117,63.9675 17.6137,64.1485 C17.6237,65.6925 17.6227,67.2355 17.6567,68.7785 C17.6637,69.1275 17.6737,69.6315 17.8887,69.7955 C18.8567,70.5355 18.7007,71.5385 18.6967,72.5315 C18.6917,73.7775 18.4317,75.0785 19.6087,76.0535 C19.8157,76.2245 19.7827,76.7355 19.7887,77.0915 C19.8237,78.9525 19.7657,80.8175 19.8727,82.6745 C19.9817,84.5555 19.2487,86.5735 20.7017,88.2775 C20.8667,88.4715 20.7477,88.8955 20.7887,89.2085 C20.8407,89.6265 20.9207,90.0415 20.9897,90.4575 L20.9897,90.4575 Z M46.6227,40.1175 C46.4757,40.1035 46.3297,40.0895 46.1817,40.0755 C46.0747,40.3975 45.9677,40.7215 45.8597,41.0435 C45.3477,42.5585 43.7827,43.5085 42.2397,43.1595 C41.9207,43.0865 41.6747,42.6955 41.3957,42.4515 C41.6507,42.1855 41.8927,41.7055 42.1637,41.6885 C43.8207,41.5825 44.3617,40.0705 45.3827,39.1935 C45.8417,38.7995 46.0227,38.0815 46.3297,37.5095 C46.6897,38.0615 47.0497,38.6125 47.4097,39.1635 C47.7227,38.6935 47.6297,38.1555 47.7497,37.6705 C47.8627,37.2205 48.2037,36.8265 48.4437,36.4065 C48.7257,36.8005 49.2137,37.1755 49.2507,37.5905 C49.3377,38.5775 49.2097,39.5825 49.1727,40.5795 C49.1437,41.3855 49.5547,41.8785 50.3247,41.6345 C50.8847,41.4565 51.4087,40.9895 51.7907,40.5225 C51.9057,40.3835 51.4897,39.8115 51.3207,39.4355 C51.2297,39.2305 51.0387,38.9965 51.0797,38.8205 C51.5197,36.9395 50.1747,35.9745 49.0237,35.0265 C48.0017,34.1855 47.5647,33.4805 48.4947,32.7245 C48.1827,31.8625 47.8297,31.2135 47.7317,30.5285 C47.6097,29.6835 47.6607,28.8045 47.7167,27.9465 C47.7457,27.5205 47.9167,27.0905 48.0897,26.6915 C48.3157,26.1685 48.6067,25.6735 48.8707,25.1665 C48.3157,24.9775 47.7637,24.6425 47.2057,24.6275 C45.7997,24.5935 45.0067,23.7065 44.6097,22.6165 C43.9547,20.8255 43.5197,20.3625 41.5777,20.2285 C41.2287,20.2035 40.7267,20.1775 40.5707,19.9575 C39.8887,18.9925 38.9217,19.1705 37.9817,19.1475 C35.6657,19.0905 33.2887,18.8795 31.2837,20.3135 C30.5537,20.8355 29.6607,21.7625 29.6347,22.5315 C29.4977,26.7015 29.5977,30.8795 29.6547,35.0555 C29.6607,35.4715 29.9237,35.8835 30.0707,36.2975 C30.2897,36.9185 30.6157,37.5235 30.7087,38.1625 C30.8547,39.1555 32.6867,41.5695 33.6797,41.6645 C34.9587,41.7875 35.1397,42.5265 35.0287,43.5475 C34.9357,44.3935 35.1027,44.9065 36.1427,44.9695 C37.1287,45.0295 37.2377,45.5695 36.5807,46.4425 C35.8417,47.4265 35.8107,48.3615 36.6347,49.3695 C36.8657,49.6505 36.9027,50.4055 36.6887,50.6825 C35.5117,52.2115 35.8807,53.7135 37.8347,54.5685 C37.9107,54.2635 38.0937,53.9495 38.0347,53.6915 C37.5187,51.4455 38.8037,49.7965 39.8657,48.0845 C40.3967,47.2275 40.1547,46.7585 39.0807,46.3575 C38.6537,46.1975 38.1757,45.7365 38.0567,45.3175 C37.9547,44.9585 38.2187,44.2315 38.5227,44.0835 C38.9357,43.8825 39.6957,43.8815 40.0347,44.1445 C40.9457,44.8535 41.8757,45.6235 41.6787,47.0465 C41.5537,47.9395 41.5267,48.8655 41.5987,49.7645 C41.8007,52.3245 40.6517,54.2815 38.9547,56.0175 C37.9407,57.0545 36.9107,58.0735 35.8907,59.1045 C34.9657,60.0385 34.6487,63.0965 35.3437,64.3075 C36.6687,63.3905 38.0057,62.4905 39.3167,61.5545 C41.0617,60.3065 42.3047,58.5945 43.1337,56.6815 C43.8137,55.1135 44.9007,53.6105 44.4837,51.6715 C44.3467,51.0375 44.6857,50.2845 44.8667,49.6015 C45.0517,48.8995 45.4347,48.2305 45.5087,47.5235 C45.6177,46.4915 45.4547,45.4315 45.5507,44.3965 C45.5997,43.8735 45.8517,43.2725 46.2097,42.8945 C47.0767,41.9805 46.8207,41.0665 46.6227,40.1175 L46.6227,40.1175 Z M27.4987,192.8165 C27.2827,193.7715 27.1827,194.6085 27.9797,195.5105 C29.0367,196.7075 30.7697,197.4385 30.8647,199.3845 C30.8717,199.5235 31.3727,199.6455 31.6497,199.7645 C31.9727,199.9035 32.3187,200.0015 32.6247,200.1705 C34.2717,201.0775 35.8097,202.3155 37.8757,201.9295 C38.2817,201.8535 38.9217,201.6735 38.9827,201.4265 C39.0747,201.0535 38.7577,200.5765 38.6007,200.1485 C38.4717,199.7995 38.1227,199.3645 38.2317,199.1395 C38.3577,198.8775 38.8677,198.6875 39.2207,198.6685 C40.2167,198.6135 41.2307,198.7585 42.2107,198.6295 C42.6547,198.5715 43.0367,198.0515 43.4467,197.7415 C43.0667,197.4605 42.7237,197.0515 42.2987,196.9335 C41.7457,196.7785 41.1127,196.9305 40.5427,196.8115 C40.0587,196.7095 39.3487,196.5095 39.2217,196.1715 C39.0567,195.7345 39.3667,195.1155 39.4817,194.5775 C39.5567,194.2305 39.7697,193.8645 39.7087,193.5465 C39.5567,192.7475 39.2167,191.9835 39.0747,191.1835 C38.6497,188.8085 39.8487,186.1965 38.0237,184.0165 C37.9277,183.9015 37.9637,183.6645 37.9617,183.4835 C37.9507,182.2125 37.9687,180.9415 37.9247,179.6725 C37.9097,179.2455 37.7677,178.8145 37.6357,178.4015 C37.4027,177.6695 36.9247,176.9535 36.9127,176.2245 C36.8427,172.0485 36.8827,167.8705 36.8807,163.6935 C36.8787,156.2455 36.8707,148.7985 36.8767,141.3505 C36.8767,140.9985 36.8867,140.5605 37.0797,140.3075 C38.3747,138.6215 38.3757,136.9825 37.0797,135.2995 C36.9077,135.0755 36.8667,134.6945 36.8807,134.3925 C36.9427,133.1235 36.4907,131.7255 37.7677,130.7345 C37.9057,130.6275 37.9247,130.3125 37.9247,130.0935 C37.9347,127.2775 37.9547,124.4615 37.9017,121.6475 C37.8947,121.2965 37.5647,120.7675 37.2517,120.6375 C34.9837,119.6875 34.5597,119.1045 34.6337,116.6925 C34.6597,115.8305 34.8187,114.9515 34.6967,114.1135 C34.6347,113.6955 34.0427,113.0045 33.7467,113.0325 C32.2557,113.1705 31.2437,112.4015 30.5797,111.3195 C29.9507,110.2955 29.3877,109.0745 29.3027,107.9035 C29.1197,105.3745 29.2517,102.8215 29.2717,100.2775 C29.2817,98.9895 27.8837,97.2715 26.4827,96.9445 C26.4347,97.1605 26.3647,97.3735 26.3447,97.5905 C26.1927,99.2845 26.8917,101.1565 25.2627,102.5465 C25.1097,102.6785 25.2107,103.0775 25.1297,103.3315 C24.9077,104.0265 24.6327,104.7055 24.4137,105.4015 C24.2817,105.8185 24.1417,106.2545 24.1317,106.6855 C24.1037,107.8645 24.1817,109.0475 24.1337,110.2265 C24.1157,110.6915 23.8797,111.1505 23.7307,111.6085 C23.5327,112.2195 23.1507,112.8245 23.1427,113.4355 C23.0867,117.8835 23.1017,122.3325 23.0997,126.7815 C23.0957,136.5435 23.0917,146.3065 23.1097,156.0695 C23.1097,156.4455 23.3347,156.8225 23.4587,157.1985 C23.6877,157.8915 24.0997,158.5795 24.1177,159.2785 C24.2027,162.5005 24.1627,165.7245 24.2097,168.9475 C24.2167,169.4095 24.4437,169.8735 24.5997,170.3255 C24.8227,170.9655 25.1797,171.5785 25.2917,172.2345 C25.6587,174.3875 24.4747,176.7685 26.2537,178.7225 C26.3307,178.8065 26.3237,178.9835 26.3257,179.1175 C26.3547,181.3425 26.4137,183.5675 26.3677,185.7915 C26.3607,186.1525 25.8747,186.5035 25.6107,186.8595 C25.3447,186.4965 24.8877,186.1525 24.8467,185.7655 C24.7107,184.4575 25.1937,183.0345 23.9147,181.9815 C23.7407,181.8375 23.7987,181.3775 23.7957,181.0635 C23.7697,178.5655 23.6067,176.0575 23.7867,173.5745 C23.9187,171.7505 23.2197,170.3525 22.1807,168.6725 C22.0757,169.2095 21.9607,169.5225 21.9597,169.8355 C21.9457,174.9655 21.9197,180.0955 21.9747,185.2255 C21.9817,185.8095 22.3107,186.5575 22.7467,186.9345 C23.6007,187.6735 24.6547,188.1775 25.5907,188.8285 C27.0407,189.8365 28.4237,190.9475 29.9217,191.8735 C30.2637,192.0845 31.0827,191.8795 31.4707,191.5855 C32.5477,190.7715 33.9957,190.7225 35.0047,191.6445 C35.6037,192.1915 36.2377,192.7095 36.7727,193.3135 C36.9847,193.5545 36.9707,193.9945 37.0607,194.3445 C36.6737,194.3145 36.2317,194.3955 35.9137,194.2325 C34.9387,193.7375 34.0457,193.0705 33.0487,192.6375 C32.7177,192.4935 32.1617,192.8365 31.7187,192.9895 C31.1557,193.1855 30.5887,193.6215 30.0517,193.5805 C29.2517,193.5175 28.4777,193.1285 27.4987,192.8165 L27.4987,192.8165 Z M43.8667,0.4475 C43.7807,1.3425 44.3937,1.3625 45.0177,1.3645 C46.3337,1.3675 47.6617,1.2795 48.9627,1.4195 C49.4297,1.4705 49.9727,1.9905 50.2427,2.4395 C50.8667,3.4805 51.3377,4.6105 51.8877,5.6975 C51.9857,5.8905 52.2137,6.0245 52.2907,6.2215 C52.4497,6.6305 50.8767,9.2035 50.4307,9.3175 C48.6167,9.7805 48.0757,10.4985 48.1197,12.3455 C48.1407,13.2385 48.3297,14.1715 47.4157,14.8355 C47.3107,14.9125 47.4177,15.5925 47.6047,15.7105 C49.1817,16.7035 49.5017,18.1815 49.1947,19.8385 C48.9347,21.2415 49.6327,22.1035 50.5037,23.0335 C50.9697,23.5295 51.2867,24.3075 51.3637,24.9925 C51.4837,26.0585 51.2737,27.1075 52.2227,28.0065 C52.5057,28.2735 52.3977,29.4255 52.0587,29.7925 C51.0197,30.9135 51.5557,32.2065 51.4197,33.4145 C51.3997,33.5975 51.7767,33.9395 52.0297,34.0215 C53.9447,34.6375 55.0157,35.9505 55.8507,37.7725 C56.4317,39.0425 57.4667,40.2225 59.0417,40.6585 C59.4507,40.7715 59.7437,41.3115 60.0757,41.6685 C60.1237,41.7205 60.0647,41.8665 60.1097,41.9315 C61.6667,44.1755 59.9197,45.5465 58.7947,47.1285 C58.0607,48.1625 57.4557,49.2935 56.8577,50.4155 C56.2037,51.6405 55.6047,52.8965 55.0147,54.1535 C54.4937,55.2625 54.0347,56.4015 53.5097,57.5095 C53.3437,57.8595 53.0907,58.1885 52.8127,58.4605 C51.9537,59.2975 51.1647,60.1105 51.3627,61.4965 C51.4157,61.8765 51.0257,62.3905 50.7187,62.7365 C50.0607,63.4825 49.3167,64.1515 48.6207,64.8655 C47.8357,65.6695 47.8757,67.0235 48.5937,67.9265 C48.9057,68.3175 49.1947,68.8595 49.2027,69.3365 C49.2527,72.6505 49.2997,75.9675 49.1887,79.2775 C49.1487,80.4795 49.9147,81.0365 50.4657,81.8375 C50.8927,82.4585 51.3037,83.2035 51.3777,83.9285 C51.5257,85.3675 51.4077,86.8315 51.4637,88.2825 C51.4797,88.6895 51.6307,89.3425 51.8797,89.4305 C52.2597,89.5645 52.9157,89.4555 53.2127,89.1845 C54.4087,88.0935 55.7827,88.5615 57.0987,88.6315 C57.3297,88.6445 57.7027,89.1165 57.7037,89.3775 C57.7037,89.5995 57.2967,89.9505 57.0127,90.0255 C55.4077,90.4515 53.7827,90.8055 52.1687,91.2015 C51.9637,91.2515 51.6547,91.3685 51.6137,91.5155 C50.9077,94.0525 48.5207,95.1875 47.0017,97.0405 C45.9257,98.3535 45.8377,98.2905 47.4087,99.1545 C47.8337,98.4515 48.1877,97.6865 48.7157,97.0725 C48.9967,96.7465 49.5827,96.6815 50.0327,96.4995 C50.0307,97.1195 50.1697,97.7845 49.9907,98.3475 C49.7827,99.0035 49.2937,99.5705 48.9087,100.2075 C49.2987,100.3915 49.4337,100.4745 49.4467,100.4585 C51.1867,98.3165 52.6437,100.5325 54.2047,100.8265 C54.4377,100.8705 54.6277,101.6645 54.6637,102.1245 C54.7597,103.3195 54.4527,104.6025 55.6167,105.5015 C55.7327,105.5905 55.7837,105.8385 55.7737,106.0075 C55.6717,107.9065 56.8197,109.3005 57.7297,110.7695 C58.5027,112.0185 57.2427,113.2175 55.8847,113.9875 C54.0797,115.0105 52.1527,115.2605 50.0907,115.2005 C48.6077,115.1575 46.7147,116.9635 47.1327,117.9485 C47.6917,119.2645 47.9767,120.3355 47.1267,121.6345 C46.9027,121.9785 47.3597,122.7675 47.5027,123.3515 C48.0777,123.1155 48.6907,122.9415 49.2147,122.6225 C49.6287,122.3715 49.8797,121.7625 50.3017,121.6345 C50.8787,121.4595 51.7827,121.3455 52.1107,121.6605 C52.4277,121.9645 52.3807,122.9215 52.1627,123.4565 C51.6247,124.7755 50.9327,126.0375 50.2247,127.2775 C50.0137,127.6455 49.5707,128.0585 49.1857,128.1115 C48.3667,128.2265 48.1247,128.5875 48.1347,129.3665 C48.1777,133.0435 48.1837,136.7225 48.2017,140.3995 C48.2037,140.7175 48.2837,141.0785 48.1607,141.3415 C48.0097,141.6635 47.6837,141.9035 47.4337,142.1785 C47.1687,141.8745 46.8467,141.5995 46.6627,141.2525 C46.5507,141.0435 46.6557,140.7195 46.6567,140.4475 C46.6767,137.1325 46.7017,133.8175 46.7057,130.5025 C46.7067,130.1755 46.5877,129.8475 46.5247,129.5205 C46.3897,129.5075 46.2547,129.4965 46.1207,129.4835 C46.0237,129.8935 45.8447,130.3015 45.8427,130.7115 C45.8297,133.6185 45.8797,136.5245 45.8367,139.4305 C45.8287,140.0175 45.6007,140.6505 45.3117,141.1735 C44.7067,142.2695 44.5867,143.2825 45.4437,144.2895 C45.5887,144.4605 45.8517,144.6635 45.8307,144.8225 C45.4137,148.0905 47.5537,151.0215 47.0697,154.2845 C47.0217,154.6045 46.8377,155.0435 46.5947,155.1525 C46.3677,155.2535 45.9127,155.0685 45.6687,154.8725 C44.8217,154.1875 44.3267,153.3535 44.4857,152.1655 C44.5987,151.3195 44.4667,150.4425 44.4797,149.5805 C44.4937,148.6345 44.5677,147.7965 43.1627,147.7345 C42.3807,147.7005 42.4097,147.0245 42.8547,146.4065 C43.1257,146.0305 43.4257,145.5615 43.4347,145.1275 C43.5017,141.9095 43.5267,138.6895 43.5147,135.4705 C43.4937,129.7045 43.4357,123.9385 43.3997,118.1715 C43.3817,115.4525 43.3777,112.7325 43.3687,110.0135 C43.3677,109.9225 43.3297,109.8055 43.3717,109.7445 C44.2687,108.4345 43.8347,107.1085 43.5287,105.7305 C43.1237,103.9125 43.8277,102.4685 45.5217,101.3145 C43.1477,101.1035 41.0247,100.1465 38.3597,100.4715 C38.4297,100.9865 38.3107,101.9345 38.6957,102.5835 C39.7467,104.3545 39.8147,104.9345 38.6057,106.4695 C38.4517,106.6655 38.3107,106.9845 38.3567,107.2075 C38.6877,108.8085 37.7397,109.7455 36.6657,110.6425 C35.9967,111.2025 35.9247,111.8075 36.4967,112.5275 C36.8117,112.9245 36.9247,113.4815 37.2347,113.8845 C37.4927,114.2225 37.9107,114.6595 38.2467,114.6495 C38.5307,114.6415 39.0267,114.0605 39.0307,113.7275 C39.0407,112.7635 38.9947,111.9415 39.8717,111.1735 C40.2567,110.8375 39.9537,109.7875 40.1037,109.0915 C40.2547,108.3975 40.6157,107.7505 40.8257,107.0645 C40.9917,106.5225 41.1327,105.9575 41.1677,105.3955 C41.2227,104.5365 41.1047,103.6615 41.2077,102.8125 C41.2497,102.4765 41.6927,102.1905 41.9527,101.8815 C42.2107,102.1995 42.7257,102.5565 42.6847,102.8285 C42.4377,104.4555 43.4167,106.2945 41.8317,107.7215 C41.5807,107.9475 41.6827,108.5795 41.6447,109.0255 C41.5607,110.0145 42.0387,111.1445 40.8767,111.8725 C40.7937,111.9245 40.9137,112.6245 41.1147,112.7555 C42.5807,113.7195 42.6957,115.1745 42.6957,116.7075 C42.6957,123.2925 42.7237,129.8775 42.6787,136.4625 C42.6757,136.9095 42.1637,137.3535 41.8887,137.7985 C41.6487,137.3305 41.1987,136.8625 41.1977,136.3945 C41.1817,130.0825 41.2347,123.7705 41.2467,117.4595 C41.2477,117.0765 41.0587,116.6945 40.9187,116.1675 C39.5287,118.3135 39.3957,120.4285 39.4297,122.6775 C39.5267,129.0325 39.4377,135.3895 39.4087,141.7465 C39.4067,142.1445 39.4317,142.7235 39.1987,142.9085 C38.1037,143.7765 38.3847,144.9385 38.3817,146.0435 C38.3707,151.1295 38.3597,156.2165 38.3817,161.3025 C38.3837,161.7645 38.5177,162.3045 38.7807,162.6715 C39.6657,163.9125 39.7137,165.1875 38.7457,166.3185 C38.2087,166.9455 38.2457,167.4635 38.7067,168.1385 C39.0617,168.6545 39.3577,169.3195 39.3837,169.9305 C39.4657,171.8345 39.4027,173.7445 39.4057,175.6515 C39.4077,176.5745 39.1097,177.5695 40.1527,178.2425 C40.2687,178.3175 40.0827,179.1445 39.8297,179.4495 C39.2817,180.1075 39.3547,180.5965 39.8357,181.2545 C40.1787,181.7245 40.4407,182.3535 40.4767,182.9275 C40.5737,184.4655 40.5257,186.0125 40.5437,187.5555 C40.5467,187.8255 40.4837,188.2045 40.6307,188.3475 C42.2977,189.9715 41.4317,192.0375 41.5747,193.8995 C41.6547,194.9495 41.9067,195.3845 42.9757,195.3515 C44.5627,195.3015 46.1777,195.5055 47.7327,195.2735 C48.8607,195.1055 49.9067,194.3965 50.9967,193.9485 C51.6307,193.6875 52.2647,193.3585 52.9307,193.2515 C53.6827,193.1305 54.4697,193.2315 55.2427,193.2215 C56.3917,193.2055 57.5097,193.4645 57.7997,191.6505 C58.0237,190.2515 61.6797,189.2505 62.8537,190.0545 C63.0427,190.1845 63.2467,190.5275 63.1997,190.7115 C63.1347,190.9685 62.8757,191.3025 62.6387,191.3625 C62.1647,191.4825 61.6287,191.3595 61.1597,191.4865 C60.7847,191.5875 60.2307,191.8565 60.1657,192.1425 C59.8307,193.6515 58.6697,194.0735 57.5117,194.8305 C55.8327,195.9285 54.1687,195.6475 52.4587,195.7475 C51.4187,195.8075 50.8987,196.4415 50.4567,197.4925 C51.8467,197.4385 52.5977,198.0065 52.5887,199.3355 C53.1757,199.3215 53.8827,199.5135 54.3277,199.2555 C55.6037,198.5115 56.7367,197.5235 58.0027,196.7575 C58.6567,196.3625 58.9317,196.8855 59.0507,197.5295 C59.2607,198.6665 59.8677,198.8415 60.8407,198.3205 C61.5487,197.9405 62.3867,197.6545 63.1817,197.6135 C65.4297,197.4995 67.3127,195.7125 67.3687,193.4655 C67.3987,192.2425 67.4237,191.0205 67.4327,189.7965 C67.4337,189.6885 67.2947,189.5795 67.1197,189.3195 C66.7237,189.6215 66.3857,190.0685 65.9787,190.1435 C65.4727,190.2355 64.9117,190.0195 64.3727,189.9375 C64.5507,189.5285 64.6297,189.0175 64.9257,188.7325 C65.6737,188.0135 66.6117,187.5355 65.3727,186.3335 C64.7067,185.6875 65.3767,184.6145 66.3817,184.5215 C66.9227,184.4715 67.4777,184.4485 68.0147,184.5115 C68.5587,184.5765 69.0877,184.7625 69.6237,184.8955 C69.4717,185.3825 69.3197,185.8705 69.1667,186.3575 C69.2507,186.3355 69.3347,186.3125 69.4197,186.2895 C69.5887,187.2935 69.9167,188.3025 69.8927,189.3015 C69.8517,190.9065 70.5127,192.6855 68.9907,194.0395 C68.8387,194.1725 68.8957,194.5585 68.8857,194.8275 C68.8217,196.5275 67.9527,197.5075 66.3627,198.0055 C65.7027,198.2115 65.1657,198.8105 64.5737,199.2305 C64.6177,199.3725 64.6627,199.5135 64.7057,199.6545 C65.0637,199.6965 65.4197,199.7755 65.7777,199.7755 C67.9267,199.7755 69.5607,201.5775 68.7257,203.4905 C68.1827,204.7345 66.7887,205.6335 65.6977,206.5995 C65.1567,207.0785 64.4407,207.3585 63.8047,207.7305 C63.1697,208.1025 62.5287,208.4635 61.9077,208.8565 C61.6607,209.0125 61.2677,209.2435 61.2687,209.4395 C61.2727,211.1205 59.5127,211.5445 58.9257,212.7935 C58.8627,212.9275 58.5257,212.9905 58.3157,212.9915 C54.5117,213.0025 50.7067,212.999874 46.8477,212.999874 C46.6627,211.6225 46.3467,210.4395 47.4757,209.3455 C48.0417,208.7955 48.1777,207.8215 48.6877,207.1845 C48.9587,206.8445 49.6157,206.8135 50.0977,206.6425 C50.0697,207.2325 50.1347,207.8465 49.9927,208.4075 C49.8007,209.1615 49.3137,209.8595 49.2327,210.6105 C49.1997,210.9275 49.8647,211.6105 50.2377,211.6305 C52.3207,211.7405 54.4127,211.7085 56.5007,211.6975 C56.8007,211.6955 57.2347,211.6325 57.3657,211.4365 C57.5577,211.1515 57.5307,210.7205 57.5967,210.3515 C57.2857,210.3655 56.9127,210.2715 56.6727,210.4095 C55.1717,211.2745 53.1337,211.0765 51.8017,209.9985 C50.8357,209.2165 50.8567,208.4785 51.5577,207.5555 C51.8357,207.1895 51.9977,206.7085 52.1197,206.2545 C52.3297,205.4655 52.4677,204.6555 52.6367,203.8555 L52.9797,203.8905 C52.9737,203.8005 52.9997,203.6855 52.9547,203.6255 C51.7037,201.9835 50.4427,200.3475 49.1867,198.7085 C49.1057,198.6015 48.9907,198.4815 48.9827,198.3625 C48.9127,197.3415 48.4967,196.8665 47.3587,196.8695 C46.1537,196.8735 45.4767,197.5295 45.0027,198.4045 C44.2357,199.8245 43.6137,201.3235 42.9957,202.6475 C43.2767,203.2885 43.7377,203.8855 43.7757,204.5075 C43.8887,206.3935 43.6657,206.5585 41.7537,206.6525 C41.4427,206.6675 40.9857,206.6295 40.8477,206.8095 C39.8597,208.0965 38.4757,207.6875 37.2047,207.7305 C36.2617,207.7615 35.4887,207.9505 34.5917,208.4815 C33.2527,209.2745 31.5777,209.5745 30.0057,209.8785 C28.9327,210.0865 27.7667,209.7135 26.8887,210.7775 C26.6827,211.0275 25.7347,211.0695 25.5217,210.8405 C24.3777,209.6105 22.9377,209.9605 21.5707,209.9225 C20.3307,209.8885 17.7647,208.1705 17.3217,207.0335 C16.8887,205.9205 18.2477,204.3075 19.6597,204.1045 C20.4077,203.9975 21.1497,203.6975 21.8377,203.3675 C22.5437,203.0285 23.5997,203.7315 23.9717,204.8965 C24.0957,205.2835 24.1867,205.6805 24.2917,206.0725 C24.4377,206.0725 24.5817,206.0725 24.7277,206.0715 C24.8207,205.6925 24.9947,205.3125 24.9917,204.9335 C24.9817,203.6635 24.8767,202.3935 24.8707,201.1235 C24.8657,200.1685 24.9137,199.2995 24.0657,198.5315 C23.7877,198.2785 24.0637,197.3225 24.2077,196.7185 C24.3657,196.0665 24.7907,195.4645 24.8727,194.8135 C24.9907,193.8745 24.7867,192.8915 24.9327,191.9605 C25.1267,190.7245 24.3687,190.0995 23.5897,189.4955 C22.8307,188.9065 22.2027,189.2475 21.9657,190.2105 C21.8797,190.5635 21.6777,191.0865 21.4317,191.1475 C21.1557,191.2175 20.7457,190.8885 20.4387,190.6695 C19.5817,190.0595 19.3957,189.2095 19.4137,188.1755 C19.4747,184.8155 19.4247,181.4545 19.4447,178.0935 C19.4537,176.4595 20.4827,174.8325 19.4427,173.1775 C19.3057,172.9605 19.3347,172.4465 19.5007,172.2585 C21.1597,170.3765 20.2717,168.1275 20.4657,166.0375 C20.5347,165.3015 20.0297,164.0595 21.1877,164.0385 C22.3777,164.0155 21.8917,165.2265 21.9497,165.9795 C21.9667,166.2155 22.1097,166.4415 22.3117,166.9855 C22.5327,166.4465 22.7547,166.1755 22.7187,165.9455 C22.4737,164.3995 23.2367,162.6525 21.7647,161.3285 C21.5407,161.1265 21.6217,160.5505 21.6177,160.1465 C21.5947,158.2405 21.5957,156.3335 21.5757,154.4265 C21.5727,154.1595 21.5977,153.7755 21.4427,153.6455 C20.0877,152.5115 20.5737,150.9815 20.5437,149.5835 C20.4947,147.2685 20.4847,144.9505 20.5477,142.6365 C20.5637,142.0625 20.8287,141.4325 21.1517,140.9425 C21.7217,140.0785 21.7147,137.6945 21.1427,136.8285 C20.8197,136.3385 20.5677,135.7065 20.5477,135.1305 C20.4797,133.0885 20.4687,131.0415 20.5587,129.0015 C20.5917,128.2515 20.9867,127.5215 21.1727,126.7715 C21.2397,126.5025 21.2837,126.1375 21.1557,125.9275 C20.1437,124.2705 20.0927,122.6835 21.3127,121.0965 C21.8227,120.4325 21.6917,117.8315 21.1057,117.2255 C20.2757,116.3675 20.2917,115.6135 21.1077,114.7505 C21.3827,114.4585 21.5467,113.9545 21.5597,113.5415 C21.6197,111.6355 21.6027,109.7285 21.6227,107.8215 C21.6347,106.6715 21.3227,105.4355 22.5527,104.6145 C22.7157,104.5055 22.7667,104.1055 22.7387,103.8545 C22.6307,102.9095 22.6587,102.0515 23.5667,101.4415 C23.7437,101.3225 23.8447,100.9505 23.8247,100.7075 C23.7447,99.7295 23.8017,98.8905 24.6107,98.1095 C25.2337,97.5075 24.8537,95.0195 24.3527,94.2585 C24.0527,93.8025 23.8747,93.2165 23.8067,92.6685 C23.7147,91.9385 23.7847,91.1895 23.7847,90.2525 C22.6447,90.7215 22.0177,91.1175 21.9057,92.1635 C21.8637,92.5575 21.3377,92.9565 20.9517,93.2435 C20.4707,93.6005 19.8137,93.7485 19.3987,94.1545 C18.5637,94.9735 17.7467,95.4965 16.4697,95.5475 C15.7367,95.5775 14.9587,96.3895 14.3407,96.9925 C13.4837,97.8305 12.7537,97.8655 11.8697,97.0745 C11.5647,96.8015 11.0767,96.5525 10.6927,96.5805 C9.1367,96.6895 7.4997,96.0645 6.0797,97.4545 C5.3157,98.2025 4.1857,97.4465 4.1767,96.2695 C4.1427,91.6385 4.1407,87.0065 4.1377,82.3755 C4.1357,79.9685 4.1087,77.5595 4.2047,75.1565 C4.2307,74.5105 4.6727,73.8825 4.9147,73.2435 C5.0397,72.9175 5.2397,72.5845 5.2457,72.2515 C5.2857,69.8465 5.2907,67.4405 5.2847,65.0345 C5.2837,64.7635 5.1277,64.4935 5.0437,64.2225 C4.9257,64.2235 4.8087,64.2255 4.6907,64.2265 C4.6347,64.5715 4.6167,64.9265 4.5167,65.2585 C4.3337,65.8695 4.0957,66.4625 3.8957,67.0685 C3.7457,67.5225 3.5277,67.9805 3.5007,68.4445 C3.4457,69.4405 3.5567,70.4475 3.4637,71.4375 C3.4327,71.7745 2.9947,72.0745 2.7417,72.3915 C2.4927,72.1125 2.0037,71.8095 2.0317,71.5605 C2.2117,69.8825 1.2887,68.0625 2.8267,66.5355 C3.5127,65.8525 3.0047,62.2105 2.3267,61.4415 C2.2667,61.3745 2.1687,61.3175 2.1487,61.2405 C1.7037,59.5755 1.2007,57.9195 0.8777,56.2305 C0.8077,55.8625 1.3867,55.3705 1.6657,54.9355 C1.9187,55.3515 2.3677,55.7595 2.3837,56.1855 C2.4187,57.0675 2.3827,57.8455 3.2257,58.4695 C3.5067,58.6785 3.5177,59.4005 3.4727,59.8705 C3.3637,61.0145 3.9077,61.6395 5.0597,62.0985 C5.1257,61.6895 5.2237,61.3655 5.2247,61.0415 C5.2327,59.2705 5.2017,57.4995 5.2107,55.7285 C5.2207,54.1525 4.6097,53.3205 3.0967,52.9275 C2.2367,52.7035 1.5297,50.3415 2.1987,49.7475 C2.3987,49.5695 2.9527,49.6125 3.2417,49.7585 C3.5827,49.9315 3.8337,50.3075 4.0897,50.6245 C4.8837,51.6065 5.6327,51.8875 6.6707,50.8285 C6.9897,50.5035 8.1167,50.4055 8.3497,50.6685 C9.1897,51.6165 10.2137,51.4955 11.2267,51.4755 C12.7637,51.4435 14.4247,51.9705 15.7057,50.5645 C15.8467,50.4085 16.2317,50.4015 16.4887,50.4355 C18.6397,50.7165 20.3207,49.6685 21.9767,48.5355 C22.0877,48.4595 22.2167,48.3295 22.3257,48.3405 C24.1597,48.5295 25.1467,47.0025 26.5297,46.3775 C28.2437,45.6035 29.2507,44.2335 30.6257,43.2065 C31.2587,42.7335 31.2957,42.4155 30.7607,41.6935 C30.0517,40.7365 29.8427,39.4115 29.1417,38.4465 C28.1627,37.1005 27.9747,35.6805 28.0917,34.1235 C28.1037,33.9625 28.0227,33.7205 27.9007,33.6335 C26.9057,32.9245 27.1987,32.2155 27.9047,31.5565 C26.8147,29.8485 26.7437,25.9185 27.6757,24.3235 C27.8097,24.0955 27.7727,23.6315 27.6247,23.3965 C26.7627,22.0265 26.8107,21.1155 27.8527,19.7815 C28.0347,19.5485 28.2407,19.1745 28.1767,18.9355 C27.7877,17.4725 28.8877,16.7755 29.5697,15.7845 C30.4887,14.4495 31.7047,13.1115 31.4117,11.2955 C31.1287,9.5405 32.6067,8.5085 33.0067,7.0315 C33.1477,6.5115 33.9647,6.1425 34.5197,5.7735 C35.0937,5.3925 35.8097,5.1905 36.3107,4.7405 C37.4547,3.7135 38.5227,2.5995 39.5797,1.4795 C39.8257,1.2195 39.8987,0.7955 40.0517,0.4475 L43.8667,0.4475 Z" id="Fill-1" fill="#231916" mask="url(#mask-2)"></path>
                </g>
                <path d="M107.1085,148.7826 C107.3035,148.7966 107.4995,148.8116 107.6945,148.8256 C107.7535,148.3426 107.8645,147.8586 107.8625,147.3746 C107.8425,141.2606 107.8135,135.1466 107.7625,129.0336 C107.7595,128.6366 107.5705,128.2416 107.4675,127.8466 C107.3475,127.8756 107.2285,127.9056 107.1085,127.9346 L107.1085,148.7826 Z M94.9285,100.9806 C97.3985,101.9096 97.3275,103.8326 97.2125,105.7866 C97.1705,106.5106 97.1315,107.2466 97.2195,107.9616 C97.4635,109.9536 96.5735,112.1456 98.2425,113.9016 C98.3705,114.0356 98.3415,114.3356 98.3545,114.5606 C98.4505,116.2236 98.0115,117.9466 99.2955,119.4446 C99.6745,119.8876 99.5275,120.9706 100.4625,120.6376 C100.8385,120.5036 101.1255,119.5936 101.1325,119.0326 C101.1905,114.6796 101.0465,110.3216 101.2265,105.9756 C101.3185,103.7676 100.4215,101.3386 102.2295,99.3566 C102.3485,99.2266 102.3385,98.8946 102.2735,98.6956 C101.8725,97.4776 101.4365,96.2716 101.0895,95.2796 C99.0695,97.1486 97.1095,98.9626 94.9285,100.9806 L94.9285,100.9806 Z M95.0955,85.1446 C96.4035,86.1426 97.3885,86.7716 98.2185,87.5626 C99.0495,88.3556 99.8155,89.2506 100.4485,90.2086 C101.3435,91.5616 102.1115,93.0026 102.8905,94.4286 C103.2365,95.0616 103.6965,95.7406 103.7285,96.4166 C103.8305,98.5456 103.8025,100.6836 103.7245,102.8146 C103.6825,103.9646 103.4365,105.1066 103.2445,106.5326 C103.2625,106.7716 103.5305,107.4486 103.3045,107.8456 C102.5125,109.2396 102.4935,111.8726 103.3395,113.2806 C103.5095,113.5636 103.3715,114.0786 103.2765,114.4626 C103.1345,115.0426 102.7855,115.5936 102.7445,116.1716 C102.6625,117.3006 102.7805,118.4426 102.7175,119.5746 C102.6935,120.0266 102.4575,120.4896 102.2375,120.9056 C101.7715,121.7836 101.2405,122.6276 100.7685,123.5026 C100.7075,123.6186 100.7965,123.8546 100.8765,124.0026 C101.4815,125.1156 103.5795,125.3756 104.5855,124.6036 C105.9295,123.5716 105.3825,122.1346 105.6065,120.8486 C105.7535,120.0116 106.0225,119.1706 106.3895,118.4046 C106.7525,117.6506 106.6535,115.2186 106.2005,114.4926 C105.8865,113.9926 105.6075,113.3676 105.6015,112.7966 C105.5555,108.0286 105.5605,103.2596 105.5995,98.4916 C105.6045,97.9516 105.7945,97.3256 106.1085,96.8936 C106.9875,95.6876 106.9765,94.2516 106.4455,93.1646 C105.6425,91.5216 104.3965,90.0756 103.2245,88.6396 C102.4265,87.6626 101.3735,86.8986 100.5465,85.9426 C99.9225,85.2216 99.5555,84.2786 98.9205,83.5736 C98.6295,83.2486 97.7955,82.9796 97.5065,83.1616 C96.5735,83.7516 95.7785,84.5616 95.0955,85.1446 L95.0955,85.1446 Z M121.0175,86.2996 C120.0105,86.1826 120.0675,86.8796 120.0685,87.5366 C120.0815,94.4406 120.1155,101.3436 120.0715,108.2466 C120.0675,108.9246 119.5885,109.5996 119.3225,110.2726 C119.2915,110.3516 119.1725,110.4016 119.1535,110.4806 C118.7355,112.1066 118.2335,113.7196 117.9505,115.3696 C117.7855,116.3306 118.0315,117.2986 117.0785,118.0806 C116.7335,118.3626 116.7175,119.3036 116.8555,119.8696 C117.4615,122.3636 115.8625,123.7416 114.2885,125.1096 C113.9665,125.3886 113.3615,125.4146 112.8825,125.4266 C111.4065,125.4656 109.9275,125.4406 107.9645,125.4406 C109.6895,127.1656 109.1955,128.9136 109.2575,130.5826 C109.2725,130.9506 109.4745,131.3596 109.7055,131.6636 C110.5485,132.7786 110.5885,134.1926 109.6765,135.2116 C109.0775,135.8836 109.0095,136.4706 109.7195,137.0726 C110.3045,137.5696 110.2265,138.0026 109.7315,138.5616 C108.9425,139.4526 108.9345,140.4876 109.6995,141.3746 C110.2375,141.9986 110.2885,142.4216 109.6575,142.9606 C109.0045,143.5196 109.1555,144.0716 109.6215,144.7406 C109.9755,145.2506 110.2595,145.9336 110.2685,146.5436 C110.3355,150.9486 110.3205,155.3536 110.3395,159.7586 C110.3415,160.0696 110.2995,160.5216 110.4775,160.6696 C111.7925,161.7696 111.2605,163.2486 111.3855,164.6006 C111.5335,166.2086 111.0175,167.8576 112.2825,169.3896 C112.8115,170.0326 112.3895,171.4126 112.5335,172.4386 C112.6275,173.1066 112.9725,173.7366 113.1835,174.3896 C113.3325,174.8496 113.5415,175.3196 113.5525,175.7886 C113.5945,177.3776 113.5555,178.9686 113.5585,180.5576 C113.5615,181.4806 113.2425,182.5036 114.3255,183.1136 C114.4195,183.1666 114.5215,183.3956 114.4825,183.4656 C113.9205,184.4636 113.4495,185.5486 112.7125,186.4016 C112.2055,186.9906 111.2295,187.1526 110.6305,187.6906 C109.9625,188.2926 109.3195,189.0746 108.4335,188.5186 C107.5635,187.9726 106.6125,187.3316 106.6295,186.0116 C106.6755,182.6976 106.6655,179.3826 106.6675,176.0686 C106.6675,175.6496 106.6075,175.2306 106.5755,174.8116 C106.3935,174.8056 106.2125,174.7986 106.0315,174.7926 C106.0045,175.4336 106.0625,176.0936 105.9315,176.7126 C105.7885,177.3876 105.4625,178.5906 105.2305,178.5866 C104.0505,178.5686 104.4305,177.5116 104.4405,176.8246 C104.4615,175.3776 104.0085,173.7996 105.4405,172.6566 C105.6115,172.5186 105.5485,172.0566 105.5515,171.7446 C105.5655,170.1116 105.4145,168.4566 105.6255,166.8496 C105.7685,165.7576 106.3935,164.7206 106.8615,163.6856 C106.9295,163.5356 107.3905,163.4046 107.5485,163.4896 C107.7905,163.6196 108.1165,163.9836 108.0775,164.1836 C107.7435,165.8886 108.7915,167.7576 107.3015,169.3786 C106.9065,169.8076 106.9205,171.2056 107.3155,171.6456 C108.1705,172.5956 108.1285,173.6086 108.1575,174.6766 C108.1855,175.7206 108.0855,176.7756 108.2015,177.8066 C108.2805,178.5116 108.5445,179.2356 108.8885,179.8606 C109.3125,180.6286 109.1485,183.4876 108.6745,184.2606 C108.4035,184.7036 108.4655,185.3506 108.3775,185.9056 C108.9325,185.8056 109.5945,185.8646 110.0205,185.5746 C111.0695,184.8596 111.6595,184.0286 110.3435,182.8726 C109.6975,182.3036 109.9145,181.5036 110.4865,180.7996 C110.7965,180.4176 111.0245,179.8596 111.0415,179.3726 C111.0935,177.7856 111.0405,176.1946 111.0135,174.6056 C110.9975,173.6226 110.8815,172.7686 110.2545,171.8376 C109.7285,171.0586 110.0535,169.7376 109.8885,168.6746 C109.7765,167.9556 109.4505,167.2716 109.2515,166.5636 C109.1195,166.0946 108.9685,165.6126 108.9535,165.1326 C108.8905,163.2266 109.0455,161.2986 108.7995,159.4196 C108.5655,157.6226 107.9355,155.8766 107.4725,154.0816 C107.4345,154.0936 107.2035,154.1276 107.2025,154.1696 C107.1505,155.9056 106.3695,157.7356 107.8365,159.2886 C107.9825,159.4446 108.1615,159.7276 108.1125,159.8826 C107.9625,160.3516 107.7075,160.7866 107.4935,161.2346 C107.2015,160.9186 106.8385,160.6426 106.6275,160.2786 C104.3215,156.3226 105.9645,152.0036 105.5775,147.8666 C105.2645,144.5356 105.5305,141.1506 105.5285,137.7896 C105.5285,137.4326 105.5895,136.9146 105.3905,136.7466 C104.1285,135.6796 104.5395,134.2626 104.5045,132.9466 C104.4735,131.7656 104.4885,130.5846 104.5075,129.4036 C104.5385,127.5946 103.6605,126.6286 101.8805,126.5556 C101.4265,126.5366 100.9705,126.5126 100.5185,126.5336 C99.4875,126.5816 99.0995,126.1036 98.9975,125.0796 C98.9215,124.3376 98.4595,123.6416 98.2325,122.9066 C97.7315,121.2796 97.1925,119.6576 96.8255,117.9996 C96.6435,117.1786 97.1375,116.0766 96.7535,115.4596 C95.8145,113.9546 96.2365,112.0356 95.5255,110.8076 C94.3885,108.8436 94.8915,106.9666 94.6985,105.0566 C94.6165,104.2466 94.6745,103.4226 94.6765,102.6056 C94.6775,101.8176 94.3355,101.4236 93.5065,101.5076 C93.1475,101.5446 92.7455,101.6056 92.4275,101.4856 C92.0995,101.3626 91.8505,101.0306 91.5675,100.7896 C91.8195,100.5206 92.0245,100.0986 92.3295,100.0076 C94.4285,99.3806 96.1775,98.2376 97.6005,96.5886 C97.7655,96.3966 97.8845,96.1106 97.9055,95.8576 C97.9785,94.9746 98.4365,94.5726 99.3095,94.5266 C100.1335,94.4846 100.3755,93.8766 100.0285,93.2906 C99.2185,91.9286 98.2755,90.6446 97.3785,89.3346 C96.7635,88.4366 95.8865,88.2556 94.8695,88.4026 C94.4695,88.4596 94.0155,88.5126 93.6565,88.3796 C93.2955,88.2446 93.0235,87.8746 92.7125,87.6086 C93.0095,87.3846 93.2905,87.1276 93.6125,86.9476 C93.8815,86.7976 94.2015,86.7366 94.7145,86.5636 C92.2375,85.5666 92.2505,85.5796 94.0755,83.8296 C95.0235,82.9216 95.9405,81.9776 96.8315,81.0116 C97.3485,80.4496 97.7785,80.4306 98.3125,80.9736 C100.6915,83.3926 103.1955,85.7006 105.4285,88.2466 C106.5905,89.5706 107.2785,91.3076 108.1935,92.8506 C108.3515,93.1166 108.6325,93.3196 108.7545,93.5956 C108.8845,93.8956 109.0575,94.4386 108.9305,94.5466 C107.7075,95.5926 108.1365,96.9976 108.1295,98.2466 C108.0825,105.5576 108.1285,112.8696 108.0795,120.1806 C108.0755,120.8706 107.5905,121.5456 107.4075,122.2486 C107.2835,122.7226 107.2955,123.2316 107.2465,123.7256 C107.7435,123.7056 108.2605,123.7666 108.7325,123.6486 C109.4395,123.4706 110.1195,123.1816 110.8015,122.9156 C111.8945,122.4896 113.0005,122.0836 114.0525,121.5726 C114.2585,121.4716 114.3175,120.9306 114.3275,120.5886 C114.3535,119.6816 114.3135,118.7726 114.3055,117.8646 C114.2965,116.8346 114.5425,115.9866 115.0765,114.9976 C115.7995,113.6586 116.8625,112.3106 116.5615,110.4336 C116.3375,109.0326 115.9235,107.3306 117.4645,106.1576 C117.6405,106.0236 117.6025,105.5606 117.6025,105.2496 C117.6085,96.4386 117.6095,87.6276 117.5995,78.8166 C117.5985,78.4656 117.6135,77.9356 117.4085,77.7926 C116.1965,76.9436 116.5025,75.7336 116.4995,74.5756 C116.4985,74.1796 116.5305,73.5826 116.3035,73.4236 C115.1435,72.6036 115.4675,71.4456 115.3795,70.3366 C115.3305,69.7306 114.9645,69.1456 114.7195,68.5606 C114.6345,68.3576 114.3415,68.1446 114.3805,68.0026 C114.8285,66.4206 113.5985,65.3396 113.1585,64.0456 C112.7455,62.8336 111.8595,61.7866 111.2095,60.6526 C110.4125,59.2606 109.6805,57.8306 108.8465,56.4616 C108.4345,55.7826 107.8465,55.2116 107.3575,54.5776 C106.3685,53.2936 104.5495,52.6406 104.4055,50.7066 C104.3965,50.5946 104.2675,50.4216 104.1665,50.3966 C101.5865,49.7746 100.4545,47.3836 98.6315,45.8406 C98.2685,45.5336 98.0525,44.9586 97.9565,44.4696 C97.9045,44.2136 98.1945,43.7326 98.4485,43.6206 C98.6705,43.5226 99.1265,43.7216 99.3595,43.9266 C99.8675,44.3726 100.2245,45.0206 100.7765,45.3846 C102.5935,46.5816 104.3295,47.8896 106.2565,48.9486 C107.5035,49.6326 108.7545,50.6406 109.2295,52.2716 C109.4365,52.9846 110.1645,53.5406 110.6295,54.1866 C110.9075,54.5726 111.4085,55.0506 111.3385,55.3916 C111.0185,56.9806 112.0345,57.8016 112.9885,58.7046 C113.7445,59.4206 114.4795,60.1596 115.2105,60.9016 C115.3945,61.0896 115.7025,61.3776 115.6585,61.5376 C115.2195,63.1226 116.2465,64.3866 116.9265,65.4546 C117.8645,66.9256 117.3795,68.6836 118.0495,69.8216 C118.9215,71.3036 118.6295,72.7626 119.0855,74.1136 C119.4995,75.3376 120.2425,76.4406 120.2275,77.8206 C120.2265,77.9186 120.7425,78.0226 121.0175,78.1236 L121.0175,86.2996 Z" id="Fill-3" fill="#231916"></path>
                <g id="编组" transform="translate(0.000000, 40.552000)">
                    <mask id="mask-4" fill="white">
                        <use xlink:href="#path-3"></use>
                    </mask>
                    <g id="Clip-6"></g>
                    <path d="M17.171,14.3033 C15.518,15.0043 15.228,15.5473 15.829,16.6703 C17.2,15.9083 17.446,15.4993 17.171,14.3033 M5.694,31.9673 C7.856,30.9463 9.157,27.6853 8.078,25.9633 C7.536,28.1983 5.93,29.7923 5.694,31.9673 M33.356,13.9573 C31.899,15.4963 31.471,15.5053 30.192,14.3033 C29.896,14.0263 29.639,13.7073 29.339,13.4343 C28.378,12.5603 27.486,11.5743 26.412,10.8703 C25.44,10.2333 24.075,10.1263 23.222,9.3913 C22.117,8.4413 20.942,8.6553 19.767,8.6153 C18.777,8.5813 18.433,9.3523 18.941,10.1653 C19.198,10.5773 19.361,11.0483 19.567,11.4923 C19.024,11.5883 18.482,11.7203 17.933,11.7673 C17.393,11.8143 16.838,11.7243 16.303,11.7963 C16.039,11.8313 15.806,12.0973 15.782,12.1123 C17.039,12.7343 18.574,13.0463 19.311,13.9853 C20.025,14.8953 20.388,15.9293 21.697,16.1923 C22.386,16.3303 23.01,16.8393 23.696,16.9273 C24.632,17.0473 25.648,16.7273 26.54,16.9513 C27.903,17.2953 29.258,17.8173 30.491,18.4923 C31.815,19.2173 32.039,20.5353 31.903,21.9933 C31.827,22.8133 32.009,23.6743 32.185,24.4933 C32.345,25.2443 32.8,25.9513 32.863,26.6993 C32.978,28.0523 32.967,29.4273 32.868,30.7823 C32.823,31.3983 32.408,31.9793 32.233,32.5963 C32.098,33.0703 31.848,33.8653 32.042,34.0173 C33.068,34.8243 32.673,35.5373 32.278,35.9833 C32.534,37.0993 32.85,37.9313 32.894,38.7763 C32.987,40.5883 33.138,42.4343 32.899,44.2173 C32.666,45.9513 34.052,46.8563 34.402,48.2793 C34.617,47.9753 34.748,47.6903 34.748,47.4043 C34.749,42.2283 34.714,37.0533 34.752,31.8773 C34.757,31.2653 35.247,30.6703 35.334,30.0423 C35.502,28.8303 36.052,27.2603 35.516,26.4573 C34.702,25.2393 34.792,24.0983 34.715,22.8743 C34.653,21.8963 34.849,20.8813 33.887,20.1343 C33.646,19.9473 33.646,19.3783 33.633,18.9823 C33.595,17.8033 33.621,16.6213 33.588,15.4423 C33.577,15.0353 33.465,14.6313 33.356,13.9573 M31.395,12.5073 C29.806,9.5303 29.935,9.3533 33.253,9.3203 C34.59,9.3063 35.832,9.2723 36.749,10.5643 C37.538,11.6783 37.279,12.5633 35.963,12.9853 C35.601,13.1013 35.191,13.6513 35.141,14.0443 C35.023,14.9823 35.103,15.9463 35.109,16.8993 C35.11,17.0793 35.066,17.3353 35.164,17.4283 C36.443,18.6423 35.69,20.4763 36.321,21.6893 C38.182,25.2643 36.798,28.9633 37.221,32.5653 C37.24,32.7363 37.22,32.9993 37.111,33.0833 C35.736,34.1543 36.265,35.6553 36.247,36.9993 C36.188,41.4943 36.215,45.9903 36.145,50.4843 C36.135,51.0483 35.793,51.6333 35.515,52.1613 C35.051,53.0443 34.589,53.9443 33.988,54.7323 C33.43,55.4643 30.507,55.8263 29.817,55.2563 C29.497,54.9913 29.317,54.4153 29.289,53.9683 C29.22,52.8373 29.306,51.6983 29.267,50.5643 C29.228,49.4193 29.127,48.3873 28.473,47.2593 C27.865,46.2123 28.27,44.6113 28.095,43.2723 C27.991,42.4803 27.632,41.7203 27.379,40.9503 C27.31,40.7383 27.129,40.5363 27.132,40.3313 C27.164,38.4053 26.162,36.9253 25.177,35.3923 C24.913,34.9833 25.093,34.2123 25.224,33.6423 C25.414,32.8093 25.858,32.0263 25.983,31.1903 C26.115,30.3023 25.991,29.3783 26.003,28.4703 C26.007,28.1113 25.937,27.5963 26.137,27.4193 C27.523,26.1883 27.046,24.5853 27.079,23.0933 C27.1,22.1673 27.115,21.2973 28.385,21.3373 C29.595,21.3763 29.553,22.2603 29.534,23.0963 C29.508,24.2513 29.516,25.3133 28.79,26.4373 C28.26,27.2583 28.566,28.6303 28.534,29.7563 C28.504,30.8693 28.607,31.9023 27.714,32.9083 C27.117,33.5803 27.025,34.7823 27.99,35.5973 C28.158,35.7403 28.416,35.9503 28.402,36.1093 C28.216,38.2593 30.1,39.9193 29.733,42.1583 C29.522,43.4423 29.401,44.8363 30.5,45.9983 C30.824,46.3403 30.614,47.1443 30.761,47.7073 C30.966,48.4923 31.342,49.2353 31.523,50.0243 C31.678,50.7083 31.649,51.4323 31.733,52.1343 C31.758,52.3373 31.895,52.5273 31.982,52.7243 C33.988,51.7823 34.17,50.3133 32.929,48.6463 C32.152,47.6053 31.718,46.2203 31.44,44.9223 C31.198,43.7933 31.384,42.5713 31.399,41.3913 C31.411,40.4023 31.562,39.4283 30.621,38.6513 C30.335,38.4143 30.361,37.7203 30.359,37.2343 C30.331,31.8333 30.316,26.4333 30.324,21.0323 C30.325,20.1643 30.254,19.5043 29.135,19.5003 C28.846,19.4983 28.517,19.1723 28.277,18.9263 C27.647,18.2793 27.06,18.3903 26.341,18.8183 C25.796,19.1433 25.143,19.4103 24.52,19.4553 C23.027,19.5613 21.525,19.5193 20.027,19.5423 C19.757,19.5473 19.361,19.4673 19.236,19.6103 C17.812,21.2523 17.126,19.7613 16.305,18.9363 C15.812,18.4403 15.373,17.8913 14.664,17.0883 C14.121,18.9233 13.745,20.3713 13.257,21.7823 C12.97,22.6073 12.527,23.3833 12.112,24.1583 C11.573,25.1683 10.992,26.1553 10.428,27.1513 C10.317,27.3453 10.098,27.5413 10.105,27.7303 C10.178,29.7843 8.9,31.2513 7.996,32.9133 C7.043,34.6673 6.433,36.6063 5.487,38.3653 C5.249,38.8073 4.305,39.0383 3.678,39.0513 C3.16,39.0623 2.215,38.6533 2.184,38.3543 C2.064,37.1973 1.317,36.6173 0.543,35.9923 C-0.223,35.3733 -0.15,34.8763 0.578,34.1793 C1.216,33.5693 1.61,32.7013 2.093,31.9343 C2.788,30.8293 3.489,29.7273 4.145,28.5983 C4.93,27.2463 5.664,25.8643 6.43,24.5003 C6.62,24.1583 6.863,23.8453 7.046,23.4993 C7.228,23.1553 7.546,22.7503 7.484,22.4333 C7.256,21.2403 7.772,20.4603 8.618,19.7293 C9.3,19.1393 9.985,18.5063 10.486,17.7673 C10.946,17.0893 11.161,16.2453 11.484,15.4733 C9.58,14.4943 9.319,14.2773 9.64,12.8503 C9.884,11.7623 10.457,10.7393 10.978,9.7353 C11.05,9.5953 11.677,9.6693 12.016,9.7603 C12.675,9.9353 13.297,10.2783 13.962,10.3943 C14.744,10.5293 15.118,10.0953 15.101,9.2793 C15.073,7.9923 14.891,6.7373 16.031,5.6303 C16.451,5.2223 16.205,4.0743 16.173,3.2683 C16.116,1.8813 17.167,1.2883 18.089,0.7263 C18.414,0.5273 19.141,0.9323 19.663,1.1213 C20.067,1.2683 20.415,1.5893 20.824,1.6903 C22.065,1.9963 22.392,3.0023 21.615,4.0163 C21.262,4.4803 20.982,5.0653 20.871,5.6343 C20.676,6.6443 21.149,7.2053 22.234,7.0833 C23.891,6.8973 25.144,7.5103 26.286,8.7363 C26.975,9.4763 28.067,9.8253 28.909,10.4443 C29.238,10.6853 29.503,11.1613 29.578,11.5703 C29.775,12.6403 30.422,12.6823 31.395,12.5073" id="Fill-5" fill="#231916" mask="url(#mask-4)"></path>
                </g>
                <path d="M110.4864,87.8607 C110.2844,88.3237 110.0824,88.7867 109.8804,89.2497 C109.4434,89.0117 108.9334,88.8517 108.5844,88.5217 C107.4334,87.4327 106.3274,86.2957 105.2294,85.1527 C104.4404,84.3307 103.5394,83.6867 103.2554,82.3657 C103.0634,81.4757 102.1654,80.6407 100.8824,80.7257 C100.3624,80.7607 99.8204,80.4677 99.2874,80.3247 C99.5484,79.8597 99.7444,79.3357 100.0884,78.9417 C100.6504,78.2977 101.3924,77.7987 101.9004,77.1197 C102.2154,76.6967 102.3664,76.0547 102.3694,75.5107 C102.3854,72.5677 102.3264,69.6227 102.3134,66.6787 C102.3114,66.3267 102.3104,65.8647 102.5144,65.6397 C103.9824,64.0287 103.7064,62.4517 102.6074,60.7937 C102.4754,60.5937 102.7774,59.8127 102.8554,59.8156914 C103.4444,59.8417 104.0654,59.9147 104.5954,60.1527 C104.8014,60.2457 104.7824,60.8077 104.8964,61.1457 C105.1434,61.8727 105.4984,62.5757 105.6404,63.3217 C105.7564,63.9247 105.8784,64.8397 105.5524,65.1497 C104.8504,65.8177 104.7784,66.5007 104.8204,67.3427 C104.8714,68.3387 104.9184,69.3457 104.8204,70.3337 C104.7624,70.9137 104.3614,71.4497 104.2204,72.0317 C104.0374,72.7927 103.7254,73.6337 103.8924,74.3397 C104.1204,75.2967 104.8764,74.9047 105.5284,74.5827 C106.1424,74.2787 106.8044,73.9617 107.4684,73.8997 C108.2994,73.8207 108.8084,73.7117 108.8754,72.7007 C108.9384,71.7287 109.5604,71.5237 110.2074,72.2147 C110.6804,72.7207 111.2274,73.3297 111.3434,73.9647 C111.7074,75.9487 111.2654,76.3817 109.2514,76.3867 C108.7064,76.3887 108.1314,76.5027 107.6234,76.3667 C105.8414,75.8867 104.6184,77.3247 103.0794,77.6677 C102.9434,77.6977 102.8104,78.8377 103.0534,79.2267 C103.4974,79.9367 104.2854,80.4217 104.8184,81.0887 C105.9164,82.4607 106.9304,83.8987 108.0074,85.2887 C108.1874,85.5227 108.5044,85.8047 108.7564,85.8037 C110.1744,85.7947 110.4074,86.6507 110.4864,87.8607" id="Fill-7" fill="#231916"></path>
                <path d="M102.6681,142.2533 C102.6681,146.6123 102.6911,150.9723 102.6411,155.3303 C102.6351,155.9003 102.2481,156.4633 102.0521,157.0353 C101.8961,157.4873 101.6611,157.9403 101.6351,158.4033 C101.5761,159.3983 101.4421,160.4463 101.6771,161.3893 C102.1531,163.3103 100.8101,164.6673 100.3691,166.2913 C100.1901,166.9503 99.4221,166.9243 99.1421,166.2903 C98.9551,165.8663 98.9651,164.9803 99.2281,164.8003 C100.2831,164.0773 100.0601,163.0813 100.0651,162.1073 C100.0851,159.0193 100.0981,155.9313 100.1291,152.8443 C100.1321,152.4893 100.1081,151.9723 100.3161,151.8093 C101.4571,150.9133 101.1481,149.6963 101.1521,148.5473 C101.1631,145.7313 101.5281,142.8503 101.0371,140.1233 C100.7151,138.3393 100.9991,136.7873 101.1211,135.1113 C101.2711,133.0793 101.0971,131.0243 101.1831,128.9843 C101.2031,128.4873 101.6941,128.0093 101.9691,127.5233 C102.2231,128.0283 102.6901,128.5313 102.6971,129.0413 C102.7561,133.4443 102.7311,137.8493 102.7311,142.2533 C102.7101,142.2533 102.6891,142.2533 102.6681,142.2533" id="Fill-9" fill="#231916"></path>
                <path d="M100.5411,62.5804 C100.5411,64.1234 100.5521,65.6674 100.5361,67.2104 C100.5261,68.2024 100.4331,69.1454 101.2441,69.9994 C101.5131,70.2814 101.1771,71.1264 101.1411,71.7154 C101.1131,72.1684 101.0741,72.6304 101.1281,73.0784 C101.2071,73.7324 101.4381,74.3744 101.4701,75.0284 C101.5101,75.8694 101.1231,76.4194 100.1681,76.3754 C99.2711,76.3334 99.0361,75.7704 99.0301,74.9974 C99.0141,72.6834 98.9871,70.3694 98.9751,68.0554 C98.9691,66.9654 98.9941,65.8754 98.9861,64.7854 C98.9831,64.4274 99.0621,63.9084 98.8651,63.7384 C97.5301,62.5874 98.0161,61.0704 97.9631,59.6714 C97.9111,58.3104 97.8841,56.9464 97.9321,55.5864 C97.9441,55.1994 98.2531,54.8214 98.4271,54.4394 C98.7691,54.5984 99.1481,54.7054 99.4471,54.9244 C100.2771,55.5334 100.5611,56.3504 100.5061,57.4044 C100.4171,59.1254 100.4811,60.8544 100.4811,62.5804 C100.5011,62.5804 100.5201,62.5804 100.5411,62.5804" id="Fill-11" fill="#231916"></path>
                <path d="M107.2179,79.1107 C108.7679,79.0057 109.4359,80.1377 110.1289,81.0177 C110.3759,81.3317 110.0809,82.0737 110.0329,82.6207 C109.6129,82.4977 109.1679,82.4237 108.7749,82.2407 C108.0289,81.8927 107.2599,81.5537 106.6039,81.0707 C106.2249,80.7927 106.0479,80.2397 105.7809,79.8107 C106.2599,79.5777 106.7389,79.3437 107.2179,79.1107" id="Fill-13" fill="#231916"></path>
                <path d="M77.9474,147.3504 C77.5674,147.9904 77.1174,149.2054 76.8194,149.1694 C75.6604,149.0294 76.1844,147.9204 76.0934,147.1794 C76.0394,146.7324 75.9864,146.2414 76.1174,145.8284 C76.2314,145.4684 76.6044,145.1904 76.8634,144.8754 C77.1264,145.1864 77.5064,145.4594 77.6214,145.8174 C77.7534,146.2284 77.6514,146.7154 77.6514,147.1684 L77.9474,147.3504 Z" id="Fill-15" fill="#231916"></path>
                <path d="M63.4835,110.0111 C63.4835,111.3731 63.4985,112.7361 63.4775,114.0971 C63.4635,115.0911 63.3195,116.0751 64.2645,116.8311 C64.5045,117.0221 64.5045,117.5901 64.5065,117.9851 C64.5365,121.3441 64.5375,124.7031 64.5595,128.0621 C64.5625,128.4171 64.5185,128.9331 64.7205,129.0991 C65.9175,130.0811 65.5835,131.3961 65.5885,132.6311 C65.6155,138.0331 65.6245,143.4361 65.6435,148.8391 C65.6445,149.1091 65.5785,149.4771 65.7225,149.6331 C67.4035,151.4481 66.5675,153.6741 66.7315,155.7251 C66.8035,156.6251 66.6245,157.5171 67.4935,158.1991 C67.7385,158.3911 67.7655,158.9471 67.7765,159.3391 C67.8185,160.8811 67.8115,162.4241 67.8295,163.9671 C67.8335,164.2821 67.7425,164.7271 67.9115,164.8921 C69.5205,166.4721 68.7265,168.4731 68.9505,170.2981 C69.0315,170.9611 69.4585,171.5761 69.5875,172.2401 C69.7125,172.8761 69.6545,173.5481 69.6765,174.2041 C69.1985,173.9971 68.5425,173.9161 68.2815,173.5531 C67.8415,172.9391 67.5005,172.1671 67.3975,171.4231 C67.2555,170.3991 67.3855,169.3401 67.3745,168.2961 C67.3715,167.9401 67.4275,167.4301 67.2265,167.2541 C65.8665,166.0641 66.4035,164.4971 66.2565,163.0541 C66.1945,162.4301 65.8775,161.8321 65.6715,161.2231 C65.5305,160.8081 65.2745,160.4001 65.2575,159.9811 C65.1925,158.3491 65.1825,156.7141 65.1885,155.0801 C65.1925,154.0441 65.3575,153.0191 64.3905,152.2101 C64.1295,151.9911 64.1555,151.3611 64.1505,150.9191 C64.1215,148.0131 64.1245,145.1081 64.1005,142.2021 C64.0975,141.8031 64.1525,141.2251 63.9245,141.0371 C62.8225,140.1261 63.0775,138.9251 63.0725,137.7701 C63.0545,133.3661 63.0445,128.9631 63.0205,124.5591 C63.0195,124.2491 63.0535,123.7981 62.8755,123.6501 C61.5975,122.5941 62.0005,121.1701 61.9905,119.8541 C61.9545,115.0421 61.9525,110.2301 61.9395,105.4181 C61.9385,105.1001 61.8645,104.7411 61.9855,104.4751 C62.1535,104.1061 62.4745,103.8071 62.7295,103.4781 C62.9835,103.8401 63.4395,104.1931 63.4555,104.5641 C63.5315,106.3771 63.4895,108.1951 63.4895,110.0111 L63.4835,110.0111 Z" id="Fill-17" fill="#231916"></path>
                <path d="M72.2374,34.7162 C75.2944,34.5732 75.3254,34.5962 76.5614,37.3482 C76.6334,37.5072 76.8124,37.6202 76.8764,37.7802 C77.0374,38.1882 77.1624,38.6102 77.3014,39.0272 C76.7554,39.0872 76.1764,39.2822 75.6724,39.1632 C75.2964,39.0742 74.9824,38.6082 74.6984,38.2622 C73.3424,36.6122 71.4664,36.6972 70.2824,38.3602 C69.5564,39.3792 68.9774,39.3422 68.1664,38.4112 C67.5454,37.6982 67.5394,37.2752 68.2234,36.6162 C69.4514,35.4362 70.5684,34.1322 72.2374,34.7162" id="Fill-19" fill="#231916"></path>
                <path d="M74.4435,41.0453 C74.3705,41.5693 74.3985,41.7433 74.3245,41.8303 C74.1325,42.0543 73.8115,42.4533 73.6925,42.4063 C72.7695,42.0393 71.8665,41.6113 71.0045,41.1183 C70.9015,41.0603 70.9675,40.3623 71.1595,40.1993 C71.6385,39.7923 72.4915,39.1163 72.7365,39.2723 C73.4775,39.7403 74.0015,40.5533 74.4435,41.0453" id="Fill-21" fill="#231916"></path>
                <path d="M71.4727,32.3602 C71.7877,32.3802 72.1487,32.3102 72.4027,32.4442 C72.6667,32.5842 72.8267,32.9212 73.0337,33.1712 C72.5167,33.4122 71.9977,33.8472 71.4847,33.8412 C70.9157,33.8362 70.3517,33.4282 69.7857,33.1952 C69.9897,32.9392 70.1437,32.5782 70.4087,32.4542 C70.7117,32.3132 71.1137,32.3822 71.4727,32.3602" id="Fill-23" fill="#231916"></path>
                <path d="M76.4845,26.4764 C76.9955,27.3804 77.3985,27.9284 77.5915,28.5434 C77.6455,28.7144 77.0745,29.0814 76.7895,29.3584 L75.2075,27.6634 C75.5155,27.3764 75.8245,27.0894 76.4845,26.4764" id="Fill-25" fill="#231916"></path>
                <path d="M78.0362,24.9588 C77.5382,25.4258 77.2242,25.7208 76.9102,26.0158 C76.6262,25.6788 76.0992,25.3258 76.1212,25.0108 C76.1472,24.6148 76.6242,24.2498 76.9072,23.8708 C77.2212,24.1728 77.5342,24.4748 78.0362,24.9588" id="Fill-27" fill="#231916"></path>
                <path d="M70.9288,31.0389 C70.4158,30.5279 70.0898,30.2039 69.7628,29.8789 C70.1138,29.6229 70.4768,29.1469 70.8108,29.1659 C71.2138,29.1899 71.5938,29.6319 71.9848,29.8929 C71.6958,30.2059 71.4078,30.5189 70.9288,31.0389" id="Fill-29" fill="#231916"></path>
                <path d="M67.9288,28.3866 C67.7348,28.0026 67.3348,27.5806 67.3968,27.2426 C67.4698,26.8346 67.9338,26.4966 68.2288,26.1276 C68.4728,26.4966 68.8838,26.8526 68.9108,27.2366 C68.9378,27.6046 68.5648,28.0016 68.3678,28.3866 L67.9288,28.3866 Z" id="Fill-31" fill="#231916"></path>
                <path d="M67.5313,23.2845 C68.0583,23.7715 68.3773,24.0655 68.6953,24.3595 C68.3503,24.6335 68.0173,25.1025 67.6563,25.1255 C67.3063,25.1485 66.9273,24.7115 66.5613,24.4775 C66.8293,24.1485 67.0963,23.8185 67.5313,23.2845" id="Fill-33" fill="#231916"></path>
                <path d="M52.8917,54.3524 C53.1627,54.5534 53.3907,54.6894 53.5807,54.8654 C54.5627,55.7794 55.5627,56.6774 56.4897,57.6444 C56.6907,57.8554 56.6137,58.3314 56.6647,58.6854 C56.3107,58.6574 55.8277,58.7684 55.6227,58.5784 C54.5747,57.6064 53.5857,56.5674 52.6077,55.5234 C52.4567,55.3624 52.3907,55.0404 52.4247,54.8144 C52.4497,54.6524 52.7057,54.5244 52.8917,54.3524" id="Fill-35" fill="#231916"></path>
            </g>
        </g>
    </g>
</svg>