<?xml version="1.0" encoding="UTF-8"?>
<svg width="144px" height="128px" viewBox="0 0 144 128" version="1.1" xmlns="http://www.w3.org/2000/svg" xmlns:xlink="http://www.w3.org/1999/xlink">
    <!-- Generator: Sketch 60 (88103) - https://sketch.com -->
    <title>figure45</title>
    <desc>Created with Sketch.</desc>
    <defs>
        <polygon id="path-1" points="0.000124840236 0.6148 143.858 0.6148 143.858 127.9998 0.000124840236 127.9998"></polygon>
    </defs>
    <g id="页面-1" stroke="none" stroke-width="1" fill="none" fill-rule="evenodd">
        <g id="29-44" transform="translate(-374.000000, -525.000000)">
            <g id="figure45" transform="translate(374.000000, 524.000000)">
                <g id="编组" transform="translate(0.000000, 0.386000)">
                    <mask id="mask-2" fill="white">
                        <use xlink:href="#path-1"></use>
                    </mask>
                    <g id="Clip-2"></g>
                    <path d="M83.0991,8.0118 C82.9951,8.1828 82.8891,8.3528 82.7841,8.5228 C83.1601,8.8048 83.5361,9.0878 83.9111,9.3698 C84.0071,9.1428 84.2361,8.7628 84.1781,8.7128 C83.8571,8.4348 83.4661,8.2378 83.0991,8.0118 L83.0991,8.0118 Z M115.8801,114.2638 C115.9671,114.4218 116.0541,114.5798 116.1401,114.7378 C116.5221,114.5538 116.9351,114.4088 117.2631,114.1548 C117.3381,114.0958 117.1231,113.6628 117.0421,113.4018 C116.6561,113.6898 116.2681,113.9768 115.8801,114.2638 L115.8801,114.2638 Z M107.5941,104.2708 C107.7021,104.4578 107.8081,104.6448 107.9151,104.8308 C108.2851,104.6238 108.6851,104.4538 109.0031,104.1858 C109.0801,104.1198 108.8871,103.7338 108.8191,103.4948 C108.4111,103.7538 108.0021,104.0128 107.5941,104.2708 L107.5941,104.2708 Z M79.9421,8.1388 C79.2281,9.0728 79.2321,9.6438 79.9421,10.3258 L79.9421,8.1388 Z M35.2201,27.6398 C34.5451,27.0648 33.1001,27.0108 32.2171,27.6398 L35.2201,27.6398 Z M102.3161,105.1638 C101.2351,104.8358 100.7451,105.1188 100.2981,106.2378 C101.3121,106.5658 101.7591,105.9008 102.3161,105.1638 L102.3161,105.1638 Z M112.5451,123.4108 C113.2991,123.9938 113.9601,123.8868 114.5301,123.5448 C114.7281,123.4258 114.6871,122.9078 114.7911,122.3988 C113.9151,122.7928 113.3211,123.0618 112.5451,123.4108 L112.5451,123.4108 Z M110.1101,20.8978 C110.8061,20.1728 110.7651,18.6868 110.1101,18.1378 L110.1101,20.8978 Z M50.1931,35.9168 C49.2421,35.2188 48.0101,35.2068 47.2051,35.9168 L50.1931,35.9168 Z M97.7981,59.8298 C97.9001,59.8228 98.0011,59.8158 98.1041,59.8078 C98.4521,58.7068 98.3091,56.7488 97.7981,56.3158 L97.7981,59.8298 Z M39.3691,32.5838 C39.7721,31.3708 38.4221,30.8368 38.4831,29.8268 C37.6751,30.9128 38.0231,31.9438 39.3691,32.5838 L39.3691,32.5838 Z M111.0951,59.7268 C111.1381,59.8398 111.1801,59.9528 111.2231,60.0668 C112.0811,59.7198 112.9391,59.3728 113.8931,58.9878 C112.7601,58.1778 111.7971,58.4838 111.0951,59.7268 L111.0951,59.7268 Z M100.1351,117.6068 C100.8631,117.9908 101.3171,118.2478 101.7881,118.4708 C101.9221,118.5328 102.1841,118.5638 102.2471,118.4898 C102.3631,118.3558 102.4801,118.0478 102.4111,117.9578 C102.0661,117.5128 101.7191,116.9908 101.2451,116.7638 C101.0611,116.6748 100.5401,117.2848 100.1351,117.6068 L100.1351,117.6068 Z M84.8841,80.3808 C85.3511,80.8868 85.6021,81.4078 85.9381,81.4698 C86.6781,81.6088 86.6651,80.9618 86.6681,80.4418 C86.6701,79.9198 86.6911,79.2868 85.9391,79.4118 C85.6171,79.4648 85.3611,79.9238 84.8841,80.3808 L84.8841,80.3808 Z M28.5661,27.5528 C28.8391,26.6268 27.8111,25.3618 26.9651,25.5738 C26.7581,25.6248 26.4951,25.8968 26.4651,26.0988 C26.4341,26.3098 26.5891,26.6688 26.7711,26.7698 C27.3181,27.0718 27.9161,27.2788 28.5661,27.5528 L28.5661,27.5528 Z M108.6461,91.6048 L108.8221,91.1978 C108.6381,90.9248 108.4121,90.6708 108.2821,90.3738 C108.1441,90.0628 108.0971,89.7108 108.0111,89.3758 C107.8751,89.3408 107.7391,89.3048 107.6031,89.2688 C107.3241,89.8658 107.0451,90.4618 106.7661,91.0588 C107.3931,91.2408 108.0191,91.4228 108.6461,91.6048 L108.6461,91.6048 Z M113.9141,81.6758 C113.1081,81.8028 112.4621,81.8648 111.8471,82.0378 C111.7441,82.0678 111.6461,82.6668 111.7711,82.8488 C112.0581,83.2638 112.4841,83.5838 112.8581,83.9468 C113.2501,83.1028 113.5241,82.5138 113.9141,81.6758 L113.9141,81.6758 Z M51.4061,38.0738 C51.4061,38.9708 51.3761,39.7908 51.4361,40.6048 C51.4461,40.7388 51.8621,40.9498 52.0701,40.9288 C52.2741,40.9078 52.5531,40.6728 52.6271,40.4698 C52.9781,39.5038 52.5871,38.6998 51.4061,38.0738 L51.4061,38.0738 Z M98.3101,52.9528 C97.4471,53.2878 96.8961,53.4438 96.4111,53.7168 C96.1961,53.8378 95.9841,54.2088 96.0071,54.4428 C96.0301,54.6568 96.3641,54.9938 96.5721,55.0028 C97.0651,55.0238 97.8001,55.0508 98.0061,54.7648 C98.3021,54.3538 98.2141,53.6658 98.3101,52.9528 L98.3101,52.9528 Z M130.4861,125.2228 C129.6801,124.7438 129.1501,124.3648 128.5651,124.1118 C128.2971,123.9958 127.8811,124.0498 127.6131,124.1858 C127.4611,124.2618 127.3361,124.7858 127.4341,124.8918 C127.8761,125.3718 128.3611,126.0358 128.9121,126.1228 C129.3701,126.1968 129.9411,125.5598 130.4861,125.2228 L130.4861,125.2228 Z M60.1141,35.4908 C58.8181,35.4908 57.7491,35.4648 56.6851,35.5178 C56.5211,35.5258 56.2611,35.8888 56.2521,36.0968 C56.2441,36.3088 56.4371,36.6298 56.6321,36.7338 C57.6131,37.2508 59.2661,36.7458 60.1141,35.4908 L60.1141,35.4908 Z M86.2531,117.0628 C86.6341,117.0628 87.0241,117.1238 87.3821,117.0438 C87.7031,116.9728 88.0491,116.7998 88.2631,116.5618 C88.3621,116.4528 88.1971,115.8778 88.1071,115.8658 C87.7351,115.8198 87.1921,115.7618 86.9931,115.9738 C86.4661,116.5328 86.1331,116.5058 85.6981,115.9148 C85.4801,115.6198 85.1891,115.3178 84.8631,115.1838 C84.5401,115.0508 84.1311,115.1238 83.7611,115.1078 C83.7811,115.4778 83.6701,115.9328 83.8451,116.2028 C84.4021,117.0668 85.2671,117.2998 86.2531,117.0628 L86.2531,117.0628 Z M88.8961,101.7888 C88.8341,101.7488 88.7591,101.6698 88.6691,101.6468 C87.1611,101.2448 85.9611,102.1718 84.6541,102.6128 C84.4961,102.6648 84.3531,103.0908 84.3961,103.3048 C84.4391,103.5128 84.6991,103.7678 84.9141,103.8348 C85.9311,104.1538 88.4511,102.9258 88.9331,101.9148 C88.9441,101.8928 88.9151,101.8528 88.8961,101.7888 L88.8961,101.7888 Z M67.3501,41.0878 C67.3401,40.9818 67.3301,40.8738 67.3221,40.7668 C66.0361,40.3668 64.7671,39.8888 63.4561,39.5968 C62.4801,39.3798 61.4111,39.6268 60.5381,38.8638 C60.4151,38.7568 59.8931,39.1078 59.5551,39.2458 C59.7861,39.5468 59.9571,39.9848 60.2611,40.1148 C60.6461,40.2798 61.1381,40.2048 61.5851,40.2158 C62.4361,40.2358 63.1871,40.4098 64.0131,40.7728 C64.9841,41.1998 66.2261,41.0098 67.3501,41.0878 L67.3501,41.0878 Z M81.2781,39.7198 C81.6171,40.4618 82.0471,40.9758 82.8851,40.9758 C83.7781,40.9768 84.6751,40.9828 85.5631,41.0728 C86.0091,41.1178 86.4291,41.3878 86.8751,41.4958 C87.2731,41.5928 87.6941,41.6508 88.0961,41.6208 C88.1821,41.6158 88.3571,40.9928 88.2801,40.9348 C87.9861,40.7128 87.6181,40.5318 87.2541,40.4708 C86.3171,40.3158 85.2271,40.4858 84.4541,40.0598 C83.3791,39.4668 82.3731,39.7078 81.2781,39.7198 L81.2781,39.7198 Z M102.1251,43.7728 C102.3041,44.6838 102.3721,45.4348 102.6151,46.1248 C102.7741,46.5798 103.1321,47.0118 103.5111,47.3188 C103.6281,47.4128 104.1031,47.0608 104.4181,46.9228 C104.5731,46.8558 104.7521,46.8368 104.8941,46.7528 C105.4161,46.4448 105.9271,46.1178 106.4421,45.7978 C106.4131,45.6908 106.3861,45.5828 106.3581,45.4758 C104.7751,45.3218 103.6601,43.9218 102.1251,43.7728 L102.1251,43.7728 Z M100.6331,60.4668 C100.5311,60.4718 100.4281,60.4758 100.3261,60.4798 C100.2551,60.6918 100.2151,60.9198 100.1071,61.1108 C99.9681,61.3518 99.7741,61.5608 99.6031,61.7838 C99.4221,61.5728 99.2081,61.3798 99.0691,61.1448 C98.9371,60.9208 98.8831,60.6528 98.7941,60.4038 C98.6601,60.4298 98.5241,60.4558 98.3881,60.4828 C98.5001,61.3948 98.5701,62.3148 98.7401,63.2158 C98.8541,63.8188 99.2281,64.3838 99.2771,64.9838 C99.3641,66.0428 99.2771,67.1158 99.2931,68.1808 C99.2971,68.4368 99.4221,68.6918 99.5601,69.1998 C99.9831,67.5628 100.4301,66.2518 100.6381,64.9048 C100.8261,63.6898 100.7601,62.4348 100.7841,61.1978 C100.7871,60.9548 100.6861,60.7108 100.6331,60.4668 L100.6331,60.4668 Z M124.5011,54.7928 C123.9511,54.4198 123.1991,54.1748 123.1451,53.8238 C123.0081,52.9228 122.5591,52.7808 121.8161,52.8198 C121.2011,52.8508 120.5801,52.8018 119.9651,52.8328 C119.1641,52.8738 118.7211,53.3428 118.3871,54.3298 C121.1841,53.7278 122.7241,54.9868 123.5741,57.6998 C123.9751,57.0908 124.4861,56.4008 124.4451,56.3658 C123.7161,55.7538 124.1451,55.2348 124.5011,54.7928 L124.5011,54.7928 Z M96.3411,49.1428 C96.3561,48.9858 96.3701,48.8288 96.3831,48.6718 C95.2291,48.3998 94.0811,48.0938 92.9191,47.8628 C91.3081,47.5398 89.6861,47.2778 88.0711,46.9788 C87.9451,46.9548 87.8421,46.8248 87.7151,46.7818 C87.1571,46.5928 86.6011,46.3268 86.0291,46.2798 C85.7651,46.2578 85.4651,46.6728 85.1831,46.8898 C85.4551,47.1258 85.6941,47.4568 86.0101,47.5748 C86.4121,47.7238 87.0651,47.5348 87.2821,47.7818 C87.9701,48.5658 88.8191,48.3888 89.6601,48.4378 C90.7981,48.5018 91.8831,48.4868 93.0231,49.0528 C93.9221,49.4988 95.2211,49.1428 96.3411,49.1428 L96.3411,49.1428 Z M75.3831,41.7428 C76.1461,41.8108 76.9781,41.6328 77.3061,41.9608 C78.1241,42.7798 79.0541,42.5568 79.9821,42.6648 C80.3511,42.7078 80.9721,43.0298 80.9891,43.2588 C81.0671,44.3378 81.7231,44.3328 82.5001,44.2778 C83.0141,44.2408 83.5521,44.3408 84.0411,44.2228 C84.3801,44.1418 84.6551,43.7928 84.9571,43.5648 C84.6741,43.3418 84.4221,43.0408 84.1021,42.9118 C83.1211,42.5178 81.8181,42.4628 81.1831,41.7748 C80.0101,40.5018 78.7081,40.4138 77.2021,40.4388 C76.3011,40.4528 75.8251,40.8608 75.3831,41.7428 L75.3831,41.7428 Z M93.0111,87.6548 C92.8911,87.6958 92.7721,87.7368 92.6521,87.7778 C92.6731,88.1358 92.7501,88.5018 92.6991,88.8498 C92.6441,89.2268 92.4831,89.5918 92.3411,89.9508 C92.1911,90.3348 91.7931,90.7668 91.8791,91.0728 C92.1551,92.0498 92.4321,93.1088 93.0271,93.8978 C93.8841,95.0348 94.9941,95.9918 96.0591,96.9558 C96.2851,97.1588 96.7871,97.0568 97.1621,97.0948 C97.1611,96.7208 97.2991,96.2608 97.1311,95.9898 C96.5191,95.0018 95.5931,94.1578 95.1891,93.1058 C94.8021,92.1008 93.9691,91.2978 94.0071,90.0378 C94.0321,89.2548 93.3671,88.4498 93.0111,87.6548 L93.0111,87.6548 Z M99.5151,104.6958 C99.9381,104.2958 100.2411,103.9288 100.6191,103.6748 C101.0171,103.4078 101.4771,103.2228 101.9281,103.0508 C102.8171,102.7128 103.7191,102.4098 104.6141,102.0858 C104.6681,102.0658 104.7091,101.9908 104.7441,101.9328 C105.2601,101.0688 104.3741,99.2468 103.3401,99.1938 C101.9371,99.1208 100.5121,99.0578 99.1281,99.2358 C98.5811,99.3058 98.0311,99.9738 97.6701,100.4988 C97.5541,100.6678 97.9691,101.3228 98.2691,101.6318 C98.9281,102.3108 99.5911,102.9338 99.2521,104.0208 C99.2081,104.1608 99.3801,104.3668 99.5151,104.6958 L99.5151,104.6958 Z M75.7641,44.6318 C74.3001,45.4568 74.2431,45.8238 75.0121,46.9788 C75.4861,47.6898 75.7161,48.5568 76.1201,49.3208 C76.6481,50.3168 77.0291,51.5638 77.8611,52.1778 C78.7291,52.8198 79.6951,53.3448 80.5301,54.0868 C81.0441,54.5448 81.6511,54.1118 81.6531,53.3618 C81.6571,51.5388 81.6551,49.7168 81.6401,47.8958 C81.6391,47.6788 81.5451,47.4628 81.4901,47.2258 C81.3121,47.2648 81.1821,47.2528 81.1261,47.3118 C80.4551,48.0238 79.8151,48.0958 79.1211,47.3168 C78.9671,47.1428 78.6411,47.0698 78.3851,47.0448 C76.6311,46.8818 76.1201,46.4338 75.7641,44.6318 L75.7641,44.6318 Z M79.7201,39.3068 C79.7221,39.1598 79.7241,39.0138 79.7271,38.8668 C79.3841,38.8368 79.0391,38.8238 78.7011,38.7728 C78.1071,38.6808 77.5091,38.5958 76.9271,38.4488 C76.4871,38.3388 76.0791,38.0508 75.6381,37.9968 C74.9581,37.9148 74.2491,38.0468 73.5771,37.9398 C72.9031,37.8318 72.2681,37.4978 71.5971,37.3468 C71.0021,37.2128 70.3811,37.1928 69.7721,37.1208 C69.7381,37.2178 69.7031,37.3158 69.6691,37.4118 C69.8261,37.6138 70.0711,37.7948 70.1191,38.0188 C70.2031,38.4128 70.1651,38.8338 70.1791,39.2428 C69.8321,39.1528 69.4541,39.1168 69.1471,38.9518 C68.8861,38.8128 68.7101,38.5188 68.4931,38.2988 C67.2311,37.0298 65.7681,36.2588 63.9151,36.3108 C63.3191,36.3258 62.6711,36.2438 62.1331,36.0098 C61.7451,35.8408 61.4581,35.4688 61.1031,35.9488 C60.8341,36.3118 60.6421,36.7308 60.4151,37.1248 C60.7801,37.3048 61.1281,37.5658 61.5131,37.6448 C62.1111,37.7678 62.8441,37.5758 63.3251,37.8548 C64.7091,38.6578 66.0691,39.2408 67.7301,39.3978 C68.7251,39.4918 69.6811,40.3458 70.8331,40.3408 C70.9311,40.3408 71.0251,40.5258 71.1291,40.6148 C71.7801,41.1618 73.5591,40.9948 74.3051,40.6098 C75.3981,40.0438 76.3561,39.0628 77.7851,39.2898 C78.4141,39.3898 79.0741,39.3068 79.7201,39.3068 L79.7201,39.3068 Z M98.5581,35.4368 C96.8501,37.5158 95.1921,39.5338 93.5231,41.5678 C94.0381,42.0388 94.5441,42.3728 94.8601,42.8358 C95.0761,43.1528 95.1531,43.6878 95.0471,44.0538 C94.9801,44.2848 94.4801,44.4548 94.1451,44.5338 C92.8091,44.8538 92.1891,43.8208 91.4461,43.0378 C90.9461,42.5128 90.5411,41.8918 89.7251,42.7408 C89.3121,43.1698 88.6581,43.4178 88.0661,43.6038 C87.7291,43.7088 87.2901,43.5608 86.9181,43.4548 C86.6961,43.3928 86.5111,43.1918 86.2701,43.0258 C85.8041,44.7828 85.9691,44.9338 87.4971,45.1108 C89.3191,45.3228 91.1201,45.6958 92.9301,46.0038 C93.0271,46.0208 93.1101,46.1058 93.2061,46.1368 C93.8621,46.3458 94.5151,46.5648 95.1781,46.7498 C95.6601,46.8838 96.2891,46.8188 96.6181,47.1088 C97.6061,47.9848 98.6291,47.4978 99.4951,47.5448 C99.3211,46.6418 99.1731,45.8758 99.0231,45.1118 C99.0031,45.0118 98.9991,44.8728 98.9341,44.8228 C97.8001,43.9398 98.2951,42.6828 98.1651,41.5678 C98.1231,41.2048 98.0381,40.8438 97.9371,40.4918 C97.7651,39.8988 97.4821,39.3238 97.3981,38.7198 C97.3101,38.0898 97.6421,37.6678 98.3601,37.6788 C99.0461,37.6898 99.2291,38.1158 99.2401,38.7008 C99.2561,39.6638 99.2621,40.6268 99.3001,41.5888 C99.3121,41.8818 99.4151,42.1708 99.4771,42.4618 C99.5881,42.4568 99.7011,42.4528 99.8121,42.4488 C99.8581,42.1478 99.9481,41.8458 99.9431,41.5448 C99.9211,40.2028 99.7861,38.8578 99.8621,37.5238 C99.9151,36.5768 99.4961,36.0578 98.5581,35.4368 L98.5581,35.4368 Z M104.6201,43.4318 C105.1191,43.3718 106.1101,43.5308 106.3561,43.1738 C107.2611,41.8638 108.2351,41.9218 109.3671,42.6638 C109.6721,42.8658 109.9541,43.2208 110.0741,43.5658 C110.4371,44.6158 109.7271,45.2528 109.0791,45.9268 C108.4521,46.5788 107.9171,47.4068 106.9911,46.3528 C106.6801,46.6408 106.3671,46.8318 106.1941,47.1118 C105.8391,47.6858 104.7201,47.9878 105.1991,48.7948 C105.4231,49.1748 106.3871,49.1348 107.0221,49.2518 C108.1781,49.4648 109.0861,49.0628 109.8021,48.1328 C109.9761,47.9068 110.2661,47.7088 110.5401,47.6318 C111.9931,47.2218 113.0991,45.7668 113.1281,44.2838 C113.1391,43.7678 113.2541,43.2028 113.4961,42.7548 C113.8001,42.1938 114.2071,39.4378 113.7471,39.0108 C112.9871,38.3038 113.1191,37.4748 113.1051,36.6298 C113.0981,36.1828 113.2451,35.6288 113.0361,35.3108 C112.6601,34.7368 112.1101,33.9548 111.5541,33.8868 C110.6041,33.7698 110.9571,34.7398 110.9501,35.2848 C110.9231,37.1788 110.9721,39.0738 110.9251,40.9668 C110.9171,41.2968 110.5881,41.6178 110.4081,41.9438 C110.1841,41.6188 109.7711,41.2978 109.7671,40.9708 C109.7441,38.6318 109.8101,36.2908 109.8261,33.9498 C109.8281,33.6808 109.6921,33.4098 109.6081,33.0938 C109.0811,33.8738 108.7341,34.5778 108.2081,35.1038 C107.8601,35.4518 107.2441,35.5218 106.7671,35.7548 C105.5561,36.3498 104.4931,37.3288 102.9841,37.1108 C102.6131,37.0568 102.2271,37.1168 101.8481,37.1048 C101.2331,37.0818 101.0241,37.3838 100.9751,37.9798 C100.8461,39.5658 101.1411,41.0348 101.8641,42.1818 L103.8981,42.1818 C103.9071,42.1328 103.9281,41.8678 103.9991,41.6178 C104.1671,41.0228 104.9111,40.8738 104.9951,41.3938 C105.0851,41.9578 104.7961,42.5828 104.6201,43.4318 L104.6201,43.4318 Z M102.2851,58.1568 C102.1241,57.9198 101.8691,57.7138 101.8551,57.4918 C101.8081,56.7438 101.5921,55.8468 101.9151,55.2758 C102.3541,54.4998 102.4551,54.0608 101.7991,53.4078 C101.5701,53.1788 101.5301,52.5258 101.6901,52.2118 C101.8131,51.9688 102.4281,51.7958 102.7421,51.8848 C103.0341,51.9678 103.2491,52.4178 103.4311,52.7448 C103.5201,52.9048 103.4601,53.1508 103.4591,53.3568 C103.4551,54.2118 103.2921,55.1628 104.6311,55.1538 C104.7381,55.1538 104.8631,55.2968 104.9511,55.3988 C105.5401,56.0838 106.0671,56.0108 106.6701,55.3668 C107.2561,54.7428 107.7121,54.2188 106.7571,53.5258 C106.6151,53.4218 106.6981,53.0058 106.6771,52.7348 C106.9461,52.7798 107.3391,52.7298 107.4591,52.8868 C107.8531,53.4058 108.1201,54.0178 108.4931,54.5538 C108.6431,54.7698 108.9251,54.9728 109.1791,55.0258 C111.3481,55.4738 113.3121,54.4978 115.3591,54.0888 C115.3871,54.0838 115.3941,53.9678 115.4301,53.8298 C114.1881,53.3008 113.0231,52.5658 111.5401,52.8008 C111.0671,52.8758 110.4701,52.7988 110.0651,52.5618 C108.7291,51.7798 107.4561,50.9768 105.7821,51.1468 C104.6581,51.2608 103.5101,51.1688 102.3751,51.1238 C102.1441,51.1158 101.8471,50.9508 101.7211,50.7638 C101.6431,50.6488 101.8001,50.3368 101.9071,50.1428 C102.2811,49.4548 102.6791,48.7818 103.0521,48.1298 C102.3941,47.8078 101.8021,47.5178 100.9221,47.0868 C101.0181,47.6018 101.0531,47.9428 101.1491,48.2658 C101.2461,48.5958 101.4041,48.9078 101.5351,49.2288 C101.1931,49.3268 100.8501,49.5088 100.5081,49.5068 C99.8181,49.5028 99.3061,49.5408 99.2791,50.4548 C99.2591,51.1028 98.7911,51.1518 98.3351,50.7818 C97.4771,50.0828 96.7111,50.3268 95.7911,50.7588 C95.1531,51.0588 94.1161,51.2328 93.6061,50.9098 C92.8961,50.4598 92.2411,50.4038 91.4951,50.3328 C89.9801,50.1888 88.3151,50.8798 86.9961,49.5578 C86.9221,49.4838 86.7281,49.5058 86.5941,49.5208 C84.9331,49.7088 84.3481,48.2968 83.4831,47.3568 C83.3181,47.1778 83.5401,46.6068 83.6411,46.2328 C83.6971,46.0278 83.8701,45.8548 84.0031,45.6488 C82.9291,45.3018 82.6561,45.5208 82.6821,46.5818 C82.7281,48.4068 82.7841,50.2308 82.7921,52.0548 C82.8001,53.5268 83.4261,54.2148 84.8671,54.2198 C86.2101,54.2248 87.5601,54.1418 88.8971,54.2418 C90.3651,54.3528 91.4511,53.5628 92.5661,52.8698 C93.3791,52.3658 94.0231,52.4998 94.2471,53.4158 C94.3001,53.6288 94.3921,53.8328 94.4651,54.0408 C94.7961,53.8128 94.9491,53.5628 94.9651,53.3038 C95.0621,51.8168 95.0851,51.7818 96.5581,51.7408 C96.9371,51.7308 97.3161,51.7098 97.6941,51.7078 C99.2271,51.7018 100.1011,52.5748 100.1111,54.0958 C100.1131,54.3298 100.0971,54.6648 100.2351,54.7818 C101.1191,55.5238 100.8801,56.5278 100.9321,57.4648 C100.9821,58.3718 101.2121,58.5058 102.2851,58.1568 L102.2851,58.1568 Z M81.5271,76.9318 C81.3701,76.9848 81.2151,77.0378 81.0591,77.0908 C81.1831,77.7398 81.2721,78.3988 81.4431,79.0338 C81.5671,79.4958 81.9291,79.9198 81.9591,80.3758 C82.0321,81.4738 81.9641,82.5788 81.9711,83.6818 C81.9731,83.9858 81.9351,84.3618 82.0901,84.5798 C82.9381,85.7768 83.7961,86.9698 84.7421,88.0878 C85.1881,88.6158 85.2491,88.9558 84.6691,89.3288 C83.8361,89.8638 83.0481,90.5518 82.1361,90.8498 C81.4161,91.0848 81.0391,91.2698 81.1311,92.0478 C81.2031,92.6438 81.1141,93.2988 81.3351,93.8278 C81.6761,94.6408 82.2311,95.3628 82.6761,96.1338 C82.9211,96.5598 83.1911,96.9888 83.3261,97.4508 C83.4011,97.7088 83.2441,98.0478 83.1521,98.3378 C83.0451,98.6728 82.8961,98.9938 82.7661,99.3228 C83.1221,99.4588 83.4751,99.7028 83.8351,99.7158 C85.2461,99.7618 86.6611,99.7258 88.0731,99.7428 C88.3721,99.7468 88.7101,99.7728 88.9631,99.9108 C89.9141,100.4348 90.6571,100.0608 90.7271,98.9458 C90.7751,98.1908 90.7541,97.4308 90.7541,96.6728 C90.7551,96.0328 90.9571,95.5988 91.7031,95.6198 C91.8841,95.6248 92.0681,95.5238 92.3211,95.4508 C92.2141,95.2308 92.1821,95.0068 92.0691,94.9528 C90.3831,94.1408 90.8431,92.2268 90.0381,90.9348 C89.4071,89.9188 89.0951,89.3228 87.8441,89.2118 C87.4141,89.1738 86.9751,88.9188 86.5991,88.6728 C85.0611,87.6708 84.7461,86.2238 84.9301,84.4688 C85.0391,83.4258 85.4231,82.1778 84.2081,81.3688 C84.1061,81.3008 84.0751,81.0428 84.0941,80.8838 C84.3491,78.7658 82.3481,78.2718 81.5271,76.9318 L81.5271,76.9318 Z M124.2231,45.0808 C124.3671,45.1058 124.5111,45.1288 124.6551,45.1538 C124.5451,43.6828 125.2391,43.3198 126.4041,43.4488 C127.0681,43.5228 127.4721,43.7498 127.4391,44.4408 C127.4061,45.1388 127.7521,46.0338 126.5731,46.2198 C126.2941,46.2638 125.9611,46.4888 125.8091,46.7288 C125.0731,47.8978 124.4721,49.1598 123.6561,50.2668 C123.1771,50.9138 123.0791,51.3608 123.7181,51.8118 C124.3641,52.2678 125.1151,52.5778 125.7401,53.0558 C126.3191,53.4978 126.7521,53.5048 127.2611,52.9898 C127.6901,52.5548 128.1131,52.0068 128.6491,51.8058 C130.4121,51.1458 131.3231,49.9898 131.3171,48.1498 C131.3131,47.1848 131.2581,46.2148 131.3311,45.2558 C131.4371,43.8948 130.6541,42.8568 129.9321,41.9468 C129.1011,40.8968 128.1611,39.9228 126.7571,39.3348 C125.7131,38.8998 124.9971,37.6598 123.5881,37.8618 C123.5331,37.8698 123.4631,37.8118 123.4051,37.7758 C122.6431,37.3068 121.9361,36.6168 121.1091,36.4128 C119.4211,35.9988 118.2011,34.4138 116.3061,34.5798 C116.1371,34.5958 115.9561,34.3888 115.7691,34.3168 C115.3571,34.1588 114.9381,34.0218 114.5221,33.8758 C114.4211,34.2828 114.2351,34.6948 114.2471,35.0978 C114.2571,35.4368 114.5041,35.7668 114.6401,36.1038 C114.7761,36.4408 115.0051,36.7778 115.0171,37.1198 C115.0721,38.7388 115.0391,40.3588 115.0851,41.9768 C115.1561,44.4298 114.5201,46.5718 112.5461,48.1858 C112.1211,48.5328 111.7161,48.9168 111.3691,49.3398 C111.2181,49.5248 111.1131,50.0168 111.1991,50.0798 C111.6451,50.4078 112.1331,50.7278 112.6571,50.8928 C113.8521,51.2698 115.0771,51.5488 116.2861,51.8838 C116.4041,51.9168 116.5011,52.0498 116.5941,52.1508 C117.1791,52.7888 117.6621,52.6278 118.2501,52.0778 C118.7451,51.6178 119.3891,51.0368 119.9771,51.0258 C120.9491,51.0068 121.5441,50.5658 122.0491,49.9128 C122.2191,49.6948 122.1041,49.2528 122.1191,48.9128 C121.8651,49.0248 121.5951,49.1098 121.3611,49.2528 C120.9211,49.5248 120.5031,49.8288 120.0771,50.1198 C119.9631,49.5848 119.8431,49.0508 119.7411,48.5148 C119.7161,48.3828 119.7441,48.2398 119.7561,48.1028 C119.8531,47.0878 119.1361,46.4368 118.4041,46.2828 C117.1161,46.0148 116.6331,44.9368 115.8371,44.1928 C115.6261,43.9958 115.7091,43.3358 115.8561,42.9688 C115.9331,42.7748 116.4981,42.5968 116.7351,42.6898 C117.0411,42.8098 117.2321,43.2128 117.4871,43.4818 C117.7521,43.7618 118.0171,44.0498 118.3181,44.2898 C118.6001,44.5168 118.9641,44.6468 119.2291,44.8888 C119.8691,45.4738 120.4721,46.0988 121.0901,46.7068 C121.1791,46.6788 121.2691,46.6508 121.3591,46.6218 C121.2181,45.4258 122.6121,44.7018 122.1931,43.3888 C122.1471,43.2468 122.5301,42.9678 122.7141,42.7518 C122.9181,42.9768 123.1631,43.1768 123.3191,43.4308 C123.6451,43.9658 123.9241,44.5298 124.2231,45.0808 L124.2231,45.0808 Z M103.5651,97.2248 C103.4221,96.1368 103.3221,95.2298 103.1751,94.3308 C103.1221,94.0068 102.9591,93.7008 102.8451,93.3878 C102.6781,92.9268 102.3771,92.4688 102.3681,92.0048 C102.3201,89.8678 102.3651,87.7308 102.3471,85.5928 C102.3431,85.1958 102.3391,84.6418 102.0981,84.4338 C101.4331,83.8578 101.5551,83.1588 101.5121,82.4438 C101.4831,81.9508 101.3281,81.4618 101.1911,80.9828 C101.0481,80.4818 100.7271,79.9958 100.7141,79.4968 C100.6541,77.2578 100.7031,75.0168 100.6361,72.7778 C100.6271,72.4718 100.1941,72.1788 99.9571,71.8808 C99.7481,72.1728 99.3831,72.4508 99.3561,72.7598 C99.1901,74.6228 99.8621,76.6038 98.5221,78.2968 C98.2971,78.5798 98.1091,78.8918 97.9031,79.1908 C97.7091,78.8418 97.4121,78.5108 97.3501,78.1398 C97.2871,77.7578 97.3101,77.1738 97.5471,76.9658 C98.3001,76.3058 98.1621,75.4968 98.1641,74.6808 C98.1681,73.5438 98.2901,72.3978 98.1871,71.2718 C98.0371,69.6188 98.7681,67.8248 97.4541,66.3358 C97.3431,66.2098 97.3811,65.9378 97.3781,65.7328 C97.3631,64.5608 97.3701,63.3888 97.3361,62.2178 C97.3281,61.8878 97.3281,61.4248 97.1281,61.2558 C96.4341,60.6698 96.5021,59.9208 96.5041,59.1648 C96.5061,58.7518 96.6451,58.2848 96.4971,57.9368 C96.2511,57.3538 95.9121,56.7438 95.4421,56.3438 C95.1621,56.1068 94.3401,57.2728 94.3571,57.9478 C94.3721,58.6018 94.4251,59.2588 94.3831,59.9098 C94.3621,60.2618 94.1901,60.6088 94.0631,60.9488 C93.9051,61.3678 93.5371,61.8018 93.5821,62.1928 C93.8761,64.7628 92.5881,66.6038 90.8911,68.2618 C90.7421,68.4078 90.3681,68.3258 90.0971,68.3498 C90.1131,68.1028 90.0481,67.8098 90.1581,67.6148 C90.5781,66.8638 91.0851,66.1588 91.5011,65.4058 C91.8391,64.7938 92.2451,64.1588 92.3501,63.4918 C92.5151,62.4518 92.0571,61.2788 93.1491,60.4758 C93.2251,60.4188 93.1971,60.2138 93.2071,60.0768 C93.3941,57.8008 93.3841,57.7908 91.0761,57.7898 C90.7311,57.7898 90.3861,57.7938 90.0411,57.7898 C89.3881,57.7828 88.7961,57.7778 88.2511,58.3428 C88.0351,58.5698 87.3251,58.3858 86.8591,58.2908 C86.3161,58.1808 85.8061,57.8678 85.2641,57.8128 C84.4451,57.7288 83.6001,57.8728 82.7871,57.7648 C82.0771,57.6698 81.4081,57.2728 80.6981,57.1698 C79.8321,57.0438 78.8641,56.8548 78.0871,57.1218 C77.3381,57.3808 76.7201,58.1228 76.9371,59.1878 C76.9971,59.4858 76.7011,59.8568 76.5671,60.1938 C76.4331,60.5298 76.1881,60.8628 76.1811,61.2008 C76.1341,63.4418 76.1301,65.6818 76.1331,67.9218 C76.1341,68.2558 76.1291,68.7328 76.3291,68.8978 C77.0661,69.5048 76.9711,70.2838 76.9611,71.0738 C76.9461,72.2808 76.9321,73.4868 76.9461,74.6938 C76.9491,74.9898 76.9581,75.4288 77.1371,75.5538 C77.9971,76.1528 77.7401,77.0038 77.7911,77.8088 C77.8181,78.2248 77.9771,78.6368 78.1091,79.0398 C78.2601,79.5028 78.5821,79.9488 78.5981,80.4088 C78.6611,82.3378 78.6191,84.2698 78.6601,86.1998 C78.6671,86.5818 78.8621,86.9638 78.9871,87.3408 C79.1311,87.7758 79.4031,88.1998 79.4271,88.6378 C79.4741,89.4938 79.3711,90.3578 79.3661,91.2188 C79.3641,91.5098 79.4661,91.8018 79.5211,92.0938 C79.6191,92.0938 79.7151,92.0948 79.8131,92.0948 C79.8851,91.8568 79.8921,91.5618 80.0401,91.3918 C80.5361,90.8248 80.9951,90.1298 81.6321,89.8058 C82.4131,89.4078 82.8731,88.4828 82.3281,87.7418 C81.2651,86.2988 80.5371,84.7708 80.7661,82.8938 C80.8701,82.0428 80.8071,81.1708 80.7861,80.3098 C80.7791,80.0128 80.7701,79.5668 80.5901,79.4488 C79.7861,78.9188 79.9471,78.1478 79.9561,77.4048 C79.9691,76.4058 80.0171,75.4058 80.0051,74.4068 C80.0021,74.1198 79.9251,73.7698 79.7471,73.5618 C78.9741,72.6548 78.9191,71.9238 79.6151,70.8628 C79.7031,70.7268 79.8291,70.4518 79.7931,70.4238 C78.9981,69.7888 79.5081,68.6348 79.0261,68.0888 C78.1831,67.1348 78.3701,66.1118 78.3351,65.0848 C78.2801,63.4328 78.2771,61.7758 78.3231,60.1228 C78.3291,59.8448 78.6941,59.5758 78.8931,59.3038 C79.0941,59.5738 79.4341,59.8268 79.4691,60.1168 C79.5501,60.7968 79.4771,61.4928 79.4841,62.1828 C79.4871,62.4528 79.4361,62.8448 79.5861,62.9738 C80.3011,63.5818 80.2151,64.1668 79.8451,64.5318 C80.0171,65.4018 80.1581,66.0338 80.2611,66.6728 C80.3311,67.1108 80.1781,67.7318 80.4201,67.9668 C81.4271,68.9488 81.0541,70.1358 81.1071,71.2708 C81.1241,71.6318 81.1171,72.1928 81.3241,72.3138 C82.1141,72.7758 81.9031,73.4538 81.9381,74.1288 C81.9681,74.6798 81.9961,75.3418 82.3011,75.7458 C83.5601,77.4138 85.0781,78.6788 87.3991,78.2238 C87.5311,78.1978 87.7181,78.1798 87.8031,78.2498 C88.0671,78.4718 88.5081,78.7458 88.4991,78.9858 C88.4591,79.9948 88.9921,81.1478 87.8951,81.9598 C87.7621,82.0588 87.7781,82.3418 87.6951,82.5258 C87.3261,83.3378 87.0311,84.2008 86.5461,84.9408 C85.9151,85.9038 86.3231,87.1058 87.4831,87.3008 C88.5381,87.4798 89.6021,87.6098 90.7651,87.7768 C90.7581,87.6888 90.8301,87.3418 90.6961,87.1248 C90.1201,86.2018 89.4541,85.3338 88.8811,84.4078 C88.6911,84.1008 88.6791,83.6828 88.5851,83.3158 C89.0611,83.3688 89.7631,83.2478 89.9661,83.5108 C90.4571,84.1498 90.6931,84.9798 91.0771,85.7078 C91.3661,86.2578 91.7251,86.7708 92.0531,87.2998 L92.5951,87.0568 C92.1651,85.5968 91.7431,84.1348 91.3041,82.6788 C91.1441,82.1488 90.8791,81.6438 90.7771,81.1058 C90.4661,79.4748 91.2971,77.6628 89.9751,76.1758 C89.8301,76.0138 89.9381,75.6408 89.8981,75.3698 C89.8551,75.0718 89.8371,74.7458 89.7031,74.4868 C89.0981,73.3138 88.0921,72.3018 88.2981,70.8138 C88.3151,70.6928 88.2591,70.4948 88.1701,70.4368 C87.4131,69.9418 87.4381,69.1968 87.4271,68.4218 C87.4231,68.1558 87.2081,67.8508 87.0101,67.6358 C86.4761,67.0548 85.7621,66.5938 85.3701,65.9358 C84.6021,64.6488 83.9641,63.2778 83.3781,61.8958 C83.2851,61.6748 83.7361,60.9378 83.9411,60.9348 C84.3531,60.9298 84.9951,61.1618 85.1441,61.4818 C85.7621,62.8138 86.2321,64.1998 87.4231,65.1948 C87.8751,65.5728 88.4521,66.1158 88.4881,66.6178 C88.5911,68.0378 89.2651,69.1378 90.0101,70.2518 C90.1511,70.4628 90.2031,70.7728 90.1991,71.0348 C90.1881,71.9928 90.0481,72.9558 90.9101,73.7068 C91.0861,73.8608 91.0241,74.2918 91.0671,74.5958 C91.1101,74.8978 91.0351,75.3318 91.2071,75.4818 C92.2211,76.3618 91.8151,77.5158 91.9111,78.5758 C91.9491,79.0028 92.0571,79.4288 92.1771,79.8418 C92.3231,80.3418 92.5861,80.8178 92.6701,81.3248 C92.8431,82.3678 92.4101,83.4908 93.3551,84.4318 C93.8231,84.8988 94.0991,85.6428 94.2631,86.3098 C94.5251,87.3708 95.5081,88.1958 95.2641,89.4238 C95.2391,89.5548 95.5171,89.7298 95.6161,89.9068 C95.7601,90.1668 95.9681,90.4448 95.9791,90.7208 C96.0371,92.2228 96.7651,93.4288 97.7151,94.4788 C98.2371,95.0528 98.5811,95.5648 98.5381,96.3658 C98.5241,96.6428 98.8581,97.1788 99.0501,97.1868 C100.6161,97.2538 102.1851,97.2248 103.5651,97.2248 L103.5651,97.2248 Z M118.8751,90.5438 C118.5411,90.0058 118.2941,89.6828 118.1261,89.3228 C117.7641,88.5408 117.4691,87.7288 117.0971,86.9528 C116.7991,86.3308 116.4151,85.7518 116.0971,85.1398 C115.9511,84.8578 115.8701,84.5408 115.7581,84.2408 C116.0621,84.3228 116.3681,84.4008 116.6681,84.4908 C116.7871,84.5258 116.8971,84.5878 117.0721,84.6648 C117.1341,84.4368 117.1481,84.2618 117.2271,84.1258 C117.3961,83.8388 117.5991,83.5718 117.7881,83.2958 C117.9831,83.5698 118.1931,83.8328 118.3671,84.1188 C118.5221,84.3728 118.6411,84.6508 118.7691,84.9198 C119.1801,85.7838 119.7401,86.6138 119.9561,87.5238 C120.1741,88.4408 120.2581,89.3408 120.5781,90.2808 C121.0511,91.6758 122.1971,91.8068 123.0241,92.1888 C124.5521,92.8938 125.9231,94.0318 126.3731,95.3008 C127.0231,97.1288 128.6171,97.1688 129.7221,98.0658 C130.1831,98.4408 130.7721,98.6638 131.2051,99.0628 C131.3151,99.1628 131.0291,99.9578 130.9531,99.9538 C129.8431,99.8898 128.6191,100.4018 127.7051,99.2218 C127.3701,98.7878 126.6891,98.6338 126.2011,98.3008 C125.9471,98.1268 125.7021,97.8748 125.5701,97.6018 C125.2101,96.8578 124.9391,96.0718 124.5751,95.3298 C124.4961,95.1698 124.1771,95.1308 123.9731,95.0278 C123.1181,94.5948 122.2211,94.2248 121.4251,93.6998 C120.8671,93.3318 120.4911,93.2728 119.9861,93.7398 C119.3671,94.3098 118.9741,94.1998 118.9151,93.4058 C118.8581,92.6158 118.4291,92.5878 117.8201,92.5298 C116.6751,92.4208 115.5851,92.3658 114.4061,91.9348 C112.9321,91.3958 113.0101,90.1748 112.3681,89.3318 C111.5801,88.3008 111.1951,87.0038 111.4431,85.6178 C111.4721,85.4538 111.1911,85.2408 111.0651,85.0418 C110.9231,84.8178 110.7711,84.5958 110.6631,84.3558 C110.3011,83.5378 110.0011,82.6898 109.5831,81.9038 C109.3981,81.5548 108.9881,81.3258 108.6801,81.0428 C108.5531,81.0888 108.4261,81.1358 108.2991,81.1818 C108.4451,82.1198 108.5611,83.0648 108.7491,83.9938 C108.8461,84.4688 109.1511,84.9058 109.2241,85.3808 C109.4381,86.7758 108.6701,88.3498 110.0041,89.5398 C110.0451,89.5768 110.0481,89.6708 110.0481,89.7388 C110.0631,91.5298 110.1111,93.3218 110.0701,95.1128 C110.0541,95.7798 109.6581,95.8828 109.0751,95.5128 C108.1931,94.9528 108.1291,94.3028 108.7751,93.4168 C108.3521,93.4238 107.9081,93.4068 107.7311,93.6158 C107.2001,94.2448 106.7971,94.1848 106.3191,93.5888 C106.2101,93.4548 105.9551,93.3988 105.7611,93.3798 C105.0911,93.3198 104.9161,92.8868 104.8921,92.3118 C104.8351,90.9778 105.4781,89.8718 106.2721,88.9438 C106.9531,88.1478 107.5461,87.4598 107.3311,86.3358 C107.2481,85.9038 107.2451,85.4278 107.3301,84.9958 C107.7481,82.8748 106.1491,81.0448 106.4861,78.9448 C105.7351,78.2708 105.5471,77.4138 105.6451,76.4498 C105.6571,76.3398 105.5501,76.1668 105.4481,76.1058 C104.7631,75.6878 104.9241,75.0078 104.8081,74.3708 C104.5661,73.0378 104.1771,71.7318 103.8261,70.4198 C103.7861,70.2748 103.5691,70.1858 103.4891,70.0398 C103.3611,69.8068 103.1991,69.5508 103.1901,69.2998 C103.1441,67.9218 103.1021,66.5408 103.1501,65.1648 C103.1611,64.8598 103.5371,64.5668 103.7451,64.2688 C103.9391,64.5818 104.1901,64.8738 104.3101,65.2138 C104.4721,65.6758 104.5131,66.1798 104.6461,66.6548 C104.7701,67.0948 105.0371,67.5118 105.0821,67.9538 C105.1611,68.7408 105.0551,69.5458 105.1481,70.3278 C105.2071,70.8328 105.4661,71.3188 105.6631,71.8018 C106.0171,72.6618 106.6321,73.4958 106.7011,74.3748 C106.7981,75.6388 107.5501,76.5218 108.0921,77.5048 C108.4911,78.2278 109.3071,78.7078 109.8701,79.3548 C110.5381,80.1208 111.3011,79.8938 111.9581,79.8188 C111.7691,78.9568 111.7291,78.1388 111.4101,77.4498 C110.7221,75.9718 109.7251,74.6448 109.6001,72.9168 C109.5741,72.5448 108.9711,72.2248 108.6611,71.8568 C108.4721,71.6308 108.2841,71.3788 108.1851,71.1068 C107.8301,70.1158 107.0571,69.2608 107.2121,68.0928 C107.2311,67.9518 106.9401,67.7918 106.8571,67.6118 C106.4431,66.7058 105.9211,65.8228 105.6891,64.8688 C105.4781,64.0028 105.7891,63.0368 104.9561,62.2928 C104.7681,62.1238 104.9921,61.4928 105.0261,61.0758 C105.3671,61.1988 105.8941,61.2228 106.0171,61.4588 C106.5921,62.5648 107.4001,63.7028 107.4811,64.8758 C107.6111,66.7498 109.0201,67.9888 109.3831,69.7038 C109.5281,70.3838 110.0541,70.9818 110.4101,71.6158 C110.8321,72.3708 111.6261,73.1398 111.5991,73.8778 C111.5531,75.1008 112.3301,75.8988 112.6381,76.9118 C112.8901,77.7458 113.5161,78.4618 113.9251,79.2568 C114.0871,79.5738 114.1431,79.9578 114.1881,80.3198 C114.2311,80.6668 114.1971,81.0248 114.1971,81.3778 C114.2901,81.4238 114.3831,81.4688 114.4771,81.5148 C114.8921,81.0868 115.3201,80.6698 115.7191,80.2288 C116.2421,79.6498 116.9141,79.1258 117.2091,78.4438 C117.6181,77.4958 118.4151,76.6258 118.1411,75.4468 C118.1191,75.3528 118.2441,75.1688 118.3481,75.1088 C119.0191,74.7188 118.9221,74.0938 118.9141,73.4658 C118.9031,72.4688 118.5871,71.2408 119.0471,70.5288 C119.7251,69.4808 119.7911,68.4528 119.6741,67.4158 C119.4761,65.6678 120.3541,63.7628 118.9631,62.1668 C118.8361,62.0228 118.9031,61.7008 118.8961,61.4608 C118.8801,60.8748 118.9211,60.2828 118.8461,59.7058 C118.7991,59.3448 118.5831,59.0058 118.4441,58.6568 C118.0871,58.8028 117.7001,58.8998 117.3801,59.1048 C116.7451,59.5118 116.4321,60.3558 115.4421,60.3078 C114.9661,60.2848 114.4731,60.6428 113.9871,60.8248 C113.7361,60.9188 113.4831,61.0818 113.2291,61.0848 C111.3001,61.1068 109.3701,61.1308 107.4431,61.0608 C107.1261,61.0498 106.6091,60.6128 106.5641,60.3138 C106.4521,59.5728 106.0641,59.4908 105.4411,59.4158 C104.9111,59.3528 104.4201,59.0078 103.8961,58.8388 C103.5881,58.7398 103.2281,58.6538 102.9331,58.7278 C102.7781,58.7678 102.6311,59.1578 102.6181,59.3968 C102.5611,60.4008 102.8581,61.4708 101.9091,62.2728 C101.7771,62.3828 101.8251,62.7308 101.8251,62.9688 C101.8211,67.1398 101.8181,71.3108 101.8321,75.4818 C101.8331,75.8088 101.9471,76.1408 102.0421,76.4598 C102.2191,77.0528 102.5031,77.6248 102.5971,78.2298 C102.7951,79.5018 102.1381,80.9338 103.3501,82.0218 C103.4671,82.1268 103.4491,82.4158 103.4451,82.6188 C103.4271,83.5748 103.2821,84.5348 104.1421,85.2948 C104.3301,85.4608 104.2701,85.9488 104.2671,86.2868 C104.2501,88.3558 104.1781,90.4238 104.2161,92.4908 C104.2261,93.0238 104.5691,93.5488 104.7471,94.0808 C104.8741,94.4588 105.0431,94.8348 105.0911,95.2238 C105.2321,96.3678 104.7201,97.6418 105.8321,98.5918 C105.9671,98.7068 105.9211,99.0508 105.9321,99.2888 C105.9491,99.7018 105.8601,100.1428 105.9751,100.5228 C106.0721,100.8408 106.3961,101.0908 106.6201,101.3698 C106.8581,101.1408 107.1341,100.9378 107.3211,100.6708 C107.4691,100.4608 107.5091,100.1738 107.5961,99.9198 C107.7821,99.3728 108.0131,98.8358 108.1351,98.2758 C108.2131,97.9158 108.0271,97.4848 108.1491,97.1558 C108.2381,96.9138 108.7591,96.5738 108.8741,96.6408 C110.0751,97.3428 110.6321,98.7688 109.6161,99.9088 C109.0241,100.5748 109.1071,100.9618 109.6861,101.5418 C110.1681,102.0268 110.8141,102.6578 110.8241,103.2338 C110.8391,104.1418 111.1791,104.7018 111.7601,105.2768 C112.8891,106.3938 112.8991,107.4078 111.8061,108.5088 C112.2561,109.2428 112.7901,109.7638 113.7761,109.6738 C114.1341,109.6418 114.6121,109.7788 114.8731,110.0158 C116.0881,111.1148 117.7291,110.3468 118.0331,109.0968 C118.2541,108.1818 118.7351,107.9968 119.4821,108.0228 C120.1341,108.0448 120.4871,107.8448 120.6061,107.1308 C120.6561,106.8338 121.0861,106.4238 121.3901,106.3798 C122.1341,106.2718 122.4211,105.8248 122.2261,105.2468 C121.8901,104.2578 121.3971,103.3188 120.9321,102.3768 C120.8171,102.1438 120.5861,101.9138 120.3531,101.8028 C119.8401,101.5588 119.2631,101.4928 119.1741,102.2468 C118.9631,104.0398 117.1621,103.9428 116.1951,104.8268 C116.1401,104.8768 115.8401,104.7908 115.8301,104.7378 C115.7301,104.1828 115.5671,103.6108 115.6301,103.0668 C115.6651,102.7648 116.0481,102.3518 116.3561,102.2588 C117.6111,101.8788 118.0701,101.3108 118.0911,100.0168 C118.1051,99.2458 117.9751,98.6498 117.4541,97.9688 C116.6841,96.9618 116.2011,95.7218 115.6851,94.5418 C115.5531,94.2408 115.7571,93.7908 115.8061,93.4098 C116.1281,93.5088 116.4801,93.5578 116.7651,93.7218 C117.0251,93.8698 117.2501,94.1168 117.4261,94.3668 C118.0381,95.2348 118.6321,96.1148 119.2121,97.0028 C119.4961,97.4398 119.7281,97.9108 119.9941,98.3618 C120.4981,99.2168 120.9571,100.1078 121.5371,100.9098 C122.0331,101.5968 122.9091,102.0898 123.1871,102.8298 C123.5631,103.8268 124.5081,104.6838 124.1721,105.9338 C124.1321,106.0828 124.4971,106.3378 124.6681,106.5478 C125.0291,106.9918 125.5441,107.3858 125.7131,107.8948 C126.1521,109.2148 126.6431,109.6388 128.0481,109.6718 C129.0791,109.6978 130.2091,109.3438 130.9321,110.3248 C131.6501,109.9838 132.2811,109.6838 133.0381,109.3248 C131.8341,108.5658 131.9031,107.8928 132.7371,107.0058 C133.4431,106.2548 132.9941,105.2458 132.0421,104.9548 C131.7971,104.8788 131.4411,104.3778 131.5041,104.2198 C131.7721,103.5488 132.1011,102.8698 132.5561,102.3168 C133.0521,101.7128 133.0351,101.3218 132.5571,100.7048 C132.3011,100.3748 132.2491,99.6718 132.4201,99.2728 C132.7401,98.5288 132.5291,97.8558 131.7181,97.5248 C131.1741,97.3028 130.6161,97.0328 130.1771,96.6528 C129.1391,95.7518 127.6451,95.4908 126.8761,94.2158 C126.3621,93.3638 125.8311,92.5068 125.2011,91.7408 C124.5921,91.0008 123.7861,90.4248 123.1751,89.6858 C122.2861,88.6088 121.4871,87.4558 120.6711,86.3198 C120.5641,86.1678 120.5561,85.9228 120.5581,85.7218 C120.5641,85.0938 120.6011,84.4848 119.9361,84.0858 C119.8221,84.0188 119.9091,83.6158 119.9031,83.3678 C120.1721,83.4028 120.5341,83.3378 120.6941,83.4888 C121.3411,84.0978 121.9311,84.7698 122.5341,85.4268 C122.7841,85.6998 123.0501,85.9688 123.2421,86.2808 C123.9831,87.4888 124.6381,88.7528 125.4431,89.9148 C125.9051,90.5818 126.5471,91.1498 127.1901,91.6598 C127.8841,92.2118 128.6951,92.6158 129.4141,93.1388 C130.5751,93.9818 131.1981,95.5218 132.8461,95.7578 C132.9951,95.7788 133.1371,96.1868 133.1971,96.4348 C133.5551,97.9198 135.7261,98.8598 136.9101,97.8728 C137.6251,97.2778 138.3071,97.2708 139.0871,97.2458 C139.4691,97.2348 139.8481,97.1598 140.3201,97.1028 C139.3171,96.0298 138.5121,94.9938 137.5341,94.1618 C136.3191,93.1288 135.5331,91.8148 134.7671,90.4808 C134.3561,89.7648 134.1661,88.9238 133.8181,88.1668 C133.4791,87.4318 133.0661,86.7318 132.5861,85.8298 C132.2341,86.7868 132.1561,87.4748 132.6841,88.1528 C132.8891,88.4148 133.1571,88.7258 133.1701,89.0248 C133.2351,90.4028 134.0051,91.4468 134.6591,92.5668 C134.8491,92.8938 134.8621,93.4498 134.7171,93.8018 C134.6251,94.0248 134.0491,94.2218 133.7671,94.1458 C133.4631,94.0648 133.1691,93.6908 133.0111,93.3738 C132.5371,92.4278 131.9281,91.5158 132.0161,90.3708 C132.0261,90.2488 131.7551,90.1268 131.7111,89.9768 C131.3741,88.8098 130.2771,87.9458 130.4591,86.5488 C130.5491,85.8598 130.5551,85.0108 130.2321,84.4438 C129.3531,82.8998 128.5221,81.4028 128.8381,79.5318 C128.8851,79.2528 128.8381,78.7928 128.6611,78.6698 C127.8001,78.0748 128.0381,77.2248 128.0031,76.4178 C127.9861,76.0258 127.8801,75.6298 127.7671,75.2508 C127.5921,74.6628 127.1371,74.0498 127.2231,73.5158 C127.4411,72.1658 126.3661,71.3738 126.0561,70.2648 C125.7091,69.0218 124.8811,67.8638 124.7631,66.6198 C124.6491,65.4158 123.7711,64.6758 123.5501,63.6028 C123.4531,63.1338 123.2221,62.6928 123.0441,62.2408 C122.8671,61.7938 122.7461,61.3048 122.4811,60.9158 C122.0371,60.2658 121.1671,59.8878 121.3711,58.8488 C121.4301,58.5518 121.2211,57.9468 121.0391,57.9058 C120.4841,57.7798 119.8821,57.8598 119.3371,57.8598 C119.9021,59.0998 120.5801,60.0748 120.7721,61.1398 C121.0121,62.4778 120.8121,63.8898 120.8881,65.2648 C120.9151,65.7648 121.2251,66.2428 121.3361,66.7468 C121.3991,67.0338 121.3641,67.3648 121.2931,67.6558 C121.1871,68.0948 120.9511,68.5078 120.8731,68.9498 C120.4281,71.4908 121.5861,74.1868 120.0091,76.6448 C119.3371,77.6918 119.0761,78.9928 118.1121,79.8858 C117.9121,80.0708 117.5981,80.2838 117.5901,80.4938 C117.5461,81.6218 116.7021,82.1818 115.9701,82.7478 C114.7681,83.6768 114.2081,85.0358 113.4711,86.2588 C113.1241,86.8318 113.1521,87.6188 113.7731,88.2488 C114.5891,89.0758 115.5161,89.6688 116.5331,90.2348 C117.3211,90.6728 117.9541,90.6478 118.8751,90.5438 L118.8751,90.5438 Z M127.1001,127.9998 C126.7431,127.4908 126.4501,126.9138 126.0131,126.4848 C125.1121,125.5958 125.4281,124.4818 125.6301,123.5728 C125.7601,122.9828 126.6251,122.4078 127.2881,122.1288 C127.8541,121.8928 128.0451,121.6658 128.0351,121.1148 C128.0181,120.1848 128.1851,119.2198 127.9941,118.3308 C127.7351,117.1338 127.3801,115.8878 126.7451,114.8638 C126.2171,114.0158 125.2441,113.4638 125.5261,112.2308 C125.5701,112.0388 125.2971,111.7678 125.1531,111.5448 C125.0251,111.3478 124.7361,111.1538 124.7521,110.9818 C124.8491,109.9758 124.3791,109.1868 123.9821,108.3198 C123.5291,107.3308 122.8721,107.0638 121.8171,107.8108 C122.0161,107.9128 122.1711,108.0558 122.3351,108.0678 C123.0461,108.1188 123.2721,108.5638 123.2911,109.1828 C123.3061,109.6648 123.3601,110.1578 123.2871,110.6288 C123.0301,112.3038 123.8361,113.5948 124.7211,114.8728 C124.8341,115.0348 124.9561,115.2528 124.9401,115.4328 C124.8661,116.2538 124.9301,116.9818 125.6621,117.5518 C125.8241,117.6778 125.8721,118.2668 125.7331,118.4098 C124.9631,119.2038 124.1931,120.0458 123.2671,120.6218 C122.8281,120.8948 122.4751,120.9918 122.4231,121.5658 C122.4031,121.7998 122.1981,122.1878 122.0311,122.2138 C120.2311,122.4958 119.4501,124.0738 118.3651,125.1828 C117.3771,126.1928 116.3801,126.6768 115.0181,126.4718 C114.8151,126.4418 114.5161,126.4878 114.4231,126.3698 C113.6761,125.4288 112.5961,125.8338 111.6811,125.5908 C111.0051,125.4098 110.2211,124.8588 109.9221,124.2548 C109.5941,123.5928 109.5241,122.6618 110.3581,122.0128 C110.9511,121.5528 111.3941,120.9008 111.9861,120.4388 C112.7671,119.8278 113.6491,119.3498 114.4491,118.7608 C114.9521,118.3898 114.9041,117.9488 114.5401,117.4168 C114.2401,116.9768 113.9161,116.3828 113.9701,115.8988 C114.1541,114.2578 113.7451,112.9778 112.3721,111.9658 C111.6231,111.4128 111.0291,110.6518 110.1461,109.7658 C110.0821,110.3718 110.0941,110.6668 110.0151,110.9348 C109.8631,111.4548 109.6431,111.9558 109.4851,112.4758 C109.3691,112.8538 109.1521,113.2928 109.2491,113.6268 C109.6561,115.0138 108.3491,115.8448 108.2231,117.0438 C108.2131,117.1368 108.0251,117.2798 107.9141,117.2838 C106.5151,117.3508 106.0361,118.6658 105.0851,119.3318 C104.7451,119.5718 104.3211,119.8138 103.9251,119.8298 C102.4801,119.8888 101.0291,119.8958 99.5841,119.8288 C99.1391,119.8088 98.3691,119.5358 98.3341,119.2958 C98.2411,118.6358 98.3361,117.8808 98.5941,117.2618 C98.7871,116.7958 99.4101,116.5288 99.7321,116.0928 C100.3241,115.2908 100.8361,114.4298 101.1321,113.9768 C100.9571,112.7398 100.8711,111.8708 100.7001,111.0218 C100.6121,110.5858 100.4471,110.1208 100.1781,109.7798 C99.7351,109.2148 99.1791,108.7398 98.6701,108.2278 C98.5741,108.1308 98.4121,108.0548 98.3811,107.9428 C98.0371,106.6768 97.5711,105.4208 97.4361,104.1318 C97.3451,103.2688 97.3271,102.4958 96.5631,101.9788 C95.7691,101.4408 95.6661,100.6928 95.7211,99.8138 C95.8081,98.4108 95.3861,97.9228 94.0021,97.4758 C93.6331,97.3568 93.3221,97.0618 92.9651,96.8358 C92.6001,97.5118 92.1771,98.1458 91.9291,98.8408 C91.8571,99.0448 92.2571,99.6638 92.4761,99.6828 C93.4571,99.7668 93.5411,100.3608 93.5221,101.1238 C93.5031,101.8878 93.2431,102.7238 94.1091,103.2758 C94.2091,103.3398 94.2051,103.8458 94.1031,103.9088 C93.2661,104.4258 93.5191,105.2258 93.5091,105.9588 C93.5031,106.3728 93.5671,106.7968 93.4951,107.1988 C93.3241,108.1558 93.6821,108.8618 94.4101,109.4358 C94.9121,109.8308 95.4921,110.3248 95.1001,110.9688 C94.7511,111.5418 94.1591,112.1628 93.5531,112.3338 C92.7991,112.5458 92.6821,112.8388 92.6371,113.5238 C92.6041,114.0358 92.3361,114.6138 91.9961,115.0078 C91.2351,115.8908 90.4101,116.7338 89.5161,117.4818 C89.0611,117.8618 88.4241,118.1268 87.8331,118.2188 C87.0661,118.3368 86.3691,118.3368 85.6331,118.8298 C84.9821,119.2678 84.0351,119.2658 83.2791,118.5138 C82.7781,118.0148 82.0431,117.7598 81.4711,117.3208 C81.1861,117.1018 80.8591,116.7118 80.8631,116.4028 C80.8671,116.0958 81.2001,115.6208 81.4941,115.5168 C83.0631,114.9588 83.9921,113.8548 84.1521,112.2538 C84.1801,111.9718 84.3311,111.6638 84.5161,111.4448 C85.2031,110.6248 85.1961,109.8038 84.5451,108.9858 C84.3131,108.6938 84.1831,108.2598 84.1551,107.8798 C84.1031,107.1958 84.2201,106.4958 84.1491,105.8158 C84.1181,105.5198 83.8531,105.0968 83.5941,105.0018 C82.4891,104.5998 81.9851,103.3438 82.7761,102.4998 C83.3151,101.9248 83.1361,101.6628 82.6601,101.2828 C82.3371,101.0268 82.0741,100.6978 81.7551,100.4368 C81.0911,99.8928 80.5391,99.4388 81.5121,98.5908 C81.9581,98.2018 81.7551,97.5458 81.0101,97.5358 C80.0301,97.5228 79.4731,97.4288 78.9941,96.2408 C78.5941,95.2508 78.3531,94.3778 78.3801,93.3638 C78.3841,93.1968 78.3841,92.9468 78.2851,92.8718 C77.1121,91.9958 77.6141,90.7408 77.5341,89.6248 C77.4881,88.9728 77.5211,88.3158 77.5091,87.6598 C77.4951,86.9128 77.5921,86.1578 76.8831,85.5788 C76.6851,85.4178 76.7031,84.9388 76.6991,84.6038 C76.6801,83.4658 76.7011,82.3278 76.6981,81.1908 C76.6961,80.3858 76.8591,79.6038 76.0691,78.9248 C75.7561,78.6568 75.9741,77.8148 75.8661,77.2488 C75.7761,76.7808 75.5581,76.3368 75.4031,75.8798 C75.2761,75.5048 75.0611,75.1298 75.0511,74.7498 C75.0131,73.3038 75.0421,71.8548 75.0461,70.4068 C75.0481,69.6228 75.1871,68.8078 74.4071,68.2388 C74.2741,68.1418 74.2231,67.8638 74.2211,67.6678 C74.2041,66.2548 74.2091,64.8418 74.2131,63.4278 C74.2131,63.2928 74.2061,63.1068 74.2861,63.0298 C75.4921,61.8708 74.7961,60.3618 75.0551,59.0318 C75.1591,58.4978 75.3881,57.9818 75.6101,57.4788 C75.9571,56.6908 76.2321,55.8338 76.7431,55.1638 C77.6671,53.9508 76.7921,53.4428 76.1811,52.5348 C75.6041,51.6778 75.1891,50.7138 74.3791,50.0048 C74.2701,49.9088 74.2161,49.6858 74.2271,49.5268 C74.3171,48.1008 73.4181,47.0858 72.7891,45.9538 C72.6481,45.6988 72.5701,45.3758 72.5631,45.0808 C72.5271,43.5598 71.8921,42.8998 70.4021,42.8958 C69.0231,42.8928 67.6441,42.8938 66.2651,42.8958 C65.4781,42.8978 64.6891,42.9958 64.0781,42.2738 C63.9231,42.0908 63.5011,42.0908 63.2001,42.0838 C62.2011,42.0598 61.2011,42.0698 60.2011,42.0678 C58.4371,42.0648 57.7441,41.3828 57.6911,39.6258 C57.6621,38.6828 56.9661,38.3008 56.2281,37.9788 C56.1091,37.9268 55.9551,37.9488 55.8181,37.9418 C53.8321,37.8228 53.8351,37.8228 53.8421,39.8068 C53.8431,40.2888 53.7511,40.7818 53.8231,41.2508 C53.8981,41.7478 54.0431,42.2668 54.2941,42.6968 C54.5561,43.1458 54.6251,43.6188 54.1101,43.6548 C53.4071,43.7038 52.6781,43.4678 51.9701,43.3118 C51.7921,43.2718 51.6481,42.9568 51.4921,42.9598 C50.1341,42.9848 50.1711,42.0608 50.1871,41.1248 C50.1991,40.4018 50.1601,39.6758 50.1891,38.9538 C50.2171,38.2828 50.0091,37.9658 49.2701,37.9028 C48.7031,37.8538 48.1591,37.5338 47.6051,37.3318 C47.4461,37.2748 47.2931,37.1978 47.1321,37.1468 C46.1241,36.8298 45.0831,36.5898 44.1251,36.1628 C43.8371,36.0338 43.5311,35.1708 43.6611,35.0218 C44.1701,34.4438 44.7901,33.7598 45.4831,33.5978 C46.4951,33.3608 47.6371,33.3818 48.6651,33.5868 C49.5191,33.7578 50.2741,34.3848 51.1011,34.7428 C51.3751,34.8618 51.8061,34.8958 52.0491,34.7598 C52.7771,34.3568 53.7681,34.1728 53.8261,33.0278 C53.8281,32.9938 54.8561,32.8058 55.1361,33.0288 C56.4251,34.0508 57.7911,33.4618 59.1201,33.5418 C59.1471,33.4168 59.1731,33.2928 59.2001,33.1678 C58.8201,33.0768 58.4241,32.8688 58.0631,32.9188 C56.6481,33.1138 55.6551,32.1458 54.4671,31.7228 C54.0751,31.5828 53.6271,31.4298 53.2481,31.5038 C53.0891,31.5338 52.9681,32.1358 52.9581,32.4818 C52.9381,33.1928 52.7461,33.7348 51.9401,33.7538 C51.2451,33.7708 50.4691,33.9608 50.2071,32.9148 C50.1301,32.6088 49.6661,32.2418 49.3311,32.1848 C48.3821,32.0228 47.4201,32.2638 46.5401,31.4478 C46.1401,31.0748 45.1411,31.4048 44.4351,31.2888 C43.8331,31.1908 43.2741,30.8568 42.6731,30.7268 C42.0901,30.6008 41.4791,30.6008 40.8801,30.5448 C40.8491,30.9568 40.6341,31.4968 40.8181,31.7588 C41.7471,33.0868 41.5931,34.3758 40.2321,35.2448 C39.9741,35.4088 39.5601,35.4528 39.2521,35.3898 C38.4981,35.2328 36.9901,33.2408 36.9621,32.4638 C36.9531,32.1888 36.9301,31.9128 36.9331,31.6378 C36.9601,29.3708 37.0781,29.7728 35.0021,29.6648 C34.6591,29.6478 34.3071,29.6158 33.9691,29.6618 C32.5301,29.8598 31.4951,28.9538 30.3861,28.3158 C29.7921,27.9738 29.3501,27.8198 28.8831,28.4158 C28.3501,29.0978 27.8011,28.9298 27.1821,28.5068 C26.8351,28.2718 26.4091,28.0928 25.9961,28.0288 C25.4531,27.9438 24.8131,27.9158 24.8001,28.7458 C24.7911,29.3978 24.6031,30.0328 25.6571,30.3058 C26.3011,30.4728 26.7761,31.3408 27.2921,31.9258 C27.4341,32.0858 27.4581,32.5528 27.5251,32.5498 C28.7531,32.5038 28.9181,33.5028 29.2741,34.2978 C29.4091,34.5978 29.4641,34.9328 29.5551,35.2518 C29.1991,35.3068 28.6951,35.5358 28.5131,35.3838 C27.9601,34.9188 27.5301,34.3088 27.0571,33.7498 C26.8441,33.4978 26.6901,33.1348 26.4221,33.0138 C26.2491,32.9358 25.7131,33.1858 25.7011,33.3218 C25.6711,33.6538 25.7481,34.1008 25.9641,34.3298 C26.9771,35.4078 28.0731,36.4078 29.0901,37.4818 C29.3421,37.7478 29.4111,38.1878 29.5661,38.5468 C29.0661,38.5208 28.4111,38.6878 28.0951,38.4328 C27.1631,37.6818 26.3621,36.7668 25.5151,35.9118 C24.6201,35.0078 23.6951,34.1298 22.8521,33.1788 C22.4291,32.7008 22.1601,32.0878 21.7561,31.4298 C21.4511,31.6988 21.1111,31.9968 20.9031,32.1808 C21.4261,33.4798 21.9731,34.6098 22.3261,35.7978 C22.5241,36.4638 22.2861,37.1278 21.3351,37.0968 C20.4421,37.0668 20.4521,36.4648 20.4071,35.7978 C20.3781,35.3658 20.1361,34.9458 19.9791,34.5238 C19.8641,34.2138 19.7841,33.8718 19.5931,33.6148 C19.4021,33.3568 19.1061,33.0538 18.8291,33.0248 C18.6361,33.0028 18.2121,33.4058 18.2071,33.6258 C18.1771,35.0718 18.2321,36.5198 18.2601,37.9668 C18.2611,37.9998 18.2611,38.0478 18.2821,38.0658 C19.5211,39.1478 18.9861,40.5878 19.0741,41.9058 C19.0861,42.0988 19.1531,42.3538 19.2891,42.4608 C20.0811,43.0858 19.7271,43.5758 19.1201,44.0088 C18.8691,44.1878 18.5411,44.2608 18.2491,44.3818 C18.1361,44.0788 17.9361,43.7788 17.9251,43.4728 C17.8851,42.2678 17.9481,41.0578 17.8781,39.8548 C17.8531,39.4308 17.5381,39.0298 17.3951,38.6048 C17.2561,38.1988 17.0961,37.7818 17.0741,37.3618 C17.0301,36.5538 17.2451,35.7298 16.4651,35.0778 C16.2561,34.9038 16.2861,34.3638 16.3181,34.0008 C16.3841,33.2268 16.0651,32.9558 15.3091,32.9558 C12.8121,32.9568 13.2201,32.9328 13.2391,34.9828 C13.2451,35.6378 13.2501,36.2918 13.2471,36.9478 C13.2451,37.5618 12.9731,37.9148 12.3141,37.9258 C11.6081,37.9378 11.3111,37.5768 11.3161,36.9078 C11.3251,35.6668 11.3771,34.4238 11.3191,33.1868 C11.3021,32.8358 11.0401,32.3128 10.7571,32.1988 C10.2241,31.9838 10.1121,32.4808 9.8991,32.9218 C9.3971,33.9608 8.7901,34.9618 8.1121,35.8938 C7.9131,36.1658 7.3281,36.2218 6.9151,36.2308 C6.7931,36.2338 6.4791,35.6298 6.5631,35.4868 C7.0841,34.6018 7.7371,33.7938 8.2571,32.9088 C8.5521,32.4078 8.7571,31.8208 8.8391,31.2478 C8.8701,31.0318 8.4621,30.5738 8.2201,30.5468 C7.9831,30.5218 7.6521,30.8678 7.4521,31.1208 C7.0221,31.6628 6.7231,32.3318 6.2211,32.7828 C5.9891,32.9928 5.4081,32.8168 4.9851,32.8158 C5.0711,32.4728 5.1611,32.1308 5.2411,31.7858 C5.4981,30.6668 6.3051,29.9458 7.0531,29.1578 C7.2131,28.9908 7.0311,28.4958 7.0051,28.1518 C6.6011,28.2088 6.0751,28.1248 5.8151,28.3498 C4.9571,29.0878 4.1451,29.8948 3.4151,30.7598 C2.7581,31.5378 2.4141,31.0298 1.9281,30.5998 C1.3721,30.1078 1.3391,29.7088 1.9701,29.2918 C2.7791,28.7548 3.6041,28.2408 4.3911,27.6728 C4.7861,27.3878 5.1141,27.0078 5.4711,26.6708 C5.4011,26.5398 5.3311,26.4098 5.2611,26.2808 C4.8221,26.4608 4.3951,26.6918 3.9401,26.8078 C3.4771,26.9258 2.9691,27.0178 2.5161,26.9338 C2.3691,26.9068 2.1851,26.2358 2.2861,25.9538 C2.3811,25.6848 2.7981,25.4568 3.1201,25.3568 C3.5661,25.2168 4.0541,25.2118 4.5251,25.1498 C4.5151,25.0228 4.5041,24.8948 4.4941,24.7678 L0.0321,24.7678 C-0.1409,23.7718 0.4021,22.9518 1.3221,22.8868 C2.7981,22.7818 4.2841,22.7998 5.7651,22.7908 C6.4391,22.7878 6.6611,23.2408 6.6241,23.8308 C6.5371,25.1788 7.3701,26.1488 8.0591,27.1298 C8.6241,27.9358 9.3961,28.6068 10.1271,29.2828 C11.3431,30.4098 12.7171,31.1718 14.4661,31.0618 C15.4271,30.9998 16.4031,31.1168 17.3591,31.0258 C17.9231,30.9708 18.4631,30.6648 19.0141,30.4708 C19.2361,30.3928 19.4721,30.2138 19.6751,30.2468 C20.7921,30.4268 21.4621,29.7708 22.1211,29.0418 C22.5131,28.6088 22.9391,28.2058 23.3591,27.7998 C24.6621,26.5358 25.5291,25.0998 25.3661,23.1838 C25.3021,22.4328 25.3821,21.6688 25.3881,20.9098 C25.4031,19.0848 24.6531,17.5998 23.3591,16.3528 C22.6911,15.7088 22.0261,15.0608 21.3781,14.3948 C20.0041,12.9818 18.4131,12.1118 16.3681,12.2688 C15.7161,12.3198 15.0551,12.3168 14.4031,12.2698 C12.7321,12.1498 11.4381,12.9628 10.2381,13.9528 C9.5511,14.5198 8.9141,15.1638 8.3401,15.8458 C7.3091,17.0688 6.4751,18.3978 6.6261,20.1108 C6.7021,20.9538 6.3851,21.3868 5.4591,21.3928 C4.2511,21.3998 2.9881,21.1118 1.9041,22.0378 C1.7131,22.2008 1.0831,22.0368 0.7911,21.8318 C0.6001,21.6988 0.5011,21.1258 0.6301,20.9148 C0.8071,20.6268 1.2411,20.3238 1.5631,20.3248 C2.8311,20.3338 3.7431,19.5108 4.7901,19.0348 C5.4441,18.7398 5.5211,18.2268 4.8651,17.6828 C4.1521,17.0908 3.4961,16.4218 2.8721,15.7358 C2.6401,15.4798 2.5691,15.0778 2.4231,14.7428 C2.8671,14.7068 3.3811,14.5108 3.7401,14.6678 C4.5531,15.0238 5.2891,15.5538 6.0531,16.0108 C6.5501,15.3508 6.5271,13.6088 6.0121,13.0818 C4.9541,12.0008 3.8321,10.9768 2.8311,9.8458 C2.0641,8.9788 1.4291,7.9928 0.7661,7.0378 C0.6771,6.9108 0.7021,6.6168 0.7891,6.4708 C1.0911,5.9648 3.1241,6.1198 3.1711,6.6788 C3.2771,7.9268 4.3461,8.3878 4.9531,9.2198 C5.5371,10.0228 6.0261,10.8958 6.6281,11.6838 C7.1631,12.3838 7.7961,13.0088 8.5601,13.8618 C9.0031,12.7868 9.0721,12.0998 8.4861,11.4198 C8.2901,11.1938 8.0421,10.9318 8.0131,10.6648 C7.9801,10.3658 8.1681,10.0438 8.2601,9.7318 C8.5531,9.8298 8.8971,9.8638 9.1291,10.0408 C9.4801,10.3098 9.7021,10.7808 10.0771,10.9718 C10.3741,11.1238 10.8211,10.9878 11.2011,10.9798 C11.1741,10.6308 11.2031,10.2668 11.1111,9.9378 C10.9351,9.3118 10.4941,8.6998 10.5131,8.0938 C10.5561,6.7598 9.6561,5.8628 9.2361,4.7528 C9.1071,4.4128 8.9641,4.0788 8.8351,3.7398 C8.6291,3.1918 8.4021,2.6498 8.2351,2.0908 C8.1051,1.6578 8.0541,1.1998 7.9471,0.6458 L9.8191,0.6458 C9.8581,0.9268 9.9081,1.2208 9.9351,1.5168 C9.9511,1.6868 9.8791,1.8808 9.9351,2.0308 C10.3891,3.2278 10.8631,4.4178 11.3341,5.6088 C11.3591,5.6698 11.4351,5.7138 11.4521,5.7758 C11.7751,6.9558 12.1771,8.1238 12.3791,9.3248 C12.4981,10.0358 12.6761,10.4278 13.4391,10.3628 C13.5411,10.3538 13.6451,10.3618 13.7481,10.3628 C15.4341,10.3738 15.4151,10.3738 15.4171,8.6508 C15.4181,8.1158 15.1381,7.2438 15.9601,7.2178 C16.9071,7.1878 16.5181,8.1088 16.6041,8.6598 C16.6141,8.7278 16.5931,8.7998 16.6041,8.8668 C16.6851,9.4118 16.2711,10.4018 17.2131,10.2638 C17.7921,10.1798 18.6171,9.3458 18.6961,8.7628 C18.8751,7.4388 19.4861,6.3938 20.1541,5.3268 C20.2591,5.1588 20.3761,4.9508 20.3681,4.7678 C20.3281,3.9458 20.5521,3.3028 21.1021,2.6198 C21.4541,2.1828 21.2831,1.3238 21.3501,0.6148 L23.0531,0.6148 C23.1931,1.6338 23.4011,2.5148 22.4651,3.4198 C21.3541,4.4948 20.6911,5.8898 20.6761,7.5368 C20.6721,8.0288 20.3391,8.5168 20.1591,9.0058 C20.0531,9.2888 19.8761,9.5688 19.8601,9.8568 C19.8291,10.4008 19.5911,11.1428 20.5351,11.1648 C21.4121,11.1858 21.1121,10.4488 21.2701,9.9688 C21.4621,9.3858 21.7811,8.8318 22.1151,8.3108 C22.3301,7.9728 22.6371,7.6618 22.9691,7.4378 C23.1961,7.2828 23.5361,7.2988 23.8271,7.2388 C23.7651,7.5298 23.7381,7.8318 23.6331,8.1068 C23.5191,8.4088 23.1721,8.7068 23.2071,8.9698 C23.3531,10.0708 22.6851,10.6858 21.9881,11.3168 C21.8131,11.4738 21.5751,11.6328 21.5211,11.8328 C21.4581,12.0668 21.5661,12.3448 21.6001,12.6038 C21.8321,12.5278 22.1301,12.5178 22.2871,12.3648 C23.2461,11.4268 24.4821,10.6108 25.0521,9.4678 C26.4981,6.5708 29.2221,4.9138 31.2271,2.5778 C31.4461,2.3238 31.8431,2.1618 32.1851,2.0918 C32.4001,2.0478 32.8201,2.2028 32.8711,2.3608 C32.9461,2.5818 32.8141,2.9158 32.6831,3.1558 C30.9001,6.4328 27.7471,8.4798 25.4051,11.2518 C24.8151,11.9498 24.4291,12.8228 23.9691,13.6248 C23.9111,13.7268 23.9381,13.9008 23.9731,14.0288 C24.4271,15.6838 26.7291,16.4918 28.1411,15.5848 C28.8841,15.1078 29.7761,14.8648 30.5871,14.4878 C31.3391,14.1378 32.1961,13.8838 32.7821,13.3438 C33.4341,12.7438 34.1161,12.7938 34.7931,12.9008 C35.1011,12.9488 35.5351,13.4488 35.5481,13.7598 C35.5621,14.0748 35.1981,14.5608 34.8771,14.7088 C33.6321,15.2868 32.3311,15.7408 31.0671,16.2788 C29.6971,16.8618 28.3491,17.4998 26.9811,18.0878 C26.4391,18.3208 26.2321,19.5048 26.7201,20.1698 C27.0871,20.6698 27.4411,21.3358 28.2501,20.5348 C28.4691,20.3188 29.1661,20.5228 29.6231,20.6248 C30.0941,20.7318 30.5311,21.0618 30.9971,21.0968 C31.9921,21.1718 33.0001,21.1808 33.9941,21.1018 C34.8441,21.0338 35.4631,21.3558 35.9711,21.9608 C36.1271,22.1468 36.2961,22.4688 36.2341,22.6498 C36.1681,22.8348 35.8291,23.0388 35.6091,23.0398 C33.3331,23.0578 31.0581,23.0398 28.7831,23.0158 C28.5911,23.0138 28.3351,22.9448 28.2231,22.8118 C27.7211,22.2148 27.3071,22.3658 26.8781,22.8848 C26.3221,23.5578 27.0161,23.7788 27.3331,24.1048 C27.4861,24.2608 27.7481,24.3738 27.9691,24.3898 C28.6451,24.4368 28.9051,24.7908 29.0121,25.4358 C29.1321,26.1498 29.7001,26.2918 30.3001,25.8268 C31.3081,25.0478 32.0771,25.0738 33.1511,25.7498 C33.5201,25.9818 34.0591,26.0308 34.5161,26.0168 C35.9001,25.9768 37.2011,26.0708 38.0471,27.3888 C38.1191,27.4978 38.2611,27.6548 38.3551,27.6438 C39.9841,27.4608 41.2431,29.0038 42.9431,28.5918 C43.5971,28.4338 44.3281,28.4798 44.8011,29.1708 C44.8811,29.2888 45.1011,29.3738 45.2531,29.3688 C46.1001,29.3408 46.7661,29.7658 47.5131,30.0468 C48.4181,30.3888 49.4031,30.6108 50.3451,30.9618 C50.7911,31.1278 51.4571,30.7308 52.0151,30.5618 C52.3321,30.4658 52.6411,30.1968 52.9431,30.2128 C54.1641,30.2808 55.5051,29.7808 56.5381,30.9198 C56.6781,31.0748 57.0701,30.9788 57.3271,31.0578 C57.8271,31.2108 58.3131,31.4088 58.8071,31.5828 C59.0921,31.6828 59.3831,31.7648 59.6681,31.8648 C60.2241,32.0588 60.7651,32.3188 61.3361,32.4388 C61.7211,32.5188 62.2491,32.5508 62.5311,32.3488 C63.0011,32.0138 63.3201,31.8418 63.7491,32.3468 C64.1801,32.8528 64.6271,32.7558 65.0861,32.3448 C65.2521,32.1958 65.5781,31.9768 65.6791,32.0378 C67.0061,32.8528 67.7721,31.7298 68.7611,31.2508 C69.7081,30.7928 70.7711,30.5798 71.7651,30.2108 C72.5401,29.9228 73.2911,29.5688 74.0461,29.2268 C74.5261,29.0098 75.0221,28.8088 75.4511,28.5128 C75.6551,28.3718 75.7731,28.0408 75.8361,27.7738 C76.0301,26.9578 76.2271,26.9548 76.9481,27.3108 C77.5471,27.6068 78.2871,27.6678 78.9741,27.7248 C79.6351,27.7788 80.2631,27.7808 80.2861,28.6578 C80.3091,29.5938 79.6621,29.7278 78.9521,29.6438 C78.0501,29.5368 77.1581,29.3528 76.2061,29.1938 C76.2061,30.3658 76.1911,31.7188 76.2291,33.0708 C76.2331,33.2168 76.5371,33.3868 76.7321,33.4848 C76.8751,33.5558 77.1211,33.4638 77.2291,33.5548 C77.4141,33.7108 77.6971,34.0348 77.6441,34.1448 C77.3181,34.8168 76.9081,35.4468 76.5261,36.0908 C76.3021,35.8338 76.0821,35.5738 75.8531,35.3218 C74.7011,34.0618 75.0281,32.5128 75.0101,31.0308 C75.0091,30.9668 74.9751,30.8958 74.9371,30.8418 C74.8991,30.7898 74.8361,30.7558 74.7231,30.6638 C73.9781,31.0988 73.2401,31.6208 72.4261,31.9668 C71.9491,32.1698 71.3491,32.1488 70.8081,32.1278 C69.9231,32.0928 69.3041,32.4528 68.8651,33.1608 C68.8961,33.2698 68.9141,33.3348 68.9341,33.3998 C69.0421,33.7488 69.1521,34.0988 69.2601,34.4478 C68.8411,34.4408 68.2501,34.6078 68.0361,34.3948 C67.4041,33.7718 66.6651,33.7278 65.9301,33.8308 C64.7331,33.9988 63.5631,34.4828 62.3571,33.8248 C62.1751,33.7268 61.8541,33.8848 61.5971,33.9238 C61.5711,34.0248 61.5431,34.1248 61.5171,34.2268 C62.3911,34.5368 63.2441,34.9668 64.1451,35.1268 C65.0481,35.2878 66.0071,35.1128 66.9271,35.2138 C67.5391,35.2818 68.1251,35.5818 68.7261,35.7648 C69.0131,35.8518 69.3061,35.9528 69.6011,35.9658 C70.2881,35.9958 70.9791,35.9668 71.6681,35.9808 C72.4951,35.9968 73.4881,36.3218 73.4441,34.8828 C73.4421,34.8078 74.0431,34.5908 74.2981,34.6648 C74.5481,34.7378 74.8601,35.0788 74.8931,35.3358 C75.0621,36.6158 76.2771,36.7728 77.0391,37.3978 C77.2691,37.5858 77.6811,37.5918 78.0131,37.6098 C79.1151,37.6668 80.2211,37.6468 81.3171,37.7508 C81.8311,37.7998 82.3621,37.9988 82.8221,38.2478 C83.7621,38.7578 84.5351,38.3818 84.9841,37.5828 C86.6221,34.6688 85.4601,31.5528 85.7611,28.5498 C85.9271,26.8928 85.8691,26.7938 87.3971,27.6068 C87.4951,26.8008 87.6891,26.1288 87.0461,25.4158 C86.5331,24.8458 86.2231,24.0888 85.8591,23.3958 C85.8071,23.2968 85.9151,23.0188 86.0291,22.9468 C86.8651,22.4108 86.6851,21.5798 86.6911,20.8028 C86.6981,19.9498 86.6931,19.0968 86.6931,18.2438 C86.5241,18.1738 86.3561,18.1038 86.1871,18.0328 C86.1341,18.1978 86.0801,18.3628 86.0281,18.5278 C85.6921,19.5848 85.0351,19.9778 83.9931,19.6798 C83.7621,19.6148 83.4171,19.3698 83.4101,19.1968 C83.3701,18.2048 82.9531,17.1618 83.7561,16.2518 C84.1581,15.7968 83.5781,15.0698 82.7841,14.7528 C81.8071,14.3648 80.9191,13.7418 79.9331,13.3928 C79.3431,13.1848 78.3821,13.0258 78.0371,13.3388 C77.3361,13.9738 76.9171,13.7208 76.4851,13.3208 C75.8741,14.1988 75.2971,15.0308 74.6781,15.9218 C75.1651,16.3898 75.3361,16.8408 74.6741,17.5448 C74.3851,17.8518 74.6771,18.7428 74.7751,19.3588 C74.8241,19.6708 75.0281,19.9588 75.1621,20.2578 C74.8211,20.1578 74.4801,20.0578 74.1381,19.9578 C74.0741,19.9398 74.0071,19.9258 73.6501,19.8388 C73.7371,20.2988 73.6861,20.8468 73.8921,20.9708 C74.5731,21.3808 75.3221,21.7228 76.0891,21.9248 C76.7061,22.0878 77.1041,22.3928 76.9331,22.9588 C76.8301,23.2998 76.3431,23.6578 75.9621,23.7558 C75.2411,23.9448 74.1761,23.6098 74.5451,25.1838 C74.8771,24.9968 75.1281,24.8688 75.3661,24.7208 C76.3661,24.0948 77.9031,24.4738 78.4061,25.5098 C78.4901,25.6838 78.4361,26.1168 78.3521,26.1448 C78.0161,26.2538 77.4721,26.4208 77.3131,26.2608 C76.6481,25.5898 76.1901,25.7498 75.4921,26.2718 C74.8561,26.7448 72.6061,25.2448 72.5481,24.4198 C72.4841,23.4968 72.8051,22.5058 71.8681,21.7478 C71.6901,21.6038 71.8751,20.8558 72.0591,20.4648 C72.2241,20.1148 72.5931,19.8408 72.9151,19.5878 C73.5061,19.1238 73.5131,18.6418 73.0661,18.0858 C72.3061,17.1438 72.5501,16.3548 73.0611,15.2348 C73.4961,14.2798 74.3751,13.4828 74.2741,12.2138 C74.2331,11.6998 74.8471,10.9988 75.3411,10.6128 C75.9551,10.1328 76.7241,9.7658 77.4831,9.5848 C78.1411,9.4288 78.3191,9.1648 78.3281,8.5538 C78.3521,7.0558 79.2101,6.2788 80.6881,6.2128 C82.1731,6.1468 83.5941,6.1338 84.4761,7.6368 C84.5361,7.7378 84.7191,7.8538 84.8171,7.8318 C86.0031,7.5698 86.8511,8.4478 87.8651,8.7508 C88.3211,8.8888 88.7251,9.3058 89.0741,9.6708 C89.5851,10.2068 89.0161,10.5038 88.7351,10.8648 C88.6361,10.9918 88.5741,11.1768 88.5631,11.3398 C88.5121,12.1108 88.0441,12.3098 87.3641,12.2888 C86.9861,12.2778 86.6051,12.3298 86.2291,12.3538 C86.2401,12.5478 86.2381,12.6118 86.2441,12.6128 C87.4501,12.7838 87.7011,13.8948 88.2421,14.6948 C88.4521,15.0058 88.5311,15.4558 88.5381,15.8458 C88.5691,17.3968 88.4661,18.9538 88.5751,20.4978 C88.6471,21.5368 88.2181,22.2108 87.4821,22.7778 C87.0251,23.1288 86.8741,23.4078 87.4211,23.8108 C87.5891,23.9358 87.7341,24.2068 87.7401,24.4138 C87.7551,25.0248 88.0631,25.1578 88.6171,25.3098 C89.3721,25.5168 90.0751,25.9468 90.7731,26.3298 C91.5271,26.7438 92.2041,27.4378 92.9991,27.6048 C93.9501,27.8048 94.4571,28.4268 95.0891,28.9758 C95.8191,29.6088 96.2451,29.4468 96.5851,28.5758 C96.7871,28.0598 97.1461,27.5408 97.5711,27.1898 C98.3331,26.5578 98.4021,26.0588 97.7011,25.3148 C97.4511,25.0478 97.3921,24.3738 97.5521,24.0278 C97.6621,23.7908 98.3011,23.7278 98.7031,23.7298 C98.8911,23.7298 99.2441,24.0748 99.2371,24.2528 C99.1991,25.2588 99.7921,26.3168 98.7791,27.2568 C98.2431,27.7548 97.9841,28.5798 97.6881,29.2938 C97.5971,29.5138 97.7011,29.9968 97.8771,30.1158 C98.6821,30.6548 98.4871,31.4488 98.4811,32.1788 C98.4791,32.3948 98.2531,32.6878 98.0511,32.7918 C97.9191,32.8618 97.5631,32.7158 97.4501,32.5618 C97.1161,32.1118 96.8981,31.5718 96.5461,31.1388 C96.3281,30.8698 95.9361,30.5448 95.6461,30.5668 C94.3011,30.6688 93.3151,30.1858 92.3981,29.1978 C91.8841,28.6458 91.0521,28.3528 90.3151,28.0678 C90.0861,27.9798 89.4211,28.3208 89.4291,28.4308 C89.4961,29.3718 89.1071,30.3428 89.8961,31.2588 C90.2691,31.6918 90.1251,32.5928 90.1401,33.2838 C90.1431,33.3838 89.5721,33.6308 89.5151,33.5718 C89.3051,33.3498 89.1591,33.0428 89.0591,32.7448 C88.7321,31.7688 88.4351,30.7828 88.0701,29.6158 C87.6051,30.4848 87.1951,31.0688 86.9871,31.7178 C86.8931,32.0088 87.1191,32.5008 87.3491,32.7778 C87.8561,33.3888 87.8721,33.9078 87.3701,34.5228 C87.1501,34.7918 86.9491,35.1718 86.9461,35.5048 C86.9381,36.1768 86.9151,36.7198 86.3131,37.2348 C85.6781,37.7768 86.4531,39.2308 87.4701,39.2168 C88.6101,39.2018 89.3141,39.7338 90.0421,40.4538 C91.1701,41.5708 92.7271,40.9078 93.3081,39.5038 C93.9791,37.8818 95.2341,36.7958 96.7661,35.9448 C97.3551,35.6158 97.7431,34.9268 98.2191,34.4008 C98.2391,34.3798 98.2191,34.3278 98.2351,34.2998 C98.3481,34.0958 98.4801,33.7108 98.5811,33.7178 C100.0671,33.8238 99.8601,31.2038 101.6221,31.8388 C101.9371,31.9518 102.2061,32.1888 102.4961,32.3668 C102.2441,32.5838 102.0061,32.8238 101.7341,33.0128 C101.2401,33.3548 100.6161,33.5738 100.2481,34.0138 C99.8861,34.4488 99.9861,35.1658 100.7031,35.1378 C101.9461,35.0888 103.2511,35.6278 104.4271,34.5428 C105.0411,33.9768 106.0721,33.8828 106.8711,33.4888 C107.2861,33.2828 107.5891,32.8628 107.9771,32.5878 C108.3791,32.3038 108.8231,32.0758 109.2511,31.8308 C109.3381,31.7818 109.5041,31.7878 109.5321,31.7258 C109.8941,30.8768 110.3821,30.0478 110.5501,29.1588 C110.7381,28.1708 110.8111,27.0578 109.5601,26.5338 C108.5291,27.1908 108.5391,27.1868 108.0791,25.9288 C108.0031,25.7188 107.8001,25.5518 107.6421,25.3768 C107.1761,24.8608 107.1061,24.3018 107.6341,23.8318 C108.1141,23.4058 108.0241,23.1438 107.5961,22.7638 C106.7871,22.0458 106.1401,21.0748 104.8111,21.3398 C104.6181,21.3778 104.3711,21.0518 104.1261,20.9588 C103.9081,20.8748 103.6381,20.8098 103.4201,20.8618 C102.8511,20.9968 102.2881,21.3738 101.7421,21.3418 C100.7761,21.2848 100.0581,21.5838 99.5201,22.3308 C98.9581,23.1118 98.5051,22.8438 97.9281,22.3238 C97.3691,21.8178 97.3641,21.4658 97.9431,20.9978 C98.1211,20.8548 98.2161,20.5258 98.2321,20.2738 C98.3341,18.5698 99.7701,17.0878 101.5181,16.9918 C102.2101,16.9548 102.4111,16.6338 102.3811,16.0078 C102.3481,15.3198 102.3581,14.6288 102.3401,13.9398 C102.3231,13.2268 102.6191,12.8318 103.3761,12.8458 C104.1691,12.8598 104.9621,12.8468 105.7551,12.8518 C105.8921,12.8528 106.0831,12.8288 106.1571,12.9058 C107.3401,14.1408 108.8601,13.5608 110.2451,13.6618 C111.0831,13.7238 113.0831,15.0958 113.3271,15.9058 C113.4001,16.1528 113.4141,16.4908 113.3031,16.7068 C112.9101,17.4708 112.4801,18.2218 112.0041,18.9378 C111.5251,19.6598 111.6351,20.7158 112.3871,21.4328 C112.9941,22.0088 113.7451,22.4468 112.6781,23.3528 C112.2101,23.7498 111.9981,24.4798 111.7531,25.0908 C111.6321,25.3938 111.5431,25.9008 111.7031,26.0908 C112.5201,27.0568 112.1351,27.9408 111.7751,28.9368 C111.5481,29.5608 111.7501,30.0778 112.6741,30.3038 C113.8631,30.5928 114.9591,31.2608 116.0961,31.7638 C116.1891,31.8048 116.2921,31.8598 116.3871,31.8548 C117.9031,31.7818 118.9891,32.7268 120.2231,33.3758 C121.1421,33.8588 122.2451,33.9778 123.2091,34.3938 C123.8061,34.6508 124.3871,35.0778 124.8141,35.5708 C125.7851,36.6888 127.1541,37.0588 128.3711,37.7318 C129.2131,38.1978 129.8271,39.0578 130.6111,39.6528 C131.7861,40.5428 132.3071,41.8868 133.0921,43.0438 C133.2471,43.2718 133.2301,43.6398 133.2331,43.9438 C133.2431,45.4258 133.2351,46.9078 133.2301,48.3908 C133.2281,49.1688 133.3781,49.9558 132.5781,50.5498 C132.3571,50.7138 132.4231,51.3128 132.4181,51.7128 C132.4121,52.3478 132.1811,52.6408 131.5181,52.8618 C130.5931,53.1688 129.6711,53.6368 128.9061,54.2378 C127.8641,55.0558 128.2341,56.2398 129.5621,56.6238 C129.7241,56.6708 129.9491,56.5988 130.0661,56.6858 C130.2851,56.8498 130.5351,57.0698 130.5931,57.3088 C130.6211,57.4288 130.2451,57.8028 130.0721,57.7908 C129.0541,57.7188 127.9061,58.2118 127.0811,57.1848 C127.0611,57.1578 127.0351,57.1268 127.0041,57.1168 C125.4891,56.6198 125.2001,58.1748 124.3391,58.7578 C123.8181,59.1118 124.2121,59.5748 124.4571,60.0788 C124.9531,61.0958 125.9251,61.9408 125.7671,63.2398 C125.7401,63.4628 125.7671,63.8218 125.9071,63.9158 C126.8351,64.5508 126.5741,65.4768 126.6101,66.3538 C126.6261,66.7308 126.8111,67.1078 126.9521,67.4728 C127.3711,68.5658 128.1721,69.4368 128.3081,70.7338 C128.4351,71.9418 129.1801,73.0808 129.6221,74.2618 C129.7721,74.6638 129.8701,75.0968 129.9171,75.5238 C130.0371,76.5988 129.5561,77.7478 130.6071,78.7008 C130.9111,78.9768 130.7481,79.8178 130.7211,80.3958 C130.6891,81.0748 130.7991,81.4718 131.6211,81.5698 C132.5931,81.6858 134.0301,83.6748 134.0531,84.6558 C134.0601,84.9748 134.1701,85.3178 134.3221,85.6018 C134.7431,86.3868 135.2131,87.1458 135.6571,87.9178 C135.9531,88.4318 136.2121,88.9668 136.5291,89.4668 C137.0611,90.3048 137.5671,91.1698 138.1941,91.9338 C138.6751,92.5188 139.1591,93.1928 140.0981,93.1918 C140.2801,93.1918 140.5301,93.5828 140.6301,93.8398 C141.2451,95.4078 142.4161,96.4168 143.8581,97.1748 L143.8581,98.4158 C143.6371,98.4918 143.3531,98.5068 143.2051,98.6558 C142.5001,99.3718 141.9071,99.3168 141.1611,98.6438 C140.9251,98.4318 140.2471,98.5918 139.8221,98.7318 C138.7321,99.0898 137.8881,100.0208 136.6201,100.0048 C134.2441,99.9758 134.2301,100.0028 134.0941,102.3668 C134.0681,102.8248 134.0241,103.4768 134.2841,103.7138 C134.8571,104.2378 134.8701,104.8058 134.9121,105.4728 C134.9301,105.7748 135.2341,106.2348 135.5011,106.3158 C136.7641,106.6988 137.2841,107.4368 137.3941,108.7268 C137.5581,110.6428 136.8591,112.6118 138.0831,114.4938 C138.6201,115.3198 138.8801,116.1478 139.9811,116.3358 C140.2371,116.3798 140.5621,116.7238 140.6391,116.9918 C141.0091,118.2758 140.2011,119.5238 138.8901,119.8708 C138.6371,119.9388 138.3571,120.1468 138.2211,120.3688 C137.5201,121.5218 136.8571,122.6978 136.1891,123.8688 C135.7471,124.6438 135.1011,125.3848 134.9411,126.2158 C134.7471,127.2218 134.2461,127.3368 133.4461,127.3108 C132.9761,127.2948 132.4061,127.2188 132.4791,127.9998 L127.1001,127.9998 Z" id="Fill-1" fill="#231916" mask="url(#mask-2)"></path>
                </g>
                <path d="M80.2485,35.7122 C81.1915,35.3472 82.1575,35.0252 83.0565,34.5722 C83.1925,34.5032 83.0575,33.8192 82.9845,33.4332 C82.9285,33.1302 82.7055,32.8472 82.7005,32.5532 C82.6985,32.4532 83.1585,32.2302 83.3695,32.2692 C83.7055,32.3312 84.2245,32.5082 84.2855,32.7382 C84.4895,33.4992 84.8085,34.3362 83.9495,34.9932 C83.7445,35.1512 83.6425,35.5002 83.5805,35.7802 C83.2725,37.1842 82.0475,37.6912 80.8085,36.9722 C80.4525,36.7662 79.9495,36.8332 79.5395,36.6962 C79.1655,36.5722 78.8255,36.3442 78.4715,36.1602 C78.8315,35.9482 79.1785,35.7072 79.5585,35.5372 C79.7285,35.4602 79.9645,35.5252 80.1705,35.5252 C80.1965,35.5872 80.2225,35.6502 80.2485,35.7122" id="Fill-3" fill="#231916"></path>
                <path d="M84.8383,25.4281 C85.2533,25.6791 85.5933,25.8841 85.9323,26.0901 C85.5173,26.5591 85.1503,27.0881 84.6713,27.4791 C84.2763,27.8021 83.7663,28.0301 83.2703,28.1751 C82.8753,28.2911 82.3703,28.3451 82.0223,28.1891 C81.7993,28.0881 81.6123,27.5031 81.7003,27.2281 C81.7973,26.9231 82.1923,26.6591 82.5163,26.4901 C83.2373,26.1151 83.9943,25.8081 84.8383,25.4281" id="Fill-5" fill="#231916"></path>
                <path d="M80.3325,19.3499 C80.3165,19.4999 80.3665,19.9849 80.1905,20.3639 C80.0665,20.6329 79.6585,20.8519 79.3395,20.9229 C79.1025,20.9769 78.6035,20.7949 78.5755,20.6499 C78.5245,20.3879 78.7525,20.0789 78.8385,19.7819 C78.9475,19.4059 79.0005,19.0119 79.1345,18.6469 C79.2805,18.2469 79.4645,17.5609 79.6805,17.5409 C80.4365,17.4719 80.2955,18.1589 80.3315,18.6479 C80.3415,18.7839 80.3325,18.9209 80.3325,19.3499" id="Fill-7" fill="#231916"></path>
                <path d="M90.4819,36.2572 C90.0449,36.8632 89.6299,37.4882 89.1539,38.0622 C89.0579,38.1762 88.5609,38.1622 88.5289,38.0872 C88.3909,37.7672 88.2189,37.3572 88.3139,37.0612 C88.5259,36.4032 88.8429,35.7622 89.2269,35.1882 C89.3119,35.0622 89.9029,35.1572 90.1649,35.3132 C90.3099,35.3992 90.2549,35.8202 90.2919,36.0902 L90.4819,36.2572 Z" id="Fill-9" fill="#231916"></path>
                <path d="M99.5493,28.1361 C99.7943,28.3171 99.9793,28.3851 100.0453,28.5141 C100.3633,29.1331 100.7123,29.7501 100.9183,30.4081 C101.0083,30.6991 100.7833,31.0861 100.7023,31.4291 C100.4063,31.3421 100.0713,31.3161 99.8213,31.1571 C99.0203,30.6491 98.8583,29.8501 99.0283,28.9891 C99.0853,28.6991 99.3483,28.4521 99.5493,28.1361" id="Fill-11" fill="#231916"></path>
                <path d="M103.4741,26.013 C103.1421,25.806 102.8091,25.599 102.4771,25.392 C103.0071,24.926 103.4731,24.326 104.0861,24.039 C104.5981,23.8 105.0731,24.203 105.1091,24.85 C105.1451,25.482 104.8231,25.807 104.1921,25.825 C103.9871,25.829 103.7811,25.825 103.5761,25.825 C103.5411,25.888 103.5081,25.951 103.4741,26.013" id="Fill-13" fill="#231916"></path>
                <path d="M103.9741,26.3275 C104.3071,26.5665 104.6401,26.8065 104.9721,27.0475 C104.4541,27.4895 103.9951,28.0615 103.4001,28.3365 C102.8961,28.5675 102.3951,28.2215 102.3411,27.5635 C102.2851,26.8715 102.6441,26.5515 103.3181,26.5475 L103.8311,26.5475 C103.8791,26.4735 103.9261,26.4005 103.9741,26.3275" id="Fill-15" fill="#231916"></path>
                <path d="M92.7173,39.2611 C92.5843,39.3841 92.1603,39.8311 92.1223,39.8001 C91.6733,39.4391 91.2823,39.0051 90.8763,38.5911 C91.1473,38.4071 91.4023,38.0971 91.6903,38.0631 C92.3403,37.9841 92.6943,38.3641 92.7173,39.2611" id="Fill-17" fill="#231916"></path>
                <path d="M85.1528,23.0413 C84.6828,22.5113 84.2558,22.0973 84.2888,22.0573 C84.6388,21.6263 85.0618,21.2543 85.4648,20.8663 C85.6658,21.0943 86.0738,21.3883 86.0258,21.5363 C85.8848,21.9793 85.5658,22.3653 85.1528,23.0413" id="Fill-19" fill="#231916"></path>
                <path d="M80.1577,34.5091 C79.7787,34.1161 79.5377,33.8651 79.2967,33.6141 C79.5667,33.4251 79.8487,33.0701 80.1047,33.0881 C80.4087,33.1091 80.6907,33.4511 80.9817,33.6541 C80.7577,33.8871 80.5317,34.1201 80.1577,34.5091" id="Fill-21" fill="#231916"></path>
                <path d="M112.4194,67.6429 C112.6094,68.3149 112.8004,68.9859 112.9894,69.6569 C113.1164,70.1079 113.3884,70.5769 113.3384,71.0069 C113.2074,72.1309 113.8194,72.8099 114.4314,73.6359 C115.1394,74.5939 115.9724,75.6159 115.8944,76.9419 C115.8744,77.2769 115.5544,77.5949 115.3714,77.9209 C115.1554,77.6339 114.9214,77.3599 114.7294,77.0579 C114.6044,76.8619 114.5984,76.5649 114.4404,76.4189 C113.2964,75.3609 112.9414,73.8229 112.1144,72.6149 C111.0614,71.0749 111.6254,69.5009 111.4194,67.9569 C111.3854,67.6959 111.6324,67.3019 111.8654,67.1169 C112.4994,66.6129 112.2724,66.1989 111.9644,65.6099 C111.6534,65.0129 111.5334,64.2989 111.4384,63.6209 C111.4124,63.4419 111.7854,63.2059 111.9764,62.9969 C112.1724,63.1949 112.4304,63.3599 112.5534,63.5949 C113.0294,64.5069 113.4374,65.4549 113.9184,66.3629 C114.5554,67.5629 115.2364,68.7389 115.9034,69.9219 C115.9704,70.0399 116.0994,70.1269 116.1464,70.2489 C116.2664,70.5599 116.3564,70.8819 116.4584,71.2009 C116.0414,71.2399 115.4864,71.4659 115.2354,71.2809 C114.7404,70.9139 114.3534,70.3549 114.0314,69.8099 C113.5974,69.0719 113.2664,68.2719 112.8914,67.4979 C112.7334,67.5469 112.5764,67.5949 112.4194,67.6429" id="Fill-23" fill="#231916"></path>
                <path d="M116.4604,108.8324 C116.2144,108.6214 115.9604,108.4034 115.7064,108.1864 C115.9494,107.9644 116.1764,107.7204 116.4394,107.5244 C116.9364,107.1554 117.4324,106.7794 117.9684,106.4754 C118.2724,106.3024 118.6524,106.2654 118.9994,106.1664 C119.0064,106.5794 119.1824,107.2174 118.9874,107.3634 C118.2604,107.9124 117.4124,108.3014 116.4604,108.8324" id="Fill-25" fill="#231916"></path>
                <path d="M80.7856,60.8138 C80.7856,60.4008 80.7236,59.9728 80.8086,59.5788 C80.8626,59.3338 81.1436,59.1378 81.3226,58.9198 C81.5386,59.1418 81.7856,59.3418 81.9586,59.5928 C82.0406,59.7118 82.0096,59.9338 81.9786,60.0998 C81.7126,61.5808 82.6726,62.6528 83.1866,63.8818 C83.4416,64.4908 83.4536,65.1968 83.6176,65.8478 C83.7286,66.2908 83.9086,66.7158 84.0716,67.1438 C84.1066,67.2348 84.2366,67.2928 84.2626,67.3828 C84.6036,68.5928 84.9006,69.8168 85.2796,71.0148 C85.5406,71.8358 85.8546,72.6518 86.2496,73.4178 C86.6566,74.2098 87.2446,74.9098 87.6396,75.7068 C87.7926,76.0158 87.6676,76.4888 87.5886,76.8708 C87.5666,76.9738 87.1196,77.1138 87.0886,77.0708 C86.8826,76.7958 86.7296,76.4808 86.5756,76.1698 C86.4866,75.9898 86.4626,75.7708 86.3496,75.6098 C85.6636,74.6238 84.9486,73.6578 84.2726,72.6648 C84.1476,72.4808 84.1756,72.2008 84.1006,71.9748 C83.9176,71.4198 83.7176,70.8708 83.5196,70.3198 C83.4976,70.2568 83.4296,70.2088 83.4126,70.1458 C83.0926,68.9298 82.7846,67.7098 82.4536,66.4978 C82.3676,66.1808 82.2286,65.8758 82.0836,65.5798 C82.0116,65.4298 81.8096,65.3318 81.7696,65.1818 C81.3796,63.7438 81.0106,62.2988 80.6356,60.8558 C80.6856,60.8418 80.7356,60.8278 80.7856,60.8138" id="Fill-27" fill="#231916"></path>
                <path d="M86.3432,61.1595 C86.6142,60.6895 86.9032,59.8105 87.1522,59.8215 C88.0702,59.8625 87.7062,60.7175 87.7662,61.2775 C87.8022,61.6175 87.8472,61.9895 87.7462,62.3025 C87.6592,62.5755 87.3762,62.7865 87.1792,63.0245 C86.9792,62.7895 86.6912,62.5845 86.6032,62.3125 C86.5022,62.0015 86.5792,61.6325 86.5792,61.2885 C86.5012,61.2455 86.4222,61.2025 86.3432,61.1595" id="Fill-29" fill="#231916"></path>
            </g>
        </g>
    </g>
</svg>