<?xml version="1.0" encoding="UTF-8"?>
<svg width="143px" height="190px" viewBox="0 0 143 190" version="1.1" xmlns="http://www.w3.org/2000/svg" xmlns:xlink="http://www.w3.org/1999/xlink">
    <!-- Generator: Sketch 60 (88103) - https://sketch.com -->
    <title>figure26</title>
    <desc>Created with Sketch.</desc>
    <defs>
        <polygon id="path-1" points="0.141241976 0.5951 78.948 0.5951 78.948 162 0.141241976 162"></polygon>
        <polygon id="path-3" points="0 0.113 51.8575793 0.113 51.8575793 143.023517 0 143.023517"></polygon>
    </defs>
    <g id="页面-1" stroke="none" stroke-width="1" fill="none" fill-rule="evenodd">
        <g id="桌面端-HD备份-2" transform="translate(-874.000000, -786.000000)">
            <g id="figure26" transform="translate(874.000000, 785.000000)">
                <g id="编组" transform="translate(64.000000, 28.887000)">
                    <mask id="mask-2" fill="white">
                        <use xlink:href="#path-1"></use>
                    </mask>
                    <g id="Clip-2"></g>
                    <path d="M11.363,49.5101 C10.837,48.1891 10.536,47.0851 9.978,46.1321 C9.443,45.2171 8.642,44.4581 7.959,43.6301 C7.294,44.7221 5.889,45.9941 6.104,46.8691 C6.744,49.4701 8.02,51.9141 9.199,54.7861 C11.416,52.3551 12.879,50.7491 15.03,48.3901 C13.295,48.9201 12.321,49.2171 11.363,49.5101 L11.363,49.5101 Z M31.75,94.0261 C31.323,94.0481 30.897,94.0711 30.47,94.0931 C30.858,101.4761 31.246,108.8581 31.634,116.2401 C35.75,108.6221 33.352,101.3451 31.75,94.0261 L31.75,94.0261 Z M9.776,121.5971 C9.58,121.5121 9.384,121.4271 9.188,121.3421 C8.437,127.4291 7.531,133.5041 7.052,139.6131 C6.943,141.0091 8.309,142.5211 8.997,143.9801 C9.624,142.3171 10.81,140.6441 10.779,138.9921 C10.671,133.1901 10.143,127.3951 9.776,121.5971 L9.776,121.5971 Z M11.335,125.1741 C9.582,138.9381 12.018,144.5271 19.001,143.7771 C16.471,137.6401 13.897,131.3931 11.335,125.1741 L11.335,125.1741 Z M34.547,29.0891 C34.122,30.0011 33.184,31.2191 33.028,32.5301 C32.754,34.8291 32.488,37.3181 33.097,39.4801 C33.675,41.5231 34.999,44.2401 36.677,44.8861 C39.449,45.9531 41.673,44.2491 41.992,40.8851 C42.102,39.7161 42.501,38.5731 42.767,37.4191 C42.407,37.2141 42.048,37.0091 41.687,36.8041 C40.624,38.1251 39.56,39.4471 38.016,41.3681 C36.822,37.1421 35.81,33.5611 34.547,29.0891 L34.547,29.0891 Z M28.569,38.1751 C28.803,38.1041 29.038,38.0331 29.272,37.9631 C29.617,40.5141 29.963,43.0651 30.307,45.6161 C30.747,45.6091 31.185,45.6011 31.625,45.5931 L31.625,29.6161 C28.473,32.6611 24.851,34.5091 24.316,37.0161 C23.114,42.6451 19.618,48.6531 25.72,54.3411 C27.877,56.3511 27.633,60.9361 28.484,64.3451 C28.939,64.3211 29.393,64.2961 29.847,64.2731 C29.422,55.5731 28.995,46.8741 28.569,38.1751 L28.569,38.1751 Z M58.106,81.0711 C57.924,85.2301 57.741,89.3891 57.532,94.1531 C62.647,91.1211 64.491,85.9131 63.279,79.6931 C62.321,81.6871 61.47,83.4571 60.62,85.2271 C60.452,85.1381 60.285,85.0481 60.117,84.9591 C60.779,81.6961 61.441,78.4321 62.328,74.0561 C60.404,77.2141 59.185,79.2141 57.967,81.2131 C61.622,66.2561 65.175,51.3001 56.921,36.4041 L58.705,36.0141 L62.056,47.4461 L62.762,47.2731 C62.9,46.1661 63.038,45.0611 63.286,43.0621 C63.836,44.8811 64.127,45.8441 64.418,46.8081 C64.708,46.8181 64.997,46.8271 65.287,46.8371 C65.643,44.9371 66,43.0371 66.536,40.1781 C66.834,44.1791 67.055,47.1521 67.306,50.5271 L64.132,50.5271 C63.883,50.9591 63.634,51.3921 63.384,51.8251 C64.463,52.5901 65.966,54.2311 66.54,53.9531 C68.198,53.1511 70.769,51.5021 70.702,50.3161 C70.299,43.2011 69.255,36.1241 68.358,28.4661 C66.068,29.3141 64.885,30.1871 64.328,29.8891 C59.426,27.2771 57.313,32.3911 54.181,33.9461 C52.601,34.7301 52.2,39.2161 52.403,41.9441 C52.687,45.7371 54.494,49.4101 54.826,53.2061 C55.306,58.6811 55.188,64.2251 54.992,69.7281 C54.951,70.8671 53.564,72.7971 52.605,72.9261 C46.949,73.6851 48.858,77.2571 49.675,80.2921 C51.645,87.6221 53.77,94.9111 55.833,102.2171 C55.441,102.3281 55.05,102.4411 54.658,102.5531 C52.888,96.7131 51.119,90.8731 49.733,86.2991 C49.36,90.4481 48.805,95.8211 48.417,101.2041 C48.154,104.8401 47.666,108.5511 48.115,112.1231 C48.63,116.2131 50.069,120.1871 51.106,124.2111 C50.764,124.3071 50.422,124.4031 50.08,124.4971 C48.59,119.6211 47.1,114.7441 45.611,109.8681 C45.255,109.9451 44.898,110.0211 44.541,110.0971 C45.358,114.7031 46.176,119.3101 47.054,124.2591 C42.995,120.5211 46.126,112.7881 39.144,111.2511 C39.483,110.0581 39.822,108.8651 40.253,107.3461 C43.533,107.8651 46.23,105.8701 46.558,101.8251 C47.228,93.5601 47.917,85.2401 47.628,76.9781 C47.501,73.3441 44.924,69.8211 43.622,66.1891 C43.168,64.9231 43.203,63.4831 43.015,62.1221 L43.765,62.0201 C44.618,63.8771 45.47,65.7361 46.323,67.5931 L47.047,67.3881 C46.758,65.2131 46.468,63.0381 46.129,60.4781 C50.147,67.0881 50.147,67.0881 54.861,63.5061 C53.747,59.7641 52.616,55.9711 51.576,52.4811 C49.209,52.7881 47.203,53.0491 45.198,53.3101 C45.183,52.9331 45.169,52.5561 45.153,52.1801 C47.104,51.6591 49.055,51.1391 51.007,50.6191 C50.993,50.1591 50.979,49.7001 50.966,49.2401 C48.344,48.8711 45.184,47.4231 43.237,48.3981 C40.652,49.6921 37.947,52.5831 37.197,55.3121 C35.741,60.6071 35.017,66.2741 35.092,71.7721 C35.176,78.0571 36.461,84.3251 37.223,90.6021 C37.116,90.6531 37.009,90.7041 36.901,90.7551 C36.12,88.4851 35.339,86.2141 34.556,83.9451 C34.277,86.4871 35.393,89.1051 34.778,91.2191 C32.535,98.9311 34.971,105.3261 39.32,111.4151 C38.964,113.2091 37.931,115.1931 38.373,116.7621 C39.933,122.3101 41.997,127.7151 43.87,133.1741 C43.465,133.3181 43.059,133.4601 42.654,133.6041 C40.417,127.1931 38.18,120.7821 35.993,114.5141 L35.993,121.5811 C35.147,119.5451 34.837,118.7981 34.526,118.0511 C34.094,123.1261 34.593,128.0681 35.388,132.9611 C36.037,136.9551 37.471,140.8591 37.774,144.8631 C38.14,149.7111 38.752,150.8601 43.429,151.5061 C41.932,149.8111 40.314,147.9801 38.697,146.1481 C38.978,145.9041 39.259,145.6591 39.54,145.4151 C40.709,146.6541 41.879,147.8911 43.241,149.3331 C43.363,148.0191 43.44,147.1841 43.517,146.3491 C44.629,146.7981 46.212,146.9271 46.771,147.7511 C49.676,152.0291 54.009,153.2471 58.61,152.9101 C60.147,152.7981 62.904,149.9761 62.693,148.8381 C61.927,144.6981 60.141,140.7471 58.494,136.0191 C57.937,139.6801 57.518,142.4331 57.1,145.1861 C56.688,145.1241 56.275,145.0641 55.863,145.0021 C56.229,137.9021 57.042,130.7911 56.868,123.7051 C56.514,109.3691 55.718,95.0401 54.83,80.7261 C54.73,79.1311 52.849,77.6471 51.641,75.8891 C51.057,76.3281 51.4,76.0131 51.793,75.7841 C53.026,75.0701 54.279,74.3871 55.6,73.6501 C56.192,79.9581 56.192,79.9581 58.106,81.0711 L58.106,81.0711 Z M60.321,96.6641 C59.526,97.4271 57.971,98.2831 58.051,98.9401 C59.091,107.4321 60.363,115.8951 61.576,124.3651 C62.164,124.4901 62.751,124.6161 63.339,124.7411 L58.953,126.4171 C59.396,126.9251 59.839,127.4331 60.282,127.9401 C62.258,127.9401 65.22,127.1101 66.039,128.0821 C69.707,132.4461 72.112,129.3111 75.21,127.5701 C70.961,119.1501 71.598,110.4861 72.121,101.9981 C72.899,89.3351 74.357,76.7121 70.734,64.9301 C67.885,64.7311 65.426,64.5591 61.983,64.3191 C62.23,66.3801 62.384,68.9831 62.879,71.5181 C63.983,77.1801 66.771,82.5971 64.072,88.6701 C63.191,90.6531 63.192,93.5151 63.885,95.6131 C65.709,101.1281 68.134,106.4451 70.32,111.8411 C69.921,112.0211 69.522,112.1991 69.123,112.3791 C66.488,106.4321 63.852,100.4841 60.858,93.7271 C60.519,95.3501 60.37,96.0661 60.22,96.7811 L60.321,96.6641 Z M33.82,139.9291 C32.533,135.1551 30.52,130.4421 30.111,125.5941 C29.263,115.5731 29.277,105.4811 28.902,95.4191 C28.886,95.0171 28.514,94.6281 28.121,93.8731 C27.173,95.0061 26.412,95.9131 25.586,96.9001 C24.087,95.6581 22.718,94.5251 21.064,93.1551 C21.737,97.1331 22.717,100.6341 22.821,104.1601 C22.937,108.1011 24.285,112.7201 18.867,114.9801 C18.09,115.3031 17.659,118.2361 18.16,119.5421 C20.543,125.7651 23.303,131.8421 26.146,138.4751 C19.467,133.4881 19.575,125.2611 15.348,119.2601 C13.454,129.3841 18.515,137.9621 22.091,147.9401 C26.689,146.8631 31.409,145.7571 36.513,144.5611 C35.058,142.1141 34.362,140.9431 33.68,139.7871 C34.339,140.0871 34.997,140.3881 35.946,140.8201 C34.392,133.9921 32.94,127.6051 31.488,121.2181 C30.999,124.0591 31.253,126.7981 31.723,129.4981 C32.332,132.9911 33.113,136.4531 33.82,139.9291 L33.82,139.9291 Z M29.255,75.7271 C28.505,75.4841 27.755,75.2401 27.004,74.9961 C26.317,69.4881 25.632,63.9791 24.945,58.4691 C24.244,58.9161 23.543,59.3631 22.842,59.8101 C21.183,58.7341 19.523,57.6561 16.63,55.7801 C14.607,58.6751 10.763,61.7901 10.294,65.3501 C9.322,72.7241 5.786,80.3041 9.814,87.8621 C10.018,88.2451 10.006,89.1641 9.785,89.2901 C6.106,91.3851 8.994,93.8841 9.477,96.0611 C10.042,98.6091 11.199,101.0261 12.098,103.4991 C11.647,103.6671 11.195,103.8351 10.743,104.0031 C9.301,100.3301 7.86,96.6561 6.418,92.9831 C6.112,93.0471 5.805,93.1111 5.5,93.1751 C6.441,98.0291 7.383,102.8831 8.495,108.6151 C6.426,104.4521 4.749,101.0791 3.071,97.7061 C2.725,97.8941 2.379,98.0811 2.033,98.2701 C4.409,105.5161 6.784,112.7621 9.145,119.9621 C16.266,117.9561 16.266,117.9561 19.727,102.1981 C19.888,105.4061 20.004,107.7261 20.12,110.0451 C20.521,110.0061 20.923,109.9671 21.324,109.9291 C20.9,106.0441 20.485,102.1591 20.051,98.2771 C18.697,86.1951 17.322,74.1161 16.019,62.0301 C15.956,61.4401 16.501,60.7841 17.349,58.7521 C17.673,61.3641 17.64,62.4821 17.965,63.4831 C19.214,67.3391 20.576,71.1581 21.896,74.9911 C21.756,76.8021 21.615,78.6131 21.372,81.7351 C24.89,79.0231 27.131,77.2961 29.371,75.5711 C29.11,78.6441 28.85,81.7181 28.634,84.2711 C29.29,86.3911 29.896,88.3501 30.503,90.3101 L31.798,90.2481 C31.561,86.1941 31.325,82.1391 31.028,77.0441 C31.87,78.6821 32.162,79.2511 32.454,79.8211 C32.771,79.7481 33.088,79.6761 33.405,79.6051 C32.884,73.7311 32.365,67.8571 31.844,61.9831 C31.418,62.0031 30.991,62.0241 30.564,62.0451 C30.773,66.6351 30.981,71.2261 31.184,75.6941 C30.778,75.6941 30.032,75.6941 29.255,75.7271 L29.255,75.7271 Z M73.827,138.1641 C71.649,139.5221 69.47,140.8791 67.467,142.1281 C71.043,143.3681 74.995,144.7401 78.948,146.1131 L78.948,147.1131 C73.673,145.9151 68.398,144.7181 63.15,143.5271 C63.185,143.6501 63.364,144.6951 63.771,145.6411 C66.43,151.8131 63.794,155.6071 56.81,155.0201 C52.147,154.6271 47.546,153.4961 42.87,152.6881 C45.524,155.2601 47.905,157.5661 50.286,159.8721 C50.09,160.0861 49.893,160.3001 49.696,160.5141 C46.776,158.5621 43.857,156.6101 40.937,154.6561 C40.702,154.9611 40.467,155.2661 40.232,155.5701 C41.354,156.9001 42.475,158.2291 43.634,159.6041 C31.293,161.0961 18.946,164.5261 7.113,158.8451 C7.415,158.3871 7.716,157.9291 8.017,157.4711 L8.017,147.2901 C8.298,147.3181 8.579,147.3451 8.859,147.3711 C10.098,150.8811 11.092,154.5181 12.776,157.7981 C13.135,158.4961 16.015,157.9001 18.282,157.9001 C16.686,155.4511 15.449,153.5531 14.211,151.6541 C14.398,151.5261 14.585,151.3971 14.772,151.2691 C17.716,154.3751 20.659,157.4831 23.602,160.5891 C24.016,160.1961 24.43,159.8031 24.843,159.4101 C23.338,157.7721 21.831,156.1331 20.325,154.4941 C20.555,154.2061 20.786,153.9181 21.016,153.6311 C23.62,155.7651 26.222,157.9001 29.016,160.1911 C29.199,158.8761 29.363,157.6891 29.545,156.4861 C32.162,157.5151 34.762,158.5591 37.363,159.6031 C37.756,158.9221 38.147,158.2421 38.54,157.5621 C35.047,154.5931 31.552,151.6241 28.059,148.6561 C27.684,149.0531 27.31,149.4501 26.935,149.8481 C28.654,151.8831 30.372,153.9181 32.023,155.8741 C31.331,156.0641 30.395,156.3191 29.461,156.5741 C27.66,150.4581 23.074,147.6301 17.296,146.0651 C15.645,145.6171 14.14,144.6361 12.343,143.7941 C8.335,146.5171 6.228,146.1261 5.622,141.0441 C5.043,136.1821 6.362,131.1231 6.366,126.1511 C6.368,122.9061 5.616,119.6391 5.006,116.4191 C4.465,113.5651 3.605,110.7721 2.988,107.9301 C2.78,106.9721 3.283,105.6391 2.787,104.9981 C-2.934,97.6121 2.084,91.1521 4.239,84.3371 C5.547,80.2041 6.158,75.8411 6.942,71.5551 C7.902,66.3031 8.717,61.0251 9.606,55.6851 C3.87,51.6161 2.571,45.0911 5.824,36.0691 C5.335,36.1521 4.845,36.2351 4.356,36.3171 C3.849,33.7581 2.489,31.0001 3.028,28.6861 C3.923,24.8491 7.217,24.6041 10.447,26.1351 C14.321,27.9721 18.105,29.9991 22.372,32.1701 C25.676,29.5121 20.001,29.0511 19.837,27.0121 C21.477,27.7121 23.117,28.4111 24.925,29.1831 C25.923,27.7121 27.132,25.9321 28.34,24.1521 C28.113,23.9341 27.886,23.7151 27.659,23.4961 C26.825,23.9441 25.991,24.3911 25.611,24.5941 C23.62,21.5401 21.824,18.7861 20.028,16.0321 L19.14,16.5691 C19.419,20.0961 19.697,23.6231 19.974,27.1511 C19.303,25.2411 18.213,23.3671 18.05,21.4151 C17.713,17.3831 18.554,13.4171 14.735,10.0681 C12.157,7.8051 14.47,3.5741 18.605,2.3121 C21.076,1.5571 23.621,1.0431 25.429,0.5951 C27.858,2.5021 30.408,3.8871 32.087,5.9731 C34.383,8.8251 36.039,12.1971 37.919,15.3761 C38.615,16.5541 38.865,18.5221 39.829,18.9331 C49.34,22.9861 51.843,27.9581 49.109,37.9931 C49.048,38.2191 49.354,38.5441 49.9,39.6681 C51.57,35.2401 53.021,31.3941 54.463,27.5391 C55.605,26.1451 56.757,24.7581 57.912,23.3681 C57.442,22.1111 56.987,20.8921 56.522,19.6511 C55.713,20.5311 55.1,21.1961 53.5,22.9351 C54.261,19.6481 54.706,17.7271 55.238,15.4291 C54.254,14.6371 52.663,13.3571 50.989,12.0111 C50.617,15.0521 49.546,17.9951 50.143,20.5481 C50.74,23.0941 53.008,25.2471 54.543,27.5731 C50.093,27.2361 48.816,24.4461 48.946,20.4621 C49.032,17.8041 48.951,15.1401 48.964,12.4801 C48.989,7.2311 53.738,1.3281 57.998,1.2371 C61.909,1.1521 67.094,7.2461 67.691,11.9601 C68.004,14.4241 68.861,17.0781 70.266,19.0921 C73.755,24.0871 73.872,24.6231 70.098,27.7561 C71.03,35.4581 73.433,42.7821 72.421,49.6001 C70.424,63.0431 76.427,75.6031 75.047,88.8541 C74.124,97.7081 74.029,106.6751 74.055,115.5911 C74.065,119.0351 75.617,122.4521 76.085,125.9331 C76.257,127.2091 75.325,128.6351 74.896,129.9921 C72.717,131.3141 70.674,133.2291 68.314,133.7731 C66.367,134.2231 63.68,133.5901 61.991,132.4481 C60.267,131.2811 59.359,128.9081 58.093,127.0651 C58.067,129.4441 58.13,133.2521 59.377,133.6901 C63.54,135.1521 68.127,135.4061 72.338,136.0881 C69.769,138.8111 65.865,136.4891 62.273,136.5181 C64.21,140.2931 65.217,140.7961 68.776,139.7561 C70.47,139.2611 72.144,138.6971 73.827,138.1641 L73.827,138.1641 Z" id="Fill-1" fill="#231916" mask="url(#mask-2)"></path>
                </g>
                <g id="编组" transform="translate(0.000000, 0.887000)">
                    <mask id="mask-4" fill="white">
                        <use xlink:href="#path-3"></use>
                    </mask>
                    <g id="Clip-4"></g>
                    <path d="M40.2097,54.3226 L40.2097,39.3006 L39.4657,39.2976 C38.3667,43.3116 37.2697,47.3276 36.1327,51.4816 C37.0407,52.1146 38.0847,52.8426 40.2097,54.3226 M29.7227,115.6416 C29.6427,116.0096 29.5637,116.3766 29.4827,116.7436 C32.3887,117.4986 35.2927,118.2536 38.1977,119.0086 L38.1977,112.2626 C34.8407,113.6006 32.2807,114.6216 29.7227,115.6416 M38.5557,90.1786 C45.4357,86.4996 44.0577,86.1636 40.4337,79.5246 C35.8357,85.8456 35.8357,85.8456 38.5557,90.1786 M36.3907,100.6796 C42.6027,97.4816 44.2647,95.2736 40.0547,91.1086 C38.0587,92.3236 36.0297,93.5566 33.9737,94.8076 C34.8097,96.8406 35.6017,98.7626 36.3907,100.6796 M27.7987,47.0166 C28.7797,47.1346 29.7617,47.2516 30.7417,47.3676 C31.6917,40.6656 32.6427,33.9636 33.5917,27.2606 C33.0217,27.1706 32.4507,27.0806 31.8807,26.9896 C30.5207,33.6656 29.1587,40.3416 27.7987,47.0166 M41.4057,117.7096 C48.0447,112.5166 48.3407,111.6626 45.1887,106.6076 C43.1407,108.4146 41.0997,110.2156 39.0437,112.0286 C39.8307,113.9216 40.6197,115.8186 41.4057,117.7096 M39.0137,55.9746 C37.7597,54.8666 36.7417,53.9686 35.8707,53.1986 C33.3937,55.4966 31.0977,57.6266 28.8547,59.7076 C32.5357,65.3966 32.5357,65.3966 39.0137,55.9746 M34.2407,111.9886 C43.5707,108.1926 49.1167,102.2026 44.5677,96.6296 C39.4227,98.0596 41.9087,102.1896 41.7537,106.4956 C40.5757,104.0126 39.9107,102.6126 39.1667,101.0456 C37.0707,102.3176 35.0377,103.5526 33.3237,104.5936 C33.6367,107.1156 33.9127,109.3446 34.2407,111.9886 M30.4587,77.4116 C32.3217,72.0666 42.2067,71.3776 35.9957,63.8816 C34.6487,65.0206 33.6807,66.4186 32.3987,66.8226 C27.2467,68.4456 27.9107,73.0466 29.4367,75.5856 C32.8717,81.3006 31.9477,87.0166 31.1987,93.3566 C33.3907,92.6966 35.1497,92.1666 37.1647,91.5586 C36.3307,89.9326 35.6907,88.6276 34.9997,87.3486 C34.3437,86.1376 33.6337,84.9566 32.9627,83.7876 C39.9747,79.0596 40.3447,77.7706 35.9587,74.1996 C34.4787,75.0646 32.9977,75.9286 30.4587,77.4116 M16.4437,104.0356 C4.4727,92.1776 4.0017,78.6606 5.0437,64.4246 C3.6237,67.4256 1.8327,70.6656 2.1127,73.7166 C2.9477,82.8036 4.3917,91.8556 6.0697,100.8336 C6.4897,103.0826 8.2787,105.9026 10.1997,106.7646 C11.5507,107.3716 14.1897,105.1076 16.4437,104.0356 M31.0897,25.6356 C30.5717,25.4376 30.0547,25.2416 29.5367,25.0456 C10.4447,36.7056 11.8477,55.1666 14.3927,74.0066 C13.9577,74.0436 13.5237,74.0816 13.0897,74.1186 C12.5177,70.8156 11.9447,67.5116 11.3717,64.2096 C10.9897,64.0576 10.6077,63.9066 10.2257,63.7566 C9.4327,65.3596 8.6397,66.9636 7.8457,68.5666 C8.1717,68.7786 8.4967,68.9906 8.8217,69.2026 C9.4627,68.5146 10.1047,67.8276 10.8137,67.0656 C10.5037,75.1756 14.2047,81.3576 20.1007,87.8666 C21.9347,83.6176 23.4087,80.2006 24.8837,76.7836 C25.2327,76.9366 25.5827,77.0896 25.9327,77.2426 C24.3067,81.3416 22.6797,85.4406 21.0537,89.5396 C20.3607,89.5156 19.6697,89.4926 18.9777,89.4686 C15.9967,85.0666 13.0167,80.6646 10.2057,76.5126 C9.9727,76.9996 9.4767,78.0286 8.9807,79.0586 C8.7077,78.9716 8.4367,78.8846 8.1637,78.7966 C8.0347,76.0796 7.9047,73.3626 7.7757,70.6446 C7.2257,70.6396 6.6747,70.6346 6.1237,70.6316 C6.4017,74.9636 5.9517,79.5046 7.1147,83.5856 C9.3257,91.3486 10.7347,100.0326 20.3877,102.8856 C28.7617,95.5566 31.7607,89.3426 30.3657,82.0346 C23.8237,94.1406 23.8237,94.1406 19.8627,93.5956 C25.6257,91.0856 27.9677,87.8406 27.9057,81.5866 C27.8647,77.4826 27.0767,73.3886 27.0077,69.2836 C26.8357,59.1016 27.7277,48.8016 23.0927,39.0126 C23.9367,39.7786 24.7787,40.5446 26.1787,41.8146 C25.6117,39.6116 25.2617,38.2466 24.7727,36.3456 C26.0427,36.9266 26.8177,37.2816 27.5097,37.5966 C28.7197,33.5526 29.9047,29.5936 31.0897,25.6356 M22.2727,24.8586 C21.0457,26.6376 19.8167,28.4176 18.5897,30.1966 C18.8557,30.3166 19.1217,30.4366 19.3887,30.5566 C23.0177,27.8236 26.6467,25.0906 30.2747,22.3576 C29.9487,21.9036 29.6227,21.4496 29.2967,20.9966 L22.1307,24.9986 C22.6927,24.0536 23.0487,22.5596 23.8527,22.2576 C28.6727,20.4416 28.1087,16.7936 27.3987,12.9676 C27.2987,12.4256 27.5597,11.8166 27.6517,11.2386 C27.9637,11.2346 28.2737,11.2306 28.5847,11.2266 C28.7977,12.9206 29.0097,14.6146 29.2817,16.7886 C33.1237,9.5786 32.2747,4.9626 27.0967,2.6976 C19.5407,-0.6054 11.8937,3.6816 11.0057,11.9056 C10.6697,15.0216 10.6967,18.2276 11.0067,21.3486 C11.5457,26.7896 15.2737,28.4636 19.9827,25.6566 C20.6697,25.2486 21.5177,25.1086 22.2727,24.8586 M35.3337,43.4196 C31.2497,43.3416 31.9327,47.3666 30.4607,49.4536 C30.0597,50.0216 31.7317,52.0536 32.9297,54.3106 C34.2617,51.2296 35.3477,49.4256 35.7767,47.4756 C36.0637,46.1816 35.4117,44.6796 35.1597,43.2556 C39.1607,40.8326 39.1907,35.5566 33.7297,31.6606 C34.3777,36.4096 34.8557,39.9146 35.3337,43.4196 M19.5207,130.5866 C19.9627,131.9156 20.4047,133.2436 21.1137,135.3726 C19.4947,134.0466 18.5377,133.2626 17.5817,132.4796 C17.2727,132.7436 16.9657,133.0076 16.6577,133.2706 C17.8497,134.7176 19.0407,136.1636 21.2457,138.8406 C18.0807,137.1786 16.0747,136.1266 14.4807,135.2886 C15.2047,129.9386 16.0327,125.1206 16.4677,120.2666 C16.9077,115.3476 16.9597,110.3926 17.2117,104.8116 C16.1217,105.7936 15.0637,106.6156 14.1627,107.5826 C11.3147,110.6406 7.6077,110.5036 6.3467,106.6926 C4.1607,100.0926 2.4797,93.2956 1.0547,86.4826 C0.2217,82.4976 0.0767,78.3256 0.0067,74.2306 C-0.1413,65.6376 2.0447,63.1266 11.1467,61.2996 C9.6577,50.2846 12.8597,39.9676 17.8337,29.9396 C11.3787,29.0106 9.5537,26.5376 8.9477,19.6356 C8.2787,12.0206 10.1197,5.3676 15.9477,0.1126 L26.9477,0.1126 C33.3847,5.2696 36.5837,8.5716 31.4337,17.4456 C30.4677,19.1086 31.7717,23.3926 33.4377,25.0576 C41.5597,33.1736 44.6977,43.3656 45.7277,54.1616 C46.2587,59.7336 44.0867,65.5176 44.1567,71.1936 C44.2237,76.5136 46.1857,81.8016 46.3497,87.1316 C46.7437,99.9806 52.1647,112.2426 50.3887,125.3706 C49.9337,128.7286 51.7267,132.3306 51.8487,135.8426 C52.0227,140.8676 49.6397,143.5126 44.6737,142.9486 C38.8047,142.2816 32.9557,140.8236 27.3247,139.0076 C25.3157,138.3596 23.9557,135.6756 22.3247,133.8956 C21.3477,132.8296 20.4207,131.7166 19.4757,130.6196 C19.7417,129.3786 20.0057,128.1406 20.2927,126.7916 C22.3337,130.1286 24.3247,133.3836 26.3157,136.6366 C26.6697,136.3886 27.0227,136.1396 27.3767,135.8906 C27.0007,134.7666 26.6237,133.6436 26.2467,132.5196 C27.7637,133.5066 29.6327,134.2016 30.7307,135.5336 C34.0857,139.6046 41.1577,142.3896 46.0567,140.9626 C47.3947,140.5726 48.9507,139.7236 49.6627,138.6096 C52.7647,133.7536 47.7307,124.2146 42.0817,122.9846 C38.2517,122.1506 34.3627,120.6346 31.0747,118.5256 C27.8187,116.4386 25.2837,113.2276 21.3967,109.5226 C23.2277,118.0866 24.7817,125.3546 26.3307,132.6146 C24.3327,125.4746 22.2797,118.3576 20.3857,111.1996 C19.8227,109.0736 19.7067,106.8306 19.3867,104.6406 C20.6887,105.7376 22.1667,106.6836 23.2617,107.9606 C25.8187,110.9406 27.4007,115.8346 32.9047,112.3246 C32.4567,110.0286 32.0237,107.8146 31.6067,105.6776 C29.1397,106.0076 26.6727,106.3366 24.2057,106.6656 C24.1787,106.4696 24.1497,106.2746 24.1227,106.0796 C27.7307,104.6346 31.3367,103.1896 35.6877,101.4466 C33.7517,98.6266 32.1067,96.2266 31.0577,94.6976 C26.6817,98.4616 23.0697,101.5676 19.4687,104.6836 C17.2847,113.3286 17.6917,121.9586 19.5207,130.5866" id="Fill-3" fill="#231916" mask="url(#mask-4)"></path>
                </g>
                <path d="M124.2204,125.6686 C125.6534,131.0086 127.0854,136.3476 128.5194,141.6866 C127.8664,141.8116 127.2134,141.9356 126.5614,142.0596 C125.8084,136.5646 125.0554,131.0676 124.3114,125.5616 C124.3214,125.5516 124.2204,125.6686 124.2204,125.6686" id="Fill-5" fill="#231916"></path>
                <path d="M129.4939,98.8063 C131.4749,104.0513 133.4559,109.2963 135.4359,114.5413 C135.0309,114.6923 134.6259,114.8423 134.2199,114.9933 C132.2739,109.7343 130.3289,104.4763 128.3839,99.2173 C128.7539,99.0803 129.1239,98.9433 129.4939,98.8063" id="Fill-7" fill="#231916"></path>
            </g>
        </g>
    </g>
</svg>