<?xml version="1.0" encoding="UTF-8"?>
<svg width="80px" height="151px" viewBox="0 0 80 151" version="1.1" xmlns="http://www.w3.org/2000/svg" xmlns:xlink="http://www.w3.org/1999/xlink">
    <!-- Generator: Sketch 60 (88103) - https://sketch.com -->
    <title>figure41</title>
    <desc>Created with Sketch.</desc>
    <defs>
        <polygon id="path-1" points="0.000225432495 0.450172285 78.4836362 0.450172285 78.4836362 150.434307 0.000225432495 150.434307"></polygon>
    </defs>
    <g id="页面-1" stroke="none" stroke-width="1" fill="none" fill-rule="evenodd">
        <g id="29-44" transform="translate(-1113.000000, -261.000000)">
            <g id="figure41" transform="translate(1113.000000, 261.000000)">
                <g id="编组" transform="translate(0.734440, 0.000000)">
                    <mask id="mask-2" fill="white">
                        <use xlink:href="#path-1"></use>
                    </mask>
                    <g id="Clip-2"></g>
                    <path d="M33.83088,5.08344045 C33.5812135,5.63371386 33.3450729,5.91705094 33.3670526,6.17889738 C33.38396,6.39154157 33.7114007,6.57873633 33.900764,6.7766764 C34.070402,6.52218202 34.3381031,6.28126067 34.3764266,6.00810337 C34.4046057,5.80733558 34.1307052,5.56528315 33.83088,5.08344045 M41.3124209,39.2925753 C41.4133019,39.3785378 41.5136194,39.4639348 41.6139369,39.5493318 C41.909817,39.0731446 42.2851621,38.6229723 42.4564908,38.1049348 C42.5105946,37.9392307 42.024224,37.5936839 41.5846306,37.109579 C41.4628971,38.0885341 41.3873772,38.6908375 41.3124209,39.2925753 M25.7463071,114.258703 C24.9877268,113.935212 24.5825119,113.68298 24.1496815,113.62077 C24.0003324,113.599279 23.7827901,114.049452 23.5962447,114.284152 C23.9501737,114.508107 24.2809959,114.821418 24.6664855,114.919822 C24.8637389,114.970156 25.1584919,114.635354 25.7463071,114.258703 M42.1127063,35.4299161 C42.2823442,35.5034367 42.4525457,35.5769573 42.6221837,35.6504779 C43.0347252,35.0707963 43.491226,34.5159985 43.8367013,33.8984255 C43.9477268,33.7010509 43.8079586,33.3227026 43.6991874,33.0614217 C43.6631182,32.9748936 43.231415,32.9324779 43.2088718,32.9799835 C42.8216915,33.7864479 42.4717075,34.6098787 42.1127063,35.4299161 M38.9076198,88.4111221 C38.75658,88.3602232 38.6061038,88.3093243 38.455064,88.2578599 C38.1005714,88.6537401 37.6643596,89.0060734 37.4237104,89.4619011 C37.2884509,89.7197888 37.4749963,90.1484704 37.5161377,90.5002382 C37.8576679,90.3995715 38.4037781,90.3922195 38.4995869,90.1807064 C38.743054,89.6394816 38.7853226,89.0072045 38.9076198,88.4111221 M38.0876091,94.0439311 C37.8401969,94.0478899 37.5933483,94.0512831 37.3459362,94.0558075 C37.313812,94.8486989 37.2484366,95.6427213 37.2766157,96.432785 C37.2822515,96.5911371 37.6294175,96.8218787 37.8447055,96.8552457 C37.9743292,96.8761708 38.2904983,96.5753019 38.2854261,96.426564 C38.2606285,95.6308449 38.1614382,94.837388 38.0876091,94.0439311 M43.3542757,112.775849 L43.7989413,112.807519 C43.7989413,111.809901 43.8158488,110.811152 43.7594906,109.816927 C43.7561091,109.752455 43.0572684,109.570916 42.9113009,109.701557 C42.5444095,110.031268 42.9422978,112.377706 43.3542757,112.775849 M38.364891,84.4398787 C38.3400935,84.1316577 38.3829256,83.8336165 38.2809174,83.5994816 C38.1569296,83.315579 37.9095174,83.0859685 37.7156454,82.8326052 C37.5341723,83.0938861 37.2360378,83.3404629 37.1977143,83.6221034 C37.1255759,84.1497551 37.1582636,84.7051184 37.2456187,85.2333356 C37.2766157,85.4244891 37.5950391,85.7083918 37.7680585,85.698212 C37.9591125,85.6869011 38.204834,85.4188337 38.2961341,85.205624 C38.3975787,84.9720547 38.3502379,84.6740135 38.364891,84.4398787 M50.7022479,142.850298 C50.224331,143.514246 49.9504305,143.895987 49.6754029,144.277729 C50.3161948,144.642504 50.9479693,145.026508 51.611868,145.341515 C51.6693533,145.369227 52.1297992,144.828568 52.0813312,144.749392 C51.7257114,144.165751 51.288936,143.632444 50.7022479,142.850298 M20.871893,128.538665 C21.0342044,128.325455 21.322758,128.113942 21.3030326,127.936927 C21.2652727,127.603822 21.1362126,127.183624 20.8938727,126.989077 C20.2846413,126.498751 19.6122889,126.074594 18.9230291,125.703598 C18.5843167,125.521493 18.1486685,125.446276 17.7626153,125.462676 C17.6110119,125.469463 17.3089324,125.925856 17.3624726,126.057628 C17.5090037,126.411658 17.7513437,126.790006 18.0624405,126.999257 C18.7291571,127.447733 19.4629399,127.796673 20.1713615,128.183504 C20.3714329,128.292654 20.5777036,128.389927 20.871893,128.538665 M60.8788343,79.139609 C60.7813348,79.1825903 60.6838352,79.2255715 60.5874628,79.2685528 C60.5874628,79.540579 60.5232146,79.8335303 60.6038067,80.078976 C60.6973612,80.367403 60.9165943,80.6151109 61.08116,80.879785 C61.2389627,80.6111521 61.5049731,80.3526989 61.5308978,80.071624 C61.584438,79.4970322 61.615435,78.8811558 61.4649588,78.3348412 C61.0619982,76.8689536 60.5699918,75.4262532 60.0841848,73.9841184 C60.009792,73.7635566 59.7775966,73.5967213 59.6181031,73.4055678 C59.4603003,73.6283918 59.135114,73.8840172 59.1711832,74.0700809 C59.3650551,75.0767476 59.5961234,76.0834142 59.9179283,77.0555828 C60.1568867,77.7772157 60.5530844,78.4473843 60.8788343,79.139609 M40.823796,41.8652307 C40.647395,41.8437401 40.469867,41.8216839 40.293466,41.8001933 C40.1666602,42.1881558 39.9998402,42.5693318 39.9243203,42.9674742 C39.8459825,43.3803206 39.9412278,43.838976 39.8099133,44.226373 C39.3179069,45.6849086 38.7453084,47.115167 38.2561199,48.5742682 C38.1811635,48.7982232 38.38518,49.1160584 38.4601363,49.3909124 C38.7002219,49.320785 39.0716219,49.3230472 39.1572862,49.1669573 C39.5157239,48.5182794 39.9310833,47.8469798 40.0573255,47.1355266 C40.2348536,46.1339498 40.0702879,45.138594 40.7584205,44.1692532 C41.1270027,43.6495191 40.823796,42.6490734 40.823796,41.8652307 M38.9825761,7.80935805 C38.8557703,7.25229813 38.6635891,6.65621573 38.5999044,6.04712584 C38.5497457,5.57037303 38.6494996,5.07608839 38.701349,4.59198352 C38.7334732,4.28715581 38.7999757,3.98572135 38.8512616,3.68259026 C38.527766,3.66109963 38.0774646,3.49313333 37.9044452,3.64469888 C37.2619625,4.20402097 36.7214881,4.11014082 36.0113758,3.7527176 C35.3604395,3.42583371 34.8171471,3.91559401 35.0645593,4.53033933 C35.3491678,5.23783371 35.9166941,5.89838801 36.5152174,6.39154157 C37.1740439,6.93502846 38.0075805,7.26530562 38.9825761,7.80935805 M38.3603824,41.3980921 C38.5012777,41.4557775 38.642173,41.5134629 38.7825047,41.5711483 C39.1527776,41.087609 39.7541188,40.6459199 39.8504912,40.1120472 C40.161588,38.3950584 40.3148821,36.6316951 39.3353779,35.0379948 C39.1989913,34.8168674 38.7892677,34.7659685 38.5057863,34.6370247 C38.4387202,34.9480734 38.3248768,35.2574255 38.3141687,35.5707363 C38.2961341,36.1125266 38.3547466,36.6560135 38.3575645,37.1989348 C38.3660182,38.5992195 38.3603824,39.998373 38.3603824,41.3980921 M36.6645664,33.2774592 C37.7934197,33.3673805 38.9290358,33.4420322 40.0618341,33.5517476 C41.2025226,33.662594 41.8106267,32.854433 42.4345111,32.1407176 C42.5844238,31.9687925 42.523557,31.4128637 42.3522283,31.2109648 C42.1763909,31.003976 41.6849481,30.8597625 41.4380995,30.958167 C40.6006178,31.292403 39.7648268,31.6769723 39.0158274,32.1746502 C38.3817985,32.5959798 37.9438958,32.8131483 37.3391732,32.1118749 C37.1035962,31.8392831 36.5185989,31.8036539 36.0947858,31.8098749 C35.9972862,31.8115715 35.8896422,32.4257513 35.8208853,32.7650772 C35.7380389,33.1796202 35.6377214,33.6020809 35.6416665,34.0194517 C35.6467387,34.5340959 35.7504377,35.0470434 35.811868,35.5616876 L36.352906,35.5616876 C36.4537871,34.817433 36.5557953,34.0737438 36.6645664,33.2774592 M37.7201541,57.5273805 C39.2147715,58.1059311 40.5549677,57.3147363 40.7392588,55.7900322 C40.81027,55.1996052 40.9990697,54.5939086 41.2662072,54.0622981 C41.9977357,52.6111146 41.5333447,51.5133955 40.0415452,51.2521146 C39.7586274,51.2023468 39.519669,50.9240996 39.2350605,50.8522757 C38.9025475,50.7685753 38.5424191,50.7962869 38.1946895,50.7759273 C38.3265675,51.1746352 38.3350212,51.7582757 38.6094853,51.9409461 C39.9936408,52.8644779 40.0268921,52.833373 39.2164623,54.310006 C38.9205821,54.8489685 38.5689074,55.3568262 38.2425939,55.8782569 C38.1490394,55.7611895 38.0554849,55.6435566 37.9619304,55.5264891 C37.8813383,56.1921333 37.8013098,56.8583431 37.7201541,57.5273805 M39.2012456,73.1997101 L39.1741937,73.1997101 C39.1741937,71.0613918 39.1837746,68.9225079 39.1668671,66.783624 C39.1629221,66.3227064 39.1730665,65.8063655 38.9735588,65.4212307 C38.8208283,65.1271483 38.34742,64.9999011 38.0165978,64.7985678 C37.9371329,65.129976 37.7663678,65.470433 37.7984919,65.7910959 C37.8559772,66.356639 38.3338941,67.158579 38.1135338,67.4238187 C37.2923959,68.4118225 37.8153993,69.4173581 37.8339975,70.4008375 C37.8447055,70.9663805 38.1789092,71.5273993 38.1822907,72.0923768 C38.1969438,74.6582457 38.1214239,77.2252457 38.1445308,79.7911146 C38.1479123,80.1943468 38.4905696,80.5947513 38.6765515,80.9962869 C38.8512616,80.6145453 39.169685,80.2356315 39.1781388,79.8493655 C39.2266067,77.6335678 39.2012456,75.416639 39.2012456,73.1997101 M57.5858291,58.2377026 C57.6162625,59.2126989 57.5080549,60.0762831 58.660015,60.1294442 C59.5459647,60.1701633 60.4505126,60.3058936 61.3122283,60.1724255 C61.8414311,60.0898562 62.4760235,59.6764442 62.7341437,59.2228787 C62.8913829,58.9463281 62.5250551,58.2280884 62.2162126,57.8553955 C61.6520678,57.1744816 60.9983135,56.5472944 60.2944006,56.0134217 C60.0002112,55.7894667 59.3041883,55.655433 59.1001719,55.8347101 C58.3314471,56.5105341 57.4787487,57.2140697 57.5858291,58.2377026 M4.71063742,66.6224442 C4.68978491,66.7293318 4.66836882,66.8356539 4.64751632,66.9425416 C5.0115898,67.0941071 5.41455038,67.4266464 5.73297378,67.3587813 C6.30500874,67.236624 6.9249481,66.9809985 7.34763403,66.5885116 C7.97602711,66.0054367 8.44549028,65.3380959 9.38610737,66.101579 C9.53883788,66.225433 10.0071739,66.1258974 10.2241527,65.9760285 C11.1991482,65.3030322 11.9408211,65.5914592 12.6740403,66.3888749 C12.9276519,66.6648599 13.3576643,66.7785341 13.7065211,66.9657288 C13.8429078,66.5907738 14.1370972,66.1943281 14.0897564,65.8442569 C13.8468529,64.0475266 13.9674592,62.4283768 15.73485,61.3962607 C15.7990983,61.3589348 15.8712367,61.2933318 15.8898348,61.2265978 C15.9771899,60.9104592 16.1406285,60.5700022 16.0803253,60.2798787 C16.0544006,60.1543281 15.5415416,60.0383918 15.2693319,60.0723243 C14.323079,60.1922195 13.5594264,59.9840996 12.8357881,59.2901783 C12.1053868,58.590036 11.5063,58.8716764 11.0841776,59.8099124 C10.6304947,60.816579 10.2044273,61.8962007 9.50333226,62.7173693 C8.15919101,64.2924067 6.78630712,65.8991146 4.71063742,66.6224442 M35.0606142,66.1830172 C35.18742,66.1490846 35.3142258,66.1145865 35.4410316,66.0800884 C35.06625,65.287197 34.7568439,64.4513243 34.2828721,63.7229049 C34.1092891,63.4570996 33.4814596,63.2682082 33.1765622,63.3750959 C32.9037888,63.4712382 32.7516219,64.0079386 32.6163624,64.3766727 C32.471522,64.7691596 32.4044559,65.1910547 32.3125921,65.6033356 C32.1559165,66.3040434 31.978952,67.0013581 31.8606,67.7088524 C31.389446,70.5309124 32.7093533,73.5198075 31.0738406,76.2366764 C31.0388985,76.2949273 31.0738406,76.3916352 31.0591874,76.467418 C30.7937407,77.8026652 30.5367476,79.1401745 30.248194,80.4714629 C30.2019804,80.6841071 29.9590769,80.8515079 29.901028,81.0652831 C29.7888753,81.476433 29.5842953,81.9758075 29.7268814,82.304388 C29.8260717,82.5328674 30.4369938,82.5475715 30.8230469,82.6397551 C31.4672203,82.7930172 32.1142115,82.9332719 32.7606392,83.0763543 C33.1450016,83.1617513 33.6392624,83.4235978 33.8878017,83.2754255 C34.167338,83.1085903 34.3567013,82.5696277 34.3589556,82.1912794 C34.3786809,78.8460921 34.382626,75.4992082 34.3042882,72.1557176 C34.2885079,71.4765004 33.9424691,70.7921933 33.6820945,70.1361633 C33.3997403,69.4247101 32.9939618,68.5339798 33.9503592,68.2579948 C35.1558595,67.9101858 35.447231,67.3237176 35.0606142,66.1830172 M31.9919144,54.5746801 C31.5297778,56.7757738 31.7495745,58.3185753 33.1528917,59.5203543 C33.3405643,59.680403 33.324784,60.1153056 33.5169652,60.2301109 C34.4474378,60.7837775 35.3858006,61.3504517 36.3872845,61.7429386 C36.7665746,61.8905453 37.3560806,61.2203768 36.8471668,60.993594 C35.6997154,60.4823431 35.4630112,59.4032869 34.923664,58.5323506 C34.3335944,57.5777139 33.5564159,56.5314592 33.5011849,55.4914255 C33.3349285,52.3458749 33.4837139,49.1839236 33.4949856,46.0281933 C33.4961127,45.7267588 33.5034393,45.2975116 33.3242204,45.144815 C32.3627508,44.3236464 32.3385169,43.1105566 32.6580674,42.2356614 C33.1483831,40.8936277 32.8045985,39.7382232 32.6558131,38.4680135 C32.488993,37.0479348 32.6017093,35.5905303 32.6445415,34.1506577 C32.6575038,33.7033131 32.8502486,33.2633206 32.939858,32.815976 C33.0012884,32.5111483 33.0266495,32.1989685 33.067791,31.890182 C32.7020268,31.8472007 32.2579247,31.6526539 31.9862786,31.7934742 C31.4503128,32.0711558 31.0157917,32.5405566 30.5299847,32.9183393 C29.9258256,33.3871745 29.3459005,34.1659273 28.6966549,34.2326614 C27.6213419,34.3435079 26.9095388,34.8061221 26.1937906,35.5017401 C25.8776215,35.8093955 25.3749071,35.9151521 24.9871632,36.1600322 C23.6824726,36.9823318 21.7527705,36.925212 21.2213134,38.8638936 C21.1728454,39.0420397 20.7901737,39.1432719 20.5506517,39.2507251 C18.7201398,40.0718936 16.6765943,40.6725004 16.577404,43.2389348 C16.570641,43.4136876 16.4117111,43.5833506 16.3209745,43.7547101 C15.8351675,44.6742831 15.3752852,45.6079948 14.8550997,46.5072082 C14.4538299,47.2011296 13.7786595,47.7983431 13.5836604,48.5341146 C13.3339939,49.478006 13.1525208,50.2827738 12.1589271,50.7470846 C11.9075698,50.8647176 11.9070062,51.5450659 11.8123246,51.9720509 C11.6274699,52.8107513 11.5976001,53.7167513 11.2487434,54.4774067 C10.6699454,55.7368712 10.8350747,56.5269348 11.9566014,57.3871258 C13.788804,58.7930659 15.8915256,58.5945603 17.9728311,58.525564 C18.6846342,58.5018112 18.9004858,57.9752906 18.9337371,57.3000322 C18.9624798,56.732227 18.9636069,56.0643206 19.2549784,55.6271558 C20.1719251,54.2523206 21.1711546,52.9255566 22.2306874,51.657609 C23.3155812,50.3596876 23.4136444,50.0401558 22.5693997,48.5770959 C22.2391411,48.0053318 21.7229007,47.5036951 21.544809,46.8957363 C21.4213847,46.4727101 21.652453,45.8805865 21.8801398,45.4456839 C21.9984919,45.2200322 22.4533019,45.171961 22.7559451,45.0435828 C22.8506267,45.4332419 23.0078659,45.8195079 23.0270276,46.2131258 C23.0704234,47.1049873 23.4153351,47.5981408 24.3813134,47.5472419 C25.2728989,47.5003019 26.2281691,47.3142382 27.0470526,47.5568562 C28.1229292,47.8752569 29.1582279,47.666006 29.3430826,46.5575416 C29.4755242,45.7646502 29.2230398,44.9016315 29.1114507,44.0736764 C29.0224049,43.4170809 28.8493854,42.7706652 28.7862643,42.112373 C28.7496315,41.7340247 28.9930986,41.2934667 28.8764373,40.9648861 C28.5151817,39.9491708 28.8860182,39.5323655 29.8390341,39.1890809 C30.3834535,38.9928375 30.9047662,38.4097625 31.302091,39.1144292 C31.6052977,39.6516951 31.8741259,40.6826801 31.5996619,40.9869423 C30.6894782,41.9981333 31.0141009,43.0783206 31.0281905,44.1686876 C31.0434072,45.2590547 31.0231182,46.3494217 31.0349535,47.4392232 C31.0496066,48.7614629 30.9622515,50.1006689 31.1425975,51.4002869 C31.3122354,52.6179011 31.774372,53.7942307 31.9919144,54.5746801 M29.6801042,100.207219 C29.241638,100.764845 29.6941937,102.191145 28.6397332,101.502879 C27.6021801,100.825924 26.9005215,99.5873843 26.1695566,98.5139835 C26.0049909,98.2719311 26.2039351,97.5067513 26.4688183,97.3235154 C26.7275021,97.1442382 27.3051728,97.3478337 27.7070062,97.4863918 C28.0947501,97.6204255 28.4402254,98.0660734 28.7997903,98.0609835 C29.804092,98.047976 30.452774,98.52077 31.0952566,99.2135603 C31.3223799,99.4584404 32.183532,99.5528861 32.2410173,99.4443019 C32.7302058,98.5088936 33.3850872,97.5310697 33.4515898,96.5294929 C33.6105197,94.1270659 33.4166478,91.7037139 33.4825868,89.2922382 C33.5242918,87.7635753 33.8032645,86.24283 33.9063999,84.714167 C33.9221801,84.4822944 33.5406356,84.0032794 33.373252,84.0160273 C32.5295709,84.0824554 31.6565836,84.1616315 30.8670062,84.4438375 C28.1060218,85.4312757 25.8330986,87.2364891 23.5280514,88.9896727 C22.3394585,89.893976 21.0770366,90.7021371 19.8343399,91.5323543 C18.6823799,92.3037551 17.4684259,92.9897588 16.3733876,93.8341146 C16.0104412,94.114624 15.8458755,94.751991 15.7444309,95.257021 C15.5421052,96.2631221 15.4209353,97.2878861 15.3223085,98.3109536 C15.2952566,98.5880697 15.4136087,98.9172157 15.5595762,99.1677513 C16.5385169,100.854766 16.6084009,103.006092 18.2089716,104.380927 C18.3645201,104.514396 18.3938263,104.803388 18.4648375,105.025646 C18.7353565,105.870568 18.8413098,106.817852 19.2989378,107.543444 C20.1944683,108.965785 21.3047234,110.250699 22.2842276,111.622706 C22.6871882,112.186553 23.011811,112.295137 23.5979354,111.841572 C24.3052299,111.294691 24.9009353,111.525433 25.2717717,112.335856 C25.3692713,112.547935 25.4808604,112.753793 25.5817414,112.964175 C25.9762483,113.781384 26.3961163,114.281324 27.3198259,113.453935 C27.8484651,112.980575 28.3624512,113.067103 28.5636497,113.932384 C28.8279693,115.069691 29.2839065,115.175448 30.2853904,114.546564 C30.5795798,114.361631 31.1290715,114.243433 31.3838102,114.394999 C32.3402076,114.966197 32.5678944,114.523377 32.5836747,113.665448 C32.6203075,111.720545 32.6631396,109.774512 32.6682119,107.829043 C32.6732841,105.854733 31.9378106,105.118961 29.9528775,105.312942 C28.0327562,105.500137 26.2636747,105.214538 24.6788843,104.095894 C24.3666602,103.876463 24.1789877,103.478321 23.9338299,103.162748 C24.375114,102.999306 24.80569,102.774785 25.2610637,102.699002 C25.4769153,102.663373 25.7299633,102.938227 25.9824477,103.024755 C26.6880514,103.264545 27.3880193,103.552972 28.1150391,103.689268 C29.5544255,103.959032 30.8337549,103.32619 32.1097029,102.79571 C32.7538762,102.528774 32.8908265,101.598455 32.3120285,101.297021 C31.4762376,100.860422 30.567181,100.565774 29.6801042,100.207219 M32.1812777,145.67971 C33.0987879,144.51865 33.8258077,143.668073 34.4750533,142.760377 C35.5937621,141.194954 35.1355705,139.369946 35.1400792,137.656351 C35.1451514,135.779313 35.6089788,133.700377 33.6730772,132.330631 C33.6184098,132.292175 33.5998117,132.194901 33.5767048,132.121381 C33.0655367,130.485264 31.763664,129.602452 30.4437567,128.689665 C28.6262072,127.433594 26.5990055,128.129212 24.669867,127.953328 C24.0037139,127.892249 23.7901166,128.396148 23.8301309,129.06971 C23.8459112,129.341736 23.4778926,129.896534 23.369685,129.876175 C22.0277981,129.616025 20.6791482,129.340605 19.3772755,128.926628 C18.6389841,128.691927 18.2005179,128.858197 17.7998117,129.448058 C17.2835713,130.208714 16.7233715,130.939961 16.2195299,131.707969 C15.5313972,132.758748 14.8736979,133.829321 14.2159986,134.899894 C14.1399151,135.023748 14.1066638,135.205287 14.1235713,135.351763 C14.4166335,137.806785 13.4050052,140.382834 14.8021231,142.736058 C14.8590448,142.831635 14.864117,142.960579 14.8849695,143.075384 C15.2405893,145.059875 18.0618769,147.656283 20.0749891,147.911343 C20.5455795,147.970725 20.9896815,148.233137 21.447873,148.397145 C21.8401256,148.536834 22.2301238,148.768706 22.6285757,148.787369 C23.9073415,148.845055 25.1894889,148.849579 26.4688183,148.816778 C26.8757239,148.806598 27.2843203,148.633542 27.6816451,148.502901 C28.2159201,148.326452 28.7253975,148.030673 29.2709442,147.942448 C31.0580603,147.654587 32.2274914,146.582882 32.1812777,145.67971 M57.6111903,66.6088712 C58.760896,67.3129723 59.9534339,67.9384629 60.01261,69.5875865 C60.0295174,70.0615116 60.4764373,70.5314779 60.7604823,70.9810846 C61.4751033,72.1121708 62.0544648,73.2658787 62.5357632,74.5513581 C63.1619019,76.2236689 63.1771186,77.8320734 63.2526385,79.5100397 C63.2672916,79.8442757 63.7125208,80.1417513 63.8038209,80.4963468 C63.9379533,81.0206052 64.0760307,81.6240397 63.9311903,82.1098412 C63.8511618,82.3807363 63.207552,82.6109124 62.8068457,82.6295753 C62.0155777,82.6674667 61.5782386,82.8801109 61.5596404,83.7731034 C61.5331521,85.0653693 60.1670312,86.4848824 58.8781209,86.7269348 C58.5405358,86.7908412 58.2311297,87.0057476 57.9087612,87.1522232 C58.1031967,87.4689273 58.3337014,87.7692307 58.4853048,88.1057288 C58.7575145,88.7091633 59.1497671,89.322212 59.1909085,89.9516614 C59.2771364,91.2625903 59.2269777,92.5118749 59.8395905,93.7984854 C60.2470597,94.6535865 59.8790412,95.8559311 59.9754136,96.892006 C60.040789,97.5995004 60.3654118,98.2792831 60.474183,98.9873431 C60.7289217,100.638729 61.2012028,102.311605 60.196901,103.900781 C59.7122212,104.668789 59.6598081,105.371759 60.6246592,105.826455 C61.4480514,106.214418 61.303211,106.66968 60.8354386,107.295736 C60.4713651,107.7838 60.276366,108.399676 60.0193729,108.964654 C59.8283189,109.384852 59.717857,109.853122 59.4693176,110.233167 C58.2480371,112.10059 56.9912509,113.944261 55.753063,115.800939 C55.6476733,115.959291 55.5890608,116.149879 55.4492927,116.455272 C54.809628,115.404493 54.8597867,114.704351 55.4645094,114.056238 C55.7823692,113.715216 56.232107,113.456197 56.4349963,113.062579 C56.6502843,112.645208 56.6435213,112.113032 56.7336943,111.630058 C56.2383064,111.821778 55.6837425,111.928665 55.2616201,112.22501 C54.6439351,112.659912 54.1840528,113.336302 53.5443881,113.71974 C52.3371971,114.441373 51.6828793,114.235515 50.6554707,113.261085 C50.015806,112.655388 49.2200292,112.218789 48.5544398,111.63741 C48.2061466,111.332583 47.9170294,110.906163 47.7434464,110.476916 C47.664545,110.284066 47.8640528,109.82541 48.0641241,109.712302 C48.2681405,109.596931 48.6474307,109.706081 48.9128775,109.812403 C49.1118217,109.891013 49.2606071,110.113272 49.4184098,110.2835 C51.1480407,112.141875 53.197222,112.236321 55.0869099,110.535733 C55.6995227,109.983763 56.1357346,108.908665 57.2538798,109.85595 C57.3029114,109.898366 57.8693105,109.326601 58.1950605,109.041002 C57.9893533,108.831186 57.8168974,108.499212 57.5717396,108.431912 C56.6384491,108.176287 56.5246057,107.616399 57.0645165,106.968287 C59.1232788,104.499691 58.9902736,101.445193 58.268326,98.841433 C57.5728668,96.3315528 58.0626189,93.9155528 57.6376786,91.5052082 C57.4466246,90.4210622 57.1845593,89.329564 56.7748357,88.3149798 C56.6260503,87.9473768 55.9598973,87.5961745 55.5157953,87.5775116 C53.6954279,87.5011633 51.864916,87.4751483 50.0473665,87.5859948 C48.2839208,87.6934479 46.8473522,86.998961 45.3386453,86.2371745 C44.6302236,85.8786202 43.6332484,86.013785 42.7799864,86.0833468 C42.554554,86.1014442 42.2051336,86.7048787 42.2023157,87.0425079 C42.1662465,90.9758599 42.1741366,94.9097775 42.2062607,98.8431296 C42.2096422,99.2865154 42.4525457,99.7242457 42.5539904,100.17159 C42.7185561,100.897182 42.8397261,101.632954 43.0127455,102.356283 C43.1085543,102.756122 43.2212706,103.166141 43.411761,103.525826 C44.6369866,105.842856 46.217832,108.021894 45.5640778,110.931047 C45.4423442,111.474534 45.8492499,112.309276 46.2708086,112.77189 C47.5242133,114.147856 48.7392945,115.467268 49.4905482,117.260605 C50.2401113,119.049984 51.4912616,120.621062 52.405954,122.350493 C52.9193765,123.320965 53.1262108,124.452051 53.606382,125.44571 C53.8926813,126.038399 54.3604537,126.635047 54.9060004,126.965324 C55.1319964,127.102751 55.8020945,126.592631 56.2174539,126.301377 C56.6260503,126.014646 56.9382743,125.58653 57.3525065,125.312242 C57.5170722,125.202527 57.9217236,125.253425 58.0710726,125.390852 C58.1820981,125.49265 58.0902343,125.861384 58.0265497,126.093822 C57.9893533,126.227291 57.7425047,126.323999 57.7391232,126.441066 C57.7289788,126.784916 57.7943542,127.131594 57.8298598,127.476575 C58.1195406,127.363467 58.4492356,127.304085 58.6887576,127.124807 C59.0494496,126.855043 59.3075698,126.432583 59.6885507,126.213152 C59.8750961,126.104568 60.2391696,126.30477 60.5232146,126.365283 C60.4538941,126.639572 60.4640385,126.984553 60.2977821,127.17401 C59.9675235,127.54953 59.4986239,127.802328 59.1689288,128.177849 C58.9620945,128.414246 58.7580781,128.820306 58.8257079,129.078759 C58.8769938,129.276133 59.3543471,129.467287 59.6457186,129.472377 C60.2166264,129.483122 60.8275484,129.459369 61.3482975,129.258601 C61.6599579,129.138141 62.0989877,128.546017 62.0212135,128.354298 C61.6436141,127.426242 62.1711261,126.885583 62.6580603,126.268575 C62.8085365,126.077422 62.954504,125.726785 62.8789841,125.539025 C62.2979319,124.083317 61.6182529,122.666066 61.0563624,121.203006 C60.6173326,120.06174 60.2707302,118.880321 59.9461074,117.698901 C59.6970045,116.79177 59.4371935,116.701849 58.7146824,117.279268 C57.7357418,118.06198 56.7410209,118.835077 55.6831789,119.500721 C55.3799722,119.691875 54.7048019,119.663598 54.4342829,119.444167 C54.0206142,119.109931 53.810962,118.521766 53.5145183,118.04162 C53.8977535,117.806354 54.2787344,117.373714 54.6647876,117.36919 C56.4789556,117.34883 57.7357418,116.511826 58.4858684,114.864965 C58.9243346,113.903542 59.3943613,113.020163 59.2737549,111.889077 C59.2455759,111.627231 59.9669599,111.023231 60.328779,111.035107 C61.0045129,111.056598 61.4362162,111.576897 61.2034571,112.356216 C61.0822871,112.763407 60.8134589,113.144017 60.7678088,113.554601 C60.6263499,114.824811 60.498417,116.019238 61.6864462,117.071148 C62.2257935,117.549032 62.3418912,118.675028 62.3740153,119.518819 C62.4106481,120.46271 62.5774682,121.172467 63.2588379,121.913328 C63.7671882,122.466995 64.1194264,123.440294 64.0551782,124.184549 C63.9548607,125.332601 64.2124173,126.167909 65.0842775,126.843167 C66.4425083,127.895077 66.6549784,128.99619 65.934158,130.689425 C65.3102736,132.154182 64.5060432,133.663051 64.7342936,135.489755 C64.8808247,136.658167 65.0803324,137.570388 66.0124958,138.314077 C67.3374753,139.372774 67.3904519,139.867058 65.9955884,140.773624 C64.9219661,141.470939 63.5699347,141.72713 62.4596797,142.382028 C61.5664034,142.908549 60.8393836,143.725193 60.0655866,144.442867 C59.908911,144.587646 59.8790412,144.865328 59.7832324,145.077972 C58.965476,146.893366 57.8259147,147.292639 56.221399,146.155332 C55.3472845,145.536628 54.9606677,145.70007 54.5785597,146.604373 C53.8397047,148.356425 53.5483332,148.381875 52.1917931,147.078864 C51.8536444,146.754242 51.3531842,146.46016 50.9028828,146.418875 C49.2820232,146.270137 48.219109,145.442748 47.4887077,144.026628 C47.1764837,143.419234 47.3309049,143.080474 47.8634892,142.797137 C49.2177749,142.076635 50.4700524,141.249246 52.1867209,141.442096 C53.7737657,141.621373 55.1770829,140.0141 55.1652477,138.415309 C55.1618662,137.830538 55.1517218,137.245766 55.1607391,136.660995 C55.2046984,133.658527 54.3334018,130.981811 52.4437139,128.624628 C52.1376893,128.242886 51.9945397,127.6321 51.9889039,127.125373 C51.9714329,125.618766 52.0368083,124.261463 50.8594871,122.919429 C49.59312,121.476163 48.867791,119.562366 47.8454546,117.891751 C47.4470027,117.23968 46.8676412,116.701283 46.3964872,116.091628 C45.7709121,115.282336 45.1537906,114.465126 44.5659754,113.628122 C44.2520606,113.181343 44.0474806,113.075021 43.5763267,113.509924 C43.2325422,113.826628 42.679669,113.931819 42.20457,114.081688 C41.8827651,114.184051 41.496712,114.124669 41.2030861,114.268317 C39.9896957,114.862703 39.502198,114.450987 39.0592231,113.149673 C37.5296636,108.662654 38.5153672,104.06592 38.2865532,99.5268712 C38.2809174,99.4109348 38.3429114,99.2689835 38.2955705,99.1813243 C38.1163517,98.8493506 37.9050087,98.5343431 37.705501,98.2131146 C37.5527705,98.5603581 37.2743613,98.9053393 37.2692891,99.2554105 C37.2461823,100.695283 37.3267744,102.135721 37.3290287,103.57616 C37.3318466,105.10765 36.8544933,105.504096 35.3294425,105.315204 C33.7006927,105.113306 33.8393337,105.085028 34.1752281,106.754512 C34.4322212,108.028115 34.2648375,109.386549 34.3138691,110.705396 C34.3950248,112.869729 33.4234107,114.786354 32.9150605,116.811564 C32.8310869,117.146931 32.6270704,117.485691 32.6507409,117.810313 C32.7268243,118.85374 32.755567,119.786321 31.3533769,119.949197 C31.222626,119.964467 30.976341,120.760186 31.1155456,120.954167 C31.4373505,121.403208 31.9124494,121.818882 32.4151639,122.043403 C33.452717,122.505452 33.8376429,123.263845 33.5124566,124.566291 C33.2701166,125.533935 32.1931129,126.335309 31.2682761,126.211455 C30.6517182,126.128886 29.9917646,125.782208 29.4963767,126.599418 C30.4369938,127.203418 31.3015274,127.84644 32.2438352,128.341856 C33.5947394,129.052178 34.5173219,130.044141 35.2657578,131.415017 C36.3230362,133.352002 37.0641455,135.257317 36.6335695,137.489515 C36.5907373,137.710077 36.599191,137.985497 36.6949998,138.180609 C37.705501,140.243145 36.3145825,141.876433 35.7414204,143.652804 C35.5464213,144.256238 35.326061,144.852321 35.1017557,145.44501 C35.0098919,145.687628 34.9315541,145.980579 34.7495174,146.134972 C33.4065033,147.281328 31.9913508,148.346246 30.699059,149.545763 C30.0143078,150.180867 29.3447733,150.489088 28.4171186,150.426313 C27.2950284,150.349965 26.1633572,150.335826 25.0401398,150.388422 C21.8389984,150.53716 19.1619875,149.355175 16.497939,147.635358 C15.1673237,146.776864 14.7164587,145.349433 13.5194122,144.526002 C13.3824619,144.432122 13.2934161,144.196291 13.272,144.015882 C13.0262786,141.845894 12.9270883,139.648759 12.5235641,137.509875 C12.1735802,135.655459 12.9107444,134.030088 13.4934874,132.488984 C13.9629506,131.246485 15.3555598,130.361976 16.3136479,129.295362 C16.5745861,129.005238 16.7453512,128.633676 16.9578213,128.29944 C16.594875,128.143916 16.2246021,128.003661 15.8718002,127.828343 C15.547741,127.667729 15.0641883,127.529171 14.9773968,127.270152 C14.8866602,126.998126 15.1013847,126.525332 15.3251264,126.263485 C15.9292855,125.555425 16.5458434,124.825309 17.2846984,124.275601 C17.7203467,123.951545 18.4011528,123.963987 18.9658612,123.80507 C19.4398331,123.671036 20.1172577,123.653504 20.337618,123.332276 C21.2804894,121.951219 22.5975787,120.721729 22.5874343,118.865616 C22.58518,118.470302 22.4792267,117.998073 22.2475948,117.694377 C21.2951425,116.446789 20.2311011,115.282901 19.2995013,114.021175 C18.8362376,113.392856 19.3598045,113.27692 19.904224,113.210186 C20.3917218,113.151369 20.86513,112.969264 21.3453012,112.840886 C21.0945076,112.323414 20.9383956,111.723939 20.5748857,111.305437 C19.761638,110.366635 18.8390555,109.524542 17.975649,108.628721 C17.7907944,108.437002 17.6177749,108.20513 17.5219661,107.959118 C16.9330237,106.458167 16.6534874,104.728736 15.7213241,103.495287 C14.5834535,101.989246 13.8739048,100.555028 14.0598866,98.6729011 C14.083557,98.4291521 13.7369545,98.1616502 13.6022586,97.8850996 C13.4726349,97.6181633 13.2432574,97.2720509 13.3193408,97.0520547 C14.2351603,94.4188861 15.6970901,92.2076127 18.1610672,90.7428562 C19.4093997,90.0008637 20.5726314,89.1152232 21.7848946,88.3115865 C22.2357596,88.0129798 22.7288932,87.7788449 23.1848304,87.4875903 C24.1558809,86.8671895 25.1150961,86.2281258 26.0805108,85.5981109 C26.8154207,85.1190959 27.5559665,84.6479985 28.2824227,84.1548449 C28.3996476,84.0756689 28.454315,83.9031783 28.6183171,83.649815 C26.4755812,82.0561146 28.8172613,80.8452869 29.0156419,79.3941034 C29.0945432,78.817815 29.2963053,78.2590584 29.4169117,77.6861633 C29.4727063,77.4237513 29.377461,77.0923431 29.5037032,76.8870509 C30.809521,74.7640022 30.1557667,72.4056876 30.3084972,70.1542607 C30.4133233,68.6041071 30.2921534,67.0392494 30.2752459,65.4806127 C30.2735552,65.287197 30.2211421,65.0332682 30.3197689,64.9088487 C31.4655295,63.4582307 31.0186096,61.7616015 30.9836676,60.1690322 C30.9583064,59.0062757 30.5108229,57.8582232 30.3873986,56.6892457 C30.2577749,55.4671071 30.34513,54.2217813 30.226778,52.9973805 C30.1676019,52.3820697 29.8655224,51.7899461 29.665451,51.1893393 C29.5809139,50.9342794 29.3971864,50.6848749 29.3994407,50.4332082 C29.4062037,49.6448412 29.3459005,48.7631596 28.4255723,48.7218749 C27.6506481,48.6868112 26.7218662,48.9237738 26.0962911,49.3716839 C24.8282333,50.2793805 23.9546824,51.5501558 23.2823299,53.0154779 C22.7970865,54.0741745 21.9798937,55.0163693 21.1700275,55.8782569 C20.4700596,56.6230772 20.3393087,57.290418 20.7969367,58.176624 C21.3892606,59.3235453 20.9851728,60.0321708 19.6590662,60.0717588 C18.9478266,60.093815 18.4637104,60.2617813 18.2100988,60.9585303 C18.1481049,61.1293243 18.0004466,61.3617625 17.8533519,61.394564 C16.449471,61.715227 16.4776501,63.2829124 15.5561948,64.0164217 C15.4767298,64.0797625 15.391629,64.256212 15.4243167,64.3263393 C16.0048054,65.5795828 15.2101559,67.1291708 16.2781423,68.274961 C16.900336,68.9423019 16.9386595,69.6893843 16.3886042,70.3912232 C15.9957881,70.8894667 14.6121962,70.7316801 14.0441063,70.1638749 C13.3013062,69.4224479 12.6086649,68.6284255 11.8461395,67.9079236 C10.8660717,66.981564 10.167231,67.0607401 9.14883966,67.9616502 C7.82273301,69.1357176 6.39461816,70.059815 4.46209809,69.8499985 C3.86582914,69.7855266 3.22165579,70.13277 2.60566149,70.3120472 C2.42306117,70.3652082 2.25849545,70.5693693 2.09111182,70.5637139 C1.39283467,70.5427888 0.696811842,70.4681371 0.000225432495,70.4138449 C0.327666132,69.8986352 0.565497414,69.2838899 1.00227287,68.8930996 C1.74507294,68.2285865 2.72344997,67.8123468 3.40876476,67.1037213 C5.46245479,64.9823693 8.14228357,63.3609573 9.19899839,60.4280509 C9.47346246,59.6673955 9.31847762,58.5306539 8.92397075,57.8056277 C8.49452185,57.0172607 8.3367191,56.541639 9.00174496,55.8935266 C9.20068914,55.7001109 9.34834742,55.3268524 9.32524059,55.0519985 C9.19223542,53.4515116 10.2827651,52.3130734 10.7516647,50.9489835 C11.4200721,49.0023843 12.9034179,47.5415865 13.4579818,45.4869685 C13.9792945,43.5539423 15.0365729,41.6633318 16.2572898,40.0594517 C17.0970259,38.9560772 18.6141866,38.3690434 19.8354671,37.5620135 C20.0276483,37.4342007 20.3116932,37.4132757 20.4582244,37.2549236 C23.0197011,34.4854592 26.7404644,33.6733393 29.7770401,31.7018562 C30.7531628,31.0678824 31.9169581,30.6816165 33.0429934,30.346815 C33.4166478,30.2359685 33.9430326,30.6408974 34.3989699,30.8122569 C34.6052406,30.8903019 34.809257,30.9728712 35.0809032,31.0791933 C35.1412063,30.5883019 35.1908015,30.1828075 35.2894282,29.3786052 C36.0434999,30.0397251 36.6504769,30.4701034 37.1272666,31.0141558 C37.8537228,31.8426764 38.2972613,31.771418 39.280147,31.259036 C40.64345,30.5475828 42.149339,30.1115491 43.5926706,29.5544891 C43.9415274,29.4204554 44.348433,29.3525903 44.6228971,29.1258075 C46.3491464,27.6983768 48.0274914,26.2126951 49.7599401,24.7937476 C50.4610351,24.2197213 50.5613526,23.7039461 49.9194336,23.0507438 C49.7881191,22.9178412 49.655114,22.7368674 49.6258077,22.560418 C49.4263,21.3405416 48.9151318,21.4146277 48.0596155,22.0559536 C47.2311511,22.6774854 46.4962411,22.2516315 46.3316754,21.2381783 C46.2415024,20.6850772 45.971547,20.1636464 45.8205072,19.6173318 C45.7004644,19.1796015 45.5432253,18.719815 45.5663321,18.2786914 C45.6328347,17.0282757 45.0585454,16.4039161 44.001267,15.7563693 C42.0462037,14.5596801 39.9519358,15.0392607 37.9021908,14.8978749 C37.0308942,14.8373618 36.1500168,14.5562869 35.3012634,14.6439461 C34.8289823,14.6931483 34.3296494,15.2332419 34.004463,15.6732345 C33.8291892,15.910197 33.8923103,16.4508562 34.0388414,16.764167 C34.191572,17.0910509 34.6136943,17.2788112 34.8475805,17.5825079 C35.5520571,18.4975566 35.3722747,19.2039199 34.3459932,19.7095154 C33.3924138,20.1794816 33.1534553,21.155609 33.633063,22.8369685 C34.916901,22.2097813 35.27083,23.1072981 35.5345861,24.0772045 C35.6055973,24.3390509 35.6117967,24.6919498 35.4855545,24.9068562 C35.4117253,25.0312757 35.0149642,24.9752869 34.7630433,24.9798112 C34.3752994,24.9871633 33.9751568,24.9266502 33.6082654,25.0143094 C33.5299276,25.0329723 33.4611707,25.7495154 33.5817771,25.823036 C33.9340153,26.0362457 34.3798081,26.1657551 34.7957311,26.1849835 C35.8152495,26.2330547 36.838713,26.2008187 37.8604858,26.2008187 C37.920789,26.0820547 37.9805286,25.9627251 38.0408318,25.843961 C37.7945468,25.4435566 37.4496351,25.0702981 37.331283,24.6342644 C37.2191304,24.2231146 37.344809,23.7457963 37.3662251,23.2978861 C37.6885935,23.5088337 38.0588664,23.6728412 38.323186,23.9420397 C38.7802504,24.4080472 39.2339333,24.9017663 39.5703913,25.4559985 C39.8025868,25.8383056 39.8352745,26.3433356 39.9575716,26.7935079 C39.5748999,26.7098075 39.1927919,26.6272382 38.8106838,26.5418412 C38.6669706,26.5101708 38.5249481,26.4705828 38.3682725,26.4315603 C38.2471026,26.9230172 38.2657007,27.4817738 37.9968725,27.7679386 C37.7105732,28.0710697 37.109232,28.3170809 36.7181067,28.2356427 C35.3384598,27.9489124 35.350295,27.8917925 34.5900239,29.3011258 C33.9824833,28.7157888 33.2408104,28.2707064 32.9026617,27.616373 C32.2697599,26.3919723 31.5613383,25.0697326 31.4627116,23.7446652 C31.3646485,22.429212 31.8200221,20.9955603 32.3311903,19.7349648 C32.7510583,18.6983243 33.3546538,17.8217326 32.689628,16.6855566 C32.5470419,16.4418075 32.4664498,15.9938974 32.5938192,15.7863431 C33.6443346,14.0727476 33.5417628,11.4831258 36.1776322,10.9509498 C36.3072559,10.9249348 36.4103913,10.7728037 36.8268778,10.4340434 C36.161852,10.2632494 35.7414204,10.0766202 35.3164801,10.0647438 C34.6210209,10.0443843 33.9233073,10.1671071 33.2261573,10.178418 C31.1482333,10.2106539 30.8100845,9.94711086 30.3237139,7.9846764 C30.2882083,7.83876629 30.2408675,7.6340397 30.310188,7.53280749 C30.9566157,6.58608839 30.7063856,5.90065019 29.793384,5.2994779 C29.6744683,5.22143296 29.7150462,4.61177753 29.8801755,4.43476255 C30.9126563,3.3246015 31.975007,2.23819326 33.0818805,1.2026839 C33.8782208,0.456732584 34.7241562,0.0127812734 35.6754814,1.10484494 C36.0919679,1.5821633 36.696127,1.90056404 37.237165,2.25742172 C37.4034214,2.36713708 37.643507,2.36600599 37.8497778,2.41520824 C37.896555,2.20030187 38.0295602,1.95938052 37.9737657,1.77501348 C37.8058184,1.22360899 37.5713686,0.698785019 38.4127954,0.516114607 C39.0964195,0.367376779 39.5878623,0.507065918 39.9277018,1.22134682 C40.2224548,1.84118202 40.6738834,2.39032434 41.087552,2.94738427 C41.7136907,3.7894779 42.3787166,3.98063146 43.2099989,3.13514457 C43.4309228,2.91005843 44.2030291,2.80712959 44.2667138,2.91514831 C45.1954956,4.51054532 46.8930023,4.07620824 48.2506695,4.51620075 C49.582412,4.94827566 51.0415238,5.15865768 51.559455,6.8462382 C51.7003503,7.30432809 52.2554778,7.66853783 52.6821088,7.99598727 C53.7574218,8.82168015 53.9281869,10.0064929 53.432799,11.0369124 C52.7796083,12.397609 52.9340296,13.7464292 52.8573826,15.1331408 C52.8106053,15.9859798 52.4414596,16.8195903 52.2408247,17.6673393 C52.1185276,18.1853768 51.955089,18.7141596 51.9573433,19.2367213 C51.9635427,20.8717064 52.1765764,22.5168712 52.0486435,24.1371521 C51.9314186,25.6233993 50.619965,26.3365491 49.5277446,27.1379236 C49.1608532,27.4071221 48.6074164,27.7973468 48.6186881,28.1146165 C48.6350319,28.5466914 49.0137585,29.1540846 49.4054475,29.3514592 C51.2697742,30.2953506 52.7812991,31.6311633 54.2567548,33.0936577 C55.7485543,34.5719873 57.63317,35.4621521 59.6924958,36.0135566 C60.8168404,36.3155566 61.8493212,36.6362195 62.6011386,37.9358375 C63.724356,39.8784779 65.3925564,41.508373 66.8663214,43.2389348 C67.1272595,43.5454592 67.5764337,43.6868449 67.9309263,43.9158899 C68.3158523,44.1652944 68.8619625,44.3428749 69.0428721,44.7019948 C69.7586203,46.12377 70.9765194,47.1966052 71.3839886,48.887579 C71.6979033,50.1945491 72.8053405,51.3216764 73.6101345,52.4940472 C74.7609674,54.1714479 75.9512509,55.8211371 77.1392802,57.4719573 C77.3410423,57.7519011 77.6335409,57.9656764 77.8550284,58.2331783 C78.5031468,59.0136277 78.7251978,59.7816352 78.1604894,60.7888674 C77.8093783,61.4149236 77.5732377,62.2988674 77.7158238,62.9752569 C78.161053,65.0864292 75.9382886,67.2513281 74.0350747,67.3502981 C73.8800899,67.3582157 73.6873451,67.3163655 73.5763196,67.3921483 C71.4488004,68.8557738 69.0501987,67.8581558 66.8003824,68.1742944 C66.0339119,68.2817476 65.3080193,68.6617925 64.5432395,68.819579 C64.150987,68.9010172 63.5676804,68.9230734 63.328722,68.6968562 C62.8868743,68.2783543 62.6343899,67.6579536 62.3035677,67.1212532 C62.6411528,67.0415116 63.1061074,66.7819273 63.2920892,66.9153955 C63.8675056,67.3271109 64.2856829,67.2750809 64.8695531,66.9170921 C65.3018199,66.652418 65.8901987,66.5675865 66.4137657,66.5494891 C67.5769973,66.507639 68.7492463,66.6337551 69.9068422,66.5460959 C70.7268529,66.4838861 71.5265746,66.1705753 72.3409495,65.9941258 C72.8662072,65.8804517 73.3982279,65.7656464 73.9313758,65.7328449 C75.3780888,65.6451858 76.1823192,64.7652007 76.1361056,63.3111895 C76.1124352,62.5731558 76.1118716,61.8300322 76.1733019,61.0953918 C76.2584027,60.0632757 76.2578391,59.0792307 75.5567441,58.2128187 C75.3989413,58.0177064 75.3104591,57.70383 75.3155313,57.447639 C75.3369474,56.4013843 74.8674842,55.9551708 73.8237318,56.023036 C73.0583884,56.0728037 72.764199,55.6780547 72.7061502,54.8829011 C72.6650087,54.3241446 72.3195334,53.7721745 72.0473237,53.2501783 C71.5479907,52.2927139 70.9968083,51.36183 70.4800043,50.4134142 C70.2957132,50.0763506 70.1469278,49.7200584 69.9840528,49.3711184 C69.1336087,47.5404554 68.2656936,45.8421296 66.2131307,44.895976 C65.2516611,44.4525903 64.7607819,43.0517401 63.9599329,42.1734517 C62.5774682,40.6566652 61.1290644,39.2009573 59.6823513,37.7452494 C59.5110227,37.5733243 59.1678017,37.4602157 58.9265889,37.4913206 C57.0335195,37.733373 55.8342187,36.426403 54.3739797,35.6108899 C53.0929595,34.8954779 52.2447698,33.9951333 51.5256401,32.730579 C50.7602968,31.3823243 49.8456044,31.4558449 49.0920963,32.8171071 C48.5550034,33.7887101 48.2467245,34.8875603 47.8432003,35.9326839 C47.7034321,36.2946315 47.6031147,36.6724142 47.4543292,37.030403 C46.866514,38.4459573 46.2431932,39.847373 45.6880656,41.2748037 C45.5561876,41.6141296 45.6486149,42.0371558 45.6148001,42.4200285 C45.5849303,42.7604854 45.6491785,43.227624 45.4558702,43.4159498 C44.5445593,44.304418 44.6522033,45.3693356 44.7440671,46.4710135 C44.7716825,46.805815 44.6623478,47.1581483 44.58401,47.4957775 C44.3625226,48.4538075 44.1601969,49.418624 43.8857328,50.3613843 C43.5673094,51.4517513 43.1468778,52.5127101 42.8346538,53.6047738 C42.617675,54.3609049 42.3685721,55.1487064 42.378153,55.9195416 C42.3984419,57.5635753 41.7773754,58.2688075 40.1711689,58.6166165 C39.5016344,58.7613955 38.7734874,59.3088412 38.3733447,59.8839985 C37.6694318,60.8957551 38.1856722,61.6315266 39.4311867,61.6999573 C40.6772648,61.7678225 41.9081263,61.5223768 43.1756205,62.1574816 C43.7053868,62.4238524 44.8297314,61.7457663 45.5601327,61.2961596 C46.4629898,60.7424929 47.1990269,60.5733955 48.0889217,61.2984217 C48.8204502,61.8939386 49.6472238,61.9199536 50.4351104,61.2769311 C50.6678694,61.0869086 50.9558595,60.9121558 51.2432859,60.8522082 C52.5090894,60.5886652 53.7912367,60.4037326 55.04915,60.1113468 C55.3602468,60.0395228 55.7209388,59.7250809 55.8561983,59.4298674 C56.4118894,58.2094255 56.8407747,56.9312981 57.411119,55.7187738 C57.9825903,54.5017251 57.7385597,53.5516127 56.5775823,52.8226277 C56.3391874,52.6727588 56.2140724,52.3515303 56.0128739,52.130403 C55.7147394,51.802388 55.4470383,51.3228075 55.0756383,51.2102644 C54.1361484,50.9274929 54.1553101,50.121594 53.9879265,49.4452045 C53.9439672,49.2710172 54.4145575,49.0086052 54.55658,48.7377101 C54.7481976,48.3740659 55.0863464,47.7644105 54.952214,47.6043618 C53.8628115,46.2990884 54.3638352,44.7721221 54.2094139,43.3373393 C54.1338941,42.6343693 53.8363232,41.9585453 53.7281156,41.2567064 C53.6666852,40.8642195 53.786728,40.4423243 53.8261787,40.0345678 C54.2488646,40.1731258 54.8800756,40.1833056 55.0564765,40.4734292 C55.6758523,41.4891446 56.6023799,42.5478412 55.2142793,43.7558412 C54.9775752,43.9616989 55.0220981,44.7591146 55.2114614,45.1482082 C56.3104448,47.4064217 57.446061,49.6499311 58.670723,51.8408449 C59.0855188,52.5828375 59.7691429,53.1845753 60.3761199,53.804976 C61.0518538,54.4977663 61.8171971,55.1040285 62.4760235,55.8109573 C63.5231575,56.9346914 63.7745147,56.9273393 64.6892071,55.7521408 C65.0679337,55.2657738 65.3440885,54.1544816 66.1973505,54.8139049 C66.961003,55.4048974 65.951629,55.9201071 65.7042169,56.4630285 C65.615171,56.6575753 65.5509228,56.864564 65.4754029,57.0658974 C65.5402147,57.1722195 65.604463,57.277976 65.6687113,57.3842981 C66.5056294,57.0099086 67.3256401,56.5880135 68.1862286,56.2820547 C68.5993337,56.1350135 69.0902129,56.2062719 69.5467138,56.1791258 C69.5072631,56.6276015 69.6368867,57.2847625 69.3951104,57.4827026 C68.8044773,57.9656764 68.0554778,58.2671109 67.3442383,58.5832494 C66.2187665,59.0831895 65.0470811,59.4881184 63.9582422,60.0553581 C63.7762055,60.1503693 63.8370722,60.8782232 63.9204823,61.2859798 C64.0501059,61.9250434 64.6176322,62.5392232 63.8049481,63.336639 C63.5000507,62.8022007 63.2396761,62.346373 62.9793016,61.8899798 C62.8632039,61.8611371 62.7465425,61.8311633 62.6304448,61.8017551 C62.2736979,62.7134105 61.8538299,63.6075341 61.584438,64.5452045 C61.4401612,65.0491034 61.6650301,65.6621521 61.5128632,66.1620921 C61.4164908,66.4799273 60.8444559,66.9504592 60.6426938,66.8820285 C60.0357168,66.6767363 59.4749535,66.2797251 58.9682939,65.8680097 C58.8521962,65.7741296 58.9592766,65.2888936 59.0815737,65.0423169 C59.2974254,64.6051521 59.9168011,63.9830547 59.8147929,63.8428 C59.4366299,63.3225004 58.8747394,62.8932532 58.3027045,62.5686315 C57.7329238,62.2457064 57.0684616,62.0930097 56.4479586,61.8611371 C56.304809,61.8074105 56.172931,61.7016539 56.027527,61.6801633 C55.4842347,61.5998562 53.5381887,63.0205004 53.4361805,63.5549386 C53.1859504,64.8681296 53.4829577,65.1729573 54.785394,64.9846315 C55.2830362,64.9128075 55.7896957,64.8788749 56.2929738,64.8720884 C57.9944255,64.846639 58.1082689,65.0038599 57.6365515,66.6343206 C56.8199222,66.5325228 55.8798687,66.0580322 55.3010708,66.9906127 C54.0628828,68.9807588 52.6798545,70.7967176 50.4807605,71.7932045 C50.2113686,71.9153618 49.870402,71.8774704 49.5621231,71.9142307 C49.5914293,71.5539798 49.5254903,71.1462232 49.6737121,70.8459199 C49.8371507,70.5173393 50.1668457,70.1027963 50.4801969,70.0468075 C51.7724887,69.8188936 51.9736872,68.5763955 52.6449124,67.794815 C52.8235677,67.5861296 52.6584384,66.9199199 52.4459683,66.6032157 C52.346778,66.455609 51.7426189,66.5851184 51.3931985,66.6829573 C50.7264819,66.8684554 50.0851264,67.2632045 49.4189734,67.2988337 C48.9416201,67.3237176 48.4417236,66.9040846 47.9519715,66.6823918 C48.2439065,66.2746352 48.5736016,65.8883693 48.8159415,65.4529011 C48.9962875,65.1277139 49.0633537,64.7391858 49.1805786,64.3795004 C48.8379212,64.3529199 48.4806107,64.2528187 48.1537335,64.3150285 C47.3472488,64.4688562 46.55429,64.6933768 45.7579497,64.8969723 C45.4998295,64.9625753 45.1802789,64.9784105 45.0044416,65.142418 C44.2205001,65.8736652 43.5374396,65.8442569 42.7884402,65.0683318 C42.6328917,64.9077176 42.1747002,65.0411858 41.8557132,65.0389236 C41.8940367,65.3511034 41.8202076,65.838036 41.9887184,65.9466202 C42.8385989,66.4957625 42.9045379,67.0924105 42.3527919,67.8909573 C42.2158416,68.0888974 42.2338762,68.4157813 42.2321855,68.6844142 C42.2006249,73.7471558 42.1662465,78.8098974 42.1825903,83.872639 C42.1831539,84.1112981 42.7484259,84.5999273 42.8876305,84.5462007 C44.0271917,84.1062082 44.9390662,84.6191558 46.0160699,84.8532906 C47.6589092,85.2101483 49.3299276,85.816976 50.9857293,85.8593918 C53.1560806,85.914815 55.3641919,86.3842157 57.5480692,85.1756502 C59.1091892,84.3120659 59.2827722,84.6293356 59.2472666,82.8003693 C59.2421944,82.5277775 59.2703735,82.2523581 59.2410672,81.9831596 C59.0872096,80.570433 59.2016166,79.0434667 58.6853761,77.7772157 C58.0586738,76.2428974 57.4268992,74.839785 57.5830112,73.106961 C57.6450052,72.4186951 57.1868136,71.5590697 56.717914,70.979388 C56.1408068,70.2645416 55.5992053,70.5354367 55.1224156,71.3090996 C54.2545004,72.7173019 53.263161,74.0497213 52.3191625,75.410418 C51.136769,77.1132682 49.1225297,77.5142382 47.4712367,78.4773581 C47.2266424,78.6198749 46.7785953,78.4128861 46.1293497,78.3297513 C51.143532,75.2277476 54.2477375,70.7921933 57.6111903,66.6088712" id="Fill-1" fill="#231916" mask="url(#mask-2)"></path>
                </g>
                <path d="M41.9976292,20.999662 C40.8478243,21.0154901 40.4605216,20.4735366 40.9283107,19.772036 C41.517737,18.8875628 41.1691645,17.3895931 42.5198827,17.0420084 C42.9005287,16.9438743 43.3283771,17.0470734 43.7344398,17.0572034 C43.6721083,17.450373 43.6587948,17.86127 43.5347369,18.2316471 C43.3144585,18.8907284 43.0784459,19.5561409 42.7498437,20.1601405 C42.5374324,20.5507776 42.1489194,20.8369493 41.9976292,20.999662" id="Fill-3" fill="#231916"></path>
                <path d="M63.7344398,54.163524 C63.5311764,54.4646059 63.3514699,54.7323029 63.1710905,55 C62.886387,54.8361669 62.5471659,54.7180835 62.3290951,54.498609 C61.8680505,54.0343122 61.4096982,53.5483771 61.0657656,53.0092736 C60.8436566,52.6618238 60.6552004,52.1573416 60.7682741,51.8098918 C60.8752903,51.4809892 61.395564,51.2658423 61.734112,51 C61.978432,51.3251932 62.2490013,51.6367852 62.4596684,51.979289 C62.886387,52.6717156 63.2801258,53.3808346 63.7344398,54.163524" id="Fill-5" fill="#231916"></path>
                <path d="M49.3091825,25 C49.0318734,24.5067093 48.6978967,24.1169329 48.7376845,23.941853 C48.822083,23.5686901 49.1009997,23.3073482 49.3007427,23 C49.4550713,23.2773163 49.722333,23.542492 49.733988,23.8338658 C49.7460449,24.1405751 49.5145521,24.4728435 49.3091825,25" id="Fill-7" fill="#231916"></path>
                <path d="M25.3916341,47 C24.7016639,45.4813112 24.3785463,43.9567268 25.3152609,42.4928664 C25.4836737,42.2299257 26.0208975,42.1591793 26.3870974,42 C26.5045947,42.3207169 26.8316288,42.8059191 26.7062984,42.9373895 C25.6749332,44.0174508 25.8361656,45.3392289 25.6553503,46.594977 C25.6351147,46.7382384 25.4830209,46.8649923 25.3916341,47" id="Fill-9" fill="#231916"></path>
            </g>
        </g>
    </g>
</svg>