<?xml version="1.0" encoding="UTF-8"?>
<svg width="101px" height="122px" viewBox="0 0 101 122" version="1.1" xmlns="http://www.w3.org/2000/svg" xmlns:xlink="http://www.w3.org/1999/xlink">
    <!-- Generator: Sketch 60 (88103) - https://sketch.com -->
    <title>figure40</title>
    <desc>Created with Sketch.</desc>
    <defs>
        <polygon id="path-1" points="0.907456856 0.0263869492 36.948 0.0263869492 36.948 71.5175374 0.907456856 71.5175374"></polygon>
        <polygon id="path-3" points="0.488855383 0.9718 31.4229131 0.9718 31.4229131 50 0.488855383 50"></polygon>
        <polygon id="path-5" points="0 0.117642578 4.5162 0.117642578 4.5162 2.51533421 0 2.51533421"></polygon>
    </defs>
    <g id="页面-1" stroke="none" stroke-width="1" fill="none" fill-rule="evenodd">
        <g id="29-44" transform="translate(-951.000000, -277.000000)">
            <g id="figure40" transform="translate(951.000000, 277.000000)">
                <path d="M45.9508,28.6254 C46.1638,28.5674 46.3768,28.5084 46.5898,28.4504 C46.5068,27.9914 46.4248,27.5324 46.3418,27.0744 C46.0978,27.2044 45.6488,27.3384 45.6508,27.4654 C45.6578,27.8544 45.8378,28.2394 45.9508,28.6254 M44.2438,27.9434 C43.9998,28.5104 43.7498,28.8134 43.7948,29.0634 C43.8398,29.3114 44.1808,29.5054 44.3928,29.7234 C44.5448,29.4454 44.7928,29.1744 44.8158,28.8854 C44.8338,28.6724 44.5578,28.4364 44.2438,27.9434 M50.0128,34.7764 C50.2458,34.2224 50.4878,33.9234 50.4448,33.6734 C50.3998,33.4084 50.0848,33.1894 49.8878,32.9504 C49.6968,33.2314 49.3878,33.5004 49.3558,33.7984 C49.3328,34.0234 49.6658,34.2864 50.0128,34.7764 M75.6378,51.3814 C75.7668,51.5474 75.8958,51.7134 76.0258,51.8794 C76.4568,51.5804 76.8868,51.2814 77.3168,50.9824 C77.1418,50.8194 76.8678,50.4854 76.8088,50.5204 C76.3938,50.7654 76.0228,51.0854 75.6378,51.3814 M39.5178,24.2774 C39.1998,23.9254 38.9928,23.6964 38.7868,23.4684 C38.5748,23.6874 38.2018,23.9004 38.1938,24.1264 C38.1848,24.3824 38.5038,24.6494 38.6798,24.9124 C38.9178,24.7314 39.1548,24.5524 39.5178,24.2774 M30.8048,28.3064 C31.4298,28.9234 31.8568,29.3514 32.3048,29.7584 C32.3118,29.7654 32.5428,29.5274 32.6688,29.4044 C32.2768,29.0144 31.8878,28.6224 31.4878,28.2404 C31.4538,28.2084 31.3458,28.2504 30.8048,28.3064 M45.1638,33.9624 C44.8888,33.9614 44.6118,33.9604 44.3358,33.9594 C44.2248,34.2744 43.9818,34.6214 44.0458,34.8964 C44.1008,35.1344 44.5018,35.4374 44.7568,35.4444 C45.0048,35.4504 45.4288,35.1474 45.4718,34.9224 C45.5278,34.6324 45.2808,34.2854 45.1638,33.9624 M41.2388,48.4174 C40.8268,48.9824 40.5578,49.3504 40.2898,49.7184 C40.4808,49.8514 40.7638,50.1384 40.8488,50.0894 C41.2148,49.8744 41.5458,49.5824 41.8228,49.2604 C41.8648,49.2124 41.5498,48.8574 41.2388,48.4174 M46.5898,51.3854 C46.1738,51.9044 45.9088,52.2354 45.6438,52.5654 C45.8968,52.7514 46.2218,53.1424 46.3868,53.0834 C46.7238,52.9614 47.0458,52.6394 47.2248,52.3174 C47.2888,52.2034 46.9158,51.8474 46.5898,51.3854 M43.4308,33.5004 L43.2228,33.1264 C42.6298,33.3944 42.0368,33.6634 41.4428,33.9314 C41.6448,34.1274 41.8408,34.4814 42.0498,34.4904 C42.7448,34.5184 43.2728,34.2104 43.4308,33.5004 M83.9388,25.3254 C82.9728,25.0844 82.2338,24.9004 81.4958,24.7164 C82.3948,26.1834 82.8878,26.2944 83.9388,25.3254 M73.7298,43.6614 C73.3948,45.3254 73.6408,45.7824 75.0418,46.0074 C74.3218,45.3334 75.0968,44.0394 73.7298,43.6614 M40.9398,28.0274 C41.1548,28.1804 41.4648,28.5604 41.7998,28.5834 C42.0178,28.5984 42.2788,28.0994 42.5078,27.8204 C42.7478,27.5264 42.9958,27.2344 43.1958,26.9134 C43.3448,26.6734 43.4218,26.3884 43.5308,26.1234 C43.4548,26.0774 43.3798,26.0304 43.3038,25.9844 C42.5758,26.6134 41.8478,27.2424 40.9398,28.0274 M53.9868,35.2054 C53.4838,34.7194 53.1708,34.4174 52.8568,34.1144 C52.5268,34.4954 52.0328,34.8364 51.9318,35.2704 C51.8778,35.5084 52.4638,36.1204 52.8038,36.1564 C53.1028,36.1874 53.4628,35.6534 53.9868,35.2054 M73.5798,52.2684 C73.6918,52.1824 74.0328,51.9234 74.3738,51.6654 C73.8728,51.0394 73.3718,50.4134 72.8698,49.7874 C72.5138,50.2284 71.9178,50.6384 71.8538,51.1174 C71.7428,51.9664 72.4408,52.2594 73.5798,52.2684 M46.3698,38.0894 C45.9768,37.5754 45.8638,37.2824 45.6558,37.1814 C44.9088,36.8164 44.1478,36.4544 43.3528,36.2274 C43.1018,36.1554 42.7288,36.5064 42.4118,36.6644 C42.5928,36.9484 42.7088,37.3494 42.9678,37.4934 C43.6228,37.8584 44.3238,38.1744 45.0438,38.3744 C45.3668,38.4634 45.7798,38.2294 46.3698,38.0894 M48.4268,36.6654 C48.5958,37.9994 48.8628,38.5404 49.5508,38.3744 C50.0478,38.2544 50.4408,37.7084 50.8798,37.3534 C50.3048,36.7824 49.7278,36.2124 49.1518,35.6424 C48.9098,35.9824 48.6688,36.3244 48.4268,36.6654 M40.6498,52.8254 C40.6898,52.7674 40.7288,52.7094 40.7678,52.6524 C40.2378,52.0644 39.7218,51.4654 39.1738,50.8954 C38.7548,50.4594 38.4888,50.1364 39.1118,49.5764 C39.4728,49.2504 39.5618,48.6214 39.8178,48.0234 C38.1678,48.2224 36.7028,50.1344 36.8068,51.5094 C38.1238,51.9604 39.3878,52.3934 40.6498,52.8254 M35.6338,24.4544 C36.1758,24.0794 36.5498,23.9204 36.7768,23.6424 C37.4298,22.8404 38.1648,22.4414 39.2648,22.4444 C39.7558,22.4454 40.3898,21.8144 40.7018,21.3114 C41.0568,20.7344 40.6048,20.2814 39.9838,20.4354 C38.7188,20.7484 37.4318,21.0804 36.2608,21.6304 C35.7338,21.8774 35.3668,22.6284 35.1208,23.2294 C35.0158,23.4864 35.4048,23.9444 35.6338,24.4544 M49.7938,55.7164 L49.6178,55.6304 C49.6178,55.4754 49.6768,55.2844 49.6068,55.1724 C49.3698,54.7864 49.0888,54.4274 48.8238,54.0584 C48.6378,54.4274 48.3928,54.7804 48.2788,55.1714 C48.1288,55.6854 48.1468,56.2524 47.9718,56.7544 C47.7438,57.4074 47.0538,57.4984 46.7808,56.9074 C46.6408,56.6034 46.7478,56.1094 46.8928,55.7664 C47.2268,54.9804 46.7968,54.6244 46.1978,54.7974 C45.8108,54.9104 45.2678,55.6604 45.3488,55.9874 C45.5848,56.9424 46.0538,57.8534 46.5478,58.7154 C46.6278,58.8564 47.3898,58.7964 47.6688,58.5964 C48.1868,58.2214 48.6298,57.7084 49.0138,57.1874 C49.3398,56.7454 49.5388,56.2104 49.7938,55.7164 M54.3598,29.9914 C54.4558,29.9264 54.5528,29.8604 54.6488,29.7954 C54.0028,28.9504 53.4448,28.0114 52.6798,27.2924 C52.1488,26.7944 51.5968,26.9934 51.3428,27.8594 C51.1798,28.4114 50.6288,28.8354 50.3478,29.3674 C50.1508,29.7424 50.1138,30.2034 50.0058,30.6254 C50.5498,30.5584 51.0988,30.5184 51.6328,30.4014 C51.7528,30.3754 51.8198,30.0844 51.9008,29.9114 C52.2988,29.0554 52.8358,29.2464 53.1518,29.8774 C53.3848,30.3404 53.2628,30.9684 53.3868,31.5024 C53.4598,31.8244 53.6978,32.1084 53.8618,32.4094 C54.0278,32.1414 54.2958,31.8894 54.3378,31.6034 C54.4148,31.0764 54.3598,30.5304 54.3598,29.9914 M47.4678,24.1114 C46.9458,24.2134 46.4138,24.2224 45.9748,24.4314 C45.5988,24.6104 45.3108,25.0014 45.0328,25.3384 C44.9828,25.3994 45.2038,25.8044 45.2388,25.7964 C45.6188,25.7064 45.9798,25.5424 46.3578,25.4434 C46.7068,25.3524 47.1438,25.1714 47.4018,25.3044 C47.5968,25.4034 47.5758,25.9354 47.6348,26.2764 C47.6648,26.4564 47.5868,26.7384 47.6808,26.8084 C48.7528,27.6014 48.1838,28.2114 47.5138,28.8614 C47.3588,29.0114 47.2188,29.3894 47.2998,29.5184 C47.4098,29.6924 47.8358,29.8764 47.9598,29.7974 C48.4638,29.4764 49.0368,29.1304 49.3148,28.6414 C49.4758,28.3574 49.1298,27.7804 49.0008,27.3384 C48.9228,27.0694 48.8248,26.8064 48.7358,26.5404 C49.0418,26.4954 49.3468,26.4234 49.6538,26.4164 C49.8388,26.4124 50.0538,26.5944 50.2068,26.5454 C50.6568,26.3984 51.0838,26.1784 51.5188,25.9874 C51.1458,25.6354 50.8278,25.1724 50.3878,24.9584 C49.7918,24.6674 49.1028,24.5664 48.4538,24.3844 C48.1238,24.2924 47.7928,24.2014 47.4678,24.1114 M28.3828,33.2944 C28.3138,31.5184 27.2438,29.8344 28.8608,28.3994 C28.9318,28.3364 28.9448,28.1824 28.9478,28.0694 C28.9698,26.8104 29.9078,26.5664 30.8018,26.6844 C31.8898,26.8264 33.0318,25.7454 34.0608,26.8344 C34.0968,26.8714 34.2968,26.8064 34.3748,26.7374 C35.0108,26.1744 35.4348,26.3064 35.8058,27.0614 C35.9048,27.2624 36.3298,27.2904 36.5878,27.4294 C36.8438,27.5674 37.1878,27.6904 37.3038,27.9174 C37.7768,28.8504 38.6028,29.6494 38.3048,30.8914 C38.2178,31.2574 38.5058,31.8004 38.7718,32.1464 C39.2138,32.7204 39.2028,33.1714 38.7188,33.6834 C38.5388,33.8734 38.3648,34.1254 38.3148,34.3744 C38.0718,35.5974 37.2688,36.0904 36.1108,36.2274 C35.8658,36.2554 35.6468,36.5114 35.4158,36.6634 C35.6608,36.8704 35.8868,37.2094 36.1558,37.2494 C36.4488,37.2914 36.8468,37.1284 37.0848,36.9224 C37.9228,36.1964 38.7568,35.4544 39.4968,34.6324 C39.8628,34.2274 40.2438,33.6294 40.2328,33.1274 C40.2048,31.8654 40.5378,30.4844 39.4098,29.4254 C39.2018,29.2304 39.2598,28.7654 39.1618,28.4354 C39.0548,28.0734 38.9898,27.6614 38.7688,27.3774 C36.5808,24.5684 32.3318,24.1684 29.6278,26.1344 C27.8018,27.4624 26.6268,29.3884 27.0108,31.8974 C27.1378,32.7304 27.5848,33.0864 28.3828,33.2944 M22.1568,41.2814 C21.5558,41.3654 20.7598,41.3404 20.7188,41.5034 C20.5018,42.3744 20.3428,43.3024 20.4128,44.1904 C20.5108,45.4144 20.8338,46.6064 21.9178,47.4314 C22.0698,47.5464 22.0808,48.0104 21.9788,48.2314 C21.9218,48.3574 21.3728,48.4444 21.2708,48.3364 C20.4708,47.4854 19.5408,46.6754 19.0298,45.6614 C18.7178,45.0404 18.6308,44.4114 17.8378,44.4024 C17.5088,44.3984 17.1768,44.6604 16.8458,44.8014 C17.0928,45.3164 17.2508,45.9054 17.6058,46.3294 C18.2228,47.0664 18.2328,47.5004 17.3758,47.9554 C17.0518,48.1264 16.6438,48.1774 16.2688,48.2094 C15.4608,48.2784 14.4958,49.0854 14.5958,49.7874 C14.7338,50.7534 15.5758,50.7004 16.2368,50.5834 C18.1318,50.2494 19.8718,50.9364 21.6638,51.2824 C21.8448,51.3174 22.0108,51.4304 22.1828,51.5074 C22.1368,51.6514 22.0888,51.7964 22.0418,51.9404 C21.0758,52.0934 20.1098,52.2464 19.1438,52.3994 C19.1518,52.5894 19.1598,52.7794 19.1678,52.9694 C19.8938,53.0224 20.6258,53.1574 21.3458,53.1094 C22.3068,53.0444 23.0888,53.2524 23.7248,54.0124 C24.1218,54.4854 24.5898,54.8994 25.0418,55.3234 C26.2518,56.4564 27.3798,57.7074 28.7208,58.6564 C29.4728,59.1904 30.1848,59.6074 30.4658,60.5244 C30.7428,61.4314 31.3908,61.8184 32.3088,61.8114932 C33.1998,61.8034 34.0928,61.7544 34.9808,61.7934 C36.7158,61.8684 37.3518,61.2794 37.3688,59.5064 C37.3848,57.8734 38.0358,57.1594 39.6558,56.8744 C40.2148,56.7764 40.7688,56.5674 41.2738,56.3084 C41.4738,56.2054 41.5338,55.8294 41.6578,55.5774 C41.3868,55.4774 40.9768,55.2104 40.8668,55.3034 C39.6808,56.2924 37.4668,55.4684 36.8448,57.6654 C35.9298,56.3424 34.9858,55.1344 35.1178,53.4364 C35.2638,51.5464 34.9958,51.2314 33.1798,51.4104 C31.6378,51.5624 30.2658,51.2754 29.0208,50.3314 C28.7208,50.1044 28.3088,50.0234 27.8278,49.8254 C27.8958,51.0744 27.9948,52.1104 27.9888,53.1454 C27.9858,53.5994 27.7698,54.0524 27.6508,54.5054 C27.2238,54.1664 26.7498,53.8704 26.3928,53.4684 C26.2198,53.2724 26.2388,52.8824 26.2208,52.5774 C26.1818,51.9294 25.9468,51.5424 25.2128,51.6524 C24.3948,51.7744 24.3928,51.2864 24.5708,50.7234 C24.6628,50.4314 24.7758,50.1274 24.9558,49.8834 C25.5608,49.0604 25.5308,48.2924 25.0058,47.4134 C24.2398,46.1304 23.5958,44.8434 23.7548,43.1984 C23.8638,42.0584 23.4288,40.8654 23.2358,39.6964 C23.0698,39.6894 22.9038,39.6824 22.7378,39.6744 C22.5348,40.2364 22.3318,40.7994 22.1568,41.2814 M34.2878,21.0424 C35.1948,20.7414 36.1678,20.1574 37.1408,20.1534 C38.8068,20.1474 40.2758,20.0064 41.2578,18.4704 C41.3168,18.3764 41.4698,18.3354 41.5138,18.2404 C41.7928,17.6454 42.0558,17.0424 42.3188,16.4404 C42.5558,15.8964 42.6598,15.2264 43.0458,14.8264 C43.9598,13.8784 44.0718,13.3894 43.0788,12.4994 C42.4678,11.9504 42.3958,11.5404 42.8238,10.8304 C43.3878,9.8934 42.9958,8.9724 42.0418,8.9294 C40.8888,8.8774 40.6848,8.2034 40.7578,7.3004 C40.8438,6.2254 41.0308,5.1574 41.0958,4.0824 C41.1158,3.7444 40.9818,3.1974 40.7488,3.0784 C39.3228,2.3454 37.9048,1.4824 36.3758,1.0924 C34.1508,0.5244 32.0968,1.6564 30.0238,2.3164 C29.8288,2.3784 29.6688,2.6084 29.5348,2.7924 C28.8758,3.6944 28.2118,4.5934 27.5948,5.5244 C27.4478,5.7464 27.3328,6.2314 27.4488,6.3444 C28.2568,7.1294 28.1148,7.8884 27.5828,8.7424 C27.4458,8.9624 27.4768,9.3604 27.5658,9.6324 C27.8878,10.6064 28.3048,11.5504 28.6128,12.5284 C28.8778,13.3674 29.3588,14.3044 29.1928,15.0804 C28.7598,17.1184 29.7118,18.3874 31.1628,19.4524 C31.8208,19.9354 32.6178,20.2294 33.3548,20.6104 C33.0698,21.1924 32.7458,21.6834 32.6018,22.2224 C32.5348,22.4744 32.8178,22.8194 32.9428,23.1224 C33.2368,22.9924 33.6768,22.9394 33.7948,22.7164 C34.0358,22.2634 34.1028,21.7174 34.2878,21.0424 M40.0168,46.6154 C39.7598,47.7204 40.4898,47.6144 41.1788,47.5664 C43.0788,47.4334 43.3928,47.8024 42.9778,49.6704 C42.9288,49.8964 42.8168,50.1434 42.8678,50.3484 C42.9418,50.6524 43.1358,50.9284 43.2788,51.2164 C43.5288,51.0274 43.8568,50.8864 44.0138,50.6374 C44.2768,50.2174 44.3668,49.6814 44.6528,49.2824 C44.9368,48.8844 45.3718,48.5944 45.7398,48.2574 C45.9408,48.7074 46.1398,49.1584 46.3448,49.6064 C46.3748,49.6734 46.4268,49.7314 46.4708,49.7924 C47.8698,50.0254 47.8178,50.0514 48.5248,51.4274 C48.8348,52.0274 49.4038,52.4934 49.9028,53.0744 C50.0838,52.7864 50.1708,52.7074 50.1558,52.6614 C49.3488,50.1754 47.2178,48.7504 45.5548,46.9494 C45.4578,46.8434 45.1228,46.9344 44.9038,46.9664 C44.6428,47.0054 44.2858,47.2194 44.1478,47.1174 C42.8388,46.1474 41.3718,46.7724 39.9848,46.6464 C40.2678,46.2924 40.5588,45.6274 40.8318,45.6354 C43.1858,45.7034 45.6988,45.1294 47.7218,46.8964 C48.7118,47.7614 49.3938,47.3184 50.0588,46.5334 C50.8478,45.6024 50.0878,45.1074 49.5088,44.5154 C48.9758,43.9704 48.1108,43.3344 48.1198,42.7504 C48.1558,40.4524 46.3268,39.8384 44.8878,39.5184 C43.4528,39.1984 42.6398,38.6184 41.9448,37.4684 C41.5608,36.8334 40.9688,36.3264 40.4698,35.7624 C39.9508,36.2844 39.4308,36.8054 38.9148,37.3304 C38.8928,37.3524 38.9008,37.4054 38.8798,37.5524 C39.4318,37.6994 39.9978,37.8494 40.5628,37.9994 C40.2128,38.3514 39.7988,38.3414 39.6598,38.5314 C38.5048,40.1124 36.8908,39.3874 35.6208,39.0834 C34.5708,38.8324 33.5778,38.5134 32.4838,38.5704 C31.6718,38.6124 30.8558,38.6234 30.0428,38.6084 C29.0438,38.5904 28.6968,38.0534 29.1078,37.1724 C29.4748,36.3844 29.9048,35.6234 30.2428,34.8234 C30.3298,34.6174 30.1708,34.3084 30.1248,34.0464 C29.9168,34.1664 29.5548,34.2554 29.5238,34.4104 C29.3248,35.4174 28.8458,35.5004 28.0458,35.0004 C27.8318,34.8664 27.4938,34.9344 27.2128,34.9094 C27.2138,35.2334 27.1458,35.5794 27.2358,35.8764 C27.3218,36.1584 27.6848,36.3694 27.7318,36.6454 C27.8878,37.5454 28.0898,38.4764 27.9868,39.3614 C27.9458,39.7144 27.1828,40.0404 26.6968,40.2704 C26.1988,40.5064 25.6318,40.5914 25.1078,40.7824 C24.9168,40.8524 24.6198,41.0354 24.62179,41.1644 C24.6298,41.9644 24.6668,42.7704 24.7778,43.5624 C24.8808,44.2844 25.0838,44.9924 25.2558,45.7034 C25.3048,45.9084 25.3678,46.1254 25.4868,46.2904 C25.5278,46.3464 25.7858,46.3034 25.9038,46.2344 C26.6358,45.8124 27.1188,43.6984 26.7488,42.8614 C26.6328,42.5994 26.6088,42.0774 26.7578,41.9684 C26.9728,41.8114 27.5638,41.7874 27.6788,41.9414 C28.0088,42.3864 28.4818,43.0424 28.3578,43.4484 C27.9478,44.7874 28.2868,46.4564 26.8148,47.3774 C26.7578,47.4144 26.7308,47.5074 26.6998,47.5774 C26.4298,48.1954 26.4928,48.5204 27.3058,48.4754 C27.8468,48.4454 28.4078,48.5854 28.9438,48.7124 C30.4678,49.0744 31.9658,49.6694 33.5068,49.8064 C36.1768,50.0424 36.8578,49.2384 36.7458,46.4964 C36.6768,44.7924 36.5638,43.0914 36.5348,41.3874 C36.5298,41.0874 36.8368,40.7814 36.9988,40.4784 C37.1538,40.7494 37.3428,41.0074 37.4558,41.2944 C37.5948,41.6464 37.6828,42.0204 37.7678,42.3894 C37.9588,43.2224 38.3128,44.0674 38.2768,44.8934 C38.2108,46.4374 38.3928,46.7144 40.0168,46.6154 M20.9208,62.4224 C21.7278,63.3314 22.3988,64.1384 23.1318,64.8844 C23.5038,65.2644 23.9608,65.5834 24.4268,65.8464 C25.4518,66.4244 26.5698,66.8604 27.5368,67.5204 C28.8698,68.4294 30.0548,69.5574 31.3988,70.4484 C31.8068,70.7184 32.5428,70.5984 33.1048,70.5114 C33.9888,70.3734 34.8668,69.8954 35.7228,69.9474 C37.3968,70.0484 38.2228,68.9594 38.9558,67.8574 C39.5678,66.9334 39.3778,65.8664 38.6558,64.9444 C38.2678,64.4494 38.0138,63.5244 37.5838,63.4484 C36.4628,63.2504 35.2718,63.3594 34.1248,63.4844 C33.9238,63.5064 33.7628,64.1924 33.6448,64.5904 C33.5258,64.9954 33.4838,65.4224 33.3538,66.1384 C31.5598,63.4204 31.5598,63.4204 30.3218,64.5004 C30.0388,63.8324 29.7988,63.2034 29.5098,62.5984 C29.1238,61.7904 28.8568,60.8464 28.2588,60.2344 C26.8028,58.7474 25.3428,57.1504 23.5838,56.1044 C22.0748,55.2084 20.2918,54.5484 18.3728,54.6264 C16.1268,54.7174 13.8758,54.6874 11.6278,54.6924 C11.3278,54.6924 10.9638,54.6764 10.7398,54.5154 C10.1348,54.0774 9.6468,54.1524 9.0558,54.5664 C8.7878,54.7534 8.3248,54.6584 7.9518,54.7034 C7.1628,54.7974 6.3778,54.9474 5.5868,54.9794 C5.1448,54.9974 4.6768,54.8774 4.2598,54.7174 C4.0358,54.6314 3.9108,54.3124 3.7188,54.1234 C2.6908,53.1134 2.7218,52.1914 4.0498,51.6674 C5.4588,51.1104 7.0008,50.8834 8.4908,50.5414 C8.6798,50.4974 8.9098,50.6224 9.2188,50.6904 C9.0998,50.9014 9.0618,51.0754 8.9578,51.1374 C8.5028,51.4084 7.6938,51.4404 8.2998,52.3184 C8.8828,53.1634 9.4968,53.2994 10.2118,52.6954 C10.3888,52.5454 10.5878,52.4044 10.7198,52.2194 C11.0178,51.7994 11.2808,51.3554 11.5578,50.9214 C11.1368,50.7934 10.6898,50.7144 10.3008,50.5214 C9.9658,50.3554 9.6608,50.0914 9.4028,49.8154 C8.7628,49.1304 8.1768,48.3954 7.5308,47.7164 C6.8658,47.0194 6.3408,46.3654 6.2308,45.2764 C6.0378,43.3594 6.9208,41.6844 7.1148,39.8704 C7.1398,39.6324 7.3428,39.3814 7.5258,39.1984 C8.6248,38.1044 9.7388,37.0254 10.8538,35.9474 C10.9918,35.8144 11.1458,35.6474 11.3178,35.6084 C13.0058,35.2314 14.6848,34.7034 16.3938,34.5654 C18.3228,34.4104 18.8248,33.6684 18.0218,31.8004 C17.6848,31.0164 17.6248,30.1094 17.4788,29.2514 C17.4428,29.0384 17.4818,28.6944 17.6218,28.5894 C18.9038,27.6284 18.8968,26.0464 19.5138,24.7694 C19.5978,24.5954 19.7458,24.4154 19.7408,24.2424 C19.6528,21.1364 21.9598,19.4664 23.7608,17.4914 C24.1248,17.0924 24.4618,16.6664 24.8448,16.2854 C25.1318,16.0004 25.4708,15.7694 25.7878,15.5144 C25.9568,15.7514 26.2688,15.9914 26.2628,16.2244 C26.2528,16.6914 26.1618,17.5054 25.9398,17.5654 C23.6888,18.1674 23.3108,20.5074 21.8678,21.8364 C21.6238,22.0624 21.6278,22.5484 21.4968,22.9064 C21.3168,23.3974 21.1178,23.8814 20.9298,24.3684 C20.8358,24.6144 20.6328,24.8844 20.6758,25.1044 C20.8888,26.1784 20.5568,27.0884 19.9608,27.9464 C19.2338,28.9904 19.0058,30.1794 18.9668,31.4204 C18.9658,31.4584 18.9298,31.5114 18.9458,31.5324 C19.8298,32.7794 19.4318,34.5064 20.5148,35.6834 C21.5998,36.8614 22.6528,38.0694 23.7428,39.2434 C23.9078,39.4214 24.1888,39.5404 24.4338,39.5814 C24.6468,39.6174 24.8858,39.5044 25.1118,39.4564 C27.5548,38.9394 27.5598,38.9114 25.9158,37.0024 C25.1178,36.0764 25.3428,35.0754 25.7128,34.0464 C25.8248,33.7324 25.7558,33.3534 25.7688,33.0034 C25.4188,33.0834 25.0678,33.1604 24.7198,33.2444 C24.2998,33.3464 23.8808,33.4554 23.4618,33.5614 C23.5228,33.1454 23.6168,32.7314 23.6378,32.3134 C23.6908,31.2824 24.4498,30.8694 25.1588,30.3124 C25.6528,29.9254 25.9748,29.2334 26.2088,28.6154 C26.7028,27.3074 27.4168,26.0834 27.2318,24.5424 C27.1098,23.5284 27.0238,22.6414 26.1258,22.0174 C25.9078,21.8664 25.6168,21.6394 25.5958,21.4254 C25.5578,21.0274 25.6958,20.6134 25.7608,20.2064 C26.1538,20.3134 26.6578,20.3074 26.9148,20.5564 C27.2578,20.8904 27.4988,21.3964 27.6258,21.8714 C27.9238,22.9844 28.8048,23.4834 29.7078,23.9104 C30.0398,24.0674 30.5328,23.8844 30.9528,23.8554 C30.9058,23.4274 30.9858,22.9234 30.7868,22.5844 C30.3228,21.7954 29.4708,21.1564 29.2378,20.3274 C28.8178,18.8284 27.6918,17.5324 27.9298,15.8274 C27.9818,15.4564 27.6858,15.0324 27.5328,14.6394 C27.4208,14.3534 27.1638,14.0744 27.1728,13.7984 C27.2148,12.5134 27.1628,11.4154 25.6428,10.8334 C24.9288,10.5594 24.8088,8.6464 25.1978,7.8754 C25.9268,6.4274 26.6238,4.9634 27.3728,3.5254 C27.5428,3.1994 27.8228,2.8824 28.1318,2.6834 C29.4158,1.8534 30.7178,1.0474 32.0438,0.2864 C32.3548,0.1074 32.7858,0.0884 33.1628,0.0814 C34.4808,0.0534 35.8258,-0.1016 37.1088,0.1084 C38.1588,0.2804 39.1308,0.9134 40.1428,1.3264 C42.2088,2.1674 43.2188,3.8754 43.9958,5.8364 C44.3108,6.6334 45.1338,7.2454 44.8378,8.2474 C44.6798,8.7804 44.5798,9.3804 44.2598,9.8014 C43.8448,10.3464 43.8538,10.6974 44.2718,11.2144 C45.1648,12.3184 45.0858,13.2484 44.2428,14.4384 C43.8238,15.0304 43.4918,15.6834 44.3468,16.3304 C44.9608,16.7954 45.0778,19.7704 44.5868,20.6814 C44.1848,21.4254 43.6558,22.1014 43.2838,22.8574 C43.1328,23.1644 43.0958,23.7874 43.2768,23.9354 C43.5198,24.1344 44.0768,24.1404 44.4098,24.0064 C45.4878,23.5764 46.5088,23.0004 47.5898,22.5804 C47.8648,22.4734 48.2908,22.7134 48.6348,22.8314 C49.0978,22.9904 49.5378,23.2554 50.0128,23.3364 C50.3048,23.3864 50.6908,23.2434 50.9298,23.0534 C51.0158,22.9844 50.8128,22.5244 50.7138,22.2534 C50.6348,22.0384 50.4408,21.8464 50.4188,21.6324 C50.2058,19.5434 48.6388,18.6254 47.0818,17.6634 C46.4658,17.2834 45.9038,16.7974 45.3838,16.2914 C45.2158,16.1274 45.1288,15.6624 45.2408,15.4874 C45.3608,15.3014 45.7588,15.2444 46.0408,15.2294 C46.2558,15.2174 46.5208,15.3064 46.6918,15.4424 C48.3488,16.7564 50.1808,17.9214 51.5638,19.4834 C52.3688,20.3934 52.5978,21.9254 52.7928,23.2214 C52.9178,24.0484 53.1008,24.6814 53.5598,25.4114 C54.6808,27.1914 56.2738,28.8394 56.0268,31.1994 C55.9578,31.8624 55.7518,32.5424 55.4618,33.1434 C54.8868,34.3364 55.1658,34.7294 56.2138,35.4624 C56.9158,35.9544 57.4318,36.9664 57.6418,37.8394 C57.8768,38.8144 58.2128,39.1824 59.2138,39.4584 C60.8818,39.9174 62.4918,40.6554 64.0468,41.4354 C65.4778,42.1534 66.9018,41.9014 68.3278,41.6814 C69.0608,41.5674 69.7508,41.1654 70.4578,40.8904 C71.1168,40.6344 71.2468,40.1924 70.8828,39.6044 C69.9328,38.0694 70.6768,36.3324 70.3068,34.7244 C70.2768,34.5944 70.5528,34.3944 70.6848,34.2264 C70.8788,34.3804 71.1958,34.5064 71.2378,34.6944 C71.3188,35.0594 71.1898,35.4664 71.2468,35.8424 C71.4638,37.2924 71.6238,38.7604 71.9848,40.1754 C72.4398,41.9544 74.9758,43.2854 76.8538,42.9014 C77.0648,42.8584 77.3188,43.0274 77.5538,43.0974 C77.4618,43.4024 77.4608,43.8804 77.2628,43.9864 C75.4008,44.9804 76.3168,46.7444 76.1218,48.1704 C76.0918,48.3914 76.8428,48.8174 77.2928,48.9734 C77.6088,49.0834 78.0288,48.8954 78.4708,48.8304 C78.4798,49.0444 78.4488,49.2044 78.4998,49.3284 C78.6828,49.7714 78.8948,50.2024 79.0968,50.6374 C79.4718,50.3684 79.9758,50.1794 80.1988,49.8164 C80.8748,48.7164 81.1198,47.3474 82.3168,46.5714 C82.4758,46.4684 82.6018,46.1514 82.5788,45.9544 C82.3888,44.3794 83.6288,44.1064 84.6348,43.5484 C85.1088,43.2844 85.5968,42.8184 85.7778,42.3324 C85.8928,42.0224 85.5548,41.2854 85.2398,41.1464 C84.9198,41.0034 84.3308,41.2784 83.9438,41.5114 C82.9358,42.1184 81.9878,42.8244 80.9828,43.4384 C80.7468,43.5834 80.3738,43.5774 80.0818,43.5274 C79.9158,43.4994 79.7888,43.2434 79.6438,43.0904 C79.8378,42.9364 80.0138,42.6794 80.2258,42.6454 C82.4078,42.2954 83.8988,41.0804 85.0138,39.1954 C85.4388,38.4764 86.2578,37.9644 86.9578,37.4394 C87.5068,37.0284 87.6248,36.6224 87.0408,36.2714 C86.4498,35.9144 85.7768,35.6724 85.1138,35.4604 C83.9198,35.0804 82.6358,34.9084 81.5188,34.3754 C80.3168,33.7994 79.7448,34.3344 79.1198,35.1784 C78.3508,36.2144 77.4608,36.2844 77.0268,35.3564 C76.9398,35.1704 77.1528,34.6284 77.1908,34.6324 C78.8678,34.7934 79.0228,33.3654 79.6258,32.2324 C79.4058,32.1194 79.1478,32.0054 78.9098,31.8594 C78.2598,31.4604 77.6658,30.8904 76.9628,30.6804 C75.8888,30.3604 74.7168,30.0624 73.6388,30.1914 C73.0008,30.2684 72.4788,31.2024 71.8718,31.7114 C71.6338,31.9124 71.2958,32.1314 71.0228,32.1084 C70.8118,32.0894 70.4618,31.7054 70.4638,31.4874 C70.4958,28.7084 70.3028,25.8394 72.7848,23.8074 C73.0648,23.5774 73.4428,23.4384 73.7988,23.3354 C74.6628,23.0854 75.5378,22.8684 76.4148,22.6684 C76.6638,22.6124 77.0218,22.5534 77.1878,22.6814 C78.5458,23.7264 80.0878,23.3424 81.5698,23.2614 C82.5648,23.2074 83.3128,23.4694 83.8458,24.3214 C83.9648,24.5134 84.1218,24.7924 84.2958,24.8204 C86.3068,25.1454 87.0948,27.0234 88.5048,28.1034 C88.6208,28.1914 88.7268,28.3434 88.7598,28.4844 C89.1058,29.9744 89.4528,31.4644 89.7648,32.9624 C89.9398,33.8034 89.6158,34.4684 88.9338,34.9894 C88.3058,35.4684 88.0078,36.0594 88.1558,36.9124 C88.2348,37.3674 88.0988,37.9184 87.9008,38.3544 C87.2178,39.8574 87.6848,40.9564 89.2708,41.4044 C89.4198,41.4464 89.5958,41.4614 89.7088,41.5524 C92.7638,43.9944 96.2448,46.0634 98.0748,49.6804 C98.8998,51.3114 99.5458,53.0804 99.5028,55.1044 C99.4628,56.9714 98.9588,58.6724 98.5818,60.4324 C98.5288,60.6794 98.3578,60.9784 98.1508,61.1004 C97.6988,61.3684 97.1878,61.5384 96.7008,61.7494 C96.7498,61.2654 96.6208,60.6364 96.8778,60.3234 C98.4748,58.3744 98.2518,55.9594 97.7258,53.9964 C97.2028,52.0424 97.1618,49.6814 95.3758,48.1634 C94.3788,47.3154 93.3928,46.4534 92.3658,45.6434 C91.6218,45.0574 90.7988,44.5724 90.0468,43.9944 C89.4418,43.5284 88.8918,42.9914 88.1478,42.3364 C87.9168,42.9354 87.4978,43.5684 87.4578,44.2264 C87.3978,45.2204 86.9638,45.8854 86.2588,46.4994 C85.4988,47.1594 85.1628,48.0204 84.7698,48.9754 C83.9888,50.8754 83.6938,53.2924 81.2298,54.0904 C81.0878,54.1364 80.9168,54.2184 80.8418,54.3364 C79.7778,56.0274 77.8908,56.3194 76.2378,56.8874 C75.4798,57.1474 74.4178,56.9094 73.6318,56.5734 C73.0028,56.3054 72.5988,55.9814 72.0318,56.5914 C71.5728,57.0854 70.9648,57.2224 70.5378,56.6184 C70.0968,55.9934 70.2648,55.4034 70.9378,54.9304 C71.2678,54.6984 71.4718,54.2864 71.7328,53.9554 C71.2848,53.6474 70.8668,53.2784 70.3818,53.0504 C69.8478,52.8014 69.2648,52.6104 68.6838,52.5254 C67.9928,52.4244 67.2808,52.4734 66.5788,52.4394 C66.0458,52.4134 65.4858,52.4524 64.9868,52.3024 C63.3568,51.8124 62.3088,50.5964 61.4158,49.2314 C61.2828,49.0274 61.1458,48.6984 61.2238,48.5194 C61.3048,48.3344 61.6908,48.1124 61.8598,48.1664 C62.4208,48.3474 63.1158,48.5064 63.4488,48.9224 C64.5148,50.2544 65.7398,50.9064 67.4858,50.5924 C67.9348,50.5124 68.5208,50.7994 68.9488,51.0684 C70.0348,51.7534 70.8788,51.4074 71.1668,50.1814 C71.2918,49.6504 71.5728,49.0664 71.9668,48.7064 C73.0698,47.6954 73.0968,46.5654 72.5418,45.3264 C72.2248,44.6184 72.0578,44.0514 72.9498,43.5904 C73.5358,43.2874 73.2968,42.4724 72.5618,42.1044 C71.6538,41.6514 69.8468,41.8894 69.1918,42.6844 C68.6558,43.3344 68.0568,43.4534 67.2718,43.5054 C66.6108,43.5504 65.8888,43.8384 65.3468,44.2314 C64.7318,44.6774 64.2988,44.7694 63.9528,44.0674 C63.5918,43.3364 63.2008,42.7484 62.2998,42.6054 C62.0538,42.5664 61.8048,42.1564 61.6708,41.8644 C61.2978,41.0484 60.9028,41.1574 60.3768,41.7214 C59.6808,42.4644 59.3938,43.0904 60.3218,43.9504 C61.2378,44.7994 60.9938,46.0014 60.6398,47.0174 C60.3638,47.8084 59.5528,47.6564 58.9348,47.3664 C58.2538,47.0444 58.2848,46.5194 58.6658,45.9174 C59.7618,44.1884 59.5038,42.3134 57.9868,40.9784 C57.3308,40.4004 56.8828,39.8164 56.7638,38.8554 C56.6638,38.0524 56.0698,37.3104 55.5718,36.2894 C55.2288,36.8144 55.0218,37.0054 54.9718,37.2314 C54.8048,37.9754 54.3818,38.2714 53.6308,38.1784 C53.1708,38.1214 52.6168,38.1834 52.9358,38.8184 C53.4328,39.8054 53.9718,40.8144 54.7028,41.6234 C55.1598,42.1284 56.0278,42.2434 56.6688,42.6074 C57.1278,42.8674 57.5148,43.2514 57.9348,43.5814 C57.5098,43.8114 57.0898,44.2254 56.6558,44.2404 C54.7098,44.3074 52.3268,42.2294 51.9098,40.3324 C51.8278,39.9584 51.3358,39.4564 50.9818,39.4114 C50.3128,39.3254 49.5978,39.4934 48.9278,39.6574 C48.8468,39.6764 48.7848,40.4064 48.9438,40.6684 C49.8768,42.2054 50.8858,43.6954 51.8538,45.2104 C52.4798,46.1884 52.1758,47.0784 51.1028,47.4714 C49.8718,47.9214 49.6878,48.4004 50.2368,49.5814 C50.8308,50.8574 51.4008,52.1454 51.9588,53.4374 C52.0418,53.6304 52.0968,53.9974 51.9958,54.0834 C51.1078,54.8344 51.2628,55.6684 51.6398,56.2544 C51.1268,57.0224 50.7298,57.6164 50.3318,58.2084 C50.2018,58.3994 50.1068,58.6684 49.9248,58.7614 C48.4728,59.4964 47.3878,60.8184 45.6728,61.1874 C45.0578,61.3194 44.6098,62.2224 43.9368,62.9314 C44.5188,63.1514 44.8438,63.1934 45.0418,63.3744 C45.2218,63.5364 45.4108,63.9074 45.3418,64.0874 C44.8168,65.4464 43.9438,66.5734 42.7828,67.4414 C42.5438,67.6214 42.0938,67.5184 41.7408,67.5454 C41.8348,67.2084 41.8508,66.8164 42.0418,66.5464 C42.3038,66.1734 42.7038,65.8984 43.0318,65.5694 C43.7358,64.8644 44.3018,64.2154 43.2208,63.2764 C42.5318,62.6784 43.2238,61.1864 44.1718,60.8964 C44.6998,60.7344 45.2228,60.4544 45.6508,60.1074 C45.8328,59.9604 45.9128,59.4094 45.7828,59.2064 C45.3388,58.5144 44.7808,57.8964 44.0858,57.0224 C44.0008,57.5204 43.9228,57.8644 43.8868,58.2124 C43.8358,58.7074 43.8898,59.2274 43.7548,59.6944 C43.6788,59.9584 43.3028,60.3224 43.0788,60.3104 C42.8178,60.2954 42.3578,59.9104 42.3678,59.7054 C42.4018,59.0074 42.6398,58.3224 42.7318,57.6244 C42.7878,57.2044 42.7178,56.7674 42.7038,56.3384 C42.3748,56.5534 42.0178,56.7374 41.7258,56.9954 C41.5318,57.1664 41.4738,57.4914 41.2798,57.6604 C40.4758,58.3624 39.9568,59.1644 40.1068,60.2924 C40.1278,60.4454 39.9638,60.6244 39.5398,60.8724 C39.4238,60.4774 39.3388,60.0694 39.1808,59.6914 C39.0658,59.4144 38.8558,59.1764 38.6888,58.9204 C38.5148,59.1874 38.2368,59.4344 38.1838,59.7234 C37.8218,61.7154 39.1238,63.0254 40.2178,64.3964 C40.3288,64.5354 40.7808,64.4534 41.0588,64.3964 C41.4148,64.3244 41.7538,64.1724 42.0998,64.0554 C42.1928,64.1504 42.2858,64.2454 42.3778,64.3404 C42.1228,64.6994 41.9178,65.1124 41.6018,65.4074 C40.8258,66.1324 40.4168,66.9774 40.0158,67.9854 C39.5758,69.0944 38.5248,70.3074 37.4468,70.7354 C35.8108,71.3854 33.9268,71.4234 32.1388,71.6694 C30.8668,71.8444 29.8628,71.3724 28.9078,70.4624 C27.8068,69.4164 26.5038,68.5804 25.2738,67.6724 C24.7058,67.2534 24.2728,67.4314 23.9658,68.0454 C23.7408,68.4934 23.3718,68.8984 23.2698,69.3664 C23.1908,69.7284 23.4268,70.1584 23.5218,70.5584 C23.8618,70.3814 24.2288,70.2424 24.5308,70.0154 C24.7198,69.8744 24.7978,69.5904 24.9598,69.4004 C24.9818,69.3744 25.3178,69.5284 25.3128,69.5794 C25.2838,69.8644 25.2868,70.2374 25.1108,70.4084 C24.4808,71.0204 24.7188,71.5724 25.0898,72.1744 C25.4078,72.6934 26.0538,73.5574 25.9168,73.7154 C25.3128,74.4104 24.5518,75.1564 23.7068,75.4004 C22.8908,75.6354 22.2158,75.8324 21.6368,76.4854 C21.4478,76.6984 20.7788,76.7524 20.5228,76.5854 C19.9158,76.1874 19.5128,76.3224 18.9508,76.6704 C18.4608,76.9744 17.8298,77.1474 17.2488,77.1824 C16.2088,77.2454 15.1378,77.0164 14.1188,77.1694 C12.6598,77.3894 11.5178,76.7074 10.4638,76.0044 C9.2808,75.2174 8.3278,74.2154 8.6198,72.4514 C8.8638,70.9784 8.8058,69.4244 8.6608,67.9274 C8.5598,66.8884 8.1888,65.8354 7.7248,64.8934 C7.5458,64.5284 6.7798,64.2764 6.2808,64.2764 C4.7488,64.2764 4.0088,63.6554 3.8108,62.1644 C3.7578,61.7594 3.3818,61.3434 3.0538,61.0414 C2.3268,60.3704 1.4928,59.8124 0.8028,59.1104 C0.6148,58.9194 0.6208,58.1944 0.8098,58.0334 C1.6768,57.2944 1.3688,56.6784 0.8468,55.9244 C0.1338,54.8934 0.4938,53.9484 1.5718,53.8504 C2.2958,53.7834 2.6948,54.0024 2.4818,54.8564 C2.3878,55.2304 2.4488,55.6624 2.5158,56.0554 C2.6358,56.7514 2.9058,57.4344 2.9388,58.1304 C2.9708,58.7804 3.2038,59.0604 3.7268,59.4784 C4.6558,60.2204 5.3318,61.2774 6.1168,62.2004 C6.3418,62.4634 6.5708,62.9194 6.8078,62.9264 C7.0988,62.9344 7.5838,62.6204 7.6678,62.3484 C8.0398,61.1464 8.2608,59.8994 8.6168,58.6934 C8.7248,58.3274 9.0928,58.0384 9.3408,57.7134 C9.6698,58.0254 10.2808,58.3404 10.2768,58.6494 C10.2648,59.8114 10.5778,61.0514 9.6598,62.1024 C9.4678,62.3214 9.6628,62.9254 9.7598,63.3334 C9.8068,63.5354 10.1648,63.6934 10.1658,63.8734 C10.1798,66.6414 12.1518,69.2894 10.6808,72.1564 C10.5728,72.3684 10.6548,72.7704 10.7988,72.9804 C10.8768,73.0934 11.3248,73.0734 11.5188,72.9614 C12.1888,72.5774 12.7948,72.0784 13.4758,71.7204 C13.7988,71.5514 14.2368,71.6064 14.6238,71.5594 C14.5148,71.9144 14.4268,72.2764 14.2918,72.6204 C14.1628,72.9494 13.9858,73.2584 13.8298,73.5774 C14.1808,73.6784 14.5328,73.8684 14.8848,73.8694 C17.5588,73.8754 20.2338,73.8684 22.9078,73.8054 C23.3418,73.7944 23.7668,73.4864 24.1968,73.3154 C23.8778,72.8724 23.6288,72.3314 23.2078,72.0314 C23.0308,71.9064 22.4868,72.2874 22.1168,72.4514 C21.7478,72.6154 21.2588,73.0364 21.0448,72.9224 C20.4088,72.5854 20.6738,72.0614 20.9878,71.5474 C21.4898,70.7314 21.9938,69.9014 22.3608,69.0204 C22.9738,67.5474 22.4968,66.3054 21.3388,65.2794 C20.5328,64.5644 20.2448,63.7414 20.9208,62.4224" id="Fill-1" fill="#231916"></path>
                <g id="编组" transform="translate(64.000000, 48.190000)">
                    <mask id="mask-2" fill="white">
                        <use xlink:href="#path-1"></use>
                    </mask>
                    <g id="Clip-4"></g>
                    <path d="M3.3239,66.1781 C3.6889,65.6911 4.1159,65.3381 4.0529,65.1631 C3.9209,64.8001 3.5279,64.5321 3.2429,64.2251 C2.9639,64.4891 2.4369,64.7791 2.4619,65.0101 C2.4989,65.3601 2.9209,65.6681 3.3239,66.1781 L3.3239,66.1781 Z M7.7409,64.8271 C8.1559,64.3141 8.6319,63.8951 8.5649,63.7771 C8.3479,63.3851 7.9769,63.0111 7.5749,62.8281 C7.4399,62.7671 6.7729,63.3501 6.8109,63.5511 C6.8829,63.9311 7.2889,64.2471 7.7409,64.8271 L7.7409,64.8271 Z M32.6409,69.4261 C32.3549,69.2731 32.1209,69.0621 31.8629,69.0261 C31.2549,68.9401 30.6169,68.8371 30.0249,68.9381 C29.6779,68.9961 29.3949,69.4321 29.0839,69.6981 C29.4299,70.0491 29.8099,70.7201 30.1169,70.6881 C30.8849,70.6101 31.6239,70.2221 32.3629,69.9301 C32.4659,69.8891 32.5039,69.6851 32.6409,69.4261 L32.6409,69.4261 Z M34.1059,64.2391 C34.0529,64.1501 33.9989,64.0611 33.9449,63.9711 C33.2829,64.0981 32.5219,64.0641 31.9869,64.3951 C31.3589,64.7821 30.8829,65.4581 30.4419,66.0801 C30.3349,66.2331 30.5479,66.7531 30.7589,66.9361 C30.8959,67.0551 31.3889,66.9661 31.5649,66.8021 C32.4409,65.9781 33.2639,65.0991 34.1059,64.2391 L34.1059,64.2391 Z M12.2649,62.6701 C13.0349,62.6701 13.6509,62.7881 14.1859,62.6321 C14.6049,62.5101 15.2259,62.0571 15.2379,61.7331 C15.3259,59.3711 15.3049,57.0051 15.2549,54.6431 C15.2469,54.2571 14.9189,53.8801 14.7459,53.4951 C14.2759,52.4491 14.2019,51.4951 14.9349,50.4491 C15.2549,49.9931 15.2159,49.1301 15.0359,48.5461 C14.9479,48.2631 14.1489,48.0381 13.6899,48.0681 C12.9779,48.1141 12.2719,48.3691 11.5809,48.5891 C10.4119,48.9611 9.2129,49.2501 8.1179,48.5451 C7.7119,48.2831 7.5619,47.6251 7.2959,47.1481 C7.7559,46.9581 8.2029,46.7001 8.6819,46.6011 C9.0429,46.5261 9.5299,46.5261 9.8159,46.7131 C10.8459,47.3901 11.4899,46.9331 12.1669,46.1491 C13.1739,44.9811 14.2439,43.8661 15.3029,42.7431 C15.6949,42.3261 16.0669,41.8261 16.5559,41.5761 C17.6929,40.9991 17.8919,40.3451 17.2239,39.2501 C16.3269,37.7791 15.5189,36.2511 14.6299,34.7751 C14.3829,34.3641 14.0459,33.9071 13.6369,33.7151 C12.8689,33.3571 12.6419,32.9261 13.0189,32.1681 C13.2729,31.6571 13.1599,31.3541 12.5759,31.1041 C11.1569,30.4961 9.7889,29.7721 8.3749,29.1521 C8.0359,29.0031 7.5989,29.0771 7.2079,29.0501 C7.1849,29.4281 7.0519,29.8451 7.1629,30.1791 C7.5029,31.1991 7.5019,32.1301 6.8609,33.0471 C6.6549,33.3401 6.5099,33.7441 6.5079,34.1001 C6.4919,36.0371 6.5449,37.9751 6.5389,39.9131 C6.5379,40.4081 6.4759,40.9221 6.3329,41.3951 C5.4489,44.3051 5.4169,47.1331 6.3199,50.1161 C6.7969,51.6911 6.9229,53.4361 7.2619,55.1031 C7.5419,56.4751 7.5539,57.9861 6.6069,59.3471 C6.0449,60.1561 6.5359,60.7131 7.4979,60.8471 C7.9639,60.9111 8.5489,61.1011 8.8149,61.4411 C9.7839,62.6751 11.0429,62.8561 12.2649,62.6701 L12.2649,62.6701 Z M29.7119,31.9411 C29.8519,33.0881 29.9919,34.2361 30.1339,35.3821 C30.1429,35.4591 30.1949,35.5481 30.1709,35.6101 C29.3099,37.7581 30.6929,39.4931 31.1839,41.4001 C31.2809,41.7751 30.9559,42.3061 30.7209,42.7051 C30.4369,43.1921 30.3279,43.5271 30.9659,43.7981 C31.3279,43.9521 31.6419,44.2191 31.9789,44.4341 C31.6289,44.6801 31.2779,44.9251 30.9289,45.1731 C30.8679,45.2171 30.8179,45.2771 30.5759,45.5041 C31.0009,45.8651 31.3839,46.2461 31.8219,46.5481 C32.5119,47.0241 32.8289,47.4901 32.4129,48.3921 C32.2369,48.7741 32.4469,49.5481 32.7589,49.8951 C33.3959,50.6051 33.7289,51.3121 33.9549,52.2731 C34.2639,53.5971 35.0559,54.8151 35.6869,56.0541 C36.3179,57.2941 36.9279,58.5071 36.2549,59.9431 C36.1709,60.1231 36.3119,60.4221 36.3769,60.6581 C36.5639,61.3381 36.9559,62.0251 36.9229,62.6911 C36.8499,64.1581 37.2279,65.6251 36.4089,67.1011 C35.1189,69.4221 32.6269,71.7671 29.3839,71.4961 C28.1959,71.3971 27.1289,70.3721 27.2659,69.1871 C27.3099,68.8091 27.7609,68.2881 28.1299,68.1761 C28.9019,67.9431 29.1149,67.5341 28.9989,66.8071 C28.9499,66.5031 28.9259,66.1811 28.9749,65.8811 C29.1149,65.0531 28.9489,64.5381 28.0339,64.2031 C26.9939,63.8241 26.3629,63.0131 26.4969,61.7571 C26.5829,60.9521 26.4779,60.1291 26.5309,59.3181 C26.6119,58.0501 26.3579,56.9551 25.3219,56.0931 C25.0669,55.8811 24.9439,55.4211 24.9009,55.0591 C24.6429,52.8831 23.6199,51.3141 21.5229,50.4891 C21.1159,50.3281 20.6169,50.0061 20.4739,49.6371 C19.9699,48.3281 19.6179,46.9611 19.1769,45.6271 C18.9049,44.8061 18.5939,43.9971 18.2599,43.1991 C18.2059,43.0721 17.8519,42.9191 17.7899,42.9701 C17.2559,43.3941 16.7059,43.8231 16.2939,44.3531 C16.2189,44.4491 16.7199,45.0371 17.0019,45.3581 C17.2669,45.6591 17.5949,45.9061 18.0169,46.2851 C17.5629,46.5471 17.1839,46.6511 17.0069,46.8991 C16.8099,47.1731 16.6059,47.7021 16.7379,47.9071 C17.5269,49.1311 17.2129,50.3061 16.5169,51.3301 C15.9639,52.1451 16.0069,52.7711 16.4159,53.5741 C16.6859,54.1041 16.8949,54.7271 16.9109,55.3151 C16.9739,57.6401 16.9829,59.9681 16.9259,62.2931 C16.9169,62.6601 16.5209,63.2451 16.1979,63.3331 C15.4569,63.5321 15.3409,63.9701 15.2859,64.6041 C15.1729,65.9361 14.3189,66.8451 13.0939,66.5811 C11.4909,66.2371 10.2459,66.9741 9.0969,67.6991 C7.9619,68.4131 6.8309,68.3841 5.7559,68.1381 C4.3999,67.8281 3.1089,67.1881 1.8389,66.5881 C1.4319,66.3971 0.8339,65.7501 0.9149,65.5371 C1.2399,64.6801 1.4339,63.5741 2.6509,63.4481 C3.1059,63.4001 3.5769,63.5101 4.0399,63.5091 C5.3879,63.5061 6.3289,62.6821 6.3329,61.5231 C4.5899,61.2771 4.4369,60.8151 5.2339,59.2321 C6.2029,57.3061 5.8839,55.2721 5.3989,53.2661 C5.2139,52.4921 4.9209,51.7171 4.9029,50.9381 C4.8789,49.8521 4.6409,48.8661 4.3799,47.8151 C3.9819,46.2191 3.5729,44.4071 4.7399,42.8191 C4.8869,42.6181 4.9599,42.3161 4.9589,42.0611 C4.9529,40.0841 4.9099,38.1091 4.9019,36.1321 C4.9009,35.7141 4.8579,35.1971 5.0729,34.8961 C6.3549,33.1001 5.4609,31.0561 5.7629,29.1551 C5.8049,28.8931 5.2699,28.3901 4.9049,28.2461 C4.2319,27.9831 4.0699,27.5821 4.0859,26.9121 C4.1259,25.2661 4.0869,23.6181 4.0969,21.9721 C4.0989,21.6681 4.0689,21.2331 4.2449,21.0831 C5.2629,20.2191 4.8249,19.1031 4.9119,18.0551 C4.9779,17.2551 5.3099,16.4781 5.5179,15.6881 C5.6049,15.3591 5.6579,15.0211 5.7589,14.6961 C5.8909,14.2631 5.9369,13.6841 6.2379,13.4541 C6.5909,13.1861 7.1779,13.2261 7.6639,13.1321 C7.6659,13.5921 7.8629,14.2751 7.6359,14.4731 C6.4889,15.4801 6.3899,16.7111 6.5809,18.0691 C6.6009,18.2161 6.5799,18.3961 6.5099,18.5231 C5.1389,20.9941 6.0049,23.7131 5.6879,26.3001 C5.6549,26.5741 6.2179,27.0401 6.5959,27.2241 C7.6179,27.7181 8.6919,28.1021 9.7409,28.5391 C11.8069,29.4011 13.6499,30.8931 16.1309,30.5501 C17.2719,30.3921 18.4579,30.4671 19.6159,30.5421 C20.6329,30.6081 21.4699,30.3921 22.3159,29.7751 C22.9389,29.3201 23.2419,28.9211 23.3209,28.1241 C23.3849,27.4931 23.9469,26.9241 24.2189,26.2981 C24.6759,25.2451 25.1969,24.1961 25.4489,23.0901 C25.5609,22.5981 25.1359,21.9421 24.8289,21.4371 C24.7809,21.3581 23.9479,21.5741 23.6719,21.8491 C22.6869,22.8291 21.5949,22.8781 20.6669,21.8661 C19.8649,20.9931 19.4299,20.1801 19.6789,18.7821 C19.8539,17.7991 19.1049,16.3601 18.3189,15.5771 C17.4719,14.7361 17.1139,13.7421 16.6079,12.7821 C16.5379,12.6471 16.9279,12.0421 17.1199,12.0331 C18.6189,11.9671 20.1219,11.9841 21.6239,12.0041 C21.8289,12.0061 22.0319,12.1631 22.3799,12.3091 C22.1389,12.6121 21.9209,12.8151 21.7939,13.0641 C21.6289,13.3881 21.5359,13.7491 21.4119,14.0941 C21.8509,13.9911 22.3389,13.9731 22.7189,13.7631 C23.1429,13.5291 23.4319,12.9241 23.8519,12.8391 C24.3139,12.7461 24.8549,13.0791 25.3689,13.1911 C25.6739,13.2581 25.9929,13.2571 26.3049,13.2861 C26.2889,12.9601 26.3999,12.4551 26.2349,12.3371 C24.7599,11.2861 25.1039,10.3871 26.2119,9.2571 C26.7819,8.6741 26.1709,8.0971 25.5079,7.8981 C24.5819,7.6201 24.1459,7.3091 25.0289,6.4191 C25.2389,6.2081 25.2419,5.6181 25.1179,5.2851 C24.8069,4.4541 24.8039,3.7731 25.3589,3.0011 C25.6479,2.5991 25.4999,1.9091 25.6659,1.3871 C25.8209,0.9031 26.0459,0.1721 26.3919,0.0711 C27.1809,-0.1579 27.2509,0.5361 27.3029,1.1661 C27.3279,1.4691 27.5709,1.7531 27.7159,2.0461 C27.9449,1.8391 28.1639,1.6201 28.4059,1.4301 C28.6679,1.2231 28.9509,1.0421 29.2239,0.8501 C29.2799,1.1961 29.4039,1.5481 29.3749,1.8861 C29.3179,2.5281 29.1749,3.1611 29.0639,3.7971 C29.0309,3.9861 29.0379,4.2011 28.9449,4.3561 C27.9949,5.9411 27.3719,7.6191 27.4229,9.4991 C27.4249,9.5741 27.4269,9.6741 27.3849,9.7251 C26.0529,11.3021 27.6139,11.8761 28.4219,12.7031 C28.6089,12.8951 28.8899,13.0071 29.0479,13.2171 C29.2369,13.4701 29.3409,13.7881 29.4799,14.0791 C29.2109,14.1901 28.9429,14.3081 28.6689,14.4091 C28.6019,14.4341 28.4939,14.3721 28.4409,14.4061 C27.1669,15.2391 25.9199,15.4291 24.6219,14.4041 C24.4679,14.2821 23.9919,14.5641 23.6669,14.6611 C23.0629,14.8431 22.4699,15.1211 21.8549,15.1821 C21.1679,15.2501 20.8779,15.5111 20.8859,16.1891 C20.8949,17.0021 20.7199,17.8491 20.8959,18.6181 C21.0639,19.3531 21.4239,20.2771 21.9949,20.6141 C22.4989,20.9101 23.4179,20.5441 24.1429,20.4111 C24.7299,20.3031 25.3049,19.9611 25.8779,19.9791 C26.9349,20.0131 27.8199,19.8181 28.6809,19.1371 C29.3659,18.5961 30.2339,18.2801 31.0379,17.9001 C31.7269,17.5751 32.1909,17.1381 32.1379,16.3051 C32.0809,15.3891 32.6979,14.9581 33.3479,14.5151 C34.1269,15.6631 34.0809,17.0661 33.2119,17.8461 C31.8789,19.0431 31.0039,20.5001 30.4259,22.1791 C30.2889,22.5741 29.9149,22.8861 29.6499,23.2371 C29.5259,23.2261 29.4029,23.2151 29.2799,23.2041 C29.1529,22.6841 29.0829,22.1411 28.8799,21.6531 C28.7409,21.3241 28.4179,20.8361 28.1729,20.8341 C27.6489,20.8291 27.1229,21.0931 26.5979,21.2461 C26.7329,21.6871 26.8069,22.1591 27.0219,22.5551 C27.1789,22.8441 27.5229,23.0321 27.7839,23.2631 C28.2709,23.6961 28.3209,24.0921 27.8829,24.6561 C26.8969,25.9211 27.2579,28.3621 28.4279,29.4851 C28.8129,29.8541 28.9779,30.4511 29.2439,30.9461 C28.6939,30.7691 28.0829,30.6911 27.6059,30.3951 C26.5879,29.7621 26.2959,28.7811 26.3699,27.5821 C26.4009,27.0801 25.9969,26.5521 25.7899,26.0351 C25.4959,26.5591 25.1239,27.0551 24.9229,27.6131 C24.5289,28.7061 24.4799,30.0221 23.8259,30.9021 C23.0629,31.9271 21.7059,32.1691 20.3419,32.1041 C18.5629,32.0191 16.7779,32.0911 14.9959,32.1041 C14.9309,32.1041 14.8679,32.1821 14.5869,32.3651 C14.8799,32.7651 15.1049,33.2441 15.4749,33.5451 C16.7759,34.6001 17.4699,35.9691 17.7969,37.5741 C17.8559,37.8701 18.0519,38.1361 18.1479,38.4271 C18.7789,40.3281 19.3529,42.2501 20.0399,44.1311 C20.5809,45.6161 21.0919,47.1581 21.9309,48.4751 C22.4679,49.3181 23.6339,49.7331 24.4159,50.4501 C25.7419,51.6661 26.6589,53.1141 26.4699,55.0341 C26.4559,55.1851 26.4629,55.3551 26.5179,55.4911 C26.9819,56.6341 27.5259,57.7491 27.9069,58.9171 C28.1139,59.5511 28.1769,60.2901 28.0839,60.9511 C27.9519,61.8921 28.2579,62.4401 29.1149,62.7581 C29.4409,62.8791 29.7349,63.0861 30.0629,63.1981 C31.2009,63.5821 32.2929,63.8051 33.2599,62.7241 C33.6569,62.2791 34.2439,61.9871 34.7769,61.6831 C35.5419,61.2461 35.7999,60.8281 35.2899,59.9191 C34.6999,58.8681 34.4079,57.6531 33.9379,56.5291 C33.5829,55.6751 33.0939,54.8741 32.7709,54.0111 C32.4999,53.2831 32.4549,52.4721 32.1739,51.7491 C31.9879,51.2711 31.6499,50.6961 31.2249,50.5001 C30.5029,50.1671 30.2969,49.7771 30.5079,49.0561 C30.7169,48.3431 30.5249,47.8181 29.8609,47.3751 C29.0529,46.8391 28.2799,46.2241 27.6079,45.5301 C27.4059,45.3201 27.4189,44.5881 27.6259,44.3461 C29.0639,42.6601 29.6529,40.4891 28.8319,38.7131 C27.9039,36.7051 28.9819,34.5001 27.6949,32.6831 C27.6349,32.5981 28.0039,32.0091 28.2389,31.9571 C28.7159,31.8521 29.2379,31.9551 29.7409,31.9731 L29.7119,31.9411 Z" id="Fill-3" fill="#231916" mask="url(#mask-2)"></path>
                </g>
                <g id="编组" transform="translate(5.000000, 71.190000)">
                    <mask id="mask-4" fill="white">
                        <use xlink:href="#path-3"></use>
                    </mask>
                    <g id="Clip-6"></g>
                    <path d="M18.0328,47.3148 C18.5198,47.0088 18.9198,46.7568 19.3188,46.5058 C18.8578,46.3128 18.3998,45.9788 17.9338,45.9678 C17.5418,45.9598 17.1398,46.3268 16.7428,46.5268 C17.1258,46.7608 17.5088,46.9948 18.0328,47.3148 M22.9658,12.9028 C22.7268,13.0838 22.2968,13.2488 22.2648,13.4678 C22.2088,13.8738 22.2398,14.5048 22.4958,14.6998 C23.3108,15.3188 24.1968,15.9708 25.1568,16.2198 C25.6048,16.3358 26.3668,15.6288 26.8128,15.1378 C26.9428,14.9948 26.5868,14.0578 26.2638,13.9188 C25.2558,13.4818 24.1568,13.2508 22.9658,12.9028 M11.6368,48.0038 C10.4058,48.1358 9.3618,48.2218 8.3258,48.3698 C7.8768,48.4338 7.4138,48.5618 7.0118,48.7688 C5.8038,49.3898 5.0918,49.1748 4.9728,47.8838 C4.8098,46.1048 4.5938,44.3928 3.6958,42.7908 C3.4498,42.3518 3.6238,41.6508 3.6778,41.0768 C3.7708,40.0678 3.4348,39.5978 2.3418,39.5138 C1.7708,39.4708 1.0728,39.0638 0.7378,38.6008 C0.4608,38.2158 0.3908,37.3318 0.6518,36.9828 C1.1538,36.3078 1.5138,37.0988 1.9238,37.3838 C2.2598,37.6178 2.6768,37.9168 3.0408,37.8958 C4.7638,37.8018 6.4818,37.6058 8.2018,37.4518 C8.4638,37.4288 8.7468,37.3758 8.9878,37.4468 C9.8438,37.6988 11.1008,40.2518 10.7308,41.5178 C10.1388,40.8098 9.5518,40.3218 9.2498,39.6958 C8.8028,38.7678 8.1368,38.6308 7.2498,38.7358 C6.2608,38.8528 5.4128,39.3418 5.3218,40.2848 C5.2568,40.9738 5.6808,41.8018 6.1148,42.4048 C6.2958,42.6578 7.0748,42.5578 7.5648,42.4908 C8.2768,42.3938 8.9658,42.1228 9.6778,42.0418 C10.0038,42.0048 10.5478,42.1568 10.6548,42.3828 C10.7718,42.6308 10.5118,43.0678 10.3938,43.4158 C10.3188,43.6408 10.2048,43.8528 10.0748,44.1448 C11.7668,43.8668 12.2118,43.0578 11.4868,41.5858 C11.9188,41.4338 12.3488,41.1428 12.7528,41.1768 C13.1928,41.2128 13.7368,41.4568 13.9828,41.7938 C14.1078,41.9658 13.7108,42.5618 13.4888,42.9298 C13.2688,43.2948 12.9728,43.6148 12.7098,43.9548 C13.1548,44.0958 13.5948,44.3308 14.0478,44.3588 C15.0518,44.4218 16.0788,44.2638 17.0658,44.4068 C19.0378,44.6918 19.2998,43.3968 18.7128,41.7788 C18.0838,40.0438 17.6598,38.4478 18.7028,36.7308 C19.0768,36.1168 18.6468,35.6988 17.9918,35.6108 C17.6248,35.5618 17.2458,35.6018 16.4718,35.6018 C17.9338,33.6718 16.7898,31.4428 17.7168,29.5998 C17.8968,29.6118 18.0778,29.6238 18.2598,29.6348 C18.2598,30.5198 18.2718,31.4038 18.2548,32.2878 C18.2408,32.9598 17.9278,33.8978 18.9838,33.8898 C19.9288,33.8838 20.2978,33.0108 20.3478,32.1478 C20.4278,30.8338 20.4438,29.5148 20.4498,28.1978 C20.4708,23.3568 20.4898,18.5158 20.4678,13.6758 C20.4658,13.2908 20.1388,12.9078 19.9648,12.5228 C19.8038,12.5628 19.6448,12.6028 19.4848,12.6438 C19.4848,13.5808 19.4358,14.5198 19.4968,15.4538 C19.5828,16.7758 19.6948,18.0748 19.0178,19.3118 C18.8478,19.6218 18.8618,20.0728 18.9018,20.4478 C19.1108,22.3938 18.7658,24.1948 17.6398,25.8308 C17.5048,26.0278 17.5338,26.3478 17.5138,26.6138 C17.4928,26.9218 17.5938,27.2718 17.4808,27.5358 C16.8508,29.0168 16.2168,30.5028 15.4738,31.9288 C15.3258,32.2128 14.7128,32.3338 14.2988,32.3728 C14.0578,32.3948 13.7898,32.1038 13.5328,31.9538 C13.7438,31.6188 13.9388,31.2728 14.1698,30.9508 C14.8998,29.9278 15.8328,28.9968 16.3108,27.8698 C16.6048,27.1758 16.2108,26.1918 16.1198,25.2848 C16.3778,25.3648 16.7448,25.4798 17.3158,25.6578 C17.3158,25.1278 17.2988,24.7278 17.3208,24.3298 C17.3458,23.9118 17.2568,23.3648 17.4818,23.1018 C18.4108,22.0238 18.1668,20.7798 18.1578,19.5558 C18.1518,18.6668 18.1708,17.7768 18.1488,16.8868 C18.1408,16.5478 18.1718,16.1058 17.9808,15.8898 C16.9368,14.7108 17.3908,13.4348 17.5818,12.1398 C17.6388,11.7468 17.4718,11.0078 17.2558,10.9438 C16.5018,10.7198 16.6558,11.4298 16.4838,11.8768 C15.9338,13.3118 15.3338,14.7308 14.6748,16.1188 C14.1488,17.2238 13.4908,18.2658 12.9278,19.3538 C12.2548,20.6528 11.5808,21.9538 10.9808,23.2878 C10.6078,24.1198 10.3728,25.0128 10.0728,25.8778 C9.9848,26.1318 9.9628,26.4668 9.7848,26.6208 C8.2798,27.9198 7.8748,29.8318 6.9998,31.4828 C6.4318,32.5528 5.7958,33.5968 5.0798,34.5718 C4.8908,34.8288 4.2918,34.7838 3.8818,34.8768 C3.9298,34.5408 3.8548,34.0718 4.0498,33.8888 C4.7818,33.1998 5.3578,32.4898 5.3238,31.4078 C5.3168,31.1768 5.5478,30.9298 5.6918,30.7078 C5.7748,30.5798 5.9798,30.4998 6.0058,30.3728 C6.4248,28.3378 8.4398,26.9988 8.4328,24.7768 C8.4318,24.5168 8.4688,24.1588 8.6348,24.0108 C10.5848,22.2708 10.7668,19.6388 11.9478,17.5138 C13.0098,15.6038 14.0158,13.6628 15.0398,11.7308 C15.1248,11.5688 15.1458,11.3738 15.2278,11.0858 C14.7988,11.0448 14.4468,11.0108 13.8838,10.9578 C13.9738,10.4608 13.9898,9.9728 14.1588,9.5458 C14.4278,8.8688 14.7578,8.2048 15.1448,7.5878 C15.3238,7.3028 15.7018,7.1418 15.9888,6.9248 C16.1378,7.2098 16.4178,7.4958 16.4148,7.7788 C16.4048,8.7408 16.7618,9.1338 17.7578,8.9818 C18.0468,8.9368 18.3738,9.2378 18.6978,9.2938 C18.9848,9.3448 19.2918,9.2758 19.5908,9.2588 C19.4638,8.9418 19.3848,8.5898 19.1918,8.3188 C19.0778,8.1578 18.7558,8.1618 18.5778,8.0248 C17.9398,7.5358 17.9858,6.7308 18.6588,6.3098 C18.7578,6.2498 18.8678,6.2068 18.9758,6.1658 C19.5118,5.9618 20.0498,5.7618 20.5858,5.5598 C20.8238,6.2158 21.1928,6.8578 21.2708,7.5318 C21.3818,8.4868 21.2608,9.4668 21.2688,10.4358 C21.2808,11.7838 22.0448,12.1768 23.2848,11.6758 C23.7788,11.4768 24.4568,11.6218 25.0228,11.7428 C25.4608,11.8358 25.8338,12.2148 26.2708,12.3308 C28.0528,12.7998 28.6238,12.2788 28.5948,10.4508 C28.5848,9.8868 28.8898,9.3188 29.0538,8.7518 C29.1778,8.3288 29.3998,7.9098 29.4128,7.4828 C29.4518,6.1718 28.9598,4.8458 30.0878,3.6388 C30.5358,3.1608 30.4158,2.1808 30.6578,1.4638 C30.7338,1.2408 31.1498,1.1318 31.4108,0.9718 C31.4118,1.2378 31.4388,1.5068 31.4088,1.7688 C31.2818,2.8668 31.1528,3.9638 30.9938,5.0568 C30.8568,6.0018 30.6798,6.9398 30.5148,7.8798 C30.4958,7.9928 30.4148,8.0948 30.3988,8.2078 C30.0788,10.5378 29.5618,12.8628 29.5058,15.1998 C29.4478,17.5358 28.5608,19.3078 26.8938,20.7828 C25.9928,21.5808 24.2518,21.3378 23.4328,20.4238 C23.1738,20.1338 22.7878,19.9578 22.4608,19.7288 C22.3248,20.1418 22.1098,20.5468 22.0698,20.9688 C21.9348,22.3788 21.7958,23.7938 21.7918,25.2078 C21.7888,26.1578 22.1368,27.1138 22.0938,28.0558 C22.0558,28.8558 21.7428,29.6638 21.4408,30.4238 C21.0718,31.3528 20.9908,32.1918 21.6428,33.0328 C22.4728,34.1018 22.3128,34.3718 21.1468,34.9698 C19.9628,35.5788 19.6768,36.8828 19.7108,38.0328 C19.7528,39.4808 19.3738,40.9978 20.3328,42.4088 C20.6898,42.9338 20.4158,43.9088 20.3808,44.6768 C20.3498,45.3408 20.5558,45.7468 21.2278,46.0018 C21.7538,46.1998 22.1938,46.6198 22.6768,46.9348 C23.4668,47.4498 23.5128,48.0938 23.1948,48.9448 C22.8768,49.7938 22.3488,50.0118 21.5078,50.0002627 C18.7558,49.9578 16.0018,49.9738 13.2488,49.9698 C11.7758,49.9668 11.7518,49.9418 11.7398,48.4048 C11.7388,48.2918 11.7138,48.1738 11.6778,48.0658 C11.6548,47.9978 11.5918,47.9418 11.6368,48.0038" id="Fill-5" fill="#231916" mask="url(#mask-4)"></path>
                </g>
                <path d="M45.6627,83.3456 C48.2917,84.2096 48.2917,84.2096 48.7827,82.6756 C49.9747,83.8656 52.0047,83.1536 52.9507,84.7876 C53.2167,85.2466 53.6607,85.9346 53.4987,86.2356 C53.2087,86.7746 52.5667,87.3456 51.9877,87.4526 C51.2147,87.5976 50.5997,87.8756 49.9037,88.1996 C49.2297,88.5126 48.2267,88.1756 47.3827,88.0376 C46.9817,87.9736 46.5997,87.5286 46.2357,87.5596 C44.3477,87.7226 43.0107,86.9306 41.9857,85.4086 C41.8507,85.2086 41.4527,85.1456 41.1637,85.0976 C39.9837,84.9066 39.4987,84.0266 40.1957,83.0266 C40.9627,81.9256 40.9447,80.9776 40.1307,79.9596 C39.9767,79.7666 39.8207,79.3796 39.9097,79.2196 C40.6487,77.8986 39.9877,76.5746 39.9787,75.2586 C39.9707,74.1206 40.2637,72.9366 39.2667,71.9826 C39.1207,71.8426 39.3447,71.3186 39.3977,70.9716 C39.7257,71.0876 40.2497,71.1166 40.3477,71.3346 C40.8007,72.3506 41.1547,73.4126 41.5057,74.4706 C41.7337,75.1596 41.9237,75.8656 42.0727,76.5746 C42.1227,76.8096 41.9917,77.0796 41.9457,77.3346 C41.8267,77.9986 41.5027,78.7076 41.6367,79.3176 C41.8577,80.3336 42.6617,81.2156 42.3357,82.3716 C42.9977,82.4746 43.8537,82.8926 44.2877,82.6246 C45.8907,81.6356 47.3747,80.4476 48.8427,79.2586 C49.0517,79.0886 49.0627,78.4366 48.9187,78.1206 C48.5867,77.3966 48.6647,76.8506 49.1007,76.1816 C49.3327,75.8256 49.2357,75.2056 49.1727,74.7196 C49.0807,74.0216 48.7987,73.3436 48.7507,72.6466 C48.6527,71.2316 48.5017,69.8786 48.0857,68.4746 C47.6577,67.0326 48.0347,65.3526 48.0587,63.7766 C48.0657,63.2736 48.0597,62.7696 48.0767,62.2666 C48.0887,61.9136 48.0297,61.5056 48.1887,61.2306 C48.2857,61.0646 48.8367,60.9676 49.0127,61.0876 C49.2817,61.2726 49.5637,61.6706 49.5657,61.9796 C49.5817,64.3806 49.5197,66.7816 49.5127,69.1826 C49.5117,69.5866 49.5117,70.1386 49.7527,70.3696 C50.4957,71.0836 50.4847,71.9096 50.4677,72.8276 C50.4247,75.1146 50.4337,77.4026 50.4747,79.6886 C50.4937,80.7006 50.1777,81.2666 49.0717,81.1326 C48.9577,81.1186 48.8087,81.0956 48.7277,81.1526 C47.7637,81.8296 46.8087,82.5226 45.6627,83.3456" id="Fill-7" fill="#231916"></path>
                <path d="M82.9625,68.6406 C82.6355,68.7696 82.3045,69.0186 81.9825,69.0066 C80.7205,68.9586 79.4555,68.8716 78.2025,68.7136 C77.4285,68.6166 76.7575,69.2406 76.8225,70.1006 C76.8905,70.9856 77.0205,71.8856 76.9185,72.7546 C76.8725,73.1536 76.3365,73.4946 76.0225,73.8616 C75.7805,73.4436 75.3845,73.0446 75.3305,72.6046 C75.2215,71.7126 75.2985,70.7986 75.2985,69.7896 C74.3725,69.9886 74.4935,70.5516 74.4325,71.1306 C74.3565,71.8636 74.1885,72.6366 73.8455,73.2776 C73.4935,73.9316 72.9195,73.8656 72.4655,73.2306 C71.8445,72.3636 71.8445,70.2036 72.3255,69.2276 C73.0335,67.7936 73.6415,66.3076 74.2345,64.8216 C74.3095,64.6366 74.0155,64.3216 73.9325,64.0546 C73.8235,63.7106 73.5945,63.2766 73.7145,63.0216 C73.8565,62.7216 74.3165,62.5726 74.6395,62.3576 C74.7085,62.6596 74.8125,62.9596 74.8365,63.2656 C74.8535,63.4846 74.7655,63.7116 74.6885,64.1256 C75.1275,64.0846 75.4835,64.0896 75.8195,64.0126 C76.6245,63.8286 77.4285,63.6336 78.2155,63.3866 C78.4715,63.3066 78.6735,63.0546 78.9005,62.8816 C78.7295,62.7006 78.5845,62.4046 78.3835,62.3586 C77.3885,62.1316 76.3625,61.7566 75.3775,61.8296 C73.2945,61.9836 71.9555,60.9016 70.7625,59.4716 C70.6665,59.3566 70.9075,58.7226 71.0185,58.7146 C71.9455,58.6526 72.9005,58.2816 73.7635,59.1026 C74.0875,59.4116 74.7395,59.5276 75.2235,59.4906 C77.5045,59.3126 79.6525,60.4836 80.5805,62.5046 C80.8855,63.1686 80.1515,64.2296 79.2765,64.3306 C78.8985,64.3746 78.5045,64.2706 78.1205,64.2926 C77.3185,64.3386 77.0665,64.4596 77.3685,65.4966 C78.0415,67.8146 79.6695,68.0796 81.6225,68.0416 C82.0545,68.0346 82.4885,68.1566 82.9225,68.2186 C82.9365,68.3596 82.9495,68.4996 82.9625,68.6406" id="Fill-9" fill="#231916"></path>
                <path d="M6.3981,98.7275 C6.3191,98.1025 6.2041,97.7955 6.2571,97.5225 C6.5231,96.1805 6.7361,94.8145 7.1711,93.5255 C7.3871,92.8855 7.2961,92.4405 7.1941,91.8215 C6.9471,90.3335 6.7621,88.8395 7.3881,87.2905 C7.7351,86.4335 7.5251,85.2555 7.2981,84.2855 C6.9501,82.7895 6.6621,81.3765 7.5211,79.9485 C7.7391,79.5865 7.6821,79.0665 7.7841,78.6265 C7.9011,78.1145 7.9681,77.5605 8.2211,77.1185 C8.3871,76.8305 8.8451,76.7085 9.1721,76.5135 C9.4001,76.9595 9.6321,77.4045 9.8491,77.8565 C9.8731,77.9055 9.8171,78.0085 9.7751,78.0705 C7.7571,80.9805 8.7821,84.2975 8.5901,87.4335 C8.4191,90.2485 8.6211,93.0865 8.6321,95.9145 C8.6381,97.3025 7.5231,97.8155 6.3981,98.7275" id="Fill-11" fill="#231916"></path>
                <path d="M7.2252,99.9589 C6.9862,100.5229 6.8092,100.9859 6.5982,101.4339 C5.9642,102.7739 5.3522,104.1279 4.6582,105.4369 C4.4162,105.8929 3.9962,106.2759 3.5912,106.6149 C3.0412,107.0759 2.4512,107.5009 1.8292,107.8589 C1.6022,107.9899 1.2382,107.8879 0.9362,107.8919 C1.0482,107.6069 1.0852,107.2439 1.2872,107.0539 C2.2872,106.1049 3.3442,105.2169 4.3452,104.2679 C4.5422,104.0799 4.6072,103.7289 4.6802,103.4389 C4.9812,102.2589 5.2052,101.0539 5.5852,99.8989 C5.6972,99.5609 6.2272,99.3599 6.5652,99.0959 C6.7802,99.3769 6.9952,99.6569 7.2252,99.9589" id="Fill-13" fill="#231916"></path>
                <path d="M93.7409,80.163 C93.7529,80.126 93.7529,80.072 93.7779,80.055 C96.0409,78.51 94.4619,76.881 93.8759,75.282 C93.6109,74.559 93.2349,73.871 93.0459,73.133 C92.9729,72.853 93.2829,72.476 93.4179,72.144 C93.6789,72.375 94.0929,72.559 94.1779,72.844 C94.6099,74.275 95.7369,75.513 95.3819,77.181 C95.3239,77.452 95.6849,77.788 95.7549,78.114 C95.8759,78.683 96.1389,79.379 95.9219,79.809 C95.7619,80.126 94.9349,80.129 94.3979,80.222 C94.1809,80.26 93.9419,80.166 93.7129,80.131 C93.7119,80.131 93.7409,80.163 93.7409,80.163" id="Fill-15" fill="#231916"></path>
                <path d="M91.3229,97.413 C90.5249,96.838 89.6919,96.354 89.0099,95.712 C88.4319,95.165 87.9709,94.467 87.5699,93.771 C87.3749,93.434 87.4339,92.948 87.3789,92.53 C87.8329,92.532 88.3299,92.423 88.7289,92.572 C89.0419,92.689 89.2269,93.134 89.4789,93.424 C90.2509,94.311 91.0319,95.191 91.7989,96.084 C91.9849,96.302 92.1269,96.558 92.2899,96.797 C92.0179,96.97 91.7479,97.142 91.3229,97.413" id="Fill-17" fill="#231916"></path>
                <path d="M74.8913,37.6928 C75.4503,38.0278 76.0583,38.3038 76.5563,38.7128 C77.2163,39.2548 77.0493,39.9328 76.2333,40.1748 C75.4333,40.4108 74.6253,40.3678 74.2243,39.5398 C74.0673,39.2138 74.2263,38.6588 74.3953,38.2758 C74.5523,37.9188 74.9123,37.6498 75.1833,37.3418 C75.0853,37.4588 74.9883,37.5758 74.8913,37.6928" id="Fill-19" fill="#231916"></path>
                <g id="编组" transform="translate(0.000000, 108.190000)">
                    <mask id="mask-6" fill="white">
                        <use xlink:href="#path-5"></use>
                    </mask>
                    <g id="Clip-22"></g>
                    <path d="M4.5162,0.1361 C3.5072,1.0431 2.7512,1.8341 1.8712,2.4471 C1.6102,2.6281 0.9292,2.4171 0.5712,2.1861 C0.2802,1.9991 0.1832,1.5111 -0.0008,1.1561 C0.3792,1.0191 0.7532,0.8591 1.1412,0.7511 C1.9282,0.5321 2.7202,0.3241 3.5172,0.1451 C3.7672,0.0891 4.0402,0.1361 4.5162,0.1361" id="Fill-21" fill="#231916" mask="url(#mask-6)"></path>
                </g>
                <path d="M29.4703,80.4023 C29.2413,80.2353 28.8783,80.0933 28.8743,79.9413 C28.8663,79.6893 29.0233,79.3253 29.2283,79.1943 C29.9463,78.7383 30.6973,78.3243 31.4723,77.9773 C31.7213,77.8663 32.0873,78.0153 32.4003,78.0463 C32.3323,78.3673 32.3723,78.8613 32.1813,78.9793 C31.3353,79.5023 30.4233,79.9163 29.4703,80.4023" id="Fill-23" fill="#231916"></path>
                <path d="M79.1998,48.1826 C79.0898,46.4516 80.5588,44.5716 81.9678,44.8556 C80.8108,45.8376 81.2128,47.8376 79.1998,48.1826" id="Fill-25" fill="#231916"></path>
                <path d="M44.4215,69.2665 C43.5215,69.8595 42.8855,70.3395 42.1825,70.6815 C42.0625,70.7405 41.6535,70.2055 41.3785,69.9465 C42.0345,69.4275 42.6725,68.8805 43.3695,68.4255 C43.4545,68.3705 43.8615,68.8105 44.4215,69.2665" id="Fill-27" fill="#231916"></path>
                <path d="M16.1412,108.5038 C15.8772,108.2958 15.6322,108.1028 15.3872,107.9088 C15.6282,107.7298 15.8502,107.5148 16.1132,107.3768 C16.6512,107.0948 17.2092,106.8498 17.7622,106.5968 C18.0832,106.4498 18.4022,106.2718 18.7402,106.2068 C18.8312,106.1898 19.1412,106.6058 19.0952,106.6988 C18.9462,107.0108 18.7352,107.3708 18.4472,107.5218 C17.7412,107.8918 16.9802,108.1548 16.1412,108.5038" id="Fill-29" fill="#231916"></path>
                <path d="M84.6012,75.1025 C84.0002,74.5855 83.5572,74.2055 83.1152,73.8245 C83.3392,73.6315 83.6342,73.2345 83.7792,73.2825 C84.3952,73.4895 84.9682,73.8295 85.5572,74.1195 C85.3032,74.3795 85.0502,74.6415 84.6012,75.1025" id="Fill-31" fill="#231916"></path>
                <path d="M74.6608,33.9369 C74.2168,34.2619 73.9718,34.5809 73.7238,34.5839 C73.4658,34.5869 73.2048,34.2849 72.9448,34.1149 C73.1858,33.8659 73.3898,33.5039 73.6818,33.4069 C73.8708,33.3439 74.1888,33.6659 74.6608,33.9369" id="Fill-33" fill="#231916"></path>
                <path d="M33.6012,3.3076 C34.6172,3.4676 35.4832,3.3546 36.0712,2.2986 C36.2092,2.0476 36.8502,2.0756 37.2602,1.9746 C37.2682,2.3716 37.3362,2.7786 37.2702,3.1626 C37.1432,3.8936 36.9662,4.6196 36.7602,5.3326 C36.4562,6.3876 36.1662,7.4536 35.7372,8.4586 C35.6412,8.6836 34.9762,8.8036 34.6082,8.7466 C33.8722,8.6316 33.1722,8.2506 32.4372,8.1776 C31.0022,8.0356 30.0812,6.1686 30.6732,4.8696 C31.2952,3.5036 32.1902,3.0276 33.6012,3.3076" id="Fill-35" fill="#231916"></path>
                <path d="M37.527,12.4194 C37.523,12.4664 37.567,12.8054 37.448,13.0704 C37.322,13.3514 37.064,13.7264 36.823,13.7594 C36.588,13.7924 36.233,13.4934 36.052,13.2504 C35.806,12.9174 35.626,12.5144 35.508,12.1144 C35.382,11.6844 35.156,10.9864 35.34,10.8244 C35.684,10.5224 36.346,10.3394 36.778,10.4604 C37.106,10.5514 37.307,11.1754 37.515,11.5884 C37.592,11.7414 37.527,11.9664 37.527,12.4194" id="Fill-37" fill="#231916"></path>
                <path d="M36.0446,18.0912 C35.6966,18.3502 35.1416,19.0652 34.7606,18.9832 C33.9936,18.8162 32.7186,18.8602 32.7336,17.6772 C32.7526,16.3052 33.9696,16.9002 34.7116,16.8202 C35.3746,16.7502 35.9486,16.9502 36.0446,18.0912" id="Fill-39" fill="#231916"></path>
                <path d="M31.9869,12.5112 C31.9089,12.6772 31.7099,13.1002 31.5109,13.5242 C31.1669,13.2692 30.8119,13.0252 30.4809,12.7522 C30.3359,12.6332 30.1889,12.4722 30.1279,12.3012 C29.9519,11.8092 29.6409,11.2632 29.7399,10.8172 C29.7939,10.5732 30.6739,10.2482 30.9889,10.3892 C31.4019,10.5742 31.6469,11.1702 31.9189,11.6162 C32.0079,11.7622 31.9549,11.9942 31.9869,12.5112" id="Fill-41" fill="#231916"></path>
                <path d="M35.2262,15.766 L33.1052,15.668 C33.1112,15.52 33.1172,15.372 33.1222,15.225 L35.2422,15.225 C35.2362,15.405 35.2312,15.586 35.2262,15.766" id="Fill-43" fill="#231916"></path>
                <path d="M77.8151,97.8154 C77.1721,99.0254 76.5661,99.7464 75.4681,99.6604 C75.1221,99.6324 74.5221,99.1294 74.5471,98.8994 C74.5891,98.5144 74.9861,97.9464 75.3311,97.8644 C76.0131,97.7004 76.7631,97.8154 77.8151,97.8154" id="Fill-45" fill="#231916"></path>
            </g>
        </g>
    </g>
</svg>