<?xml version="1.0" encoding="UTF-8"?>
<svg width="132px" height="167px" viewBox="0 0 132 167" version="1.1" xmlns="http://www.w3.org/2000/svg" xmlns:xlink="http://www.w3.org/1999/xlink">
    <!-- Generator: Sketch 60 (88103) - https://sketch.com -->
    <title>figure46</title>
    <desc>Created with Sketch.</desc>
    <defs>
        <polygon id="path-1" points="0.828155583 0.723614759 61.5441398 0.723614759 61.5441398 109 0.828155583 109"></polygon>
        <polygon id="path-3" points="0.363322898 0.494 23.3147591 0.494 23.3147591 39.9616866 0.363322898 39.9616866"></polygon>
        <polygon id="path-5" points="0.0103 0.186104191 9.604 0.186104191 9.604 6.25750114 0.0103 6.25750114"></polygon>
        <polygon id="path-7" points="0 0.871543507 1.83411855 0.871543507 1.83411855 3.0977 0 3.0977"></polygon>
    </defs>
    <g id="页面-1" stroke="none" stroke-width="1" fill="none" fill-rule="evenodd">
        <g id="29-44" transform="translate(-572.000000, -518.000000)">
            <g id="figure46" transform="translate(572.000000, 517.000000)">
                <g id="编组" transform="translate(30.000000, 58.506000)">
                    <mask id="mask-2" fill="white">
                        <use xlink:href="#path-1"></use>
                    </mask>
                    <g id="Clip-2"></g>
                    <path d="M11.0835,94.2156 C10.7685,94.6496 10.5765,94.9136 10.3845,95.1776 C10.6625,95.3656 10.9285,95.6706 11.2225,95.7006 C11.4135,95.7206 11.8495,95.2916 11.8155,95.1476 C11.7495,94.8616 11.4345,94.6326 11.0835,94.2156 M11.5615,98.3196 C11.0855,97.9606 10.7495,97.5336 10.5355,97.5876 C10.2305,97.6646 9.8385,98.0806 9.8155,98.3776 C9.7995,98.6086 10.2685,99.0426 10.5595,99.0786 C10.8015,99.1096 11.0985,98.6916 11.5615,98.3196 M4.6955,69.6726 C5.1565,70.1116 5.4465,70.3866 5.7365,70.6616 C6.0065,70.2966 6.4565,69.9456 6.4875,69.5616 C6.5115,69.2586 6.0185,68.9146 5.7545,68.5886 C5.4525,68.8986 5.1505,69.2066 4.6955,69.6726 M7.6955,99.0406 C8.0375,99.4686 8.2615,99.7486 8.4845,100.0276 C8.8115,99.6236 9.2335,99.2566 9.4155,98.7946 C9.4855,98.6136 9.0155,98.2216 8.7915,97.9256 C8.4615,98.2616 8.1315,98.5976 7.6955,99.0406 M4.8115,97.4286 C4.0595,97.0076 3.6335,96.7006 3.1585,96.5526 C3.0375,96.5146 2.5395,97.1006 2.5915,97.1956 C2.8275,97.6326 3.1465,98.0736 3.5515,98.3376 C3.6695,98.4136 4.1675,97.9046 4.8115,97.4286 M35.8145,104.8046 C35.2225,105.1576 34.3935,105.3856 34.3345,105.7406 C34.1895,106.6156 35.0485,106.6046 35.6875,106.7656 C36.2295,106.9026 36.7165,107.2736 37.2615,107.3906 C37.6355,107.4706 38.2485,107.4266 38.4185,107.1936 C38.5915,106.9546 38.4965,106.2076 38.2685,106.0506 C37.5545,105.5616 36.7215,105.2456 35.8145,104.8046 M34.2545,88.4446 C34.2355,88.6136 34.2335,88.8216 34.1885,89.0216 C34.0185,89.7986 34.3095,90.3036 35.0645,90.5366 C35.9995,90.8256 36.7545,90.6026 37.3225,89.7706 C37.8435,89.0096 37.2725,88.6946 36.8045,88.2716 C36.5095,88.0056 36.3695,87.5716 36.0825,87.2926 C35.7115,86.9316 35.2645,86.6486 34.8495,86.3306 C34.6375,86.8186 34.4015,87.2966 34.2255,87.7966 C34.1615,87.9746 34.2385,88.2026 34.2545,88.4446 M7.6525,52.6516 L7.0815,52.6746 C7.0275,52.2286 6.9095,51.7776 6.9315,51.3346 C7.0265,49.4046 7.2625,47.4776 7.2615,45.5486 C7.2605,42.8146 7.1195,40.0786 6.9735,37.3476 C6.9525,36.9586 6.5625,36.5906 6.3445,36.2126 C5.9865,36.6016 5.3685,36.9606 5.3215,37.3846 C5.1835,38.6226 5.2665,39.8866 5.2725,41.1396 C5.2955,45.3596 5.3715,49.5796 5.3275,53.7986 C5.3025,56.2076 5.3445,58.5576 6.7045,60.6796 C6.8175,60.8566 6.7405,61.2646 6.6065,61.4696 C6.0175,62.3696 5.3715,63.2356 4.7495,64.1146 C3.7065,65.5876 4.5545,67.3616 6.3545,67.5766 C7.0365,67.6576 7.7135,67.8786 8.3595,68.1226 C9.2025,68.4416 9.2825,69.0356 8.6915,69.6646 C8.0705,70.3266 7.2775,70.8536 6.7675,71.5826 C6.3935,72.1186 6.0055,73.0436 6.2225,73.5246 C7.0935,75.4546 7.6505,77.5966 9.4585,79.0096 C9.7855,79.2656 9.9645,79.9366 9.9195,80.3866 C9.8605,80.9766 9.5215,81.5416 9.2855,82.1116 C8.7275,83.4616 8.7245,83.4536 10.2395,83.7076 C10.4775,83.7466 10.7685,83.8056 10.9195,83.9636 C11.9375,85.0346 12.9135,84.7146 14.0415,84.0886 C14.5705,83.7946 15.5075,83.6536 15.9725,83.9296 C17.6505,84.9236 17.6985,85.0326 19.4385,83.8606 C19.9245,83.5316 20.5445,82.9766 20.5735,82.4926 C20.6245,81.6196 20.0995,80.9306 19.1765,80.5126 C17.3595,79.6886 15.9925,78.3496 15.2605,76.4516 C14.9075,75.5376 14.7225,74.5456 14.2715,73.6876 C13.5895,72.3826 12.7855,71.1336 11.9505,69.9186 C11.2835,68.9466 11.0165,67.9566 11.1345,66.7746 C11.2465,65.6426 11.3965,64.4456 10.4125,63.5136 C10.2605,63.3676 10.2155,63.0536 10.2115,62.8166 C10.1885,61.0026 10.2445,59.1866 10.1625,57.3766 C10.1005,55.9946 10.7145,54.4616 9.3765,53.2956 C9.2345,53.1716 9.3535,52.7506 9.3495,52.4686 C9.3255,50.9016 9.3865,49.3246 9.2285,47.7716 C9.1805,47.3056 8.5225,46.9016 8.1455,46.4686 C7.9805,46.9466 7.6935,47.4196 7.6755,47.9026 C7.6145,49.4846 7.6525,51.0686 7.6525,52.6516 M7.3835,25.3976 C6.1615,25.2196 6.0915,26.0146 6.1045,27.0726 C6.1295,29.2216 5.9945,31.3706 5.99549447,33.5196 C5.99549447,33.8666 6.3545,34.2146 6.5485,34.5626 C6.7155,34.2356 7.0215,33.9106 7.0255,33.5806 C7.0505,31.9696 6.9665,30.3566 6.9905,28.7446 C6.9965,28.3946 7.2875,28.0476 7.4465,27.6986 C7.7875,27.9536 8.1555,28.1806 8.4575,28.4756 C8.5795,28.5956 8.5935,28.8636 8.5955,29.0656 C8.6045,30.5106 8.5585,31.9576 8.6065,33.4016 C8.6505,34.7466 8.7625,36.0916 8.8955,37.4316 C8.9835,38.3026 9.2315,39.1596 9.2895,40.0316 C9.3675,41.2186 8.8835,42.7266 9.4465,43.5346 C10.4275,44.9446 10.2885,46.3066 10.2795,47.7726 C10.2715,48.9636 9.8785,50.4436 10.4325,51.2836 C11.3925,52.7416 11.1615,54.1846 11.2635,55.6746 C11.3925,57.5656 10.6665,59.5756 12.0365,61.3026 C12.1275,61.4156 12.1235,61.6206 12.1265,61.7836 C12.1595,63.2306 12.2885,64.6836 12.1835,66.1206 C12.0555,67.8846 12.6995,69.3296 13.8575,70.5016 C15.1815,71.8396 16.0255,73.3286 16.3615,75.1866 C16.5035,75.9726 16.9175,76.7516 17.3655,77.4306 C17.9255,78.2776 18.6865,78.8996 19.8485,78.7536 C21.1825,78.5866 22.5305,78.5296 23.8605,78.3396 C24.6415,78.2286 25.3915,77.9166 26.1675,77.7576 C26.9465,77.5966 27.6745,77.8796 27.8545,78.6406 C27.9665,79.1156 27.7195,79.7886 27.4195,80.2266 C26.7795,81.1626 26.9165,82.1346 27.4165,82.9146 C27.7065,83.3676 28.5495,83.5736 29.1795,83.6826 C30.9545,83.9866 32.7515,84.1656 34.5345,84.4336 C35.2595,84.5426 36.0425,84.6156 36.6685,84.9506 C37.6405,85.4706 38.5515,86.1386 39.3955,86.8536 C41.3565,88.5116 43.5575,88.9836 46.1215,88.9747257 C48.7265,88.9656 50.5965,87.6356 52.6665,86.5056 C54.0055,85.7756 55.4435,85.2256 56.8445,84.6096 C57.3415,84.3916 57.8565,84.2156 58.3635,84.0206 C58.0845,83.5096 57.8645,82.9526 57.5165,82.4946 C55.9905,80.4906 53.7975,78.8696 53.9355,75.9386 C53.9525,75.5736 53.6125,75.1946 53.4465,74.8186 C52.7555,73.2586 52.0625,71.7006 51.3865,70.1336 C51.3095,69.9546 51.3535,69.7266 51.3225,69.5246 C51.0465,67.6416 50.7695,65.7586 50.4815,63.8766 C50.4645,63.7616 50.3545,63.6626 50.3155,63.5466 C49.8625,62.1626 49.4295,60.7716 48.9555,59.3936 C48.8115,58.9756 48.5565,58.5956 48.3525,58.1976 C48.1915,58.6456 47.9005,59.0926 47.8965,59.5416 C47.8805,61.2356 47.9405,62.9306 48.0145,64.6226 C48.0285,64.9686 48.2245,65.3066 48.3295,65.6496 C48.5395,66.3266 48.8385,66.9926 48.9315,67.6866 C49.0995,68.9456 49.0975,70.2276 49.2575,71.4866 C49.3525,72.2336 49.6145,72.9586 49.8135,73.6906 C49.9315,74.1206 50.0865,74.5406 50.1965,74.9736 C50.3545,75.5996 50.4775,76.2356 50.6335,76.8616 C50.7885,77.4816 50.9375,78.1036 51.1415,78.7076 C51.5565,79.9446 52.0405,81.1606 52.4095,82.4106 C52.4885,82.6776 52.2275,83.3066 52.0655,83.3256 C51.7315,83.3686 51.3385,83.1526 51.0125,82.9676 C50.8605,82.8816 50.7795,82.6296 50.7155,82.4366 C49.9705,80.2136 48.6795,78.1346 48.9555,75.6426 C48.9855,75.3736 48.9285,75.0056 48.7605,74.8216 C47.8785,73.8596 48.0865,72.6816 47.9565,71.5386 C47.7295,69.5596 47.3355,67.6006 47.0095,65.6326 C47.0025,65.5926 46.9835,65.5536 46.9645,65.5176 C45.9954945,63.6746 46.6425,61.6446 46.2955,59.7286 C46.2695,59.5836 46.4195,59.4146 46.4225,59.2566 C46.4325,58.6476 46.4125,58.0376 46.4075,57.4296 C46.3985,56.3346 46.0295,55.0626 46.4605,54.1826 C47.3565,52.3516 47.5065,50.7176 46.5005,48.9466 C46.3085,48.6106 46.2725,48.1476 46.2735,47.7426 C46.2875,43.2756 46.3385,38.8066 46.3345,34.3376 C46.3345,33.6986 46.1065,33.0596 45.9675,32.4236 C45.8115,31.7146 45.5785,31.0186 45.4815,30.3026 C45.3615,29.4106 45.5445,28.4336 45.2485,27.6186 C44.5645,25.7446 43.6015,23.9736 42.8795,22.1106 C42.0285,19.9156 40.4245,18.3306 38.8235,16.7276 C38.6465,16.5506 38.2695,16.3906 38.0605,16.4576 C37.0085,16.7966 35.9635,17.1716 34.9485,17.6106 C32.6595,18.5996 30.4375,19.7186 27.8125,19.6026 C25.6705,19.5066 23.5105,19.7456 21.3715,19.6106 C19.0815,19.4646 16.6505,20.2536 14.5245,18.7446 C14.4115,18.6636 14.1975,18.7396 14.0385,18.7066 C13.2635,18.5416 12.4975,18.3086 11.7145,18.2146 C11.2685,18.1606 10.4005,18.2986 10.3945,18.3986 C10.3185,19.4476 10.0285,20.7106 10.4935,21.5106 C11.0365,22.4456 11.3455,23.1166 10.7945,24.0666 C10.7245,24.1876 10.7825,24.3876 10.7965,24.5506 C10.9195,25.9776 11.0225,27.4066 11.1825,28.8296 C11.2495,29.4296 11.4315,30.0176 11.5705,30.6086 C11.7355,31.3086 12.1585,32.0536 12.0385,32.6986 C11.5005,35.6096 13.1565,38.2296 13.0245,41.0676 C13.0195,41.2126 13.1655,41.3616 13.2285,41.5136 C13.8145,42.9526 15.1345,44.1746 14.5375,45.9726 C14.4885,46.1176 14.6805,46.3386 14.7515,46.5276 C15.2625,47.8796 15.8105,49.2196 16.2695,50.5896 C16.6795,51.8166 16.9305,53.0966 17.3585,54.3166 C18.1985,56.7106 19.8005,58.8346 19.8805,61.5036 C19.8885,61.7746 20.0875,62.0386 20.1975,62.3056 C20.8585,63.8946 20.8495,65.6366 22.0945,67.1436 C23.1765,68.4506 23.3915,70.4496 24.1465,72.0706 C24.3595,72.5306 25.1245,72.7356 25.6375,73.0566 C25.6345,72.4426 25.7265,71.8076 25.5975,71.2206 C25.4995,70.7746 24.9985,70.4196 24.8885,69.9716 C24.5455,68.5716 24.3055,67.1466 24.0145,65.7326 C23.9815,65.5746 23.8645,65.4376 23.8165,65.2816 C23.2445,63.3836 22.6535,61.4906 22.1205,59.5816 C21.8585,58.6446 21.6195,57.6846 21.5255,56.7196 C21.3905,55.3116 21.2105,53.9596 20.5525,52.6546 C20.2945,52.1456 20.6075,51.3596 20.6225,50.6976 C20.6315,50.2466 20.7475,49.6526 20.5145,49.3666 C19.2815,47.8596 19.8255,46.1356 19.7825,44.4826 C19.7575,43.4976 20.0335,42.3636 19.6335,41.5696 C19.1645,40.6356 19.2805,39.5606 18.9055,38.8466 C18.0695,37.2576 18.6145,36.0646 18.8585,34.5206 C19.2535,32.0276 19.7405,29.2676 18.1865,26.8266 C18.0655,26.6376 18.0865,26.3446 18.0815,26.0996 C18.0565,24.8176 17.9515,23.5276 18.0735,22.2586 C18.1185,21.7846 18.6995,21.3616 19.0375,20.9156 C19.3125,21.3446 19.8195,21.7706 19.8245,22.2026 C19.8785,26.8746 19.8335,31.5476 19.8605,36.2196 C19.8685,37.6386 19.5745,39.1126 20.5375,40.4126 C20.7435,40.6926 20.6465,41.2076 20.6615,41.6146 C20.7105,42.9566 20.4335,44.3306 21.2835,45.5746 C21.5065,45.9016 21.4015,46.4496 21.4495,46.8966 C21.4975,47.3416 21.3845,47.9246 21.6245,48.2056 C22.4815,49.2116 22.3475,50.3546 22.2985,51.5066 C22.2575,52.4506 22.0905,53.4116 23.0115,54.1186 C23.1825,54.2506 23.2005,54.6526 23.1955,54.9276 C23.1755,56.0436 23.0745,57.1596 23.0965,58.2746 C23.1045,58.7316 23.3375,59.1876 23.4825,59.6396 C23.6885,60.2776 23.9355,60.9026 24.1125,61.5476 C24.2315,61.9796 24.2155,62.4476 24.3415,62.8766 C24.8205,64.5146 25.3305,66.1426 25.8345,67.7726 C26.1235,68.7076 26.6455,69.6346 26.6735,70.5756 C26.7335,72.6026 27.1585,74.4796 28.0895,76.2716 C28.2285,76.5386 28.1015,76.9446 28.0975,77.2866 C27.7335,77.2396 27.3025,77.3046 27.0165,77.1296 C24.1215,75.3606 22.2165,72.8546 21.1885,69.5896 C20.6035,67.7296 19.6295,65.9936 18.9345,64.1626 C18.5475,63.1466 18.3735,62.0496 18.1025,60.9886 C18.0305,60.7116 17.9515,60.4366 17.8745,60.1606 C17.6495,59.3606 17.4235,58.5606 17.2025,57.7586 C17.0835,57.3276 17.0225,56.8736 16.8535,56.4646 C16.1495,54.7726 15.3605,53.1136 14.7105,51.4026 C14.2765,50.2626 14.0245,49.0546 13.6885,47.8766 C13.5045,47.2276 13.3325,46.5736 13.1255,45.9326 C12.7665,44.8156 12.1905,43.7266 12.0605,42.5856 C11.8865,41.0746 10.6565,39.8246 11.0675,38.1886 C11.1195,37.9846 10.7895,37.6996 10.6795,37.4356 C10.5215,37.0596 10.3055,36.6716 10.2865,36.2796 C10.1315,33.1296 10.2375,30.0186 9.5405,26.8406 C8.8925,23.8836 9.4115,20.6716 9.4095,17.5706 C9.4095,17.2446 9.4775,16.8336 9.3125,16.6116 C9.0705,16.2836 8.6465,16.0926 8.3015,15.8436 C8.1105,16.1636 7.7715,16.4766 7.7535,16.8066 C7.5995,19.6116 7.5035,22.4176 7.3835,25.3976 M47.1245,97.2436 C48.5675,97.4026 49.1945,98.0736 48.9605,99.4776 C48.7155,100.9466 48.2715,101.5786 46.7895,101.7176 C45.6465,101.8246 45.3315,102.3066 45.4415,103.4126 C45.6485,105.5056 44.3405,106.6836 42.6325,107.4566 C41.2855,108.0686 39.9055,108.7196 38.4735,108.9786 C37.7215,109.1136 36.7165,108.5956 36.0205,108.0996 C35.2675,107.5616 34.7135,107.4866 33.8835,107.8676 C33.4345,108.0736 32.4725,108.0556 32.2995,107.7826 C31.9545,107.2406 31.6755,106.2716 31.9405,105.8056 C32.5205,104.7906 33.4685,103.9886 34.2475,103.0856 C34.5635,102.7196 35.1065,102.2946 35.0795,101.9316 C34.9755,100.5386 35.5915,99.3996 36.0125,98.1576 C36.4155,96.9706 36.2355,95.7466 35.4975,94.5986 C34.6955,93.3526 33.9675,92.0346 33.4055,90.6666 C33.0265,89.7406 33.0185,88.6686 32.7935,87.6736 C32.6005,86.8196 32.0275,86.5286 31.1545,86.2736 C28.8855,85.6106 26.3965,85.1916 25.4425,82.4196 C25.1955,81.7006 24.4775,81.0566 23.8195,80.6006 C23.4405,80.3366 22.7525,80.5196 22.2035,80.5006 C22.1915,80.9426 22.1655,81.3846 22.1745,81.8256 C22.1835,82.3026 22.4425,82.9986 22.2185,83.2196 C20.9055,84.5156 21.5345,86.1056 21.4375,87.5676 C21.3545,88.7756 21.4515,89.8756 20.7755,91.0976 C20.0125,92.4796 20.8645,94.0746 21.6895,95.3886 C22.6335,96.8896 22.6665,97.0466 21.0475,97.6786 C19.4835,98.2876 17.8515,98.7176 16.2755,99.2996 C15.9175,99.4326 15.5245,99.8186 15.4005,100.1756 C14.9515,101.4616 14.0995,101.8506 12.8005,101.7116 C11.4565,101.5686 10.1815,101.5306 8.9095,102.4406 C8.0875,103.0286 6.8685,102.8736 5.9165,102.0746 C4.5025,100.8896 3.0115,99.7956 1.6035,98.6046 C1.2285,98.2866 0.8615,97.7676 0.828155583,97.3156 C0.8105,97.0676 1.5025,96.7786 1.8575,96.4866 C2.6815,95.8136 3.5955,95.4726 4.6755,95.6256 C4.8075,95.6446 4.9795,95.5076 5.1065,95.4076 C6.6325,94.2246 8.1455,93.0266 9.6775,91.8506 C10.2125,91.4396 10.2575,91.0656 9.8685,90.4906 C9.5325,89.9936 9.1355,89.3676 9.1685,88.8236 C9.2735,87.0796 8.1615,85.9136 7.3465,84.6306 C6.8605,83.8666 6.7085,83.1716 7.1445,82.4406 C8.2085,80.6526 8.0435,79.1446 6.4915,77.6676 C5.9015,77.1076 5.6625,76.1626 5.3045,75.3746 C4.6865,74.0146 4.0945,72.6416 3.5065,71.2686 C3.4115,71.0466 3.3485,70.7946 3.3445,70.5556 C3.3155,68.7796 3.1885,66.9946 3.3385,65.2336 C3.4155,64.3206 3.9915,63.4506 4.3455,62.5636 C4.4725,62.2446 4.7375,61.9196 4.7155,61.6136 C4.5985,59.9786 4.2745,58.3476 4.2685,56.7146 C4.2275,46.8636 4.2495,37.0146 4.2645,27.1636 C4.2655,26.7626 4.2685,26.2516 4.4955,25.9786 C5.3555,24.9426 5.1755,23.7456 5.2635,22.5536 C5.3295,21.6536 5.7355,20.7846 5.9005,19.8866 C6.0245,19.2126 5.9325,18.4976 6.0715,17.8296 C6.2225,17.1106 6.5735,16.4356 6.7615,15.7216 C6.9595,14.9626 7.1085,14.1846 7.1945,13.4056 C7.2285,13.1026 7.0055,12.7776 6.9425,12.4536 C6.5535,10.4276 6.7725,10.2096 8.8295,10.1346 C9.2465,10.1186 9.9355,9.7056 9.9975,9.3806 C10.1395,8.6366 9.5005,8.6456 8.9105,8.6556 C7.9535,8.6726 7.4995,8.1856 7.8465,7.2266 C8.1585,6.3656 7.8275,6.0146 7.0095,5.8286 C6.6965,5.7576 6.2175,5.4546 6.1975,5.2256 C6.0905,3.9536 6.0625,2.6716 6.1075,1.3966 C6.1175,1.1476 6.5625,0.7466 6.8335,0.723614759 C7.0815,0.7026 7.4295,1.0536 7.6135,1.3206 C7.7625,1.5366 7.8265,1.8986 7.7665,2.1556 C7.4995,3.2826 8.0415,4.0406 8.7735,4.7906 C9.0655,5.0886 9.1235,5.6006 9.3555,5.9736 C9.6545,6.4526 9.9275,7.0606 10.3785,7.3106 C11.2675,7.8026 11.3185,8.5966 11.2175,9.3376 C11.1125,10.1116 10.7465,10.8676 10.3785,11.5706 C10.3185,11.6846 9.6535,11.4746 9.2665,11.4256 C8.9575,11.3876 8.6455,11.3666 8.3345,11.3376 C8.3335,11.6366 8.3195,11.9356 8.3335,12.2346 C8.4235,14.2956 10.0935,15.2906 11.2975,16.5976 C11.4325,16.7436 11.6195,16.9076 11.8025,16.9366 C13.7905,17.2366 15.7855,17.4866 17.7705,17.8036 C18.5675,17.9306 19.3655,18.1276 20.1225,18.4026 C21.1545,18.7776 22.1105,19.2146 23.0815,18.2156 C23.3505,17.9406 23.9045,17.8496 24.3325,17.8386 C25.7795,17.8026 27.2355,17.9216 28.6765,17.8186 C29.5305,17.7566 30.3645,17.3926 31.2055,17.1556 C31.4405,17.0896 31.6855,16.8886 31.8965,16.9236 C34.2225,17.3096 35.8005,15.6426 37.6025,14.7376 C39.0455,14.0136 39.8755,12.5826 39.9045,10.7936 C39.9135,10.2536 40.3355,9.6856 40.6795,9.2096 C40.7665,9.0896 41.4835,9.1796 41.5565,9.3376 C41.7995,9.8626 42.1355,10.5526 41.9735,11.0186 C41.6285,12.0076 41.0945,12.9736 40.4515,13.8056 C39.6725,14.8136 39.8495,16.1366 40.9365,16.8006 C41.4215,17.0976 41.8125,17.5996 42.1495,18.0756 C42.8575,19.0756 43.6095,20.0686 44.1475,21.1606 C44.9765,22.8466 45.4955,24.6946 46.4175,26.3196 C47.1755,27.6556 47.1005,28.9926 47.1085,30.3826 C47.1085,30.4646 47.0955,30.5696 47.1375,30.6256 C48.4575,32.3846 48.0015,34.4156 48.0505,36.3746 C48.0585,36.6846 48.1785,37.0516 48.3735,37.2856 C48.8555,37.8656 48.9925,38.3886 48.5535,39.0796 C48.4025,39.3166 48.5375,39.7596 48.6005,40.0986 C48.6745,40.4976 48.9465,40.9036 48.8975,41.2766 C48.4405,44.7686 49.0855,48.2536 48.9205,51.7396 C48.9075,52.0236 48.9155,52.4276 48.7455,52.5636 C47.5295,53.5286 48.1715,54.3616 48.7915,55.3126 C49.4215,56.2766 49.9015,57.3386 50.4265,58.3686 C50.5545,58.6196 50.6005,58.9136 50.6755,59.1906 C51.1225,60.8316 51.7115,62.4516 51.9735,64.1236 C52.2425,65.8396 53.3485,67.3036 53.1505,69.1966 C53.0495,70.1766 53.7585,71.2746 54.2105,72.2686 C54.7225,73.3946 55.4105,74.4396 55.9225,75.5646 C56.4405,76.7026 56.6425,78.0306 57.3335,79.0346 C58.4185,80.6126 59.7495,82.0346 61.0755,83.4276 C61.6335,84.0116 61.7435,84.3146 61.1295,84.9066 C60.0785,85.9186 59.0785,86.5416 57.4255,86.3996 C56.3095,86.3026 55.0625,87.1476 53.9475,87.7176 C52.2665,88.5776 50.6855,89.6396 48.9925,90.4766 C47.7085,91.1116 46.9745,92.9536 47.6995,94.1806 C48.2505,95.1106 48.2005,95.4446 47.1245,97.2436" id="Fill-1" fill="#231916" mask="url(#mask-2)"></path>
                </g>
                <g id="编组" transform="translate(35.000000, 0.506000)">
                    <mask id="mask-4" fill="white">
                        <use xlink:href="#path-3"></use>
                    </mask>
                    <g id="Clip-4"></g>
                    <path d="M12.9585,22.7283 C14.1675,22.9213 14.6605,23.6573 14.8165,24.8503 C14.9585,25.9393 15.2995,27.0133 15.6645,28.0533 C15.7655,28.3383 16.2995,28.6783 16.5805,28.6363 C16.8805,28.5913 17.2485,28.1613 17.3445,27.8293 C17.4475,27.4693 17.3005,27.0223 17.2105,26.6253 C17.0285,25.8213 17.4015,25.4583 18.1485,25.3583 C18.9315,25.2533 19.0595,24.7793 19.1065,24.0463 C19.1655,23.1773 19.2935,22.1903 19.7545,21.4953 C20.7295,20.0203 20.9335,18.4403 20.8915,16.7733 C20.8845,16.5003 20.6355,16.0013 20.4945,16.0003 C18.4445,15.9813 18.1095,14.1873 17.5355,12.9123 C16.8095,11.2983 15.5305,10.8473 14.0995,10.7643 C11.5835,10.6183 9.0465,10.5843 6.5355,10.7503 C5.7915,10.8003 4.8555,11.5363 4.4645,12.2183 C4.1495,12.7673 4.4575,13.7263 4.6355,14.4683 C4.6875,14.6863 5.2355,14.7913 5.5615,14.9373 C6.1405,15.1943 6.7225,15.4413 7.6065,15.8243 C6.5735,16.2573 5.8435,16.4873 5.1995,16.8653 C4.8745,17.0563 4.6785,17.5013 4.4755,17.8613 C4.2725,18.2213 4.1355,18.6183 3.9695,18.9993 C3.6515,18.8383 3.1995,18.7583 3.0485,18.5013 C2.8275,18.1243 2.5885,17.3893 2.7645,17.2113 C3.7275,16.2413 3.7195,15.4063 2.7455,14.4833 C2.6195,14.3653 2.6375,13.9943 2.7115,13.7833 C3.2135,12.3573 3.7575,10.9463 4.2675,9.5233 C4.3775,9.2173 4.5105,8.8633 4.4545,8.5643 C4.2395,7.4003 4.3595,6.5263 5.7945,6.3303 C5.9875,6.3033 6.1715,5.7613 6.2505,5.4323 C6.4545,4.5863 6.3155,3.2753 6.8185,2.9603 C8.0625,2.1863 9.5595,1.7003 11.0155,1.4293 C11.7695,1.2913 12.4845,1.4123 13.1615,0.8333 C13.5035,0.5413 14.1585,0.5803 14.6775,0.5413 C15.3355,0.4953 16.0025,0.5613 16.6595,0.5063 C17.4515,0.4413 17.9865,0.6053 18.2835,1.4643 C18.4025,1.8083 18.9415,2.0683 19.3445,2.2403 C20.1355,2.5763 21.0585,2.6873 21.7425,3.1583 C22.1815,3.4583 22.4685,4.2373 22.4705,4.8023 C22.4715,5.0653 21.6425,5.5323 21.1735,5.5533 C20.1645,5.5993 19.7955,6.0523 19.9615,6.9573 C20.1295,7.8743 20.3145,8.8063 20.6535,9.6683 C21.5625,11.9823 22.7985,14.1893 22.3945,16.8413 C22.3195,17.3303 22.6345,17.9613 22.9415,18.4063 C23.6035,19.3603 23.3505,20.0153 22.4545,20.5683 C22.2785,20.6763 22.0565,20.7293 21.9145,20.8693 C21.5245,21.2503 21.1665,21.6663 20.7955,22.0683 C21.2675,22.2823 21.7615,22.4593 22.2055,22.7203 C22.5955,22.9493 23.2045,23.2483 23.2295,23.5543 C23.2715,24.0843 23.1015,24.9103 22.7285,25.1413 C21.8325,25.6973 21.2675,26.3233 20.9895,27.3623 C20.8645,27.8283 20.2625,28.1813 19.8465,28.5523 C19.3015,29.0393 18.6665,29.4403 18.2005,29.9903 C18.0625,30.1553 18.3615,30.6923 18.4605,31.0583 C18.7445,30.9173 19.0925,30.8373 19.2985,30.6233 C19.6945,30.2073 19.9545,29.6473 20.3835,29.2803 C20.6185,29.0803 21.0845,29.1493 21.4455,29.0973 C21.4745,29.4643 21.6605,30.0553 21.5055,30.1653 C19.9865,31.2493 18.4905,32.4163 16.8255,33.2243 C15.6115,33.8143 14.1725,33.6733 13.8655,35.6213 C13.7265,36.5043 13.3385,37.6163 12.8805,38.3883 C12.4075,39.1853 11.1255,39.6583 10.1055,39.9203 C9.4205,40.0983 8.5785,39.6533 7.8025,39.5093 C6.9575,39.3523 6.1075,39.2213 5.2595,39.0803 L5.2965,39.1153 C4.8025,38.4643 4.3625,37.7623 3.8045,37.1723 C2.4605,35.7563 1.0385,34.4073 1.0455,32.2423 C1.0455,32.1243 0.9945,31.9983 0.9385,31.8893 C0.7415,31.4993 0.2765,31.0243 0.3775,30.7493 C0.6245,30.0703 1.0655,29.4273 1.5605,28.8893 C1.7655,28.6653 2.3695,28.5963 2.6625,28.7343 C2.8545,28.8253 2.9965,29.5473 2.8445,29.7563 C1.0085,32.2753 2.7325,34.0103 4.2155,35.6703 C5.1885,36.7593 6.4375,37.6183 7.6345,38.4843 C8.0245,38.7663 8.6355,38.7463 9.1455,38.8653 C9.2785,38.2413 9.6595,37.5363 9.4885,37.0103 C9.2335,36.2273 8.9375,35.5763 9.4965,34.8273 C9.5785,34.7163 9.4955,34.3063 9.4205,34.2863 C9.1725,34.2183 8.8925,34.2563 8.6255,34.2703 C8.1435,34.2953 7.6605,34.3323 7.1795,34.3643 C7.1485,33.5973 7.0475,32.8213 7.1435,32.0713 C7.1655,31.9003 7.8845,31.8463 8.2595,31.6843 C8.6415,31.5193 8.9945,31.2893 9.3585,31.0823 C9.7695,30.8493 10.1595,30.4963 10.5935,30.4353 C10.7485,30.4143 11.0525,31.0713 11.1985,31.4543 C11.4095,32.0023 11.7115,32.4763 12.2245,31.8763 C13.1195,30.8283 13.9595,31.3013 14.8775,31.7533 C15.4875,32.0553 16.1665,32.9193 16.7665,32.0093 C16.9395,31.7463 16.3675,30.7593 15.9135,30.3583 C14.6275,29.2233 13.2535,28.1793 11.8565,27.1813 C10.9995,26.5683 10.1455,27.0333 9.4805,27.5953 C8.3845,28.5233 6.9885,29.1363 6.4095,30.6383 C6.1645,31.2743 5.4805,31.4753 5.0525,30.7813 C4.2635,29.5013 3.5215,28.1823 2.8955,26.8183 C2.4875,25.9343 2.6165,25.0603 3.1735,24.1233 C3.5385,23.5073 3.2725,22.5383 3.3665,21.7353 C3.4115,21.3463 3.6325,20.9783 3.7735,20.6003 C4.0005,21.0133 4.4395,21.4413 4.4125,21.8353 C4.3275,23.0533 3.8365,24.2493 4.7705,25.3943 C5.3335,26.0843 5.7755,26.2913 6.4645,25.5773 C7.0785,24.9393 7.7745,24.3793 8.4935,23.7343 C7.3465,22.8693 6.4375,23.7733 5.4735,24.0813 C6.2115,22.9183 6.9245,21.9293 7.4815,20.8603 C7.7705,20.3083 7.7505,19.6023 7.9315,18.9853 C8.0415,18.6083 8.2695,18.2653 8.4435,17.9073 C8.6185,18.2773 8.8585,18.6303 8.9495,19.0203 C9.0305,19.3723 9.0705,19.8223 8.9195,20.1233 C8.2095,21.5323 8.6265,22.5443 9.9515,23.2123 C10.7835,23.6313 11.6785,23.9263 12.5445,24.2773 C12.6935,23.7493 12.8435,23.2213 12.9925,22.6943 L12.9585,22.7283 Z" id="Fill-3" fill="#231916" mask="url(#mask-4)"></path>
                </g>
                <path d="M115.0796,72.6307 C114.5846,72.2597 114.2876,72.0367 113.9896,71.8147 C113.8026,72.0737 113.4676,72.3347 113.469591,72.5947 C113.4706,72.8537 113.8406,73.3407 113.9926,73.3197 C114.3106,73.2767 114.5916,72.9637 115.0796,72.6307 M121.6576,67.8857 C121.0826,67.3827 120.5826,66.9437 120.0826,66.5067 C119.9236,66.7077 119.6146,67.0727 119.6286,67.0847 C120.1176,67.5297 120.6316,67.9477 121.1646,68.3407 C121.1906,68.3597 121.4116,68.1147 121.6576,67.8857 M103.3476,67.6437 C103.3436,67.4737 103.3396,67.3047 103.3356,67.1357 C103.9716,66.7027 104.6596,66.3267 105.2166,65.8107 C105.4286,65.6137 105.4746,65.0327 105.3436,64.7397 C105.2436,64.5187 104.6376,64.2787 104.4396,64.3867 C103.4136,64.9457 102.3716,65.5257 101.4786,66.2707 C100.6836,66.9337 100.8546,67.4487 101.8756,67.6777 C102.8816,67.9017 103.4436,68.4717 103.7156,69.4367 C103.8036,69.7487 104.0266,70.2557 104.2086,70.2647 C104.6546,70.2857 105.1596,70.1517 105.5506,69.9247 C105.8836,69.7307 106.1176,69.3367 106.3456,68.9977 C106.5716,68.6577 106.7336,68.2757 106.9256,67.9117 C106.5056,67.8217 106.0896,67.6777 105.6666,67.6547 C104.8946,67.6127 104.1206,67.6437 103.3476,67.6437 M103.9536,62.6217 C104.5516,62.6217 105.1476,62.6257 105.7456,62.6197 C106.0736,62.6167 106.4766,62.4677 106.7186,62.6067 C108.3386,63.5407 109.8186,62.6457 111.3296,62.2967 C111.9516,62.1537 112.2476,62.2177 112.3286,62.9237 C112.4906,64.3447 114.3116,65.1117 115.3616,64.1377 C116.2166,63.3437 116.8496,63.3937 117.7326,64.0527 C118.4836,64.6127 119.3636,65.0487 120.2506,65.3547 C120.5876,65.4707 121.1916,65.1717 121.5186,64.8837 C122.1556,64.3247 122.8036,64.1957 123.4076,64.7377 C124.5686,65.7777 125.6536,66.9027 126.7706,67.9927 C126.6926,68.1097 126.6146,68.2267 126.5376,68.3437 C126.2906,68.3157 126.0106,68.3527 125.8026,68.2477 C124.1796,67.4277 123.1226,67.8617 122.5296,69.5847 C122.4006,69.9587 122.1986,70.3447 121.9276,70.6247 C121.4976,71.0687 120.9886,71.1777 120.5856,70.5497 C120.0686,69.7427 119.5726,68.9247 119.0616,68.1137 C118.9346,67.9137 118.8266,67.6667 118.6426,67.5427 C117.8086,66.9857 116.8956,66.5337 116.1166,65.9127 C115.2316,65.2067 114.6766,65.5587 114.1976,66.3217 C113.8336,66.9027 113.5506,67.5347 113.1436,68.3087 C113.5026,68.2587 113.7556,68.2537 113.9876,68.1827 C114.2206,68.1097 114.4326,67.8807 114.6546,67.8777 C115.4976,67.8657 116.3416,67.9177 117.1846,67.9447 C117.1146,68.6427 117.0446,69.3397 116.9746,70.0327 C117.7816,70.4837 118.6666,71.0797 119.6326,71.4837 C120.4896,71.8417 120.7336,72.2977 120.2906,73.0907 C119.8376,73.9017 120.0096,74.4457 120.8166,74.9397 C121.1796,75.1597 121.3576,75.6827 121.6196,76.0687 C121.3616,76.2217 120.9736,76.5677 120.8676,76.4947 C120.4686,76.2237 120.1436,75.8307 119.8286,75.4527 C119.7376,75.3447 119.8296,75.0547 119.7356,74.9837 C119.1516,74.5417 118.5386,74.1387 117.9346,73.7227 C117.8026,74.2237 117.6106,74.7177 117.5536,75.2277 C117.4976,75.7147 117.6426,76.2257 117.5826,76.7117 C117.5376,77.0817 117.3106,77.4307 117.1656,77.7887 C116.7816,77.5887 116.2426,77.4807 116.0536,77.1637 C115.8016,76.7417 115.8636,76.1437 115.7106,75.6467 C115.5996,75.2877 115.4066,74.7437 115.1586,74.6887 C114.8146,74.6097 114.3606,74.8677 114.0006,75.0687 C113.8076,75.1757 113.6436,75.4427 113.5816,75.6687 C113.1676,77.1727 111.9636,77.8977 110.7226,78.5497 C109.9556,78.9527 109.6786,79.4647 109.7466,80.3387 C109.7756,80.7137 109.4196,81.2387 109.0836,81.4717 C108.8986,81.5997 108.1356,81.3247 108.0826,81.1167 C107.9646,80.6577 107.9556,79.8357 108.2156,79.6777 C109.1236,79.1267 109.5166,78.2977 110.0376,77.4527 C110.6006,76.5417 111.5276,75.8567 112.2926,75.0677 C112.4926,74.8597 112.7746,74.6647 112.8476,74.4137 C112.9606,74.0247 112.9256,73.5917 112.9526,73.1777 C112.5086,73.1737 111.9586,72.9987 111.6376,73.1957 C110.2476,74.0517 110.2436,74.0827 109.5676,72.5607 C108.8066,70.8437 108.8266,70.8647 110.3186,69.4257 C110.5906,69.1627 110.6686,68.6547 110.7276,68.2437 C110.7476,68.1167 110.4326,67.8677 110.2306,67.8077 C110.1116,67.7717 109.7866,67.9797 109.7716,68.1047 C109.5656,69.8037 107.9376,69.8437 106.8946,70.4507 C105.6446,71.1797 104.6036,72.6457 104.7486,74.0587 C104.7876,74.4377 104.5356,74.8467 104.4176,75.2417 C104.0636,75.0837 103.5846,75.0157 103.3916,74.7427 C103.1966,74.4677 103.1046,73.8367 103.2816,73.6287 C104.1586,72.5967 103.1896,71.6737 103.1816,70.7087 C103.1816,70.6717 102.5166,70.5057 102.3216,70.6367 C102.0236,70.8377 101.7136,71.2327 101.6836,71.5687 C101.6376,72.0867 101.9166,72.6307 101.8826,73.1527 C101.8586,73.5127 101.5396,73.8527 101.3526,74.2017 C101.2056,73.8717 100.9466,73.5457 100.9366,73.2117 C100.9206,72.6827 101.2026,72.1237 101.1076,71.6247 C101.0256,71.1877 100.6006,70.8157 100.3256,70.4137 C100.0126,70.7767 99.4816,71.1067 99.4236,71.5057 C99.1406,73.4397 99.0136,75.3957 98.7646,77.3347 C98.6986,77.8447 98.4266,78.3417 98.1906,78.8157 C97.7246,79.7567 97.7146,80.6287 98.4226,81.4627 C98.6036,81.6777 98.8166,81.9367 98.8416,82.1917 C98.8626,82.4177 98.6836,82.7097 98.5076,82.8847 C98.4506,82.9407 98.0086,82.7707 97.9276,82.6097 C97.4736,81.7067 97.0926,80.7667 96.6456,79.8587 C96.5186,79.6017 96.2586,79.4097 96.0586,79.1887 C95.9136,79.4487 95.7146,79.6937 95.6336,79.9737 C95.4506,80.6087 95.2736,81.2547 95.1986,81.9077 C95.1626,82.2177 95.4156,82.5507 95.4446,82.8807 C95.4786,83.2647 95.4116,83.6577 95.3886,84.0467 C95.0586,83.8747 94.6656,83.7687 94.4136,83.5187 C93.9386,83.0467 93.5726,82.4677 93.1106,81.9807 C92.6186,81.4597 92.8026,81.1517 93.3896,81.0327 C94.5956,80.7877 95.0176,80.3217 94.6346,78.9547 C94.3856,78.0647 94.8356,76.9717 95.0156,75.9777 C95.0356,75.8627 95.4216,75.6857 95.4806,75.7337 C95.6536,75.8717 95.7626,76.1037 95.8706,76.3107 C96.0886,76.7237 96.2886,77.1457 96.4966,77.5637 C96.9286,77.0287 97.5146,76.5547 97.7516,75.9437 C98.0076,75.2847 97.9756,74.4997 97.9896,73.7687 C97.9946,73.5057 97.8326,73.1587 97.6306,72.9867 C96.6366,72.1417 96.6106,71.6977 97.5836,70.8357 C97.8926,70.5617 98.1746,70.2457 98.5146,70.0177 C99.2736,69.5087 99.4916,68.9827 98.8446,68.1917 C98.6746,67.9837 98.6646,67.3607 98.8336,67.2067 C99.6416,66.4707 100.5516,65.8467 101.3986,65.1507 C102.0876,64.5827 102.7706,64.0017 103.3776,63.3517 C103.4956,63.2247 103.2626,62.7507 103.1646,62.4457 C103.0466,62.0767 102.6876,61.6247 102.7996,61.3687 C103.3246,60.1707 103.9076,58.9827 104.6336,57.8997 C104.7996,57.6517 105.9206,57.6407 106.0576,57.8597 C106.3126,58.2727 106.4036,59.0897 106.1516,59.4567 C105.4706,60.4517 104.5736,61.2987 103.7626,62.2037 C103.8256,62.3437 103.8906,62.4827 103.9536,62.6217" id="Fill-5" fill="#231916"></path>
                <path d="M48.2036,40.0643 C49.0036,39.5423 49.5416,38.9093 50.1286,38.8593 C52.1066,38.6923 53.7726,37.7163 55.2556,36.6633 C56.7486,35.6033 58.5126,34.7153 59.4416,32.9643 C59.9586,31.9923 61.3586,31.4483 60.9456,30.0353 C60.7486,29.3603 60.4136,28.7183 60.0816,28.0933 C59.9326,27.8123 59.5476,27.6463 59.4296,27.3613 C59.2596,26.9523 59.2356,26.4823 59.1496,26.0393 C59.5646,26.1993 60.1366,26.2383 60.3706,26.5393 C61.7426,28.3033 63.7286,28.6733 65.7186,29.1823 C66.7246,29.4403 67.6406,30.0793 68.5666,30.6003 C69.8136,31.3023 71.0376,32.0483 72.2606,32.7933 C74.0896,33.9073 75.2336,35.5843 76.1436,37.4753 C76.4586,38.1273 76.9716,38.6823 77.3556,39.3033 C77.5876,39.6773 77.7426,40.0973 77.9436,40.4923 C78.6436,41.8633 79.3426,43.2363 80.0566,44.6003 C80.2826,45.0323 80.5366,45.4533 80.8146,45.8533 C81.3176,46.5773 81.8996,47.2513 82.3546,48.0023 C82.9606,49.0013 83.5906,50.0123 83.9826,51.1003 C84.2076,51.7223 84.2636,52.2583 85.0296,52.4073 C85.8266,52.5623 85.8466,53.0443 85.5326,53.7103 C85.3756,54.0433 85.2666,54.5383 85.3966,54.8493 C86.5546,57.5943 85.5726,58.5313 83.3926,60.0533 C82.6586,60.5673 81.9526,61.1213 81.2446,61.6703 C80.9516,61.8973 80.7246,62.3033 80.4046,62.3843 C78.7016,62.8163 76.9926,63.2793 75.2576,63.5173 C73.8346,63.7123 72.3686,63.5683 70.9266,63.6533 C70.0746,63.7033 69.6656,64.0443 70.1106,65.0433 C70.6826,66.3233 70.3876,67.0023 69.2236,67.7863 C69.1546,67.8333 69.0366,67.8733 69.0266,67.9293 C68.6866,70.0223 66.5586,70.3713 65.3616,71.6263 C64.7606,72.2573 63.7686,72.5233 62.9426,72.9313 C62.6196,73.0903 62.2596,73.1723 61.9266,73.3153 C61.7386,73.3953 61.5526,73.6443 61.4016,73.6173 C59.2876,73.2333 57.4696,74.5553 55.4496,74.6273 C53.6316,74.6933 51.8076,74.6803 49.9876,74.6343 C49.3506,74.6193 48.7226,74.3893 48.0846,74.2883 C47.7776,74.2393 47.4606,74.2623 47.1486,74.2493 C46.7996,74.2343 46.4276,74.2873 46.1046,74.1833 C44.9136,73.8013 43.7666,73.1683 42.5516,73.0083 C41.2786,72.8403 40.9816,72.1883 40.8756,70.9333 C41.5116,71.0563 42.1786,70.9933 42.5666,71.2923 C44.8686,73.0573 47.5566,72.8653 50.1886,72.8843 C53.0406,72.9053 55.8966,72.8733 58.7446,72.7303 C59.7366,72.6803 60.7686,72.3633 61.6766,71.9393 C63.7666,70.9623 66.1986,70.4443 67.5156,68.2913 C68.1516,67.2513 68.5636,66.0663 69.0056,64.9183 C69.0866,64.7093 68.8726,64.1613 68.7066,64.1183 C67.9346,63.9213 66.9746,63.5063 66.3686,63.7883 C62.9946,65.3483 59.5986,63.3363 59.4626,59.6023 C59.4436,59.0923 59.1786,58.5803 58.9716,58.0913 C58.8096,57.7143 58.4736,57.3963 58.3756,57.0113 C58.2396,56.4743 58.2386,55.8993 58.2336,55.3393 C58.2336,55.2943 58.7556,55.1293 58.8586,55.2203 C59.3076,55.6153 59.9266,56.0233 60.0576,56.5353 C60.4726,58.1643 60.7276,59.8353 60.9826,61.5013 C61.0976,62.2503 61.4696,62.6723 62.1876,62.6393 C63.7036,62.5703 65.2806,63.1033 66.6726,61.8463 C67.2876,61.2903 68.2506,61.4593 69.2136,61.5733 C71.6566,61.8653 74.1806,62.3573 76.6066,61.1793 C77.6456,60.6753 78.7966,60.3003 79.9346,60.1263 C81.8346,59.8333 82.7596,58.3603 83.8646,57.1273 C84.1386,56.8233 84.1626,55.9873 83.9406,55.6003 C82.8306,53.6573 82.7236,51.3123 81.0316,49.5403 C79.7126,48.1573 79.0076,46.1873 78.0306,44.4783 C77.9486,44.3353 77.9136,44.1483 77.8006,44.0413 C75.7406,42.0983 75.3006,39.2523 73.8486,36.9623 C72.7986,35.3093 71.5846,33.9893 69.7246,33.2113 C67.8276,32.4183 65.9846,31.4693 64.1886,30.4623 C63.1786,29.8953 62.6366,30.2503 62.1816,31.0813 C61.7246,31.9133 61.4186,32.8453 60.8676,33.6033 C60.2246,34.4863 59.4326,35.2783 58.6206,36.0143 C57.8356,36.7263 56.9656,37.3523 56.0866,37.9493 C55.3436,38.4533 54.5836,39.0693 53.7436,39.2673 C52.0556,39.6673 50.5326,41.1203 48.2036,40.0643" id="Fill-7" fill="#231916"></path>
                <path d="M25.4878,48.7098 C26.9008,48.7418 27.3998,48.2548 26.9708,47.0518 C26.9058,46.8678 27.1048,46.5028 27.2888,46.3528 C27.3878,46.2718 27.8388,46.3998 27.9178,46.5478 C28.4038,47.4498 28.9158,48.3568 29.2278,49.3238 C29.3438,49.6848 28.8738,50.2008 28.8098,50.6648 C28.7588,51.0378 28.8058,51.6768 29.0118,51.7748 C29.3438,51.9358 29.9478,51.8908 30.2478,51.6728 C30.6978,51.3458 30.9278,50.7258 31.3638,50.3648 C31.6068,50.1648 32.0778,50.2398 32.4458,50.1908 C32.4588,50.5718 32.6108,51.0328 32.4488,51.3138 C32.2388,51.6788 31.8178,51.9908 31.4188,52.1638 C30.4088,52.5998 29.3528,52.9288 28.3308,53.3348 C28.0478,53.4468 27.6588,53.6318 27.5818,53.8688 C27.2088,55.0088 26.2198,55.4048 25.3648,56.0548 C24.2098,56.9328 23.2998,58.1358 22.2998,59.2138 C22.0798,59.4508 21.9748,59.8078 21.7338,60.0108 C20.6428,60.9298 19.5048,61.7928 18.4188,62.7168 C17.7898,63.2518 17.2718,63.9248 16.6188,64.4228 C16.1318,64.7948 15.5158,65.0088 14.9398,65.2498 C14.6408,65.3748 14.2868,65.3668 13.9868,65.4888 C11.7268,66.4078 11.6578,66.4208 10.0628,64.5018 C9.6548,64.0118 9.4828,63.3318 9.1268,62.7878 C8.7978,62.2858 8.3668,61.8498 7.8388,61.2128 C8.9728,60.8288 9.5388,59.3798 10.7588,60.2158 C11.0778,60.4348 10.8058,61.5178 10.8058,62.3648 C10.9458,62.3068 11.2438,62.2278 11.4898,62.0678 C12.6348,61.3278 13.2088,61.5398 13.7008,62.7778 C13.8328,63.1088 14.2908,63.4718 14.6288,63.5028 C14.8578,63.5238 15.2568,63.0348 15.3688,62.7028 C15.5198,62.2588 15.4678,61.7448 15.5188,61.0398 C16.9808,61.9978 17.6808,61.2368 18.1518,60.0788 C18.4318,59.3868 18.3828,58.7998 17.3958,58.8978 C16.5068,58.9858 15.6208,59.1178 14.4228,59.2708 C13.6258,58.5258 13.6448,58.2558 14.9108,57.4908 C16.4058,56.5878 16.4708,55.9158 15.1468,55.0838 C14.4408,54.6408 13.5148,54.9658 13.1438,56.0618 C12.7588,57.1948 12.2158,57.1438 11.2938,56.8098 C9.8118,56.2718 9.3598,56.7008 9.3708,58.2898 C9.3748,58.8058 9.2228,59.5048 8.8738,59.7858 C8.5668,60.0328 7.7898,59.9838 7.3878,59.7618 C6.7038,59.3818 6.4478,58.7988 7.1738,58.0608 C7.9418,57.2788 8.5088,56.2938 9.3048,55.5488 C9.7208,55.1578 10.4358,54.9208 11.0218,54.9098 C12.4808,54.8858 12.7868,54.5448 12.9238,53.1458 C13.0588,51.7488 13.3838,50.4438 14.9358,49.6688 C16.2018,49.0358 17.3408,48.0118 17.3578,46.3188 C17.3598,46.0848 17.4468,45.8128 17.5838,45.6228 C19.7728,42.5858 22.0188,39.6008 25.3098,37.6248 C25.5558,37.4768 25.7898,37.3008 26.0088,37.1138 C27.8848,35.5188 29.7568,33.9178 31.6288,32.3188 C31.6918,32.2658 31.7548,32.2088 31.8258,32.1678 C32.5158,31.7698 33.4128,31.2288 33.9278,32.0238 C34.5298,32.9518 33.3818,33.2218 32.8208,33.5648 C30.7988,34.8028 28.7088,35.8938 27.0918,37.7358 C25.6498,39.3798 23.9578,40.8018 22.4268,42.3718 C21.9868,42.8238 21.7228,43.4498 21.3878,44.0018 C21.3028,44.1408 21.2768,44.4168 21.1858,44.4348 C19.4658,44.7658 19.8628,46.4688 19.1918,47.4728 C18.6488,48.2848 18.0788,49.0788 17.5148,49.8788 C17.0968,50.4738 16.6968,51.0848 16.2378,51.6478 C15.9988,51.9418 15.6468,52.1458 15.3508,52.3958 C15.1178,52.5938 14.6958,52.8138 14.7088,53.0008 C14.7298,53.3068 15.0228,53.6018 15.2318,53.8788 C15.2948,53.9618 15.4638,53.9568 15.5718,54.0148 C16.8878,54.7118 18.2268,55.1918 18.3438,57.1748 C18.4428,58.8558 19.4908,58.9938 20.7698,57.8578 C22.3318,56.4718 23.9928,55.1968 25.6048,53.8658 C26.6548,53.0008 26.8678,51.8268 26.5788,50.6048 C26.4368,50.0068 25.9528,49.4898 25.4878,48.7098" id="Fill-9" fill="#231916"></path>
                <path d="M73.7652,51.2636 C73.4952,51.7566 73.2072,52.1746 73.2542,52.2166 C73.6502,52.5706 74.0972,52.8746 74.5622,53.1316 C74.6122,53.1596 75.0512,52.6506 75.0242,52.6176 C74.6962,52.2036 74.3142,51.8326 73.7652,51.2636 M66.1052,47.2846 C66.0912,46.8306 66.1212,46.3696 66.0502,45.9246 C65.9942,45.5746 65.8742,44.9906 65.6792,44.9446 C64.1442,44.5766 64.1612,43.0196 63.3912,42.0816 C62.5262,41.0276 62.4052,39.8486 63.1582,38.6696 C63.3232,38.4106 63.6552,38.2586 63.9102,38.0576 C64.0382,38.3286 64.3292,38.6456 64.2702,38.8656 C63.9352,40.0826 64.5642,40.8606 65.2562,41.7546 C66.2782,43.0726 67.0962,44.5466 68.0072,45.9506 C68.7002,47.0196 69.3282,48.1446 70.1362,49.1176 C70.4672,49.5186 71.2282,49.8276 71.7402,49.7626 C73.2702,49.5656 74.3082,50.5426 75.5122,51.1086 C76.1652,51.4156 76.7912,51.8306 77.3312,52.3086 C77.6532,52.5906 78.0612,53.2466 77.9422,53.4596 C77.6712,53.9396 77.1502,54.4616 76.6372,54.5886 C74.9312,55.0116 73.3362,54.9196 72.3062,53.1166 C72.0852,52.7286 71.4992,52.5496 70.9512,52.1886 C70.8422,52.7226 70.7742,52.9946 70.7332,53.2726 C70.6092,54.1026 70.0982,54.2526 69.5032,53.8266 C68.5502,53.1446 67.8532,53.2226 66.7492,53.7876 C65.7652,54.2926 64.3402,53.9006 63.1182,53.9956 C62.5142,54.0426 61.9292,54.3056 61.3312,54.4526 C61.0032,54.5346 60.6162,54.7046 60.3482,54.5996 C60.1502,54.5216 59.9462,54.0076 60.0242,53.7866 C60.1262,53.4996 60.4712,53.2286 60.7752,53.1036 C61.0592,52.9866 61.4352,53.0146 61.7542,53.0706 C63.9342,53.4466 65.9332,52.5976 67.9992,52.1936 C68.7492,52.0466 69.5212,52.0056 70.2832,51.9156 C69.9972,50.1696 69.3312,49.8336 67.9382,50.5256 C67.0272,50.9776 66.0542,51.0546 65.1532,50.3236 C64.6952,49.9516 64.1442,49.6926 63.3952,49.2366 C64.7132,48.9066 64.3092,46.7506 66.1392,47.2526 C65.9052,47.9306 65.6712,48.6086 65.3682,49.4876 C66.4042,49.5756 67.3272,49.6526 68.5212,49.7536 C67.9502,48.3686 67.1952,47.6646 66.1052,47.2846" id="Fill-11" fill="#231916"></path>
                <path d="M113.8345,49.4286 C113.8955,47.7916 112.6545,47.6506 111.8085,47.2616 C111.5995,47.1656 111.0195,47.8116 110.6475,48.1576 C110.4105,48.3806 110.1725,48.6536 110.0645,48.9496 C109.9095,49.3796 109.7915,49.8606 109.8305,50.3036 C109.8455,50.4686 110.4595,50.7816 110.6045,50.6966 C110.9755,50.4756 111.3715,50.1176 111.5135,49.7276 C111.7555,49.0546 112.1075,48.9006 112.7325,49.1196 C113.0295,49.2236 113.3405,49.2916 113.8345,49.4286 M107.1595,53.2676 C106.8435,52.2596 106.5675,51.3816 106.2625,50.4076 C106.5365,50.3516 106.8365,50.3626 107.0515,50.2336 C107.6415,49.8796 108.3755,49.5866 108.7285,49.0556 C109.4735,47.9316 109.9885,46.6586 110.6525,45.4776 C110.8125,45.1946 111.1905,44.8336 111.4525,44.8466 C112.3415,44.8896 113.2285,45.0526 114.1045,45.2286 C115.1335,45.4346 115.4235,45.8136 115.0955,47.0416 C114.8915,47.8046 115.8635,48.8636 116.2555,49.8116 C116.4775,50.3486 116.6575,50.9236 116.7225,51.4966 C116.7465,51.7216 116.4025,51.9876 116.2275,52.2346 C116.0225,52.0126 115.7385,51.8246 115.6265,51.5636 C115.3755,50.9816 115.9235,50.0876 114.9065,49.7966 C113.7725,49.4726 113.7775,50.6776 113.1885,51.0886 C112.5785,51.5136 112.7265,51.9736 113.2875,52.4956 C113.6145,52.8006 113.7145,53.4366 113.7615,53.9376 C113.8915,55.3196 113.9675,56.7076 114.0065,58.0946 C114.0215,58.6616 114.0285,59.3126 113.7725,59.7776 C113.5635,60.1576 112.9775,60.4236 112.5125,60.5206 C112.3555,60.5526 112.0355,59.9226 111.8365,59.5696 C111.7405,59.4016 111.7945,59.1516 111.7085,58.9736 C111.0135,57.5326 111.1735,56.5526 112.3335,55.2826 C113.3315,54.1876 113.1165,53.4996 111.6725,53.1656 C111.4325,53.1106 111.1295,53.1316 110.9595,52.9916 C109.5985,51.8676 108.3565,52.3616 107.1595,53.2676" id="Fill-13" fill="#231916"></path>
                <path d="M40.2593,39.5858 C40.3493,40.5798 40.4583,41.5718 39.6673,42.3918 C39.5393,42.5238 39.4473,42.7868 39.4803,42.9628 C39.8023,44.6688 38.8203,45.9548 38.1553,47.3618 C37.8853,47.9328 37.8433,48.6228 37.7613,49.2668 C37.6263,50.3208 37.4113,51.3898 37.4763,52.4378 C37.5423,53.5198 37.9683,54.5748 38.1053,55.6588 C38.1703,56.1858 38.0333,56.7988 37.7953,57.2768 C37.6673,57.5348 36.8983,57.7898 36.8203,57.6998 C36.4803,57.3058 36.0853,56.7888 36.0733,56.3078 C36.0083,53.7478 36.0273,51.1858 36.0803,48.6258 C36.0913,48.1218 36.3273,47.5968 36.5563,47.1288 C37.1493,45.9148 37.0333,45.0008 35.9683,44.1678 C35.2803,43.6308 35.1783,43.0998 35.3233,42.2438 C35.4753,41.3558 35.1713,40.3978 35.1913,39.4738 C35.2013,38.9668 35.4683,38.4648 35.6183,37.9608 C36.0373,38.3628 36.5603,38.7068 36.8413,39.1898 C37.0423,39.5348 36.9383,40.0678 36.9423,40.5178 C36.9503,41.7368 36.9453,42.9568 37.1493,44.1988 C37.8633,43.1898 38.7863,42.3928 38.5243,40.9708 C38.2803,39.6448 39.2963,39.5438 40.2963,39.6208 L40.2593,39.5858 Z" id="Fill-15" fill="#231916"></path>
                <path d="M49.3433,61.2518 C48.9223,60.5818 48.1973,59.9338 48.1483,59.2368 C48.0573,57.9298 47.5793,57.6488 46.1373,58.2618 C46.1373,57.1298 46.1303,56.2088 46.1383,55.2878 C46.1523,53.7158 46.1893,52.1428 46.1843,50.5698 C46.1833,50.1648 46.1953,49.6658 45.9793,49.3708 C45.1973,48.3018 45.4623,47.5068 46.3953,46.7088 C47.2803,45.9508 47.2373,44.8968 47.1713,43.8348 C47.1213,43.0268 47.1963,42.2118 47.2143,41.3988 C47.4173,41.3768 47.6193,41.3558 47.8223,41.3328 C47.9583,41.7868 48.2033,42.2398 48.2093,42.6948 C48.2283,44.3098 48.1683,45.9238 48.1293,47.5368 C48.1243,47.7418 48.1363,47.9928 48.0293,48.1428 C46.3563,50.4628 47.7393,53.1678 47.0953,55.6198 C47.0443,55.8098 47.4033,56.1068 47.5713,56.3548 C47.7473,56.1148 48.0653,55.8818 48.0743,55.6358 C48.1103,54.7528 48.5913,54.4198 49.3403,54.0318 C50.2313,53.5718 50.9213,52.7328 51.7343,52.1048 C52.0333,51.8728 52.4783,51.5808 52.7813,51.6488 C53.6663,51.8488 54.5243,52.1888 55.3683,52.5298 C55.7013,52.6638 56.0923,52.8838 56.2463,53.1758 C56.4483,53.5588 56.4433,54.0518 56.5273,54.4968 C56.0963,54.4068 55.5593,54.4508 55.2513,54.2058 C53.5893,52.8778 51.8333,52.8788 50.4053,54.2988 C49.6733,55.0238 49.4013,57.1968 49.6663,58.2018 C49.9073,59.1138 49.8373,60.1088 49.9043,61.0668 C49.7173,61.1288 49.5303,61.1898 49.3433,61.2518" id="Fill-17" fill="#231916"></path>
                <path d="M124.7603,34.3954 C123.1603,33.1854 123.0713,33.2654 122.6273,35.1044 C122.4333,35.9124 121.9093,36.6414 121.5193,37.3984 C121.4713,37.4904 121.2753,37.6114 121.2253,37.5824 C119.6853,36.6974 119.5633,38.3534 118.8643,38.9384 C118.0183,38.1684 118.0733,37.2214 118.9033,36.5854 C119.3733,36.2244 119.7623,35.7554 120.2943,35.2314 C120.4053,35.3024 120.7223,35.5084 121.0383,35.7124 C122.1273,34.1424 121.8863,33.2794 120.3213,32.5244 C120.1013,32.4184 119.9523,31.6194 120.1173,31.3664 C120.5623,30.6834 121.1543,30.0764 121.7793,29.5464 C121.9413,29.4094 122.5493,29.5554 122.7663,29.7644 C124.3293,31.2744 124.3083,31.2774 126.3223,30.3214 C126.7243,30.1304 127.2083,29.9414 127.6213,29.9984 C127.9763,30.0454 128.5293,30.4274 128.5483,30.6954 C128.5753,31.0604 128.2403,31.7234 127.9543,31.7884 C127.1613,31.9664 126.8913,32.3054 126.6043,33.0934 C126.3883,33.6884 125.3723,33.9934 124.7603,34.3954" id="Fill-19" fill="#231916"></path>
                <g id="编组" transform="translate(122.000000, 49.506000)">
                    <mask id="mask-6" fill="white">
                        <use xlink:href="#path-5"></use>
                    </mask>
                    <g id="Clip-22"></g>
                    <path d="M5.8013,1.4197 C6.2083,2.1567 6.4683,2.6277 6.7903,3.2127 C6.3663,3.1407 5.9903,2.9537 5.7563,3.0657 C5.3893,3.2387 5.0273,3.5657 4.8363,3.9217 C4.7093,4.1597 4.9063,4.5597 4.9193,4.8887 C4.9443,5.5427 4.8783,6.2157 4.0383,6.2557 C3.2533,6.2917 3.0163,5.7847 3.0083,5.0347 C2.9933,3.6587 2.2273,3.2637 0.9673,3.9097 C0.7313,4.0317 0.4763,4.1157 0.0103,3.9887 C0.2653,3.6917 0.4923,3.3657 0.7803,3.1047 C1.3773,2.5637 1.6533,2.0297 1.0463,1.2957 C0.8703,1.0827 0.8823,0.7157 0.8083,0.4187 C1.1473,0.3367 1.5143,0.1317 1.8193,0.1997 C2.3303,0.3147 2.8223,0.5687 3.2883,0.8267 C4.1953,1.3297 4.8413,1.2347 5.8433,0.6747 C6.8513,0.1107 8.3303,0.3917 9.6043,0.3017 C9.5583,0.6107 9.5883,1.1417 9.4533,1.1877 C9.0413,1.3267 8.5663,1.2817 8.1143,1.3057 C7.4353,1.3407 6.7563,1.3727 5.8013,1.4197" id="Fill-21" fill="#231916" mask="url(#mask-6)"></path>
                </g>
                <path d="M117.6587,41.4637 C118.8227,41.6377 119.6147,41.8337 120.4107,41.8537 C121.2467,41.8747 121.7067,42.0907 121.1767,42.9227 C120.7017,43.6667 120.9107,44.1637 121.3837,44.8057 C121.8527,45.4437 122.1217,46.2317 122.4787,46.9527 C122.3767,47.0387 122.2737,47.1247 122.1727,47.2097 C121.5977,46.6977 121.0047,46.2067 120.4557,45.6687 C119.5527,44.7827 119.2617,44.8387 118.6467,45.9097 C118.4827,46.1957 118.0277,46.3147 117.7067,46.5097 C117.6507,46.0647 117.4077,45.5257 117.5737,45.1897 C118.2277,43.8597 118.2017,43.7207 116.6987,43.7817 C115.6027,43.8257 114.5127,43.9967 113.1587,44.1387 C113.2167,43.8657 113.1767,43.3247 113.3847,43.2007 C114.1557,42.7427 114.9967,42.3907 115.8347,42.0597 C116.5367,41.7807 117.2717,41.5877 117.6587,41.4637" id="Fill-23" fill="#231916"></path>
                <path d="M12.2681,102.1464 C12.2681,99.7384 12.1561,97.3204 12.3401,94.9254 C12.3931,94.2474 13.2591,93.5734 13.8731,93.0364 C14.0341,92.8954 14.8591,93.1604 15.0111,93.4404 C15.2951,93.9584 15.4311,94.6344 15.3841,95.2264 C15.3601,95.5364 14.8511,95.9974 14.5041,96.0544 C13.7071,96.1874 13.6201,96.6504 13.6391,97.2824 C13.6811,98.5974 13.7241,99.9144 13.7391,101.2304 C13.7441,101.6364 13.7801,102.1184 13.5861,102.4314 C13.3431,102.8234 12.8771,103.0774 12.5071,103.3894 C12.2661,103.0094 12.0241,102.6284 11.7831,102.2484 C11.9451,102.2134 12.1071,102.1804 12.2681,102.1464" id="Fill-25" fill="#231916"></path>
                <path d="M95.9878,70.4813 C95.7378,70.0613 95.5318,69.6063 95.2288,69.2293 C94.1268,67.8553 93.6688,67.8613 92.5178,69.1543 C92.1368,69.5833 91.7488,70.0313 91.2788,70.3403 C91.0328,70.5023 90.6008,70.3843 90.2548,70.3923 C90.3288,70.0713 90.2998,69.6503 90.4958,69.4453 C92.0328,67.8363 93.5958,66.2523 95.1978,64.7103 C95.4438,64.4733 95.9308,64.4893 96.3058,64.3873 C96.2918,64.7583 96.2458,65.1313 96.2688,65.5013 C96.2988,65.9533 96.2588,66.4733 96.4698,66.8383 C97.1138,67.9553 96.9868,69.0103 96.5678,70.0893 C96.3748,70.2193 96.1808,70.3503 95.9878,70.4813" id="Fill-27" fill="#231916"></path>
                <path d="M100.2046,39.6591 C99.5316,40.6031 99.9576,41.5581 100.4946,42.5471 C100.6006,42.7421 100.3006,43.1571 100.1866,43.4721 C99.9126,43.3391 99.4706,43.2681 99.3926,43.0621 C99.0286,42.0851 98.5566,41.7731 97.6916,42.5551 C97.5906,42.6461 97.3086,42.7081 97.2436,42.6441 C96.5106,41.9431 95.7876,41.2281 95.1266,40.4621 C95.0876,40.4161 95.5416,39.7671 95.8656,39.6221 C96.5916,39.2961 97.3986,39.1571 98.1366,38.8541 C99.1986,38.4191 100.2136,38.7091 100.2046,39.6591" id="Fill-29" fill="#231916"></path>
                <path d="M101.0415,76.9012 C101.5215,77.1782 101.8285,77.3552 102.1825,77.5592 C102.3725,77.3522 102.5075,77.1392 102.6995,77.0152 C102.9155,76.8782 103.2605,76.6812 103.4095,76.7632 C103.6065,76.8712 103.7615,77.2232 103.7685,77.4752 C103.7825,78.0882 103.5955,78.7202 103.6875,79.3142 C103.8055,80.0892 104.1485,80.8272 104.3285,81.5962 C104.4295,82.0282 104.4795,82.5122 104.3775,82.9292 C104.3345,83.1022 103.6805,83.3392 103.5705,83.2432 C103.2395,82.9522 102.8125,82.5012 102.8295,82.1322 C102.8835,81.0192 102.5395,80.5482 101.3695,80.5742 C100.5395,80.5922 100.0745,80.0512 100.3095,79.1672 C100.4965,78.4592 100.7575,77.7692 101.0415,76.9012" id="Fill-31" fill="#231916"></path>
                <path d="M107.8716,77.0624 C107.7856,79.2874 107.3096,79.9994 105.8576,80.4664 C105.0846,80.7154 104.6076,80.2714 104.6276,79.5364 C104.6486,78.6954 104.9356,77.9654 105.8736,77.5844 C106.3306,77.3994 106.7866,76.9064 106.9546,76.4464 C107.0336,76.2304 106.4966,75.6584 106.1266,75.4334 C105.1816,74.8584 105.2016,74.1424 105.6946,73.3364 C105.8476,73.0874 106.1676,72.7784 106.3986,72.7884 C106.6426,72.7974 107.0186,73.1214 107.0796,73.3714 C107.4266,74.7844 107.6956,76.2164 107.8716,77.0624" id="Fill-33" fill="#231916"></path>
                <path d="M20.5708,150.1737 C20.5708,151.4377 20.5968,152.7007 20.5498,153.9617 C20.5388,154.2287 20.3108,154.5857 20.0798,154.7117 C19.9148,154.8027 19.3978,154.6347 19.3468,154.4797 C19.1278,153.8167 18.7478,153.0277 18.9308,152.4447 C19.3468,151.1217 19.0298,150.0497 18.4048,148.9347 C18.2108,148.5867 18.1478,148.1167 18.1778,147.7147 C18.1908,147.5557 18.7308,147.2497 18.8378,147.3177 C19.1758,147.5317 19.4768,147.8567 19.6958,148.1997 C20.0878,148.8147 20.4078,149.4727 20.7578,150.1127 C20.6958,150.1337 20.6328,150.1527 20.5708,150.1737" id="Fill-35" fill="#231916"></path>
                <path d="M24.2408,101.4325 C24.1578,101.6835 23.9928,101.9885 23.9678,102.3055 C23.9208,102.8705 23.9828,103.4445 23.9528,104.0115 C23.9298,104.4565 23.9788,105.0365 23.7278,105.2975 C23.5368,105.4955 22.7348,105.4495 22.5468,105.2245 C22.3138,104.9485 22.4198,104.3735 22.4098,103.9285 C22.3988,103.4115 22.4488,102.8935 22.4228,102.3775 C22.3678,101.3155 22.2588,100.2555 22.2248,99.1935 C22.2198,99.0045 22.4408,98.7475 22.6258,98.6365 C22.7378,98.5695 23.0968,98.6665 23.1478,98.7795 C23.5298,99.6255 23.8618,100.4945 24.2408,101.4325" id="Fill-37" fill="#231916"></path>
                <path d="M110.1343,45.995 C109.8143,46.092 109.4543,46.125 109.1823,46.296 C108.2303,46.894 107.3333,47.586 106.3603,48.144 C106.0153,48.342 105.5093,48.258 105.0763,48.302 C105.1133,47.841 104.9693,47.163 105.2173,46.957 C106.2153,46.128 107.2933,45.374 108.4233,44.733 C109.1223,44.337 109.5723,44.794 109.6973,45.532 L110.1343,45.995 Z" id="Fill-39" fill="#231916"></path>
                <path d="M9.4195,95.0194 C9.4195,94.4874 9.3405,93.9384 9.4475,93.4284 C9.5165,93.0974 9.8505,92.5844 10.0765,92.5794 C10.4405,92.5694 10.9525,92.8204 11.1525,93.1244 C11.6585,93.8944 11.2775,96.4074 10.6095,97.0694 C10.4045,97.2714 10.0005,97.4884 9.7945,97.4124 C9.5935,97.3364 9.4405,96.9024 9.4205,96.6144 C9.3835,96.0864 9.4595,95.5514 9.4885,95.0204 C9.4655,95.0204 9.4415,95.0194 9.4195,95.0194" id="Fill-41" fill="#231916"></path>
                <path d="M20.9117,94.5712 C20.5967,95.0752 20.4677,95.5262 20.1997,95.6342 C19.9707,95.7272 19.5547,95.4702 19.2687,95.2912 C18.8227,95.0112 18.3447,94.7282 18.0157,94.3332 C17.6367,93.8792 17.2597,93.3252 17.1657,92.7672 C17.1077,92.4252 17.5867,91.9942 17.8237,91.6032 C18.1537,91.8902 18.4867,92.1732 18.8117,92.4662 C19.1887,92.8032 19.5697,93.1372 19.9277,93.4952 C20.2657,93.8342 20.5747,94.2012 20.9117,94.5712" id="Fill-43" fill="#231916"></path>
                <path d="M99.5933,80.2401 C100.2413,80.7471 100.9813,81.1761 101.5143,81.7831 C102.0583,82.4021 101.4603,84.2281 100.6783,84.3771 C100.3633,84.4371 99.6903,84.0281 99.6203,83.7291 C99.3773,82.6801 99.3243,81.5871 99.1993,80.5101 C99.3303,80.4201 99.4623,80.3301 99.5933,80.2401" id="Fill-45" fill="#231916"></path>
                <path d="M58.9165,61.1884 C58.0305,62.1244 56.9785,62.7244 55.5945,62.7394 C54.6435,62.7494 53.5985,62.4124 52.8645,63.4044 C52.7955,63.4984 52.4455,63.5004 52.3325,63.4104 C52.2295,63.3284 52.2005,62.9304 52.2595,62.9004 C53.0405,62.4874 53.3795,61.4164 54.6075,61.5984 C55.3425,61.7084 56.1565,61.2594 56.9385,61.0764 C57.5485,60.9324 58.1625,60.8124 58.7735,60.6814 C58.8215,60.8504 58.8695,61.0194 58.9165,61.1884" id="Fill-47" fill="#231916"></path>
                <path d="M48.7974,70.0975 C49.1934,68.6305 49.0024,67.4745 48.1774,66.4095 C47.9794,66.1545 47.9364,65.6885 47.9994,65.3525 C48.0464,65.1035 48.3774,64.9065 48.5824,64.6855 C48.7444,64.8965 48.9944,65.0835 49.0544,65.3205 C49.4434,66.8405 49.8064,68.3685 50.1384,69.9035 C50.2184,70.2725 50.1894,70.6825 50.1094,71.0525 C50.0944,71.1225 49.4794,71.2095 49.3614,71.0825 C49.0834,70.7835 48.9384,70.3595 48.7974,70.0975" id="Fill-49" fill="#231916"></path>
                <path d="M86.3941,79.913 C87.1681,80.433 86.9081,81.135 86.6241,81.75 C86.2481,82.568 85.8071,83.371 85.2881,84.105 C85.0751,84.407 84.5831,84.514 84.2191,84.709 C84.0951,84.3 83.8851,83.892 83.8741,83.48 C83.8671,83.19 84.0871,82.861 84.2801,82.606 C84.9371,81.733 85.6251,80.887 86.3941,79.913" id="Fill-51" fill="#231916"></path>
                <path d="M46.7017,17.3534 C46.4127,17.1734 46.0867,16.9694 45.7597,16.7664 C45.9917,16.4174 46.1507,15.9624 46.4717,15.7434 C47.0697,15.3324 47.7347,14.9714 48.4257,14.7654 C48.8267,14.6454 49.3817,14.7664 49.7677,14.9684 C50.0107,15.0934 50.0687,15.5714 50.2107,15.8914 C49.8257,16.0544 49.4417,16.2214 49.0557,16.3814 C48.3127,16.6904 47.5697,16.9964 46.7017,17.3534" id="Fill-53" fill="#231916"></path>
                <path d="M6.2486,100.3407 C7.3616,100.5807 8.2436,101.5457 8.1406,102.5307 C8.1046,102.8647 7.6046,103.3607 7.2636,103.4097 C6.3796,103.5397 5.0576,102.4217 5.2356,101.6977 C5.3596,101.1937 5.8956,100.7897 6.2486,100.3407" id="Fill-55" fill="#231916"></path>
                <path d="M124.8716,34.9081 C125.1736,35.3121 125.5106,35.6961 125.7666,36.1281 C126.0936,36.6791 126.4186,37.2481 126.6236,37.8511 C126.7686,38.2781 126.8146,38.8001 126.7026,39.2251 C126.6526,39.4141 125.9546,39.6611 125.8076,39.5481 C125.4646,39.2821 125.2176,38.8411 125.0386,38.4251 C124.7896,37.8411 124.5906,37.2251 124.4586,36.6051 C124.3516,36.1051 124.3766,35.5771 124.3426,35.0611 C124.5186,35.0111 124.6946,34.9591 124.8716,34.9081" id="Fill-57" fill="#231916"></path>
                <path d="M64.2456,47.1053 C63.2916,47.4273 62.5956,47.1323 62.1096,46.2483 C61.8146,45.7133 61.4606,45.2093 61.1956,44.6613 C61.0916,44.4443 61.0486,44.0403 61.1726,43.9103 C61.3246,43.7523 61.7096,43.7023 61.9486,43.7673 C62.9926,44.0523 64.2546,45.9043 64.2456,47.1053" id="Fill-59" fill="#231916"></path>
                <path d="M116.5083,61.9872 C116.0273,61.7242 115.5453,61.4632 115.0643,61.2002 C115.6073,60.7692 116.1073,60.2562 116.7083,59.9332 C117.1483,59.6982 117.7183,59.6802 118.2373,59.6292 C118.5283,59.6002 118.9763,59.5992 119.0903,59.7662 C119.2213,59.9562 119.1513,60.4022 119.0083,60.6412 C118.4753,61.5312 117.6713,61.9492 116.5083,61.9872" id="Fill-61" fill="#231916"></path>
                <path d="M88.1206,155.9305 C88.1956,155.3735 88.1336,154.8545 88.3536,154.5255 C88.5166,154.2825 89.2936,154.1065 89.3746,154.2145 C89.7066,154.6595 90.0736,155.2335 90.0566,155.7455 C90.0336,156.4045 89.6526,157.0495 89.4266,157.7005 C89.1026,157.5875 88.6126,157.5655 88.4926,157.3425 C88.2536,156.9005 88.2196,156.3485 88.1206,155.9305" id="Fill-63" fill="#231916"></path>
                <path d="M10.7281,154.7528 C10.4161,155.2788 10.3101,155.6938 10.0871,155.7708 C9.8701,155.8448 9.4691,155.6408 9.2621,155.4408 C8.7601,154.9558 8.2411,154.4508 7.8951,153.8568 C7.7251,153.5648 7.7931,152.9518 8.0051,152.6798 C8.1581,152.4818 8.9011,152.4368 9.0751,152.6168 C9.6981,153.2638 10.1911,154.0348 10.7281,154.7528" id="Fill-65" fill="#231916"></path>
                <path d="M17.9077,105.4501 C17.9367,103.8261 18.2337,103.6111 19.4767,103.9611 C19.7657,104.0421 20.1167,103.8891 20.4127,103.9591 C20.6927,104.0241 21.0717,104.1871 21.1567,104.4051 C21.2247,104.5821 20.9747,104.9611 20.7717,105.1471 C20.4277,105.4641 20.0357,105.7591 19.6127,105.9511 C19.2437,106.1191 18.7577,106.2821 18.4117,106.1711 C18.1347,106.0821 17.9897,105.5791 17.9077,105.4501" id="Fill-67" fill="#231916"></path>
                <path d="M108.8931,157.0721 C107.4691,156.9621 106.8431,156.2781 107.0501,155.1191 C107.1131,154.7671 107.4981,154.2711 107.8011,154.2191 C108.0991,154.1691 108.5601,154.5331 108.8021,154.8331 C109.0711,155.1671 109.1441,155.6511 109.3541,156.0421 C109.7801,156.8341 109.4511,157.0841 108.8931,157.0721" id="Fill-69" fill="#231916"></path>
                <path d="M16.6743,150.6346 C16.2503,149.9136 15.7973,149.3136 15.5413,148.6386 C15.4133,148.2976 15.5093,147.6536 15.7533,147.4566 C15.9763,147.2786 16.6533,147.3776 16.9243,147.6036 C17.6123,148.1736 17.4563,149.8306 16.6743,150.6346" id="Fill-71" fill="#231916"></path>
                <path d="M16.8228,99.9208 C16.2208,100.5058 15.8428,100.8748 15.4628,101.2438 C15.0968,100.7808 14.5438,100.3648 14.4108,99.8438 C14.2258,99.1158 14.7338,98.4728 15.4968,98.5928 C15.9158,98.6588 16.2418,99.3098 16.8228,99.9208" id="Fill-73" fill="#231916"></path>
                <path d="M127.4331,33.7235 C128.2821,34.4695 129.1441,35.2025 129.9661,35.9775 C130.1041,36.1075 130.1771,36.5605 130.0991,36.6185 C129.8621,36.7905 129.4131,37.0175 129.2661,36.9135 C128.6841,36.5015 128.1151,36.0265 127.6781,35.4675 C127.3701,35.0715 127.2831,34.5015 127.0971,34.0105 C127.2091,33.9145 127.3221,33.8195 127.4331,33.7235" id="Fill-75" fill="#231916"></path>
                <path d="M2.9283,98.535 C3.4293,99.097 4.1283,99.596 4.3463,100.252 C4.4503,100.567 3.6913,101.235 3.2263,101.63 C3.1103,101.729 2.3483,101.392 2.3473,101.253 C2.3413,100.42 2.4713,99.586 2.5563,98.753 C2.6803,98.681 2.8043,98.607 2.9283,98.535" id="Fill-77" fill="#231916"></path>
                <path d="M6.3179,155.4237 C6.2529,155.8857 6.3019,156.4377 6.0749,156.8247 C5.9189,157.0907 5.2939,157.3217 5.0269,157.2117 C4.7759,157.1087 4.5629,156.5137 4.6099,156.1727 C4.7059,155.4807 4.9699,154.8067 5.2029,154.1387 C5.2719,153.9397 5.4669,153.7847 5.6049,153.6117 C5.7809,153.7607 6.0579,153.8807 6.1119,154.0667 C6.2369,154.4907 6.2529,154.9467 6.3179,155.4237" id="Fill-79" fill="#231916"></path>
                <path d="M91.2202,83.7216 C90.9042,84.3046 90.5882,84.8876 90.2722,85.4706 C90.1222,84.8626 89.9552,84.2576 89.8282,83.6446 C89.7542,83.2836 89.6582,82.8916 89.7302,82.5456 C89.7992,82.2106 90.0692,81.9166 90.2502,81.6046 C90.4852,81.8936 90.8102,82.1496 90.9272,82.4796 C91.0442,82.8086 90.9532,83.2126 90.9532,83.5836 L91.2202,83.7216 Z" id="Fill-81" fill="#231916"></path>
                <path d="M128.2993,64.6337 C128.8493,65.2797 129.1903,65.6797 129.5313,66.0797 C129.1113,66.3767 128.7243,66.8377 128.2623,66.9327 C127.5793,67.0717 126.7983,66.8057 126.8953,65.9577 C126.9413,65.5587 127.6323,65.2337 128.2993,64.6337" id="Fill-83" fill="#231916"></path>
                <path d="M104.2642,154.8485 C103.6762,155.3405 103.2852,155.7995 102.7882,156.0045 C102.6352,156.0675 101.8792,155.2725 101.9422,155.1525 C102.2642,154.5365 102.7622,154.0105 103.1992,153.4525 C103.4872,153.8295 103.7752,154.2065 104.2642,154.8485" id="Fill-85" fill="#231916"></path>
                <path d="M22.9556,153.7714 C21.9696,154.4434 21.4336,154.2674 21.2256,153.1264 C21.1386,152.6474 21.0636,152.1514 21.0966,151.6704 C21.1096,151.4564 21.3786,151.1254 21.5726,151.0924 C21.7606,151.0604 22.1156,151.2984 22.1966,151.4994 C22.4936,152.2324 22.7056,153.0004 22.9556,153.7714" id="Fill-87" fill="#231916"></path>
                <path d="M48.9429,62.7382 C48.8389,62.8382 48.4379,63.2452 48.4229,63.2322 C47.7509,62.6132 47.1109,61.9572 46.4669,61.3042 C46.6909,61.1312 46.9049,60.8242 47.1409,60.8052 C47.9669,60.7432 48.9019,61.6732 48.9429,62.7382" id="Fill-89" fill="#231916"></path>
                <path d="M28.7769,99.8407 C28.2769,100.4147 28.0029,100.7307 27.7269,101.0457 C27.2829,100.5017 26.7799,99.9897 26.4489,99.3857 C26.3859,99.2727 27.2069,98.4657 27.2919,98.5177 C27.7889,98.8207 28.1889,99.2847 28.7769,99.8407" id="Fill-91" fill="#231916"></path>
                <path d="M114.8667,83.5409 C114.8687,83.5279 114.9367,83.9329 114.7667,84.1529 C114.5337,84.4559 114.1197,84.6189 113.7827,84.8419 C113.6607,84.5019 113.4377,84.1619 113.439687,83.8219 C113.4417,83.3879 113.5887,82.9399 113.7417,82.5229 C113.8517,82.2219 114.0737,81.9609 114.2467,81.6819 C114.4537,81.9839 114.6937,82.2709 114.8527,82.5979 C114.9327,82.7629 114.8667,82.9989 114.8667,83.5409" id="Fill-93" fill="#231916"></path>
                <path d="M86.3062,76.6805 C85.7112,77.2355 85.2252,77.6875 84.7402,78.1395 C84.4652,77.8375 83.9082,77.3485 83.9632,77.2635 C84.3652,76.6575 84.8902,76.1315 85.3762,75.5805 C85.6152,75.8635 85.8532,76.1445 86.3062,76.6805" id="Fill-95" fill="#231916"></path>
                <path d="M8.9341,101.3378 C9.4941,100.8998 9.8581,100.4318 10.2981,100.3438 C10.5331,100.2978 11.2091,101.0988 11.1531,101.1918 C10.8371,101.7128 10.3571,102.1328 9.9331,102.5868 C9.6601,102.2448 9.3861,101.9028 8.9341,101.3378" id="Fill-97" fill="#231916"></path>
                <path d="M93.5259,156.1014 C93.4629,155.5874 93.3449,155.0744 93.3549,154.5624 C93.3599,154.2764 93.5269,153.8034 93.7109,153.7554 C94.0049,153.6794 94.4669,153.7884 94.6819,153.9974 C94.8929,154.2044 95.0489,154.7224 94.9319,154.9514 C94.6859,155.4314 94.2459,155.8124 93.8839,156.2344 C93.7649,156.1904 93.6459,156.1454 93.5259,156.1014" id="Fill-99" fill="#231916"></path>
                <path d="M49.7056,18.7557 C49.3186,19.0577 48.8816,19.6487 48.5576,19.5917 C48.1026,19.5127 47.7336,18.9507 47.3276,18.5957 C47.5656,18.3487 47.8106,17.8877 48.0396,17.8967 C48.5806,17.9167 49.1146,18.1597 49.6506,18.3127 C49.6696,18.4607 49.6866,18.6087 49.7056,18.7557" id="Fill-101" fill="#231916"></path>
                <g id="编组" transform="translate(0.000000, 99.506000)">
                    <mask id="mask-8" fill="white">
                        <use xlink:href="#path-7"></use>
                    </mask>
                    <g id="Clip-104"></g>
                    <path d="M0.7095,3.0857 C0.4575,2.5837 0.1155,2.1027 0.0015,1.5707 C-0.0375,1.3877 0.6705,0.8327 0.7275,0.8737 C1.1545,1.1867 1.6535,1.5497 1.8235,2.0107 C1.9145,2.2577 1.3975,2.7287 1.1545,3.0977 L0.7095,3.0857 Z" id="Fill-103" fill="#231916" mask="url(#mask-8)"></path>
                </g>
                <path d="M92.5816,83.7362 C92.8076,84.2122 93.2426,84.7082 93.1976,85.1562 C93.1536,85.5912 92.6176,85.9782 92.2976,86.3852 C92.0946,85.9992 91.7436,85.6192 91.7256,85.2232 C91.7016,84.7392 91.9576,84.2422 92.0926,83.7502 C92.2556,83.7452 92.4186,83.7412 92.5816,83.7362" id="Fill-105" fill="#231916"></path>
                <path d="M124.5952,81.7362 C125.0772,81.3622 125.4882,80.9202 125.5932,80.9832 C126.0332,81.2492 126.3832,81.6662 126.7662,82.0272 C126.4282,82.3152 126.0512,82.8682 125.7612,82.8252 C125.3932,82.7712 125.0952,82.2352 124.5952,81.7362" id="Fill-107" fill="#231916"></path>
                <path d="M15.8726,154.8065 C16.2326,154.2705 16.4796,153.9035 16.7266,153.5355 C16.9546,154.0015 17.2876,154.4505 17.3666,154.9405 C17.4096,155.2055 17.0196,155.5415 16.8246,155.8455 C16.5366,155.5315 16.2486,155.2165 15.8726,154.8065" id="Fill-109" fill="#231916"></path>
                <path d="M107.4644,83.2723 C107.1294,83.6783 106.9044,83.9503 106.6814,84.2213 C106.4904,83.8653 106.1614,83.5133 106.1504,83.1513 C106.1374,82.7743 106.4304,82.3873 106.5904,82.0043 C106.8544,82.3873 107.1184,82.7713 107.4644,83.2723" id="Fill-111" fill="#231916"></path>
                <path d="M44.0591,68.9149 C44.5811,69.0759 45.1381,69.1749 45.6141,69.4269 C45.8471,69.5499 45.9281,69.9589 46.0791,70.2389 C45.7221,70.3049 45.2891,70.5279 45.0241,70.4009 C44.5401,70.1699 44.1561,69.7299 43.7291,69.3779 C43.8391,69.2239 43.9491,69.0689 44.0591,68.9149" id="Fill-113" fill="#231916"></path>
                <path d="M112.0415,81.8231 C111.6535,82.2721 111.3725,82.5991 111.0905,82.9261 C110.9105,82.6001 110.5655,82.2611 110.5925,81.9541 C110.6245,81.5871 110.9745,81.2481 111.1865,80.8961 C111.4285,81.1591 111.6705,81.4211 112.0415,81.8231" id="Fill-115" fill="#231916"></path>
                <path d="M119.397,81.6444 C119.75,81.2764 119.992,81.0234 120.235,80.7704 C120.453,81.0994 120.852,81.4344 120.842,81.7564 C120.83,82.1604 120.481,82.5534 120.278,82.9514 C120.012,82.5574 119.747,82.1644 119.397,81.6444" id="Fill-117" fill="#231916"></path>
                <path d="M34.8492,44.7665 C35.0112,45.0845 35.3502,45.4385 35.2952,45.7125 C35.2142,46.1165 34.8522,46.4635 34.6102,46.8345 C34.4222,46.5115 34.0992,46.1955 34.0842,45.8645 C34.0672,45.5065 34.3382,45.1355 34.4842,44.7705 C34.6052,44.7685 34.7272,44.7675 34.8492,44.7665" id="Fill-119" fill="#231916"></path>
                <path d="M47.9927,23.2001 C47.6227,23.1691 47.1967,23.2411 46.8977,23.0801 C46.5877,22.9121 46.3467,22.5431 46.1847,22.2091 C46.1257,22.0861 46.4327,21.6231 46.4787,21.6371 C46.8417,21.7421 47.2727,21.8451 47.5037,22.1061 C47.7557,22.3941 47.8147,22.8511 47.9587,23.2341 L47.9927,23.2001 Z" id="Fill-121" fill="#231916"></path>
                <path d="M108.3257,57.0253 C108.4357,56.5633 108.4837,56.0743 108.6797,55.6523 C108.8017,55.3873 109.1437,55.2253 109.3877,55.0173 C109.5267,55.3623 109.8797,55.8433 109.7627,56.0253 C109.4667,56.4903 108.9607,56.8213 108.5377,57.2063 C108.4677,57.1453 108.3957,57.0853 108.3257,57.0253" id="Fill-123" fill="#231916"></path>
                <path d="M116.4576,57.0712 C116.8246,57.5752 117.2186,57.9312 117.1536,58.0642 C116.9776,58.4272 116.6076,58.6972 116.3136,59.0042 C116.0936,58.7632 115.6646,58.4912 115.6956,58.2922 C115.7516,57.9382 116.0876,57.6292 116.4576,57.0712" id="Fill-125" fill="#231916"></path>
                <path d="M101.9156,163.7831 L101.9156,162.1511 C102.1706,162.1641 102.6446,162.1561 102.6466,162.1911 C102.6946,162.7211 102.6806,163.2561 102.6806,163.7891 L101.9156,163.7831 Z" id="Fill-127" fill="#231916"></path>
                <path d="M24.8316,152.1581 C24.8806,152.6371 24.9286,153.1171 24.9776,153.5961 C24.7246,153.6141 24.4706,153.6311 24.2176,153.6481 L24.2176,152.1911 C24.4226,152.1801 24.6266,152.1701 24.8316,152.1581" id="Fill-129" fill="#231916"></path>
                <path d="M92.1245,78.9471 C91.7505,79.2451 91.4765,79.6041 91.3145,79.5581 C91.0765,79.4921 90.7775,79.1441 90.7685,78.9051 C90.7585,78.6711 91.0765,78.4221 91.2515,78.1791 C91.4945,78.3931 91.7375,78.6071 92.1245,78.9471" id="Fill-131" fill="#231916"></path>
                <path d="M68.8218,80.9296 C68.9598,80.9116 69.0138,80.9216 69.0398,80.8996 C69.5138,80.4816 69.6628,79.2886 70.5088,79.8406 C70.9788,80.1476 70.9968,81.1726 71.1778,81.8846 C71.2238,82.0656 71.1818,82.3436 71.0668,82.4816 C69.9038,83.8606 70.3038,85.4516 70.3118,87.0326 C70.3168,87.9716 69.8528,88.9086 69.6358,89.8536 C69.5198,90.3596 69.4008,90.8866 69.4248,91.3976 C69.4928,92.8836 69.6918,94.3636 68.8468,95.7396 C68.6718,96.0256 68.6848,96.4546 68.6878,96.8186 C68.7008,98.6346 68.7448,100.4506 68.7628,102.2666 C68.7648,102.5506 68.7918,102.9106 68.6398,103.1096 C67.4368,104.6866 67.9438,106.5086 67.8168,108.2466 C67.7568,109.0796 67.4778,109.8946 67.3208,110.7216 C67.1748,111.4896 67.1198,112.2796 66.9028,113.0246 C66.7818,113.4406 66.4648,113.8446 66.1288,114.1256 C66.0138,114.2226 65.3548,113.9706 65.3228,113.8056 C65.2398,113.3766 65.3168,112.8966 65.4248,112.4596 C65.5948,111.7676 65.9758,111.1046 66.0298,110.4106 C66.1318,109.0956 65.9798,107.7596 66.0968,106.4466 C66.1698,105.6386 66.6178,104.8696 66.7618,104.0606 C66.9108,103.2286 66.9468,102.3666 66.9388,101.5186 C66.9298,100.6036 66.8168,99.7216 67.5778,98.9706 C67.7278,98.8226 67.5498,98.1426 67.3288,97.8576 C66.8148,97.1946 66.7718,96.6016 67.2798,95.9496 C67.4058,95.7866 67.5938,95.6266 67.6268,95.4436 C67.9738,93.4926 68.3888,91.5446 68.5938,89.5766 C68.7588,88.0056 68.2778,86.3796 69.3578,84.9166 C69.8328,84.2736 69.2148,83.2896 68.2938,83.2756 C67.0438,83.2546 66.8818,82.5756 66.9108,81.5896 C66.9388,80.5986 66.8188,79.5946 66.9398,78.6166 C67.0038,78.1106 67.4268,77.2556 67.7218,77.2416 C68.6648,77.1966 68.7188,78.0066 68.6628,78.7566 C68.6228,79.2916 68.5498,79.8276 68.5538,80.3636 C68.5558,80.5626 68.7368,80.7596 68.8218,80.9296" id="Fill-133" fill="#231916"></path>
                <path d="M37.7193,118.452 L37.7193,112.098 C37.8983,112.08 38.0763,112.061 38.2553,112.042 C38.3313,112.687 38.3873,113.335 38.4903,113.975 C38.6153,114.752 38.6673,115.564 38.9503,116.284 C39.3853,117.39 38.6373,117.729 37.7193,118.452" id="Fill-135" fill="#231916"></path>
            </g>
        </g>
    </g>
</svg>