<?xml version="1.0" encoding="UTF-8"?>
<svg width="90px" height="116px" viewBox="0 0 90 116" version="1.1" xmlns="http://www.w3.org/2000/svg" xmlns:xlink="http://www.w3.org/1999/xlink">
    <!-- Generator: Sketch 60 (88103) - https://sketch.com -->
    <title>figure57</title>
    <desc>Created with Sketch.</desc>
    <defs>
        <polygon id="path-1" points="0.561230574 0.826 69.659 0.826 69.659 89.2364392 0.561230574 89.2364392"></polygon>
        <polygon id="path-3" points="0 0.5652 65.6761956 0.5652 65.6761956 43.9992 0 43.9992"></polygon>
    </defs>
    <g id="页面-1" stroke="none" stroke-width="1" fill="none" fill-rule="evenodd">
        <g id="29-44" transform="translate(-861.000000, -801.000000)">
            <g id="figure57" transform="translate(861.000000, 800.000000)">
                <g id="编组" transform="translate(20.000000, 0.174000)">
                    <mask id="mask-2" fill="white">
                        <use xlink:href="#path-1"></use>
                    </mask>
                    <g id="Clip-2"></g>
                    <path d="M4.9419,54.3746 C5.0679,54.3826 5.1949,54.3916 5.3209,54.3996 L5.3209,52.9266 C5.2199,52.9236 5.1199,52.9196 5.0189,52.9166 C4.9939,53.4026 4.9669,53.8886 4.9419,54.3746 L4.9419,54.3746 Z M22.4209,47.6736 C22.4839,47.5406 22.5479,47.4076 22.6119,47.2746 L21.6449,46.6626 C21.5939,46.8656 21.4489,47.2056 21.5099,47.2486 C21.7809,47.4376 22.1119,47.5396 22.4209,47.6736 L22.4209,47.6736 Z M9.1579,31.6266 C9.3199,31.6116 9.4809,31.5976 9.6429,31.5816 C9.6019,31.0926 9.5609,30.6026 9.5199,30.1126 C9.3719,30.1226 9.2219,30.1336 9.0739,30.1446 C9.1019,30.6386 9.1289,31.1326 9.1579,31.6266 L9.1579,31.6266 Z M41.3829,42.4936 C41.8439,42.9276 42.1719,43.2346 42.5729,43.6096 C42.7839,42.4716 42.5759,42.2596 41.3829,42.4936 L41.3829,42.4936 Z M30.8959,86.5386 C29.9719,86.3526 29.5879,86.8066 29.2029,87.4376 C30.0769,87.6366 30.2169,87.5606 30.8959,86.5386 L30.8959,86.5386 Z M14.0469,53.6856 C14.1369,53.6806 14.2269,53.6766 14.3169,53.6726 L14.3169,51.4586 C14.2269,51.4576 14.1369,51.4566 14.0469,51.4566 L14.0469,53.6856 Z M4.7669,54.9406 C4.6229,54.9306 4.4769,54.9186 4.3329,54.9066 C4.2979,55.6536 4.2639,56.4016 4.2289,57.1486 C4.3419,57.1546 4.4559,57.1616 4.5689,57.1676 C5.0829,56.4616 4.6569,55.6806 4.7669,54.9406 L4.7669,54.9406 Z M2.8649,39.8646 L2.5689,39.7036 C1.5639,40.1686 1.3029,40.7456 1.9499,41.4316 C2.2709,40.8826 2.5679,40.3736 2.8649,39.8646 L2.8649,39.8646 Z M10.1099,32.2076 C9.7249,32.6116 8.8439,32.6886 9.1839,33.5396 C9.2519,33.7076 9.7139,33.8936 9.8759,33.8166 C10.6249,33.4636 10.2439,32.8236 10.1099,32.2076 L10.1099,32.2076 Z M14.2419,26.1856 C14.3379,26.1416 14.4359,26.0976 14.5329,26.0546 C14.1969,25.3276 13.8609,24.6006 13.4779,23.7746 C12.8919,24.8616 13.1569,25.5696 14.2419,26.1856 L14.2419,26.1856 Z M20.8579,8.9006 C20.9629,8.9076 21.0689,8.9136 21.1729,8.9206 C21.3699,8.1566 21.5649,7.3926 21.8199,6.3956 C21.4329,6.5616 20.9199,6.6546 20.8979,6.8126 C20.8059,7.4986 20.8579,8.2036 20.8579,8.9006 L20.8579,8.9006 Z M10.3559,46.5936 C9.3899,46.4676 7.6579,47.7906 7.6929,48.4226 C7.7009,48.5676 8.1409,48.8326 8.1619,48.8126 C8.8659,48.1356 9.5439,47.4296 10.3559,46.5936 L10.3559,46.5936 Z M42.9329,41.6126 L43.3139,41.2936 C43.6369,40.5296 43.0179,40.0936 42.5569,39.8006 C42.1929,39.5686 41.5639,39.5846 41.1099,39.7056 C40.5769,39.8476 40.1049,40.2226 39.4719,40.5706 C40.0169,41.0896 40.5549,41.6026 41.0919,42.1136 C41.1699,42.0646 41.2459,42.0176 41.3229,41.9686 C41.3029,41.6396 41.2369,41.3046 41.2789,40.9826 C41.3109,40.7306 41.4259,40.4366 41.6069,40.2806 C41.6849,40.2126 42.0859,40.3876 42.2269,40.5496 C42.5049,40.8676 42.7029,41.2546 42.9329,41.6126 L42.9329,41.6126 Z M6.0669,55.8756 C7.0419,56.0326 7.5029,55.0206 7.9279,54.3926 C8.3079,53.8326 8.1469,52.9066 8.2299,52.0916 C7.5549,52.3816 7.0849,52.5316 6.6769,52.7836 C6.5079,52.8886 6.4259,53.2036 6.3889,53.4366 C6.2679,54.1876 6.1859,54.9446 6.0669,55.8756 L6.0669,55.8756 Z M23.9149,17.9286 C24.4329,17.1716 23.7959,16.8486 23.4529,16.4676 C23.0749,16.0456 22.8999,16.5096 22.6379,16.6946 C22.1709,17.0246 21.6549,17.2816 21.1809,17.6036 C21.0389,17.6996 20.9249,17.8956 20.8769,18.0666 C20.7029,18.6916 20.5609,19.3266 20.3829,20.0576 C20.5559,20.3546 20.8189,20.8106 21.0529,21.2136 C21.3619,20.3556 21.7079,19.5216 21.9619,18.6616 C22.2539,17.6706 23.0529,17.3016 23.9149,17.9286 L23.9149,17.9286 Z M13.0939,51.0556 C12.9349,50.9366 12.7159,50.6476 12.5439,50.6736 C12.3089,50.7086 12.0109,50.9426 11.9199,51.1656 C11.7539,51.5736 11.7359,52.0396 11.6229,52.4736 C11.4989,52.9496 11.3169,53.4116 11.1959,53.8896 C11.0779,54.3506 11.0229,54.8266 10.9069,55.2876 C10.7999,55.7106 10.5839,56.1136 10.5309,56.5396 C10.4209,57.4246 10.7179,58.3846 9.9209,59.1276 C9.7989,59.2396 9.8329,59.6416 9.9369,59.8296 C10.0129,59.9656 10.3729,60.0716 10.5219,60.0046 C10.7059,59.9226 10.8599,59.6616 10.9209,59.4486 C10.9879,59.2096 10.9209,58.9366 10.9399,58.6796 C10.9819,58.1116 10.8429,57.3936 11.1359,57.0126 C11.6599,56.3346 11.6269,55.6426 11.6289,54.9106 C11.6309,54.2176 11.6839,53.5996 12.1879,53.0016 C12.6019,52.5096 12.7609,51.8026 13.0939,51.0556 L13.0939,51.0556 Z M50.2949,46.2826 C49.7919,45.4306 49.3459,45.0256 48.5809,45.1056 C47.9539,45.1726 47.5229,44.9866 47.4799,44.2496 C47.4689,44.0776 47.2579,43.8796 47.0919,43.7636 C46.5969,43.4196 46.0859,43.0986 45.5669,42.7916 C44.9419,42.4236 44.3029,42.0786 43.6709,41.7246 C43.5999,41.7826 43.5299,41.8416 43.4599,41.9006 C43.6099,42.2306 43.6759,42.6616 43.9259,42.8746 C45.0709,43.8496 45.8859,45.1296 47.3769,45.8176 C48.3569,46.2706 49.1659,46.1826 50.2949,46.2826 L50.2949,46.2826 Z M66.0009,71.3686 C65.8139,71.4996 65.6689,71.5456 65.6469,71.6246 C65.3859,72.5846 64.7499,73.4376 64.9219,74.5306 C64.9669,74.8126 64.5989,75.1426 64.4979,75.4736 C64.3999,75.7886 64.4029,76.1356 64.3619,76.4686 C64.6809,76.4576 65.0139,76.5026 65.3149,76.4236 C65.8069,76.2946 66.2669,76.0296 66.7619,75.9266 C67.2699,75.8196 68.3659,74.1476 68.1619,73.6746 C68.1399,73.6236 68.1159,73.5606 68.0729,73.5306 C67.6399,73.2406 67.1919,72.9736 66.7749,72.6636 C66.5469,72.4956 66.3379,72.2816 66.1819,72.0466 C66.0739,71.8836 66.0709,71.6496 66.0009,71.3686 L66.0009,71.3686 Z M21.7669,39.6856 C21.6639,39.6976 21.5609,39.7096 21.4579,39.7226 C21.7539,40.9236 21.5469,41.9946 20.8369,42.9366 C20.8219,42.9556 20.8229,42.9946 20.8299,43.0206 C21.0379,43.8916 20.4799,44.3966 19.9389,44.9176 C19.4039,45.4336 18.8379,45.9256 18.3739,46.4996 C18.1899,46.7266 18.2469,47.1466 18.1939,47.4786 C18.4879,47.4866 18.9209,47.6256 19.0549,47.4826 C20.3359,46.1206 22.0259,45.1106 22.7529,43.2586 C22.8219,43.0836 23.0589,42.9236 23.2529,42.8586 C24.0839,42.5826 24.4099,41.6766 23.7679,41.0596 C23.1919,40.5066 22.4409,40.1366 21.7669,39.6856 L21.7669,39.6856 Z M22.6429,39.0046 C22.5959,38.8316 22.6129,38.3976 22.4129,38.2406 C21.5409,37.5586 20.6369,36.8976 19.4609,36.8136 C19.0109,36.7826 18.5429,36.7506 18.1249,36.6026 C17.1729,36.2656 16.2739,35.6556 15.3039,35.5296 C14.2959,35.3996 13.1299,35.1146 12.2149,36.0286 C12.0819,36.1626 11.7859,36.1696 11.5639,36.1726 C10.4589,36.1896 9.6249,36.8216 8.8329,37.4586 C8.5969,37.6466 8.6369,38.1776 8.5499,38.5516 C8.9119,38.4866 9.2959,38.4826 9.6269,38.3456 C10.3659,38.0376 11.0609,37.4126 11.8029,37.3636 C13.9429,37.2246 16.0979,37.2746 18.2469,37.3246 C18.6809,37.3356 19.1649,37.5946 19.5269,37.8696 C20.0809,38.2896 20.5479,38.8226 21.0529,39.3086 C21.0779,39.2066 21.1019,39.1056 21.1279,39.0046 L22.6429,39.0046 Z M17.7409,6.2766 C17.8169,6.0656 17.8659,5.9676 17.8879,5.8626 C18.1239,4.7356 17.2799,4.2046 16.6559,3.5046 C15.9449,2.7076 15.2149,2.2136 14.0789,2.3536 C13.2029,2.4636 12.3019,2.3536 11.4149,2.3956 C11.0939,2.4106 10.7799,2.5786 10.4659,2.6886 C10.1309,2.8076 9.8059,2.9626 9.4649,3.0606 C9.1949,3.1366 8.8719,3.0816 8.6299,3.2026 C7.6979,3.6706 6.7879,4.1866 5.8179,4.7116 C6.1129,5.3286 6.5859,5.7006 7.3359,5.6026 C8.1879,5.4906 8.5529,6.1256 8.9479,6.6656 C9.1229,6.9026 9.1359,7.2576 9.2229,7.5596 C9.3329,7.5556 9.4429,7.5506 9.5519,7.5466 C9.5729,7.2216 9.6329,6.8926 9.6049,6.5716 C9.5459,5.9196 9.7869,5.5666 10.4639,5.6106 C11.5109,5.6796 12.6359,5.2796 13.5669,6.2426 C13.6419,6.0016 13.6719,5.8686 13.7239,5.7456 C13.8239,5.5046 13.9349,5.2676 14.0419,5.0286 C14.2719,5.1626 14.5109,5.2836 14.7299,5.4336 C14.8449,5.5126 14.9359,5.6336 15.0199,5.7486 C15.3269,6.1706 15.5789,6.2826 16.0489,5.8576 C16.2569,5.6706 16.7979,5.8066 17.1749,5.8706 C17.3589,5.9016 17.5129,6.1056 17.7409,6.2766 L17.7409,6.2766 Z M8.7059,32.4366 C8.8089,32.3026 8.9129,32.1686 9.0169,32.0346 C8.6639,31.8086 8.2569,31.6346 7.9749,31.3416 C7.7439,31.1006 7.5349,30.7176 7.5359,30.3976 C7.5369,29.8506 7.4749,29.4316 7.0349,29.0246 C6.8429,28.8476 6.8409,28.3116 6.9539,28.0146 C7.0239,27.8276 7.5069,27.6466 7.7329,27.7126 C7.9809,27.7846 8.1639,28.1306 8.3379,28.3816 C8.4499,28.5406 8.4959,28.7446 8.5709,28.9286 C8.6619,28.9196 8.7529,28.9106 8.8439,28.9006 C8.8799,28.5966 8.9479,28.2916 8.9429,27.9866 C8.9329,27.4136 8.8519,26.8406 8.8659,26.2696 C8.8709,26.0846 9.0489,25.8666 9.2099,25.7416 C9.2799,25.6866 9.6019,25.7846 9.6379,25.8786 C9.9259,26.6326 10.2359,27.3876 10.4139,28.1706 C10.5629,28.8306 10.4329,29.5636 10.6289,30.2046 C10.9549,31.2716 11.4699,32.2796 11.8479,33.3346 C12.0659,33.9406 12.7539,34.5726 13.2649,34.4986 C13.7459,34.4296 14.8109,33.3216 14.9639,32.6716 C14.0929,32.7346 13.1879,32.8306 12.6699,31.9336 C12.3119,31.3136 11.9829,30.6756 11.6859,30.0256 C11.2539,29.0816 10.8289,28.1356 10.9879,27.0386 C11.0129,26.8616 10.8089,26.6326 10.6729,26.4566 C10.0769,25.6826 10.0989,24.9346 10.7519,24.1676 C11.0789,23.7836 11.1809,23.3936 10.6369,23.1206 C10.1949,22.8996 9.7239,22.7366 9.2439,22.5386 C8.6929,23.0906 7.5319,23.0986 7.5109,24.2616 C7.5099,24.2996 7.4149,24.3286 7.3889,24.3756 C7.0389,25.0316 6.6969,25.6916 6.3439,26.3466 C5.9019,27.1656 5.5009,28.0126 4.9919,28.7876 C4.3689,29.7376 3.6429,30.6206 2.9869,31.5506 C2.8839,31.6946 2.8909,31.9336 2.8899,32.1286 C2.8849,32.7876 2.8879,33.4476 2.9109,34.1066 C2.9299,34.6636 2.8679,35.1196 2.4189,35.5776 C2.0059,35.9986 2.0199,36.6416 2.4299,37.2796 C3.0339,36.6826 3.5279,36.0786 4.1379,35.6356 C4.4629,35.4006 5.1679,35.2276 5.3879,35.4076 C5.8999,35.8286 5.2889,36.1196 5.0089,36.3936 C4.1149,37.2696 3.9699,39.1196 4.6899,40.1756 C4.8019,40.3396 4.7859,40.6426 4.7329,40.8566 C4.6269,41.2976 4.3529,41.7176 4.3309,42.1546 C4.2629,43.4436 4.2859,44.7376 4.2709,46.0296 C4.2659,46.5126 5.3309,48.0426 5.7789,48.1686 C5.8759,48.1956 6.0439,48.1896 6.0929,48.1306 C6.5539,47.5666 7.7009,47.7026 7.6499,46.6016 C7.6439,46.4836 7.8559,46.3366 7.9919,46.2346 C8.7619,45.6516 9.5299,45.0616 10.3249,44.5146 C10.5099,44.3876 10.7999,44.4126 11.0419,44.3676 C10.9759,44.6066 10.9869,44.9426 10.8299,45.0686 C10.4219,45.3976 10.3399,45.7156 10.6259,46.2456 C11.1429,45.6976 11.6569,45.5026 12.1689,46.2156 C12.4569,45.9056 12.7159,45.6776 12.9149,45.4036 C13.3149,44.8536 13.6859,44.8566 14.0469,45.4176 C14.2629,45.7516 14.4489,46.1056 14.6889,46.5216 C15.1599,45.9976 15.2979,45.7076 15.5059,45.6446 C15.7769,45.5616 16.1099,45.6266 16.3979,45.7006 C16.4849,45.7236 16.5989,46.0656 16.5459,46.1266 C16.3939,46.2986 16.1709,46.5006 15.9629,46.5156 C14.9869,46.5836 15.3379,47.3166 15.3239,47.8116 C15.3189,47.9786 15.6619,48.2836 15.8579,48.2946 C16.0549,48.3056 16.3199,48.0656 16.4639,47.8696 C16.8069,47.4016 17.1049,46.9006 17.4029,46.4016 C17.5669,46.1266 17.7829,45.8336 17.7959,45.5406 C17.8009,45.4196 17.3189,45.3046 17.0979,45.1346 C16.8999,44.9826 16.7549,44.7606 16.5879,44.5686 C16.7829,44.4356 17.0149,44.1566 17.1659,44.1956 C17.5719,44.3026 17.9429,44.5426 18.3779,44.7536 C18.4209,44.7246 18.5519,44.6846 18.6009,44.5976 C18.8979,44.0646 19.1649,43.5156 19.4629,42.9836 C19.8179,42.3536 20.2239,41.7516 20.5409,41.1036 C20.6269,40.9276 20.5529,40.5546 20.4119,40.4016 C19.2989,39.1926 18.3059,37.8126 16.2759,38.2396 C14.8689,38.5356 13.3019,37.7946 11.9869,38.8696 C11.8609,38.9726 11.5939,38.8946 11.3949,38.9166 C11.1689,38.9406 10.9119,38.9246 10.7239,39.0276 C9.5369,39.6826 8.3769,40.3676 7.5159,41.4706 C7.0309,42.0926 6.8999,44.2016 7.3269,44.8646 C7.4649,45.0816 7.3969,45.4316 7.4239,45.7196 C7.0199,45.6216 6.2699,45.5416 6.2649,45.4246 C6.1949,43.9776 6.2209,42.5236 6.2619,41.0736 C6.2659,40.9316 6.5329,40.7976 6.6719,40.6546 C7.1709,40.1476 7.6689,39.6386 8.1669,39.1296 C8.1139,39.0256 8.0609,38.9226 8.0089,38.8186 C7.2469,38.9386 6.4829,39.0506 5.7219,39.1856 C5.4629,39.2306 5.2139,39.3356 4.9619,39.4126 C5.0699,39.1396 5.1659,38.8586 5.2919,38.5936 C5.4589,38.2386 5.8659,37.8376 5.7909,37.5586 C5.5529,36.6776 5.5439,36.5356 6.4699,36.6326 C7.6289,36.7516 8.4889,36.1666 9.5709,35.6596 C9.0629,35.4386 8.5569,35.3746 8.3659,35.0946 C8.1529,34.7836 8.2589,34.2686 8.1589,33.8586 C8.1089,33.6566 7.8989,33.4976 7.7719,33.3126 C7.4599,32.8536 7.5679,32.5636 8.1299,32.4816 C8.3199,32.4546 8.5129,32.4506 8.7059,32.4366 L8.7059,32.4366 Z M27.7819,16.8716 C27.7469,17.2826 27.7119,17.5426 27.7049,17.8046 C27.6859,18.4906 27.9599,19.4266 27.6129,19.8146 C26.7609,20.7746 27.1379,21.8046 27.0319,22.8116 C27.0039,23.0806 26.8719,23.3396 26.7829,23.6026 C26.6359,24.0326 26.4569,24.4536 26.3469,24.8936 C26.2269,25.3756 26.2319,25.8956 26.0729,26.3616 C25.7339,27.3556 25.2299,28.3026 24.9799,29.3136 C24.8519,29.8296 24.8499,30.2896 24.4709,30.7706 C24.0269,31.3356 23.9679,32.2036 23.5249,32.7716 C22.9709,33.4806 23.1709,34.8126 21.7829,34.8956 C21.4959,34.9116 21.2379,35.4156 20.9659,35.6946 C21.2919,35.9906 21.5959,36.3166 21.9519,36.5696 C22.1709,36.7256 22.5889,36.6886 22.7149,36.8756 C23.4529,37.9666 24.5119,38.0606 25.6709,37.9636 C26.0689,37.9316 26.4879,37.9066 26.8709,37.9946 C27.1249,38.0536 27.3309,38.3186 27.5569,38.4906 C27.3259,38.6446 27.0999,38.9136 26.8599,38.9286 C25.9729,38.9826 25.0779,38.9166 24.1919,38.9796 C23.9759,38.9956 23.7829,39.3316 23.5789,39.5206 C23.7589,39.6956 23.9239,39.8936 24.1249,40.0426 C24.3789,40.2326 24.7959,40.3226 24.9099,40.5646 C25.3379,41.4776 24.6669,44.3156 23.9899,45.0376 C23.7809,45.2606 23.7169,45.6496 23.6709,45.9746 C23.6629,46.0436 24.1089,46.2936 24.1879,46.2366 C24.4229,46.0686 24.5879,45.7966 24.7689,45.5556 C25.0529,45.1766 25.2849,44.7386 25.6329,44.4356 C25.7469,44.3346 26.1529,44.5776 26.4289,44.6496 C26.5329,44.6776 26.6999,44.7156 26.7489,44.6636 C27.4539,43.9216 28.4269,43.2746 28.7739,42.3866 C29.3759,40.8456 28.2849,39.3576 28.0879,37.8166 C28.0759,37.7126 27.7539,37.6646 27.5979,37.5576 C27.3649,37.3956 27.1519,37.2026 26.9289,37.0236 C27.1399,36.8756 27.3609,36.7396 27.5579,36.5756 C27.7679,36.4016 27.9729,36.2176 28.1459,36.0086 C28.3109,35.8086 28.4159,35.5576 28.5879,35.3656 C28.6169,35.3356 28.9669,35.4806 28.9869,35.5806 C29.0429,35.8696 29.0769,36.1996 28.9839,36.4676 C28.9019,36.7026 28.6369,36.8756 28.3699,37.1676 C29.7389,37.8366 29.9239,38.9706 29.8419,40.2426 C29.7919,41.0436 29.8519,41.8526 29.7999,42.6526 C29.7609,43.2596 30.0059,43.4136 30.5789,43.4976 C31.4289,43.6226 31.8279,43.0646 32.2999,42.5876 C33.4009,41.4766 34.6339,40.6996 36.2819,40.7286 C36.6289,40.7346 37.0069,40.4796 37.3279,40.2756 C37.7279,40.0206 38.0419,39.5786 38.4669,39.4206 C39.2889,39.1136 40.0039,38.4496 40.9849,38.6006 C41.1009,38.6176 41.2619,38.4196 41.3839,38.3016 C41.8379,37.8636 42.3309,37.4556 42.7199,36.9666 C43.4119,36.1006 44.0439,35.1866 44.6849,34.2816 C44.7589,34.1776 44.7809,33.9986 44.7559,33.8666 C44.4429,32.1776 45.3279,30.3616 44.1109,28.7496 C43.3879,27.7916 42.9889,26.5686 42.1939,25.6916 C41.2099,24.6046 40.2409,23.5206 38.8099,22.8016 C37.2739,22.0276 36.0459,20.6386 34.7039,19.4926 C34.2049,19.0656 33.7249,18.6016 33.3109,18.0936 C32.9159,17.6076 32.4389,17.5676 31.8729,17.5206 C30.5429,17.4126 29.1209,17.9876 27.7819,16.8716 L27.7819,16.8716 Z M69.6599,80.3296 C69.2929,80.5636 68.8869,80.7556 68.5659,81.0426 C68.0119,81.5376 67.5799,82.2016 66.9649,82.5876 C66.4909,82.8856 65.7209,83.1056 65.2559,82.9226 C64.7449,82.7206 64.1849,82.0606 64.0879,81.5206 C63.9509,80.7486 63.7159,79.7866 64.6309,79.1606 C64.7529,79.0786 64.7899,78.7006 64.7099,78.5326 C64.4529,77.9936 64.1239,77.4886 63.7939,76.9206 C63.7089,77.0146 63.5799,77.0966 63.5399,77.2096 C63.2169,78.1266 62.6309,78.5056 61.7969,78.1426 C61.0699,77.8246 60.3749,77.3856 59.7609,76.8816 C59.4629,76.6376 59.2569,76.1296 59.2379,75.7286 C59.2049,75.0586 59.0399,74.7386 58.2989,74.7246 C57.8929,74.7166 57.4909,74.4336 57.0889,74.2706 C57.0389,74.2496 57.0049,74.1796 56.9549,74.1666 C55.8239,73.8986 54.6829,73.6646 53.5619,73.3626 C52.7639,73.1476 51.9849,72.8566 51.2119,72.5646 C51.1159,72.5286 51.0209,72.2376 51.0699,72.1296 C51.1379,71.9746 51.3549,71.7626 51.4839,71.7766 C52.5809,71.9046 53.7169,71.4466 54.7909,72.2586 C55.2489,72.6046 56.1219,72.3696 56.7919,72.4816 C57.2389,72.5576 57.6549,72.8016 58.0969,72.9286 C58.4689,73.0356 58.8569,73.1366 59.2409,73.1466 C59.8569,73.1626 60.1959,73.4426 60.1119,74.0426 C59.9499,75.2106 60.9159,75.6676 61.5129,76.3496 C61.5809,76.4266 61.9449,76.3566 62.0759,76.2436 C62.4639,75.9076 62.9249,75.5726 63.1369,75.1326 C63.5149,74.3436 63.8809,73.4936 63.9779,72.6386 C64.1269,71.3326 64.0659,70.0006 64.0399,68.6806 C64.0339,68.3796 63.8129,68.0786 63.6729,67.7866 C63.6009,67.6366 63.4069,67.5046 63.4079,67.3666 C63.4179,66.5616 62.9179,66.5646 62.2919,66.4376 C61.5019,66.2776 60.6779,65.9456 60.0409,65.4616 C59.4509,65.0136 58.7589,64.9696 58.3759,65.2366 C57.6899,65.7146 57.2029,66.4826 56.6569,67.1496 C56.3409,67.5356 56.1509,68.0736 55.7639,68.3396 C55.2609,68.6846 55.0569,68.2566 55.0459,67.7826 C55.0339,67.1656 55.0439,66.5476 55.0439,65.6406 C54.5479,66.1236 54.1959,66.4236 53.8979,66.7706 C53.4869,67.2486 52.9729,67.3576 52.5449,66.9626 C52.1009,66.5536 52.2929,66.0926 52.6569,65.6036 C53.0959,65.0156 53.3659,64.3006 53.7069,63.6406 C53.7179,63.6166 53.7189,63.5826 53.7139,63.5556 C53.5879,62.8686 55.0199,62.5466 54.2359,61.8146 C53.6329,61.2536 53.9039,60.5826 53.6599,60.0466 C53.3689,59.4046 52.6749,58.9596 52.2489,58.3636 C51.7699,57.6966 51.3899,56.9576 50.9739,56.2466 C50.7669,55.8926 50.6339,55.4756 50.3639,55.1826 C49.5099,54.2556 48.5939,53.3866 47.7299,52.4696 C47.4109,52.1306 47.2339,52.1226 46.8169,52.4016 C46.1809,52.8286 45.4209,53.0696 44.7149,53.3956 C44.1889,53.6386 43.6529,53.8646 43.1449,54.1436 C42.5169,54.4886 41.9559,55.0186 41.2899,55.2196 C40.3429,55.5046 39.6189,56.3356 38.4689,56.1716 C37.4279,56.0226 36.3489,56.1416 35.2869,56.1396 C34.6619,56.1386 34.1389,55.9706 33.5449,55.6766 C32.9179,55.3676 31.9839,55.6746 31.1849,55.7316 C31.0969,55.7386 31.0329,55.9226 30.9349,55.9546 C30.0209,56.2546 29.1199,56.6646 28.1799,56.7976 C26.8649,56.9826 26.1449,56.1866 26.1599,54.8316 C26.1619,54.6106 26.0639,54.3886 25.9849,54.0456 C25.2439,54.6336 24.9209,55.1526 24.9359,56.0096 C24.9989,59.8556 24.9549,63.7036 25.0039,67.5516 C25.0089,67.9356 25.3149,68.3996 25.6189,68.6756 C26.1739,69.1816 26.4749,69.7326 26.3609,70.4776 C26.2389,71.2756 26.5579,71.8726 27.1819,72.3256 C27.6769,72.6856 27.8409,73.0136 27.2629,73.4686 C27.1089,73.5906 26.9889,73.9726 27.0659,74.1356 C27.3699,74.7826 27.7709,75.3836 28.1079,76.0166 C28.2489,76.2806 28.3959,76.5806 28.4079,76.8696 C28.4519,78.0176 28.4389,79.1666 28.4569,80.3146 C28.4669,81.0666 28.3679,81.7736 28.9449,82.4896 C29.2819,82.9066 29.0689,83.7576 29.1309,84.4096 C29.1709,84.8356 28.8609,85.6166 29.6399,85.4736 C30.1369,85.3816 30.7869,84.8036 30.9099,84.3256 C31.0679,83.7076 31.0049,83.0856 31.5039,82.5346 C31.7109,82.3066 31.5599,81.7656 31.5969,81.3696 C31.6399,80.9226 31.3749,80.1976 32.0659,80.1866 C32.8479,80.1746 32.5689,80.9396 32.5819,81.4006 C32.6069,82.3176 32.5719,83.2376 32.5469,84.1556 C32.5429,84.3516 32.5179,84.5666 32.4289,84.7346 C32.2639,85.0456 31.6779,85.2516 32.2039,85.7006 C32.4029,85.8706 32.8379,86.1136 32.8779,86.0686 C33.2019,85.7016 33.5749,85.3076 33.7019,84.8556 C33.8359,84.3796 33.6559,83.8236 33.7229,83.3176 C33.7799,82.8966 33.9329,82.4566 34.1609,82.1016 C34.4419,81.6626 34.4909,81.3206 34.0779,80.9756 C33.7129,80.6686 33.7209,80.3886 34.0459,80.0316 C34.2219,79.8396 34.2509,79.5206 34.3919,79.2856 C34.4979,79.1106 34.6779,78.9796 34.8249,78.8296 C34.9879,78.9996 35.2719,79.1576 35.2909,79.3426 C35.3539,79.9686 35.3149,80.6036 35.3329,81.2336 C35.3379,81.4596 35.3189,81.7416 35.4399,81.8976 C36.5829,83.3716 35.7589,85.0546 35.9519,86.6246 C35.9709,86.7836 35.6909,86.9716 35.5709,87.1586 C35.2269,87.6906 34.9069,88.2376 34.5509,88.7616 C34.4329,88.9356 34.2439,89.1666 34.0719,89.1806 C33.4449,89.2296 32.7929,89.2866 32.1899,89.1576 C31.9529,89.1066 31.7579,88.5926 31.6559,88.2556 C31.5669,87.9666 31.6369,87.6286 31.6369,87.0746 C31.1379,87.5136 30.8329,87.7536 30.5589,88.0256 C29.5919,88.9876 28.6289,88.7876 28.1349,87.5436 C27.9929,87.1856 27.7029,86.8886 27.5239,86.5406 C27.4529,86.4006 27.5019,86.2016 27.4919,86.0296 C27.4489,85.2546 28.2069,84.6216 27.5799,83.6556 C27.1689,83.0236 27.4659,81.9256 27.4619,81.0346 C27.4569,80.1456 27.5979,79.2306 27.4369,78.3716 C27.2899,77.5816 26.8319,76.8486 26.4939,76.0976 C26.4269,75.9476 26.1849,75.8196 26.1969,75.7006 C26.3339,74.3666 25.1819,73.3586 25.3739,71.9546 C25.5469,70.6846 24.8409,69.5746 23.9109,68.7086 C23.4729,68.3006 23.2869,68.0456 23.7849,67.5286 C23.9579,67.3496 23.8539,66.8396 23.7809,66.5016 C23.6959,66.1066 23.3869,65.7376 23.3819,65.3546 C23.3509,63.0286 23.3819,60.7026 23.3819,58.3766 C23.3819,58.1536 23.3969,57.8176 23.2689,57.7266 C22.3729,57.0916 22.7269,56.1676 22.6929,55.3496 C22.6829,55.1126 22.8609,54.7476 23.0569,54.6476 C23.7669,54.2866 24.5209,54.0126 25.3139,53.6826 C25.2319,53.5286 25.1899,53.3506 25.0779,53.2546 C24.4309,52.7046 23.8399,52.1576 24.0549,51.1646 C24.0919,50.9946 23.7809,50.7646 23.6729,50.5406 C23.5929,50.3756 23.4919,50.1136 23.5649,50.0066 C23.6699,49.8516 23.9179,49.7316 24.1149,49.7146 C24.6289,49.6706 25.4079,50.4856 25.6459,51.0266 C26.0199,51.8796 26.5089,52.6826 26.9599,53.5006 C27.2099,53.9566 27.4959,54.3926 27.7379,54.8516 C28.0209,55.3886 28.3789,55.2556 28.8089,55.0536 C29.2489,54.8476 29.7109,54.6326 30.1829,54.5646 C30.7979,54.4776 31.3959,54.5606 31.9219,54.0306 C32.3599,53.5926 34.7699,53.8636 35.2839,54.2326 C35.5189,54.4006 35.8389,54.5136 36.1289,54.5306 C36.8429,54.5726 37.5669,54.5886 38.2799,54.5266 C38.6429,54.4956 38.9939,54.2826 39.3429,54.1366 C39.4979,54.0716 39.6379,53.8906 39.7809,53.8956 C41.0389,53.9336 41.9609,53.1936 42.9849,52.6326 C43.7449,52.2156 44.7089,52.1656 45.4609,51.7386 C46.6319,51.0736 47.7419,50.2776 48.7899,49.4296 C49.1279,49.1546 49.1879,48.5396 49.3549,48.1306 C48.1959,47.6756 46.9879,47.2006 45.7139,46.7006 C44.8879,47.4406 44.7739,47.4406 43.8419,46.5346 C43.0829,45.7956 42.3509,45.0256 41.5649,44.3156 C41.2699,44.0486 40.8359,43.9406 40.5049,43.7046 C40.2789,43.5416 39.9999,43.3026 39.9599,43.0616 C39.8799,42.5746 39.6929,42.3556 39.1939,42.3286 C38.9939,42.3176 38.7839,42.1526 38.6129,42.0156 C38.0479,41.5586 37.2419,41.5436 36.6559,41.9696 C36.4349,42.1306 36.1479,42.3556 35.9209,42.3246 C35.0239,42.2026 34.5209,42.7506 33.9299,43.2646 C33.4399,43.6906 32.7659,43.9056 32.2719,44.3286 C31.7599,44.7666 31.4489,45.3226 30.6889,44.5856 C30.2129,44.1236 28.7169,44.5036 28.1609,44.9396 C27.6869,45.3116 27.0879,45.5226 26.6149,45.8956 C26.0339,46.3536 25.5399,46.9196 24.9799,47.4086 C24.7569,47.6036 24.4739,47.8086 24.1979,47.8446 C23.6069,47.9226 23.0359,47.8646 22.5699,48.4286 C22.4459,48.5786 21.7949,48.2966 21.3849,48.2086 C21.0299,48.1336 20.6439,47.9276 20.3259,48.0046 C19.8559,48.1186 19.4379,48.4376 18.9939,48.6606 C18.1049,49.1056 17.2119,49.5416 16.3249,49.9906 C16.2309,50.0376 16.1279,50.1406 16.1019,50.2356 C15.8479,51.2206 15.6079,52.2096 15.3669,53.1976 C15.3189,53.3896 15.3479,53.6866 15.2309,53.7616 C14.4579,54.2546 14.6789,55.0106 14.6719,55.6996 C14.6539,57.3366 14.2799,59.0886 14.7429,60.5796 C15.2519,62.2186 14.2659,63.6096 14.6339,65.1256 C14.8649,66.0736 15.4049,67.0286 14.6789,68.0366 C14.5189,68.2606 14.7359,68.7246 14.6569,69.0476 C14.5879,69.3296 14.3479,69.5686 14.1839,69.8276 C14.0109,69.5776 13.7029,69.3326 13.6909,69.0746 C13.6419,68.0156 13.7239,66.9496 13.6669,65.8916 C13.6519,65.6246 13.3409,65.2226 13.0889,65.1486 C12.4399,64.9606 12.2039,64.5376 12.4149,64.0046 C12.4949,63.8036 13.0769,63.8026 13.6189,63.6606 C13.9309,63.0196 13.7779,62.6636 12.9119,62.2926 C12.6829,62.1936 12.4469,61.8536 12.4199,61.6016 C12.3729,61.1696 12.4889,60.7206 12.5359,60.2776 C12.8649,60.3476 13.1949,60.4166 13.5919,60.4996 C13.6229,60.3926 13.7019,60.2406 13.7019,60.0896 C13.7029,58.3666 13.6929,56.6446 13.6829,54.9216 C13.6809,54.5166 13.7169,53.9986 13.1159,54.1256 C12.8939,54.1726 12.6249,54.6246 12.6089,54.9046 C12.5699,55.6256 12.4479,56.3816 13.0949,56.9966 C13.2539,57.1466 13.1059,57.6216 13.0989,57.9466 C12.7469,57.9036 12.3939,57.8606 11.9519,57.8076 C11.9049,58.8746 11.8129,60.0016 11.8149,61.1296 C11.8209,63.6546 11.8569,66.1806 11.9249,68.7046 C11.9349,69.0836 12.2639,69.4466 12.3099,69.8336 C12.4119,70.6806 12.4339,71.5376 12.4549,72.3916 C12.4569,72.4516 12.1449,72.6036 12.0329,72.5616 C11.8739,72.5046 11.6859,72.3256 11.6509,72.1676 C11.5839,71.8646 11.6059,71.5406 11.6089,71.2266 C11.6129,70.6596 11.7159,70.0926 11.1079,69.6876 C10.9439,69.5786 10.9359,69.1656 10.9349,68.8916 C10.9289,66.7096 10.9449,64.5266 10.9459,62.3456 C10.9459,62.1856 10.8819,62.0236 10.8299,61.7776 C10.2049,62.0806 9.8039,62.4306 9.8199,63.1306 C9.8379,63.9056 9.8149,64.6816 9.8309,65.4556 C9.8359,65.6786 9.8309,65.9846 9.9639,66.1066 C10.6679,66.7546 10.4149,67.6106 10.4889,68.3806 C10.5109,68.6136 10.2199,68.8776 10.0729,69.1266 C9.8999,68.9146 9.6889,68.7236 9.5599,68.4866 C8.2239,66.0416 9.0689,63.4116 8.9279,60.8636 C8.9029,60.4056 8.8489,59.9476 8.8519,59.4896 C8.8549,59.1496 8.8039,58.6946 8.9939,58.4906 C9.7159,57.7096 9.4699,56.7836 9.5579,55.8936 C9.6049,55.4186 9.8649,54.9646 10.0309,54.5026 C10.0399,54.4776 10.0769,54.4596 10.0829,54.4356 C10.3929,53.1056 10.7099,51.7796 10.9979,50.4456 C11.0209,50.3386 10.8519,50.1886 10.7159,49.9676 C10.3779,50.6586 10.0459,51.2336 9.8089,51.8456 C9.5089,52.6176 9.0089,53.3006 9.0689,54.2416 C9.0929,54.6206 8.4349,55.0486 8.0749,55.4426 C7.6879,55.8686 7.5459,57.4416 7.9039,57.8686 C8.1319,58.1426 8.6109,58.3606 8.1549,58.7346 C8.0289,58.8386 7.5979,58.5706 7.2219,58.4436 C5.1899,59.6456 6.7399,57.2066 5.7759,57.0186 C5.7189,57.4266 5.6879,57.8506 5.5969,58.2606 C5.4929,58.7296 5.3339,59.1866 5.2039,59.6516 C5.1289,59.9196 5.0179,60.1896 5.0079,60.4626 C4.9779,61.3226 5.0449,62.1906 4.9609,63.0446 C4.9109,63.5426 4.5889,64.0076 4.4939,64.5076 C4.4289,64.8456 4.4189,65.3096 4.6009,65.5586 C5.3109,66.5296 5.1249,68.8916 4.2109,69.6416 C3.8709,69.9206 3.4519,69.9296 3.4249,69.4906 C3.3889,68.9046 3.4559,68.2156 3.7479,67.7316 C4.0739,67.1886 4.1529,66.8636 3.7129,66.3856 C3.5049,66.1576 3.3379,65.7736 3.3579,65.4756 C3.4239,64.4856 3.0509,63.3896 3.9589,62.5676 C4.0129,62.5196 4.0299,62.4076 4.0309,62.3256 C4.0349,60.7836 4.0339,59.2416 4.0339,57.7046 C3.9559,57.6856 3.8959,57.6486 3.8509,57.6616 C3.5049,57.7636 3.1639,57.8736 2.8199,57.9816 C2.8479,57.3536 2.8299,56.7176 2.9209,56.0976 C2.9819,55.6776 3.1989,55.2806 3.3409,54.8716 C3.3589,54.8196 3.3309,54.7516 3.3499,54.7016 C3.7419,53.7066 4.1139,52.7036 4.5399,51.7246 C4.7939,51.1386 5.1649,50.6026 5.4229,50.0186 C5.6229,49.5656 4.9129,48.7266 4.2459,48.5626 C3.1859,48.3056 2.6789,47.6566 2.6869,46.5706 C2.6899,46.1976 2.6719,45.8226 2.6939,45.4506 C2.7619,44.2226 2.4279,42.9366 3.2939,41.7856 C2.5339,41.5566 2.1549,41.7206 2.1729,42.4856 C2.1799,42.7426 2.2619,43.0496 2.1509,43.2426 C2.0529,43.4116 1.5689,43.5746 1.5379,43.5326 C1.1969,43.0716 0.7509,42.6016 0.6499,42.0726 C0.5019,41.2976 0.5709,40.4696 0.6299,39.6706 C0.6559,39.3386 0.8309,38.9646 1.0529,38.7126 C1.4339,38.2816 1.4659,37.9476 1.0569,37.5286 C0.4179,36.8766 0.4429,35.9486 1.0179,35.2446 C1.1969,35.0276 1.2339,34.6916 1.3259,34.4076 C1.4509,34.0216 1.6029,33.6396 1.6709,33.2426 C1.7109,33.0186 1.6149,32.7676 1.5639,32.5296 C1.4979,32.2126 1.2539,31.8116 1.3689,31.5966 C1.7959,30.7956 2.3549,30.0646 2.8349,29.2896 C3.2679,28.5876 3.6669,27.8626 4.0749,27.1456 C4.5769,26.2626 5.0739,25.3786 5.5719,24.4936 C5.7729,24.1366 5.9499,23.7626 6.1769,23.4236 C6.3209,23.2086 6.5109,22.9986 6.7289,22.8646 C7.1819,22.5886 7.6679,22.3646 8.4099,21.9796 C7.6089,21.2516 7.0509,20.6866 6.4339,20.1986 C5.6479,19.5786 5.3089,18.8306 5.3979,17.8196 C5.4279,17.4836 5.1239,17.1296 5.0359,16.7686 C4.9789,16.5356 5.0389,16.2746 5.0459,16.0266 C5.4609,16.1136 5.9489,16.0936 6.2689,16.3156 C6.6049,16.5496 7.3309,16.7986 6.7289,17.5056 C6.6229,17.6306 6.6799,18.0366 6.8079,18.1916 C7.1709,18.6316 7.6229,18.9956 8.0119,19.4156 C8.1759,19.5936 8.3579,19.8266 8.3799,20.0496 C8.4289,20.5376 8.7189,20.6106 9.1039,20.8206 C9.8089,21.2046 10.4089,21.8066 10.9959,22.3756 C11.5909,22.9536 12.4269,23.0006 13.1169,22.4956 C13.3819,22.3016 13.8419,22.1316 14.0999,22.2336 C14.3479,22.3336 14.4739,22.7896 14.6109,23.1076 C14.9689,23.9446 15.2719,24.8076 15.6619,25.6286 C15.9309,26.1976 16.3279,26.7066 16.6189,27.2686 C16.6789,27.3836 16.5449,27.7486 16.4679,27.7586 C16.2819,27.7836 16.0109,27.7276 15.8919,27.5966 C15.5549,27.2256 15.2769,26.8006 14.8879,26.2796 C14.2809,27.3676 14.8939,27.7356 15.3189,28.0676 C15.9209,28.5386 16.1069,28.9536 15.5889,29.3496 C15.7849,30.1986 15.9509,30.9186 16.1289,31.6926 C16.6619,31.4396 17.2259,31.1726 17.8129,30.8956 C17.6989,30.7416 17.6749,30.6746 17.6309,30.6576 C17.3059,30.5336 16.9769,30.4206 16.6499,30.3036 C16.8419,29.9776 17.0339,29.6496 17.2289,29.3246 C17.6559,28.6156 18.1059,27.9206 18.5059,27.1966 C18.9329,26.4276 19.3169,25.6336 19.7099,24.8456 C19.7959,24.6706 19.8119,24.4586 19.9079,24.2916 C20.0389,24.0626 20.1999,23.8466 20.3849,23.6626 C20.4139,23.6356 20.7539,23.8036 20.7639,23.9006 C20.7969,24.1946 20.7909,24.5146 20.7059,24.7946 C20.5379,25.3436 20.2909,25.8666 20.1139,26.4126 C20.0729,26.5386 20.1849,26.7136 20.3449,26.9786 C20.5459,25.6056 21.5519,25.4976 22.6929,25.5896 C22.6509,25.4906 22.6089,25.3916 22.5669,25.2916 C22.4299,25.2286 22.2989,25.1306 22.1559,25.1046 C21.3709,24.9636 21.4099,24.8286 21.7329,24.1346 C22.1839,23.1676 22.4449,22.1106 22.7509,21.0816 C22.8019,20.9046 22.6729,20.6746 22.5789,20.2416 C22.1629,21.0216 21.8679,21.5976 21.5519,22.1606 C21.4029,22.4276 21.2129,22.6716 21.0409,22.9256 C20.8899,22.6776 20.7339,22.4316 20.5899,22.1796 C20.5369,22.0856 20.5109,21.9766 20.4219,21.7376 C20.0619,22.4186 19.7599,22.9966 19.4509,23.5716 C19.2639,23.9186 19.1209,24.3116 18.8569,24.5876 C18.6669,24.7866 18.3109,24.8266 18.0289,24.9376 C17.9809,24.6176 17.7839,24.2086 17.9119,23.9936 C18.4239,23.1336 19.0589,22.3476 19.6029,21.5036 C19.7839,21.2236 19.8279,20.8536 19.9339,20.5236 C19.8499,20.4826 19.7649,20.4416 19.6799,20.4006 C19.5129,20.5316 19.3179,20.6396 19.1839,20.7986 C18.4669,21.6576 17.4449,21.9806 16.4639,22.3826 C16.3369,22.4356 16.2259,22.5396 16.0949,22.5786 C15.8159,22.6636 15.5279,22.7216 15.2439,22.7906 C15.2359,22.4396 15.0809,21.9706 15.2489,21.7636 C15.6619,21.2546 16.0759,20.6836 16.9199,20.7336 C17.2849,20.7566 17.7699,20.5366 18.0299,20.2636 C18.7729,19.4786 19.6899,18.8936 20.0619,17.6946 C20.2359,17.1336 20.5849,16.6096 20.5899,15.9476 C20.5919,15.7486 20.8959,15.5536 21.0609,15.3556 C21.2149,15.5306 21.3969,15.6896 21.5159,15.8866 C21.6089,16.0396 21.6229,16.2396 21.6969,16.5106 C22.0109,16.2626 22.2709,16.0966 22.4819,15.8826 C22.9109,15.4466 22.7619,14.9776 22.1649,14.8116 C21.3509,14.5856 20.9529,13.6866 21.3579,12.9506 C21.4309,12.8166 21.6209,12.6366 21.7229,12.6556 C21.8819,12.6856 22.0619,12.8416 22.1429,12.9916 C22.2539,13.1986 22.2799,13.4506 22.3609,13.7506 C22.9599,13.0396 22.6629,11.9116 21.6769,10.8006 C21.3749,11.4296 21.1099,12.0706 20.7609,12.6616 C20.5879,12.9546 20.2679,13.3446 19.9989,13.3566 C19.5409,13.3796 19.0699,13.1386 18.6049,13.0076 C18.7359,12.6086 18.8659,12.2106 18.9999,11.8126 C19.0259,11.7346 19.0729,11.6626 19.1339,11.5386 C18.4389,10.9076 18.2219,10.2636 19.1169,9.5756 C19.2569,9.4686 19.1759,9.0716 19.1979,8.8096 C18.9639,8.8956 18.7129,8.9506 18.5019,9.0736 C18.0049,9.3626 17.5039,9.6516 17.0559,10.0066 C16.8699,10.1536 16.7749,10.4576 16.7089,10.7086 C16.5499,11.3056 16.2809,11.4046 15.8259,10.9796 C15.2849,10.4746 14.7569,9.9526 14.2209,9.4346 C13.1939,10.0326 13.1939,10.0326 12.9029,8.7366 C12.3909,9.0466 11.8599,9.3866 11.3949,8.6486 C10.9499,9.0746 10.1959,9.2616 11.0079,10.0336 C11.5139,10.5156 11.1429,11.2806 10.4369,11.3216 C9.7059,11.3646 8.8859,11.5296 8.8469,10.3376 C8.8379,10.0626 8.5049,9.6946 8.2289,9.5686 C8.0339,9.4786 7.6899,9.7466 7.4029,9.8116 C7.0739,9.8846 6.7359,9.9326 6.3989,9.9516 C5.9869,9.9756 5.5729,9.9576 4.9189,9.9576 C6.1289,11.0776 4.7949,11.6936 4.7469,12.5296 C4.7259,12.8876 4.4729,13.2426 4.2809,13.5726 C4.1799,13.7446 3.9779,13.9706 3.8259,13.9676 C3.6719,13.9646 3.4819,13.7336 3.3789,13.5616 C2.3179,11.7846 2.5039,9.7706 2.7879,7.9326 C2.9559,6.8456 3.0689,5.4286 4.1349,4.5826 C5.1419,3.7826 6.1709,3.0106 7.2129,2.2566 C7.3749,2.1396 7.6649,2.2156 7.8789,2.1496 C8.2709,2.0296 8.6539,1.8746 9.0359,1.7236 C9.1389,1.6816 9.2289,1.5386 9.3189,1.5436 C10.5389,1.6106 11.5309,0.6236 12.8169,0.8636 C13.6219,1.0146 14.4779,0.8766 15.3099,0.8966 C15.8809,0.9116 16.4439,0.7716 16.9579,1.3346 C17.1929,1.5926 17.8909,1.3886 18.3599,1.4856 C18.7499,1.5676 19.1289,1.7546 19.4829,1.9476 C20.0119,2.2356 20.5169,2.5696 21.0299,2.8896 C21.1729,2.9786 21.3339,3.0626 21.4379,3.1886 C22.1839,4.0956 22.8459,5.0426 22.8989,6.2796 C22.9059,6.4466 22.9199,6.6726 23.0239,6.7676 C24.0399,7.6856 23.4289,8.8796 23.5709,9.9396 C23.5919,10.1026 23.4579,10.3366 23.3229,10.4576 C22.9799,10.7686 23.0049,11.0116 23.3319,11.3126 C23.4669,11.4376 23.5419,11.6476 23.5989,11.8336 C23.8439,12.6216 24.0459,13.4246 24.3279,14.1986 C24.3889,14.3696 24.7089,14.5176 24.9259,14.5456 C25.3489,14.6026 25.8109,14.4796 26.2079,14.5986 C26.5149,14.6886 26.9089,14.9936 26.9769,15.2726 C27.0999,15.7786 27.3179,15.9216 27.7979,15.9196 C29.4629,15.9126 31.1299,15.9086 32.7939,15.9656 C33.1789,15.9786 33.5559,16.2356 33.9369,16.3806 C34.1689,16.4686 34.4239,16.5206 34.6289,16.6516 C34.8659,16.8056 35.1759,16.9896 35.2509,17.2256 C35.5869,18.2936 35.9969,18.6486 37.1029,18.7086 C37.3269,18.7206 37.6559,18.7136 37.7519,18.8476 C38.6689,20.1316 40.1809,20.6486 41.3029,21.6596 C41.8619,22.1636 42.2459,22.9006 43.1519,22.9166 C43.2799,22.9186 43.4229,23.1746 43.5249,23.3346 C43.8339,23.8226 44.1009,24.3376 44.4279,24.8126 C45.0249,25.6776 45.6719,26.5076 46.2539,27.3826 C46.3769,27.5676 46.2939,27.8846 46.3269,28.1386 C46.3589,28.3856 46.3519,28.6726 46.4789,28.8656 C46.9349,29.5646 46.9539,29.5536 46.4569,30.2296 C47.1359,30.8616 47.2689,31.4536 46.4819,32.2166 C46.1959,32.4946 46.2829,33.2586 46.3509,33.7806 C46.4709,34.7056 46.0719,35.3136 45.4729,35.9636 C44.7639,36.7306 44.2129,37.6446 43.5979,38.4976 C43.5509,38.5626 43.5369,38.6596 43.5289,38.7436 C43.4969,39.0956 44.6589,40.6486 44.9989,40.7786 C45.2279,40.8656 45.4439,41.0156 45.6309,41.1776 C46.1179,41.5966 46.4639,42.2196 47.2399,42.1906 C47.3349,42.1876 47.4599,42.2796 47.5279,42.3626 C48.3629,43.3786 49.5489,43.7756 50.6949,44.3016 C51.3589,44.6046 51.8599,45.2916 52.3779,45.8566 C52.4499,45.9356 52.2569,46.3816 52.0809,46.5366 C51.4809,47.0636 51.2129,47.6246 51.0839,48.4786 C50.9509,49.3566 50.2279,50.1756 49.6709,50.9526 C49.3889,51.3456 48.9659,51.5726 49.5599,52.0346 C49.7059,52.1476 49.6789,52.4626 49.7839,52.6556 C49.8819,52.8386 50.0239,53.0886 50.1909,53.1296 C51.5509,53.4686 52.1069,54.7656 53.1009,55.5336 C53.1769,55.5926 53.2319,55.7546 53.2109,55.8486 C52.9429,57.0196 53.8219,57.5606 54.4569,58.2816 C55.0159,58.9186 55.6569,59.6416 55.8319,60.4216 C56.0829,61.5436 56.9999,61.9976 57.5729,62.7796 C57.7499,63.0206 57.9339,63.2776 58.0219,63.5576 C58.2049,64.1366 58.6549,64.3876 59.0859,63.9926 C59.7439,63.3906 60.2159,63.3866 60.9249,63.9876 C61.4679,64.4466 62.2899,64.5606 62.9429,64.9106 C63.7699,65.3556 64.5739,65.8536 65.3369,66.3996 C65.5369,66.5436 65.6049,66.9486 65.6279,67.2416 C65.6709,67.7836 65.6909,68.3396 65.6189,68.8756 C65.5009,69.7506 65.7489,70.4376 66.5429,71.0396 C66.7449,70.8516 66.9469,70.6276 67.1839,70.4496 C67.4789,70.2286 67.9949,69.8136 68.0809,69.8866 C68.4779,70.2146 68.8559,70.6446 69.0479,71.1156 C69.1979,71.4816 69.0629,71.9636 69.0549,72.3946 C69.0479,72.8076 69.1059,73.1646 69.6599,73.0916 L69.6599,80.3296 Z" id="Fill-1" fill="#231916" mask="url(#mask-2)"></path>
                </g>
                <g id="编组" transform="translate(0.000000, 72.174000)">
                    <mask id="mask-4" fill="white">
                        <use xlink:href="#path-3"></use>
                    </mask>
                    <g id="Clip-4"></g>
                    <path d="M26.6832,40.7282 C26.5782,40.7742 26.4732,40.8192 26.3682,40.8642 C26.4152,41.1362 26.3772,41.4922 26.5372,41.6592 C26.6862,41.8162 27.0432,41.7742 27.3102,41.8202 C27.3532,41.7402 27.3952,41.6602 27.4382,41.5812 C27.1862,41.2962 26.9342,41.0122 26.6832,40.7282 L26.6832,40.7282 Z M40.3592,21.2322 C40.4372,21.0942 40.5142,20.9572 40.5912,20.8192 C40.2642,20.6012 39.9382,20.3832 39.6112,20.1662 C39.5512,20.3672 39.3892,20.7002 39.4492,20.7452 C39.7182,20.9522 40.0502,21.0772 40.3592,21.2322 L40.3592,21.2322 Z M34.8322,34.2972 C34.8562,34.1482 34.8782,33.9982 34.9012,33.8482 C34.4122,33.8172 33.9232,33.7872 33.4342,33.7562 L33.4022,34.2052 C33.8782,34.2362 34.3562,34.2672 34.8322,34.2972 L34.8322,34.2972 Z M32.6282,37.0762 C32.1852,36.8322 31.9462,36.5952 31.7202,36.6082 C31.5182,36.6192 31.3302,36.9052 31.1362,37.0702 C31.3612,37.2652 31.5592,37.5472 31.8192,37.6242 C31.9642,37.6672 32.2102,37.3732 32.6282,37.0762 L32.6282,37.0762 Z M35.3762,24.3662 C35.4692,24.3632 35.5632,24.3592 35.6572,24.3552 L35.6572,22.2232 C35.5632,22.2262 35.4692,22.2282 35.3762,22.2302 L35.3762,24.3662 Z M35.0062,27.7532 C34.9002,27.7492 34.7932,27.7472 34.6872,27.7442 L34.6872,29.9522 C34.7832,29.9552 34.8782,29.9582 34.9742,29.9622 C35.1942,29.2362 35.1532,28.4982 35.0062,27.7532 L35.0062,27.7532 Z M33.6702,16.1332 C33.1982,15.5462 32.8622,14.9932 31.9382,15.2792 C32.3602,15.9022 32.6492,16.5122 33.6702,16.1332 L33.6702,16.1332 Z M40.5212,31.2072 C39.9072,31.8302 39.9602,33.0252 40.5212,33.4452 L40.5212,31.2072 Z M30.2412,40.7692 C29.8992,40.5452 29.5232,40.1242 29.3032,40.1952 C28.9522,40.3062 28.6732,40.7222 28.4282,41.0572 C28.3562,41.1552 28.4742,41.4252 28.5602,41.5872 C28.5852,41.6342 28.8272,41.6192 28.9302,41.5622 C29.3072,41.3562 29.6672,41.1202 30.2412,40.7692 L30.2412,40.7692 Z M33.7152,23.2672 C32.9542,23.3842 32.4672,23.4432 32.5502,24.2082 C32.5992,24.6602 32.4702,25.3912 33.1872,25.2012 C33.6582,25.0752 34.0342,24.4872 34.3592,24.0392 C34.4072,23.9722 33.9432,23.5342 33.7152,23.2672 L33.7152,23.2672 Z M49.6622,23.6602 C48.7842,23.8542 48.1432,23.9572 47.5332,24.1532 C47.3292,24.2182 47.0652,24.5232 47.0661972,24.7172 C47.0692,25.1132 47.1982,25.5232 47.3652,25.8852 C47.3912,25.9422 47.9582,25.8562 48.1682,25.6962 C48.5932,25.3722 48.9812,24.9792 49.3132,24.5592 C49.5012,24.3202 49.5482,23.9702 49.6622,23.6602 L49.6622,23.6602 Z M23.9742,33.8292 C22.9242,33.7492 22.2992,33.2612 21.9952,32.3152 C21.9152,32.0712 21.5742,31.9122 21.3532,31.7132 C21.1712,31.9532 20.8882,32.1682 20.8252,32.4362 C20.5892,33.4162 21.4152,33.8372 21.9652,34.3822 C22.8032,35.2152 23.3802,35.0752 23.9742,33.8292 L23.9742,33.8292 Z M32.8952,27.2002 C33.0632,26.6552 32.8542,26.0742 32.3642,25.7222 C32.2482,25.6392 31.9432,25.6002 31.9202,25.6432 C31.4912,26.4602 30.3332,26.8072 30.5042,28.0352 C30.6282,28.9282 30.6212,29.8342 29.8812,30.6132 C29.6502,30.8562 29.8452,31.5062 29.8452,31.9702 C29.9282,31.9762 30.0112,31.9832 30.0952,31.9892 C30.2732,31.6222 30.4542,31.2542 30.6272,30.8852 C31.0792,29.9312 31.7302,29.0712 31.6542,27.9042 C31.5722,26.6412 31.7372,26.5732 32.8952,27.2002 L32.8952,27.2002 Z M30.4272,35.4712 C32.0242,35.8362 32.2152,35.6162 32.3992,34.3892 C32.5062,33.6702 33.0372,33.0092 33.4122,32.3432 C33.4712,32.2402 33.7502,32.1712 33.8822,32.2172 C34.1622,32.3152 34.3992,32.5482 34.6812,32.6312 C34.9832,32.7202 35.3222,32.7432 35.6312,32.7002 C35.7042,32.6902 35.8052,32.1392 35.7622,32.1202 C34.9542,31.7432 34.6192,30.7452 33.9802,30.4292 C33.1372,30.0122 32.9732,29.8752 33.5882,29.1662 C33.7072,29.0292 33.6542,28.5492 33.5102,28.4272 C33.3622,28.3032 32.7912,28.3752 32.7762,28.4452 C32.6422,29.0452 32.5272,29.6682 32.5542,30.2782 C32.5622,30.4572 33.0492,30.6032 33.2972,30.7902 C33.4642,30.9162 33.6422,31.0682 33.7232,31.2492 C33.7592,31.3302 33.5692,31.6262 33.4762,31.6292 C32.3362,31.6622 32.4952,32.8222 31.9732,33.3862 C31.7162,33.6632 31.9232,34.3362 31.6942,34.6792 C31.4712,35.0142 30.9592,35.1572 30.4272,35.4712 L30.4272,35.4712 Z M36.1062,30.6242 C36.1962,30.6202 36.2872,30.6152 36.3762,30.6092 C36.4082,30.3742 36.4612,30.1402 36.4652,29.9052 C36.4752,29.3032 36.4202,28.6972 36.4792,28.1012 C36.5012,27.8802 36.7672,27.6832 36.9222,27.4752 C37.0852,27.6772 37.3712,27.8692 37.3902,28.0832 C37.4532,28.8242 37.4422,29.5732 37.4112,30.3162 C37.4032,30.5142 37.2722,30.7852 37.1112,30.8852 C36.6492,31.1762 36.5382,31.5602 36.8232,31.9692 C37.0352,32.2742 37.3942,32.4752 37.6882,32.7232 C37.9812,32.3562 38.4512,32.0262 38.5352,31.6162 C38.7902,30.3812 38.7322,30.3692 39.8292,29.9032 C39.1872,29.3792 39.4642,28.1232 38.2152,28.1302 C38.1282,28.1312 37.9682,27.9262 37.9652,27.8132 C37.9452,27.0792 37.8582,26.3202 38.0222,25.6232 C38.0702,25.4182 38.8532,25.3492 39.3092,25.2862 C40.1622,25.1672 40.7922,24.2842 40.4492,23.5382 C39.9242,23.9872 39.4002,24.1592 38.9022,23.4912 C38.8292,23.3942 38.5462,23.4782 38.4142,23.3942 C38.2162,23.2692 37.9542,23.0892 37.9172,22.8962 C37.8312,22.4332 37.7412,21.9372 37.1792,22.1362 C36.9412,22.2212 36.7862,22.7812 36.7482,23.1402 C36.6542,24.0482 37.0042,25.0472 36.0792,25.7572 C35.9662,25.8432 35.9902,26.1332 35.9872,26.3302 C35.9712,27.5892 35.9602,28.8492 35.9642,30.1092 C35.9642,30.2812 36.0562,30.4532 36.1062,30.6242 L36.1062,30.6242 Z M42.6162,43.9992 C42.2722,43.3182 41.9232,42.6382 41.5892,41.9522 C41.4582,41.6842 41.2472,41.3892 41.2702,41.1242 C41.3562,40.1062 40.5812,39.4522 40.2912,38.6012 C40.2152,38.3782 40.0232,38.1192 40.0802,37.9412 C40.2812,37.3332 41.9702,36.2482 42.6052,36.3302 C42.9302,36.3712 43.4252,36.5422 43.4952,36.7652 C43.5902,37.0662 43.4142,37.5072 43.2422,37.8282 C42.6452,38.9332 41.9452,39.9982 42.2292,41.3502 C42.2552,41.4752 42.3472,41.5862 42.4092,41.7042 C42.4882,41.7032 42.5672,41.7012 42.6462,41.7002 C42.6652,41.3762 42.6522,41.0462 42.7132,40.7322 C42.7702,40.4482 42.9082,40.1802 43.0092,39.9052 C43.2232,40.0052 43.4612,40.0742 43.6482,40.2122 C44.2602,40.6662 45.0492,40.1102 45.4712,39.2942 C46.2482,37.7912 46.0782,36.2302 46.0832,34.6612 C46.0852,34.1602 46.1082,33.6242 46.7712,33.5652 C47.0252,33.5422 47.2932,33.6902 47.5552,33.7592 C47.4802,34.0052 47.4712,34.3092 47.3172,34.4852 C46.9592,34.8912 46.9272,35.2392 47.3432,35.5912 C47.7042,35.8972 47.7022,36.1642 47.3892,36.5332 C46.7682,37.2662 47.1342,38.1092 47.0692,38.9052 C47.1812,38.9512 47.2932,38.9972 47.4052,39.0422 C47.6752,38.5892 47.9142,38.1152 48.2222,37.6892 C49.1352,36.4212 48.8622,34.9852 48.8582,33.5822 C48.8582,33.4452 48.8712,33.2342 48.9562,33.1802 C49.8322,32.6252 49.4692,31.7462 49.5282,30.9922 C49.5432,30.7902 49.3662,30.4602 49.1962,30.3912 C49.0122,30.3172 48.6462,30.4042 48.5132,30.5552 C48.0962,31.0272 47.7732,31.0002 47.3932,30.5332 C47.2992,30.4172 47.0982,30.3432 46.9422,30.3332 C46.2722,30.2952 46.1732,29.8682 46.1742,29.3222 C46.1752,29.0242 46.1062,28.7272 46.0682,28.4292 C45.9942,28.4272 45.9192,28.4252 45.8442,28.4222 C45.7832,28.5372 45.6522,28.6622 45.6682,28.7622 C45.8962,30.1332 44.7952,30.7362 44.0272,31.4842 C43.8282,31.6772 43.1272,31.6522 42.8922,31.4512 C42.4292,31.0552 41.7072,30.6352 42.0322,29.8372 C42.2462,29.3112 42.6222,29.5802 42.9222,29.8522 C43.3412,30.2332 43.7542,30.2072 44.1172,29.7832 C44.4502,29.3922 45.0902,29.0712 44.6612,28.5272 C43.9882,28.6742 43.4432,28.8552 42.8862,28.9012 C42.1822,28.9592 41.9362,28.5312 41.9832,27.8592 C42.0172,27.3622 41.9892,26.8612 41.9892,26.1332 C40.5972,27.8242 40.6482,28.7252 41.3352,30.4992 C41.7342,31.5302 42.0352,32.7992 41.0372,33.8682 C40.6722,34.2562 40.5452,34.8572 40.2272,35.3002 C39.5502,36.2432 38.5152,35.8902 37.6842,35.7462 C37.0632,35.6382 36.5472,35.0112 36.5202,34.2172 C36.5162,34.1212 36.4172,34.0282 36.2522,33.7422 C36.0862,34.1872 36.0302,34.5082 35.8632,34.7562 C35.4222,35.4122 34.9142,35.9582 33.9882,35.8642 C33.7632,35.8412 33.3062,36.1282 33.3042,36.2782 C33.2982,36.7302 33.4132,37.5542 33.5712,37.5762 C34.4212,37.6902 34.6722,38.1732 34.5942,39.0132 C34.6882,39.0002 34.7832,38.9882 34.8762,38.9752 C34.9542,38.7282 35.0792,38.4842 35.0962,38.2332 C35.1212,37.8632 35.0002,37.4762 35.0692,37.1212 C35.1182,36.8642 35.3742,36.6482 35.5382,36.4142 C35.7092,36.6342 35.9232,36.8342 36.0382,37.0822 C36.1152,37.2472 36.0612,37.4772 36.0472,37.6772 C35.9992,38.3842 35.9092,39.0672 36.9572,39.1702 C37.1292,39.1872 37.4332,39.9232 37.3332,40.2082 C37.1292,40.7952 36.7552,40.3862 36.3852,40.2262 C36.0982,40.1012 35.5602,40.1052 35.3762,40.2912 C35.0312,40.6392 35.3862,41.0282 36.0332,41.1012 C36.4962,41.1532 37.1982,40.8872 37.2082,41.6672 C37.2102,41.7992 36.3102,42.1502 35.9292,42.0412 C34.9212,41.7532 33.9702,41.2692 32.9962,40.8632 C32.9182,40.8312 32.8422,40.7942 32.8752,40.8102 C32.3072,41.3192 31.7502,41.7632 31.2622,42.2722 C30.9252,42.6222 30.6702,42.7742 30.2682,42.3792 C29.8152,41.9332 29.3632,41.9332 28.9792,42.4942 C28.2422,43.5722 27.1412,43.4942 26.0472,43.3872 C25.8752,43.3712 25.6642,43.2322 25.5652,43.0862 C25.1682,42.5082 25.4532,40.8172 25.9962,40.3512 C25.5782,39.4952 25.7042,38.6322 26.3812,38.5712 C27.4752,38.4732 27.6012,39.4942 27.8722,40.4372 C28.2952,40.0322 28.6602,39.7322 28.9612,39.3802 C29.3382,38.9432 29.8162,38.8742 30.1602,39.2412 C30.8922,40.0212 31.1392,39.2892 31.5562,38.9442 C30.9662,38.5432 30.3842,38.2222 29.8912,37.7982 C29.0992,37.1172 29.8322,36.5932 30.0902,36.2122 C29.3862,35.6462 28.7052,35.1562 28.1012,34.5842 C27.8162,34.3142 27.6962,33.8742 27.4652,33.5352 C27.3522,33.3692 27.1702,33.1662 26.9972,33.1442 C26.8222,33.1212 26.4632,33.2832 26.4532,33.3912 C26.3402,34.5082 25.2832,34.8932 24.7462,35.6712 C24.0372,36.7052 22.9512,36.7132 21.9782,36.4542 C21.4482,36.3122 21.0792,35.5652 20.6392,35.0892 C20.4512,34.8852 20.2662,34.6772 20.0792,34.4712 C19.8682,34.6792 19.6312,34.8692 19.4502,35.1002 C19.2132,35.4022 19.0862,35.8302 18.7932,36.0372 C18.1672,36.4812 17.4862,36.8632 16.7832,37.1712 C16.5722,37.2632 16.1452,37.1072 15.9402,36.9262 C15.2552,36.3202 14.4982,35.7332 14.0132,34.9812 C13.5372,34.2422 13.2742,33.3292 13.0752,32.4572 C12.9242,31.7942 12.9022,31.6122 11.9172,31.1852 C11.8902,31.4232 11.8462,31.6342 11.8472,31.8442 C11.8542,32.8492 11.8842,33.8542 11.8792,34.8582 C11.8772,35.1052 11.8582,35.4602 11.7042,35.5792 C11.1942,35.9682 11.1272,36.4422 11.1882,37.0232 C11.2492,37.6312 10.9222,37.9202 10.3082,37.9052 C9.7912,37.8922 9.2672,37.8512 8.7592,37.9212 C8.3672,37.9752 8.0022,38.2542 7.6102,38.3022 C6.9752,38.3802 6.2532,38.5302 5.7062,38.3092 C5.2642,38.1302 5.0132,37.9542 4.7442,38.3982 C4.0712,39.5042 3.0022,39.3122 1.9842,39.2672 C1.4132,39.2422 1.2622,38.8192 1.3232,38.3532 C1.4612,37.2792 1.2622,36.4232 0.2622,35.7732 C-0.0038,35.6002 0.0772,34.8952 -0.0008,34.4482 C1.3332,33.7502 1.6492,35.1192 2.3812,35.4592 C2.6702,35.0662 2.9392,34.7002 3.2072,34.3322 C3.4212,34.6922 3.6342,35.0522 3.8782,35.4622 C4.3952,35.1622 4.7702,34.7882 4.7472,34.0822 C4.7102,32.8772 4.6912,31.6692 4.7402,30.4652 C4.7532,30.1422 5.0442,29.8322 5.2082,29.5142 C5.3802,29.8222 5.6932,30.1252 5.7032,30.4382 C5.7472,31.8432 5.7562,33.2532 5.6792,34.6572 C5.6352,35.4582 6.0382,35.8462 6.7432,36.2772 C6.9092,35.5542 7.0922,34.9182 6.5242,34.4092 C5.9402,33.8862 6.0242,33.3652 6.5222,32.9502 C7.3412,32.2652 7.7162,31.4832 7.5312,30.4082 C7.4392,29.8752 7.6162,29.4342 8.2932,29.4202 C9.0172,29.4072 9.1452,29.8492 9.1312,30.4372 C9.1082,31.4422 9.0922,32.4462 9.0852,33.4512 C9.0842,33.6642 9.1372,33.8752 9.1782,34.1842 C9.8882,33.8122 10.3532,33.4502 10.3082,32.6592 C10.2662,31.9332 10.0882,31.1652 10.8392,30.6092 C10.9792,30.5052 10.9412,30.1282 10.9422,29.8762 C10.9442,28.8722 10.8962,27.8662 10.9442,26.8632 C10.9562,26.5912 11.2382,26.3322 11.3962,26.0682 C11.5742,26.3422 11.8802,26.6052 11.9042,26.8912 C11.9672,27.6902 11.8942,28.4982 11.9162,29.3012 C11.9232,29.5342 12.0592,29.9562 12.1562,29.9612 C13.0282,30.0152 13.2202,30.6772 13.5172,31.3432 C13.8872,30.8012 13.9042,30.1652 13.5172,29.7582 C12.7802,28.9832 13.0772,28.0882 13.0372,27.2352 C13.0302,27.0832 13.3292,26.8502 13.5302,26.7862 C13.6182,26.7572 13.8742,27.0332 13.9472,27.2132 C14.3402,28.1952 14.5832,29.1992 14.7722,30.2542 C14.9222,31.1002 15.2012,32.3162 16.4122,32.8142 C16.4442,32.5662 16.4952,32.3822 16.4862,32.2022 C16.4292,31.0682 16.9152,30.4262 18.0042,30.0782 C18.2212,30.0082 18.4582,29.6812 18.4962,29.4432 C18.5732,28.9672 18.4732,28.4642 18.5372,27.9862 C18.5622,27.7932 18.8262,27.6332 18.9812,27.4582 C19.1422,27.6312 19.4472,27.8112 19.4392,27.9752 C19.4002,28.8162 19.7932,29.7102 18.9422,30.4672 C18.6582,30.7202 18.8032,31.4572 18.7332,32.1632 C19.5272,31.7342 19.9902,31.3972 19.9602,30.6472 C19.9212,29.6442 19.8782,28.6382 19.9192,27.6372 C19.9312,27.3522 20.2302,27.0792 20.3972,26.7992 C20.5602,27.0842 20.7652,27.3552 20.8792,27.6602 C21.1592,28.4052 21.3312,29.1972 21.6732,29.9102 C21.8872,30.3562 23.0832,30.0432 23.3642,29.6542 C24.2212,28.4602 24.0162,27.1152 24.0102,25.8022 C24.0092,25.4532 23.7432,25.1102 23.6402,24.7522 C23.5732,24.5202 23.5822,24.2652 23.5582,24.0202 C23.7812,24.0742 24.0652,24.0592 24.2142,24.1942 C24.7812,24.7082 25.1482,25.3082 25.0062,26.1492 C24.9222,26.6522 24.9502,27.1842 24.9972,27.6962 C25.1252,29.0382 24.4532,30.0652 23.7682,31.1102 C23.6252,31.3262 23.6752,31.6672 23.6362,31.9512 C23.8692,31.8622 24.1382,31.8222 24.3282,31.6762 C25.2222,30.9872 25.6212,30.1022 25.5252,28.9332 C25.4152,27.5912 25.4162,26.2372 25.4332,24.8892 C25.4372,24.5902 25.7122,24.2952 25.8622,23.9992 C26.0432,24.2982 26.3512,24.5852 26.3802,24.9002 C26.4512,25.6522 26.2302,26.4402 26.9452,27.0432 C27.0862,27.1642 27.0442,27.5332 27.0442,27.7872 C27.0472,28.9352 27.0242,30.0842 27.0372,31.2332 C27.0402,31.5032 27.0762,31.8232 27.2202,32.0362 C27.8942,33.0362 28.0592,33.0172 28.7082,31.9572 C28.0072,30.7812 27.9592,30.7312 29.0352,29.7082 C29.8402,28.9422 29.4782,28.0632 29.4832,27.2142 C29.4842,27.1032 29.1602,26.9082 28.9742,26.8922 C28.3772,26.8422 28.1942,26.5022 28.1932,25.9692 C28.1922,25.0812 28.1602,24.1902 28.1902,23.3022 C28.1982,23.0832 28.3532,22.7612 28.5242,22.6922 C28.6732,22.6302 28.9542,22.8342 29.1512,22.9622 C29.2892,23.0542 29.3952,23.2062 29.4952,23.3442 C29.8402,23.8282 30.0862,23.8012 30.5752,23.3962 C31.5452,22.5902 31.8462,21.6422 31.6252,20.4572 C31.6002,20.3182 31.5672,20.1522 31.6182,20.0322 C31.7402,19.7412 31.9102,19.4702 32.0612,19.1922 C32.2392,19.4292 32.4962,19.6422 32.5772,19.9092 C32.7732,20.5582 33.4292,21.1982 33.9372,21.1322 C34.4552,21.0652 35.1132,20.2292 35.1192,19.6352 C35.1262,18.8322 35.1462,18.0292 35.1412,17.2262 C35.1402,17.0432 35.0592,16.8622 35.0352,16.7612 C34.3932,16.9432 33.8242,17.1252 33.2422,17.2542 C33.0682,17.2922 32.8502,17.2072 32.6712,17.1332 C32.4122,17.0272 31.9832,16.7312 31.9482,16.7752 C31.6572,17.1342 31.4212,17.5432 31.2142,17.9602 C31.1472,18.0962 31.1872,18.3062 31.2272,18.4702 C31.4932,19.5522 30.4232,20.1682 30.2752,21.1212 C30.2582,21.2292 29.4602,21.4062 29.2312,21.2492 C28.8102,20.9612 28.5262,20.4612 28.2162,20.0272 C28.0412,19.7812 27.9002,19.4992 27.8022,19.2142 C27.7282,18.9992 27.6892,18.7392 27.7372,18.5212 C27.8452,18.0212 28.0922,17.5422 28.1432,17.0412 C28.2162,16.3302 28.2132,15.6022 28.1442,14.8902 C28.1042,14.4812 27.8502,14.0952 27.7302,13.6882 C27.6682,13.4752 27.6902,13.2382 27.6742,13.0122 C27.8982,13.0512 28.1782,13.0182 28.3342,13.1422 C28.9692,13.6462 29.2362,14.2832 29.1792,15.1442 C29.0852,16.5452 29.1372,17.9572 29.1372,19.3632 C29.1372,19.6332 29.1752,19.9042 29.2032,20.2562 C29.9422,19.9882 30.2952,19.6182 30.2492,18.8922 C30.2092,18.2632 30.1872,17.6212 30.2762,17.0002 C30.3472,16.4992 30.5922,16.0202 30.7652,15.5332 C30.8222,15.3742 30.9462,15.2182 30.9462,15.0612 C30.9492,13.8562 31.0092,12.6432 30.8822,11.4502 C30.8212,10.8762 30.5322,10.1662 30.1022,9.8302 C29.3972,9.2772 29.6232,8.9312 30.3232,8.4622 C30.2462,8.4222 30.1692,8.3822 30.0922,8.3422 C29.7142,8.3252 29.3232,8.2362 28.9592,8.3022 C28.1252,8.4542 27.5982,7.9932 27.1132,7.4572 C26.9962,7.3292 27.0372,7.0562 27.0062,6.8502 C27.2272,6.8772 27.5052,6.8302 27.6572,6.9462 C28.3842,7.5042 28.4922,7.3372 28.9362,6.6592 C29.9322,5.1382 29.3772,3.5072 29.5342,1.9322 C29.5592,1.6762 29.4742,1.3922 29.5572,1.1642 C29.6402,0.9362 29.8702,0.7622 30.0352,0.5652 C30.2012,0.7612 30.4852,0.9442 30.5102,1.1582 C30.5782,1.7242 30.5342,2.3032 30.5342,2.8782 C30.5342,3.8262 30.5502,4.7742 30.5242,5.7212 C30.5152,6.0232 30.3972,6.3242 30.3162,6.6212 C30.2492,6.8632 30.0282,7.2332 30.1092,7.3142 C30.3882,7.5962 30.7542,7.8122 31.1222,7.9712 C31.2192,8.0132 31.5372,7.7902 31.5952,7.6312 C31.9482,6.6652 31.9332,6.6602 32.8942,7.1952 C33.1462,6.5642 33.1652,6.0092 32.6962,5.4592 C31.9532,4.5892 32.2482,3.3322 33.2472,2.7582 C33.7112,2.4932 33.9492,2.8122 33.9592,3.2702 C33.9722,3.7862 33.8842,4.3102 33.9492,4.8172 C34.0032,5.2402 34.2202,5.6402 34.3572,6.0522 C34.4162,6.2322 34.5502,6.4642 34.4882,6.5912 C34.2052,7.1632 33.7742,7.6722 33.5672,8.2642 C33.2452,9.1852 32.5922,9.8212 31.9952,10.5352 C31.5532,11.0642 31.9612,13.4772 32.5032,13.8852 C32.7452,14.0672 33.1152,14.1592 33.4152,14.1392 C33.5232,14.1312 33.5952,13.6702 33.6912,13.4182 C33.8552,12.9892 34.0202,12.5602 34.1962,12.1342 C34.2382,12.0322 34.3862,11.9382 34.3752,11.8542 C34.2062,10.5052 35.4612,9.4262 35.0702,8.0192 C34.8962,7.3952 35.1762,6.8242 35.7202,6.4532 C35.9452,6.2992 36.2412,6.2512 36.5042,6.1562 C36.5592,6.4742 36.7722,6.9602 36.6422,7.0822 C35.7392,7.9342 36.0922,9.0072 36.0482,9.9982 C35.9822,11.4572 35.9772,12.9212 35.9582,14.3832 C35.9572,14.5062 36.0502,14.6302 36.1502,14.8822 C36.4722,14.3382 36.6802,13.8582 37.0072,13.4842 C37.1992,13.2652 37.5822,13.2142 37.8802,13.0882 C37.8672,13.4842 37.9972,13.9812 37.8082,14.2532 C37.4062,14.8292 36.8342,15.2872 36.3362,15.7962 C36.2592,15.8742 36.2032,15.9732 36.0982,16.1152 C37.2922,17.0802 36.3362,18.4862 36.7972,19.6912 C37.4742,19.3522 37.8222,18.9422 37.8512,18.2102 C37.8692,17.7992 38.1422,17.4012 38.2882,16.9922 C38.3902,16.7082 38.5442,16.4192 38.5482,16.1302 C38.5692,14.7542 38.5592,13.3762 38.5322,11.9992 C38.5182,11.3272 38.5912,10.8312 39.4542,10.7712 C39.9992,10.7332 40.0332,10.1682 39.6212,9.6612 C39.4632,9.4662 39.4492,9.1572 39.3692,8.8992 C39.6242,8.9772 39.8962,9.0232 40.1292,9.1432 C40.3262,9.2462 40.5582,9.4042 40.6292,9.5912 C40.7502,9.9152 40.9362,10.4312 40.7872,10.6042 C39.4222,12.2012 40.4312,14.0702 40.1492,15.7832 C40.0512,16.3752 40.6382,16.3932 41.0822,16.2262 C41.2532,16.1622 41.4222,15.9822 41.5052,15.8132 C41.9562,14.8972 42.7452,14.1302 42.6902,12.9892 C42.6462,12.1002 42.6762,11.2082 42.6702,10.3182 C42.6672,9.7802 42.8592,9.4352 43.4642,9.4312 C44.0592,9.4262 44.2862,9.7422 44.2832,10.2922 C44.2802,11.1252 44.2772,11.9572 44.2772,12.7912 C44.2762,14.2082 44.2772,14.2082 43.1732,14.5622 C43.3502,15.3382 43.5232,16.0992 43.7522,17.1122 C44.1462,16.2542 44.5182,15.5952 44.7472,14.8892 C44.8822,14.4742 44.5272,13.7242 45.2042,13.7402 C45.5842,13.7482 46.2352,14.3902 46.2682,14.7892 C46.3792,16.1242 46.3292,17.4832 46.2112,18.8222 C46.1662,19.3422 45.9102,20.0542 45.5182,20.2842 C45.0092,20.5822 44.2612,20.5742 43.6312,20.5192 C43.3502,20.4952 42.9742,20.0742 42.8872,19.7642 C42.8172,19.5162 43.1712,19.1742 43.2422,18.8542 C43.3452,18.3742 43.3652,17.8752 43.4342,17.2662 C42.2772,17.8222 41.2932,18.2942 40.0472,18.8932 C40.5382,19.0082 40.8102,19.1512 41.0552,19.1162 C41.9782,18.9832 42.2122,19.4462 42.2182,20.2562 C42.2212,20.5552 42.4372,20.8532 42.5532,21.1522 C42.6352,21.3622 42.7142,21.5742 42.7952,21.7852 C42.5562,21.7512 42.3122,21.7362 42.0792,21.6772 C41.9552,21.6462 41.8502,21.5392 41.7052,21.4462 C41.2872,21.9512 41.3602,22.4292 41.9272,22.4942 C42.9392,22.6102 42.9412,23.2252 42.8992,23.9602 C42.8772,24.3412 42.8952,24.7232 42.8952,25.2452 C43.6652,24.8592 44.1202,24.4982 44.0452,23.7002 C43.9912,23.1022 43.9792,22.4912 44.0382,21.8952 C44.0602,21.6822 44.3482,21.4972 44.5152,21.2992 C44.6792,21.4992 44.9622,21.6862 44.9872,21.9022 C45.0522,22.4862 45.0092,23.0822 45.0092,23.7292 C45.5912,23.5062 46.1042,23.3732 46.5412,23.1132 C46.7132,23.0102 46.7752,22.6252 46.7852,22.3662 C46.8302,21.1332 46.8072,19.8982 46.8822,18.6672 C46.9052,18.3072 47.1142,17.9152 47.3452,17.6242 C47.5252,17.3992 47.8732,17.3102 48.1472,17.1612 C48.2422,17.4702 48.4412,17.7922 48.4062,18.0862 C48.3552,18.5082 48.1382,18.9132 47.9802,19.3192 C47.9302,19.4502 47.7862,19.5652 47.7842,19.6902 C47.7662,20.5632 47.7742,21.4372 47.7742,22.3682 C48.3932,22.1132 48.9342,21.9662 49.3902,21.6832 C50.0702,21.2592 50.3402,20.6232 50.2402,19.7812 C50.1862,19.3332 49.9502,18.5472 50.6992,18.5292 C51.4722,18.5092 51.1672,19.2882 51.2072,19.7502 C51.2632,20.4092 51.2982,21.0562 50.6272,21.5202 C50.4642,21.6322 50.5102,22.0462 50.4442,22.4092 C51.6682,21.9192 51.6682,21.9192 52.0572,23.1872 C52.4362,22.7902 52.7312,22.4262 53.0842,22.1322 C53.2442,21.9992 53.5172,22.0032 53.7402,21.9462 C53.7112,22.1902 53.7332,22.4542 53.6452,22.6742 C53.5132,23.0052 53.3062,23.3052 53.2232,23.6662 C54.2262,23.4592 55.1202,22.3122 55.0712,21.4292 C55.0272,20.6462 55.6152,20.3522 56.0812,19.9542 C56.1362,19.9072 56.2492,19.9072 56.3302,19.9202 C56.6702,19.9752 57.2702,21.6832 57.1022,21.9842 C56.7012,22.7032 56.3442,23.4452 55.9562,24.1702 C55.7882,24.4842 55.5902,24.7812 55.3262,25.2172 C55.6992,25.2172 56.0762,25.3272 56.1912,25.1992 C56.8002,24.5262 57.7062,24.1002 57.9162,23.0622 C57.9622,22.8322 58.5002,22.5722 58.8262,22.5522 C59.4612,22.5152 59.8182,22.4522 59.9972,21.6682 C60.2242,20.6822 60.7902,19.7762 61.1782,18.8232 C61.2702,18.5962 61.2492,18.3172 61.2492,18.0632 C61.2522,16.8572 61.2132,15.6492 61.2622,14.4452 C61.2732,14.1802 61.5782,13.9272 61.7462,13.6692 C61.9122,13.9232 62.2142,14.1732 62.2222,14.4322 C62.2652,15.8672 62.2372,17.3032 62.2312,18.7402 C62.2302,18.9112 62.1402,19.1452 62.2212,19.2462 C63.2352,20.5062 62.1452,21.3012 61.6052,22.2332 C61.4962,22.4222 61.4552,22.8082 61.5702,22.9342 C61.7242,23.1032 62.0662,23.1832 62.3142,23.1592 C62.4992,23.1402 62.7142,22.9292 62.8292,22.7492 C63.3972,21.8472 64.1212,21.0112 64.0562,19.8332 C64.0252,19.2612 64.0742,18.6842 64.0572,18.1112 C64.0502,17.8632 64.0552,17.4912 63.9092,17.3912 C63.2202,16.9222 63.3622,16.2492 63.3602,15.6002 C63.3552,14.3362 63.3572,13.0732 63.3482,11.8092 C63.3442,11.2702 63.4352,10.8292 64.1162,10.8102 C64.8342,10.7902 64.9712,11.2232 64.9642,11.8172 C64.9492,13.2242 64.9422,14.6312 64.9492,16.0382 C64.9502,16.3142 64.9342,16.7292 65.0942,16.8412 C65.7742,17.3182 65.6422,17.9852 65.6432,18.6342 C65.6442,19.4962 65.5792,20.3632 65.6552,21.2172 C65.8382,23.2632 64.8042,24.7292 63.3622,25.9262 C62.9972,26.2292 62.1382,26.2562 61.6802,26.0402 C61.1632,25.7962 60.5152,25.3672 60.5912,24.5472 C60.6212,24.2302 60.5962,23.9092 60.5962,23.6972 C59.8352,23.8602 59.2022,23.9992 58.5652,24.1302 C58.0292,24.2412 57.3772,25.0792 57.3732,25.7222 C57.3662,27.0992 57.4152,28.4792 57.3602,29.8552 C57.3422,30.2612 57.0332,30.6512 56.8902,31.0592 C56.7962,31.3282 56.7602,31.6172 56.6982,31.8972 C56.9352,31.8322 57.1692,31.7382 57.4122,31.7072 C58.9232,31.5102 58.5172,30.3702 58.5332,29.4432 C58.5422,28.8112 58.5282,28.1792 58.5272,27.5472 C58.5272,27.0672 58.6452,26.6902 59.2392,26.6932 C59.8372,26.6952 60.1532,26.9602 60.1372,27.5802 C60.1252,28.0682 60.0672,28.5652 60.1392,29.0412 C60.2022,29.4552 60.3572,29.8862 60.5832,30.2372 C60.8972,30.7202 60.9392,31.8112 60.5632,32.2542 C60.4182,32.4262 60.1212,32.6452 60.1572,32.7652 C60.4542,33.7862 59.5502,34.4162 59.3902,35.2832 C59.2832,35.8642 58.0162,36.0942 57.3972,35.6622 C57.1642,35.4992 56.9422,35.3032 56.7642,35.0822 C56.6552,34.9462 56.5402,34.6752 56.6042,34.5682 C56.6972,34.4092 56.9362,34.2832 57.1312,34.2492 C57.4092,34.2032 57.7092,34.3002 57.9872,34.2522 C58.6302,34.1412 58.7552,33.7792 58.4012,33.1662 C57.8882,33.5412 57.4192,33.7512 56.8902,33.2072 C56.7672,33.0822 56.1952,33.1532 56.0582,33.3212 C55.5822,33.9042 54.9732,33.7882 54.3912,33.7482 C53.7562,33.7042 52.7562,31.6442 53.1222,31.1432 C53.2522,30.9662 53.5382,30.8482 53.7692,30.8152 C54.1932,30.7532 54.6282,30.7822 55.0582,30.7602 C55.2272,30.7512 55.4212,30.7572 55.5552,30.6752 C56.0072,30.3992 56.4952,28.3272 56.2382,27.7002 C55.6422,28.0462 55.0652,28.4162 54.4532,28.7152 C54.2762,28.8012 53.9182,28.7642 53.7852,28.6362 C53.5182,28.3792 53.3482,28.0212 53.1382,27.7052 C53.3492,27.5952 53.5552,27.4752 53.7722,27.3792 C53.9342,27.3082 54.1112,27.2702 54.4192,27.1732 C53.8122,26.8262 53.3072,26.6092 52.8952,26.2772 C52.6382,26.0692 52.5412,25.6722 52.3362,25.3852 C52.0462,24.9782 51.7832,24.5182 51.3992,24.2212 C50.9722,23.8902 50.4932,24.2002 50.4902,24.7972 C50.4882,25.3942 50.3652,25.8542 49.9602,26.3522 C49.6792,26.6992 49.7812,27.3552 49.7112,27.8732 C49.8122,27.8962 49.9122,27.9202 50.0122,27.9442 C50.1102,27.6922 50.1762,27.4212 50.3162,27.1962 C50.4222,27.0242 50.6292,26.7922 50.7782,26.8022 C50.9282,26.8122 51.1672,27.0772 51.1822,27.2462 C51.2372,27.8632 51.3292,28.4882 50.7342,28.9842 C50.3092,29.3382 50.3852,32.5892 50.8212,32.9052 C51.7372,33.5672 52.0412,34.4292 51.9112,35.5162 C51.8602,35.9412 51.9192,36.3772 51.9042,36.8072 C51.8892,37.2162 52.0182,37.7912 51.3832,37.7592 C51.2072,37.7502 50.9722,37.1792 50.9232,36.8432 C50.8552,36.3682 50.9502,35.8712 50.9462,35.3832 C50.9442,35.1282 50.8812,34.8742 50.8452,34.6202 C50.7452,34.6072 50.6452,34.5942 50.5452,34.5822 C50.2942,35.3802 50.0322,36.1762 49.8012,36.9812 C49.7602,37.1272 49.8232,37.3242 49.8862,37.4772 C50.1622,38.1442 50.4542,38.8032 50.7772,39.5482 C50.6752,39.5822 50.7932,39.5382 50.9132,39.5022 C51.1832,39.4262 51.4542,39.3552 51.7232,39.2822 C51.7502,39.6072 51.9202,40.0212 51.7822,40.2422 C51.1742,41.2092 50.7502,42.3042 49.7812,43.0352 C49.1792,43.4892 48.1792,43.5902 47.5912,43.0962 C46.9882,42.5882 46.1852,42.5962 45.5842,43.0592 C45.3522,43.2382 45.0082,43.2682 44.7652,43.4382 C44.5812,43.5662 44.4782,43.8082 44.3382,43.9992 L42.6162,43.9992 Z" id="Fill-3" fill="#231916" mask="url(#mask-4)"></path>
                </g>
                <path d="M70.1099,98.2196 C70.7829,98.1406 72.3399,96.6516 72.3599,96.1956 C72.3659,96.0656 72.3179,95.8486 72.2419,95.8216 C72.1139,95.7746 71.9309,95.8226 71.7919,95.8776 C71.4629,96.0086 71.1059,96.1166 70.8319,96.3266 C70.4559,96.6156 70.0679,96.9446 69.8419,97.3446 C69.7389,97.5276 70.0089,97.9216 70.1099,98.2196 M73.2679,99.3156 C73.5849,99.6136 73.9469,99.8766 74.1999,100.2216 C74.3439,100.4186 74.4489,100.8816 74.3379,100.9936 C73.5079,101.8316 72.7519,102.7956 71.3029,102.5246 C70.6829,102.4076 70.2429,102.3466 70.2739,101.5996 C70.2789,101.4846 70.1639,101.3636 69.9509,100.9396 C69.3559,101.6366 68.8819,102.2336 68.3639,102.7896 C67.8179,103.3746 66.6849,103.3796 66.1439,102.7826 C65.5169,102.0916 64.4739,101.6236 64.6959,100.4296 C64.7499,100.1416 64.9899,99.8886 65.1439,99.6196 C65.3219,99.8616 65.4819,100.1176 65.6809,100.3406 C66.0579,100.7646 66.4009,101.3956 66.8649,101.5096 C67.2309,101.5996 67.7559,101.0436 68.2339,100.7616 C67.5209,100.3466 66.9939,100.0736 66.5079,99.7396 C66.3549,99.6336 66.1889,99.2926 66.2499,99.1906 C66.3549,99.0116 66.6189,98.8826 66.8399,98.8256 C67.2399,98.7236 67.8789,98.8316 68.0259,98.6016 C68.4209,97.9866 68.7089,97.2566 68.8489,96.5346 C68.9879,95.8306 68.7009,95.0426 69.4209,94.4786 C69.5489,94.3776 69.5229,94.0486 69.5259,93.8236 C69.5349,93.3076 69.4539,92.7806 69.5329,92.2776 C69.5849,91.9496 69.8539,91.6576 70.0269,91.3496 C70.1909,91.6646 70.4519,91.9676 70.4979,92.3006 C70.5709,92.8346 70.4669,93.3906 70.5089,93.9326 C70.5279,94.1806 70.6589,94.5456 70.8389,94.6226 C71.0349,94.7066 71.4399,94.6026 71.5929,94.4336 C72.1699,93.8006 72.6969,93.1396 73.1729,92.4046 C73.8179,91.4086 73.5789,90.5106 73.6459,89.5666 C73.6679,89.2676 73.5059,88.9066 73.3209,88.6516 C72.8599,88.0116 72.8839,87.0616 73.3679,86.4526 C73.5589,86.2116 73.6749,85.8596 73.6999,85.5466 C73.7449,84.9486 73.6899,84.3426 73.6969,83.7396 C73.7029,83.2036 74.0239,82.8836 74.5189,83.0176 C74.8189,83.0976 75.2179,83.4476 75.2599,83.7236 C75.3669,84.4246 75.3049,85.1536 75.2919,85.8706 C75.2889,86.0356 75.2479,86.2246 75.1599,86.3606 C74.1859,87.8666 74.4279,89.3466 75.1509,90.8706 C75.3429,91.2786 75.2059,91.8286 75.2969,92.2996 C75.3729,92.6886 75.4939,93.1036 75.7159,93.4216 C76.0849,93.9486 76.0799,94.9796 75.7099,95.5076 C75.4859,95.8256 75.3249,96.2466 75.2989,96.6316 C75.2479,97.4026 75.3329,98.1816 75.3089,98.9546 C75.3019,99.1746 75.1649,99.4546 74.9939,99.5806 C74.8999,99.6506 74.6119,99.4566 74.4119,99.3816 C74.0869,99.2586 73.7619,99.1356 73.4369,99.0126 C73.3809,99.1136 73.3249,99.2136 73.2679,99.3156" id="Fill-5" fill="#231916"></path>
                <path d="M58.2496,63.2176 C58.1316,63.4556 58.0026,63.5906 58.0236,63.6946 C58.3486,65.2236 57.5216,66.3696 56.8106,67.5746 C56.6876,67.7806 56.8736,68.1926 56.9636,68.4936 C57.0796,68.8846 57.3076,69.2506 57.3686,69.6456 C57.4636,70.2516 57.2946,70.7326 56.5296,70.7476 C56.3776,70.7516 56.2276,70.9106 56.1006,71.1976 C56.3316,71.2446 56.6106,71.2276 56.7826,71.3546 C57.0246,71.5336 57.3466,71.8216 57.3436,72.0606 C57.3406,72.3076 57.0306,72.6116 56.7796,72.7746 C56.5886,72.8996 56.2756,72.8806 56.0216,72.8626 C55.1916,72.7996 54.5326,73.0506 54.0246,73.7446 C53.8886,73.9316 53.5606,73.9786 53.3206,74.0886 C53.2126,73.8416 52.9856,73.5716 53.0276,73.3546 C53.0776,73.0986 53.3146,72.7976 53.5526,72.6756 C54.2306,72.3246 54.9506,72.0556 55.6476,71.5326 C55.3746,71.5006 55.0986,71.4846 54.8286,71.4326 C54.4936,71.3676 54.1646,71.2736 53.8326,71.1926 C53.9916,70.9196 54.0906,70.5716 54.3196,70.3886 C55.3616,69.5566 56.0046,68.5926 55.7706,67.1726 C55.6806,66.6176 55.7226,66.0496 56.2826,65.6256 C56.4636,65.4886 56.4576,65.0536 56.4676,64.7526 C56.4906,64.0526 56.2916,63.3206 57.0436,62.8026 C57.1736,62.7136 57.1646,62.1236 57.0146,61.9806 C56.5896,61.5726 56.2546,60.8246 55.3416,61.2526 C55.4706,61.4476 55.5506,61.6226 55.6766,61.7526 C56.1516,62.2416 56.1116,62.6726 55.6506,63.1706 C55.4476,63.3906 55.2686,63.7826 55.3146,64.0566 C55.4436,64.8186 54.9916,65.2456 54.5336,65.6696 C54.1146,66.0576 53.6926,65.9036 53.7126,65.3666 C53.7446,64.4956 53.3526,63.4966 54.2836,62.8426 C53.4166,61.3646 53.4166,61.3646 54.9826,60.7856 C54.9116,60.6666 54.8536,60.4686 54.7796,60.4626 C54.1386,60.4116 53.6946,60.2106 53.6466,59.4546 C53.6376,59.3146 53.2216,59.1486 52.9706,59.0856 C52.3496,58.9306 52.1966,58.5006 52.3416,57.9796 C52.3876,57.8126 52.8366,57.5756 52.9516,57.6396 C53.6536,58.0326 54.2966,58.5306 54.9896,58.9416 C55.7696,59.4036 56.6466,59.7226 57.3596,60.2656 C58.1206,60.8436 58.7396,61.6096 59.4176,62.2956 C59.6446,62.5246 59.8436,62.7856 60.0906,62.9886 C60.4996,63.3236 60.9766,63.5826 61.3556,63.9456 C62.1856,64.7356 62.9746,65.5656 63.7716,66.3876 C64.2936,66.9256 64.8276,67.3796 65.0716,68.2126 C65.2616,68.8586 66.1066,69.2996 66.6156,69.8726 C66.7746,70.0526 66.7846,70.3646 66.8626,70.6156 C66.6226,70.5716 66.3726,70.5546 66.1456,70.4726 C65.8906,70.3816 65.6576,70.2276 65.4116,70.1086 C65.2606,70.0346 64.9706,69.9846 64.9666,69.9096 C64.8906,68.6696 63.5896,68.6846 62.9956,67.9706 C62.3766,67.2256 61.6236,66.5926 60.9476,65.8926 C60.8006,65.7396 60.6556,65.5176 60.6396,65.3166 C60.5996,64.8336 60.4176,64.6036 59.9056,64.5566 C59.6606,64.5346 59.4166,64.3066 59.2076,64.1296 C58.8926,63.8636 58.6066,63.5626 58.2496,63.2176" id="Fill-7" fill="#231916"></path>
                <path d="M7.1939,97.4041 C7.8509,96.9821 8.2649,96.6001 8.2069,95.7931 C8.1199,94.5931 8.1369,93.3831 8.1859,92.1791 C8.1969,91.9001 8.5149,91.6331 8.6919,91.3601 C8.8419,91.6341 9.0479,91.8931 9.1289,92.1861 C9.2029,92.4571 9.1439,92.7631 9.1439,93.0541 C9.2569,93.0641 9.3699,93.0731 9.4819,93.0831 C9.5119,92.7931 9.4899,92.4831 9.5859,92.2171 C9.6959,91.9111 9.9109,91.6431 10.0809,91.3601 C10.2379,91.6521 10.5069,91.9341 10.5319,92.2371 C10.5949,93.0361 10.5829,93.8441 10.5369,94.6441 C10.5199,94.9141 10.3099,95.1721 10.1889,95.4351 C9.9869,95.2131 9.7799,94.9961 9.5859,94.7671 C9.5189,94.6891 9.4839,94.5841 9.4249,94.4731 C8.8499,95.1771 9.0279,95.8821 9.7869,96.0751 C10.5019,96.2581 10.5519,96.4531 10.0789,97.0401 C9.9439,97.2071 9.7669,97.4561 9.8029,97.6261 C10.0999,99.0261 8.9089,99.5631 8.1489,100.1951 C7.7069,100.5631 6.6259,100.6411 6.1189,100.3501 C5.1979,99.8201 4.5669,99.6901 3.6629,100.3681 C3.2289,100.6931 2.6149,100.2611 2.7089,99.5811 C2.8559,98.5081 2.0229,97.8611 1.6679,97.0161 C1.5059,96.6301 1.3449,96.4301 1.6589,96.0661 C2.1999,95.4381 2.1499,94.7861 1.6359,94.1351 C1.4689,93.9241 1.3189,93.6421 1.3059,93.3851 C1.2959,93.1791 1.4609,92.8921 1.6359,92.7781 C1.7399,92.7101 2.0409,92.8721 2.2119,92.9901 C3.1899,93.6671 2.9709,94.6971 2.9529,95.6541 C2.9319,96.7131 3.0679,96.8921 4.1059,96.7341 C4.3619,96.6961 4.6719,96.3531 4.7729,96.0831 C5.0699,95.2881 5.2579,94.4541 5.5349,93.6501 C5.5739,93.5341 5.9439,93.3961 6.0149,93.4531 C6.1929,93.5931 6.3459,93.8241 6.4029,94.0461 C6.6759,95.1191 6.9149,96.2001 7.1939,97.4041" id="Fill-9" fill="#231916"></path>
                <path d="M10.524,81.7039 C10.805,83.3259 9.43,83.0839 8.881,83.7199 C8.827,83.7819 8.635,83.8069 8.563,83.7619 C7.809,83.2839 7.053,82.8079 6.335,82.2809 C6.197,82.1809 6.176,81.8639 6.171,81.6449 C6.143,80.3249 6.12,79.0049 6.132,77.6839 C6.134,77.4299 6.3,77.1759 6.39,76.9219 C6.65,77.0439 7.018,77.0989 7.145,77.3039 C7.413,77.7319 7.672,78.2289 7.72,78.7199 C7.806,79.5999 7.749,80.4979 7.721,81.3879 C7.706,81.8779 7.778,82.2709 8.377,82.2649 C8.864,82.2589 9.286,82.3579 9.629,81.6939 C10.13,80.7289 10.049,79.6519 10.398,78.7659 C10.765,77.8319 10.721,76.8909 11.027,76.0319 C11.288,75.2989 11.709,74.6439 11.673,73.8159 C11.669,73.6929 11.99,73.4459 12.145,73.4589 C12.303,73.4709 12.572,73.7329 12.569,73.8819 C12.552,74.7369 12.68,75.5409 12.172,76.4279 C11.746,77.1739 11.961,78.2969 11.949,79.2529 C11.948,79.3389 12.386,79.5289 12.584,79.4879 C12.769,79.4509 13.003,79.1889 13.04,78.9939 C13.107,78.6359 12.991,78.2429 13.05,77.8819 C13.111,77.5109 13.291,77.1589 13.416,76.7979 C13.513,76.5119 13.712,76.2129 13.683,75.9389 C13.587,75.0429 14.058,74.0349 13.196,73.2529 C13.137,73.1989 13.417,72.6809 13.622,72.4539 C13.791,72.2669 14.084,72.1939 14.322,72.0699 C14.436,72.3369 14.646,72.6029 14.648,72.8709 C14.669,75.0529 14.669,77.2349 14.622,79.4169 C14.614,79.7669 14.368,80.1269 14.182,80.4539 C13.882,80.9839 13.5,81.4709 13.231,82.0139 C12.966,82.5479 11.884,82.7639 11.264,82.3369 C11.103,82.2259 10.965,82.0839 10.524,81.7039" id="Fill-11" fill="#231916"></path>
                <path d="M17.1177,88.4276 C17.0847,87.3586 18.2037,86.7586 17.9077,85.6636 C17.8717,85.5296 18.3137,85.1226 18.5737,85.0796 C19.1087,84.9926 19.2277,84.7166 19.2187,84.2566 C19.2017,83.4256 19.1587,82.5906 19.2167,81.7636 C19.2337,81.5026 19.5357,81.2606 19.7077,81.0106 C19.8727,81.2676 20.1667,81.5196 20.1797,81.7836 C20.2307,82.8426 20.2027,83.9066 20.1847,84.9666 C20.1807,85.1896 20.1707,85.5176 20.0337,85.6146 C19.2757,86.1516 19.5027,86.9166 19.4487,87.6416 C19.4217,88.0026 19.2197,88.3636 19.0457,88.6986 C18.7697,89.2336 18.5247,89.8126 18.1277,90.2446 C17.8677,90.5276 17.3657,90.6746 16.9657,90.6896 C16.8227,90.6956 16.6607,90.1296 16.5047,89.8266 C16.4547,89.7306 16.3937,89.6406 16.3067,89.4956 C15.8467,89.8056 15.3907,90.5036 15.0057,89.5406 C14.5937,90.1476 14.2567,90.7026 13.8507,91.2006 C13.7437,91.3326 13.4217,91.2896 13.1977,91.3266 C13.2037,91.1216 13.1287,90.7946 13.2267,90.7296 C13.8277,90.3316 13.6487,89.7296 13.7437,89.1816 C13.8287,88.6836 14.1287,88.2236 14.2157,87.7256 C14.3737,86.8196 15.2277,86.1906 15.1027,85.1426 C15.0447,84.6526 15.4127,84.1146 15.5717,83.5926 C15.6537,83.3276 15.7467,83.0536 15.7577,82.7816 C15.7807,82.1516 15.8477,81.5026 15.7337,80.8926 C15.5157,79.7256 16.3057,78.8646 16.5437,77.8406 C16.5717,77.7186 16.8647,77.5646 17.0087,77.5886 C17.1587,77.6136 17.3957,77.8396 17.3897,77.9686 C17.3497,78.8216 17.7137,79.7396 16.9657,80.4936 C16.7957,80.6646 16.7527,81.0126 16.7427,81.2826 C16.7177,81.9986 16.7497,82.7166 16.7437,83.4336 C16.7417,83.6596 16.7787,83.9826 16.6507,84.0976 C15.8467,84.8216 16.0967,85.7746 16.0277,86.6576 C15.9527,87.6396 16.0377,87.7846 17.1177,88.4276" id="Fill-13" fill="#231916"></path>
                <path d="M20.5162,96.5438 C20.0462,96.0668 20.1232,95.7358 20.4122,95.1718 C20.7192,94.5678 20.6002,93.7258 20.5902,92.9868 C20.5692,91.3798 20.8172,91.0458 22.3402,90.4658 C22.7412,90.3138 23.0142,89.8558 23.3952,89.6158 C23.7072,89.4198 24.1012,89.2288 24.4412,89.2558 C24.6332,89.2718 24.8182,89.7178 24.9572,89.9948 C25.2452,90.5618 25.4712,91.1598 25.7862,91.7098 C25.8682,91.8538 26.1762,91.9138 26.3872,91.9288 C27.7302,92.0208 27.7302,92.0128 27.2152,93.1628 C27.2512,93.2048 27.2812,93.2648 27.3272,93.2858 C27.6522,93.4378 27.9802,93.5818 28.3072,93.7288 C27.9772,94.1018 27.6912,94.7308 27.3072,94.7978 C26.3962,94.9558 25.3522,95.2788 24.5972,94.3458 C24.4202,94.1268 24.3282,93.8398 24.1972,93.5848 C24.4482,93.4968 24.6982,93.4058 24.9502,93.3228 C25.0542,93.2888 25.1632,93.2728 25.2722,93.2498 C24.9372,91.9778 22.9452,90.9978 21.8692,91.5898 C21.6892,91.6888 21.5822,92.0618 21.5782,92.3118 C21.5482,93.6598 21.5242,95.0108 21.5762,96.3578 C21.6012,97.0308 21.4122,97.5548 20.8732,97.9108 C20.6572,98.0538 20.3382,98.0428 20.0672,98.1018 C20.0372,97.8058 19.9352,97.4938 19.9972,97.2198 C20.0482,96.9958 20.2952,96.8178 20.5162,96.5438" id="Fill-15" fill="#231916"></path>
                <path d="M15.5259,94.1024 C15.2089,95.1634 15.4189,95.5124 16.4799,95.9704 C16.7259,95.0674 15.9799,94.7724 15.5259,94.1024 M14.7849,93.7984 C15.1039,93.3864 15.3589,93.0594 15.6129,92.7324 C15.8259,93.0604 16.0389,93.3884 16.3009,93.7944 C16.7679,93.6644 17.0259,93.2694 17.1649,92.7014 C17.2249,92.4554 17.4849,92.2564 17.6539,92.0374 C17.8129,92.2994 18.0099,92.5474 18.1179,92.8314 C18.1829,93.0014 18.0429,93.2544 18.1139,93.4194 C18.2079,93.6374 18.4059,93.9424 18.5809,93.9564 C18.7709,93.9734 19.0279,93.7334 19.1799,93.5444 C19.3729,93.3074 19.4899,93.0084 19.6399,92.7364 C19.7959,92.8424 20.0889,92.9604 20.0809,93.0524 C20.0469,93.4154 19.9429,93.7784 19.8209,94.1254 C19.7329,94.3794 19.4459,94.6264 19.4749,94.8464 C19.5879,95.7074 19.0999,96.2334 18.5859,96.7904 C18.3509,97.0444 18.1729,97.3854 18.0699,97.7174 C17.8799,98.3314 17.1939,98.6554 16.7569,98.1824 C16.1209,97.4944 15.1599,97.0534 15.0079,95.9354 C14.9639,95.6094 14.5539,95.2894 14.2469,95.0524 C13.6539,94.5944 13.6169,93.9764 13.7019,93.3434 C13.7309,93.1244 14.0019,92.9394 14.1619,92.7384 C14.3149,92.9154 14.4919,93.0774 14.6119,93.2744 C14.7059,93.4264 14.7299,93.6234 14.7849,93.7984" id="Fill-17" fill="#231916"></path>
                <path d="M52.5777,52.9471 C51.4977,52.4951 50.4647,52.1251 49.5017,51.6211 C49.1967,51.4621 49.0817,50.9441 48.8717,50.5961 C48.7747,50.4371 48.6607,50.1641 48.5487,50.1611 C47.4277,50.1321 47.0687,49.0771 46.3487,48.5241 C46.1617,48.3801 46.1157,47.8661 46.2127,47.5971 C46.2887,47.3851 46.6737,47.1891 46.9407,47.1591 C48.2847,47.0051 49.0687,47.7301 49.0887,49.1121 C49.0947,49.5731 49.1807,49.9111 49.7347,49.9001 C49.8477,49.8981 49.9817,49.9071 50.0667,49.9671 C51.0037,50.6221 51.9417,51.2731 52.8497,51.9661 C53.0067,52.0861 53.1097,52.4111 53.0707,52.6071 C53.0417,52.7531 52.7407,52.8431 52.5777,52.9471" id="Fill-19" fill="#231916"></path>
                <path d="M30.1343,18.7039 C29.5663,17.8789 29.9893,16.9699 30.9373,16.8249 C31.2173,16.7819 31.5453,16.7319 31.7873,16.8349 C32.0823,16.9609 32.5223,17.2519 32.5153,17.4589 C32.5043,17.7629 32.1783,18.0759 31.9373,18.3409 C31.8423,18.4429 31.5253,18.3719 31.4663,18.4729 C31.3233,18.7149 31.2733,19.0119 31.1863,19.2859 C31.4033,19.2569 31.6253,19.2499 31.8333,19.1909 C31.9633,19.1539 32.0703,18.9749 32.1903,18.9729 C32.6923,18.9579 33.1973,18.9719 33.6963,19.0179 C33.7513,19.0239 33.8623,19.4099 33.8083,19.4549 C33.3903,19.8079 32.9443,20.1289 32.4913,20.4379 C32.3893,20.5079 32.2283,20.4899 32.0503,20.5199 C32.0813,20.6779 32.0923,20.7859 32.1253,20.8869 C32.2103,21.1379 32.3063,21.3859 32.3983,21.6349 C32.1653,21.7089 31.9053,21.8879 31.7093,21.8329 C31.4473,21.7599 31.0803,21.5399 31.0323,21.3229 C30.9143,20.7749 30.7263,20.5079 30.1153,20.4109 C29.5043,20.3129 29.4513,19.7659 29.6813,19.2519 C29.7703,19.0539 29.9643,18.9029 30.1343,18.7039" id="Fill-21" fill="#231916"></path>
                <path d="M26.4878,81.6863 C26.8868,81.5563 27.1648,81.4583 27.4458,81.3753 C27.7128,81.2973 27.9828,81.2343 28.2528,81.1643 C28.2748,81.5063 28.4508,81.9863 28.2908,82.1653 C27.8668,82.6423 27.5198,83.3833 26.6548,83.1623 C26.0478,83.0053 25.4098,82.0283 25.4098,81.3073 C25.4108,80.3073 25.3658,79.3053 25.4198,78.3083 C25.4328,78.0523 25.7428,77.8113 25.9158,77.5633 C26.0788,77.8213 26.3548,78.0673 26.3838,78.3393 C26.4628,79.0783 26.1468,79.8693 26.8528,80.5103 C26.9578,80.6063 26.6678,81.1353 26.4878,81.6863" id="Fill-23" fill="#231916"></path>
                <path d="M56.9517,73.3426 C57.1467,73.5666 57.3677,73.7016 57.3727,73.8466 C57.3837,74.1396 57.3767,74.5926 57.2027,74.7026 C56.6457,75.0546 56.7027,75.5256 56.7157,76.0506 C56.7447,77.1946 56.7647,78.3416 56.7117,79.4846 C56.6987,79.7726 56.4007,80.0476 56.2347,80.3286 C56.0727,80.0356 55.7907,79.7506 55.7697,79.4486 C55.7077,78.5366 55.7827,77.6156 55.7267,76.7036 C55.7027,76.3126 55.5427,75.9016 55.3447,75.5566 C55.0997,75.1336 55.0997,74.7616 55.5967,74.7316 C56.2267,74.6926 56.4417,74.4416 56.4857,73.8576 C56.4977,73.6966 56.7517,73.5536 56.9517,73.3426" id="Fill-25" fill="#231916"></path>
                <path d="M12.065,89.4608 C11.981,89.7318 11.962,89.8718 11.897,89.9848 C11.756,90.2268 11.591,90.4518 11.437,90.6848 C11.264,90.4348 10.935,90.1758 10.948,89.9338 C10.987,89.1398 10.796,88.3218 11.469,87.5818 C11.714,87.3118 11.385,86.5128 11.305,85.9568 C11.267,85.6938 11.196,85.4368 11.14,85.1768 C11.395,85.2708 11.673,85.3248 11.901,85.4638 C12.845,86.0398 12.621,86.9738 12.592,87.8428 C12.576,88.3738 12.405,88.9338 12.998,89.3208 C13.092,89.3838 13.014,89.7088 13.016,89.9128 C12.84,89.8878 12.653,89.8898 12.49,89.8278 C12.371,89.7828 12.282,89.6548 12.065,89.4608" id="Fill-27" fill="#231916"></path>
                <path d="M57.4986,87.7537 C57.4086,88.0727 57.4146,88.3157 57.3086,88.3857 C56.4896,88.9147 56.8046,89.7517 56.6706,90.4757 C56.6096,90.8067 56.3766,91.2077 56.1006,91.3637 C55.8996,91.4767 55.2696,91.2907 55.2366,91.1487 C55.1566,90.7857 55.2336,90.3437 55.3786,89.9867 C55.6866,89.2327 56.0636,88.5057 56.4426,87.7827 C56.5586,87.5657 56.7736,87.3997 56.9426,87.2107 C57.1426,87.4057 57.3416,87.6007 57.4986,87.7537" id="Fill-29" fill="#231916"></path>
                <path d="M20.8462,73.158 C20.8462,73.472 20.9132,73.807 20.8272,74.096 C20.7422,74.386 20.5422,74.798 20.3212,74.85 C20.0292,74.92 19.5192,74.786 19.3742,74.563 C19.2232,74.33 19.2592,73.762 19.4492,73.561 C19.9502,73.029 20.1542,72.609 19.5012,72.064 C19.3882,71.97 19.3232,71.611 19.3942,71.545 C19.5582,71.39 19.8392,71.237 20.0362,71.275 C20.3072,71.326 20.6942,71.506 20.7622,71.718 C20.9082,72.167 20.8792,72.672 20.9222,73.154 C20.8972,73.155 20.8712,73.156 20.8462,73.158" id="Fill-31" fill="#231916"></path>
                <path d="M42.9175,51.8192 C42.9175,52.2172 42.9615,52.6242 42.8975,53.0112 C42.8695,53.1792 42.6405,53.3832 42.4635,53.4332 C42.3485,53.4662 42.0635,53.2822 42.0235,53.1452 C41.7515,52.2012 41.4875,51.2522 41.3035,50.2882 C41.2515,50.0122 41.4705,49.6862 41.5635,49.3832 C41.8455,49.5332 42.2615,49.6132 42.3825,49.8452 C42.6925,50.4472 42.8745,51.1162 43.1065,51.7582 C43.0435,51.7792 42.9805,51.7982 42.9175,51.8192" id="Fill-33" fill="#231916"></path>
                <path d="M27.024,61.7918 C27.024,62.0778 27.111,62.4048 27,62.6388 C26.887,62.8728 26.59,63.1378 26.351,63.1618 C26.107,63.1878 25.718,63.0038 25.595,62.7938 C25.219,62.1488 25.648,60.7768 26.323,60.4598 C26.475,60.3888 26.926,60.5998 26.993,60.7738 C27.105,61.0738 27.024,61.4478 27.024,61.7918" id="Fill-35" fill="#231916"></path>
                <path d="M34.0132,13.742 L33.1252,13.177 C33.4782,12.796 33.8262,12.41 34.1882,12.038 C34.2362,11.988 34.3572,11.978 34.4352,11.995 C34.9352,12.1 35.7972,11.606 35.8152,12.438 C35.8232,12.807 34.9422,13.203 34.4502,13.568 C34.3762,13.623 34.2272,13.575 34.1132,13.575 L34.0132,13.742 Z" id="Fill-37" fill="#231916"></path>
                <path d="M27.9712,12.6766 C28.5502,12.6536 29.1422,12.6706 29.1172,13.4626 C29.0882,14.3756 28.3422,14.2096 27.7692,14.2596 C27.1952,14.3096 26.7982,14.1016 26.8112,13.4556 C26.8272,12.6626 27.3962,12.6546 27.9712,12.6766" id="Fill-39" fill="#231916"></path>
                <path d="M68.3765,72.9012 C67.0865,72.8852 66.6685,72.5862 66.7845,71.9392 C66.8215,71.7312 67.1315,71.3752 67.1835,71.3972 C67.7805,71.6532 68.3535,71.9692 68.9315,72.2692 C68.6965,72.5362 68.4625,72.8032 68.3765,72.9012" id="Fill-41" fill="#231916"></path>
                <path d="M69.2398,70.4442 C69.9198,70.5282 70.5228,70.6042 70.4968,71.4552 C70.4908,71.6502 70.2528,72.0152 70.2258,72.0062 C69.6138,71.7882 69.0098,71.5442 68.4238,71.2602 C68.3408,71.2202 68.3008,70.8462 68.3488,70.8192 C68.6278,70.6622 68.9388,70.5632 69.2398,70.4442" id="Fill-43" fill="#231916"></path>
                <path d="M52.6792,74.241 C52.4212,74.466 52.1972,74.803 51.9002,74.887 C51.4152,75.025 50.9892,74.831 50.9412,74.233 C50.9032,73.754 51.0662,73.317 51.6082,73.367 C51.9682,73.4 52.3062,73.685 52.6542,73.858 C52.6612,73.985 52.6702,74.113 52.6792,74.241" id="Fill-45" fill="#231916"></path>
                <path d="M23.2984,72.367 C23.3354,72.129 23.2904,71.759 23.4334,71.66 C23.6234,71.528 23.9594,71.606 24.2334,71.595 C24.2394,72.123 24.2664,72.652 24.2344,73.178 C24.2284,73.275 23.9754,73.443 23.8554,73.429 C23.6934,73.407 23.4754,73.272 23.4134,73.13 C23.3174,72.907 23.3324,72.636 23.2984,72.367" id="Fill-47" fill="#231916"></path>
                <path d="M34.772,14.7264 C34.844,14.8004 35.215,15.1394 35.195,15.1654 C34.889,15.5474 34.532,15.8884 34.187,16.2384 C34.017,16.0204 33.726,15.8144 33.702,15.5804 C33.647,15.0394 33.965,14.7304 34.772,14.7264" id="Fill-49" fill="#231916"></path>
                <path d="M22.3755,60.4656 C21.5765,60.4646 21.2445,60.1686 21.2945,59.6226 C21.3165,59.3866 21.6025,59.1746 21.7675,58.9516 C22.1165,59.2986 22.4795,59.6326 22.7885,60.0126 C22.8125,60.0426 22.4485,60.3876 22.3755,60.4656" id="Fill-51" fill="#231916"></path>
                <path d="M28.3707,16.6795 C27.9787,16.2765 27.7937,16.0845 27.6067,15.8925 L28.6497,14.8875 C28.8167,15.1005 29.1607,15.3675 29.1157,15.5145 C29.0057,15.8705 28.7147,16.1705 28.3707,16.6795" id="Fill-53" fill="#231916"></path>
                <path d="M54.9165,76.5916 C55.1045,77.0856 55.2925,77.3456 55.2835,77.5986 C55.2645,78.1516 54.8595,78.4056 54.3535,78.3526 C54.1535,78.3316 53.8095,77.9206 53.8235,77.8996 C54.1065,77.5076 54.4345,77.1486 54.9165,76.5916" id="Fill-55" fill="#231916"></path>
                <path d="M27.3404,72.744 C27.0124,73.065 26.8154,73.258 26.6174,73.451 C26.4374,73.212 26.1364,72.983 26.1134,72.73 C26.0954,72.517 26.4014,72.276 26.5624,72.047 C26.7814,72.243 27.0004,72.439 27.3404,72.744" id="Fill-57" fill="#231916"></path>
                <path d="M33.3345,74.1688 C33.2125,73.9238 32.9635,73.6548 33.0025,73.4398 C33.0505,73.1818 33.3445,72.9688 33.5305,72.7358 C33.6865,72.9728 33.9455,73.2008 33.9645,73.4478 C33.9825,73.6798 33.7445,73.9308 33.6195,74.1728 C33.5245,74.1708 33.4295,74.1698 33.3345,74.1688" id="Fill-59" fill="#231916"></path>
                <path d="M24.5835,76.8709 C24.2475,77.1839 24.0315,77.3859 23.8155,77.5869 C23.6505,77.3609 23.3405,77.1249 23.3565,76.9129 C23.3755,76.6589 23.6725,76.4259 23.8495,76.1829 C24.0495,76.3709 24.2505,76.5589 24.5835,76.8709" id="Fill-61" fill="#231916"></path>
                <path d="M41.1246,79.66 C40.7936,79.967 40.5936,80.151 40.3936,80.336 C40.2166,80.091 39.9226,79.856 39.9006,79.598 C39.8836,79.393 40.1986,79.16 40.3666,78.939 C40.5806,79.142 40.7936,79.346 41.1246,79.66" id="Fill-63" fill="#231916"></path>
                <path d="M21.1373,69.2694 C20.8063,69.5914 20.5933,69.7984 20.3813,70.0044 C20.2113,69.7834 19.8973,69.5524 19.9093,69.3424 C19.9263,69.0854 20.2183,68.8464 20.3903,68.6004 C20.5943,68.7834 20.7983,68.9664 21.1373,69.2694" id="Fill-65" fill="#231916"></path>
                <path d="M26.6246,67.284 C26.3166,67.561 26.1156,67.743 25.9146,67.925 C25.7466,67.699 25.4306,67.459 25.4506,67.252 C25.4766,67.001 25.7856,66.778 25.9726,66.543 C26.1556,66.751 26.3396,66.96 26.6246,67.284" id="Fill-67" fill="#231916"></path>
                <path d="M51.8199,25.6307 C51.8519,25.7897 51.8169,26.1507 51.9679,26.2637 C52.5389,26.6907 52.5589,27.2317 52.5579,27.8647 C52.5569,28.0867 52.9889,28.3037 53.2119,28.5327 C53.4589,28.7877 53.9269,29.0947 53.8909,29.3107 C53.7339,30.2527 54.3459,30.7067 54.8779,31.2607 C55.0519,31.4417 55.0919,31.7497 55.1949,32.0007 C54.9319,31.9537 54.6219,31.9817 54.4169,31.8467 C53.6299,31.3277 52.8919,30.7317 52.0999,30.2207 C51.8869,30.0837 51.5429,30.1117 51.2619,30.1267 C50.5219,30.1657 50.2169,29.8417 50.2509,29.1017 C50.2929,28.1667 49.7999,27.5157 48.8979,27.3707 C48.1589,27.2527 48.1809,26.7507 48.1819,26.2227 C48.1819,25.6937 48.1489,25.1117 48.8989,25.0947 C49.5789,25.0777 49.5739,24.6697 49.5829,24.1657 C49.5889,23.8257 49.7399,23.4897 49.8269,23.1517 C50.1229,23.3217 50.4899,23.4297 50.7019,23.6727 C51.1799,24.2237 52.0679,24.5477 51.8199,25.6307" id="Fill-69" fill="#231916"></path>
                <path d="M50.9585,36.5858 C50.9585,36.1408 50.9845,35.6918 50.9515,35.2488 C50.9025,34.5738 50.9715,34.0188 51.8425,34.0288 C51.8705,34.0288 51.9075,34.0298 51.9255,34.0138 C52.7155,33.2998 53.2945,33.1368 53.3445,34.5228 C53.3465,34.5858 53.7175,34.7258 53.8515,34.6708 C54.0515,34.5888 54.2035,34.3748 54.3555,34.1988 C54.5635,33.9598 54.7515,33.7038 54.9475,33.4558 C55.0845,33.7678 55.3045,34.0698 55.3395,34.3938 C55.4135,35.0798 55.1365,35.4128 54.4055,35.7488 C53.7005,36.0738 52.4645,36.0668 52.4225,37.3578 C52.4195,37.4758 52.0835,37.6378 51.8825,37.6798 C51.5775,37.7428 51.2555,37.7248 50.9405,37.7318 C49.7175,37.7578 49.3135,37.2958 49.5705,36.1078 C49.6165,35.8988 49.8475,35.7298 49.9925,35.5408 C50.1485,35.7098 50.3315,35.8618 50.4535,36.0538 C50.5515,36.2058 50.5735,36.4058 50.6295,36.5848 C50.7385,36.5858 50.8485,36.5858 50.9585,36.5858" id="Fill-71" fill="#231916"></path>
            </g>
        </g>
    </g>
</svg>