<?xml version="1.0" encoding="UTF-8"?>
<svg width="149px" height="166px" viewBox="0 0 149 166" version="1.1" xmlns="http://www.w3.org/2000/svg" xmlns:xlink="http://www.w3.org/1999/xlink">
    <!-- Generator: Sketch 60 (88103) - https://sketch.com -->
    <title>figure31</title>
    <desc>Created with Sketch.</desc>
    <defs>
        <polygon id="path-1" points="0 0.35733018 117.74204 0.35733018 117.74204 139 0 139"></polygon>
        <polygon id="path-3" points="0.0598684331 0.51900982 47.5312208 0.51900982 47.5312208 158.780997 0.0598684331 158.780997"></polygon>
    </defs>
    <g id="页面-1" stroke="none" stroke-width="1" fill="none" fill-rule="evenodd">
        <g id="29-44" transform="translate(-485.000000, -38.000000)">
            <g id="figure31" transform="translate(484.000000, 38.000000)">
                <g id="编组" transform="translate(0.896617, 27.000000)">
                    <mask id="mask-2" fill="white">
                        <use xlink:href="#path-1"></use>
                    </mask>
                    <g id="Clip-2"></g>
                    <path d="M77.05695,95.7632986 C77.1724394,95.5673212 77.2873011,95.3707176 77.4027904,95.174114 C77.031216,95.0332356 76.6552479,94.7790284 76.28995,94.7934293 C76.0614819,94.802195 75.6302798,95.2780509 75.6748436,95.4364608 C75.7765245,95.7964833 76.114833,96.0895104 76.3577372,96.4100869 C76.5905989,96.1940734 76.8240883,95.9793122 77.05695,95.7632986 M40.2472266,12.8710869 C39.794684,12.5129428 39.505333,12.2850329 39.2159819,12.057123 C39.0452585,12.3282356 38.7044394,12.6319068 38.7477479,12.8641995 C38.8029819,13.1578527 39.1701628,13.3945284 39.4023968,13.6562491 C39.6365138,13.4389833 39.8712585,13.2210914 40.2472266,12.8710869 M87.1848649,103.596763 C88.6422904,106.002965 88.8356096,106.170767 89.9773223,106.112537 C88.9529819,105.190254 88.0692372,104.393195 87.1848649,103.596763 M99.4449394,116.672781 C99.5893011,116.592636 99.7342904,116.512492 99.8786521,116.431722 C100.066322,114.994136 99.384684,113.908434 97.5418755,113.258515 C98.2913011,114.602808 98.8681202,115.637794 99.4449394,116.672781 M34.1294287,58.7223032 C33.7132904,57.4963482 33.395067,56.4995554 33.0209819,55.5234248 C32.9701415,55.3913122 32.5609074,55.2447986 32.4636202,55.3130464 C32.2815989,55.4388977 32.067567,55.7519608 32.1102479,55.9285284 C32.3487585,56.9221905 32.6268117,57.9095914 32.9751628,58.8694428 C33.039184,59.0472626 33.5212266,59.2156905 33.7465564,59.1549563 C33.9706309,59.0942221 34.1162479,58.7392086 34.1294287,58.7223032 M40.480716,58.1112041 C40.2321628,58.3578977 39.8103755,58.70665 39.4808543,59.1274068 C39.2479926,59.4254428 39.0596947,59.8105104 39.0176415,60.1755419 C39.0025777,60.3026455 39.5323223,60.6632941 39.7268968,60.6088212 C40.1141628,60.5017536 40.56545,60.255686 40.7656734,59.9294743 C41.1290883,59.337159 41.4385245,58.6640734 41.5584074,57.9878572 C41.6506734,57.4725554 41.4749287,56.8783617 41.2885138,56.3655644 C41.2313968,56.2077806 40.7455883,56.2052761 40.4568649,56.1313932 C40.4248543,56.5897176 40.3890777,57.0474158 40.3639713,57.5057401 C40.35895,57.5940239 40.3959819,57.6848122 40.480716,58.1112041 M11.4797053,108.211938 C10.088184,107.49565 8.92262021,107.365416 7.94660957,107.935817 C6.91159894,108.540028 6.12765213,109.51929 6.27954574,111.027001 C7.97171596,110.110353 9.56095,109.250682 11.4797053,108.211938 M94.4613223,98.9822131 L94.2190457,99.4937581 C94.8925245,100.066037 95.5804394,100.622664 96.2350883,101.214979 C96.8068862,101.731533 97.2933223,102.355155 97.9121947,102.80033 C98.2184926,103.020727 98.7934287,103.0896 99.1436628,102.957488 C99.4305032,102.849168 99.7794819,102.287533 99.7135777,102.023308 C99.6300989,101.691461 99.1794394,101.416591 98.8386202,101.19056 C98.3910989,100.89315 97.9027798,100.65397 97.4194819,100.414164 C96.43845,99.9276635 95.4486309,99.4580689 94.4613223,98.9822131 M88.182216,98.80815 C87.7095883,98.9070779 87.3373862,98.9365059 87.0116309,99.0748797 C86.8465564,99.1450059 86.6613968,99.418623 86.6733223,99.5870509 C86.6846202,99.7517221 86.906184,99.9614743 87.0856947,100.045375 C88.6604926,100.780447 90.2233649,101.551835 91.8446096,102.169821 C92.2858543,102.338249 92.9122585,102.020803 93.4539287,101.926258 C93.2436628,101.430992 93.1105989,100.877497 92.7936309,100.463001 C92.6134926,100.227578 92.13145,100.227578 91.7893755,100.108614 C91.1535564,99.8888437 90.5208755,99.662186 89.8881947,99.43365 C89.2963117,99.220141 88.7063117,99.0009968 88.182216,98.80815 M97.1062798,108.015335 C97.7157372,107.734204 98.1425457,107.5376 98.5680989,107.340371 C98.2925564,106.958434 98.0383543,106.557713 97.7308011,106.202073 C97.5902053,106.038655 97.3592266,105.904037 97.1470777,105.859582 C95.997833,105.618524 95.2314606,105.129519 95.2873223,103.76206 C95.2979926,103.497835 94.613216,102.967506 94.2629819,102.978776 C93.6874181,102.99756 93.1231521,103.358835 92.5532372,103.575474 C92.7572266,103.98997 92.8802479,104.47647 93.1790138,104.803934 C93.8845032,105.577826 94.640833,106.31415 95.4404713,106.98974 C95.9269074,107.400479 96.5338543,107.670965 97.1062798,108.015335 M26.3847372,134.186781 C26.6835032,134.556821 27.0048649,135.112195 27.4718436,135.483488 C27.8873543,135.81283 28.4648011,135.938682 28.9713223,136.154695 C29.1621309,135.64315 29.5092266,135.134109 29.5167585,134.620686 C29.5399819,133.005281 29.1709181,131.357317 30.3113755,129.912844 C30.4657798,129.718118 30.2799926,129.257916 30.2517479,128.920434 C29.8914713,129.008718 29.359216,128.977411 29.2010457,129.204695 C28.2802691,130.532082 27.4392053,131.915195 26.5924926,133.292046 C26.4807691,133.474249 26.4864181,133.72783 26.3847372,134.186781 M33.8112053,14.5021455 C34.6717266,16.5070014 35.6000351,18.6708932 36.5289713,20.8347851 C36.7178968,20.8122446 36.9068223,20.7903302 37.0963755,20.7684158 C37.1384287,20.1610734 37.20245,19.5537311 37.2187691,18.9451365 C37.2551734,17.6302716 36.5911096,16.2527941 37.6713117,15.0280914 C37.9148436,14.7519698 37.906684,14.2554518 38.0140138,13.8603662 C37.5049819,13.7789698 36.9670777,13.5523122 36.4931947,13.6468572 C35.6119606,13.8227986 34.7671309,14.1853257 33.8112053,14.5021455 M39.2730989,56.636677 C39.3584606,56.1439158 39.5097266,55.7275419 39.4902691,55.3186815 C39.3666202,52.6745509 39.2279074,50.0297941 39.0440032,47.3887941 C38.9900245,46.623668 38.4665564,46.4884248 37.882833,46.9041725 C36.9633117,47.5603527 37.0122691,48.4795059 37.1861309,49.4856905 C37.3744287,50.5807851 37.6455777,51.7453797 37.4560245,52.8047851 C37.0737798,54.9379968 37.082567,55.2153707 39.2730989,56.636677 M30.3477798,38.6919023 C30.1356309,40.0937986 30.9660245,40.9872806 32.0857691,41.5689518 C33.5262479,42.3190509 35.050833,42.9088617 36.5528223,43.5374923 C36.7850564,43.6345419 37.1202266,43.6570824 37.348067,43.5662941 C38.5111202,43.0992041 39.6164287,42.4367626 40.8152585,42.1243257 C42.1421309,41.7787041 43.1934606,39.9735824 44.8912798,41.2358527 C44.9025777,41.2446185 45.5001096,40.7074023 45.5453011,40.3861995 C45.6959394,39.311141 45.7430138,38.219177 45.7787904,37.1315959 C45.7894606,36.8053842 45.6306628,36.4741635 45.5496947,36.144195 C45.2176628,36.2418707 44.8065457,36.2493842 44.5743117,36.456632 C44.2560883,36.7415194 44.0891309,37.1885734 43.8286521,37.5454653 C43.546833,37.9305329 43.307067,38.4270509 42.9198011,38.641186 C41.1818117,39.5997851 39.3910989,40.4650914 37.6305138,41.3836185 C35.8398011,42.3184248 35.198333,42.0153797 35.0884926,40.0537266 C35.0294926,39.0018347 34.6139819,38.5910959 33.5469606,38.6737446 C32.513833,38.7538887 31.4706628,38.6919023 30.3477798,38.6919023 M27.6946628,38.8359113 C27.0939926,41.2358527 27.5829394,43.2482221 28.8188011,45.1447581 C29.0868117,45.556123 29.2901734,46.0144473 29.4860032,46.4677626 C30.2755989,48.2985554 31.0105883,50.1543932 31.8478862,51.9632716 C32.2659074,52.8661455 32.9469181,53.2668662 33.9605883,52.6031725 C34.2323649,52.4253527 34.7326096,52.4685554 35.0853543,52.5649788 C36.2446415,52.8824248 36.4304287,52.7058572 36.3099181,51.493677 C36.1925457,50.317186 36.0908649,49.1275464 36.1435883,47.9510554 C36.1938011,46.8578392 35.878716,46.2886905 34.7162904,46.3162401 C33.9587053,46.3343977 33.365567,46.1860059 33.4509287,45.1579068 C33.4722691,44.9099608 32.9362479,44.4616545 32.5885245,44.374623 C32.1240564,44.2575374 31.5918011,44.3927806 31.0915564,44.4384878 C30.0345777,44.5342851 29.5770138,43.9244383 29.4652904,43.0015284 C29.4113117,42.557605 29.4853755,42.0898887 29.5556734,41.6415824 C29.7828862,40.2033707 28.938684,39.5071185 27.6946628,38.8359113 M44.8165883,28.6732581 L44.7199287,28.6732581 C44.7199287,27.2607176 44.78395,25.8437941 44.691684,24.4375149 C44.6490032,23.7944833 44.3627904,23.137677 44.0583755,22.5535014 C43.9340989,22.3149473 43.4683755,22.2542131 43.157684,22.1120824 C43.0390564,22.3850734 42.89595,22.6505509 42.8068223,22.9335599 C42.6593223,23.3993977 42.5852585,23.8902806 42.4120245,24.3454743 C41.8866734,25.7242041 41.12595,27.0478347 40.8284394,28.4703932 C40.303716,30.9805329 39.2850245,33.1613302 37.5244394,35.0202986 C37.3047585,35.2513392 37.082567,35.7534923 37.1873862,35.9726365 C37.8796947,37.4077176 37.3612479,38.6023662 36.6287691,39.8151725 C36.5076309,40.0149068 36.5842053,40.4425509 36.7291947,40.6560599 C36.8283649,40.8038257 37.318567,40.894614 37.440333,40.7887986 C38.9147053,39.5039878 40.9276096,38.8114923 41.7893862,36.8366905 C41.9506947,36.4653977 42.3210138,36.0602941 42.68945,35.9250509 C44.2560883,35.3465104 44.8316521,34.2000734 44.8190989,32.6335059 C44.8078011,31.3130059 44.8165883,29.993132 44.8165883,28.6732581 M30.3659819,96.0018527 L30.5053223,96.0018527 C30.5053223,96.8684113 30.44695,97.740605 30.5310564,98.5983977 C30.5705989,98.9978662 30.8863117,99.369159 31.0777479,99.7529743 C31.4405351,99.5407176 31.8240351,99.3547581 32.1635989,99.1099428 C32.9199287,98.5627086 33.6524074,97.9829158 34.3986947,97.4219068 C34.7966309,97.1232446 35.3006415,96.9091095 35.5887372,96.5303032 C36.4831521,95.3500554 37.3424181,94.136623 38.1238543,92.880614 C38.50045,92.2726455 38.7038117,91.5488437 38.9285138,90.8588527 C39.1645138,90.1344248 39.2938117,89.3749338 39.5392266,88.6542626 C39.9377904,87.4809023 40.5842798,86.357632 40.775716,85.1573482 C41.0104606,83.6890824 40.2779819,82.05865 41.6594606,80.7913707 C41.8352053,80.6304563 41.77495,80.18215 41.7743223,79.8665824 C41.7674181,77.6763932 41.7548649,75.4868302 41.7259926,73.296641 C41.7203436,72.8921635 41.7862479,72.3211365 41.5571521,72.1132626 C40.4123011,71.0713887 40.8008223,69.767168 40.8008223,68.526186 C40.8001947,67.8418302 40.9018755,67.1480824 40.8127479,66.4775014 C40.7619074,66.0949383 40.419833,65.751195 40.2089394,65.3899203 C39.9836096,65.7374203 39.5706096,66.0811635 39.5649606,66.4317941 C39.536716,68.0703662 39.3666202,69.7659158 39.7149713,71.3374923 C40.6162904,75.4079383 38.7552798,78.9624563 37.9129606,82.709195 C36.1373117,83.7247716 36.5766734,85.1736275 37.1195989,86.6581725 C37.1930351,86.8579068 37.1189713,87.1102356 37.1221096,87.3381455 C37.1384287,88.6542626 37.176716,89.971632 37.1616521,91.2877491 C37.1591415,91.5613662 36.9670777,91.8337311 36.8622585,92.1060959 C36.5998968,91.9677221 36.1712053,91.8838212 36.1034181,91.6803302 C35.7387479,90.5889923 35.4732479,89.4650959 35.1525138,88.3587311 C35.0338862,87.9473662 34.8958011,87.5297401 34.6748649,87.1709698 C34.63595,87.1089833 33.9900883,87.2479833 33.8783649,87.4402041 C33.6505245,87.8340374 33.3410883,88.4852086 33.5093011,88.7538167 C34.6089606,90.5069698 33.959333,92.4103932 34.0810989,94.2355509 C34.1024394,94.5479878 33.6511521,94.891105 33.4182904,95.2210734 C33.2312479,94.8560419 32.9613543,94.5097941 32.8747372,94.1228482 C32.661333,93.168632 32.5063011,92.1993887 32.3757479,91.2295194 C32.2985457,90.656614 32.3581734,90.0642986 32.2709287,89.4938977 C32.1949819,89.0011365 32.0820032,88.4714338 31.8158755,88.0700869 C31.7016415,87.8979023 30.9685351,87.8640914 30.8480245,88.0212491 C30.5768755,88.3725059 30.3948543,88.8815464 30.3866947,89.3298527 C30.3421309,91.5526005 30.3659819,93.7772266 30.3659819,96.0018527 M40.7418223,129.215339 C41.5533862,129.436988 42.1672372,129.450136 42.5620351,129.749425 C43.1501521,130.195227 43.6390989,130.934682 44.40045,130.237803 C44.9440032,129.740033 45.3155777,129.043155 45.7172798,128.40701 C46.0273436,127.916754 46.1986947,127.3307 46.5483011,126.876132 C47.8318649,125.207506 49.5767585,123.795591 49.4537372,121.382501 C49.4462053,121.228474 49.5685989,120.996808 49.7004074,120.918542 C51.246333,120.002519 50.420333,118.541767 50.475567,117.320195 C50.4912585,116.990227 49.8949819,116.584497 49.5089713,116.312758 C49.3771628,116.220718 48.8135245,116.444245 48.8166628,116.505605 C48.8373755,116.92824 49.0162585,117.343988 49.0306947,117.765997 C49.0645883,118.764668 49.2648117,119.836596 48.9811096,120.750114 C48.5216628,122.227772 47.7245351,123.598988 47.0749074,125.018416 C46.2407479,126.841695 44.8755883,128.133393 42.9800564,129.0131 C42.9317266,128.422664 42.923567,127.70074 43.2549713,127.475335 C45.8666628,125.698389 45.9821521,122.550853 47.3874819,120.122736 C47.5720138,119.804037 47.3083968,119.17979 47.1414394,118.738997 C47.1031521,118.639443 46.434067,118.595614 46.3386628,118.728353 C45.4078436,120.02506 44.1192585,120.164686 42.6800351,120.043218 C42.3800138,120.018173 42.0555138,120.369429 41.7310138,120.521578 C41.3675989,120.691258 40.9960245,120.951727 40.6188011,120.96738 C38.3309819,121.064429 36.4216415,120.353776 35.1995883,118.27629 C35.0502053,118.022709 34.8066734,117.8236 34.6058223,117.599447 L34.1921947,117.626997 C34.1419819,118.226826 34.0810989,118.825402 34.0446947,119.425857 C33.9769074,120.535353 34.071684,121.678659 33.8331734,122.749335 C33.3982053,124.702848 32.6801628,126.595001 32.2822266,128.55415 C32.1755245,129.080722 32.6713755,130.115082 33.1170138,130.270362 C33.690067,130.470722 34.5367798,130.116961 35.1820138,129.821429 C35.8285032,129.524645 36.372684,129.004961 36.9620564,128.585456 C38.4301521,127.541078 39.8925989,126.489186 41.3719926,125.461713 C41.7303862,125.211889 42.1458968,125.045339 42.5356734,124.839344 C42.4942479,125.335862 42.5814926,125.891236 42.3850351,126.316375 C41.9532053,127.248051 41.3782691,128.113983 40.7418223,129.215339 M49.7487372,36.2337311 L50.1849606,36.3307806 C50.2809926,36.6119113 50.414684,36.8867806 50.4667798,37.1754248 C50.8741309,39.4388707 49.6288543,40.4037311 47.5054819,41.6747671 C46.1861415,42.4655644 46.0982691,42.6803257 47.2249181,43.8029698 C47.6868755,44.2637986 48.1011309,44.8486005 48.3264606,45.4546905 C48.8467904,46.8559608 49.2290351,48.306695 49.6916202,49.7298797 C49.7581521,49.9327446 49.9546096,50.0961635 50.1014819,50.2702266 C51.4967691,51.9225734 52.6843011,53.6394113 52.1093649,55.9917671 C52.015216,56.3768347 52.0823755,56.8088617 52.1175245,57.2158437 C52.1871947,58.0298077 52.2104181,58.7373302 51.1572053,59.0228437 C50.4586202,59.2125599 50.4423011,59.8906545 51.1025989,60.0365419 C52.3309287,60.3089068 52.2782053,61.1353932 52.2530989,62.0107176 C52.2060245,63.7081455 51.6015883,65.4118347 52.3886734,67.1067581 C52.4671309,67.2764383 52.0798649,67.692186 51.8652053,67.9595419 C51.3323223,68.6232356 51.419567,69.1748527 52.2173223,69.4578617 C53.8605351,70.0414113 54.4605777,69.6137671 54.6118436,67.860614 C54.638833,67.543168 54.7455351,67.2276005 54.7405138,66.9120329 C54.7128968,65.2340149 54.9526628,63.4827401 54.5490777,61.8967626 C53.9904606,59.7071995 53.8599074,57.6572626 54.5766947,55.5083977 C54.9972266,54.2461275 55.171716,52.9606905 54.2672585,51.7165779 C53.9703755,51.3083437 54.0820989,50.6008212 54.013684,50.029168 C53.871833,48.8389023 53.7739181,47.6417491 53.5799713,46.459623 C53.4682479,45.7815284 53.0194713,45.1228437 53.0389287,44.464159 C53.1337053,41.2790554 53.2724181,38.0889428 52.0930457,35.0534833 C51.3561734,33.1588257 49.8253117,31.53215 50.2922904,29.2511725 C50.3406202,29.0195059 49.9815989,28.7183392 49.8485351,28.4321995 C49.6784394,28.0665419 49.3595883,27.6445329 49.4280032,27.3133122 C49.8573223,25.2470959 48.8116415,23.6185419 47.9222479,21.9492896 C47.0893436,20.3864788 46.2319606,18.833686 45.2910989,17.3347401 C45.0601202,16.9678302 44.461333,16.8319608 44.0326415,16.5890239 C43.9585777,17.2082626 43.7301096,17.860686 43.8537585,18.4386005 C43.9792904,19.0259068 44.4142585,19.5662536 44.7776734,20.0815554 C45.525216,21.1390824 46.1811202,22.3180779 47.1307691,23.1583392 C47.8682691,23.8107626 48.2298011,24.3911815 48.1896309,25.3372581 C48.1005032,27.4022221 48.2480032,29.4991185 47.9278968,31.5246365 C47.7552904,32.6153482 47.3567266,33.5714428 48.0320883,34.5932806 C48.0998755,34.6959653 47.9611628,34.9313887 47.9253862,35.1073302 C47.6956628,36.2362356 47.4301628,37.3607581 47.2675989,38.4990554 C47.2299394,38.7620284 47.5469074,39.0757176 47.700684,39.365614 C47.9417053,39.1408347 48.2498862,38.9567536 48.4111947,38.685641 C48.888216,37.8867041 49.3074926,37.0533302 49.7487372,36.2337311 M40.067716,44.6432311 C40.0903117,44.7847356 40.1141628,44.925614 40.1367585,45.0664923 C40.5478755,45.1334878 41.0161096,45.0990509 41.3563011,45.2918977 C41.8370883,45.5630104 42.3442372,45.9280419 42.6210351,46.3857401 C43.0892691,47.1608842 43.484067,48.0117896 43.7250883,48.882105 C43.9209181,49.592132 43.8468543,50.3772941 43.8920457,51.1286455 C43.4495457,51.121132 43.0020245,51.0747986 42.5651734,51.1217581 C42.2933968,51.1505599 41.8490138,51.2782896 41.8119819,51.4385779 C41.7285032,51.7973482 41.7241096,52.2969968 41.9230777,52.5668572 C42.1333436,52.8523707 42.6015777,52.9888662 42.98445,53.1003167 C43.9774074,53.3902131 44.2190564,53.8303797 43.3943117,54.6048977 C42.715184,55.2429203 42.1214181,56.0719113 42.988216,56.8207581 C43.9140138,57.6203212 44.1964606,56.3580509 44.7789287,55.991141 C45.2728968,55.6793302 45.9482585,55.3687716 46.461684,55.4702041 C46.8144287,55.5397041 47.2355883,56.3010734 47.2669713,56.775677 C47.3925032,58.7179203 47.2650883,60.6789473 47.4464819,62.6124248 C47.671184,65.0017221 46.6750883,67.5563167 48.3478011,69.7715509 C48.4651734,69.9268302 48.4306521,70.2142221 48.4287691,70.4402536 C48.4212372,71.6248842 48.3446628,72.8132716 48.3961309,73.9947716 C48.5386096,77.2600194 48.7061947,80.5252671 48.9214819,83.7867581 C49.0080989,85.0991185 49.3740245,86.3995824 49.3890883,87.708186 C49.4499713,93.0008302 49.4317691,98.2941005 49.4236096,103.587371 C49.4210989,105.088821 49.8077372,106.82006 49.1920032,108.029109 C48.4770989,109.434136 48.4005245,110.722704 48.3490564,112.158411 C48.2756202,114.216488 48.3113968,114.311659 50.3933436,114.377402 C50.7128223,114.38742 51.0323011,114.428118 51.3524074,114.426894 C54.1254074,114.416848 56.1508649,112.319326 56.0347479,109.614461 C55.9795138,108.33779 55.9870457,107.05924 55.9380883,105.782569 C55.9205138,105.33301 55.9675883,104.781393 55.7334713,104.458938 C54.810184,103.183519 55.0047585,101.778492 55.0725457,100.368456 C55.1541415,98.6534968 55.4654606,96.8972131 53.9446415,95.5203617 C53.6414819,95.2467446 53.4839394,94.7045194 53.4437691,94.2687356 C53.3232585,92.985177 53.812833,91.5400779 52.3164926,90.6697626 C52.2022585,90.6033932 52.2449394,90.2383617 52.2443117,90.0110779 C52.2430564,88.7049788 52.4457904,87.360686 51.3536628,86.2975239 C51.1967479,86.1447491 51.2080457,85.7778392 51.2099287,85.5104833 C51.2268755,82.5482806 51.2381734,79.5848257 51.2934074,76.6232491 C51.3153755,75.4423752 51.5507479,74.2533617 50.5094606,73.3110419 C50.3180245,73.137605 50.2929181,72.7143437 50.2960564,72.4075419 C50.3186521,69.8097446 50.3782798,67.2119473 50.3952266,64.61415 C50.3983649,64.1251455 50.4140564,63.5315779 50.1623649,63.1640419 C49.3244394,61.9362086 49.3495457,60.6000554 49.3809287,59.2188212 C49.4286309,57.1206725 49.4292585,55.0212716 49.3997585,52.923123 C49.3922266,52.3902896 49.2541415,51.8386725 49.0721202,51.3327626 C48.7727266,50.500641 48.3195564,49.7204878 48.0521734,48.8796005 C47.3178117,46.5754563 46.8891202,46.4370824 45.2509287,48.0775329 C45.22645,48.1019518 45.165567,48.0906815 44.8234926,48.1363887 C44.7682585,47.462677 44.6238968,46.7833302 44.6778755,46.1196365 C44.7713968,44.9744518 44.3194819,44.38965 43.1765138,44.3063752 C42.5388117,44.260668 41.8979713,44.1103977 41.2684287,44.1523482 C40.8591947,44.1798977 40.4675351,44.4704203 40.067716,44.6432311 M46.1334181,65.9935059 C46.7077266,63.0594788 46.3192053,60.8642806 45.3074181,58.7949338 C45.1561521,58.4850014 44.4224181,58.1587896 44.1374606,58.2758752 C43.576333,58.5056635 43.0880138,58.9990509 42.7045138,59.4886815 C42.6354713,59.5763392 43.1865564,60.1980824 43.5041521,60.5230419 C43.83995,60.8674113 44.5718011,61.1666995 44.5579926,61.4584743 C44.4425032,63.8602941 45.4442479,66.3848347 43.843716,68.64515 C43.6767585,68.8811995 43.6026947,69.2800419 43.6660883,69.5630509 C44.101684,71.504668 42.956833,73.7055014 44.6314287,75.4517671 C44.7575883,75.5832536 44.72495,75.8888032 44.7255777,76.1135824 C44.728716,77.2543842 44.5197053,78.4383887 44.7575883,79.5259698 C45.1730989,81.4200014 43.4890883,83.2357671 44.6634394,85.111641 C44.7236947,85.2080644 44.6138543,85.4967086 44.4977372,85.6025239 C43.4143968,86.5955599 43.6089713,87.8515689 43.8299074,89.0599923 C44.4230457,92.2939338 43.2951415,95.33315 42.6687372,98.3886455 C42.24695,100.44547 41.1422691,102.377695 40.2183543,104.30679 C39.9101734,104.948569 39.3025989,105.552155 38.6805883,105.920943 C36.8685351,106.995375 36.6149606,107.761754 37.5740245,109.586911 C37.855216,110.122875 38.0152691,110.77029 38.0504181,111.377006 C38.113184,112.466465 38.0648543,113.564691 38.0140138,114.656655 C37.9826309,115.325983 37.9939287,116.04415 37.7529074,116.647109 C37.1735777,118.099722 37.6060351,119.018249 39.1896202,118.959393 C40.3583223,118.915564 41.5012904,118.388992 42.6743862,118.181745 C45.8842372,117.612596 47.1376734,116.302114 47.2707372,113.142682 C47.3786947,110.593722 47.4201202,108.041632 47.4728436,105.490794 C47.5061096,103.897929 47.3115351,102.272506 47.5720138,100.719713 C47.8607372,99.0022491 48.558067,97.3605464 47.4678223,95.6825284 C47.3115351,95.4427221 47.3429181,95.0626635 47.3397798,94.7470959 C47.2939606,89.6416635 47.0435245,84.5243347 47.3014926,79.4333032 C47.4458543,76.5668977 46.1880245,73.8344833 46.8665245,70.9862356 C46.8859819,70.9079698 46.8181947,70.8115464 46.8056415,70.7226365 C46.5514394,68.9456905 46.3003755,67.1687446 46.1334181,65.9935059 M30.5900564,54.1327986 C30.7199819,54.0539068 30.8505351,53.9750149 30.9804606,53.896123 C30.4400457,52.6163212 29.9259926,51.3239968 29.3510564,50.0598482 C28.7139819,48.6573257 27.9865245,47.2948752 27.3582372,45.8885959 C26.492067,43.947605 25.7087479,41.9696725 24.838184,40.0305599 C24.3310351,38.9016545 23.7046309,37.8272221 24.7101415,36.6438437 C24.8312798,36.5017131 24.7873436,36.2024248 24.7873436,35.9763932 C24.7885989,33.6027491 24.8620351,31.2259743 24.755333,28.8573392 C24.6680883,26.9294968 24.3655564,25.0129248 24.1527798,23.0919698 C24.0906415,22.5322131 23.9889606,21.9755869 23.9745245,21.4164563 C23.9732691,21.3726275 24.7164181,21.1885464 24.7804394,21.2855959 C25.1118436,21.7933842 25.3641628,22.3612806 25.581333,22.9323077 C25.6528862,23.1188932 25.4821628,23.3849968 25.516684,23.6010104 C25.5888649,24.0612131 25.69745,24.5201635 25.8361628,24.9653392 C26.0840883,25.7655284 26.580567,26.5519428 26.5950032,27.3502536 C26.6489819,30.360668 26.5178011,33.3735869 26.5454181,36.3852536 C26.5498117,36.8679968 27.0086309,37.3469833 27.2565564,37.8278482 C27.6839926,37.5066455 28.1371628,37.2142446 28.531333,36.8579788 C29.152716,36.2969698 29.7176096,35.6758527 30.3364819,35.1129653 C31.2390564,34.2914878 32.4134074,33.6528392 33.0335351,32.6629338 C34.2129074,30.7795464 35.0985351,28.7101995 36.0645032,26.6978302 C36.232716,26.3490779 36.2703755,25.8970149 36.2339713,25.5044338 C36.2088649,25.2295644 36.0061309,24.8269653 35.7908436,24.7549608 C35.5812053,24.6848347 35.1154819,24.8914563 35.0050138,25.1024608 C34.6202585,25.8419158 34.4363543,26.6959518 33.9944819,27.3922041 C33.5413117,28.1041095 32.8741096,28.6820239 32.3010564,29.3187941 C31.7386734,28.8091275 31.1386309,28.3338977 30.627716,27.7766455 C30.3320883,27.4541905 30.1073862,27.0227896 29.9755777,26.6020329 C29.3447798,24.58215 26.8247266,23.3637086 27.498833,20.7884518 C27.5371202,20.6413122 27.3958968,20.4484653 27.3362691,20.2769068 C27.0513117,19.4522986 26.7977372,18.6139158 26.4657053,17.8080914 C26.3081628,17.4242761 26.0545883,16.8883122 25.7451521,16.8094203 C25.4275564,16.7280239 24.8168436,17.0172941 24.6304287,17.3240959 C22.7882479,20.3557986 20.4872479,23.172114 19.948716,26.8462221 C19.917333,27.0597311 19.7334287,27.2469428 19.6662691,27.4610779 C19.1540989,29.1034068 18.2678436,30.7375959 18.2170032,32.3962041 C18.0362372,38.2799113 18.1328968,44.1730104 18.14545,50.0629788 C18.1485883,51.5249833 17.6765883,53.0959338 19.0097372,54.3037311 C19.1233436,54.4070419 19.1666521,54.6443437 19.1597479,54.8165284 C19.087567,56.7255869 18.9927904,58.6340194 18.9180989,60.5437041 C18.9042904,60.8968392 18.8609819,61.2869158 18.9840032,61.6012311 C19.5670989,63.0970464 20.1865989,64.5803392 20.82995,66.0511095 C21.1004713,66.6684698 21.5002904,67.2282266 21.7783436,67.8424563 C22.8202585,70.1484788 23.7893649,72.4883122 24.8802372,74.771168 C25.5116628,76.0910419 26.4123543,76.3465014 27.7724926,75.7573167 C28.7164926,75.3484563 29.2995883,75.6320914 29.504833,76.5988302 C29.6366415,77.2180689 29.6968968,77.8654833 29.6768117,78.4972446 C29.6686521,78.7414338 29.3818117,79.1265014 29.1646415,79.1715824 C28.9619074,79.2129068 28.6631415,78.9123662 28.442833,78.7213977 C28.1051521,78.4302491 27.7982266,78.1052896 27.4781202,77.794105 C27.1693117,78.2674563 26.7161415,78.702614 26.580567,79.2210464 C26.2968649,80.3080014 27.9601628,83.6684203 28.9725777,84.1098392 C29.2732266,84.2413257 29.855067,84.1924878 30.0678436,83.9833617 C31.0733543,82.9940824 32.5044181,82.2608887 32.2966628,80.4582716 C32.2520989,80.0669428 32.5929181,79.6167581 32.7981628,79.2154113 C33.1935883,78.4433977 33.8576521,77.7239788 33.983184,76.9162761 C34.2712798,75.0666995 34.4539287,73.2452986 35.1066947,71.4339158 C35.5422904,70.2248662 35.2366202,68.719659 35.1192479,67.3590869 C35.0809606,66.9233032 34.6434819,66.2458347 34.2813223,66.1656905 C33.0887691,65.9039698 33.100067,65.2158572 33.1565564,64.2365959 C33.2230883,63.0820194 33.4170351,61.6857581 32.8841521,60.79165 C31.4292372,58.3510104 29.5424926,56.1708392 27.9821309,53.7852986 C27.0437798,52.3508437 26.3238543,50.7567266 25.6528862,49.1732536 C25.3610245,48.485141 25.4394819,47.6423752 25.3490989,46.8691095 C25.5260989,46.8077491 25.7043543,46.7463887 25.8813543,46.6850284 C26.4845351,47.6173302 27.1668011,48.4394338 27.4919287,49.6259428 C27.9934287,51.4523527 28.6618862,53.2668662 30.5900564,54.1327986 M37.0944926,102.809722 C37.2250457,103.313754 37.3555989,103.817159 37.4855245,104.321817 C37.9386947,104.087645 38.55945,103.966177 38.8073755,103.59551 C39.23795,102.952479 39.4620245,102.164812 39.7262691,101.420974 C39.888833,100.965155 39.9359074,100.468636 40.0865457,100.007182 C40.593067,98.4550149 41.1730245,96.9247626 41.6249394,95.3575689 C41.8942053,94.4208842 41.9280989,93.4197086 42.1571947,92.468623 C42.3172479,91.8061815 42.7792053,91.1894473 42.8218862,90.5338932 C42.8501309,90.0987356 42.3762479,89.6310194 42.1276947,89.1770779 C41.9306096,89.6310194 41.6757798,90.0686815 41.5508755,90.5414068 C41.3719926,91.2132401 41.3261734,91.9207626 41.151684,92.5938482 C41.0004181,93.17865 40.6137798,93.7265104 40.5660777,94.310686 C40.4562372,95.6562311 40.7349181,97.0568752 39.7237585,98.2202176 C39.5724926,98.3930284 39.6107798,98.7405284 39.5869287,99.0103887 C39.4350351,100.744758 38.8299713,102.178587 37.0580883,102.85042 C37.1836202,101.9776 37.3053862,101.103528 37.434684,100.231335 C37.5118862,99.7141545 37.6010138,99.1976005 37.6844926,98.6816725 C37.2074713,98.9102086 36.6532479,99.0504608 36.2678649,99.384186 C34.7960032,100.6571 33.3768649,101.990749 31.9445457,103.308745 C31.7493436,103.488443 31.4279819,103.717605 31.4392798,103.906695 C31.53845,105.469506 31.4932585,107.086164 31.9081415,108.570709 C32.2828543,109.90874 32.2985457,112.32183 31.064567,112.88597 C29.1301202,113.768182 29.7301628,115.388596 29.5186415,116.72788 C29.3491734,117.798555 30.2103223,118.162335 31.2001415,117.667069 C32.0531309,117.241303 33.0291415,117.029046 33.8206202,116.520006 C34.6648223,115.978407 35.9753755,115.222673 36.0011096,114.521411 C36.085216,112.200988 37.1239926,109.567501 34.63595,107.685992 C34.3340457,107.457456 34.1288011,106.590272 34.3164713,106.316028 C35.1562798,105.089447 36.1536309,103.968682 37.0944926,102.809722 M48.679833,127.668182 C49.5409819,126.870497 50.2678117,126.314497 50.8402372,125.628889 C51.30345,125.074141 51.3599394,124.01724 52.4476734,124.376636 C53.1180138,124.598285 53.3439713,126.353317 52.8223862,127.090893 C52.0384394,128.201641 51.3028223,129.44951 49.4888862,128.62365 C50.066333,130.448182 51.366216,130.952839 52.3685883,129.845222 C54.5026309,127.484727 56.1722053,124.842474 56.0221947,121.490195 C55.9569181,120.021303 55.5834606,118.567438 55.4955883,117.09792 C55.4679713,116.615803 55.8119287,116.023488 56.1665564,115.655326 C56.2839287,115.533231 57.172067,115.838781 57.3503223,116.151844 C57.6917691,116.752925 57.9108223,117.49238 57.9453436,118.186754 C58.0263117,119.824073 58.1355245,121.492073 57.909567,123.103096 C57.7532798,124.218853 57.0647372,125.263231 56.5965032,126.332028 C56.4515138,126.663249 56.0774287,126.981947 56.1006521,127.28374 C56.2732585,129.490209 54.5158117,130.45006 53.2586096,131.696051 C52.2719287,132.67406 50.5395883,132.761091 49.4731947,131.882636 C48.5718755,131.140677 47.7684713,131.331645 46.7968543,131.625925 C45.6865245,131.963407 44.516567,132.221997 43.364184,132.262069 C42.7283649,132.283357 41.9588543,131.921456 41.452333,131.493186 C40.5171202,130.702389 39.8047266,130.389326 39.0370989,131.6541 C38.4351734,132.645258 37.8050032,133.642051 37.0329819,134.497965 C36.704716,134.862371 35.9841628,134.874267 35.4406096,135.046452 C35.3916521,134.521758 35.2648649,133.988925 35.3270032,133.478006 C35.3571309,133.223799 35.8592585,133.042222 35.9257904,132.772988 C36.0211947,132.385416 35.9138649,131.949006 35.8931521,131.533258 C35.5830883,131.630308 35.2736521,131.730488 34.962333,131.823781 C34.3830032,131.996591 33.8124606,132.243911 33.2205777,132.312785 C32.687067,132.375398 32.1064819,132.125573 31.5905457,132.231389 C31.21395,132.308402 30.7645457,132.680321 30.6233223,133.030952 C30.5260351,133.272636 30.8442585,133.751623 31.0833968,134.034006 C31.2760883,134.260664 31.6953649,134.292596 31.896216,134.516749 C32.3770032,135.052713 33.2745564,135.885461 33.133333,136.177862 C32.7843543,136.89415 32.0054287,137.470186 31.2842479,137.920371 C30.6214394,138.333614 29.8092479,138.510182 29.0610777,138.788808 C28.850184,138.8677 28.6367798,138.996682 28.4233755,139.000495 C27.7021947,139.012335 25.701216,137.162758 25.6139713,136.447722 C25.5807053,136.178488 25.6183649,135.82097 25.4620777,135.657551 C23.4793011,133.592587 25.4413649,132.101781 26.2184074,130.456947 C26.3866202,130.103186 26.7362266,129.817046 27.0450351,129.549064 C29.2286628,127.660042 30.6088862,125.186218 31.9106521,122.694862 C32.3732372,121.810772 32.5941734,120.633655 32.4617372,119.652515 C32.307333,118.5042 31.1185457,118.909929 30.4086628,119.050808 C29.2230138,119.286857 28.4108223,118.845438 27.8289819,117.955087 C27.6067904,117.6151 27.6281309,117.027168 27.7203968,116.590132 C27.9369394,115.553267 28.5583223,114.516402 28.4811202,113.520862 C28.3298543,111.576114 29.17845,110.068402 30.094833,108.548794 C30.8109926,107.360407 30.65345,105.922821 29.6554713,104.67683 C28.6876202,103.472164 27.7097266,103.977447 26.5956309,104.414483 C24.3335457,105.302956 22.0287798,106.087492 19.7321734,106.887682 C17.7901947,107.563272 15.7107585,107.964618 13.9162798,108.911321 C11.6083755,110.127884 9.55027979,111.809033 7.33715213,113.214686 C4.94012021,114.738051 2.84562021,116.581366 0.980215957,118.708943 C0.833343617,118.877371 0.422226596,118.814758 0.133503191,118.859839 C0.100237234,118.521731 -0.0955925532,118.035857 0.057556383,117.869934 C1.01034362,116.837452 1.05176915,115.608992 1.16914149,114.312911 C1.22312021,113.711204 1.9141734,113.127655 2.39809894,112.611727 C3.26050319,111.690695 4.48004574,110.939344 3.31573723,109.405961 C3.18204574,109.230019 3.47704574,108.506844 3.76576915,108.272673 C5.46107766,106.894569 7.17019468,105.597862 9.60300319,105.776308 C10.5808968,105.847686 11.5920564,105.358682 12.5988223,105.186497 C13.3080777,105.064402 14.0424394,105.092578 14.7523223,104.972988 C15.7151521,104.809569 16.7463968,104.740069 17.6037798,104.330582 C20.1489394,103.114645 22.5924181,101.685826 25.1444819,100.486794 C25.9177585,100.123015 26.9157372,100.153069 27.8126628,100.146182 C29.711333,100.133033 30.0785138,99.5839203 29.2179926,97.9397131 C28.3511947,96.2848617 27.9199926,94.6575599 29.3228117,92.9976995 C29.5776415,92.6965329 29.5713649,91.8237131 29.3177904,91.5081455 C28.4196096,90.388632 28.4283968,89.1463977 28.5382372,87.8640914 C28.6223436,86.8816995 28.2080883,86.2167536 27.6011415,85.439105 C26.761333,84.3634203 26.2723862,83.0122401 25.6547691,81.7675014 C25.4558011,81.3661545 25.3064181,80.936632 25.1695883,80.5089878 C24.8262585,79.4358077 24.5274926,78.3488527 24.1628223,77.283186 C23.9808011,76.7541095 23.8169819,76.1217221 23.429716,75.7779788 C22.4995245,74.9552491 22.0237585,74.0523752 21.7362904,72.7969923 C21.3176415,70.9661995 20.4408011,69.2349608 19.7033011,67.4849383 C18.9243755,65.6353617 17.8291096,63.8847131 18.0757798,61.7471185 C18.0914713,61.6175104 18.0889606,61.4390644 18.0142691,61.3514068 C16.2681202,59.3014698 17.5680032,56.8777356 17.1851309,54.6618752 C17.1317798,54.3550734 17.3163117,53.8754608 17.1600245,53.7383392 C15.5387798,52.3239203 16.3566202,50.4812311 16.3177053,48.842659 C16.1953117,43.6858842 16.2128862,38.5259788 16.1777372,33.3679518 C16.1771096,33.2765374 16.1595351,33.1794878 16.1840138,33.0949608 C16.644716,31.4939563 16.9667053,29.8340959 17.6062904,28.3076005 C18.9720777,25.0479878 20.2801202,21.7270149 22.0557691,18.689677 C23.0185989,17.0435914 23.7962691,15.0042986 25.8901415,14.1233392 C26.2956096,13.953659 26.5121521,13.0050779 26.5617372,12.3958572 C26.6546309,11.2500464 26.2077372,9.99215901 27.6519819,9.28463649 C27.793833,9.21451036 27.5396309,8.43811396 27.5584606,7.99356441 C27.5728968,7.64919505 27.7254181,7.30983468 27.8170564,6.96922207 C28.0681202,7.1808527 28.4880245,7.35742027 28.5438862,7.61162748 C29.0259287,9.81183468 30.5178755,11.4353797 32.4096415,12.0458527 C34.0120564,12.5630329 36.0544606,12.2624923 37.7340777,11.7622176 C38.5211628,11.5274203 39.0496521,10.0234653 39.4507266,8.99912297 C40.00495,7.58282568 40.3533011,6.0832536 40.74245,4.60622207 C41.0506309,3.43474009 41.2533649,2.23508243 41.5791202,1.06923559 C41.65695,0.788104955 42.0360564,0.592127477 42.2777053,0.35733018 C42.4641202,0.633451802 42.8476202,0.945262613 42.805567,1.18068604 C42.5011521,2.8549473 43.0516096,4.51355541 42.0153436,6.29425811 C41.3004394,7.52209144 40.0777585,9.57954189 41.6374926,11.3614968 C41.9494394,11.7183887 42.2846096,12.0633842 42.6530457,12.3595419 C43.4219287,12.9769023 44.3979394,13.4258347 44.9665989,14.1840734 C45.9036947,15.433195 46.5859606,16.872659 47.3755564,18.2319788 C47.4213755,18.3108707 47.4477372,18.4210689 47.5167798,18.4636455 C49.3652372,19.6244833 49.4066628,21.7952626 50.2558862,23.4958212 C50.8584394,24.7023662 50.8948436,26.175641 51.3254181,27.4836185 C52.1602053,30.023186 52.457716,32.6798392 53.6866734,35.1630554 C54.7951202,37.4020824 55.4196415,39.9009518 54.8465883,42.6602896 C54.5497053,44.0903617 54.6356947,45.9092581 55.6405777,47.4708167 C56.1364287,48.2409518 55.8439394,49.4944563 55.990184,50.5169203 C56.1075564,51.3383977 56.3605032,52.1392131 56.528716,52.9544293 C56.5889713,53.2430734 56.6373011,53.558641 56.58395,53.84165 C56.4119713,54.7476545 56.0228223,55.6430149 56.0159181,56.5440104 C55.9782585,61.4277941 56.2067266,66.3215959 55.9569181,71.191605 C55.8690457,72.9078167 54.6771202,74.5657986 54.0048968,76.2563392 C53.6829074,77.0684248 53.1092266,77.9118167 53.1544181,78.712632 C53.2705351,80.7744653 53.1964713,83.0485554 54.0613862,84.8192401 C55.464833,87.6937851 54.7869606,90.4975779 54.8271309,93.3552176 C54.8327798,93.7459203 55.43345,94.3758032 55.8533543,94.4678437 C57.2593117,94.77715 58.7173649,95.0833257 60.1365032,95.0131995 C61.0478649,94.9674923 61.9516947,94.3037986 62.80845,93.8273167 C63.2879819,93.5612131 63.6633223,93.1116545 64.3870138,92.4830239 C64.2181734,95.3225059 66.6804819,94.0834023 67.5253117,95.2198212 C67.5830564,94.6268797 67.6332691,94.1147086 67.6828543,93.6025374 C68.2301734,93.7884968 68.8402585,93.8780329 69.3103755,94.1823302 C70.0415989,94.6544293 70.5694606,94.5943212 71.2887585,94.0978032 C71.7977904,93.7459203 72.7656415,93.4146995 73.1654606,93.6613932 C74.5776947,94.5317086 75.6108223,93.7697131 76.7104819,93.1629968 C78.4999394,92.1743437 80.274333,91.158141 82.0430777,90.1337986 C82.7014926,89.7524878 83.4515457,89.4281545 83.9455138,88.884677 C85.8353968,86.8040599 87.6964074,84.6915104 89.4525989,82.4981905 C90.4373968,81.2684788 91.1585777,79.829641 92.0812372,78.5442041 C92.3134713,78.221123 93.0095457,77.8554653 93.2424074,77.9788122 C93.93095,78.3425914 93.9083543,78.9655869 93.3955564,79.5779383 C92.8796202,80.1952986 92.3561521,80.817668 91.9349926,81.4982671 C91.4906096,82.2158077 91.307333,82.9652806 91.8452372,83.8049158 C92.0059181,84.0578707 91.834567,84.7697761 91.574716,84.9964338 C90.6959926,85.7609338 89.7017798,86.3914428 88.76845,87.0958347 C88.298333,87.4508482 87.8639926,87.8528212 87.5840564,88.0882446 C88.062333,88.8658932 88.7213755,89.7919338 88.6535883,89.8482851 C87.8451628,90.5188662 86.9501202,91.0949023 86.0349926,91.6221005 C85.5422798,91.9057356 84.9679713,92.0484923 84.430067,92.2544878 C84.7056096,92.8442986 84.8474606,93.5862581 85.2968649,93.9750824 C85.6772266,94.3037986 86.4875351,94.4459293 86.9789926,94.2831365 C88.3654926,93.8210554 89.6986415,93.188668 91.0286521,92.5700554 C92.7565989,91.7673617 94.4575564,90.9076905 96.1773436,90.0887176 C96.4842691,89.9422041 96.8244606,89.8545464 97.1590032,89.7900554 C97.2048223,89.7812896 97.386216,90.1920284 97.3705245,90.2014203 C97.0554394,90.4049113 96.6945351,90.5439113 96.3963968,90.7668122 C95.9758649,91.0798752 95.5973862,91.4499158 95.201333,91.7961635 C95.6130777,92.0860599 96.0455351,92.6458167 96.4328011,92.6163887 C97.6303755,92.5243482 98.8135138,92.2169203 99.9985351,91.9746095 C100.481833,91.8763077 100.949439,91.6684338 101.435876,91.6202221 C102.524865,91.5119023 103.620131,91.4467851 104.714141,91.4179833 C105.107056,91.4073392 105.504365,91.5507221 106.258812,91.6916005 C104.791971,92.7259608 103.956556,94.062114 102.216684,93.5818752 C101.938003,93.5048617 101.529397,93.570605 101.287748,93.7315194 C99.1436628,95.1559563 96.7692266,94.4233887 94.4807798,94.5379698 C93.5625138,94.5830509 92.6568011,94.8942356 91.7485777,95.1008572 C91.1818011,95.2304653 90.6062372,95.3506815 90.064567,95.5541725 C89.7796096,95.6612401 89.5586734,95.9398662 89.3088649,96.1408527 C89.5498862,96.3155419 89.7745883,96.6066905 90.0356947,96.6442581 C91.5753436,96.8702896 93.1244074,97.0274473 94.6671947,97.2309383 C94.9289287,97.2653752 95.2176521,97.3567896 95.4216415,97.5145734 C96.6110564,98.4343527 97.762184,98.6797941 98.9911415,97.5490104 C99.1806947,97.3743212 99.7882691,97.3643032 99.9828436,97.5314788 C101.202386,98.5802401 102.639099,98.3974113 104.045056,98.3260329 C105.15978,98.2684293 106.107546,98.445623 106.853833,99.3904473 C107.103014,99.7072671 107.603886,99.8531545 108.015631,100.010312 C109.19061,100.458618 110.390695,100.844312 111.551237,101.325803 C111.77845,101.419722 111.843099,101.857384 112.034535,102.095312 C112.350248,102.488519 112.639599,103.00883 113.063897,103.191033 C114.090748,103.633704 114.204354,104.313051 113.771897,105.173974 C113.324376,106.064952 112.679141,106.000461 111.981812,105.419416 C111.81611,105.282294 111.596429,105.209664 111.406876,105.110109 C110.462876,106.554582 110.663099,107.268366 112.107344,107.819983 C114.122131,108.588866 115.715759,109.964465 117.134897,111.513501 C117.862982,112.308682 118.000439,113.428195 117.192641,114.258438 C116.827344,114.634114 116.004482,114.787515 115.442727,114.699857 C114.516301,114.555222 113.633184,114.129456 112.729354,113.830794 C112.603822,113.78947 112.423056,113.738127 112.332046,113.795105 C110.066822,115.206393 108.88745,113.112627 107.367886,112.22979 C106.160897,111.528528 105.105801,110.559285 103.877471,109.904983 C103.382876,109.640758 102.608344,109.899974 101.961227,109.920636 C102.05412,110.413398 101.993237,111.027001 102.26878,111.377006 C103.237259,112.605465 103.992333,114.106916 105.737227,114.50388 C105.926152,114.546456 106.150854,114.755582 106.22178,114.94029 C106.84128,116.544425 107.417471,118.165465 108.036344,119.770853 C108.196397,120.185974 108.529684,120.540362 108.656471,120.960492 C108.758152,121.297348 108.815269,121.875889 108.631993,122.021776 C108.295567,122.288506 107.637152,122.558366 107.34278,122.400582 C106.239982,121.808893 105.167939,121.118276 104.210131,120.315582 C103.67662,119.869155 103.500876,118.991952 102.961088,118.560551 C102.53428,118.219938 101.798663,118.265019 101.200503,118.138542 C101.11828,118.695794 100.983333,119.25242 100.98145,119.809046 C100.980822,120.031321 101.367461,120.237317 101.412652,120.48088 C101.470397,120.795195 101.361812,121.141443 101.32478,121.473916 C100.988354,121.433218 100.553386,121.510231 100.334961,121.328028 C99.8497798,120.924803 99.4248543,120.425781 99.062067,119.904844 C97.7169926,117.974497 96.3612479,116.047907 95.0946309,114.066218 C93.0070351,110.799091 89.4030138,109.130465 86.9319181,106.259051 C86.1906521,105.396249 85.1010351,104.806438 84.1043117,104.2016 C83.751567,103.987465 83.1998543,104.098916 82.7391521,104.0626 C82.7090245,104.475844 82.6707372,104.888461 82.6556734,105.30233 C82.6525351,105.37997 82.7881096,105.470758 82.7755564,105.539632 C82.4918543,107.107452 82.9801734,107.986533 84.7395032,107.831254 C84.8493436,107.822488 85.1443436,108.263281 85.1041734,108.43797 C84.5643862,110.805979 86.5214287,112.142758 87.3568436,113.935983 C87.4472266,114.128204 87.7742372,114.227758 87.8269606,114.416222 C87.9562585,114.880808 87.9901521,115.371691 88.062333,115.851929 C87.6273649,115.721695 87.0361096,115.724826 86.7875564,115.435555 C86.144833,114.687335 85.6609074,113.803871 85.0991521,112.985524 C84.7658649,112.499024 84.5060138,111.867263 84.0402904,111.584254 C81.6181521,110.113483 80.388567,107.471857 78.2099606,105.790082 C76.9966947,104.854024 75.725684,103.969308 74.3900245,103.22547 C73.9519181,102.981281 73.225716,103.251767 72.6313223,103.28683 C72.8114606,103.75079 72.928833,104.252943 73.1849181,104.669943 C73.6845351,105.481402 74.3260032,106.212091 74.7741521,107.04797 C74.9417372,107.361033 74.7333543,107.874456 74.6963223,108.295839 C74.3084287,108.188145 73.8307798,108.186267 73.5514713,107.950218 C73.0342798,107.513808 72.6175138,106.952173 72.1838011,106.421218 C69.3813011,102.986916 65.5061309,102.988794 61.5933011,103.154718 C61.2141947,103.170997 60.7949181,103.400785 60.4829713,103.644348 C59.7310351,104.229776 59.0801521,104.3406 58.2893011,103.656245 C57.5543117,103.021353 56.9869074,103.400785 57.113067,104.266091 C57.3559713,105.942857 56.7778968,107.654686 57.7947053,109.33333 C58.7104606,110.846051 57.2850457,113.718718 55.6016628,114.408709 C54.6501309,114.799411 53.5925245,115.022938 52.7583649,115.582069 C52.162716,115.981537 51.4183117,116.872515 51.4948862,117.442916 C51.9744181,120.998686 50.4454394,123.840046 48.587567,126.612533 C48.5386096,126.684537 48.5116202,126.780961 48.5078543,126.867992 C48.5034606,126.953772 48.5411202,127.041429 48.679833,127.668182" id="Fill-1" fill="#231916" mask="url(#mask-2)"></path>
                </g>
                <g id="编组" transform="translate(101.896617, 0.000000)">
                    <mask id="mask-4" fill="white">
                        <use xlink:href="#path-3"></use>
                    </mask>
                    <g id="Clip-4"></g>
                    <path d="M9.45487792,77.0464547 C8.86828052,76.675872 8.5833974,76.3847894 8.25861818,76.3309547 C8.05913766,76.2977776 7.79981299,76.6257933 7.56791688,76.7923051 C7.80791688,77.0783799 8.00116364,77.4777579 8.30724156,77.6085886 C8.4955013,77.6887146 8.85830649,77.3556909 9.45487792,77.0464547 M21.921787,70.7791004 C22.4329558,70.4091437 22.8082286,70.1380925 23.1822545,69.8664154 C22.866826,69.6348012 22.5208519,69.1822146 22.2403325,69.2191476 C21.729787,69.2867539 21.2585143,69.6460689 20.7704104,69.8833169 C21.1039169,70.1431004 21.4386701,70.4028839 21.921787,70.7791004 M15.1824623,25.4171516 C15.5751896,26.1695846 15.7902545,27.0797657 16.785787,26.7022972 C17.217787,26.5389154 17.7962805,25.4960256 17.6709818,25.3257579 C16.9372675,24.3298169 16.1200208,25.040935 15.1824623,25.4171516 M13.4089558,61.7067106 C13.4089558,59.9132657 13.4550857,58.4090256 13.3784104,56.9097933 C13.357839,56.5079114 12.9638649,56.126061 12.7406961,55.7348209 C12.374774,56.0233996 11.8043844,56.2412421 11.6753455,56.6124508 C10.9609558,58.6750689 11.0631896,59.7993366 13.4089558,61.7067106 M16.6243325,69.2711043 C16.583813,69.7280728 16.401787,70.2069508 16.5320727,70.5744035 C17.1012156,72.1806791 18.2688,73.220439 19.8933195,73.6755295 C20.2717091,73.7813209 20.9954494,73.7212264 21.0964364,73.5121476 C21.2859429,73.1202815 21.3364364,72.3121358 21.0939429,72.1168287 C19.8764883,71.1384154 18.5455792,70.3008484 17.2514494,69.4188366 C17.1822545,69.3712618 17.0781506,69.3750177 16.6243325,69.2711043 M34.5900468,73.1979035 C36.1129558,74.612002 38.6494753,73.3882028 39.1581506,76.0129547 C40.2166442,74.3109035 39.4561247,71.3043012 37.9999169,70.5756555 C37.7873455,70.4692382 37.3746701,70.4335571 37.2369039,70.5618839 C36.3361247,71.4000768 35.4852156,72.2939823 34.5900468,73.1979035 M10.6380468,69.3355807 C11.1591896,69.722439 11.6697351,70.3659508 12.2881247,70.4974075 C13.1739429,70.6858287 13.3092156,69.9171201 13.339761,69.1565492 C13.3597091,68.6945728 13.6489558,68.25075 13.718774,67.7837657 C13.7842286,67.3499587 13.8241247,66.8623169 13.6950857,66.4566791 C13.2443844,65.0425807 11.7420468,65.4200492 10.7751896,64.8660531 C10.4535273,64.6820138 9.8769039,64.9468051 9.41622857,65.0062736 C9.54277403,65.4970453 9.51970909,66.1324193 9.82454026,66.4491673 C10.5401766,67.1915846 11.341839,67.8106831 10.6380468,69.3355807 M35.9627221,79.022061 C34.2060468,78.7078169 33.9211636,77.6373839 33.7565922,76.4085768 C33.709839,76.0586516 33.2335792,75.6711673 32.8632935,75.5084114 C32.7192935,75.444561 32.3290597,75.9591201 32.0441766,76.201376 C31.7131636,76.4843209 31.3584623,76.7409744 31.0430338,77.0395689 C30.715761,77.3494311 30.4246442,77.6962264 30.1173195,78.0267461 C30.4383584,78.2833996 30.7463065,78.5588327 31.0860468,78.7879429 C31.2593455,78.905002 31.4881247,78.9400571 31.6801247,79.0082894 C31.3279169,80.7979783 31.8945662,81.3970453 33.5028779,80.8048642 C34.2926961,80.5137815 34.9260468,79.7951516 35.9627221,79.022061 M24.0524883,65.7123839 C25.0025143,65.7123839 25.9737351,65.8300689 26.8969558,65.6716949 C27.5483844,65.5602697 28.2721247,65.1946949 28.7022545,64.7095571 C28.957839,64.4216043 28.8973714,63.5226909 28.6255792,63.1953012 C28.406774,62.9336398 27.6506182,63.0744862 27.1406961,63.1208091 C26.5104623,63.1777736 25.8889558,63.40125 25.261839,63.4106398 C24.061839,63.4275413 22.8599688,63.3261319 21.6580987,63.3098563 C21.1668779,63.3029705 20.6725403,63.3755846 20.1825662,63.4356791 C18.5698909,63.6309862 17.2121766,62.9568012 15.8426182,62.2406752 C15.5190857,62.0710335 15.0297351,62.2187657 14.6170597,62.2206437 C14.6388779,62.5956083 14.5559688,63.0212776 14.7055792,63.3342697 C14.9779948,63.9020374 15.3613714,64.4247343 15.7484883,64.9267736 C16.4055273,65.7799902 17.1654234,65.9652815 18.0923844,65.269187 C18.4159169,65.0263051 19.0848,64.712061 19.2263065,64.8397618 C20.6887481,66.1718563 22.4366961,65.4544783 24.0524883,65.7123839 M18.2769039,78.8593051 C20.2542545,79.3237854 22.1356052,77.9397343 24.0780468,76.836124 C24.3623065,76.6746201 24.3566961,75.9991831 24.4857351,75.5622461 C24.0936312,75.5735138 23.5625143,75.4264075 23.3349818,75.6260965 C22.5501506,76.3153051 22.0651636,75.9071634 21.4723325,75.3713209 C21.1450597,75.0758563 20.683761,74.8786713 20.2492675,74.7628642 C19.3522286,74.5231122 18.1435013,74.6652106 17.5812156,74.1155965 C16.3569039,72.9199665 14.9611636,73.3481398 13.6221506,73.218561 C13.2749299,73.1847579 12.8984104,73.457687 12.5356052,73.5891437 C12.7170078,73.9196634 12.8747221,74.2658327 13.0841766,74.5775728 C13.4295273,75.0915059 13.991813,75.5347028 14.1414234,76.0943327 C14.7753974,78.4693169 15.3171117,78.9300413 18.2769039,78.8593051 M5.39794286,48.2067343 C5.25643636,48.4527461 5.09124156,48.7363169 4.92916364,49.0211398 C4.53892987,49.7103484 4.11129351,50.3807776 3.77155325,51.0937736 C3.43867013,51.7917461 3.14007273,52.5178878 2.92937143,53.2615571 C2.74921558,53.8981831 2.8982026,54.6894272 2.58152727,55.2177579 C1.62713766,56.803376 1.54921558,57.1708287 2.88386494,58.4591043 C3.7142026,59.2603642 4.00157922,60.0929232 3.93861818,61.2516201 C3.90183896,61.9389508 4.30391688,62.7364547 4.72157922,63.3336437 C5.02391688,63.7649469 5.67596883,63.9496122 6.17217662,64.2444508 C6.41092987,63.8031319 6.64095584,63.3561791 6.89342338,62.922372 C6.95264416,62.8197106 7.08604675,62.7608681 7.21757922,62.6563287 C7.77238442,63.320498 8.30661818,63.9621319 8.8420987,64.6025138 C8.69498182,64.3189429 8.54911169,64.0347461 8.40261818,63.7511752 C9.07274805,63.1433445 9.74225455,62.5348878 10.6717091,61.691061 C10.2178909,60.8290807 8.88822857,59.7736713 7.39399481,58.8985453 C6.25072208,58.2287421 5.89041039,57.2634744 6.25383896,56.0321634 C7.03243636,53.3911358 5.60552727,50.8947106 5.68656623,48.2924941 C5.68656623,48.2818524 5.6073974,48.2680807 5.39794286,48.2067343 M39.2061506,83.3513681 C38.6070857,82.3954902 37.9756052,81.8590217 36.7668779,82.323502 C36.3298909,82.4912657 35.5494234,81.884061 34.9790338,81.5416476 C34.3756052,81.1792028 34.0034494,81.1604232 33.499761,81.7839035 C32.2174753,83.3720256 30.518774,83.5817303 28.9759169,82.3986201 C28.6673455,82.161998 28.4940468,81.7006476 28.3475532,81.3094075 C28.161787,80.811124 28.0233974,80.2846713 27.9436052,79.7588445 C27.8557091,79.1741752 27.9255273,78.5600846 27.7927481,77.989813 C27.7085922,77.6286201 27.2722286,77.0101476 27.1793455,77.0426988 C26.3596052,77.3287736 25.5816312,77.7350374 24.7943065,78.1037421 C24.9333195,78.4223681 24.9464104,78.5312894 25.0062545,78.5788642 C25.5099429,78.9738602 26.0223584,79.3569626 26.5322805,79.7450728 C25.991813,80.3954705 25.5679169,81.3162933 24.8765922,81.6136358 C24.2744104,81.8727933 23.3312416,81.5341358 22.6156052,81.2574508 C22.1486961,81.0759154 21.8532156,80.4912461 21.4230857,80.1626043 C20.6912416,79.6023484 19.9450597,79.5203445 19.2231896,80.2439823 C18.2089558,81.2612067 17.0482286,81.1917224 16.0128,80.3948445 C13.521787,78.4774547 10.6985143,78.544435 7.83285195,78.8874744 C6.5380987,79.0433445 5.03389091,78.3535098 4.85996883,77.3419193 C4.69477403,76.3835374 6.19711169,74.4943169 7.15025455,74.2451752 C8.14391688,73.9860177 9.10765714,73.5734941 10.0402286,73.1340531 C10.2902026,73.0163681 10.5819429,72.4730138 10.4996571,72.2683169 C10.3350857,71.8564193 9.96355325,71.2873996 9.61134545,71.2354429 C8.52542338,71.074565 8.14952727,70.3402854 7.70131948,69.5058484 C7.06485195,68.3214862 6.30744935,67.2003484 5.54692987,66.0898524 C5.3942026,65.867002 4.94848831,65.8688799 4.71908571,65.6710689 C4.12002078,65.1558839 3.3993974,64.6820138 3.02599481,64.0209744 C2.07908571,62.3458406 1.27118961,60.5880768 0.462046753,58.8378248 C0.229527273,58.3326555 -0.0360311688,57.6803799 0.0942545455,57.200876 C0.458306494,55.8593917 0.98692987,54.5585965 1.51555325,53.2690689 C2.28105974,51.398002 3.1569039,49.5726319 3.88812468,47.6896713 C4.80511169,45.3253287 5.34370909,42.7631752 6.57425455,40.5878799 C7.50557922,38.9409154 9.14194286,37.602561 10.6885403,36.4225807 C12.3710338,35.139939 14.3515013,34.2585531 16.1275013,33.0867106 C17.4122805,32.239128 17.3530597,31.5636909 16.3263584,30.4350413 C14.8907221,28.856935 13.7511896,27.1373563 14.2368,24.8080689 C14.5590857,23.2662697 14.1164883,21.8340177 13.4544623,20.4624862 C13.3254234,20.1964429 13.1053714,19.8915886 12.8516571,19.7820413 C10.1169039,18.5926713 9.36822857,16.3284862 9.44864416,13.5885531 C9.46360519,13.0877657 9.31586494,12.5512972 9.45113766,12.0930768 C9.57955325,11.6573917 9.9355013,11.0170098 10.2702545,10.9644272 C11.3642805,10.7916555 11.4995532,10.1681752 11.5500468,9.23420669 C11.606774,8.18568307 11.9165922,7.15406102 12.0450078,6.10678937 C12.0836571,5.79191929 11.8935273,5.44575 11.7931636,5.11898622 C11.6360727,4.6069311 11.3792416,4.10739567 11.3362286,3.58782874 C11.3119169,3.29549409 11.563761,2.82663189 11.8156052,2.71270276 C12.0082286,2.62506496 12.4402286,2.91802559 12.6845922,3.13461614 C13.0212156,3.43383661 13.2811636,3.82069488 13.5722805,4.17062008 C14.9299948,5.7994311 16.2353455,5.63730118 16.9422545,3.60848622 C17.3854753,2.33586024 17.7657351,1.86887598 18.9856831,2.84791535 C19.2206961,3.0369626 20.0036571,2.72647441 20.4182026,2.46356102 C21.3090078,1.89641929 22.0414753,0.983734252 22.9933714,0.635061024 C24.0319169,0.253836614 24.3853714,0.847895669 23.9789299,1.88953346 C23.783813,2.38719094 23.6734753,2.92303346 23.5668779,3.4501122 C23.3162805,4.68956102 23.7021506,5.41632874 25.0991377,5.29989567 C25.2755532,5.28424606 25.4619429,5.33119488 25.6377351,5.37125787 C27.8444883,5.8789311 28.3968,5.63166732 29.265787,3.39815551 C29.6267221,2.47044685 30.2613195,2.25260433 31.0667221,2.32208858 C31.4120727,2.35213583 31.9288519,2.62068307 32.0142545,2.8936122 C32.1277091,3.2516752 32.0161247,3.81380906 31.7848519,4.12554921 C30.5586701,5.77689567 31.2499948,7.62542717 31.2007481,9.38757283 C31.1951377,9.58600984 31.7437091,10.0029154 31.9693714,9.96160039 C32.3577351,9.8896122 32.721787,9.56848228 33.0471896,9.2936752 C33.7491117,8.69899016 34.3805922,8.01416339 35.1236571,7.4808248 C35.3748779,7.30054134 35.8723325,7.46454921 36.2569558,7.47080906 C36.2438649,7.84514764 36.3448519,8.2758248 36.1958649,8.58318307 C35.5943065,9.82763976 35.3867221,10.9594193 36.4639169,12.1030925 C36.7506701,12.4073209 36.7556571,13.038939 36.7756052,13.5247028 C36.8092675,14.3441161 36.6490597,15.1810571 36.753787,15.9866988 C37.021839,18.047439 35.9483844,19.5253878 34.7751896,20.9845571 C34.6330597,21.1617106 34.3419429,21.3369862 34.3512935,21.4997421 C34.4703584,23.5216713 32.7523325,24.6490689 32.0472935,26.2672382 C31.8758649,26.6616083 31.281787,27.0785138 30.859761,27.1023012 C30.3504623,27.1310965 29.6672416,26.8788248 29.3549299,26.5013563 C29.1785143,26.2878957 29.5886961,25.5767776 29.7464104,25.0941437 C29.9222026,24.5551713 30.3479688,23.9723799 30.2482286,23.4947539 C29.9951377,22.2709547 29.7071377,20.9764193 29.0731636,19.9291476 C28.2153974,18.5137972 27.1463065,17.1641752 25.9219948,16.0611909 C25.2711896,15.4752697 25.1303065,15.0840295 25.3615792,14.3722854 C25.7405922,13.2067028 25.2655792,12.7334587 24.1036052,12.8123327 C23.3779948,12.8617854 22.6480208,12.8611594 21.9261506,12.9437894 C20.918774,13.0577185 20.1408,12.9018484 19.8079169,11.7506634 C19.7162805,11.4307854 19.3085922,11.091502 18.9725922,10.9744429 C18.0979948,10.6708406 17.1822545,10.4861752 16.3631377,10.2739665 C15.9573195,10.9631752 15.469839,11.6517579 15.1400727,12.4098248 C14.9811117,12.7747736 14.9985662,13.317502 15.1469299,13.6962224 C15.479813,14.5406752 15.9891117,15.3137657 16.3425662,16.1519587 C16.6343065,16.8430453 16.7982545,17.5885925 17.0295273,18.3065965 C17.1373714,18.64275 17.1741506,19.0853209 17.4079169,19.2831319 C18.1117091,19.875939 18.0549818,20.5382303 17.9945143,21.3682854 C17.9508779,21.9711083 18.4009558,22.6390335 18.7382026,23.214313 C18.8049039,23.3288681 19.5997091,23.2449862 19.6545662,23.0991319 C20.2766961,21.4465335 21.4636052,19.8903366 20.5715532,17.9366398 C20.4069818,17.5766988 20.4518649,16.7679272 20.6625662,16.6521201 C21.403761,16.2464823 22.3431896,15.6949902 23.0532156,15.860876 C24.2606961,16.1431949 25.3285403,16.8787264 24.6733714,18.5720138 C24.493839,19.0364941 24.7332156,19.7501161 24.9595013,20.2703091 C25.4345143,21.3613996 24.9925403,21.5892579 24.0163325,21.4797106 C23.4316052,21.4139823 22.838774,21.2975492 22.257787,21.3363602 C21.3563844,21.3964547 21.1837091,21.9128917 21.6568519,22.6471713 C22.2210078,23.5216713 22.8805403,24.3435886 23.3511896,25.2644114 C23.5525403,25.6581555 23.3798649,26.2447028 23.3767481,26.7429862 C22.9759169,26.5407933 22.4903065,26.4224823 22.1917091,26.1195059 C21.5433974,25.4603445 20.9904623,24.7066594 20.3409039,23.9216752 C19.5785143,24.7604941 19.6489558,25.4058839 20.1925403,26.0243563 C20.5210597,26.3999469 20.9094234,26.7229547 21.2753455,27.0653681 C22.7010078,28.3993406 22.6106182,29.1718051 20.8533195,30.1076516 C20.3109818,30.3962303 19.6894753,30.5339469 19.1016312,30.7417736 C19.5292675,31.7758996 21.2061506,32.1871713 22.2945662,31.5023445 C23.3206442,30.8569547 24.2688,30.0863681 25.2905143,29.4334665 C25.5716571,29.2538091 25.9949299,29.2988799 26.3527481,29.2406634 C26.3720727,29.6243917 26.5622026,30.1990453 26.3820468,30.3643051 C24.7151377,31.8860728 23.5943065,34.4131713 20.625787,33.6607382 C19.2100987,33.3020492 18.2232935,33.9029941 17.1230338,34.8494823 C15.9922286,35.8210098 14.395761,36.2222657 13.0791896,37.0028681 C10.2465662,38.6823839 7.63274805,40.5885059 6.7195013,44.0476949 C6.48261818,44.9466083 5.4926961,45.6915295 6.29685195,47.0179902 C6.61913766,46.5366083 6.7862026,46.1009232 7.10163117,45.8674311 C7.43887792,45.6176634 7.91513766,45.5581949 8.33155325,45.4154705 C8.34526753,45.8367579 8.50485195,46.3275295 8.34402078,46.665561 C7.8340987,47.739124 7.06422857,48.7062697 6.67648831,49.8136358 C6.45331948,50.4515138 6.77248831,51.2809429 6.84791688,52.0233602 L7.51991688,52.1448012 C7.84781299,51.4681122 8.17944935,50.7939272 8.50173506,50.1153602 C9.07835844,48.8978209 9.60947532,47.6564941 10.2515532,46.4758878 C10.3880727,46.2248681 10.9185662,46.189813 11.2670338,46.0558524 C11.2950857,46.4652461 11.4683844,46.9391161 11.3231377,47.2727657 C10.9447481,48.1435098 10.3363325,48.9166004 9.99222857,49.7973602 C9.71170909,50.5172421 9.67368312,51.3347776 9.54277403,52.111624 C9.51285195,52.2875256 9.5995013,52.4972303 9.53716364,52.6518484 C9.03908571,53.8787776 8.47555325,55.0800413 8.02672208,56.323872 C7.87648831,56.7414035 8.00241039,57.2597185 8.00178701,57.7317106 C8.56157922,57.6609744 9.36698182,57.797439 9.63254026,57.479439 C10.2621506,56.7257539 10.5295792,55.6741004 11.1330078,54.8909941 C12.6278649,52.9535728 12.3922286,50.7438484 12.3810078,48.5322461 C12.3785143,48.0295807 12.7625143,47.5256634 12.9682286,47.0217461 C13.4170597,47.2327028 13.8490597,47.5062579 14.3203325,47.6383406 C14.8726442,47.7942106 15.5053714,48.0064193 16.0221506,47.8755886 C17.1604364,47.5870098 17.7757091,47.6658839 18.0512416,49.0411713 C18.1690597,49.6283445 19.1066182,50.0508839 19.7611636,50.6267894 C19.4008519,51.5757815 17.265787,52.0208563 16.1555532,51.0925217 C15.8769039,50.8602815 15.661839,50.5472894 15.3725922,50.3325768 C14.7093195,49.8399272 14.1700987,50.0220886 14.1719688,50.8458839 C14.173839,51.6396319 14.4113455,52.4396398 14.6014753,53.223998 C14.6949818,53.6127343 15.0702545,53.980187 15.047813,54.3407539 C14.9730078,55.5244902 15.5271896,56.0847461 16.603761,56.3758287 C17.2770078,56.5586161 17.6423065,57.0043169 17.4534234,57.8331201 C17.3792416,58.1573799 17.6292156,58.831565 17.8673455,58.9060571 C18.8784623,59.2190492 18.9033974,59.9495728 19.0729558,60.8009114 C19.1702026,61.294813 19.8459429,61.9790138 20.3240727,62.0341004 C21.7565922,62.1974823 23.2202805,62.1004547 24.6721247,62.0935689 C26.3783065,62.0860571 28.0483325,61.9495925 29.2963325,60.4916752 C28.0788779,60.4441004 28.2590338,59.5739823 28.2727481,58.6381358 C28.285839,57.7148091 27.6637091,56.6381161 27.9741506,55.9094705 C28.2247481,55.3197933 29.5344623,55.2659587 30.2176831,54.7607894 C31.3011117,53.9607815 31.7380987,51.279065 30.8903065,49.9607421 C30.1223065,48.7688681 30.0587221,47.6145531 30.2756571,46.3206437 C30.4551896,45.2545925 30.5162805,44.1672579 30.7332156,43.1099705 C30.7992935,42.7838327 31.2063584,42.5271791 31.4569558,42.2392264 C31.7000727,42.5102776 31.9980468,42.7512815 32.1669818,43.0630217 C32.2854234,43.2821161 32.1694753,43.6220256 32.2679688,43.8636555 C32.3564883,44.083376 32.5771636,44.3644429 32.769787,44.3907343 C32.9268779,44.4113917 33.1974234,44.1284469 33.2952935,43.921872 C33.4274494,43.6426831 33.3495273,43.2264035 33.5309299,43.0179508 C33.7653195,42.7487776 34.1673974,42.6279626 34.4965403,42.4439232 C34.6224623,42.7907185 34.9285403,43.1913484 34.8443844,43.4761713 C34.3756052,45.0686752 33.8120727,46.6323839 33.2809558,48.2061083 C33.2223584,48.377628 33.1101506,48.5510256 33.1132675,48.7219193 C33.1805922,52.3782933 31.6065662,55.8700335 32.1439169,59.6140453 C32.2829299,60.5830689 31.2743065,61.7211083 30.7843325,62.7765177 C30.7082805,62.9398996 30.5318649,63.0688524 30.4932156,63.2359902 C30.0973714,64.9449272 30.1422545,66.8278878 28.5333195,68.0585728 C28.4566442,68.1167894 28.6293195,68.6588917 28.8082286,68.8723524 C29.5375792,69.7456004 29.1454753,70.3233839 28.4267221,70.9406043 C27.4604883,71.7687815 26.5584623,72.6727028 25.7836052,73.7662972 C27.4679688,72.7572106 29.8929039,74.0254547 31.1246961,71.8820846 C31.223813,71.709313 31.7044364,71.6435846 31.9731117,71.6992972 C33.8812675,72.0949193 35.9564883,70.4598484 36.2482286,67.9458957 C35.4939429,68.5800177 34.9771636,69.0933248 34.3805922,69.483313 C34.0645403,69.6898878 33.6088519,69.68175 33.2161247,69.7712657 C33.2747221,69.365002 33.1955532,68.846687 33.4162286,68.5731319 C34.0420987,67.7969114 34.7558649,67.0814114 35.4995532,66.4147382 C36.3454753,65.6579232 37.2412675,66.2732657 37.6022026,66.8566831 C38.5210597,68.3415177 39.1880727,69.9847264 39.9460987,71.5690925 C40.0807481,71.8507854 40.0801247,72.3152657 40.285839,72.426065 C41.9496312,73.3237264 41.6342026,74.8204547 41.5294753,76.2708602 C41.4259948,77.711876 41.2682805,79.0727657 42.2899948,80.4198839 C42.9482805,81.288124 42.9632416,82.6289823 43.3671896,83.7200728 C43.6838649,84.5739154 43.9955532,85.5235335 44.5952416,86.1576555 C45.6194494,87.2387303 45.4910338,88.3999311 45.1799688,89.596813 C45.0970597,89.915439 44.5703065,90.2140335 44.1881766,90.3404823 C41.7632416,91.1423681 41.4359688,91.5918248 41.5980468,94.0763563 C41.7164883,95.9073602 41.6616312,97.6782697 42.3143065,99.5361909 C42.9108779,101.235738 42.379761,103.31964 42.4408519,105.23077 C42.4601766,105.86051 42.7793455,106.48086 42.9576312,107.106219 C43.1022545,107.613892 43.3528519,108.121565 43.3609558,108.631742 C43.3890078,110.315014 43.3216831,112.000163 43.3079688,113.684061 C43.3060987,113.901278 43.3291636,114.20801 43.4663065,114.322565 C44.7810078,115.423045 44.3926442,116.890352 44.3346701,118.275656 C44.2735792,119.741085 44.0903065,121.212774 45.6468779,122.139856 C45.9286442,122.308246 46.2278649,122.715762 46.2422026,123.025624 C46.3712416,125.810628 47.7969039,128.318321 47.4877091,131.276722 C47.0924883,135.063301 47.3991896,138.923746 47.3879688,142.752266 C47.3860987,143.391396 47.3025662,144.031152 47.2570597,144.670281 C47.053839,144.697825 46.8518649,144.725368 46.6498909,144.752911 C46.4934234,144.226459 46.199813,143.698754 46.2072935,143.174179 C46.2247481,141.93473 46.0084364,140.84364 45.5452675,139.642376 C45.0715013,138.412943 44.8576831,136.807293 45.8432416,135.478329 C46.0495792,135.198514 46.2334753,134.833565 46.2546701,134.496785 C46.3768519,132.590663 46.4815792,130.682037 46.5071377,128.772159 C46.5133714,128.28577 46.2091636,127.795624 46.0470857,127.30673 C45.8532156,127.338656 45.6580987,127.370581 45.4642286,127.401254 C45.4642286,128.130526 45.4729558,128.859797 45.4611117,129.589695 C45.4530078,130.043533 45.4673455,130.511144 45.3626182,130.946203 C45.3127481,131.149022 45.0072935,131.416943 44.8128,131.421325 C44.6220468,131.425081 44.3122286,131.167801 44.2480208,130.964356 C43.8372156,129.646033 43.4532156,128.317695 43.1222026,126.978089 C43.0305662,126.608132 43.1490078,126.186219 43.1820468,125.583396 C43.9232416,126.165561 44.4312935,126.564313 45.1681247,127.143348 C45.2647481,126.494203 45.4611117,126.071663 45.3538909,125.751785 C44.8551896,124.267577 44.2823065,122.808407 43.7106701,121.349238 C43.6159169,121.107608 43.3011117,120.936089 43.2475013,120.695711 C42.9065143,119.165805 42.4433455,117.635274 42.359813,116.085963 C42.306826,115.090648 42.2500987,114.248699 41.6304623,113.430537 C41.3979429,113.124431 41.4540468,112.565427 41.4521766,112.121604 C41.4453195,110.38888 41.4683844,108.65553 41.4783584,106.922805 C41.4789818,106.832037 41.4845922,106.730002 41.4471896,106.65238 C39.6811636,102.959699 41.0245403,99.0128681 40.507761,95.2219075 C40.3481766,94.047561 39.9803844,92.9026358 39.7073455,91.743939 C39.5515013,91.7326713 39.3956571,91.7214035 39.239813,91.7101358 C38.8252675,92.2622539 38.481787,92.8995059 37.9681247,93.334565 C37.6545662,93.5993563 37.0455273,93.7095295 36.6284883,93.6181358 C35.3966961,93.3483366 34.166774,92.6146831 32.9923325,92.7173445 C32.3172156,92.776187 31.5429818,94.0187657 31.1963844,94.88325 C30.8466701,95.7552461 30.4121766,95.8967185 29.5899429,96.1408524 C28.3799688,96.4989154 27.2928,97.3133209 26.2180987,98.0300728 C26.087813,98.1170846 26.2835532,98.8344626 26.4481247,99.2050453 C27.0758649,100.624152 27.7534753,102.020722 28.411761,103.426057 C28.8132156,104.281152 29.1479688,105.176935 29.6285922,105.984455 C30.3660468,107.222652 31.4419948,108.310612 31.938826,109.628309 C32.5703065,111.301565 32.8090597,113.131943 33.1363325,114.909738 C33.3395532,116.013348 33.3944104,117.144502 33.5165922,118.263762 C33.6655792,118.254372 33.8145662,118.244982 33.9629299,118.236219 C34.0252675,118.039033 34.0339948,117.794274 34.1586701,117.654053 C34.4585143,117.3179 34.8132156,117.031199 35.1454753,116.724467 C35.3854753,117.112577 35.6666182,117.481907 35.8548779,117.893805 C36.0699429,118.367675 36.273787,118.868463 36.3529558,119.377388 C36.4402286,119.936392 36.3853714,120.517931 36.3803844,121.089455 C36.3772675,121.577722 36.1709299,122.17053 36.3760208,122.535478 C37.2356571,124.069766 38.2567481,125.513285 39.1319688,127.040061 C39.4449039,127.585293 39.7054753,128.288274 39.6549818,128.891096 C39.527813,130.42288 40.3849558,131.415691 41.2645403,132.469222 C41.3985662,131.184077 41.7370597,129.997837 41.0014753,128.695163 C40.5426701,127.880758 40.5869299,126.672608 40.699761,125.675415 C40.7920208,124.857254 41.5126442,124.862888 41.985787,125.460077 C42.2426182,125.784337 42.4233974,126.322683 42.3623065,126.721435 C42.1310338,128.243203 42.4302545,129.602215 43.2082286,130.917407 C43.415813,131.269211 43.458826,131.828841 43.3547221,132.23573 C43.1172156,133.165943 42.9052675,134.014152 43.9325922,134.621982 C44.0560208,134.695222 44.1856831,134.992565 44.1339429,135.0946 C43.2898909,136.754711 44.3988779,138.362864 44.2305662,139.996057 C44.2006442,140.288392 44.1108779,140.635813 43.9195013,140.829868 C43.799813,140.951309 43.3235532,140.931278 43.2100987,140.799821 C43.0012675,140.556313 42.7444364,140.064289 42.8522805,139.885258 C43.5560727,138.715293 42.9856831,137.81951 42.407813,136.853616 C42.1952416,136.499309 42.2195532,135.99414 42.1634494,135.553447 C42.1054753,135.098982 42.0811636,134.640136 42.0418909,134.182541 C41.8505143,134.197565 41.6578909,134.211963 41.4658909,134.226986 C41.5911896,135.634825 41.6853195,137.045793 41.8511377,138.447998 C42.0294234,139.967262 42.3990857,141.47338 42.4564364,142.994522 C42.5193974,144.633348 42.1740468,146.2246 41.8056312,147.856541 C41.4054234,149.631207 39.9810078,150.482545 39.5159688,152.008069 C39.4324364,152.281624 38.7760208,152.332329 38.5229299,152.611518 C38.2025143,152.964573 37.7331117,153.54799 37.8384623,153.855348 C38.1831896,154.859427 38.9723844,155.463502 40.1056831,155.508573 C41.1716571,155.55114 41.8779429,155.250667 42.5748779,154.255978 C43.627761,152.753616 45.0565403,151.512915 46.3668779,150.202104 C46.5146182,150.053746 46.9653195,150.088801 47.1984623,150.200226 C47.3144104,150.256565 47.3649039,150.746711 47.2570597,150.922612 C46.9491117,151.41714 46.6143584,152.148915 46.1649039,152.256585 C44.2243325,152.721065 43.890826,154.374915 43.3154494,155.837215 C42.4583065,158.013136 38.5260468,159.321443 36.3448519,158.565254 C34.5083844,157.929254 34.2721247,156.300443 33.3351896,155.109195 C33.2179948,154.960837 33.2516571,154.473195 33.3813195,154.383679 C34.2665143,153.769589 34.6929039,152.759876 35.9620987,152.379278 C37.6502026,151.87223 38.8184104,150.386144 39.7410078,148.734171 C41.3299948,145.887821 40.5339429,142.868073 40.6567481,139.920313 C40.7084883,138.668344 41.0862545,137.258628 39.8245403,136.266443 C39.7366442,136.196959 39.7017351,136.011041 39.7067221,135.882089 C39.7971117,133.495837 38.7810078,131.426959 37.8902026,129.311758 C37.5286442,128.454785 37.5012156,127.413774 37.0093714,126.662593 C35.6092675,124.522978 34.0046961,122.519829 32.5833974,120.39336 C32.2473974,119.891321 32.1956571,119.113222 32.2237091,118.472215 C32.2692156,117.456242 32.4549818,116.470317 31.5105662,115.71538 C31.3216831,115.564518 31.1745662,115.240884 31.170826,114.994246 C31.1240727,111.949459 29.8804364,109.316569 28.4591377,106.724994 C28.2409558,106.326868 28.4273455,105.720289 28.2534234,105.277719 C28.070774,104.81136 27.6824104,104.42638 27.383813,104.006344 C27.1026701,104.396333 26.7255273,104.75064 26.5615792,105.185073 C26.2648519,105.970683 26.1002805,106.806998 25.8683844,107.618274 C25.8060468,107.83549 25.5965922,108.060219 25.6315013,108.247388 C25.9949299,110.171037 25.2406442,111.941321 24.5798649,113.593293 C23.9440208,115.180163 23.5145143,116.464057 24.6222545,117.976435 C24.8086442,118.229959 24.4046961,119.109467 24.061839,119.52199 C23.4690078,120.233734 23.3973195,120.840939 24.1291636,121.387423 C25.3933714,122.332659 25.8409558,123.539557 25.617787,125.090746 C25.549839,125.558982 25.6321247,126.13927 25.8609039,126.545533 C26.9798649,128.538041 26.7778909,130.673274 26.6712935,132.809758 C26.6519688,133.207258 26.5360208,133.773774 26.7429818,133.977844 C27.7516052,134.974411 26.8913455,136.066754 26.9892156,137.095872 C27.0048,137.261132 26.6183065,137.64173 26.5185662,137.609179 C26.2131117,137.509648 25.7574234,137.291805 25.718774,137.058939 C25.6003325,136.355959 25.6396052,135.624183 25.6396052,134.903675 C25.6396052,133.276116 25.6813714,131.648557 25.6364883,130.02225 C25.6271377,129.708006 25.2842805,129.408785 25.1197091,129.090785 C24.9152416,128.693285 24.6640208,128.300793 24.5586701,127.875124 C24.1752935,126.317675 23.8642286,124.742073 23.4739948,123.187128 C23.4004364,122.894793 23.0868779,122.663179 22.6654753,122.124207 C22.4853195,123.696053 22.247813,124.722041 22.9223065,126.042868 C23.5756052,127.321754 23.4235013,129.042585 23.5095273,130.576246 C23.563761,131.53901 23.4297351,132.464841 24.3336312,133.185974 C24.6122805,133.407573 24.7076571,134.024793 24.6633974,134.438569 C24.6303584,134.757821 24.2482286,135.040766 24.0219429,135.339986 C23.8143584,135.077699 23.4528,134.829809 23.4272416,134.55062 C23.346826,133.654211 23.1298909,133.102719 22.0402286,133.157805 C21.7110857,133.174707 21.1656312,132.621963 21.0584104,132.23573 C20.9630338,131.890187 21.3096312,131.401293 21.5084883,130.998785 C21.734774,130.543069 22.0140468,130.113018 22.1761247,129.514577 C20.610826,129.913955 20.0996571,129.284215 19.7798649,127.972778 C19.5199169,126.904848 18.7463065,125.973384 18.3492156,124.92486 C18.0512416,124.13925 17.9209558,123.268506 17.8598649,122.425305 C17.8405403,122.154254 18.2800208,121.848774 18.5100468,121.558943 C18.7095273,121.83062 19.0118649,122.077258 19.0816831,122.378982 C19.1826701,122.812163 19.1084883,123.286033 19.1209558,123.742376 C19.1296831,124.060376 19.0480208,124.445356 19.1938909,124.68636 C19.9968,126.015951 20.8576831,127.309234 21.6986182,128.615037 C21.8363844,128.600014 21.974774,128.58499 22.1131636,128.570593 C22.1761247,128.154313 22.3924364,127.686703 22.2746182,127.331144 C21.8806442,126.136766 21.3501506,124.988085 20.9044364,123.809356 C20.3515013,122.347057 20.5939948,121.97397 22.2808519,121.823108 C22.3506701,121.243447 22.4684883,120.629356 22.4896831,120.013388 C22.5376831,118.630589 22.1387221,118.305703 20.7722805,118.546707 C20.5933714,118.578006 20.3801766,118.709463 20.246774,118.649368 C19.7917091,118.447801 19.3653195,118.181132 18.9289558,117.938876 C19.1602286,117.546384 19.3123325,117.061872 19.6383584,116.779553 C20.5846442,115.959514 21.6294234,115.25403 22.5732156,114.431486 C22.8880208,114.156053 23.1460987,113.679679 23.2003325,113.264026 C23.3686442,111.981384 23.3966961,110.679963 23.5456831,109.392939 C23.5899429,109.013593 23.8586182,108.663041 24.0194494,108.296841 C24.1977351,107.891203 24.5443325,107.469915 24.5131636,107.079927 C24.4240208,105.956285 24.8697351,105.153774 25.6570597,104.435144 C25.905787,104.209163 26.2205922,103.798518 26.1688519,103.540612 C25.9207481,102.300537 25.9226182,100.727439 25.1558649,99.9368209 C23.8255792,98.5652894 23.5269818,96.2979744 21.3595013,95.6306752 C20.7772675,95.4516437 20.413839,94.6121988 19.9045403,94.1239311 C18.3336312,92.619065 16.3294753,93.1186004 14.4743065,93.0328406 C13.6240208,92.9934035 12.8535273,93.7070256 13.4145662,94.4269075 C14.7535792,96.1458602 14.0815792,98.0325768 14.1420468,99.8172579 C14.2941506,104.3281 14.2330597,108.846455 14.2492675,113.362305 C14.2498909,113.672793 14.2960208,114.077179 14.1289558,114.279998 C12.5655273,116.186746 13.2992416,118.444045 13.425787,120.473486 C13.5037091,121.714187 14.615813,122.996829 15.5072416,124.05349 C16.7296831,125.502018 17.5151377,127.0651 18.1160727,128.871691 C18.8859429,131.187833 19.2213195,133.786293 21.2691117,135.515888 C21.3376831,135.574104 21.4162286,135.646093 21.4405403,135.726844 C21.8962286,137.269896 21.7459948,138.983215 22.7415273,140.374152 C21.1182545,141.906561 22.2291117,144.337884 20.9405922,145.940404 C20.5410078,146.437435 19.8322286,146.729144 19.2100987,146.972652 C19.0149818,147.048396 18.4851117,146.716624 18.3878649,146.4631 C18.2918649,146.213959 18.4464623,145.679368 18.667761,145.522872 C21.6849039,143.39077 21.1519169,140.648959 19.9724883,137.842671 C19.2711896,136.174423 18.3616831,134.595065 17.6541506,132.928695 C17.3150338,132.131191 17.2832416,131.207864 17.0133195,130.373427 C16.7396571,129.525219 16.4211117,128.673254 15.9859948,127.899537 C15.277839,126.641935 14.5640727,125.359919 13.6608,124.245667 C12.3236571,122.597451 11.2090597,120.966762 11.4777351,118.673781 C11.629839,117.367352 11.4403325,116.023364 11.5475532,114.708171 C11.611761,113.922561 11.9583584,113.161364 12.1690597,112.387022 C12.2868779,111.954467 12.4801247,111.515652 12.4795013,111.079967 C12.4738909,106.698077 12.450826,102.316187 12.3990857,97.9342972 C12.3772675,96.1032933 12.1709299,95.9461713 10.3244883,95.997502 C8.8315013,96.0394429 8.50422857,95.6676083 8.5435013,94.1483445 C8.58900779,92.4149941 8.47991688,90.6728799 8.61207273,88.9482933 C8.74485195,87.2186988 9.10142338,85.5072579 9.34329351,83.7858012 C9.40625455,83.3419783 9.32396883,82.8631004 9.45425455,82.4461949 C9.67368312,81.7469705 9.96417662,81.0590138 10.3232416,80.4223878 C10.4310857,80.2283327 10.9241766,80.0730886 11.1280208,80.1619783 C11.3430857,80.256502 11.5805922,80.691561 11.5369558,80.9275571 C11.2863584,82.2846909 12.0649558,83.8884626 10.5844364,84.9814311 C10.4136312,85.1072539 10.3843325,85.8046004 10.5395532,85.9348051 C11.3299948,86.5964705 10.9983584,87.1761319 10.5888,87.8415531 C10.4354494,88.0919469 10.4254753,88.4518878 10.4136312,88.763628 C10.3643844,90.035002 10.2995532,91.307628 10.3294753,92.57775 C10.338826,92.974624 10.6249558,93.3646122 10.7839169,93.7583563 C11.0899948,93.6150059 11.4989299,93.5524075 11.6865662,93.3145335 C13.2057351,91.385876 15.3364364,90.789313 17.5425662,91.1298484 C18.8684883,91.3339193 20.1164883,92.3123327 21.3046442,93.0885531 C22.6180987,93.9474035 23.8137351,94.9859114 25.0854234,95.9123681 C25.2774234,96.0513366 25.627761,96.0920256 25.8646442,96.0275492 C28.0832416,95.4247264 30.0157091,94.3618051 31.1596052,92.2653839 C31.8546701,90.9921319 32.8190338,90.471939 34.2166442,90.9201437 C34.861839,91.1267185 35.4696312,91.4522303 36.0905143,91.7332972 C37.1041247,92.1927697 37.7019429,91.8998091 37.7112935,90.7686555 C37.7200208,89.7038563 38.0603844,89.2994705 39.1562805,89.3345256 C39.633787,89.3495492 40.1412156,88.9163681 40.6087481,88.6403091 C40.8662026,88.4881949 41.035761,88.1701949 41.3006961,88.0493799 C42.4919688,87.5066516 42.786826,86.7898996 42.3161766,85.4941122 C41.7214753,83.8590413 41.1928519,82.1964272 40.5227221,80.5932815 C40.2827221,80.017376 39.7254234,79.5697972 39.2765922,79.0990571 C39.2385662,79.0596201 38.7542026,79.3331752 38.7666701,79.3776201 C38.9424623,79.9854508 39.0372156,80.6846752 39.4112416,81.1529114 C40.0651636,81.9716988 39.9554494,82.5814075 39.2061506,83.3513681" id="Fill-3" fill="#231916" mask="url(#mask-4)"></path>
                </g>
                <path d="M27.1756294,28.6544878 C26.8096972,28.1904903 26.5891352,27.9098005 26.3691999,27.6297471 C26.0327177,28.0714676 25.5671566,28.4711802 25.4098809,28.9708209 C25.3221575,29.2483283 25.7494962,29.6925948 25.9443676,30.061756 C26.3247116,29.6270368 26.704429,29.1935906 27.1756294,28.6544878 M30.6789295,17.3912504 C30.9665373,18.655946 30.5724082,20.094402 29.9270139,20.9492012 C29.3524251,21.7104372 28.4939881,22.4589435 28.3642827,23.3073779 C28.2051272,24.3620334 28.5340903,25.5618075 28.9000225,26.6094617 C29.2120675,27.5030866 29.4564401,28.163758 28.7245756,28.9988262 C28.1631452,29.6397665 28.3191677,30.3647229 29.3317474,30.7249733 C29.4677188,30.4417375 29.5322582,30.1508639 29.7083318,29.9758306 C29.9426788,29.7422406 30.2641228,29.598395 30.5473443,29.4163603 C30.5699018,29.7957053 30.7121391,30.2221502 30.5880731,30.5429386 C30.3524728,31.1520547 30.0786502,31.8426409 29.6061966,32.2315332 C29.198909,32.5663242 28.4946147,32.5281351 27.6769065,32.7095334 C27.7157555,32.596239 27.6361777,32.7973683 27.5766511,33.0035894 C27.253954,34.1193475 26.5954012,34.3427537 25.852258,33.4459464 C24.7845378,32.1602469 23.9962796,30.7039693 24.037635,28.9262669 C24.0727244,27.4247989 24.2011766,26.007347 23.2374714,24.5637992 C22.7186497,23.7866511 22.8571275,22.245721 23.2205533,21.2445302 C23.7092985,19.9009105 24.7099728,18.7520552 25.4712874,17.5077272 C25.6818237,17.1640253 25.9230633,16.7910451 25.9788304,16.4066082 C26.3090467,14.1299016 27.2777646,13.1904499 29.5328848,12.8378372 C29.9514512,12.7722793 30.4483421,12.3095547 30.6425869,11.9002949 C30.9045042,11.3497354 30.7071264,10.3294501 31.0611533,10.1149547 C31.9722244,9.56312223 33.0574892,9.14877054 34.1107977,9.03038434 C36.6873618,8.7407837 39.2601664,10.5547658 40.213846,13.0459678 C40.3993185,13.5335153 40.7389337,14.1165355 41.1643926,14.327212 C43.2290276,15.3519527 44.1075156,16.9584407 43.8493579,19.2618797 C43.8155217,19.5648465 43.8556239,20.0129319 44.0454826,20.1822369 C45.2397752,21.2515316 44.8099301,22.689351 44.864444,23.9731411 C44.8888813,24.5230641 44.4490106,25.1671869 44.0686667,25.6439141 C43.5153821,26.3351367 43.0166114,26.2549396 42.7221111,25.3231257 C42.2415117,23.8019267 41.6612835,22.3119155 41.2151469,20.7811692 C40.9056083,19.7188758 40.2238715,19.4318211 39.2520206,19.4770116 C37.8835342,19.5412965 36.5119148,19.5527533 35.1459348,19.6444071 C33.6164132,19.7468812 32.350062,19.3700821 31.5279676,17.9348086 C31.4183132,17.7432266 31.1188002,17.663666 30.6789295,17.3912504" id="Fill-5" fill="#231916"></path>
                <path d="M129.927738,34.8544568 C129.569161,34.2076545 129.061485,33.5944277 128.909306,32.898846 C128.821202,32.4953073 129.208736,31.6571884 129.550678,31.5418917 C130.482238,31.2270428 130.773043,30.7075738 130.608541,29.7858331 C130.577119,29.6065529 130.519821,29.3721584 130.598683,29.2429246 C130.864227,28.8089779 131.185838,28.4111407 131.485268,28 C131.829674,28.3560263 132.38171,28.6588387 132.483984,29.0775814 C133.320664,32.5174798 135.516485,34.6897471 138.303157,36.6206514 C140.575377,38.1955293 142.718828,40.1555745 143.641147,43.0196225 C143.844464,43.6524878 143.801952,44.3879799 143.782237,45.074059 C143.748351,46.2726387 144.027449,47.3210792 144.421761,48.4822825 C144.912185,49.9247592 145.35825,51.7821776 143.939345,53.2506277 C143.676266,53.5230322 143.570294,54.0678412 143.575839,54.4840499 C143.608493,56.6050038 143.80873,58.7297587 143.713848,60.8412101 C143.679962,61.5824037 143.129159,62.6872255 142.53954,62.9349236 C141.13727,63.5253444 140.933337,64.4192112 141.076891,65.7596946 C141.118171,66.1530973 140.728788,66.7967321 140.372676,66.9709443 C140.081871,67.1134815 139.16941,66.6909378 139.179884,66.5826095 C139.260595,65.7102817 139.395523,64.8113469 139.714669,64.0055365 C139.982061,63.3289598 140.471254,62.7214345 140.94874,62.162055 C142.413853,60.4459069 141.772481,58.3965383 141.873523,56.4624665 C141.896936,56.0101484 141.814377,55.4786429 142.013381,55.1194491 C143.461859,52.5138687 143.110059,49.9393296 142.120584,47.2913048 C141.846415,46.5564462 141.842718,45.6492759 141.936367,44.8485335 C142.089779,43.5365575 141.76632,42.4722796 140.808267,41.6233912 C139.054197,40.0675182 137.265626,38.5540896 135.529424,36.9785782 C134.555351,36.0948474 133.641042,35.1382642 132.731045,34.1842151 C131.135933,32.5124118 130.951715,32.5409192 129.927738,34.8544568" id="Fill-7" fill="#231916"></path>
                <path d="M136.814447,83 C137.46543,85.1786015 138.993145,85.9674496 140.895441,86.3011438 C141.238129,86.3612343 141.465755,87.0995808 141.896617,87.751627 C141.216868,87.8174709 140.869802,87.9120815 140.53837,87.8730866 C139.250161,87.722221 138.199584,87.9012141 137.296587,89.0902396 C136.326053,90.3687616 134.299939,90.2683976 133.022987,88.98604 C130.888063,86.8425979 129.207139,87.0132806 127.292961,88.650428 C127.062835,88.8473204 126.586323,89.0122497 126.361824,88.900379 C125.564511,88.5053158 124.779704,88.0437693 124.095578,87.474827 C123.88046,87.2964732 123.824179,86.5491771 124.004278,86.3343854 C124.241909,86.0511928 125.019836,85.8025202 125.158663,85.9469932 C125.976613,86.7965711 126.538797,86.5568482 127.499325,86.0249831 C128.395443,85.5289165 129.657387,85.6529332 130.759242,85.6356731 C131.843589,85.6190523 132.954199,85.9399613 134.005402,85.7814246 C134.653884,85.6829784 135.264845,85.0213433 135.792635,84.5054597 C136.089673,84.2158744 136.18285,83.7083012 136.368577,83.2998134 C136.516783,83.1994494 136.66624,83.0997247 136.814447,83" id="Fill-9" fill="#231916"></path>
                <path d="M140.94252,49.02532 C140.443083,48.6380286 139.911965,47.8969909 139.298229,47.8238019 C138.316748,47.7066997 138.690705,48.6002144 138.67766,49.1826762 C138.644115,50.6598725 138.559012,52.135849 138.49006,53.6118255 C138.467076,54.0979219 138.365201,54.592557 138.434774,55.0634057 C138.454652,55.2018547 139.159082,55.3958053 139.183309,55.3555514 C139.456632,54.8932414 139.810711,54.4022658 139.851088,53.8972622 C139.968493,52.4426325 139.379605,50.8684609 140.722619,49.6516951 C140.808343,49.573627 140.81207,49.4095618 140.94252,49.02532 M136.917206,57.5945224 C137.33154,57.6475843 137.635923,57.7799343 137.83781,57.6902779 C138.158344,57.5481694 138.410548,57.2566335 138.691326,57.0285281 C138.451546,56.7619984 138.199964,56.2588246 137.973851,56.269803 C136.933357,56.3198154 136.839557,55.6733133 136.917827,54.9792384 C137.09176,53.4532495 137.358872,51.937629 137.559517,50.4140797 C137.651453,49.7151255 137.601758,48.9917751 137.74898,48.3074587 C137.903035,47.592037 138.113619,46.8455101 138.508696,46.2441411 C138.677038,45.9885898 139.374635,46.0660481 139.833074,46.0001781 C139.86227,45.9959087 139.895193,46.0697076 139.934949,46.0812958 C141.741992,46.5984975 142.088616,47.7884273 141.812187,49.4979984 C141.6103,50.7513586 141.983014,52.0980347 141.748204,53.3391968 C141.533893,54.4717952 140.834433,55.5129076 140.375373,56.6046423 C140.172865,57.0870792 139.911965,57.5920827 139.89395,58.0940367 C139.854194,59.1900408 139.36159,60.0945338 138.290037,59.9920693 C137.188045,59.8877751 136.825891,58.8588609 136.917206,57.5945224" id="Fill-11" fill="#231916"></path>
                <path d="M128.878299,49.2255278 C129.437726,48.8369665 129.890566,48.4797718 130.388998,48.2173169 C130.471557,48.1737878 130.947193,48.6327638 130.915771,48.7063792 C130.666863,49.2786589 130.337861,49.8131707 129.97066,50.4725086 C130.25099,50.546124 130.722929,50.5275601 130.958283,50.7637695 C131.35136,51.158092 131.591643,51.7143684 131.896617,52.2021504 C131.387094,52.4569237 130.72909,53.0541687 130.396391,52.8992563 C129.454361,52.4601244 128.633087,51.7290915 127.790866,51.0755148 C127.560442,50.8962773 127.424898,50.5858123 127.20125,50.273427 C126.256139,50.8885957 126.27339,51.6317911 126.745946,52.4242769 C127.49267,53.6776591 127.092199,54.6788285 125.646191,54.8894326 C124.808899,55.011058 123.937105,55.0385838 123.099197,54.9406433 C122.674698,54.891353 122.138067,54.5572031 121.938448,54.1859254 C121.794278,53.916429 122.053044,53.3345473 122.255128,52.9639098 C122.494794,52.5241378 122.818251,52.1035698 123.190381,51.7783818 C124.116393,50.9698927 124.715867,50.2318183 123.200239,49.413087 C123.030809,49.3215479 122.863227,48.8030394 122.929151,48.7377457 C123.234741,48.4356025 123.600709,48.0854493 123.987626,48.0175951 C124.377623,47.9497409 124.895154,48.0835289 125.22046,48.3261396 C125.764484,48.7319845 126.149552,48.8715337 126.749642,48.3811911 C127.902998,47.4376338 128.326265,48.8145618 128.878299,49.2255278" id="Fill-13" fill="#231916"></path>
                <path d="M127.351682,142.370292 C127.554713,142.430719 127.653365,142.439166 127.728468,142.485948 C128.219817,142.790032 128.706711,143.103862 129.194878,143.413143 C129.393455,142.700366 129.647403,141.996036 129.768968,141.268964 C129.833887,140.878464 129.671589,140.448328 129.606033,140 C132.109878,140.844027 132.610138,142.708813 130.863684,144.522918 C129.71996,145.710014 128.743626,146.936094 126.793504,147.153761 C125.819716,147.262269 124.626984,148.737855 124.205646,149.858026 C123.459712,151.843665 121.801089,152.215323 120.272942,152.808546 C119.499003,153.108731 118.513122,152.999573 117.65708,152.861176 C117.070898,152.766312 116.44971,152.395304 116.026462,151.96192 C115.815156,151.745553 115.884531,151.041223 116.071651,150.694905 C116.18876,150.477239 116.851318,150.330395 117.111631,150.466193 C119.210686,151.561024 120.806934,151.079558 122.382816,149.293392 C123.851136,147.629379 125.663782,146.283094 127.278489,144.747082 C127.482793,144.552157 127.471337,144.045351 127.443332,143.692536 C127.41851,143.385204 127.206568,143.096065 127.12701,142.786133 C127.102825,142.693219 127.246029,142.555472 127.351682,142.370292" id="Fill-15" fill="#231916"></path>
                <path d="M118.896047,104.472371 C118.896047,106.821504 118.89492,109.17127 118.896617,111.519772 C118.897174,112.246132 118.862236,113.047721 118.006834,112.997779 C117.143543,112.947838 116.874751,112.25119 116.985762,111.318111 C117.201021,109.521491 117.386414,107.720446 117.576879,105.920034 C117.595475,105.741763 117.618015,105.519872 117.545323,105.380163 C116.859536,104.059565 116.497202,102.758565 117.597165,101.469576 C117.645627,101.412681 117.678874,101.240731 117.650699,101.21418 C116.169241,99.8328945 118.277317,98.2056958 117.424733,96.7574004 C117.359366,96.6467711 117.774106,95.9754094 117.850743,96.0006961 C118.193355,96.1144862 118.669517,96.3136189 118.770385,96.6176914 C118.932111,97.1063568 118.845331,97.7018584 118.846458,98.251844 C118.850966,100.324721 118.848149,102.398862 118.848149,104.471738 C118.863927,104.471738 118.880269,104.471738 118.896047,104.472371" id="Fill-17" fill="#231916"></path>
                <path d="M124.896617,102.481515 C124.527632,103.621043 124.159213,104.760571 123.789096,105.899483 C123.707603,106.150586 123.481232,106.476959 123.557066,106.637369 C124.349365,108.325376 123.198268,109.728964 123.010946,111.265199 C122.978122,111.532343 122.65328,111.755683 122.463694,112 C122.302405,111.729154 122.013216,111.465094 122.001331,111.186228 C121.943041,109.830763 121.592732,108.433344 122.616495,107.222249 C122.873992,106.91747 122.771559,106.217218 122.773823,105.697736 C122.782311,103.861041 122.730812,102.023729 122.782311,100.188885 C122.793064,99.7872431 123.134318,99.3960894 123.323904,99 C123.670252,99.2770158 124.215806,99.483698 124.3222,99.8446206 C124.555928,100.634332 124.567247,101.50178 124.669114,102.33838 C124.744382,102.385886 124.820216,102.434009 124.896617,102.481515" id="Fill-19" fill="#231916"></path>
                <path d="M139.510982,101.900495 C139.794495,102.709128 140.263465,103.738978 140.502924,104.808823 C140.758726,105.950532 140.899417,107.129735 140.896574,108.292692 C140.895153,109.030709 140.225095,109.22943 139.618987,108.706381 C139.169202,108.317063 138.682469,107.774642 138.616387,107.260341 C138.437325,105.874293 138.489907,104.465123 138.416719,103.067201 C138.398245,102.716627 138.268212,102.367302 138.165181,102.022977 C137.740976,100.603808 137.280533,99.1915137 136.905358,97.7623463 C136.846381,97.5386288 137.097209,97.0849447 137.316061,97.0174545 C137.554099,96.9430903 138.064992,97.1180649 138.210657,97.3205355 C139.137938,98.6115979 140.387103,99.8320456 139.510982,101.900495" id="Fill-21" fill="#231916"></path>
                <path d="M122.939257,41.8673978 C122.996058,42.4263753 123.221133,43.0227763 123.0628,43.5354198 C122.902336,44.0522214 122.477037,44.6741655 121.952337,44.899301 C121.490827,45.0977053 120.403795,44.9884047 120.18085,44.6985206 C119.837913,44.2518138 119.854953,43.5140349 119.974236,42.9372367 C120.18795,41.9048214 120.533727,40.8854746 120.932046,39.8898889 C121.303383,38.9590518 121.762053,38.0436594 122.308054,37.1775711 C122.416686,37.0053039 123.275094,36.9286747 123.469638,37.0843092 C123.762874,37.3201371 123.967358,37.8381268 123.873636,38.1684047 C123.528569,39.3861557 123.044339,40.5765817 122.61265,41.777106 L122.939257,41.8673978 Z" id="Fill-23" fill="#231916"></path>
                <path d="M121.508533,87.6500113 C118.579283,88.4834376 117.750078,85.7955747 116.191294,84.3842893 C115.5905,83.839163 115.979892,83.0063661 116.716761,83.0000714 C117.465779,82.9944061 118.289517,83.3267695 118.951666,83.7352994 C120.020824,84.3956199 121.007365,85.2101619 121.979935,86.0221861 C122.35414,86.3337768 122.594701,86.8159555 122.896617,87.2207086 C122.437365,87.4800527 121.978112,87.7406558 121.520075,88 C121.515823,87.8829174 121.512178,87.7670938 121.508533,87.6500113" id="Fill-25" fill="#231916"></path>
                <path d="M135.761128,103.519126 C136.677685,105.423014 137.610057,107.320579 138.499111,109.235217 C138.717077,109.703127 138.820215,110.223519 138.896538,110.729368 C138.904789,110.791334 138.263955,111.062595 138.173881,110.986718 C137.759952,110.636418 137.351523,110.238062 137.094365,109.78343 C136.552544,108.820421 136.093922,107.816311 135.62361,106.821054 C134.636232,104.733795 133.742365,102.616186 133.919075,100.282327 C133.95208,99.8447674 134.273184,99.4261776 134.460896,99 C134.71943,99.4223837 135.054286,99.8213719 135.222746,100.272842 C135.601608,101.285804 135.897271,102.323426 136.226627,103.350931 C136.071231,103.407207 135.916524,103.46285 135.761128,103.519126" id="Fill-27" fill="#231916"></path>
                <path d="M125.350397,85 C124.060741,84.6337781 122.735076,84.344623 121.504102,83.8526279 C121.159349,83.714524 121.091332,82.9826966 120.896617,82.5221448 C121.453422,82.3470487 122.00356,82.1516071 122.570368,82.011037 C122.731075,81.9709622 122.97647,82.045563 123.119839,82.1454417 C124.326141,82.9870124 125.61713,83.0597635 127.083497,82.8279463 C127.616963,82.7428644 128.288465,83.3970083 128.896617,83.7151405 C128.282463,84.0338892 127.699651,84.4395694 127.044153,84.6430261 C126.566701,84.7909945 125.993224,84.6720032 125.461758,84.6720032 C125.424415,84.7817465 125.387739,84.8902567 125.350397,85" id="Fill-29" fill="#231916"></path>
                <path d="M127.896617,41.018816 C127.473595,41.7884328 127.259474,42.6076809 126.793512,42.8955428 C126.405307,43.1350968 125.367774,42.9306156 125.241274,42.6056957 C124.974927,41.9247535 124.879762,40.9023477 125.152491,40.2644194 C125.510522,39.429951 125.347464,38.9892246 124.963902,38.3294585 C124.79214,38.0336556 124.999299,37.4513144 125.034115,37 C125.452494,37.0661751 126.111107,36.9688977 126.247472,37.2283042 C126.859663,38.3923248 127.323884,39.6582552 127.896617,41.018816" id="Fill-31" fill="#231916"></path>
                <path d="M115.901278,90 C115.494907,89.7987595 114.923632,89.7152868 114.686288,89.3613365 C114.020783,88.3706638 113.44833,87.2945772 112.943606,86.1945488 C112.814039,85.9130709 112.973053,85.1702282 113.16976,85.0783435 C113.488378,84.9288691 114.047285,85 114.326444,85.2342887 C114.895952,85.7118305 115.321758,86.3906127 115.855929,86.9270383 C116.193393,87.2654588 116.620966,87.4971118 117.007902,87.7760014 L117.896617,88.415312 C117.653383,88.7699094 117.463155,89.2047442 117.151015,89.4551624 C116.821207,89.7185221 116.374199,89.8045832 115.901278,90" id="Fill-33" fill="#231916"></path>
                <path d="M140.896617,117.370858 C141.115643,116.946168 141.360098,116.473413 141.604553,116 C142.018912,116.485265 142.715868,116.919173 142.791574,117.46633 C142.970725,118.760151 142.874214,120.109281 142.838384,121.434048 C142.833183,121.636187 142.584683,121.889683 142.395707,121.994374 C142.314222,122.039806 142.000419,121.800137 141.95592,121.632895 C141.597618,120.288374 141.278035,118.930027 140.896617,117.370858" id="Fill-35" fill="#231916"></path>
                <path d="M115.635992,43.7951998 C115.635992,43.8840613 115.646873,43.9747487 115.633919,44.060567 C115.509047,44.8712759 115.533918,45.9814359 114.621473,45.9996951 C113.549958,46.0216062 114.019393,44.8572772 113.912138,44.1616013 C113.892449,44.0325695 113.895558,43.8962341 113.899703,43.7641591 C113.927164,42.9887513 113.784157,41.9114579 114.741681,42.0057971 C115.160339,42.046576 115.513711,43.0094451 115.896617,43.5535695 C115.809569,43.6339101 115.722521,43.7148592 115.635992,43.7951998" id="Fill-37" fill="#231916"></path>
                <path d="M126.072904,90.0602913 C126.654503,90.1659075 128.008753,89.6097435 127.889184,90.945514 C127.781312,92.1408699 126.514139,92.0401376 125.50625,91.9510049 C125.27426,91.9302479 124.96689,91.9235324 124.836273,91.7886123 C124.482115,91.4247552 124.204637,90.9961854 123.896617,90.5932564 C124.319657,90.4003389 124.730351,90.1756755 125.169637,90.0273244 C125.374334,89.9589486 125.634267,90.0377029 126.072904,90.0602913" id="Fill-39" fill="#231916"></path>
                <path d="M32.2815484,28 C31.6379594,27.217221 30.945604,26.7653375 30.9032542,26.2442137 C30.8102129,25.1064874 31.7136758,24.869613 32.4605726,25.0583837 C32.9860954,25.1910334 33.4205019,25.783584 33.8966165,26.1698715 C33.4301268,26.6990126 32.9629955,27.226696 32.2815484,28" id="Fill-41" fill="#231916"></path>
                <path d="M128.896617,35.8730357 C128.433245,36.4073335 128.000664,37.0860564 127.899711,36.9910202 C127.495397,36.6086306 127.072406,36.0578698 126.906339,35.4255425 C126.824063,35.111998 127.284911,34.4856573 127.499435,34 C127.910311,34.5500125 128.320178,35.1007733 128.896617,35.8730357" id="Fill-43" fill="#231916"></path>
                <path d="M36.8710784,34 C37.3378272,34.6192217 37.9244918,35.056547 37.895589,35.4429155 C37.8562321,35.9815094 37.3550459,36.4833369 37.0512594,37 C36.6527703,36.3794883 36.1946308,35.7873576 35.9012985,35.115244 C35.8404182,34.9759192 36.384651,34.5450441 36.8710784,34" id="Fill-45" fill="#231916"></path>
                <path d="M38.3068351,31 C39.2455429,32.2227682 39.0276881,33.5052161 37.9091001,33.9289411 C37.6399462,34.0310595 37.1742565,34.0330488 37.0043697,33.8692615 C36.8358153,33.7074635 36.9164283,33.2790968 36.9124309,32.9667736 C36.9110985,32.8845484 36.9970412,32.7970184 37.0530039,32.7200981 C37.4427442,32.1816556 37.8351494,31.6465288 38.3068351,31" id="Fill-47" fill="#231916"></path>
                <path d="M134.81707,65.3001487 C135.024719,66.0973004 134.86517,66.7770966 133.865642,66.9923384 C133.588778,67.0512865 133.22158,66.7549235 132.896617,66.6218846 C133.386995,66.0810761 133.876787,65.5408085 134.367166,65 C134.517329,65.1000496 134.666906,65.1995583 134.81707,65.3001487" id="Fill-49" fill="#231916"></path>
                <path d="M124.486897,45 C124.190528,44.4004927 123.937955,44.0884205 123.897985,43.7358336 C123.873749,43.5228579 124.177347,43.2474678 124.334248,43 C124.528993,43.2972899 124.801551,43.5617301 124.889143,43.9050096 C124.941869,44.1108678 124.705879,44.4393649 124.486897,45" id="Fill-51" fill="#231916"></path>
                <path d="M40.8966165,25.5205808 C40.2770513,25.7827058 39.9664106,26.0275254 39.6940994,25.9974955 C39.4092024,25.9654298 39.1609186,25.6697121 38.8966165,25.489533 C39.1694998,25.3159706 39.4309415,25.0263607 39.7204152,25.0014207 C39.989866,24.9785166 40.2902092,25.2360607 40.8966165,25.5205808" id="Fill-53" fill="#231916"></path>
                <path d="M148.896617,147.933056 C148.364102,148.440782 148.075624,148.91555 147.702163,148.997163 C147.483855,149.045817 146.885849,148.456477 146.896764,148.170832 C146.910798,147.772184 147.334938,147.389231 147.583653,147 C147.946199,147.257395 148.307966,147.514789 148.896617,147.933056" id="Fill-55" fill="#231916"></path>
                <path d="M119.896617,149.011958 C119.625124,149.427504 119.437404,149.713004 119.250122,150 C119.12249,149.670404 118.873366,149.310164 118.898366,149.017937 C118.929507,148.649477 119.184332,148.336323 119.342666,148 C119.499246,148.284753 119.654949,148.570254 119.896617,149.011958" id="Fill-57" fill="#231916"></path>
                <path d="M42.9270889,135.919221 C42.9270889,135.198375 42.8883726,134.472829 42.9469193,133.759033 C42.9691104,133.491139 43.2179338,133.252619 43.3638284,133 C43.5304976,133.225595 43.8345627,133.443552 43.8430614,133.677959 C43.8987752,135.202487 43.9101068,136.731127 43.8813057,138.25683 C43.8765841,138.508861 43.5999038,138.752668 43.4483434,139 C43.2698704,138.735044 42.964861,138.488887 42.9370041,138.201606 C42.8638207,137.450211 42.9124523,136.680603 42.9124523,135.918633 C42.9171738,135.918633 42.9218953,135.919221 42.9270889,135.919221" id="Fill-59" fill="#231916"></path>
                <path d="M53.3840164,124 C53.5063478,124.73733 53.6281957,125.181482 53.6475366,125.633152 C53.7524612,128.081939 53.8525505,130.53198 53.8965512,132.983274 C53.9018699,133.317171 53.5812939,133.661091 53.4120607,134 C53.23219,133.774478 52.8946907,133.545825 52.8966165,133.322809 C52.920801,130.407943 52.9918789,127.493704 53.0576381,124.580091 C53.0590887,124.507423 53.1335513,124.437261 53.3840164,124" id="Fill-61" fill="#231916"></path>
                <path d="M46.9693298,77 C48.4128661,77.7261016 49.2654436,79.0225443 48.7407806,79.9793588 C48.4820133,80.452496 47.5253586,80.6679842 46.8852126,81 C46.5309225,80.4413702 45.8551336,79.865759 45.8986179,79.3293808 C45.9613494,78.5699019 46.5551596,77.8397014 46.9693298,77" id="Fill-63" fill="#231916"></path>
            </g>
        </g>
    </g>
</svg>