<?xml version="1.0" encoding="UTF-8"?>
<svg width="154px" height="223px" viewBox="0 0 154 223" version="1.1" xmlns="http://www.w3.org/2000/svg" xmlns:xlink="http://www.w3.org/1999/xlink">
    <!-- Generator: Sketch 60 (88103) - https://sketch.com -->
    <title>figure43</title>
    <desc>Created with Sketch.</desc>
    <g id="页面-1" stroke="none" stroke-width="1" fill="none" fill-rule="evenodd">
        <g id="29-44" transform="translate(-50.000000, -477.000000)" fill="#231916">
            <g id="figure43" transform="translate(50.000000, 477.000000)">
                <path d="M125.771,194.072 C125.916,193.834 126.06,193.596 126.205,193.358 C125.651,192.962 125.096,192.566 124.542,192.17 C124.421,192.483 124.125,193.006 124.209,193.074 C124.679,193.467 125.241,193.751 125.771,194.072 L125.771,194.072 Z M112.243,57.256 C112.231,57.061 112.22,56.866 112.208,56.672 C111.045,56.634 109.867,56.344 108.741,56.868 C108.749,57.049 108.757,57.229 108.766,57.409 C109.925,57.358 111.084,57.307 112.243,57.256 L112.243,57.256 Z M87.159,181.129 C87.327,181.127 87.494,181.125 87.662,181.123 L87.662,178.661 C87.494,178.659 87.327,178.658 87.159,178.656 L87.159,181.129 Z M118.012,68.525 C118.011,68.348 118.009,68.171 118.008,67.994 C117.152,67.639 116.307,67.531 115.492,68.093 C115.495,68.237 115.499,68.381 115.501,68.525 L118.012,68.525 Z M128.87,173.318 L129.69,173.233 C129.598,172.387 129.505,171.541 129.414,170.696 L128.705,170.764 C128.76,171.615 128.815,172.467 128.87,173.318 L128.87,173.318 Z M38.35,97.857 C37.847,98.54 37.353,98.921 37.395,99.228 C37.445,99.584 37.953,100.111 38.285,100.128 C38.605,100.144 39.165,99.644 39.227,99.3 C39.284,98.987 38.815,98.577 38.35,97.857 L38.35,97.857 Z M122.274,120.721 C122.366,120.563 122.458,120.405 122.548,120.248 C121.884,118.791 121.234,118.469 119.624,119.171 C120.658,119.776 121.465,120.248 122.274,120.721 L122.274,120.721 Z M89.373,179.914 C89.318,181.096 89.262,182.279 89.195,183.719 C90.338,182.892 90.415,181.136 89.373,179.914 L89.373,179.914 Z M120.356,66.417 C120.71,64.784 120.132,63.939 118.611,63.55 C118.284,65.024 119.305,65.58 120.356,66.417 L120.356,66.417 Z M74.9,74.059 L75.544,73.974 C75.445,73.16 75.449,72.311 75.186,71.554 C75.102,71.312 74.311,71.315 73.572,71.141 C74.133,72.376 74.516,73.218 74.9,74.059 L74.9,74.059 Z M100.768,164.266 L101.154,164.266 L101.154,159.551 L100.768,159.551 L100.768,164.266 Z M79.179,89.162 C79.419,89.007 79.66,88.852 79.899,88.697 C79.899,88.043 79.967,87.378 79.869,86.739 C79.824,86.455 79.466,86.044 79.209,86.01 C78.855,85.964 78.354,86.123 78.12,86.379 C77.943,86.574 77.971,87.112 78.108,87.404 C78.396,88.022 78.814,88.579 79.179,89.162 L79.179,89.162 Z M65.897,163.298 C66.063,163.241 66.229,163.185 66.395,163.129 C66.36,162.364 66.428,161.572 66.229,160.852 C66.168,160.633 65.337,160.468 64.929,160.568 C64.716,160.619 64.433,161.413 64.568,161.668 C64.889,162.276 65.44,162.762 65.897,163.298 L65.897,163.298 Z M100.614,98.468 C101.676,99.411 105.558,99.381 106.772,98.468 L100.614,98.468 Z M95.472,161.778 C95.374,161.795 95.275,161.811 95.176,161.827 C94.938,164.182 94.7,166.536 94.45,168.998 C95.127,169.124 95.706,168.864 95.709,167.781 C95.714,166.056 95.743,164.33 95.73,162.605 C95.728,162.329 95.562,162.053 95.472,161.778 L95.472,161.778 Z M52.496,9.665 C51.488,8.878 50.547,8.123 49.579,7.407 C49.389,7.267 49.009,7.159 48.857,7.257 C48.679,7.37 48.559,7.733 48.582,7.972 C48.736,9.612 51.191,10.594 52.496,9.665 L52.496,9.665 Z M37.498,14.199 L38.069,14.603 C38.574,13.952 39.018,13.24 39.6,12.668 C40.138,12.139 40.491,11.774 39.786,11.094 C39.121,10.454 38.685,10.539 38.052,11.167 C37.098,12.113 37.278,13.13 37.498,14.199 L37.498,14.199 Z M33.273,35.308 C32.74,36.237 32.19,37.014 31.85,37.876 C31.712,38.226 31.957,39.099 32.161,39.145 C32.861,39.303 33.641,39.297 34.346,39.144 C34.576,39.095 34.898,38.309 34.779,38.029 C34.388,37.103 33.815,36.254 33.273,35.308 L33.273,35.308 Z M95.209,150.294 C95.086,150.832 94.977,151.192 94.925,151.559 C94.692,153.21 95.261,154.982 93.871,156.467 C93.503,156.859 93.821,157.893 93.824,158.632 C95.769,156.433 96.408,151.902 95.209,150.294 L95.209,150.294 Z M52.958,103.626 C53.724,103.371 55.22,104.117 55.062,102.642 C54.982,101.889 53.745,100.793 52.957,100.728 C52.316,100.675 51.087,101.849 50.969,102.612 C50.753,104.003 52.161,103.435 52.958,103.626 L52.958,103.626 Z M125.531,148.305 C124.956,149.011 125.03,150.227 125.611,150.698 C127.159,151.951 128.005,154.257 130.583,154.137 C128.929,152.228 127.276,150.319 125.531,148.305 L125.531,148.305 Z M92.917,91.546 C92.403,92.696 92.454,93.55 92.96,94.483 C93.317,95.141 93.612,95.894 93.686,96.63 C93.798,97.743 93.665,98.88 93.7,100.005 C93.711,100.387 93.92,100.764 94.04,101.144 C94.223,101.105 94.407,101.066 94.589,101.027 C94.676,97.881 95.342,94.661 92.917,91.546 L92.917,91.546 Z M94.294,110.998 C94.123,111.018 93.952,111.039 93.78,111.06 C93.677,112.627 93.334,114.347 94.135,115.713 C94.771,116.796 94.814,117.769 94.838,118.873 C94.849,119.354 94.991,119.832 95.072,120.311 C95.243,120.285 95.414,120.259 95.584,120.233 C96.334,117.441 95.621,114.789 94.6,112.161 C94.457,111.789 94.394,111.386 94.294,110.998 L94.294,110.998 Z M126.017,160.259 C125.092,161.544 126.974,168.886 128.382,170.143 C129.003,166.449 126.805,163.689 126.017,160.259 L126.017,160.259 Z M33.443,12.794 C33.239,12.811 33.036,12.828 32.832,12.845 C32.884,13.595 32.812,14.384 33.023,15.086 C33.28,15.94 33.68,16.792 34.202,17.512 C34.565,18.013 35.423,18.725 35.736,18.591 C36.842,18.115 37.232,17.107 37.091,15.83 C36.95,14.546 36.062,14.836 35.333,14.841 C34.381,14.848 33.817,14.535 33.764,13.507 C33.752,13.264 33.555,13.031 33.443,12.794 L33.443,12.794 Z M93.076,160.449 C92.884,160.818 92.744,160.997 92.696,161.197 C92.287,162.914 91.903,164.636 91.487,166.351 C91.436,166.562 91.203,166.722 91.119,166.932 C90.855,167.595 90.459,168.266 90.44,168.944 C90.428,169.331 90.992,169.991 91.395,170.08 C92.217,170.261 92.233,169.554 92.341,168.902 C92.47,168.131 92.833,167.398 93.101,166.65 C93.194,166.391 93.386,166.143 93.398,165.885 C93.466,164.343 93.509,162.8 93.5200131,161.257 C93.522,161.046 93.295,160.834 93.076,160.449 L93.076,160.449 Z M47.386,106.437 C48.233,107.239 48.85,107.83 49.472,108.414 C50.761,109.623 51.895,110.92 52.539,112.627 C52.677,112.995 53.442,113.128 53.918,113.37 C53.785,112.84 53.68,112.301 53.51,111.784 C53.328,111.229 52.924,110.704 52.892,110.15 C52.754,107.81 50.273,105.879 47.386,106.437 L47.386,106.437 Z M58.719,19.201 C58.33,19.447 57.838,19.591 57.79,19.825 C57.708,20.222 57.834,20.708 58.004,21.1 C58.197,21.546 58.727,21.912 58.766,22.344 C58.86,23.403 59.472,23.513 60.309,23.507 C61.504,23.497 62.737,23.275 63.707,24.378 C63.9,24.598 64.684,24.467 65.081,24.267 C65.261,24.176 65.339,23.327 65.159,23.167 C64.49,22.575 63.708,21.738 62.943,21.71 C61.543,21.659 60.698,20.968 59.832,20.096 C59.522,19.786 59.146,19.541 58.719,19.201 L58.719,19.201 Z M55.845,12.488 C55.779,12.636 55.713,12.785 55.647,12.933 C55.945,13.438 56.401,13.913 56.501,14.455 C56.647,15.238 56.949,15.537 57.741,15.667 C58.14,15.733 58.619,16.274 58.774,16.704 C59.502,18.725 60.845,19.438 63.061,18.697 C62.036,17.299 61.167,15.856 60.042,14.654 C58.924,13.458 57.341,12.994 55.845,12.488 L55.845,12.488 Z M78.832,94.112 C78.894,94.092 78.957,94.072 79.018,94.052 C78.791,93.246 78.664,91.801 78.317,91.746 C76.93,91.527 76.342,90.418 75.376,89.757 C74.959,89.472 74.239,89.634 73.657,89.593 C73.75,90.128 73.672,90.799 73.97,91.171 C74.665,92.041 75.531,92.776 76.341,93.551 C77.141,94.315 77.131,95.08 76.394,95.872 C76.173,96.11 75.845,96.321 75.768,96.6 C75.681,96.911 75.824,97.287 75.867,97.634 C76.154,97.565 76.455,97.529 76.723,97.417 C77.137,97.246 77.583,97.087 77.915,96.804 C78.28,96.492 78.656,96.086 78.798,95.647 C78.949,95.181 78.832,94.627 78.832,94.112 L78.832,94.112 Z M130.322,72.111 C130.445,71.872 130.568,71.634 130.69,71.395 C129.61,70.595 128.614,69.314 127.43,69.107 C125.62,68.79 123.859,68.833 122.671,67.098 C122.488,66.828 121.797,66.731 121.415,66.831 C121.165,66.897 120.975,67.446 120.882,67.81 C120.604,68.896 121.165,69.621 121.911,70.367 C123.48,71.936 123.453,71.995 125.035,70.499 C125.79,69.786 126.545,69.568 127.391,70.265 C127.859,70.651 128.223,71.18 128.726,71.503 C129.195,71.803 129.785,71.916 130.322,72.111 L130.322,72.111 Z M92.878,110.478 C94.7,108.681 94.693,108.685 93.655,106.84 C93.524,106.607 93.405,106.278 93.467,106.043 C93.849,104.601 92.898,103.807 92.05,102.943 C91.765,102.652 91.418,102.352 91.292,101.989 C90.753,100.457 89.852,100.094 88.283,100.951 C90.243,103.829 92.084,106.771 92.878,110.478 L92.878,110.478 Z M97.599,172.433 C98.057,171.473 98.642,170.794 98.668,170.093 C98.774,167.243 98.748,164.386 98.675,161.534 C98.658,160.843 98.15,160.172 98.093,159.473 C98,158.31 98.113,157.132 98.086,155.961 C98.079,155.626 97.89,155.295 97.785,154.963 C97.656,154.979 97.527,154.994 97.398,155.01 C97.325,155.347 97.187,155.683 97.186,156.02 C97.167,161.092 97.161,166.163 97.179,171.235 C97.18,171.575 97.411,171.915 97.599,172.433 L97.599,172.433 Z M101.671,96.193 C104.09,97.582 109.188,96.487 111.299,94.411 C113.232,92.51 114.255,89.685 113.373,88.223 C113.183,88.637 113.101,88.996 112.89,89.249 C111.95,90.38 111.167,91.865 109.951,92.477 C108.829,93.042 107.891,93.664 107.083,94.552 C106.145,95.583 105.076,96.169 103.621,95.974 C103.096,95.905 102.537,96.087 101.671,96.193 L101.671,96.193 Z M48.376,100.11 C47.643,99.027 47.1,98.283 45.884,98.295 C44.661,98.306 43.372,98.597 42.358,97.449 C42.175,97.241 41.249,97.382 40.944,97.662 C40.467,98.1 41.042,101.016 41.465,101.568 C42.583,103.024 44.103,102.347 45.483,102.384 C45.65,102.388 45.976,102.11 45.973,101.968 C45.941,100.513 46.867,100.112 48.376,100.11 L48.376,100.11 Z M111.962,140.276 C112.16,140.565 112.229,140.765 112.309,140.77 C113.668,140.85 115.076,141.285 116.264,140.14 C116.539,139.876 116.999,139.786 117.388,139.665 C118.741,139.245 120.1,138.846 121.423,138.449 C121.054,137.536 120.815,136.797 120.453,136.124 C120.309,135.857 119.912,135.619 119.597,135.568 C117.119,135.159 114.847,136.626 114.027,139.012 C113.895,139.396 113.366,139.674 112.973,139.928 C112.708,140.1 112.361,140.146 111.962,140.276 L111.962,140.276 Z M66.42,36.908 C66.397,36.657 66.561,35.895 66.259,35.586 C65.125,34.424 64.337,33.083 63.541,31.688 C62.983,30.711 61.898,30.046 61.104,29.19 C60.52,28.561 59.744,27.876 59.149,28.665 C58.737,29.212 59.008,30.307 59.064,31.152 C59.078,31.356 59.444,31.539 59.65,31.729 C60.557,32.565 61.397,33.408 61.125,34.835 C61.068,35.138 61.287,35.585 61.519,35.835 C62.503,36.898 63.506,37.949 64.581,38.918 C64.866,39.176 65.507,39.312 65.837,39.168 C66.136,39.036 66.275,38.46 66.405,38.053 C66.486,37.799 66.42,37.496 66.42,36.908 L66.42,36.908 Z M106.32,102.764 C107.663,102.19 108.718,101.811 109.704,101.297 C110.858,100.696 112.032,100.079 113.047,99.278 C113.963,98.555 114.8,97.775 115.081,96.407 C115.31,95.289 116.378,94.369 116.838,93.263 C117.134,92.551 117.053,91.659 117.016,90.854 C117.009,90.7 116.398,90.436 116.099,90.475 C115.814,90.512 115.495,90.833 115.328,91.112 C115.051,91.573 114.915,92.116 114.666,92.597 C114.082,93.723 113.866,95.218 112.128,95.246 C112.1,95.246 112.056,95.313 112.049,95.354 C111.715,97.47 109.835,98.369 108.537,99.7 C108.05,100.199 107.172,100.303 106.497,100.636 C105.986,100.888 105.513,101.217 105.024,101.512 C105.449,101.923 105.875,102.334 106.32,102.764 L106.32,102.764 Z M55.795,98.335 C55.716,98.491 55.637,98.647 55.557,98.802 C57.013,99.977 58.18,101.293 57.652,103.544 C58.231,103.237 58.452,103.085 58.696,102.996 C60.292,102.416 61.583,101.203 63.515,101.247 C64.741,101.275 65.989,100.467 67.216,100.004 C67.352,99.952 67.494,99.706 67.497,99.547 C67.521,98.451 67.51,97.354 67.51,96.258 C67.423,96.177 67.336,96.098 67.25,96.018 C65.777,98.226 62.914,96.215 61.328,98.229 C61.136,98.473 60.428,98.328 59.958,98.332 C58.571,98.342 57.183,98.335 55.795,98.335 L55.795,98.335 Z M81.425,90.627 C81.425,91.432 81.177,92.282 81.474,92.845 C82.216,94.251 83.205,95.526 84.098,96.852 C84.302,97.155 84.535,97.44 84.73,97.749 C85.13,98.384 85.404,99.158 85.945,99.628 C86.329,99.961 87.064,99.887 87.642,99.995 C87.539,99.416 87.625,98.675 87.295,98.289 C86.295,97.115 85.097,96.113 84.06,94.968 C83.795,94.676 83.84,94.103 83.743,93.66 C84.519,93.599 85.313,93.419 86.064,93.53 C86.419,93.582 86.735,94.164 86.993,94.556 C87.466,95.279 87.885,96.038 88.327,96.782 L88.825,96.57 C89.098,95.625 89.283,94.622 88.519,93.796 C87.377,92.56 86.111,91.442 84.932,90.24 C84.69,89.994 84.412,89.566 84.465,89.281 C84.818,87.418 83.378,86.529 82.414,85.397 C82.24,85.193 81.804,85.211 81.49,85.127 C81.48,85.479 81.315,86.002 81.485,86.157 C82.453,87.04 82.653,88.119 82.559,89.34 C82.545,89.529 82.779,89.73 82.875,89.936 C83.079,90.369 83.267,90.81 83.461,91.248 C82.975,91.071 82.489,90.892 82,90.72 C81.915,90.69 81.819,90.689 81.425,90.627 L81.425,90.627 Z M107.583,62.84 C109.105,63.423 109.55,62.124 110.266,61.468 C110.843,60.941 111.223,60.679 111.9,61.323 C112.225,61.633 112.87,61.925 113.243,61.81 C114.563,61.402 115.899,60.938 117.089,60.252 C117.82,59.83 118.202,59.821 118.759,60.392 C120.558,62.231 122.361,64.069 124.233,65.832 C124.637,66.213 125.337,66.281 125.901,66.493 L126.217,65.988 C125.216,64.656 124.21,63.329 123.22,61.99 C123.059,61.773 122.918,61.519 122.849,61.261 C122.35,59.408 121.645,58.835 119.722,58.826 C117.52,58.817 115.318,58.83 113.116,58.845 C110.397,58.865 108.488,60.043 107.583,62.84 L107.583,62.84 Z M96.108,103.684 C96.108,106.486 96.167,108.809 96.084,111.126 C96.041,112.373 96.753,113.182 97.636,113.576 C98.51,113.966 99.646,114.075 100.467,113.075 C100.672,112.825 101.106,112.735 101.453,112.633 C102.01,112.469 103.793,109.771 103.658,109.203 C103.606,108.987 103.487,108.758 103.332,108.599 C102.613,107.865 101.927,107.169 100.702,107.28 C100.168,107.328 99.498,106.908 99.039,106.523 C98.107,105.738 97.276,104.831 96.108,103.684 L96.108,103.684 Z M53.082,51.361 C53.305,51.386 53.53,51.411 53.753,51.436 C54.2,49.854 55.561,48.628 55.238,46.721 C55.048,45.604 54.943,44.376 56.063,43.485 C56.276,43.315 56.247,42.784 56.251,42.419 C56.266,41.434 56.236,40.448 56.227,39.462 C56.208,37.213 56.208,37.183 58.52,37.048 C59.485,36.991 59.959,36.461 59.49,35.72 C58.825,34.673 57.855,33.819 57.016,32.882 C56.845,32.856 56.674,32.831 56.502,32.806 C56.977,35.155 55.671,35.167 54.216,35.197 C53.856,35.205 53.387,35.862 53.197,36.316 C53.032,36.709 53.2,37.239 53.205,37.708 C53.225,39.453 53.055,39.593 51.263,39.567 C50.496,39.556 49.726,39.647 48.958,39.691 L48.946,40.276 C49.395,40.357 49.859,40.392 50.29,40.531 C50.926,40.737 51.603,40.92 52.153,41.281 C53.787,42.358 54.632,43.788 54.265,45.878 C54.075,46.96 54.286,48.026 53.407,49.011 C52.97,49.502 53.169,50.56 53.082,51.361 L53.082,51.361 Z M47.916,134.425 C47.78,134.498 47.644,134.57 47.507,134.643 C47.567,135.1 47.457,135.767 47.716,135.978 C48.652,136.737 48.772,137.653 48.675,138.74 C48.648,139.046 48.971,139.383 49.133,139.705 C49.354,140.142 49.562,140.586 49.797,141.015 C50.446,142.197 50.919,143.544 51.809,144.503 C52.846,145.621 53.467,146.689 53.19,148.218 C52.946,149.561 53.772,150.233 54.863,150.838 C55.112,150.141 55.151,149.289 55.57,149.011 C56.49,148.402 57.603,148.085 58.635,147.643 C58.874,147.541 59.234,147.461 59.295,147.286 C59.357,147.111 59.178,146.736 58.995,146.61 C58.474,146.255 57.892,145.992 57.345,145.675 C57.003,145.477 56.405,145.259 56.393,145.027 C56.316,143.5 55.029,142.886 54.235,141.892 C52.93,140.259 50.941,139.248 50.306,136.956 C50.032,135.968 48.744,135.26 47.916,134.425 L47.916,134.425 Z M102.53,118.684 C102.372,118.419 102.187,117.715 101.831,117.613 C101.434,117.5 100.791,117.832 100.416,118.157 C99.464,118.982 98.599,119.906 97.71,120.803 C97.518,120.997 97.207,121.27 97.238,121.458 C97.582,123.533 96.23,125.834 98.077,127.722 C98.295,127.947 98.379,128.447 98.313,128.778 C98.101,129.841 98.596,130.506 99.288,131.231 C99.857,131.828 100.12,132.705 100.618,133.385 C101.075,134.009 101.573,134.706 102.222,135.058 C102.919,135.436 103.818,135.092 103.608,134.158 C103.289,132.734 102.646,131.382 102.145,129.998 C101.875,129.253 101.477,128.521 101.382,127.754 C101.251,126.692 101.305,125.599 101.366,124.524 C101.451,122.996 100.845,121.322 102.309,120.05 C102.522,119.865 102.436,119.339 102.53,118.684 L102.53,118.684 Z M47.63,11.233 C46.687,11.474 46.019,11.612 45.373,11.819 C44.699,12.035 44.057,12.487 43.381,12.531 C42.435,12.594 41.838,12.791 41.853,13.867 C41.856,14.079 41.726,14.319 41.595,14.501 C40.613,15.857 39.585,17.181 38.646,18.566 C38.459,18.841 38.593,19.333 38.579,19.725 C38.927,19.628 39.344,19.619 39.61,19.414 C40.195,18.962 40.62,18.212 41.261,17.944 C42.587,17.389 44.015,17.078 45.394,16.644 C45.65,16.563 45.889,16.395 46.107,16.228 C47.259,15.344 48.622,15.357 49.794,16.217 C50.114,16.452 50.532,16.649 50.918,16.678 C51.857,16.75 52.746,16.728 53.457,17.588 C53.653,17.825 54.442,17.573 54.958,17.546 C54.894,17.043 54.903,16.514 54.741,16.045 C54.598,15.635 54.145,15.323 54.034,14.912 C53.607,13.322 52.792,12.655 51.095,12.556 C50.65,12.53 50.196,12.382 49.779,12.211 C49.007,11.897 48.261,11.524 47.63,11.233 L47.63,11.233 Z M130.584,157.331 C127.634,156.173 125.909,154.072 124.469,151.552 C124.27,152.014 124.172,152.443 124.17397,152.871 C124.178,153.903 124.333,154.946 124.235,155.965 C124.104,157.322 124.55,157.838 125.947,157.798 C126.487,157.783 127.297,158.215 127.547,158.679 C128.388,160.24 129.166,161.865 128.874,163.76 C128.835,164.007 129.209,164.295 129.325,164.591 C129.885,166.021 130.708,167.425 130.9,168.907 C131.183,171.092 132.768,172.968 132.312,175.295 C132.287,175.425 132.529,175.591 132.599,175.76 C133.23,177.284 134.542,178.515 134.484,180.354 C134.473,180.699 135.001,181.342 135.308,181.359 C135.996,181.398 136.701,181.13 137.4,180.986 C137.228,180.461 137.197,179.807 136.857,179.436 C135.942,178.438 134.788,177.621 135.222,175.988 C135.274,175.795 135.184,175.437 135.038,175.341 C134.007,174.657 134.028,173.644 134.041,172.589 C134.046,172.296 133.826,171.989 133.673,171.706 C133.116,170.669 132.328,169.699 132.029,168.595 C131.595,166.997 131.825,165.347 130.819,163.729 C130.129,162.621 130.97,160.714 129.625,159.483 C129.453,159.325 129.7,158.613 129.869,158.205 C130,157.89 130.312,157.651 130.584,157.331 L130.584,157.331 Z M38.332,25.91 C38.728,25.662 39.091,25.529 39.322,25.274 C40.317,24.174 41.308,23.144 43.014,23.452 C43.258,23.496 43.556,23.146 43.849,23.027 C44.427,22.79 45.004,22.472 45.609,22.399 C46.488,22.292 47.418,22.512 48.278,22.343 C50.356,21.933 52.021,23.02 53.791,23.705 C54.666,24.045 55.446,24.622 56.287,25.057 C56.596,25.218 56.956,25.28 57.291,25.388 C57.288,24.996 57.393,24.56 57.255,24.223 C56.968,23.521 56.569,22.861 56.179,22.205 C56.047,21.984 55.835,21.778 55.612,21.648 C54.017,20.721 52.341,19.915 50.833,18.867 C49.905,18.223 49.314,18.018 48.411,18.874 C48.056,19.211 46.988,19.35 46.685,19.082 C45.891,18.376 45.392,18.445 44.68,19.122 C44.432,19.359 43.88,19.264 43.474,19.351 C42.983,19.458 42.362,19.447 42.035,19.747 C40.513,21.137 39.05,22.596 37.627,24.088 C37.402,24.324 37.362,24.892 37.465,25.238 C37.544,25.502 37.986,25.658 38.332,25.91 L38.332,25.91 Z M24.328,41.764 C25.621,41.12 26.941,40.614 28.071,39.834 C28.634,39.445 28.846,38.55 29.223,37.887 C29.823,36.831 30.445,35.787 31.024,34.719 C31.561,33.728 32.33,32.756 32.491,31.698 C32.663,30.575 32.557,29.496 33.596,28.7 C33.775,28.564 33.686,28.016 33.629,27.673 C33.615,27.587 33.177,27.448 33.046,27.525 C32.034,28.119 30.984,28.68 30.073,29.41 C29.127,30.167 28.313,31.091 27.464,31.963 C27.011,32.429 26.533,32.897 26.19,33.442 C25.117,35.149 24.022,36.852 23.107,38.644 C22.763,39.319 22.755,40.253 22.869,41.03 C22.911,41.316 23.742,41.487 24.328,41.764 L24.328,41.764 Z M150.783,154.221 C150.772,154.064 150.76,153.905 150.75,153.747 C150.458,153.687 150.167,153.6 149.873,153.572 C148.5,153.442 146.928,153.706 145.796,153.119 C144.217,152.298 143.374,154.219 141.936,153.643 C141.127,153.318 140.077,153.526 139.142,153.598 C137.004,153.762 135.347,152.711 133.836,151.448 C132.51,150.342 131.221,149.142 130.145,147.8 C129.375,146.841 128.608,145.606 128.522,144.443 C128.416,143.013 127.859,142.08 126.904,141.204 C126.667,140.988 126.307,140.727 126.296,140.474 C126.233,139.018 125.061,138.325 124.248,137.4 C124.038,137.16 123.578,137.139 123.232,137.017 C123.245,137.41 123.125,137.875 123.293,138.184 C123.875,139.253 124.577,140.258 125.189,141.311 C125.344,141.578 125.457,141.963 125.391,142.248 C125.117,143.437 125.768,144.151 126.502,144.934 C127.006,145.471 127.278,146.225 127.662,146.877 C128.325,148.003 128.941,149.162 129.674,150.24 C130.957,152.125 133.041,153.036 134.79,154.363 C135.628,155 136.441,155.311 137.455,155.597 C138.801,155.977 139.943,156.233 141.182,155.504 C141.287,155.442 141.459,155.497 141.6,155.491 C142.647,155.447 143.782,155.762 144.576,154.698 C144.667,154.575 145.127,154.529 145.205,154.623 C146.332,155.985 147.347,155.382 148.445,154.561 C148.727,154.351 149.269,154.506 149.686,154.452 C150.055,154.405 150.417,154.301 150.783,154.221 L150.783,154.221 Z M81.457,98.576 C81.362,99.541 80.969,100.536 81.899,101.371 C82.874,102.246 82.639,103.028 81.883,103.911 C81.591,104.253 81.278,104.932 81.427,105.233 C82.005,106.394 82.671,107.541 83.485,108.549 C84.362,109.637 85.557,110.475 86.396,111.587 C87.144,112.577 88.125,113.823 88.063,114.902 C87.94,117.03 89.412,117.858 90.547,118.994 C91.064,119.511 92.038,119.711 92.242,118.785 C92.463,117.779 92.594,116.362 92.059,115.667 C91.162,114.501 91.184,113.381 91.22,112.125 C91.231,111.762 91.248,111.21 91.039,111.064 C90.068,110.384 90.159,109.446 90.106,108.445 C90.024,106.887 88.403,105.925 87.178,106.748 C87.707,107.239 88.319,107.64 88.672,108.203 C88.867,108.511 88.781,109.381 88.552,109.506 C87.195,110.25 84.501,108.759 84.458,107.22 C84.43,106.203 84.417,105.343 83.556,104.579 C83.276,104.331 83.526,103.484 83.534,102.911 C83.997,103.027 84.46,103.135 84.92,103.26 C85.433,103.398 85.942,103.55 86.453,103.697 C86.526,103.541 86.599,103.385 86.672,103.23 C84.797,101.907 84.41,99.124 81.457,98.576 L81.457,98.576 Z M47.652,59.198 C48.663,59.741 49.495,60.3 50.408,60.636 C50.945,60.834 51.719,60.889 52.199,60.642 C53.521,59.961 55.015,59.318 55.943,58.233 C57.264,56.686 59.733,56.342 60.253,54.018 C60.296,53.827 60.599,53.709 60.739,53.524 C62.019,51.822 63.167,50.087 63.021,47.791 C62.958,46.805 62.669,45.705 63.688,44.916 C63.814,44.818 63.783,44.397 63.7,44.171 C63.5,43.624 63.247,43.093 62.977,42.574 C62.488,41.635 61.971,40.71 61.466,39.778 C61.111,40.342 61.113,40.863 61.037,41.372 C60.963,41.858 60.833,42.341 60.682,42.81 C60.469,43.47 60.19,44.111 59.985,44.773 C59.876,45.124 60,45.689 59.791,45.841 C58.146,47.03 58.983,49.153 57.822,50.679 C56.799,52.021 56.375,53.087 54.64,53.2 C53.479,53.276 51.281,55.153 50.913,56.242 C50.704,56.86 50.378,57.53 49.904,57.945 C49.314,58.46 48.515,58.736 47.652,59.198 L47.652,59.198 Z M103.317,195.872 C102.247,195.096 101.277,194.578 100.55,193.825 C99.312,192.541 97.433,191.551 97.963,189.236 C97.996,189.097 97.854,188.838 97.719,188.755 C96.679,188.116 96.82,187.105 96.836,186.119 C96.859,184.758 96.904,183.394 96.85,182.035 C96.833,181.567 96.551,181.108 96.385,180.646 C96.161,180.021 95.754,179.404 95.736,178.774 C95.665,176.476 95.735,174.176 95.719,171.876 C95.716,171.52 95.546,171.165 95.454,170.81 C95.302,170.82 95.152,170.831 95,170.841 C94.945,171.349 94.755,171.885 94.856,172.359 C95.284,174.369 94.236,176.03 93.648,177.795 C93.567,178.039 93.192,178.257 92.908,178.351 C91.498,178.819 91.136,180.15 91.963,181.418 C92.361,182.028 92.686,182.85 92.644,183.553 C92.527,185.512 92.639,187.287 94.528,188.445 C94.708,188.555 94.912,188.831 94.896,189.013 C94.852,189.532 94.7,190.043 94.59,190.556 C94.165,190.377 93.683,190.271 93.325,190.001 C92.837,189.633 92.443,189.139 91.913,188.602 C91.344,189.592 91.613,190.087 92.242,190.608 C92.46,190.788 92.394,191.313 92.458,191.68 C92.063,191.605 91.533,191.664 91.298,191.429 C90.514,190.642 89.816,189.843 90.06,188.496 C90.249,187.459 89.584,187.207 88.625,187.655 C88.875,188.764 89.1,189.822 89.364,190.87 C89.429,191.129 89.653,191.344 89.75,191.6 C89.988,192.223 90.387,192.862 90.372,193.485 C90.342,194.602 90.753,194.863 91.817,195.023 C93.451,195.267 95.038,195.836 96.637,196.287 C96.8,196.333 96.905,196.562 97.069,196.635 C97.556,196.851 98.047,197.149 98.559,197.202 C99.442,197.295 100.341,197.216 101.234,197.231 C102.382,197.25 102.957,196.541 103.317,195.872 L103.317,195.872 Z M108.602,184.826 L109.211,184.51 C109.151,184.063 109.255,183.426 109,183.204 C108.13,182.45 108.036,181.558 108.146,180.53 C108.173,180.28 108.07,179.881 107.889,179.768 C106.789,179.079 106.974,178.013 106.995,176.989 C107.021,175.675 107.11,174.36 107.078,173.047 C107.051,171.928 107.231,170.607 106.707,169.75 C106.055,168.686 105.957,167.696 105.955,166.576 C105.954,165.309 105.957,164.039 105.883,162.775 C105.858,162.345 105.616,161.926 105.457,161.507 C105.222,160.887 104.771,160.276 104.763,159.656 C104.706,155.194 104.534,150.717 104.821,146.272 C104.973,143.927 103.777,142.677 102.282,141.529 C101.738,141.111 100.666,141.213 99.891,141.365 C99.646,141.414 99.486,142.392 99.46,142.952 C99.396,144.406 99.39,145.865 99.443,147.319 C99.46,147.791 99.724,148.255 99.888,148.718 C100.109,149.341 100.372,149.949 100.564,150.579 C101.044,152.152 101.494,153.733 101.959,155.309 C101.971,155.349 102.039,155.37 102.054,155.41 C102.318,156.111 102.696,156.795 102.809,157.52 C102.975,158.576 102.547,159.991 103.096,160.665 C104.076,161.87 103.879,163.077 103.978,164.352 C104.015,164.828 104.314,165.285 104.504,165.747 C104.662,166.127 104.932,166.486 104.986,166.878 C105.23,168.684 104.755,170.62 106.106,172.233 C106.292,172.456 105.928,173.14 105.818,173.611 C105.424,173.463 104.983,173.385 104.647,173.154 C103.707,172.506 103.612,171.532 103.487,170.452 C103.288,168.727 102.777,167.037 102.373,165.339 C102.343,165.218 102.098,165.149 101.988,165.078 C100.88,166.915 100.438,168.852 100.568,170.917 C100.593,171.326 100.54,171.93 100.776,172.106 C102.308,173.252 101.63,174.876 101.702,176.288 C101.747,177.174 101.065,177.417 100.372,176.771 C99.649,176.098 98.986,175.388 99.18,174.223 C99.249,173.812 98.973,173.343 98.855,172.9 C98.68,172.936 98.505,172.971 98.331,173.006 C98.331,174.474 98.303,175.944 98.361,177.409 C98.37,177.624 98.761,177.866 99.021,178.02 C100.607,178.963 102.286,179.774 103.781,180.843 C105.472,182.053 107.001,183.489 108.602,184.826 L108.602,184.826 Z M108.213,57.536 C107.361,57.72 106.676,57.662 106.457,57.954 C105.729,58.918 104.769,58.831 103.785,58.825 C102.798,58.82 101.788,58.687 100.83,58.854 C98.969,59.178 97.137,59.669 95.296,60.105 C95.174,60.134 95.074,60.27 94.972,60.367 C94.079,61.227 93.136,61.892 91.959,62.457 C90.304,63.252 89.809,65.266 89.288,67.007 C88.802,68.628 88.402,70.274 87.956,71.907 C87.933,71.989 87.812,72.041 87.782,72.123 C87.528,72.821 87.229,73.508 87.05,74.225 C86.854,75.016 87,75.989 86.588,76.612 C85.695,77.961 85.645,78.811 86.54,80.099 C86.873,80.578 86.938,81.397 86.798,81.983 C86.736,82.244 85.676,82.589 85.401,82.404 C84.961,82.108 84.748,81.421 84.536,80.862 C84.356,80.388 84.314,79.862 84.211,79.359 C84.028,79.397 83.845,79.435 83.662,79.473 C83.643,80.822 83.019,82.218 84.257,83.468 C84.528,83.741 84.804,84.219 84.757,84.56 C84.576,85.898 85.283,86.729 86.131,87.592 C86.551,88.02 86.697,88.705 87.042,89.224 C87.49,89.899 88.012,90.525 88.503,91.172 C88.632,91.093 88.761,91.015 88.89,90.937 C88.923,90.627 88.992,90.316 88.984,90.008 C88.957,89.022 88.818,88.03 88.892,87.053 C88.926,86.595 89.346,86.165 89.592,85.722 C89.87,86.086 90.161,86.44 90.418,86.817 C90.577,87.049 90.685,87.315 90.816,87.565 L91.197,87.496 C91.197,86.514 91.21,85.532 91.195,84.551 C91.163,82.499 91.157,82.501 93.075,82.067 C93.14,82.052 93.18,81.924 93.353,81.676 C90.825,79.837 90.301,77.51 92.013,75.057 C91.3,74.53 90.345,74.184 90.176,73.607 C89.958,72.864 90.083,71.677 90.568,71.14 C91.57,70.03 92.583,69.093 92.303,67.406 C92.262,67.159 92.761,66.822 93.011,66.527 C93.3,66.83 93.809,67.114 93.838,67.44 C93.924,68.415 93.809,69.407 93.801,70.392 C93.797,70.854 93.862,71.316 93.923,72.168 C94.596,71.548 95.21,71.257 95.279,70.869 C95.564,69.255 96.656,68.563 98.037,68.1 C98.115,68.073 98.16,67.908 98.227,67.904 C99.58,67.806 100.594,65.664 102.228,67.372 C103.4,65.56 105.335,66.873 106.891,66.125 C104.351,62.967 106.585,60.51 108.213,57.536 L108.213,57.536 Z M112.465,136.106 C112.455,135.96 112.443,135.814 112.432,135.668 C112.059,135.61 111.594,135.666 111.335,135.463 C111.019,135.214 110.639,134.46 110.693,134.416 C111.354,133.87 112.042,133.108 112.813,132.992 C115.001,132.663 117.243,133.302 119.391,131.9 C120.685,131.056 121.591,130.614 121.616,128.994 C121.639,127.492 121.722,125.986 121.632,124.49 C121.582,123.639 122.317,122.477 120.802,122.024 C119.906,121.757 119.093,120.985 118.213,120.933 C116.452,120.828 115.236,119.682 113.759,119.052 C112.514,118.521 111.298,117.784 109.997,117.557 C108.493,117.295 106.908,117.525 105.36,117.478 C104.299,117.446 103.989,117.918 104,118.926 C104.031,121.695 104.156,124.481 103.9,127.228 C103.73,129.059 105.143,130.12 105.431,131.675 C105.574,132.44 106.058,133.15 106.156,133.915 C106.288,134.947 107.29,136.218 108.332,136.294 C109.361,136.369 110.395,136.397 111.426,136.388 C111.774,136.385 112.119,136.205 112.465,136.106 L112.465,136.106 Z M94.061,86.199 C94.063,86.364 94.064,86.53 94.065,86.694 C94.795,86.694 95.528,86.717 96.257,86.69 C98.1,86.621 98.607,86.945 98.268,88.747 C98.052,89.891 97.095,90.897 96.29,92.276 C97.221,92.844 98.36,93.634 99.595,94.221 C99.881,94.357 100.474,93.71 100.967,93.579 C101.5,93.438 102.079,93.471 102.639,93.445 C103.574,93.4 104.661,93.661 105.412,93.271 C106.894,92.501 108.326,91.512 109.52,90.35 C110.577,89.322 111.244,87.904 112.158,86.716 C112.887,85.768 112.875,84.505 112.114,83.546 C111.794,83.143 111.56,82.577 111.52,82.068 C111.436,80.994 111.496,79.908 111.515,78.828 C111.549,76.961 110.968,76.263 109.104,75.684 C108.72,75.566 108.251,75.044 108.204,74.659 C108.088,73.745 107.643,73.559 106.816,73.452 C106.046,73.353 105.34,72.801 104.569,72.673 C103.696,72.527 102.478,72.27 101.953,72.709 C101.064,73.453 100.205,73.485 99.229,73.489 C98.195,73.493 97.157,73.438 96.129,73.522 C95.736,73.554 95.219,73.804 95.02,74.12 C94.618,74.758 94.395,75.509 94.111,76.183 C94.382,76.72 94.881,77.275 94.903,77.847 C94.939,78.814 94.924,79.631 95.778,80.362 C96.063,80.606 95.843,81.536 95.718,82.124 C95.654,82.426 95.29,82.663 95.076,82.913 C96.608,84.69 96.584,84.758 94.061,86.199 L94.061,86.199 Z M48.354,37.681 C48.551,37.579 49.053,37.156 49.606,37.075 C50.502,36.943 50.666,36.451 50.625,35.709 C50.6,35.287 50.585,34.864 50.582,34.442 C50.566,32.772 50.78,32.545 52.402,32.526 C53.293,32.516 54.199,32.612 55.074,32.486 C55.502,32.425 55.875,31.968 56.272,31.689 C55.92,31.355 55.581,31.007 55.213,30.692 C54.867,30.395 54.492,30.134 54.128,29.856 C54.46,29.595 54.782,29.126 55.124,29.11 C56.463,29.047 56.239,28.151 56.26,27.304 C56.286,26.301 55.69,26.229 54.9,26.157 C53.24,26.008 51.404,26.6 50.024,25.069 C49.867,24.894 49.393,24.988 49.066,24.984 C48.127,24.975 47.161,24.838 46.254,25.01 C44.519,25.339 42.814,25.835 41.106,26.294 C40.909,26.347 40.718,26.579 40.609,26.775 C40.17,27.561 39.837,28.416 39.333,29.155 C38.104,30.953 37.071,32.767 37.382,35.085 C37.506,36.006 37.345,36.962 37.391,37.898 C37.413,38.337 37.504,38.855 37.76,39.185 C38.864,40.614 38.87,41.783 37.757,43.125 C37.519,43.411 37.272,43.979 37.399,44.23 C37.972,45.359 38.66,46.433 39.346,47.501 C39.731,48.101 40.194,48.651 40.623,49.223 C40.004,49.5 39.387,49.778 38.682,50.094 C38.967,50.951 40.546,51.841 39.232,52.836 C38.71,53.23 37.54,52.766 36.665,52.692 C35.34,53.226 34.828,53.196 34.768,52.155 C34.683,50.664 34.952,49.277 33.835,47.832 C32.739,46.413 32.098,44.508 32.564,42.52 C32.589,42.412 32.37,42.246 32.214,42.043 C31.19,42.724 30.478,43.4 30.591,44.767 C30.727,46.399 30.703,48.056 30.611,49.694 C30.51,51.492 31.706,52.715 32.443,54.121 C32.916,55.023 34.153,55.461 34.093,56.757 C34.085,56.929 34.434,57.153 34.654,57.296 C35.482,57.837 36.332,58.346 37.162,58.886 C37.467,59.086 37.708,59.41 38.034,59.552 C39.148,60.042 40.513,60.227 41.36,60.994 C42.451,61.983 43.599,61.773 44.764,61.815 C45.197,61.83 45.876,61.578 46.017,61.26 C46.159,60.939 45.797,60.372 45.608,59.935 C45.431,59.527 45.1,59.169 44.994,58.749 C44.665,57.459 43.664,56.676 42.328,56.538 C41.708,56.473 40.684,56.181 40.606,55.824 C40.42,54.977 40.38,53.79 40.851,53.183 C41.44,52.424 41.636,51.785 41.563,50.911 C41.496,50.117 41.774,49.475 42.696,49.467 C43.766,49.457 43.884,48.831 43.856,47.97 C43.806,46.469 43.855,44.964 43.799,43.463 C43.758,42.331 43.97,41.614 45.347,41.486 C46.561,41.373 47.007,40.217 46.542,39.349 C46.257,38.816 46.327,38.094 46.237,37.457 C46.803,37.517 47.371,37.577 48.354,37.681 L48.354,37.681 Z M48.174,161.51 C47.481,161.51 46.891,161.577 46.327,161.489 C45.916,161.425 45.536,161.157 45.141,160.98 C45.307,160.629 45.398,160.207 45.652,159.941 C46.427,159.127 47.39,158.465 48.048,157.573 C49.005,156.278 49.867,154.884 50.561,153.433 C50.986,152.546 51.021,151.472 51.29,150.208 C51.24,150.141 50.922,149.799 50.692,149.405 C49.761,147.815 48.83,146.224 47.958,144.601 C47.628,143.989 47.433,143.297 47.227,142.626 C46.757,141.095 46.321,139.555 45.863,138.022 C45.839,137.943 45.706,137.899 45.675,137.819 C45.424,137.159 45.117,136.51 44.961,135.827 C44.789,135.067 45.035,134.022 44.605,133.551 C43.824,132.695 43.797,131.82 43.815,130.831 C43.839,129.468 43.873,128.105 43.833,126.744 C43.821,126.311 43.607,125.878 43.454,125.455 C43.214,124.793 42.77,124.149 42.733,123.479 C42.668,122.305 42.138,121.607 41.08,121.068 C40.972,121.322 40.844,121.483 40.843,121.644 C40.831,124.322 40.818,126.999 40.851,129.676 C40.856,130.011 41.137,130.339 41.27,130.677 C41.498,131.259 41.834,131.833 41.898,132.435 C42.002,133.41 41.916,134.405 41.921,135.392 C41.928,136.839 40.345,139.609 38.968,139.874 C37.603,140.138 36.941,141.1 36.018,141.84 C35.299,142.415 35.263,142.866 35.979,143.527 C37.39,144.828 38.71,146.229 40.08,147.576 C41.107,148.586 41.163,149.298 40.015,150.232 C39.005,151.055 37.855,151.708 36.75,152.409 C36.07,152.839 35.333,153.18 34.667,153.629 C34.134,153.989 33.593,154.393 33.224,154.901 C33.118,155.047 33.74,155.606 33.769,155.995 C33.816,156.624 33.764,157.316 33.534,157.892 C33.358,158.33 32.835,158.628 32.472,158.993 C31.419,160.053 31.426,161.252 32.378,162.43 C32.672,162.794 32.909,163.357 32.875,163.806 C32.776,165.122 32.527,166.426 32.32,167.843 C32.366,167.849 32.675,167.917 32.984,167.917 C35.098,167.919 37.215,167.971 39.326,167.875 C40.638,167.815 41.623,168.156 42.539,169.149 C43.834,170.554 44.852,170.53 46.387,169.395 C46.636,169.211 47.032,169.217 47.266,169.022 C48.385,168.093 49.589,167.224 50.513,166.124 C50.872,165.698 50.572,164.72 50.572,163.993 C50.373,163.926 50.173,163.858 49.974,163.789 C48.561,164.908 47.092,165.967 45.75,167.165 C44.539,168.246 43.878,168.283 43.085,166.891 C42.941,166.637 43.244,165.832 43.543,165.676 C44.58,165.14 45.708,164.788 46.791,164.341 C46.94,164.279 47.066,164.089 47.138,163.929 C47.453,163.231 47.744,162.523 48.174,161.51 L48.174,161.51 Z M144.31,141.358 C144.035,141.377 143.76,141.396 143.485,141.415 C143.485,142.046 143.572,142.693 143.454,143.301 C143.378,143.692 143.002,144.026 142.761,144.385 C142.483,144.082 142.132,143.819 141.939,143.469 C141.081,141.917 140.538,140.284 140.778,138.461 C140.805,138.252 140.474,138.014 140.368,137.764 C140.125,137.192 139.775,136.614 139.729,136.019 C139.637,134.853 139.751,133.672 139.721,132.499 C139.709,132.054 139.683,131.409 139.407,131.208 C138.47,130.525 138.565,129.615 138.574,128.674 C138.583,127.739 138.934,126.419 138.458,125.938 C136.962,124.428 137.605,122.705 137.477,121.046 C137.447,120.648 137.3,120.247 137.149,119.87 C136.506,118.274 135.833,116.69 135.199,115.09 C135.12,114.891 135.267,114.609 135.206,114.395 C135.059,113.887 134.869,113.389 134.661,112.903 C134.502,112.531 134.274,112.192 134.105,111.825 C133.615,110.759 133.188,109.66 132.644,108.623 C132.081,107.547 131.328,106.568 130.803,105.476 C129.907,103.609 129.135,101.683 128.288,99.792 C127.976,99.097 127.62,98.42 127.24,97.759 C127.114,97.539 126.854,97.245 126.655,97.244 C125.542,97.238 125.221,96.689 124.959,95.636 C124.73,94.717 123.986,93.682 122.767,93.856 C121.47,94.041 121.984,95.198 122.045,95.926 C122.201,97.794 120.939,99.059 120.209,100.527 C119.741,101.467 118.446,101.903 118.486,103.255 C118.493,103.472 117.893,103.727 117.553,103.929 C117.056,104.226 116.486,104.426 116.042,104.784 C114.639,105.914 113.703,107.839 111.399,107.384 C111.227,107.35 111.009,107.612 110.798,107.697 C110.139,107.962 109.473,108.418 108.81,108.418 C107.443,108.419 106.643,109.275 106.285,110.262 C106.115,110.728 106.911,111.687 107.463,112.222 C107.788,112.536 108.493,112.468 109.029,112.551 C110.293,112.747 111.567,112.894 112.821,113.137 C113.379,113.245 113.931,113.769 114.436,113.706 C116.206,113.487 117.517,114.109 118.577,115.474 C118.918,115.914 119.296,116.384 119.766,116.65 C120.217,116.907 120.808,116.92 121.104,116.987 C120.881,115.717 120.577,114.719 120.555,113.715 C120.487,110.568 120.534,107.419 120.516,104.272 C120.51,103.295 120.593,102.445 121.892,102.475 C123.114,102.504 123.169,103.334 123.156,104.239 C123.109,107.245 123.059,110.251 123.037,113.257 C123.033,113.709 123.167,114.162 123.238,114.615 C123.419,114.621 123.6,114.627 123.782,114.634 C123.892,113.815 123.717,112.757 124.167,112.226 C125.297,110.888 124.884,109.388 125.018,107.945 C125.078,107.295 124.946,106.625 125.021,105.978 C125.064,105.613 125.277,105.166 125.561,104.971 C125.722,104.86 126.25,105.104 126.495,105.321 C127.963,106.629 127.971,106.829 126.85,108.583 C126.333,109.391 126.388,111.672 126.909,112.247 C127.405,110.92 127.875,109.564 128.426,108.24 C128.596,107.832 128.986,107.515 129.274,107.156 C129.516,107.603 130.034,108.11 129.952,108.486 C129.565,110.248 129.045,111.985 128.501,113.708 C128.356,114.169 127.718,114.55 127.717,114.968 C127.712,116.975 126.631,118.464 125.585,120.006 C125.388,120.296 125.354,120.84 125.49,121.164 C125.589,121.404 126.117,121.638 126.398,121.584 C126.729,121.521 127.159,121.2 127.269,120.892 C128.021,118.8 129.07,116.907 130.756,115.427 C130.996,115.217 131.479,115.034 131.718,115.139 C131.972,115.251 132.221,115.73 132.201,116.03 C132.171,116.459 131.896,116.871 131.724,117.291 C131.493,117.859 131.264,118.428 131.027,118.993 C130.738,119.678 130.524,120.414 130.124,121.027 C129.746,121.604 129.136,122.024 128.685,122.561 C127.634,123.812 127.021,125.319 125.297,126.139 C124.283,126.622 123.698,128.298 123.223,129.551 C122.638,131.095 123.133,131.639 124.8,131.798 C125.627,131.877 126.646,131.72 127.236,132.145 C128.305,132.917 129.254,133.737 130.499,134.358 C132.506,135.361 133.362,137.597 134.368,139.548 C134.949,140.674 135.472,141.829 136.001,142.981 C136.178,143.366 136.293,143.78 136.438,144.181 C136.064,144.315 135.649,144.617 135.326,144.54 C134.892,144.437 134.389,144.126 134.16,143.754 C133.192,142.18 132.476,140.426 131.36,138.974 C130.198,137.465 128.729,136.175 127.287,134.91 C126.917,134.586 126.143,134.723 125.555,134.648 C125.672,135.224 125.648,135.889 125.939,136.358 C126.373,137.055 127.087,137.572 127.575,138.244 C128.132,139.012 128.583,139.859 129.059,140.684 C129.715,141.819 130.396,142.943 130.984,144.114 C131.489,145.119 131.868,146.187 132.33,147.216 C132.395,147.36 132.617,147.534 132.76,147.529 C134.17,147.475 134.786,148.619 135.536,149.45 C136.548,150.572 137.638,151.119 139.201,151.009 C141.305,150.863 143.43,150.868 145.538,150.975 C146.399,151.019 147.231,151.525 148.091,151.77 C148.562,151.905 149.062,151.934 149.549,152.01 L149.69,151.617 C148.278,150.159 146.666,148.842 145.509,147.203 C144.346,145.556 144.014,143.493 144.31,141.358 L144.31,141.358 Z M29.599,153.957 C29.684,154.12 29.769,154.282 29.854,154.445 C30.385,154.258 30.987,154.173 31.429,153.86 C31.994,153.461 32.39,152.832 32.93,152.387 C33.558,151.869 34.283,151.47 34.928,150.971 C35.672,150.395 36.502,149.854 37.019,149.107 C37.177,148.878 36.463,147.994 36.08,147.46 C35.811,147.085 35.46,146.745 35.085,146.472 C33.018,144.965 33.009,141.521 35.044,140.058 C35.834,139.49 36.444,138.676 37.168,138.01 C37.431,137.77 37.79,137.488 38.109,137.483 C39.247,137.464 39.354,136.815 39.341,135.892 C39.28,131.475 39.26,127.058 39.246,122.64 C39.244,122.134 39.176,121.396 39.464,121.158 C41.024,119.872 40.356,118.136 40.522,116.58 C40.558,116.24 40.332,115.873 40.135,115.216 C39.825,115.726 39.658,115.897 39.609,116.097 C39.199,117.776 38.822,119.463 38.405,121.139 C38.341,121.397 38.087,121.602 37.986,121.857 C37.77,122.401 37.562,122.952 37.415,123.517 C37.298,123.962 37.447,124.638 37.184,124.855 C36.023,125.813 36.384,127.062 36.354,128.245 C36.327,129.309 36.532,130.416 35.469,131.2 C34.971,131.567 34.554,132.485 33.926,131.729 C33.626,131.368 33.887,130.466 34.025,129.837 C34.184,129.107 34.605,128.425 34.705,127.693 C34.955,125.854 34.153,123.822 35.794,122.242 C35.954,122.09 35.851,121.693 35.934,121.429 C36.163,120.711 36.427,120.005 36.671,119.292 C36.805,118.903 36.918,118.507 37.056,118.119 C37.541,116.76 37.847,115.295 38.566,114.072 C39.482,112.515 39.541,109.7 38.646,108.219 C38.216,107.508 38.307,106.459 38.264,105.557 C38.255,105.378 38.708,105.027 38.948,105.027 C39.181,105.028 39.5,105.333 39.628,105.583 C39.834,105.986 39.836,106.497 40.059,106.886 C41.086,108.687 42.376,110.463 41.879,112.658 C41.353,114.984 43.447,116.693 43.115,118.92 C43.1,119.021 43.287,119.139 43.338,119.265 C43.624,119.957 43.898,120.652 44.17,121.348 C44.367,121.851 44.519,122.374 44.751,122.86 C45.294,123.998 46.394,125.155 46.322,126.241 C46.204,127.995 47.274,129.166 47.908,130.39 C48.78,132.072 50.557,133.17 51.424,135.092 C52.142,136.681 53.723,137.8 54.715,139.422 C56.315,142.04 59.299,143.651 60.718,146.6 C61.209,147.621 61.332,149.946 60.384,150.056 C58.978,150.219 58.311,151.202 57.473,152.047 C56.699,152.827 56.15,155.318 56.679,156.172 C57.382,157.307 58.375,157.927 59.84,157.78 C60.841,157.678 62.127,157.554 62.831,158.067 C63.742,158.73 64.566,158.814 65.544,158.81 C66.295,158.806 67.157,158.634 67.772,158.938 C68.637,159.363 69.515,160.043 69.995,160.848 C70.212,161.216 69.534,162.167 69.183,162.811 C68.776,163.558 68.019,164.212 67.885,164.988 C67.667,166.265 67.787,167.61 67.848,168.923 C67.868,169.347 68.048,169.853 68.33,170.164 C71.398,173.548 71.409,173.48 75.986,173.562 C78.485,173.608 80.922,173.606 83.156,171.955 C81.919,170.71 80.642,169.435 79.378,168.146 C78.826,167.582 77.93,167.042 77.841,166.401 C77.663,165.106 76.772,164.486 76.029,163.678 C75.842,163.476 75.529,163.246 75.535,163.035 C75.566,161.705 74.525,161.104 73.778,160.298 C73.591,160.096 73.394,159.89 73.26,159.654 C72.355,158.05 71.475,156.432 70.568,154.829 C69.968,153.771 69.096,152.797 68.782,151.664 C68.387,150.241 66.948,149.126 67.488,147.427 C67.518,147.332 67.408,147.128 67.307,147.064 C66.05,146.269 66.406,145.034 66.4,143.884 C66.398,143.404 66.283,142.925 66.192,142.237 C64.226,144.01 63.82,143.901 62.876,141.78 C62.757,141.512 62.345,141.236 62.048,141.21 C61.181,141.135 60.813,140.735 60.735,139.877 C60.702,139.506 60.432,139.104 60.163,138.815 C59.397,137.992 58.57,137.227 57.778,136.427 C56.558,135.197 54.846,134.155 54.267,132.672 C53.612,130.993 52.377,130.08 51.333,128.88 C50.393,127.798 48.943,127.019 49.373,125.164 C49.448,124.844 48.969,124.382 48.72,124.003 C47.874,122.718 47.008,121.445 46.169,120.155 C46.076,120.012 46.03,119.772 46.078,119.611 C46.583,117.887 45.142,116.765 44.56,115.474 C44.123,114.502 43.973,113.628 43.792,112.644 C43.485,110.969 42.966,109.333 42.521,107.684 C42.49,107.568 42.291,107.505 42.235,107.386 C42.073,107.041 41.801,106.656 41.854,106.333 C41.885,106.141 42.438,106.008 42.772,105.9 C43.052,105.809 43.357,105.792 43.65,105.743 C43.684,105.596 43.717,105.449 43.75,105.303 C41.732,104.569 39.713,103.835 37.483,103.023 C37.429,103.89 37.393,104.662 37.329,105.431 C37.29,105.894 37.293,106.388 37.125,106.808 C36.501,108.374 35.676,109.874 35.194,111.48 C34.784,112.843 33.482,113.945 33.942,115.581 C33.983,115.727 33.678,115.948 33.59,116.157 C33.337,116.763 32.836,117.425 32.926,117.986 C33.256,120.037 31.825,121.398 31.185,123.064 C30.976,123.608 30.685,124.168 30.666,124.729 C30.615,126.277 30.654,127.83 30.718,129.379 C30.779,130.821 30.233,132.395 31.627,133.586 C31.835,133.763 31.77,134.301 31.771,134.672 C31.78,137.774 31.783,140.876 31.765,143.977 C31.762,144.389 31.784,145.009 31.544,145.176 C30.274,146.063 30.744,147.338 30.618,148.507 C30.42,150.343 31.403,152.384 29.599,153.957 L29.599,153.957 Z M122.186,146.291 C121.998,144.935 121.864,143.8 121.672,142.675 C121.591,142.203 121.375,141.35 121.239,141.353 C119.971,141.387 118.253,141.105 117.538,141.805 C116.043,143.268 114.491,143.476 112.605,143.477 C110.883,143.478 109.346,143.396 108.32,141.775 C108.193,141.575 107.886,141.489 107.534,141.27 C107.422,141.687 107.276,141.982 107.276,142.276 C107.277,147.771 107.293,153.266 107.316,158.761 C107.317,159.037 107.293,159.447 107.453,159.566 C109.002,160.724 108.301,162.385 108.491,163.853 C108.684,165.348 107.756,167.076 109.368,168.3 C109.45,168.363 109.498,168.641 109.445,168.688 C107.975,169.985 108.776,171.163 109.583,172.377 C109.714,172.575 109.614,172.929 109.613,173.211 C109.612,174.103 109.575,174.997 109.613,175.888 C109.669,177.233 109.133,178.717 110.557,179.767 C110.769,179.924 110.727,180.471 110.74,180.84 C110.77,181.779 110.733,182.72 110.792,183.656 C110.813,184 110.991,184.602 111.16,184.625 C112.658,184.826 113.673,186.42 115.417,185.985 C116.258,185.775 117.348,185.649 118.055,186.011 C119.647,186.826 121.072,186.301 122.558,185.94 C123.035,185.825 123.492,185.628 123.956,185.463 C124.543,185.252 125.116,184.913 125.718,184.847 C126.833,184.725 128.071,185.043 129.066,184.669 C130.723,184.044 132.229,183.018 133.964,182.07 C131.343,180.152 130.672,177.182 130.169,174.093 C129.893,174.762 129.948,175.349 129.875,175.92 C129.825,176.302 129.685,176.816 129.412,176.977 C129.21,177.096 128.692,176.798 128.378,176.589 C126.681,175.457 127.574,173.22 126.275,171.795 C124.754,170.126 125.198,167.832 124.881,165.761 C124.689,164.506 124.061,163.195 123.62,161.93 C123.278,160.95 122.688,160.101 122.798,158.974 C122.825,158.709 122.509,158.421 122.386,158.128 C122.128,157.517 121.703,156.903 121.682,156.279 C121.603,153.839 121.604,151.392 121.684,148.952 C121.715,147.999 122.035,147.056 122.186,146.291 L122.186,146.291 Z M83.946,113.146 C83.802,113.325 83.625,113.45 83.642,113.538 C84.085,115.796 84.332,118.131 85.119,120.265 C85.424,121.093 85.952,121.823 85.929,122.785 C85.922,123.089 86.072,123.421 86.222,123.7 C87.075,125.287 88.416,126.679 88.149,128.702 C88.127,128.868 88.201,129.107 88.318,129.224 C89.365,130.266 89.987,131.676 90.87,132.721 C92.43,134.569 93.837,136.825 96.467,137.608 C96.816,137.712 96.912,138.758 97.034,139.384 C97.044,139.442 96.249,139.842 96.066,139.721 C94.742,138.851 93.433,137.944 92.212,136.936 C91.205,136.102 90.385,135.039 89.374,134.209 C87.72,132.851 86.532,131.112 85.813,129.199 C85.218,127.619 85.64,125.754 84.477,124.211 C83.787,123.295 83.462,122.092 83.029,120.997 C82.7,120.166 82.225,119.3 82.224,118.45 C82.223,116.569 81.137,115.232 80.229,113.802 C79.988,113.423 79.425,113.246 79.008,112.979 C78.572,112.699 77.854,112.491 77.766,112.129 C77.649,111.648 78.002,111.04 78.189,110.499 C78.375,109.958 78.793,109.429 78.783,108.902 C78.749,107.283 78.977,105.714 77.816,104.15 C76.898,102.914 75.643,102.195 74.543,103.426 C73.93,104.113 73.563,105.045 73.188,105.91 C72.857,106.677 72.639,107.497 72.42,108.307 C71.937,110.092 71.496,111.888 71.005,113.671 C70.951,113.867 70.64,113.98 70.533,114.177 C70.359,114.497 70.15,114.851 70.138,115.197 C70.071,117.233 68.982,118.764 67.792,120.282 C66.699,121.676 65.726,123.164 64.623,124.549 C64.375,124.86 63.8,124.912 63.376,125.084 C63.278,124.609 62.95,124.02 63.12,123.681 C63.749,122.43 64.54,121.26 65.275,120.064 C66.008,118.868 66.778,117.693 67.476,116.477 C67.903,115.733 68.55,114.92 68.529,114.154 C68.472,112.044 69.881,110.604 70.41,108.847 C70.251,108.245 70.016,107.489 70.292,107.072 C71.439,105.343 71.236,104.228 69.3,103.049 C68.679,103.69 68.11,104.096 67.256,103.143 C66.574,102.38 64.588,102.785 64.529,103.605 C64.424,105.038 63.573,105.114 62.494,105.085 C61.367,105.055 60.236,105.057 59.111,105.114 C58.665,105.135 58.224,105.33 57.789,105.468 C57.07,105.698 56.363,105.968 55.638,106.177 C55.283,106.28 54.899,106.286 54.436,106.348 C55.393,107.947 55.196,107.974 55.488,110.189 C55.687,111.695 56.803,113.03 56.817,114.664 C56.818,114.793 57.076,114.918 57.21,115.048 C57.649,115.471 58.247,115.823 58.478,116.339 C58.709,116.857 58.794,117.673 58.53,118.106 C58.323,118.444 57.317,118.678 56.954,118.466 C55.509,117.624 54.1,116.68 52.827,115.6 C51.472,114.451 50.27,113.12 49.038,111.833 C48.738,111.52 48.509,111.091 48.377,110.674 C47.899,109.162 46.66,108.388 45.363,107.51 C45.306,108.504 45.454,109.416 45.692,110.303 C45.874,110.979 46.196,111.615 46.403,112.286 C46.509,112.634 46.418,113.051 46.557,113.377 C47.217,114.919 48.075,116.393 48.574,117.981 C49.014,119.384 50.333,120.54 49.854,122.219 C49.834,122.285 49.906,122.419 49.973,122.464 C51.266,123.329 50.966,124.654 51.03,125.903 C51.051,126.34 51.275,126.974 51.606,127.154 C54.303,128.628 56.438,130.609 57.776,133.42 C57.916,133.716 58.425,133.822 58.725,134.064 C59.146,134.403 59.778,134.729 59.877,135.163 C60.057,135.942 60.333,136.329 61.146,136.351 C61.39,136.358 61.75,136.528 61.851,136.727 C62.371,137.747 62.767,138.832 63.32,139.832 C63.725,140.566 64.304,141.204 64.805,141.885 C64.977,141.792 65.15,141.699 65.322,141.605 C65.28,141.223 65.355,140.773 65.177,140.47 C64.187,138.774 62.885,137.218 62.988,135.075 C62.996,134.914 62.871,134.7 62.741,134.586 C61.539,133.521 60.293,132.488 60.748,130.595 C60.766,130.518 60.723,130.381 60.662,130.336 C59.017,129.109 59.771,127.347 59.628,125.783 C59.587,125.332 59.616,124.691 59.344,124.475 C57.848,123.284 58.577,121.678 58.525,120.266 C58.499,119.522 59.345,119.194 59.81,119.882 C60.695,121.189 61.619,122.562 62.071,124.046 C62.587,125.74 61.633,127.804 63.31,129.261 C62.768,130.901 64.14,131.991 64.55,133.354 C64.891,134.489 65.582,135.585 66.341,136.514 C67.175,137.532 68.258,138.333 67.841,139.886 C67.791,140.075 67.909,140.363 68.038,140.54 C69.345,142.341 70.516,144.179 70.088,146.572 C70.057,146.744 70.11,146.954 70.185,147.119 C70.875,148.649 71.647,150.145 72.261,151.704 C73,153.576 73.636,155.481 75.288,156.805 C75.458,156.942 75.55,157.18 75.673,157.375 C76.224,158.25 76.773,159.127 77.324,160.003 C77.54,160.346 77.773,160.679 77.973,161.031 C78.794,162.479 79.493,164.016 80.459,165.359 C81.214,166.408 82.348,167.176 83.222,168.152 C83.819,168.817 84.232,169.644 84.777,170.362 C85.259,170.997 85.933,172.155 86.308,172.074 C87.219,171.88 87.958,171.086 87.852,169.896 C87.811,169.438 87.747,168.871 87.963,168.522 C89.006,166.846 90.137,165.231 90.112,163.13 C90.11,162.928 90.351,162.735 90.433,162.521 C90.687,161.856 91.052,161.197 91.128,160.509 C91.25,159.394 91.147,158.256 91.202,157.131 C91.223,156.682 91.265,156.052 91.55,155.835 C92.357,155.218 92.42,154.475 92.335,153.587 C92.302,153.239 92.364,152.707 92.59,152.539 C93.556,151.819 93.455,150.821 93.417,149.847 C93.349,148.057 94.399,146.712 95.309,145.385 C96.033,144.329 97.279,143.615 96.855,142.033 C96.795,141.81 96.931,141.397 97.115,141.266 C98.345,140.392 98.075,139.138 98.044,137.93 C98.009,136.568 98.081,135.198 97.951,133.846 C97.886,133.175 97.615,132.424 97.193,131.907 C96.394,130.931 95.333,130.147 95.74,128.641 C95.792,128.447 95.714,128.088 95.57,127.989 C94.267,127.098 94.647,125.78 94.583,124.541 C94.558,124.072 94.301,123.429 93.938,123.197 C92.381,122.199 90.672,121.429 89.166,120.368 C88.148,119.653 87.289,118.656 86.522,117.659 C86.054,117.049 85.697,116.214 85.643,115.456 C85.558,114.231 84.854,113.678 83.946,113.146 L83.946,113.146 Z M39.915,90.826 C39.977,90.709 40.039,90.591 40.101,90.474 C40.686,90.582 41.271,90.689 41.855,90.797 C41.699,91.353 41.706,92.119 41.338,92.402 C41.004,92.659 40.257,92.441 39.708,92.341 C39.323,92.271 38.965,92.046 38.595,91.891 C38.662,92.362 38.558,92.989 38.824,93.277 C40.068,94.629 41.763,95.239 43.473,95.749 C43.829,95.855 44.275,95.653 44.679,95.593 C44.506,95.161 44.312,95.076 44.138,94.961 C43.721,94.684 43.314,94.392 42.903,94.106 C43.406,93.881 43.892,93.598 44.416,93.447 C44.877,93.314 45.381,93.327 45.867,93.276 C45.866,93.1 45.865,92.924 45.864,92.748 C45.263,92.686 44.664,92.588 44.061,92.571 C43.197,92.545 42.608,92.112 42.803,91.289 C42.916,90.813 43.526,90.355 44.02,90.094 C44.659,89.758 45.406,89.627 46.106,89.408 C45.725,88.763 45.351,88.114 44.957,87.477 C44.861,87.322 44.717,87.18 44.565,87.076 C43.443,86.304 43.781,85.151 43.874,84.118 C43.892,83.918 44.663,83.582 45.006,83.659 C45.645,83.802 46.249,84.165 46.819,84.515 C47.108,84.693 47.49,85.041 47.49,85.312 C47.49,86.499 48.13,87.462 48.422,88.488 C48.898,90.155 49.78,90.093 50.965,90.055 C51.341,90.043 51.734,89.964 52.087,90.048 C52.414,90.124 52.86,90.318 52.954,90.572 C53.043,90.815 52.843,91.329 52.608,91.5 C51.818,92.07 50.956,92.539 50.107,93.055 C50.924,94.76 52.608,95.119 54.142,94.021 C54.65,93.657 55.76,93.52 56.211,93.832 C56.963,94.354 56.718,95.225 56.019,95.876 C55.853,96.03 55.823,96.329 55.596,96.894 C57.244,96.459 58.803,97.365 60.052,95.971 C60.232,95.769 60.653,95.74 60.969,95.71 C62.908,95.527 64.541,94.674 65.977,93.418 C66.541,92.926 66.983,92.286 67.573,91.835 C69.313,90.502 70.21,88.128 72.682,87.692 C72.829,87.666 72.993,87.466 73.059,87.308 C73.375,86.566 73.66,85.81 73.988,84.979 C73.775,84.916 73.566,84.805 73.355,84.8 C72.557,84.778 71.736,84.904 70.969,84.747 C70.517,84.655 70.003,84.208 69.796,83.784 C69.64,83.466 69.927,82.93 70.017,82.491 C70.432,82.586 70.847,82.681 71.263,82.774 C71.438,82.813 71.693,82.94 71.778,82.868 C73.28,81.615 73.707,83.221 74.552,83.835 C74.97,84.137 75.956,84.408 76.079,84.243 C76.9,83.139 77.72,83.585 78.556,84.146 C79.215,82.348 78.561,80.82 77.043,80.282 C75.896,79.875 74.781,79.376 73.649,78.926 C71.943,78.249 70.217,77.621 68.543,76.875 C68.186,76.716 67.747,75.846 67.798,75.8 C68.812,74.87 69.78,73.745 70.998,73.226 C71.97,72.812 72.004,72.333 72.013,71.564 C72.022,70.812 71.957,70.33 71.009,70.033 C70.163,69.768 69.17,69.069 68.822,68.298 C67.954,66.382 67.329,64.371 65.577,63.007 C65.446,62.904 65.419,62.674 65.322,62.517 C64.826,61.718 64.436,60.809 63.79,60.156 C63.12,59.48 62.894,59.058 63.687,58.342 C64.393,57.705 64.955,56.975 65.796,58.175 C66.839,59.662 67.958,61.096 69.002,62.583 C69.435,63.2 69.713,63.925 70.144,64.544 C70.588,65.183 71.132,65.754 71.633,66.354 C71.764,66.286 71.894,66.219 72.025,66.151 C72.025,64.109 71.896,62.055 72.062,60.026 C72.22,58.094 71.064,56.769 70.226,55.315 C69.769,54.522 69.417,53.721 70.136,53.224 C70.589,52.911 71.781,53.025 72.179,53.416 C72.924,54.148 73.37,55.202 73.868,56.159 C74.192,56.783 74.583,57.466 74.607,58.135 C74.688,60.387 74.612,62.645 74.614,64.9 C74.614,65.267 74.562,65.765 74.767,65.98 C75.819,67.082 76.888,68.14 77.286,69.694 C77.459,70.375 77.915,71.004 77.994,71.685 C78.113,72.704 78.024,73.749 78.003,74.783 C77.962,76.742 79.472,78.044 81.353,77.605 C81.654,77.535 82.076,77.217 82.124,76.956 C82.382,75.539 83.873,74.498 83.369,72.846 C83.323,72.695 83.576,72.45 83.693,72.251 C84.306,71.201 84.954,70.169 85.529,69.098 C86.249,67.756 87.044,66.43 87.543,65.004 C87.819,64.218 87.652,63.225 87.498,62.358 C87.393,61.771 86.99,61.228 86.677,60.689 C86,59.518 85.357,58.318 84.582,57.213 C83.873,56.202 82.837,55.389 82.276,54.317 C81.942,53.68 81.831,53.184 81.009,53.144 C80.682,53.128 80.313,52.877 80.061,52.632 C78.882,51.492 77.608,50.418 76.608,49.133 C74.66,46.631 71.708,45.392 69.502,43.233 C69.383,43.116 69.162,43.093 68.982,43.053 C67.942,42.825 66.9,42.606 65.667,42.343 C65.653,42.6 65.61,43.067 65.6,43.535 C65.561,45.408 65.941,47.414 65.389,49.12 C64.791,50.972 63.219,52.49 63.254,54.66 C63.258,54.938 62.8,55.212 62.583,55.507 C62.069,56.202 61.599,56.931 61.057,57.603 C60.699,58.048 60.274,58.452 59.826,58.809 C59.589,58.997 59.142,58.958 58.958,59.169 C57.548,60.78 55.976,62.258 53.963,62.96 C52.447,63.489 51.228,64.844 49.35,64.507 C48.122,64.285 46.819,64.493 45.552,64.447 C45.11,64.431 44.672,64.235 44.237,64.109 C43.88,64.006 43.529,63.885 43.175,63.772 C43.238,64.231 43.24,64.709 43.375,65.146 C43.598,65.862 44.13,66.546 44.145,67.251 C44.24,71.76 44.233,76.272 44.248,80.782 C44.249,81.151 44.253,81.577 44.082,81.874 C43.722,82.493 42.993,82.634 42.811,81.918 C42.402,80.301 41.177,78.968 41.503,77.061 C41.792,75.371 41.629,73.591 41.543,71.856 C41.513,71.232 41.049,70.639 40.93,70.004 C40.846,69.561 40.837,68.902 41.098,68.634 C41.772,67.942 41.875,67.349 41.133,66.735 C40.146,65.915 40.16,65.122 41.029,64.235 C41.191,64.069 41.211,63.765 41.34,63.407 C38.537,63.375 36.465,62.115 34.622,60.271 C34.047,59.696 33.085,59.531 32.387,59.052 C31.121,58.185 30.416,56.879 29.896,55.469 C29.267,53.769 28.64,52.068 28.032,50.361 C27.974,50.199 28.073,49.989 28.061,49.803 C28.046,49.572 28.076,49.229 27.942,49.132 C26.552,48.113 26.908,46.643 26.912,45.273 C26.915,44.513 26.605,44.146 25.823,44.16 C24.79,44.179 23.754,44.181 22.722,44.149 C21.613,44.114 20.335,42.826 20.102,41.801 C19.612,39.645 20.882,37.991 21.636,36.217 C22.103,35.116 22.835,34.095 23.6,33.163 C24.37,32.227 25.336,31.455 26.194,30.589 C26.423,30.357 26.57,30.043 26.686,29.869 C25.956,29.499 25.382,29.21 24.81,28.921 C25.317,28.297 25.748,27.234 26.344,27.13 C28.24,26.801 29.015,25.194 30.298,24.184 C31.084,23.566 31.903,22.989 32.682,22.364 C33.028,22.088 33.315,21.738 33.629,21.421 C33.256,21.105 32.923,20.607 32.501,20.514 C31.831,20.366 31.094,20.55 30.399,20.475 C30.036,20.436 29.507,20.216 29.407,19.946 C29.312,19.692 29.647,19.243 29.855,18.92 C30.002,18.69 30.254,18.528 30.458,18.333 C31.788,17.057 31.768,16.109 30.729,14.571 C30.414,14.105 30.604,13.246 30.687,12.583 C30.724,12.291 31.072,12.038 31.185,11.889 C30.214,11.289 29.359,10.804 28.562,10.237 C28.349,10.086 28.146,9.603 28.237,9.418 C28.371,9.145 28.763,8.845 29.059,8.83 C30.836,8.739 32.615,8.646 33.833,10.4 C34.525,11.397 35.393,11.373 36.134,10.394 C37.171,9.025 38.513,8.42 40.184,8.844 C41.554,9.192 42.85,9.82 44.263,8.878 C44.628,8.634 45.293,8.841 46.063,8.841 C45.773,8.307 45.707,7.978 45.514,7.866 C43.999,6.988 42.617,5.737 40.713,5.817 C39.532,5.866 38.597,5.658 37.725,4.698 C36.297,3.127 33.258,3.102 31.401,4.336 C30.503,4.932 29.448,5.285 28.485,5.787 C27.09,6.513 25.629,7.155 24.357,8.058 C23.302,8.807 22.359,9.792 21.582,10.833 C20.215,12.663 19.211,14.772 17.319,16.184 C17.25,16.236 17.212,16.34 17.183,16.427 C16.51,18.432 15.71,20.356 14.008,21.753 C13.848,21.885 13.8,22.16 13.712,22.374 C13.265,23.457 12.853,24.557 12.352,25.616 C12.243,25.849 11.826,26.065 11.548,26.067 C10.645,26.076 10.327,26.505 10.252,27.363 C10.221,27.718 9.878,28.082 9.606,28.375 C8.778,29.267 7.453,29.994 7.159,31.025 C6.501,33.326 4.312,35.03 4.635,37.672 C4.654,37.826 4.527,38.079 4.393,38.157 C3.378,38.754 3.448,39.711 3.566,40.65 C3.83,42.743 3.191,44.801 4.483,46.968 C5.579,48.806 6.98,50.203 8.471,51.494 C9.833,52.673 11.894,53.058 13.212,54.267 C14.697,55.628 16.719,56.683 17.164,58.985 C17.208,59.218 17.584,59.504 17.85,59.559 C19.328,59.866 20.214,60.693 20.51,62.199 C20.567,62.486 20.914,62.822 21.205,62.939 C22.9,63.617 24.608,64.249 25.856,65.687 C26.047,65.907 26.351,66.029 26.624,66.21 C27.245,64.705 27.05,63.632 26.177,63.358 C24.167,62.729 23.694,62.077 23.537,59.917 C23.509,59.539 23.213,59.183 23.059,58.809 C22.822,58.236 22.393,57.647 22.416,57.08 C22.464,55.857 22.749,54.643 22.937,53.425 C23.107,53.376 23.277,53.327 23.446,53.279 C23.242,53.158 22.903,53.075 22.857,52.91 C22.695,52.329 22.474,51.683 22.6,51.136 C22.662,50.869 23.522,50.528 23.87,50.65 C24.316,50.806 24.656,51.364 24.96,51.803 C25.725,52.907 25.826,53.791 25.092,55.227 C24.189,56.996 25.578,58.831 26.606,60.516 C26.847,60.075 26.991,59.624 26.988,59.175 C26.982,58.19 26.859,57.204 26.878,56.22 C26.884,55.909 27.128,55.444 27.38,55.344 C27.622,55.248 28.188,55.444 28.31,55.672 C28.776,56.543 29.401,57.463 29.456,58.394 C29.604,60.923 29.487,63.466 29.49,66.004 C29.49,66.372 29.448,66.82 29.63,67.094 C30.533,68.448 31.508,69.755 32.447,71.085 C32.604,71.307 32.727,71.559 32.833,71.81 C33.313,72.931 33.609,74.175 34.287,75.156 C35.689,77.186 36.657,79.259 36.275,81.802 C36.211,82.222 36.389,82.71 36.552,83.127 C37.196,84.772 38.158,86.352 38.451,88.051 C38.658,89.253 38.845,90.19 39.915,90.826 L39.915,90.826 Z M0,43.136 L0,36.931 C0.255,36.857 0.659,36.861 0.745,36.698 C1.588,35.104 2.367,33.475 3.188,31.869 C4.259,29.775 5.427,27.737 7.027,25.991 C7.754,25.197 8.626,24.525 9.288,23.684 C9.977,22.807 10.5,21.798 11.081,20.837 C11.852,19.562 12.626,18.288 13.368,16.996 C14.147,15.635 14.855,14.232 15.658,12.885 C16.327,11.764 16.912,10.5 17.855,9.66 C18.915,8.717 20.038,7.995 20.853,6.691 C21.507,5.644 23.102,5.233 24.125,4.36 C25.415,3.258 26.347,1.622 28.445,2.019 C28.624,2.052 28.843,1.808 29.057,1.73 C29.807,1.456 30.545,1.111 31.321,0.957 C32.573,0.708 34.032,1.462 35.074,0.092 C35.203,-0.078 35.955,0.003 36.239,0.212 C37.886,1.425 39.584,2.343 41.748,2.085 C42.766,1.964 43.816,2.016 44.845,2.089 C45.323,2.122 45.785,2.388 46.252,2.555 C46.837,2.764 47.426,2.964 48.001,3.197 C48.656,3.463 49.34,3.692 49.932,4.064 C50.516,4.43 50.941,5.226 51.541,5.359 C53.151,5.714 54.077,6.553 54.377,8.168 C54.423,8.411 54.772,8.635 55.026,8.796 C55.667,9.203 56.352,9.543 56.987,9.961 C57.485,10.289 57.881,10.821 58.415,11.041 C60.186,11.774 62.041,12.373 63.264,13.965 C64.116,15.073 64.854,16.269 65.613,17.446 C66.024,18.081 66.383,18.751 66.747,19.416 C67.289,20.406 67.871,21.381 68.327,22.411 C68.648,23.136 68.891,23.93 68.984,24.715 C69.118,25.852 68.329,26.123 67.367,26.158 C67.167,26.165 66.928,26.342 66.784,26.508 C65.857,27.567 65.033,27.384 64.015,26.53 C63.242,25.88 62.235,25.76 61.218,26.589 C62.467,26.905 63.495,27.347 63.521,28.779 C63.523,28.87 63.715,29.032 63.826,29.037 C65.734,29.131 66.372,30.944 67.67,31.856 C68.891,32.714 69.093,33.891 69.034,35.301 C69.005,35.979 69.387,36.799 69.837,37.345 C70.61,38.286 71.58,39.022 71.263,40.491 C71.205,40.762 71.871,41.488 72.215,41.497 C73.682,41.534 73.209,42.88 73.747,43.501 C74.286,44.122 75.783,43.536 75.737,45.008 C75.733,45.146 75.733,45.316 75.806,45.418 C75.96,45.635 76.134,45.859 76.352,46.004 C77.213,46.577 78.094,47.121 78.97,47.674 C79.313,47.89 79.636,48.2 80.011,48.293 C81.695,48.712 82.836,50.026 83.435,51.334 C83.947,52.453 84.611,53.277 85.391,54.11 C86.283,55.061 87.529,55.864 87.989,56.99 C88.548,58.357 89.835,59.608 89.298,61.338 C89.273,61.419 89.444,61.561 89.664,61.874 C91.205,60.212 92.672,58.632 94.739,57.837 C95.997,57.354 97.168,56.579 98.459,56.27 C99.634,55.988 100.993,56.495 101.938,55.279 C102.086,55.089 102.553,55.098 102.873,55.097 C106.443,55.083 110.014,55.073 113.584,55.098 C114.028,55.101 114.478,55.287 114.912,55.428 C115.668,55.674 116.4,56.105 117.169,56.179 C118.473,56.306 119.797,56.212 121.114,56.216 C122.311,56.219 124.917,58.117 125.319,59.245 C125.979,61.093 126.646,62.937 128.242,64.249 C128.471,64.439 128.667,64.772 128.714,65.065 C128.939,66.489 129.747,67.228 131.142,67.567 C131.563,67.668 132.101,68.359 132.125,68.804 C132.174,69.761 132.097,70.621 133.01,71.309 C133.289,71.518 133.35,72.31 133.208,72.734 C132.583,74.61 129.972,75.27 128.468,73.959 C127.777,73.357 127.208,73.365 126.485,73.929 C126.045,74.273 125.449,74.506 124.892,74.595 C123.22,74.866 121.798,74.464 120.673,73.043 C120.367,72.656 119.489,72.404 119.007,72.546 C118.184,72.788 117.466,73.389 116.689,73.849 C116.933,74.472 117.415,75.199 117.475,75.96 C117.604,77.595 117.701,79.274 117.463,80.884 C117.232,82.455 116.638,83.99 116.054,85.482 C115.854,85.995 115.183,86.313 114.764,86.756 C114.537,86.997 114.387,87.313 114.203,87.595 C114.282,87.714 114.36,87.834 114.439,87.953 C114.963,87.772 115.577,87.707 115.998,87.389 C117.379,86.344 118.723,86.368 119.935,87.571 C120.567,88.198 121.156,88.89 121.869,89.41 C122.587,89.934 123.641,90.103 124.19,90.737 C126.198,93.06 129.114,94.587 130.195,97.75 C130.61,98.962 131.513,99.999 132.098,101.164 C132.643,102.251 133.028,103.418 133.544,104.522 C134.19,105.902 134.89,107.258 135.584,108.614 C136.08,109.58 136.633,110.515 137.105,111.491 C137.391,112.084 137.6,112.719 137.792,113.351 C138.272,114.924 138.72,116.506 139.191,118.082 C139.213,118.159 139.353,118.199 139.385,118.278 C139.62,118.85 139.882,119.416 140.049,120.008 C140.16,120.401 139.965,121.041 140.186,121.215 C141.763,122.451 141.024,124.144 141.188,125.658 C141.246,126.189 141.403,126.716 141.573,127.224 C141.795,127.894 142.226,128.529 142.295,129.207 C142.41,130.322 142.225,131.466 142.328,132.583 C142.381,133.167 142.704,133.77 143.041,134.273 C143.45,134.884 144.291,135.333 144.435,135.968 C144.764,137.417 146.27,138.509 145.72,140.207 C145.699,140.274 145.783,140.378 145.821,140.463 C146.518,142.038 147.359,143.568 147.868,145.201 C148.291,146.559 148.929,147.387 150.354,147.653 C150.707,147.718 151.068,148.168 151.272,148.528 C151.951,149.727 152.639,150.933 153.167,152.202 C153.525,153.063 153.817,154.03 152.869,154.841 C152.051,155.539 151.218,156.253 150.552,157.087 C149.841,157.976 148.996,158.134 147.956,158.114 C145.559,158.068 143.162,158.084 140.765,158.116 C140.218,158.124 139.462,158.107 139.17,158.432 C138.377,159.313 137.423,159.288 136.45,159.213 C135.076,159.105 133.709,158.897 132.257,158.722 C132.15,159.026 133.327,163.907 133.662,164.484 C134.009,165.081 134.192,165.782 134.396,166.453 C134.501,166.801 134.364,167.375 134.567,167.517 C135.869,168.427 135.472,169.748 135.568,170.977 C135.608,171.495 135.887,172.01 136.125,172.492 C136.645,173.544 137.245,174.557 137.744,175.617 C138.263,176.719 138.666,177.876 139.186,178.977 C139.819,180.314 140.518,181.618 141.194,182.934 C141.71,183.939 142.122,185.023 142.783,185.923 C143.781,187.281 143.78,188.646 142.557,189.86 C141.892,190.521 141.281,191.241 140.572,191.85 C139.374,192.881 138.67,194.007 138.895,195.718 C139.089,197.197 139.058,198.734 138.902,200.221 C138.733,201.83 139.239,202.984 140.461,204.001 C141.61,204.956 141.517,206.716 140.426,207.801 C139.097,209.122 137.722,210.407 136.496,211.82 C135.708,212.727 135.289,213.97 134.453,214.815 C133.684,215.591 132.424,215.884 131.662,216.664 C130.714,217.634 129.733,218.03 128.429,217.9 C127.45,217.802 126.5,217.805 126.509,219.244 C126.511,219.49 125.99,219.985 125.846,219.939 C125.517,219.834 125.186,219.51 125.021,219.19 C124.888,218.931 124.951,218.541 125.004,218.222 C125.203,217.061 124.656,216.675 123.58,216.765 C123.207,216.796 122.7,216.914 122.486,216.727 C122.194,216.472 121.873,215.842 121.999,215.585 C122.867,213.803 124.039,212.233 125.541,210.906 C125.881,210.605 126.166,210.055 126.184,209.607 C126.258,207.872 126.226,206.132 126.203,204.394 C126.199,204.081 126.125,203.725 125.96,203.468 C125.155,202.208 121.054,201.366 119.972,202.411 C119.12,203.234 118.247,203.219 117.271,203.222 C115.909,203.227 114.545,203.24 113.183,203.212 C112.773,203.203 112.196,203.209 111.989,202.962 C111.118,201.925 109.935,202.295 108.875,202.052 C107.574,201.754 106.335,201.159 105.095,200.632 C104.917,200.556 104.804,200.151 104.791,199.891 C104.75,199.099 104.413,198.501 103.604,198.796 C103.227,198.934 102.984,199.651 102.834,200.151 C102.346,201.773 101.934,203.416 101.477,205.047 C101.444,205.165 101.282,205.243 101.188,205.347 C100.256,206.376 100.338,208.702 101.181,209.819 C101.517,210.264 101.799,211.284 101.565,211.535 C100.515,212.655 99.75,214.165 98.029,214.52 C96.683,214.797 96.246,215.776 96.867,216.924 C97.016,217.199 97.101,217.546 97.1,217.86 C97.095,219.315 97.049,220.77 97.018,222.225 L92.224,222.225 C92.272,221.099 92.384,219.97 92.328,218.849 C92.311,218.525 91.795,217.962 91.532,217.975 C91.151,217.995 90.701,218.371 90.443,218.718 C89.989,219.327 89.707,220.065 89.251,220.674 C89.075,220.91 88.61,221.067 88.306,221.027 C88.111,221.001 87.888,220.572 87.821,220.289 C87.394,218.512 86.649,217.902 84.828,217.888 C83.812,217.88 82.875,217.94 81.959,217.119 C81.153,216.397 79.991,215.989 78.919,215.662 C77.52,215.235 77.197,214.356 78.188,213.222 C78.387,212.994 78.539,212.725 78.771,212.39 C76.951,211.578 77.985,210.042 77.717,208.85 C77.523,207.983 77.925,207.401 78.929,207.387 C80.007,207.372 80.315,207.951 80.245,208.919 C80.204,209.474 80.237,210.034 80.237,210.592 C80.382,210.614 80.528,210.637 80.672,210.66 C81.04,209.978 81.27,208.899 81.807,208.716 C82.463,208.491 83.375,209.02 84.18,209.224 C84.747,209 85.44,208.784 86.072,208.451 C86.352,208.303 86.686,207.923 86.691,207.642 C86.737,205.294 87.052,202.872 86.569,200.627 C86.314,199.444 85.417,198.313 85.494,196.926 C85.5,196.817 85.351,196.693 85.264,196.583 C84.039,195.044 84.564,193.353 86.455,192.759 C87.735,192.357 88.409,190.908 87.515,189.985 C86.489,188.926 86.669,187.793 86.659,186.591 C86.651,185.623 86.875,184.928 88.032,184.889 C88.303,184.88 88.566,184.601 88.833,184.446 C88.811,184.318 88.789,184.189 88.767,184.061 C87.29,183.672 85.807,183.3 84.338,182.88 C84,182.783 83.684,182.55 83.402,182.325 C82.087,181.28 81.292,179.642 79.355,179.271 C78.705,179.147 77.971,178.086 77.771,177.323 C77.516,176.353 77.089,176.124 76.225,176.142 C74.769,176.172 73.312,176.131 71.855,176.154 C70.142,176.179 68.867,175.128 67.557,174.3 C66.592,173.69 65.883,172.676 65.055,171.847 C63.958,170.748 63.631,167.042 64.639,165.899 C65.173,165.293 65.012,165.002 64.538,164.518 C63.967,163.936 63.285,163.314 63.058,162.583 C62.788,161.716 62.375,161.578 61.585,161.453 C59.628,161.143 57.856,159.944 55.756,160.216 C55.598,160.236 55.337,159.978 55.229,159.79 C54.421,158.391 53.664,156.964 52.836,155.577 C52.633,155.237 52.261,154.86 51.91,154.792 C51.666,154.744 51.149,155.141 51.058,155.433 C50.732,156.487 50.535,157.58 50.239,158.879 C50.563,158.879 51.063,158.796 51.521,158.901 C52.067,159.025 52.948,159.228 53.019,159.546 C53.145,160.107 52.925,160.896 52.569,161.385 C51.872,162.345 51.753,163.635 52.612,164.556 C53.511,165.524 53.45,166.32 52.462,167.181 C51.616,167.919 50.898,168.804 50.049,169.539 C48.983,170.464 48.493,171.503 48.636,172.969 C48.703,173.643 48.171,174.37 47.935,175.081 C47.779,175.549 47.572,176.027 47.552,176.507 C47.503,177.696 47.887,178.96 46.62,179.84 C46.405,179.989 46.45,180.531 46.4,180.895 C46.234,182.114 46.08,183.336 45.921,184.556 C45.866,185.015 46.373,185.521 46.396,186.049 C46.5,188.394 46.483,190.745 46.454,193.094 C46.45,193.396 46.174,193.861 45.92,193.948 C45.67,194.034 45.287,193.739 44.963,193.607 C44.555,193.439 44.038,193.019 43.759,193.142 C42.64,193.638 41.575,194.269 40.529,194.914 C39.681,195.437 39.476,196.243 39.583,197.233 C39.71,198.395 39.716,199.574 39.694,200.745 C39.686,201.118 39.5,201.572 39.238,201.818 C39.115,201.933 38.603,201.657 38.283,201.523 C38.078,201.438 37.9,201.288 37.709,201.168 C37.711,201.289 37.713,201.411 37.716,201.533 C36.764,201.732 35.82,202.034 34.859,202.099 C33.924,202.162 33.509,201.704 34.158,200.791 C34.309,200.578 34.436,200.348 34.698,199.928 C32.992,199.928 31.477,199.918 29.963,199.943 C29.814,199.945 29.683,200.194 29.517,200.261 C28.899,200.511 28.168,201.06 27.664,200.905 C26.222,200.461 24.848,199.77 23.492,199.089 C22.613,198.649 21.799,198.071 20.977,197.524 C20.684,197.329 20.266,197.072 20.225,196.795 C20.06,195.697 19.799,194.529 20.973,193.731 C22.173,192.916 23.424,192.159 24.538,191.238 C25.543,190.405 26.361,189.352 27.317,188.455 C29.362,186.538 30.521,184.289 30.3,181.402 C30.204,180.141 30.365,178.862 30.28,177.599 C30.243,177.057 29.987,176.448 29.64,176.025 C28.953,175.184 28.91,174.462 29.666,173.674 C30.307,173.004 30.684,170.183 30.021,169.638 C28.982,168.786 29.158,167.748 29.154,166.688 C29.147,164.715 29.083,162.738 29.18,160.769 C29.214,160.103 29.56,159.381 29.956,158.821 C30.57,157.953 30.477,157.248 29.539,156.987 C27.13,156.317 25.671,153.57 27.121,151.649 C28.238,150.168 27.863,148.778 28.034,147.313 C28.106,146.695 28.329,146.091 28.523,145.493 C28.713,144.909 29.142,144.343 29.144,143.768 C29.164,138.411 29.111,133.054 29.084,127.697 C29.08,126.775 29.315,125.808 28.368,125.125 C28.215,125.016 28.139,124.482 28.252,124.37 C29.847,122.792 28.911,120.812 29.145,119.025 C29.205,118.565 29.151,118.042 29.357,117.66 C29.934,116.591 30.669,115.607 31.247,114.537 C31.757,113.59 32.358,112.606 32.517,111.576 C32.667,110.602 32.468,109.623 33.465,108.964 C33.64,108.848 33.723,108.443 33.693,108.19 C33.569,107.157 33.756,106.347 34.563,105.537 C35.199,104.898 35.512,103.901 35.847,103.017 C35.968,102.697 35.857,102.154 35.645,101.864 C34.455,100.236 34.447,99.338 35.591,97.823 C35.843,97.49 35.933,96.964 35.935,96.526 C35.946,94.553 35.629,92.536 35.946,90.619 C36.263,88.693 34.746,87.615 34.456,86.024 C34.315,85.254 33.798,84.547 33.691,83.778 C33.493,82.36 33.625,81.054 32.818,79.573 C31.816,77.737 30.187,76.337 29.488,74.336 C29.087,73.189 28.449,72.125 28.062,70.975 C27.678,69.833 25.4,68.089 24.292,67.799 C22.879,67.429 21.421,66.89 20.242,66.058 C18.921,65.127 17.833,63.837 16.749,62.611 C15.455,61.148 13.725,60.114 13.053,58.006 C12.783,57.157 11.11,56.822 10.201,56.097 C7.942,54.297 6.382,51.793 3.574,50.461 C1.733,49.589 0.271,47.669 0.944,45.117 C1.037,44.762 1.11,44.299 0.957,44.01 C0.765,43.651 0.33,43.422 0,43.136 L0,43.136 Z" id="Fill-1"></path>
                <path d="M97.8648,222.2248 C97.8858,220.7718 97.8468,219.3128 97.9678,217.8678 C98.0038,217.4218 98.4728,217.0128 98.7458,216.5868 C99.0078,217.0108 99.4658,217.4208 99.4968,217.8618 C99.5998,219.3098 99.5488,220.7698 99.5568,222.2248 L97.8648,222.2248 Z" id="Fill-3"></path>
                <path d="M101.4663,220.1843 C101.3273,220.1713 101.1433,220.2103 101.0593,220.1363 C100.8333,219.9373 100.4363,219.6083 100.4863,219.4733 C100.8443,218.5153 101.2763,217.5803 101.7543,216.6753 C101.8033,216.5833 102.4543,216.6323 102.6023,216.8053 C103.0503,217.3353 103.8413,218.2243 103.6833,218.4943 C103.2333,219.2623 102.3773,219.7923 101.6823,220.4163 C101.6103,220.3393 101.5383,220.2613 101.4663,220.1843" id="Fill-5"></path>
                <path d="M110.8521,217.2468 C110.8161,217.5938 110.8871,217.9918 110.7231,218.2168 C110.5191,218.4968 110.1201,218.6348 109.8041,218.8338 C109.5891,218.3238 109.1731,217.8008 109.2071,217.3078 C109.2521,216.6718 109.6561,216.0608 109.9051,215.4388 C110.1821,215.6358 110.5841,215.7748 110.7061,216.0418 C110.8701,216.3988 110.8151,216.8548 110.8521,217.2468" id="Fill-7"></path>
                <path d="M11.8862,190.9479 C11.6232,191.2509 11.5162,191.3399 11.4522,191.4539 C11.1892,191.9289 10.9382,192.4119 10.6832,192.8909 C10.1532,192.4559 9.5002,192.0989 9.1532,191.5489 C9.0102,191.3229 9.4062,190.5169 9.7622,190.2599 C10.7872,189.5199 11.8812,188.8419 13.0302,188.3189 C13.4072,188.1469 14.2902,188.3669 14.4852,188.6869 C14.7402,189.1079 14.7792,189.9769 14.5012,190.3489 C13.4562,191.7579 13.2972,192.9619 14.6422,194.2869 C14.9292,194.5709 14.8242,195.3319 14.7532,195.8529 C14.7292,196.0329 14.0522,196.3129 14.0192,196.2709 C13.7302,195.9079 13.5042,195.4909 13.2922,195.0729 C13.1902,194.8699 13.2282,194.5119 13.0842,194.4279 C12.0082,193.8009 12.1272,192.8389 12.2442,191.8349 C12.2702,191.6129 12.0622,191.3639 11.8862,190.9479" id="Fill-9"></path>
                <path d="M18.2905,190.5817 C18.2905,192.3617 18.3685,194.1467 18.2455,195.9177 C18.2055,196.4867 17.7305,197.1407 17.2625,197.5127 C17.0255,197.7017 16.3575,197.3487 15.8855,197.2397 C16.0105,196.8377 16.0495,196.3757 16.2765,196.0457 C16.9145,195.1227 16.6805,192.8327 16.2165,191.8147 C15.8155,190.9357 15.8755,189.8097 15.9115,188.7987 C15.9185,188.5927 16.7565,188.2197 17.1585,188.2797 C17.5385,188.3347 17.9835,188.8017 18.1535,189.1937 C18.3245,189.5867 18.1905,190.1127 18.1905,190.5807 C18.2245,190.5807 18.2575,190.5817 18.2905,190.5817" id="Fill-11"></path>
                <path d="M40.2603,198.0109 C40.6003,197.3269 40.8363,196.6309 41.2513,196.0669 C41.8253,195.2869 42.7903,194.4899 43.5833,195.2259 C44.1243,195.7289 44.0333,196.9839 44.0723,197.9079 C44.0813,198.1539 43.5513,198.4779 43.2123,198.6649 C42.9023,198.8369 42.5043,198.8409 42.1673,198.9759 C41.7333,199.1509 41.3213,199.3819 40.8993,199.5889 C40.7023,199.1039 40.5063,198.6199 40.2603,198.0109" id="Fill-13"></path>
                <path d="M6.27,196.5231 C6.73,196.0131 7.103,195.2351 7.669,195.0511 C8.7,194.7151 9.18,195.4011 9.229,196.4501 C9.241,196.7201 9.528,197.0201 9.758,197.2291 C10.36,197.7721 10.347,198.2941 9.708,198.7341 C9.214,199.0741 8.607,199.5911 8.121,199.5231 C7.315,199.4091 6.564,197.8341 6.27,196.5231" id="Fill-15"></path>
                <path d="M21.9234,190.2717 C21.3734,191.0517 20.8264,191.910698 20.1694,192.6757 C20.0694,192.7927 19.2584,192.5867 19.1264,192.3417 C18.6134,191.3897 19.4694,189.0377 20.4554,188.5187 C20.6704,188.4047 21.1584,188.3697 21.2144,188.4687 C21.4694,188.9257 21.6144,189.4437 21.9234,190.2717" id="Fill-17"></path>
                <path d="M76.9331,210.8186 C76.9331,211.3086 76.9601,211.4136 76.9281,211.4936 C76.6941,212.0716 76.4591,213.1306 76.2041,213.1366 C75.0761,213.1646 75.4211,212.1746 75.3291,211.4746 C75.2671,210.9946 75.0611,210.5326 74.9171,210.0636 C74.7941,209.6606 74.5681,209.2516 74.5981,208.8606 C74.6091,208.7126 75.2531,208.4466 75.5311,208.5236 C75.9691,208.6436 76.5371,208.9216 76.6971,209.2866 C76.9471,209.8596 76.9011,210.5606 76.9331,210.8186" id="Fill-19"></path>
                <path d="M52.6558,190.4592 C53.1638,191.0782 54.0928,191.7162 54.0628,192.3082 C54.0338,192.9092 53.0738,193.9282 52.4968,193.9452 C51.1938,193.9842 51.7428,192.7242 51.7008,191.9922 C51.6738,191.5072 51.9758,191.0022 52.1318,190.5062 C52.3058,190.4912 52.4808,190.4752 52.6558,190.4592" id="Fill-21"></path>
                <path d="M72.604,213.6242 C72.083,213.9142 71.585,214.3732 71.032,214.4572 C70.084,214.6002 69.694,213.9512 69.746,213.0612 C69.797,212.1782 70.38,211.7452 71.166,211.9452 C71.707,212.0832 72.152,212.5952 72.64,212.9392 C72.628,213.1682 72.617,213.3962 72.604,213.6242" id="Fill-23"></path>
                <path d="M48.1597,198.238 C48.6487,197.905 49.0987,197.401 49.6357,197.281 C50.4437,197.101 51.0877,197.625 50.8857,198.454 C50.7577,198.977 50.1637,199.643 49.6757,199.745 C49.2517,199.833 48.6817,199.217 48.1777,198.912 L48.1597,198.238 Z" id="Fill-25"></path>
                <path d="M45.9624,197.8601 C46.0014,197.5431 45.9494,197.1201 46.1194,196.8241 C46.2694,196.5641 46.6664,196.4461 46.9544,196.2651 C47.1734,196.8601 47.5674,197.4591 47.5584,198.0501 C47.5504,198.5901 47.1044,199.1231 46.8514,199.6591 C46.5844,199.4481 46.2134,199.2891 46.0814,199.0141 C45.9314,198.7021 45.9954,198.2871 45.9624,197.8601" id="Fill-27"></path>
                <path d="M53.0786,200.4553 C52.4786,199.7133 51.9256,199.1543 51.9826,199.0803 C52.4716,198.4663 53.0716,197.9413 53.6386,197.3893 C53.8906,197.7643 54.4166,198.2193 54.3356,198.4983 C54.1676,199.0803 53.6786,199.5703 53.0786,200.4553" id="Fill-29"></path>
                <path d="M77.0484,219.8078 C77.9444,219.2868 78.4734,218.8318 79.0754,218.6928 C79.3524,218.6288 79.7714,219.1848 80.1254,219.4608 C79.5384,220.0118 78.9704,220.5888 78.3284,221.0668 C78.2764,221.1068 77.7274,220.4818 77.0484,219.8078" id="Fill-31"></path>
                <path d="M58.1021,94.0339 C57.7801,93.6009 57.3821,93.1629 57.4271,93.1119 C58.0031,92.4559 58.6421,91.8549 59.2651,91.2399 C59.4861,91.4819 59.9301,91.8949 59.8941,91.9419 C59.3861,92.6109 58.8131,93.2299 58.1021,94.0339" id="Fill-33"></path>
                <path d="M92.5376,144.5812 C91.2676,144.6372 89.9816,144.7452 90.0126,142.8652 C90.0146,142.7092 89.8626,142.5102 89.7266,142.3972 C88.0736,141.0262 87.2796,139.1412 86.5666,137.1992 C86.4896,136.9882 86.3446,136.7752 86.1746,136.6292 C84.6186,135.2942 83.9536,133.4422 83.2026,131.6292 C83.0506,131.2592 82.7346,130.9342 82.4346,130.6512 C81.5246,129.7952 80.7096,128.9352 81.0626,127.5092 C81.1256,127.2572 80.8456,126.9252 80.7376,126.6252 C80.4726,125.8852 80.2086,125.1442 79.9546,124.3982 C79.8236,124.0142 79.7786,123.5872 79.5866,123.2392 C79.0016,122.1752 78.3506,121.1462 77.7496,120.0902 C77.3956,119.4682 76.9786,118.8522 76.7896,118.1762 C76.6306,117.6092 76.7606,116.9602 76.7626,116.3482 C77.2596,116.5322 77.8456,116.6072 78.2356,116.9232 C78.9596,117.5102 79.5406,118.2692 80.2326,118.8982 C81.0446,119.6372 81.5546,120.4432 81.3836,121.6072 C81.3356,121.9312 81.4736,122.4502 81.7096,122.6172 C82.5426,123.2032 82.5996,123.9752 82.5116,124.8612 C82.4796,125.1712 82.5076,125.5612 82.6716,125.8062 C83.7406,127.4062 84.7856,128.9982 84.8426,131.0272 C84.8506,131.3102 85.0876,131.6492 85.3156,131.8532 C86.8446,133.2142 87.3506,135.1652 88.3376,136.8382 C89.1706,138.2532 90.5486,139.3532 91.7126,140.5662 C92.4596,141.3442 93.2846,142.0462 94.0156,142.8372 C94.3256,143.1732 94.4856,143.6492 94.7146,144.0602 C94.2706,144.2342 93.8366,144.4412 93.3796,144.5682 C93.1176,144.6402 92.8186,144.5812 92.5376,144.5812" id="Fill-35"></path>
                <path d="M94.8697,134.5656 C94.4087,134.3206 93.8897,134.2216 93.7347,133.9306 C93.1867,132.8976 92.7987,131.7816 92.2847,130.7286 C91.7477,129.6286 91.1367,128.5656 90.5547,127.4876 C90.0807,126.6096 89.5507,125.7566 89.1677,124.8416 C89.0827,124.6396 89.5547,123.9336 89.7017,123.9546 C90.2907,124.0356 91.1637,124.1486 91.3727,124.5446 C92.3207,126.3436 93.0097,128.2786 93.9397,130.0896 C94.3287,130.8466 95.1787,131.3556 95.6417,132.0886 C95.9247,132.5366 96.0117,133.2226 95.9147,133.7526 C95.8577,134.0626 95.2677,134.2746 94.8697,134.5656" id="Fill-37"></path>
                <path d="M132.2124,127.5554 C132.1424,129.7264 131.9834,129.8344 130.1994,129.9084 C128.6964,129.9714 127.1144,129.6054 125.7844,130.7994 C125.5444,131.0154 124.8044,130.6754 124.2944,130.5924 C124.4714,130.1624 124.5344,129.6014 124.8484,129.3334 C125.3474,128.9074 125.9904,128.6174 126.6134,128.3764 C127.8744,127.8894 129.1654,127.4824 130.4374,127.0234 C130.9114,126.8524 131.3674,126.6314 131.8324,126.4324 C132.0034,126.9374 132.1744,127.4424 132.2124,127.5554" id="Fill-39"></path>
                <path d="M44.5532,26.8889 C45.5322,26.8949 48.3582,28.9469 48.4812,29.6389 C48.6592,30.6399 47.8842,30.8849 47.2722,30.5519 C46.0322,29.8769 44.8092,29.3679 43.3692,29.3399 C43.1272,29.3359 42.6922,28.6319 42.7172,28.2779 C42.7472,27.8529 43.0902,27.3309 43.4552,27.0859 C43.8052,26.8509 44.3562,26.9169 44.5532,26.8889" id="Fill-41"></path>
                <path d="M45.3569,31.3933 C46.6129,31.4473 47.8139,31.5533 47.4989,32.8183 C47.2939,33.6403 46.2749,34.2593 45.6209,34.9693 C45.0099,34.2133 44.0709,33.5363 43.8699,32.6833 C43.5859,31.4873 44.6829,31.3503 45.3569,31.3933" id="Fill-43"></path>
                <path d="M101.148,80.6491 C101.148,81.2681 101.354,82.0041 101.088,82.4731 C100.83,82.9321 99.801,83.4981 99.61,83.3541 C98.947,82.8541 98.407,82.1151 98.008,81.3671 C97.794,80.9651 97.967,80.3581 97.964,79.8441 C97.957,77.8051 98.944,77.0631 100.886,77.7141 C101.885,78.0491 101.912,78.8391 101.538,79.6541 C101.391,79.9721 101.054,80.2021 100.804,80.4711 C100.919,80.5311 101.033,80.5901 101.148,80.6491" id="Fill-45"></path>
            </g>
        </g>
    </g>
</svg>