<?xml version="1.0" encoding="UTF-8"?>
<svg width="135px" height="185px" viewBox="0 0 135 185" version="1.1" xmlns="http://www.w3.org/2000/svg" xmlns:xlink="http://www.w3.org/1999/xlink">
    <!-- Generator: Sketch 60 (88103) - https://sketch.com -->
    <title>figure27</title>
    <desc>Created with Sketch.</desc>
    <defs>
        <polygon id="path-1" points="0.381752727 0.53085726 122.284484 0.53085726 122.284484 184 0.381752727 184"></polygon>
        <polygon id="path-3" points="0.1753 0.766 28.3485944 0.766 28.3485944 29.3584173 0.1753 29.3584173"></polygon>
        <polygon id="path-5" points="0.1008 0.162789722 4.094 0.162789722 4.094 4.7031 0.1008 4.7031"></polygon>
    </defs>
    <g id="页面-1" stroke="none" stroke-width="1" fill="none" fill-rule="evenodd">
        <g id="桌面端-HD备份-2" transform="translate(-1051.000000, -786.000000)">
            <g id="figure27" transform="translate(1051.000000, 785.000000)">
                <g id="编组" transform="translate(10.000000, 1.234000)">
                    <mask id="mask-2" fill="white">
                        <use xlink:href="#path-1"></use>
                    </mask>
                    <g id="Clip-2"></g>
                    <path d="M103.633,61.1917 C103.077,60.7547 102.648,60.2387 102.469,60.3137 C102.098,60.4697 101.735,60.9057 101.621,61.2987 C101.567,61.4897 102.127,62.1037 102.332,62.0697 C102.722,62.0037 103.055,61.6097 103.633,61.1917 L103.633,61.1917 Z M82.314,44.1887 C82.606,44.2387 82.898,44.2877 83.191,44.3367 C83.272,43.5187 83.354,42.7017 83.436,41.8837 L82.703,41.7817 C82.573,42.5847 82.444,43.3857 82.314,44.1887 L82.314,44.1887 Z M24.209,44.6507 C24.757,45.2477 25.305,45.8437 25.935,46.5307 C26.378,45.3197 26.064,44.9557 24.209,44.6507 L24.209,44.6507 Z M48.025,86.4417 C48.325,86.5027 48.625,86.5637 48.926,86.6247 L49.427,84.6557 C49.084,84.6187 48.466,84.4907 48.444,84.5587 C48.244,85.1667 48.15,85.8087 48.025,86.4417 L48.025,86.4417 Z M71.016,24.4777 C70.735,24.6107 70.452,24.7427 70.171,24.8757 C70.436,25.4097 70.677,25.9597 71,26.4557 C71.036,26.5117 71.536,26.2667 71.821,26.1617 C71.553,25.5997 71.284,25.0397 71.016,24.4777 L71.016,24.4777 Z M24.766,84.1347 L25.492,84.4047 L26.28,82.7987 C25.905,82.6627 25.531,82.5267 25.157,82.3897 C25.027,82.9717 24.896,83.5527 24.766,84.1347 L24.766,84.1347 Z M70.785,20.7547 C70.585,21.0047 70.385,21.2527 70.185,21.5017 C70.725,21.9727 71.264,22.4457 71.803,22.9187 C71.952,22.6097 72.304,22.1287 72.215,22.0227 C71.806,21.5437 71.274,21.1687 70.785,20.7547 L70.785,20.7547 Z M82.664,166.8997 C82.415,166.7927 82.167,166.6847 81.918,166.5787 C81.601,167.1497 81.282,167.7207 80.965,168.2927 L82.043,168.6967 C82.25,168.0967 82.457,167.4987 82.664,166.8997 L82.664,166.8997 Z M76.814,76.7317 C77.156,76.1167 77.532,75.6647 77.449,75.5507 C77.125,75.1127 76.655,74.7817 76.239,74.4107 C76.073,74.6937 75.708,75.0507 75.78,75.2447 C75.949,75.6947 76.328,76.0667 76.814,76.7317 L76.814,76.7317 Z M76.821,39.5537 C76.193,41.6117 76.284,41.7817 78.076,42.0367 C77.648,41.1877 77.33,40.5607 76.821,39.5537 L76.821,39.5537 Z M111.539,78.3027 L112.169,77.9957 C112.449,76.7827 111.417,76.3797 110.783,75.7327 C110.63,75.8227 110.478,75.9117 110.325,76.0017 C110.73,76.7687 111.135,77.5357 111.539,78.3027 L111.539,78.3027 Z M56.739,36.5327 C56.3,36.0517 56.01,35.7327 55.719,35.4147 C55.442,35.7647 54.966,36.1037 54.945,36.4687 C54.925,36.8087 55.389,37.1767 55.64,37.5327 C55.957,37.2437 56.274,36.9557 56.739,36.5327 L56.739,36.5327 Z M56.135,55.2207 C55.695,54.3377 55.256,53.4537 54.773,52.4817 C53.826,53.6847 53.92,53.9217 56.135,55.2207 L56.135,55.2207 Z M81.769,49.3777 C81.362,49.9987 80.9,50.3937 80.949,50.7087 C81.003,51.0497 81.535,51.5527 81.854,51.5497134 C82.167,51.5467 82.707,51.0067 82.722,50.6827 C82.737,50.3467 82.242,49.9867 81.769,49.3777 L81.769,49.3777 Z M57.398,178.2957 C55.89,179.3427 55.654,180.3587 56.589,181.5127 C56.858,180.4467 57.106,179.4567 57.398,178.2957 L57.398,178.2957 Z M64.115,88.7097 C63.546,88.3357 63.064,87.9667 63.03,88.0037 C62.618,88.4617 62.251,88.9647 61.941,89.4967 C61.908,89.5497 62.458,90.0617 62.509,90.0267 C62.999,89.6907 63.441,89.2827 64.115,88.7097 L64.115,88.7097 Z M53.632,39.0067 C52.72,38.5017 52.286,38.0817 51.85,38.0766871 C51.514,38.0737 51.173,38.5937 50.834,38.8807 C51.199,39.1237 51.543,39.5117 51.935,39.5667 C52.309,39.6197 52.731,39.3257 53.632,39.0067 L53.632,39.0067 Z M104.663,76.1117 C104.995,75.2617 105.318,74.8347 105.271,74.4517 C105.224,74.0647 104.811,73.7227 104.558,73.3617 C104.275,73.7667 103.819,74.1497 103.762,74.5847 C103.718,74.9217 104.173,75.3247 104.663,76.1117 L104.663,76.1117 Z M40.926,38.4667 C39.69,39.9617 39.759,41.0847 40.926,41.7867 L40.926,38.4667 Z M70.922,56.1617 C72.409,56.1507 73.345,54.6417 72.657,53.2887 C72.056,54.2837 71.512,55.1857 70.922,56.1617 L70.922,56.1617 Z M95.974,70.5087 C94.972,72.3217 95.37,73.0977 97.198,73.0657 C96.787,72.2077 96.437,71.4757 95.974,70.5087 L95.974,70.5087 Z M68.456,74.8617 C67.793,74.4317 67.401,73.9777 67.044,74.0047 C66.732,74.0287 66.202,74.6237 66.237,74.9087 C66.279,75.2487 66.801,75.7367 67.151,75.7697 C67.474,75.7997 67.846,75.3127 68.456,74.8617 L68.456,74.8617 Z M85.559,45.1357 C85.651,45.1827 85.742,45.2307 85.835,45.2777 C86.088,44.6057 86.417,43.9497 86.557,43.2547 C86.612,42.9837 86.276,42.5977 86.044,42.3257 C85.971,42.2397 85.524,42.2967 85.486,42.3867 C85.37,42.6637 85.318,42.9917 85.338,43.2947 C85.378,43.9107 85.481,44.5227 85.559,45.1357 L85.559,45.1357 Z M20.954,62.5507 C20.671,64.0267 21.19,64.6117 22.256,64.5577 C22.443,64.5487 22.608,64.1137 22.782,63.8757 L20.954,62.5507 Z M89.41,46.9387 C89.915,46.2647 90.404,45.8247 90.327,45.6757 C90.057,45.1537 89.593,44.7317 89.202,44.2717 C88.961,44.5757 88.49,44.9157 88.529,45.1777 C88.604,45.6697 88.974,46.1157 89.41,46.9387 L89.41,46.9387 Z M54.447,20.6857 C54.369,20.7797 54.292,20.8727 54.214,20.9657 C54.496,21.4897 54.73,22.0477 55.081,22.5177 C55.236,22.7227 55.673,22.8797 55.909,22.8107 C56.166,22.7367 56.475,22.3897 56.507,22.1297 C56.535,21.9077 56.258,21.5527 56.022,21.4117 C55.529,21.1157 54.976,20.9217 54.447,20.6857 L54.447,20.6857 Z M77.82,39.7057 C78.052,39.9417 78.283,40.1777 78.516,40.4147 C79.056,39.8447 79.61,39.2877 80.106,38.6827 C80.14,38.6417 79.75,38.2527 79.557,38.0257 C78.978,38.5857 78.399,39.1447 77.82,39.7057 L77.82,39.7057 Z M95.112,65.6887 L95.112,66.2937 L97.845,66.2937 C97.845,66.0917 97.844,65.8897 97.844,65.6887 L95.112,65.6887 Z M36.695,52.6587 C35.751,53.9227 36.136,55.2177 37.693,56.2797 C37.344,55.0157 37.055,53.9647 36.695,52.6587 L36.695,52.6587 Z M61.402,17.2767 C60.993,16.8487 60.767,16.6097 60.539,16.3717 C60.094,16.8207 59.592,17.2297 59.24,17.7437 C59.145,17.8837 59.501,18.3347 59.651,18.6417 C60.178,18.2307 60.704,17.8197 61.402,17.2767 L61.402,17.2767 Z M51.639,47.2067 L50.64,46.8897 C50.414,47.6577 50.188,48.4257 49.961,49.1937 C50.258,49.2407 50.779,49.3937 50.815,49.3167 C51.139,48.6367 51.376,47.9157 51.639,47.2067 L51.639,47.2067 Z M63.004,11.8007 C62.786,11.6917 62.569,11.5817 62.351,11.4707 C61.918,12.0897 61.442,12.6857 61.083,13.3447 C60.999,13.4997 61.254,13.9457 61.467,14.1137 C61.597,14.2157 62.102,14.1177 62.165,13.9817 C62.493,13.2777 62.734,12.5327 63.004,11.8007 L63.004,11.8007 Z M70.064,142.9847 C69.878,144.0457 69.717,144.9637 69.482,146.3067 C71.4,144.6447 71.491,144.0357 70.064,142.9847 L70.064,142.9847 Z M31.223,50.2287 C31.694,49.6777 32.129,49.2397 32.094,49.1977 C31.623,48.6367 31.092,48.1257 30.541,47.6407 C30.521,47.6227 29.933,48.1157 29.969,48.1867 C30.289,48.8087 30.691,49.3907 31.223,50.2287 L31.223,50.2287 Z M56.701,80.8637 C56.501,80.7727 56.302,80.6807 56.103,80.5897 C55.735,81.3317 55.366,82.0737 54.998,82.8147 C55.304,82.9297 55.745,83.2357 55.893,83.1297 C56.671,82.5727 57.217,81.8647 56.701,80.8637 L56.701,80.8637 Z M108.578,65.1437 C108.776,65.1367 108.974,65.1297 109.172,65.1247 C109.235,64.5287 109.486,63.8647 109.303,63.3567 C109.147,62.9217 108.493,62.6667 108.06,62.3317 C108.007,62.7947 107.844,63.2787 107.932,63.7137 C108.031,64.2127 108.353,64.6697 108.578,65.1437 L108.578,65.1437 Z M67.339,104.4877 C67.128,104.3947 66.917,104.3017 66.706,104.2087 C66.376,104.9567 66.046,105.7037 65.716,106.4507 C65.995,106.5497 66.383,106.8197 66.536,106.7217 C67.37,106.1887 67.852,105.4757 67.339,104.4877 L67.339,104.4877 Z M44.1,58.5197 C43.895,58.3317 43.689,58.1427 43.483,57.9547 C42.044,58.1457 41.854,59.3097 41.962,60.7357 C42.675,59.9977 43.388,59.2577 44.1,58.5197 L44.1,58.5197 Z M76.503,56.3837 C76.838,56.3327 77.172,56.2817 77.507,56.2297 C77.361,55.4027 77.214,54.5757 77.067,53.7477 C76.741,53.8687 76.128,54.0097 76.135,54.1057 C76.192,54.8707 76.365,55.6257 76.503,56.3837 L76.503,56.3837 Z M89.681,62.0407 C89.798,62.1667 89.916,62.2917 90.034,62.4177 C90.973,62.0947 91.911,61.7737 93.171,61.3407 C92.839,60.9967 92.306,60.2877 92.193,60.3487 C91.31,60.8297 90.507,61.4587 89.681,62.0407 L89.681,62.0407 Z M35.942,31.4917 C35.364,31.1507 34.897,30.7917 34.834,30.8517 C34.273,31.3947 33.772,32.0047 33.298,32.6287 C33.278,32.6557 33.833,33.2107 33.873,33.1807 C34.506,32.7177 35.099,32.1997 35.942,31.4917 L35.942,31.4917 Z M27.003,54.7477 C26.812,54.7477 26.62,54.7487 26.428,54.7487 L26.428,58.1277 C26.62,58.1287 26.812,58.1307 27.003,58.1327 L27.003,54.7477 Z M51.248,81.9437 C51.502,82.0927 51.756,82.2437 52.01,82.3937 C52.659,81.2667 53.309,80.1407 53.958,79.0137 C53.717,78.8717 53.475,78.7277 53.234,78.5857 C52.571,79.7047 51.91,80.8237 51.248,81.9437 L51.248,81.9437 Z M86.311,57.9647 C86.12,57.8827 85.929,57.8017 85.737,57.7197 C85.088,58.4977 84.439,59.2737 83.458,60.4477 C84.352,60.2867 85.08,60.3697 85.33,60.0627 C85.803,59.4817 86,58.6767 86.311,57.9647 L86.311,57.9647 Z M60.712,88.9477 C61.308,88.0407 61.74,87.5037 61.987,86.8937 C62.031,86.7817 61.32,86.3647 60.958,86.0877 C60.64,86.5967 60.23,87.0747 60.048,87.6287 C59.968,87.8727 60.353,88.2687 60.712,88.9477 L60.712,88.9477 Z M60.112,95.9637 C58.57,96.0397 58.224,96.6907 58.257,99.8267 C58.869,98.5507 59.482,97.2767 60.112,95.9637 L60.112,95.9637 Z M45.387,63.3657 C45.69,64.5357 47.029,65.1047 47.788,64.3747 C48.011,64.1607 48.093,63.6837 48.044,63.3577 C48.02,63.1977 47.538,62.9837 47.281,63.0057 C46.645,63.0607 46.019,63.2377 45.387,63.3657 L45.387,63.3657 Z M24.875,86.0867 C23.945,86.7537 23.411,87.4387 24.127,88.3567 C24.304,88.5837 25.181,88.6177 25.391,88.4027 C26.223,87.5527 25.715,86.8297 24.875,86.0867 L24.875,86.0867 Z M71.039,28.0587 C70.653,28.8847 70.28,29.3157 70.378,29.5427 C70.639,30.1457 71.104,30.6617 71.487,31.2127 C71.763,30.8767 72.324,30.4627 72.258,30.2207 C72.089,29.6057 71.639,29.0687 71.039,28.0587 L71.039,28.0587 Z M67.619,53.8917 C68.166,54.3057 68.643,54.7147 68.675,54.6817 C69.317,54.0407 69.915,53.3537 70.477,52.6407 C70.503,52.6077 69.952,52.0327 69.922,52.0537 C69.2,52.5837 68.513,53.1597 67.619,53.8917 L67.619,53.8917 Z M36.851,42.5737 C36.246,42.0627 35.767,41.4857 35.615,41.5617 C35.086,41.8277 34.67,42.3187 34.212,42.7247 C34.537,43.0907 34.963,43.8117 35.168,43.7537 C35.701,43.6027 36.138,43.1097 36.851,42.5737 L36.851,42.5737 Z M75.31,57.1597 C74.908,56.5067 74.598,56.0037 74.288,55.5007 C73.905,55.9647 73.205,56.4457 73.228,56.8887 C73.251,57.3527 73.97,57.7817 74.385,58.2247 C74.659,57.9087 74.934,57.5917 75.31,57.1597 L75.31,57.1597 Z M76.342,26.6787 C76.517,26.6657 76.692,26.6517 76.866,26.6387 C77.067,26.2057 77.48,25.7357 77.413,25.3467 C77.327,24.8447 76.86,24.4087 76.557,23.9437 C76.237,24.3917 75.708,24.8197 75.66,25.2957 C75.616,25.7287 76.094,26.2147 76.342,26.6787 L76.342,26.6787 Z M79.912,60.4947 C79.507,61.4197 79.155,61.9387 79.085,62.4947 C79.047,62.7947 79.487,63.1557 79.711,63.4887 C80.161,62.9817 80.696,62.5187 81.005,61.9377 C81.091,61.7767 80.51,61.2597 79.912,60.4947 L79.912,60.4947 Z M54.261,70.5637 C52.897,70.6237 51.922,70.6667 50.779,70.7157 C51.931,72.8087 52.793,72.8167 54.261,70.5637 L54.261,70.5637 Z M77.706,64.2837 C77.238,63.6057 76.956,63.0887 76.568,62.6697 C76.271,62.3487 75.864,62.0757 75.455,61.9497 C75.34,61.9147 74.818,62.5357 74.873,62.7547 C74.996,63.2347 75.273,63.8547 75.665,64.0437 C76.202,64.2997 76.906,64.2097 77.706,64.2837 L77.706,64.2837 Z M80.154,36.3717 C80.271,36.1477 80.387,35.9237 80.502,35.7007 C80.36,34.6427 79.724,34.1107 78.627,34.3547 C78.296,34.4277 78.067,34.9537 77.79,35.2707 C78.578,35.6377 79.366,36.0047 80.154,36.3717 L80.154,36.3717 Z M73.717,25.3647 L73.254,25.4937 C73.2,26.1237 73.019,26.7777 73.134,27.3757 C73.225,27.8437 73.65,28.2737 74,28.6507 C74.089,28.7457 74.66,28.6087 74.677,28.5167 C74.771,28.0047 74.91,27.4237 74.751,26.9637 C74.548,26.3817 74.074,25.8937 73.717,25.3647 L73.717,25.3647 Z M40.166,55.5977 C39.82,55.6967 39.474,55.7957 39.127,55.8937 C39.375,56.7487 39.622,57.6027 39.869,58.4577 C40.258,58.3427 40.647,58.2287 41.035,58.1157 C40.745,57.2767 40.456,56.4377 40.166,55.5977 L40.166,55.5977 Z M77.42,106.7327 C78.012,108.3107 78.556,108.7887 79.46,107.9847 C79.873,107.6187 80.106,107.0487 80.42,106.5727 C79.518,106.6207 78.616,106.6697 77.42,106.7327 L77.42,106.7327 Z M70.309,175.2087 C70.258,174.2057 70.206,173.2017 70.155,172.1987 C69.792,172.3437 69.246,172.3867 69.099,172.6517 C68.528,173.6737 68.599,174.6297 70.309,175.2087 L70.309,175.2087 Z M24.202,58.8787 C23.959,58.7977 23.717,58.7157 23.474,58.6347 C22.961,59.3537 22.448,60.0727 21.75,61.0527 C22.517,61.2577 23.056,61.4027 23.595,61.5467 C23.798,60.6577 24,59.7687 24.202,58.8787 L24.202,58.8787 Z M39.364,48.5807 C38.465,47.9607 38.058,47.6187 38.016,47.6587 C37.335,48.3097 36.694,49.0047 36.087,49.7247 C36.069,49.7477 36.675,50.4137 36.743,50.3717 C37.569,49.8717 38.348,49.2957 39.364,48.5807 L39.364,48.5807 Z M84.482,66.5457 C84.332,66.5797 84.183,66.6127 84.033,66.6467 C84.552,67.6577 85.071,68.6687 85.754,69.9997 C86.387,69.1187 86.812,68.5287 87.058,68.1857 C86.121,67.5887 85.302,67.0667 84.482,66.5457 L84.482,66.5457 Z M99.238,60.6337 C98.912,61.5117 98.587,62.3897 98.261,63.2677 C98.696,63.3467 99.29,63.6467 99.541,63.4667 C100.629,62.6907 100.322,61.7387 99.238,60.6337 L99.238,60.6337 Z M66.034,11.3427 C65.921,11.3477 65.808,11.3527 65.694,11.3577 C65.073,12.5067 64.417,13.6397 63.868,14.8227 C63.782,15.0057 64.185,15.4167 64.361,15.7217 C64.63,15.5227 64.994,15.3797 65.149,15.1127 C65.498,14.5067 65.843,13.8647 66.005,13.1927 C66.147,12.6077 66.034,11.9617 66.034,11.3427 L66.034,11.3427 Z M74.898,117.8217 C75.205,116.6267 75.481,115.5527 75.757,114.4807 C75.472,114.4107 75.078,114.1837 74.92,114.2947 C73.766,115.1007 73.985,116.2607 74.24,117.4027 C74.257,117.4747 74.409,117.5157 74.898,117.8217 L74.898,117.8217 Z M41.648,45.2877 C41.066,44.6297 40.709,44.2277 40.353,43.8267 C39.98,44.2107 39.294,44.6087 39.311,44.9747 C39.334,45.4857 39.883,45.9727 40.207,46.4697 C40.609,46.1397 41.01,45.8107 41.648,45.2877 L41.648,45.2877 Z M64.029,78.4747 C64.583,77.7427 65.074,77.2677 65.304,76.6887 C65.378,76.5017 64.77,76.0427 64.474,75.7087 C63.961,76.2037 63.408,76.6687 62.985,77.2297 C62.927,77.3057 63.512,77.8687 64.029,78.4747 L64.029,78.4747 Z M86.758,53.6257 L85.99,53.7517 C86.153,54.7647 86.265,55.7917 86.517,56.7817 C86.568,56.9807 87.144,57.0867 87.492,57.1357 C87.561,57.1467 87.831,56.6637 87.775,56.4797 C87.478,55.5147 87.105,54.5747 86.758,53.6257 L86.758,53.6257 Z M58.738,64.2257 C58.961,63.3227 59.231,62.5517 59.307,61.7627 C59.339,61.4237 58.968,61.0457 58.779,60.6857 C58.426,60.8857 57.905,60.9997 57.747,61.3017 C57.121,62.4987 57.418,63.4727 58.738,64.2257 L58.738,64.2257 Z M89.967,74.6377 C90.182,74.0987 90.491,73.4887 90.66,72.8427 C90.793,72.3357 90.837,71.7667 90.738,71.2597 C90.707,71.0977 90.095,71.0487 89.748,70.9487 C89.529,71.9817 89.283,73.0107 89.115,74.0527 C89.089,74.2187 89.404,74.4447 89.57,74.6337 C89.595,74.6617 89.677,74.6377 89.967,74.6377 L89.967,74.6377 Z M62.537,91.3767 C61.891,92.0017 61.44,92.4387 60.987,92.8757 C61.329,93.2107 61.772,93.8847 61.993,93.8187 C62.725,93.6007 63.377,93.1147 64.059,92.7317 C63.628,92.3477 63.197,91.9637 62.537,91.3767 L62.537,91.3767 Z M90.199,33.7807 C90.645,36.0967 91.566,36.6367 94.387,36.4767 C92.834,35.4777 91.517,34.6297 90.199,33.7807 L90.199,33.7807 Z M72.907,82.9207 C71.314,83.9097 71.696,85.7187 74.033,87.6387 C73.633,85.9597 73.286,84.5077 72.907,82.9207 L72.907,82.9207 Z M34.169,49.7527 C33.933,49.8747 33.616,49.9347 33.577,50.0747 C33.299,51.0507 33.035,52.0367 32.885,53.0377 C32.862,53.1877 33.44,53.5327 33.776,53.5977 C34.024,53.6457 34.564,53.4047 34.575,53.2577 C34.663,52.2337 34.664,51.2007 34.644,50.1707 C34.641,50.0367 34.353,49.9077 34.169,49.7527 L34.169,49.7527 Z M55.33,42.2957 C54.952,43.5047 54.395,44.5517 55.495,45.4227 C55.68,45.5697 56.589,45.2547 56.682,44.9867 C57.07,43.8657 56.661,42.9707 55.33,42.2957 L55.33,42.2957 Z M73.001,20.3027 C72.897,19.5477 72.931,18.9737 72.72,18.5107 C72.508,18.0457 71.947,17.2997 71.726,17.3607 C71.152,17.5167 70.68,18.0497 70.167,18.4317 C70.514,18.7967 70.812,19.2347 71.221,19.5047 C71.696,19.8177 72.267,19.9847 73.001,20.3027 L73.001,20.3027 Z M60.304,82.8787 C57.097,83.1957 57.444,85.4867 56.789,87.1127 C56.93,87.2087 57.07,87.3027 57.21,87.3977 C58.171,85.9937 59.132,84.5887 60.304,82.8787 L60.304,82.8787 Z M60.761,70.5017 C60.015,69.8217 59.536,69.1207 59.266,69.1937 C58.625,69.3657 58.083,69.9047 57.501,70.2957 C57.98,70.7327 58.401,71.3827 58.956,71.5307 C59.332,71.6307 59.897,71.0237 60.761,70.5017 L60.761,70.5017 Z M47.473,57.3817 C48.277,56.4367 49.052,55.5967 49.723,54.6807 C49.882,54.4627 49.809,53.8897 49.621,53.6597 C49.433,53.4267 48.929,53.2627 48.634,53.3407 C47.768,53.5707 46.976,56.5247 47.473,57.3817 L47.473,57.3817 Z M96.921,56.3277 C95.706,57.0597 94.688,57.6337 93.725,58.2907 C93.535,58.4197 93.42,58.9447 93.529,59.1477 C93.648,59.3667 94.068,59.5227 94.36,59.5287 C95.397,59.5467 96.788,57.9957 96.921,56.3277 L96.921,56.3277 Z M71.32,69.1697 C70.615,68.8607 70.13,68.5317 69.616,68.4777 C69.4,68.4567 69.078,68.9907 68.884,69.3187 C68.579,69.8337 68.296,70.3717 68.094,70.9307 C67.996,71.2047 68.022,71.5887 68.147,71.8467 C68.213,71.9827 68.746,72.0817 68.846,71.9797 C69.516,71.2927 70.127,70.5457 71.32,69.1697 L71.32,69.1697 Z M72.226,47.7197 C72.056,47.7597 71.885,47.8007 71.715,47.8407 C70.983,48.0027 70.233,48.1077 69.528,48.3477 C69.232,48.4487 68.884,48.8067 68.831,49.0967 C68.775,49.4067 69.08,50.0827 69.155,50.0717 C70.052,49.9497 71.024,49.8867 71.783,49.4627 C72.143,49.2627 72.091,48.3247 72.226,47.7197 L72.226,47.7197 Z M66.971,62.8117 C65.587,63.4057 64.315,65.4977 64.372,67.0857 C65.801,66.6857 67.371,64.1027 66.971,62.8117 L66.971,62.8117 Z M55.197,64.0817 L55.197,69.5847 C56.29,68.4557 56.407,65.5267 55.197,64.0817 L55.197,64.0817 Z M51.069,64.1297 C51.547,64.7237 51.859,65.1107 52.169,65.4967 C52.814,64.6227 53.499,63.7727 54.058,62.8467 C54.144,62.7057 53.665,62.1937 53.402,61.8927 C53.339,61.8217 53.023,61.8467 52.943,61.9357 C52.34,62.6057 51.768,63.3027 51.069,64.1297 L51.069,64.1297 Z M57.452,174.5847 C57.036,174.0657 56.804,173.7777 56.572,173.4897 C55.86,174.1107 55.148,174.7317 54.436,175.3527 C54.88,175.8277 55.324,176.3017 55.77,176.7767 C56.3,176.0857 56.83,175.3947 57.452,174.5847 L57.452,174.5847 Z M74.515,52.9047 C74.765,52.8647 75.014,52.8247 75.264,52.7837 C75.148,51.9547 75.136,51.0887 74.875,50.3067 C74.715,49.8257 74.175,49.4697 73.805,49.0577 C73.567,49.6777 73.028,50.3757 73.162,50.9007 C73.35,51.6357 74.039,52.2427 74.515,52.9047 L74.515,52.9047 Z M3.749,73.2717 C4.545,71.9887 5.222,70.9817 5.783,69.9157 C5.891,69.7117 5.619,69.1827 5.378,68.9627 C5.191,68.7927 4.724,68.7497 4.476,68.8607 C3.73,69.1957 3.052,72.0657 3.749,73.2717 L3.749,73.2717 Z M82.92,102.1517 C81.934,100.7027 80.973,99.2357 79.936,97.8227 C79.768,97.5927 79.266,97.6087 78.917,97.5107 C78.844,97.6387 78.771,97.7677 78.697,97.8957 C80.698,98.8287 79.804,102.0797 82.92,102.1517 L82.92,102.1517 Z M76.2,47.7567 C77.085,49.4697 77.831,50.9157 78.656,52.5127 C79.919,50.2047 78.902,48.1547 76.2,47.7567 L76.2,47.7567 Z M61.637,76.3457 C62.589,74.3137 62.359,73.2937 60.736,72.5687 C60.316,72.3807 59.703,72.5837 59.198,72.6947 C59.149,72.7057 59.106,73.4347 59.28,73.6567 C59.982,74.5477 60.77,75.3717 61.637,76.3457 L61.637,76.3457 Z M77.137,20.2437 C77.246,21.2367 77.129,22.0557 77.454,22.6227 C77.792,23.2107 78.522,23.6227 79.162,23.9477 C79.299,24.0167 80.112,23.3097 80.061,23.0857 C79.927,22.4957 79.587,21.8727 79.148,21.4537 C78.654,20.9827 77.959,20.7207 77.137,20.2437 L77.137,20.2437 Z M62.39,25.8127 C62.707,25.8867 63.011,26.0617 63.22,25.9837 C63.594,25.8437 63.995,25.6127 64.219,25.2997 C64.353,25.1137 64.259,24.4897 64.116,24.4317 C63.777,24.2937 63.348,24.3687 62.954,24.3667 C62.507,24.3657 62.029,24.2797 61.618,24.4057 C61.136,24.5527 60.502,24.7897 60.322,25.1707 C60.148,25.5407 60.343,26.2247 60.606,26.6177 C60.825,26.9467 61.376,27.0527 61.857,27.2967 C62.081,26.6717 62.225,26.2717 62.39,25.8127 L62.39,25.8127 Z M53.388,55.3667 C52.901,56.3377 52.806,57.2297 53.896,57.5567 C55.021,57.8947 54.934,58.5747 54.951,59.4447 C54.961,59.9667 55.335,60.4827 55.546,61.0017 C55.979,60.6687 56.445,60.3697 56.83,59.9887 C57.048,59.7737 57.132,59.4237 57.215,59.2587 C55.918,57.9407 54.7,56.7027 53.388,55.3667 L53.388,55.3667 Z M73.732,30.9647 C75.896,33.9037 77.093,34.1017 78.832,31.8757 C78.01,31.6307 77.002,31.6197 76.473,31.1097 C75.53,30.2057 74.778,30.3777 73.732,30.9647 L73.732,30.9647 Z M78.679,90.2947 C78.812,90.3047 78.945,90.3167 79.077,90.3277 C79.028,89.8717 79.104,89.3517 78.908,88.9707 C77.859,86.9227 77.944,86.4847 79.668,85.2437 C79.928,85.0567 80.161,84.5867 80.116,84.2917 C80.072,84.0077 79.683,83.6357 79.387,83.5717 C79.083,83.5057 78.5,83.6717 78.4,83.8977 C77.749,85.3627 77.196,86.8727 76.733,88.0557 C77.532,88.9757 78.106,89.6347 78.679,90.2947 L78.679,90.2947 Z M67.158,26.6197 L67.164,26.6197 C67.164,26.0137 67.272,25.3797 67.123,24.8137 C67.035,24.4797 66.552,24.0517 66.228,24.0357 C65.932,24.0207 65.362,24.4887 65.345,24.7697 C65.273,25.9777 65.289,27.2057 65.437,28.4057 C65.476,28.7267 66.091,28.9777 66.443,29.2607 C66.681,28.9337 67.047,28.6357 67.128,28.2737 C67.245,27.7467 67.158,27.1727 67.158,26.6197 L67.158,26.6197 Z M67.267,47.0917 C66.085,47.1867 65.231,47.4647 65.231,48.8347 C65.231,49.1397 64.772,49.4217 64.634,49.7577 C64.461,50.1837 64.402,50.6567 64.292,51.1077 C64.846,51.2247 65.654,51.6237 65.901,51.4007 C66.464,50.8907 66.876,50.1177 67.116,49.3757 C67.327,48.7207 67.224,47.9637 67.267,47.0917 L67.267,47.0917 Z M103.171,171.0667 C102.958,170.9517 102.728,170.7747 102.686,170.8117 C101.162,172.1527 99.649,173.5057 98.17,174.8947 C98.087,174.9727 98.252,175.4197 98.407,175.6047 C98.498,175.7127 98.911,175.7327 98.992,175.6357 C100.292,174.0787 102.732,173.5837 103.171,171.0667 L103.171,171.0667 Z M98.928,170.8767 C98.17,171.1677 97.687,171.4947 97.188,171.5197 C94.864,171.6417 94.57,173.6077 93.849,175.1497 C93.714,175.4377 94.004,175.9247 94.098,176.3207 C94.481,176.1877 95.012,176.1717 95.221,175.9047 C96.425,174.3627 97.552,172.7617 98.928,170.8767 L98.928,170.8767 Z M78.053,79.7117 C76.749,80.8877 76.06,80.0937 75.271,79.2797 C74.976,78.9757 74.385,78.9587 73.929,78.8107 C73.89,79.2547 73.797,79.7037 73.825,80.1437 C73.865,80.7747 73.985,81.4017 74.086,82.0267 C74.145,82.3887 74.236,82.7467 74.321,83.1507 C75.005,82.6847 75.55,82.0257 75.915,82.1137 C78.166,82.6547 77.53,80.7697 78.053,79.7117 L78.053,79.7117 Z M33.113,46.4967 C33.294,46.4067 33.952,46.2227 34.378,45.8017 C34.58,45.6027 34.498,44.6997 34.266,44.5507 C33.398,43.9967 32.405,43.6397 31.476,43.1757 C30.472,42.6747 30.007,43.0987 29.891,44.0797 C29.732,45.4137 30.966,46.4867 33.113,46.4967 L33.113,46.4967 Z M63.155,18.8807 C64.62,19.2897 66.124,18.1157 66.059,20.1517 C66.048,20.4987 66.382,20.8577 66.557,21.2107 C66.783,20.8387 67.068,20.4897 67.227,20.0897 C67.51,19.3787 67.668,18.6157 67.976,17.9177 C68.148,17.5287 68.814,17.1287 68.739,16.9057 C68.564,16.3787 68.079,15.9527 68.01,15.8627 C66.722,16.4477 65.807,16.7787 64.983,17.2647 C64.406,17.6057 63.955,18.1587 63.155,18.8807 L63.155,18.8807 Z M28.179,71.2927 C28.054,71.1307 27.788,70.5517 27.338,70.2957 C27.075,70.1447 26.315,70.3827 26.14,70.6687 C25.842,71.1547 25.524,72.0247 25.755,72.3627 C26.386,73.2847 26.396,73.9387 25.756,74.8587 C25.526,75.1907 25.94,75.9717 26.06,76.5467 C26.568,76.1847 27.382,75.9137 27.524,75.4407 C27.883,74.2477 27.941,72.9627 28.179,71.2927 L28.179,71.2927 Z M65.445,57.0267 C64.669,56.0987 63.85,55.1187 63.01,54.1147 C62.654,54.3277 62.182,54.5937 61.726,54.8877 C61.32,55.1497 60.934,55.4407 60.538,55.7187 C60.987,56.0707 61.454,56.7417 61.882,56.7167 C63.534,56.6257 64.219,57.7907 64.966,58.8467 C65.893,60.1557 65.845,60.1887 67.237,59.4197 C66.66,58.6497 66.078,57.8727 65.445,57.0267 L65.445,57.0267 Z M23.61,99.6727 C23.146,100.1927 22.556,100.5727 22.415,101.0787 C22.225,101.7597 22.359,102.5407 22.434,103.2707 C22.44,103.3237 23.286,103.4627 23.424,103.2967 C23.836,102.7987 24.188,102.2007 24.377,101.5847 C24.528,101.0917 24.362,100.5117 24.415,99.9787 C24.524,98.9017 24.744,97.8317 24.788,96.7537 C24.803,96.4067 24.475,95.9627 24.175,95.7197 C24.015,95.5897 23.499,95.6927 23.288,95.8667 C22.101,96.8417 22.157,98.5817 23.61,99.6727 L23.61,99.6727 Z M91.29,175.6987 C91.551,175.7067 91.813,175.7137 92.073,175.7217 C92.12,174.9197 92.527,173.7727 92.148,173.3747 C90.861,172.0207 91.494,170.9097 92.236,169.7577 C92.571,169.2367 93.126,168.8607 93.527,168.3737 C93.983,167.8197 94.378,167.2147 95.026,166.3207 C93.195,166.5467 90.308,169.8657 88.984,172.6067 C88.364,172.7427 87.821,172.8617 87.279,172.9807 C87.358,173.2277 87.454,173.6927 87.514,173.6887 C88.118,173.6417 88.719,173.5247 89.316,173.4077 C89.408,173.3887 89.47,173.2487 89.561,173.1887 C90.583,172.5247 91.038,172.7687 91.129,174.0157 C91.17,174.5777 91.236,175.1377 91.29,175.6987 L91.29,175.6987 Z M62.112,39.4977 C63.167,39.4757 64.012,39.3157 64.456,40.6007 C64.709,41.3307 65.425,41.9217 66.004,42.5027 C66.167,42.6657 66.71,42.7007 66.858,42.5607 C67.026,42.4017 67.081,41.8927 66.949,41.6897 C66.295,40.6777 65.559,39.7197 64.861,38.7367 C64.597,38.3647 64.275,38.0037 64.131,37.5857 C63.978,37.1347 64.002,36.6237 63.949,36.1387 C63.479,36.3427 62.881,36.4307 62.564,36.7757 C62.015,37.3727 61.639,38.1277 61.191,38.8157 L61.542,39.0737 C61.094,39.3337 60.647,39.5937 60.02,39.9577 C60.651,40.6777 61.15,41.2487 61.98,42.1967 C62.038,41.0127 62.069,40.3787 62.112,39.4977 L62.112,39.4977 Z M112.854,68.0387 L113.284,67.4817 C113.235,66.8767 113.378,66.1227 113.067,65.7167 C112.853,65.4377 111.656,65.4387 111.52,65.6737 C111.243,66.1517 111.159,66.9907 111.405,67.4707 C111.95,68.5367 112.747,69.4727 113.442,70.4627 C113.63,70.3067 113.82,70.1517 114.008,69.9967 C113.737,70.4317 113.465,70.8677 113.223,71.2577 C114.366,73.0027 115.089,72.1797 115.639,70.9677 C119.569,72.3657 121.124,72.9027 120.916,71.2877 C118.076,70.1427 115.465,69.0907 112.854,68.0387 L112.854,68.0387 Z M68.139,44.3307 C68.29,44.3947 68.442,44.4607 68.593,44.5247 C68.918,44.2117 69.192,43.7777 69.579,43.6107 C70.243,43.3257 70.971,43.1077 71.688,43.0507 C72.31,43.0027 72.952,43.2157 73.587,43.3127 C73.632,43.1547 73.677,42.9957 73.723,42.8367 C73.959,43.0487 74.166,43.3647 74.442,43.4447 C74.684,43.5137 75.141,43.4017 75.248,43.2187 C75.362,43.0267 75.24,42.6217 75.106,42.3707 C74.735,41.6777 74.303,41.0177 73.83,40.2367 C73.451,40.5517 72.772,41.0837 72.131,41.6587 C71.141,42.5467 70.429,42.2247 69.929,41.1567 C69.04,39.2607 68.202,37.3417 67.317,35.4457 C67.155,35.0997 66.864,34.8127 66.363,34.1307 C65.777,36.4707 66.836,38.0397 67.574,39.4357 C68.433,41.0587 69.998,42.3197 68.139,44.3307 L68.139,44.3307 Z M71.713,37.2187 C70.227,35.5877 70.354,35.1817 72.227,34.3497 C72.845,34.0757 73.304,33.4447 74.124,32.7217 C72.278,32.5467 71.029,32.3667 69.779,32.3367 C69.246,32.3237 68.548,32.4777 68.227,32.8307 C68.009,33.0697 68.175,33.8687 68.412,34.2757 C69.399,35.9717 70.477,37.6157 71.789,39.7037 C72.959,38.3537 73.982,37.2477 74.896,36.0577 C75.075,35.8257 74.837,35.2717 74.792,34.8657 C74.392,34.9687 73.888,34.9557 73.613,35.1997 C72.926,35.8087 72.343,36.5347 71.713,37.2187 L71.713,37.2187 Z M67.699,161.5007 C65.745,162.6127 65.616,163.5347 66.858,164.8887 C67.294,165.3657 67.907,165.9767 67.893,166.5107 C67.855,167.8817 68.95,169.2367 67.97,170.6307 C67.876,170.7647 68.162,171.1667 68.284,171.4757 C69.669,171.0287 69.815,170.0177 69.759,168.9207 C69.685,167.4267 69.659,166.0407 71.53,165.4647 C71.863,165.3627 72.2,164.2457 72.03,163.7837 C71.797,163.1497 71.141,162.5937 70.531,162.2317 C70.374,162.1377 69.673,162.8527 69.298,163.2647 C69.009,163.5827 68.838,164.0067 68.36,164.8147 C68.08,163.4117 67.907,162.5457 67.699,161.5007 L67.699,161.5007 Z M32.789,65.8077 C32.812,65.9777 32.834,66.1467 32.857,66.3167 C33.408,66.3917 33.96,66.5207 34.513,66.5317 C35.616,66.5527 36.731,66.4077 37.821,66.5177 C39.275,66.6657 40.713,66.9797 42.154,67.2467 C43.165,67.4337 44.174,67.6437 45.177,67.8767 C46.957,68.2907 48.608,69.4397 50.587,68.7497 C50.894,68.6417 51.32,68.8837 51.693,68.9537 C52.094,69.0297 52.498,69.1227 52.902,69.1277 C52.957,69.1277 53.137,68.4987 53.057,68.4387 C52.687,68.1707 52.263,67.8897 51.825,67.8197 C51.02,67.6887 50.163,67.8207 49.378,67.6337 C46.914,67.0477 44.483,66.3317 42.02,65.7427 C41.309,65.5727 40.415,65.9017 39.811,65.5957 C37.578,64.4667 35.394,65.6677 33.197,65.5487 C33.067,65.5427 32.926,65.7177 32.789,65.8077 L32.789,65.8077 Z M56.438,72.0327 C56.239,72.1187 56.155,72.1287 56.142,72.1647 C56.029,72.4677 55.922,72.7747 55.823,73.0847 C55.279,74.7957 53.564,75.3297 52.121,74.2237 C51.859,74.0217 51.668,73.6947 51.38,73.5607 C50.707,73.2477 49.997,73.0097 49.29,72.7777 C49.264,72.7687 49.001,73.2597 49.042,73.2957 C49.604,73.7847 50.138,74.3777 50.799,74.6627 C52.06,75.2077 53.627,75.2777 54.654,76.0767 C56.318,77.3707 58.595,77.8917 59.666,79.9887 C59.909,80.4637 60.659,80.6537 61.094,81.0637 C61.913,81.8377 62.962,82.5477 63.389,83.5167 C64.037,84.9887 65.805,86.2547 67.954,85.9347 C67.486,85.3957 67.19,84.9187 66.771,84.6027 C66.12,84.1137 65.247,83.8627 64.72,83.2827 C63.71,82.1707 63.036,80.7217 61.937,79.7297 C59.771,77.7747 57.572,75.9267 57.037,72.8317 C56.985,72.5277 56.627,72.2757 56.438,72.0327 L56.438,72.0327 Z M30.116,59.2547 C29.131,59.5837 28.043,60.1507 26.91,60.2667 C25.677,60.3927 25.654,60.7347 25.861,61.8387 C26.153,63.3947 27.54,64.8037 26.475,66.6367 C26.232,67.0567 26.843,68.1137 27.284,68.7127 C27.435,68.9167 28.7,68.6787 28.721,68.5367 C28.829,67.7947 28.715,67.0147 28.65,66.2517 C28.607,65.7617 28.278,65.0317 28.486,64.8307 C29.461,63.8837 29.114,63.2377 28.287,62.4707 C28.039,62.2417 28.074,61.7047 27.98,61.3087 C28.391,61.2627 28.939,61.0237 29.192,61.2017 C31.066,62.5257 33.195,61.7327 35.189,61.9927 C35.557,62.0407 35.973,61.7157 36.367,61.5647 C36.154,61.1597 36.046,60.5827 35.711,60.3797 C34.247,59.4937 32.733,58.6887 31.206,57.9127 C30.579,57.5937 29.876,57.4237 29.207,57.1857 C29.5,57.8537 29.794,58.5217 30.116,59.2547 L30.116,59.2547 Z M69.674,155.5787 C69.681,155.3897 69.688,155.2027 69.694,155.0137 C69.118,155.0137 68.513,154.8977 67.975,155.0387 C66.807,155.3427 66.241,154.8907 66.175,153.7747 C66.132,153.0577 65.977,152.1597 66.321,151.6437 C67.489,149.9007 67.095,148.0137 67.152,146.1557 C67.162,145.7787 67.289,145.4037 67.385,145.0327 C67.873,143.1327 68.638,141.2537 68.769,139.3297 C68.857,138.0357 68.284,136.7947 70.052,136.2757 C70.254,136.2167 70.337,135.7057 70.448,135.3937 C70.985,133.8927 70.322,132.8657 69.085,132.1987 C69.354,131.4527 69.811,130.8127 69.745,130.2317 C69.602,128.9527 70.243,128.5717 71.185,127.8777 C72.169,127.1507 72.666,125.6727 73.142,124.4337 C73.223,124.2227 72.124,123.5597 71.281,122.8707 C71.351,123.1347 71.28,122.9777 71.273,122.8167 C71.205,121.3997 71.758,120.0257 70.647,118.5907 C69.819,117.5207 70.726,115.7017 71.61,115.9447 C73.273,116.4027 73.163,115.5107 73.176,114.3617 C73.183,113.6947 73.53,112.5297 73.893,112.4597 C75.041,112.2377 74.977,111.5807 74.95,110.7667 C74.877,108.4747 76.252,106.7387 77.24,104.8497 C77.645,104.0777 78.271,103.2167 78.202,102.4487 C78.088,101.1447 76.977,99.7607 77.235,98.6287 C77.667,96.7287 76.768,96.1177 75.462,95.4317 C75.181,95.2847 75.036,94.8797 74.806,94.5597 C75.093,94.3267 75.288,94.2107 75.426,94.0457 C75.718,93.6947 75.994,93.3277 76.232,92.9387 C76.253,92.9047 75.849,92.5257 75.812,92.5507 C75.433,92.8147 74.903,93.0647 74.775,93.4407 C74.493,94.2677 74.016,94.9207 73.273,94.3067 C72.719,93.8487 72.145,92.6437 72.38,92.1667 C72.834,91.2497 72.726,90.6047 72.276,89.8657 C71.184,88.0717 71.097,86.1417 71.226,84.0957 C71.303,82.8887 70.872,81.6517 70.686,80.4247 C70.647,80.1687 70.587,79.8557 70.691,79.6447 C71.331,78.3437 72.165,77.1177 72.649,75.7647 C73.278,74.0027 73.871,72.1667 74.04,70.3207 C74.159,69.0227 73.533,67.6587 73.26,66.3207 C72.87,64.4137 72.499,62.5027 72.115,60.5927 C72.094,60.4887 72.044,60.3667 71.967,60.2987 C70.86,59.3377 70.215,58.2427 70.507,56.6687 C70.563,56.3627 69.892,55.8257 69.454,55.5707 C69.256,55.4557 68.545,55.7327 68.524,55.8947 C68.462,56.3357 68.585,56.8317 68.745,57.2647 C69.006,57.9707 69.409,58.6267 69.655,59.3367 C70.338,61.3057 71.029,63.2757 71.609,65.2767 C72.403,68.0157 72.784,70.7917 71.613,73.5367 C70.987,75.0087 69.791,76.4297 69.729,77.9117 C69.612,80.6277 68.987,83.4527 70.247,86.1287 C70.416,86.4867 70.116,87.0697 70.021,87.5457 C69.572,89.7747 69.203,91.9867 70.274,94.1697 C71.04,95.7327 70.612,97.0817 69.214,98.1247 C68.964,98.3117 68.947,98.8117 68.74,99.4057 C70.71,98.6357 71.177,98.7257 71.249,99.8817 C71.286,100.4707 70.959,101.3287 70.505,101.6467 C69.764,102.1657 69.555,102.5617 69.888,103.4127 C70.045,103.8147 69.821,104.3627 69.788,104.8457 C69.685,106.3707 67.73,108.1857 70.487,109.2817 C70.675,109.3567 70.767,109.7537 70.841,110.0177 C71.196,111.2807 71.535,112.5467 71.863,113.8167 C71.88,113.8807 71.747,113.9847 71.613,114.1637 C71.272,114.0237 70.906,113.8747 70.513,113.7127 C70.391,114.4357 70.286,115.0597 70.179,115.7037 C68.237,115.1067 67.446,113.7497 68.331,112.3447 C69.122,111.0917 68.538,110.2127 67.858,109.1627 C67.389,109.9547 67.204,110.8207 66.862,111.6187 C65.91,113.8297 66.222,115.0627 68.095,116.6047 C68.464,116.9097 68.724,117.4707 68.823,117.9577 C69.297,120.2647 67.782,121.9527 66.821,123.7697 C65.741,125.8127 65.376,127.9847 65.2,130.2217 C65.171,130.5917 65.347,130.9777 65.531,131.8377 C65.909,131.0947 66.1,130.8397 66.172,130.5557 C66.498,129.2837 66.738,127.9867 67.129,126.7357 C67.246,126.3607 67.753,126.1087 68.081,125.8007 C68.358,126.1697 68.77,126.5037 68.876,126.9167 C69.007,127.4237 69.068,128.0967 68.837,128.5257 C67.943,130.1887 67.116,131.7867 67.013,133.7877 C66.949,135.0057 65.905,136.1457 65.632,137.3927 C65.418,138.3697 65.472,139.5557 65.849,140.4667 C66.199,141.3157 66.345,141.8507 65.671,142.5217 C65.417,142.7737 65.2,143.1697 65.165,143.5197 C64.904,146.1517 65.743,148.8647 64.436,151.4347 C63.979,152.3337 64.088,153.5507 63.554,154.3727 C62.536,155.9357 61.572,157.4207 61.897,159.4067 C61.941,159.6727 61.661,160.0137 61.486,160.2907 C60.866,161.2647 60.24,162.2347 59.593,163.1887 C58.375,164.9847 57.086,166.7407 57.469,169.1237 C57.513,169.3907 57.021,169.7647 57.086,170.0047 C57.308,170.8107 57.642,171.5917 58.006,172.3477 C58.068,172.4767 58.687,172.5137 58.709,172.4587 C58.924,171.9187 59.187,171.3537 59.209,170.7877 C59.313,168.1107 59.709,165.5607 61.698,163.5297 C61.904,163.3187 61.95,162.9237 62.013,162.6037 C62.439,160.4127 63.175,158.3377 64.628,156.6227 C64.97,156.2187 66.065,155.8337 66.253,156.0157 C67.7,157.4207 68.602,156.0677 69.674,155.5787 L69.674,155.5787 Z M25.972,26.7317 C27.557,26.5617 29.369,26.8187 30.674,26.1227 C32.584,25.1027 34.182,23.4577 35.803,21.9607 C36.363,21.4427 36.814,20.6087 36.942,19.8557 C37.307,17.6957 37.481,15.5027 37.733,13.3237 C38.076,10.3497 36.614,7.9977 34.789,5.9917 C32.607,3.5937 29.82,2.1527 26.395,2.4417 C25.028,2.5567 23.597,2.4047 22.3,2.7577 C20.585,3.2257 19.097,4.1357 17.692,5.4017 C16.028,6.9017 14.431,8.2057 14.388,10.6417 C14.382,10.9627 14.254,11.2987 14.115,11.5967 C12.801,14.4217 13.231,16.9597 15.281,19.2847 C15.625,19.6727 15.775,20.2327 16.016,20.7127 C16.4,21.4747 16.658,22.3407 17.191,22.9807 C19.461,25.7077 22.232,27.3397 25.972,26.7317 L25.972,26.7317 Z M63.404,62.0877 C61.584,61.7667 61.585,62.9217 61.822,64.2547 C60.019,64.4977 59.602,65.5937 59.848,67.6937 C60.709,66.8987 61.302,66.4237 61.798,65.8637 C62.072,65.5537 62.116,64.8197 62.38,64.7557 C64.137,64.3327 63.731,63.2097 63.358,62.0537 C63.691,61.1677 64.111,60.2957 64.273,59.3787 C64.301,59.2217 63.226,58.8707 62.66,58.6097 C62.515,59.1037 62.147,59.6667 62.272,60.0787 C62.489,60.7967 63.011,61.4227 63.404,62.0877 L63.404,62.0877 Z M79.929,42.9307 C77.961,42.3367 78.334,45.1167 76.627,45.1057 C77.383,45.9737 78.103,46.7427 78.976,47.2417 C79.345,47.4517 80.036,47.0967 80.581,46.9997 C80.295,46.5747 80.069,46.0867 79.704,45.7447 C79.383,45.4427 78.909,45.3017 78.575,45.1297 C79.086,44.2557 79.487,43.5727 79.886,42.8887 C80.294,42.4477 80.728,42.0257 81.1,41.5557 C81.351,41.2407 81.433,40.6667 81.734,40.5357 C83.248,39.8727 82.706,38.8837 82.131,37.8047 C81.023,39.3507 79.889,40.8707 79.929,42.9307 L79.929,42.9307 Z M91.328,39.5837 L89.991,39.5837 C90.43,41.1717 90.745,42.5877 91.232,43.9417 C91.412,44.4417 91.995,44.7967 92.396,45.2177 C92.538,45.1237 92.682,45.0287 92.824,44.9337 C92.312,43.1377 91.798,41.3427 91.283,39.5467 C91.791,39.4707 92.3,39.3957 92.808,39.3197 C92.992,39.0517 93.178,38.7847 93.362,38.5167 C92.587,38.0207 91.823,37.5047 91.03,37.0397 C90.784,36.8937 90.461,36.8797 90.173,36.8047 C90.148,37.1497 89.987,37.5657 90.123,37.8257 C90.45,38.4507 90.917,39.0027 91.328,39.5837 L91.328,39.5837 Z M97.957,78.6677 C97.628,78.6117 97.298,78.5617 96.97,78.5007 C95.728,78.2697 95.104,77.7697 95.958,76.4567 C96.136,76.1837 96.004,75.7097 96.015,75.3277 C95.681,75.4627 95.279,75.5207 95.028,75.7477 C94.576,76.1537 94.213,76.6577 93.82,77.1287 C92.596,78.5967 91.985,78.4947 91.192,76.6817 C91.106,76.4847 91.017,76.2887 90.872,75.9627 C90.497,76.1507 90.183,76.3217 89.858,76.4697 C88.585,77.0477 87.819,76.5317 87.874,75.1387 C87.958,73.0047 87.759,72.5227 86.53,71.8797 C86.999,74.1637 86.51,75.1397 84.34,76.2507 C82.238,77.3247 82.237,77.8017 82.942,80.0477 C83.341,81.3197 83.029,82.8217 82.992,84.2177 C82.978,84.7887 82.811,85.3557 82.807,85.9257 C82.807,86.0007 83.615,86.1857 83.637,86.1377 C83.88,85.5877 84.045,85.0007 84.228,84.4217 C84.29,84.2247 84.342,84.0247 84.542,83.3217 C85.237,84.1747 86.196,84.8747 86.089,85.3157 C85.829,86.3817 85.073,87.3277 84.517,88.3217 C84.354,88.2607 84.19,88.2007 84.027,88.1407 C84.114,88.4997 84.271,88.8587 84.267,89.2167 C84.264,89.5037 84.068,89.7887 83.957,90.0747 C83.67,89.9617 83.319,89.9167 83.111,89.7187 C82.71,89.3397 82.432,88.8287 82.021,88.4637 C81.819,88.2857 81.434,88.3117 81.132,88.2457 C81.094,88.5997 80.979,88.9687 81.044,89.3027 C81.09,89.5397 81.372,89.7367 81.564,89.9377 C82.715,91.1487 83.501,92.2977 82.733,94.2077 C82.051,95.8987 82.908,96.9477 84.487,97.3247 C85.058,97.4607 85.558,97.8857 86.091,98.1797 C85.559,98.5357 85.029,98.8937 84.494,99.2447 C84.362,99.3317 84.214,99.3967 83.946,99.5397 C84.155,100.4277 84.39,101.3217 84.57,102.2247 C84.663,102.6987 84.861,103.4917 84.667,103.6187 C84.121,103.9777 83.409,104.1467 82.742,104.2387 C82.219,104.3117 81.664,104.1587 81.123,104.1047 C81.354,104.6247 81.483,105.2277 81.833,105.6477 C83.174,107.2577 83.09,107.7077 81.377,108.8287 C80.95,109.1077 80.506,109.9037 80.603,110.3457 C80.963,111.9867 80.446,113.0247 79.013,113.8507 C78.598,114.0897 78.275,114.9317 78.328,115.4547 C78.491,117.0497 77.99,118.2087 76.765,119.2497 C76.203,119.7257 75.53,120.8137 75.722,121.3087 C76.563,123.4797 75.292,125.5687 75.723,127.6657 C76.363,130.7887 74.612,132.9827 72.931,135.2487 C72.534,135.7837 72.245,136.5347 72.23,137.1947 C72.171,139.6957 72.337,142.2037 72.233,144.7017 C72.174,146.0957 71.736,147.4717 71.496,148.8617 C71.424,149.2827 71.252,149.8947 71.457,150.1237 C73.238,152.1107 71.532,153.7387 70.982,155.4797 C70.919,155.6767 70.773,155.8467 70.767,155.8567 C71.171,156.5507 71.493,157.1067 71.816,157.6617 C71.163,157.9607 70.511,158.2587 69.508,158.7187 C69.611,159.1577 69.771,159.8437 69.931,160.5307 C70.528,160.1137 71.125,159.6967 71.934,159.1317 C71.7,159.0987 71.889,159.0927 71.898,159.1307 C72.362,161.0247 72.82,162.9187 73.248,164.8197 C73.306,165.0747 73.304,165.4487 73.157,165.6267 C71.375,167.7907 72.386,170.3417 72.178,172.7127 C72.07,173.9527 72.729,174.5607 73.887,174.0967 C73.752,172.7507 73.558,171.5307 73.571,170.3137 C73.572,170.0847 74.596,169.5547 74.815,169.6927 C75.753,170.2857 76.443,170.2887 77.047,169.3037 C77.098,169.2217 77.23,169.1827 77.33,169.1387 C79.448,168.2297 79.404,168.2557 78.197,166.2127 C77.931,165.7617 77.871,164.9157 78.121,164.4837 C78.833,163.2527 79.722,162.1157 80.609,160.9957 C80.943,160.5737 81.464,160.2987 81.9,159.9587 C82.052,160.0677 82.205,160.1757 82.359,160.2857 L80.029,164.9967 L80.434,165.1637 C81.967,163.4207 81.967,163.4207 83.051,166.2337 C83.137,164.0367 82.797,162.0367 83.398,160.3767 C84.009,158.6857 85.546,157.3307 86.677,155.8287 C86.87,155.9567 87.063,156.0847 87.256,156.2117 C86.963,156.9277 86.67,157.6437 86.261,158.6447 C87.004,158.5907 87.553,158.5507 88.164,158.5067 C88.028,158.9207 87.926,159.3987 87.717,159.8237 C87.32,160.6357 86.852,161.2477 85.778,160.5927 C85.49,160.4187 84.825,160.5857 84.517,160.8287 C84.343,160.9647 84.396,161.6857 84.598,161.9567 C85.876,163.6767 86.564,165.2277 84.532,167.0127 C83.726,167.7217 83.444,169.0277 83.05,169.8087 C83.749,170.6337 84.282,171.4187 84.98,172.0047 C85.236,172.2187 86.055,172.1517 86.327,171.8997 C89.402,169.0497 92.179,166.0007 94.298,162.2867 C95.417,160.3227 97.525,158.9227 99.186,157.2687 C99.294,157.3557 99.403,157.4427 99.511,157.5287 C98.721,158.7227 97.954,159.9327 97.135,161.1057 C96.385,162.1777 95.506,163.1687 94.837,164.2867 C94.631,164.6307 94.928,165.2767 94.994,165.7857 C95.4,165.5227 95.867,165.3217 96.196,164.9847 C96.659,164.5067 97.02,163.9297 97.425,163.3947 C97.574,163.4847 97.725,163.5737 97.875,163.6637 C97.233,165.1467 96.728,166.7127 95.904,168.0877 C95.293,169.1037 94.259,169.8637 93.436,170.7577 C93.307,170.8967 93.292,171.1417 93.225,171.3377 C93.334,171.4777 93.445,171.6177 93.554,171.7577 C93.954,171.4557 94.374,171.1747 94.751,170.8447 C95.468,170.2177 96.187,169.5887 96.856,168.9127 C98.14,167.6147 99.49,166.3617 100.602,164.9257 C101.022,164.3827 101.169,163.3567 100.014,162.8637 C99.569,162.6737 98.992,161.9717 99.056,161.6037 C99.151,161.0547 99.76,160.5957 100.152,160.0987 C100.299,160.1717 100.446,160.2467 100.594,160.3207 C100.737,160.9997 100.878,161.6767 101.058,162.5347 C101.424,162.2287 101.833,162.0557 101.943,161.7687 C102.795,159.5307 104.718,158.1147 106.107,156.2937 C106.37,155.9467 106.985,155.8687 107.438,155.6667 C107.379,156.1197 107.46,156.6617 107.237,157.0087 C106.245,158.5547 105.133,160.0237 104.133,161.5647 C103.719,162.2037 103.477,162.9537 103.161,163.6607 C102.475,164.3887 101.2,164.7627 101.592,166.2117 C103.246,165.4897 103.36,165.2907 103.124,163.6187 C103.696,163.7397 104.269,163.8617 105.085,164.0357 C104.461,165.1227 104.079,166.1287 103.411,166.8787 C102.121,168.3277 102.09,168.5397 104.159,169.8857 C104.623,168.8077 105.264,167.8277 105.457,166.7657 C105.919,164.2287 107.184,162.3817 109.616,161.2387 C107.941,162.9697 108.558,165.4137 107.461,167.3327 C106.612,168.8207 105.454,170.1607 105.432,172.1177 C105.423,172.8387 104.29,173.6157 103.564,174.2427 C102.605,175.0707 101.495,175.7257 100.542,176.5587 C100.151,176.9007 99.997,177.5127 99.5,178.4427 C100.346,178.1827 100.751,178.1717 100.991,177.9667 C102.556,176.6287 104.179,175.3367 105.591,173.8477 C106.463,172.9277 107.029,171.7057 107.675,170.5867 C108.171,169.7267 108.562,168.7927 110.313,169.0177 C109.368,170.7747 108.495,172.3067 107.716,173.8837 C107.268,174.7897 107.191,175.9877 106.537,176.6507 C105.973,177.2217 104.635,176.9927 103.993,177.5357 C103.204,178.2037 101.8,178.7077 102.054,180.1297 C104.598,179.6597 106.961,179.2137 109.329,178.7957 C109.566,178.7537 109.93,178.7917 110.055,178.9417 C110.195,179.1097 110.245,179.5227 110.132,179.7007 C109.332,180.9557 108.528,182.2137 107.61,183.3817 C107.404,183.6417 106.745,183.5447 106.295,183.6107 C106.414,183.1917 106.473,182.7427 106.671,182.3647 C106.845,182.0337 107.293,181.8217 107.399,181.4877 C107.495,181.1797 107.382,180.7197 107.192,180.4447 C107.095,180.3057 106.543,180.3117 106.332,180.4537 C105.15,181.2497 104.018,182.1207 102.847,182.9357 C102.417,183.2357 101.929,183.4527 101.467,183.7077 C101.238,183.2557 101.016,182.8007 100.779,182.3537 C100.584,181.9847 100.407,181.5977 100.16,181.2657 C99.736,180.6957 99.261,180.1617 98.995,179.8397 C97.802,179.8397 96.649,179.8377 95.494,179.8407 C95.277,179.8417 95.019,179.7917 94.846,179.8847 C92.794,180.9957 90.769,182.1557 88.704,183.2407 C88.084,183.5657 87.363,183.7007 86.453,184.0007 C86.528,183.0997 86.567,182.6247 86.605,182.1667 C84.945,181.2967 84.856,180.9137 85.646,179.3257 C86.27,178.0727 86.772,176.7577 87.354,175.4087 C86.508,174.6597 85.569,173.8277 84.628,172.9957 C84.538,173.0147 84.447,173.0347 84.358,173.0537 C84.491,173.4197 84.571,173.8177 84.768,174.1437 C86.013,176.2077 84.741,178.2427 83.428,179.4437 C82.786,180.0297 82.229,180.7067 81.481,181.5037 C81.427,181.5037 80.832,181.3437 80.389,181.5357 C79.34,181.9877 79.18,181.5347 79.294,180.6637 C79.633,178.0847 80.432,177.1127 82.623,176.3717 C82.799,175.2817 82.981,174.3207 83.095,173.3507 C83.13,173.0537 83.053,172.6917 82.901,172.4347 C82.509,171.7787 82.047,171.1657 81.539,170.4267 C81.429,170.5257 81.135,170.6787 81.006,170.9207 C80.298,172.2517 79.296,172.7027 77.814,172.2507 C77.404,172.1247 76.867,172.4057 76.389,172.5007 C76.724,172.9167 76.976,173.4877 77.409,173.7187 C78.91,174.5207 80.263,174.1847 81.284,172.4157 L81.586,172.8807 C81.659,173.2797 81.937,173.8257 81.773,174.0527 C80.851,175.3347 79.809,176.5277 78.841,177.7777 C78.529,178.1817 78.211,178.6357 78.079,179.1177 C77.638,180.7307 76.725,181.0957 75.526,179.9607 C74.775,179.2487 74.289,179.5187 73.702,180.0917 C72.779,180.9917 72.05,182.5667 70.398,180.9027 C70.162,180.6657 69.165,181.3547 68.604,181.2317 C67.569,181.0047 66.596,180.4937 65.402,180.0237 C65.333,180.5967 65.259,181.2217 65.185,181.8457 L65.234,181.7957 C63.463,181.0197 62.945,179.7187 63.788,178.0717 C64.613,176.4567 65.497,174.9527 65.308,172.9367 C65.214,171.9387 66.048,170.7757 66.655,169.8087 C67.364,168.6807 67.325,167.9437 66.135,167.1977 C64.575,166.2197 65.166,164.4697 65.079,163.1007 C65,161.8657 65.7,160.5907 65.986,159.3177 C66.124,158.6997 66.098,158.0447 65.937,157.3827 C64.221,158.7267 64.338,160.5547 64.221,162.3587 C64.16,163.2977 63.695,164.2047 63.521,165.1457 C63.437,165.6007 63.428,166.2397 63.683,166.5567 C64.713,167.8477 64.504,169.5967 63.851,171.0847 C62.855,173.3547 61.074,175.6217 62.705,178.3957 C63.271,179.3587 62.536,182.7277 61.689,183.4547 C60.945,184.0917 60.31,183.8687 60.124,182.8927 C59.917,181.8067 59.335,181.7387 58.423,182.0197 C57.387,182.3377 56.32,182.6617 55.252,182.7207 C54.869,182.7427 54.167,182.0477 54.096,181.6017 C53.958,180.7477 54.228,179.8357 54.203,178.9497 C54.195,178.5947 53.856,178.2507 53.667,177.9007 C53.444,178.2747 53.129,178.6257 53.025,179.0307 C52.933,179.3827 53.09,179.7967 53.115,180.1857 C53.22,181.8187 52.554,182.6157 50.912,182.8797 C50.483,182.9497 50.065,183.0937 49.06,183.3547 C51.884,180.3407 49.303,177.2207 49.891,174.2607 C50.105,174.1177 50.318,173.9747 50.531,173.8317 C50.63,174.1447 50.637,174.5727 50.85,174.7467 C51.214,175.0447 51.708,175.1817 52.147,175.3877 C52.194,174.8687 52.479,174.0987 52.243,173.8757 C51.457,173.1247 50.552,172.2257 49.565,172.0297 C48.494,171.8177 48.429,173.1187 47.975,173.9297 C46.699,176.2077 48.318,177.9067 48.684,179.8577 C48.814,180.5507 48.575,181.3597 48.329,182.0527 C48.239,182.3047 47.343,182.5497 47.315,182.5017 C46.911,181.8227 46.32,181.0977 46.303,180.3727 C46.22,176.9307 46.396,173.4837 46.28,170.0447 C46.223,168.3177 45.732,166.6067 45.465,164.8837 C45.431,164.6637 45.571,164.4167 45.585,164.3617 C46.624,165.1707 47.659,165.8877 48.563,166.7447 C48.771,166.9407 48.549,167.6147 48.491,168.0647 C48.427,168.5667 48.286,169.0637 48.279,169.5637 C48.279,169.6357 48.981,169.8777 49.121,169.7587 C49.5,169.4387 50.033,168.9437 50,168.5627 C49.907,167.5187 49.538,166.5017 49.312,165.4657 C49.22,165.0427 49.215,164.5997 49.17,164.1667 C49.43,164.1417 49.69,164.1167 49.948,164.0907 C50.234,166.4727 50.519,168.8537 50.804,171.2357 C51.011,171.2597 51.218,171.2857 51.425,171.3097 C51.704,169.8687 52.008,168.4297 52.25,166.9817 C52.332,166.4967 52.099,165.8997 52.305,165.5087 C52.502,165.1327 53.081,164.9587 53.493,164.6957 C53.657,165.1527 54.104,165.8297 53.945,166.0347 C52.196,168.2757 53.683,170.3587 54.194,172.4727 C54.244,172.6847 54.753,172.7857 55.049,172.9377 C55.315,172.3717 55.962,171.5627 55.782,171.2787 C54.872,169.8467 55.353,168.5007 55.814,167.1747 C56.365,165.5877 55.37,164.5187 54.672,163.3837 C54.141,162.5217 53.822,161.8567 54.749,161.0717 C54.982,160.8757 55.102,160.3697 55.048,160.0437 C54.835,158.7547 55.652,158.1757 56.938,157.2047 C56.412,159.8507 55.585,162.0977 56.922,164.3237 C57.924,162.0097 60.068,160.5137 60.313,157.6117 C60.511,155.2697 61.259,152.9347 61.269,150.4987 C61.271,150.2077 62.502,149.9207 63.163,149.6327 L63.562,150.0987 C63.739,149.4217 63.917,148.7457 64.095,148.0677 L63.781,147.8977 C63.4,148.2387 63.017,148.5787 62.63,148.9217 C61.499,147.6757 61.622,142.2177 62.897,140.9947 C63.244,141.4507 63.58,141.8907 63.916,142.3317 C64.02,142.3077 64.123,142.2857 64.226,142.2627 C64.128,141.6617 64.223,140.9197 63.902,140.4837 C62.009,137.9227 62.743,135.2197 63.313,132.5107 C63.662,130.8527 64.256,129.2077 64.326,127.5387 C64.433,124.9887 65.646,122.9037 66.633,120.7027 C66.721,120.5057 67.027,120.3317 67.007,120.1737 C66.926,119.5047 66.76,118.8457 66.625,118.1827 C66.112,118.3837 65.442,118.4457 65.119,118.8127 C64.202,119.8587 63.335,120.1697 62.384,118.9737 C62.147,118.6747 61.971,118.0997 62.103,117.7987 C62.235,117.4997 62.768,117.3227 63.159,117.2017 C63.612,117.0617 64.344,117.2057 64.526,116.9357 C64.865,116.4337 64.895,115.7217 65.054,115.0967 C64.481,115.0137 63.908,114.9297 63.308,114.8417 C63.763,114.0237 64.373,113.0657 64.835,112.0407 C65.085,111.4877 65.081,110.8217 65.192,110.2067 C64.637,110.1517 64.082,110.0957 63.335,110.0217 C63.431,110.1087 63.324,110.0527 63.279,109.9647 C62.829,109.0837 61.917,108.0907 62.086,107.3427 C62.24,106.6557 63.584,106.2597 64.353,105.6707 C64.555,105.5147 64.569,105.1147 64.733,104.6417 C63.436,104.6787 62.426,104.7487 61.926,106.0357 C61.798,106.3637 61.404,106.6627 61.061,106.7987 C60.912,106.8587 60.586,106.4727 60.341,106.2897 C60.593,105.9587 60.837,105.6217 61.099,105.2977 C62.366,103.7287 64.024,103.3107 65.963,103.5647 C66.798,103.6737 67.031,103.2667 66.694,102.4307 C66.495,101.9427 66.557,101.3447 66.519,100.7957 C66.487,100.3247 66.449,99.8507 66.464,99.3797 C66.492,98.4927 66.507,97.5997 66.618,96.7207 C66.747,95.6927 66.991,94.6797 67.137,93.6527 C67.157,93.5087 66.87,93.1707 66.776,93.1897 C66.48,93.2457 66.016,93.3727 65.957,93.5727 C65.562,94.9207 64.876,96.3357 65.019,97.6487 C65.175,99.0907 65.073,100.2097 63.94,101.0417 C63.47,101.3857 62.677,101.6087 62.15,101.4607 C61.729,101.3427 61.472,100.5897 61.177,100.0977 C61.074,99.9257 61.078,99.6897 60.924,98.9827 C60.247,99.6577 59.707,100.0457 59.375,100.5647 C58.962,101.2117 58.784,102.0057 58.381,102.6607 C58.165,103.0097 57.689,103.1977 57.329,103.4587 C57.092,103.0677 56.621,102.6507 56.661,102.2907 C56.777,101.2407 56.868,100.4967 55.594,99.9187 C54.558,99.4477 54.933,98.6137 55.915,98.0837 C56.403,97.8197 56.759,97.3127 57.174,96.9157 C56.722,96.4937 56.337,95.9347 55.806,95.6737 C54.213,94.8917 54.029,94.5157 54.974,93.1187 C55.973,91.6407 56.094,90.0467 55.799,88.2417 C54.252,88.3167 53.876,89.5957 53.167,90.5037 C52.863,90.8927 52.456,91.3867 52.039,91.4497 C51.651,91.5077 50.935,91.1417 50.82,90.8067 C50.687,90.4157 50.922,89.7437 51.228,89.3937 C51.632,88.9317 52.233,88.6117 52.797,88.3247 C53.611,87.9087 54.428,87.5557 53.813,86.1527 C53.111,86.6107 52.501,87.0067 51.789,87.4717 C51.579,86.9757 51.4,86.5487 51.024,85.6587 C50.485,86.6717 50.202,87.4207 49.734,88.0237 C49.259,88.6357 48.601,89.1047 48.023,89.6367 C47.451,89.0137 46.58,88.4727 46.382,87.7487 C46.113,86.7687 45.909,86.2047 44.766,86.0557 C43.567,85.8997 43.511,84.9107 43.94,83.9997 C44.529,82.7507 45.305,81.5857 45.852,80.3207 C46.068,79.8217 45.882,79.1497 45.879,78.5557 C45.404,78.8007 44.928,79.0447 44.455,79.2927 C43.917,79.5757 43.383,79.8627 42.846,80.1487 C42.603,79.6407 42.343,79.1417 42.124,78.6237 C42.023,78.3807 42.003,78.1047 41.924,77.7367 C41.605,77.7957 41.317,77.7777 41.11,77.8987 C39.581,78.7937 38.612,78.5087 37.81,76.8947 C37.364,75.9987 36.996,75.0547 36.462,74.2147 C35.619,72.8867 34.799,72.9507 34.076,74.3267 C33.82,74.8177 33.691,75.3967 33.357,75.8207 C32.991,76.2867 32.456,76.6197 31.995,77.0087 C31.635,76.3977 31.112,75.8237 30.956,75.1637 C30.775,74.3887 30.914,73.5397 30.914,72.7217 C30.679,72.7017 30.445,72.6807 30.21,72.6607 C30.121,73.2297 29.997,73.7957 29.951,74.3687 C29.645,78.2547 29.842,82.2667 28.897,85.9897 C28.203,88.7197 28.339,91.3317 28.155,94.0027 C28.122,94.4867 27.955,94.9617 27.853,95.4407 C27.654,96.3767 27.43,97.3077 27.267,98.2497 C26.977,99.9297 26.9,101.6707 26.408,103.2877 C25.879,105.0337 24.088,104.5637 22.969,104.3557 C21.999,104.1757 21.001,103.2377 21.12,101.7787 C21.255,100.1187 21.07,98.4247 21.296,96.7837 C21.581,94.7087 22.138,92.6707 22.583,90.6177 C22.606,90.5127 22.746,90.3677 22.717,90.3287 C21.279,88.4247 23.584,86.8107 23.136,84.9167 C22.949,84.1307 23.524,83.1727 23.726,82.2877 C23.82,81.8717 23.905,81.4407 23.905,81.0167 C23.905,78.5697 23.771,76.1177 23.902,73.6787 C23.983,72.1837 24.483,70.7147 24.741,69.2247 C24.815,68.7997 24.793,68.3087 24.645,67.9117 C24.529,67.6027 24.188,67.2897 23.875,67.1787 C23.723,67.1267 23.349,67.4907 23.178,67.7367 C21.556,70.0767 20.403,70.0707 18.573,67.7617 C18.333,67.4587 17.809,67.3787 17.415,67.1967 C17.356,67.6887 17.096,68.2727 17.271,68.6587 C17.917,70.0857 16.877,71.9827 15.261,72.1557 C14.905,72.1937 14.453,72.1447 14.217,72.3407 C12.486,73.7767 12.268,73.7597 10.872,71.8837 C10.79,71.7737 10.589,71.7527 10.092,71.5377 C10.092,72.6427 10.16,73.5857 10.07,74.5117 C9.999,75.2207 9.728,75.9097 9.545,76.6077 C8.918,76.2797 8.29,75.9517 7.471,75.5227 C7.18,75.6947 6.647,76.0077 5.996,76.3917 C5.85,75.9607 5.702,75.7157 5.695,75.4677 C5.648,74.0017 5.201,73.6057 3.866,74.5617 C3.507,74.8197 2.532,74.7127 2.203,74.3947 C1.786,73.9937 1.389,73.0197 1.602,72.6237 C2.17,71.5607 2.153,70.9517 1.035,70.3407 C0.029,69.7917 0.359,68.9487 0.868,68.1987 C1.366,67.4657 1.898,66.7577 2.411,66.0377 C2.539,65.8557 2.799,65.6177 2.755,65.4877 C2.211,63.8777 3.286,63.0937 4.215,62.0917 C4.481,61.8047 3.869,60.7057 3.605,59.7907 C4.659,59.0057 5.924,58.0657 7.276,57.0607 C6.948,56.6837 6.723,56.3827 6.456,56.1247 C5.417,55.1147 5.42,54.1497 6.435,53.0927 C7.587,51.8927 7.476,51.5867 6.011,50.8327 C5.579,50.6097 4.91,49.9487 4.981,49.8117 C5.254,49.2787 5.699,48.6617 6.228,48.4617 C8.561,47.5737 10.976,47.0007 13.505,47.3117 C14.015,47.3747 14.808,47.4797 14.948,47.7967 C15.51,49.0627 16.512,49.0377 17.594,49.0047 C18.093,48.9897 18.682,48.8677 19.078,49.0797 C21.066,50.1377 21.61,48.8117 22.106,47.3527 C22.453,46.3317 22.989,45.3217 23.073,44.2767 C23.174,43.0287 22.406,42.6427 21.397,43.3297 C20.576,43.8857 19.678,44.3317 19.079,43.4107 C18.757,42.9147 19.026,41.9197 19.239,41.2127 C19.624,39.9447 20.945,38.6827 18.982,37.5547 C18.897,37.5067 19.107,36.5397 19.415,36.2787 C21.055,34.8927 23.121,34.5427 25.154,34.3497 C25.758,34.2937 26.52,34.9737 27.069,35.4717 C27.852,36.1807 28.464,36.4817 29.286,35.5157 C29.611,35.1347 30.252,35.0427 30.695,34.7387 C31.082,34.4717 31.392,34.0927 31.737,33.7627 C31.362,33.3797 31.042,32.7587 30.602,32.6567 C28.985,32.2817 28.695,31.7687 29.349,30.3057 C29.58,29.7897 29.52,29.1417 29.593,28.5537 C28.906,28.5677 28.208,28.5087 27.536,28.6147 C26.693,28.7467 25.881,29.1007 25.035,29.2077 C22.384,29.5427 20.5,27.7997 18.362,26.6967 C14.904,24.9137 13.392,21.8327 12.417,18.3147 C12.258,17.7397 11.856,17.2347 11.584,16.6877 C11.441,16.3967 11.204,16.0697 11.239,15.7877 C11.393,14.5487 11.557,13.3027 11.852,12.0927 C12.567,9.1617 13.833,6.4097 15.824,4.1997 C16.931,2.9717 18.753,2.3797 20.274,1.5377 C23.137,-0.0483 26.276,0.7027 29.265,0.7467 C30.783,0.7677 32.516,1.6627 33.747,2.6607 C36.983,5.2817 39.782,8.2747 39.438,12.9627 C39.327,14.4557 39.632,16.0047 39.356,17.4537 C39.067,18.9637 38.428,20.4477 37.717,21.8257 C37.019,23.1787 36.036,24.3857 35.504,25.1747 C34.214,25.8637 33.321,26.3397 32.429,26.8167 C32.503,27.0337 32.577,27.2507 32.653,27.4657 C33.174,27.4657 33.697,27.5007 34.216,27.4607 C35.673,27.3467 36.858,27.5367 37.774,28.9857 C38.529,30.1817 39.801,29.3907 40.787,29.0217 C41.659,28.6957 42.405,27.9307 43.286,27.7557 C44.213,27.5717 45.737,27.4997 46.102,28.0147 C46.717,28.8817 46.678,30.2047 45.396,31.0497 C44.945,31.3467 44.808,32.1197 44.528,32.6747 C45.074,32.9437 45.612,33.2337 46.17,33.4777 C47.017,33.8487 47.878,34.1877 48.733,34.5417 C48.855,34.8407 48.977,35.1407 49.1,35.4407 C49.304,34.9857 49.395,34.3897 49.74,34.1137 C50.167,33.7717 51.001,33.3717 51.321,33.5617 C52.71,34.3917 53.496,33.6767 54.492,32.8267 C55.747,31.7547 59.171,32.0937 60.386,33.2347 C60.873,33.6907 61.269,34.2637 61.806,34.6397 C62.202,34.9167 62.762,34.9587 63.249,35.1047 C63.368,34.5837 63.766,33.8067 63.561,33.5827 C62.174,32.0657 60.686,30.6377 59.169,29.2487 C58.774,28.8857 58.16,28.7627 57.647,28.5297 C57.902,27.9957 58.156,27.4617 58.463,26.8157 C57.4,27.0367 56.169,26.8427 55.722,28.4177 C55.621,28.7697 54.991,28.9697 54.606,29.2407 C54.511,28.7177 54.155,28.0177 54.368,27.7067 C55.112,26.6197 54.557,26.2527 53.696,25.8507 C53.133,26.7107 52.694,27.5377 52.093,28.2227 C51.845,28.5057 51.253,28.4867 50.817,28.6047 C50.824,28.0847 50.654,27.4547 50.889,27.0727 C51.137,26.6707 51.771,26.5047 52.236,26.2357 C52.056,25.9637 51.875,25.6927 51.695,25.4217 C51.119,25.6317 50.555,25.8817 49.965,26.0407 C49.419,26.1877 48.847,26.2357 48.286,26.3267 C48.257,25.7547 48.068,25.1257 48.243,24.6247 C48.431,24.0897 49.002,23.7027 49.331,23.2017 C49.558,22.8567 49.892,22.2697 49.76,22.0737 C49.534,21.7387 48.987,21.6077 48.559,21.4317 C48.42,21.3757 48.199,21.5117 48.069,21.4497 C47.443,21.1497 46.71,20.9217 46.284,20.4337 C46.119,20.2457 46.603,19.0407 46.901,18.9937 C47.516,18.8967 48.203,19.2657 48.761,19.4167 C49.386,18.9467 50.151,18.3897 50.892,17.8047 C51.098,17.6427 51.341,17.4187 51.392,17.1847 C52.018,14.2947 54.269,12.8907 56.549,11.5287 C57.389,11.0267 57.801,10.5437 57.223,9.5187 C57.039,9.1937 57.243,8.3377 57.557,8.0987 C58.778,7.1657 60.09,6.3447 61.421,5.5717 C61.742,5.3857 62.263,5.5447 62.81,5.5447 C63.028,5.1577 63.281,4.7057 63.769,3.8387 C64.779,7.0797 67.753,5.1577 69.515,6.5427 C69.859,6.8127 71.113,6.2187 71.759,5.7577 C73.456,4.5447 75.218,4.9637 77.007,5.2917 C77.276,5.3407 77.621,5.5507 77.795,5.4507 C79.402,4.5227 79.91,5.7507 80.577,6.7767 C81.16,7.6747 81.282,8.2977 79.949,8.5097 C79.668,8.5547 79.429,8.9377 79.194,9.1877 C78.952,9.4427 78.691,9.9887 78.523,9.9577 C76.7,9.6137 77.243,11.3737 76.14,12.0257 C77.65,12.3597 78.728,12.5977 79.827,12.8407 C79.563,13.7077 79.372,14.3317 79.182,14.9567 C79.306,15.0367 79.43,15.1157 79.554,15.1957 C79.937,14.8867 80.321,14.5797 80.752,14.2317 C81.804,15.2787 81.81,16.1517 80.518,17.0517 C80.103,17.3417 79.928,17.9777 79.644,18.4557 C80.152,18.5627 80.654,18.7317 81.167,18.7617 C81.83,18.8017 82.543,18.5837 83.153,18.7587 C83.626,18.8947 84.179,19.4037 84.316,19.8597 C84.434,20.2517 84.011,20.8047 83.827,21.2867 C83.353,21.0667 82.877,20.8507 82.404,20.6257 C82.037,20.4507 81.684,20.2447 81.303,20.1107 C81.253,20.0927 80.944,20.5197 80.986,20.5837 C81.214,20.9177 81.491,21.2297 81.797,21.4987 C83.155,22.6907 84.557,23.8367 85.87,25.0747 C86.084,25.2767 86.117,26.0307 85.923,26.2337 C85.458,26.7197 84.848,27.1327 84.218,27.3697 C83.89,27.4937 83.398,27.1807 82.851,27.0297 C82.672,28.3537 82.339,29.4677 80.687,29.4147 C80.507,29.4087 80.047,30.9257 80.13,30.9707 C80.936,31.4057 81.816,31.8437 82.704,31.9167 C83.089,31.9477 83.677,31.1967 83.943,30.6817 C85.378,27.9047 87.974,28.2747 90.238,28.7167 C91.574,28.9777 92.93,29.1377 94.262,29.4147 C94.918,29.5497 95.736,29.6847 96.112,30.1297 C96.371,30.4357 96.135,31.3477 95.872,31.8617 C95.488,32.6117 95.448,33.0807 96.302,33.4437 C96.911,33.7037 97.57,33.9457 98.057,34.3677 C98.517,34.7657 99.012,35.3767 99.043,35.9197 C99.06,36.2187 98.162,36.5817 97.664,36.8947 C97.534,36.9777 97.358,36.9877 97.094,37.0607 C97.642,38.4387 100.701,39.2127 98.521,41.0807 C97.474,41.9777 96.647,44.1647 94.286,42.7087 C94.279,42.8747 94.272,43.0407 94.265,43.2067 C94.432,43.5617 94.695,43.9037 94.745,44.2737 C94.839,44.9547 95.032,45.7657 94.759,46.3087 C94.51,46.8017 93.733,47.1277 93.123,47.3177 C92.157,47.6197 91.094,47.6357 90.162,48.0047 C89.803,48.1467 89.692,48.9187 89.467,49.4027 C90.009,49.4557 90.563,49.5987 91.09,49.5337 C91.518,49.4807 91.915,49.1777 92.068,49.1067 C92.445,50.2847 93.054,51.2717 92.98,52.2057 C92.904,53.1527 92.199,54.0757 91.648,54.9287 C91.575,55.0417 90.78,54.6667 90.313,54.5497 C89.91,54.4507 89.486,54.3137 89.094,54.3667 C88.949,54.3867 88.7,55.0437 88.799,55.1647 C89.043,55.4627 89.441,55.6727 89.816,55.8197 C90.092,55.9267 90.43,55.8767 90.799,55.9007 C90.347,56.6537 89.499,57.5097 89.677,57.8957 C89.958,58.5077 90.924,58.8057 91.416,59.1207 C92.368,58.0467 93.08,57.0597 93.977,56.2887 C94.856,55.5317 95.825,55.0047 97.164,55.6987 C97.67,55.9617 98.807,55.5737 99.327,55.1127 C100.234,54.3077 100.733,54.3607 101.493,55.2557 C102.01,55.8637 102.828,56.2087 103.49,56.6997 C104.017,57.0897 104.511,57.5237 105.019,57.9377 C104.93,58.1127 104.84,58.2887 104.75,58.4627 C104.025,58.3137 103.299,58.1657 102.561,58.0127 C102.647,59.7687 103.679,60.0297 106.207,59.0487 C106.794,59.4557 107.323,59.8577 107.902,60.1707 C107.968,60.2077 108.516,59.5907 108.48,59.5427 C108.113,59.0427 107.672,58.5977 107.163,58.0417 C107.745,57.1927 108.445,57.1757 109.215,57.9527 C109.87,58.6117 110.496,59.3007 111.324,60.1767 C111.41,59.8427 111.418,59.9817 111.353,60.0397 C110.904,60.4387 110.442,60.8207 109.984,61.2087 C110.594,61.4907 111.191,61.8087 111.819,62.0437 C112.425,62.2687 113.063,62.4077 113.678,62.5827 C113.193,64.6617 113.882,65.2277 115.902,64.7247 C116.519,64.5707 117.206,64.7007 117.862,64.7007 C117.856,64.8427 117.851,64.9857 117.845,65.1287 C116.958,65.5537 116.04,65.9327 115.232,66.4737 C115.149,66.5297 115.714,67.5537 115.97,68.1107 C116.904,67.3897 117.686,66.7877 118.467,66.1847 C118.625,66.2577 118.784,66.3317 118.943,66.4047 C118.311,68.2367 119.26,68.8997 120.652,69.6007 C122.738,70.6527 122.673,71.2777 121.313,73.0667 C120.888,73.6267 121.054,74.6337 120.891,75.8817 C119.776,75.0357 118.758,74.2637 117.74,73.4917 C117.614,73.5467 117.488,73.6017 117.362,73.6577 C117.763,74.5067 118.163,75.3567 118.689,76.4717 C117.691,76.7247 116.651,76.9877 115.53,77.2707 C115.44,78.5307 116.279,79.4387 117.232,78.8007 C117.823,78.4047 118.333,77.8857 119.052,77.2747 C119.121,77.9287 119.089,78.4107 119.233,78.8327 C119.709,80.2337 119.111,80.8867 117.77,80.9097 C116.736,80.9267 116.205,81.2087 116.335,82.3607 C116.455,83.4287 115.736,83.7007 114.841,83.6277 C114.141,83.5697 113.446,83.4407 112.761,83.3447 C113.241,86.0087 112.93,86.3887 110.689,86.1327 C110.505,84.9887 110.332,83.9037 110.158,82.8197 C109.996,82.8217 109.834,82.8247 109.672,82.8267 C109.546,83.0447 109.283,83.2857 109.317,83.4737 C109.57,84.9037 108.686,85.3477 107.578,85.8277 C106.669,86.2207 106.099,86.0927 105.604,85.3117 C105,84.3607 104.49,84.5917 103.758,85.2637 C103.142,85.8287 102.282,86.1287 101.529,86.5457 C101.327,85.4577 101.044,84.3777 100.953,83.2807 C100.898,82.6167 101.14,81.9277 101.248,81.2517 C100.682,81.7027 100.131,82.1767 99.542,82.5977 C99.02,82.9717 98.487,83.4847 97.901,83.5847 C96.577,83.8077 96.037,83.0497 96.53,81.7877 C96.949,80.7157 97.448,79.6777 97.912,78.6247 C99.723,78.0897 97.913,76.6077 98.976,75.7457 C97.497,75.5597 96.929,75.8497 97.433,77.1367 C97.628,77.6387 97.783,78.1567 97.957,78.6677 L97.957,78.6677 Z" id="Fill-1" fill="#231916" mask="url(#mask-2)"></path>
                </g>
                <g id="编组" transform="translate(99.000000, 0.234000)">
                    <mask id="mask-4" fill="white">
                        <use xlink:href="#path-3"></use>
                    </mask>
                    <g id="Clip-4"></g>
                    <path d="M2.3683,13.8714 C1.9573,16.6084 2.5373,18.8894 3.8323,21.1854 C6.0913,25.1924 9.8403,26.7714 13.9093,27.0844 C15.7173,27.2234 17.9853,26.8164 19.9753,25.4714 C24.1453,22.6504 26.3413,18.9944 26.4403,14.0634 C26.4613,13.0714 25.8473,12.0804 25.6243,11.0674 C24.8193,7.4294 22.2313,5.2544 19.3643,3.2784 C17.4803,1.9794 15.3733,2.7294 13.3683,2.5584 C10.1213,2.2834 7.5463,3.8014 5.4463,5.9994 C3.3523,8.1914 1.3513,10.5884 2.3683,13.8714 M0.1753,14.2884 C0.6313,12.2724 0.5323,9.8364 1.6683,8.3344 C3.6443,5.7204 5.0973,2.4114 9.0043,1.5464 C10.7923,1.1494 12.5313,0.6014 14.3283,0.8114 C18.5243,1.3044 22.4733,2.1064 25.0403,6.2304 C26.5313,8.6264 27.3393,11.1664 28.1613,13.7474 C28.8523,15.9164 27.4473,17.7754 26.9233,19.7674 C26.0973,22.9114 23.6563,24.8614 21.4403,26.8434 C20.3273,27.8394 18.4463,27.9864 16.9033,28.4864 C16.6543,28.5664 16.2213,28.3654 16.0963,28.5014 C14.3293,30.4144 12.6253,28.5424 10.9033,28.4384 C8.9153,28.3194 7.5893,27.0034 6.0463,25.9214 C3.3973,24.0634 2.0813,21.3694 0.8703,18.6304 C0.3213,17.3884 0.5313,15.8094 0.3973,14.3844 C0.3233,14.3514 0.2493,14.3204 0.1753,14.2884" id="Fill-3" fill="#231916" mask="url(#mask-4)"></path>
                </g>
                <path d="M51.8068,171.3359 C51.2298,171.5839 50.7768,171.7669 50.3338,171.9709 C49.2218,172.4849 49.1158,173.4279 50.0068,174.2719 C50.4648,174.7039 50.9818,175.1999 51.1538,175.7639 C51.2588,176.1129 50.7658,176.6449 50.5418,177.0939 C50.1368,176.8759 49.5128,176.7579 49.3628,176.4249 C48.0658,173.5539 46.6108,170.7069 46.8008,167.4179 C46.8308,166.8949 46.9298,166.2589 47.2478,165.8939 C47.9868,165.0459 47.8188,164.3479 47.3028,163.4879 C47.0578,163.0799 47.0498,162.4819 47.0928,161.9829 C47.1038,161.8589 47.9738,161.6309 48.0328,161.7209 C48.3068,162.1429 48.5878,162.6589 48.5908,163.1429 C48.6048,165.6929 48.5318,168.2449 48.5018,170.7969 C48.4988,170.9999 48.5998,171.2039 48.6528,171.4059 C50.0038,171.1219 51.2228,169.4329 51.1298,167.8049 C51.0728,166.8069 51.1878,166.1809 52.2318,165.7049 C52.7908,165.4489 53.0598,164.5549 53.6178,163.7099 C54.2608,165.6069 53.3298,167.2119 52.9138,168.7709 C53.2258,168.8989 53.3348,168.9909 53.4218,168.9739 C54.0128,168.8549 54.5988,168.7119 55.1858,168.5759 C55.0598,169.1799 54.8728,169.7769 54.8198,170.3869 C54.7028,171.7019 54.6398,173.0229 54.5808,174.3429 C54.5508,175.0289 54.5768,175.7199 54.5768,176.4079 L53.8528,176.6049 C53.1968,174.9129 52.5388,173.2209 51.8068,171.3359" id="Fill-5" fill="#231916"></path>
                <path d="M35.1584,166.3681 C35.5534,170.1601 35.9284,173.7661 36.3034,177.3731 C36.5844,177.3671 36.8654,177.3601 37.1464,177.3531 L37.1464,168.0241 C37.3764,168.0071 37.6044,167.9891 37.8344,167.9721 C37.9544,168.3371 38.1424,168.6951 38.1824,169.0691 C38.3994,171.1011 37.6024,173.2221 38.9514,175.1941 C39.1984,175.5561 38.3474,176.7171 37.9334,177.4701 C37.2794,178.6601 37.8564,180.7951 39.2344,181.5731 C39.1624,180.7311 39.0434,179.9901 39.0624,179.2521 C39.0714,178.9311 39.3644,178.6161 39.5274,178.2991 C39.8334,178.4871 40.3704,178.6401 40.4054,178.8691 C40.6324,180.3791 40.7874,181.9021 40.8524517,183.4261 C40.8594,183.6011 40.1534,183.9931 39.8044,183.9661 C38.6774,183.8751 37.5624,183.6351 36.4434,183.4531 C36.9504,180.6711 35.4514,178.6401 34.0554,176.4751 C33.6474,175.8421 33.9834,174.4911 34.3614,173.6391 C34.9764,172.2501 35.1254,170.9471 34.3314,169.6811 C33.3524,168.1211 34.5144,167.3551 35.1584,166.3681" id="Fill-7" fill="#231916"></path>
                <path d="M105.7004,157.9531 C105.5964,158.8291 105.6754,159.2721 105.4924,159.5321 C104.6374,160.7471 103.6694,161.8831 102.8174,163.1001 C101.8774,164.4461 101.0574,165.8781 100.1044,167.2141 C99.7624,167.6931 99.1854,168.3291 98.7124,168.3331 C97.1164,168.3451 96.4784,169.1591 96.2664,170.5791 C96.2104,170.9621 96.0424,171.3271 95.9254,171.7011 C95.7064,171.6751 95.4874,171.6471 95.2684,171.6201 C95.3324,170.9771 95.1904,170.2051 95.4994,169.7171 C96.3574,168.3531 97.4174,167.1171 98.3724,165.8131 C99.7184,163.9741 100.9454,162.0381 102.4154,160.3061 C103.1554,159.4321 104.3164,158.9181 105.7004,157.9531" id="Fill-9" fill="#231916"></path>
                <path d="M30.384,166.1054 C31.312,166.8014 31.784,169.2624 31.044,169.8154 C29.57,170.9174 30.418,171.8894 30.941,172.9454 C31.21,173.4924 31.618,174.0244 31.688,174.5964 C31.739,175.0254 31.351,175.5074 31.158,175.9654 C30.861,175.6624 30.458,175.4074 30.286,175.0434 C29.91,174.2494 29.702,173.3734 29.322,172.5804 C29.147,172.2154 28.776,171.8254 28.406,171.6954 C26.696,171.0934 26.598,170.9094 27.456,168.6364 C27.751,169.2584 27.885,169.6874 28.138,170.0284 C28.34,170.2994 28.687,170.4644 28.969,170.6774 C29.16,170.3794 29.44,170.1054 29.527,169.7794 C29.833,168.6264 30.075,167.4574 30.384,166.1054" id="Fill-11" fill="#231916"></path>
                <path d="M45.4836,178.0507 C44.6566,176.2897 43.3836,174.9737 44.9236,173.1427 C45.4576,172.5087 45.2826,171.3357 43.9816,170.9147 C43.6186,170.7977 43.2296,169.9837 43.2766,169.5317 C43.3776,168.5637 43.7326,167.6147 44.0336,166.6747 C44.1026,166.4587 44.3736,166.3077 44.5516,166.1257 C44.7526,166.3507 45.1476,166.6007 45.1226,166.7937 C44.8976,168.4537 45.1746,169.9707 46.0316,171.4327 C46.2396,171.7857 46.1386,172.4657 45.9416,172.8827 C45.4256,173.9717 45.5486,174.8977 46.2716,175.8317 C47.0486,176.8357 46.4446,177.3937 45.4836,178.0507" id="Fill-13" fill="#231916"></path>
                <path d="M41.3976,171.6777 C42.1766,172.5467 42.8666,173.4297 42.1876,174.7367 C42.0806,174.9427 42.0946,175.2947 42.1956,175.5137 C42.7286,176.6727 43.6886,177.7827 43.7766,178.9647 C43.8986,180.6017 43.4186,182.2957 43.0776,183.9407 C43.0346,184.1457 42.2576,184.1987 41.8226,184.3217 C41.7366,183.8777 41.4206,183.2697 41.6016,183.0167 C43.5186,180.3317 42.0666,177.8537 41.2876,175.2977 C40.9436,174.1717 40.8666,172.9647 40.6676,171.7947 C40.9106,171.7557 41.1546,171.7167 41.3976,171.6777" id="Fill-15" fill="#231916"></path>
                <path d="M10.5265,174.1493 C12.5075,175.4363 13.7875,179.3513 12.9455,181.0783 C12.7595,181.4593 12.2405,181.6763 11.8755,181.9693 C11.6905,181.5693 11.4255,181.1853 11.3365,180.7633 C11.0325,179.3453 10.7525,177.9203 10.5435,176.4853 C10.4435,175.8023 10.5265,175.0933 10.5265,174.1493" id="Fill-17" fill="#231916"></path>
                <path d="M87.2551,164.6464 C84.7611,163.7124 84.5261,163.3034 85.6331,161.6674 C86.5021,160.3804 87.6021,159.2504 88.5991,158.0494 C88.8211,158.1624 89.0431,158.2734 89.2661,158.3854 C89.0751,158.9374 89.0231,159.6084 88.6681,160.0184 C87.5651,161.2934 86.5291,162.5424 87.2551,164.6464" id="Fill-19" fill="#231916"></path>
                <path d="M49.3342,182.7704 C48.2702,182.7704 47.5342,182.8264 46.8132,182.7444 C46.5212,182.7094 46.0522,182.4024 46.0242,182.1744 C45.9262,181.3614 45.8512,180.4974 46.0442,179.7204 C46.1192,179.4144 47.1882,178.9844 47.3482,179.1254 C48.3962,180.0574 49.2342,181.1704 49.3342,182.7704" id="Fill-21" fill="#231916"></path>
                <path d="M33.257,181.9579 C32.94,181.1759 32.575,180.4069 32.322,179.6039 C32.192,179.1869 32.256,178.7099 32.232,178.2609 C32.635,178.4319 33.269,178.4969 33.401,178.7899 C33.941,179.9839 34.446,181.2229 34.704,182.4979 C34.796,182.9459 34.142,183.5459 33.827,184.0769 C33.542,183.5719 33.24,183.0749 32.983,182.5569 C32.918,182.4289 32.993,182.2299 33.004,182.0629 C33.089,182.0279 33.173,181.9929 33.257,181.9579" id="Fill-23" fill="#231916"></path>
                <path d="M8.7384,175.747 C9.0264,177.397 9.4154,179.041 9.5384,180.703 C9.5724,181.172 8.8714,181.751 8.4034,182.159 C8.2874,182.26 7.4584,181.86 7.4704,181.741 C7.6674,179.76 7.9454,177.787 8.2064,175.811 C8.3834,175.79 8.5604,175.768 8.7384,175.747" id="Fill-25" fill="#231916"></path>
                <g id="编组" transform="translate(130.000000, 163.234000)">
                    <mask id="mask-6" fill="white">
                        <use xlink:href="#path-5"></use>
                    </mask>
                    <g id="Clip-28"></g>
                    <path d="M0.1008,4.2591 C0.2058,2.4061 1.4578,1.2501 2.8048,0.2141 C3.0358,0.0371 3.6548,0.3671 4.0948,0.4641 C3.9778,0.8801 3.9628,1.3731 3.7208,1.6971 C3.2728,2.2971 2.7118,2.8191 2.1608,3.3331 C1.6418,3.8171 1.0758,4.2481 0.5308,4.7031 C0.3868,4.5551 0.2448,4.4061 0.1008,4.2591" id="Fill-27" fill="#231916" mask="url(#mask-6)"></path>
                </g>
                <path d="M54.5715,181.3085 C54.5715,181.6395 54.6735,182.0185 54.5455,182.2905 C54.3845,182.6375 54.0405,183.1275 53.7675,183.132544 C53.4685,183.1375 53.0025,182.7155 52.8875,182.3835 C52.5275,181.3355 52.2695,180.2495 52.0395,179.1635 C51.9825,178.8985 52.1095,178.5215 52.2875,178.3095 C52.3795,178.2015 52.8955,178.2475 53.0055,178.3895 C53.6765,179.2615 54.2885,180.1805 54.9195,181.0835 C54.8025,181.1595 54.6865,181.2335 54.5715,181.3085" id="Fill-29" fill="#231916"></path>
                <path d="M94.1496,150.6279 C94.2006,151.2689 94.4146,151.9529 94.2596,152.5399 C94.0576,153.3139 93.6286,154.0549 93.1666,154.7199 C92.9736,154.9969 92.4476,155.0419 92.0726,155.1919 C92.0256,154.8149 91.8756,154.4129 91.9546,154.0649 C92.1216,153.3269 92.3556,152.5939 92.6636,151.9039 C92.8866,151.4049 93.2736,150.9799 93.5876,150.5209 C93.7746,150.5569 93.9626,150.5919 94.1496,150.6279" id="Fill-31" fill="#231916"></path>
                <path d="M100.4445,158.9667 C100.3745,158.5507 100.1775,158.1527 100.2795,157.8567 C100.5905,156.9477 100.9435,156.0367 101.4245,155.2107 C101.7075,154.7257 102.2245,154.3327 102.7225,154.0487 C102.8405,153.9817 103.5965,154.6917 103.5635,154.7467 C102.7545,156.0987 101.8795,157.4117 101.0055,158.7257 C100.9555,158.8007 100.8115,158.8137 100.4445,158.9667" id="Fill-33" fill="#231916"></path>
                <path d="M75.1847,183.08 C76.1187,183.071 77.0587,182.998 77.9837,183.088 C78.3057,183.119 78.7907,183.518 78.8377,183.809 C78.8907,184.13 78.6177,184.682 78.3247,184.85 C76.8087,185.72 75.2757,184.787 75.2337,183.030985 C75.2337,183.03 75.1847,183.08 75.1847,183.08" id="Fill-35" fill="#231916"></path>
                <path d="M123.9797,163.6581 C123.4887,164.8841 123.2887,166.3041 121.8087,166.9121 C121.4827,167.0471 121.0007,166.8021 120.5897,166.7311 C120.7067,166.3471 120.7087,165.8511 120.9587,165.6021 C121.7787,164.7841 122.6887,164.0551 123.5637,163.2931 C123.7027,163.4151 123.8407,163.5361 123.9797,163.6581" id="Fill-37" fill="#231916"></path>
                <path d="M31.0842,181.7919 C30.3522,182.4409 29.9632,182.7859 29.5742,183.1309 C29.0102,182.3199 28.4022,181.5329 27.9302,180.6729 C27.8622,180.5519 28.6692,179.7739 28.7042,179.7999 C29.4332,180.3379 30.1082,180.9459 31.0842,181.7919" id="Fill-39" fill="#231916"></path>
                <path d="M4.3586,176.7919 C5.9556,177.7909 6.6756,178.7839 6.0016,180.2829 C5.8486,180.6209 5.3706,180.8119 5.0416,181.0699 C4.8136,180.7419 4.4216,180.4299 4.3896,180.0839 C4.2996,179.1059 4.3586,178.1159 4.3586,176.7919" id="Fill-41" fill="#231916"></path>
                <path d="M84.4709,166.2626 C85.1109,166.8606 85.7399,167.2996 86.1429,167.8916 C86.3259,168.1596 86.2149,168.9626 85.9739,169.1216 C85.3839,169.5096 84.6399,169.6626 83.9579,169.9106 C83.9459,169.4636 83.8669,169.0066 83.9349,168.5736 C84.0439,167.8716 84.2499,167.1856 84.4709,166.2626" id="Fill-43" fill="#231916"></path>
                <path d="M122.7043,171.1728 C123.1233,172.8818 122.3503,174.6068 121.1783,175.1138 C120.9693,175.2038 120.5273,175.1898 120.4553,175.0688 C120.3093,174.8228 120.1963,174.3658 120.3283,174.1808 C121.0113,173.2268 121.7743,172.3308 122.7043,171.1728" id="Fill-45" fill="#231916"></path>
                <path d="M16.8732,177.0077 C16.6462,178.2807 16.4572,179.5627 16.1532,180.8177 C16.1052,181.0147 15.5412,181.0877 15.2162,181.2177 C15.1102,180.9317 14.8502,180.5937 14.9262,180.3687 C15.3162,179.2087 15.7952,178.0777 16.2422,176.9377 C16.4532,176.9607 16.6632,176.9847 16.8732,177.0077" id="Fill-47" fill="#231916"></path>
                <path d="M123.8127,180.4277 C123.4487,181.2357 123.1497,182.0847 122.6787,182.8247 C122.5337,183.0537 121.7917,183.1637 121.5507,182.9977 C121.3017,182.8257 121.1187,182.0967 121.2757,181.8827 C121.7987,181.1747 122.4877,180.5877 123.1127,179.9547 C123.3457,180.1127 123.5797,180.2697 123.8127,180.4277" id="Fill-49" fill="#231916"></path>
                <path d="M113.3644,157.3652 C113.3194,158.9822 112.3874,160.1622 110.9524,160.4212 C110.7934,159.0872 111.6854,157.9562 113.3644,157.3652" id="Fill-51" fill="#231916"></path>
                <path d="M23.2072,174.8925 C24.3762,175.9055 25.2432,176.6565 26.2022,177.4875 C24.5262,178.3535 23.1512,177.2375 23.2072,174.8925" id="Fill-53" fill="#231916"></path>
                <path d="M2.3674,179.7441 C1.7654,180.1961 1.1794,180.7321 1.1104,180.6741 C0.6634,180.2841 0.2114,179.8091 0.0114,179.2691 C-0.0776,179.0301 0.4164,178.5731 0.6454,178.2161 C1.1464,178.6601 1.6474,179.1041 2.3674,179.7441" id="Fill-55" fill="#231916"></path>
                <path d="M127.0832,179.0517 C127.1362,179.5367 127.3512,180.0807 127.2022,180.4927 C126.9952,181.0657 126.5332,181.5537 126.1332,182.0377 C126.0712,182.1127 125.5722,181.9447 125.574194,181.9337 C125.6572,181.3837 125.7162,180.8187 125.9002,180.2987 C126.0672,179.8277 126.3752,179.4077 126.6212,178.9657 C126.7752,178.9937 126.9302,179.0237 127.0832,179.0517" id="Fill-57" fill="#231916"></path>
                <path d="M124.6506,173.3173 C125.3186,172.5703 125.9866,171.8233 126.7416,170.9783 C127.4986,172.6863 126.7366,173.6663 124.6506,173.3173" id="Fill-59" fill="#231916"></path>
                <path d="M41.6105,166.4589 C41.7635,167.3859 41.9455,168.3099 42.0475,169.2419 C42.0685,169.4319 41.7815,169.8279 41.6485,169.8229 C41.3795,169.8129 40.8975,169.6069 40.8875,169.4569 C40.8195,168.4509 40.8515,167.4379 40.8515,166.4279 C41.1045,166.4379 41.3575,166.4479 41.6105,166.4589" id="Fill-61" fill="#231916"></path>
                <path d="M26.1935,174.9609 C27.7135,174.4869 28.4095,174.8769 28.3655,175.9879 C28.3535,176.2849 27.8565,176.5619 27.5825,176.8479 L26.1935,174.9609 Z" id="Fill-63" fill="#231916"></path>
                <path d="M15.8918,172.4111 C15.8528,173.2471 15.8148,174.0821 15.7758,174.9181 C15.5548,174.9131 15.3338,174.9071 15.1138,174.9011 L15.1138,172.3851 C15.3728,172.3931 15.6318,172.4021 15.8918,172.4111" id="Fill-65" fill="#231916"></path>
                <path d="M23.2043,173.3554 C23.3143,172.5084 23.4243,171.6634 23.5343,170.8174 C23.7783,170.8444 24.0233,170.8724 24.2683,170.8994 C24.1983,171.7634 24.1293,172.6264 24.0593,173.4904 L23.2043,173.3554 Z" id="Fill-67" fill="#231916"></path>
                <path d="M81.092,106.287 C81.631,105.146 82.166,104.136 82.584,103.079 C82.804,102.522 82.847,101.89 82.923,101.284 C83.046,100.313 83.015,99.301 83.297,98.383 C83.389,98.084 84.532,97.729 84.718,97.904 C85.41,98.56 86.515,99.591 86.356,100.179 C85.939,101.711 85.568,102.963 86.401,104.558 C87.069,105.838 85.802,106.904 84.805,107.508 C84.049,107.965 82.935,108.017 82.015,107.919 C81.669,107.881 81.424,106.909 81.092,106.287" id="Fill-69" fill="#231916"></path>
            </g>
        </g>
    </g>
</svg>