<?xml version="1.0" encoding="UTF-8"?>
<svg width="65px" height="216px" viewBox="0 0 65 216" version="1.1" xmlns="http://www.w3.org/2000/svg" xmlns:xlink="http://www.w3.org/1999/xlink">
    <!-- Generator: Sketch 60 (88103) - https://sketch.com -->
    <title>figure44</title>
    <desc>Created with Sketch.</desc>
    <defs>
        <polygon id="path-1" points="0.000121854913 0.155507976 64.932 0.155507976 64.932 215.9997 0.000121854913 215.9997"></polygon>
    </defs>
    <g id="页面-1" stroke="none" stroke-width="1" fill="none" fill-rule="evenodd">
        <g id="29-44" transform="translate(-244.000000, -484.000000)">
            <g id="figure44" transform="translate(244.000000, 483.000000)">
                <g id="编组" transform="translate(0.000000, 0.845000)">
                    <mask id="mask-2" fill="white">
                        <use xlink:href="#path-1"></use>
                    </mask>
                    <g id="Clip-2"></g>
                    <path d="M17.0028,148.9997 C16.9978,149.2217 16.9928,149.4427 16.9888,149.6647 L19.3028,149.6647 C19.3108,149.4957 19.3188,149.3267 19.3268,149.1587 C18.5528,149.1047 17.7768,149.0527 17.0028,148.9997 L17.0028,148.9997 Z M38.7228,211.9527 C38.8608,212.2027 39.0008,212.4527 39.1408,212.7017 C39.6328,212.4267 40.1658,212.1987 40.5888,211.8417 C40.6918,211.7547 40.4378,211.2417 40.3468,210.9247 C39.8058,211.2677 39.2638,211.6097 38.7228,211.9527 L38.7228,211.9527 Z M22.6728,54.1497 C22.5048,54.3807 22.3378,54.6097 22.1698,54.8407 C22.6968,55.2257 23.2258,55.6097 23.7528,55.9947 C23.8878,55.7387 24.1838,55.3047 24.1298,55.2557 C23.6808,54.8477 23.1668,54.5097 22.6728,54.1497 L22.6728,54.1497 Z M4.2178,155.0087 C4.0938,154.7907 3.9698,154.5727 3.8448,154.3547 C3.3368,154.6457 2.7918,154.8917 2.3508,155.2607 C2.2548,155.3407 2.5268,155.8617 2.6308,156.1797 C3.1598,155.7897 3.6888,155.3987 4.2178,155.0087 L4.2178,155.0087 Z M29.0508,34.0557 C29.2508,34.0327 29.4518,34.0097 29.6518,33.9857 C29.5968,33.1647 29.5418,32.3437 29.4858,31.5217 C29.3028,31.5337 29.1188,31.5457 28.9368,31.5577 C28.5078,32.4157 28.4268,33.2557 29.0508,34.0557 L29.0508,34.0557 Z M30.3938,99.0637 C30.3888,98.8257 30.3848,98.5877 30.3798,98.3497 C29.2268,98.4127 28.0728,98.4777 26.9198,98.5417 C26.9258,98.7157 26.9318,98.8907 26.9378,99.0637 L30.3938,99.0637 Z M6.1888,203.1837 L5.5818,203.2477 C5.6518,204.0227 5.5998,204.8427 5.8558,205.5517 C5.9528,205.8217 6.7568,205.8387 7.5148,206.0477 C6.9448,204.8167 6.5658,204.0007 6.1888,203.1837 L6.1888,203.1837 Z M33.7198,47.6377 C33.3738,48.1567 33.0398,48.5067 33.0988,48.5947 C33.5518,49.2737 34.0818,49.9027 34.5878,50.5477 C34.7818,50.3477 35.1798,50.0387 35.1398,49.9627 C34.7598,49.2457 34.3048,48.5677 33.7198,47.6377 L33.7198,47.6377 Z M14.9548,36.4347 C15.0328,36.2347 15.1118,36.0357 15.1908,35.8357 C14.5098,35.4487 13.8538,34.9947 13.1288,34.7267 C12.9578,34.6627 12.3488,35.2017 12.3168,35.5027 C12.2888,35.7867 12.7098,36.3227 13.0148,36.3927 C13.6318,36.5327 14.3048,36.4347 14.9548,36.4347 L14.9548,36.4347 Z M32.7008,41.0517 C32.4878,41.1827 32.2758,41.3127 32.0648,41.4437 C32.0648,42.0617 31.9818,42.6957 32.0978,43.2917 C32.1578,43.6047 32.5168,43.9837 32.8248,44.0897 C33.0948,44.1837 33.6388,44.0367 33.7778,43.8167 C33.9598,43.5307 34.0018,42.9977 33.8528,42.6947 C33.5608,42.1017 33.0948,41.5947 32.7008,41.0517 L32.7008,41.0517 Z M24.5438,89.5727 C24.0648,90.4417 23.3658,91.1547 23.3818,91.8517 C23.3948,92.4437 24.2318,93.0187 24.9248,93.8727 C25.1278,92.9327 25.0678,92.2807 25.3568,92.0257 C26.6498,90.8887 25.6828,90.4127 24.5438,89.5727 L24.5438,89.5727 Z M39.4868,138.5137 L39.4338,138.5137 C39.4828,137.9667 39.6018,137.4147 39.5548,136.8777 C39.5298,136.6047 39.2068,136.3577 39.0198,136.1007 C38.8678,136.3497 38.5738,136.6077 38.5908,136.8447 C38.6608,137.8407 38.6068,138.7197 37.7588,139.4577 C37.5388,139.6487 37.5678,140.3707 37.7518,140.6977 C37.8778,140.9207 38.5258,141.0297 38.8388,140.9147 C39.1258,140.8087 39.3858,140.3567 39.4608,140.0157 C39.5648,139.5357 39.4868,139.0167 39.4868,138.5137 L39.4868,138.5137 Z M59.2468,37.9437 C57.0588,38.4237 55.1378,38.8437 53.0468,39.3017 C54.9858,40.5137 58.0238,39.8957 59.2468,37.9437 L59.2468,37.9437 Z M46.9818,106.7387 C47.9098,104.6597 46.0798,103.5167 45.8218,101.6887 C44.5878,103.4417 45.1618,105.6607 46.9818,106.7387 L46.9818,106.7387 Z M10.2738,161.6327 C10.4668,161.6307 10.6598,161.6287 10.8548,161.6267 C10.8548,160.4917 10.7848,159.3517 10.8718,158.2227 C10.9698,156.9597 10.2668,156.3867 9.2238,155.8497 C8.4998,158.0847 9.4788,159.8407 10.2738,161.6327 L10.2738,161.6327 Z M36.9868,37.4057 C38.0718,37.7237 38.4128,37.5047 38.4478,36.1787 C38.4808,34.9667 38.1788,33.7007 39.3568,32.7617 C39.5438,32.6127 39.3828,32.0297 39.3828,31.6477 C39.0428,31.7587 38.5498,31.7677 38.3938,32.0007 C38.0098,32.5737 37.6678,33.2267 37.5138,33.8937 C37.2608,34.9897 37.1698,36.1227 36.9868,37.4057 L36.9868,37.4057 Z M48.4978,116.4967 C50.6108,115.5027 51.3108,110.7287 49.7658,109.5407 C49.6998,110.1737 49.6108,110.6807 49.6028,111.1887 C49.5838,112.2277 49.6948,113.1947 48.8438,114.1267 C48.3978,114.6137 48.5928,115.6877 48.4978,116.4967 L48.4978,116.4967 Z M55.8648,157.2797 C55.9278,156.8297 55.9558,156.3707 56.0608,155.9307 C56.1918,155.3797 56.2658,154.7567 56.5788,154.3157 C57.5038,153.0157 57.0178,151.7057 56.9808,150.2707 C55.2588,151.1847 54.4408,155.6627 55.8648,157.2797 L55.8648,157.2797 Z M24.0648,147.2017 C21.6188,146.3847 20.1218,144.9037 19.1488,142.7177 C18.9178,143.3167 18.9828,143.9167 18.8308,144.4537 C18.6568,145.0697 18.2898,145.6317 18.0038,146.2157 C19.1728,147.6017 22.0438,148.1657 24.0648,147.2017 L24.0648,147.2017 Z M21.3808,98.8807 C21.5148,98.8867 21.6488,98.8937 21.7818,98.8987 C21.7818,98.3127 21.7058,97.7137 21.8088,97.1457 C21.8778,96.7607 22.1958,96.4187 22.4028,96.0577 C22.7038,96.3907 23.1988,96.6897 23.2668,97.0657 C23.3998,97.8197 23.2488,98.6207 23.3248,99.3917 C23.3538,99.6847 23.6278,100.0897 23.8878,100.1877 C24.1748,100.2987 24.7258,100.2347 24.8858,100.0307 C25.0918,99.7677 25.1628,99.2377 25.0418,98.9167 C24.8738,98.4677 24.3418,98.1437 24.2128,97.6937 C24.0948,97.2797 24.3028,96.7707 24.3658,96.3057 C24.7628,96.3877 25.1568,96.4787 25.5558,96.5497 C26.4098,96.6987 27.2658,96.8367 28.4398,97.0317 C27.3088,95.8127 26.5308,94.9747 25.6958,94.0737 C24.8198,95.2707 23.9638,95.5517 22.8418,94.4057 C22.5598,94.1187 21.5338,94.1387 21.1948,94.4247 C20.6068,94.9207 19.5198,95.3707 20.0178,96.4867 C20.3898,97.3217 20.9198,98.0847 21.3808,98.8807 L21.3808,98.8807 Z M6.8798,201.2557 C7.0648,201.2697 7.2478,201.2837 7.4328,201.2977 C7.4998,200.8537 7.5458,200.4047 7.6398,199.9667 C7.7508,199.4467 7.8938,198.9347 8.0418,198.4237 C8.2258,197.7907 8.5818,197.1677 8.5978,196.5327 C8.6808,193.2827 8.6078,190.0277 8.7508,186.7807 C8.7908,185.8537 9.5868,184.9677 9.6548,184.0337 C9.8378,181.5707 9.8198,179.0937 9.8548,176.6217 C9.8578,176.3127 9.6908,176.0027 9.6018,175.6927 L9.1908,175.6987 C9.1178,176.0897 9.0318,176.4787 8.9738,176.8717 C8.6318,179.1587 9.5948,181.6307 7.9908,183.7497 C7.8528,183.9327 7.9258,184.2837 7.9218,184.5577 C7.8778,188.2647 7.8628,191.9737 7.7728,195.6797 C7.7588,196.2707 7.4758,196.8827 7.2068,197.4317 C6.5858,198.7027 6.5288,199.9657 6.8798,201.2557 L6.8798,201.2557 Z M32.0238,102.8317 C30.9238,102.8317 29.8118,102.7357 28.7318,102.8817 C28.3318,102.9367 27.7378,103.5317 27.6988,103.9277 C27.5698,105.2417 27.6168,106.5797 27.6768,107.9047 C27.6918,108.2557 27.9838,108.8847 28.1638,108.8897 C29.2838,108.9227 30.5418,109.1047 31.4908,108.6667 C32.3278,108.2797 32.6698,108.1277 33.4528,108.7407 C33.9508,109.1327 34.9438,109.0837 35.6468,108.9257 C35.9168,108.8647 36.1018,107.9607 36.1398,107.4277 C36.2188,106.2877 36.1628,105.1387 36.1898,103.9937 C36.2098,103.1907 35.8658,102.8087 35.0468,102.8247 C34.0398,102.8467 33.0308,102.8297 32.0238,102.8317 L32.0238,102.8317 Z M38.0718,210.2257 C38.0728,210.0777 38.0738,209.9307 38.0758,209.7827 C37.6728,209.7147 37.2708,209.5857 36.8668,209.586694 C32.3408,209.5947 27.8138,209.6157 23.2868,209.6577 C22.9458,209.6607 22.6028,209.8407 22.2688,209.9587 C21.6108,210.1897 20.9768,210.5107 20.3028,210.6567 C19.6408,210.8007 18.7928,210.6607 18.8398,211.6667 C18.8858,212.6777 19.7338,212.5207 20.4008,212.5227 C22.9628,212.5327 25.5238,212.5227 28.0848,212.5307 C28.4478,212.5317 28.9698,212.4427 29.1488,212.6407 C30.4698,214.0977 32.1858,213.5267 33.7668,213.6197 C34.4848,213.6617 35.2088,213.6267 36.1638,213.6267 C35.8918,213.1077 35.7948,212.9587 35.7318,212.7977 C35.5188,212.2477 35.0228,211.5627 35.1918,211.1767 C35.3678,210.7757 36.1828,210.6197 36.7438,210.4377 C37.1648,210.3007 37.6278,210.2917 38.0718,210.2257 L38.0718,210.2257 Z M15.7468,125.5467 C15.9438,125.4767 16.1428,125.4067 16.3398,125.3367 C16.3398,124.2777 16.3388,123.2197 16.3398,122.1607 C16.3418,120.5577 16.4088,118.9507 16.3088,117.3537 C16.2798,116.9067 15.7618,116.4897 15.4688,116.0597 C15.1398,116.4047 14.7318,116.7047 14.4968,117.1047 C13.8188,118.2617 13.1318,119.4247 13.2648,120.8677 C13.2818,121.0627 12.9138,121.2687 12.7888,121.5037 C12.2278,122.5547 11.5418,123.5707 11.1798,124.6887 C10.6558,126.3097 10.7468,128.2447 9.8818,129.6037 C9.0148,130.9657 9.0208,132.2447 9.0418,133.6027 C9.0668,135.2067 8.3038,137.0037 9.9518,138.3277 C10.1088,138.4537 10.0818,138.8467 10.0908,139.1157 C10.1228,140.1687 10.1598,141.2217 10.1468,142.2737 C10.1358,143.0897 9.9288,143.9107 10.7738,144.5247 C10.8778,144.6007 10.6188,145.5897 10.3448,145.6997 C8.8088,146.3197 8.5428,146.8577 9.2398,148.4547 C9.3668,148.4267 9.5278,148.4377 9.6228,148.3617 C9.8728,148.1657 10.1048,147.9417 10.3258,147.7127 C11.5978,146.3957 11.5808,146.4067 12.8748,147.7637 C13.1588,148.0617 13.6708,148.4847 13.9298,148.3997 C14.6958,148.1477 15.3878,147.6717 15.7588,147.4717 C15.5568,145.9437 15.2998,144.5707 15.2198,143.1877 C15.1728,142.3827 15.6268,141.9747 16.4548,142.5197 C16.6718,142.6607 16.8878,142.8037 17.3078,143.0797 C17.3078,140.6837 17.3108,138.4817 17.2978,136.2807 C17.2968,136.1667 17.1308,136.0627 17.0808,135.9387 C16.4588,134.3737 15.8388,132.8087 15.2348,131.2357 C15.1748,131.0767 15.2298,130.8727 15.2298,130.6897 C15.2328,129.8197 15.2428,128.9497 15.2398,128.0797 C15.2348,127.1887 15.4858,126.2257 14.3998,125.6737 C14.2668,125.6057 14.3808,125.0507 14.3808,124.7217 C14.6698,124.7277 15.0248,124.6327 15.2318,124.7667 C15.4718,124.9217 15.5808,125.2767 15.7468,125.5467 L15.7468,125.5467 Z M29.3048,28.6137 C29.7768,27.3957 30.1738,26.2367 30.6928,25.1377 C30.8238,24.8577 31.5998,24.5517 31.6558,24.6177 C32.8968,26.0737 34.5418,25.4437 36.0318,25.5037 C37.1468,25.5487 38.3548,26.5107 38.6828,27.6237 C38.8028,28.0297 39.2808,28.7067 39.4218,28.6657 C40.0308,28.4857 40.6248,28.1457 41.1158,27.7337 C41.2578,27.6157 40.9818,27.0637 41.0018,26.7177 C41.0278,26.2637 41.0138,25.6937 41.2718,25.3887 C41.9438,24.5907 42.8518,23.9787 43.4678,23.1467 C43.7408,22.7777 43.6898,22.0067 43.5238,21.5037 C42.9698,19.8217 42.1248,18.2187 41.7388,16.5057 C41.5398,15.6237 41.4288,14.8857 40.7108,14.2757 C39.9818,13.6577 39.3988,12.8587 38.6378,12.2907 C38.1058,11.8927 37.4028,11.6777 36.7438,11.4997 C34.1468,10.8027 31.8908,12.4297 29.4198,12.6587 C29.1718,12.6827 28.7988,13.2277 28.8008,13.5277 C28.8038,13.8127 29.1698,14.1967 29.4708,14.3517 C29.7698,14.5037 30.2218,14.3357 30.5448,14.4637 C31.0788,14.6767 31.6978,14.9127 32.0158,15.3387 C32.1888,15.5687 31.8608,16.5737 31.6738,16.6007 C31.0238,16.6887 30.2358,16.6787 29.6878,16.3717 C29.1028,16.0457 28.7298,15.3397 28.2638,14.7997 C28.1188,14.8537 27.9748,14.9057 27.8298,14.9597 C27.7748,15.3997 27.7798,15.8587 27.6508,16.2757 C27.4518,16.9247 27.2098,17.5697 26.8918,18.1677 C26.7058,18.5167 26.3598,18.7927 26.0498,19.0587 C24.9218,20.0247 25.6138,21.3077 25.5348,22.4307 C25.5178,22.6887 26.4878,22.9557 26.9088,23.3267 C27.2468,23.6247 27.5708,24.0577 27.6648,24.4817 C27.7898,25.0477 27.6948,25.6647 27.6788,26.2597 C27.6468,27.4127 28.2918,28.0757 29.3048,28.6137 L29.3048,28.6137 Z M19.5298,133.6897 L18.7308,133.9777 C18.8948,134.8107 19.0178,135.6537 19.2348,136.4727 C19.4338,137.2217 20.0368,137.9897 19.9318,138.6677 C19.6408,140.5597 20.9368,141.7957 21.6548,143.1987 C22.2518,144.3637 23.4638,145.2287 24.4648,146.1597 C24.7178,146.3947 25.2958,146.5617 25.5768,146.4347 C26.6148,145.9637 27.7818,145.5407 28.5398,144.7537 C29.4348,143.8247 30.1718,142.6077 30.5758,141.3847 C31.0088,140.0737 32.2888,139.0027 31.8248,137.3897 C31.7728,137.2067 32.2008,136.9147 32.3468,136.6417 C32.9058,135.5967 33.5378,134.5757 33.9548,133.4757 C34.2988,132.5677 34.3778,131.5607 34.6178,130.3777 C33.2468,129.2437 34.0648,127.3777 33.9098,125.7157 C33.8798,125.3857 34.4058,125.0037 34.6768,124.6457 C34.9398,125.0077 35.3418,125.3377 35.4368,125.7407 C35.5668,126.3007 35.4688,126.9147 35.4688,127.6767 C37.1648,126.6827 37.6258,126.1477 37.2428,124.8147 C36.8888,123.5817 36.0168,122.5067 35.4798,121.3127 C35.2418,120.7867 35.1138,120.1057 35.2378,119.5637 C35.2998,119.2967 36.1038,118.9677 36.4668,119.0627 C36.8728,119.1697 37.2488,119.6777 37.4818,120.0977 C38.0348,121.0877 38.4958,122.1297 39.2438,123.6617 C39.9428,122.7757 40.5188,122.0297 41.1118,121.2987 C42.4858,119.6057 44.6458,118.5767 45.1928,116.1657 C45.3988,115.2617 45.9928,114.3957 46.5728,113.6377 C47.4688,112.4637 47.4328,111.3867 46.4678,110.2667 C45.8458,109.5447 45.4398,108.6397 44.9018,107.8407 C44.7408,107.6007 44.4788,107.4107 44.2278,107.2547 C43.6368,106.8847 43.0158,106.5627 42.4238,106.1947 C41.2768,105.4817 40.1428,104.7517 38.8608,103.9377 C38.5578,105.1617 38.3528,106.0787 39.2298,106.9277 C39.4598,107.1507 39.6248,107.8707 39.5218,107.9447 C38.5778,108.6197 38.7168,109.5617 38.6658,110.5237 C38.6098,111.5807 36.9578,112.9267 36.5048,112.4087 C35.6108,111.3887 34.5178,111.7147 33.4618,111.6157 C32.9808,111.5707 32.5048,111.4147 32.0388,111.2707 C31.3748,111.0647 30.7358,110.7017 30.0638,110.6277 C28.9298,110.5027 27.7748,110.5157 26.6318,110.5387 C25.4828,110.5627 25.0848,109.9957 25.1228,108.9247 C25.1678,107.6887 25.2118,106.4487 25.1488,105.2167 C25.1268,104.7947 24.7788,104.3897 24.5808,103.9777 C23.4168,104.5777 22.1858,105.0827 21.1178,105.8227 C20.6008,106.1817 20.4248,107.0067 20.0328,107.5797 C19.1358,108.8927 18.1078,110.1267 17.3198,111.4997 C16.9088,112.2147 16.6198,113.2087 16.7698,113.9797 C16.9408,114.8707 17.6588,115.6547 18.1408,116.4847 C18.2548,116.4797 18.3688,116.4757 18.4838,116.4707 C18.4838,115.8417 18.4118,115.2017 18.5128,114.5897 C18.5668,114.2507 18.9098,113.9597 19.1228,113.6467 C19.4208,113.8667 19.9828,114.0987 19.9738,114.3047 C19.8748,116.4697 20.6298,118.7607 19.1048,120.8317 C19.7718,121.4997 20.2338,122.2037 19.0798,122.9797 C18.8808,123.1127 18.9088,124.1017 19.1388,124.2647 C20.1128,124.9567 20.0068,125.8957 19.9908,126.8567 C19.9708,128.1857 19.9268,129.5157 19.9778,130.8417 C19.9948,131.3027 20.1798,131.8117 20.4388,132.1967 C21.2528,133.4117 22.1828,134.5527 22.9588,135.7897 C23.0908,136.0007 22.7598,136.8257 22.5188,136.8887 C21.7308,137.0927 21.0368,136.9597 20.7258,135.9347 C20.4838,135.1387 19.9398,134.4357 19.5298,133.6897 L19.5298,133.6897 Z M21.3808,53.9257 C21.5278,53.8967 21.6758,53.8697 21.8218,53.8417 C21.8588,53.4147 21.9238,52.9887 21.9278,52.5617 C21.9438,50.7897 23.0038,49.6277 24.7968,49.6867 C26.0918,49.7287 26.9858,48.9167 27.2068,48.0437 C27.4818,46.9597 27.1068,45.6877 26.9088,44.5157 C26.8038,43.8917 26.4448,43.3157 26.2588,42.7007 C25.7918,41.1677 25.3588,39.6227 24.9038,38.0857 C24.8818,38.0097 24.7498,37.9697 24.7168,37.8927 C24.4818,37.3347 24.1248,36.7877 24.0618,36.2087 C23.9628,35.3057 24.1158,34.3767 24.0568,33.4657 C24.0338,33.1217 23.7878,32.6317 23.5118,32.5097 C23.2078,32.3757 22.6678,32.4737 22.3778,32.6777 C21.8628,33.0417 21.5008,33.6157 21.0008,34.0077 C19.3188,35.3257 18.3848,37.5677 16.0048,38.0457 C15.8148,38.0837 15.7138,38.5567 15.5658,38.8237 C15.3148,39.2797 15.1338,39.8057 14.7868,40.1737 C13.6608,41.3717 12.4828,42.5217 11.3038,43.6687 C10.5008,44.4497 9.7358,45.2127 10.0768,46.4977 C10.1398,46.7307 10.0678,47.1167 9.9048,47.2737 C8.8298,48.3117 7.8928,49.3957 7.4398,50.8917 C6.9418,52.5327 5.8628,54.0847 5.7308,55.7317 C5.4578,59.1007 5.5138,62.5147 5.7128,65.8937 C5.8018,67.4087 6.5578,68.8867 7.0198,70.3787 C7.0428,70.4547 7.1718,70.4937 7.2088,70.5707 C7.9388,72.1027 9.2118,73.4027 9.0088,75.3217 C8.9158,76.2057 8.7618,77.4367 9.2378,77.9507 C10.0918,78.8727 9.8908,80.8777 11.8718,80.7467 C11.9798,80.7397 12.0638,81.4117 12.2708,81.6817 C13.0348,82.6717 13.8378,83.6337 14.6608,84.5757 C14.7308,84.6557 15.1458,84.5817 15.2578,84.4547 C16.3388,83.2337 17.7678,83.9587 19.0248,83.7757 C19.2518,83.7427 19.7058,84.0407 19.7418,84.2427 C19.7938,84.5297 19.6368,84.9367 19.4308,85.1747 C18.7528,85.9577 17.9528,86.4017 16.8138,86.3557 C15.4228,86.2997 14.1118,87.8137 14.5908,88.7747 C15.3688,90.3377 16.2258,91.8617 17.0738,93.4497 C18.2098,92.8217 19.3468,92.0127 20.6088,91.5397 C22.3548,90.8867 22.9418,90.2797 22.9448,88.4097 C22.9458,87.0357 22.8758,85.6567 22.9578,84.2877 C22.9898,83.7547 23.2278,83.1287 23.5828,82.7377 C25.2548,80.9007 26.4998,78.9367 26.2598,76.3007 C26.1728,75.3477 26.2758,74.3777 26.2638,73.4157 C26.2588,73.0587 26.3008,72.5217 26.0988,72.3747 C24.8578,71.4757 25.1048,70.2147 25.1798,69.0007 C25.2338,68.1207 24.9898,67.6767 24.0018,67.5627 C22.8568,67.4317 21.8328,65.9977 21.8328,64.8007 C21.8328,63.9757 21.9028,63.1487 21.8568,62.3277 C21.8308,61.9007 21.7498,61.3357 21.4688,61.0907 C19.8928,59.7177 18.6498,58.1087 17.7138,56.2507 C17.2768,55.3847 16.6758,54.5587 16.4478,53.6407 C16.2068,52.6687 16.0018,51.5897 16.9958,50.7157 C17.3268,50.4247 17.4238,49.7487 17.4418,49.2417 C17.5458,46.3417 16.9088,43.3517 18.5288,40.6467 C18.6968,40.3657 19.0478,39.9127 19.1938,39.9547 C19.5158,40.0477 19.9558,40.3787 19.9958,40.6627 C20.0848,41.2807 19.9198,41.9317 19.9238,42.5667 C19.9258,43.0197 20.0348,43.4697 20.0958,43.9207 C20.2348,43.9047 20.3738,43.8907 20.5138,43.8757 C20.5898,43.5847 20.6018,43.2507 20.7588,43.0147 C20.9818,42.6807 21.3128,42.4187 21.5968,42.1257 C21.8248,42.4777 22.2218,42.8207 22.2378,43.1817 C22.2558,43.5637 21.9188,43.9667 21.7258,44.3547 C21.5158,44.7737 21.1208,45.1807 21.1038,45.6037 C21.0068,47.9827 20.9798,50.3657 20.9818,52.7477 C20.9818,53.1407 21.2408,53.5327 21.3808,53.9257 L21.3808,53.9257 Z M22.2898,215.9997 L16.2368,215.9997 C16.0408,215.6987 15.9148,215.2627 15.6368,215.1207 C14.3088,214.4407 12.9388,213.8407 11.4708,213.1597 C10.8478,213.8237 10.1128,214.0627 9.3518,213.0537 C9.2118,212.8697 8.7548,212.8957 8.4408,212.8787 C6.4528,212.7677 6.3908,212.7047 6.4348,210.6867 C6.4428,210.3197 6.5808,209.8997 6.4468,209.6007 C6.2578,209.1787 5.9368,208.6287 5.5568,208.5127 C3.9818,208.0357 3.1158,207.0207 3.1298,205.3857 C3.1388,204.2647 2.8608,203.0567 4.0888,202.2917 C4.2288,202.2047 4.2838,201.8657 4.2628,201.6557 C4.1618,200.6657 4.1768,199.7567 5.0668,199.0417 C5.2818,198.8697 5.2758,198.3617 5.2868,198.0067 C5.3218,196.7247 5.2618,195.4367 5.3538,194.1587 C5.4238,193.1727 5.6678,192.1987 5.8848,190.9277 C5.4388,190.5227 5.2068,189.8337 6.1628,189.0787 C6.3758,188.9097 6.3738,188.4017 6.3778,188.0487 C6.4068,185.4367 6.3858,182.8237 6.4458,180.2127 C6.4598,179.6607 6.7348,179.1117 6.9048,178.5657 C7.0858,177.9867 7.3848,177.4257 7.4548,176.8347 C7.5848,175.7487 7.1558,174.2607 7.7248,173.6297 C9.0278,172.1827 8.4548,170.6357 8.6488,169.1217 C8.7228,168.5387 8.9638,167.9157 9.3098,167.4437 C9.9168,166.6167 10.0958,163.9287 9.2788,163.3687 C7.5418,162.1797 7.3468,160.5207 7.4588,158.6757 C7.4928,158.1277 7.5468,157.5657 7.4668,157.0287 C7.3998,156.5777 7.2608,155.9177 6.9568,155.7797 C6.6368,155.6337 6.0688,155.9607 5.6388,156.1457 C5.2738,156.3027 4.9638,156.6937 4.6048,156.7297 C3.8148,156.8097 3.5628,157.1577 3.4058,157.9227 C3.3248,158.3237 2.6478,158.8567 2.2298,158.8657 C1.8188,158.8747 1.3468,158.3397 0.9978,157.9557 C0.8118,157.7507 0.9278,157.2047 0.7348,157.0807 C-0.3942,156.3547 0.0738,155.3467 0.2628,154.5577 C1.2918,154.0107 2.2078,153.3707 3.0878,152.6867 C3.9948,151.9797 4.5738,150.9307 5.9568,150.7537 C6.8318,150.6417 7.6218,149.8627 8.4828,149.3647 C6.4288,148.2367 6.5208,148.2317 6.4068,146.0887 C6.3148,144.3337 7.0398,142.4177 5.5628,140.8497 C5.4608,140.7417 5.7638,140.1317 5.9948,139.8517 C7.0018,138.6407 6.6448,137.3407 5.1888,136.8927 C4.8248,136.7797 4.4728,136.4987 4.2118,136.2087 C3.3218,135.2207 2.3648,134.4597 0.9098,134.7157 C0.6658,134.7587 0.3878,134.6127 0.0218,134.5307 C0.0218,132.8637 0.0138,131.2197 0.0308,129.5747 C0.0328,129.3657 0.1628,129.1567 0.2388,128.9497 C0.4718,128.3257 0.8198,127.7187 0.9118,127.0737 C1.0258,126.2667 0.8458,125.4157 0.9618,124.6077 C1.0218,124.1937 1.4398,123.5097 1.7148,123.5007 C3.1838,123.4537 3.1238,122.5397 3.0788,121.5077 C3.0328,120.4557 3.1178,119.3967 3.0618,118.3467 C3.0388,117.9287 2.8308,117.5017 2.6378,117.1127 C1.9178,115.6677 0.8678,114.3897 0.8968,112.6077 C0.9148,111.4267 1.5148,110.0277 0.0918,109.1197 C-0.0482,109.0307 0.0138,108.5987 0.0138,108.3247 C0.0088,104.1527 -0.0072,99.9807 0.0378,95.8107 C0.0428,95.4057 0.3718,94.9497 0.6618,94.6157 C1.4378,93.7237 2.5448,93.0067 3.0038,91.9867 C3.4068,91.0917 3.4998,90.2857 4.7118,90.3107 C4.9068,90.3137 5.2598,89.9227 5.2848,89.6867 C5.4788,87.9027 7.1008,87.2657 8.1238,86.1757 C8.3718,85.9107 9.1968,86.1877 9.7578,86.2157 C9.5738,86.6967 9.4408,87.2067 9.1948,87.6527 C8.7728,88.4187 8.3008,89.1607 7.8038,89.8807 C7.5908,90.1897 7.2658,90.6417 6.9848,90.6457 C5.9598,90.6607 5.6478,91.1537 5.6018,92.0907 C5.5868,92.3837 5.2408,92.7067 4.9758,92.9337 C2.3068,95.2197 0.8718,98.0067 1.3378,101.6117 C1.4128,102.1967 1.3048,102.8037 1.3328,103.3967 C1.3508,103.7517 1.3468,104.2587 1.5628,104.4257 C2.6328,105.2567 2.3598,106.3817 2.3688,107.4597 C2.3718,107.8667 2.2648,108.4547 2.4828,108.6497 C3.9348,109.9367 3.3748,111.6137 3.4728,113.1617 C3.5428,114.2557 3.1728,115.7057 3.7368,116.3707 C4.8748,117.7117 4.4958,119.1027 4.6088,120.5057 C4.6818,121.4057 4.4648,122.5417 4.9298,123.1537 C5.7858,124.2807 5.7408,125.4617 5.7298,126.6687 C5.7248,127.1037 5.2858,127.5317 5.0458,127.9637 C4.7648,127.5207 4.3898,127.1107 4.2268,126.6287 C4.0658,126.1527 4.1198,125.6037 4.0788,125.0887 C3.8568,125.0997 3.6338,125.1107 3.4108,125.1217 C3.4108,125.8867 3.4728,126.6577 3.3908,127.4127 C3.3268,128.0037 3.2318,128.6867 2.8918,129.1317 C2.0858,130.1867 2.0188,131.5097 3.0628,132.3787 C3.7608,132.9607 4.7158,133.2337 5.4198,133.8117 C6.0208,134.3067 6.4078,134.2427 6.7458,133.6707 C7.0558,133.1467 7.5428,132.4907 7.4408,131.9997 C6.8498,129.1597 9.1268,126.8637 8.8488,124.0967 C8.8188,123.8117 9.3038,123.4497 9.5868,123.1607 C10.3718,122.3617 11.1068,121.5607 10.8408,120.2957 C10.7968,120.0877 10.8398,119.8087 10.9508,119.6297 C11.9818,117.9607 13.1798,116.3687 13.1168,114.2537 C13.1108,114.0677 13.3518,113.8797 13.4638,113.6847 C14.0548,112.6547 14.7358,111.6647 15.2048,110.5817 C15.8728,109.0407 16.5008,107.5197 17.6128,106.2027 C18.4268,105.2377 19.0268,104.0827 19.6398,102.9667 C19.7688,102.7307 19.6478,102.1147 19.4408,101.9797 C18.2728,101.2167 18.6428,100.0707 18.5168,99.0087 C18.4338,98.3137 18.1698,97.4957 17.6958,97.0287 C17.1298,96.4717 16.0808,96.3877 15.5508,95.8127 C14.8198,95.0227 14.3278,93.9907 13.8308,93.0147 C13.4828,92.3297 13.2428,91.5767 13.0548,90.8287 C12.8788,90.1377 13.0388,89.2887 12.6958,88.7257 C11.6158,86.9497 11.5518,86.9887 13.1588,85.4427 C12.2868,84.9607 11.4918,84.5557 10.7368,84.0877 C10.3858,83.8697 10.0438,83.5757 9.8118,83.2367 C9.3658,82.5877 9.0518,81.8467 8.5948,81.2057 C7.4298,79.5717 6.2188,77.9767 6.4338,75.7927 C6.6678,73.4097 5.3608,71.6797 4.0038,69.9377 C3.5698,69.3827 3.1778,68.6187 3.1638,67.9427 C3.0858,64.1397 3.1338,60.3337 3.1298,56.5287 C3.1288,55.5267 2.9508,54.4997 4.0128,53.8157 C4.2068,53.6907 4.3198,53.2047 4.2528,52.9407 C3.8158,51.2507 5.2148,50.1907 5.7528,48.8927 C6.5238,47.0287 7.8878,45.4337 7.5558,43.2067 C7.4358,42.3987 7.5938,41.5547 7.5238,40.7347 C7.3918,39.1737 8.1428,37.4237 6.5588,36.1407 C6.3798,35.9957 6.4328,35.5317 6.4268,35.2147 C6.4118,34.3447 6.3478,33.4647 6.4498,32.6047 C6.5138,32.0747 6.7658,31.2117 7.0758,31.1427 C7.6308,31.0187 8.3028,31.3557 8.9108,31.5477 C10.3208,31.9917 11.3958,33.1937 13.0708,33.1287 C14.3238,33.0797 15.7628,32.6927 16.7958,33.9397 C16.8738,34.0337 17.2568,33.9947 17.4068,33.8897 C18.6758,32.9967 19.9948,32.1577 21.1518,31.1357 C22.0388,30.3517 22.8248,29.7127 24.1258,29.8087 C25.1878,29.8857 26.5798,28.3427 26.2108,27.5937 C25.6068,26.3707 24.9558,25.1107 24.0518,24.1147 C23.2478,23.2287 22.7788,22.4117 22.9258,21.2177 C23.0038,20.5867 22.9428,19.9367 22.9258,19.2947 C22.9008,18.3967 23.1698,17.8247 24.2018,17.7017 C24.5578,17.6597 25.0248,17.1877 25.1458,16.8167 C25.4458,15.8867 25.5778,14.8997 25.7708,13.9697 C25.5848,13.3477 25.0318,12.5187 25.2418,11.9897 C25.7198,10.7847 26.4798,9.6537 27.2978,8.6317 C27.9648,7.7997 28.7258,7.1377 28.4688,5.8987 C28.3948,5.5427 28.6678,5.0047 28.9478,4.7027 C30.3108,3.2357 31.4938,1.2667 33.1948,0.5437 C34.9108,-0.1853 37.1588,0.3407 39.1748,0.3167 C39.2208,0.3167 39.2658,0.3167 39.3118,0.3167 C41.0558,0.3237 42.0118,1.3057 42.0028,3.0987 C41.9978,4.2437 41.9398,5.3917 41.9818,6.5347 C41.9968,6.9567 42.2148,7.3757 42.3658,7.7867 C42.9748,9.4447 43.7288,11.0657 44.1598,12.7697 C44.4218,13.8007 44.0948,14.9677 44.2208,16.0527 C44.3008,16.7477 44.6688,17.4337 45.0088,18.0687 C45.4208,18.8387 46.1528,19.4977 46.3558,20.3027 C46.5928,21.2517 46.4078,22.3057 46.4108,23.3137 C46.4118,24.1097 46.1128,24.5997 45.2378,24.7027 C44.5328,24.7857 42.8838,27.5257 43.1138,28.1737 C43.1998,28.4137 43.4388,28.5977 43.5978,28.8147 C43.7808,29.0657 44.1108,29.3267 44.1068,29.5797 C44.0888,30.9287 44.9318,30.9467 45.9398,30.9777 C46.7678,31.0017 47.9158,30.9777 48.3488,31.4747 C49.3418,32.6137 50.1128,34.0037 50.7158,35.4027 C51.0218,36.1137 51.2548,36.4677 52.0178,36.4557 C53.6218,36.4317 55.2278,36.4777 56.8298,36.4147 C57.2928,36.3957 57.8298,36.2137 58.1898,35.9267 C59.4738,34.8977 60.8958,35.4367 62.2678,35.4877 C62.4568,35.4947 62.7678,35.8327 62.7938,36.0467 C62.9278,37.1087 63.2348,38.1677 62.1878,39.0817 C61.4788,39.7007 60.2098,40.3657 60.7068,41.4757 C61.4408,43.1147 61.1728,44.5527 60.7408,46.1567 C60.4638,47.1837 60.6418,48.3447 60.6898,49.4417 C60.7078,49.8647 60.9188,50.2847 61.0658,50.6967 C61.2968,51.3427 61.5748,51.9717 61.7778,52.6247 C61.8838,52.9627 61.7338,53.5187 61.9318,53.6657 C63.1968,54.6097 62.8808,55.9117 62.8828,57.1747 C62.8838,58.5077 63.7248,59.1677 64.9328,59.4597 L64.9328,69.9137 C64.0498,69.8007 63.9678,70.3627 63.9658,71.0277 C63.9648,71.5257 64.0408,72.0757 63.8618,72.5127 C63.2358,74.0427 62.4608,75.5127 61.8428,77.0457 C61.1278,78.8197 60.5118,80.6327 58.9498,81.8957 C58.8128,82.0087 58.6298,82.1697 58.6188,82.3187 C58.5348,83.4557 58.1568,84.2447 56.8128,84.2237 C56.6398,84.2207 56.3308,84.7647 56.3058,85.0727 C56.2348,85.9227 55.8368,86.2847 55.0008,86.3447 C54.6768,86.3677 54.3668,86.6347 54.0578,86.8047 C53.0518,87.3567 52.0858,88.0067 51.0298,88.4367 C50.4738,88.6637 49.7348,88.6297 49.1358,88.4827 C48.8528,88.4137 48.4478,87.5677 48.5318,87.4767 C49.0468,86.9217 49.6228,86.3517 50.2958,86.0317 C51.9338,85.2547 53.7568,84.7807 54.9178,83.2547 C55.7438,82.1677 56.4358,80.9797 57.2218,79.8617 C58.2148,78.4507 59.3268,77.1157 60.2258,75.6477 C60.7928,74.7217 61.2248,73.6427 61.4228,72.5767 C61.6478,71.3687 61.1068,69.9877 62.4368,69.0807 C62.5938,68.9737 62.5898,68.5687 62.5918,68.3027 C62.6058,66.6057 62.8508,64.8597 62.5228,63.2297 C62.2458,61.8547 61.1978,60.6477 61.3098,59.1067 C61.3148,59.0427 61.1718,58.9797 61.1398,58.9007 C60.5038,57.2997 59.8738,55.6957 59.2458,54.0927 C59.2308,54.0527 59.2608,53.9957 59.2458,53.9557 C58.9978,53.2787 58.7808,52.5877 58.4878,51.9307 C58.0568,50.9637 57.6198,49.9937 57.0968,49.0757 C56.1888,47.4847 55.2128,45.9337 54.2588,44.3677 C54.2148,44.2967 54.0998,44.2727 54.0388,44.2077 C53.2388,43.3367 52.0568,42.5787 51.7498,41.5587 C51.3968,40.3877 50.6278,39.7457 49.9598,38.9157 C48.9348,37.6437 47.2278,36.9267 46.9798,34.9837 C46.9188,34.5137 46.0348,34.1467 45.5288,33.7337 C45.0708,34.3747 44.3308,34.9697 44.2178,35.6667 C44.0158,36.9147 44.2078,38.2237 44.1988,39.5067 C44.1958,39.9087 44.1568,40.3427 44.0028,40.7067 C43.3638,42.2147 42.7468,43.7387 41.9858,45.1867 C41.1328,46.8117 40.2078,48.4097 39.1678,49.9207 C38.5818,50.7707 37.6258,51.3577 36.9728,52.1727 C35.8728,53.5457 34.2668,54.1807 32.9328,55.1957 C31.0008,56.6667 29.1028,57.9637 26.5228,57.7197 C25.7968,57.6497 25.0508,57.6787 24.3268,57.7687 C23.9648,57.8127 23.4088,58.0377 23.3418,58.2887 C23.2458,58.6417 23.5008,59.1037 23.6468,59.5037 C23.8798,60.1497 24.2678,60.7677 24.3658,61.4307 C24.4718,62.1407 24.2778,62.8907 24.2938,63.6207 C24.3038,64.0427 24.4678,64.4617 24.6228,65.1537 C24.9708,64.7247 25.1318,64.6077 25.1788,64.4557 C25.9138,62.0837 29.3938,60.7117 31.5778,61.9557 C32.4978,62.4797 33.3878,63.0547 34.3078,63.5787 C34.4798,63.6777 34.8608,63.7407 34.9158,63.6607 C35.9648,62.1457 37.6008,61.9717 39.1778,61.4137 C40.1428,61.0717 41.0418,60.5747 42.0698,60.6867 C43.1798,60.8097 43.9798,60.3447 44.5268,59.5307 C45.1398,58.6227 45.7308,57.6357 46.0168,56.5967 C46.1928,55.9537 45.8268,55.1387 45.6278,54.4217 C45.4548,53.8007 45.0378,53.2247 44.9718,52.6027 C44.8608,51.5597 44.9168,50.4957 44.9558,49.4417 C44.9768,48.9067 44.9248,48.1787 45.2348,47.8837 C45.9718,47.1837 46.0048,46.4177 46.0088,45.5187 C46.0098,45.1207 46.4278,44.7247 46.6558,44.3277 C46.9488,44.7157 47.4718,45.0907 47.4928,45.4937 C47.5598,46.7237 47.4098,47.9637 47.3958,49.1997 C47.3908,49.6367 47.5298,50.0747 47.6048,50.5127 L48.0618,50.5067 C48.1248,50.0657 48.2388,49.6257 48.2428,49.1847 C48.2598,47.2597 48.1898,45.3307 48.2768,43.4097 C48.2988,42.9317 48.6988,42.2147 49.0898,42.0767 C49.5128,41.9297 50.4288,42.1927 50.5858,42.5297 C50.7988,42.9867 50.5508,43.7007 50.3958,44.2757 C50.2508,44.8137 49.7878,45.3117 49.7748,45.8347 C49.7008,48.8117 49.8608,51.8027 49.6518,54.7687 C49.5408,56.3437 48.8568,57.8817 48.3998,59.4267 C48.3438,59.6157 48.0988,59.7607 47.9218,59.9017 C46.7988,60.8057 45.6688,61.7017 44.4868,62.6447 C44.6078,62.7097 44.8228,62.9287 45.0348,62.9257 C47.1458,62.8977 49.3898,63.2657 50.7708,61.0017 C51.0248,60.5837 51.4108,60.1247 51.8408,59.9667 C52.4168,59.7537 53.3198,59.5317 53.6818,59.8187 C54.4428,60.4257 53.6178,60.8677 53.1738,61.2987 C52.0518,62.3887 50.9458,63.4937 49.8328,64.5947 C50.0778,64.8257 50.1328,64.9047 50.2078,64.9437 C50.7188,65.2147 51.2338,65.4757 51.7488,65.7397 C51.2658,66.0317 50.8158,66.4227 50.2948,66.5967 C48.6318,67.1527 48.0188,69.2207 49.0858,70.6237 C49.4158,71.0587 49.6568,71.6607 49.6908,72.2007 C49.7878,73.8007 49.8278,75.4117 49.7418,77.0107 C49.7158,77.5067 49.2128,77.9777 48.9278,78.4587 C48.6768,77.9897 48.2688,77.5417 48.2038,77.0487 C47.9978,75.4797 48.7238,73.7367 47.2518,72.4157 C47.1448,72.3197 47.1948,72.0617 47.1458,71.8887 C46.7488,70.5157 46.3468,69.1447 45.9318,67.7257 C43.7498,69.0107 43.7488,69.0117 41.9898,67.3137 C41.8258,67.1557 41.7108,66.8847 41.5228,66.8247 C41.1108,66.6957 40.6148,66.5227 40.2568,66.6517 C40.0028,66.7437 39.8148,67.2907 39.7778,67.6517 C39.7148,68.2857 39.7978,68.9337 39.8048,69.5747 C39.8148,70.4767 39.3878,70.9377 38.4578,70.9027 C37.4908,70.8657 37.2238,70.2717 37.2368,69.4297 C37.2448,68.9187 37.2388,68.4087 37.2388,67.6407 C34.1048,69.9387 34.6778,66.3447 33.2068,65.4307 C33.2068,66.5827 33.2218,67.4977 33.2028,68.4107 C33.1798,69.5927 32.1208,70.3017 31.2908,69.6157 C30.9228,69.3117 30.8258,68.5957 30.7478,68.0457 C30.6388,67.2637 30.6598,66.4627 30.6248,65.6697 C30.4428,65.6657 30.2618,65.6617 30.0798,65.6567 C30.0108,66.0157 29.8888,66.3727 29.8828,66.7317 C29.8708,67.5567 30.0018,68.3917 29.9068,69.2027 C29.8498,69.7027 29.4838,70.1687 29.2568,70.6487 C28.9738,70.1567 28.4908,69.6817 28.4488,69.1697 C28.3508,67.9887 28.4898,66.7907 28.4818,65.6007 C28.4788,65.2317 28.3088,64.8657 28.2158,64.4977 L27.7758,64.5297 C27.7078,64.9407 27.5878,65.3507 27.5808,65.7627 C27.5608,67.0457 27.5878,68.3297 27.5878,69.6127 C27.5868,71.6357 27.7598,71.7427 29.7938,71.7337 C31.4708,71.7267 33.2818,71.0907 34.3988,72.3287 C35.4598,72.1227 36.4568,71.6017 36.9698,71.9017 C37.9098,72.4557 38.9398,73.1937 38.7348,74.7207 C38.6598,75.2777 39.1938,76.0337 39.6428,76.5247 C41.2248,78.2627 41.2558,78.2327 40.1548,79.9097 C40.2938,81.7217 42.9158,82.8897 40.8848,84.9137 C40.8138,84.9847 40.8588,85.1797 40.8588,85.3167 C40.8568,86.6007 40.8198,87.8857 40.8798,89.1657 C40.8988,89.5787 41.0858,90.0557 41.3518,90.3737 C42.3358,91.5547 42.2738,92.9687 41.2078,94.1317 C40.6688,94.7197 39.9668,95.3837 39.8578,96.0927 C39.6538,97.4387 40.2278,98.9297 38.6378,99.9737 C39.5068,100.2777 40.1648,100.3627 40.6398,100.7027 C41.9918,101.6727 43.0078,101.6187 44.2368,100.5687 C44.9288,99.9787 45.8098,99.6157 46.5858,99.1207 C46.7988,98.9857 46.9778,98.7667 47.1168,98.5507 C48.3078,96.7057 49.4908,94.8567 50.6608,93.0007 C50.9898,92.4787 51.3678,91.9577 51.5508,91.3817 C52.0148,89.9157 53.9418,88.7357 55.3398,89.3537 C55.8048,89.5587 56.2568,90.5087 56.1858,91.0487 C56.0718,91.9217 55.4398,91.6457 54.8498,91.2557 C54.6228,91.1047 54.0798,91.2067 53.8138,91.3877 C53.2748,91.7537 53.0268,92.1867 53.6428,92.8387 C54.3718,93.6107 53.2468,97.0817 52.1778,97.2277 C51.1418,97.3687 50.8298,97.7737 50.6718,98.7527 C50.5528,99.4907 49.7028,100.1667 49.7228,100.8557 C49.7438,101.6557 50.5218,102.4087 50.6808,103.2367 C50.9558,104.6667 52.4438,105.7217 51.9238,107.3827 C51.8878,107.4997 52.0478,107.7557 52.1838,107.8387 C53.0938,108.3937 53.0248,109.2657 53.0108,110.1497 C52.9878,111.5257 53.0828,112.9067 52.9778,114.2737 C52.9308,114.8877 52.4708,115.4577 52.2918,116.0747 C52.1468,116.5797 51.8988,117.4257 52.1138,117.5987 C52.9628,118.2777 53.0368,119.0937 53.0218,120.0467 C53.0158,120.4167 53.3008,120.7877 53.4348,121.1647 C53.6668,121.8187 54.0698,122.4767 54.0778,123.1367 C54.1228,127.1697 54.0648,131.2037 54.0818,135.2367 C54.0838,135.6367 54.2808,136.2827 54.5418,136.3737 C54.9328,136.5097 55.5818,136.4057 55.9068,136.1417 C57.3298,134.9817 58.7578,133.7867 58.1038,131.5797 C57.8788,130.8227 58.0318,129.8867 57.6448,129.2597 C56.8508,127.9777 56.8028,126.8137 57.7078,125.5387 C57.9958,125.1337 58.0058,124.5307 58.1518,124.0207 C58.5978,122.4737 59.0448,120.9257 59.4998,119.3797 C59.5228,119.3027 59.6518,119.2577 59.6808,119.1797 C59.9158,118.5387 60.1908,117.9057 60.3538,117.2457 C60.5538,116.4337 60.6128,115.5867 60.8158,114.7737 C60.9688,114.1557 61.3608,113.5857 61.4518,112.9647 C61.7728,110.7797 60.6838,108.4077 62.2868,106.5297 C61.9778,105.8857 61.5458,105.3497 61.4818,104.7717 C61.3618,103.6857 61.2588,102.5297 61.5008,101.4847 C61.9518,99.5427 60.7828,98.1037 60.1478,96.5497 C59.3848,94.6867 58.1738,93.0137 57.2778,91.1977 C57.0718,90.7807 57.3598,90.1197 57.4208,89.5717 C57.8338,89.7357 58.3878,89.7827 58.6388,90.0837 C59.8328,91.5127 61.3918,92.5427 62.1078,94.5047 C62.8088,96.4217 64.3528,98.0127 64.0138,100.3117 C63.9738,100.5817 64.6088,100.9527 64.9328,101.2767 L64.9328,110.6317 C63.9168,110.5127 63.9248,111.2207 63.9818,111.8787 C64.1928,114.2427 63.9778,116.5067 62.8218,118.6537 C62.0688,120.0537 61.4828,121.5427 60.8248,122.9937 C60.4228,123.8817 59.7648,124.7487 59.6838,125.6667 C59.5138,127.5737 59.6338,129.5097 59.6838,131.4327 C59.6908,131.7087 59.9408,132.0017 60.1328,132.2447 C61.0418,133.3957 60.8888,134.8357 59.9728,135.9187 C58.6878,137.4367 57.2628,138.4217 55.1588,138.1457 C54.8248,138.1027 54.2118,138.4517 54.1238,138.7407 C54.0258,139.0627 54.2848,139.6097 54.5568,139.9057 C55.3888,140.8147 56.2898,141.6627 57.1848,142.5127 C58.0288,143.3147 58.8078,144.1007 58.4958,145.4517 C58.4258,145.7567 58.8018,146.1567 58.9518,146.5207 C59.1828,147.0817 59.5638,147.6437 59.5848,148.2147 C59.6578,150.2747 59.4548,152.3537 59.6508,154.3977 C59.8218,156.1747 58.3788,157.2057 58.0788,158.7277 C57.9488,159.3897 57.4828,160.0007 57.4248,160.6567 C57.3288,161.7317 57.6318,162.8587 56.4968,163.6347 C56.2878,163.7777 56.2518,164.3177 56.2898,164.6577 C56.4758,166.3377 55.0348,167.3367 54.6048,168.7597 C54.4988,169.1077 54.1008,169.4967 53.7528,169.6107 C53.2358,169.7807 52.5738,169.8937 52.1118,169.6997 C51.8198,169.5787 51.5428,168.7667 51.6728,168.4167 C52.0698,167.3447 52.6488,166.3377 53.1908,165.3217 C53.7278,164.3137 54.4108,163.3687 54.8218,162.3147 C55.0528,161.7227 54.8628,160.9657 54.8628,160.2827 C54.6938,160.2287 54.5258,160.1757 54.3568,160.1217 C53.9208,160.7077 53.4538,161.2747 53.0548,161.8867 C52.6698,162.4757 52.4318,163.1757 51.9798,163.6957 C51.7248,163.9887 51.1658,164.0177 50.7448,164.1647 C50.6488,163.6997 50.3508,163.1557 50.4938,162.7837 C50.8768,161.7937 51.4788,160.8907 51.9388,159.9267 C52.2318,159.3117 52.5498,158.6677 52.6428,158.0057 C52.8998,156.1767 52.0008,154.1487 53.6338,152.5527 C53.7588,152.4297 53.7098,152.1127 53.7158,151.8857 C53.7718,149.9617 53.8338,148.0377 53.8608,146.1137 C53.8668,145.7137 53.7348,145.3107 53.6668,144.9087 C53.2368,145.1087 53.0318,145.3137 53.0078,145.5387 C52.8088,147.3537 53.3358,149.3087 51.9428,150.8927 C51.8688,150.9767 51.8948,151.1587 51.8958,151.2957 C51.9168,153.1507 50.7988,154.5157 49.8428,155.9317 C49.6318,156.2437 49.1208,156.3537 48.7478,156.5567 C48.5668,156.1297 48.3298,155.7177 48.2168,155.2737 C47.9008,154.0457 48.8728,153.2957 49.3408,152.3477 C50.0938,150.8197 50.7768,149.2617 50.4978,147.4647 C50.4598,147.2207 50.8018,146.9337 50.9198,146.6457 C51.1368,146.1227 51.4768,145.5877 51.4878,145.0517 C51.5538,141.9357 51.4948,138.8157 51.5828,135.7007 C51.6058,134.9017 52.0238,134.1187 52.2148,133.3167 C52.2788,133.0487 52.2448,132.7337 52.1748,132.4607 C51.9898,131.7467 51.5988,131.0487 51.5798,130.3357 C51.5098,127.7247 51.5928,125.1087 51.5348,122.4977 C51.5198,121.8287 51.1958,121.1677 51.0148,120.5027 C50.3328,120.8607 49.6148,121.1667 48.9878,121.6037 C48.7428,121.7737 48.7648,122.2827 48.5588,122.5597 C47.6408,123.7977 46.2818,124.6277 45.4028,125.9097 C45.3708,125.9567 45.1988,125.8937 45.1408,125.9407 C44.4648,126.4957 43.5148,126.9327 43.1838,127.6517 C42.3678,129.4297 41.7378,131.2557 40.1758,132.5957 C39.3028,133.3437 39.6058,134.2177 40.7678,134.3727 C41.7108,134.4977 42.1068,134.9937 41.9898,135.8347 C41.8898,136.5577 41.5758,137.2497 41.3728,137.9607 C41.3038,138.2027 41.1618,138.6067 41.2588,138.6867 C42.4468,139.6577 41.8948,140.9837 41.9958,142.1627 C42.0648,142.9547 41.7178,143.5167 40.8348,143.5307 C39.9648,143.5457 39.8038,144.0347 39.8068,144.7957 C39.8228,148.7377 39.9508,152.6877 39.7358,156.6177 C39.6148,158.8387 40.7288,160.4037 41.6148,162.1837 C42.2538,163.4647 42.7178,164.8607 43.0578,166.2567 C43.3178,167.3217 45.4118,169.4167 46.5038,169.5577 C47.7458,169.7167 48.4318,168.9927 49.1918,168.2387 C49.4898,167.9437 49.9988,167.8637 50.4108,167.6857 C50.5018,168.1887 50.7938,168.7617 50.6488,169.1837 C50.0188,171.0137 46.7128,171.8027 45.1558,170.6347 C44.7068,170.2977 44.0368,170.2567 43.4688,170.0797 C43.3418,170.5827 43.1068,171.0847 43.1058,171.5877 C43.0808,175.9417 43.1068,180.2967 43.0908,184.6507 C43.0888,185.1357 42.9548,185.6307 42.8158,186.1017 C42.5828,186.8897 42.1868,187.6457 42.0558,188.4457 C41.8358,189.7947 42.3918,191.3147 41.0618,192.3977 C40.9288,192.5067 40.9428,192.8307 40.9398,193.0557 C40.9178,194.7507 41.0378,196.4607 40.8578,198.1387 C40.6818,199.7847 40.2408,201.4087 39.8328,203.0207 C39.7448,203.3647 39.2948,203.6167 39.0108,203.9117 C38.7688,203.6217 38.2828,203.2967 38.3208,203.0497 C38.6918,200.5927 37.4308,197.9267 39.2478,195.6457 C39.4188,195.4307 39.3938,195.0317 39.3988,194.7187 C39.4218,193.1147 39.3938,191.5097 39.4548,189.9077 C39.4728,189.4377 39.7108,188.9737 39.8708,188.5147 C40.0708,187.9397 40.4668,187.3777 40.4808,186.8037 C40.5528,183.8707 40.5048,180.9357 40.5608,178.0027 C40.5708,177.4517 40.7378,176.8187 41.0488,176.3757 C41.8358,175.2527 41.8668,174.2007 40.9698,173.0587 C40.2168,172.0987 40.4508,169.4177 41.1798,168.5037 C41.4748,168.1347 41.5388,167.3057 41.3318,166.8597 C40.6138,165.3167 39.4398,164.0167 39.3828,162.1397 C39.3618,161.4657 38.6058,160.8137 38.1858,160.1517 C38.0468,160.2237 37.9088,160.2937 37.7708,160.3637 C37.7238,160.6647 37.6388,160.9647 37.6368,161.2657 C37.6188,165.0237 37.6318,168.7827 37.5828,172.5407 C37.5758,173.0937 37.3058,173.6457 37.1328,174.1907 C36.9478,174.7717 36.6578,175.3297 36.5488,175.9217 C36.2018,177.7807 37.1768,179.8737 35.5128,181.5187 C35.3138,181.7157 35.3928,182.2217 35.3908,182.5847 C35.3828,183.6857 35.4258,184.7867 35.3928,185.8857 C35.3788,186.3257 35.3668,186.9477 35.0968,187.1667 C34.2258,187.8697 34.1628,188.7997 34.3908,189.6657 C35.0768,192.2817 33.0648,194.3577 33.0668,196.8237 C33.0678,197.0327 32.7028,197.2207 32.5798,197.4567 C32.3978,197.8077 32.0878,198.2367 32.1628,198.5557 C32.7388,200.9987 31.0398,203.0397 31.0038,205.3707 C30.9998,205.6217 30.5888,206.0367 30.3328,206.0637 C30.0888,206.0897 29.5688,205.7107 29.5678,205.5077 C29.5558,203.6377 29.1048,201.5217 29.8298,199.9677 C30.5238,198.4787 30.4338,197.1117 30.6678,195.6797 C30.7818,194.9807 31.0668,194.2017 31.5308,193.6937 C32.3728,192.7727 32.8908,191.9047 32.8188,190.5587 C32.6908,188.1367 32.8098,185.7017 32.8378,183.2717 C32.8418,182.9567 32.7988,182.5017 32.9798,182.3477 C34.2738,181.2457 33.8968,179.7797 33.9558,178.3947 C33.9818,177.7727 34.0928,177.1437 34.2558,176.5427 C34.4578,175.7917 34.8408,175.0827 34.9918,174.3247 C35.4168,172.2037 34.2338,169.8257 36.0328,167.9057 C36.1778,167.7527 36.0968,167.3757 36.0958,167.1027 C36.0928,165.4977 36.0778,163.8937 36.0778,162.2887 C36.0778,161.2617 35.8088,160.1627 37.0158,159.4957 C37.2218,159.3827 37.2458,158.8297 37.2508,158.4787 C37.2938,155.4997 37.2758,152.5197 37.3678,149.5427 C37.3888,148.8687 37.8168,148.2177 37.9618,147.5347 C38.1408,146.6867 38.2178,145.8167 38.3758,144.6997 C36.1928,145.6657 36.4648,147.1977 36.4208,148.6457 C36.3968,149.4377 36.3118,150.2777 36.0158,150.9997 C35.5788,152.0627 34.8398,153.0027 34.3938,154.0627 C33.6458,155.8407 32.9878,157.6477 31.4418,158.9367 C31.2738,159.0757 31.0668,159.2967 31.0628,159.4847 C31.0148,161.2707 29.3958,161.9017 28.4248,162.9727 C28.1328,163.2937 27.2058,163.0397 26.5698,163.0497 C26.5838,162.3827 26.3238,161.4937 26.6558,161.0877 C28.4718,158.8647 31.1048,157.3787 32.1698,154.4527 C32.7858,152.7607 33.8718,151.2417 34.7168,149.6297 C34.7958,149.4777 34.7118,149.1787 34.6078,149.0037 C33.8858,147.7687 32.8048,147.5897 31.8468,148.6807 C29.3808,151.4877 26.3838,152.8027 22.6218,152.3667 C21.4448,152.2307 20.2398,152.3577 19.0478,152.3367 C18.6898,152.3297 18.2178,152.3557 17.9948,152.1517 C16.1638,150.4757 13.9658,151.4407 11.9428,151.3377 C11.4218,151.3107 10.7518,152.1007 10.3768,152.6657 C10.2768,152.8167 10.9308,153.6767 11.3928,153.9267 C11.7678,154.1297 12.4648,154.0617 12.8538,153.8337 C13.3568,153.5377 13.8198,152.8257 14.2868,153.5677 C14.5408,153.9737 14.4648,154.9597 14.1398,155.2757 C13.4588,155.9397 13.3198,156.6147 13.3388,157.4817 C13.3478,157.8977 13.0608,158.3197 12.9078,158.7397 C12.7148,159.2737 12.3568,159.8077 12.3538,160.3437 C12.3038,166.9907 12.3088,173.6387 12.2878,180.2847 C12.2858,180.6897 12.3438,181.2817 12.1138,181.4687 C10.8958,182.4637 11.3188,183.8047 11.2318,185.0357 C11.1608,186.0227 11.3548,187.0527 10.3818,187.8057 C10.1438,187.9897 10.1448,188.5647 10.1418,188.9617 C10.1028,194.5087 10.0988,200.0557 10.0408,205.6027 C10.0308,206.5727 10.3198,206.9097 11.3348,207.0687 C12.9738,207.3257 14.5658,207.8777 16.1728,208.3257 C16.3298,208.3697 16.4448,208.5617 16.5838,208.6797 C17.4578,209.4197 18.7368,209.3867 19.7098,208.7287 C20.1668,208.4187 20.7618,208.1597 21.3018,208.1457 C24.2788,208.0697 27.2608,208.0967 30.2388,208.0377 C30.7518,208.0267 31.3398,207.8957 31.7548,207.6157 C32.9688,206.7967 35.2588,206.8147 36.4808,207.6187 C37.4818,208.2767 38.5648,208.4397 39.6048,207.5447 C39.8948,207.2957 40.3028,207.0977 40.6788,207.0497 C42.7708,206.7827 42.7388,206.8007 42.7678,204.6297 C42.7798,203.6917 42.9068,202.7447 43.0888,201.8237 C43.2378,201.0677 43.6588,200.3577 43.7638,199.6007 C44.1078,197.0967 42.9928,194.3877 44.8478,192.0837 C44.9848,191.9117 44.8988,191.5497 44.8988,191.2757 C44.8958,188.2507 44.8838,185.2267 44.8858,182.2007 C44.8878,179.2227 44.8848,176.2437 44.9328,173.2667 C44.9398,172.8717 45.2308,172.4807 45.3908,172.0897 C45.7458,172.2367 46.1638,172.3107 46.4458,172.5457 C47.6478,173.5477 48.0188,176.1937 47.0628,177.3617 C46.6038,177.9227 46.7268,178.1677 47.0548,178.7407 C47.3438,179.2447 47.3958,180.1867 47.1048,180.6617 C46.2798,182.0087 46.1958,184.8467 47.0748,186.2757 C47.2508,186.5617 47.1308,187.0847 47.0328,187.4697 C46.8958,188.0107 46.5378,188.5107 46.4708,189.0527 C46.1898,191.3387 47.1978,193.8187 45.4018,195.8817 C45.2828,196.0187 45.3448,196.3247 45.3438,196.5527 C45.3288,199.8977 45.3628,203.2457 45.2678,206.5897 C45.2478,207.2697 44.8748,208.0467 44.4288,208.5817 C43.6638,209.4977 42.7768,210.2437 43.0608,211.6557 C43.1318,212.0107 42.6718,212.5137 42.3818,212.8907 C41.5748,213.9427 40.7288,214.9657 39.8978,215.9997 L28.3428,215.9997 C28.2738,215.7527 28.2838,215.3687 28.1258,215.2797 C27.4428,214.8947 26.7218,214.5697 25.9908,214.2797 C25.8378,214.2197 25.5908,214.3997 25.3858,214.4637 C24.7288,214.6687 24.0818,214.9397 23.4088,215.0537 C22.8018,215.1557 22.1828,215.1077 22.2898,215.9997 L22.2898,215.9997 Z" id="Fill-1" fill="#231916" mask="url(#mask-2)"></path>
                </g>
                <path d="M19.1043,171.459 C18.8763,170.198 18.5873,169.268 18.5623,168.33 C18.4853,165.494 18.4883,162.654 18.5213,159.817 C18.5263,159.39 18.8573,158.965 19.0383,158.539 C19.4103,158.742 19.7963,158.924 20.1513,159.153 C21.0333,159.724 21.1203,160.584 21.1083,161.556 C21.0683,164.852 21.0973,168.147 21.1073,171.442 C21.1083,171.713 21.0653,172.113 21.2163,172.232 C22.6883,173.384 22.0123,174.995 22.2063,176.427 C22.2953,177.099 22.6813,177.727 22.8963,178.387 C23.0603,178.891 23.2473,179.408 23.2803,179.929 C23.3453,180.955 23.0423,182.038 24.0523,182.848 C24.1773,182.948 23.8843,183.572 23.7843,183.953 C23.1793,183.772 22.1563,183.73 22.0423,183.387 C21.5343,181.853 20.1983,180.523 20.7293,178.688 C20.8073,178.417 20.7353,177.938 20.5453,177.783 C19.3933,176.845 19.6253,175.599 19.6583,174.373 C19.6673,174.024 19.6603,173.497 19.4513,173.35 C18.3923,172.604 18.5283,171.883 19.1043,171.459" id="Fill-3" fill="#231916"></path>
                <path d="M16.868,183.3408 C18.452,184.7418 17.726,186.5348 17.834,188.1648 C17.893,189.0778 17.893,189.8628 18.558,190.6888 C19.007,191.2448 18.85,192.3238 18.862,193.1708 C18.864,193.3618 18.411,193.7408 18.218,193.7108 C17.934,193.6668 17.618,193.3808 17.451,193.1128 C16.141,191.0118 16.148,188.6758 16.293,186.3188 C16.306,186.0938 16.338,185.7688 16.212,185.6538 C14.59,184.1768 15.263,182.2288 15.199,180.4808 C15.088,177.4148 15.206,174.3428 15.155,171.2738 C15.145,170.6948 14.802,170.1188 14.604,169.5438 C14.433,169.0418 14.11,168.5458 14.1,168.0428 C14.048,165.3408 14.033,162.6358 14.105,159.9358 C14.118,159.4598 14.598,158.9958 14.863,158.5278 C15.131,159.0198 15.606,159.5018 15.631,160.0058 C15.719,161.8798 15.66,163.7608 15.655,165.6398 C15.651,166.7638 15.431,167.8958 16.483,168.8098 C16.795,169.0788 16.741,169.8428 16.744,170.3808 C16.763,173.5418 16.742,176.7028 16.75,179.8638 C16.751,180.2668 16.689,180.8488 16.916,181.0398 C17.853,181.8298 17.693,182.5558 16.868,183.3408" id="Fill-5" fill="#231916"></path>
                <path d="M5.7332,102.9639 C5.7332,104.0649 5.7282,105.1639 5.7362,106.2649 C5.7382,106.5829 5.6492,107.0279 5.8192,107.1979 C7.4622,108.8429 6.7102,110.9219 6.8162,112.8039 C6.9622,115.3619 6.8002,117.9379 6.8742,120.5019 C6.8912,121.0999 7.4722,121.6689 7.5402,122.2779 C7.6842,123.5939 7.6642,124.9269 7.7102,126.2529 C7.3162,126.2069 6.7182,126.2969 6.5762,126.0829 C6.3532,125.7489 6.4172,125.2099 6.3972,124.7559 C6.3552,123.7279 6.6022,122.6509 5.5542,121.8729 C5.3132,121.6939 5.3102,121.1099 5.3042,120.7119 C5.2752,118.5119 5.2822,116.3119 5.2682,114.1109 C5.2602,112.9459 5.5422,111.7329 4.4782,110.7759 C4.2392,110.5609 4.2542,109.9999 4.2482,109.5979 C4.2032,106.2049 4.1462,102.8129 4.1902,99.4219 C4.1962,98.9379 4.7232,98.4599 5.0092,97.9799 C5.2612,98.4489 5.6862,98.9029 5.7302,99.3919 C5.8362,100.5729 5.7642,101.7729 5.7642,102.9639 L5.7332,102.9639 Z" id="Fill-7" fill="#231916"></path>
                <path d="M44.9325,84.7363 C44.9915,83.4033 45.0695,82.1613 44.0385,81.0103 C43.6155,80.5383 43.7645,79.4153 43.8805,78.6213 C44.1555,76.7273 42.7265,75.4873 42.2425,73.8973 C41.9625,72.9823 41.7935,72.0243 41.6915,71.0733 C41.6775,70.9443 42.5845,70.5313 42.6525,70.6083 C43.2235,71.2673 43.8255,71.9533 44.1775,72.7393 C44.7675,74.0573 45.1855,75.4533 45.6645,76.8203 C45.9215,77.5533 46.2805,78.2803 46.3725,79.0373 C46.5375,80.3943 46.3375,81.6733 47.2315,83.0393 C47.9035,84.0653 47.9655,85.8013 46.9205,87.1423 C46.3305,87.9013 46.0195,88.8763 45.4355,89.6403 C45.1895,89.9623 44.5635,89.9933 44.1105,90.1563 C44.0615,89.6023 43.7585,88.7693 44.0075,88.5433 C45.2235,87.4353 44.9535,86.0623 44.9325,84.7363" id="Fill-9" fill="#231916"></path>
                <path d="M43.1786,98.461 C42.6666,98.025 41.8756,97.678 41.7036,97.135 C41.3996,96.174 42.0826,95.809 43.0506,95.558 C44.0836,95.29 44.9996,94.584 45.9816,94.097 C46.3496,93.914 46.7546,93.807 47.1436,93.666 C47.2676,94.118 47.5536,94.596 47.4856,95.017 C47.3086,96.108 44.5516,98.172 43.1786,98.461" id="Fill-11" fill="#231916"></path>
                <path d="M43.4471,114.6983 C42.9521,116.2843 42.4771,117.8773 41.9401,119.4493 C41.8601,119.6823 41.4201,120.0083 41.2661,119.9533 C40.9821,119.8513 40.5601,119.4683 40.5911,119.2593 C40.8351,117.5523 40.0581,115.7163 41.3381,114.1123 C41.6671,113.7003 41.4251,112.8723 41.5971,112.2803 C41.7161,111.8753 42.0981,111.5473 42.3631,111.1843 C42.6341,111.5403 43.0751,111.8693 43.1391,112.2593 C43.2631,113.0153 43.1761,113.8073 43.1761,114.5853 C43.2661,114.6233 43.3561,114.6603 43.4471,114.6983" id="Fill-13" fill="#231916"></path>
                <path d="M39.8602,117.168 C39.8602,118.123 39.9192,119.083 39.8312,120.03 C39.7972,120.402 39.4342,120.745 39.2212,121.101 C38.9152,120.768 38.3602,120.444 38.3442,120.098 C38.2562,118.147 38.2612,116.189 38.3362,114.236 C38.3462,113.943 38.8912,113.672 39.1892,113.39 C39.4092,113.694 39.7892,113.984 39.8182,114.307 C39.9022,115.254 39.8482,116.213 39.8482,117.168 L39.8602,117.168 Z" id="Fill-15" fill="#231916"></path>
                <path d="M38.0243,18.4229 C37.3373,17.8469 36.3173,17.2689 36.3933,17.0049 C36.7213,15.8549 37.8803,16.2199 38.5903,16.4319 C39.3433,16.6569 39.9863,17.3469 40.5793,17.9329 C40.6953,18.0469 40.4473,18.6779 40.2253,18.9569 C39.8023,19.4889 39.3193,19.9969 38.7773,20.4029 C38.4403,20.6549 37.9503,20.7029 37.5283,20.8429 C37.4613,20.3379 37.2683,19.8079 37.3643,19.3349 C37.4423,18.9479 37.8633,18.6319 38.0243,18.4229" id="Fill-17" fill="#231916"></path>
                <path d="M34.6385,25.4375 C33.7055,25.4655 32.7855,25.3975 32.8365,24.1445 C32.8895,22.8625 33.8985,23.0085 34.7705,22.9905 C35.6575,22.9715 36.5155,23.0415 36.5055,24.2085 C36.4955,25.4725 35.5415,25.4525 34.6385,25.4375" id="Fill-19" fill="#231916"></path>
                <path d="M30.8983,20.4658 C30.3693,19.9868 30.0413,19.6908 29.7133,19.3948 C30.0673,19.1248 30.4153,18.6528 30.7763,18.6418 C31.1513,18.6298 31.5393,19.0658 31.9213,19.3058 C31.6353,19.6288 31.3503,19.9528 30.8983,20.4658" id="Fill-21" fill="#231916"></path>
            </g>
        </g>
    </g>
</svg>