<?xml version="1.0" encoding="UTF-8"?>
<svg width="145px" height="124px" viewBox="0 0 145 124" version="1.1" xmlns="http://www.w3.org/2000/svg" xmlns:xlink="http://www.w3.org/1999/xlink">
    <!-- Generator: Sketch 60 (88103) - https://sketch.com -->
    <title>figure49</title>
    <desc>Created with Sketch.</desc>
    <defs>
        <polygon id="path-1" points="0 0.153 144.158 0.153 144.158 111.687945 0 111.687945"></polygon>
        <polygon id="path-3" points="0.190535922 0.896914651 85.8647596 0.896914651 85.8647596 16 0.190535922 16"></polygon>
    </defs>
    <g id="页面-1" stroke="none" stroke-width="1" fill="none" fill-rule="evenodd">
        <g id="29-44" transform="translate(-1087.000000, -527.000000)">
            <g id="figure49" transform="translate(1087.000000, 526.000000)">
                <g id="编组" transform="translate(0.000000, 0.847000)">
                    <mask id="mask-2" fill="white">
                        <use xlink:href="#path-1"></use>
                    </mask>
                    <g id="Clip-2"></g>
                    <path d="M72.5013,68.427 C72.6493,68.415 72.7973,68.404 72.9443,68.392 C72.9193,67.823 72.8943,67.253 72.8673,66.685 L72.5013,66.714 L72.5013,68.427 Z M93.9343,39.332 C93.5933,39.833 93.2353,40.131 93.2713,40.37 C93.3103,40.631 93.7563,41.058 93.9453,41.02 C94.2453,40.958 94.6113,40.607 94.6923,40.308 C94.7423,40.121 94.3213,39.807 93.9343,39.332 L93.9343,39.332 Z M73.2283,69.469 C73.7703,69.365 74.3223,69.42 74.4713,69.2 C74.8253,68.676 74.9233,68.029 74.3673,67.398 C74.0133,68.042 73.6993,68.612 73.2283,69.469 L73.2283,69.469 Z M92.9303,89.211 C92.3823,88.963 91.9463,88.735 91.4873,88.573 C91.2743,88.497 91.0183,88.55 90.7803,88.545 C90.8483,88.829 90.8373,89.296 90.9963,89.364 C91.6003,89.623 92.2603,89.759 92.9303,89.211 L92.9303,89.211 Z M109.5883,2.505 C109.6893,2.449 109.7923,2.394 109.8943,2.338 C109.7473,2.005 109.6603,1.442 109.4433,1.386 C108.9013,1.247 108.3013,1.34 107.7243,1.34 C107.7283,1.429 107.7313,1.517 107.7353,1.606 C108.3543,1.906 108.9713,2.205 109.5883,2.505 L109.5883,2.505 Z M86.4453,65.22 C86.3023,65.162 86.1573,65.106 86.0133,65.049 C85.4573,65.395 84.6723,65.612 84.9443,66.522 C85.0093,66.74 85.5283,66.822 85.8393,66.966 L86.4453,65.22 Z M71.1463,64.94 C71.0503,64.945 70.9533,64.948 70.8563,64.953 C70.3613,66.134 70.5373,68.113 71.1463,68.345 L71.1463,64.94 Z M89.0663,67.004 C89.2063,67.004 89.3683,67.051 89.4803,66.995 C89.8283,66.823 90.1573,66.612 90.4943,66.415 C90.2123,66.144 89.9473,65.852 89.6443,65.607 C89.3823,65.396 89.0943,65.196 88.7853,65.073 C88.4833,64.952 88.1033,64.822 87.8283,64.912 C87.6393,64.976 87.4893,65.399 87.4633,65.675 C87.3523,66.836 87.5603,66.993 89.0663,67.004 L89.0663,67.004 Z M95.7213,108.943 C95.9023,108.822 96.0853,108.7 96.2673,108.578 C96.4003,107.905 96.6063,107.244 96.0633,106.58 C95.4483,105.829 94.6683,105.577 93.7653,105.785 C93.5473,105.835 93.2363,106.229 93.2653,106.419 C93.3053,106.68 93.5933,106.947 93.8373,107.121 C94.2623,107.425 94.7863,107.604 95.1713,107.945 C95.4383,108.182 95.5433,108.604 95.7213,108.943 L95.7213,108.943 Z M89.7773,81.762 C90.0453,82.225 90.2203,82.797 90.4053,82.8 C91.0163,82.81 91.7213,82.765 92.2203,82.463 C92.9973,81.992 93.1993,81.136 92.9223,80.262 C92.6423,79.375 91.4643,78.644 91.0393,79.114 C90.3913,79.83 89.9073,79.549 89.3583,79.104 C88.9043,80.073 89.0203,80.315 89.9013,80.369 C90.1793,80.387 90.4883,80.308 90.7273,80.407 C91.0453,80.541 91.4263,80.75 91.5593,81.031 C91.6753,81.276 91.5223,81.929 91.4213,81.944 C91.0263,82.001 90.6053,81.876 89.7773,81.762 L89.7773,81.762 Z M76.8733,73.446 C77.2143,72.848 77.6243,72.239 77.9153,71.578 C78.1303,71.092 77.9543,70.64 77.3363,70.632 C76.1543,70.617 74.9713,70.63 73.7933,70.704 C73.5813,70.717 73.3163,71.053 73.2213,71.296 C73.1653,71.437 73.3483,71.795 73.5123,71.877 C74.6353,72.434 75.7823,72.944 76.8733,73.446 L76.8733,73.446 Z M74.7763,34.244 C75.4743,34.395 75.9783,34.349 76.1763,34.573 C76.8653,35.353 77.7363,35.214 78.5913,35.224 C79.4613,35.234 80.3323,35.21 81.2013,35.237 C81.5023,35.245 81.9393,35.256 82.0753,35.442 C82.6093,36.164 83.3383,36.063 84.0623,36.063 C85.2113,36.062 86.3643,35.999 87.5063,36.089 C88.0753,36.133 88.6713,36.376 89.1713,36.671 C89.8823,37.091 91.1083,36.949 91.3463,36.343 C91.5133,35.917 91.7933,35.535 91.9763,35.114 C92.0913,34.846 92.2443,34.489 92.1523,34.267 C92.0683,34.063 91.6863,33.89 91.4223,33.869 C90.4043,33.789 89.3253,34.036 88.5123,33.113 C88.3893,32.974 88.0373,33.059 87.8123,32.983 C87.2823,32.803 86.7573,32.607 86.2433,32.384 C85.4733,32.05 84.7293,31.648 83.9443,31.35 C82.9433,30.968 81.7453,30.88 80.9413,30.263 C80.0773,29.601 79.8013,30.016 79.2883,30.521 C78.7073,31.094 78.1383,31.818 77.4183,32.08 C76.2923,32.492 75.7323,33.364 74.7763,34.244 L74.7763,34.244 Z M55.0503,99.878 L54.8923,100.482 C55.5063,100.749 56.1113,101.044 56.7403,101.274 C57.0883,101.401 57.6403,101.286 57.8163,101.507 C58.4033,102.241 59.1613,102.111 59.9143,102.129 C60.2603,102.137 60.7393,102.032 60.9303,102.216 C62.1393,103.379 63.6233,102.827 64.9943,102.966 C65.4003,103.007 65.8133,103.059 66.2063,103.163 C66.8443,103.332 67.4593,103.667 68.1013,103.721 C69.3473,103.824 70.6053,103.775 71.8583,103.804 C72.1673,103.812 72.6053,103.764 72.7583,103.94 C73.4933,104.78 74.4513,104.577 75.3703,104.655 C75.7543,104.687 76.1093,104.992 76.4963,105.047 C77.4583,105.185 78.4603,105.421 79.3883,105.267 C79.8163,105.195 80.2583,104.345 80.4223,103.77 C80.6063,103.125 80.5333,102.388 80.4753,101.698 C80.4473,101.372 80.2603,100.857 80.0323,100.784 C78.8203,100.402 77.7183,99.531 76.3223,99.859 C76.1773,99.893 75.9293,99.829 75.8413,99.72 C75.3083,99.063 74.3843,99.362 73.8893,99.031 C72.6823,98.223 71.3933,98.233 70.0833,98.108 C69.9653,98.097 69.8703,97.927 69.7463,97.875 C69.3153,97.698 68.8753,97.544 68.4403,97.375 C67.9803,97.197 67.5343,96.948 67.0583,96.843 C66.4403,96.706 65.6643,96.417 65.1933,96.658 C63.8483,97.349 62.6483,98.332 61.0143,98.284 C60.8833,98.281 60.7623,98.526 60.6093,98.586 C59.4403,99.049 58.4893,100.071 57.0643,99.892 C56.4023,99.809 55.7223,99.878 55.0503,99.878 L55.0503,99.878 Z M43.0753,55.721 C43.3823,56.075 43.5183,56.341 43.7353,56.463 C44.2893,56.777 44.8903,57.006 45.4523,57.305 C46.2503,57.729 46.9873,58.314 47.8303,58.591 C48.8373,58.923 49.6773,59.808 50.8873,59.559 C51.0553,59.525 51.3293,59.855 51.5103,60.057 C52.4243,61.083 53.7243,61.424 54.8883,62.014 C55.7813,62.465 56.6863,62.938 57.4733,63.546 C58.1383,64.06 58.6683,64.668 59.6373,64.525 C59.9203,64.483 60.2893,64.703 60.5503,64.896 C61.1583,65.345 63.0573,65.405 63.7043,65.048 C64.1883,64.781 64.7493,64.597 65.2973,64.516 C65.9103,64.424 66.5633,64.571 67.1673,64.454 C67.4673,64.397 67.9163,63.982 67.9143067,63.731 C67.9123,63.246 67.7693,62.473 67.4533,62.33 C66.0953,61.717 64.6953,61.222 63.6963,60.028 C63.5943,59.905 63.4193,59.823 63.2613,59.766 C61.9533,59.297 60.7443,58.702 59.6873,57.745 C58.7963,56.94 57.7293,56.329 56.7383,55.634 C56.7113,55.614 56.6743,55.609 56.6423,55.596 C55.0713,54.957 53.7963,53.86 52.4363,52.896 C52.1933,52.725 51.9883,52.502 51.7993,52.333 C51.3543,52.608 51.0233,52.857 50.6573,53.028 C49.8693,53.397 49.0123,53.64 48.2763,54.088 C46.8763,54.943 45.5283,55.855 43.7603,55.54 C43.6153,55.514 43.4483,55.617 43.0753,55.721 L43.0753,55.721 Z M52.7243,89.218 C51.1863,88.591 49.6373,88.021 48.1423,87.332 C47.0243,86.818 45.9183,86.234 44.9243,85.518 C44.3643,85.115 43.9013,84.804 43.1823,84.788 C42.7963,84.781 42.1053,84.408 42.0933,84.17 C42.0323,83.097 41.3363,83.158 40.6273,83.158 C37.3873,83.156 34.1473,83.166 30.9073,83.141 C30.4813,83.137 30.0523,82.965 29.6343,82.838 C29.1903,82.703 28.7643,82.408 28.3233,82.394 C26.3743,82.327 24.4223,82.358 22.4733,82.301 C22.0553,82.289 21.6473,82.052 21.2283,81.938 C20.5223,81.745 19.8113,81.569 19.1023,81.386 C19.0293,81.562 18.9573,81.737 18.8863,81.912 C19.3943,82.24 19.9193,82.542 20.4023,82.904 C20.7443,83.159 21.0423,83.481 21.3343,83.797 C21.5463,84.027 21.6723,84.357 21.9143,84.535 C22.3393,84.848 22.8473,85.045 23.2803,85.349 C24.4153,86.142 25.5273,86.967 26.6533,87.774 C26.7323,87.831 26.8563,87.823 26.9473,87.867 C27.8833,88.329 28.8143,88.799 29.7513,89.26 C30.5283,89.643 31.2823,90.111 32.1033,90.361 C32.6883,90.539 32.9633,90.766 33.1143,91.359 C33.1893,91.651 33.6523,92.069 33.9103,92.049 C35.3823,91.937 36.9813,92.578 38.3003,91.371 C38.4653,91.22 38.8333,91.264 39.1073,91.26 C40.0133,91.247 40.9193,91.272 41.8243,91.244 C42.1233,91.236 42.5483,91.214 42.6913,91.027 C43.2043,90.356 43.8883,90.412 44.5863,90.417 C45.5263,90.424 46.4953,90.274 47.4023,90.448 C49.2723,90.81 50.7983,89.534 52.5693,89.522 C52.5993,89.522 52.6283,89.41 52.7243,89.218 L52.7243,89.218 Z M69.5643,24.226 C69.5033,24.104 69.4423,23.982 69.3823,23.861 C69.2223,23.824 69.0503,23.733 68.9033,23.763 C67.9353,23.96 67.2123,23.591 66.6463,22.833 C66.2143,22.255 65.6533,22.056 64.9273,22.079 C64.5613,22.091 64.1483,21.877 63.8213,21.665 C62.8343,21.027 61.8983,20.306 60.9013,19.684 C60.3103,19.316 59.6253,19.097 59.0043,18.77 C57.9443,18.211 56.8903,17.641 55.8553,17.038 C54.3813,16.18 52.9593,15.254 51.8423,13.923 C51.7053,13.76 51.3253,13.756 51.0583,13.754 C49.0733,13.742 47.0883,13.737 45.1043,13.764 C44.7403,13.769 44.3753,13.917 44.0193,14.027 C43.4493,14.199 42.8933,14.536 42.3213,14.556 C40.3393,14.623 38.3533,14.556 36.3693,14.615 C36.0813,14.624 35.8063,15.049 35.5233,15.281 C35.7673,15.518 35.9853,15.788 36.2593,15.982 C36.5803,16.211 36.9803,16.335 37.2913,16.575 C38.0973,17.197 38.8803,17.849 39.6573,18.506 C39.9823,18.781 40.2823,19.089 40.5693,19.405 C40.7803,19.636 40.9053,19.965 41.1473,20.144 C41.5723,20.455 42.0803,20.654 42.5133,20.955 C43.6473,21.747 44.7553,22.578 45.8893,23.37 C46.0443,23.48 46.2973,23.438 46.4903,23.504 C47.4993,23.852 48.6473,24.017 49.4733,24.619 C50.4183,25.311 51.1103,26.324 52.4873,26.07 C52.5723,26.054 52.6893,26.127 52.7713,26.186 C54.1203,27.16 55.5423,27.906 57.2913,27.722 C57.4763,27.702 57.6763,27.848 57.8703,27.912 C58.4993,28.121 59.1263,28.334 59.7583,28.533 C60.3263,28.712 60.8903,28.925 61.4733,29.024 C61.7443,29.07 62.1043,28.948 62.3383,28.781 C62.7563,28.486 63.0793,28.054 63.4993,27.761 C64.0713,27.362 64.6903,27.028 65.3003,26.685 C66.2003,26.179 67.1163,25.701 68.0143,25.191 C68.5423,24.89 69.0483,24.549 69.5643,24.226 L69.5643,24.226 Z M68.3983,52.342 C68.4053,52.45 68.4113,52.558 68.4183,52.666 C68.7383,52.698 69.0603,52.755 69.3813,52.758 C71.3313,52.775 73.2823,52.767 75.2323,52.799 C75.5963,52.806 75.9633,52.941 76.3173,53.051 C76.8813,53.227 77.4263,53.472 77.9973,53.612 C78.5243,53.74 79.1303,53.652 79.6053,53.868 C80.4243,54.24 81.1463,54.822 81.9493,55.233 C83.4773,56.015 85.0323,56.742 86.5813,57.481 C86.7233,57.548 86.9493,57.606 87.0603,57.539 C87.8693,57.057 88.6773,56.569 89.4503,56.031 C90.5293,55.284 91.5763,54.489 92.6453,53.726 C92.7483,53.652 92.9253,53.688 93.0433,53.625 C93.9843,53.127 94.9983,52.719 95.8333,52.078 C96.5363,51.539 97.1113,50.945 98.1003,51.091 C98.3293,51.125 98.7303,50.984 98.8233,50.804 C99.7083,49.12 101.6813,49.595 102.9893,48.687 C103.8043,48.122 104.8803,47.793 105.9863,47.591 C106.7483,47.453 107.5453,46.896 108.4563,46.884 C108.6013,46.881 108.7363,46.698 108.8893,46.621 C110.1083,46.008 111.1903,45.069 112.7213,45.238 C113.3493,45.307 114.1143,45.303 114.6293,45.006 C116.0543,44.184 117.4183,43.387 119.1753,43.551 C119.7103,43.601 120.2743,43.144 120.8473,43.025 C122.0303,42.778 122.8943,41.573 124.2683,41.908 C124.4973,41.964 124.7723,41.975 124.9943,41.906 C125.9793,41.601 126.9573,41.271 127.9253,40.916 C128.0403,40.874 128.1403,40.63 128.1463,40.476 C128.1713,39.851 128.2213,39.213 128.1223,38.603 C128.0853,38.372 127.6923,38.072 127.4273,38.031 C126.8483,37.942 126.2453,37.976 125.6543,38.003 C124.9663,38.035 124.0723,37.865 123.6363,38.227 C122.8513,38.878 122.0533,38.825 121.1983,38.831 C120.0833,38.84 118.9683,38.827 117.8543,38.847 C117.5473,38.852 117.1123,38.828 116.9573,39.009 C116.2193,39.866 115.2573,39.658 114.3393,39.666 C112.9803,39.679 111.6203,39.65 110.2633,39.684 C109.9053,39.693 109.5473,39.85 109.1973,39.967 C108.6983,40.133 108.2193,40.383 107.7083,40.49 C107.1733,40.601 106.3803,40.37 106.1033,40.666 C105.2893,41.536 104.3283,41.317 103.3843,41.337 C102.3403,41.36 101.2943,41.336 100.2493,41.347 C99.9743,41.349 99.5693,41.296 99.4453,41.448 C98.5503,42.549 97.3323,42.073 96.2353,42.182 C95.8613,42.219 95.3263,42.156 95.1503,42.372 C94.5333,43.128 93.7403,42.984 92.9513,43.026 C92.5193,43.049 92.0853,43.163 91.6663,43.285 C91.0983,43.449 90.5453,43.667 89.9813,43.849 C89.3193,44.063 88.6633,44.313 87.9853,44.455 C86.7723,44.711 85.8543,45.893 84.4393,45.542 C84.1333,45.466 83.7043,45.528 83.4393,45.695 C82.2703,46.437 81.1533,47.276 79.6623,47.213 C79.5633,47.208 79.4293,47.223 79.3633,47.284 C78.2513,48.337 76.6173,48.078 75.3933,48.874 C74.7213,49.31 73.9583,49.603 73.2513,49.989 C72.4583,50.421 71.7043,50.931 70.8933,51.325 C70.0873,51.717 69.2323,52.007 68.3983,52.342 L68.3983,52.342 Z M45.5133,52.637 C46.8313,52.972 47.5503,52.538 48.4103,52.081 C49.7473,51.371 51.2453,50.976 52.2503,49.726 C52.3323,49.624 52.4713,49.549 52.5983,49.506 C54.0153,49.02 55.3963,48.481 56.3863,47.269 C56.4893,47.142 56.6653,47.072 56.8123,46.982 C57.4363,46.597 58.0643,46.22 58.6843,45.827 C58.9403,45.664 59.1563,45.356 59.4263,45.308 C60.5213,45.112 61.0083,44.463 61.3353,43.423 C61.5173,42.848 62.1423,42.25 62.7153,41.992 C64.0753,41.381 65.4393,40.865 66.4753,39.696 C67.3703,38.683 68.3493,37.731 69.3763,36.852 C70.1353,36.203 71.1213,35.813 71.8483,35.137 C73.4263,33.672 74.8893,32.084 76.4283,30.575 C76.8863,30.127 77.3883,29.616 77.9653,29.427 C78.5223,29.244 78.7963,29.075 78.8453,28.489 C78.8653,28.244 79.0363,27.969 79.2183,27.787 C82.8743,24.124 86.5473,20.477 90.2013,16.812 C90.6323,16.379 91.1643,15.905 91.3023,15.362 C91.4793,14.666 91.7173,14.398 92.4253,14.268 C92.8703,14.187 93.3143,13.744 93.5993,13.35 C93.6863,13.23 93.2653,12.708 93.0323,12.404 C92.8233,12.129 92.5783,11.867 92.3053,11.659 C92.1413,11.534 91.8113,11.401 91.6913,11.48 C90.7603,12.092 89.8523,12.74 88.9573,13.407 C88.4903,13.756 88.1163,14.257 87.6123,14.524 C86.8173,14.945 85.7453,15.021 85.1533,15.608 C83.9263,16.823 82.5793,17.821 81.1203,18.706 C80.2313,19.246 79.3693,19.83 78.4863,20.379 C77.1553,21.207 75.7843,21.976 74.4933,22.862 C73.8443,23.307 73.4283,24.177 72.7433,24.465 C71.2623,25.087 69.7933,25.654 68.7233,26.924 C68.6613,26.997 68.5413,27.07 68.4513,27.066 C67.5133,27.024 67.0913,27.785 66.4993,28.29 C66.2713,28.486 66.0083,28.656 65.7343,28.78 C64.9423,29.137 64.0843,29.38 63.3483,29.826 C62.3123,30.453 61.3743,31.241 60.3663,31.919 C60.1283,32.079 59.7723,32.049 59.4823,32.147 C58.9553,32.324 58.4283,32.513 57.9173,32.733 C57.1163,33.077 56.3063,33.411 55.5473,33.835 C55.2293,34.012 54.8483,34.39 54.8163,34.707 C54.7283,35.603 54.8833,36.524 54.7873,37.418 C54.7313,37.945 54.4313,38.47 54.1473,38.94 C53.8673,39.404 53.2063,39.781 53.1793,40.224 C53.1253,41.117 52.8273,41.792 52.4153,42.581 C51.7153,43.923 51.2863,45.394 50.0693,46.42 C49.9253,46.541 49.8703,46.774 49.7893,46.962 C49.2433,48.226 48.8023,49.535 47.6903,50.48 C46.9723,51.091 46.3423,51.808 45.5133,52.637 L45.5133,52.637 Z M2.2733,74.941 C2.2783,75.055 2.2833,75.17 2.2873,75.284 C2.6313,75.332 2.9743,75.38 3.3163,75.426 C3.6533,75.472 4.1343,75.39 4.3013,75.582 C4.9313,76.306 5.7313,76.196 6.5223,76.2 C7.7063,76.208 8.8923,76.18 10.0743,76.217 C10.4343,76.229 10.7913,76.396 11.1443,76.508 C11.6163,76.658 12.0833,76.961 12.5543,76.964 C18.2673,76.996 23.9803,76.99 29.6933,76.98 C30.6403,76.978 31.6483,77.224 32.4193,76.338 C32.5563,76.181 32.9443,76.214 33.2173,76.208 C34.1923,76.189 35.1683,76.199 36.1443,76.179 C36.5943,76.17 37.2213,76.293 37.4643,76.051 C38.4643,75.056 39.6813,75.479 40.8153,75.35 C41.2123,75.305 41.6013,75.155 41.9843,75.03 C42.4573,74.876 42.9133,74.596 43.3933,74.552 C44.2563,74.474 45.1343,74.554 46.0033,74.516 C46.3293,74.502 46.6523,74.355 46.9713,74.248 C47.5013,74.072 48.0153,73.796 48.5593,73.714 C49.3113,73.601 50.3313,73.926 50.7983,73.536 C51.9053,72.615 53.0933,72.951 54.2663,72.854 C54.5723,72.828 55.0213,72.875 55.1563,72.698 C55.8073,71.851 56.6963,72.066 57.5473,72.008 C57.9393,71.982 58.3293,71.835 58.7093,71.709 C59.1793,71.553 59.6253,71.254 60.1003,71.208 C60.9633,71.126 61.8413,71.207 62.7103,71.172 C63.0383,71.158 63.3653,71.027 63.6843,70.919 C64.2133,70.741 64.7253,70.422 65.2633,70.374 C66.2663,70.285 67.2843,70.39 68.2913,70.329 C68.7263,70.303 69.4833,70.117 69.5143,69.916 C69.6003,69.348 69.4243,68.724 69.2733,68.142 C69.1933,67.829 68.8393,67.569 68.8123,67.266 C68.7483,66.557 68.3593,66.416 67.7563,66.426 C65.9453,66.458 64.1333,66.459 62.3223,66.497 C62.0633,66.503 61.8063,66.649 61.5503,66.733 C61.0153,66.909 60.4833,67.236 59.9473,67.242 C56.1503,67.286 52.3533,67.279 48.5553,67.257 C47.6113,67.252 46.7923,67.618 45.9383,67.836 C45.3033,67.997 44.2943,67.181 43.2843,67.244 C41.9313,67.329 40.5443,67.423 39.2173,67.217 C38.0913,67.042 37.0633,67.094 35.9353,67.187 C33.0973,67.422 30.2273,67.273 27.3703,67.254 C27.0393,67.252 26.7033,67.129 26.3813,67.028 C25.7863,66.842 25.2133,66.535 24.6073,66.453 C23.8553,66.353 23.0753,66.464 22.3123,66.421 C21.2093,66.36 19.9883,66.795 19.1053,65.692 C19.0113,65.574 18.7103,65.621 18.5043,65.596 C16.7983,65.382 15.2603,65.61 14.2213,67.195 C14.0893,67.395 13.8943,67.555 13.7173,67.722 C13.0153,68.389 12.3723,69.144 11.5883,69.695 C10.2233,70.655 8.7723,71.492 7.3523,72.372 C6.4993,72.9 5.6603,73.459 4.7693,73.913 C3.9703,74.321 3.1073,74.603 2.2733,74.941 L2.2733,74.941 Z M20.4623,93.561 C18.9433,94.753 17.7073,96.739 15.5253,97.794 C14.0193,98.523 13.2923,100.505 11.4323,100.938 C10.6173,102.673 8.5353,102.078 7.3363,103.159 C6.8593,103.589 6.1733,103.845 5.5373,104.018 C5.0303,104.156 4.4483,104.211 4.6373,104.835 C4.7243,105.12 5.3513,105.305 5.7643,105.411 C6.4213,105.58 7.1133,105.609 7.7743,105.765 C8.3203,105.894 8.8433,106.277 9.3783,106.281 C13.2093,106.31 17.0403,106.273 20.8723,106.248 C21.1453,106.246 21.5373,106.283 21.6713,106.127 C22.4383,105.238 23.4473,105.496 24.3963,105.475 C25.7533,105.444 27.1113,105.445 28.4703,105.414 C28.7403,105.408 29.1253,105.418 29.2593,105.256 C29.9013,104.481 30.7543,104.654 31.5743,104.631 C31.8853,104.623 32.3393,104.697 32.4803,104.528 C33.2573,103.59 34.2923,103.837 35.2753,103.787 C35.5373,103.774 35.7973,103.653 36.0533,103.568 C36.6453,103.37 37.2213,103.086 37.8293,102.983 C38.5733,102.857 39.5853,103.165 40.0503,102.774 C40.8673,102.084 41.6853,102.159 42.5693,102.116 C42.9023,102.1 43.2373,102.004 43.5593,101.903 C44.1543,101.714 44.7383,101.489 45.3313,101.291 C45.5573,101.216 45.9033,101.253 46.0083,101.107 C46.5803,100.299 47.4063,100.491 48.1913,100.443 C48.6243,100.415 49.0573,100.302 49.4753,100.177 C50.0103,100.018 50.5183,99.754 51.0593,99.632 C51.5913,99.513 52.3333,99.714 52.6573,99.418 C53.2413,98.884 53.8373,98.787 54.5433,98.741 C54.8573,98.72 55.1553,98.482 55.4653,98.352 C55.8043,98.21 56.1533,97.955 56.4893,97.97 C57.7453,98.023 58.5683,97.08 59.6313,96.706 C60.7873,96.299 61.6923,95.25 63.0823,95.419 C63.5123,95.472 64.1343,95.489 64.3723,95.24 C64.9293,94.657 65.5453,94.601 66.2583,94.576 C66.5643,94.566 66.8673,94.333 67.1653,94.187 C67.4373,94.052 67.6973,93.773 67.9643,93.772 C69.3833,93.767 70.4233,92.911 71.5863,92.301 C72.4103,91.869 73.2933,91.445 74.1953,91.294 C75.3863,91.096 75.9163,90.65 75.4183,89.564 C75.0643,88.787 74.2743,88.208 73.6673,87.552 C73.6173,87.499 73.4233,87.488 73.3793,87.534 C72.3503,88.63 71.0133,87.994 69.8243,88.185 C69.5643,88.226 69.3203,88.365 69.0683,88.459 C68.5743,88.643 68.0353,89.055 67.5923,88.97 C65.3183,88.532 63.3623,90.13 61.1383,89.889 C61.0013,89.874 60.8533,90.069 60.6953,90.13 C60.2053,90.323 59.7183,90.617 59.2133,90.656 C58.1393,90.737 57.0553,90.677 55.9753,90.685 C55.6983,90.687 55.2913,90.615 55.1653,90.765 C54.2373,91.869 52.9933,91.429 51.8573,91.519 C51.2383,91.568 50.4193,91.406 50.0463,91.739 C49.2793,92.422 48.4673,92.348 47.6113,92.352 C46.4623,92.358 45.3133,92.347 44.1633,92.36 C43.8913,92.363 43.4913,92.334 43.3683,92.491 C42.6313,93.434 41.6163,93.161 40.6703,93.187 C39.5573,93.217 38.4413,93.208 37.3283,93.253 C37.0333,93.266 36.7433,93.409 36.4543,93.502 C35.9183,93.673 35.3863,93.996 34.8503,94.002 C30.9133,94.046 26.9773,94.046 23.0413,94.008 C22.2983,94 21.5573,93.758 20.4623,93.561 L20.4623,93.561 Z M144.1583,39.747 C143.4503,40.033 142.6203,40.171 142.0593,40.634 C140.2203,42.15 138.1123,42.319 135.8843,42.187 C134.4003,42.1 133.2633,42.93 132.1643,43.781 C131.9653,43.935 131.7613,44.232 131.7593,44.465 C131.7473,45.479 131.1093,45.539 130.3423,45.531 C129.6263,45.524 129.0263,45.491 128.9493,44.536 C128.9303,44.292 128.4913,43.906 128.2263,43.89 C127.1163,43.817 125.9983,43.844 124.8843,43.873 C124.6673,43.879 124.4433,44.037 124.2443,44.16 C124.1013,44.25 124.0143,44.462 123.8653,44.509 C122.7543,44.862 121.6503,45.279 120.5103,45.492 C119.6203,45.659 118.6463,45.337 117.9193,46.212 C117.7593,46.405 117.2513,46.278 116.9233,46.37 C116.5133,46.485 116.1323,46.698 115.7253,46.825 C115.2463,46.974 114.7593,47.136 114.2653,47.181 C113.5193,47.249 112.7153,47.041 112.1883,47.832 C112.1113,47.948 111.8593,48.036 111.7193,48.004 C110.2983,47.683 109.0383,48.303 107.9433,48.952 C106.5823,49.761 105.0013,49.837 103.6613,50.6 C102.3253,51.362 101.0013,52.146 99.6383,52.855 C98.8393,53.27 97.9633,53.535 97.1423,53.91 C96.4103,54.244 95.6973,54.622 94.9923,55.008 C94.1983,55.441 93.4573,55.989 92.6313,56.337 C91.3203,56.891 89.9923,57.359 89.0083,58.475 C88.4673,59.088 86.4063,59.05 85.6723,58.633 C84.5993,58.023 83.5883,57.324 82.2563,57.167 C81.3783,57.064 80.5633,56.406 79.7273,55.984 C79.5773,55.907 79.4413,55.644 79.3383,55.663 C77.5923,56 76.1793,54.704 74.4943,54.695 C73.9603,54.692 73.4303,54.357 72.8933,54.19 C72.5703,54.09 72.2393,53.955 71.9103,53.951 C69.6473,53.928 67.3833,53.936 65.1183,53.932 C64.8753,53.931 64.5993,53.984 64.3973,53.887 C64.1833,53.783 63.9063,53.536 63.9013,53.346 C63.8973,53.157 64.1643,52.907 64.3723,52.781 C64.8843,52.469 65.4333,52.219 65.9613,51.934 C66.9873,51.382 68.0093,50.823 69.0333,50.267 C69.2113,50.17 69.4033,50.093 69.5683,49.978 C70.5623,49.285 71.5483,48.584 72.5413,47.892 C72.6223,47.835 72.7373,47.794 72.8353,47.799 C74.3263,47.87 75.3693,46.823 76.6323,46.345 C77.6473,45.961 78.4793,44.963 79.7483,45.234 C79.9603,45.279 80.2423,45.055 80.4733,44.922 C80.6193,44.837 80.7113,44.622 80.8583,44.582 C82.1473,44.237 83.4343,43.86 84.7443,43.613 C85.4133,43.486 86.1123,43.66 86.6353,42.989 C86.7953,42.782 87.2773,42.742 87.6043,42.764 C88.5863,42.828 89.2613,42.278 89.5953,41.523 C89.8933,40.853 89.9283,40.001 89.1103,39.474 C89.0563,39.439 88.9893,39.366 88.9883,39.311 C88.9543,37.657 87.7393,38.008 86.7523,38 C85.3233,37.989 83.8953,37.997 82.4663,37.996 C81.6753,37.996 80.8683,38.123 80.2763,37.341 C80.1413,37.161 79.6973,37.181 79.3933,37.168 C78.5073,37.131 77.6183,37.303 76.8633,36.524 C76.6053,36.255 75.9313,36.419 75.4623,36.315 C74.9163,36.194 74.3963,35.951 73.8483,35.849 C73.5803,35.799 73.1853,35.849 73.0033,36.02 C71.9643,36.996 71.0143,38.068 69.9493,39.012 C69.3883,39.511 68.5833,39.737 68.0173,40.233 C66.9453,41.169 65.9833,42.23 64.9393,43.2 C64.6323,43.487 64.1783,43.609 63.8363,43.867 C63.5723,44.067 63.3853,44.366 63.1513,44.612 C62.8563,44.92 62.5693,45.241 62.2403,45.511 C62.0953,45.63 61.7753,45.573 61.6733,45.704 C60.6143,47.051 59.1503,47.865 57.7553,48.777 C56.7413,49.439 55.7293,50.116 54.7963,50.885 C53.9093,51.615 54.0013,52.408 55.1073,52.647 C56.2723,52.897 56.7803,53.789 57.5883,54.39 C58.4483,55.029 59.3973,55.548 60.3153,56.107 C60.7963,56.4 61.2903,56.672 61.7833,56.943 C62.8373,57.519 63.9003,58.076 64.9473,58.665 C65.8203,59.157 66.6713,59.69 67.5373,60.195 C68.2033,60.582 68.9903,60.84 69.5223,61.362 C70.3463,62.171 71.4453,62.75 71.6763,64.126 C71.8563,65.207 73.0723,65.454 73.9933,64.795 C74.2523,64.61 74.6273,64.529 74.9553,64.509 C75.7893,64.459 76.6343,64.533 77.4603,64.436 C78.0003,64.372 78.5093,64.076 79.0423,63.918 C79.4303,63.803 79.8323,63.73 80.2323,63.661 C81.2493,63.488 82.3243,63.929 83.2933,63.061 C83.8203,62.588 84.1043,63.223 84.0933,63.785 C84.0843,64.23 84.0533,64.674 84.0303,65.165 C84.3333,65.11 84.4543,65.106 84.4573,65.084 C84.6893,63.597 85.7143,63.494 86.9163,63.631 C87.3613,63.682 87.8213,63.639 88.2723,63.603 C89.0573,63.54 89.6803,63.786 90.2093,64.392 C90.7533,65.015 91.3783,65.568 91.9523,66.166 C92.6963,66.944 92.7173,68.03 92.0273,68.878 C91.8983,69.037 91.7773,69.207 91.6743,69.385 C91.4453,69.778 91.2763,70.477 91.0013,70.52 C90.1633,70.65 89.2683,70.618 88.4373,70.444 C88.2043,70.395 88.1183,69.638 87.9673,69.204 C87.8513,68.871 87.7993,68.302 87.6113,68.254 C87.2883,68.171 86.8753,68.393 86.5143,68.526 C86.3603,68.582 86.2573,68.807 86.1073,68.836 C84.4983,69.148 82.8853,69.441 81.2713,69.729 C80.8863,69.797 80.4953,69.83 80.1063,69.88 L80.0653,70.156 C80.5013,70.34 80.9853,70.456 81.3603,70.726 C81.9173,71.127 82.3733,71.666 82.9143,72.094 C83.9153,72.883 84.8533,73.855 85.9923,74.332 C86.9653,74.74 87.6653,75.295 88.3973,75.988 C88.9093,76.471 89.7133,76.637 90.3683,76.979 C90.9643,77.289 91.5353,77.646 92.1173,77.981 C92.5463,78.228 92.9653,78.494 93.4063,78.714 C94.7613,79.388 94.0033,80.618 94.1453,81.595 C94.2343,82.218 94.2813,82.981 93.3383,83.146 C93.1133,83.185 92.8943,83.248 92.4073,83.364 C92.9783,83.882 93.4343,84.23 93.7943,84.656 C93.9423,84.832 93.8883,85.18 93.9253,85.45 C93.6793,85.45 93.3863,85.538 93.1953,85.436 C92.4603,85.041 91.7573,84.585 90.8133,84.014 C90.8133,85.023 90.7873,85.848 90.8403,86.667 C90.8483,86.799 91.1903,86.972 91.4033,87.02 C92.9363,87.363 92.9383,87.354 93.7033,88.611 C93.7423,88.229 93.7283,87.83 93.8333,87.468 C93.9463,87.081 94.1733,86.729 94.3493,86.362 C94.5713,86.721 94.9943,87.087 94.9843,87.441 C94.8853,91.107 95.5073,90.694 91.6593,90.675 C91.0203,90.672 90.3463,89.948 89.7533,89.474 C88.9833,88.861 86.4193,88.791 85.6663,89.429 C85.5093,89.563 85.3343,89.788 85.1723,89.784 C83.4883,89.745 82.0833,91.155 80.3163,90.698 C80.0083,90.618 79.6503,90.73 79.4633,90.742 C79.6363,91.793 79.8353,92.732 79.9323,93.681 C80.0163,94.492 79.5763,94.87 78.7463,94.906 C77.5203,94.957 76.4443,94.815 75.6053,93.731 C74.9953,92.946 73.8933,92.976 73.1303,93.602 C72.9463,93.752 72.7483,93.923 72.5283,93.985 C71.1733,94.36 69.8103,94.705 68.3733,95.081 C68.6683,95.906 69.2553,96.333 70.0853,96.249 C71.3713,96.117 72.3803,96.479 73.1773,97.525 C73.3473,97.747 73.7713,97.854 74.0873,97.874 C75.0243,97.935 75.9713,97.88 76.9053,97.966 C77.3533,98.007 77.7773,98.272 78.2183,98.42 C78.6003,98.55 78.9873,98.665 79.3763,98.774 C79.7333,98.874 80.2153,98.845 80.4313,99.073 C80.9683,99.639 81.2653,99.41 81.6893,98.957 C82.0163,98.609 82.6623,98.055 82.8343,98.156 C83.4943,98.544 84.1143,99.054 84.1523,100.002 C84.1723,100.501 84.3803,101.089 84.7083,101.449 C85.0263,101.799 85.5903,102.028 86.0763,102.1 C86.9103,102.223 87.8243,101.924 88.4643,102.794 C88.5833,102.955 88.9893,102.884 89.2473,102.967 C89.7793,103.139 90.2913,103.38 90.8293,103.523 C91.3503,103.66 91.9023,103.822 92.4253,103.78 C94.8903,103.582 96.5523,104.959 98.0763,106.594 C98.2713,106.802 98.3703,107.303 98.2593,107.556 C97.9083,108.356 97.4383,109.103 97.0093,109.866 C96.8933,110.073 96.7043,110.252 96.6363,110.472 C96.3143,111.49 95.1323,112.051 94.2803,111.425 C93.7373,111.026 93.4403,110.305 92.9853,109.768 C92.7533,109.493 92.4393,109.163 92.1223,109.113 C91.4773,109.01 90.7953,109.14 90.1443,109.057 C89.6973,109 89.2823,108.731 88.8433,108.586 C88.4323,108.451 88.0153,108.311 87.5893,108.251 C86.5023,108.1 85.2903,108.633 84.3583,107.546 C84.2373,107.405 83.5103,107.684 83.1283,107.889 C82.4843,108.234 81.9403,108.814 81.2703,109.044 C80.2423,109.399 79.1593,108.505 78.7803,107.261 C78.7003,106.996 78.2933,106.696 78.0043,106.656 C77.2493,106.556 76.4763,106.584 75.7093,106.573 C74.9513,106.563 74.1983,106.659 73.5923,105.967 C73.3973,105.745 72.8813,105.785 72.5083,105.74 C71.1073,105.575 69.5733,106.199 68.3413,105.007 C68.2273,104.896 67.9383,104.956 67.7303,104.953 C66.3363,104.932 64.9403,104.958 63.5513,104.874 C63.0413,104.843 62.5573,104.508 62.0423,104.395 C61.3483,104.241 60.6073,103.993 59.9363,104.097 C58.5163,104.318 57.6113,103.234 56.4163,102.925 C55.9373,102.801 55.4963,102.475 55.0163,102.415 C54.1753,102.311 53.3703,102.442 52.5973,101.747 C52.2563,101.441 51.2803,101.815 50.6013,101.929 C50.4243,101.959 50.2523,102.312 50.1233,102.286 C48.4083,101.955 47.0283,103.219 45.3833,103.253 C44.8213,103.265 44.2653,103.607 43.7073,103.801 C43.4823,103.88 43.2633,104.037 43.0393,104.039 C42.3023,104.047 41.6083,104.04 41.0593,104.704 C40.8933,104.904 40.4113,104.874 40.0723,104.89 C39.2223,104.928 38.3553,104.743 37.6713,105.556 C37.4773,105.787 36.8863,105.683 36.4773,105.734 C35.1533,105.898 33.7173,105.279 32.5213,106.452 C32.2423,106.726 31.5163,106.528 30.9973,106.573 C29.8243,106.675 28.5543,106.27 27.5483,107.296 C27.3813,107.466 26.9483,107.398 26.6383,107.402 C25.0013,107.424 23.3633,107.424 21.7273,107.454 C20.8443,107.47 19.9143,107.276 19.2053,108.106 C19.0573,108.28 18.6133,108.235 18.3063,108.236 C15.5193,108.244 12.7303,108.265 9.9433,108.219 C9.4733,108.212 9.0043,107.915 8.5403,107.737 C8.4153,107.688 8.3163,107.524 8.1973,107.514 C6.3373,107.353 4.6583,106.137 2.6973,106.569 C1.6903,106.79 1.0143,106.233 0.5183,105.493 C0.3003,105.169 0.2263,104.625 0.3343,104.252 C0.3973,104.031 0.9353,103.928 1.2723,103.805 C2.2703,103.438 3.2943,103.132 4.2723,102.716 C5.2823,102.285 6.2603,101.774 7.2323,101.26 C8.0313,100.839 8.7523,100.209 9.5943,99.943 C11.4673,99.348 12.2793,97.391 13.8313,96.631 C15.8973,95.619 17.0743,93.795 18.7463,92.457 C19.3133,92.004 20.0283,91.731 20.6923,91.41 C20.8103,91.355 21.0893,91.421 21.1613,91.524 C21.6853,92.263 22.4513,92.084 23.1633,92.088 C25.8123,92.103 28.4593,92.107 31.1073,92.109 C31.3033,92.109 31.4983,92.058 31.7813,92.019 C31.5163,91.247 31.1293,90.87 30.3343,90.697 C29.2613,90.462 28.2233,90.026 27.2053,89.592 C26.1913,89.159 25.2183,88.63 24.2343,88.129 C24.0233,88.022 23.8283,87.871 23.6533,87.71 C23.0563,87.155 22.5923,86.467 21.6273,86.385 C21.2703,86.355 20.9803,85.791 20.6143,85.536 C20.2093,85.255 19.7193,85.091 19.3283,84.794 C19.0373,84.573 18.8413,84.226 18.6093,83.929 C18.4163,83.681 18.2723,83.253 18.0403,83.2 C16.9433,82.952 16.2773,82.349 16.0753,81.236 C16.0523,81.104 15.9703,80.983 15.9083,80.86 C15.7523,80.549 15.5933,80.24 15.4353,79.93 C15.8423,79.823 16.2503,79.628 16.6573,79.629 C17.8493,79.633 18.9703,79.713 20.1633,80.204 C21.3063,80.673 22.7723,80.338 24.0933,80.398 C24.4903,80.415 24.9683,80.46 25.2543,80.687 C25.6753,81.022 25.9383,81.031 26.3293,80.691 C26.4673,80.572 26.7773,80.576 26.9853,80.624 C27.6623,80.781 28.3253,81.131 28.9983,81.145 C32.4813,81.215 35.9673,81.259 39.4493,81.189 C40.6203,81.164 41.4323,81.542 42.1583,82.386 C42.3743,82.638 42.7923,82.886 43.0953,82.861 C43.9913,82.783 44.5323,83.246 45.1913,83.756 C46.0773,84.441 47.2393,84.764 48.1353,85.439 C49.4093,86.401 51.3583,85.951 52.3143,87.537 C52.4393,87.744 52.8513,87.858 53.1383,87.872 C53.8453,87.908 54.5193,87.914 55.0043,88.574 C55.1103,88.72 55.4523,88.733 55.6873,88.737 C56.6963,88.753 57.7073,88.749 58.7183,88.738 C58.9203,88.736 59.2193,88.738 59.3103,88.615 C60.0293,87.655 61.0583,87.981 61.9993,87.903 C63.3403,87.792 64.7813,88.28 65.9723,87.172 C66.1893,86.971 66.7103,87.084 67.0913,87.076 C67.8143,87.064 68.4353,87.018 69.1073,86.506 C69.6173,86.118 70.5633,86.262 71.3153,86.249 C72.1703,86.235 72.8623,86.337 73.0953,85.094 C73.2653,84.183 74.0733,83.393 74.5953,82.546 C74.9423,81.982 75.3093,81.926 75.7173,82.486 C76.3243,83.319 77.5043,83.74 77.5413,85.016 C77.5423,85.065 78.3323,85.181 78.7253,85.107 C79.2703,85.005 79.7743,84.653 80.3173,84.589 C81.0973,84.498 81.9213,84.705 82.4993,83.917 C82.6073,83.769 82.9513,83.806 83.1783,83.73 C83.7683,83.53 84.3393,83.225 84.9433,83.125 C85.8553,82.975 86.7913,82.903 87.7163,82.909 C88.5333,82.914 88.8023,82.605 88.8313,81.802 C88.8623,80.937 88.5963,80.629 87.7093,80.65 C87.2513,80.66 86.7863,80.317 86.3223,80.139 C85.2993,79.748 84.2773,79.354 83.2493,78.976 C82.9953,78.882 82.6743,78.912 82.4633,78.769 C81.4633,78.087 80.5083,77.339 79.4963,76.677 C79.2483,76.514 78.8003,76.46 78.5273,76.569 C77.9063,76.816 77.3453,77.209 76.7443,77.512 C76.4103,77.68 75.8423,77.991 75.7293,77.881 C75.2813,77.444 74.8313,76.907 74.6493,76.325 C74.4723,75.755 74.6613,75.079 74.6063,74.457 C74.5693,74.046 74.4503,73.343 74.2553,73.301 C73.6843,73.18 72.9333,73.123 72.4753,73.405 C71.1053,74.244 70.4863,74.267 69.3213,73.15 C68.1723,72.048 65.8943,71.919 64.6093,72.838 C64.3523,73.023 63.9723,73.075 63.6413,73.11 C62.4433,73.237 61.1933,72.806 60.0953,73.829 C59.7303,74.17 58.8233,73.937 58.1643,73.954 C57.4453,73.973 56.7133,73.834 56.1673,74.559 C56.0123,74.764 55.5293,74.773 55.1953,74.781 C54.1863,74.809 53.1683,74.723 52.1663,74.82 C51.5563,74.878 50.9783,75.229 50.3683,75.381 C49.8423,75.513 49.2833,75.51 48.7563,75.639 C48.1843,75.779 47.6343,76.006 47.0703,76.185 C46.7493,76.287 46.4243,76.437 46.0963,76.45 C45.1913,76.488 44.2853,76.461 43.3793,76.466 C42.5523,76.47 41.7343,76.382 41.0573,77.104 C40.8373,77.337 40.2723,77.252 39.8633,77.299 C38.5283,77.454 37.0663,76.9 35.8993,78.038 C35.7623,78.172 35.4323,78.128 35.1913,78.133 C33.7293,78.157 32.2653,78.173 30.8023,78.191 C29.9803,78.201 29.1393,78.049 28.4833,78.806 C28.3293,78.985 27.8973,78.965 27.5913,78.966 C23.3073,78.974 19.0223,78.971 14.7383,78.966 C14.5313,78.966 14.2463,79.008 14.1303,78.895 C12.9373,77.724 11.4333,78.28 10.0643,78.156 C8.9933,78.061 7.9003,78.198 6.8283,78.113 C6.2513,78.066 5.7063,77.709 5.1273,77.592 C4.3933,77.443 3.6403,77.326 2.8933,77.314 C0.6683,77.276 -0.5957,75.466 0.2793,73.423 C0.3973,73.146 0.9103,73.003 1.2673,72.868 C2.2623,72.491 3.2913,72.199 4.2693,71.783 C5.2783,71.354 6.2533,70.837 7.2203,70.317 C7.5753,70.125 7.8503,69.788 8.1913,69.565 C8.6913,69.238 9.2183,68.951 9.7353,68.651 C9.8233,68.6 10.0013,68.563 10.0013,68.519 C10.0053,67.138 11.3553,67.136 12.0593,66.474 C13.1213,65.474 14.1483,64.434 15.1503,63.373 C15.5593,62.941 15.8573,62.788 16.3583,63.251 C16.6063,63.481 17.0163,63.613 17.3633,63.64 C18.2773,63.712 19.2433,63.463 19.9593,64.356 C20.0993,64.53 20.5493,64.488 20.8553,64.489 C22.9463,64.499 25.0383,64.459 27.1273,64.516 C27.8023,64.533 28.4703,64.793 29.4603,65.014 C29.8733,64.77 30.6153,64.319 31.3723,63.892 C31.5073,63.816 31.7303,63.77 31.8573,63.828 C32.4663,64.11 33.0423,64.465 33.6573,64.728 C34.2283,64.972 34.8323,65.3 35.4253,65.306 C42.2873,65.367 49.1503,65.376 56.0133,65.392 C56.3013,65.393 56.5883,65.317 56.8763,65.277 C56.8963,65.188 56.9163,65.1 56.9373,65.011 C56.2143,64.65 55.5003,64.271 54.7693,63.93 C53.9483,63.548 53.0883,63.249 52.2903,62.827 C51.1413,62.219 50.1213,61.398 48.7003,61.35 C48.2263,61.334 47.7903,60.689 47.3043,60.386 C46.4803,59.873 45.6423,59.381 44.7883,58.922 C43.8493,58.417 42.8743,57.978 41.9353,57.475 C40.7303,56.831 39.5443,56.152 38.3503,55.488 C38.3193,55.471 38.2823,55.464 38.2553,55.445 C37.1643,54.643 36.0843,53.826 34.9803,53.043 C34.1603,52.462 33.3033,51.935 32.4753,51.365 C31.8463,50.931 31.6953,50.272 32.1883,49.75 C32.7173,49.191 33.3583,49.337 33.9003,49.941 C34.5043,50.613 35.0953,51.332 35.8233,51.845 C36.8053,52.535 37.9313,53.018 38.9583,53.648 C39.5063,53.983 39.9563,54.475 40.4943,54.83 C40.8123,55.039 41.2193,55.223 41.5783,55.21 C41.7393,55.204 41.8593,54.673 42.0383,54.407 C42.3203,53.989 42.6233,53.58 42.9413,53.188 C43.8323,52.086 45.2163,51.415 45.5613,49.809 C45.6763,49.272 46.5133,48.89 47.1413,48.328 C46.0273,47.867 45.1743,47.518 44.3243,47.159 C44.1693,47.094 43.8943,46.986 43.8983,46.91 C43.9923,45.388 42.3833,45.583 41.7493,44.779 C41.0663,43.911 40.3143,42.942 39.3673,42.484 C38.3823,42.007 37.4883,41.178 36.1803,41.306 C34.6263,41.458 33.0473,41.343 31.4803,41.342 C30.6883,41.341 29.8713,41.477 29.2723,40.72 C29.1523,40.57 28.8263,40.551 28.5913,40.531 C27.6163,40.448 26.6853,40.571 25.7633,39.829 C25.2543,39.42 24.1573,39.71 23.3343,39.782 C23.2723,39.788 23.0833,40.742 23.2793,40.955 C24.5743,42.36 25.9493,43.692 27.3253,45.02 C27.4993,45.188 27.8623,45.142 28.0803,45.284 C28.3663,45.472 28.7673,45.717 28.8133,45.99 C28.9193,46.595 29.1613,46.787 29.7553,47.001 C30.3743,47.224 30.9213,47.824 31.3213,48.386 C31.4753,48.601 31.2213,49.444 30.9993,49.513 C30.5873,49.643 29.9053,49.583 29.6113,49.308 C27.8863,47.695 26.2373,45.997 24.5693,44.323 C23.0483,42.797 21.5223,41.275 20.0273,39.724 C19.7623,39.448 19.6593,39.023 19.4333,38.7 C19.0843,38.203 18.7413,37.685 18.3073,37.27 C17.8883,36.87 17.6133,36.521 18.1633,36.088 C18.5873,35.755 18.8183,34.966 19.6853,35.614 C20.4443,36.183 21.5133,36.351 22.2423,36.945 C23.5273,37.99 24.9923,37.553 26.3793,37.787 C27.1753,37.922 27.8913,38.493 28.6613,38.823 C29.2093,39.057 29.7843,39.359 30.3553,39.379 C32.2703,39.449 34.1993,39.537 36.1003,39.364 C37.4903,39.237 38.4053,40.115 39.5133,40.54 C41.8993,41.457 43.2953,43.644 45.1353,45.269 C45.8303,45.883 46.7123,46.287 47.6293,46.863 C48.2993,45.987 49.3433,45.51 49.6293,44.231 C49.8173,43.391 50.4813,42.659 50.9193,41.872 C51.0493,41.639 51.2343,41.371 51.2143,41.134 C51.1493,40.367 51.1703,39.681 51.8993,39.192 C52.0283,39.106 52.0833,38.803 52.0593,38.615 C51.9603,37.845 52.0173,37.157 52.7463,36.681 C52.8393,36.621 52.9123,36.414 52.8843,36.305 C52.5113,34.884 53.2333,33.709 53.8013,32.537 C53.9643,32.201 54.5763,32.017 55.0203,31.896 C56.3543,31.532 57.6003,31.043 58.8433,29.853 C58.2723,29.743 57.9963,29.657 57.7173,29.644 C56.8003,29.597 55.8373,29.821 55.1023,28.963 C54.9483,28.784 54.5103,28.849 54.2033,28.803 C53.8973,28.757 53.4603,28.824 53.3083,28.648 C52.7323,27.981 52.0153,27.965 51.2353,27.923 C50.9143,27.906 50.6063,27.569 50.2973,27.37 C49.3063,26.739 48.3653,25.997 47.3113,25.501 C46.3523,25.049 45.1993,24.994 44.2603,24.514 C43.5203,24.136 43.0313,23.291 42.3263,22.807 C41.0653,21.941 39.7233,21.192 38.4193,20.387 C38.2173,20.261 38.0213,20.114 37.8533,19.947 C36.6713,18.769 35.5473,17.528 34.3053,16.419 C33.5113,15.71 32.4953,15.253 31.6843,14.561 C31.3643,14.288 31.1423,13.64 31.2313,13.244 C31.2943,12.973 31.9693,12.679 32.3743,12.674 C35.9283,12.628 39.4823,12.671 43.0353,12.62 C43.6053,12.612 44.1683,12.263 44.7353,12.077 C45.0243,11.984 45.3173,11.829 45.6103,11.825 C47.4913,11.803 49.3733,11.792 51.2543,11.834 C51.5913,11.842 51.9793,12.049 52.2443,12.279 C53.6263,13.472 55.1313,14.465 56.7883,15.231 C56.9403,15.301 57.0923,15.41 57.1983,15.539 C58.1713,16.719 59.5763,17.134 60.8973,17.739 C61.8643,18.182 62.7803,18.798 63.6023,19.479 C64.1453,19.928 64.6563,20.104 65.3353,20.228 C65.9753,20.345 66.5223,20.926 67.1343,21.259 C67.5643,21.492 68.0303,21.661 68.4863,21.844 C68.9463,22.028 69.4013,22.245 69.8803,22.353 C70.4973,22.49 71.2563,22.792 71.7383,22.566 C72.7893,22.071 73.6933,21.27 74.6783,20.624 C75.3773,20.165 76.1123,19.763 76.8243,19.323 C78.1863,18.483 79.5423,17.633 80.9013,16.788 C80.9313,16.77 80.9713,16.769 80.9983,16.749 C82.0373,16.003 83.0793,15.26 84.1123,14.507 C85.4923,13.5 86.8473,12.458 88.4273,11.763 C89.0423,11.492 89.6853,11.223 90.1983,10.809 C90.4433,10.611 90.4913,10.077 90.5003,9.694 C90.5203,8.829 90.3893,8.01 91.2633,7.356 C92.1133,6.718 93.0713,6.58 93.9803,7.186 C94.1803,7.319 94.6293,7.325 94.8173,7.188 C96.0163,6.316 97.0713,5.179 98.3763,4.544 C99.3353,4.077 100.0533,3.429 100.8743,2.836 C101.9463,2.063 103.2413,1.603 104.3433,0.864 C106.3023,-0.45 108.4313,0.488 110.4673,0.343 C110.8333,0.317 111.4163,1.32 111.6433,1.941 C111.8453,2.495 111.6783,3.18 111.7003,3.807 C111.7313,4.68 111.3783,5.005 110.5523,5.519 C109.2673,6.318 108.8363,5.759 108.1793,4.959 C108.0653,4.822 107.7083,4.722 107.5653,4.797 C106.2973,5.464 105.1163,6.238 104.1493,7.341 C103.2133,8.41 102.1953,9.42 101.1273,10.358 C100.4313,10.968 99.5653,11.381 98.8023,11.92 C98.0693,12.438 98.0393,12.959 98.7463,13.61 C99.5793,14.375 98.9183,15.95 97.6193,16.197 C96.9083,16.331 96.0763,16.505 95.5033,15.73 C95.4093,15.602 95.2333,15.503 95.0763,15.456 C94.5143,15.288 92.6443,16.527 92.3953,17.045 C92.1233,17.612 91.7153,18.142 91.2703,18.59 C88.1613,21.722 85.0223,24.823 81.9143,27.954 C81.7033,28.167 81.5133,28.598 81.5893,28.841 C81.6603,29.07 82.0813,29.224 82.3763,29.341 C82.9913,29.587 83.6243,29.787 84.2493,30.008 C84.3793,30.054 84.5073,30.155 84.6343,30.151 C86.1243,30.107 87.2303,31.001 88.4343,31.669 C88.6643,31.797 88.9593,31.824 89.2293,31.863 C89.5043,31.902 89.8703,31.788 90.0493,31.929 C91.3643,32.962 92.2213,31.84 93.2363,31.34 C93.6033,31.159 94.1173,31.07 94.4873,31.185 C94.7193,31.256 94.9203,31.781 94.9403,32.115 C95.0303,33.568 95.4933,33.795 96.7093,34.483 C97.8473,35.126 99.1863,34.826 100.0703,35.361 C101.2083,36.047 102.2823,35.947 103.4113,36.104 C103.6813,36.142 103.9153,36.43 104.1663,36.601 C105.0283,37.186 105.8853,37.781 106.7613,38.345 C106.8633,38.41 107.0783,38.327 107.2333,38.284 C107.8683,38.108 108.4963,37.779 109.1353,37.76 C111.3973,37.695 113.6643,37.764 115.9283,37.708 C116.4353,37.696 116.9333,37.379 117.4393,37.214 C117.7903,37.099 118.1463,36.925 118.5033,36.914 C119.7223,36.876 120.9413,36.902 122.1613,36.897 C122.9213,36.894 123.6003,36.851 124.2973,36.319 C124.7613,35.964 125.6213,36.074 126.3043,36.075 C127.0623,36.076 127.3543,35.808 127.3463,35.023 C127.3413,34.564 127.5373,33.766 127.7853,33.705 C128.4143,33.553 129.2433,33.523 129.7703,33.827 C130.4753,34.236 131.1553,34.881 130.9013,35.958 C130.7493,36.605 131.1233,36.931 131.7943,36.898 C132.7043,36.854 133.5703,36.999 134.4243,36.274 C134.8893,35.879 135.8973,36.171 136.6413,36.043 C137.2483,35.94 137.8263,35.667 138.4203,35.478 C138.7103,35.385 139.0023,35.264 139.3003,35.239 C139.7843,35.198 140.2743,35.23 140.7633,35.224 C142.3113,35.207 142.3113,35.206 142.3263,33.668 C142.3453,32.029 142.3453,32.029 144.1583,31.803 L144.1583,39.747 Z" id="Fill-1" fill="#231916" mask="url(#mask-2)"></path>
                </g>
                <g id="编组" transform="translate(0.000000, 108.847000)">
                    <mask id="mask-4" fill="white">
                        <use xlink:href="#path-3"></use>
                    </mask>
                    <g id="Clip-4"></g>
                    <path d="M76.2122,6.3196 C75.4312,7.1506 75.5032,8.4656 76.2122,9.0566 L76.2122,6.3196 Z M83.2602,11.5656 C83.3872,11.6446 83.5152,11.7236 83.6422,11.8026 C83.9522,11.6316 84.5202,11.4736 84.5302,11.2846 C84.5922,10.1876 84.6082,9.0696 84.4472,7.9886 C84.3942,7.6246 83.8192,7.2506 83.4022,7.0506 C82.9022,6.8106 82.4252,6.9516 82.3772,7.6416 C82.3312,8.3066 82.3172,8.9286 82.9662,9.4096 C83.6752,9.9346 84.3852,10.5496 83.2602,11.5656 L83.2602,11.5656 Z M22.7022,13.8536 C23.0422,13.2936 23.5522,13.3616 24.1192,14.0246 C24.2582,14.1866 24.6372,14.1876 24.9042,14.1886 C30.5452,14.1976 36.1872,14.2016 41.8272,14.1796 C42.1732,14.1786 42.5192,13.9596 42.8622,13.8366 C43.2992,13.6796 43.7312,13.3936 44.1692,13.3816 C46.1182,13.3326 48.0692,13.3766 50.0192,13.3456 C50.4072,13.3396 50.8002,13.1726 51.1802,13.0466 C51.6492,12.8896 52.0962,12.5936 52.5712,12.5476 C53.4342,12.4626 54.3132,12.5496 55.1802,12.4976 C55.5362,12.4756 55.8842,12.2816 56.2332,12.1596 C56.6712,12.0066 57.0992,11.7456 57.5462,11.7096 C58.4452,11.6376 59.3562,11.7056 60.2602,11.6756 C60.5562,11.6666 60.8532,11.5486 61.1412,11.4546 C61.7342,11.2616 62.3102,10.9516 62.9162,10.8766 C63.7392,10.7746 64.5852,10.8376 65.4202,10.8516 C66.0432,10.8626 66.3162,10.5736 66.2842,9.9626 C66.2342,9.0216 66.0112,8.1876 65.6452,7.2706 C65.1692,6.0776 64.5742,6.0906 63.6582,6.0906 C55.3372,6.0996 47.0152,6.1076 38.6922,6.0716 C38.0942,6.0686 37.5082,5.6536 36.8962,5.5486 C36.4802,5.4756 36.0242,5.5886 35.5942,5.6586 C35.3142,5.7046 34.8692,5.9716 34.7962,5.8866 C33.9322,4.8736 32.7822,5.3946 31.7622,5.2566 C31.3582,5.2016 30.9532,5.1326 30.5632,5.0236 C29.9912,4.8636 29.4412,4.5536 28.8642,4.5006 C27.7932,4.4006 26.7072,4.4666 25.6302,4.4066 C25.2762,4.3866 24.9132,4.2256 24.5872,4.0636 C23.8082,3.6736 23.0882,3.0786 22.2692,2.8796 C21.5052,2.6926 20.6312,2.8426 19.8262,2.9736 C19.2212,3.0736 18.6502,3.3816 18.0612,3.5876 C17.8062,3.6756 17.4342,3.6566 17.3032,3.8296 C16.7942,4.5026 16.0942,4.3656 15.4092,4.4456 C14.8242,4.5126 14.0522,4.5826 13.7252,4.9636 C12.8472,5.9866 11.8142,6.2056 10.5732,6.1086 C9.8252,6.0496 9.1912,6.2806 8.4662,6.6606 C7.3852,7.2256 6.2962,8.1176 4.8492,7.7946 C4.1872,7.6466 3.4572,7.7316 2.7692,7.8106 C2.5422,7.8366 2.1792,8.1806 2.18610024,8.3696 C2.1942,8.6366 2.4272,9.0136 2.6692,9.1356 C3.4442,9.5256 4.3122,9.7416 5.0622,10.1676 C6.2882,10.8616 7.3992,11.7836 8.9292,11.7226 C9.0812,11.7166 9.2352,11.8676 9.3962,11.9236 C9.9842,12.1296 10.5632,12.3996 11.1692,12.5046 C11.9132,12.6326 12.9262,12.3336 13.3872,12.7276 C14.2372,13.4546 15.1022,13.3456 16.0132,13.3556 C17.5102,13.3726 19.0092,13.3186 20.5042,13.3806 C21.1482,13.4066 21.7832,13.6476 22.7022,13.8536 L22.7022,13.8536 Z M17.6752,16.0006 C17.6852,15.3576 17.2622,15.2906 16.7632,15.2946 C15.7522,15.3026 14.7422,15.2976 13.7322,15.2946 C13.0072,15.2936 12.2612,15.4076 11.7472,14.6656 C11.6432,14.5146 11.3072,14.4696 11.0782,14.4716 C10.3672,14.4776 9.6842,14.4776 9.2112,13.8016 C9.1322,13.6896 8.8802,13.6106 8.7382,13.6446 C7.3112,13.9906 6.1192,13.2516 4.9602,12.6926 C3.5972,12.0376 2.2112,11.3096 1.2742,10.0326 C1.1022,9.7986 1.0842,9.4536 0.9832,9.1646 C0.7882,8.6086 0.6542,8.0166 0.3702,7.5106 C-0.0578,6.7496 0.3042,5.8946 1.1872,5.8486 C2.0212,5.8046 2.8672,5.9096 3.6912,5.8086 C4.2972,5.7356 4.8662,5.4006 5.4682,5.2486 C5.9932,5.1166 6.5522,5.1156 7.0782,4.9876 C7.6502,4.8466 8.2042,4.6326 8.7622,4.4366 C8.8902,4.3926 9.0142,4.2166 9.1132,4.2356 C10.7232,4.5466 12.0392,3.4946 13.5382,3.2936 C13.8592,3.2506 14.1642,3.0556 14.4662,2.9096 C14.5862,2.8506 14.6632,2.6816 14.7832,2.6476 C16.0042,2.3056 17.2332,1.9936 18.4522,1.6466 C18.8332,1.5386 19.1832,1.3256 19.5622,1.2116 C19.9952,1.0816 20.6762,0.7756 20.8512,0.9486 C21.7242,1.8146 22.7822,1.5936 23.7942,1.6436 C24.4882,1.6766 25.2112,1.5576 25.6642,2.2806 C25.6982,2.3346 25.7702,2.3836 25.8322,2.3976 C27.1412,2.6926 28.4402,3.0716 29.7652,3.2466 C30.8972,3.3946 32.0652,3.2536 33.2072,3.3496 C33.7462,3.3946 34.2642,3.7006 34.7932,3.8826 C35.0462,3.9706 35.3042,4.1146 35.5602,4.1156 C44.8962,4.1386 54.2312,4.1606 63.5662,4.1266 C64.0632,4.1256 64.5822,3.6736 65.0432,3.3596 C65.3822,3.1306 65.6512,2.7926 65.9382,2.4906 C66.3932,2.0106 66.9022,1.2836 67.5672,1.6996 C68.1972,2.0926 68.6732,2.8306 69.0462,3.5086 C69.4822,4.3006 69.8672,5.0686 70.9162,4.9876 C72.0412,4.8996 73.2572,5.3826 74.2642,4.3236 C74.4462,4.1316 75.3162,4.6426 75.8832,4.7516 C76.3852,4.8466 76.7862,3.8176 77.4062,4.6166 C77.8402,5.1746 78.2982,5.0766 78.8302,4.6306 C79.0452,4.4496 79.5242,4.5136 79.8632,4.5736 C80.1492,4.6246 80.4332,4.9816 80.6712,4.9396 C82.0292,4.6986 83.1072,5.4656 84.2852,5.8616 C84.4132,5.9046 84.5972,5.9596 84.6392,6.0576 C85.0442,7.0026 85.5182,7.9326 85.7792,8.9176 C85.9512,9.5686 85.8112,10.3016 85.8082,10.9996 C85.7992,13.1406 83.7322,14.4496 81.7932,13.5366 C81.6722,13.4796 81.5292,13.3896 81.4792,13.2786 C81.1232,12.5026 80.8322,11.6926 80.4262,10.9446 C80.2702,10.6556 79.8762,10.3276 79.5772,10.3136 C78.2922,10.2546 77.0022,10.3046 75.7142,10.3166 C75.5752,10.3186 75.3832,10.2756 75.3062,10.3486 C73.8902,11.7036 72.1392,10.9766 70.5402,11.0906 C68.9922,11.2006 68.9612,11.1176 69.0342,12.6816 C69.0802,13.6666 69.0682,14.4886 67.7352,14.5556 C67.2702,14.5806 66.9602,15.6666 66.3042,14.8756 C65.9452,14.4436 65.7222,13.9016 65.4182,13.4216 C65.2812,13.2046 65.0892,12.8396 64.9372,12.8466 C63.9782,12.8926 62.9232,12.3826 62.0892,13.3376 C61.9042,13.5486 61.4602,13.5996 61.1322,13.6086 C59.9832,13.6406 58.8332,13.6176 57.6842,13.6246 C56.8252,13.6296 56.0502,13.6556 55.2422,14.2316 C54.6932,14.6246 53.6972,14.3476 52.9182,14.4776 C52.3432,14.5726 51.8002,14.8506 51.2362,15.0256 C50.8822,15.1356 50.5172,15.2746 50.1532,15.2826 C48.6912,15.3116 47.2282,15.3006 45.7652,15.2946 C45.2652,15.2926 44.8422,15.3576 44.8532,16.0006 L17.6752,16.0006 Z" id="Fill-3" fill="#231916" mask="url(#mask-4)"></path>
                </g>
            </g>
        </g>
    </g>
</svg>