<?xml version="1.0" encoding="UTF-8"?>
<svg width="88px" height="129px" viewBox="0 0 88 129" version="1.1" xmlns="http://www.w3.org/2000/svg" xmlns:xlink="http://www.w3.org/1999/xlink">
    <!-- Generator: Sketch 60 (88103) - https://sketch.com -->
    <title>figure47</title>
    <desc>Created with Sketch.</desc>
    <defs>
        <polygon id="path-1" points="0 0.426369068 87.1322 0.426369068 87.1322 129 0 129"></polygon>
    </defs>
    <g id="页面-1" stroke="none" stroke-width="1" fill="none" fill-rule="evenodd">
        <g id="29-44" transform="translate(-777.000000, -528.000000)">
            <g id="figure47" transform="translate(777.000000, 527.000000)">
                <g id="编组" transform="translate(0.000000, 0.574000)">
                    <mask id="mask-2" fill="white">
                        <use xlink:href="#path-1"></use>
                    </mask>
                    <g id="Clip-2"></g>
                    <path d="M81.3612,103.1144 C81.1752,101.8504 81.0242,100.8194 80.8502,99.6314 C80.4252,100.2614 80.2812,102.6404 80.6012,102.9094 C80.8022,103.0794 81.1582,103.0654 81.3612,103.1144 L81.3612,103.1144 Z M82.3782,125.8324 L82.3782,118.4824 C81.7532,119.3174 81.8032,125.0434 82.3782,125.8324 L82.3782,125.8324 Z M81.5812,104.3644 C81.4852,104.3754 81.3892,104.3864 81.2952,104.3984 L81.2952,117.5224 C82.0722,117.0014 82.7022,116.6914 81.9342,115.8944 C81.7902,115.7444 81.7832,115.4224 81.7812,115.1784 C81.7562,111.8424 81.7452,108.5054 81.7182,105.1694 C81.7162,104.9004 81.6292,104.6324 81.5812,104.3644 L81.5812,104.3644 Z M23.1382,109.1294 C23.9062,108.6704 24.2312,108.1834 24.2202,107.3784 C24.1832,104.3594 24.2282,101.3384 24.1932,98.3184 C24.1902,98.0164 23.9072,97.5164 23.6702,97.4584 C23.0632,97.3114 22.9922,97.8024 22.9922,98.2924 C22.9932,101.6894 22.9812,105.0874 22.9822,108.4854 C22.9822,108.6564 23.0622,108.8274 23.1382,109.1294 L23.1382,109.1294 Z M21.9522,103.6634 L21.9412,103.6634 C21.9412,101.8674 21.9682,100.0714 21.9152,98.2764 C21.9062,97.9844 21.5872,97.5234 21.3272,97.4534 C20.7982,97.3104 20.6662,97.7414 20.6692,98.2154 C20.6922,101.8384 20.6932,105.4614 20.7532,109.0834 C20.7572,109.3624 21.1172,109.8214 21.3742,109.8694 C21.9422,109.9784 21.9602,109.4954 21.9572,109.0504 C21.9442,107.2554 21.9522,105.4594 21.9522,103.6634 L21.9522,103.6634 Z M9.1132,100.2864 L9.1282,100.2864 C9.1282,99.4054 9.1192,98.5244 9.1322,97.6424 C9.1382,97.1494 9.1882,96.6424 8.4682,96.6624 C7.8072,96.6804 7.8712,97.1694 7.8722,97.6164 C7.8792,100.8274 7.8802,104.0394 7.8892,107.2504 C7.8922,108.0754 7.6582,108.9534 8.4732,109.6044 C8.6162,109.7184 8.5942,110.0774 8.5972,110.3234 C8.6162,112.1174 8.6242,113.9114 8.6322,115.7054 C8.6322,116.1784 8.5352,116.7294 9.2672,116.7064 C9.9322,116.6854 9.8352,116.1664 9.8352,115.7304 C9.8362,112.2054 9.8402,108.6804 9.8272,105.1554 C9.8252,104.8564 9.7252,104.5514 9.6382,104.2604 C9.4762,103.7184 9.1972,103.1954 9.1352,102.6454 C9.0482,101.8684 9.1132,101.0734 9.1132,100.2864 L9.1132,100.2864 Z M64.5292,127.1624 C66.2672,126.9214 67.1192,125.7364 67.1972,124.6444 C67.3122,123.0214 67.9392,121.2114 66.6992,119.6694 C66.5942,119.5394 66.5152,119.2264 66.5892,119.1424 C67.2892,118.3384 66.9272,117.5634 66.5902,116.7724 C66.5462,116.6664 66.5902,116.5234 66.5902,116.3974 C66.5922,113.3424 66.5962,110.2874 66.5942,107.2334 C66.5922,104.7764 66.6102,102.3194 66.5662,99.8634 C66.5492,98.9044 66.9402,98.5774 67.8652,98.6154 C68.9022,98.6584 69.9442,98.6074 70.9822,98.5714 C71.2542,98.5624 71.5252,98.4704 71.7902,98.3944 C72.3652,98.2284 72.9262,97.9504 73.5092,97.8954 C74.4162,97.8104 75.3372,97.9064 76.2482,97.8544 C76.5902,97.8354 76.9802,97.6944 77.2432,97.4784 C77.8382,96.9894 78.3542,96.9654 78.8882,97.5294 C79.3482,98.0144 79.7562,97.9374 80.2802,97.5424 C80.6022,97.3004 81.2642,97.0804 81.5072,97.2444 C82.1172,97.6584 82.7662,98.0994 82.7442,99.0804 C82.6852,101.6304 82.7322,104.1824 82.7572,106.7344 C82.7592,107.0314 82.8712,107.3334 82.9612,107.6244 C83.1202,108.1354 83.4452,108.6384 83.4512,109.1484 C83.4992,113.6514 83.4922,118.1564 83.5062,122.6594 C83.5072,122.8764 83.4722,123.1904 83.5932,123.2934 C84.4342,124.0014 84.2042,124.9314 84.2152,125.8284 C84.2182,126.0704 84.3692,126.4514 84.5432,126.5144 C84.7902,126.6034 85.1822,126.5444 85.4052,126.3924 C86.1992,125.8514 86.5322,123.2294 86.0442,122.3934 C85.7652,121.9164 85.5252,121.3304 85.5212,120.7914 C85.4772,113.5464 85.5352,106.2994 85.3982,99.0554 C85.3802,98.0824 85.2012,97.1734 85.4082,96.1504 C85.6582,94.9094 85.4722,93.5784 85.4612,92.2874 C85.4592,92.0424 85.4792,91.6854 85.3372,91.5734 C84.6522,91.0334 84.8652,90.5254 85.2322,90.1374 C85.0412,89.5644 84.7602,89.1114 84.7572,88.6554 C84.7152,84.0894 84.7272,79.5214 84.6882,74.9544 C84.6852,74.5624 84.4952,74.1224 84.2652,73.7914 C83.9082,73.2764 83.8662,72.8544 84.2512,72.3394 C84.3922,72.1494 84.4292,71.8134 84.3842,71.5684 C84.3032,71.1314 84.0072,70.7144 84.0042,70.2874 C83.9822,66.0024 84.0082,61.7184 83.9962,57.4334 C83.9952,57.1224 83.7942,56.8124 83.6822,56.5024 C83.5322,56.0834 83.2562,55.6674 83.2492,55.2454 C83.2092,52.7894 83.2342,50.3314 83.2332,47.8744 C83.2322,47.0454 83.4362,46.1744 82.6412,45.5214 C82.4922,45.3994 82.4882,45.0494 82.4872,44.8044 C82.4782,41.0574 82.4432,37.3084 82.5152,33.5624 C82.5292,32.8274 81.9552,32.4404 81.8922,31.9114 C81.8262,31.3524 82.3712,30.7464 82.4222,30.1424 C82.4842,29.4114 81.4242,28.7594 82.2012,27.9184 C82.2102,27.9084 82.1712,27.8634 82.1682,27.8334 C82.1162,27.3894 82.0662,26.9464 82.0152,26.5014 C81.9502,25.8424 81.7402,25.2044 81.7352,24.5644 C81.6982,19.6814 81.7122,14.7984 81.6732,9.9154 C81.6702,9.5214 81.3982,9.1314 81.2602,8.7364 C81.1512,8.4214 80.9752,8.1024 80.9702,7.7824 C80.9442,6.2704 80.9122,4.7554 80.9912,3.2464 C81.0392,2.3314 80.7612,2.0364 79.8342,2.04133768 C73.6292,2.0744 67.4232,2.0574 61.2162,2.0594 C60.0232,2.0604 59.9892,2.1044 60.0182,3.2774 C60.0362,3.9924 60.0332,4.6324 59.5022,5.2944 C59.2162,5.6504 59.4982,6.5004 59.6032,7.1144 C59.6732,7.5204 60.0072,7.9004 60.0112,8.2934 C60.0502,13.1134 60.0442,17.9324 60.0742,22.7524 C60.0762,23.0974 60.2672,23.4444 60.3802,23.7864 C60.5102,24.1854 60.7632,24.5794 60.7672,24.9784 C60.7992,28.0024 60.7782,31.0274 60.7822,34.0514 C60.7832,34.8134 60.5432,35.6404 61.3892,36.1864 C61.5202,36.2704 61.5392,36.5934 61.5362,36.8054 C61.5262,37.7214 61.7692,38.7034 61.1182,39.1934 C61.2842,40.0294 61.4962,40.6614 61.5202,41.3014 C61.5752,42.7174 61.5462,44.1364 61.5322,45.5544 C61.5242,46.2714 61.3902,46.9864 62.1212,47.5144 C62.3002,47.6444 62.2912,48.0974 62.2922,48.4024 C62.3112,53.9784 62.3132,59.5544 62.3402,65.1304 C62.3402,65.4514 62.4952,65.7764 62.5992,66.0924 C62.7412,66.5164 63.0352,66.9344 63.0372,67.3554 C63.0732,74.6964 63.0702,82.0364 63.0952,89.3764 C63.0962,89.6934 63.2782,90.0104 63.3862,90.3244 C63.5232,90.7204 63.7922,91.1124 63.7952,91.5074 C63.8342,95.8224 63.8262,100.1384 63.8522,104.4544 C63.8542,104.7764 64.0052,105.1014 64.1092,105.4174 C64.2512,105.8424 64.5452,106.2574 64.5492,106.6794 C64.5912,110.7424 64.5832,114.8064 64.6022,118.8704 C64.6032,119.1404 64.6182,119.5274 64.7852,119.6604 C65.4152,120.1594 65.3252,120.8154 65.3212,121.4734 C65.3162,122.5764 65.3702,123.6814 65.3002,124.7804 C65.2722,125.2374 64.9862,125.6754 64.8332,126.1274 C64.7212,126.4554 64.6362,126.7924 64.5292,127.1624 L64.5292,127.1624 Z M63.4552,127.1824 C63.4892,126.9144 63.5442785,126.6794 63.5442785,126.4454 C63.5452,121.5934 63.5362,116.7414 63.5422,111.8894 C63.5422,111.3404 63.4342,111.0244 62.7772,110.9694 C62.0652,110.9094 62.0062,110.5524 62.4412,109.9624 C62.6442,109.6874 62.8112,109.3064 62.8122,108.9734 C62.8212,105.1614 62.8022,101.3494 62.7662,97.5374 C62.7632,97.2194 62.5882,96.9014 62.4792,96.5874 C62.3422,96.1914 62.0692,95.8004 62.0662,95.4054 C62.0302,89.5774 62.0342,83.7484 62.0092,77.9194 C62.0082,77.5964 61.8602,77.2714 61.7552,76.9554 C61.6132,76.5304 61.3152,76.1144 61.3122,75.6934 C61.2732,70.3684 61.2772,65.0444 61.2592,59.7184 C61.2582,59.4484 61.2442,59.0614 61.0782,58.9284 C60.4472,58.4294 60.5402,57.7724 60.5422,57.1144 C60.5472,55.7284 60.5442,54.3424 60.5442,52.9554 C60.5442,52.2194 60.7362,51.4524 59.9562,50.9014 C59.7782,50.7754 59.7892,50.3174 59.7882,50.0124 C59.7852,46.9554 59.8062,43.8994 59.7932,40.8434 C59.7922,40.5274 59.7092,40.1144 59.5022,39.9144 C58.8312,39.2644 58.8092,38.7064 59.5232,38.0964 C59.9692,37.7144 59.9062,37.3314 59.5532,36.8674 C59.2942,36.5264 59.0502,36.0634 59.0472,35.6524 C58.9992,30.5794 58.9962,25.5064 58.9832,20.4334 C58.9812,19.6924 59.1502,18.9224 58.4212,18.3544 C58.2732,18.2394 58.2722,17.8844 58.2732,17.6404 C58.2832,12.7264 58.3042,7.8124 58.3152,2.8984 C58.3162,2.6764 58.2342,2.4544 58.2222,2.3924 C57.3572,2.5634 56.6272,2.7584 55.8832,2.8384 C55.0552,2.9284 54.1942,2.7404 53.4872,3.4234 C53.3052,3.5984 52.8842,3.5194 52.5752,3.5704 C52.3322,3.6094 51.9972,3.5824 51.8642,3.7304 C51.2182,4.4534 50.3812,4.2844 49.5752,4.3344 C49.0512,4.3664 48.5092,4.4014 48.0172,4.5624 C46.9252,4.9224 45.8882,5.5084 44.7742,5.7314 C43.4252,6.0024 42.2052,6.8744 40.7432,6.6174 C40.6712,6.6054 40.5852,6.7164 40.4972,6.7434 C39.8932,6.9284 39.2932,7.1274 38.6802,7.2794 C38.3482,7.3614 37.8622,7.2274 37.6752,7.4174 C36.5402,8.5714 34.8922,7.8574 33.5592,8.6794 C32.5522,9.3004 30.9952,8.8604 29.7232,9.5284 C28.7492,10.0394 27.5432,10.1094 26.4422,10.3824 C26.3242,10.4114 26.2212,10.4994 26.1052,10.5404 C25.5632,10.7284 25.0322,10.9814 24.4742,11.0784 C23.5442,11.2404 22.4982,10.9084 21.7492,11.7954 C21.6712,11.8874 21.4502,11.8514 21.2982,11.8874 C20.1962,12.1524 19.0942,12.4164 17.9962,12.6934 C17.8822,12.7214 17.7992,12.8584 17.6862,12.9004 C17.2122,13.0764 16.7422,13.3014 16.2502,13.3864 C15.5152,13.5144 14.6682,13.3434 14.0392,13.6504 C12.7182,14.2924 12.5032,14.4454 11.1192,14.3874 C10.9652,14.3804 10.8142,14.5844 10.6452,14.6374 C9.5182,14.9934 8.5802,15.9114 7.2502,15.6924 C6.7752,15.6134 6.0802,15.5904 5.8002,15.8634 C5.1052,16.5454 4.3012,16.4144 3.5082,16.4664 C2.3742,16.5414 1.7702,17.1954 1.77615573,18.3324 C1.8022,24.2564 1.8212,30.1794 1.8372,36.1034 C1.8402,36.9524 1.5212,37.8564 2.4222,38.5154 C2.5782,38.6304 2.5462,39.0484 2.5462,39.3254 C2.5472,41.6254 2.5292,43.9264 2.5332,46.2254 C2.5332,46.4984 2.5242,46.8834 2.6862,47.0254 C3.5722,47.7964 3.4302,48.5134 2.7252,49.1074 C2.9412,49.6344 3.2542,50.0454 3.2582,50.4604 C3.3162,55.2164 3.3212,59.9724 3.3542,64.7294 C3.3612,65.6104 3.0872,66.5564 3.9442,67.2744 C4.1012,67.4054 4.0572,67.8104 4.0582,68.0894 C4.0782,75.3674 4.0902,82.6464 4.1072,89.9254 C4.1092,90.7214 3.9002,91.5594 4.6782,92.1924 C4.8392,92.3224 4.8152,92.7244 4.8162,93.0014 C4.8322,99.5864 4.8392,106.1714 4.8532,112.7574 C4.8532,113.0044 4.8132,113.3674 4.9512,113.4794 C5.7562,114.1284 5.5572,115.0004 5.5642,115.8334 C5.5672,116.3184 5.6642,116.7614 6.2722,116.7124 C6.6822,116.6784 7.3872,116.6034 7.4302,116.4214 C7.5492,115.9184 7.4392,115.3394 7.3262,114.8104 C7.2342,114.3794 6.8632,113.9784 6.8592,113.5624 C6.8122,108.0804 6.8052,102.5974 6.7972,97.1144 C6.7952,95.7314 6.9502,95.5604 8.2982,95.5624 C11.5432,95.5654 14.7882,95.5864 18.0322,95.6124 C18.3072,95.6144 18.7072,95.6034 18.8352,95.7664 C19.4072,96.4954 20.1602,96.3384 20.9082,96.3244 C21.9472,96.3044 22.9872,96.2944 24.0252,96.3364 C24.3802,96.3514 24.7282,96.5314 25.0772,96.6434 C25.5042,96.7804 25.9262,97.0424 26.3542,97.0494 C29.8192,97.0984 33.2862,97.0934 36.7512,97.1294 C37.1382,97.1334 37.5322,97.2694 37.9102,97.3854 C38.3632,97.5254 38.8002,97.8444 39.2482,97.8504 C42.4612,97.8914 45.6752,97.8634 48.8892,97.8854 C49.2742,97.8884 49.6612,98.0514 50.0402,98.1624 C50.4702,98.2884 50.8842,98.5064 51.3222,98.5694 C53.9062,98.9394 56.5922,97.9794 59.1292,99.3394 C60.0882,99.8534 60.7852,100.3814 60.7862,101.5044 C60.7912,105.2214 60.7912,108.9394 60.8222,112.6564 C60.8262,113.0344 60.9242,113.4984 61.1552,113.7704 C61.6912,114.3974 61.7262,114.9224 61.1192,115.4844 C60.7022,115.8704 60.7222,116.2494 61.0202,116.7384 C61.2782,117.1604 61.5092,117.6784 61.5182,118.1584 C61.5642,120.6144 61.5172,123.0724 61.5502,125.5294 C61.5552,125.8794 61.7252,126.3414 61.9822,126.5484 C62.3432,126.8394 62.8572,126.9404 63.4552,127.1824 L63.4552,127.1824 Z M61.9852,129.0004 C61.7882,128.7874 61.6112,128.4224 61.3872,128.3904 C60.7422,128.3004 60.5972,127.9494 60.5132,127.3734 C60.4382,126.8554 60.1712,126.3644 59.9842,125.8634 C59.7032,125.1044 59.5192,124.3304 60.1532,123.6704 C60.6542,123.1484 60.6192,122.7514 60.1582,122.2084 C59.9092,121.9154 59.8032,121.4204 59.7972,121.0144 C59.7572,118.5584 59.8432,116.0974 59.7212,113.6464 C59.6702,112.6084 59.1442,111.6624 59.6932,110.5314 C59.9772,109.9464 59.9712,108.9874 59.1972,108.3784 C59.0162,108.2364 59.0312,107.7914 59.0302,107.4864 C59.0242,105.6904 59.0402,103.8934 59.0492,102.0974 C59.0552,101.2014 58.3282,100.4094 57.4362,100.3854 C56.6492,100.3634 55.8552,100.4324 55.0752,100.3584 C54.6102,100.3144 54.1702,100.0524 53.7102,99.9214 C53.3292,99.8134 52.9352,99.6844 52.5482,99.6814 C47.6322,99.6494 42.7162,99.6544 37.8012,99.5994 C37.2942,99.5944 36.7932,99.2634 36.2812,99.1044 C35.9632,99.0054 35.6322,98.8824 35.3052,98.8774 C33.7942,98.8534 32.2802,98.8934 30.7692,98.8474 C30.3662,98.8354 29.9702,98.5964 29.5712,98.4644 C29.2552,98.3604 28.9412,98.1914 28.6202,98.1734 C27.8352,98.1314 27.0442,98.1954 26.2582,98.1504 C25.4502,98.1044 25.2492,98.4544 25.2592,99.2204 C25.3022,102.1184 25.2852,105.0184 25.2832,107.9174 C25.2822,109.3374 23.7612,110.9164 22.3532,110.9774 C19.6502,111.0934 19.6502,111.0934 19.6532,108.3864 C19.6552,106.7474 19.6452,105.1094 19.6592,103.4704 C19.6652,102.7804 19.6302,102.1884 19.1472,101.5534 C18.8152,101.1164 18.9572,100.2914 18.9532,99.6384 C18.9382,97.3534 18.9492,97.3534 16.6412,97.3534 C15.7592,97.3534 14.8752,97.3934 13.9962,97.3434 C13.0062,97.2864 12.0202,97.1494 10.8932,97.0324 C10.8982,97.0084 10.8242,97.2344 10.8262,97.4604 C10.8442,101.0514 10.8712,104.6424 10.9032,108.2334 C10.9052,108.4804 10.8692,108.8394 11.0082,108.9544 C11.8322,109.6344 11.5982,110.5474 11.6272,111.4044 C11.6322,111.5914 11.6662,111.8474 11.5632,111.9554 C10.3622,113.2204 11.0412,114.7684 10.9372,116.1834 C10.8302,117.6614 10.7672,117.8144 9.3032,117.8194 C8.1062,117.8224 6.9102,117.8104 5.7132,117.8124 C5.0742,117.8134 4.8562,117.4754 4.5122,116.9144 C3.3022,114.9444 3.8472,112.8314 3.7992,110.7884 C3.7082,106.8834 3.7832,102.9744 3.7812,99.0674 C3.7812,98.8224 3.8052,98.4654 3.6642,98.3494 C2.8632,97.6964 3.0692,96.8214 3.0652,95.9914 C3.0502,92.9664 3.0462,89.9424 3.0262,86.9174 C3.0252,86.6744 3.0302,86.3204 2.8842,86.2054 C2.1632,85.6374 2.3062,84.8704 2.3052,84.1254 C2.2972,76.4994 2.2862,68.8744 2.2692,61.2494 C2.2682,61.0044 2.2922,60.6474 2.1502,60.5314 C1.3492,59.8784 1.5552,59.0024 1.5532,58.1734 C1.5492,56.4404 1.5622,54.7074 1.5682,52.9744 C1.5682,52.9114 1.5972,52.8374 1.5742,52.7874 C1.1842,51.9754 0.6452,51.1694 1.5892,50.3544 C1.6322,50.3174 1.5472,50.0064 1.4462,49.9434 C0.6742,49.4604 0.8512,48.9574 1.1882,48.6694 C1.0322,47.7904 0.8202,47.1244 0.8102,46.4544 C0.7752,44.0604 0.8182,41.6654 0.8042,39.2714 C0.8032,38.9824 0.7262,38.5984 0.5342,38.4244 C-0.1558,37.7974 -0.1868,37.2324 0.4942,36.5934 C0.9122,36.1994 0.8382,35.8044 0.5162,35.3384 C0.2702,34.9814 0.0532,34.5134 0.0512,34.0934 C0.0212,28.5474 0.0322,23.0014 0.0322,17.4554 C0.0322,16.2904 0.8172,15.4944 2.0012,15.4264 C2.7652,15.3834 3.5902,15.5494 4.1812,14.8194 C4.2742,14.7044 4.5302,14.7104 4.7142,14.6854 C4.9002,14.6614 5.1602,14.7474 5.2702,14.6514 C6.4782,13.5924 8.2252,14.3394 9.5022,13.3414 C9.9322,13.0044 10.7832,13.2404 11.4252,13.1244 C12.0082,13.0184 12.5692,12.7894 13.1382,12.6104 C13.1962,12.5924 13.2382,12.5234 13.2962,12.5094 C14.4132,12.2204 15.5312,11.9344 16.6512,11.6534 C16.8312,11.6084 17.1072,11.6504 17.1862,11.5414 C17.8032,10.6974 18.7032,10.9644 19.5232,10.8724 C19.8732,10.8334 20.2042,10.6314 20.5422,10.4954 C20.8232,10.3834 21.0962,10.2504 21.3812,10.1454 C21.9152,9.9474 22.4432,9.7184 22.9952,9.5854 C23.5022,9.4624 24.0442,9.4854 24.5552,9.3734 C25.0162,9.2714 25.4592,9.0794 25.9042,8.9134 C26.0172,8.8704 26.1252,8.6974 26.2112,8.7134 C27.6732,8.9804 28.8552,7.9584 30.2332,7.8594 C30.9122,7.8104 31.6182,7.9134 32.1412,7.2784 C32.2632,7.1304 32.6162,7.1884 32.8502,7.1124 C33.3302,6.9564 33.7932,6.7434 34.2772,6.6104 C34.7182,6.4884 35.1762,6.4024 35.6322,6.3684 C36.2512,6.3234 36.8442,6.4134 37.3622,5.8494 C37.5922,5.5994 38.1752,5.6374 38.6022,5.6124 C39.2532,5.5724 39.8732,5.6624 40.4212,5.0714 C40.6652,4.8084 41.3112,4.9484 41.7582,4.8374 C42.3042,4.7014 42.8342,4.4964 43.3672,4.3144 C43.4532,4.2844 43.5262,4.1724 43.6052,4.1724 C44.8232,4.1674 45.9822,3.9784 47.0672,3.3534 C47.5792,3.0584 48.1862,2.9274 48.7542,2.7344 C48.9582,2.6644 49.1732,2.5974 49.3852,2.5874 C50.2742,2.5454 51.1132,2.6404 51.9412,1.9664 C52.3952,1.5974 53.3362,1.8304 54.0562,1.7854 C54.8802,1.7334 55.7642,1.9634 56.4242,1.1794 C56.5452,1.0384 56.9122,1.1294 57.1452,1.0534 C57.5372,0.9274 57.9092,0.7474 58.2962,0.6044 C58.4942,0.5314 58.7042,0.4444 58.9102,0.4414 C60.0762,0.426369068 61.2422,0.4154 62.4072,0.4474 C62.6522,0.4534 62.8832,0.7024 63.1342,0.7354 C63.7182,0.8114 64.3152,0.8854 64.8972,0.8414 C65.2882,0.8104 65.6622,0.4514 66.0442,0.4494 C71.0222,0.4214 76.0012,0.4294 80.9792,0.4324 C81.9982,0.4334 82.7142,1.1424 82.7202,2.1714 C82.7352,4.4714 82.7152,6.7714 82.7602,9.0714 C82.7672,9.4684 83.0252,9.8594 83.1582,10.2574 C83.2722,10.6014 83.4642,10.9504 83.4652,11.2984 C83.4822,16.6224 83.4732,21.9474 83.4712,27.2724 C83.4712,27.3034 83.4552,27.3464 83.4692,27.3644 C84.5292,28.6374 83.2952,29.9194 83.4852,31.1944 C83.5122,31.3794 83.4382,31.6564 83.5392,31.7414 C84.6872,32.7184 84.1212,34.0264 84.2122,35.1944 C84.2802,36.0704 84.0252,37.0124 84.2592,37.8254 C84.5752,38.9174 84.7312,39.8964 84.2112,40.9474 C84.1142,41.1414 84.2142,41.6114 84.3802,41.7254 C85.1272,42.2414 84.9852,42.9774 84.9832,43.6904 C84.9752,46.0854 84.9622,48.4804 84.9652,50.8744 C84.9662,51.1134 84.9922,51.4714 85.1402,51.5704 C85.8622,52.0504 85.7412,52.7524 85.7422,53.4404 C85.7502,62.3874 85.7582,71.3354 85.7842,80.2834 C85.7852,80.6014 85.8922,80.9714 86.0762,81.2274 C86.6462,82.0244 86.6812,82.8114 86.1462,83.6264 C86.0352,83.7944 85.9992,84.0704 86.0432,84.2724 C86.1622,84.8244 86.4702,85.3634 86.4762,85.9094 C86.5222,90.3514 86.5182,94.7934 86.5262,99.2354 C86.5272,99.6674 86.5192,100.0904 87.1322,100.0714 L87.1322,127.6764 C86.6142,127.9044 86.1132,128.2434 85.5722,128.3304 C84.8662,128.4454 84.0972,128.4874 83.4122,128.3244 C82.6322,128.1404 81.8972,127.7264 81.1782,127.3444 C81.0262,127.2644 80.9882,126.9014 80.9632,126.6604 C80.9202,126.2544 80.9532,125.8414 80.9112,125.4344 C80.7872,124.2024 81.3412,122.8534 80.2642,121.7754 C80.1462,121.6574 80.2022,121.3514 80.2012,121.1324 C80.1892,117.3224 80.1862,113.5134 80.1612,109.7034 C80.1582,109.3794 80.0222,109.0514 79.9212,108.7344 C79.7762,108.2804 79.4772,107.8374 79.4662,107.3854 C79.4122,105.0884 79.4232,102.7894 79.4242,100.4914 C79.4242,99.9804 79.2982,99.5804 78.7022,99.6344 C75.2532,99.9474 71.7192,98.9084 68.3252,100.3374 C67.7572,100.5764 67.6102,100.8004 67.6162,101.3264 C67.6302,102.6494 67.6042,103.9714 67.6312,105.2934 C67.6362,105.5854 67.7852,105.8774 67.8812,106.1654 C68.0312,106.6184 68.3002,107.0604 68.3282,107.5184 C68.3922,108.6164 68.2482,109.7334 68.3742,110.8204 C68.4922,111.8384 67.3462,112.8384 68.3612,113.8384 C68.3772,113.8544 68.3772,113.9124 68.3612,113.9284 C67.6352,114.6804 67.9912,115.4334 68.3492,116.1894 C68.3742,116.2414 68.3522,116.3144 68.3522,116.3774 C68.3552,119.4304 68.3852,122.4844 68.3312,125.5354 C68.3222,126.0254 67.9932,126.5504 67.7022,126.9854 C67.2312,127.6884 66.6692,128.3314 66.1452,129.0004 L61.9852,129.0004 Z" id="Fill-1" fill="#231916" mask="url(#mask-2)"></path>
                </g>
                <path d="M46.9306,72.4642 C46.8076,72.3872 46.6836,72.3102 46.5606,72.2342 C46.2636,72.5212 45.9666,72.8082 45.6696,73.0952 C45.7376,73.2072 45.8046,73.3182 45.8706,73.4292 C46.1706,73.3782 46.5416,73.4132 46.7486,73.2472 C46.9126,73.1152 46.8776,72.7342 46.9306,72.4642 L46.9306,72.4642 Z M49.7306,62.0652 C49.7316,61.9702 49.7326,61.8762 49.7326,61.7812 L48.1346,61.7812 C48.1336,61.8762 48.1336,61.9702 48.1336,62.0652 L49.7306,62.0652 Z M57.2446,87.1872 L57.4916,86.7112 C57.1376,86.4902 56.7846,86.2692 56.4306,86.0482 C56.3766,86.2702 56.2126,86.6282 56.2876,86.6872 C56.5646,86.9072 56.9196,87.0292 57.2446,87.1872 L57.2446,87.1872 Z M15.5716,91.7602 C15.6736,91.6042 15.7766,91.4492 15.8796,91.2942 C15.5346,91.0442 15.1886,90.7942 14.8426,90.5452 C14.7646,90.7262 14.5776,91.0252 14.6256,91.0692 C14.9106,91.3322 15.2496,91.5362 15.5716,91.7602 L15.5716,91.7602 Z M56.6076,88.7172 C56.5056,88.8802 56.4036,89.0422 56.3016,89.2052 C56.6376,89.4522 56.9736,89.7002 57.3086,89.9472 C57.3986,89.7452 57.6096,89.4102 57.5586,89.3632 C57.2766,89.1092 56.9316,88.9252 56.6076,88.7172 L56.6076,88.7172 Z M9.7576,67.1232 C9.6546,67.1242 9.5496,67.1252 9.4456,67.1272 L9.4456,68.7482 C9.5496,68.7462 9.6546,68.7432 9.7576,68.7402 L9.7576,67.1232 Z M6.9176,64.1022 C6.7606,64.0972 6.6046,64.0932 6.4486,64.0882 L6.4486,66.3692 C6.5586,66.3742 6.6696,66.3782 6.7806,66.3822 L6.9176,64.1022 Z M49.6386,54.1252 C49.6426,54.2492 49.6466,54.3742 49.6506,54.4982 C50.2126,54.6432 50.7806,54.8672 51.2906,54.1252 L49.6386,54.1252 Z M46.6736,54.4222 C46.6746,54.3262 46.6756,54.2312 46.6776,54.1362 L44.3816,54.1362 L44.3816,54.4222 L46.6736,54.4222 Z M45.8796,94.9572 C45.8816,95.0522 45.8846,95.1472 45.8866,95.2422 L48.2006,95.2422 C48.1986,95.1472 48.1966,95.0522 48.1946,94.9572 L45.8796,94.9572 Z M52.6796,91.2112 C52.6816,91.2972 52.6836,91.3822 52.6866,91.4682 L55.0376,91.4682 C55.0346,91.3822 55.0336,91.2972 55.0306,91.2112 L52.6796,91.2112 Z M8.1416,66.6922 C8.5256,66.2442 8.8546,65.9192 9.0996,65.5402 C9.1846,65.4082 9.0826,65.1332 9.0146,64.9422 C8.9946,64.8852 8.7896,64.8482 8.6866,64.8732 C8.1146,65.0112 7.7726,65.9122 8.1416,66.6922 L8.1416,66.6922 Z M27.6796,57.1552 C27.6816,57.3202 27.6846,57.4852 27.6866,57.6502 C28.4926,57.6122 29.2966,57.5742 30.1026,57.5362 C30.0996,57.4092 30.0966,57.2822 30.0936,57.1552 L27.6796,57.1552 Z M11.8426,80.7582 C11.6416,81.1522 11.5116,81.6152 11.2206,81.9252 C10.8246,82.3472 10.6466,82.7002 11.0256,83.2022 C12.1696,82.5722 12.4886,81.5822 11.8426,80.7582 L11.8426,80.7582 Z M42.0926,61.7512 C42.8826,62.3852 44.7496,62.3182 45.2776,61.7512 L42.0926,61.7512 Z M48.9536,71.8492 C48.4936,72.3052 48.0056,72.5632 47.9826,72.8592 C47.9256,73.5502 48.5576,73.4322 49.0056,73.4382 C49.4336,73.4432 50.0226,73.5062 49.9306,72.8682 C49.8866,72.5572 49.4136,72.3072 48.9536,71.8492 L48.9536,71.8492 Z M33.0966,58.9722 C33.0966,58.8722 33.0956,58.7712 33.0956,58.6702 C31.8226,58.6122 30.5436,57.5092 29.1866,58.9722 L33.0966,58.9722 Z M54.3966,72.5082 C53.6736,71.9962 51.5696,72.0522 51.1486,72.5412 C52.7006,73.3942 52.7006,73.3942 54.3966,72.5082 L54.3966,72.5082 Z M11.2736,75.4772 C11.2136,75.4212 11.1546,75.3652 11.0936,75.3092 C10.5736,76.1972 10.0766,75.7972 9.6116,75.3522 C9.1836,76.1982 9.8336,77.1472 11.2736,77.8212 L11.2736,75.4772 Z M42.9506,54.3322 C42.1496,53.3302 41.3516,52.3292 40.4936,51.2542 C39.9826,51.5912 40.1916,52.2502 40.4406,52.7622 C40.9636,53.8372 42.2466,54.5882 42.9506,54.3322 L42.9506,54.3322 Z M45.9286,78.3492 C46.8366,78.9192 54.6316,78.8492 55.2036,78.3492 L45.9286,78.3492 Z M47.5126,50.7352 C46.7616,50.0182 41.6096,50.1512 41.2366,50.7352 L47.5126,50.7352 Z M54.2816,74.6922 C53.5896,74.2732 46.5366,74.3562 45.9256,74.7902 C46.8816,75.1402 53.7316,75.0592 54.2816,74.6922 L54.2816,74.6922 Z M35.3356,86.2172 C35.3316,86.0812 35.3286,85.9432 35.3266,85.8072 C34.4176,85.8072 33.5076,85.8432 32.6026,85.7952 C31.8946,85.7572 31.1876,85.6392 30.4896,85.5092 C30.0156,85.4212 29.5576,85.1482 29.0946,85.1532 C28.7986,85.1562 28.5066,85.5142 28.2136,85.7142 C28.5116,85.9092 28.8036,86.2632 29.1076,86.2742 C30.9336,86.3362 32.7616,86.3232 34.5886,86.3232 C34.8376,86.3232 35.0866,86.2542 35.3356,86.2172 L35.3356,86.2172 Z M28.4866,89.6692 C28.4376,89.7982 28.3876,89.9292 28.3376,90.0592 C28.7596,90.3162 29.4276,90.8872 29.5656,90.7802 C30.5696,89.9952 31.4616,90.8342 32.3906,90.8372 C32.5476,90.8382 32.7486,90.8852 32.8506,90.8082 C33.0496,90.6572 33.3266,90.4302 33.3236242,90.2382 C33.3206,90.0472 33.0216,89.6992 32.8436,89.6932 C31.3926,89.6492 29.9396,89.6692 28.4866,89.6692 L28.4866,89.6692 Z M10.9666,88.4452 C11.0956,88.4962 11.2236,88.5472 11.3526,88.5982 C11.7366,88.1452 12.1506,87.7142 12.4876,87.2282 C12.6076,87.0542 12.6486,86.6782 12.5406,86.5202 C12.0786,85.8422 11.5466,85.2122 11.0256,84.5442 C9.9866,85.2382 9.9516,85.4652 10.6766,86.6092 C10.8286,86.8502 10.8156,87.2012 10.8616,87.5052 C10.9076,87.8172 10.9326,88.1312 10.9666,88.4452 L10.9666,88.4452 Z M36.2996,83.5492 C35.8746,83.5492 35.6076,83.5492 35.3406,83.5492 C34.2716,83.5472 33.0556,83.8662 32.1666,83.4642 C30.9816,82.9262 30.0266,83.4932 28.9746,83.5062 C28.8036,83.5082 28.6336,83.6402 28.3886,83.7432 C28.5586,83.8952 28.6366,84.0132 28.6876,84.0032 C30.1686,83.6882 31.5646,84.7402 33.0596,84.2822 C33.1886,84.2422 33.3936,84.4092 33.5476,84.5042 C34.5976,85.1512 35.5846,84.8772 36.2996,83.5492 L36.2996,83.5492 Z M55.8016,82.4772 C55.8016,82.3682 55.8006,82.2592 55.8006,82.1512 L44.3696,82.1512 L44.3696,82.4772 L55.8016,82.4772 Z M49.0106,55.9482 C49.0216,55.8712 49.0336,55.7952 49.0436,55.7182 C48.9666,55.6732 48.8896,55.5892 48.8116,55.5892 C46.1816,55.5912 43.5506,55.5882 40.9206,55.6352 C40.7156,55.6392 40.5176,56.0042 40.3156,56.2012 C40.5436,56.4002 40.7586,56.7532 41.0016,56.7722 C41.8736,56.8432 42.7586,56.8512 43.6316,56.7842 C44.0586,56.7512 44.4676,56.4952 44.8876,56.3492 C45.1736,56.2512 45.4626,56.1042 45.7556,56.0912 C46.5706,56.0552 47.3866,56.0882 48.2016,56.0712 C48.4716,56.0662 48.7416,55.9912 49.0106,55.9482 L49.0106,55.9482 Z M31.9706,87.3862 L31.9706,87.3912 C30.9676,87.3912 29.9616,87.3542 28.9626,87.4182 C28.7226,87.4332 28.5046,87.7872 28.2766,87.9852 C28.5096,88.1782 28.7476,88.5372 28.9746,88.5302 C29.4736,88.5132 29.9636,88.2972 30.4636,88.1912 C30.8406,88.1102 31.3816,87.8812 31.5826,88.0452 C32.5846,88.8652 33.7366,88.5542 34.8296,88.5832 C35.0916,88.5892 35.3636,88.2202 35.6306,88.0242 C35.3516,87.8112 35.0856,87.4402 34.7906,87.4152 C33.8576,87.3362 32.9116,87.3862 31.9706,87.3862 L31.9706,87.3862 Z M54.2966,79.9912 C54.1786,79.9322 54.0536,79.8162 53.9286,79.8152 C51.3566,79.8132 48.7836,79.8062 46.2116,79.8642 C46.0156,79.8682 45.8296,80.3422 45.6386,80.5982 C45.9246,80.7342 46.2616,81.0442 46.4876,80.9772 C47.8616,80.5692 49.1566,80.6562 50.5816,80.9122 C51.7156,81.1162 52.9996,80.4892 54.2156,80.2232 C54.2456,80.2172 54.2546,80.1162 54.2966,79.9912 L54.2966,79.9912 Z M28.5156,91.8902 C28.4936,92.0062 28.4706,92.1222 28.4486,92.2372 C28.7496,92.3112 29.0526,92.3822 29.3546,92.4572 C29.6806,92.5382 30.0096,92.6132 30.3326,92.7072 C30.7666,92.8332 31.1916,93.0692 31.6286,93.0892 C32.8196,93.1422 34.0146,93.1182 35.2076,93.1012 C35.6796,93.0942 36.3316,93.2572 36.3116,92.4652 C36.2926,91.7612 35.6966,91.8812 35.2436,91.8802 C33.4226,91.8752 31.6016,91.8852 29.7806,91.8902 C29.3596,91.8912 28.9376,91.8902 28.5156,91.8902 L28.5156,91.8902 Z M30.7666,61.7302 C30.7186,61.8762 30.6706,62.0232 30.6216,62.1702 C31.1756,62.3982 31.7106,62.7242 32.2866,62.8372 C34.5156,63.2762 36.6136,62.3122 38.7906,62.1372 C39.5106,62.0802 39.5966,61.5872 39.1976,61.0632 C38.6516,61.2412 38.1706,61.5162 37.6796,61.5362 C35.6436,61.6222 33.6036,61.6292 31.5646,61.6692 C31.2986,61.6742 31.0336,61.7092 30.7666,61.7302 L30.7666,61.7302 Z M55.2376,76.0212 C53.5556,76.0212 52.0946,76.0172 50.6326,76.0212 C49.2206,76.0252 47.8086,76.0102 46.3996,76.0692 C46.1496,76.0802 45.9136,76.4142 45.6716,76.5992 C45.8286,76.7992 46.0006,77.1822 46.1416,77.1712 C47.4796,77.0672 48.8806,77.6512 50.1626,76.8072 C50.3216,76.7032 50.7026,76.7972 50.9036,76.9222 C51.6146,77.3682 52.2846,77.3482 53.0006,76.9422 C53.2096,76.8232 53.5896,76.7202 53.7356,76.8262 C54.6036,77.4532 54.7896,76.7652 55.2376,76.0212 L55.2376,76.0212 Z M43.5126,93.0742 C43.9716,93.1072 44.3036,93.1472 44.6356,93.1512 C46.7776,93.1782 48.9176,93.1972 51.0596,93.2202 C51.3116,93.2232 51.5966,93.1652 51.8076,93.2622 C52.8886,93.7612 54.1066,93.4572 55.1996,93.8752 C55.3686,93.9392 55.5976,93.8452 55.8826,93.8162 C55.5946,93.0352 55.1466,92.6802 54.3916,92.6732 C51.8416,92.6482 49.2916,92.6142 46.7436,92.5552 C46.3546,92.5462 45.9166,92.4732 45.5916,92.2802 C44.6336,91.7132 44.1866,91.8222 43.5126,93.0742 L43.5126,93.0742 Z M55.0356,84.6832 C55.0356,84.5782 55.0356,84.4722 55.0366,84.3662 C54.2386,84.4572 53.6686,83.1892 52.6836,84.1572 C52.5446,84.2932 51.9886,84.1752 51.7506,84.0022 C51.3466,83.7062 51.0766,83.9052 50.6796,83.9642 C49.7436,84.1022 48.7656,83.9902 47.8076,83.9272 C47.5196,83.9082 47.2456,83.6342 46.9586,83.6212 C45.9866,83.5752 45.0096,83.5622 44.0376,83.6102 C43.7996,83.6212 43.3576,84.0112 43.3776,84.0562 C43.5766,84.4872 43.8256,84.9082 44.1316,85.2702 C44.2116,85.3642 44.5556,85.2742 44.7616,85.2112 C45.1556,85.0912 45.5346,84.8122 45.9226,84.8082 C48.6246,84.7772 51.3266,84.8042 54.0296,84.8002 C54.3656,84.7992 54.7006,84.7242 55.0356,84.6832 L55.0356,84.6832 Z M40.6246,57.8592 C40.6266,57.9852 40.6296,58.1122 40.6316,58.2392 C40.8086,58.2742 40.9846,58.3382 41.1606,58.3382 C44.0796,58.3352 46.9986,58.3272 49.9176,58.3102 C50.1306,58.3092 50.4206,58.3082 50.5426,58.1812 C51.1536,57.5452 51.9216,57.7012 52.6636,57.6642 C52.9806,57.6492 53.2916,57.5432 53.6066,57.4782 C53.5986,57.3702 53.5906,57.2622 53.5826,57.1552 C53.3266,57.1102 53.0726,57.0252 52.8176,57.0272 C50.4006,57.0552 47.9826,57.0942 45.5646,57.1402 C45.3826,57.1432 45.1206,57.1532 45.0346,57.2652 C44.4536,58.0232 43.6406,57.8492 42.8716,57.8572 C42.1226,57.8642 41.3736,57.8592 40.6246,57.8592 L40.6246,57.8592 Z M55.3116,89.2202 C54.9716,88.9752 54.8636,88.8312 54.7426,88.8212 C52.8726,88.6722 51.0266,88.8182 49.1326,88.2392 C47.5786,87.7642 45.7636,88.1172 44.0666,88.1732 C43.8176,88.1822 43.5806,88.5832 43.3396,88.8022 C43.5856,88.9822 43.8296,89.3142 44.0796,89.3182 C47.4766,89.3842 50.8726,89.4092 54.2706,89.429207 C54.5396,89.4302 54.8096,89.3242 55.3116,89.2202 L55.3116,89.2202 Z M43.5266,86.9362 C43.7836,86.9902 44.0026,87.0752 44.2236,87.0762 C47.5856,87.0912 50.9496,87.0952 54.3126,87.1022 C54.7766,87.1032 55.3066,87.0672 55.1906,86.4542 C55.1456,86.2142 54.6346,85.9072 54.3296,85.8992 C52.3816,85.8482 50.4326,85.8592 48.4836,85.8752 C46.8086,85.8892 45.0676,85.5642 43.5266,86.9362 L43.5266,86.9362 Z M54.3396,59.7362 C54.3436,59.6352 54.3466,59.5332 54.3506,59.4322 C54.0736,59.3872 53.7956,59.3012 53.5196,59.3032 C50.7466,59.3282 47.9746,59.3532 45.2036,59.4182 C44.7956,59.4272 44.3996,59.7042 43.9856,59.7552 C43.5066,59.8142 43.0086,59.7982 42.5286,59.7432 C41.9576,59.6762 41.3996,59.4852 40.8296,59.4532 C40.6736,59.4442 40.3496,59.8212 40.3596,60.0072 C40.3836,60.4462 40.5126,60.9022 40.7146,61.2922 C40.7616,61.3832 41.4396,61.3402 41.5346,61.1822 C42.0896,60.2682 42.9476,60.6812 43.6796,60.6232 C44.4736,60.5602 45.3396,60.3652 45.6576,61.0232 C46.6876,60.8602 47.5376,60.6662 48.3976,60.6052 C49.2426,60.5442 50.1106,60.5282 50.9446,60.6522 C52.2476,60.8482 53.2446,60.1602 54.3396,59.7362 L54.3396,59.7362 Z M7.0886,83.7412 L7.1186,83.7412 C7.1186,86.2922 7.1196,88.8422 7.1176,91.3922 C7.1176,91.8392 7.0686,92.2762 7.6986,92.3892 C9.5046,92.7172 9.8786,92.4282 9.8716,90.6472 C9.8696,90.1112 9.8966,89.5752 9.8676,89.0422 C9.8526,88.7692 9.7586,88.4972 9.6726,88.2342 C9.4886,87.6672 9.1586,87.1132 9.1176,86.5392 C9.0386,85.3812 9.1386,84.2132 9.1106,83.0492 C9.1016,82.7082 8.9176,82.3672 8.7986,82.0312 C8.6596,81.6402 8.3866,81.2582 8.3716,80.8652 C8.3166,79.3252 8.3456,77.7812 8.3266,76.2392 C8.3246,75.9632 8.3426,75.5622 8.1816,75.4342 C7.4586,74.8622 7.6036,74.1002 7.6026,73.3562 C7.6006,72.2542 7.5886,71.1522 7.5926,70.0512 C7.5936,69.6082 7.5516,69.1222 6.9786,69.2712 C6.7166,69.3392 6.3976,69.7992 6.3836,70.0942 C6.3196,71.4452 6.3366,72.8012 6.3666,74.1542 C6.3716,74.4422 6.5476,74.7272 6.6516,75.0102 C6.7936,75.4032 7.0626,75.7932 7.0696,76.1862 C7.1076,78.7042 7.0886,81.2232 7.0886,83.7412 L7.0886,83.7412 Z M27.7156,60.1532 C27.7186,60.2592 27.7216,60.3642 27.7236,60.4702 C27.9826,60.5422 28.3116,60.5422 28.4776,60.7062 C28.6466,60.8742 28.7976,61.2882 28.7046,61.4472 C28.4226,61.9332 26.6456,61.6722 26.5816,61.1192 C26.4816,60.2492 26.4166,59.4122 25.7816,58.7332 C25.7136,58.6612 25.7456,58.4892 25.7446,58.3632 C25.7436,57.4192 25.6926,56.4692 25.7726,55.5312 C25.7996,55.2092 26.1076,54.7072 26.3706,54.6452 C27.3146,54.4222 28.0346,53.4932 29.1366,53.7732 C29.2526,53.8032 29.4196,53.5422 29.5866,53.4782 C30.6486,53.0682 31.5026,52.1252 32.7956,52.2942 C33.1726,52.3432 33.5886,52.2132 33.9686,52.1012 C34.4816,51.9512 34.9726,51.7302 35.4806,51.5592 C35.7116,51.4812 36.0736,51.5322 36.1816,51.3842 C36.6546,50.7362 37.3186,50.7232 37.9696,50.8142 C38.9626,50.9512 39.7916,50.5102 40.0166,49.7032 C40.2326,48.9302 40.5496,47.9222 39.6866,47.1562 C39.5466,47.0322 39.6036,46.6132 39.6666,46.3552 C39.7766,45.9042 40.0636,45.4792 40.0926,45.0312 C40.1376,44.3322 40.3766,43.9842 41.1106,43.9832 C41.5036,43.9832 42.0556,44.0032 42.2596,43.7712 C42.7626,43.1982 43.3816,43.1142 43.9766,43.2582 C45.5306,43.6352 46.6986,42.4282 48.1596,42.3002 C48.7306,42.2502 49.4276,41.6982 50.1976,41.6892 C50.4036,41.6862 50.6036,41.4392 50.8136,41.3172 C51.0256,41.1952 51.2426,41.0032 51.4636,40.9922 C52.8086,40.9242 54.2176,41.1882 55.3666,40.2022 C55.6286,39.9772 55.9816,39.6712 56.0006,39.3822 C56.0746,38.2532 56.0396,37.1172 56.0266,35.9842 C56.0186,35.3022 55.4316,34.8822 54.9936,35.3142 C54.0976,36.1962 53.0456,35.7902 52.0566,35.9202 C51.6726,35.9692 51.2996,36.1112 50.9286,36.2332 C50.5316,36.3642 50.1456,36.6352 49.7486,36.6472 C47.7346,36.7052 45.7186,36.6872 43.7026,36.7272 C43.3476,36.7342 42.9906,36.8742 42.6406,36.9772 C42.1816,37.1132 41.7386,37.3402 41.2706,37.4072 C40.5586,37.5082 39.6186,37.2382 39.1566,37.6052 C38.2556,38.3182 37.3286,38.1042 36.3886,38.1892 C35.9626,38.2272 35.5396,38.3322 35.1266,38.4452 C34.6086,38.5882 34.1116,38.8442 33.5856,38.9212 C32.1406,39.1342 30.7026,38.7362 29.2176,39.5512 C27.9766,40.2322 26.3316,40.1832 24.8636,40.4422 C24.6186,40.4852 24.3576,40.4732 24.1086,40.4432 C23.2016,40.3342 22.8766,40.6862 22.9306,41.6222 C22.9696,42.3182 22.7496,43.0272 22.6156,43.9352 C23.0256,44.2472 22.8506,44.7862 22.5676,45.0812 C22.7296,45.9112 22.8806,46.5152 22.9576,47.1292 C23.0596,47.9382 22.6896,48.8382 23.5056,49.5092 C23.5976,49.5852 23.4686,50.1032 23.3006,50.2852 C22.9036,50.7142 22.9126,51.0522 23.2246,51.5352 C23.4756,51.9242 23.6986,52.4162 23.7056,52.8662 C23.7566,55.8892 23.7586,58.9122 23.7466,61.9362 C23.7436,62.5702 23.9446,62.8632 24.6096,62.8563224 C26.2786,62.8382 27.9486,62.8602 29.6176,62.8512 C29.7786,62.8502 29.9396,62.7392 29.9516,62.7352 C29.8306,62.1452 29.4846,61.4252 29.6856,61.2042 C30.0176,60.8392 30.6966,60.6712 31.2416,60.6402 C32.6546,60.5602 34.0756,60.6052 35.4926,60.5872 C35.7176,60.5842 35.9426,60.5112 36.2016,60.4652 C35.6546,59.4012 35.5596,59.3772 34.7416,59.8482 C34.5346,59.9662 34.2716,60.0352 34.0336,60.0382 C32.2086,60.0612 30.3846,60.0592 28.5606,60.0742 C28.2786,60.0772 27.9966,60.1262 27.7156,60.1532 L27.7156,60.1532 Z M42.2346,67.1592 C40.6216,67.7972 39.2606,67.9062 37.6726,67.1972 C36.7436,66.7822 35.4446,67.1562 34.3166,67.2502 C33.8826,67.2862 33.4666,67.6482 33.0396,67.6552 C30.5506,67.6952 28.0606,67.7012 25.5726,67.6612 C24.7106,67.6472 24.4376,67.9152 24.4486,68.8042 C24.5066,73.7822 24.4936,78.7612 24.5346,83.7392 C24.5376,84.1372 24.7726,84.5352 24.9066,84.9312 C25.0126,85.2462 25.2206,85.5562 25.2266,85.8712 C25.2716,87.9812 25.2996,90.0932 25.2646,92.2032 C25.2586,92.5452 24.9106,92.8812 24.7226,93.2212 C24.5426,92.8722 24.2516,92.5352 24.2086,92.1702 C24.1286,91.4872 24.2526,90.7802 24.1756,90.0962 C24.1196,89.6062 23.8666,89.1412 23.7196,88.6592 C23.6206,88.3382 23.4896,88.0062 23.4866,87.6792 C23.4596,84.6232 23.4606,81.5672 23.4426,78.5102 C23.4416,78.2352 23.4626,77.8362 23.3026,77.7062 C22.5876,77.1302 22.7266,76.3692 22.7266,75.6232 C22.7266,72.7872 22.7346,69.9512 22.7116,67.1142 C22.7066,66.3662 22.8906,65.9192 23.7586,65.9192 C35.1646,65.9282 46.5716,65.9162 57.9766,65.9242 C59.1806,65.9252 59.2756,66.0672 59.2746,67.2332 C59.2696,71.9282 59.2516,76.6232 59.2856,81.3182 C59.2896,81.7962 59.5516,82.3052 59.8006,82.7372 C60.1106,83.2732 60.1526,83.7162 59.7226,84.1902 C59.0216,84.9642 59.0456,85.6572 59.7106,86.4852 C59.8906,86.7092 60.0176,87.0452 60.0206,87.3302 C60.0426,90.2602 60.0246,93.1902 60.0436384,96.1202 C60.0496,97.0362 59.3506,97.4082 58.7706,97.8412 C58.5826,97.9802 58.0256,97.9452 57.8956,97.7842 C57.2416,96.9672 56.3686,97.1902 55.5426,97.1742 C54.6926,97.1592 53.8346,97.2362 52.9926,97.1482 C52.4446,97.0902 51.9236,96.7942 51.3806,96.6372 C51.0316,96.5362 50.6636,96.4422 50.3036,96.4372 C48.5396,96.4132 46.7766,96.3982 45.0126,96.4262 C44.1286,96.4412 43.7966,96.0402 43.9116,95.2112 C44.0016,94.5682 43.8286,94.2052 43.1016,94.1332 C42.4056,94.0642 42.3356,93.4982 42.3646,92.9202 C42.3776,92.6302 42.3666,92.3382 42.3666,91.9462 C41.1066,92.7972 40.0026,93.5422 38.8996,94.2862 C38.9286,94.3862 38.9576,94.4852 38.9866,94.5852 C39.2656,94.6142 39.5446,94.6652 39.8256,94.6702 C40.5176,94.6842 41.2296,94.5852 41.8956,94.7202 C42.1936,94.7802 42.5606,95.2772 42.5916,95.6062 C42.6146,95.8482 42.1556,96.3552 41.8916,96.3682 C40.2876,96.4502 38.6666,96.5472 37.0766,96.3942 C35.8406,96.2742 36.8836,95.5662 36.9456,95.0752 C36.5346,94.4472 35.9706,94.1422 35.1596,94.1502 C33.3976,94.1682 31.6326,94.1062 29.8686,94.0902 C29.6406,94.0882 29.4116,94.1612 29.1836,94.2002 L29.1596,94.4582 C29.4526,94.5222 29.7436,94.6322 30.0376,94.6412 C31.6116,94.6862 33.1866,94.7112 34.7616,94.7312 C35.3146,94.7372 35.8116,94.8282 35.8076,95.5172 C35.8036,96.1922 35.3876,96.4532 34.7446,96.4122 C33.9236,96.3602 33.0446,96.6362 32.3636,95.8502 C32.2106,95.6742 31.7716,95.7152 31.4626,95.7132 C28.4696,95.6872 25.4756,95.6912 22.4836,95.6372 C22.0556,95.6302 21.6366,95.3482 21.2066,95.2172 C20.8586,95.1102 20.5006,94.9662 20.1456,94.9632 C16.9326,94.9262 13.7176,94.9382 10.5046,94.8782 C10.0246,94.8692 9.5516,94.5622 9.0736,94.3972 C8.8146,94.3082 8.5566,94.1742 8.2916,94.1562 C6.7226,94.0512 6.0396,93.3602 6.0396,91.8042 C6.0396,88.6212 6.0516,85.4392 6.0506,82.2562 C6.0496,82.0102 6.0776,81.6522 5.9376,81.5362 C5.1036,80.8552 5.3386,79.9392 5.3386,79.0842 C5.3366,73.0672 5.3496,67.0502 5.3486,61.0322 C5.3486,60.7892 5.3536,60.4222 5.2096,60.3242 C4.3956,59.7662 4.5776,58.9532 4.5786,58.1832 C4.5816,56.6082 4.6046,55.0332 4.5956,53.4592 C4.5936,53.1902 4.5656,52.8212 4.3966,52.6722 C3.6066,51.9712 3.7216,51.3282 4.4656,50.6512 C4.1416,50.1072 3.4466,49.5522 4.2426,49.2022 C4.0806,48.2962 3.8736,47.5622 3.8376,46.8202 C3.7746,45.5312 3.8146,44.2362 3.8156,42.9442 C3.8166,41.8712 4.6056,41.0612 5.6896,41.0372 C7.7366,40.9922 9.7846,40.9782 11.8296,40.9062 C12.2396,40.8922 12.6416,40.6762 13.0476,40.5552 C13.4296,40.4422 13.8076,40.2542 14.1956,40.2332 C15.2326,40.1752 16.2736,40.1962 17.3136,40.1712 C17.5586,40.1652 17.8096,40.1282 18.0446,40.0612 C18.6856,39.8792 19.3066,39.6002 19.9566,39.4942 C20.8006,39.3582 21.6096,39.4252 22.4536,38.9252 C23.1256,38.5272 24.1666,38.7462 25.0446,38.7012 C25.9646,38.6542 26.8776,38.8292 27.7156,38.0952 C28.0716,37.7842 28.8706,38.0232 29.4516,37.9172 C30.1066,37.7982 30.7326,37.5232 31.3866,37.4092 C32.0916,37.2862 32.8156,37.2682 33.5326,37.2112 C34.3926,37.1432 35.1936,37.0992 36.0456,36.6652 C36.8436,36.2592 37.9576,36.5052 38.9206,36.3792 C39.4166,36.3152 39.8846,36.0562 40.3706,35.9012 C40.6616,35.8092 40.9616,35.6962 41.2606,35.6852 C42.2996,35.6442 43.3416,35.6772 44.3776,35.6112 C44.7876,35.5852 45.1806,35.3492 45.5906,35.2492 C46.1266,35.1172 46.6696,35.0002 47.2166,34.9242 C48.2906,34.7752 49.5096,35.3302 50.3896,34.2552 C52.4576,34.2552 54.5386,34.1292 56.5876,34.3312 C57.2146,34.3932 57.8976,35.2262 57.7786,36.2422 C57.6806,37.0822 57.7726,37.9432 57.7466,38.7932 C57.7286,39.4282 57.6956,39.9952 58.2896,40.4922 C58.4976,40.6662 58.4786,41.5082 58.2536,41.7222 C57.7686,42.1872 57.7026,42.6592 57.7466,43.2452 C57.8166,44.1782 57.4606,45.1962 58.4096,45.9402 C58.5646,46.0602 58.5126,46.4762 58.5126,46.7562 C58.5106,49.0562 58.4946,51.3562 58.4956,53.6562 C58.4956,53.9002 58.4896,54.2682 58.6316,54.3662 C59.4416,54.9242 59.2636,55.7352 59.2666,56.5062 C59.2696,57.3882 59.1336,58.2962 59.2976,59.1472 C59.5646,60.5292 58.7836,61.5822 58.3696,62.7442 C58.2916,62.9612 57.7436,63.1122 57.4096,63.1192 C55.6146,63.1562 53.8166,63.1132 52.0216,63.1562 C51.6246,63.1662 51.2356,63.4172 50.8406,63.5522 C50.4976,63.6702 50.1536,63.8772 49.8086,63.8782 C41.2696,63.9122 32.7306,63.9282 24.1916,63.9352 C22.8296,63.9362 22.6856,63.7672 22.6786,62.3932 C22.6726,61.2272 22.6816,60.0612 22.6776,58.8952 C22.6756,58.1272 22.8686,57.3232 22.1096,56.7212 C21.9486,56.5932 21.9706,56.1902 21.9686,55.9142 C21.9616,53.8662 21.9716,51.8192 21.9696,49.7722 C21.9686,49.5542 22.0086,49.2512 21.8876,49.1322 C20.6856,47.9452 21.3556,46.4442 21.2076,45.0942 C21.0996,44.1002 21.2016,43.0802 21.2496,42.0742 C21.2916,41.2252 20.7686,41.2032 20.1456,41.1952 C19.5076,41.1872 19.1236,41.3352 19.1506,42.0872 C19.1906,43.1882 19.1506,44.2922 19.1666,45.3942 C19.1706,45.6342 19.1916,45.9922 19.3396,46.0912 C20.0616,46.5702 19.9436,47.2722 19.9416,47.9602 C19.9296,51.3612 19.9186,54.7632 19.9216,58.1652 C19.9226,58.4352 19.9366,58.8152 20.1026,58.9562 C20.9706,59.6942 20.9456,60.3722 20.3216,60.8132 C20.4686,61.8692 20.6726,62.6882 20.6806,63.5082 C20.7246,67.7942 20.7086,72.0792 20.7446,76.3642 C20.7476,76.6992 20.9226,77.0872 21.1376,77.3552 C21.5606,77.8852 21.6006,78.3342 21.1546,78.8682 C21.0176,79.0322 20.9766,79.3532 21.0206,79.5762 C21.1226,80.1002 21.4246,80.6082 21.4326,81.1252 C21.4876,84.7162 21.4876,88.3092 21.5036,91.9002 C21.5046,92.1522 21.5656,92.4332 21.4756,92.6482 C21.3816,92.8722 21.1386,93.0322 20.9596,93.2212 C20.7806,93.0352 20.4846,92.8722 20.4436,92.6602 C20.3616,92.2352 20.4156,91.7832 20.4166,91.3422 C20.4206,89.0422 20.4306,86.7422 20.4216,84.4422 C20.4206,84.2042 20.3906,83.8632 20.2396,83.7462 C19.5856,83.2412 19.7986,82.7982 20.0766,82.5452 C19.9316,81.5812 19.7236,80.8182 19.7166,80.0542 C19.6746,75.4862 19.6806,70.9192 19.6656,66.3522 C19.6656,66.1342 19.7076,65.8222 19.5866,65.7152 C18.5866,64.8272 19.0566,63.6702 18.9516,62.6152 C18.9156,62.2692 18.7386,61.9362 18.6186,61.6002 C18.4776,61.2072 18.2426,60.8272 18.1996,60.4252 C18.0836,59.3782 18.4256,58.3272 17.5556,57.3232 C17.1696,56.8792 17.4366,55.8142 17.5326,55.0472 C17.5566,54.8512 18.0396,54.6442 18.3436,54.5662 C18.9266,54.4172 19.1626,53.9622 18.8296,53.6062 C17.8836,52.5962 18.3616,51.3852 18.2066,50.2742 C18.0786,49.3502 18.4986,48.3192 17.5346,47.5842 C17.3956,47.4772 17.4306,47.1082 17.4296,46.8602 C17.4246,45.4112 17.4546,43.9612 17.4236,42.5122 C17.4146,42.1102 17.3056,41.4162 17.1186,41.3712 C16.6096,41.2502 16.0246,41.3552 15.4876,41.4612 C14.9326,41.5712 14.4086,41.8992 13.8566,41.9382 C12.6326,42.0262 11.4006,41.9942 10.1716,42.0062 C9.4866,42.0132 8.8676,42.0222 8.2426,42.5192 C7.8556,42.8252 7.0996,42.7202 6.5126,42.7042 C5.7686,42.6852 5.4976,42.9722 5.5406,43.7142 C5.5876,44.5302 5.5256,45.3512 5.5296,46.1692 C5.5306,46.3962 5.5976,46.6232 5.6676,47.0642 C6.1516,46.6012 6.4716,46.2752 6.8126,45.9722 C7.3986,45.4512 7.7856,44.6982 8.7466,44.6272 C9.0936,44.6022 9.4096,44.1052 9.7316,43.8142 C10.3496,43.2532 12.7706,42.9172 13.4736,43.3312 C13.6436,43.4302 13.7526,43.6502 13.8626,43.8312 C14.0926,44.2142 14.3596,44.5892 14.5046,45.0052 C14.6196,45.3322 14.6266,45.7212 14.5786,46.0692 C14.5616,46.1952 14.2476,46.2812 14.0696,46.3852 C13.9126,46.1112 13.6866,45.8552 13.6146,45.5612 C13.3526,44.4892 11.8326,43.9132 10.8866,44.4812 C10.0356,44.9922 9.1056,45.3672 8.2296,45.8372 C7.9636,45.9792 7.7526,46.2302 7.5316,46.4452 C6.9926,46.9702 6.2316,49.9752 6.4076,50.3962 L7.7736,50.3962 C7.7546,51.0092 7.7376,51.6212 7.7186,52.2342 C7.3246,52.1882 6.9286,52.1432 6.3816,52.0792 C6.3606,52.2592 6.3286,52.5372 6.2906,52.8142 C6.1996,53.4962 6.5856,54.2752 5.8596,54.8422 C5.7796,54.9052 5.8666,55.2242 5.9216,55.4112 C6.0416,55.8112 6.3006,56.1992 6.3116,56.5972 C6.3546,58.1722 6.6636,58.7702 8.1986,59.7622 C8.3666,59.0222 8.5306,58.3932 7.9546,57.7542 C7.7316,57.5062 7.6176,57.1132 7.5596,56.7692 C7.3916,55.7612 7.9776,54.6202 7.0046,53.7462 C6.9476,53.6932 7.0006,53.4232 7.0866,53.3332 C7.1706,53.2432 7.4476,53.1822 7.4916,53.2342 C7.8966,53.7142 8.4116,54.1702 8.6116,54.7342 C8.7986,55.2642 8.5826,55.9242 8.6586,56.5132 C8.7116,56.9362 9.0046,57.3252 9.0956,57.7502 C9.2376,58.4032 9.3656,59.0732 9.3706,59.7372 C9.3776,60.4572 9.3396,61.0542 9.8896,61.7192 C10.2646,62.1722 10.0266,63.1042 10.1446,63.8082 C10.2326,64.3292 10.4526,64.8282 10.6126,65.3382 C10.7026,65.6302 10.8506,65.9212 10.8646,66.2182 C10.9016,67.0672 10.8806,67.9182 10.8896,68.7682 C10.8916,68.9852 10.8306,69.3022 10.9486,69.4052 C12.1386,70.4562 11.4126,71.8362 11.6256,73.0482 C11.7066,73.5062 11.9476,73.9332 12.0796,74.3832 C12.2176,74.8502 12.3496,75.3242 12.4196,75.8042 C12.5486,76.6862 12.0596,77.6992 13.0526,78.4012 C13.2016,78.5062 13.1446,78.9332 13.1466,79.2112 C13.1526,80.3442 13.1376,81.4772 13.1466,82.6102 C13.1476,82.7912 13.1656,83.0612 13.2796,83.1382 C14.0586,83.6662 13.8886,84.4492 13.8896,85.1922 C13.8906,85.9972 13.7576,86.8032 14.4916,87.4642 C14.7026,87.6552 14.5426,88.2352 14.5996,88.6312 C14.6266,88.8252 14.7596,89.0052 14.8446,89.1912 C14.9986,89.1122 15.1556,89.0372 15.3066,88.9542 C15.8846,88.6342 16.4486,88.2782 17.0516,88.0172 C17.1756,87.9632 17.5276,88.2142 17.6346,88.4032 C17.7556,88.6172 17.7206,88.9212 17.7566,89.2162 C19.0246,88.6552 19.1146,88.1592 18.4796,87.1542 C18.1916,86.6982 18.2776,86.0192 18.1326,85.4562 C18.0176,85.0062 17.7846,84.5882 17.6506,84.1412 C17.5286,83.7352 17.4136,83.3132 17.3946,82.8932 C17.3636,82.2122 17.5496,81.4912 16.8436,81.0062 C16.7576,80.9462 16.6916,80.7762 16.7036,80.6672 C16.9826,78.2272 15.4096,75.9932 15.9156,73.5242 C16.0316,72.9612 15.8966,72.4902 15.4506,71.9932 C15.1446,71.6522 15.2826,70.9332 15.1596,70.3972 C15.0566,69.9422 14.8676,69.5052 14.7116,69.0622 C14.6116,68.7762 14.4396,68.4992 14.4096,68.2072 C14.3006,67.0882 14.6036,65.9612 13.7726,64.8872 C13.4016,64.4092 13.7266,63.4222 13.6466,62.6752 C13.6046,62.2782 13.3576,61.9072 13.2286,61.5162 C13.0956,61.1152 12.9316,60.7092 12.8936,60.2952 C12.8266,59.5552 12.9716,58.7902 12.2686,58.2172 C12.1096,58.0882 12.1406,57.6852 12.1376,57.4082 C12.1286,56.6202 12.1616,55.8322 12.1506,55.0452 C12.1456,54.7722 12.1556,54.3642 11.9936,54.2522 C11.2166,53.7082 11.4416,52.9342 11.3676,52.1992 C11.3236,51.7482 11.0586,51.3192 10.8976,50.8792 C10.4406,49.6332 9.4716,48.5062 9.8896,47.0562 C10.0086,46.6392 10.3676,46.2812 10.6486,45.9222 C11.1026,45.3432 11.4456,45.7012 11.7886,46.0782 C11.8656,46.1612 12.0086,46.1922 12.1266,46.2232 C13.2596,46.5202 13.2716,46.5492 12.5056,47.5582 C13.1846,48.1972 13.5036,48.8982 12.5906,49.6512 C12.5546,49.6802 12.8386,50.2222 13.0656,50.4222 C13.6146,50.9072 14.1796,51.2472 13.3106,52.0352 C13.0016,52.3152 13.1376,53.0842 13.0716,53.6212 C13.6966,53.4532 14.0936,53.3462 14.4906,53.2392 C14.3866,53.6022 14.2836,53.9642 14.1376,54.4752 C14.8926,55.3302 14.9096,56.2422 14.0286,57.3812 C13.6496,57.8692 13.9646,58.8952 13.9646,59.7932 C15.0446,59.0302 15.1986,59.0422 16.0046,60.1072 C16.4106,60.6442 16.2516,61.1692 15.7376,61.5942 C15.2096,62.0302 15.1986,62.4782 15.7296,62.9322 C16.3706,63.4802 16.2246,63.9612 15.7936,64.6372 C15.4936,65.1072 15.3396,66.0272 15.6056,66.4172 C16.0396,67.0562 16.1836,67.6132 16.0806,68.3252 C16.0606,68.4632 16.2216,68.6282 16.4356,69.0482 C16.5786,68.5172 16.6166,68.2242 16.7406,67.9752 C16.8246,67.8042 17.0626,67.5592 17.1746,67.5862 C17.3716,67.6332 17.6446,67.8452 17.6716,68.0212 C17.7386,68.4492 17.6186,68.9092 17.6956,69.3332 C17.7716,69.7492 17.9306,70.1892 18.1786,70.5242 C18.4796,70.9292 18.4746,71.1802 18.0566,71.4432 C17.4286,71.8392 17.4996,72.3012 17.9856,72.7442 C18.6466,73.3472 18.6356,73.9052 17.9616,74.4852 C17.4766,74.9012 17.4796,75.3502 17.9676,75.7592 C18.6706,76.3502 18.5666,76.8932 17.9866,77.5212 C17.7696,77.7562 17.7416,78.1642 17.5776,78.6312 C17.9386,78.5692 18.0286,78.5612 18.1146,78.5372 C18.4096,78.4562 18.7026,78.3692 18.9976,78.2842 C18.9866,78.6932 19.1416,79.2752 18.9316,79.4772 C18.3596,80.0272 18.3926,80.6222 18.4476,81.2942 C18.4936,81.8582 18.4046,82.4362 18.4876,82.9922 C18.5496,83.4152 18.7836,83.8152 18.9516,84.2202 C18.9856,84.3032 19.1046,84.3582 19.1226,84.4392 C19.4076,85.6862 19.6826,86.9342 19.9536,88.1842 C19.9736,88.2732 19.9316,88.3732 19.9426,88.4652 C20.1286,90.1372 19.5516,91.4552 18.1496,92.4092 C17.9866,92.5202 17.8946,92.7352 17.5766,93.1582 C19.0036,93.4322 20.2296,93.8012 21.4736,93.8762 C23.6086,94.0042 25.7536,93.9512 27.8956,93.9652 C28.1316,93.9672 28.3686,93.9092 28.6056,93.8792 L28.8306,93.5622 C28.6586,93.5072 28.4886,93.4152 28.3136,93.4032 C27.3276,93.3362 27.1446,92.7132 27.2296,91.8882 C27.2926,91.2652 27.4436,90.6352 26.7576,90.1902 C26.6566,90.1252 26.6936,89.6492 26.8186,89.4672 C27.4226,88.5862 27.3766,87.2522 26.7896,86.3982 C26.5826,86.0962 26.4796,85.3632 26.6486,85.2282 C27.3806,84.6422 27.2326,83.8962 27.2486,83.1582 C27.2776,81.9042 27.3666,81.8192 28.6096,81.8072 C29.3186,81.7992 30.0716,81.9632 30.5866,81.2322 C30.6716,81.1122 30.9306,81.0642 31.1066,81.0682 C31.7806,81.0832 32.4036,81.0552 32.8966,80.4642 C33.0346,80.2992 33.4226,80.3152 33.6986,80.3022 C34.4956,80.2662 35.2376,80.3452 35.9806,79.7282 C36.4086,79.3732 37.3136,79.6372 37.9876,79.5222 C38.5356,79.4272 39.0586,79.1812 39.5936,79.0052 C39.8266,78.9282 40.0606,78.8032 40.2966,78.7972 C40.8986,78.7812 41.4736,78.8102 41.9106,78.2402 C42.0416,78.0692 42.4406,78.0062 42.6936,78.0442 C43.4586,78.1572 44.0126,77.8042 44.3566,77.2262 C44.5326,76.9302 44.4736,76.4402 44.3976,76.0632 C44.2926,75.5432 43.9936,75.0572 43.9216,74.5362 C43.8356,73.9182 43.9046,73.2782 43.9006,72.6482 C43.8916,71.2602 44.6196,70.6092 45.9816,70.4252 C46.7926,70.3162 47.6186,69.9382 48.3236,69.4982 C49.5936,68.7032 50.8336,68.0462 52.4206,68.1722 C53.8296,68.2842 55.2566,68.2292 56.6716,68.1672 C56.9766,68.1532 57.2666,67.7942 57.5636,67.5932 C57.2786,67.3842 56.9936,66.9952 56.7066,66.9922 C52.5476,66.9542 48.3876,66.9662 44.2286,66.9752 C44.0166,66.9762 43.7146,66.9822 43.6076,67.1122 C43.0826,67.7442 42.5946,67.6162 42.2346,67.1592 L42.2346,67.1592 Z" id="Fill-3" fill="#231916"></path>
                <path d="M45.9491,32.5687 C45.9491,32.4737 45.9481,32.3797 45.9481,32.2847 L44.3511,32.2847 C44.3511,32.3797 44.3501,32.4737 44.3501,32.5687 L45.9491,32.5687 Z M53.3121,26.9067 C53.4011,27.0707 53.4901,27.2357 53.5781,27.3997 C53.9011,27.2217 54.2441,27.0687 54.5321,26.8437 C54.5871,26.8017 54.4281,26.4827 54.3661,26.2907 C54.0151,26.4957 53.6641,26.7017 53.3121,26.9067 L53.3121,26.9067 Z M29.2651,35.5697 C28.2891,35.0157 27.3561,35.0917 26.9551,35.5697 L29.2651,35.5697 Z M50.3501,24.6997 C50.3621,24.8417 50.3731,24.9857 50.3851,25.1287 C50.9371,25.0947 51.4901,25.0627 52.0431,25.0287 C52.0301,24.8747 52.0171,24.7187 52.0051,24.5647 C51.4541,24.6097 50.9021,24.6537 50.3501,24.6997 L50.3501,24.6997 Z M54.4471,22.7877 C54.3891,22.6157 54.3321,22.4437 54.2741,22.2717 C53.9161,22.4087 53.5381,22.5127 53.2161,22.7087 C53.1471,22.7507 53.2821,23.1277 53.3231,23.3507 C53.6981,23.1627 54.0731,22.9757 54.4471,22.7877 L54.4471,22.7877 Z M54.4751,20.4447 C54.3831,20.2717 54.2901,20.0977 54.1971,19.9227 C53.8521,20.1187 53.4901,20.2917 53.1791,20.5317 C53.1231,20.5757 53.2771,20.8937 53.3341,21.0857 C53.7151,20.8717 54.0951,20.6587 54.4751,20.4447 L54.4751,20.4447 Z M23.2471,28.4867 C23.2461,28.5677 23.2461,28.6487 23.2461,28.7297 L26.2331,28.7297 L26.2331,28.4867 L23.2471,28.4867 Z M53.7911,28.0627 C53.5011,28.5397 53.1881,28.8307 53.2411,29.0207 C53.3081,29.2607 53.6781,29.5767 53.9051,29.5687 C54.1251,29.5597 54.4771,29.1917 54.4971,28.9587 C54.5141,28.7487 54.1611,28.5067 53.7911,28.0627 L53.7911,28.0627 Z M23.1641,32.2597 C24.1841,32.8007 25.8911,32.6767 26.2991,32.2597 L23.1641,32.2597 Z M42.2521,23.3707 C42.2381,23.2437 42.2231,23.1167 42.2101,22.9897 C41.1841,23.0497 40.1551,23.0817 39.1371,23.2027 C39.0131,23.2177 38.9481,23.7117 38.8551,23.9837 C39.0691,23.9827 39.2901,24.0127 39.4971,23.9737 C40.1241,23.8527 40.7461,23.7047 41.3701,23.5677 C41.6641,23.5027 41.9581,23.4367 42.2521,23.3707 L42.2521,23.3707 Z M28.6861,26.0967 C27.7501,26.1407 26.8191,25.9147 26.2541,26.2697 C25.2771,26.8827 24.2861,26.7447 23.2851,26.8527 C22.9861,26.8847 22.6901,26.9417 22.3921,26.9877 C22.3981,27.0897 22.4041,27.1927 22.4101,27.2947 C22.6601,27.3137 22.9091,27.3467 23.1581,27.3477 C24.4101,27.3517 25.6651,27.2907 26.9121,27.3657 C27.7691,27.4177 28.2541,27.0697 28.6861,26.0967 L28.6861,26.0967 Z M20.1131,34.4597 C20.1181,34.5987 20.1221,34.7377 20.1271,34.8767 C20.8491,34.9107 21.5761,34.9987 22.2951,34.9627 C22.9411,34.9307 23.5851,34.7837 24.2201,34.6447 C24.6901,34.5417 25.1381,34.2837 25.6101,34.2447 C26.7061,34.1517 27.8121,34.1767 28.9091,34.0877 C29.1441,34.0677 29.4241,33.7977 29.5491,33.5697 C29.6071,33.4647 29.3591,33.0237 29.2211,33.0087 C28.7031,32.9537 27.9921,32.8027 27.6811,33.0697 C26.9321,33.7147 26.1181,33.6157 25.2821,33.6637 C24.7891,33.6927 24.2931,33.7587 23.8101,33.8647 C23.2511,33.9877 22.7141,34.2297 22.1511,34.3177 C21.4801,34.4217 20.7941,34.4167 20.1131,34.4597 L20.1131,34.4597 Z M42.7481,22.4717 C42.7641,22.5947 42.7801,22.7177 42.7971,22.8397 C43.4641,22.8397 44.1311,22.8587 44.7981,22.8357 C45.6761,22.8057 46.6991,23.0107 47.3941,22.6307 C48.2911,22.1397 49.1671,22.1377 50.0791,21.9757 C50.5631,21.8897 50.9851,21.4427 51.4341,21.1577 C51.3791,21.0197 51.3221,20.8807 51.2651,20.7427 C50.4181,20.8317 49.4381,20.6907 48.7621,21.0787 C48.1381,21.4357 47.5901,21.5667 46.9341,21.5897 C46.5621,21.6037 46.1841,21.6307 45.8221,21.7117 C45.1431,21.8627 44.4761,22.0617 43.8031,22.2327 C43.4531,22.3207 43.0991,22.3927 42.7481,22.4717 L42.7481,22.4717 Z M28.7601,29.9987 C28.3931,29.9037 28.1801,29.8007 27.9701,29.8027 C26.2391,29.8197 24.5091,29.8517 22.7791,29.8937 C22.6041,29.8987 22.3401,29.9507 22.2731,30.0687 C21.9061,30.7217 21.3071,30.6677 20.7061,30.6657 C19.9501,30.6617 19.5581,31.0817 19.2571,31.9657 C20.2791,31.8517 21.1081,31.8077 21.9161,31.6507 C22.4361,31.5497 22.9101,31.1997 23.4301,31.1077 C25.0621,30.8197 26.7071,30.6047 28.3451,30.3487 C28.4411,30.3337 28.5201,30.2057 28.7601,29.9987 L28.7601,29.9987 Z M52.2611,26.7917 C51.4861,26.7917 50.9311,26.7097 50.4111,26.8097 C49.4551,26.9927 48.5311,27.3757 47.5711,27.5027 C46.4871,27.6467 45.3771,27.5807 44.2811,27.6487 C43.9611,27.6687 43.6451,27.8227 43.3351,27.9357 C42.9471,28.0767 42.5301,28.4257 42.1911,28.3587 C40.9871,28.1157 40.1271,28.9267 39.1121,29.2387 C38.9501,29.2897 38.9141,29.7457 38.8191,30.0147 C39.0081,30.0477 39.2911,30.1767 39.3711,30.0987 C40.1641,29.3247 41.1521,29.6667 42.0621,29.5717 C42.4241,29.5337 42.7861,29.4517 43.1341,29.3457 C43.6391,29.1927 44.1261,28.9777 44.6321,28.8267 C45.2371,28.6467 45.8541,28.5027 46.4681,28.3497 C46.7371,28.2827 47.0101,28.2297 47.2821,28.1787 C48.8171,27.8947 50.3531,27.6147 51.8871,27.3227 C51.9501,27.3107 51.9901,27.1847 52.2611,26.7917 L52.2611,26.7917 Z M52.0951,29.5507 C52.0841,29.4367 52.0731,29.3227 52.0611,29.2087 C51.7921,29.1537 51.5121,29.0237 51.2561,29.0587 C50.2261,29.1997 49.2211,29.1717 48.1731,29.6297 C47.1211,30.0877 45.7621,29.8367 44.5391,29.9077 C44.1991,29.9277 43.6971,29.8617 43.5511,30.0517 C42.9561,30.8257 42.1401,30.5387 41.4021,30.6887 C40.5681,30.8577 39.7761,31.2377 38.9671,31.5257 C39.1811,31.8287 39.3431,31.9447 39.5021,31.9427254 C40.5401,31.9297 41.5791,31.9007 42.6171,31.8527 C42.7881,31.8447 42.9511,31.7067 43.1241,31.6457 C43.6601,31.4567 44.1891,31.2377 44.7391,31.1047 C45.0991,31.0177 45.6111,31.2067 45.8451,31.0157 C46.9581,30.1087 48.2741,30.6107 49.4701,30.3627 C50.3621,30.1777 51.2211,29.8277 52.0951,29.5507 L52.0951,29.5507 Z M48.2611,24.1987 C47.2331,23.6547 45.4491,23.8407 44.6391,24.2897 C44.4061,24.4197 44.0951,24.5197 43.8401,24.4827 C42.1551,24.2377 40.7281,25.2107 39.1501,25.4477 C39.1271,25.4507 39.1191,25.5567 39.0631,25.7747 C40.0501,25.7227 41.0111,26.1787 41.8851,25.3457 C42.0811,25.1587 42.4501,25.1027 42.7471,25.0827 C43.3731,25.0407 44.0101,25.0137 44.6321,25.0797 C44.9421,25.1127 45.2291,25.3647 45.5271,25.5177 C45.2201,25.7097 44.9271,25.9377 44.5971,26.0777 C44.4111,26.1577 44.1621,26.0827 43.9431,26.0987 C43.2901,26.1447 42.4461,25.9667 42.0291,26.3077 C41.3441,26.8657 40.6631,26.8197 39.9251,26.8597 C39.6181,26.8767 39.2601,26.8787 39.0281,27.0387 C38.8701,27.1477 38.8911,27.5177 38.8331,27.7717 C38.9991,27.8057 39.2491,27.9297 39.3191,27.8627 C40.1711,27.0607 41.2361,27.4477 42.2021,27.3017 C42.5551,27.2477 42.8971,27.1077 43.2391,26.9907 C43.6071,26.8647 43.9591,26.6567 44.3361,26.5917 C46.0951,26.2927 47.8591,26.0317 49.6201,25.7427 C49.6961,25.7307 49.7481,25.5717 49.9091,25.3407 C49.0021,25.3407 48.2341,25.3907 47.4771,25.3207 C47.0751,25.2827 46.6921,25.0387 46.3011,24.8867 C46.6721,24.6957 47.0301,24.4717 47.4191,24.3237 C47.6781,24.2257 47.9781,24.2367 48.2611,24.1987 L48.2611,24.1987 Z M55.2131,13.6377 C54.1031,13.7737 53.1071,13.8337 52.1381,14.0287 C51.0391,14.2517 49.9641,14.5947 48.8791,14.8897 C48.8231,14.9047 48.7841,14.9787 48.7281,14.9997 C48.2791,15.1667 47.8341,15.3427 47.3761,15.4827 C47.1711,15.5457 46.8421,15.4447 46.7391,15.5647 C45.8421,16.6127 44.6401,16.1317 43.5591,16.2547 C43.2611,16.2877 42.9661,16.3897 42.6821,16.4957 C41.5911,16.9077 40.5311,17.4437 39.4071,17.7197 C38.5621,17.9277 37.5751,17.5537 36.8971,18.4207 C36.8251,18.5127 36.6001,18.5007 36.4461,18.5077 C35.5281,18.5497 34.7101,18.6657 33.7991,19.1007 C32.7981,19.5797 31.5201,19.5867 30.3641,19.9587 C29.0841,20.3707 27.8181,21.1257 26.3601,20.8697 C26.2671,20.8537 26.1551,21.0037 26.0401,21.0477 C25.5931,21.2207 25.1461,21.3967 24.6891,21.5417 C24.4541,21.6167 24.0951,21.5427 23.9701,21.6887 C23.3111,22.4647 22.4171,22.1667 21.6141,22.3297 C20.8311,22.4897 20.0951,22.9047 19.3541,23.2387 C19.2561,23.2827 19.1991,23.5137 19.1981,23.6597 C19.1891,24.4147 19.1901,25.1717 19.2181,25.9257 C19.2411,26.6047 19.8251,26.8367 20.1711,26.4817 C21.0701,25.5557 22.1591,25.9147 23.1801,25.7877 C23.5131,25.7467 23.8471,25.6777 24.1701,25.5817 C24.6861,25.4287 25.1841,25.1967 25.7081,25.0797 C26.8331,24.8277 28.1081,25.4627 29.1351,24.4947 C29.2061,24.4267 29.5791,24.7387 29.8291,24.7877 C30.1891,24.8597 30.7511,25.0177 30.9011,24.8487 C31.4361,24.2507 32.0791,24.3317 32.7321,24.3297 C33.5831,24.3257 34.4411,24.2587 35.2831,24.3457 C36.3891,24.4607 37.1711,24.0857 37.8891,23.2377 C38.3361,22.7097 39.0081,22.2847 39.6631,22.0407 C40.7101,21.6517 41.8281,21.4537 42.9131,21.1657 C42.9971,21.1437 43.0541,21.0327 43.1381,21.0017 C43.5591,20.8427 43.9771,20.5987 44.4111,20.5667 C45.4451,20.4897 46.4881,20.5197 47.5271,20.4927 C47.7751,20.4867 48.0411,20.4777 48.2641,20.3847 C49.2841,19.9617 50.2581,19.2957 51.3141,19.1227 C52.4421,18.9387 53.5401,18.8907 54.5971,18.3227 C55.0691,18.0697 55.2801,17.9027 55.2771,17.3987 C55.2711,16.2647 55.3001,15.1317 55.2961,13.9987 C55.2951,13.8007 55.2041,13.6047 55.2131,13.6377 L55.2131,13.6377 Z M18.2021,30.5467 L18.1681,30.5467 C18.1681,29.2867 18.1961,28.0267 18.1591,26.7687 C18.1221,25.5207 18.2671,24.2837 17.5241,23.0827 C17.1881,22.5407 17.0001,22.2767 16.4001,22.2917 C15.5821,22.3127 14.7621,22.3187 13.9441,22.2827 C13.6491,22.2707 13.3571,22.1257 13.0681,22.0297 C12.6431,21.8887 12.2311,21.6687 11.7961,21.6047 C11.0241,21.4907 10.0711,21.7227 9.5031,21.3447 C8.7631,20.8537 8.0561,20.8507 7.2931,20.7897 C6.5951,20.7347 5.8251,20.9847 5.2901,20.2677 C5.2351,20.1937 4.9871,20.1977 4.8681,20.2517 C4.0681,20.6157 3.8941,21.4847 4.4981,22.1617 C4.9201,22.6357 5.0001,23.1247 4.5531,23.5817 C4.2271,23.9167 4.1611,24.1217 4.4991,24.5167 C5.0521,25.1627 4.9331,26.8717 4.3941,27.5797 C3.9031,28.2267 3.9701,28.8957 4.3311,29.5947 C4.5491,30.0167 4.8001,30.4857 4.8081,30.9387 C4.8601,33.4567 4.8331,35.9757 4.8601,38.4937 C4.8631,38.7737 4.9771,39.2277 5.1511,39.2907 C5.4131,39.3837 5.7801,39.2277 6.0901,39.1337 C6.4901,39.0117 6.8661,38.7707 7.2711,38.7127 C8.8411,38.4887 10.5430982,39.1607 11.9761,37.9857 C12.0941,37.8887 12.3441,37.9477 12.5321,37.9437 C13.3501,37.9247 14.1701,37.9267 14.9861,37.8827 C15.2861,37.8667 15.5841,37.7597 15.8741,37.6657 C16.3291,37.5177 16.7751,37.2187 17.2271,37.2137 C18.0381,37.2037 18.2371,36.8787 18.2181,36.1177 C18.1691,34.2617 18.2021,32.4037 18.2021,30.5467 L18.2021,30.5467 Z M7.9081,19.2757 C7.9601,19.4017 8.0121,19.5297 8.0651,19.6567 C8.2411,19.6887 8.4161,19.7357 8.5931,19.7507 C9.2171,19.8037 10.0371,19.6147 10.4261,19.9427 C11.1901,20.5857 11.9931,20.4857 12.8171,20.5057 C14.2031,20.5397 15.5921,20.4897 16.9731,20.5707 C17.4861,20.6007 17.9761,20.9297 18.4911,21.0657 C18.8251,21.1537 19.3821,21.2947 19.5031,21.1437 C20.1101,20.3847 20.9081,20.5787 21.6751,20.5447 C22.4561,20.5087 23.2781,20.5927 24.0081,20.3747 C25.0681,20.0557 26.0271,19.3567 27.0951,19.1127 C28.1321,18.8767 29.1581,18.8777 30.2081,18.3887 C31.1071,17.9697 32.2891,18.1947 33.2731,17.5617 C34.2511,16.9317 35.3681,16.5367 36.6001,16.7327 C36.7441,16.7557 36.9131,16.5507 37.0831,16.4857 C37.5291,16.3167 37.9721,16.1187 38.4351,16.0227 C38.9201,15.9227 39.4651,16.0317 39.9161,15.8657 C40.9811,15.4747 41.9701,14.8207 43.0571,14.5597 C44.3141,14.2577 45.6341,14.6407 46.9151,13.8337 C47.6661,13.3607 48.8011,13.5707 49.8031,13.1107 C51.1731,12.4817 52.8341,12.5057 54.3581,12.1927 C54.6881,12.1247 55.2201,11.8267 55.2301,11.6147 C55.2901,10.2967 55.2741,8.9697 55.1851,7.6517 C55.1381,6.9597 54.3491,6.4957 53.9011,6.7147 C53.4761,6.9217 52.9541,7.2247 52.5531,7.1347 C50.9641,6.7777 49.7571,8.1347 48.2401,7.9977 C48.1471,7.9887 48.0511,8.1617 47.9381,8.2047 C47.4921,8.3737 47.0501,8.5767 46.5871,8.6687 C46.1301,8.7587 45.4491,8.5407 45.2161,8.7877 C44.4071,9.6447 43.4271,9.3437 42.4911,9.4597 C41.9421,9.5277 41.4231,9.8117 40.8841,9.9737 C40.5621,10.0707 40.2261,10.1227 39.8971,10.1947 C38.6271,10.4737 37.3571,10.7507 36.0891,11.0327 C36.0321,11.0457 35.9671,11.0897 35.9361,11.1387 C35.5011,11.8357 34.8031,11.6767 34.1511,11.7167 C33.7261,11.7437 33.2971,11.8167 32.8861,11.9317 C32.3721,12.0757 31.8261,12.5167 31.3801,12.4227 C29.7871,12.0867 28.5821,13.4337 27.0651,13.2847 C27.0131,13.2797 26.9351,13.3267 26.9041,13.3737 C26.4951,13.9947 25.8701,13.9897 25.2251,13.9927 C24.9961,13.9937 24.7661,14.1387 24.5361,14.2177 C24.0281,14.3897 23.5231,14.5687 23.0121,14.7317 C22.4141,14.9237 21.8211,15.1597 21.2071,15.2757 C20.1301,15.4787 19.3541,16.5217 18.0951,16.2867 C17.6881,16.2107 17.2071,16.6037 16.7441,16.7287 C15.6681,17.0177 14.8401,17.9997 13.5661,17.7807 C13.0271,17.6887 12.2541,17.6227 11.9231,17.9197 C11.1501,18.6117 10.2971,18.4097 9.4531,18.5467 C8.9121,18.6337 8.4211,19.0217 7.9081,19.2757 L7.9081,19.2757 Z M3.5001,31.8137 C3.3071,31.0387 3.0711,30.5197 3.0661,29.9997 C3.0361,26.4407 3.0621,22.8807 3.05008083,19.3227 C3.0471,18.5447 3.3961,18.2547 4.1461,18.2727 C4.9751,18.2927 5.8421,18.4477 6.4911,17.6517 C6.6201,17.4937 7.0251,17.5587 7.3031,17.5237 C7.5811,17.4877 7.9701,17.5617 8.1181,17.4047 C8.8821,16.5947 9.8561,16.8517 10.7741,16.7437 C11.3301,16.6777 11.8591,16.3987 12.4031,16.2257 C12.6661,16.1417 12.9411,16.0977 13.2011,16.0077 C13.6781,15.8447 14.1391,15.6347 14.6231,15.4957 C15.0331,15.3777 15.4671,15.2537 15.8851,15.2707 C16.7201,15.3027 17.4571,15.1607 17.9711,14.4477 C18.5761,13.6107 19.4821,13.8097 20.3061,13.7527 C21.0201,13.7037 21.7551,13.8217 22.3071,13.1637 C22.4341,13.0137 22.7771,13.0547 23.0121,12.9837 C23.5011,12.8357 23.9821,12.6637 24.4701,12.5157 C24.7651,12.4267 25.0721,12.3807 25.3641,12.2867 C25.7971,12.1487 26.2241,11.9927 26.6481,11.8297 C26.7621,11.7867 26.8481,11.6517 26.9621,11.6287 C28.4661,11.3167 29.9731,11.0277 31.4761,10.7107 C31.8871,10.6237 32.2831,10.4637 32.6841,10.3347 C33.0041,10.2327 33.3241,10.1317 33.6401,10.0217 C34.0981,9.8637 34.5541,9.7027 35.0091,9.5327 C35.0941,9.5017 35.1681,9.3737 35.2381,9.3807 C36.6451,9.5147 37.8511,8.7387 39.1761,8.5307 C39.8801,8.4207 40.6151,8.5697 41.1891,7.9477 C41.3441,7.7807 41.7141,7.7767 41.9871,7.7647 C42.7961,7.7297 43.5261,7.6937 44.2961,7.1967 C44.8761,6.8217 45.8211,7.0407 46.5921,6.9197 C47.0261,6.8517 47.4391,6.6377 47.8541,6.4727 C47.9971,6.4167 48.1211,6.2277 48.2471,6.2337 C49.4551,6.2897 50.5751,6.0367 51.6491,5.4637 C52.1741,5.1837 52.7761,5.0497 53.3431,4.8477 C53.4011,4.8267 53.4531,4.7857 53.5111,4.7637 C54.3621,4.4407 56.2211,5.6457 56.2541,6.5467 C56.2761,7.1757 56.2951,7.8067 56.2871,8.4367 C56.2781,9.0947 56.1791,9.7417 56.8111,10.2487 C56.9951,10.3967 56.9971,10.8317 56.9981,11.1347 C57.0191,17.7207 57.0271,24.3067 57.0471085,30.8927 C57.0491,31.6107 56.6981,31.8407 56.0691,32.2237 C54.4381,33.2167 52.7431,32.8087 51.0621,32.8927 C50.8181,32.9047 50.4671,32.8987 50.3531,33.0457 C49.7941,33.7787 49.0211,33.6287 48.2791,33.6407 C47.4741,33.6527 46.6561,33.5077 45.9861,34.2087 C45.7981,34.4057 45.3331,34.3777 44.9931,34.3857 C43.7331,34.4167 42.4721,34.4157 41.2131,34.4357 C40.9971,34.4397 40.6781,34.4017 40.5821,34.5237 C39.9141,35.3607 38.9981,35.1207 38.1401,35.1567 C37.9541,35.1647 37.6991,35.1397 37.5951,35.2467 C36.7521,36.1157 35.6591,35.7897 34.6571,35.9227 C34.2181,35.9817 33.8001,36.1957 33.3701,36.3337 C33.0791,36.4267 32.7871,36.5727 32.4911,36.5877 C31.1701,36.6497 29.8451,36.6687 28.5231,36.7157 C28.2451,36.7257 27.8461,36.6797 27.7111,36.8387 C27.0691,37.5887 26.2191,37.3307 25.4321,37.4467 C24.7171,37.5527 24.0331,37.8607 23.3191,37.9907 C22.6431,38.1137 21.9391,38.0767 21.2621,38.1927 C20.7291,38.2837 20.2191,38.5047 19.6961,38.6597 C19.4301,38.7387 19.1621,38.8477 18.8901,38.8617 C17.9471,38.9127 17.0011,38.9107 16.0571,38.9607 C15.1391,39.0097 14.2751,39.0067 13.3581,39.4977 C12.5801,39.9147 11.4501,39.6507 10.4821,39.7507 C10.0381,39.7967 9.6081,39.9887 9.1751,40.1247 C8.9401,40.1977 8.7151,40.3547 8.4801,40.3647 C7.2851,40.4137 6.0881,40.4137 4.8911,40.4587 C4.0651,40.4897 3.7671,40.0727 3.7731,39.3047 C3.7841,37.5397 3.7841,35.7757 3.7721,34.0107 C3.7701,33.7057 3.8011,33.2807 3.6251,33.1177 C3.0461,32.5797 3.0111,32.1227 3.5001,31.8137 L3.5001,31.8137 Z" id="Fill-5" fill="#231916"></path>
                <path d="M17.2079,49.4843 C16.6559,50.0513 16.2079,50.5333 15.7259,50.9773 C15.6729,51.0253 15.3219,50.8893 15.2819,50.7763 C15.2219,50.6083 15.2709,50.3653 15.3519,50.1903 C15.4979,49.8733 15.6809,49.5663 15.8899,49.2853 C16.0649,49.0473 16.2989,48.8523 16.5069,48.6383 C16.7029,48.8763 16.8999,49.1133 17.2079,49.4843" id="Fill-7" fill="#231916"></path>
                <path d="M16.6229,51.8519 C16.6209,51.8639 16.5839,51.5859 16.6849,51.3759 C16.7769,51.1879 17.0079,50.9949 17.2059,50.9569 C17.3239,50.9359 17.5909,51.1909 17.6269,51.3569 C17.7049,51.7179 17.7559,52.1209 17.6679,52.4679 C17.6009,52.7379 17.3039,52.9499 17.1089,53.1869 C16.9469,52.9549 16.7679,52.7309 16.6309,52.4839 C16.5779,52.3889 16.6229,52.2389 16.6229,51.8519" id="Fill-9" fill="#231916"></path>
                <path d="M15.6923,47.9188 C15.3703,48.2388 15.1553,48.4508 14.9413,48.6628 C14.7433,48.4048 14.3823,48.1418 14.3893,47.8898 C14.3973,47.6308 14.7643,47.3828 14.9733,47.1298 C15.1773,47.3548 15.3823,47.5788 15.6923,47.9188" id="Fill-11" fill="#231916"></path>
                <path d="M67.078,95.3334 C67.157,95.3684 67.241,95.4374 67.324,95.4374 C69.371,95.4184 71.419,95.3954 73.466,95.3624 C73.646,95.3594 73.902,95.3374 73.992,95.2224 C74.531,94.5314 75.277,94.6674 75.991,94.6664 C77.535,94.6624 79.08,94.6294 80.622,94.6784 C81.459,94.7054 81.709,94.3874 81.7050471,93.5744 C81.679,87.9994 81.694,82.4224 81.681,76.8464 C81.681,76.5824 81.546,76.3154 81.459,76.0554 C81.299,75.5754 80.987,75.1004 80.981,74.6214 C80.933,70.5884 80.942,66.5554 80.929,62.5224 C80.928,62.3074 80.95,61.9944 80.826,61.8924 C79.969,61.1894 80.273,60.2354 80.199,59.3534 C80.099,58.1574 80.661,56.8274 79.511,55.8264 C79.422,55.7494 79.415,55.5164 79.447,55.3724 C79.589,54.7354 79.76,54.1044 79.875,53.6494 C79.715,52.9294 79.473,52.3294 79.468,51.7274 C79.437,48.5134 79.468,45.2994 79.469,42.0854 C79.469,41.8734 79.465,41.5514 79.339,41.4684 C78.536,40.9374 78.848,40.4034 79.138,40.0864 C78.954,39.3724 78.709,38.8584 78.707,38.3444 C78.675,29.0184 78.674,19.6914 78.652,10.3654 C78.651,10.0714 78.513,9.7744 78.42,9.4844 C78.266,9.0024 78.011,8.5344 77.955,8.0424 C77.875,7.3284 77.934,6.5974 77.934,5.6464 C77.199,6.2814 76.764,6.3294 76.114,5.8584 C75.756,5.5984 74.859,5.7614 74.393,6.0434 C73.754,6.4304 73.309,6.5634 72.723,6.0374 C72.591,5.9184 72.195,5.9504 72.011,6.0614 C71.14,6.5874 69.701,6.5114 68.841,5.9974 C68.529,5.8104 67.915,5.8114 67.605,6.0004 C66.705,6.5514 65.998,6.5274 65.032,5.9774 C64.597,5.7294 63.948,5.7354 63.429,5.8234 C63.258,5.8524 63.097,6.4984 63.092,6.8644 C63.049,10.1404 63.038,13.4164 63.032,16.6934 C63.032,16.9294 63.076,17.2774 63.23,17.3824 C63.906,17.8444 63.819,18.5044 63.808,19.1644 C63.795,20.0784 63.571,21.0634 63.841,21.8874 C64.173,22.9014 64.016,23.7274 63.86,24.7294 C63.591,26.4514 63.776,28.2474 63.815,30.0104 C63.824,30.3914 64.014,30.7704 64.138,31.1444 C64.27,31.5414 64.539,31.9284 64.55,32.3244 C64.591,33.8674 64.549,35.4124 64.551,36.9554 C64.551,37.1994 64.532,37.5684 64.672,37.6664 C65.441,38.2044 65.205,38.7304 64.898,39.0394 C65.07,39.8294 65.285,40.4014 65.304,40.9804 C65.349,42.4284 65.299,43.8784 65.305,45.3284 C65.306,45.5694 65.311,45.9354 65.456,46.0304 C66.253,46.5534 65.908,47.0494 65.578,47.3944 C65.777,48.0174 66.059,48.4954 66.062,48.9754 C66.106,55.3074 66.11,61.6404 66.122,67.9744 C66.124,68.7154 65.963,69.4794 66.683,70.0554 C66.847,70.1854 66.833,70.5844 66.834,70.8604 C66.85,76.9404 66.853,83.0214 66.883,89.1014 C66.885,89.4424 67.016,89.8454 67.225,90.1074 C67.554,90.5164 67.576,90.8084 67.179,91.1484 C66.683,91.5714 66.781,91.9694 67.168,92.4464 C67.401,92.7344 67.601,93.1744 67.57,93.5234 C67.517,94.1084 67.268,94.6764 67.078,95.3334 M64.011,53.7704 C63.825,52.9424 63.592,52.3674 63.585,51.7914 C63.555,48.8294 63.584,45.8674 63.584,42.9064 C63.584,42.6614 63.6,42.2914 63.46,42.1924 C62.591,41.5784 62.818,40.6924 62.816,39.8684 C62.808,37.1894 62.838,34.5114 62.796,31.8334 C62.789,31.3794 62.491,30.9334 62.345,30.4784 C62.233,30.1314 62.064,29.7764 62.063,29.4254 C62.049,26.3694 62.069,23.3124 62.067,20.2564 C62.066,19.9844 62.072,19.5734 61.913,19.4634 C61.128,18.9234 61.304,18.1464 61.302,17.4074 C61.297,14.3514 61.277,11.2944 61.317,8.2394 C61.323,7.7894 61.631,7.3464 61.775,6.8924 C61.877,6.5744 62.02,6.2394 62.004,5.9184 C61.957,4.9784 62.378,4.6094 63.294,4.61630242 C66.474,4.6394 69.655,4.6354 72.837,4.6404 C74.349,4.6424 75.86,4.6494 77.371,4.6344 C78.92,4.6194 79.69,5.3684 79.691,6.8904 C79.695,11.1434 79.708,15.3964 79.724,19.6494 C79.724,19.8654 79.702,20.1784 79.826,20.2804 C80.687,20.9834 80.436,21.9354 80.438,22.8204 C80.444,26.0344 80.426,29.2484 80.432,32.4624 C80.432,32.7314 80.447,33.1184 80.614,33.2504 C81.553,33.9924 81.324,34.6704 80.812,35.1174 C80.965,36.1374 81.149,36.9214 81.184,37.7114 C81.241,39.0014 81.21,40.2954 81.194,41.5864 C81.185,42.3054 81.142,42.9584 81.723,43.5924 C81.966,43.8584 81.67,44.6174 81.476,45.1434 C81.781,45.7134 82.02,46.2474 81.284,46.8094 C81.172,46.8954 81.387,47.4484 81.495,47.7704 C81.627,48.1634 81.94,48.5394 81.943,48.9244 C81.983,54.2494 81.982,59.5734 81.999,64.8974 C82,65.1744 81.969,65.5754 82.127,65.7054 C82.901,66.3374 82.708,67.1754 82.71,67.9744 C82.726,73.7714 82.657,79.5704 82.824,85.3634 C82.853,86.3764 83.229,87.3474 82.756,88.3614 C82.658,88.5704 82.725,89.0034 82.886,89.1624 C83.966,90.2334 83.73,91.7314 83.336,92.7014 C82.903,93.7634 82.878,94.7824 82.643,95.8154 C82.584,96.0764 82,96.3714 81.645,96.3864 C80.104,96.4494 78.558,96.3864 77.016,96.4344 C76.62,96.4464 76.239,96.7264 75.838,96.8294 C75.577,96.8954 75.22,96.9774 75.028,96.8564 C74.111,96.2814 72.099,96.3404 71.153,96.9014 C70.833,97.0914 70.218,97.0874 69.898,96.8994 C69.483,96.6534 69.301,96.6574 68.85,96.8624 C68.307,97.1094 67.499,97.2394 67.003,97.0024 C66.393,96.7124 65.774,96.1854 65.78,95.2604 C65.809,90.7564 65.804,86.2514 65.775,81.7484 C65.773,81.3224 65.478,80.9064 65.408,80.4714 C65.358,80.1654 65.343,79.7364 65.515,79.5334 C65.931,79.0414 65.887,78.6914 65.501,78.2134 C65.268,77.9254 65.094,77.4994 65.09,77.1334 C65.052,73.0694 65.064,69.0054 65.024,64.9414 C65.021,64.5474 64.753,64.1594 64.623,63.7634 C64.509,63.4184 64.333,63.0664 64.33,62.7154 C64.312,60.4164 64.339,58.1154 64.334,55.8154 C64.334,55.5464 64.328,55.1574 64.164,55.0284 C63.512,54.5154 63.514,54.0674 64.011,53.7704" id="Fill-13" fill="#231916"></path>
            </g>
        </g>
    </g>
</svg>