<?xml version="1.0" encoding="UTF-8"?>
<svg width="199px" height="258px" viewBox="0 0 199 258" version="1.1" xmlns="http://www.w3.org/2000/svg" xmlns:xlink="http://www.w3.org/1999/xlink">
    <!-- Generator: Sketch 60 (88103) - https://sketch.com -->
    <title>figure21</title>
    <desc>Created with Sketch.</desc>
    <g id="页面-1" stroke="none" stroke-width="1" fill="none" fill-rule="evenodd">
        <g id="桌面端-HD备份-2" transform="translate(-893.000000, -384.000000)" fill="#231916">
            <g id="figure21" transform="translate(893.000000, 384.000000)">
                <path d="M93.0806,102.6138 C92.4636,102.1678 91.9926,101.6768 91.8576,101.7568 C91.3566,102.0508 90.9186,102.4988 90.5826,102.9768 C90.5266,103.0568 91.2326,103.8908 91.3516,103.8388 C91.8816,103.6078 92.3246,103.1808 93.0806,102.6138 L93.0806,102.6138 Z M88.4246,98.3428 C87.9556,99.2568 87.5056,99.7278 87.5826,100.0838 C87.6856,100.5548 88.2016,100.9368 88.5406,101.3568 C88.8316,100.9868 89.3596,100.6138 89.3556,100.2468 C89.3516,99.7698 88.9226,99.2998 88.4246,98.3428 L88.4246,98.3428 Z M64.0916,211.4618 C63.2346,210.8258 62.7926,210.3408 62.2526,210.1768 C62.0436,210.1138 61.2776,210.9438 61.3466,211.0858 C61.5706,211.5498 62.0056,212.0458 62.4726,212.2128 C62.7706,212.3188 63.2696,211.8668 64.0916,211.4618 L64.0916,211.4618 Z M38.9276,176.5588 C39.2776,178.4858 41.3016,179.2648 42.6846,178.3638 C41.5436,177.8148 40.3306,177.2328 38.9276,176.5588 L38.9276,176.5588 Z M23.2186,87.8728 C23.6436,87.1358 24.1086,86.6208 24.0076,86.4588 C23.6486,85.8848 23.1256,85.3958 22.5856,84.9758 C22.5136,84.9198 21.6906,85.6048 21.7256,85.6678 C22.0876,86.3278 22.5536,86.9308 23.2186,87.8728 L23.2186,87.8728 Z M16.9316,95.3328 C15.8326,94.1068 15.4666,93.6978 15.0996,93.2888 C14.7376,93.6928 14.0356,94.1598 14.0956,94.4888 C14.1876,94.9998 14.7216,95.6168 15.2156,95.8088 C15.6106,95.9628 16.2266,95.5518 16.9316,95.3328 L16.9316,95.3328 Z M52.7516,135.3918 C52.6076,135.5358 52.4656,135.6798 52.3216,135.8248 C52.7656,136.4728 53.1426,137.1848 53.6826,137.7398 C53.9106,137.9748 54.4776,137.8818 54.8916,137.9368 C54.8346,137.5148 54.9306,136.9308 54.6886,136.7038 C54.1296,136.1748 53.4076,135.8178 52.7516,135.3918 L52.7516,135.3918 Z M76.8526,206.6718 C76.4456,207.7388 76.0596,208.3068 76.0796,208.8608 C76.0916,209.1988 76.7266,209.5148 77.0806,209.8418 C77.3766,209.3228 77.8326,208.8258 77.9086,208.2758 C77.9576,207.9328 77.4336,207.5098 76.8526,206.6718 L76.8526,206.6718 Z M75.1196,89.1258 C75.3026,89.1298 75.4846,89.1338 75.6686,89.1378 C75.8916,88.6468 76.3296,88.1338 76.2786,87.6738 C76.2266,87.2008 75.6966,86.7798 75.3756,86.3368 C75.0586,86.7038 74.4796,87.0718 74.4825884,87.4358 C74.4866,88.0008 74.8876,88.5618 75.1196,89.1258 L75.1196,89.1258 Z M82.6226,123.7778 C82.7886,123.4688 82.9536,123.1608 83.1186,122.8528 C82.5296,122.5978 81.8746,122.0588 81.3726,122.1758 C80.9406,122.2768 80.4606,123.1118 80.4226,123.6518 C80.3926,124.0688 81.0136,124.5328 81.3456,124.9748 C81.7706,124.5768 82.1966,124.1768 82.6226,123.7778 L82.6226,123.7778 Z M86.0416,91.3248 C85.1016,90.6948 84.6026,90.1108 84.1016,90.1077909 C83.7226,90.1048 83.3386,90.8458 82.9576,91.2558 C83.3826,91.5918 83.7766,92.1348 84.2396,92.1998 C84.6536,92.2588 85.1426,91.7898 86.0416,91.3248 L86.0416,91.3248 Z M71.5826,43.9758 C72.0616,42.9608 72.5666,42.3928 72.4866,41.9238 C72.4046,41.4328 71.7606,41.0368 71.3606,40.5998 C71.0036,41.0928 70.3936,41.5708 70.3626,42.0838 C70.3356,42.5448 70.9446,43.0428 71.5826,43.9758 L71.5826,43.9758 Z M82.0566,202.6968 C81.4736,203.7198 80.9486,204.2668 80.9136,204.8428 C80.8926,205.1868 81.8386,205.9628 82.0076,205.8758 C82.5646,205.5898 83.1716,205.0638 83.3476,204.5018 C83.4466,204.1818 82.7416,203.6118 82.0566,202.6968 L82.0566,202.6968 Z M30.1006,208.0148 C29.9406,207.6468 29.7826,207.2778 29.6246,206.9088 C28.8106,207.1838 27.9266,207.3498 27.2336,207.8068 C27.0526,207.9268 27.4646,208.9488 27.6036,209.5558 L30.1006,208.0148 Z M63.6846,189.8108 C64.2576,190.9028 64.8306,191.9948 65.5186,193.3048 C66.9176,191.1628 66.5916,190.4418 63.6846,189.8108 L63.6846,189.8108 Z M23.3466,92.5388 C23.8366,93.1858 24.1976,93.6618 24.5586,94.1368 C24.9596,93.5898 25.6486,93.0588 25.6826,92.4898 C25.7156,91.9258 25.0896,91.3228 24.7516,90.7368 C24.3306,91.2768 23.9096,91.8158 23.3466,92.5388 L23.3466,92.5388 Z M64.8196,73.4528 C64.8926,74.7498 64.9536,75.9388 65.0676,77.1228 C65.0686,77.1378 65.7366,77.0898 66.0936,77.0708 C65.9356,75.9098 65.7796,74.7478 65.6136,73.5878 C65.6106,73.5678 65.4936,73.5648 64.8196,73.4528 L64.8196,73.4528 Z M22.9506,148.7558 C22.2726,148.1948 21.6586,147.5958 21.5966,147.6488 C20.9856,148.1648 20.3956,148.7448 19.9886,149.4208 C19.9106,149.5508 20.6576,150.1758 21.0236,150.5738 C21.5876,150.0428 22.1506,149.5098 22.9506,148.7558 L22.9506,148.7558 Z M34.7526,24.2768 C34.4756,24.2898 34.1986,24.3028 33.9216,24.3158 C33.9216,25.4398 33.8846,26.5648 33.9526,27.6848 C33.9666,27.9118 34.3666,28.2588 34.6176,28.2858 C34.8576,28.3108 35.3086,28.0388 35.3666,27.8168 C35.7036,26.5408 35.9516,25.2398 34.7526,24.2768 L34.7526,24.2768 Z M78.9836,90.0378 C76.6776,89.9038 75.1476,91.6038 75.3926,92.9238 C76.4736,92.0538 77.7286,91.0468 78.9836,90.0378 L78.9836,90.0378 Z M76.9976,122.9658 C78.0366,121.5878 78.5186,120.4758 77.6866,119.2318 C77.5356,119.0058 76.5366,118.9788 76.3496,119.2068 C75.3276,120.4508 76.0696,121.5288 76.9976,122.9658 L76.9976,122.9658 Z M41.2486,188.4798 C38.5886,188.9138 38.0336,189.3618 37.6536,191.2698 C40.1016,190.8708 40.7876,190.3648 41.2486,188.4798 L41.2486,188.4798 Z M26.8096,82.2028 C26.4736,82.2088 26.1376,82.2138 25.8016,82.2178 C25.6446,83.1398 25.3766,84.0638 25.3916,84.9838 C25.3956,85.3348 26.0466,85.9418 26.4056,85.9448046 C26.7496,85.9468 27.4016,85.3018 27.3866,84.9658 C27.3426,84.0378 27.0206,83.1228 26.8096,82.2028 L26.8096,82.2028 Z M86.3446,174.1218 C85.2186,173.5548 84.5896,173.0748 83.9016,172.9678 C83.5936,172.9198 82.7966,173.8428 82.8566,173.9428 C83.2626,174.6198 83.7606,175.3248 84.4106,175.7168 C84.5966,175.8278 85.3896,174.9298 86.3446,174.1218 L86.3446,174.1218 Z M33.0666,182.8788 C32.0376,182.0828 31.4006,181.4878 30.6556,181.1028 C30.5066,181.0268 29.5856,182.0178 29.6246,182.0718 C30.1466,182.7798 30.7326,183.4668 31.4246,184.0028 C31.5446,184.0948 32.2236,183.4678 33.0666,182.8788 L33.0666,182.8788 Z M94.3946,193.5938 C93.8856,194.7588 93.3346,195.9098 92.9146,197.1058 C92.8626,197.2558 93.5856,197.9398 93.8126,197.8778 C94.6756,197.6428 95.4636,194.7408 94.3946,193.5938 L94.3946,193.5938 Z M60.1346,217.2888 C58.8476,216.5568 58.1346,216.0498 57.3426,215.7698 C57.1246,215.6938 56.6656,216.3018 56.3176,216.5958 C56.8686,217.2298 57.3376,217.9888 58.0156,218.4278 C58.2456,218.5778 58.9986,217.9238 60.1346,217.2888 L60.1346,217.2888 Z M25.9326,129.3948 C25.0026,128.9518 24.3076,128.3628 23.9906,128.5228 C23.3486,128.8468 22.9116,129.5778 22.3906,130.1408 C22.9016,130.5718 23.6176,131.4628 23.8846,131.3438 C24.5686,131.0388 25.0546,130.2868 25.9326,129.3948 L25.9326,129.3948 Z M82.2846,164.8108 C82.3616,165.0168 82.4386,165.2228 82.5176,165.4288 C83.4376,165.2918 84.6716,165.4548 85.1856,164.9238 C85.6146,164.4798 85.2026,163.2218 85.1626,162.3248 C84.9286,162.2718 84.6936,162.2188 84.4596,162.1678 C83.7346,163.0488 83.0106,163.9298 82.2846,164.8108 L82.2846,164.8108 Z M48.1476,103.2808 C47.0896,104.5178 46.2336,105.4968 45.4256,106.5118 C45.3666,106.5848 45.6506,106.9298 45.7746,107.1488 C46.9786,106.4268 48.1826,105.7058 49.3856,104.9838 C49.0246,104.4878 48.6646,103.9918 48.1476,103.2808 L48.1476,103.2808 Z M50.0146,220.7548 C50.8976,220.0108 51.4836,219.5168 52.0696,219.0238 C51.4976,218.5318 50.9116,217.6338 50.3576,217.6528 C49.6866,217.6768 49.0426,218.4758 48.3876,218.9398 C48.8506,219.4568 49.3126,219.9718 50.0146,220.7548 L50.0146,220.7548 Z M88.1496,179.8158 C89.0006,179.1718 89.5496,178.7558 90.0986,178.3398 C89.4936,177.7198 88.8906,177.1008 88.2856,176.4818 L86.5336,178.2108 C87.0076,178.6808 87.4796,179.1508 88.1496,179.8158 L88.1496,179.8158 Z M17.6856,16.5018 C16.9376,17.2228 16.4756,17.6698 16.0116,18.1158 C16.5926,18.7018 17.0906,19.5508 17.7866,19.7708 C18.1916,19.8988 18.9156,19.0168 19.4966,18.5908 C18.9846,17.9998 18.4726,17.4088 17.6856,16.5018 L17.6856,16.5018 Z M34.8986,179.1518 C34.3746,180.8998 34.0006,182.0308 33.7176,183.1838 C33.6566,183.4288 33.8616,183.8208 34.0656,184.0198 C34.2046,184.1548 34.7156,184.1768 34.7866,184.0688 C35.4046,183.1388 36.2286,182.2188 36.4256,181.1878 C36.5276,180.6508 35.4916,179.8968 34.8986,179.1518 L34.8986,179.1518 Z M101.8396,101.7808 C104.2236,100.0088 101.9846,98.7278 101.9906,97.3598 C101.9926,97.0538 101.3186,96.7468 100.9556,96.4398 C100.7626,96.8938 100.3196,97.4148 100.4206,97.7908 C100.7586,99.0618 101.2876,100.2818 101.8396,101.7808 L101.8396,101.7808 Z M77.5006,184.7768 C77.1876,184.8988 76.8746,185.0218 76.5606,185.1448 C78.2786,186.9208 77.4516,188.5038 76.5596,190.2718 C77.8246,189.5428 79.1816,188.6828 79.3836,187.6068 C79.5336,186.8088 78.1836,185.7298 77.5006,184.7768 L77.5006,184.7768 Z M75.4896,100.1218 C76.6886,99.2018 77.5676,98.6328 78.3076,97.9188 C78.6916,97.5478 78.9776,96.9308 79.0096,96.4078 C79.0206,96.2108 78.1426,95.7208 77.7516,95.7958 C77.1816,95.9028 76.4226,96.2818 76.2126,96.7548 C75.8256,97.6258 75.7786,98.6478 75.4896,100.1218 L75.4896,100.1218 Z M38.0716,99.3228 C38.1226,99.4248 38.1736,99.5268 38.2246,99.6298 C39.0356,99.2278 39.8486,98.8278 40.6606,98.4268 C39.7496,98.0718 38.8546,97.6568 37.9186,97.3898 C37.4996,97.2708 36.9546,97.3558 36.5426,97.5278 C36.2316,97.6578 35.7986,98.1358 35.8516,98.3498 C35.9456,98.7188 36.3196,99.1428 36.6796,99.2858 C37.0846,99.4468 37.6026,99.3228 38.0716,99.3228 L38.0716,99.3228 Z M88.4466,104.6778 C87.3096,103.7078 86.6566,103.1498 86.0036,102.5928 C85.5206,103.2248 84.7376,103.8248 84.6626,104.5028 C84.6146,104.9438 85.5406,105.8048 86.1326,105.9118 C86.6566,106.0068 87.3216,105.3178 88.4466,104.6778 L88.4466,104.6778 Z M77.5076,155.8298 C76.9536,154.4178 76.5046,153.0648 75.8756,151.8018 C75.7006,151.4538 75.0006,151.2648 74.5206,151.2208 C74.3326,151.2038 73.9526,151.7588 73.8946,152.0928 C73.6916,153.2868 75.9136,155.6898 77.5076,155.8298 L77.5076,155.8298 Z M49.2796,136.8188 C48.0526,136.0458 47.3506,135.2528 46.7376,135.3158 C46.1366,135.3788 45.6256,136.3108 45.0746,136.8618 C45.6516,137.4098 46.1846,138.3228 46.8166,138.3988 C47.3966,138.4678 48.0846,137.6338 49.2796,136.8188 L49.2796,136.8188 Z M61.8266,186.1338 C63.0126,186.4138 63.7536,186.6618 64.5146,186.7458 C65.1346,186.8148 65.7746,186.6888 66.4076,186.6488 C66.1756,185.9478 66.1566,184.9328 65.6726,184.6008 C63.9266,183.4058 63.1276,185.0098 61.8266,186.1338 L61.8266,186.1338 Z M93.9186,202.6568 C94.1876,202.8428 94.4566,203.0278 94.7266,203.2138 C95.4956,202.5138 96.7696,201.8878 96.8846,201.0938 C96.9866,200.3878 95.8036,199.4968 95.1876,198.6868 C94.9426,198.8018 94.6976,198.9168 94.4526,199.0318 C94.2736,200.2408 94.0966,201.4488 93.9186,202.6568 L93.9186,202.6568 Z M35.1966,102.3888 C35.2896,103.5328 35.1156,104.3388 35.4376,104.6948 C35.9256,105.2348 36.7586,105.4628 37.4446,105.8228 C37.5156,105.2108 37.6716,104.5918 37.6256,103.9878 C37.5926,103.5438 37.3226,103.1048 37.1076,102.6898 C36.7956,102.0898 36.4356,101.5128 36.0976,100.9268 C35.7226,101.5358 35.3476,102.1448 35.1966,102.3888 L35.1966,102.3888 Z M80.0666,128.7228 L79.4226,129.4588 C80.4136,130.4738 81.3336,131.5788 82.4346,132.4568 C82.8116,132.7578 83.6426,132.4908 84.2656,132.4828 C84.0806,131.8888 84.0806,131.0408 83.6776,130.7518 C82.5636,129.9508 81.2816,129.3838 80.0666,128.7228 L80.0666,128.7228 Z M22.4126,170.0498 C21.8806,169.7718 21.1986,169.4158 20.3136,168.9538 C20.1336,170.7598 19.9326,172.3388 19.8526,173.9238 C19.8366,174.2678 20.2586,174.6338 20.4776,174.9908 C20.7496,174.6798 21.1496,174.4118 21.2696,174.0508 C21.6796,172.8238 21.9896,171.5628 22.4126,170.0498 L22.4126,170.0498 Z M47.5846,49.4898 C46.2856,47.8008 43.2796,47.7428 41.7746,49.2478 C42.9896,50.4248 45.5806,50.5668 47.5846,49.4898 L47.5846,49.4898 Z M59.0836,168.3288 C59.6606,169.0658 60.2276,170.0508 61.0486,170.7288 C61.4696,171.0768 62.6056,171.1678 62.9476,170.8558 C63.4486,170.3998 63.7786,169.4438 63.6856,168.7698 C63.6326,168.3828 62.6026,167.8778 62.0086,167.8718 C60.9456,167.8618 59.8806,168.1888 59.0836,168.3288 L59.0836,168.3288 Z M84.1506,46.1518 C83.1866,43.7758 81.0226,42.7138 78.7436,43.6318 C78.3936,43.7728 77.9376,44.2998 77.9766,44.5878 C78.0206,44.9138 78.5326,45.3648 78.8996,45.4288 C80.6086,45.7288 82.3366,45.9138 84.1506,46.1518 L84.1506,46.1518 Z M76.5886,160.4238 C76.8106,160.2048 77.0346,159.9858 77.2576,159.7668 C76.4416,158.9938 75.6716,158.1658 74.7996,157.4638 C73.9716,156.7948 73.0726,156.1908 72.1376,155.6838 C71.4976,155.3388 70.7496,155.1698 70.0286,155.0358 C69.9536,155.0218 69.5116,156.0508 69.6196,156.1418 C70.1886,156.6188 70.8626,156.9858 71.5336,157.3238 C72.6236,157.8718 73.7776,158.3008 74.8296,158.9118 C75.4866,159.2928 76.0076,159.9118 76.5886,160.4238 L76.5886,160.4238 Z M47.6946,184.0658 C45.7406,184.0658 43.6336,184.0358 41.5286,184.0938 C41.1596,184.1038 40.8016,184.4858 40.4366,184.6948 C40.7416,185.0938 40.9626,185.6548 41.3656,185.8658 C43.0106,186.7278 46.6296,185.5548 47.6946,184.0658 L47.6946,184.0658 Z M43.8796,189.8838 C45.3906,191.2028 48.5626,190.5748 49.1556,188.8538 C49.2946,188.4498 49.1436,187.6818 48.8466,187.4618 C48.5246,187.2238 47.7676,187.2538 47.3856,187.4788 C46.2106,188.1728 45.1236,189.0138 43.8796,189.8838 L43.8796,189.8838 Z M36.1856,108.7628 C35.9106,109.1618 35.3516,109.7678 35.4366,109.8788 C36.2936,110.9878 37.2006,112.0778 38.2426,113.0048 C38.4006,113.1448 39.3816,112.4898 39.8636,112.0678 C40.0476,111.9078 40.0456,111.1528 39.8746,111.0348 C38.7716,110.2738 37.5996,109.6148 36.1856,108.7628 L36.1856,108.7628 Z M34.5716,186.2498 C33.5786,186.7538 31.9086,187.0698 31.5016,187.9628 C31.1266,188.7848 32.1076,190.2248 32.4916,191.3938 C32.7376,191.4378 32.9826,191.4828 33.2276,191.5268 C33.7786,190.8108 34.6126,190.1638 34.8056,189.3618 C35.0276,188.4378 34.6836,187.3778 34.5716,186.2498 L34.5716,186.2498 Z M67.7156,194.5258 C64.3936,197.7528 63.8696,199.7988 65.6606,201.1848 C66.4546,200.0568 67.4636,199.0148 67.9666,197.7688 C68.2846,196.9778 67.8516,195.8838 67.7156,194.5258 L67.7156,194.5258 Z M95.3496,127.0678 C94.2006,126.6278 93.6896,126.2918 93.1656,126.2678 C92.5896,126.2428 91.9736,126.6818 91.4226,126.5988 C90.7096,126.4928 90.0436,126.0708 89.3566,125.7838 C89.7836,126.5538 90.2106,127.3238 90.6336,128.0968 C90.6976,128.2148 90.7016,128.3928 90.7946,128.4618 C91.3656,128.8888 92.2196,129.7668 92.4886,129.6168 C93.3996,129.1088 94.1056,128.2328 95.3496,127.0678 L95.3496,127.0678 Z M93.6856,169.8018 C92.4956,166.4858 90.1086,164.4708 88.0626,164.9948 C88.2206,165.7588 88.4696,166.5248 88.5086,167.3008 C88.5396,167.9328 88.3176,168.5778 88.2086,169.2168 C88.3986,169.3148 88.5896,169.4138 88.7806,169.5108 C90.5676,166.1808 92.0366,168.7218 93.6856,169.8018 L93.6856,169.8018 Z M46.0436,112.1828 C44.9666,111.2378 44.2516,110.1158 43.5406,110.117797 C42.7516,110.1208 41.9656,111.1488 41.1786,111.7308 C42.0936,112.6128 42.9696,113.5488 43.9876,114.2888 C44.0816,114.3558 45.0786,113.1808 46.0436,112.1828 L46.0436,112.1828 Z M52.2286,180.6568 C52.0356,178.5848 50.3396,177.8278 49.3276,176.6378 C48.9506,176.1958 47.9866,175.6638 47.7276,175.8348 C47.2116,176.1768 46.7016,176.9948 46.7386,177.5808 C46.7756,178.1558 47.3816,178.9258 47.9366,179.1898 C49.1676,179.7748 50.5216,180.0948 52.2286,180.6568 L52.2286,180.6568 Z M54.1626,110.2788 C54.8896,110.6718 55.8006,111.2898 56.8066,111.6198 C57.0706,111.7068 57.9076,110.9578 57.9976,110.4978 C58.2286,109.3188 58.2356,108.0878 58.2186,106.8788 C58.2136,106.6068 57.7836,106.2428 57.4706,106.1178 C57.3226,106.0588 56.9346,106.4248 56.7506,106.6688 C55.9856,107.6908 55.2586,108.7418 54.1626,110.2788 L54.1626,110.2788 Z M72.1026,194.1708 C71.8776,194.0838 71.6506,193.9968 71.4256,193.9098 C71.0076,194.6518 70.4036,195.3478 70.2076,196.1448 C69.6896,198.2418 69.3796,200.3528 67.5466,201.8838 C67.1426,202.2218 67.2256,203.2488 67.2716,203.9448 C67.2836,204.1158 68.2816,204.4688 68.4036,204.3408 C68.9066,203.8048 69.6016,203.1048 69.5806,202.4888 C69.5216,200.8368 69.8686,199.6898 72.4146,199.5228 C69.5166,197.6278 72.2026,195.9328 72.1026,194.1708 L72.1026,194.1708 Z M43.5316,141.8858 C41.5706,142.2078 39.9546,142.7518 39.2166,140.5258 C39.8926,140.3188 40.5356,140.2058 41.0906,139.9218 C41.4436,139.7408 41.6676,139.3058 41.9486,138.9858 C41.6146,138.6998 41.3176,138.2568 40.9376,138.1678 C40.4426,138.0528 39.5666,138.0298 39.4036,138.2988 C38.6686,139.5138 37.9636,140.8028 37.6036,142.1608 C37.4806,142.6238 38.3776,143.8628 38.8486,143.8838 C40.3596,143.9548 42.0996,144.1818 43.5316,141.8858 L43.5316,141.8858 Z M60.8466,9.6518 C58.7686,11.3078 58.0866,9.9978 57.3126,8.8498 C56.7336,7.9898 56.0076,7.2488 55.0576,8.3178 C54.0326,9.4708 55.7266,13.7888 57.2916,13.9788 C57.7196,14.0318 58.3566,13.5578 58.6666,13.1498 C59.3356,12.2688 59.8546,11.2728 60.8466,9.6518 L60.8466,9.6518 Z M79.0776,195.4538 L78.4356,194.9968 C77.7036,195.5618 76.7386,195.9998 76.3276,196.7428 C76.0916,197.1688 76.8756,198.0748 76.9766,198.7958 C77.1016,199.6718 77.2136,200.6598 76.9286,201.4558 C76.5046,202.6418 75.7286,203.7028 74.9446,205.0958 C76.7106,204.8088 79.6696,201.1398 79.5226,199.9938 C79.5146,199.9268 79.5146,199.8338 79.4726,199.8018 C77.8406,198.5758 78.6176,196.9908 79.0776,195.4538 L79.0776,195.4538 Z M61.7186,179.7038 C60.7806,178.5088 59.8226,177.2868 58.7036,175.8608 C58.6256,177.5598 58.4596,178.8958 58.5676,180.2098 C58.5996,180.5908 59.3986,181.1748 59.8756,181.2038 C61.7306,181.3198 63.5996,181.2518 65.9876,181.2518 C65.3466,179.9468 64.8966,179.0328 64.4476,178.1198 C63.6316,178.5928 62.8156,179.0668 61.7186,179.7038 L61.7186,179.7038 Z M51.4436,109.4638 C49.9976,109.8058 48.7476,110.0678 47.5226,110.4208 C47.2676,110.4938 46.8826,111.0228 46.9426,111.1408 C47.4746,112.1648 47.9026,113.4008 48.7616,114.0338 C49.2456,114.3908 50.8646,114.0248 51.2876,113.4668 C51.9766,112.5558 52.1466,111.2298 52.4156,110.0518 C52.4456,109.9198 51.6936,109.6098 51.4436,109.4638 L51.4436,109.4638 Z M29.0376,45.8968 C29.3986,46.8978 29.6126,47.8428 30.0776,48.6378 C30.3426,49.0918 31.1656,49.6818 31.4856,49.5578 C32.7946,49.0518 34.0086,48.2988 35.2346,47.5958 C35.2466,47.5898 34.9846,47.0148 34.7896,46.7518 C32.9646,44.2958 31.9346,44.1278 29.0376,45.8968 L29.0376,45.8968 Z M87.9746,84.8478 C88.1776,85.7808 88.6006,86.5238 88.3946,86.9878 C87.4816,89.0478 89.1256,89.6758 90.2886,90.3758 C91.5856,91.1548 92.8166,90.5838 93.6006,89.3688 C94.3746,88.1668 93.3096,87.6428 92.5176,87.1888 C91.1906,86.4268 89.7996,85.7788 87.9746,84.8478 L87.9746,84.8478 Z M91.3826,180.2668 C93.3336,181.2408 94.3036,180.8108 94.4866,179.0768 C94.6286,177.7418 94.5926,176.3778 94.5206,175.0318 C94.4396,173.5088 93.6036,172.5998 92.0196,172.3588 C91.5896,173.9048 90.1466,175.3548 91.7976,176.8608 C93.1506,178.0978 93.1996,179.1638 91.3826,180.2668 L91.3826,180.2668 Z M95.6136,158.3748 C92.7076,159.5868 91.8936,159.4368 90.9926,157.3468 C90.7786,156.8498 90.9916,156.1858 90.9006,155.6168 C90.7676,154.7778 90.5386,153.9548 90.2376,152.6268 C88.1726,155.8138 88.7116,159.4708 91.2206,160.7308 C92.2396,161.2428 93.7986,160.9548 95.0126,160.6438 C95.3826,160.5508 95.4236,159.1678 95.6136,158.3748 L95.6136,158.3748 Z M25.9756,205.6418 C27.3926,204.4188 28.6176,203.5368 29.6116,202.4428 C30.3516,201.6298 30.2616,200.7328 28.8496,200.7258 C27.3146,200.7178 27.4066,199.8338 27.7456,198.8178 C27.8796,198.4188 28.1526,198.0658 28.1376,198.0948 C27.3016,197.8068 26.5156,197.6348 25.8396,197.2648 C25.4466,197.0508 25.2556,196.4898 24.9066,196.1548 C24.8616,196.1118 24.1936,196.4878 24.1906,196.6748 C24.1826,197.2318 24.1916,197.9188 24.4986,198.3278 C25.7706,200.0258 26.9266,201.6648 25.7626,203.9318 C25.5686,204.3088 25.8736,204.9418 25.9756,205.6418 L25.9756,205.6418 Z M28.1786,185.5318 C27.9346,185.2878 27.6896,185.0448 27.4456,184.8008 C25.8266,186.4828 24.1806,188.1398 22.6466,189.8958 C22.5296,190.0308 23.1056,191.0548 23.5616,191.3308 C24.1016,191.6558 24.8656,191.5988 25.5256,191.7378 C26.5486,191.9528 27.1116,192.4598 26.6956,193.6058 C26.5526,194.0028 26.5116,194.4358 26.3926,194.9978 C30.1886,194.0188 27.2646,191.7428 27.6286,190.5458 C26.8586,189.9968 25.8916,189.6498 25.8166,189.1678 C25.7236,188.5508 26.2746,187.7718 26.6876,187.1578 C27.0936,186.5538 27.6746,186.0688 28.1786,185.5318 L28.1786,185.5318 Z M55.3336,169.3318 C55.2096,169.1278 54.9996,168.5268 54.5766,168.1978 C54.3776,168.0428 53.5886,168.2748 53.3806,168.5598 C52.0406,170.3978 50.5806,172.0098 48.2386,172.5898 C47.9436,172.6628 47.5976,173.3618 47.6396,173.7288 C47.6806,174.0838 48.1356,174.5508 48.5086,174.6788 C50.7416,175.4448 55.4056,172.0218 55.3336,169.3318 L55.3336,169.3318 Z M26.3736,48.0638 C29.4816,45.1388 29.4926,38.1928 26.3956,34.2778 C25.1646,35.4038 25.0656,37.8598 26.3356,39.7088 C27.0506,40.7508 27.1956,41.4908 26.2956,42.5618 C25.0456,44.0498 25.2076,46.8098 26.3736,48.0638 L26.3736,48.0638 Z M57.7656,150.6028 C57.9486,150.5258 58.1336,150.4488 58.3166,150.3718 C58.3166,149.6248 58.4256,148.8538 58.2756,148.1378 C58.1886,147.7248 57.6866,147.3978 57.3726,147.0328 C57.0756,147.3488 56.5176,147.6718 56.5246,147.9788 C56.5696,149.5958 56.3516,151.3948 56.9846,152.7828 C58.1626,155.3588 58.9326,157.6448 56.8596,160.1198 C56.5876,160.4448 56.8706,161.7068 57.2786,161.9968 C57.6806,162.2828 59.1426,161.9368 59.1566,161.7768 C59.3816,159.3878 59.6656,156.9658 59.4566,154.5928 C59.3366,153.2238 58.3566,151.9298 57.7656,150.6028 L57.7656,150.6028 Z M89.1466,195.7398 C89.3476,195.5688 89.5476,195.3968 89.7486,195.2258 C90.3146,194.6738 90.8816,194.1208 91.4476,193.5688 L89.4056,191.4768 C89.2376,191.4538 89.0696,191.4298 88.9026,191.4068 C89.5886,196.7188 86.7936,192.7028 85.2346,192.9848 C86.5366,194.0838 87.6546,194.8418 88.5056,195.8288 C88.8846,196.2688 88.7266,197.1728 88.8116,197.8658 C88.2746,197.8618 87.7366,197.8558 87.1996,197.8528 C86.9646,197.8508 86.7296,197.8518 86.3506,197.8518 C87.3566,199.7238 88.2366,201.4368 89.2106,203.0938 C89.3826,203.3868 89.9486,203.4478 90.3326,203.6158 C90.3916,203.1828 90.5746,202.7178 90.4726,202.3268 C90.3806,201.9778 89.9306,201.7408 89.7136,201.4048 C88.9416,200.2078 89.3886,199.4048 90.8036,199.3128 C91.2196,199.2858 91.6236,199.0848 92.0326,198.9638 C91.8666,198.4868 91.8326,197.8758 91.5096,197.5618 C90.7996,196.8748 89.9426,196.3388 89.1466,195.7398 L89.1466,195.7398 Z M65.2006,41.3408 C66.3566,39.7928 67.2206,38.8408 67.8156,37.7428 C68.0636,37.2878 67.9836,36.2488 67.6396,35.9458 C66.2926,34.7628 66.1396,33.6868 67.3436,32.3268 C67.5556,32.0888 67.4036,31.4388 67.2866,31.0168 C67.0376,30.1208 66.7686,29.2178 66.3716,28.3828 C66.1846,27.9888 65.6796,27.7488 65.3176,27.4378 C65.0806,27.8618 64.6436,28.2828 64.6376,28.7108 C64.5826,32.2098 64.5896,35.7098 64.6276,39.2088 C64.6346,39.7408 64.9036,40.2708 65.2006,41.3408 L65.2006,41.3408 Z M102.8296,89.6508 C101.6676,87.6758 101.2446,85.6658 102.6456,83.5268 L101.8466,83.3338 C101.2336,84.4368 100.6226,85.5408 99.9456,86.7598 C99.5886,86.6728 99.1426,86.5798 98.7066,86.4528 C96.4666,85.8018 95.7576,86.4228 95.8646,88.8048 C95.9066,89.7328 95.5686,90.6868 95.6726,91.5988 C95.7726,92.4818 96.2176,93.3268 96.5116,94.1868 C96.8656,93.5158 97.4346,92.8768 97.5366,92.1698 C97.9246,89.4618 100.3326,88.2088 102.8296,89.6508 L102.8296,89.6508 Z M94.0246,190.5058 C93.1306,189.7358 92.7146,189.3498 92.2696,189.0008 C90.9616,187.9698 89.5686,187.0328 88.3626,185.8958 C87.8966,185.4578 87.7766,184.5928 87.6616,183.8938 C87.6406,183.7608 88.4806,183.2468 88.7436,183.3528 C89.3556,183.5998 89.9406,184.0458 90.3866,184.5458 C90.9586,185.1878 91.2516,186.1458 91.9136,186.6218 C92.4466,187.0048 93.3506,186.8718 94.0896,186.9678 C93.8556,186.3408 93.7876,185.5488 93.3576,185.1178 C92.2806,184.0418 90.9276,183.2318 89.8996,182.1168 C89.1096,181.2588 88.4626,180.3638 87.2286,181.0758 C85.9796,181.7978 85.0826,184.6198 85.8356,185.3978 C87.6056,187.2268 89.4386,188.9998 91.3146,190.7178 C91.6426,191.0178 92.3056,191.0168 92.8146,191.022847 C93.1176,191.0268 93.4246,190.7748 94.0246,190.5058 L94.0246,190.5058 Z M69.9206,109.4278 C71.9976,106.9998 73.1366,96.5988 71.6346,94.6328 C68.5676,99.7158 67.0836,103.4338 69.9206,109.4278 L69.9206,109.4278 Z M36.0786,200.0968 C35.8976,199.9768 35.7176,199.8578 35.5366,199.7388 C35.4736,199.2818 35.5076,198.7778 35.3176,198.3818 C35.1526,198.0358 34.6706,197.5408 34.4456,197.5948 C34.0866,197.6828 33.5696,198.1768 33.5776,198.4878 C33.5926,199.0248 33.8056,199.7868 34.2016,200.0448 C35.7956,201.0808 35.2056,201.8748 34.0296,202.6048 C33.0246,203.2288 32.7476,203.8668 33.7936,204.9748 C35.9826,203.0318 38.1086,201.1448 40.2596,199.2358 C42.0016,201.8048 41.9526,201.7628 43.8066,199.6458 C45.0006,198.2808 46.3826,197.0798 47.6356,195.7618 C47.9766,195.4038 48.4376,194.8098 48.3416,194.4668 C48.2016,193.9698 47.6016,193.6028 47.2686,193.2548 C46.5636,194.1988 46.0506,194.8858 45.5376,195.5738 C44.9596,194.8698 44.3816,194.1658 43.5426,193.1448 C43.0576,193.4798 42.3996,193.9338 41.7416,194.3878 C42.2386,195.0808 42.7356,195.7728 43.4046,196.7058 C42.9386,197.2538 42.4206,198.9028 41.3136,197.5578 C40.0186,195.9868 39.4686,196.9008 38.6246,197.6848 C37.7676,198.4808 36.9266,199.2928 36.0786,200.0968 L36.0786,200.0968 Z M22.7516,146.0618 C23.0866,146.7938 23.3926,147.6858 23.9016,148.4408 C24.0596,148.6758 25.1146,148.6858 25.1766,148.5448 C25.9416,146.7868 27.1986,144.9598 27.1366,143.1928 C27.0556,140.9278 27.1816,138.9348 28.4216,137.0548 C29.0736,136.0658 29.8696,135.1548 30.3956,134.1058 C30.7486,133.4028 31.0026,132.4508 30.8116,131.7408 C30.6636,131.1878 29.7126,130.4358 29.2076,130.4988 C28.5846,130.5768 27.8796,131.3028 27.5176,131.9278 C26.4036,133.8468 25.2176,135.7608 25.5456,138.1848 C25.6136,138.6898 25.0606,139.2588 24.8646,139.8228 C24.1696,141.8218 23.5046,143.8328 22.7516,146.0618 L22.7516,146.0618 Z M70.6646,191.5258 C72.2216,187.5798 73.9056,184.2088 77.1936,181.7938 C78.2266,181.0358 78.5146,179.2618 78.9376,178.3808 C77.1366,178.2758 74.9336,178.8128 73.9186,177.9508 C71.7116,176.0758 70.1866,176.9088 68.4246,178.1598 C68.5036,179.0578 68.5186,179.9278 68.6796,180.7698 C68.7816,181.3058 68.9706,181.9478 69.3486,182.2868 C70.7726,183.5658 71.1466,185.7348 69.9546,187.2178 C68.6916,188.7868 69.1476,190.0138 70.6646,191.5258 L70.6646,191.5258 Z M55.3516,202.9988 C54.5076,201.9148 53.9346,201.0178 53.1966,200.2908 C52.7646,199.8648 52.0666,199.7088 51.4886,199.4298 C51.3806,200.0298 51.2386,200.6248 51.1776,201.2278 C51.1376,201.6238 51.3866,202.1448 51.2096,202.4118 C50.4726,203.5198 50.8876,204.1938 51.7356,205.0198 C52.0286,205.3048 51.9266,206.5728 51.5756,206.8508 C49.1946,208.7368 49.0926,208.7528 51.1966,210.9668 C52.4146,212.2478 53.0706,213.3008 50.8576,214.5058 C50.9916,214.6638 51.1256,214.8218 51.2606,214.9808 C52.7266,214.8078 54.1916,214.6358 55.9166,214.4338 C55.5546,213.6358 55.3596,212.9798 54.9906,212.4428 C54.2646,211.3868 53.2926,210.4718 52.7196,209.3478 C52.4366,208.7958 52.8166,207.9058 52.8966,207.1688 C53.5696,207.4658 54.5376,207.5738 54.8636,208.0898 C56.5436,210.7408 57.9476,213.5718 59.7146,216.1598 C60.1056,216.7328 61.5696,216.5728 62.5396,216.7518 C62.5946,216.1798 62.9076,215.4348 62.6596,215.0698 C61.5886,213.4908 60.4566,211.9258 59.1526,210.5368 C57.3046,208.5678 55.2726,206.7718 53.3526,204.8688 C53.0556,204.5738 52.9326,204.1018 52.7276,203.7128 C53.0666,203.5398 53.3916,203.3148 53.7496,203.2068 C54.1136,203.0958 54.5136,203.0998 55.3516,202.9988 L55.3516,202.9988 Z M61.1316,203.6668 C61.1206,203.5458 61.1106,203.4238 61.1006,203.3008 C59.1916,201.6588 57.2566,200.0478 55.3856,198.3618 C54.3796,197.4548 53.9526,196.4738 55.6036,195.7098 C56.5146,195.2868 57.5366,194.9698 58.2636,194.3288 C58.9446,193.7258 59.3676,192.7878 59.7556,191.9298 C59.8376,191.7478 59.1016,190.9458 59.0296,190.9828 C58.2866,191.3678 57.5936,191.8518 56.9096,192.3428 C56.7626,192.4488 56.7566,192.7508 56.6096,192.8628 C56.2176,193.1638 55.5766,193.7288 55.4066,193.6178 C54.9796,193.3408 54.6696,192.7798 54.4846,192.2698 C54.3306,191.8458 54.2976,191.2958 54.4286,190.8678 C54.7756,189.7268 54.9266,188.1578 55.7316,187.6138 C56.9326,186.8028 57.8506,188.0938 58.6616,189.0718 C59.0346,189.5208 59.7786,189.6638 60.3546,189.9448 C60.3676,189.1038 60.7066,188.0328 60.3146,187.4798 C59.7766,186.7208 58.7466,186.1378 57.8156,185.8748 C56.4956,185.5008 55.6366,185.1938 56.3676,183.5688 C56.5056,183.2638 55.9646,182.6538 55.7376,182.1838 C55.0656,182.7188 54.2756,183.1658 53.7746,183.8298 C53.5346,184.1488 53.6326,185.1368 53.9346,185.3838 C55.7706,186.8818 54.4876,187.6908 53.3136,188.4638 C51.9316,189.3728 50.4786,190.1768 48.9256,191.1058 C53.2226,193.5608 53.4626,194.0638 51.7226,196.3858 C54.1686,198.6058 56.5746,200.8578 59.0746,203.0018 C59.5796,203.4338 60.4356,203.4558 61.1316,203.6668 L61.1316,203.6668 Z M33.3016,213.4568 C33.2876,213.7398 33.2736,214.0218 33.2606,214.3048 C33.9196,214.4008 34.9246,214.8158 35.1836,214.5388 C36.7236,212.8808 39.5996,212.6308 39.9546,209.6468 C40.1496,208.0088 41.1956,207.9478 42.5996,208.8668 C43.0166,209.1388 43.9426,208.7258 44.5996,208.5138 C45.2836,208.2938 45.9236,207.9368 46.5826,207.6388 C46.4166,208.4238 46.4866,209.3968 46.0386,209.9568 C44.6176,211.7328 42.2246,212.5498 41.1846,214.7588 C40.9456,215.2668 40.5076,215.6788 40.2646,216.1848 C40.2226,216.2748 40.7506,216.8348 40.9136,216.7908 C41.5156,216.6318 42.3156,216.4678 42.6056,216.0218 C43.5386,214.5858 44.4966,214.2938 45.9976,215.2288 C46.4516,215.5118 47.4556,215.3708 47.9116,215.0288 C48.2176,214.7998 48.0226,213.8758 48.0166,213.2618 C48.0066,212.3978 47.6796,211.4068 47.9956,210.6968 C48.6296,209.2758 49.2326,208.1078 47.3656,207.1658 C47.0786,207.0198 46.8856,206.2948 46.9596,205.8948 C47.2596,204.2618 47.7286,202.6598 48.0296,201.0268 C48.1376,200.4418 47.9426,199.8008 47.8866,199.1848 C47.3616,199.3808 46.7856,199.4928 46.3216,199.7848 C45.1446,200.5278 43.9846,201.3078 42.8926,202.1678 C42.5546,202.4318 42.4576,203.0028 42.2496,203.4328 C42.6406,203.5768 43.0266,203.8308 43.4196,203.8408 C44.1046,203.8588 44.7946,203.7258 45.4816,203.6578 C45.6256,203.8238 45.7686,203.9898 45.9116,204.1568 C45.3616,205.0658 44.9746,206.4888 44.2126,206.7298 C43.5506,206.9398 42.4646,205.8138 41.0586,204.9748 C40.3516,205.9528 39.4976,207.3438 38.4346,208.5508 C36.8726,210.3248 37.1456,213.9298 33.3016,213.4568 L33.3016,213.4568 Z M70.8936,166.6548 C69.6756,166.9118 68.5596,166.8308 68.3056,167.2588 C67.4706,168.6688 65.9766,170.2078 67.8796,171.8998 C68.6966,172.6268 69.5086,173.4408 70.4726,173.9068 C72.8036,175.0328 73.4646,174.5358 73.5156,171.9948 C73.5256,171.4588 73.7356,170.7828 74.1016,170.4208 C76.0896,168.4428 78.3976,166.7378 80.1246,164.5638 C81.8826,162.3508 82.6936,159.6328 81.7586,156.6638 C81.4446,156.7598 81.2466,156.7608 81.2036,156.8428 C79.5406,160.0088 77.7716,163.1278 76.2996,166.3818 C75.6886,167.7288 74.7136,168.0268 74.0306,167.2538 C72.9206,165.9918 72.1476,164.3718 71.4976,162.7948 C71.2276,162.1408 71.6416,161.2078 71.7436,160.4018 C70.9856,160.8458 70.2186,161.2758 69.4716,161.7378 C67.2686,163.0978 67.3166,163.8068 69.6036,165.2538 C70.0866,165.5578 70.4086,166.1158 70.8936,166.6548 L70.8936,166.6548 Z M91.6656,135.3958 C91.4506,135.3808 91.0446,135.3548 90.6406,135.3178 C87.8656,135.0618 87.5996,135.3378 87.7196,138.1338 C87.8446,141.0608 87.3646,144.0308 89.0256,146.7878 C89.5886,147.7198 89.4536,149.0728 89.6376,150.2338 C90.6396,149.6368 91.6006,148.9528 92.6516,148.4648 C94.2366,147.7288 94.7396,146.5858 94.6426,144.8768 C94.5556,143.3488 94.4446,141.6548 94.9896,140.2918 C96.7076,135.9908 96.4346,135.4168 91.6656,135.3958 L91.6656,135.3958 Z M94.8026,111.9148 C94.7226,110.1898 94.6926,108.5778 94.5486,106.9768 C94.4926,106.3598 94.1746,105.7658 93.9766,105.1618 C93.4086,105.4528 92.8406,105.7408 92.2756,106.0358 C90.4686,106.9778 88.7386,108.1608 86.8276,108.7828 C85.5496,109.1998 84.0076,108.8848 82.5916,108.7878 C79.9756,108.6068 77.3666,108.2828 74.7486,108.1748 C74.2596,108.1538 73.5826,108.7618 73.2636,109.2558 C72.2416,110.8358 71.1696,112.4248 70.4556,114.1498 C69.8376,115.6458 69.6166,117.3248 69.3756,118.9448 C69.3326,119.2328 70.0196,119.8638 70.4276,119.9198 C70.8556,119.9778 71.5786,119.6598 71.7786,119.2928 C72.4816,117.9998 73.1556,116.6558 73.5756,115.2528 C74.0366,113.7118 75.0316,112.8098 76.4806,112.8968 C78.3896,113.0108 80.3166,113.3918 82.1506,113.9428 C83.2716,114.2798 84.0026,114.4048 84.3236,113.1258 C84.7096,111.5908 85.7726,110.7478 87.2266,110.7188 C88.9596,110.6858 87.9556,112.2348 88.3356,112.9938 C88.6196,113.5608 89.3186,114.0368 89.9396,114.2718 C90.2696,114.3968 90.8276,113.9248 91.2816,113.7198 C91.0136,113.1468 90.8156,112.5228 90.4556,112.0138 C90.1466,111.5778 89.6516,111.2738 89.0986,110.7868 C91.5626,109.3538 92.7066,112.0788 94.8026,111.9148 L94.8026,111.9148 Z M97.4776,117.9728 L97.2656,117.9728 C97.2656,120.8928 97.2266,123.8138 97.3016,126.7318 C97.3136,127.2258 97.8096,127.7088 98.0826,128.1968 C98.4486,127.8038 99.0026,127.4688 99.1466,127.0078 C99.6786,125.3078 99.7406,123.3758 100.5966,121.8848 C102.0116,119.4188 101.7026,116.9338 101.5686,114.3638 C101.5276,113.5788 101.8296,112.7778 101.9466,111.9798 C102.2756,109.7318 102.7256,107.4888 102.8586,105.2288 C102.9346,103.9648 102.3686,102.8508 100.6626,102.9248 C100.1816,102.9448 99.4306,102.5238 99.2266,102.1018 C98.5396,100.6758 97.9796,99.1768 97.4976,97.6668 C97.2156,96.7828 96.8586,95.4828 95.9506,96.5998 C94.8596,97.9418 94.0036,99.8008 93.8816,101.4958 C93.7896,102.7698 94.8716,104.0998 96.6326,104.5708 C98.5636,105.0878 98.7436,106.0798 97.8926,107.8758 C97.5906,108.5148 97.5086,109.3038 97.4956,110.0278 C97.4506,112.6758 97.4776,115.3248 97.4776,117.9728 L97.4776,117.9728 Z M18.8676,175.5058 C17.5696,176.3398 17.1136,178.6138 17.8646,180.4288 C18.1936,181.2238 18.5786,182.0758 18.5966,182.9088 C18.7136,188.4088 18.7416,193.9098 18.7846,199.4098 C18.7906,200.1538 18.9766,201.0548 18.6366,201.6158 C17.0756,204.1858 17.7566,207.0478 17.4116,209.7648 C17.3456,210.2868 17.5606,211.0178 17.9216,211.3768 C18.4826,211.9338 23.9586,209.6478 24.1646,208.8568 C24.1986,208.7258 24.2396,208.5838 24.2226,208.4558 C23.9656,206.6598 23.8516,204.8258 23.3926,203.0828 C22.9026,201.2238 22.0516,199.4638 21.4336,197.6348 C21.2676,197.1478 21.3686,196.5668 21.3696,196.0288 C21.3706,194.9478 21.3936,193.8678 21.3946,192.7868 C21.3986,189.4138 21.3966,186.0398 21.3966,182.6658 C21.6216,182.7908 21.8476,182.9158 22.0716,183.0418 C22.6996,182.5488 23.8006,182.1178 23.8736,181.5528 C24.1816,179.1948 24.0796,179.1798 26.2776,180.3618 C26.5956,180.5328 26.9836,180.5728 27.3746,180.6838 C27.4356,178.6418 26.0266,176.3828 24.5416,176.1878 C21.4856,175.7888 22.3356,178.5378 21.4656,180.6538 C20.4316,178.6028 19.6436,177.0458 18.8676,175.5058 L18.8676,175.5058 Z M34.1306,116.5178 C33.5646,118.1348 32.8766,120.0638 32.2186,122.0038 C31.6166,123.7738 30.7696,125.5258 30.5836,127.3428 C30.4886,128.2658 31.5756,129.3388 32.2416,130.2608 C32.2976,130.3388 33.2216,129.8008 33.7336,129.5348 C34.1206,129.3338 34.4946,129.1078 34.8746,128.8928 C35.0706,129.3588 35.3336,129.8108 35.4386,130.2968 C35.5066,130.6018 35.2456,130.9738 35.2976,131.2898 C35.4286,132.1018 35.6506,132.9008 35.8376,133.7048 C36.4126,133.0678 37.0076,132.4468 37.5506,131.7838 C37.7086,131.5908 37.7766,131.2738 37.7806,131.0118 C37.7976,129.9528 38.2516,129.4818 39.3606,129.3428 C39.8946,129.2748 40.3496,128.5748 40.8396,128.1608 C40.3926,127.7438 40.0156,127.1818 39.4886,126.9348 C37.2216,125.8738 34.9006,124.8978 34.2426,122.1238 C34.1226,121.6138 34.2466,121.0458 34.2576,120.5048 C34.7446,120.6168 35.3576,120.5818 35.6946,120.8698 C36.6726,121.7068 37.5046,122.7098 38.4546,123.5808 C41.1566,126.0568 44.1446,127.7128 48.0196,126.9418 C49.3936,126.6698 50.0176,126.1258 49.8096,124.6038 C49.6466,123.4168 49.7706,122.1708 49.9056,120.9658 C50.0486,119.7018 49.4966,118.7808 48.3576,118.7798 C45.1666,118.7768 42.0956,118.5178 39.0936,117.2298 C37.7626,116.6588 36.1346,116.7788 34.1306,116.5178 L34.1306,116.5178 Z M84.9226,87.5918 C84.7276,87.9338 84.5336,88.2778 84.3386,88.6208 C84.3046,87.9048 84.2546,87.1898 84.2416,86.4738 C84.2296,85.7718 84.1886,85.0598 84.2826,84.3698 C84.3966,83.5238 84.8056,82.6928 84.7936,81.8598 C84.7536,79.0098 84.5186,76.1608 84.5166,73.3108 C84.5156,72.6468 85.1346,71.9818 85.4686,71.3178 C85.9466,71.7258 86.7686,72.0798 86.8456,72.5528 C87.2216,74.8658 87.5306,77.2058 87.6016,79.5438 C87.6566,81.3288 88.2666,82.1638 90.0996,82.2168 C91.6296,82.2598 92.5876,81.8328 93.3026,80.3408 C94.0746,78.7298 94.9086,77.3428 93.3776,75.7378 C93.0986,75.4458 93.0986,74.8478 93.0466,74.3848 C92.6736,71.0688 90.2326,69.0908 86.9076,69.3538 C86.1196,69.4168 85.1786,69.5008 84.5446,69.1488 C82.9406,68.2598 81.6106,68.5288 80.1796,69.4848 C79.2876,70.0818 78.2606,70.4868 77.2676,70.9168 C73.8176,72.4108 73.0186,73.1358 73.4756,76.6398 C73.7966,79.1008 75.1056,81.4448 76.0796,83.7978 C76.2126,84.1198 76.9526,84.1918 77.4126,84.3798 C77.4876,83.8378 77.7376,83.2458 77.5996,82.7658 C77.3626,81.9448 76.5786,81.1288 77.9316,80.6118 C79.0506,80.1848 81.4486,81.4518 82.2506,82.8138 C83.1676,84.3708 81.3226,84.2758 80.9386,85.0518 C80.8826,85.1668 80.8776,85.3068 80.8496,85.4358 C81.0706,85.2158 81.2926,84.9938 81.5146,84.7718 C82.6506,85.7118 83.7866,86.6518 84.9226,87.5918 L84.9226,87.5918 Z M42.4096,70.2608 C42.8076,70.5768 43.0406,70.7158 43.2126,70.9088 C43.6226,71.3728 44.0026,71.8628 44.3946,72.3428 C43.7676,72.7808 43.1746,73.5198 42.5086,73.5928 C41.2106,73.7328 39.9746,73.4278 39.3686,71.9178 C39.1586,71.3928 38.4476,71.0688 37.9666,70.6538 C37.8066,71.4458 37.4356,72.2638 37.5326,73.0238 C37.7036,74.3758 38.3706,75.6778 38.4476,77.0228 C38.5916,79.5278 38.3056,82.0588 38.4876,84.5588 C38.6546,86.8488 38.5426,88.8368 36.4166,90.2678 C35.9066,90.6118 35.5086,91.3538 35.3886,91.9758 C35.2636,92.6198 35.5386,93.3408 35.6396,94.0278 C36.1686,93.6598 36.7016,93.2978 37.2256,92.9198 C37.7266,92.5578 38.2176,92.1808 38.7136,91.8098 C39.0486,92.3378 39.4266,92.8438 39.7096,93.3978 C40.1226,94.2038 40.4676,95.0448 40.8426,95.8698 C41.6776,95.3318 42.5396,94.8308 43.3406,94.2448 C44.2766,93.5588 45.1556,92.2108 46.0666,92.2038 C47.6966,92.1918 47.5496,93.7638 47.3906,95.0208 C47.3736,95.1448 47.4766,95.2798 47.4856,95.4128 C47.5296,95.9658 47.5596,96.5198 47.5936,97.0738 C46.9346,97.1078 46.2636,97.2358 45.6226,97.1438 C45.1506,97.0778 44.7186,96.7248 44.3546,96.5428 C44.6846,97.9338 44.9276,99.2818 45.3496,100.5718 C45.5136,101.0758 46.0186,101.5558 46.4946,101.8288 C46.6766,101.9328 47.4616,101.4938 47.5416,101.1888 C48.3476,98.1508 49.4386,95.1228 49.7096,92.0268 C50.0696,87.9178 49.7106,83.7498 49.7866,79.6088 C49.8096,78.3348 49.8386,77.2798 48.7586,76.3148 C48.3776,75.9738 48.6316,74.9238 48.5946,74.1978 C49.2636,74.4468 50.3846,74.5458 50.5256,74.9698 C51.3016,77.3018 52.0596,79.6828 52.3886,82.1068 C52.6946,84.3628 52.4536,86.6918 52.4536,88.9898 C52.9356,88.7348 52.9956,88.4318 53.1296,88.1658 C53.3966,87.6308 53.7056,87.1148 53.9976,86.5918 C54.3466,87.1378 54.7436,87.6608 55.0326,88.2378 C55.4456,89.0648 55.7336,89.9558 56.1566,90.7778 C56.8826,92.1868 56.5906,92.6778 55.0136,92.8238 C54.5226,92.8688 53.7936,93.1518 53.6436,93.5178 C53.1906,94.6258 52.9686,95.8268 52.6616,96.9708 C53.7716,96.6698 54.9376,96.2058 56.1426,96.0598 C57.6576,95.8768 58.2496,95.2288 58.2296,93.6828 C58.1666,88.5918 58.2316,83.4968 58.1796,78.4048 C58.1736,77.7878 57.8926,77.0588 57.4986,76.5788 C55.0196,73.5478 52.3086,70.9318 47.8606,72.0568 C47.6696,72.1048 47.4546,72.0568 47.2506,72.0618 C46.0806,72.0938 45.1876,71.8318 44.7066,70.5378 C44.3406,69.5528 43.5446,69.0628 42.4096,70.2608 L42.4096,70.2608 Z M91.6726,65.7488 C91.7456,64.7108 91.7716,64.4448 91.7816,64.1788 C91.8146,63.2318 91.3426,61.7848 92.8986,61.9648 C93.4846,62.0328 93.9576,63.4958 94.3866,64.3698 C94.6956,64.9998 94.6666,65.8738 95.1036,66.3468 C96.2216,67.5538 95.9806,68.5368 95.1766,69.7998 C94.7386,70.4868 94.4036,71.9198 94.7756,72.3228 C96.2706,73.9458 96.2096,75.7338 95.9876,77.6638 C95.8336,79.0088 95.7296,80.3668 95.7376,81.7178 C95.7396,82.1678 96.1566,82.6148 96.3846,83.0628 C96.7466,82.8308 97.3236,82.6728 97.4346,82.3518 C98.0426,80.6008 99.2376,79.5698 100.9366,78.9148 C101.8466,78.5638 102.1726,77.9358 101.5836,76.8118 C100.5226,74.7848 99.6176,72.6558 98.8686,70.4918 C98.1826,68.5078 98.0976,66.2708 97.1926,64.4158 C95.8516,61.6628 94.1116,59.0848 92.3386,56.5758 C91.8356,55.8638 90.6446,55.6058 89.7326,55.2258 C89.2456,55.0228 88.6646,55.0558 88.1536,54.8938 C85.5196,54.0568 82.9346,53.0268 80.2576,52.3768 C76.6056,51.4898 73.4986,54.1938 69.9496,54.2648 C69.7326,54.2688 69.5446,54.6318 69.3036,54.7358 C68.8136,54.9478 68.2966,55.0918 67.7946,55.2718 C65.9816,55.9278 64.1346,56.5078 62.3836,57.3008 C61.9306,57.5058 61.6416,58.3708 61.5762447,58.9658 C61.5556,59.1608 62.4706,59.4828 62.9766,59.7028 C63.5526,59.9528 64.4536,59.9878 64.6796,60.4058 C65.4016,61.7378 66.1786,63.1668 66.3636,64.6298 C66.5586,66.1648 66.4806,67.9678 65.8316,69.3238 C64.7616,71.5558 64.7236,71.8878 66.6866,73.4438 C67.4606,74.0568 68.0366,75.2208 68.2156,76.2208 C68.5336,78.0028 67.4356,79.2558 66.0926,80.3488 C65.5866,80.7608 64.9456,81.9318 65.0656,82.0508 C66.4946,83.4668 66.0806,85.5988 66.9556,87.0028 C68.0446,88.7468 68.0886,90.3438 68.0686,92.1868 C68.0616,92.8368 68.8556,93.4948 69.2846,94.1488 C69.6086,93.4928 70.1506,92.8568 70.2176,92.1758 C70.4646,89.6348 70.5366,87.0758 70.7246,84.5278 C70.7576,84.0758 71.0736,83.6508 71.1846,83.1958 C71.4906,81.9288 71.9916,80.6528 71.9966,79.3788 C72.0106,75.6288 70.1066,72.1158 70.7566,68.2088 C71.1166,66.0378 70.6626,63.7398 70.6586,61.4988 C70.6556,59.8418 71.4816,59.1228 72.7076,59.5628 C74.6436,60.2588 75.2886,62.2978 74.0096,63.8848 C73.2016,64.8868 73.0666,65.9868 74.3326,66.3058 C75.4166,66.5798 77.2066,66.4968 77.7986,65.8088 C79.5266,63.8018 81.4586,63.1758 83.9336,63.6368 C85.0846,63.8528 86.2756,63.8998 87.3966,64.2088 C88.7456,64.5798 90.0396,65.1488 91.6726,65.7488 L91.6726,65.7488 Z M68.3956,151.6638 C68.6526,151.6538 68.9106,151.6448 69.1676,151.6348 C70.2096,149.7858 71.1056,148.0188 70.9586,145.6338 C70.7726,142.6138 71.1996,139.5538 71.4006,136.5138 C71.4256,136.1418 71.6896,135.7868 71.8446,135.4238 C72.2506,138.8928 72.1936,142.2768 72.2956,145.6568 C72.3176,146.3868 72.7176,147.3438 73.2706,147.7788 C75.1616,149.2648 77.9366,149.6938 78.7206,152.4908 C78.7816,152.7118 79.0776,152.9538 79.3116,153.0208 C79.8676,153.1788 80.4526,153.2398 81.0246,153.3398 C81.0456,152.7938 81.0846,152.2468 81.0796,151.6998 C81.0756,151.1888 80.9756,150.6718 81.0396,150.1728 C81.0536,150.0708 81.7816,149.8858 81.8876,150.0038 C82.2676,150.4288 82.7506,150.9548 82.7776,151.4658 C82.8256,152.3258 82.4356,153.2058 82.4596,154.0718 C82.4756,154.6598 82.9536,155.7568 83.1026,155.736097 C84.2846,155.5738 85.4736,155.2828 86.5706,154.8208 C86.8096,154.7198 86.7756,153.7658 86.7236,153.2188 C86.6226,152.1678 86.3096,151.1288 86.2756,150.0778 C86.1556,146.2058 86.1316,142.3308 86.0306,138.4588 C85.9976,137.1638 84.9456,136.2178 84.0946,137.0968 C82.3416,138.9118 81.0566,138.0508 79.5216,137.0548 C78.5586,136.4288 77.5446,135.8418 76.4796,135.4198 C74.9946,134.8308 74.5436,133.8978 74.9546,132.3788 C75.3096,131.0648 75.0466,129.5928 73.6276,129.4008 C70.8576,129.0248 70.6266,127.4058 70.8696,125.1938 C70.9886,124.1058 70.8986,122.7198 69.4326,122.8158 C68.9136,122.8498 68.1636,124.2308 68.0856,125.0508 C67.9356,126.6188 67.7256,127.9368 66.7386,129.3528 C65.3976,131.2778 64.7496,133.6728 63.6736,135.7998 C63.3176,136.5028 62.6076,137.0688 61.9496,137.5458 C61.7846,137.6658 60.8356,137.0658 60.8526,137.0208 C61.1416,136.2378 61.4596,135.4488 61.9076,134.7488 C62.2856,134.1558 63.0396,133.7508 63.2746,133.1298 C63.9136,131.4448 63.9656,129.3878 64.9886,128.0388 C66.3246,126.2758 66.3466,124.4698 66.5026,122.5308 C66.6676,120.4918 66.6326,118.4898 67.1556,116.3958 C67.5506,114.8138 68.9206,112.1588 66.6306,110.3408 C66.3306,110.1018 66.4116,109.3098 66.4156,108.7748 C66.4456,104.4228 66.5546,100.0698 66.5236,95.7188 C66.5066,93.1118 66.9696,90.3858 65.1336,88.0808 C64.9036,87.7928 64.9716,87.2868 64.8246,86.9118 C64.1146,85.1018 63.3786,83.3018 62.6516,81.4998 C62.4336,81.5408 62.2146,81.5818 61.9966,81.6228 C61.9466,82.2318 61.7496,82.8728 61.8736,83.4438 C62.4146,85.9318 62.0756,88.1678 60.9386,90.5188 C60.0596,92.3398 59.7916,94.5258 59.5886,96.5828 C59.3826,98.6658 59.4276,100.8068 59.6556,102.8898 C59.9796,105.8378 61.7366,108.6448 60.4496,111.7438 C60.4306,111.7908 60.4826,111.8728 60.5096,111.9338 C61.3386,113.8568 60.2856,114.6898 58.6416,115.2208 C58.0786,115.4028 57.5476,115.6838 57.0106,115.9368 C56.1596,116.3378 55.3496,116.9858 54.4616,117.1158 C52.1566,117.4528 50.8886,118.9938 51.1856,121.3298 C51.3136,122.3328 51.5446,123.4168 51.3036,124.3538 C50.7376,126.5468 51.0066,128.2248 53.3246,129.1078 C54.1386,129.4178 55.2606,130.1418 55.7216,129.8508 C56.3186,129.4738 56.6306,128.2798 56.6576,127.4248 C56.7506,124.5728 56.6176,121.7138 56.6776,118.8598 C56.6886,118.3028 57.2326,117.2698 57.4356,117.2938 C58.1446,117.3748 58.9006,117.7088 59.4736,118.1578 C60.2816,118.7938 61.0926,119.5258 61.6216,120.3878 C62.0566,121.0958 62.0816,122.0558 62.2876,122.9038 C61.6506,122.9818 61.0156,123.0718 60.3756,123.1348 C60.0766,123.1638 59.7706,123.1388 59.4696,123.1388 C59.3946,123.3228 59.3206,123.5078 59.2476,123.6908 C59.7826,123.9618 60.3096,124.2498 60.8546,124.4948 C61.3546,124.7178 62.1966,124.7858 62.3096,125.1178 C62.4616,125.5678 62.1746,126.2778 61.8726,126.7438 C61.4726,127.3608 60.7926,127.7948 60.3756,128.4048 C58.7456,130.7908 56.8306,133.5198 58.4416,136.2418 C59.6556,138.2908 59.5706,140.1388 59.6336,142.1738 C59.6836,143.7978 59.1906,145.7158 59.8896,146.9768 C60.9726,148.9348 61.1236,150.7128 60.8756,152.8008 C60.8036,153.4078 61.7206,154.5928 62.3586,154.7368 C64.3516,155.1878 66.5706,152.9738 66.5316,150.9538 C66.3976,143.9688 65.6556,136.9268 68.2936,130.1828 C68.4626,129.7508 68.9186,129.4298 69.2416,129.0568 C69.6026,129.4078 70.1076,129.6968 70.2886,130.1248 C70.4866,130.5928 70.5266,131.2248 70.3916,131.7188 C69.7346,134.1238 70.4396,136.9118 68.3016,138.9268 C67.9586,139.2508 68.0386,140.0838 68.0266,140.6828 C67.9756,143.3988 67.9196,146.1178 67.9556,148.8338 C67.9686,149.7788 68.2416,150.7198 68.3956,151.6638 L68.3956,151.6638 Z M9.5526,109.3528 C9.3936,109.3258 9.1956,109.2448 9.0166,109.2738 C8.8266,109.3048 8.5756,109.3928 8.4866,109.5388 C7.1716,111.6948 3.9456,112.6128 4.3686,115.9268 C4.4166,116.2958 3.8736,116.7118 3.7046,117.1448 C3.4196,117.8778 2.9916,118.6488 3.0166,119.3908 C3.0946,121.7788 2.4196,124.3058 4.1626,126.4548 C4.4166,126.7668 4.4736,127.4188 4.3486,127.8308 C3.7676,129.7398 3.3726,131.5978 4.4766,133.4808 C4.6246,133.7328 4.4596,134.3748 4.2186,134.6148 C2.8266,135.9998 3.0776,137.7168 3.0996,139.4118 C3.1346,142.2668 3.1236,145.1238 3.1476,147.9798 C3.1566,149.0488 3.0616,150.1468 3.2756,151.1768 C3.5576,152.5298 3.9226,153.9238 4.5746,155.1238 C5.1526,156.1858 6.2436,157.8148 6.9846,157.7518 C8.1526,157.6528 9.3176,156.4448 10.2746,155.4958 C10.6476,155.1258 10.7376,154.0358 10.4726,153.5268 C9.2536,151.1948 9.6866,148.5108 11.8726,147.1048 C12.3706,146.7858 13.4616,146.8808 14.0006,147.2218 C16.1526,148.5908 17.3086,148.4568 19.2196,146.7958 C22.3376,144.0868 22.3166,139.9718 23.8956,136.5838 C24.1906,135.9488 23.0996,133.8368 22.5166,133.7808 C20.6996,133.6068 21.3056,135.2208 21.3126,136.3018 C21.3156,136.5728 21.3846,136.9988 21.2486,137.0888 C20.4726,137.6028 19.6626,138.3268 18.8236,138.3848 C18.3436,138.4188 17.3626,137.3428 17.3336,136.7328 C17.1866,133.6158 17.2776,130.4878 17.2846,127.3638 C17.2876,125.5928 18.3266,124.2418 19.8846,124.2318 C22.6056,124.2148 24.0716,122.5248 25.6186,120.8358 C26.7526,119.5958 27.8656,118.5658 29.7106,118.4788 C30.2636,118.4528 30.9596,117.6118 31.2606,116.9848 C31.7676,115.9288 32.0376,114.7548 32.3616,113.6168 C32.9726,111.4718 34.2846,109.2158 33.9986,107.1888 C33.2746,102.0658 35.0206,96.8748 32.8096,91.7098 C31.7116,89.1468 32.5076,85.8758 31.2356,82.9108 C30.3426,80.8278 30.9136,78.0928 30.9586,75.6528 C30.9676,75.1258 31.5206,74.6088 31.8226,74.0878 C32.0796,74.6378 32.4406,75.1678 32.5696,75.7478 C32.7966,76.7678 32.8276,77.8318 33.0396,78.8558 C33.2936,80.0858 33.8516,81.2848 33.9066,82.5128 C33.9636,83.7728 33.4066,85.0558 33.4386,86.3218 C33.4576,87.0508 34.1106,87.7618 34.4776,88.4818 C34.8296,87.8348 35.4616,87.1968 35.4846,86.5368 C35.6026,83.2768 35.4396,80.0058 35.6126,76.7508 C35.7426,74.3038 35.0056,72.2568 33.7766,70.2158 C33.1926,69.2458 31.5086,68.3818 32.7836,67.0038 C32.9496,66.8238 34.7186,67.9598 35.6106,68.6578 C36.9146,69.6788 38.0426,70.3668 39.4536,68.7638 C39.8666,68.2948 40.7726,68.2598 41.4526,68.0228 C42.2226,67.7558 43.1476,67.6718 43.7276,67.1788 C44.8026,66.2678 45.7756,66.0338 46.7446,67.1058 C48.1016,68.6088 49.3706,68.3538 50.8606,67.2928 C51.4096,66.9028 52.2866,66.9208 53.0226,66.8608 C53.8666,66.7918 54.7716,67.0248 55.5576,66.8008 C56.7886,66.4478 58.1636,66.4618 57.9706,67.8608 C57.5906,70.6098 60.7486,72.4958 59.5386,75.3928 C59.4326,75.6488 60.8766,76.5518 61.6006,77.1548 C61.7736,76.5858 62.2796,75.7678 62.0686,75.4868 C60.0136,72.7448 61.5596,69.2478 59.8106,66.2398 C58.3736,63.7688 58.8966,63.3788 55.7706,63.5508 C54.1216,63.6408 52.2526,63.7068 50.8296,63.0418 C48.3866,61.8978 46.2466,61.7308 43.9446,63.1548 C41.8156,64.4708 37.2636,63.9548 36.0196,62.2148 C35.6616,61.7138 35.7596,60.8848 35.6486,60.2078 C36.2456,60.3018 36.9986,60.2008 37.4086,60.5288 C38.5326,61.4258 39.5496,61.7958 40.9306,61.0218 C41.5246,60.6888 42.3826,60.7498 43.1186,60.7588 C46.1706,60.7928 49.2236,60.9438 52.2726,60.8918 C53.0576,60.8788 53.8306,60.2818 54.6086,59.9528 C53.8396,59.3248 53.0106,58.1118 52.3106,58.1828 C50.4356,58.3738 48.8556,58.1498 47.3916,56.9478 C47.1146,56.7198 46.6116,56.7638 46.2116,56.6928 C42.1166,55.9608 38.5316,58.5558 34.5326,58.5088 C34.1976,58.5048 33.8656,58.9458 33.5196,59.1608 C31.8716,60.1868 30.3376,61.6298 28.5406,62.1318 C25.7266,62.9168 23.3816,65.2118 22.7206,68.1178 C22.1656,70.5578 21.0366,72.8638 20.2556,75.2598 C20.0776,75.8068 20.2836,76.4798 20.3136,77.0948 C20.8666,76.9718 21.4456,76.9138 21.9616,76.7018 C22.2406,76.5868 22.4346,76.2258 22.6286,75.9498 C23.6996,74.4268 24.9806,74.4678 25.9236,75.8738 C27.0396,77.5388 27.8866,79.3958 28.7376,81.2228 C29.2416,82.3038 29.8646,83.4928 29.8486,84.6248 C29.8026,87.7848 30.6916,91.2468 27.6686,93.7188 C27.5746,93.7968 27.5426,93.9588 27.5016,94.0878 C26.0696,98.5768 20.0766,100.0628 16.5826,100.4948 C15.9866,100.5678 15.3296,100.0778 14.6896,99.8818 C14.2076,99.7328 13.5486,99.3908 13.2616,99.5808 C12.9366,99.7958 12.8186,100.5078 12.8216,101.0028 C12.8416,104.5328 12.9636,108.0638 12.9346,111.5938 C12.9286,112.4998 12.4986,113.4008 12.2696,114.3058 C11.9986,115.3868 11.6056,116.4568 11.4906,117.5538 C11.1426,120.8618 10.9046,124.1798 10.6336,127.3848 C7.4686,127.6808 7.2126,128.4348 8.0906,131.0528 C8.7226,132.9328 8.8226,134.9978 9.0796,136.9908 C9.1156,137.2768 8.7546,137.8078 8.4796,137.8848 C8.2116,137.9618 7.6156,137.6828 7.5166,137.4248 C6.9396,135.9248 6.0906,134.3988 6.0326,132.8558 C5.8556,128.1708 5.9266,123.4708 6.0676,118.7818 C6.1036,117.5868 6.6646,116.3698 7.1516,115.2338 C7.9486,113.3778 8.8866,111.5818 9.7476,109.7528 C9.7816,109.6788 9.6396,109.5218 9.5526,109.3528 L9.5526,109.3528 Z M31.0006,156.8348 C33.9116,156.8048 33.9966,156.8838 33.8546,159.7578 C33.8216,160.4338 33.6966,161.1058 33.6326,161.7808 C33.4856,163.2998 33.8846,164.4848 35.5596,164.8718 C38.0826,165.4538 39.6846,164.9428 40.4156,163.4598 C40.7266,162.8268 41.3386,161.8038 41.7286,161.8418 C43.4316,162.0048 45.2546,162.1908 46.7416,162.9448 C48.2956,163.7318 47.0686,165.2848 46.8256,166.4418 C46.7186,166.9518 45.9326,167.3338 45.4296,167.7428 C44.8806,168.1898 44.3036,168.6038 43.7346,169.0278 C43.3346,169.3268 42.8066,169.9388 42.5496,169.8428 C42.0656,169.6608 41.5626,169.1238 41.4036,168.6268 C41.2936,168.2838 41.6906,167.7188 41.9696,167.3318 C42.1536,167.0718 42.5276,166.9478 42.9126,166.7028 C40.8316,165.1798 39.8046,166.8738 38.8566,167.8818 C37.7676,169.0398 39.3186,169.5588 39.8826,170.2788 C40.6516,171.2628 41.5296,172.1748 42.1956,173.2218 C42.5796,173.8258 42.6366,174.6368 42.8406,175.3548 C43.4356,174.7788 44.1526,174.2798 44.5916,173.6018 C44.9726,173.0108 45.2356,172.2088 45.2076,171.5138 C45.1316,169.6748 46.5306,168.9468 47.7326,168.9168 C49.6336,168.8678 49.9126,168.0018 49.8236,166.5058 C49.7386,165.0508 50.2696,164.2028 51.7856,163.6338 C52.9356,163.2018 54.5446,162.0958 54.6556,161.1398 C55.0376,157.8598 54.9086,154.5118 54.8016,151.1958 C54.7886,150.7978 53.7086,150.4338 53.1236,150.0538 C52.4796,151.1868 51.4106,152.2748 51.2836,153.4638 C51.0256,155.8708 51.3026,158.3338 51.3016,160.7728 C51.3006,161.3028 51.0576,161.8338 50.9266,162.3628 C50.6826,162.3808 50.4376,162.3968 50.1936,162.4148 C49.9896,161.6608 49.6496,160.9138 49.6126,160.1518 C49.5546,158.9368 49.7256,157.7128 49.7496,156.4908 C49.8626,150.8588 49.7496,150.7928 44.0616,150.9968 C43.2206,151.0268 42.3576,150.5038 41.5066,150.2358 C41.7636,149.5578 42.0386,148.8858 42.2656,148.1988 C42.3156,148.0448 42.1966,147.8358 42.1306,147.5358 C41.8326,147.6138 41.5496,147.6138 41.3666,147.7498 C39.7526,148.9438 38.9006,148.6368 38.1336,146.7268 C37.8766,146.0898 37.2676,145.5928 36.8186,145.0328 C36.3526,145.7598 35.5816,146.4518 35.4886,147.2238 C35.3116,148.6908 35.6976,150.2268 35.5006,151.6868 C35.4036,152.4038 34.5796,153.5248 33.9916,153.5878 C30.8936,153.9148 30.8836,153.8178 31.0536,156.8928 C28.9666,156.0008 30.0386,154.1698 29.9656,152.7628 C29.9386,152.2378 30.8526,151.2588 31.4306,151.1818 C33.5346,150.9028 33.8046,149.6728 33.8306,147.8808 C33.8556,146.1558 33.9486,144.2868 34.6216,142.7478 C35.9346,139.7418 35.9646,137.9728 33.8786,135.4718 C33.5756,135.1078 32.9746,134.6958 32.5996,134.7678 C32.1876,134.8458 31.5616,135.4748 31.5786,135.8388 C31.6896,138.1878 30.5776,139.9528 29.1736,141.6578 C28.8626,142.0348 28.7236,142.6978 28.7736,143.2028 C29.0216,145.6608 28.3346,147.7818 27.0616,149.8978 C26.1496,151.4148 25.7236,153.2388 25.1826,154.9578 C24.7926,156.1948 24.5596,157.4828 24.2796,158.7528 C23.9956,160.0418 24.0766,161.5578 23.4016,162.5848 C21.6876,165.1938 21.6556,165.9258 24.1986,168.5638 C25.4446,169.8558 27.8626,169.9758 29.5466,168.7408 C29.7436,169.1718 29.8336,169.6898 30.1406,169.9678 C30.6686,170.4418 31.3316,170.7648 31.9376,171.1518 C32.2346,170.4668 32.9376,169.6148 32.7416,169.1288 C32.3686,168.2088 31.5516,167.4178 30.7786,166.7298 C30.2966,166.3008 29.5236,166.2198 28.9416,165.8808 C27.1076,164.8068 27.0096,163.8288 28.6796,162.5018 C29.4376,161.8978 30.3726,161.5138 31.3066,160.9858 C31.2096,159.6668 31.1046,158.2508 31.0006,156.8348 L31.0006,156.8348 Z M64.9776,206.3358 C64.7886,207.7728 64.5176,209.4698 65.5726,211.0528 C68.2696,215.0958 65.5106,219.0548 61.4986,219.9058 C60.1886,220.1838 59.5826,220.5788 59.5456,221.9378 C59.4916,223.8588 58.2716,224.6968 56.6296,225.6328 C54.2556,226.9848 51.7916,226.5658 49.3776,226.8778 C46.7766,227.2118 43.1826,224.2488 42.5816,221.7618 C42.4206,221.0938 41.5856,220.5408 40.9666,220.0528 C40.6876,219.8348 40.0496,220.0528 39.7976,219.8258 C37.2776,217.5528 34.1226,216.9058 30.9886,216.0258 C29.2216,215.5288 28.9476,215.4818 28.5526,217.2428 C28.1616,218.9818 27.4046,220.6578 26.6376,222.2798 C26.4726,222.6308 25.5766,222.7728 25.0166,222.7758 C22.2286,222.7938 19.4406,222.7468 16.6536,222.6878 C16.0566,222.6758 15.2906,222.7248 14.8946,222.3948 C13.4076,221.1548 11.7386,221.5158 10.0476,221.4378 C8.9676,221.3868 7.5046,220.9068 6.9436,220.1068 C5.7166,218.3568 4.8326,216.3278 4.0436,214.3198 C3.5026,212.9438 4.7326,209.9468 5.9866,209.2568 C6.3926,209.0328 7.1246,209.1788 7.6126,209.3828 C8.2896,209.6658 8.8636,210.1868 9.5076,210.5608 C12.5706,212.3388 15.7296,210.5628 15.7466,207.0588 C15.7586,204.6108 15.7596,202.1628 15.7486,199.7158 C15.7476,199.5318 15.6106,199.3498 15.4696,199.0008 C14.1206,199.2098 13.7276,200.0138 13.8486,201.2578 C13.9736,202.5408 14.1466,203.8268 14.1546,205.1128 C14.1726,207.9258 12.1356,209.0868 9.7466,207.6808 C9.5136,207.5438 9.2846,207.3798 9.0316,207.2968 C7.8836,206.9198 6.3276,207.3348 5.9236,205.5658 C5.3906,203.2358 4.8356,200.9678 6.5746,198.8048 C7.1076,198.1428 7.1986,197.1158 7.4546,196.2438 C7.5676,195.8578 7.4436,195.3038 7.6746,195.0658 C9.9166,192.7478 8.7886,189.9058 8.7126,187.3498 C8.6286,184.5248 9.7416,182.5658 11.7286,180.6508 C12.8276,182.2458 13.0646,183.8508 12.5096,185.5438 C11.7976,187.7088 10.9696,189.8338 10.2646,191.9998 C10.1066,192.4838 10.3226,193.0768 10.2416,193.5988 C10.0326,194.9418 9.6976,196.2648 9.5176,197.6098 C9.2596,199.5218 8.8406,201.4658 8.9776,203.3598 C9.0766,204.7048 10.5086,204.8328 11.2676,203.8998 C11.9766,203.0298 12.2536,201.7658 12.5686,200.6338 C12.7806,199.8728 12.4176,198.7468 12.8486,198.2868 C14.8506,196.1518 14.3146,193.6298 14.3076,191.1468 C14.3056,190.5198 14.4666,189.7268 14.8616,189.2958 C16.3366,187.6898 16.0456,186.0858 15.0836,184.4378 C13.8096,182.2578 13.8846,180.4898 15.3816,178.5148 C15.5816,178.2508 15.7966,177.9488 15.8606,177.6338 C16.3276,175.3428 16.7236,173.0348 17.2236,170.7508 C17.3586,170.1328 17.6256,169.3548 18.0946,169.0338 C19.6576,167.9628 19.3706,166.7328 18.5016,165.5308 C17.6986,164.4198 17.8706,163.6548 18.4936,162.4368 C19.2176,161.0248 19.2356,159.2528 19.5486,157.6988 C21.4636,158.8828 22.6546,158.2068 22.8026,155.7148 C22.8456,154.9818 23.1096,154.2618 23.1556,153.5298 C23.1936,152.9278 23.0596,152.3138 23.0006,151.7058 C22.4156,152.0148 21.6546,152.1868 21.2836,152.6628 C20.5516,153.5988 20.0346,154.7048 19.1716,156.1798 C19.0826,155.0278 18.8736,154.2938 19.0046,153.6248 C19.2916,152.1488 18.6646,151.4988 17.3186,151.1398 C15.9836,150.7848 14.9956,150.8428 14.2676,152.2638 C12.9146,154.9038 11.6646,157.6618 9.8606,159.9708 C9.1716,160.8528 6.8926,161.1858 5.6816,160.7698 C4.5336,160.3758 3.4876,158.8018 3.0136,157.5188 C2.1326,155.1348 1.6386,152.5978 1.1026,150.0988 C0.7556,148.4758 0.5066,146.8138 0.4156,145.1578 C0.2896,142.8518 0.3536,140.5358 0.3336,138.2228 C0.3296,137.8838 0.1616,137.4358 0.3186,137.2208 C2.0206,134.8958 0.7866,132.1118 1.5396,129.6398 C1.7086,129.0878 1.8226,128.2278 1.5266,127.8748 C0.3296,126.4488 0.5196,124.7968 0.2616,123.1358 C-0.4734,118.4088 0.2586,114.2068 3.5116,110.5548 C3.9826,110.0248 4.1156,109.2078 4.5146,108.5938 C4.8186,108.1268 5.2246,107.5778 5.7076,107.3978 C8.3176,106.4308 10.2876,103.3348 10.2826,100.4118 C10.2796,99.3548 10.8126,98.2988 11.1006,97.2408 C11.2736,96.6008 11.4476,95.9608 11.6146,95.3198 C11.7996,94.6108 11.8436,93.8268 12.1846,93.2048 C13.1836,91.3828 14.7306,89.7878 14.3266,87.4478 C17.0656,84.9238 15.7676,81.2218 16.9056,78.1308 C18.3876,74.1008 20.6796,70.0528 20.2896,65.4078 C20.2336,64.7388 20.8036,63.8358 21.3516,63.3338 C22.5686,62.2168 23.0596,60.9458 22.8866,59.3328 C22.7036,57.6348 23.1846,56.1908 23.8716,54.5528 C24.5846,52.8548 24.2676,50.3898 23.6116,48.5398 C22.8106,46.2788 22.2656,44.3288 23.6876,42.1898 C24.0416,41.6578 24.2536,40.9328 24.2676,40.2918 C24.3216,37.7188 24.5246,35.1108 24.1876,32.5798 C23.8846,30.2998 23.0836,28.0488 22.2146,25.8998 C21.9226,25.1788 20.7586,24.3958 19.9716,24.3738 C18.0206,24.3168 16.8746,23.2178 15.6836,21.9678 C14.6056,20.8358 13.3886,19.8358 12.3236,18.6938 C10.6906,16.9428 11.1386,15.4178 13.1916,14.3318 C13.8336,13.9928 14.0876,12.7938 14.3726,11.9398 C14.6766,11.0268 14.6146,9.3608 15.0496,9.2408 C16.3466,8.8828 17.8186,9.0338 19.1936,9.2128 C19.4226,9.2418 19.8176,10.5608 19.5936,11.0148 C18.9956,12.2218 19.4446,12.9478 20.1006,13.9478 C21.4536,16.0098 23.4036,17.8858 22.6316,20.8398 C22.4866,21.3928 23.3846,22.2188 23.8006,22.9208 C24.4096,22.5148 25.1356,22.2138 25.6016,21.6828 C26.4396,20.7298 26.9776,19.4818 27.8986,18.6398 C29.9006,16.8118 30.8386,14.5608 31.4286,11.9768 C32.2856,8.2208 34.7496,5.4918 37.7876,3.2888 C38.2636,2.9448 39.1296,2.9068 39.7496,3.0378 C41.8356,3.4768 43.8956,4.0388 45.9516,4.6058 C46.2266,4.6818 46.4926,5.0208 46.6346,5.3028 C47.3916,6.8078 48.2396,8.2868 48.7956,9.8658 C49.2676,11.2098 49.3886,12.6768 49.6616,14.0918 C49.9876,15.7738 50.5076,17.4468 50.5996,19.1428 C50.8406,23.6028 51.2946,28.1078 50.9046,32.5288 C50.5646,36.3868 49.1996,40.1578 48.2606,43.9608 C48.1666,44.3408 47.9336,44.7128 47.6846,45.0248 C46.7836,46.1608 46.9286,46.7428 48.4466,47.0938 C49.2256,47.2748 49.8966,47.9738 50.5806,48.4878 C51.5986,49.2528 52.7246,49.9368 53.5466,50.8808 C54.6286,52.1188 55.6036,53.5028 56.3476,54.9658 C56.8286,55.9138 56.9736,57.0018 58.3616,56.6918 C59.6976,56.3948 59.4926,55.3038 59.6126,54.2628 C59.7706,52.8848 60.0906,51.4708 60.6396,50.2018 C61.4666,48.2868 62.5966,46.5038 63.4986,44.6168 C63.7386,44.1138 63.6836,43.4368 63.6566,42.8438 C63.5816,41.1468 63.5316,39.4418 63.3186,37.7588 C63.1366,36.3158 62.5506,34.9068 62.4946,33.4688 C62.4286,31.7818 62.3896,29.9438 62.9726,28.4138 C63.9496,25.8478 64.0156,25.4358 61.8536,23.9358 C61.4076,23.6268 60.9636,23.0348 60.8866,22.5178 C60.3596,19.0038 57.6676,17.4178 55.0776,15.6698 C54.4136,15.2208 53.8106,14.4568 53.5306,13.7068 C52.4346,10.7748 52.8096,8.0458 54.8766,5.5738 C55.2106,5.1748 54.9696,4.3398 55.2316,3.8268 C55.8566,2.6018 56.5746,1.4158 57.3756,0.2988 C57.5326,0.0788 58.3576,0.0728 58.6326,0.2838 C58.8706,0.4668 58.9636,1.2228 58.7796,1.5098 C57.4926,3.5168 58.6456,4.0298 60.2366,5.1408 C61.7986,6.2318 63.1546,8.3178 63.5356,10.1848 C63.8716,11.8278 62.5006,13.5898 60.5926,14.3588 C60.3076,14.4738 60.0896,14.7538 59.9596,14.8598 C60.9926,16.2648 61.9616,17.5818 63.0126,19.0108 C64.1606,18.1048 65.1646,17.0548 65.0676,15.1368 C65.0336,14.4618 65.8046,13.5428 66.4546,13.0808 C67.5446,12.3048 68.9336,11.9388 69.9936,11.1348 C70.5036,10.7478 70.7286,9.7628 70.7756,9.0298 C70.8926,7.2028 70.7336,5.3568 70.8666,3.5318 C71.0156,1.4778 72.2586,0.8788 73.8686,2.1268 C75.2546,3.1998 75.9316,2.9848 76.5796,1.4038 C76.7916,0.8848 77.6166,0.5538 78.2266,0.2858 C78.6356,0.1058 79.1696,0.2368 79.6306,0.1468 C83.3476,-0.5802 85.9346,1.4368 86.1436,5.2358 C86.1666,5.6408 86.0696,6.1748 86.2856,6.4288 C88.8196,9.4148 87.3466,12.9558 87.7406,16.2338 C87.9116,17.6598 88.4636,19.0368 88.7266,20.4578 C88.8486,21.1108 88.9636,22.0618 88.6096,22.4518 C87.4276,23.7578 87.1236,24.8578 88.6866,26.0288 C88.8426,26.1448 89.0546,26.3528 89.0426,26.5038 C88.8856,28.5038 88.7336,30.5058 88.4876,32.4958 C88.3906,33.2788 87.8256,34.0508 87.8806,34.7998 C88.0566,37.1898 86.9856,38.8658 85.1306,40.1298 C83.6216,41.1578 83.6236,42.0508 84.8836,43.3858 C86.0566,44.6278 86.8966,46.1818 87.8936,47.5928 C88.0466,47.8088 88.2126,48.0888 88.4356,48.1728 C91.0486,49.1598 91.6496,51.8058 93.0716,53.7658 C94.6866,55.9918 96.2446,58.2578 97.8296,60.5048 C98.1406,60.9438 98.5726,61.3338 98.7596,61.8198 C100.1756,65.5068 101.5776,69.1988 102.8996,72.9208 C103.1616,73.6558 103.0236,74.5258 103.1366,75.3248 C103.2266,75.9708 103.2146,76.7978 103.6016,77.2078 C104.7496,78.4188 104.8056,79.7598 104.3936,81.1908 C103.6916,83.6258 104.1436,85.8138 105.4586,87.9438 C105.8146,88.5218 105.8226,89.3718 105.8316,90.0988 C105.8726,93.4318 105.9496,96.7688 105.8156,100.0958 C105.7636,101.3888 105.1816,102.6588 104.8566,103.9428 C104.6946,104.5878 104.4436,105.2418 104.4506,105.8878 C104.4786,108.3348 104.6366,110.7778 104.6536,113.2228 C104.6596,113.9368 104.3516,114.6508 104.2016,115.3678 C103.8356,117.1168 103.4686,118.8658 103.1316,120.6208 C103.0826,120.8718 103.3276,121.2208 103.2266,121.4148 C101.2826,125.1438 103.4506,130.4278 98.8066,133.1348 C98.6366,133.2338 98.4026,133.4038 98.3866,133.5598 C98.1866,135.4428 98.0046,137.3268 97.8576,139.2138 C97.7836,140.1578 97.8136,141.1098 97.7516,142.0538 C97.7286,142.3838 97.4106,142.7578 97.4986,143.0198 C98.3426,145.5608 96.7436,147.8408 95.4066,149.0138 C93.2486,150.9098 93.3766,151.7568 95.3516,153.3468 C95.8556,153.7538 95.7416,154.8838 95.9996,155.6518 C96.3026,156.5548 96.9356,157.4098 97.0066,158.3178 C97.1566,160.2648 97.0396,162.2338 97.0266,164.1938 C97.0216,164.9438 96.9986,165.6928 96.9916,166.4428 C96.9716,169.0958 96.9466,171.7498 96.9406,174.4028 C96.9386,175.0388 96.8826,175.7138 97.0636,176.3038 C97.6846,178.3198 98.0276,180.2548 96.5796,182.1098 C96.2896,182.4818 96.1276,183.1348 96.2206,183.5948 C96.8846,186.8688 97.8226,190.0978 97.3356,193.5088 C97.2656,194.0018 97.5276,194.5508 97.6746,195.0628 C98.1056,196.5778 98.7676,198.0618 98.9556,199.6048 C99.3626,202.9508 97.6976,204.8228 94.6106,205.9618 C92.7126,206.6618 91.0096,207.3468 88.9776,206.8038 C88.6786,206.7228 88.2266,207.2148 87.8446,207.4408 C88.1226,207.8368 88.3216,208.4498 88.6946,208.5858 C89.7516,208.9678 90.9236,209.1808 90.6586,210.6798 C90.3936,212.1788 89.8776,213.4238 88.2236,214.1368 C86.1156,215.0478 84.1136,215.6378 81.7296,215.7138 C79.3576,215.7868 77.5946,214.7578 75.6746,213.9258 C75.1836,213.7138 74.9156,212.7398 74.7536,212.0658 C74.5276,211.1258 74.8516,209.6918 74.3106,209.2598 C73.0826,208.2808 71.5216,207.6148 69.9976,207.1388 C68.5346,206.6838 66.9456,206.6308 64.9776,206.3358 L64.9776,206.3358 Z" id="Fill-1"></path>
                <path d="M158.5044,232.8413 C158.5934,233.1073 158.6814,233.3723 158.7704,233.6373 C160.0194,234.1713 160.7494,233.5563 161.4764,231.7843 C160.2024,232.2373 159.3544,232.5393 158.5044,232.8413 M182.0264,237.2603 C181.8664,237.1023 181.7074,236.9433 181.5474,236.7843 C180.8724,237.2653 180.1544,237.6993 179.5484,238.2553 C179.3654,238.4223 179.4944,238.9273 179.4814,239.2783 C179.8384,239.2753 180.3534,239.4213 180.5254,239.2403 C181.0924,238.6443 181.5354,237.9303 182.0264,237.2603 M170.6624,219.0363 C170.4214,218.7983 170.1814,218.5593 169.9414,218.3203 C168.9884,219.2813 168.0374,220.2423 167.0854,221.2033 C167.2604,221.3853 167.4354,221.5673 167.6094,221.7473 C169.1664,221.4393 169.9254,220.2493 170.6624,219.0363 M184.9384,241.7063 C186.0484,242.8653 187.0364,243.8983 188.2094,245.1213 C188.4044,242.9543 187.1494,241.7273 184.9384,241.7063 M160.9384,237.3083 C160.6994,236.9353 160.4614,236.5623 160.2234,236.1903 C159.3664,236.7103 158.4694,237.1803 157.7014,237.8093 C157.5934,237.8973 158.1174,238.7583 158.3494,239.2623 C159.2114,238.6113 160.0744,237.9593 160.9384,237.3083 M164.8964,237.1653 C166.3154,235.1503 167.4264,233.5713 168.7664,231.6703 C166.1144,232.7783 164.5834,234.8103 164.8964,237.1653 M155.9784,163.5473 C154.9774,162.7933 154.3904,162.0083 153.8554,162.0423 C153.3014,162.0773 152.7974,162.9063 152.2724,163.3883 C152.7914,163.8833 153.2474,164.6433 153.8504,164.7863 C154.2944,164.8933 154.9304,164.1953 155.9784,163.5473 M164.2744,220.7393 C164.1574,220.6823 163.9744,220.5453 163.9334,220.5783 C162.6854,221.6163 161.4304,222.5243 159.7034,221.5313 C159.5864,221.4643 158.9614,221.9233 158.9884,222.0263 C159.0784,222.3633 159.2924,222.7643 159.5804,222.9383 C161.2314,223.9283 163.4954,222.8493 164.2744,220.7393 M161.6964,227.4653 C162.7034,228.1583 163.3494,228.7883 164.1214,229.0613 C164.5454,229.2103 165.2784,228.8733 165.6894,228.5333 C165.9514,228.3163 166.0794,227.4233 165.9214,227.3073 C165.5014,226.9993 164.8844,226.8043 164.3594,226.8323 C163.6384,226.8703 162.9304,227.1553 161.6964,227.4653 M172.3934,238.8683 C172.1624,238.7263 171.9334,238.5833 171.7034,238.4413 C171.1424,238.7543 170.3724,238.9373 170.0694,239.4143 C169.6244,240.1173 169.5114,241.0323 169.2564,241.8573 C170.0354,241.5923 170.9904,241.5193 171.5424,241.0083 C172.0504,240.5383 172.1264,239.6003 172.3934,238.8683 M167.6574,135.6233 C167.1184,134.1993 166.6834,132.9523 166.1684,131.7383 C165.9914,131.3223 165.6144,130.9913 165.3294,130.6203 C165.1364,131.1233 164.6984,131.6813 164.7964,132.1183 C165.0704,133.3513 165.5134,134.5573 166.0104,135.7213 C166.1434,136.0313 166.7104,136.3093 167.0784,136.3103 C167.3114,136.3103 167.5444,135.7693 167.6574,135.6233 M172.3534,228.5693 C170.6264,227.8453 169.4174,227.3393 168.0024,226.7463 C168.6224,228.3993 169.0944,229.6543 169.7824,231.4893 C170.7664,230.3713 171.5364,229.4973 172.3534,228.5693 M176.1764,228.2793 C179.4904,227.1333 178.1424,223.4553 180.1954,221.5973 C178.8314,221.9593 177.6624,222.4063 176.6064,223.0413 C176.2954,223.2273 176.0414,224.2073 176.2114,224.3793 C177.5304,225.7143 176.8654,226.9343 176.1764,228.2793 M173.7254,247.0373 C173.2254,246.7973 172.7594,246.6543 172.3884,246.3813 C171.0744,245.4163 169.8604,244.2903 168.4574,243.4923 C168.0814,243.2793 167.0144,243.8763 166.5564,244.3713 C166.3004,244.6493 166.4294,245.7383 166.7604,246.0153 C167.9004,246.9703 169.1714,247.7833 170.4624,248.5323 C170.9764,248.8303 171.7404,249.0473 172.2604,248.8833 C172.7164,248.7393 172.9884,248.0133 173.7254,247.0373 M161.3644,239.7263 C160.6404,240.7783 159.4404,241.7723 159.5894,242.4803 C159.8014,243.4823 160.8754,244.5953 161.8554,245.0063 C162.3014,245.1943 163.4794,243.8853 164.1964,243.1333 C166.3284,240.9023 168.3184,238.5313 170.5214,236.3753 C171.6444,235.2773 172.3934,234.2403 171.8454,232.4933 C170.8784,233.1983 170.0704,234.0203 169.3744,234.9273 C167.6174,237.2153 165.9804,239.5983 164.1394,241.8143 C163.6724,242.3763 162.6224,242.4543 161.8404,242.7553 C161.7174,241.9663 161.5934,241.1773 161.3644,239.7263 M177.6994,230.7783 C178.2074,231.1083 178.3874,231.1973 178.5334,231.3253 C178.9404,231.6813 179.3324,232.0533 179.7304,232.4183 C179.3684,232.7853 179.0054,233.4463 178.6464,233.4453 C178.2394,233.4423 177.6784,232.9233 177.4624,232.4903 C176.8584,231.2823 176.1334,231.6673 175.6104,232.3743 C175.1814,232.9573 175.0684,233.7763 174.8974,234.2633 C175.9174,234.6813 176.6464,234.9793 177.3744,235.2773 C176.9154,236.0173 176.4834,236.7763 175.9894,237.4913 C175.6454,237.9923 175.1044,238.3823 174.8504,238.9153 C174.4044,239.8563 174.1104,240.8673 173.7534,241.8503 C174.6744,241.3073 176.0374,240.9833 176.4324,240.1813 C177.7034,237.6023 179.3854,235.4653 181.6004,233.6583 C181.9614,233.3633 182.0264,232.4063 181.8764,231.8513 C181.6214,230.9073 181.1764,229.9793 180.6224,229.1733 C180.4054,228.8573 179.4734,228.6223 179.2334,228.8143 C178.6404,229.2833 178.2594,230.0223 177.6994,230.7783 M163.1304,72.9693 C164.1764,75.8273 163.3464,77.9653 161.4344,79.6883 C161.0254,80.0553 160.3234,80.0963 159.7574,80.2873 C159.6864,79.6683 159.4994,79.0363 159.5664,78.4323 C159.7484,76.8073 160.0484,75.1953 160.2694,73.5733 C160.2894,73.4183 160.1134,73.1223 159.9704,73.0763 C158.8674,72.7263 157.7124,72.1053 156.6534,72.2323 C156.0944,72.2983 155.2344,73.7363 155.3024,74.4833 C155.5764,77.5373 156.0884,80.5783 156.6884,83.5903 C156.7874,84.0933 157.7034,84.6543 158.3284,84.7903 C160.1704,85.1913 165.3414,82.6413 166.2574,81.0233 C166.3224,80.9053 166.3684,80.7763 166.4134,80.6493 C166.8324,79.4783 164.7134,73.9943 163.1304,72.9693 M184.1034,95.0513 C184.4144,97.9263 186.6544,100.2653 186.0894,103.3233 C186.0624,103.4753 186.2784,103.6713 186.3804,103.8473 C187.9204,106.5073 189.9094,109.0283 188.9084,112.4473 C188.8234,112.7373 188.9014,113.2193 189.0994,113.4223 C191.0904,115.4673 190.3354,117.9903 190.3954,120.3823 C190.4344,121.9273 190.2384,123.6053 190.7694,124.9843 C192.1804,128.6543 192.6654,132.2033 190.8974,135.8753 C190.6684,136.3523 190.6064,137.2363 190.8904,137.5753 C192.0724,138.9863 191.9264,140.5743 191.8734,142.2143 C191.7754,145.2023 191.7224,148.1953 191.7504,151.1843 C191.7564,151.7783 192.2114,152.3663 192.4594,152.9573 C192.9204,152.5463 193.7094,152.1883 193.7874,151.7123 C194.1804,149.3373 194.4044,146.9323 194.6524,144.5333 C195.2844,138.4233 193.9194,132.4393 193.4374,126.4003 C193.3634,125.4773 192.8854,124.5893 192.6104,123.6803 C192.4364,123.0993 192.1684,122.5113 192.1524,121.9213 C192.0374,117.5803 191.9064,113.2373 191.9334,108.8963 C191.9424,107.3563 191.6544,106.1663 190.4474,105.1123 C189.7854,104.5333 189.1404,103.6033 189.0434,102.7673 C188.6504,99.3663 186.8134,96.9733 184.1034,95.0513 M153.5284,166.5163 C151.8624,168.7733 150.7334,170.5633 150.9114,173.2333 C151.0624,175.4913 150.1414,177.8203 149.7114,180.1203 C149.6124,180.6493 149.5344,181.1913 149.5354,181.7263 C149.5384,185.7373 149.3974,189.7593 149.6304,193.7573 C149.8644,197.7743 148.6054,201.7503 149.5314,205.7913 C149.7364,206.6863 149.0084,207.7913 148.7264,208.8033 C148.6484,209.0793 148.6264,209.3723 148.6034,209.5163 C149.6484,209.4013 151.1104,208.8973 151.3874,209.2703 C152.5034,210.7793 153.7884,212.1743 153.6694,214.4683 C153.5074,217.5963 153.4794,220.9133 154.3554,223.8633 C155.4254,227.4763 154.0014,229.9483 152.0064,232.3963 C150.8954,233.7593 150.4234,237.2433 151.5644,237.2803 C152.9484,237.3253 154.3894,236.4113 155.7514,235.7933 C156.0524,235.6563 156.2664,235.0213 156.2794,234.6083 C156.4004,230.8963 156.4544,227.1823 156.5594,223.4703 C156.6164,221.4323 156.8714,219.3953 155.2104,217.7223 C154.8744,217.3833 154.8794,216.5793 154.9284,216.0063 C155.2044,212.7543 155.8164,209.4523 152.2804,207.3173 C151.9244,207.1013 151.8104,206.0503 151.9914,205.5283 C152.1094,205.1883 152.9544,205.0563 153.4974,204.9263 C153.7874,204.8573 154.1264,204.9893 154.5944,205.0513 C154.6934,203.4563 154.8254,201.9873 154.8444,200.5173 C154.8474,200.2243 154.4644,199.7283 154.1814,199.6613 C152.5744,199.2863 152.4044,198.0903 152.5444,196.8173 C153.2014,190.8243 151.1454,184.6393 153.9004,178.7833 C154.4964,177.5163 154.6944,176.0603 155.1584,174.3963 C152.3254,172.8703 154.9054,169.4023 153.5284,166.5163 M166.7304,112.4623 L167.5214,112.4333 C167.6314,111.8183 167.7614,111.2053 167.8484,110.5873 C168.3474,107.0613 166.1504,104.0453 165.9664,100.6573 C165.9194,99.8053 165.9724,98.7553 166.4324,98.1293 C166.7784,97.6583 168.2654,97.3353 168.5244,97.6143 C169.4814,98.6463 170.6414,99.8923 170.8014,101.1733 C171.1084,103.6413 170.7234,106.1893 170.7594,108.7013 C170.7724,109.6043 170.9864,110.6023 171.4244,111.3813 C173.0184,114.2243 172.6834,117.2913 171.8644,120.0593 C171.2964,121.9813 171.2704,123.0593 172.8794,124.1733 C173.8934,124.8743 173.9674,125.7763 173.1974,126.8033 C171.4284,129.1673 170.4384,129.0583 169.0714,126.3973 C168.8494,125.9613 168.1544,125.5113 167.6934,125.5263 C167.2174,125.5413 166.3554,126.1263 166.3624,126.4453 C166.3954,127.7523 165.8924,129.3413 167.9374,129.9073 C168.5634,130.0803 169.4824,131.2883 169.3474,131.7613 C168.6184,134.3283 170.4774,135.9883 171.3184,137.9473 C172.5284,140.7643 172.4644,144.0483 174.8114,146.4933 C175.7274,147.4483 175.9844,149.1523 176.2504,150.5693 C176.3964,151.3413 175.9304,152.2293 175.7404,153.0643 C175.0464,152.5963 174.0174,152.2843 173.7154,151.6343 C172.2764,148.5403 171.0204,145.3613 169.7394,142.1963 C169.5164,141.6463 169.5254,141.0063 169.3584,140.4273 C169.1824,139.8133 168.9244,139.2233 168.7014,138.6223 C168.0714,139.0373 167.3014,139.3393 166.8564,139.9013 C166.4764,140.3783 166.1484,141.5783 166.3504,141.7323 C168.2844,143.2033 167.6304,145.2593 167.8884,147.1653 C168.2824,150.0823 169.0264,152.9523 169.6324,155.8403 C169.6584,155.9633 169.8014,156.0583 169.8524,156.1813 C170.6534,158.1643 171.3894,160.1793 172.2844,162.1193 C172.5474,162.6893 173.1904,163.2983 173.7774,163.4633 C176.0554,164.1063 178.3774,165.4533 180.6984,163.5193 C180.8224,163.4153 181.0964,163.4973 181.2994,163.4813 C183.7994,163.2743 184.8494,161.9883 184.8964,159.5013 C184.9164,158.4173 185.3254,157.3083 185.7154,156.2703 C186.7904,153.4033 188.3744,150.6533 188.9504,147.6983 C189.4984,144.8863 189.0434,141.8753 188.9994,138.9523 C188.9814,137.7303 189.1814,136.3953 188.7614,135.3123 C188.0454,133.4653 187.3324,131.6943 187.6524,129.6673 C187.6814,129.4893 187.5474,129.2793 187.4704,129.0923 C186.6304,127.0553 185.3754,125.0823 185.0494,122.9663 C184.6484,120.3643 184.6244,117.7693 183.6574,115.2073 C183.1254,113.7983 183.8204,111.9693 183.6544,110.3613 C183.5374,109.2313 183.0314,108.0813 182.4724,107.0663 C180.4894,103.4633 177.8204,100.1063 176.5794,96.2773 C175.7794,93.8113 174.5684,92.1533 172.8874,90.5213 C170.9934,88.6833 170.0734,88.6383 167.8564,89.8463 C166.9784,90.3233 165.8494,90.5513 164.8414,90.5313 C162.6324,90.4883 159.1934,92.4903 158.1484,94.3913 C157.7094,95.1893 156.7284,95.6713 156.0774,96.3743 C155.2954,97.2183 154.1084,98.0743 153.9684,99.0503 C153.6104,101.5513 152.4684,103.4863 150.8604,105.3103 C150.2674,105.9843 149.8434,106.8763 149.5624,107.7403 C148.9254,109.6973 148.7554,111.8833 147.7824,113.6343 C146.6704,115.6373 146.4904,117.3803 147.6914,119.4473 L145.2594,119.4473 C145.3854,120.3373 145.2544,121.2643 145.6464,121.8283 C146.6504,123.2773 146.9624,124.7583 146.6404,126.4563 C146.5714,126.8193 146.7234,127.2693 146.8914,127.6233 C148.1154,130.2053 148.1074,130.1533 145.2264,131.2993 C144.8114,131.4653 144.2974,132.5733 144.4644,132.8273 C145.7174,134.7283 145.0264,137.0773 146.3854,139.1813 C147.3584,140.6883 147.7604,142.7483 149.2094,144.2463 C149.5884,144.6383 149.5504,146.0853 149.1574,146.4363 C148.2884,147.2133 147.0804,146.9873 146.6704,145.7913 C145.6294,142.7583 144.7934,139.6533 143.7934,136.6053 C143.5944,135.9983 143.1024,135.1473 142.6124,135.0453 C141.4954,134.8143 139.3074,137.9413 140.0284,138.7483 C141.9744,140.9263 140.8134,142.6203 139.4504,144.2893 C138.3584,145.6293 138.5664,146.2303 140.1754,146.9313 C142.5114,147.9473 145.1404,148.8253 146.2944,151.3813 C148.0404,155.2483 150.9334,157.3953 155.0834,158.0143 C155.5574,158.0853 156.2304,158.4653 156.3674,158.8583 C157.0084,160.6803 157.9384,162.5513 157.9594,164.4143 C158.1044,177.3323 158.0784,190.2523 158.0034,203.1703 C157.9964,204.2423 157.3874,205.4313 156.7464,206.3473 C156.0784,207.3023 155.5604,208.2433 156.5114,209.0323 C158.1244,210.3703 158.1354,212.0413 158.0234,213.8423 C157.9344,215.2673 157.8364,216.6963 157.8764,218.1213 C157.8894,218.5713 158.2404,219.1583 158.6184,219.3963 C158.8354,219.5323 159.4644,219.1613 159.8214,218.9013 C160.7484,218.2243 160.9274,217.4803 160.0844,216.5073 C159.7634,216.1363 159.8254,215.4353 159.7124,214.8843 C160.2594,214.9293 160.8204,214.9133 161.3484,215.0373 C161.7954,215.1433 162.2094,215.5883 162.6294,215.5773 C165.8834,215.4923 169.2624,215.8343 172.3474,215.0463 C175.0964,214.3433 177.0264,214.9953 179.0964,216.4053 C180.6114,217.4383 181.9374,217.0573 182.3374,215.2613 C182.8904,212.7833 182.9834,210.2033 183.5414,207.7283 C184.1314,205.1063 181.2554,202.6503 183.2964,200.0203 C183.3634,199.9333 183.2004,199.6423 183.1104,199.4643 C182.4074,198.0803 181.8144,196.6233 180.9644,195.3343 C179.1284,192.5493 176.9524,189.9713 175.2914,187.0913 C172.6224,182.4653 171.0244,177.3513 169.2704,172.3273 C169.1244,171.9113 169.5924,171.2813 169.7754,170.7513 C170.2414,170.9483 170.9034,171.0173 171.1334,171.3683 C171.6414,172.1443 171.9534,173.0523 172.3054,173.9223 C173.0584,175.7863 173.7404,177.6793 174.5324,179.5263 C175.5654,181.9333 176.6754,184.3073 177.7514,186.6953 C178.6454,188.6813 179.4004,190.7473 180.5134,192.6003 C180.8404,193.1443 182.1794,193.0793 183.0544,193.2943 C183.2314,192.5643 183.5144,191.8403 183.5574,191.1023 C183.6104,190.1623 183.5144,189.2063 183.4054,188.2663 C183.0974,185.5833 184.3764,182.6863 182.3084,180.1893 C182.1884,180.0433 183.1984,178.9613 183.6824,178.3163 C184.0554,178.7493 184.5774,179.1253 184.7754,179.6283 C185.5774,181.6703 185.1804,183.7313 185.1024,185.8763 C184.7924,194.4193 185.0284,202.9833 185.0224,211.5383 C185.0224,212.2463 184.7464,212.9613 184.5534,213.6603 C184.1604,215.0833 183.6864,216.4853 183.3624,217.9213 C183.2854,218.2673 183.6704,218.7163 183.8424,219.1183 C184.1924,218.9033 184.5504,218.6983 184.8924,218.4693 C185.5654,218.0173 186.1754,217.2773 186.9044,217.1363 C190.2414,216.4923 191.6074,213.2973 189.7234,210.3553 C189.4894,209.9903 189.2064,209.2603 189.3544,209.1143 C190.8994,207.5943 190.3114,206.2973 189.1764,204.8843 C188.8454,204.4743 188.8604,203.7143 188.8644,203.1163 C188.9084,196.8603 189.0294,190.6033 188.9964,184.3473 C188.9914,183.3663 188.6024,182.0883 187.9184,181.4633 C185.5914,179.3373 185.4784,176.8243 185.8804,173.9853 C186.1724,171.9273 186.2234,169.8113 186.1384,167.7303 C186.0644,165.8903 184.8014,165.3263 182.9774,165.9363 C182.0334,166.2513 181.0114,166.3383 180.0184,166.4903 C179.3674,166.5903 178.4994,166.3793 178.0914,166.7303 C177.0164,167.6533 176.1914,167.4273 175.2074,166.6713 C174.8684,166.4113 174.3174,166.4203 173.8604,166.3203 C171.0554,165.7133 168.2404,165.1443 165.4454,164.4883 C164.1394,164.1823 162.8144,163.8333 161.6064,163.2693 C160.8544,162.9173 160.2054,162.2003 159.7124,161.5043 C159.4834,161.1833 159.5464,160.3383 159.8164,160.0573 C160.1704,159.6893 160.9634,159.3593 161.3864,159.5113 C163.2584,160.1873 165.0434,161.1023 166.9094,161.7953 C167.5084,162.0173 168.2614,161.8213 168.9434,161.8183 C168.8944,161.0803 168.9474,160.3183 168.7724,159.6113 C168.5064,158.5493 168.0474,157.5363 167.7354,156.4843 C167.4884,155.6473 167.3344,154.7823 167.1494,153.9283 C166.7784,152.2213 166.3924,150.5173 166.0554,148.8033 C165.5494,146.2283 165.0804,143.6453 164.5144,140.6313 C162.8624,143.5533 161.4604,146.0323 159.9224,148.7533 C161.9984,148.8103 163.9634,151.1253 163.6144,152.5323 C163.5224,152.9093 163.0784,153.3843 162.7114,153.4763 C161.3394,153.8203 160.9774,154.6573 160.8464,155.9943 C160.7764,156.7033 159.9624,157.8203 159.3684,157.9013 C157.9904,158.0873 157.8984,156.8883 157.9174,155.7883 C157.9654,153.0693 157.9194,150.3463 158.0344,147.6303 C158.0684,146.8033 158.3944,145.9373 158.7754,145.1873 C160.6294,141.5493 163.0204,138.2423 162.4234,133.6463 C162.1494,131.5283 163.5694,129.1913 164.2144,126.9513 C164.5004,125.9563 164.9094,124.9713 165.0154,123.9563 C165.2454,121.7403 165.5394,119.4733 163.8984,117.5553 C163.7474,117.3793 163.7664,117.0333 163.7584,116.7653 C163.6984,114.7323 163.5564,112.6933 163.6564,110.6663 C163.6884,110.0253 164.3784,109.4163 164.7674,108.7923 C165.2534,109.3593 165.8434,109.8683 166.1944,110.5103 C166.5104,111.0853 166.5624,111.8063 166.7304,112.4623 M160.1214,253.9713 C160.5044,254.5133 160.7404,254.8253 160.9544,255.1533 C161.8104,256.4583 161.3384,257.7053 159.8204,257.7533 C156.4224,257.8603 152.9974,258.0323 149.6284,257.7133 C148.1084,257.5693 146.7284,256.6203 145.1784,257.7303 C144.9774,257.8733 144.1134,257.2953 143.7014,256.9013 C142.3254,255.5863 140.8934,254.2983 139.7244,252.8103 C139.0254,251.9203 138.6444,250.7103 138.3694,249.5833 C138.1174,248.5483 138.7464,248.1243 139.8474,247.9013 C142.0774,247.4473 144.3584,246.9523 146.4054,246.0123 C147.4574,245.5293 148.0524,244.0493 148.9484,242.8973 C149.4804,243.6463 149.9524,244.3123 150.7034,245.3713 C151.2314,243.4793 151.7044,242.0593 151.9634,240.6003 C152.0104,240.3323 151.2304,239.8213 150.7514,239.5783 C149.9294,239.1613 148.3524,238.9353 148.3114,238.5103 C148.1604,236.9573 148.5094,235.3563 148.6894,233.7753 C148.7014,233.6673 148.8744,233.5833 148.9574,233.4763 C151.7914,229.8193 151.7904,229.7153 148.7204,225.5413 C147.9944,227.2913 146.3984,228.4713 147.7744,230.6813 C148.7884,232.3103 147.8594,233.8123 146.1924,233.9863 C144.8484,234.1263 144.0464,233.5993 144.0394,232.2193 C144.0194,227.8013 143.9144,223.3773 144.1324,218.9703 C144.1964,217.6473 144.9944,216.1943 145.8664,215.1393 C146.3744,214.5253 147.6954,214.5813 148.9844,214.2503 C148.2054,213.7073 147.5114,213.1903 146.7824,212.7243 C144.8044,211.4573 144.6494,210.4713 145.9734,208.6073 C146.4124,207.9883 146.7644,207.1473 146.7664,206.4053 C146.7884,198.2483 146.7274,190.0913 146.7104,181.9343 C146.7094,181.2673 146.6354,180.4043 146.9984,179.9663 C148.9374,177.6213 147.9574,174.8903 148.2294,172.3243 C148.3504,171.1903 148.5944,169.9873 149.1204,168.9963 C149.9494,167.4383 150.0084,165.3093 148.9064,163.9133 C147.8594,165.3543 146.8524,166.8123 145.7684,168.2123 C144.6394,169.6703 143.4274,169.6803 142.2384,168.2423 C140.9924,166.7353 139.5964,165.8833 137.4574,166.3613 C135.7134,166.7503 134.7854,165.2883 134.0314,163.9923 C133.8534,163.6853 134.1014,162.8213 134.4184,162.6073 C134.8404,162.3223 135.6314,162.1983 136.0674,162.4103 C136.8394,162.7833 137.4264,163.5213 138.1654,163.9863 C138.5034,164.1983 139.0194,164.1263 139.4544,164.1833 C139.5064,163.7423 139.7314,163.2323 139.5834,162.8733 C138.3964,159.9843 136.3564,157.9083 133.4184,156.7853 C132.2414,156.3353 131.4774,156.8493 131.4874,158.0603 C131.4984,159.2673 131.8664,160.4683 131.9164,161.6783 C131.9414,162.2583 131.5944,162.8543 131.4154,163.4433 C130.9574,163.1423 130.4174,162.9183 130.0574,162.5283 C128.9264,161.2993 128.3274,160.1383 129.6874,158.4693 C130.1624,157.8853 129.7764,156.2473 129.3164,155.3253 C128.4264,153.5453 128.5214,152.4253 130.1044,151.3493 C131.0644,150.6973 131.7224,150.8343 132.5384,151.7403 C133.5894,152.9083 135.0694,153.7033 136.0654,154.9063 C137.9834,157.2233 141.1714,158.5763 141.4754,162.1903 C141.5424,162.9893 142.5064,164.1643 143.2484,164.3353 C144.0194,164.5133 145.1984,163.8753 145.8844,163.2483 C147.0664,162.1703 148.0804,160.8753 148.9884,159.5503 C149.1924,159.2523 148.7554,158.0163 148.4704,157.9623 C146.4344,157.5763 145.5534,156.1743 144.8784,154.4433 C144.6384,153.8263 144.1994,153.2673 143.7714,152.7463 C142.1864,150.8193 141.0604,150.9733 140.0664,153.2203 C139.9014,153.5913 139.8274,154.1783 139.5554,154.2933 C138.8774,154.5773 138.1084,154.6473 137.3774,154.8033 C137.3064,154.1413 136.9204,153.1663 137.2164,152.8663 C139.1254,150.9363 138.0674,149.7123 136.4814,148.3643 C134.6534,146.8123 134.9674,143.7533 136.9604,142.5843 C138.5224,141.6673 138.9274,140.0283 137.7534,138.6773 C137.0724,137.8933 137.0714,137.4263 137.6754,136.6023 C139.0674,134.6993 140.3974,132.7393 141.5794,130.7023 C141.9314,130.0973 142.0104,128.9953 141.6894,128.4063 C140.9354,127.0183 140.9664,126.1093 142.5484,125.5373 C144.2284,124.9313 144.1394,123.9083 143.2184,122.6973 C142.1284,121.2633 142.0364,119.8673 143.2724,118.4453 C143.5704,118.1013 143.8474,117.6173 143.8784,117.1803 C144.2754,111.6743 147.0164,107.0593 149.3904,102.2863 C150.1564,100.7433 150.4974,98.9933 151.1774,97.4003 C151.4354,96.7953 152.0824,96.3473 152.5804,95.8553 C153.4604,94.9853 154.5594,94.2633 155.2144,93.2513 C156.7114,90.9413 158.1944,88.8363 161.4254,89.1953 C161.9744,89.2563 162.5674,88.8493 163.1504,88.6973 C164.4264,88.3663 165.7144,88.0853 166.9834,87.7363 C167.7174,87.5333 168.8254,87.4253 169.0514,86.9413 C169.4104,86.1733 169.2384,85.1163 169.1054,84.2093 C169.0874,84.0903 167.8804,83.9183 167.3834,84.1353 C164.8514,85.2413 162.4764,86.8593 159.8494,87.5593 C156.1354,88.5493 154.8394,86.9993 153.5974,83.4583 C152.4224,80.1113 152.3154,76.8543 152.4984,73.4723 C152.5384,72.7433 152.6064,71.8983 152.9894,71.3273 C154.6474,68.8623 153.9144,66.2283 153.7624,63.6123 C153.6774,62.1683 153.7444,60.7133 153.7734,59.2643 C153.8034,57.7023 153.9204,56.1403 153.9014,54.5793 C153.8824,52.9043 154.7044,52.1583 156.2894,52.3253 C158.2264,52.5293 159.9324,52.1373 161.7894,51.4323 C163.4514,50.8023 165.5404,51.1213 167.4184,51.2893 C168.9924,51.4293 170.2234,51.1023 171.2314,49.8933 C171.4444,49.6363 171.7204,49.4123 172.0044,49.2343 C173.2254,48.4663 174.5194,47.5263 175.8964,48.7373 C177.2204,49.9023 176.1934,51.1023 175.6324,52.2263 C174.3644,54.7603 174.4934,55.4073 176.3954,57.4283 C176.9684,58.0373 177.7064,58.9193 177.6514,59.6193 C177.3804,63.0583 179.1034,65.4863 181.1714,67.9143 C181.8144,68.6693 182.0164,69.9963 182.0204,71.0633 C182.0344,75.2103 184.0424,78.2163 186.9274,80.9803 C188.3944,82.3843 189.4764,84.2723 190.4394,86.0963 C191.3614,87.8453 191.6844,89.9243 192.6774,91.6183 C193.6684,93.3083 193.4504,94.4223 191.9154,95.3733 C190.1334,96.4783 190.1534,97.4553 191.2514,99.3253 C193.2734,102.7693 195.5674,106.2493 194.6884,110.7083 C194.4654,111.8353 195.1534,113.1463 195.4394,114.3673 C195.6364,115.2113 196.0254,116.0453 196.0374,116.8893 C196.0784,119.4713 195.9774,122.0553 195.9394,124.6393 C195.9344,124.9763 195.8524,125.4003 196.0154,125.6403 C198.3714,129.1133 196.8874,133.0313 197.3584,136.7173 C197.4834,137.6883 197.8504,138.6313 198.1444,139.5743 C198.2214,139.8233 198.5904,140.0393 198.5724,140.2493 C198.3444,142.9953 199.2264,145.8013 197.9714,148.5113 C197.5204,149.4863 197.5544,150.6843 197.3494,151.7783 C197.1324,152.9343 196.8894,154.0863 196.6664,155.2413 C196.5154,156.0263 196.4014,156.8193 196.2304,157.5983 C196.0014,158.6343 196.0044,159.8633 195.4224,160.6493 C194.2854,162.1823 194.5214,163.2753 195.9724,164.2253 C198.5684,165.9263 199.2394,168.3603 198.9524,171.2873 C198.8134,172.7133 198.4194,173.6753 196.7694,173.5363 C195.0714,173.3943 194.8174,174.4673 194.6324,175.8363 C194.4594,177.1123 193.8124,178.3233 193.6424,179.5993 C193.4214,181.2513 193.5414,182.9463 193.3704,184.6093 C193.2734,185.5583 192.9004,186.4813 192.6284,187.4083 C192.4064,188.1653 191.9364,188.9133 191.9424,189.6623 C192.0114,197.4103 192.2014,205.1573 192.2554,212.9053 C192.2754,215.9573 192.0104,219.0103 191.9324,222.0643 C191.9094,222.9303 191.8184,223.9723 192.2334,224.6353 C193.1064,226.0263 194.0664,227.2123 192.3564,228.6393 C192.1944,228.7743 192.1894,229.4003 192.3514,229.5703 C194.5244,231.8693 192.9424,234.6533 193.3784,237.1643 C193.7314,239.1963 194.1284,241.2203 194.4654,243.2543 C194.5824,243.9633 194.7374,244.7253 194.5984,245.4053 C194.3064,246.8293 193.8644,248.2273 193.4054,249.6093 C193.2744,250.0033 192.9344,250.5003 192.5774,250.6223 C189.8814,251.5433 187.7204,252.9823 186.2714,255.5903 C185.2584,257.4153 183.5134,258.1613 181.2324,257.8693 C179.2344,257.6123 177.3244,257.6713 175.3564,256.7133 C173.2664,255.6963 170.7764,255.4653 168.4394,255.0113 C166.9554,254.7223 165.5594,253.0763 165.3034,250.9833 C165.2454,250.5123 165.4034,249.9573 165.2054,249.5753 C164.8894,248.9663 164.4424,248.3283 163.8794,247.9843 C163.5894,247.8063 162.5994,248.1273 162.5024,248.4153 C162.2984,249.0273 162.2144,249.9423 162.5394,250.4193 C163.6384,252.0293 162.8614,252.7633 161.4584,253.3593 C161.0964,253.5123 160.7424,253.6863 160.1214,253.9713" id="Fill-3"></path>
                <path d="M11.2173,179.598201 C11.4963,177.4472 11.7263,175.4782 12.0163,173.5182 C12.1733,172.4592 12.5963,171.4202 12.6203,170.3662 C12.6913,167.2692 12.3673,164.1952 13.8483,161.2142 C14.4623,159.9792 14.0543,158.2682 14.3113,156.8092 C14.4163,156.2022 14.9413,155.4222 15.4693,155.2142 C15.9153,155.0382 16.9863,155.4292 17.1563,155.8322 C17.3703,156.3362 16.9813,157.1212 16.7863,157.7662 C16.4883,158.7512 15.9213,159.7042 15.8523,160.6992 C15.7323,162.4432 16.0263,164.1872 14.7173,165.7102 C14.3083,166.1872 14.3473,167.1182 14.3223,167.8452 C14.2163,171.0272 14.1133,174.2092 14.1083,177.3922 C14.1063,178.9632 13.3893,179.5992 11.2173,179.598201" id="Fill-5"></path>
                <path d="M62.2085,97.3999 C62.2085,95.5089 62.1155,93.8229 62.2645,92.1579 C62.3105,91.6429 63.0115,91.1859 63.4125,90.7029 C63.8665,91.1279 64.5595,91.4709 64.7345,91.9899 C65.5735,94.4689 64.8125,96.1199 62.2085,97.3999" id="Fill-7"></path>
                <path d="M81.4468,58.2652 C81.9358,57.4902 82.4168,56.0692 82.9158,56.0622 C84.3148,56.0422 84.9148,57.2412 84.8958,58.6022 C84.8798,59.8982 85.3078,61.8692 83.5668,61.9212 C81.5838,61.9802 81.7508,60.0212 81.4468,58.2652" id="Fill-9"></path>
                <path d="M40.0659,88.6646 C40.4889,88.3126 41.0409,87.6746 41.1919,87.7586 C42.0649,88.2426 43.0379,88.7636 43.5809,89.5456 C43.9009,90.0076 43.4899,90.9766 43.4079,91.7176 C42.9459,91.5796 42.3389,91.5786 42.0499,91.2756 C41.3629,90.5546 40.8259,89.6886 40.0659,88.6646" id="Fill-11"></path>
                <path d="M75.0649,179.3267 C74.8739,181.1237 74.8809,182.6137 73.1039,182.9297 C72.6689,183.0067 71.6749,182.3477 71.6679,182.0107 C71.6189,179.9707 73.4249,180.0677 75.0649,179.3267" id="Fill-13"></path>
                <path d="M160.6616,166.938 C161.6216,167.647 162.9666,168.388 162.6856,170.413 C162.5706,171.243 162.8746,172.135 163.0156,172.995 C163.2546,174.443 163.5316,175.884 163.7616,177.334 C163.8656,177.999 163.6686,178.824 163.9946,179.323 C165.8806,182.205 165.1646,185.283 164.9446,188.363 C164.8826,189.239 165.3926,190.146 165.5786,191.051 C165.8646,192.455 166.3456,193.88 166.2826,195.275 C166.2246,196.566 166.1126,197.637 167.1996,198.586 C167.6046,198.939 168.0266,199.732 167.8976,200.161 C167.1196,202.746 168.9646,204.511 169.7076,206.623 C170.3996,208.589 170.9436,210.608 171.2076,212.743 C168.8806,212.049 168.5426,210.018 167.9296,208.339 C166.8556,205.406 165.9126,202.405 165.1966,199.366 C164.4936,196.377 164.1376,193.307 163.6386,190.271 C163.5406,189.677 163.7106,188.88 163.3826,188.509 C161.8946,186.831 162.0856,184.918 162.2666,182.935 C162.4026,181.462 162.5096,179.989 161.2546,178.761 C160.8596,178.375 160.8316,177.507 160.8156,176.856 C160.7316,173.532 160.7066,170.207 160.6616,166.938" id="Fill-15"></path>
            </g>
        </g>
    </g>
</svg>