<?xml version="1.0" encoding="UTF-8"?>
<svg width="140px" height="162px" viewBox="0 0 140 162" version="1.1" xmlns="http://www.w3.org/2000/svg" xmlns:xlink="http://www.w3.org/1999/xlink">
    <!-- Generator: Sketch 60 (88103) - https://sketch.com -->
    <title>figure53</title>
    <desc>Created with Sketch.</desc>
    <defs>
        <polygon id="path-1" points="0.800565719 0.613 44.1349 0.613 44.1349 134.016486 0.800565719 134.016486"></polygon>
    </defs>
    <g id="页面-1" stroke="none" stroke-width="1" fill="none" fill-rule="evenodd">
        <g id="29-44" transform="translate(-153.000000, -778.000000)">
            <g id="figure53" transform="translate(153.000000, 777.000000)">
                <path d="M54.4341,60.4619 C54.2471,60.4709 54.0611,60.4799 53.8741,60.4889 C53.9141,61.1749 53.9551,61.8609 53.9971,62.5479 C54.1421,62.5389 54.2881,62.5309 54.4341,62.5219 L54.4341,60.4619 Z M53.5261,49.2379 C52.7021,50.2949 52.7691,50.8159 53.5261,51.3149 L53.5261,49.2379 Z M63.8401,57.1259 C63.0991,55.6589 62.2381,55.2169 61.0291,55.6099 C60.7711,55.6939 60.4231,56.0969 60.4501,56.3109 C60.4861,56.6029 60.8191,57.0609 61.0651,57.0879 C61.9241,57.1839 62.8001,57.1259 63.8401,57.1259 L63.8401,57.1259 Z M89.2751,134.5659 C89.2261,134.3499 89.2591,133.8319 89.0181,133.5359 C88.1541,132.4739 85.6101,132.1059 83.7891,132.8839 C84.5241,133.3549 85.0511,133.8879 85.6731,134.0479 C86.7701,134.3309 87.9241,134.3859 89.2751,134.5659 L89.2751,134.5659 Z M56.7341,66.4269 C56.9261,66.4389 57.1181,66.4499 57.3091,66.4609 C57.6461,65.7969 58.1331,65.1649 58.2821,64.4609 C58.4721,63.5549 57.9511,62.4939 58.9471,61.7629 C59.0321,61.7009 59.0221,61.3049 58.9391,61.2529 C58.3781,60.9039 57.7851,60.6069 57.2031,60.2929 C57.0341,60.7589 56.8291,61.2159 56.7111,61.6939 C56.6401,61.9889 56.7191,62.3169 56.7051,62.6289 C56.6671,63.4579 56.9471,64.3409 56.1151,65.0309 C56.0081,65.1189 56.5131,65.9439 56.7341,66.4269 L56.7341,66.4269 Z M64.4751,158.7939 C64.4861,158.9289 64.4971,159.0649 64.5081,159.1999 C65.4211,159.5139 66.3321,159.8369 67.2521,160.1309 C67.3761,160.1709 67.5481,160.0779 67.6941,160.0349 C68.3801,159.8309 69.1161,159.7189 69.7371,159.3899 C70.3581,159.0609 70.9201,158.5629 71.3851,158.0309 C71.5261,157.8699 71.2801,157.3419 71.1671,156.9949 C70.9671,156.3739 70.7351,155.7629 70.5161,155.1479 C70.4061,154.8349 70.3501,154.2989 70.1741,154.2549 C69.8101,154.1669 69.3261,154.2389 68.9911,154.4239 C67.5251,155.2369 66.1461,156.1849 64.3151,155.9919 C63.1561,155.8699 61.9661,156.0359 60.8031,155.9339 C60.2441,155.8839 59.6281,155.6159 59.1871,155.2619 C58.4961,154.7089 57.9891,153.8069 57.0271,154.9089 C56.8771,155.0809 56.4201,154.9499 56.1271,155.0369 C55.6341,155.1829 55.1721,155.4619 54.6721,155.5519 C54.0901,155.6579 53.4701,155.7029 52.8871,155.6209 C52.3481,155.5449 51.8491,155.1579 51.3111,155.1019 C50.3431,155.0009 49.3561,155.0949 48.3851,155.0119 C47.5091,154.9379 46.6441,154.7339 45.3971,154.5249 C45.0451,154.8949 44.2321,155.5049 43.7801,156.3169 C43.4981,156.8219 43.7651,157.6309 43.7861,158.3029 C44.5281,158.2669 45.2841,158.3049 46.0091,158.1749 C46.7331,158.0449 47.4151,157.6899 48.1381,157.5519 C48.4011,157.5019 48.7281,157.7939 49.0261,157.9289 C48.8721,158.2479 48.7981,158.6789 48.5451,158.8619 C47.9271,159.3099 47.2271,159.6429 46.4201,160.1009 C46.7581,160.2559 46.9721,160.4509 47.1381,160.4169 C48.9141,160.0499 50.7981,159.8989 52.4081,159.1559 C53.2961,158.7469 54.0811,158.5679 54.9911,158.4609 C55.5581,158.3939 56.1101,158.1049 56.6431,157.8579 C57.3601,157.5269 58.0401,157.1159 58.7631,156.7969 C58.9121,156.7319 59.1871,156.8969 59.3801,156.9999 C60.1991,157.4329 61.0081,157.8829 61.8271,158.3309 C62.5761,156.4169 62.5371,156.5109 64.4261,157.2919 C65.0741,157.5589 65.9741,157.2549 66.7511,157.1549 C67.3501,157.0779 67.9381,156.8439 68.5311,156.8429 C68.6541,156.8419 68.9841,157.8019 68.8651,157.9039 C68.4141,158.2869 67.8281,158.5239 67.2701,158.7639 C67.0701,158.8499 66.8061,158.7929 66.5721,158.7929 C65.8721,158.7949 65.1731,158.7939 64.4751,158.7939 L64.4751,158.7939 Z M45.0671,162.3869 C44.7701,161.0339 44.1841,160.7279 43.1561,161.3899 C42.3261,161.9229 41.4551,161.5179 41.4041,160.5289 C41.3541,159.5929 41.3501,158.6499 41.4131,157.7159 C41.4361,157.3659 41.6401,156.9809 41.8711,156.7009 C42.2901,156.1939 42.8051,155.7679 43.2551,155.2849 C44.1731,154.2999 43.9761,153.4419 42.6511,153.2369 C41.4631,153.0529 41.3091,152.3939 41.3461,151.4379 C41.3821,150.5009 41.3251,149.5579 41.4121,148.6269 C41.4551,148.1619 41.7231,147.7159 41.9071,147.2689 C41.9491,147.1669 42.1031,147.1059 42.1311,147.0049 C42.5171,145.6079 42.8931,144.2099 43.2631,142.8089 C43.3221,142.5849 43.2501,142.2429 43.3831,142.1349 C44.8611,140.9339 43.9841,139.2969 44.2181,137.8709 C44.3361,137.1549 44.5141,136.4499 44.7281,135.4379 C44.3941,135.0799 44.0281,134.4179 45.0161,133.7599 C45.1721,133.6559 45.1731,133.2569 45.1751,132.9929 C45.1891,131.6649 45.1441,130.3349 45.1911,129.0069 C45.2181,128.2169 44.9481,127.8609 44.1361,127.8289 C43.0421,127.7839 41.8391,128.0869 41.0141,126.9689 C40.9201,126.8419 40.5561,126.9439 40.3401,126.8719 C39.2401,126.5059 38.1221,126.1739 37.0721,125.6959 C36.8301,125.5869 36.6931,124.9279 36.7561,124.5649 C36.8071,124.2749 37.2051,124.0039 37.5051,123.8149 C37.6771,123.7059 37.9791,123.7179 38.1941,123.7779 C39.7231,124.2039 40.7561,122.9439 42.0731,122.6479 C42.4791,122.5559 43.0611,122.0289 43.1931,122.1399 C43.7031,122.5699 44.0811,123.1639 44.4701,123.7239 C44.6361,123.9639 44.6311,124.3779 44.8371,124.5199 C45.0521,124.6699 45.5161,124.7119 45.7091,124.5739 C45.9381,124.4109 46.1041,124.0059 46.1071,123.7049 C46.1281,121.7499 46.0591,119.7949 46.1101,117.8409 C46.1231,117.3119 46.4501,116.7899 46.6311,116.2639 C46.7531,115.9089 46.9661,115.5549 46.9771,115.1959 C47.0261,113.5169 47.0241,111.8359 47.0301,110.1549 C47.0331,109.2299 46.8561,108.2859 47.7441,107.5699 C47.9431,107.4099 47.9151,106.9149 47.9171,106.5729 C47.9411,103.0939 47.9211,99.6139 47.9881,96.1359 C47.9971,95.6269 48.4691,95.1429 48.5951,94.6149 C48.7031,94.1639 48.6851,93.6569 48.6041,93.1949 C48.5371,92.8179 48.2931,92.4719 48.1281,92.1109 C48.5021,92.2399 48.8761,92.3679 49.2491,92.4989 C49.3561,92.5359 49.4581,92.5819 49.7671,92.7059 C49.7981,92.2899 49.9401,91.9109 49.8261,91.6409 C49.5191,90.9159 49.2481,90.0729 48.6951,89.5799 C47.8711,88.8459 47.9701,88.0109 47.9671,87.1249 C47.9651,86.3429 47.9531,85.5609 47.9321,84.7799 C47.9251,84.5479 47.9611,84.2159 47.8301,84.1029 C46.6091,83.0509 47.0691,81.6499 47.0441,80.3739 C46.9961,77.8339 47.0211,75.2919 47.0281,72.7509 C47.0291,72.4039 46.9721,71.9019 47.1661,71.7389 C48.2231,70.8469 47.7421,69.6529 47.9431,68.5869 C48.1661,67.4039 48.6251,66.2619 49.0271,65.1179 C49.0811,64.9619 49.4301,64.7779 49.5841,64.8199 C49.8031,64.8809 50.1421,65.1559 50.1261,65.3089 C50.0491,66.0909 49.9041,66.8709 49.7201,67.6359 C49.6261,68.0289 49.2601,68.3909 49.2581,68.7679 C49.2251,73.8489 49.2311,78.9309 49.2381,84.0129 C49.2381,84.5789 49.1071,85.2849 50.0431,85.2399 C50.9301,85.1969 50.8121,84.5429 50.8011,83.9509 C50.7841,82.9939 50.5681,82.0109 51.5511,81.2809 C51.7841,81.1079 51.6901,80.4829 51.7291,80.0649 C51.8431,78.8409 51.2631,77.4719 52.5691,76.4839 C52.7081,76.3789 52.5451,75.5569 52.2891,75.3049 C51.5111,74.5369 51.4611,73.8989 52.2421,73.1079 C52.5031,72.8429 52.6451,72.3689 52.6681,71.9799 C52.7251,71.0849 52.7501,70.1739 52.6411,69.2879 C52.5681,68.6909 52.1811,68.1379 52.0471,67.5409 C51.8811,66.8029 51.7991,66.0399 51.7701,65.2849 C51.7661,65.1869 52.3011,64.9619 52.5681,64.9879 C52.8371,65.0149 53.0841,65.2799 53.4131,65.4859 C53.9181,64.5819 53.7071,64.1609 52.7511,63.9979 C51.7411,63.8239 51.6721,63.5289 52.2341,62.7149 C52.4451,62.4089 52.6461,61.8459 52.5041,61.6119 C52.3431,61.3489 51.7861,61.2099 51.4101,61.2259 C50.9981,61.2429 50.2631,61.4689 50.2461,61.6569 C50.1021,63.2029 48.6171,63.6759 47.9101,64.7489 C47.7431,65.0029 47.4351,65.1949 47.3481,65.4659 C46.9691,66.6449 46.7251,67.8719 46.2871,69.0259 C45.7921,70.3279 45.1211,71.5619 44.5781,72.8469 C44.4501,73.1489 44.5031,73.5359 44.5041,73.8839 C44.5051,74.8049 44.7271,75.7659 43.7541,76.4309 C43.5721,76.5569 43.5551,77.0019 43.5521,77.2999 C43.5411,78.5119 43.5501,79.7249 43.5801,80.9359 C43.6001,81.6929 43.6151,82.3969 42.8831,82.9229 C42.6701,83.0769 42.6181,83.5549 42.6171,83.8839 C42.6001,89.0049 42.6031,94.1269 42.6071,99.2479 C42.6081,99.4779 42.5771,99.8179 42.7061,99.9209 C44.0781,101.0059 43.4291,102.4989 43.5611,103.8369 C43.6001,104.2329 43.7981,104.6159 43.9371,105.0009 C44.1241,105.5199 44.4281,106.0209 44.4981,106.5539 C44.6631,107.8079 44.2071,109.0749 45.2721,110.2859 C45.7661,110.8489 45.4491,112.1599 45.3981,113.1269 C45.3901,113.2709 44.6461,113.5749 44.5451,113.4819 C43.9441,112.9189 43.1891,112.4639 43.2331,111.4069 C43.2551,110.8749 42.8671,110.3249 42.6561,109.7849 C42.6291,109.7159 42.5311,109.6719 42.5131,109.6039 C42.1481,108.2059 41.7871,106.8059 41.4311,105.4049 C41.3661,105.1459 41.4221,104.7429 41.2661,104.6359 C40.1711,103.8849 40.4681,102.7759 40.4661,101.7539 C40.4551,94.9129 40.4451,88.0709 40.4791,81.2289 C40.4821,80.7109 40.8531,80.1979 41.0251,79.6739 C41.1751,79.2169 41.3571,78.7539 41.4001,78.2829 C41.5131,77.0409 41.0311,75.6909 42.2221,74.6649 C42.4121,74.5019 42.3031,74.0009 42.3471,73.6579 C42.3961,73.2769 42.3271,72.7069 42.5441,72.5539 C43.5141,71.8709 43.2081,70.9169 43.2991,70.0109 C43.3561,69.4459 43.6661,68.8989 43.9041,68.3609 C44.3131,67.4349 44.7231,66.5059 45.1901,65.6079 C45.7231,64.5819 46.2801,63.5639 46.9041,62.5919 C47.2131,62.1089 47.7511,61.7779 48.0921,61.3089 C48.7071,60.4619 49.0821,59.3389 49.8701,58.7439 C50.8801,57.9799 51.9831,57.1239 53.4081,57.1459 C53.9781,57.1549 54.6451,57.1349 54.5451,56.3739 C54.5061,56.0739 53.9291,55.7269 53.5361,55.6139 C52.6371,55.3559 52.5871,55.0919 53.3881,53.9999 C53.3551,53.9079 53.3491,53.7489 53.2741,53.7029 C51.6781,52.7129 51.4971,51.1959 51.6541,49.5209 C51.7261,48.7449 51.6851,47.9589 51.7151,47.1779 C51.7261,46.9089 51.6981,46.5119 51.8541,46.3959 C53.0681,45.4929 52.6101,44.2129 52.6541,43.0569 C52.6891,42.1199 52.6721,41.1799 52.6541,40.2419 C52.6381,39.4919 52.6111,38.7949 53.3261,38.2409 C53.5771,38.0459 53.6061,37.4629 53.6011,37.0599 C53.5681,34.6259 53.5551,34.6259 56.0301,34.6259 C57.1241,34.6259 58.2191,34.6269 59.3141,34.6259 C60.0871,34.6239 60.7671,34.6149 61.4461,33.9759 C62.4101,33.0669 64.9091,34.0819 65.1141,35.4149 C65.1771,35.8239 64.8151,36.2999 64.6421,36.7429 C64.4971,37.1149 64.1971,37.5039 64.2451,37.8459 C64.2741,38.0629 64.8001,38.3169 65.1301,38.3649 C65.8841,38.4739 66.1101,38.9119 66.1031,39.5799 C66.0961,40.2839 66.0131,40.9979 66.1041,41.6879 C66.1731,42.2159 66.5331,42.7019 66.6381,43.2319 C66.8901,44.4969 68.2311,45.3419 67.9851,46.7869 C67.9461,47.0159 67.9971,47.3489 67.8631,47.4599 C66.6491,48.4629 67.6001,49.0359 68.2981,49.5919 C68.9141,50.0839 69.2171,50.7339 68.7621,51.3089 C68.2201,51.9939 67.7011,52.9829 66.5571,52.7229 C66.3381,52.6729 66.1981,52.1239 66.1041,51.7819 C66.0781,51.6889 66.4171,51.5349 66.4741,51.3689 C66.5891,51.0309 66.7891,50.5679 66.6501,50.3389 C66.5071,50.1029 65.9511,49.9209 65.6761,50.0139 C65.4201,50.0999 65.1981,50.5619 65.1391,50.8899 C65.0511,51.3819 65.1411,51.9019 65.1141,52.4089 C65.0981,52.7109 65.0761,53.0509 64.9281,53.2979 C64.3841,54.2129 64.7241,55.0729 65.8471,55.2369 C66.5901,55.3459 66.9891,55.5819 67.0391,56.3719 C67.0561,56.6239 67.2891,56.9319 67.5101,57.0879 C68.2141,57.5829 68.9541,58.0269 69.6901,58.4729 C70.3921,58.8979 71.2321,59.1789 71.7841,59.7449 C72.4191,60.3979 72.7301,61.3569 73.3191,62.0699 C74.4431,63.4329 75.5041,64.7889 75.4491,66.6849 C75.4441,66.8339 75.4661,67.0569 75.5621,67.1249 C76.6921,67.9249 76.3931,69.1159 76.4611,70.2179 C76.4821,70.5459 76.6631,70.8659 76.7791,71.1859 C76.9811,71.7449 77.2031,72.2969 77.3891,72.8609 C77.5081,73.2189 77.5621,73.5989 77.6761,73.9589 C77.8671,74.5569 78.0931,75.1429 78.2821,75.7409 C78.3631,75.9969 78.2911,76.3889 78.4521,76.5179 C79.5281,77.3839 79.2151,78.5639 79.2181,79.6639 C79.2211,80.4799 79.0461,81.3089 79.9211,81.8639 C80.0941,81.9749 80.1371,82.3509 80.1661,82.6119 C80.2041,82.9589 80.2411,83.3339 80.1501,83.6629 C79.8911,84.6069 80.7791,85.1319 80.8971,85.8359 C81.0001,86.4489 80.3231,87.1599 80.1481,87.8669 C80.0161,88.3989 80.1431,88.9209 80.9111,89.0619 C82.0601,89.2719 82.5361,90.9149 81.7811,91.8949 C80.7171,93.2749 80.7211,93.2639 82.2721,93.7949 C82.5021,93.8739 82.8481,94.1099 82.8531,94.2819 C82.8951,95.6559 83.9961,96.2799 84.8291,97.0349 C85.5841,97.7199 86.0621,98.2639 85.0291,99.0179 C86.4141,100.8189 86.2541,103.0949 85.5631,104.6099 C84.7921,106.2949 85.0941,107.8189 84.8491,109.3999 C84.7671,109.9319 84.4681,110.4309 84.2601,110.9419 C84.2331,111.0089 84.1221,111.0449 84.1031,111.1099 C83.7211,112.4639 83.2571,113.8039 83.0051,115.1829 C82.8431,116.0719 83.2141,117.0839 82.2081,117.7039 C82.1251,117.7559 82.0361,117.9269 82.0611,118.0069 C82.5111,119.4199 81.3331,120.3579 80.9831,121.5299 C80.6701,122.5729 79.9131,123.4829 79.2131,124.6899 C79.7921,124.6589 80.1791,124.7279 80.4891,124.6049 C81.1461,124.3419 81.9281,124.1239 82.3641,123.6269 C83.2811,122.5799 84.4111,122.8699 85.5061,122.8349 C86.3181,122.8089 87.0391,122.8189 87.7661,122.1769 C88.2081,121.7869 89.1651,121.9309 89.8881,121.9559 C90.0041,121.9599 90.2871,122.7939 90.1731,122.8989 C89.6781,123.3559 89.1011,123.7609 88.4891,124.0449 C87.1791,124.6539 85.8641,125.2909 84.4871,125.6999 C83.1631,126.0929 82.0891,127.2609 80.5001,126.9199 C80.0771,126.8279 79.5561,127.2979 79.0581,127.4179 C78.3251,127.5939 77.5761,127.7569 76.8261,127.7999 C75.5531,127.8739 74.7861,129.0319 75.6151,129.9809 C76.3051,130.7709 76.4431,131.4809 76.3251,132.4039 C76.3041,132.5669 76.5281,132.7619 76.6821,133.0119 C76.8631,132.8509 77.0631,132.7559 77.0641,132.6589 C77.0781,131.4329 77.7901,131.1429 78.8511,131.2669 C79.0401,131.2889 79.3221,131.3129 79.4191,131.2059 C80.6791,129.8179 82.3371,130.5379 83.8191,130.3149 C84.4981,130.2129 85.1841,129.9569 85.7941,129.6349 C86.4731,129.2779 89.7051,129.3569 90.3361,129.7699 C90.7591,130.0449 91.2891,130.3029 91.7751,130.3109 C94.2371,130.3489 96.7001,130.3009 99.1621,130.2909 C99.5111,130.2899 99.9681,130.2059 100.1791,130.3879 C100.4061,130.5839 100.5631,131.2909 100.4681,131.3539 C99.9751,131.6829 99.4131,131.9729 98.8351,132.0929 C98.3491,132.1939 97.8101,132.0449 97.0831,131.9919 C96.1341,133.0519 94.6371,132.2969 93.2951,132.4589 C92.4511,132.5609 91.5791,132.4199 90.7191,132.4389 C90.3911,132.4459 90.0671,132.5959 89.7401,132.6799 C89.7461,132.8039 89.7501,132.9279 89.7561,133.0529 C90.0611,133.1119 90.3651,133.2099 90.6721,133.2259 C92.6151,133.3299 92.6151,133.3239 93.6311,134.9069 C93.7671,134.6989 93.8801,134.5299 93.9901,134.3579 C94.1941,134.0339 94.3961,133.7079 94.5991,133.3829 C95.0291,133.7039 95.5311,133.9669 95.8531,134.3729 C95.9771,134.5289 95.7031,135.0129 95.5921,135.3409 C95.4661,135.7129 95.1171,136.1789 95.2361,136.4199 C95.3701,136.6889 95.9141,136.8659 96.2891,136.8809 C97.2761,136.9219 98.3171,137.1269 99.0901,136.1569 C99.2501,135.9569 99.7461,135.9829 100.0881,135.9749 C101.1051,135.9529 102.1221,135.9659 103.1381,135.9659 C105.0991,135.9659 105.0991,135.9669 105.7611,137.8439 C106.2421,137.3509 106.6001,136.8609 107.0741,136.5449 C107.3671,136.3499 107.8521,136.3259 108.2231,136.3909 C108.7601,136.4839 109.2691,136.8649 109.7961,136.8769 C110.8201,136.8989 111.1801,137.3289 111.1601,138.3189 C111.1511,138.7609 111.4101,139.2089 111.5461,139.6539 C111.9881,139.4959 112.5001,139.4309 112.8591,139.1609 C113.8841,138.3869 116.0231,138.7939 116.4921,140.0049 C116.6241,140.3469 116.2551,140.8839 116.0891,141.4169 C116.1331,141.4489 116.2611,141.6169 116.3631,141.6029 C119.0111,141.2159 119.7991,143.6559 121.2911,144.9609 C121.5531,145.1899 121.0511,146.2919 120.8501,147.2309 C121.2101,147.1289 121.7431,147.1209 122.0721,146.8579 C123.3941,145.8079 125.4051,146.2439 126.0771,147.7899 C126.4171,148.5749 126.0251,149.2319 125.1411,149.3639 C124.9221,149.3959 124.7061,149.4479 124.1541,149.5569 C125.0921,150.4939 125.8451,151.2839 126.6401,152.0289 C127.4771,152.8119 128.2961,153.5529 128.0481,154.8909 C127.8781,155.8059 127.1071,156.3639 126.3911,155.8239 C125.7861,155.3669 125.3991,154.6139 124.9401,153.9749 C124.8121,153.7949 124.8301,153.4339 124.6811,153.3589 C123.8421,152.9439 122.9821,152.3139 122.1111,152.2839 C120.9531,152.2449 120.2571,151.7009 119.4861,151.0239 C119.0971,150.6819 118.5301,150.5249 118.0211,150.3509 C117.7761,150.2669 117.4641,150.2809 117.2061,150.3439 C115.1211,150.8569 114.1411,149.2519 112.9271,148.1119 C112.7811,147.9749 112.7731,147.6849 112.7111,147.4619 C112.3861,146.2839 112.0651,145.1059 111.7431,143.9269 C111.6021,143.9239 111.4621,143.9209 111.3231,143.9179 C111.2261,144.2579 111.0521,144.5969 111.0471,144.9379 C111.0361,145.7569 111.1331,146.5769 111.1301,147.3959 C111.1271,148.3769 110.4131,148.6979 109.7021,148.3759 C108.8501,147.9899 107.9881,147.4049 108.0101,146.2329 C108.0261,145.4509 108.0971,144.6639 108.0271,143.8899 C107.9951,143.5349 107.6371,142.8929 107.5031,142.9119 C105.9121,143.1389 104.9661,142.1949 104.1521,141.0399 C103.3651,141.4959 103.4791,141.9269 103.8981,142.4159 C104.7171,143.3719 104.5011,143.2469 103.4281,143.8719 C101.9881,144.7099 101.6941,144.4209 101.0811,142.9839 C100.6991,142.0859 100.3971,141.2889 100.4941,140.3779 C100.6001,139.3769 100.2341,139.0189 99.2621,139.0659 C98.3021,139.1139 97.3371,139.0769 96.4191,139.0769 C96.3551,139.2799 96.2891,139.3859 96.3161,139.4199 C97.5911,141.0679 98.8741,142.7099 100.1581,144.3519 C100.1811,144.3819 100.2351,144.3969 100.2451,144.4279 C100.8021,146.1709 102.0971,147.1369 103.6821,147.9059 C104.7301,148.4149 105.6891,149.1339 106.6071,149.8609 C106.9041,150.0959 106.9461,150.6529 107.1051,151.0629 C106.5951,151.0679 106.0211,151.2279 105.5871,151.0479 C104.3741,150.5459 103.2201,149.9039 102.0421,149.3169 C102.0071,149.2989 101.9671,149.2899 101.9371,149.2669 C100.7191,148.3709 99.5381,147.4189 98.2761,146.5899 C96.6401,145.5159 95.2171,144.0999 93.6191,143.1059 C92.3471,142.3139 91.4851,140.9249 90.2051,140.5199 C88.4451,139.9619 87.6321,137.7409 85.4361,138.0629 C85.0391,138.1209 84.4631,137.4929 84.0951,137.0719 C83.5271,136.4229 82.8771,136.1249 82.0391,136.2639 C80.0681,136.5909 78.5221,135.6119 76.9281,134.6919 C76.5851,134.4939 76.0241,134.6769 75.5621,134.6839 C75.6391,135.1019 75.5731,135.6729 75.8231,135.9059 C76.3001,136.3519 76.9621,136.5979 77.5381,136.9439 C77.7981,137.0999 78.0491,137.2789 78.2781,137.4789 C78.9341,138.0539 79.4531,138.7139 80.4521,138.9169 C81.0391,139.0359 81.6761,139.7959 81.9491,140.4179 C82.7771,142.3099 84.1111,143.5539 85.9451,144.4729 C86.8751,144.9399 87.5841,145.8679 88.3301,146.6479 C88.4101,146.7309 88.0741,147.4679 87.9121,147.4759 C87.4871,147.4949 86.9441,147.3979 86.6431,147.1289 C85.8921,146.4599 85.1961,145.8579 84.1881,145.4729 C83.3171,145.1409 82.7721,144.0409 81.9511,143.4699 C80.6041,142.5329 79.1501,141.7519 77.7451,140.9009 C77.5471,140.7819 77.3801,140.5989 77.1701,140.5189 C76.7351,140.3529 76.2801,140.2369 75.8321,140.1009 C75.7081,140.5209 75.4891,140.9389 75.4791,141.3619 C75.4441,142.9249 75.5211,144.4909 75.4601,146.0519 C75.4411,146.5439 75.2151,147.0969 74.9151,147.4939 C74.4531,148.1069 74.3981,148.6059 74.9621,149.1329 C75.7151,149.8359 75.6791,150.4989 74.9911,151.2559 C74.7381,151.5349 74.6391,152.0099 74.5941,152.4089 C74.5341,152.9489 74.6681,153.5149 74.5721,154.0439 C74.5161,154.3489 74.1711,154.6009 73.9561,154.8769 C73.7271,154.6039 73.4391,154.3599 73.2881,154.0489 C73.1791,153.8249 73.2461,153.5119 73.2471,153.2389 C73.2711,145.4989 73.2961,137.7599 73.3261,130.0199 C73.3301,128.7099 72.7761,128.4349 71.1731,128.8869 C71.3591,129.7659 71.5901,130.6249 71.7091,131.4989 C71.8151,132.2779 71.7581,133.0119 71.0661,133.6369 C70.8541,133.8289 71.0221,134.5289 71.1291,134.9679 C71.2691,135.5379 71.6601,136.0709 71.7001,136.6359 C71.7871,137.8809 71.7251,139.1369 71.7201,140.3879 C71.7161,141.3449 71.8201,142.2509 71.0431,143.1179 C70.7061,143.4939 71.0301,144.4829 71.1041,145.1879 C71.1201,145.3409 71.4931,145.5049 71.4671,145.6059 C71.2501,146.4819 71.4111,147.3399 71.4361,148.2119 C71.4511,148.7119 71.0211,149.2419 70.7331,149.7229 C70.6111,149.9259 70.2971,150.1959 70.1441,150.1559 C69.9031,150.0929 69.6221,149.8279 69.5411,149.5869 C69.4371,149.2699 69.5061,148.8939 69.5081,148.5429 C69.5501,142.4479 69.6041,136.3539 69.6291,130.2589 C69.6351,128.8669 69.3921,128.6719 68.4661,128.8349 C69.1891,132.5229 68.6601,136.2489 68.8261,139.9369 C68.8321,140.0879 68.8231,140.2959 68.7311,140.3859 C67.5941,141.5109 68.0221,142.9389 67.9771,144.2639 C67.9461,145.1919 68.1281,146.1379 67.2401,146.8399 C67.0531,146.9879 67.1161,147.4269 67.0221,147.7189 C66.8291,148.3149 66.5971,148.8999 66.4001,149.4939 C66.2911,149.8179 66.1201,150.1629 66.1511,150.4809 C66.2361,151.3529 65.9551,152.0359 65.2321,152.4869 C64.9171,152.6839 64.5021,152.7189 64.1331,152.8279 C64.0871,152.3919 63.8371,151.7339 64.0301,151.5579 C65.0181,150.6509 64.8061,149.5079 64.8511,148.4019 C64.8591,148.2089 64.8311,147.9409 64.9421,147.8359 C66.3231,146.5229 65.6031,144.8309 65.8131,143.3059 C65.8961,142.6959 66.2171,142.1209 66.4111,141.5229 C66.5391,141.1269 66.7261,140.7189 66.7291,140.3159 C66.7511,136.9919 66.7091,133.6689 66.7561,130.3459 C66.7671,129.6219 67.0561,128.9019 67.2171,128.1799 L67.5831,128.1859 C67.4241,127.9799 67.2551,127.7799 67.1061,127.5659 C66.3751,126.5189 65.6031,125.4959 64.9411,124.4069 C64.5551,123.7749 65.4921,122.0039 66.2091,122.1479 C66.8511,122.2759 67.6051,122.9979 67.8681,123.6379 C68.4651,125.1009 68.8891,125.5539 70.4101,125.6629 C70.8071,125.6909 71.2541,125.8349 71.5671,126.0719 C72.5391,126.8099 73.5481,126.7589 74.4711,125.9899 C75.0971,125.4679 75.8571,125.1049 76.5551,124.6679 C76.6841,124.5869 76.8681,124.5239 76.9211,124.4049 C77.3051,123.5489 77.6051,122.6499 78.0491,121.8289 C78.3711,121.2349 78.8721,120.7389 79.2951,120.2009 C79.4841,119.9609 79.8801,119.6769 79.8381,119.4929 C79.3131,117.2009 81.4331,115.3309 80.8421,113.0129 C80.7391,112.6079 81.1921,112.0679 81.3671,111.5819 C81.5161,111.1639 81.7401,110.7359 81.7471,110.3099 C81.7641,109.3019 81.5521,108.2729 82.5541,107.5369 C82.7231,107.4129 82.7631,107.0359 82.7671,106.7749 C82.7921,105.0159 82.8011,103.2559 82.7871,101.4969 C82.7851,101.2709 82.6201,101.0449 82.2361,100.8249 C82.1661,101.1649 82.0461,101.5039 82.0371,101.8449 C81.9971,103.1729 81.9861,104.5019 81.9781,105.8309 C81.9731,106.5759 81.7871,107.1079 80.8961,107.2029 C80.5621,107.2379 80.2861,107.6729 79.9411,107.7649 C79.4221,107.9009 78.8671,107.8959 78.3271,107.9509 C78.4451,107.5359 78.6261,107.1289 78.6691,106.7069 C78.7961,105.4859 80.2241,104.7529 79.8851,103.3509 C79.8231,103.0919 79.9451,102.6889 80.1281,102.4869 C81.2821,101.2239 80.7801,99.7009 80.8441,98.2689 C80.8511,98.1249 80.7381,97.9749 80.6911,97.8569 C80.3921,98.0379 80.2361,98.0769 80.2121,98.1549 C79.8581,99.3389 79.5931,100.5549 79.1581,101.7069 C78.8161,102.6109 78.2601,103.4339 77.8131,104.2999 C77.3431,105.2089 76.8711,106.1169 76.4321,107.0409 C76.0281,107.8899 75.7731,108.8379 75.2321,109.5829 C75.0181,109.8789 74.2101,109.7439 73.6731,109.8049 C73.6271,109.2409 73.3491,108.5449 73.5801,108.1369 C74.2481,106.9559 75.1231,105.8919 75.9131,104.7789 C75.9791,104.6849 76.0771,104.5519 76.0541,104.4649 C75.6891,103.0599 76.8411,102.1269 77.1811,100.9389 C77.5591,99.6109 78.3701,98.4139 78.8471,97.1069 C79.1211,96.3599 79.2741,95.4369 78.4331,94.8649 C77.0821,93.9459 76.8801,92.6389 77.0501,91.1759 C77.0811,90.9089 77.0741,90.5119 77.2351,90.4069 C78.2791,89.7289 77.9911,88.7079 77.9961,87.7589 C78.0001,86.4689 77.9851,85.1789 78.0011,83.8889 C78.0121,83.0009 78.1941,82.1019 77.2731,81.4589 C77.0681,81.3159 77.0631,80.8119 77.0561,80.4719 C77.0351,79.4949 77.0731,78.5169 77.0571,77.5399 C77.0511,77.1959 77.0821,76.7069 76.8821,76.5349 C75.9271,75.7199 76.1271,74.6499 76.0731,73.6139 C76.0531,73.2449 75.9021,72.8769 75.7811,72.5179 C75.5801,71.9209 75.3711,71.3259 75.1381,70.7409 C74.7501,69.7639 74.3721,68.7819 73.9321,67.8289 C73.4481,66.7789 72.8091,65.7939 72.4031,64.7179 C72.0291,63.7269 70.2091,62.2179 69.1271,62.1079 C68.6301,62.0569 68.1591,61.7509 67.6761,61.5619 C67.3621,61.4389 67.0561,61.2879 66.7321,61.2019 C66.0181,61.0119 65.2941,60.8549 64.3371,60.6289 C63.9731,60.9469 63.4231,61.2989 62.6721,60.4399 C62.1671,59.8629 61.3431,60.3579 61.3871,61.1959 C61.4291,62.0159 61.3951,62.7119 60.6651,63.2839 C60.4441,63.4579 60.4581,64.0009 60.4551,64.3759 C60.4391,66.2909 60.4601,68.2049 60.4481,70.1199 C60.4461,70.4239 60.4451,70.8569 60.2601,71.0089 C59.2371,71.8569 59.5301,72.9829 59.5261,74.0449 C59.5181,75.8049 59.5801,77.5659 59.5011,79.3219 C59.4771,79.8749 59.1881,80.4789 58.8551,80.9409 C58.3051,81.7069 58.4481,82.1889 59.3651,82.4399 C59.7171,82.5359 60.0111,82.8459 60.3321,83.0599 C60.0371,83.2969 59.7611,83.6999 59.4421,83.7389 C58.7141,83.8269 58.5431,84.1839 58.5501,84.8339 C58.5801,87.3359 58.6211,89.8379 58.5611,92.3389 C58.5471,92.9309 58.1671,93.5159 57.9451,94.0999 C57.8901,94.2409 57.7841,94.3619 57.7101,94.4969 C57.4821,94.9229 57.2571,95.3519 57.0321,95.7789 C56.5121,95.1959 55.7901,94.6909 55.5321,94.0099 C55.2721,93.3269 55.4761,92.4679 55.4761,91.6859 C55.4771,90.3569 55.4741,89.0279 55.4791,87.6979 C55.4821,86.7429 55.2631,85.7559 56.2471,85.0289 C56.4791,84.8579 56.4081,84.2309 56.4151,83.8119 C56.4321,82.8739 56.3721,81.9329 56.4231,80.9979 C56.4451,80.5999 56.5721,80.1399 56.8131,79.8359 C57.6241,78.8109 57.6491,77.9819 56.7871,76.9819 C56.2241,76.3299 56.2901,74.8599 56.8001,74.1569 C57.0901,73.7559 57.3161,73.2239 57.3451,72.7369 C57.4221,71.4509 57.3621,70.1579 57.3871,68.8689 C57.4011,68.2229 57.2131,67.6819 56.5021,67.8549 C56.1861,67.9319 55.8221,68.4919 55.7771,68.8679 C55.6751,69.7149 55.7521,70.5839 55.7731,71.4439 C55.7911,72.2289 55.8561,72.9829 55.0801,73.5509 C54.8501,73.7189 54.8251,74.2569 54.8221,74.6269 C54.8071,76.5429 54.8681,78.4599 54.8141,80.3729 C54.8001,80.8589 54.4631,81.3359 54.2811,81.8189 C54.1371,82.2009 53.8921,82.5849 53.8861,82.9709 C53.8531,84.9249 53.8871,86.8799 53.8911,88.8349 C53.8931,89.7919 54.1031,90.7959 53.1031,91.4889 C52.9261,91.6109 52.9381,92.0679 52.9371,92.3699 C52.9311,93.6599 52.9131,94.9519 52.9761,96.2389 C53.0281,97.3129 52.6721,97.9249 51.5161,97.7829 C50.3271,97.6369 50.0651,98.1879 50.1011,99.2879 C50.1391,100.4789 50.5571,101.8039 49.3831,102.7919 C49.2271,102.9229 49.2471,103.3059 49.2461,103.5729 C49.2261,106.3869 49.2511,109.2029 49.1791,112.0159 C49.1631,112.6149 48.7911,113.2019 48.6011,113.7999 C48.4861,114.1599 48.3221,114.5289 48.3181,114.8949 C48.2851,118.3739 48.3061,121.8539 48.2451,125.3319 C48.2351,125.8509 47.8731,126.3619 47.6871,126.8819 C47.5481,127.2669 47.3211,127.6569 47.3181,128.0459 C47.2951,130.5869 47.3561,133.1289 47.3071,135.6689 C47.2971,136.1869 46.9311,136.6969 46.7361,137.2129 C46.6041,137.5629 46.3951,137.9099 46.3741,138.2669 C46.3291,139.0849 46.3291,139.9119 46.3971,140.7279 C46.5321,142.3109 46.2101,143.5589 44.9481,144.7759 C44.1251,145.5689 43.8971,147.0639 43.5991,148.2919 C43.3381,149.3649 43.3511,150.5049 43.2121,151.9189 C43.8161,151.9189 44.7221,151.8409 45.6081,151.9449 C46.2151,152.0169 46.7901,152.3459 47.3841,152.5509 C47.7051,152.6619 48.0271,152.8219 48.3561,152.8419 C49.4211,152.9059 50.5341,152.6379 51.4161,153.6029 C51.5741,153.7749 52.2011,153.5709 52.5911,153.4669 C53.2351,153.2949 53.8501,152.9499 54.4981,152.8819 C55.5441,152.7729 56.6171,152.9179 57.6601,152.7969 C59.4811,152.5879 60.8351,153.6309 62.3461,154.3099 C62.7891,154.5099 63.4031,154.4339 63.9151,154.3489 C64.3511,154.2769 64.7541,153.8549 65.1711,153.8569 C67.3511,153.8659 69.0681,152.9299 70.5761,151.4519 C70.7611,151.2709 71.1371,151.1559 71.3821,151.2089 C71.5471,151.2449 71.7621,151.6459 71.7371,151.8569 C71.6241,152.7879 71.6501,153.6359 72.4671,154.2889 C72.5901,154.3869 72.6371,154.6549 72.6241,154.8369 C72.5531,155.8489 72.5801,156.6599 73.9771,156.7409 C74.6721,156.7819 74.7941,157.9679 74.2021,158.5799 C73.3351,159.4769 72.4621,160.3719 71.5311,161.1979 C71.2471,161.4479 70.7641,161.5639 70.3671,161.5769 C69.0001,161.6249 67.6311,161.6099 66.2641,161.5999 C65.6991,161.5949 65.2321,161.6679 65.2421,162.3869 L63.8331,162.3869 C63.8411,161.5689 63.2621,161.6059 62.6981,161.5939 C61.7101,161.5719 60.8071,161.1889 59.8971,160.9509 C58.0891,160.4769 56.0701,160.8039 54.1381,160.8159 C54.0521,160.8159 53.9791,160.9929 53.8771,161.0349 C53.3991,161.2319 52.9251,161.5059 52.4251,161.5719 C51.6971,161.6679 50.9341,161.5309 50.2121,161.6499 C49.8731,161.7059 49.5951,162.1299 49.2891,162.3869 L45.0671,162.3869 Z" id="Fill-1" fill="#231916"></path>
                <g id="编组" transform="translate(95.000000, 0.387000)">
                    <mask id="mask-2" fill="white">
                        <use xlink:href="#path-1"></use>
                    </mask>
                    <g id="Clip-4"></g>
                    <path d="M22.1949,3.1667 C22.1889,2.9847 22.1819,2.8027 22.1749,2.6207 C21.4969,2.6557 20.8179,2.6907 20.1389,2.7267 C20.1429,2.8737 20.1469,3.0197 20.1509,3.1667 L22.1949,3.1667 Z M29.2969,130.4387 C29.4239,130.6457 29.5489,130.8527 29.6759,131.0597 C30.0909,130.8067 30.5389,130.5907 30.8929,130.2717 C30.9749,130.1987 30.7389,129.7707 30.6479,129.5047 C30.1979,129.8167 29.7479,130.1277 29.2969,130.4387 L29.2969,130.4387 Z M14.3269,35.8737 C14.4689,35.8727 14.6109,35.8727 14.7529,35.8717 L14.7529,33.8447 C14.6109,33.8457 14.4689,33.8457 14.3269,33.8457 L14.3269,35.8737 Z M17.6539,60.1777 C17.5399,60.1567 17.4259,60.1347 17.3129,60.1127 C16.8429,60.7907 16.9189,61.4637 17.3019,62.1347 C17.4199,62.1347 17.5369,62.1357 17.6539,62.1357 L17.6539,60.1777 Z M24.6909,115.5637 C24.8349,115.5927 24.9779,115.6227 25.1209,115.6527 C25.1849,114.9587 25.2489,114.2667 25.3329,113.3527 C24.3469,114.0147 24.2819,114.3897 24.6909,115.5637 L24.6909,115.5637 Z M16.3399,4.3107 C15.6969,3.9437 15.3199,3.5587 15.0739,3.6287 C14.7399,3.7247 14.5069,4.1687 14.2299,4.4637 C14.5269,4.6887 14.8169,5.0777 15.1239,5.0917 C15.4179,5.1037 15.7279,4.7267 16.3399,4.3107 L16.3399,4.3107 Z M14.2349,59.7557 C14.7499,60.8067 15.0909,61.5037 15.4329,62.2007 C15.5719,62.1797 15.7109,62.1577 15.8479,62.1357 C15.7859,61.4677 15.8079,60.7717 15.6089,60.1477 C15.5459,59.9457 14.8969,59.9307 14.2349,59.7557 L14.2349,59.7557 Z M18.3169,68.2547 C17.7969,68.8637 17.3679,69.2927 17.0409,69.7897 C16.9339,69.9507 17.0659,70.2977 17.1529,70.5367 C17.1769,70.6047 17.4349,70.6447 17.5649,70.6107 C18.2389,70.4367 18.7069,69.3037 18.3169,68.2547 L18.3169,68.2547 Z M13.8439,29.1567 C13.6839,29.1587 13.5249,29.1597 13.3649,29.1607 C13.1669,30.1687 13.0359,31.1737 13.4669,32.1557 C13.5919,32.1527 13.7179,32.1497 13.8439,32.1477 L13.8439,29.1567 Z M21.0809,29.6027 C21.6119,28.5817 22.0759,27.7247 22.4949,26.8457 C22.5479,26.7347 22.3959,26.3977 22.2839,26.3667 C22.1019,26.3167 21.8339,26.3757 21.6729,26.4887 C20.7599,27.1287 20.5539,28.0577 21.0809,29.6027 L21.0809,29.6027 Z M9.9089,124.6937 C9.4109,125.5817 8.9559,126.3457 8.5599,127.1407 C8.4839,127.2937 8.5909,127.6007 8.7119,127.7677 C8.7759,127.8567 9.0759,127.8597 9.2189,127.7937 C10.2789,127.3087 10.6229,125.9397 9.9089,124.6937 L9.9089,124.6937 Z M15.3599,38.8857 C17.7089,37.1107 18.1249,36.2497 17.4639,34.5107 C16.8949,35.1047 16.4429,35.7297 15.8509,36.1637 C14.8189,36.9187 15.1499,37.7817 15.3599,38.8857 L15.3599,38.8857 Z M15.7799,29.1557 C15.7409,29.8697 15.7069,30.5157 15.6659,31.2817 C15.8669,32.0897 16.1029,33.0407 16.3109,33.8747 C17.0169,32.9997 17.6549,32.2147 18.2829,31.4227 C18.3999,31.2747 18.5229,31.1057 18.5619,30.9287 C18.7589,30.0237 18.9309,29.1147 19.1449,28.0417 C18.0419,28.4077 16.8469,28.8027 15.7799,29.1557 L15.7799,29.1557 Z M9.1889,38.3537 C9.0119,38.4167 8.8359,38.4807 8.6589,38.5437 C8.7059,38.9177 8.6129,39.4377 8.8239,39.6387 C9.6459,40.4197 9.5369,41.3727 9.5729,42.3467 C9.5899,42.7917 9.9449,43.2127 10.0439,43.6677 C10.1239,44.0427 10.2129,44.5787 10.0189,44.8197 C9.3949,45.5987 9.4869,46.3347 10.0179,47.3037 C10.7719,46.6767 11.4239,45.9737 11.9759,45.1997 C12.1339,44.9787 12.1469,44.3767 11.9879,44.2517 C10.6349,43.1817 11.3529,41.2997 10.2989,40.1137 C9.8429,39.6027 9.5539,38.9447 9.1889,38.3537 L9.1889,38.3537 Z M25.5259,112.8517 L26.0419,112.8867 C26.1099,112.3947 26.1879,111.9027 26.2459,111.4087 C26.4199,109.9187 25.6899,108.2647 27.0599,106.9877 C27.1479,106.9057 27.1299,106.6887 27.1309,106.5347 C27.1489,103.6067 27.1729,100.6787 27.1639,97.7497 C27.1629,97.3837 26.9869,97.0187 26.8919,96.6517 C26.7699,96.6597 26.6469,96.6677 26.5249,96.6757 C26.4679,97.0217 26.3669,97.3677 26.3629,97.7147 C26.3469,98.9647 26.4039,100.2157 26.3609,101.4637 C26.3149,102.7857 26.7599,104.2077 25.6229,105.3447 C25.4709,105.4967 25.5159,105.8677 25.5109,106.1377 C25.4779,107.8947 25.4489,109.6517 25.4369,111.4087 C25.4339,111.8897 25.4949,112.3707 25.5259,112.8517 L25.5259,112.8517 Z M8.7879,52.5967 C9.0429,53.0467 9.3639,53.4477 9.5089,53.9047 C9.9349,55.2457 10.5599,55.7367 11.9899,55.8377 C12.3869,55.8657 12.7739,56.0817 13.1619,56.2207 C13.6479,56.3947 14.1179,56.6667 14.6169,56.7367 C15.2679,56.8267 15.9429,56.7297 16.6049,56.7637 C19.1979,56.8957 21.7279,56.8597 23.8759,55.0267 C24.1279,54.8127 24.7919,55.0817 25.2649,55.1257 C25.1789,55.4597 25.1959,55.8957 24.9869,56.1047 C24.5329,56.5587 24.2369,57.0817 24.7969,57.4657 C25.0869,57.6657 25.9389,57.5157 26.1789,57.2267 C26.8579,56.4097 27.3499,55.4387 28.0079,54.3807 C26.8529,54.2917 26.0929,54.0487 26.0479,52.9017 C26.0399,52.7117 25.4959,52.4697 25.1649,52.3777 C23.4889,51.9167 22.3039,53.1927 20.8799,53.6327 C20.1719,53.8517 19.4289,54.2447 18.7439,54.1717 C17.9599,54.0877 17.2429,53.2637 16.3999,54.0717 C16.3619,54.1077 16.1439,54.0417 16.0909,53.9657 C15.4129,53.0197 14.4119,53.3207 13.5109,53.3077 C11.5989,53.2807 11.5989,53.2987 10.9419,51.6677 C10.2669,51.9587 9.5899,52.2507 8.7879,52.5967 L8.7879,52.5967 Z M29.2189,104.9487 C29.3149,106.6377 28.9939,108.0637 28.4469,109.5367 C28.0249,110.6747 27.7189,112.0447 27.4969,113.3017 C27.2359,114.7717 26.3099,115.8307 25.9209,117.1427 C25.5569,118.3647 24.2799,119.2057 24.5459,120.6957 C24.5989,120.9997 24.1809,121.4897 23.8609,121.7377 C23.2759,122.1897 22.5299,122.4437 21.9769,122.9257 C20.9019,123.8637 20.9379,123.9047 22.1779,124.4337 C22.2489,124.4637 22.3109,124.5137 22.3799,124.5517 C24.3809,125.6447 26.3639,125.5567 28.3869,124.5627 C28.7829,124.3687 29.4009,124.3657 29.7989,124.5417 C30.0479,124.6507 30.2669,125.3337 30.1539,125.6257 C30.0199,125.9727 29.5459,126.3387 29.1649,126.4087 C28.3669,126.5557 27.4289,126.2857 26.7359,126.6007 C25.4079,127.2047 24.2279,126.9377 22.9589,126.5597 C22.0399,126.2857 21.0709,126.1777 20.0609,125.9837 C18.9459,126.4207 17.6789,126.9787 16.3729,127.4147 C14.6629,127.9857 13.7629,126.5087 12.8219,125.7757 C12.0369,126.8707 11.3509,127.8267 10.6649,128.7837 C10.7149,128.8917 10.7639,129.0007 10.8139,129.1097 C11.2789,128.9197 11.7299,128.6817 12.2119,128.5557 C12.7559,128.4137 13.4779,128.1127 13.8539,128.3357 C15.0489,129.0427 16.1189,129.9607 17.3669,130.8957 C17.9959,129.7967 18.6569,130.0837 19.2059,130.6657 C20.4029,130.0747 21.4639,129.2627 22.6359,129.0397 C24.3959,128.7047 26.2989,129.4517 27.9669,128.1247 C28.8009,127.4617 29.8879,127.0977 30.8959,126.6827 C31.2299,126.5447 31.6829,126.6147 32.0629,126.6877 C33.1289,126.8917 33.7209,128.0057 35.3339,127.3487 C37.2169,126.5807 37.2789,125.0347 38.2559,123.8547 C37.6319,123.6517 37.0349,123.6317 36.7279,123.3227 C35.9799,122.5687 35.4289,122.5657 34.6699,123.3217 C33.8869,124.0997 32.9679,123.7117 32.7169,122.6277 C32.6439,122.3137 32.4889,121.9797 32.2729,121.7467 C31.7069,121.1367 31.3869,119.6027 31.9929,119.1057 C32.9039,118.3607 32.7309,117.4717 32.7289,116.5557 C32.7259,115.2667 32.6749,113.9747 32.7429,112.6897 C32.7689,112.1917 32.9699,111.6437 33.2549,111.2297 C33.8609,110.3507 33.8469,108.1477 33.0069,107.4947 C31.8909,106.6267 30.6609,105.9057 29.2189,104.9487 L29.2189,104.9487 Z M10.9719,58.1747 C10.8559,58.1697 10.7409,58.1657 10.6259,58.1607 C10.5469,58.4287 10.3959,58.6987 10.3999,58.9657 C10.4269,61.0357 10.4789,63.1047 10.5409,65.1737 C10.5489,65.4367 10.5739,65.8167 10.7399,65.9377 C11.6389,66.5927 11.4379,67.5207 11.4359,68.4027 C11.4339,69.7697 11.4079,71.1367 11.4159,72.5037 C11.4179,72.8047 11.4189,73.2497 11.5999,73.3817 C12.6969,74.1797 12.4549,75.3297 12.4139,76.3867 C12.3979,76.7817 11.9999,77.1627 11.7759,77.5487 C11.5569,77.1517 11.2759,76.7737 11.1379,76.3507 C11.0079,75.9547 11.0299,75.5087 10.9849,75.0847 C10.8319,75.0957 10.6769,75.1077 10.5239,75.1187 C10.4859,75.5177 10.4119,75.9167 10.4169,76.3157 C10.4359,78.1527 10.5159,79.9897 10.4869,81.8247 C10.4789,82.3167 10.2679,82.8847 9.9659,83.2757 C9.4999,83.8777 9.4659,84.3277 9.9439,84.9327 C10.2309,85.2977 10.4809,85.8077 10.4899,86.2577 C10.5509,89.3447 10.5499,92.4327 10.5549,95.5207 C10.5559,96.5947 10.2869,97.7067 11.2899,98.5617 C11.4679,98.7137 11.4419,99.1497 11.4459,99.4557 C11.4719,102.0357 11.5679,104.6187 11.4659,107.1927 C11.4149,108.4897 11.6989,109.4707 12.7689,110.2087 C13.2959,110.5727 13.3409,110.9597 12.8679,111.4587 C12.2119,112.1497 12.2799,115.0417 12.7219,115.8747 C13.0759,116.5407 13.2349,117.3657 13.2529,118.1257 C13.2579,118.4007 12.5749,118.9447 12.2559,118.9097 C11.8589,118.8667 11.2709,118.3997 11.1949,118.0287 C11.0259,117.2017 11.1419,116.3187 11.1029,115.4607 C11.0879,115.1217 11.0819,114.6437 10.8729,114.4777 C10.0949,113.8577 10.2049,113.0467 10.2019,112.2287 C10.1989,110.9787 10.2149,109.7247 10.1329,108.4787 C10.0409,107.0587 10.6549,105.5007 9.3539,104.2827 C9.2059,104.1437 9.2659,103.7587 9.2649,103.4877 C9.2429,100.0477 9.2299,96.6087 9.2089,93.1687 C9.2029,92.1807 9.4809,91.1277 8.4839,90.3697 C8.3249,90.2487 8.3279,89.8587 8.3269,89.5937 C8.3159,87.4457 8.3119,85.2977 8.3259,83.1497 C8.3489,79.3587 8.3949,75.5677 8.4099,71.7767 C8.4119,71.3267 8.2809,70.8757 8.2119,70.4247 L7.8369,70.4417 C7.7809,70.7177 7.6779,70.9917 7.6759,71.2677 C7.6469,74.1587 7.6629,77.0507 7.5909,79.9407 C7.5779,80.4647 7.3099,81.0417 7.0039,81.4867 C6.5959,82.0767 6.6329,82.4877 7.0589,83.0497 C7.3599,83.4467 7.5319,83.9997 7.5939,84.5037 C7.6809,85.1957 7.6039,85.9087 7.6059,86.6117 C7.6089,87.5397 7.7519,88.4667 6.9479,89.2397 C6.7719,89.4077 6.9069,90.1677 7.1449,90.4387 C7.5949,90.9517 7.7459,91.3197 7.1799,91.8047 C6.5679,92.3297 6.6989,92.8157 7.1639,93.4177 C7.4649,93.8077 7.6709,94.3817 7.6729,94.8737 C7.6939,101.7927 7.6699,108.7117 7.6749,115.6307 C7.6759,115.9947 7.7569,116.4307 7.9669,116.7087 C8.8399,117.8687 8.9019,118.6457 8.1369,119.8217 C8.0239,119.9957 7.8979,120.3587 7.9699,120.4247 C8.7289,121.1197 9.4869,122.2547 10.3239,122.3247 C11.7119,122.4407 12.5069,123.1057 13.3589,123.9747 C13.8349,124.4587 14.3719,125.0307 14.9839,125.2057 C16.7269,125.7027 18.3109,124.8547 19.5129,123.8377 C20.8239,122.7307 21.6449,121.1317 21.4979,119.2107 C21.4409,118.4797 21.6759,117.7137 21.8479,116.9797 C21.9799,116.4167 22.2779,115.8897 22.3989,115.3247 C22.5339,114.6897 22.3109,113.7687 22.6719,113.4357 C23.4489,112.7177 23.3589,111.9397 23.3489,111.0917 C23.3339,109.7237 23.3269,108.3547 23.3419,106.9867 C23.3459,106.6447 23.3239,106.1507 23.5259,105.9867 C24.4799,105.2097 24.2819,104.1767 24.2839,103.1797 C24.2879,101.4587 24.2669,99.7387 24.2899,98.0197 C24.3029,96.9257 23.9469,95.7217 25.1169,94.9207 C25.2149,94.8537 25.2649,94.6237 25.2419,94.4857 C25.0099,93.1227 25.7879,91.5697 24.4559,90.3957 C24.2729,90.2357 24.2869,89.8097 24.2779,89.5047 C24.2499,88.4507 24.2769,87.3947 24.2289,86.3417 C24.2119,85.9747 24.0489,85.6117 23.9319,85.2527 C23.7619,84.7307 23.5179,84.2267 23.4039,83.6927 C23.1539,82.5217 23.7369,81.1767 22.6279,80.1617 C22.5299,80.0727 22.7679,79.4507 22.9949,79.2177 C23.2909,78.9157 23.7309,78.7537 24.1089,78.5327 C24.2559,78.9027 24.4819,79.2637 24.5329,79.6467 C24.6289,80.3727 24.6239,81.1107 24.6599,81.8437 C24.8109,81.8397 24.9639,81.8347 25.1149,81.8307 C25.4719,80.6017 25.7299,79.0787 25.0399,78.1467 C23.9679,76.6987 24.4289,75.2447 24.2979,73.7887 C24.2709,73.4907 24.5329,73.1627 24.6769,72.8557 C25.3069,71.5177 26.4519,70.3827 26.1759,68.6907 C26.1049,68.2507 26.3589,67.7587 26.4629,67.2907 C26.8679,67.4617 27.2709,67.6377 27.6799,67.7997 C27.7409,67.8237 27.8279,67.7807 28.2059,67.7187 C28.0139,67.2707 27.9349,66.7947 27.6599,66.5067 C27.1889,66.0127 27.2149,65.7377 27.5889,65.1317 C27.9399,64.5617 28.1909,63.3647 27.8789,63.0547 C26.8969,62.0777 27.0969,61.0207 27.1529,59.9057 C27.1659,59.6397 27.0349,59.3677 26.9419,58.9807 C26.4049,59.3347 26.0469,59.7577 25.6449,59.8027 C24.3249,59.9507 23.0439,59.8307 21.7949,60.7067 C21.1719,61.1437 20.8059,61.3807 20.8139,62.1137 C20.8309,63.6777 20.8409,65.2407 20.8249,66.8047 C20.8209,67.1847 20.8419,67.7237 20.6179,67.9127 C19.8739,68.5407 19.8949,69.3277 19.9119,70.1537 C19.9259,70.9387 19.9139,71.6677 19.1839,72.2647 C18.9879,72.4247 19.2329,73.1927 19.3589,73.6597 C19.4839,74.1217 19.8699,74.5527 19.8739,74.9997 C19.9139,79.5337 19.9079,84.0677 19.8799,88.6017 C19.8779,88.9907 19.6229,89.3797 19.4819,89.7677 C19.3029,90.2577 18.9809,90.7427 18.9659,91.2367 C18.9079,93.0727 18.9559,94.9107 18.9509,96.7487 C18.9499,97.0957 19.0299,97.6097 18.8409,97.7657 C17.5349,98.8377 18.1469,100.2747 18.0069,101.5697 C17.9599,102.0107 17.7789,102.4397 17.6339,102.8667 C17.4609,103.3817 17.0689,103.9057 17.1109,104.3967 C17.1999,105.4607 16.4729,105.9707 15.8569,106.5057 C15.3889,106.9127 14.8409,106.5657 14.9019,106.0007 C15.0629,104.4737 14.2899,102.7857 15.7179,101.4667 C15.0999,100.8867 14.6719,100.3657 15.5749,99.7297 C15.7889,99.5807 15.8429,99.1057 15.8509,98.7787 C15.8779,97.7627 15.7159,96.7267 15.8669,95.7347 C16.1089,94.1437 16.5389,92.5797 16.9059,91.0077 C16.9379,90.8737 17.1319,90.7837 17.1909,90.6467 C17.3829,90.2017 17.6649,89.7537 17.6989,89.2907 C17.7739,88.2797 17.6609,87.2557 17.7299,86.2437 C17.8289,84.8047 17.3349,83.2677 18.3809,81.9607 C18.4589,81.8627 18.3499,81.6037 18.3069,81.4247 C18.1409,80.7337 17.8559,80.0517 17.8189,79.3547 C17.7309,77.7167 17.7299,76.0727 17.7529,74.4327 C17.7649,73.5077 17.4519,73.1207 16.4949,72.8437 C15.9199,72.6767 15.5779,71.7077 15.1209,71.1067 C15.0879,71.0637 14.9689,71.0917 14.8949,71.0717 C13.7579,70.7547 13.0389,69.8107 13.0069,68.6017 C12.9909,68.0177 13.2169,67.1937 12.9179,66.8907 C11.4949,65.4477 12.0739,63.6937 12.1559,62.1217 C12.2369,60.5567 11.3409,59.4907 10.9719,58.1747 L10.9719,58.1747 Z M29.2989,38.6937 C29.4919,38.6967 29.6849,38.6997 29.8789,38.7037 C29.8789,37.9717 29.7999,37.2297 29.9079,36.5137 C29.9699,36.0947 30.3289,35.7207 30.5539,35.3257 C30.7749,35.7157 31.1749,36.1017 31.1869,36.4977 C31.2359,38.2147 31.2149,39.9377 31.1289,41.6547 C31.0849,42.5267 30.8499,43.3887 30.7019,44.2557 C30.6669,44.6687 30.9799,45.4447 30.8109,45.5697 C30.0029,46.1687 30.2049,46.9437 30.2069,47.7047 C30.2099,49.6987 30.2239,51.6927 30.2089,53.6867 C30.2059,54.0647 30.2169,54.6267 29.9949,54.7887 C29.0879,55.4437 29.2539,56.3307 29.2619,57.2207 C29.2759,58.5487 29.2319,59.8787 29.2579,61.2077 C29.2659,61.5727 29.4209,61.9387 29.5369,62.2957 C29.7399,62.9177 29.9729,63.5307 30.1759,64.1527 C30.2699,64.4407 30.2269,64.8767 30.4159,65.0127 C31.1759,65.5607 31.2089,66.2817 31.1269,67.0967 C31.1019,67.3417 31.1859,67.7217 31.3569,67.8397 C32.1359,68.3757 32.1399,69.1117 32.0649,69.9227 C32.0429,70.1677 32.1309,70.5497 32.3029,70.6637 C33.3059,71.3217 32.9239,72.3257 33.0419,73.2197 C33.2019,74.4487 32.6059,74.9337 31.4819,75.0037 C31.4189,75.0077 31.3459,75.0847 31.3019,75.1457 C30.6809,75.9987 30.1109,75.7587 29.6849,75.0007 C29.3989,74.4897 29.2459,73.8987 29.0709,73.3327 C28.9609,72.9767 28.9199,72.5997 28.8479,72.2317 C28.6869,72.2397 28.5249,72.2477 28.3639,72.2557 C28.3639,72.7417 28.4399,73.2427 28.3399,73.7067 C28.2599,74.0687 27.9629,74.3827 27.7609,74.7177 C27.5449,74.4477 27.3039,74.1917 27.1169,73.9017 C26.9859,73.6997 26.9259,73.4507 26.8349,73.2227 C26.5649,74.8227 26.1389,76.5687 26.6959,77.9067 C27.1689,79.0417 27.3789,80.0447 27.3669,81.1957 C27.3649,81.4177 27.4019,81.7527 27.5449,81.8457 C28.5759,82.5197 28.3039,83.5417 28.3309,84.4957 C28.3409,84.8407 28.3339,85.2337 28.4909,85.5197 C29.2689,86.9347 30.3449,88.2207 30.2629,89.9797 C30.2579,90.0837 30.3449,90.1967 30.4019,90.2977 C31.2499,91.8107 32.1309,93.3057 32.9239,94.8467 C33.0899,95.1687 32.9869,95.6737 32.8859,96.0627 C32.8539,96.1887 32.2989,96.3527 32.2159,96.2677 C31.4269,95.4797 30.1299,94.6807 30.0679,93.8077 C29.9729,92.4657 29.1729,91.5407 28.8429,90.3807 C28.5749,89.4367 27.8479,88.6277 27.3669,87.7367 C27.2089,87.4437 27.1909,87.0767 27.0899,86.7497 C26.7529,85.6537 26.4059,84.5607 26.0309,83.3647 C25.4479,83.9787 25.2769,87.0957 25.7879,87.5427 C26.5369,88.1987 26.4559,88.9727 26.4559,89.7897 C26.4559,90.2157 26.3509,90.8207 26.5829,91.0377 C27.7839,92.1617 27.2809,93.5737 27.3969,94.8867 C27.4359,95.3247 27.5029,95.8507 27.7649,96.1587 C28.4189,96.9257 29.1489,97.6427 29.9259,98.2847 C31.1949,99.3327 31.9799,100.7277 32.7729,102.1107 C32.8689,102.2777 32.4809,102.9867 32.3059,102.9907 C31.8939,103.0017 31.4769,102.7277 31.0559,102.5897 C30.7989,102.5057 30.5279,102.4597 30.2619,102.3967 C30.2469,102.6887 30.1269,103.0267 30.2329,103.2657 C30.7459,104.4187 33.4999,105.2257 34.4209,104.3847 C36.5589,102.4317 38.6659,100.4167 38.3139,97.0887 C38.2159,96.1617 38.3839,95.2087 38.3169,94.2767 C38.2119,92.8127 39.3169,91.8637 39.7759,90.6427 C40.1149,89.7407 40.7929,88.9667 41.1439,88.0677 C41.3399,87.5637 41.1789,86.9197 41.1789,86.2097 C39.3659,87.1777 38.6849,87.2777 38.5569,86.6407 C38.3999,85.8607 38.4689,84.9607 38.7039,84.1937 C39.1219,82.8307 39.7379,81.5287 40.2679,80.2007 C40.2819,80.1667 40.2659,80.1237 40.2649,80.0837 C40.2409,79.0147 39.9469,77.8867 41.0549,77.0917 C41.2099,76.9807 41.1919,76.5827 41.1959,76.3157 C41.2059,75.6517 41.1379,74.9837 41.1829,74.3237 C41.2719,72.9817 40.6969,71.4897 42.0539,70.4067 C42.1989,70.2907 42.1309,69.8857 42.1309,69.6157 C42.1349,64.8847 42.1389,60.1547 42.1269,55.4237 C42.1259,55.0887 42.1129,54.5867 41.9109,54.4477 C40.9769,53.8057 41.1789,52.8917 41.1749,52.0077 C41.1739,51.6217 41.2879,51.0417 41.0859,50.8817 C39.8319,49.8837 40.4249,48.5177 40.2149,47.3057 C39.9749,45.9237 39.5279,44.5777 39.1579,43.2187 C39.1319,43.1207 38.9659,43.0657 38.9239,42.9657 C38.7239,42.4917 38.5089,42.0197 38.3709,41.5257 C38.2789,41.1997 38.4399,40.7197 38.2569,40.5147 C37.3929,39.5457 36.4359,38.6647 36.0889,37.3377 C35.9589,36.8407 35.6959,36.3797 35.5489,35.8867 C35.4499,35.5577 35.5419,35.1467 35.3829,34.8657 C34.4989,33.2957 33.5669,31.7867 32.1749,30.5497 C31.1769,29.6637 29.9329,28.8737 29.7189,27.2847 C29.6679,26.9057 28.9569,26.6167 28.5489,26.2867 C28.1529,26.7887 27.3409,27.3917 27.4329,27.7737 C27.7969,29.2647 26.5059,30.0787 26.2279,31.2977 C25.9249,32.6307 24.9039,33.8067 24.6329,35.1397 C24.3739,36.4247 24.5269,37.6927 23.7229,38.9587 C23.1369,39.8797 22.2489,40.9687 22.6399,42.3287 C22.6709,42.4327 22.4849,42.5867 22.4279,42.7297 C22.2029,43.3007 21.8669,43.8637 21.7999,44.4557 C21.7169,45.2037 21.5919,45.7017 20.7129,45.8327 C20.3939,45.8807 20.1319,46.3757 19.8649,46.6837 C19.3249,47.3027 18.8969,48.0757 18.2459,48.5297 C17.0389,49.3717 15.7039,50.0307 14.2489,50.8647 C15.3009,51.2967 16.1639,51.7897 17.0899,51.9897 C17.9499,52.1767 18.8789,52.0677 19.7779,52.0627 C21.4169,52.0527 21.3989,52.0447 21.4419,50.3817 C21.4499,50.0687 21.5869,49.6177 21.8089,49.4967 C21.9959,49.3957 22.3959,49.6777 22.6969,49.8017 C22.8359,49.8587 22.9629,49.9437 23.1469,50.0447 C23.8959,48.9557 25.0189,49.2617 26.0439,49.2627 C26.8519,49.2647 27.1469,48.9387 27.1359,48.1357 C27.0989,45.2827 27.1029,42.4287 27.0999,39.5747 C27.0989,38.5807 26.8719,37.5327 27.8409,36.7687 C27.9999,36.6447 27.9699,36.2597 27.9929,35.9927 C28.0459,35.3797 27.6819,34.4177 28.6549,34.4207 C29.6409,34.4237 29.2699,35.3947 29.2909,35.9987 C29.3219,36.8957 29.2989,37.7947 29.2989,38.6937 L29.2989,38.6937 Z M44.1349,85.2907 C43.8599,85.5677 43.4349,85.8037 43.3459,86.1307 C43.2169,86.6007 43.2779,87.1457 43.3559,87.6437 C43.5459,88.8397 43.0229,89.6457 42.2479,90.5307 C41.4799,91.4077 41.1599,92.6597 40.4819,93.6357 C39.1309,95.5817 39.9119,97.7607 39.6039,99.8127 C39.5009,100.5027 38.8869,101.1167 38.5029,101.7627 C37.9269,102.7297 37.2629,103.6537 36.7909,104.6677 C36.1349,106.0707 35.6499,107.5517 35.0399,108.9777 C34.6259,109.9427 35.0279,110.8597 35.9469,111.2407 C36.3099,111.3907 36.7319,111.9257 36.7489,112.3017 C36.8319,114.1357 36.8389,115.9777 36.7529,117.8117 C36.7279,118.3277 36.2969,118.8247 35.9989,119.4387 C37.8259,119.6987 38.7319,121.2347 39.8599,122.4247 C40.5619,123.1657 41.0999,124.1567 41.4259,125.1307 C41.8049,126.2627 40.6839,127.0517 39.9849,127.2317 C38.7519,127.5497 38.0319,128.3377 37.3329,129.1727 C36.5309,130.1297 35.5809,130.3627 34.4329,130.2477 C33.6099,130.1657 32.9549,130.2867 32.9389,131.3707 C32.9359,131.6107 32.5639,131.9387 32.2889,132.0647 C31.4019,132.4707 30.2619,132.5787 29.6219,133.2087 C28.4579,134.3537 27.1459,133.9307 25.8809,133.9777 C24.2749,134.0387 23.3189,132.9647 23.3829,131.3637 C23.3939,131.0787 23.3249,130.7917 23.2499,130.1237 C22.2819,131.0627 21.5469,131.7687 20.8209,132.4837 C20.1319,133.1627 17.7959,133.2647 16.9909,132.7487 C15.5889,131.8487 14.1899,130.9977 12.3639,131.1427 C11.2619,131.2297 9.9799,131.6187 9.1419,130.4627 C8.6439,130.6497 7.9999,131.0897 7.7899,130.9357 C7.0169,130.3687 6.3769,129.6157 5.7189,128.9027 C5.6319,128.8077 5.6679,128.5067 5.7499,128.3577 C6.4849,127.0107 7.2659,125.6887 7.9709,124.3267 C8.0779,124.1227 7.9619,123.5947 7.7819,123.4817 C6.2459,122.5207 6.3869,121.0447 6.4109,119.5437 C6.4199,118.9967 6.0769,118.4437 5.9009,117.8917 C5.7639,117.4627 5.5229,117.0317 5.5229,116.6017 C5.5109,105.9297 5.5319,95.2587 5.5139,84.5877 C5.5139,84.1397 5.2499,83.6707 5.0349,83.2487 C4.6289,82.4457 3.9559,81.7137 3.7829,80.8727 C3.5329,79.6527 2.1809,78.7777 2.7129,77.3487 C0.7789,74.6767 2.2069,71.6107 1.6989,68.7737 C1.6029,68.2357 1.4419,67.6697 1.1559,67.2137 C0.6949,66.4807 0.6799,63.3087 1.1259,62.5767 C1.4239,62.0857 1.6769,61.4737 1.6839,60.9117 C1.7399,56.3007 1.7149,51.6877 1.7689,47.0757 C1.7749,46.5477 2.1259,46.0267 2.3019,45.4987 C2.4329,45.1067 2.6209,44.7127 2.6429,44.3127 C2.6909,43.4557 2.5909,42.5877 2.6739,41.7367 C2.7009,41.4567 3.1029,41.2127 3.3339,40.9517 C3.5489,41.1927 3.9489,41.4317 3.9529,41.6767 C3.9799,43.4337 3.9389,45.1917 3.8849,46.9487 C3.8799,47.1467 3.6949,47.3797 3.5299,47.5277 C2.8799,48.1147 2.8079,48.6427 3.4749,49.3107 C3.6709,49.5067 3.6139,50.0417 3.5449,50.3957 C3.4389,50.9337 3.0809,51.4477 3.0739,51.9747 C3.0309,55.2967 3.2319,58.6337 2.9739,61.9377 C2.8649,63.3347 2.6919,64.6437 2.9529,66.0527 C3.1769,67.2637 3.0169,68.5457 3.0339,69.7957 C3.0369,69.9897 2.9959,70.2587 3.1019,70.3647 C4.5099,71.7697 3.7309,73.5337 3.9349,75.1357 C3.9989,75.6367 4.2629,76.1107 4.4199,76.6027 C4.5549,77.0327 4.6939,77.4647 4.7869,77.9047 C4.8669,78.2907 4.8849,78.6887 4.9309,79.0817 C5.0519,79.0987 5.1739,79.1157 5.2959,79.1337 C5.4059,78.8257 5.5979,78.5197 5.6089,78.2087 C5.6319,77.5467 5.5509,76.8817 5.5289,76.2177 C5.5189,75.9077 5.4139,75.4757 5.5719,75.3027 C7.0509,73.6907 6.1609,71.7257 6.4079,69.9397 C6.5139,69.1707 6.3909,68.3947 7.1659,67.8437 C7.3739,67.6957 7.4039,67.2097 7.4069,66.8777 C7.4179,65.8247 7.3749,64.7707 7.3599,63.7157 C7.3559,63.4827 7.2879,63.1387 7.4109,63.0337 C8.9999,61.6697 8.1419,59.8517 8.3139,58.2377 C8.4099,57.3347 8.4929,56.4567 7.5999,55.6867 C6.9189,55.0977 7.4399,52.6047 8.3369,51.7177 C7.9729,51.5837 7.6479,51.5417 7.4289,51.3667 C7.0599,51.0707 6.4929,50.6847 6.5009,50.3487 C6.5089,49.9787 7.0349,49.3707 7.4059,49.3117 C8.2619,49.1757 8.4139,48.7567 8.3559,48.0257 C8.2999,47.3267 8.3119,46.6217 8.2939,45.9187 C8.2899,45.7627 8.3449,45.5487 8.2649,45.4587 C6.7319,43.7507 7.5719,41.6637 7.3799,39.7547 C7.2399,38.3637 7.3779,36.9437 7.4069,35.5377 C7.4119,35.3077 7.4119,35.0017 7.5479,34.8627 C9.0349,33.3397 8.3839,31.4597 8.3299,29.7387 C8.2789,28.1307 8.3549,26.7577 9.8439,25.7497 C10.0799,25.5907 9.9429,24.7517 9.8379,24.2577 C9.7159,23.6837 9.4259,23.1467 9.2309,22.5867 C9.0949,22.1977 9.0899,21.7277 8.8609,21.4117 C8.0339,20.2697 8.0899,19.1737 9.0559,18.0937 C9.4829,17.6177 9.9359,17.1097 10.1719,16.5327 C10.6289,15.4087 9.7899,14.7367 9.0919,14.0507 C8.0349,13.0097 8.0229,12.7587 8.9629,11.6647 C9.0619,11.5477 9.2449,11.3937 9.2219,11.2947 C8.9199,9.9557 9.7989,8.9677 10.2689,7.8847 C10.7139,6.8637 11.3689,5.9337 11.9319,4.9637 C12.3109,4.3127 12.7799,3.6957 13.0549,3.0027 C13.6959,1.3897 15.6619,0.9097 17.1169,1.9587 C17.4559,2.2037 18.1429,2.0707 18.6379,1.9627 C19.1749,1.8467 19.6739,1.5567 20.1899,1.3447 C20.5919,1.1787 20.9979,1.0217 21.3969,0.8507 C21.4989,0.8077 21.5739,0.7027 21.6759,0.6627 C22.5449,0.3297 24.5489,1.7237 24.5919,2.6767 C24.6369,3.6437 24.2069,4.7227 25.2789,5.4677 C25.3679,5.5297 25.2229,6.1157 25.0429,6.3447 C24.3209,7.2617 24.3379,8.1247 25.0709,9.0307 C25.3169,9.3347 25.4609,9.7767 25.5079,10.1727 C25.5789,10.7497 25.5989,11.3567 25.5019,11.9267 C25.1859,13.7557 26.1439,15.1227 27.0279,16.5427 C27.1739,16.7777 27.2169,17.2887 27.0689,17.4517 C26.7179,17.8347 26.2219,18.0847 25.7859,18.3887 C25.5909,18.0997 25.2599,17.8247 25.2299,17.5187 C25.1509,16.7297 24.6529,16.7207 24.0709,16.7007 C22.2789,16.6387 21.4269,15.7107 21.4669,13.8967 C21.5079,12.0137 21.2129,11.6737 19.3749,11.0157 C18.1549,10.5787 16.9879,9.9967 15.7959,9.4827 C15.6919,9.4377 15.5119,9.3567 15.4769,9.3937 C14.3989,10.5627 12.4759,9.8127 11.4289,11.3187 C10.8229,12.1897 10.4699,12.6687 11.4829,13.2917 C12.4019,13.8557 12.5929,14.7397 12.3499,15.6297 C12.1799,16.2537 11.6019,16.7557 11.2699,17.3477 C10.9679,17.8887 10.6249,18.4577 10.5319,19.0507 C10.4119,19.8127 10.5769,20.6127 10.5249,21.3907 C10.4279,22.8117 11.3849,23.8107 11.9669,24.9237 C12.3819,25.7147 13.2319,26.2847 13.9119,26.9287 C14.9009,27.8657 15.8689,27.8847 16.9909,27.0777 C17.2589,26.8837 17.6389,26.6877 17.9399,26.7237 C19.1119,26.8637 19.8259,26.1977 20.5309,25.4377 C21.0349,24.8957 21.6409,24.4387 22.0919,23.8597 C22.5949,23.2127 22.9109,22.4197 23.4229,21.7827 C24.0959,20.9427 24.8689,20.1817 25.6349,19.4227 C25.7209,19.3377 26.0849,19.4357 26.2409,19.5527 C26.3349,19.6237 26.3499,19.9357 26.2759,20.0677 C26.1319,20.3247 25.8979,20.5307 25.8129,20.6297 C26.6649,21.3257 27.8499,21.8297 28.1419,22.6517 C28.4999,23.6577 29.1119,24.2897 29.7689,24.9707 C30.8249,26.0647 31.9729,27.0757 32.9649,28.2237 C33.6949,29.0697 34.2699,30.0597 34.8539,31.0217 C35.5369,32.1467 36.1569,33.3107 36.7999,34.4607 C36.9299,34.6937 36.9849,34.9997 37.1699,35.1677 C38.4489,36.3337 38.9439,37.9327 39.7219,39.3967 C40.2149,40.3257 40.1829,41.3977 40.6209,42.1127 C41.7239,43.9147 41.5539,46.2457 43.1569,47.7987 C43.3779,48.0117 43.3419,48.5367 43.3439,48.9167 C43.3529,50.2467 43.3279,51.5757 43.3129,52.9047 C43.3069,53.4657 43.3799,53.9547 44.1349,53.8557 L44.1349,74.0307 C43.2719,73.9297 43.3149,74.5257 43.3189,75.0917 C43.3259,76.1187 43.4309,77.0447 42.6159,78.0177 C42.1389,78.5847 42.4379,79.8777 42.5779,80.8157 C42.6009,80.9747 43.5909,80.9877 44.1349,81.0677 L44.1349,85.2907 Z" id="Fill-3" fill="#231916" mask="url(#mask-2)"></path>
                </g>
                <path d="M19.5054,25.6167 C18.2274,25.1427 18.4364,26.3797 17.9614,26.9287 C16.9274,28.1247 17.9404,28.3557 18.6564,28.9317 C18.9474,27.7957 19.2084,26.7777 19.5054,25.6167 M22.1444,34.6567 C22.3434,34.5597 22.5414,34.4637 22.7404,34.3667 C22.6174,33.9597 22.5314,33.5367 22.3624,33.1497 C22.1804,32.7327 21.8144,32.3737 21.7144,31.9457 C21.4904,30.9907 20.9854,31.0267 20.1444,31.3967 C20.8454,32.5397 21.4944,33.5977 22.1444,34.6567 M28.7404,61.5017 C28.7814,61.6017 28.8214,61.7027 28.8614,61.8037 C29.2844,61.6897 29.7194,61.6077 30.1264,61.4527 C30.5084,61.3077 30.8784,61.1107 31.2234,60.8887 C31.5174,60.6997 32.0324,60.3297 31.9924,60.2347 C31.7634,59.6957 31.4374,59.1787 31.0444,58.7417 C30.9534,58.6397 30.3364,58.7877 30.2054,58.9837 C29.6664,59.7887 29.2214,60.6567 28.7404,61.5017 M24.0754,38.1707 C24.1974,38.2257 24.3204,38.2807 24.4434,38.3357 C25.1004,37.1847 25.8254,36.0657 26.3754,34.8657 C26.5724,34.4367 26.3444,33.8127 26.3024,33.1607 C25.1224,33.9937 24.1754,34.6617 23.3214,35.2647 C23.5464,36.1317 23.8114,37.1517 24.0754,38.1707 M15.5004,60.7337 C15.6174,60.7807 15.7344,60.8267 15.8514,60.8737 C16.2484,60.3417 16.8164,59.8637 17.0004,59.2657 C17.2434,58.4797 17.4964,57.9337 18.4084,58.1207 C19.3274,58.3087 19.1714,59.0497 19.1684,59.7137 C19.1584,61.3537 19.1924,62.9947 19.1594,64.6357 C19.1394,65.6767 19.8304,65.5787 20.5074,65.5947 C21.2084,65.6117 21.7104,65.5107 21.7454,64.6107 C21.7974,63.2747 21.7344,62.0527 20.4354,61.2377 C20.2114,61.0977 20.0124,60.5977 20.0964,60.3767 C20.1804,60.1567 20.6624,59.9207 20.9234,59.9657 C21.7874,60.1147 22.6314,60.3877 23.5754,60.6377 C23.3284,59.2057 24.1624,58.8627 25.4374,59.0197 C25.7064,59.0527 26.0114,59.0987 26.2524,59.0097 C27.2064,58.6577 28.1424,58.2537 29.0844,57.8687 C29.0604,57.7477 29.0344,57.6257 29.0104,57.5047 C28.6154,57.4687 28.2224,57.4067 27.8264,57.4017 C27.1644,57.3947 26.5014,57.4167 25.8394,57.4427 C25.0694,57.4717 24.5774,57.2517 24.5104,56.3577 C24.4394,55.4037 23.6284,55.3397 23.1764,55.8027 C22.1734,56.8307 20.9904,56.4707 19.8724,56.4457 C19.5304,56.4377 18.9114,55.8527 18.9344,55.5747 C18.9674,55.1627 19.4014,54.5437 19.7734,54.4507 C20.5504,54.2577 21.4034,54.3887 22.2184,54.3117 C22.6624,54.2697 23.1814,54.1837 23.5064,53.9207 C24.0404,53.4897 24.3994,53.4217 24.8934,53.9537 C25.1004,54.1777 25.5394,54.1677 25.8064,54.3587 C26.1134,54.5787 26.3894,54.8757 26.5994,55.1927 C26.7454,55.4137 26.7584,55.7227 26.8074,55.9057 C27.5934,55.6627 28.2294,55.3187 28.8724,55.3037 C29.8554,55.2797 30.1384,54.8967 30.1764,53.9587 C30.1974,53.4147 30.5694,52.8647 30.8534,52.3547 C31.2154,51.7047 31.8844,51.1327 31.9984,50.4557 C32.2284,49.0907 31.5694,47.5697 32.8334,46.3877 C32.9794,46.2507 32.9084,45.8647 32.9094,45.5937 C32.9154,43.0527 32.9194,40.5117 32.9104,37.9707 C32.9094,37.6587 32.8294,37.3477 32.7854,37.0357 C31.6524,38.0267 30.0854,38.5767 30.4184,40.4157 C30.4694,40.6937 30.2014,41.0477 30.0364,41.3417 C29.5604,42.1907 28.6194,43.0527 28.6674,43.8617 C28.7484,45.2467 27.8844,46.1427 27.5364,47.2757 C27.2554,48.1897 26.7524,49.0817 26.1654,49.8437 C25.5304,50.6687 24.7304,51.3897 23.9124,52.0447 C23.4714,52.3987 22.8594,52.5987 22.2934,52.7247 C21.6574,52.8667 20.7714,52.6017 20.3744,52.9487 C19.4864,53.7257 18.5254,53.6377 17.5214,53.7037 C17.1374,53.7287 16.7664,53.9477 16.3884,54.0767 C16.5504,54.5127 16.6144,55.0297 16.8954,55.3687 C17.4794,56.0757 17.4044,56.6217 16.8764,57.3387 C16.2934,58.1297 15.8564,59.0347 15.4174,59.9207 C15.3164,60.1277 15.4664,60.4597 15.5004,60.7337 M7.0824,133.7217 C7.9114,134.2897 9.7454,134.2107 10.4264,133.7657 C10.8804,133.4707 11.4414,133.3237 11.9704,133.1617 C12.2974,133.0607 12.7254,133.1657 12.9844,132.9937 C14.1174,132.2467 15.1384,131.2997 16.3344,130.6927 C17.0154,130.3467 17.9564,130.5147 18.7794,130.4517 C18.6604,130.9447 18.5374,131.4367 18.4284,131.9317 C18.4144,131.9937 18.4704,132.0717 18.4654,132.0567 C19.7924,132.2457 21.0814,132.4297 22.5964,132.6467 C22.9934,132.0267 23.6544,132.5147 24.4894,133.1567 C25.8574,131.9807 27.1884,130.7997 28.5684,129.6797 C28.8344,129.4637 29.3034,129.5127 29.6624,129.3927 C30.2194,129.2077 30.8034,129.0507 31.3034,128.7567 C31.9664,128.3677 32.5314,128.3107 33.0874,128.8877 C33.3854,129.1977 33.6444,129.5547 33.9814,129.8127 C34.1824,129.9667 34.4974,129.9717 34.7624,130.0437 C34.7864,129.7527 34.8924,129.4377 34.8134,129.1787 C34.7424,128.9437 34.4814,128.7597 34.2854,128.5717 C33.4964,127.8147 32.7024,127.1237 32.9494,125.7977 C33.0784,125.1087 32.1744,124.6787 31.6484,125.2187 C30.8404,126.0477 29.8874,125.8887 28.9424,126.0027 C28.5024,126.0557 27.9984,126.1417 27.6664,126.3977 C27.1674,126.7837 26.8084,126.8537 26.3614,126.3777 C25.8724,125.8557 25.3344,125.8457 24.8414,126.3677 C24.4004,126.8337 24.0804,126.7037 23.5384,126.4167 C22.2224,125.7207 21.0044,124.6847 19.3114,124.9807 C18.5114,125.1197 17.6744,125.0367 16.8544,125.0627 C16.5044,125.0737 16.0084,124.9647 15.8284,125.1507 C14.6754,126.3437 13.2144,125.8777 11.8594,126.0217 C11.3994,126.0707 10.9444,126.3287 10.5234,126.5557 C9.5064,127.1047 9.7734,128.0807 9.7954,128.9537 C9.8514,131.0447 9.3244,132.8017 7.0824,133.7217 M14.7144,51.2097 C15.8554,50.5127 16.9984,49.9357 17.9944,49.1687 C18.9864,48.4037 19.8304,47.4477 20.7384,46.5747 L20.4454,46.1057 C19.9924,46.3087 19.5504,46.5397 19.0834,46.7037 C18.7754,46.8117 18.4334,46.8237 18.1054,46.8777 C18.1984,46.5537 18.1934,46.1357 18.4014,45.9217 C19.3464,44.9427 20.3674,44.0377 21.3274,43.0737 C21.9894,42.4087 21.8784,41.1887 21.2304,40.4417 C19.8954,38.9047 18.8054,37.2097 17.8704,35.3897 C17.2554,34.1927 16.3654,33.1377 15.5944,32.0227 C15.4844,31.8647 15.2194,31.7077 15.2384,31.5837 C15.5314,29.7357 13.5474,28.3387 14.2214,26.4177 C14.2764,26.2567 14.1884,26.0457 14.1214,25.4617 C13.5104,26.0957 13.0414,26.4887 12.6914,26.9687 C12.2974,27.5067 12.0064,28.1217 11.6774,28.7067 C11.0464,29.8277 10.4134,30.9477 9.7934,32.0747 C9.2714,33.0277 8.7104,33.9647 8.2674,34.9547 C7.7794,36.0447 7.4014,37.1847 6.9884,38.3077 C6.8594,38.6627 6.8384,39.0717 6.6544,39.3907 C5.8544,40.7907 4.8294,42.0757 5.0774,43.8747 C5.2014,44.7747 5.3354,45.7837 4.3214,46.3987 C4.2384,46.4497 4.1604,46.6097 4.1754,46.7047 C4.5654,49.1627 2.6094,51.2837 3.1774,53.8037 C3.2994,54.3457 2.7784,55.0327 2.5474,55.6507 C2.5224,55.7187 2.4044,55.7717 2.4064,55.8297 C2.4554,57.7937 2.2994,59.8007 2.6844,61.6987 C2.8274,62.4047 3.2514,63.1467 3.2134,63.9557 C3.1804,64.6707 3.1664,65.2957 3.8244,65.8497 C4.1214,66.1007 4.0974,66.7687 4.1584,67.2557 C4.3124,68.4467 3.7834,69.7877 4.9614,70.7517 C5.0604,70.8327 5.0924,71.0427 5.0894,71.1907 C5.0534,72.8107 5.8994,74.0657 6.7734,75.3107 C6.8394,75.4057 6.9214,75.5187 6.9224,75.6237 C6.9494,79.2437 9.8574,80.9907 11.8814,83.3237 C12.4334,83.9607 12.6934,84.8507 13.2384,85.4967 C14.0404,86.4477 15.0234,87.2437 15.8344,88.1877 C16.1454,88.5487 16.2444,89.1257 16.3164,89.6227 C16.3274,89.7037 15.6194,90.0737 15.3704,89.9777 C13.3254,89.1967 11.9764,87.5157 10.5114,86.0107 C9.6534,85.1287 8.9304,84.1157 8.0614,83.0587 C8.0044,83.2687 7.8274,83.6127 7.8284,83.9567 C7.8474,89.0767 7.8924,94.1967 7.9214,99.3167 C7.9224,99.5837 7.9394,99.9637 7.7814,100.1017 C6.4474,101.2767 7.2584,102.8287 7.0234,104.1897 C6.9934,104.3627 7.0514,104.6407 7.1724,104.7357 C8.2814,105.5947 7.8654,106.7987 7.9014,107.8877 C7.9264,108.6207 7.7444,109.3637 8.5244,109.8927 C8.6534,109.9807 8.5094,110.5497 8.4134,110.8737 C8.2794,111.3257 7.9304,111.7547 7.9214,112.1987 C7.8774,114.3867 7.9604,116.5777 7.8954,118.7647 C7.8764,119.4027 7.5184,120.0307 7.2644,120.8227 C7.6184,120.8457 8.0324,120.8107 8.4094,120.9107 C8.8654,121.0317 9.2964,121.2527 9.7264,121.4577 C9.9614,121.5697 10.1524,121.8007 10.3944,121.8657 C11.9014,122.2747 12.0814,122.7757 11.1284,123.9827 C11.0394,124.0947 10.9994,124.2427 10.8294,124.6017 C12.1584,124.5187 13.3084,125.0377 14.4704,124.1097 C14.9414,123.7327 15.7954,123.8587 16.4624,123.6987 C17.0374,123.5597 17.5834,123.2287 18.1594,123.1797 C19.6024,123.0557 21.0544,123.0297 22.5024,123.0117 C22.6244,123.0107 22.8564,123.3657 22.8564,123.5547 C22.8544,124.6267 23.5284,124.7177 24.3544,124.6937 C25.4074,124.6637 26.4724,124.7587 27.5154,124.6457 C28.2014,124.5717 28.8584,124.2257 29.5274,124.0017 C29.7454,123.9287 29.9604,123.7977 30.1814,123.7867 C31.9934,123.6947 33.4114,122.8097 34.7254,121.6467 C35.0084,121.3967 35.4894,121.3707 35.8794,121.2417 C35.8804,121.7507 36.0984,122.5037 35.8454,122.7307 C34.4534,123.9787 35.3634,125.5397 35.1774,126.9317 C35.1574,127.0777 35.8964,127.5307 36.2334,127.4827 C37.4244,127.3157 38.0524,128.1057 38.6684,128.8177 C39.3584,129.6147 38.3814,131.3957 37.1084,131.5087 C36.0044,131.6057 35.3274,131.6317 34.8694,133.0117 C34.2634,134.8387 30.7634,135.9697 28.9734,135.2307 C28.6454,135.0947 28.3074,134.5117 28.3234,134.1507 C28.3384,133.8137 28.7874,133.4637 29.1034,133.1817 C29.4344,132.8867 29.8644,132.6987 30.1734,132.3847 C30.2324,132.3247 29.8804,131.6677 29.7834,131.6837 C29.2934,131.7647 28.7874,131.9137 28.3594,132.1617 C27.9984,132.3697 27.7624,132.7817 27.4244,133.0417 C26.8634,133.4717 26.6924,133.8007 27.2684,134.4407 C28.0114,135.2667 27.6714,136.0027 26.5704,136.2657 C26.3504,136.3187 26.0594,136.3527 25.9394,136.5047 C25.3954,137.1937 24.9514,137.1927 24.3184,136.5517 C24.0554,136.2847 23.4454,136.2377 23.0124,136.2827 C21.8234,136.4047 20.8664,136.1107 20.1824,135.0837 C19.7474,134.4327 19.2704,134.3927 18.8244,135.0707 C18.1154,136.1527 17.0864,136.4317 15.8854,136.2567 C14.6644,136.0787 13.2854,136.7797 12.2334,135.5987 C12.1564,135.5137 11.8374,135.5347 11.7104,135.6217 C9.7364,136.9627 7.5534,136.0127 5.4764,136.1587 C5.2754,136.1737 4.8684,135.4967 4.8264,135.1107 C4.7284,134.2227 4.7794,133.3157 4.8044,132.4177 C4.8114,132.1547 4.8604,131.8487 5.0054,131.6417 C5.8034,130.5007 6.7324,129.4377 7.4144,128.2337 C7.7234,127.6887 7.5854,126.8807 7.6164,126.1907 C7.6654,125.0817 7.2074,123.7047 9.1114,123.6597 C9.2564,123.6567 9.5354,123.0787 9.4824,122.8257 C9.4334,122.5937 9.0314,122.3017 8.7624,122.2757 C7.8694,122.1867 6.9584,122.2737 6.0714,122.1577 C5.6414,122.1007 5.0284,121.8277 4.9014,121.4967 C4.7624,121.1387 5.0694,120.5917 5.2244,120.1417 C5.3784,119.6927 5.7434,119.2617 5.7444,118.8217 C5.7624,107.2117 5.7384,95.6017 5.7564,83.9917 C5.7574,83.5027 5.9824,82.9397 6.2774,82.5437 C6.8654,81.7587 6.9274,79.6947 6.2184,78.9597 C4.7374,77.4267 3.6634,75.7397 3.8664,73.4887 C3.8834,73.3007 3.8854,73.0207 3.7734,72.9257 C2.6494,71.9677 2.9654,70.6617 2.8724,69.4477 C2.8534,69.1977 2.6814,68.9517 2.5464,68.7227 C2.4704,68.5937 2.2654,68.5217 2.2244,68.3917 C1.8184,67.0797 1.2894,65.7827 1.0824,64.4367 C0.8834,63.1377 1.0244,61.7857 1.0084,60.4577 C1.0054,60.2257 1.0554,59.9127 0.9294,59.7757 C-0.4096,58.3237 -0.0436,56.3507 0.4384,55.0497 C0.9264,53.7307 0.8144,52.4697 1.1394,51.2247 C1.2204,50.9147 1.5344,50.6647 1.7864,50.3267 C1.1564,49.6617 0.9434,48.9927 1.8684,48.3477 C2.0214,48.2417 1.9394,47.8317 2.0194,47.5787 C2.2054,46.9887 2.4364,46.4117 2.6274,45.8237 C2.7534,45.4327 2.9784,45.0117 2.9264,44.6357 C2.6344,42.5227 3.4724,40.8237 4.5754,39.0997 C5.2004,38.1217 5.3334,36.8377 5.7474,35.7127 C6.0704,34.8327 6.4004,33.9357 6.8814,33.1387 C7.5654,32.0067 8.6154,31.0517 9.0994,29.8547 C9.7414,28.2607 10.9024,27.2037 12.0384,26.0597 C12.1864,25.9117 12.1664,25.6117 12.2884,25.4237 C12.5414,25.0367 12.7804,24.4607 13.1324,24.3687 C13.4834,24.2767 13.9674,24.6737 14.3874,24.8697 C14.5164,24.9297 14.6234,25.0367 14.9854,25.3007 C14.9434,23.8257 16.4294,23.0497 16.0164,21.5757 C15.9254,21.2507 15.9174,20.8417 16.0344,20.5337 C16.1514,20.2287 16.4754,20.0017 16.7074,19.7407 C16.9224,20.0167 17.2614,20.2677 17.3244,20.5757 C17.4294,21.0797 17.3534,21.6207 17.3534,22.1467 C17.4864,22.1517 17.6194,22.1577 17.7534,22.1627 C17.8264,21.8877 17.8434,21.5757 17.9904,21.3477 C18.1554,21.0917 18.4394,20.9107 18.6704,20.6977 C18.8594,20.9597 19.1264,21.1997 19.2164,21.4917 C19.3014,21.7727 19.0994,22.1547 19.2104,22.4097 C19.3654,22.7667 19.6634,23.2767 19.9564,23.3177 C20.8194,23.4387 21.0854,23.8917 21.0694,24.6657 C21.0604,25.1737 21.0834,25.6817 21.0674,26.1887 C21.0294,27.3307 20.8574,28.3727 21.7454,29.4687 C22.2894,30.1387 22.3834,31.2157 23.5104,31.7307 C23.5104,30.4157 23.5524,29.1957 23.4684,27.9837 C23.4544,27.7887 22.8594,27.6607 22.5684,27.4507 C22.3154,27.2667 22.1124,27.0117 21.8874,26.7877 C22.1584,26.5687 22.4164,26.1837 22.7034,26.1607 C23.7214,26.0787 24.7104,25.9857 24.9114,27.5177 C25.0524,28.5797 25.6324,29.5847 26.1774,30.6837 C26.1164,28.5317 26.8214,26.6537 28.0884,25.0097 C27.4434,23.5957 26.7104,22.3257 24.9314,22.0877 C24.8834,22.2357 24.8544,22.4697 24.7374,22.6467 C24.5104,22.9937 24.2924,23.4797 23.9634,23.5907 C23.6494,23.6977 22.9804,23.5077 22.8594,23.2577 C22.6704,22.8697 22.6204,22.1617 22.8584,21.8717 C23.4494,21.1437 24.0844,20.3187 25.2654,20.5217 C25.5484,20.5707 25.9024,20.4937 26.1594,20.3557 C27.3764,19.6987 28.3944,20.2947 28.4914,21.7387 C28.5224,22.1917 28.6064,22.6417 28.6654,23.0947 C28.7764,23.0927 28.8864,23.0907 28.9974,23.0887 C29.0704,22.8557 29.1764,22.6277 29.2094,22.3897 C29.2514,22.0827 29.1104,21.6647 29.2674,21.4727 C30.1834,20.3457 30.1024,19.0377 30.1184,17.7197 C30.1224,17.4757 30.5214,17.2387 30.7374,16.9987 C30.9704,17.2557 31.4174,17.5287 31.4004,17.7677 C31.2924,19.2257 31.9814,20.8477 30.6134,22.0817 C30.5164,22.1697 30.4764,22.3747 30.4864,22.5207 C30.6674,24.9437 29.5444,26.7957 27.9324,28.4437 C27.8044,28.5747 27.6934,28.7827 27.6844,28.9597 C27.6214,30.2447 27.5694,31.5327 27.5594,32.8197 C27.5574,33.0397 27.7654,33.2627 27.8964,33.5227 C28.0784,33.3987 28.2284,33.3537 28.2504,33.2737 C28.5804,32.0827 28.6654,30.7487 29.2774,29.7327 C29.8554,28.7747 30.1404,27.8787 30.2584,26.8057 C30.3204,26.2367 30.8714,26.1597 31.3194,26.6267 C31.8064,27.1327 32.2344,27.7147 32.7864,28.1327 C33.5294,28.6947 34.4944,29.0057 35.1304,29.6537 C35.8514,30.3877 36.2634,31.4127 36.8994,32.2417 C38.0224,33.7087 38.9034,35.1927 38.9794,37.1597 C39.0184,38.1847 39.7254,39.1817 40.1194,40.1957 C40.3464,40.7777 40.6494,41.3547 40.7364,41.9597 C40.8424,42.6867 40.7814,43.4427 40.7464,44.1837 C40.7104,44.9387 40.6684,45.6267 41.4004,46.1777 C41.6554,46.3697 41.6904,46.9587 41.6924,47.3667 C41.7154,50.5337 41.7114,53.6997 41.6964,56.8667 C41.6944,57.2467 41.7154,57.7917 41.4914,57.9757 C40.5764,58.7307 40.7554,59.7137 40.7554,60.6747 C40.7554,65.1707 40.7854,69.6677 40.7284,74.1627 C40.7184,74.8807 40.2654,75.5827 40.1074,76.3117 C39.9534,77.0197 39.8704,77.7497 39.8364,78.4737 C39.8024,79.2197 39.8124,79.9307 38.7894,79.9497 C37.7654,79.9687 37.6394,79.2537 37.7324,78.5147 C37.8054,77.9297 38.0914,77.3747 38.2544,76.7987 C38.3894,76.3237 38.5754,75.8377 38.5774,75.3557 C38.5984,70.5087 38.5624,65.6597 38.6104,60.8127 C38.6164,60.1817 39.0214,59.5567 39.2194,58.9227 C39.3444,58.5247 39.5134,58.1147 39.5184,57.7077 C39.5514,54.8547 39.5494,52.0007 39.5474,49.1467 C39.5474,48.8807 39.5624,48.4797 39.4074,48.3707 C38.2444,47.5487 38.6194,46.3517 38.5924,45.2597 C38.5694,44.4007 38.6084,43.5397 38.6064,42.6797 C38.6064,42.4097 38.6654,41.9997 38.5204,41.8927 C37.3194,41.0077 37.6304,39.7227 37.6464,38.5637 C37.6594,37.5947 37.5104,36.7257 36.6794,36.2087 C35.2094,35.2957 34.9634,33.5237 33.8464,32.3687 C33.4764,31.9877 33.2524,31.4637 32.9624,31.0037 C32.7444,31.1207 32.5274,31.2377 32.3114,31.3537 C32.3114,32.1187 32.4284,32.9057 32.2844,33.6427 C32.0374,34.9217 32.8074,35.6417 33.5074,36.4807 C33.8624,36.9077 34.2134,37.5007 34.2244,38.0247 C34.2724,40.5637 34.1994,43.1057 34.1844,45.6457 C34.1824,45.9567 34.2704,46.2677 34.3164,46.5777 L34.6994,46.5747 C34.7394,46.1607 34.7784,45.7467 34.8184,45.3327 C34.9424,44.0887 34.5304,42.6977 35.7504,41.7527 C35.9954,41.5627 36.4194,41.3287 36.6164,41.4217 C36.8424,41.5277 37.0654,42.0047 37.0144,42.2687 C36.8764,42.9927 36.6914,43.7427 36.3454,44.3857 C35.9124,45.1877 36.0414,48.1487 36.6664,48.8927 C37.2034,49.5337 37.2334,50.2137 36.5674,50.7417 C35.6274,51.4907 35.0784,52.6907 33.6284,52.8887 C32.9394,52.9827 33.0354,53.7987 33.6084,54.2567 C34.1554,54.6937 34.2304,55.0597 33.6894,55.5897 C33.0504,56.2167 32.9824,58.2747 33.5884,58.9237 C34.0524,59.4207 34.1704,59.8087 33.6394,60.3037 C33.0064,60.8917 33.1874,61.3617 33.7274,61.9857 C34.5354,62.9197 35.1964,63.9867 35.8684,65.0297 C35.9644,65.1797 35.8434,65.5637 35.7054,65.7547 C34.8564,66.9307 34.8784,68.3767 35.7184,69.5497 C35.9454,69.8677 36.0504,70.3347 36.0614,70.7377 C36.0974,72.1437 36.0854,73.5527 36.0574,74.9587 C36.0404,75.7817 35.9354,76.5807 36.7014,77.2077 C36.9094,77.3777 36.9194,77.8587 36.9254,78.1977 C36.9664,80.6997 37.0164,83.2007 36.9834,85.7007 C36.9754,86.2677 36.6344,86.8257 36.4794,87.3977 C36.4164,87.6297 36.3834,87.8987 36.4374,88.1267 C36.6004,88.8097 36.9774,89.4807 36.9804,90.1577 C37.0204,98.0547 37.0224,105.9507 36.9804,113.8467 C36.9764,114.4757 36.5754,115.1047 36.3504,115.7287 C36.2844,115.9087 36.1574,116.0687 36.1034,116.2507 C35.7684,117.3637 35.4714,118.4877 35.1004,119.5877 C35.0204,119.8237 34.6034,120.1737 34.4914,120.1257 C34.2264,120.0097 33.8544,119.6737 33.8704,119.4507 C33.9534,118.2947 33.4794,117.0237 34.5864,116.0377 C34.8344,115.8167 34.8244,115.2367 34.8284,114.8217 C34.8464,112.7107 34.7994,110.5977 34.8474,108.4887 C34.8594,107.9907 35.1644,107.5027 35.2984,107.0017 C35.3684,106.7397 35.4314,106.4417 35.3744,106.1877 C35.2294,105.5387 34.8564,104.9067 34.8544,104.2657 C34.8284,95.5877 34.8534,86.9097 34.8534,78.2317 C34.8534,77.9347 34.8284,77.4867 34.6454,77.3657 C33.6994,76.7397 33.8894,75.8127 33.8984,74.9307 C33.9144,73.2897 33.9634,71.6487 33.9604,70.0077 C33.9594,69.6367 33.7994,69.2657 33.7124,68.8947 C33.5754,68.8877 33.4394,68.8807 33.3024,68.8727 C32.9704,70.0867 32.3584,71.2987 32.3504,72.5137 C32.2804,83.8507 32.3224,95.1887 32.2964,106.5267 C32.2954,107.0527 31.9464,107.5747 31.7794,108.1057 C31.6454,108.5337 31.4504,108.9687 31.4374,109.4057 C31.3944,110.7327 31.4324,112.0627 31.4254,113.3917 C31.4214,114.1507 31.1454,114.7267 30.2764,114.6807 C29.9714,114.6647 29.5874,114.5067 29.4114,114.2797 C29.3094,114.1477 29.5444,113.7497 29.6354,113.4737 C29.7834,113.0167 30.0704,112.5627 30.0724,112.1067 C30.1094,98.9707 30.1114,85.8357 30.1534,72.6997 C30.1544,72.2117 30.4894,71.7237 30.6674,71.2357 C30.8094,70.8457 31.0584,70.4577 31.0684,70.0647 C31.1154,68.0717 31.0944,66.0777 31.1144,64.0837 C31.1214,63.4047 30.8704,63.0437 30.1464,63.1117 C29.1034,63.2107 28.0224,62.8647 27.0874,63.8257 C26.7474,64.1757 25.7424,64.1717 25.1864,63.9557 C24.0224,63.5047 25.2114,62.9257 25.2784,62.2627 C24.9464,61.9547 24.5664,61.6017 24.1844,61.2487 C24.0604,61.2767 23.9364,61.3047 23.8134,61.3337 C23.8134,62.1157 23.8104,62.8977 23.8134,63.6797 C23.8344,68.9577 23.8594,74.2347 23.8724,79.5127 C23.8724,79.8177 23.8994,80.2627 23.7224,80.4067 C22.6904,81.2417 22.9564,82.3657 22.9334,83.4367 C22.9274,83.7027 22.9234,84.1017 22.7634,84.2097 C21.6964,84.9277 22.0704,85.9907 21.9704,86.9677 C21.9164,87.4877 21.5834,87.9937 21.3174,88.4737 C20.9194,89.1937 20.5674,89.9747 20.0194,90.5667 C19.1714,91.4807 18.2914,92.4947 17.2094,93.0277 C16.0364,93.6037 15.1364,94.5647 15.3974,95.8517 C15.4274,96.0027 15.4454,96.2157 15.5474,96.2827 C16.6514,97.0117 16.3444,98.1297 16.3544,99.1537 C16.3614,100.0457 16.3884,100.8317 17.0354,101.6467 C17.4544,102.1727 17.2604,103.2077 17.2864,104.0167 C17.3134,104.8347 17.1684,105.6837 17.9954,106.2437 C18.0814,106.3017 18.1694,106.4477 18.1594,106.5427 C17.8534,109.6127 19.8144,112.4117 19.2214,115.5017 C19.1564,115.8397 18.7824,116.1167 18.5524,116.4227 C18.3254,116.1137 17.9234,115.8127 17.9084,115.4937 C17.8744,114.7437 17.9774,114.0057 17.2524,113.4927 C17.1784,113.4397 17.1144,113.2177 17.1514,113.1807 C18.3494,111.9857 16.4674,110.9807 16.9354,109.8097 C17.0104,109.6217 16.7114,109.2687 16.5574,109.0087 C16.4414,108.8117 16.1884,108.6567 16.1514,108.4547 C15.7934,106.4497 15.4954,104.4337 15.1164,102.4337 C14.9804,101.7127 14.6174,101.0367 14.4544,100.3197 C14.3034,99.6517 14.3234,98.9457 14.1854,98.2737 C14.0754,97.7427 13.8304,97.2407 13.6604,96.7197 C13.5104,96.2577 13.3294,95.7967 13.2544,95.3217 C13.0684,94.1457 13.7554,92.8107 12.5794,91.8017 C12.4844,91.7197 12.6234,91.1257 12.7144,91.1097 C13.1454,91.0327 13.6804,90.9167 14.0264,91.1007 C15.6744,91.9767 15.5574,91.8927 16.9564,90.6937 C18.2324,89.6007 18.7914,88.0887 19.7324,86.8087 C19.8874,86.5967 19.7534,86.1937 19.8374,85.9037 C19.9894,85.3777 20.1994,84.8667 20.4014,84.3557 C20.4424,84.2557 20.6034,84.1977 20.6314,84.0987 C20.9964,82.8037 21.6044,81.5147 21.6544,80.2057 C21.7994,76.4187 21.7284,72.6237 21.7064,68.8317 C21.7044,68.4987 21.5054,67.9517 21.2824,67.8847 C20.9494,67.7837 20.3844,67.8957 20.1514,68.1407 C19.7234,68.5907 19.4694,69.2047 19.1354,69.7457 C18.9584,70.0337 18.7584,70.3067 18.5794,70.5927 C18.1224,71.3227 17.7494,72.1217 17.1994,72.7707 C16.4544,73.6507 15.6184,74.4707 14.7214,75.1917 C14.5024,75.3677 13.8924,75.0567 13.4624,74.9697 C13.5784,74.6387 13.6894,74.3067 13.8154,73.9807 C13.8404,73.9157 13.9594,73.8847 13.9794,73.8207 C14.3704,72.5497 14.7694,71.2797 15.1324,70.0007 C15.2454,69.5987 15.1094,68.9657 15.3464,68.7897 C16.2024,68.1567 16.1294,67.3317 16.0624,66.4717 C16.0004,65.6997 16.0964,65.0347 16.7804,64.4887 C16.9964,64.3167 16.8954,63.7477 16.9394,63.3607 C16.6214,63.4907 16.2404,63.5487 16.0014,63.7627 C15.4224,64.2827 14.9684,64.9547 14.3494,65.4097 C13.9684,65.6897 13.3404,65.8437 12.8934,65.7437 C12.6254,65.6837 12.4054,65.0417 12.3164,64.6287 C11.9204,62.8097 13.0774,61.4547 13.7814,59.9657 C13.9434,59.6257 14.1744,59.2617 14.1684,58.9117 C14.1564,58.1307 14.2204,57.4577 14.9354,56.9507 C15.1184,56.8217 15.2304,56.3337 15.1354,56.1137 C14.7954,55.3227 14.4964,54.4317 13.9124,53.8507 C13.2514,53.1937 13.3184,52.4887 13.1974,51.7297 C13.0824,51.0087 12.7544,50.3237 12.5374,49.6167 C12.4374,49.2877 12.3194,48.9487 12.3104,48.6107 C12.2744,47.2837 12.2804,45.9537 12.2654,44.6257 C12.2614,44.3537 12.3414,43.9707 12.1964,43.8287 C10.8064,42.4557 11.5924,40.7287 11.3644,39.1697 C11.2814,38.6077 10.8854,38.0947 10.7844,37.5317 C10.6414,36.7247 10.5724,35.8887 10.6274,35.0757 C10.6394,34.9077 11.3194,34.7357 11.7104,34.6617 C11.8994,34.6257 12.2574,34.7607 12.3194,34.9097 C12.7624,35.9777 13.4174,37.0507 13.4974,38.1587 C13.6794,40.6867 13.5704,43.2357 13.5824,45.7757 C13.5824,45.9317 13.5334,46.1497 13.6154,46.2347 C14.9264,47.5927 14.3804,49.3017 14.5264,50.8797 C14.5414,51.0427 14.7034,51.1917 14.7144,51.2097" id="Fill-5" fill="#231916"></path>
                <path d="M66.1636,106.4443 C65.9156,107.2953 65.7986,108.0963 66.5366,108.8733 C66.8226,109.1733 66.9726,109.6793 67.0246,110.1113 C67.1866,111.4393 66.6826,112.7923 67.8096,114.0713 C68.3086,114.6363 67.9126,115.9533 68.0156,116.9193 C68.0626,117.3783 68.3126,117.8193 68.4956,118.2583 C68.6106,118.5373 68.9056,118.8103 68.8836,119.0643 C68.7986,120.0103 68.9636,120.7793 69.7046,121.4793 C69.9216,121.6833 69.6676,122.3843 69.6296,122.8583 C69.2446,122.7183 68.7486,122.6853 68.4956,122.4193 C67.6166,121.4983 66.3126,120.7663 66.7416,119.1243 C66.7786,118.9843 66.6156,118.7663 66.5026,118.6173 C65.8646,117.7773 65.8596,117.7813 66.3766,117.0463 C65.7696,115.0163 65.1916,113.0833 64.5946,111.0813 C63.7526,111.5073 63.2256,112.0973 63.3126,113.1473 C63.3966,114.1613 63.4966,115.2213 62.4636,115.8863 C62.1426,116.0913 61.7566,116.1933 61.3986,116.3423 C61.3076,115.9153 60.9896,115.2763 61.1596,115.0953 C62.5396,113.6283 61.7946,111.8333 62.0526,110.2023 C62.1306,109.7043 62.4186,109.2403 62.6076,108.7593 C62.8146,108.2313 62.8846,107.5633 63.2546,107.2023 C63.8996,106.5703 64.7296,106.1273 65.4386,105.6353 C64.8626,103.8493 64.2286,101.8823 63.5636,99.8193 C62.8096,101.1283 62.0796,102.4053 61.3376,103.6763 C61.2046,103.9053 61.0426,104.1233 60.8646,104.3183 C60.2486,104.9923 59.5516,105.5273 59.3836,106.5913 C59.2166,107.6443 57.0996,108.4983 56.0876,108.0883 C55.4266,107.8193 55.4416,107.3763 55.9246,106.9163 C56.3766,106.4863 56.9536,106.1403 57.2776,105.6323 C58.2846,104.0553 59.6026,102.6783 60.2826,100.8843 C60.4336,100.4843 60.8556,100.1533 61.2176,99.8733 C62.5616,98.8293 62.1196,97.4883 62.0336,96.2033 C61.8996,96.1623 61.7656,96.1223 61.6316,96.0823 C61.5226,96.4053 61.3986,96.7233 61.3096,97.0523 C61.1786,97.5393 61.0726,98.0333 60.9556,98.5243 C60.6896,98.4183 60.3596,98.3793 60.1706,98.1953 C59.6246,97.6643 58.8076,97.1033 59.3206,96.2413 C59.6946,95.6143 60.3436,95.0273 61.0076,94.7473 C61.3916,94.5853 62.0466,95.0683 62.7726,95.3303 C63.9106,94.7743 64.3326,93.6873 63.6776,92.3323 C63.4846,92.4593 63.2936,92.5743 63.1146,92.7053 C62.4486,93.1963 61.9756,92.9203 62.0386,92.2133 C62.1416,91.0773 61.5296,89.7513 62.7916,88.8453 C62.9606,88.7243 63.0046,88.3503 63.0086,88.0923 C63.0276,86.6473 63.0316,85.2013 63.0046,83.7573 C62.9986,83.4663 62.9276,83.0623 62.7306,82.9093 C61.5896,82.0153 61.9126,81.2063 62.8926,80.3623 C61.4836,79.0873 62.1736,77.4513 62.0676,75.9583 C62.0186,75.2533 62.0596,74.6583 61.4346,74.0773 C60.6516,73.3493 61.1306,72.5923 61.6836,72.1513 C61.6246,71.3363 61.5766,70.6633 61.5286,69.9913 C61.6626,69.9833 61.7966,69.9753 61.9306,69.9673 C61.2096,69.3143 61.1166,68.7493 61.8876,68.0913 C62.1166,67.8953 62.0296,67.2893 62.0306,66.8703 C62.0326,66.1633 62.1956,65.6323 63.0416,65.5963 C63.9036,65.5603 64.2436,66.0023 64.2276,66.8133 C64.2086,67.8683 64.1956,68.9233 64.1836,69.9773 C64.1796,70.3023 64.1826,70.6273 64.1826,71.1503 C64.5986,70.9253 64.8056,70.8493 64.9696,70.7183 C65.6796,70.1533 66.1596,70.4253 66.0996,71.2153 C66.0136,72.3513 66.5816,73.6733 65.3176,74.5763 C65.1376,74.7043 65.1356,75.1523 65.1346,75.4523 C65.1226,78.3433 65.1236,81.2343 65.1366,84.1263 C65.1386,84.4253 65.1396,84.8803 65.3166,84.9993 C66.2806,85.6443 65.9356,86.2563 65.6626,86.8653 C65.8066,87.6943 66.0176,88.5173 66.0766,89.3523 C66.1496,90.4023 66.1626,91.4663 66.0746,92.5133 C66.0296,93.0433 65.7936,93.6113 65.4836,94.0503 C65.0506,94.6663 64.9846,95.1153 65.5636,95.6753 C66.3326,96.4193 66.3386,97.8313 65.6516,98.6203 C65.0096,99.3583 64.9826,100.5053 65.5656,101.2673 C65.7726,101.5383 66.1166,101.8753 66.0796,102.1353 C65.8196,103.9383 67.2176,104.7223 68.1886,105.7853 C68.4426,106.0643 68.7966,106.6263 68.6906,106.7863 C68.3876,107.2483 67.8876,107.5923 67.4196,107.9193 C67.3706,107.9533 66.9606,107.6003 66.8346,107.3643 C66.6756,107.0643 66.6356,106.7013 66.5446,106.3653 L66.1636,106.4443 Z" id="Fill-7" fill="#231916"></path>
                <path d="M17.2046,8.8745 C17.9526,7.8835 18.4476,7.2275 18.9436,6.5705 C18.2006,6.0735 17.5056,5.3975 16.6876,5.1755 C16.3986,5.0965 15.3536,6.2465 15.4536,6.6245 C15.6436,7.3465 16.4086,7.9165 17.2046,8.8745 M24.5846,1.0025 C24.8506,3.2305 26.7716,4.1055 27.9796,5.5075 C28.7626,6.4155 29.6636,7.0705 29.5446,8.5445 C29.4806,9.3225 30.0596,10.3465 30.6646,10.9355 C31.4506,11.7015 31.3696,12.5145 31.3746,13.3955 C31.3776,13.9435 31.3886,14.4905 31.3806,15.0375 C31.3686,15.8475 30.8706,16.1045 30.1456,16.1075 C29.3226,16.1125 29.1916,15.5885 29.2256,14.9305 C29.2276,14.8915 29.2366,14.8525 29.2386,14.8135 C29.3456,12.4305 29.3456,12.4305 26.9926,12.4535 C26.7976,12.4555 26.5646,12.5185 26.4156,12.4345 C26.1136,12.2665 25.8566,12.0165 25.5826,11.7995 C25.8466,11.5745 26.0826,11.2155 26.3816,11.1525 C26.8906,11.0445 27.4376,11.1225 28.2006,11.1225 C27.9476,10.6845 27.8786,10.3785 27.6956,10.2765 C26.4576,9.5875 25.3276,8.6235 23.7896,8.6455 C23.1646,8.6535 22.5106,8.7665 21.9206,8.6225 C20.5166,8.2785 19.7376,9.6565 18.5076,9.7845 C18.3746,9.7975 18.1606,10.5715 18.2516,10.9225 C18.6586,12.4805 17.3026,13.4765 17.0516,14.8235 C17.0126,15.0305 16.1806,15.1725 15.7066,15.2005 C13.9746,15.3025 13.1156,16.7285 13.8566,18.4485 C13.9876,18.3745 14.1026,18.2735 14.2366,18.2375 C14.5806,18.1445 14.9336,18.0805 15.2826,18.0035 C15.1706,18.3255 15.0646,18.6485 14.9436,18.9665 C14.8016,19.3425 14.7146,19.7665 14.4756,20.0695 C14.2696,20.3315 13.6656,20.6585 13.6146,20.6035 C13.1236,20.0805 12.4186,19.5165 12.3456,18.8975 C12.2186,17.8245 11.8536,16.6575 12.9756,15.6455 C13.5216,15.1545 13.5566,14.1025 12.8786,13.2945 C12.5646,12.9215 12.3516,12.3555 12.3286,11.8655 C12.2656,10.5415 12.3016,9.2095 12.3506,7.8835 C12.3796,7.0785 12.0616,6.6725 11.2586,6.7785 C9.4636,7.0145 9.3626,6.2025 9.5306,4.4925 C9.5566,4.2345 9.8356,3.8065 10.0256,3.7905 C11.5996,3.6605 12.2016,2.2925 13.1926,1.4215 C13.4026,1.2375 13.6876,1.0225 13.9396,1.0205 C17.4906,0.9945 21.0416,1.0025 24.5846,1.0025" id="Fill-9" fill="#231916"></path>
                <path d="M52.0884,135.7505 C52.0884,140.1665 52.1054,144.5825 52.0604,148.9975 C52.0564,149.4015 51.6634,149.8015 51.4514,150.2035 C51.2134,149.8725 50.9604,149.5485 50.7364,149.2075 C49.0554,146.6415 49.9704,143.7735 49.8874,141.0495 C49.7384,136.1295 49.8254,131.2025 49.8634,126.2785 C49.8674,125.7515 50.2084,125.2295 50.3904,124.7035 C50.5124,124.3485 50.7184,123.9945 50.7314,123.6335 C50.7824,122.2295 50.7824,120.8215 50.7804,119.4155 C50.7794,118.5225 50.6654,117.6485 51.4914,116.9405 C51.6794,116.7805 51.5414,115.9725 51.3064,115.6355 C50.6264,114.6635 50.5474,113.6455 51.2134,112.6605 C51.3474,112.4635 51.4934,112.0365 51.4174,111.9725 C50.3784,111.0995 50.8774,109.9325 50.7984,108.8895 C50.7354,108.0735 50.7694,107.2495 50.7814,106.4285 C50.7864,106.1205 50.7354,105.6775 50.9094,105.5275 C52.0964,104.5075 51.7584,103.1545 51.6834,101.9195 C51.6214,100.8915 52.1734,100.3025 52.8084,99.7455 C53.4014,99.2235 53.9784,99.5305 53.8934,100.2285 C53.7134,101.7105 54.5104,103.3665 53.1384,104.6755 C52.9184,104.8845 52.9564,105.4145 52.9564,105.7965 C52.9484,110.3675 52.9784,114.9385 52.9334,119.5085 C52.9274,120.1055 52.5554,120.6985 52.3634,121.2965 C52.2494,121.6555 52.0714,122.0225 52.0694,122.3865 C52.0504,126.8405 52.0574,131.2955 52.0574,135.7505 L52.0884,135.7505 Z" id="Fill-11" fill="#231916"></path>
                <path d="M11.7242,93.3477 C11.7242,94.4407 11.7352,95.5347 11.7202,96.6267 C11.7102,97.4057 11.6092,98.1647 12.3512,98.7647 C12.5812,98.9517 12.5982,99.4807 12.6052,99.8547 C12.6382,101.8057 12.6342,103.7587 12.6532,105.7107 C12.6552,105.9797 12.6032,106.3587 12.7532,106.5007 C14.0682,107.7487 13.5762,109.3567 13.5652,110.8117 C13.5552,112.2647 14.4902,113.2527 14.9522,114.4657 C15.1112,114.8817 15.2732,115.2967 15.4292,115.7137 C15.6312,116.2537 15.8902,116.7837 16.0072,117.3427 C16.0782,117.6837 16.0592,118.2167 15.8492,118.4067 C15.4742,118.7457 14.7042,119.2047 14.4902,119.0557 C13.9662,118.6907 13.6612,118.0097 13.2822,117.4457 C13.2242,117.3587 13.2892,117.1807 13.2262,117.1067 C11.5062,115.1107 12.6302,112.6997 12.2452,110.5127 C12.1442,109.9407 11.8122,109.4097 11.7032,108.8387 C11.5242,107.9007 11.4822,106.9357 11.3002,105.9977 C11.1752,105.3537 10.8972,104.7407 10.7172,104.1047 C10.5942,103.6667 10.4472,103.2157 10.4412,102.7687 C10.4042,100.2317 10.4112,97.6927 10.3922,95.1557 C10.3902,94.8877 10.4212,94.5137 10.2682,94.3707 C8.9142,93.1137 9.5692,91.4957 9.5652,90.0537 C9.5632,89.4767 10.2302,88.7037 10.7982,88.3707 C11.5092,87.9527 11.6962,88.6617 11.7032,89.2517 C11.7182,90.6167 11.7072,91.9827 11.7072,93.3477 L11.7242,93.3477 Z" id="Fill-13" fill="#231916"></path>
                <path d="M102.8687,32.0923 C102.3947,33.2453 101.9077,34.3933 101.4527,35.5543 C101.2227,36.1403 101.0727,36.7573 100.8507,37.3463 C100.4957,38.2973 100.2057,39.2903 99.7057,40.1603 C99.3867,40.7163 98.7327,40.4213 98.6857,39.9023 C98.6197,39.1703 98.7957,38.4013 98.9567,37.6673 C99.0737,37.1343 99.3337,36.6333 99.5297,36.1173 C99.7157,35.6303 99.8887,35.1373 100.0917,34.6573 C100.1647,34.4853 100.4247,34.3283 100.4067,34.1893 C100.2457,32.9193 101.0227,31.9463 101.4367,30.8643 C101.5517,30.5643 101.8687,30.3413 102.0927,30.0823 C102.3007,30.3723 102.5947,30.6363 102.6927,30.9603 C102.7887,31.2763 102.6837,31.6523 102.6677,32.0023 C102.7347,32.0323 102.8017,32.0623 102.8687,32.0923" id="Fill-15" fill="#231916"></path>
                <path d="M26.3941,17.6206 C25.9781,17.0826 25.7671,16.8596 25.6141,16.6026 C25.1651,15.8526 25.4971,15.1906 26.3271,14.9096 C26.6831,14.7876 26.9871,14.4506 27.2561,14.1566 C27.4941,13.8986 27.6261,13.5466 27.8621,13.2866 C27.8991,13.2456 28.3771,13.4456 28.4031,13.5806 C28.4771,13.9706 28.5821,14.6196 28.3931,14.7476 C27.3551,15.4516 27.6251,16.4336 27.6751,17.3806 C27.7201,18.2156 27.5031,18.8396 26.5461,18.9716 C26.3261,19.0016 26.0551,19.0806 25.9191,19.2366 C25.1671,20.0956 24.6091,19.5456 24.1021,18.9816 C23.9041,18.7616 23.7471,18.3736 23.7971,18.1066 C23.8311,17.9336 24.2661,17.7686 24.5411,17.7256 C25.0511,17.6466 25.5751,17.6606 26.3941,17.6206" id="Fill-17" fill="#231916"></path>
                <path d="M38.2564,55.4961 C37.9274,56.1921 37.5514,56.8711 37.2874,57.5911 C37.1204,58.0461 37.2184,58.6051 37.0214,59.0381 C36.8124,59.4961 36.4444,59.9281 36.0414,60.2291 C35.8844,60.3461 35.3074,60.1631 35.1614,59.9511 C35.0354,59.7681 35.2314,59.3461 35.3174,59.0391 C35.4374,58.6101 35.5784,58.1861 35.7284,57.7661 C35.9134,57.2421 36.1404,56.7321 36.3054,56.2031 C36.4494,55.7421 36.4884,55.2461 36.6574,54.7971 C36.8244,54.3521 37.0974,53.9481 37.3234,53.5251 C37.5524,53.9471 37.8034,54.3591 37.9974,54.7961 C38.0694,54.9581 38.0094,55.1801 38.0094,55.3741 C38.0914,55.4151 38.1744,55.4551 38.2564,55.4961" id="Fill-19" fill="#231916"></path>
                <path d="M111.8082,16.501 C111.7092,16.14 111.6872,15.732 111.4992,15.425 C110.9412,14.514 111.0832,13.638 112.0782,13.335 C112.4452,13.223 113.0802,13.673 113.4512,14.02 C113.6572,14.213 113.6602,14.74 113.5912,15.084 C113.4952,15.577 113.2642,16.047 113.0622,16.515 C112.8592,16.984 112.6202,17.438 112.3972,17.897 C112.0942,17.499 111.7902,17.1 111.4882,16.701 C111.5942,16.634 111.7012,16.568 111.8082,16.501" id="Fill-21" fill="#231916"></path>
                <path d="M110.2076,19.7041 C110.2076,19.9751 110.2236,20.2471 110.2046,20.5171 C110.1286,21.6271 109.2886,22.0611 108.3546,21.4641 C108.0626,21.2781 107.7776,21.0581 107.5506,20.8011 C107.3876,20.6181 107.1836,20.2861 107.2506,20.1271 C107.3476,19.8961 107.6616,19.6331 107.9026,19.6121 C108.4696,19.5641 108.8256,19.4601 108.9506,18.7951 C109.0146,18.4531 109.4336,18.1771 109.6906,17.8711 C109.8836,18.2491 110.1106,18.6161 110.2536,19.0131 C110.3246,19.2141 110.2426,19.4721 110.2296,19.7041 L110.2076,19.7041 Z" id="Fill-23" fill="#231916"></path>
                <path d="M108.6714,22.2466 C109.1624,22.5796 110.1544,23.0296 110.1074,23.2606 C109.9564,23.9756 109.4344,24.6256 108.9804,25.2446 C108.9324,25.3086 108.2744,25.0736 108.0704,24.8316 C107.8484,24.5686 107.8344,24.1336 107.7124,23.7796 C107.5884,23.4206 107.4434,23.0696 107.3084,22.7146 C107.6834,22.5856 108.0584,22.4566 108.6714,22.2466" id="Fill-25" fill="#231916"></path>
                <path d="M22.2212,13.8677 C22.4652,14.2667 22.8642,14.6447 22.9202,15.0687 C23.0232,15.8437 22.4832,16.2947 21.7602,16.1017 C21.3592,15.9937 20.7702,15.4207 20.8042,15.1197 C20.8582,14.6577 21.3752,14.2477 21.6972,13.8167 L22.2212,13.8677 Z" id="Fill-27" fill="#231916"></path>
                <path d="M20.7056,12.0464 C20.7796,12.0534 21.1156,12.0174 21.3816,12.1364 C21.5766,12.2234 21.8416,12.5594 21.8006,12.7074 C21.5366,13.6584 20.6956,13.3964 20.0646,13.3564 C19.7216,13.3344 19.4036,12.9244 19.0736,12.6904 C19.4626,12.4764 19.8496,12.2564 20.2426,12.0504 C20.3036,12.0194 20.3946,12.0464 20.7056,12.0464" id="Fill-29" fill="#231916"></path>
                <path d="M112.0259,79.7607 C112.0259,80.7767 112.1119,81.8017 111.9959,82.8037 C111.9179,83.4877 111.5049,84.1267 111.3389,84.8097 C111.1969,85.3977 111.1739,86.0187 111.1329,86.6287 C111.0629,87.6787 111.4409,88.8127 110.3389,89.6407 C110.1109,89.8127 110.2039,90.4447 110.1919,90.8657 C110.1729,91.5307 110.1539,92.1977 110.2039,92.8587 C110.2789,93.8547 110.0129,94.6467 109.2639,95.3737 C108.7989,95.8247 108.6369,96.5727 108.2429,97.1177 C108.0229,97.4207 107.6319,97.6657 107.2699,97.7737 C107.0439,97.8407 106.5079,97.6277 106.4929,97.4967 C106.4559,97.1697 106.6279,96.8157 106.7309,96.4767 C106.8409,96.1157 106.9619,95.7577 107.0909,95.4027 C107.3049,94.8187 107.5439,94.2427 107.7479,93.6557 C107.8709,93.3027 108.0199,92.9357 108.0339,92.5707 C108.0669,91.6727 107.9409,90.7627 108.0479,89.8777 C108.1249,89.2407 108.4849,88.6407 108.6959,88.0167 C108.8159,87.6607 108.9739,87.2897 108.9729,86.9267 C108.9619,82.5497 108.9229,78.1717 108.8939,73.7947 C108.8919,73.5217 108.8489,73.2267 108.9359,72.9817 C109.0149,72.7557 109.2549,72.4127 109.4049,72.4224862 C109.6589,72.4397 110.0239,72.6407 110.1129,72.8587 C110.2529,73.1987 110.1159,73.6527 110.2539,73.9947 C110.4009,74.3587 110.6889,74.8727 110.9889,74.9287 C111.7989,75.0807 112.0069,75.5377 112.0049,76.2427 C111.9999,77.4157 112.0039,78.5887 112.0039,79.7607 L112.0259,79.7607 Z" id="Fill-31" fill="#231916"></path>
            </g>
        </g>
    </g>
</svg>